<svg width="1603" height="82" viewBox="0 0 1603 82" fill="none" xmlns="http://www.w3.org/2000/svg">
<path d="M35.85 11.475C38.9 11.525 40.425 12.775 40.425 15.225V46.2C40.425 49.1 39.05 50.55 36.3 50.55H24.375C22.025 50.55 20.775 49.6 20.625 47.7C20.425 49.6 19.15 50.55 16.8 50.55H5.025C2.175 50.55 0.75 49.125 0.75 46.275V33.45C0.75 30.85 2.075 29.5 4.725 29.4H13.575V37.05H9.975C8.875 37.2 8.325 37.8 8.325 38.85V40.725C8.325 41.425 8.5 41.975 8.85 42.375C9.25 42.725 9.75 42.925 10.35 42.975H14.775C15.375 42.975 15.85 42.825 16.2 42.525C16.6 42.175 16.8 41.675 16.8 41.025V39.075H24.375V40.95C24.375 42.3 25.05 42.975 26.4 42.975H30.6C31.35 42.975 31.9 42.875 32.25 42.675C32.65 42.425 32.85 41.95 32.85 41.25V20.7C32.85 19.35 32.125 18.675 30.675 18.675H7.725V11.475H35.85ZM61.268 11.4C64.018 11.4 65.393 12.7 65.393 15.3V24.525C65.393 26.925 64.218 28.2 61.868 28.35H55.193V40.725C55.293 42.475 56.193 43.35 57.893 43.35H71.768C73.868 43.35 74.918 42.425 74.918 40.575V20.175C74.918 19.175 74.518 18.675 73.718 18.675H70.568V11.4H78.368C79.668 11.4 80.618 11.725 81.218 12.375C81.868 12.975 82.193 13.8 82.193 14.85V46.2C82.193 49.15 80.768 50.625 77.918 50.625H52.043C49.293 50.625 47.918 49.25 47.918 46.5V15.525C47.918 12.775 49.318 11.4 52.118 11.4H61.268ZM55.268 20.325C55.268 20.875 55.568 21.15 56.168 21.15H57.143C57.793 21.15 58.118 20.875 58.118 20.325V19.425C58.068 18.925 57.718 18.675 57.068 18.675H56.018C55.468 18.675 55.193 18.95 55.193 19.5L55.268 20.325ZM97.4807 41.775C97.4807 41.275 97.1557 41.025 96.5057 41.025H95.6057C94.9557 41.025 94.6307 41.3 94.6307 41.85V42.75C94.6807 43.2 95.0057 43.425 95.6057 43.425H96.6557C97.2557 43.425 97.5557 43.175 97.5557 42.675L97.4807 41.775ZM100.556 11.475C103.356 11.475 104.756 12.85 104.756 15.6V46.725C104.756 49.325 103.431 50.625 100.781 50.625H92.1557C89.3557 50.625 87.9557 49.325 87.9557 46.725V36.825C87.9557 34.575 89.0807 33.325 91.3307 33.075H97.4807V21.6C97.4807 19.7 96.5557 18.725 94.7057 18.675H69.1307V11.475H100.556ZM106.825 62.025C106.075 62.025 105.7 62.425 105.7 63.225V64.8H100.75V63.3C100.75 62.45 100.3 62.025 99.3996 62.025H96.3246C95.5746 62.025 95.1996 62.45 95.1996 63.3V66.375C95.1996 67.275 95.5996 67.725 96.3996 67.725H98.6496V72.45H91.8996C90.7496 72.35 90.1746 71.825 90.1746 70.875V59.55C90.2246 57.9 91.1496 57.05 92.9496 57H100.75C102.25 57.05 103.075 57.55 103.225 58.5C103.375 57.55 104.2 57.05 105.7 57H113.425C115.225 57.05 116.15 57.9 116.2 59.55V70.875C116.2 71.825 115.625 72.35 114.475 72.45H107.725V67.725H109.975C110.775 67.725 111.175 67.275 111.175 66.375V63.3C111.175 62.45 110.8 62.025 110.05 62.025H106.825ZM116.546 22.35C116.546 20.2 117.571 18.975 119.621 18.675H116.546V11.475H145.046C146.546 11.475 147.296 10.85 147.296 9.6V3.375H154.571V14.85C154.571 16 154.271 16.9 153.671 17.55C153.071 18.2 152.146 18.575 150.896 18.675C153.346 18.875 154.571 20.15 154.571 22.5V46.725C154.571 49.325 153.196 50.625 150.446 50.625H139.196C136.846 50.625 135.646 49.975 135.596 48.675C135.296 49.975 134.071 50.625 131.921 50.625H120.596C117.896 50.625 116.546 49.4 116.546 46.95V22.35ZM125.921 18.675C124.521 18.675 123.821 19.375 123.821 20.775V41.175C123.821 42.625 124.571 43.35 126.071 43.35H129.971C130.521 43.35 130.971 43.175 131.321 42.825C131.721 42.425 131.921 41.875 131.921 41.175V38.7H139.196V41.1C139.196 42.6 139.946 43.35 141.446 43.35H144.971C146.521 43.35 147.296 42.6 147.296 41.1V20.775C147.296 19.375 146.596 18.675 145.196 18.675H125.921ZM189.322 18.6C190.572 18.6 191.497 18.875 192.097 19.425C192.747 19.925 193.072 20.775 193.072 21.975V46.5C193.072 49.3 191.622 50.7 188.722 50.7H166.147C163.597 50.7 162.322 49.275 162.322 46.425V22.275C162.322 20.125 163.272 18.9 165.172 18.6H162.322V11.4H183.772C185.072 11.4 185.722 10.775 185.722 9.525V3.375H192.997V14.775C192.997 17.125 191.772 18.4 189.322 18.6ZM172.372 22.35C170.522 22.35 169.597 23.35 169.597 25.35V40.5C169.597 42.45 170.497 43.425 172.297 43.425H183.097C184.997 43.425 185.947 42.525 185.947 40.725V25.05C185.847 23.25 184.997 22.35 183.397 22.35H172.372ZM233.105 11.4C236.505 11.4 238.28 12.775 238.43 15.525V46.125C238.43 47.625 238.13 48.725 237.53 49.425C236.93 50.125 235.93 50.475 234.53 50.475H224.03C221.68 50.475 220.455 49.15 220.355 46.5V36.225C220.405 33.925 221.53 32.725 223.73 32.625H231.155V21.525C231.055 20.475 230.755 19.725 230.255 19.275C229.755 18.825 229.005 18.6 228.005 18.6H217.355C215.405 18.7 214.43 19.675 214.43 21.525V46.35C214.38 49.1 212.83 50.475 209.78 50.475H195.455C193.005 50.475 191.78 49.35 191.78 47.1V41.475C192.03 42.625 192.705 43.2 193.805 43.2H204.905C206.355 43.2 207.13 42.6 207.23 41.4V15.825C207.23 12.875 208.655 11.4 211.505 11.4H233.105ZM231.08 41.55C231.08 41.05 230.755 40.8 230.105 40.8H229.205C228.555 40.8 228.23 41.075 228.23 41.625V42.525C228.28 42.975 228.605 43.2 229.205 43.2H230.255C230.805 43.2 231.08 43 231.08 42.6V41.55ZM323.728 60.825H312.103C309.853 60.825 307.978 59.95 306.478 58.2C304.978 56.45 304.228 53.925 304.228 50.625H296.428C294.028 50.525 292.803 49.1 292.753 46.35V36.075C292.753 33.875 293.928 32.725 296.278 32.625H308.053C310.103 32.725 311.278 33.65 311.578 35.4V21.15C311.578 19.55 310.728 18.75 309.028 18.75H306.028C304.378 18.75 303.528 19.525 303.478 21.075V26.925H296.203V21.075C296.203 19.525 295.428 18.75 293.878 18.75H290.278C288.828 18.75 288.103 19.525 288.103 21.075V27.975H280.828V15.675C280.928 12.875 282.328 11.475 285.028 11.475H296.203C297.253 11.525 298.103 11.775 298.753 12.225C299.403 12.675 299.778 13.35 299.878 14.25C299.928 12.4 301.128 11.475 303.478 11.475H313.678C315.428 11.475 316.728 11.825 317.578 12.525C318.428 13.175 318.853 14.1 318.853 15.3V46.35C318.803 47.7 318.453 48.75 317.803 49.5C317.203 50.25 316.303 50.625 315.103 50.625H311.653V52.125C311.653 54.425 313.403 55.55 316.903 55.5L323.728 55.425V60.825ZM300.328 39.825C299.378 39.825 298.903 40.25 298.903 41.1V42.075C298.903 42.875 299.378 43.275 300.328 43.275H302.878C303.878 43.275 304.378 42.875 304.378 42.075V41.1C304.378 40.25 303.853 39.825 302.803 39.825H300.328ZM358.219 18.6C359.469 18.6 360.394 18.875 360.994 19.425C361.644 19.925 361.969 20.775 361.969 21.975V46.5C361.969 49.3 360.519 50.7 357.619 50.7H335.044C332.494 50.7 331.219 49.275 331.219 46.425V22.275C331.219 20.125 332.169 18.9 334.069 18.6H331.219V11.4H352.669C353.969 11.4 354.619 10.775 354.619 9.525V3.375H361.894V14.775C361.894 17.125 360.669 18.4 358.219 18.6ZM341.269 22.35C339.419 22.35 338.494 23.35 338.494 25.35V40.5C338.494 42.45 339.394 43.425 341.194 43.425H351.994C353.894 43.425 354.844 42.525 354.844 40.725V25.05C354.744 23.25 353.894 22.35 352.294 22.35H341.269ZM380.851 11.475C383.051 11.475 384.151 12.675 384.151 15.075V46.95C384.151 49.4 382.951 50.625 380.551 50.625H364.426C363.026 50.625 362.026 50.35 361.426 49.8C360.826 49.25 360.526 48.425 360.526 47.325V42C360.676 42.9 361.251 43.35 362.251 43.35H374.776C376.176 43.35 376.876 42.6 376.876 41.1V20.775C376.876 19.375 376.026 18.675 374.326 18.675H370.351V11.475H380.851ZM461.607 11.475C464.657 11.525 466.182 12.775 466.182 15.225V46.2C466.182 49.1 464.807 50.55 462.057 50.55H450.132C447.782 50.55 446.532 49.6 446.382 47.7C446.182 49.6 444.907 50.55 442.557 50.55H430.782C427.932 50.55 426.507 49.125 426.507 46.275V33.45C426.507 30.85 427.832 29.5 430.482 29.4H439.332V37.05H435.732C434.632 37.2 434.082 37.8 434.082 38.85V40.725C434.082 41.425 434.257 41.975 434.607 42.375C435.007 42.725 435.507 42.925 436.107 42.975H440.532C441.132 42.975 441.607 42.825 441.957 42.525C442.357 42.175 442.557 41.675 442.557 41.025V39.075H450.132V40.95C450.132 42.3 450.807 42.975 452.157 42.975H456.357C457.107 42.975 457.657 42.875 458.007 42.675C458.407 42.425 458.607 41.95 458.607 41.25V20.7C458.607 19.35 457.882 18.675 456.432 18.675H433.482V11.475H461.607ZM490.4 43.125C491.7 43.125 492.4 42.4 492.5 40.95V20.625C492.4 19.175 491.7 18.45 490.4 18.45H483.05C481.65 18.45 480.95 19.175 480.95 20.625V40.875C480.95 41.625 481.1 42.2 481.4 42.6C481.7 42.95 482.225 43.125 482.975 43.125H490.4ZM477.35 50.55C474.9 50.55 473.675 49.325 473.675 46.875L473.75 15C473.75 12.65 475.025 11.475 477.575 11.475H495.95C498.45 11.475 499.7 12.65 499.7 15V46.8C499.6 49.3 498.375 50.55 496.025 50.55H477.35ZM537.595 18.675C540.345 18.825 541.72 20.125 541.72 22.575V26.4C541.72 29 540.82 30.4 539.02 30.6C540.82 30.85 541.72 32.025 541.72 34.125V47.025C541.72 49.425 540.47 50.625 537.97 50.625H510.745C508.395 50.625 507.22 49.425 507.22 47.025V32.55C507.22 30.1 508.22 28.875 510.22 28.875H518.92V35.1H515.62C514.92 35.1 514.545 35.65 514.495 36.75V41.1C514.495 42.6 515.295 43.35 516.895 43.35H532.045C533.645 43.35 534.445 42.6 534.445 41.1V36.225C534.445 34.775 533.82 34.05 532.57 34.05H528.37V26.85H532.495C533.795 26.85 534.445 26.025 534.445 24.375V21.075C534.445 19.475 533.52 18.675 531.67 18.675H507.22V11.4H537.52L537.595 18.675ZM557.002 41.775C557.002 41.275 556.677 41.025 556.027 41.025H555.127C554.477 41.025 554.152 41.3 554.152 41.85V42.75C554.202 43.2 554.527 43.425 555.127 43.425H556.177C556.777 43.425 557.077 43.175 557.077 42.675L557.002 41.775ZM560.077 11.475C562.877 11.475 564.277 12.85 564.277 15.6V46.725C564.277 49.325 562.952 50.625 560.302 50.625H551.677C548.877 50.625 547.477 49.325 547.477 46.725V36.825C547.477 34.575 548.602 33.325 550.852 33.075H557.002V21.6C557.002 19.7 556.077 18.725 554.227 18.675H528.652V11.475H560.077ZM571.746 22.35C571.746 20.2 572.771 18.975 574.821 18.675H571.746V11.475H600.246C601.746 11.475 602.496 10.85 602.496 9.6V3.375H609.771V14.85C609.771 16 609.471 16.9 608.871 17.55C608.271 18.2 607.346 18.575 606.096 18.675C608.546 18.875 609.771 20.15 609.771 22.5V46.725C609.771 49.325 608.396 50.625 605.646 50.625H594.396C592.046 50.625 590.846 49.975 590.796 48.675C590.496 49.975 589.271 50.625 587.121 50.625H575.796C573.096 50.625 571.746 49.4 571.746 46.95V22.35ZM581.121 18.675C579.721 18.675 579.021 19.375 579.021 20.775V41.175C579.021 42.625 579.771 43.35 581.271 43.35H585.171C585.721 43.35 586.171 43.175 586.521 42.825C586.921 42.425 587.121 41.875 587.121 41.175V38.7H594.396V41.1C594.396 42.6 595.146 43.35 596.646 43.35H600.171C601.721 43.35 602.496 42.6 602.496 41.1V20.775C602.496 19.375 601.796 18.675 600.396 18.675H581.121ZM644.522 18.6C645.772 18.6 646.697 18.875 647.297 19.425C647.947 19.925 648.272 20.775 648.272 21.975V46.5C648.272 49.3 646.822 50.7 643.922 50.7H621.347C618.797 50.7 617.522 49.275 617.522 46.425V22.275C617.522 20.125 618.472 18.9 620.372 18.6H617.522V11.4H638.972C640.272 11.4 640.922 10.775 640.922 9.525V3.375H648.197V14.775C648.197 17.125 646.972 18.4 644.522 18.6ZM627.572 22.35C625.722 22.35 624.797 23.35 624.797 25.35V40.5C624.797 42.45 625.697 43.425 627.497 43.425H638.297C640.197 43.425 641.147 42.525 641.147 40.725V25.05C641.047 23.25 640.197 22.35 638.597 22.35H627.572ZM667.155 11.475C669.355 11.475 670.455 12.675 670.455 15.075V46.95C670.455 49.4 669.255 50.625 666.855 50.625H650.73C649.33 50.625 648.33 50.35 647.73 49.8C647.13 49.25 646.83 48.425 646.83 47.325V42C646.98 42.9 647.555 43.35 648.555 43.35H661.08C662.48 43.35 663.18 42.6 663.18 41.1V20.775C663.18 19.375 662.33 18.675 660.63 18.675H656.655V11.475H667.155ZM755.711 60.825H744.086C741.836 60.825 739.961 59.95 738.461 58.2C736.961 56.45 736.211 53.925 736.211 50.625H728.411C726.011 50.525 724.786 49.1 724.736 46.35V36.075C724.736 33.875 725.911 32.725 728.261 32.625H740.036C742.086 32.725 743.261 33.65 743.561 35.4V21.15C743.561 19.55 742.711 18.75 741.011 18.75H738.011C736.361 18.75 735.511 19.525 735.461 21.075V26.925H728.186V21.075C728.186 19.525 727.411 18.75 725.861 18.75H722.261C720.811 18.75 720.086 19.525 720.086 21.075V27.975H712.811V15.675C712.911 12.875 714.311 11.475 717.011 11.475H728.186C729.236 11.525 730.086 11.775 730.736 12.225C731.386 12.675 731.761 13.35 731.861 14.25C731.911 12.4 733.111 11.475 735.461 11.475H745.661C747.411 11.475 748.711 11.825 749.561 12.525C750.411 13.175 750.836 14.1 750.836 15.3V46.35C750.786 47.7 750.436 48.75 749.786 49.5C749.186 50.25 748.286 50.625 747.086 50.625H743.636V52.125C743.636 54.425 745.386 55.55 748.886 55.5L755.711 55.425V60.825ZM732.311 39.825C731.361 39.825 730.886 40.25 730.886 41.1V42.075C730.886 42.875 731.361 43.275 732.311 43.275H734.861C735.861 43.275 736.361 42.875 736.361 42.075V41.1C736.361 40.25 735.836 39.825 734.786 39.825H732.311ZM790.201 18.6C791.451 18.6 792.376 18.875 792.976 19.425C793.626 19.925 793.951 20.775 793.951 21.975V46.5C793.951 49.3 792.501 50.7 789.601 50.7H767.026C764.476 50.7 763.201 49.275 763.201 46.425V22.275C763.201 20.125 764.151 18.9 766.051 18.6H763.201V11.4H784.651C785.951 11.4 786.601 10.775 786.601 9.525V3.375H793.876V14.775C793.876 17.125 792.651 18.4 790.201 18.6ZM773.251 22.35C771.401 22.35 770.476 23.35 770.476 25.35V40.5C770.476 42.45 771.376 43.425 773.176 43.425H783.976C785.876 43.425 786.826 42.525 786.826 40.725V25.05C786.726 23.25 785.876 22.35 784.276 22.35H773.251ZM812.834 11.475C815.034 11.475 816.134 12.675 816.134 15.075V46.95C816.134 49.4 814.934 50.625 812.534 50.625H796.409C795.009 50.625 794.009 50.35 793.409 49.8C792.809 49.25 792.509 48.425 792.509 47.325V42C792.659 42.9 793.234 43.35 794.234 43.35H806.759C808.159 43.35 808.859 42.6 808.859 41.1V20.775C808.859 19.375 808.009 18.675 806.309 18.675H802.334V11.475H812.834ZM893.589 11.475C896.639 11.525 898.164 12.775 898.164 15.225V46.2C898.164 49.1 896.789 50.55 894.039 50.55H882.114C879.764 50.55 878.514 49.6 878.364 47.7C878.164 49.6 876.889 50.55 874.539 50.55H862.764C859.914 50.55 858.489 49.125 858.489 46.275V33.45C858.489 30.85 859.814 29.5 862.464 29.4H871.314V37.05H867.714C866.614 37.2 866.064 37.8 866.064 38.85V40.725C866.064 41.425 866.239 41.975 866.589 42.375C866.989 42.725 867.489 42.925 868.089 42.975H872.514C873.114 42.975 873.589 42.825 873.939 42.525C874.339 42.175 874.539 41.675 874.539 41.025V39.075H882.114V40.95C882.114 42.3 882.789 42.975 884.139 42.975H888.339C889.089 42.975 889.639 42.875 889.989 42.675C890.389 42.425 890.589 41.95 890.589 41.25V20.7C890.589 19.35 889.864 18.675 888.414 18.675H865.464V11.475H893.589ZM922.382 43.125C923.682 43.125 924.382 42.4 924.482 40.95V20.625C924.382 19.175 923.682 18.45 922.382 18.45H915.032C913.632 18.45 912.932 19.175 912.932 20.625V40.875C912.932 41.625 913.082 42.2 913.382 42.6C913.682 42.95 914.207 43.125 914.957 43.125H922.382ZM909.332 50.55C906.882 50.55 905.657 49.325 905.657 46.875L905.732 15C905.732 12.65 907.007 11.475 909.557 11.475H927.932C930.432 11.475 931.682 12.65 931.682 15V46.8C931.582 49.3 930.357 50.55 928.007 50.55H909.332ZM939.202 22.35C939.202 20.2 940.227 18.975 942.277 18.675H939.202V11.475H973.252V18.675C975.902 18.775 977.227 20.05 977.227 22.5V46.725C977.227 49.325 975.852 50.625 973.102 50.625H961.852C959.502 50.625 958.302 49.975 958.252 48.675C957.952 49.975 956.727 50.625 954.577 50.625H943.252C940.552 50.625 939.202 49.4 939.202 46.95V22.35ZM948.577 18.675C947.177 18.675 946.477 19.375 946.477 20.775V41.175C946.477 42.625 947.227 43.35 948.727 43.35H952.627C953.177 43.35 953.627 43.175 953.977 42.825C954.377 42.425 954.577 41.875 954.577 41.175V38.7H961.852V41.1C961.852 42.6 962.602 43.35 964.102 43.35H967.627C969.177 43.35 969.952 42.6 969.952 41.1V20.775C969.952 19.375 969.252 18.675 967.852 18.675H948.577ZM974.725 0.899998C976.975 0.999997 978.1 2.075 978.1 4.125V14.175C978.1 17.175 976.65 18.675 973.75 18.675H960.7V11.475H969.775C970.475 11.475 970.825 11.125 970.825 10.425V9.15C970.825 8.35 970.3 7.95 969.25 7.95H968.5C968.25 9.15 967.525 9.75 966.325 9.75H961.15C959.55 9.75 958.75 8.875 958.75 7.125V3.375C958.75 1.825 959.5 0.999997 961 0.899998H974.725ZM997.675 43.125C998.975 43.125 999.675 42.4 999.775 40.95V20.625C999.675 19.175 998.975 18.45 997.675 18.45H990.325C988.925 18.45 988.225 19.175 988.225 20.625V40.875C988.225 41.625 988.375 42.2 988.675 42.6C988.975 42.95 989.5 43.125 990.25 43.125H997.675ZM984.625 50.55C982.175 50.55 980.95 49.325 980.95 46.875L981.025 15C981.025 12.65 982.3 11.475 984.85 11.475H1003.23C1005.73 11.475 1006.98 12.65 1006.98 15V46.8C1006.88 49.3 1005.65 50.55 1003.3 50.55H984.625ZM1049.15 0.824999C1051.3 0.824999 1052.42 2.025 1052.52 4.425V47.175C1052.52 49.575 1051.2 50.775 1048.55 50.775H1037.15C1034.85 50.775 1033.62 50.1 1033.47 48.75C1033.32 49.45 1032.97 49.975 1032.42 50.325C1031.92 50.625 1031.1 50.775 1029.95 50.775H1018.25C1015.8 50.725 1014.55 49.5 1014.5 47.1V17.55C1014.55 15.1 1015.65 13.875 1017.8 13.875H1019.97C1018.52 13.725 1017.8 12.725 1017.8 10.875V4.425C1017.8 2.025 1018.87 0.824999 1021.02 0.824999H1049.15ZM1038.2 7.425C1039.85 7.725 1040.67 8.5 1040.67 9.75V16.725C1040.67 19.175 1039.55 20.4 1037.3 20.4H1025.07C1022.97 20.4 1021.87 21.275 1021.77 23.025V41.175C1021.77 42.725 1022.47 43.5 1023.87 43.5H1027.62C1029.12 43.5 1029.87 42.775 1029.87 41.325V38.775H1037.15V41.325C1037.15 42.775 1037.85 43.5 1039.25 43.5H1043.15C1044.55 43.5 1045.25 42.775 1045.25 41.325V10.8C1045.25 8.55 1044.17 7.425 1042.02 7.425H1038.2ZM1025.07 11.775C1025.07 13.175 1025.85 13.875 1027.4 13.875H1031.3C1032.65 13.875 1033.32 13.2 1033.32 11.85V9.45C1033.32 8.1 1032.65 7.425 1031.3 7.425H1027.32C1025.82 7.425 1025.07 8.1 1025.07 9.45V11.775ZM1091.18 3.375V14.85C1091.18 17.1 1090.03 18.375 1087.73 18.675C1090.18 18.675 1091.4 19.9 1091.4 22.35V50.7H1084.05V21.6C1084.05 19.8 1083.13 18.825 1081.28 18.675H1070.4C1068.35 18.675 1067.33 19.65 1067.33 21.6V41.325C1067.33 42.725 1067.95 43.425 1069.2 43.425H1071V50.7H1063.73C1062.53 50.7 1061.63 50.4 1061.03 49.8C1060.43 49.15 1060.1 48.25 1060.05 47.1V22.35C1060.05 20.2 1061 18.975 1062.9 18.675H1060.05V11.475H1081.95C1083.25 11.475 1083.9 10.85 1083.9 9.6V3.375H1091.18ZM1131.42 11.4C1134.82 11.4 1136.6 12.775 1136.75 15.525V46.125C1136.75 47.625 1136.45 48.725 1135.85 49.425C1135.25 50.125 1134.25 50.475 1132.85 50.475H1122.35C1120 50.475 1118.77 49.15 1118.67 46.5V36.225C1118.72 33.925 1119.85 32.725 1122.05 32.625H1129.47V21.525C1129.37 20.475 1129.07 19.725 1128.57 19.275C1128.07 18.825 1127.32 18.6 1126.32 18.6H1115.67C1113.72 18.7 1112.75 19.675 1112.75 21.525V46.35C1112.7 49.1 1111.15 50.475 1108.1 50.475H1093.77C1091.32 50.475 1090.1 49.35 1090.1 47.1V41.475C1090.35 42.625 1091.02 43.2 1092.12 43.2H1103.22C1104.67 43.2 1105.45 42.6 1105.55 41.4V15.825C1105.55 12.875 1106.97 11.4 1109.82 11.4H1131.42ZM1129.4 41.55C1129.4 41.05 1129.07 40.8 1128.42 40.8H1127.52C1126.87 40.8 1126.55 41.075 1126.55 41.625V42.525C1126.6 42.975 1126.92 43.2 1127.52 43.2H1128.57C1129.12 43.2 1129.4 43 1129.4 42.6V41.55ZM1213.34 0.824999C1215.89 0.824999 1217.17 2.025 1217.17 4.425V47.25C1217.17 49.65 1215.94 50.85 1213.49 50.85H1198.19C1195.74 50.85 1194.52 49.65 1194.52 47.25V36.45C1194.52 35 1193.77 34.275 1192.27 34.275H1188.37C1187.07 34.275 1186.42 35 1186.42 36.45V41.325C1186.42 42.175 1186.59 42.775 1186.94 43.125C1187.29 43.425 1187.82 43.575 1188.52 43.575H1189.94V50.85H1182.52C1180.27 50.85 1179.14 49.65 1179.14 47.25V30.825C1179.19 28.375 1180.44 27.15 1182.89 27.15H1198.12C1200.57 27.15 1201.79 28.375 1201.79 30.825V41.4C1201.79 42.25 1201.97 42.825 1202.32 43.125C1202.72 43.425 1203.29 43.575 1204.04 43.575H1207.42C1208.17 43.575 1208.72 43.425 1209.07 43.125C1209.47 42.825 1209.67 42.25 1209.67 41.4L1209.59 9.675C1209.39 8.725 1208.74 8.2 1207.64 8.1H1201.12C1201.62 8.3 1201.89 8.775 1201.94 9.525L1201.87 15.15C1201.82 16.35 1201.44 17.225 1200.74 17.775C1200.09 18.325 1199.24 18.6 1198.19 18.6H1190.77C1188.97 18.6 1188.07 17.525 1188.07 15.375V4.35C1188.12 2.1 1189.14 0.924998 1191.14 0.824999H1213.34ZM1193.77 11.025C1193.77 11.575 1194.07 11.875 1194.67 11.925H1195.64C1196.34 11.925 1196.69 11.6 1196.69 10.95V9.825C1196.69 9.275 1196.37 9 1195.72 9L1194.74 8.925C1194.09 8.925 1193.77 9.2 1193.77 9.75V11.025ZM1244.2 11.475C1246.35 11.525 1247.43 12.775 1247.43 15.225V27.9C1247.43 30.3 1246.35 31.525 1244.2 31.575H1233.33C1232.53 31.475 1232.1 31.175 1232.05 30.675V41.175C1232.05 41.875 1232.2 42.425 1232.5 42.825C1232.85 43.175 1233.45 43.35 1234.3 43.35H1237.98C1239.43 43.35 1240.15 42.6 1240.15 41.1V39.3H1247.43V46.95C1247.43 49.4 1246.18 50.625 1243.68 50.625H1228.3C1225.95 50.625 1224.78 49.425 1224.78 47.025V15.3C1224.78 12.85 1226.13 11.575 1228.83 11.475H1244.2ZM1232.05 23.325C1232.05 24.825 1232.85 25.575 1234.45 25.575H1237.75C1239.3 25.575 1240.08 24.875 1240.08 23.475V20.85C1240.08 19.4 1239.2 18.675 1237.45 18.675H1234.53C1232.88 18.675 1232.05 19.4 1232.05 20.85V23.325ZM1320.48 3.375V14.85C1320.48 17.4 1318.98 18.675 1315.98 18.675H1312.68C1313.58 18.925 1314.03 19.5 1314.03 20.4V22.8C1314.03 23.85 1313.63 24.425 1312.83 24.525H1320.48V31.5H1318.68C1319.88 31.75 1320.48 32.375 1320.48 33.375V46.725C1320.48 49.175 1319.03 50.425 1316.13 50.475H1293.78C1291.33 50.475 1290.06 49.15 1289.96 46.5V33.3C1289.96 32.2 1290.53 31.5 1291.68 31.2H1289.96V24.3H1297.68C1296.88 24.25 1296.48 23.75 1296.48 22.8V20.025C1296.48 19.275 1296.88 18.825 1297.68 18.675H1289.96V11.475H1311.63C1312.68 11.425 1313.21 10.8 1313.21 9.6V3.375H1320.48ZM1297.23 40.875C1297.23 42.425 1298.11 43.2 1299.86 43.2H1310.58C1312.33 43.2 1313.21 42.475 1313.21 41.025V33.975C1313.21 32.225 1312.36 31.35 1310.66 31.35H1300.01C1298.16 31.4 1297.23 32.275 1297.23 33.975V40.875ZM1304.58 20.175C1304.03 20.275 1303.76 20.55 1303.76 21V22.05C1303.76 22.6 1304.06 22.875 1304.66 22.875H1305.78C1306.38 22.875 1306.68 22.625 1306.68 22.125V21C1306.68 20.45 1306.36 20.175 1305.71 20.175H1304.58ZM1327.97 11.4H1356.77C1358.07 11.4 1358.72 10.775 1358.72 9.525V3.375H1366V14.775C1366 17.225 1364.87 18.525 1362.62 18.675C1364.87 18.975 1366 20.175 1366 22.275V47.025C1366 49.425 1364.77 50.625 1362.32 50.625H1347.02C1344.57 50.625 1343.35 49.425 1343.35 47.025V35.7C1343.35 34.25 1342.6 33.525 1341.1 33.525H1337.2C1335.9 33.525 1335.25 34.25 1335.25 35.7V41.1C1335.25 41.95 1335.42 42.55 1335.77 42.9C1336.12 43.2 1336.65 43.35 1337.35 43.35H1338.77V50.625H1331.35C1329.1 50.625 1327.97 49.425 1327.97 47.025V30.075C1328.02 27.625 1329.27 26.4 1331.72 26.4H1346.95C1349.4 26.4 1350.62 27.625 1350.62 30.075V41.175C1350.62 42.025 1350.8 42.6 1351.15 42.9C1351.55 43.2 1352.12 43.35 1352.87 43.35H1356.47C1357.22 43.35 1357.77 43.2 1358.12 42.9C1358.52 42.6 1358.72 42.025 1358.72 41.175V21.45C1358.67 19.7 1357.7 18.775 1355.8 18.675H1327.97V11.4ZM1376.98 81.3H1369.03C1366.88 81.3 1365.8 80.075 1365.8 77.625V73.95H1361.23C1359.83 73.95 1359.1 73.125 1359.05 71.475V63.3C1359.05 62.05 1359.73 61.375 1361.08 61.275H1367.9C1369.25 61.375 1369.93 62.025 1369.93 63.225V58.425C1369.93 57.475 1369.45 57 1368.5 57H1366.7V52.875H1372.25C1373.4 52.875 1374.03 53.475 1374.13 54.675V71.475C1374.03 73.125 1373.33 73.95 1372.03 73.95H1370V75.675C1370 77.225 1371 77.975 1373 77.925L1376.98 77.85V81.3ZM1363.4 66.225C1362.9 66.225 1362.65 66.475 1362.65 66.975V69C1362.65 69.5 1362.9 69.75 1363.4 69.75H1364.9C1365.45 69.75 1365.73 69.55 1365.73 69.15V66.975C1365.73 66.475 1365.43 66.225 1364.83 66.225H1363.4ZM1377.85 22.275C1377.85 20.175 1378.87 18.975 1380.92 18.675H1377.85V11.4H1406.35C1407.85 11.4 1408.6 10.775 1408.6 9.525V3.375H1415.87V14.775C1415.87 17.225 1414.65 18.525 1412.2 18.675C1414.65 18.875 1415.87 20.125 1415.87 22.425V25.65C1415.87 27.5 1415.2 28.5 1413.85 28.65C1415.2 28.95 1415.87 29.925 1415.87 31.575V46.725C1415.87 49.325 1414.5 50.625 1411.75 50.625H1400.5C1398.15 50.625 1396.95 49.975 1396.9 48.675C1396.6 49.975 1395.37 50.625 1393.22 50.625H1381.9C1379.2 50.625 1377.85 49.4 1377.85 46.95V22.275ZM1408.6 20.7C1408.6 19.5 1408.05 18.825 1406.95 18.675H1386.92C1385.72 18.825 1385.12 19.5 1385.12 20.7V41.175C1385.12 42.625 1385.87 43.35 1387.37 43.35H1391.27C1391.82 43.35 1392.27 43.175 1392.62 42.825C1393.02 42.425 1393.22 41.875 1393.22 41.175V38.7H1400.5V41.1C1400.5 42.6 1401.25 43.35 1402.75 43.35H1406.27C1407.82 43.35 1408.6 42.6 1408.6 41.1V34.65C1408.6 33.5 1408.05 32.9 1406.95 32.85H1402.75V25.65H1406.95C1408.05 25.6 1408.6 24.925 1408.6 23.625V20.7ZM1457.98 18.675C1460.43 18.875 1461.65 20.5 1461.65 23.55V46.725C1461.65 49.325 1460.25 50.625 1457.45 50.625H1446.28C1444.03 50.525 1442.83 49.875 1442.68 48.675C1442.38 49.925 1441.15 50.575 1439 50.625H1427.68C1425.03 50.525 1423.68 49.275 1423.63 46.875V30.375C1423.63 28.925 1424.45 28.15 1426.1 28.05H1436V34.95H1432.7C1431.5 34.95 1430.9 35.625 1430.9 36.975V41.4C1430.9 42.7 1431.45 43.35 1432.55 43.35H1437.05C1438.35 43.35 1439 42.7 1439 41.4V39.3H1446.28V41.55C1446.28 42.75 1446.83 43.35 1447.93 43.35H1452.43C1453.73 43.35 1454.38 42.525 1454.38 40.875V21.075C1454.28 19.675 1453.63 18.875 1452.43 18.675H1423.7V11.475H1457.98V18.675ZM1477 41.775C1477 41.275 1476.67 41.025 1476.02 41.025H1475.12C1474.47 41.025 1474.15 41.3 1474.15 41.85V42.75C1474.2 43.2 1474.52 43.425 1475.12 43.425H1476.17C1476.77 43.425 1477.07 43.175 1477.07 42.675L1477 41.775ZM1480.07 11.475C1482.87 11.475 1484.27 12.85 1484.27 15.6V46.725C1484.27 49.325 1482.95 50.625 1480.3 50.625H1471.67C1468.87 50.625 1467.47 49.325 1467.47 46.725V36.825C1467.47 34.575 1468.6 33.325 1470.85 33.075H1477V21.6C1477 19.7 1476.07 18.725 1474.22 18.675H1448.65V11.475H1480.07ZM1522.27 0.749996C1524.47 0.749996 1525.57 1.95 1525.57 4.35V50.775H1518.29V22.05C1518.09 22.9 1517.44 23.325 1516.34 23.325H1502.24C1500.09 23.325 1499.02 24.525 1499.02 26.925V41.775C1499.02 42.925 1499.57 43.5 1500.67 43.5H1504.34V50.775H1495.12C1492.87 50.775 1491.74 49.575 1491.74 47.175V20.775C1491.79 17.625 1493.27 16.05 1496.17 16.05H1500.52C1499.82 16.05 1499.27 15.725 1498.87 15.075C1498.52 14.375 1498.34 13.475 1498.34 12.375V4.425C1498.34 3.125 1498.62 2.2 1499.17 1.65C1499.72 1.05 1500.54 0.749996 1501.64 0.749996H1522.27ZM1507.94 7.5C1506.29 7.5 1505.47 8.2 1505.47 9.6V13.95C1505.47 15.35 1506.24 16.05 1507.79 16.05H1515.44C1517.34 16.05 1518.29 15.325 1518.29 13.875V9.675C1518.29 8.225 1517.49 7.5 1515.89 7.5H1507.94ZM1560.05 18.6C1561.3 18.6 1562.22 18.875 1562.82 19.425C1563.47 19.925 1563.8 20.775 1563.8 21.975V46.5C1563.8 49.3 1562.35 50.7 1559.45 50.7H1536.87C1534.32 50.7 1533.05 49.275 1533.05 46.425V22.275C1533.05 20.125 1534 18.9 1535.9 18.6H1533.05V11.4H1554.5C1555.8 11.4 1556.45 10.775 1556.45 9.525V3.375H1563.72V14.775C1563.72 17.125 1562.5 18.4 1560.05 18.6ZM1543.1 22.35C1541.25 22.35 1540.32 23.35 1540.32 25.35V40.5C1540.32 42.45 1541.22 43.425 1543.02 43.425H1553.82C1555.72 43.425 1556.67 42.525 1556.67 40.725V25.05C1556.57 23.25 1555.72 22.35 1554.12 22.35H1543.1ZM1582.68 11.475C1584.88 11.475 1585.98 12.675 1585.98 15.075V46.95C1585.98 49.4 1584.78 50.625 1582.38 50.625H1566.26C1564.86 50.625 1563.86 50.35 1563.26 49.8C1562.66 49.25 1562.36 48.425 1562.36 47.325V42C1562.51 42.9 1563.08 43.35 1564.08 43.35H1576.61C1578.01 43.35 1578.71 42.6 1578.71 41.1V20.775C1578.71 19.375 1577.86 18.675 1576.16 18.675H1572.18V11.475H1582.68ZM1603 57H1593.47V49.35H1603V57Z" fill="black"/>
</svg>
