<svg width="1555" height="80" viewBox="0 0 1555 80" fill="none" xmlns="http://www.w3.org/2000/svg">
<path d="M8.775 56.75C5.975 56.75 3.925 55.95 2.625 54.35C1.375 52.8 0.75 50.975 0.75 48.875C0.75 46.875 1.25 44.875 2.25 42.875C3.25 40.825 4.65 39.125 6.45 37.775C8.25 36.375 10.3 35.675 12.6 35.675C14.7 35.675 16.4 36.325 17.7 37.625C19.05 38.925 19.725 40.975 19.725 43.775C19.725 45.125 19.55 46.5 19.2 47.9C20.5 47.05 21.65 46.05 22.65 44.9C23.65 43.75 24.55 42.65 25.35 41.6C25.65 41.2 25.975 40.85 26.325 40.55C26.675 40.2 27.1 40.025 27.6 40.025C28 40.025 28.3 40.175 28.5 40.475C28.75 40.775 28.925 41.125 29.025 41.525C29.625 43.375 30.6 44.725 31.95 45.575C33.3 46.375 34.675 46.775 36.075 46.775C38.125 46.775 39.65 45.975 40.65 44.375C41.7 42.775 42.225 40.725 42.225 38.225C42.225 34.975 41.6 32.275 40.35 30.125C39.15 27.925 37.55 26.2 35.55 24.95C33.6 23.65 31.475 22.725 29.175 22.175C26.925 21.625 24.725 21.35 22.575 21.35C19.875 21.35 17.625 21.675 15.825 22.325C14.075 22.975 12.7 23.625 11.7 24.275C10.7 24.925 9.925 25.25 9.375 25.25C8.575 25.25 7.9 24.9 7.35 24.2C6.85 23.5 6.6 22.725 6.6 21.875C6.6 21.025 6.825 20.375 7.275 19.925C7.725 19.425 8.575 18.775 9.825 17.975C12.575 16.475 15.35 15.375 18.15 14.675C20.95 13.975 23.6 13.625 26.1 13.625C30.25 13.625 33.95 14.35 37.2 15.8C40.5 17.2 43.1 19.425 45 22.475C46.95 25.525 47.925 29.475 47.925 34.325C47.925 37.775 47.225 41 45.825 44C44.425 47 42.475 49.425 39.975 51.275C37.525 53.075 34.675 53.975 31.425 53.975C30.025 53.975 28.65 53.575 27.3 52.775C26 51.975 25 50.775 24.3 49.175C23 50.425 21.5 51.625 19.8 52.775C18.15 53.925 16.375 54.875 14.475 55.625C12.625 56.375 10.725 56.75 8.775 56.75ZM12.525 50C13.825 50 14.975 49.825 15.975 49.475C15.975 47.375 15.35 45.725 14.1 44.525C12.9 43.275 11.425 42.65 9.675 42.65C8.525 42.65 7.65 42.95 7.05 43.55C6.45 44.1 6.15 44.775 6.15 45.575C6.15 46.525 6.65 47.5 7.65 48.5C8.65 49.5 10.275 50 12.525 50ZM70.2586 54.125C67.0086 54.125 64.0586 53.575 61.4086 52.475C58.8086 51.375 56.7336 49.775 55.1836 47.675C53.6336 45.525 52.8586 42.975 52.8586 40.025C52.8586 37.425 53.4086 34.85 54.5086 32.3C55.6086 29.75 57.1086 27.45 59.0086 25.4C60.9586 23.3 63.1336 21.625 65.5336 20.375C67.9836 19.125 70.5086 18.5 73.1086 18.5C75.7586 18.5 77.8586 19.25 79.4086 20.75C80.9586 22.2 81.7336 24.1 81.7336 26.45C81.7336 28.15 81.2836 29.75 80.3836 31.25C79.5336 32.75 78.4336 34.075 77.0836 35.225C75.7836 36.325 74.4086 37.2 72.9586 37.85C71.5586 38.45 70.2836 38.75 69.1336 38.75C67.9836 38.75 67.1336 38.4 66.5836 37.7C66.2336 37.3 66.0586 36.875 66.0586 36.425C66.0586 35.875 66.2836 35.425 66.7336 35.075C67.1836 34.675 67.6586 34.375 68.1586 34.175C70.0586 33.525 71.4586 32.625 72.3586 31.475C73.2586 30.325 73.7086 29.225 73.7086 28.175C73.7086 27.225 73.3586 26.375 72.6586 25.625C71.9586 24.825 70.9586 24.425 69.6586 24.425C68.6086 24.425 67.6086 24.675 66.6586 25.175C65.7586 25.675 64.9336 26.3 64.1836 27.05C63.0336 28.15 62.0586 29.575 61.2586 31.325C60.5086 33.075 60.1336 34.75 60.1336 36.35C60.1336 38.7 60.8086 40.675 62.1586 42.275C63.5086 43.825 65.2336 45 67.3336 45.8C69.4836 46.55 71.7586 46.925 74.1586 46.925C76.9586 46.925 79.6836 46.425 82.3336 45.425C84.9836 44.375 87.1586 42.825 88.8586 40.775C90.5586 38.675 91.4086 36.075 91.4086 32.975C91.4086 31.575 90.9836 29.825 90.1336 27.725C89.3336 25.575 87.8586 23.5 85.7086 21.5C85.1086 20.95 84.6086 20.45 84.2086 20C83.8086 19.55 83.6086 19.05 83.6086 18.5C83.6086 17.1 84.2336 15.725 85.4836 14.375C86.7836 12.975 88.4336 11.7 90.4336 10.55C92.4836 9.4 94.6336 8.5 96.8836 7.85C99.1836 7.15 101.309 6.8 103.259 6.8C105.759 6.8 108.159 7.225 110.459 8.075C112.759 8.875 114.834 10.2 116.684 12.05C118.584 13.85 120.059 16.225 121.109 19.175C122.209 22.125 122.759 25.75 122.759 30.05C122.759 32.95 122.334 35.825 121.484 38.675C120.684 41.525 119.534 44.125 118.034 46.475C116.584 48.775 114.834 50.625 112.784 52.025C110.734 53.375 108.484 54.05 106.034 54.05C104.034 54.05 102.359 53.45 101.009 52.25C99.7086 51 99.0586 49.25 99.0586 47C99.0586 45.4 99.4836 43.7 100.334 41.9C101.234 40.1 102.459 38.325 104.009 36.575C105.609 34.825 107.434 33.25 109.484 31.85C111.534 30.4 113.734 29.275 116.084 28.475C115.234 25.375 113.934 22.7 112.184 20.45C110.434 18.15 108.384 16.375 106.034 15.125C103.734 13.825 101.309 13.175 98.7586 13.175C96.7086 13.175 94.7836 13.575 92.9836 14.375C94.3336 15.775 95.4336 17.825 96.2836 20.525C97.1336 23.175 97.5586 26.05 97.5586 29.15C97.5586 33.35 96.7336 37.025 95.0836 40.175C93.4336 43.325 91.2586 45.925 88.5586 47.975C85.8586 50.025 82.9086 51.575 79.7086 52.625C76.5086 53.625 73.3586 54.125 70.2586 54.125ZM109.784 46.25C111.434 46.25 112.784 45.725 113.834 44.675C114.884 43.625 115.659 42.25 116.159 40.55C116.709 38.85 116.984 37.05 116.984 35.15C115.184 35.1 113.459 35.4 111.809 36.05C110.159 36.7 108.809 37.6 107.759 38.75C106.759 39.9 106.259 41.25 106.259 42.8C106.259 44 106.609 44.875 107.309 45.425C108.009 45.975 108.834 46.25 109.784 46.25ZM120.795 76.475C120.445 76.475 120.12 76.375 119.82 76.175C119.47 75.975 119.295 75.7 119.295 75.35C119.295 75.1 119.37 74.875 119.52 74.675C120.42 73.325 120.87 71.975 120.87 70.625C120.87 69.175 120.445 67.875 119.595 66.725C118.695 65.575 117.42 65 115.77 65C114.32 65 113.045 65.475 111.945 66.425C110.795 67.425 109.795 68.6 108.945 69.95C108.095 71.35 107.295 72.65 106.545 73.85C106.245 74.35 105.92 74.7 105.57 74.9C105.22 75.15 104.87 75.275 104.52 75.275C103.87 75.275 103.395 75.025 103.095 74.525C102.745 74.075 102.445 73.525 102.195 72.875C101.945 72.025 101.645 71.1 101.295 70.1C100.945 69.15 100.445 68.3 99.7945 67.55C99.1445 66.85 98.1695 66.5 96.8695 66.5C95.6195 66.5 94.5695 66.85 93.7195 67.55C92.8195 68.25 92.0445 69.125 91.3945 70.175C90.7445 71.275 90.1195 72.4 89.5195 73.55C89.3695 73.9 88.9445 74.075 88.2445 74.075C87.0945 74.075 86.5195 73.425 86.5195 72.125C86.5195 71.175 86.8445 70.025 87.4945 68.675C88.1445 67.325 89.0945 66 90.3445 64.7C91.5445 63.4 92.9695 62.3 94.6195 61.4C96.2195 60.55 97.9945 60.125 99.9445 60.125C101.495 60.125 102.945 60.6 104.295 61.55C105.595 62.5 106.67 63.85 107.52 65.6C109.17 63.3 111.045 61.55 113.145 60.35C115.245 59.2 117.245 58.625 119.145 58.625C121.145 58.625 122.845 59.325 124.245 60.725C125.595 62.125 126.27 64.3 126.27 67.25C126.27 68.75 125.995 70.2 125.445 71.6C124.895 73 124.22 74.15 123.42 75.05C122.57 76 121.695 76.475 120.795 76.475ZM133.77 56.75C131.77 56.75 130.295 56.2 129.345 55.1C128.395 54 127.92 52.45 127.92 50.45C127.92 47.8 128.395 45.05 129.345 42.2C130.345 39.35 131.645 36.625 133.245 34.025C134.895 31.425 136.67 29.25 138.57 27.5C136.72 28 135.27 28.5 134.22 29C133.22 29.5 132.42 29.75 131.82 29.75C131.42 29.75 131.07 29.45 130.77 28.85C130.47 28.25 130.295 27.475 130.245 26.525C130.345 24.975 130.77 23.425 131.52 21.875C132.27 20.325 133.195 18.9 134.295 17.6C136.945 14.55 139.62 12.15 142.32 10.4C145.02 8.6 147.57 7.325 149.97 6.575C152.37 5.775 154.37 5.375 155.97 5.375C158.02 5.375 159.445 5.75 160.245 6.5C161.095 7.25 161.52 8.125 161.52 9.125C161.52 10.025 161.22 10.925 160.62 11.825C160.02 12.725 159.27 13.5 158.37 14.15C157.52 14.75 156.67 15.05 155.82 15.05C155.57 15.05 155.32 14.925 155.07 14.675C154.82 14.425 154.37 14.05 153.72 13.55C153.32 13.2 152.745 12.95 151.995 12.8C151.295 12.65 150.57 12.575 149.82 12.575C147.07 12.575 144.42 13.5 141.87 15.35C139.32 17.2 137.195 19.375 135.495 21.875C138.145 20.725 141.02 19.85 144.12 19.25C147.27 18.65 150.57 18.35 154.02 18.35C157.52 18.35 160.595 18.95 163.245 20.15C165.945 21.35 168.045 23.2 169.545 25.7C171.095 28.15 171.87 31.25 171.87 35C171.87 37.45 171.42 39.825 170.52 42.125C169.62 44.375 168.37 46.4 166.77 48.2C165.17 49.95 163.345 51.35 161.295 52.4C159.295 53.45 157.17 53.975 154.92 53.975C153.27 53.975 151.745 53.625 150.345 52.925C148.995 52.175 147.92 51.025 147.12 49.475C144.82 51.975 142.445 53.8 139.995 54.95C137.595 56.15 135.52 56.75 133.77 56.75ZM138.645 48.95C139.495 48.95 140.47 48.625 141.57 47.975C142.72 47.275 143.87 46.375 145.02 45.275C146.17 44.125 147.195 42.9 148.095 41.6C148.845 40.55 149.62 40.025 150.42 40.025C151.02 40.025 151.445 40.425 151.695 41.225C152.395 43.175 153.395 44.6 154.695 45.5C156.045 46.35 157.42 46.775 158.82 46.775C160.87 46.775 162.62 46.025 164.07 44.525C165.52 43.025 166.245 41.25 166.245 39.2C166.245 36.6 165.52 34.325 164.07 32.375C162.67 30.425 160.795 28.9 158.445 27.8C156.095 26.65 153.47 26.075 150.57 26.075C149.52 26.075 148.52 26.1 147.57 26.15C146.62 26.2 145.72 26.275 144.87 26.375C143.17 27.775 141.595 29.575 140.145 31.775C138.745 33.975 137.62 36.25 136.77 38.6C135.92 40.9 135.495 42.95 135.495 44.75C135.495 46 135.72 47.025 136.17 47.825C136.67 48.575 137.495 48.95 138.645 48.95ZM189.159 53.975C186.509 53.975 184.384 53.5 182.784 52.55C181.184 51.55 180.009 50.225 179.259 48.575C178.559 46.925 178.209 45.125 178.209 43.175C178.209 40.325 178.859 37.525 180.159 34.775C181.459 31.975 183.259 29.6 185.559 27.65C184.059 28.15 182.809 28.625 181.809 29.075C180.809 29.525 180.084 29.75 179.634 29.75C179.134 29.75 178.759 29.45 178.509 28.85C178.259 28.2 178.134 27.55 178.134 26.9C178.134 25.35 178.509 23.75 179.259 22.1C180.059 20.45 181.034 18.95 182.184 17.6C184.834 14.55 187.509 12.15 190.209 10.4C192.909 8.6 195.459 7.325 197.859 6.575C200.259 5.775 202.259 5.375 203.859 5.375C205.909 5.375 207.334 5.75 208.134 6.5C208.984 7.25 209.409 8.125 209.409 9.125C209.409 10.025 209.109 10.925 208.509 11.825C207.909 12.725 207.159 13.5 206.259 14.15C205.409 14.75 204.559 15.05 203.709 15.05C203.359 15.05 203.084 14.9 202.884 14.6C202.684 14.3 202.259 13.95 201.609 13.55C200.659 12.9 199.359 12.575 197.709 12.575C195.809 12.575 193.959 13.025 192.159 13.925C190.359 14.825 188.684 16.025 187.134 17.525C185.584 19.025 184.234 20.65 183.084 22.4C185.134 21.3 187.534 20.35 190.284 19.55C193.084 18.75 195.784 18.35 198.384 18.35C200.784 18.35 202.984 18.775 204.984 19.625C207.034 20.425 208.684 21.725 209.934 23.525C211.184 25.275 211.809 27.6 211.809 30.5C211.809 33.25 211.234 36.025 210.084 38.825C208.934 41.575 207.309 44.1 205.209 46.4C203.159 48.65 200.759 50.475 198.009 51.875C195.259 53.275 192.309 53.975 189.159 53.975ZM192.234 46.25C193.534 46.25 194.934 46.05 196.434 45.65C197.934 45.25 199.359 44.6 200.709 43.7C202.059 42.8 203.159 41.65 204.009 40.25C204.909 38.8 205.359 37.075 205.359 35.075C205.359 32.875 204.834 31.15 203.784 29.9C202.784 28.6 201.434 27.675 199.734 27.125C198.034 26.525 196.134 26.225 194.034 26.225C193.784 26.225 193.509 26.225 193.209 26.225C192.909 26.225 192.634 26.25 192.384 26.3C189.934 28.25 188.059 30.375 186.759 32.675C185.459 34.925 184.809 37.125 184.809 39.275C184.809 41.275 185.409 42.95 186.609 44.3C187.859 45.6 189.734 46.25 192.234 46.25ZM235.209 54.275C232.409 54.275 230.359 53.5 229.059 51.95C227.809 50.35 227.184 48.5 227.184 46.4C227.184 44.4 227.684 42.4 228.684 40.4C229.684 38.35 231.084 36.65 232.884 35.3C234.684 33.9 236.734 33.2 239.034 33.2C240.684 33.2 242.059 33.625 243.159 34.475C244.309 35.275 245.159 36.35 245.709 37.7C246.259 39.05 246.534 40.475 246.534 41.975C246.534 42.875 246.409 43.825 246.159 44.825C247.659 42.625 248.409 40.2 248.409 37.55C248.409 35.55 248.009 33.675 247.209 31.925C246.409 30.175 245.284 28.75 243.834 27.65C242.384 26.5 240.659 25.925 238.659 25.925C236.809 25.925 234.809 26.75 232.659 28.4C230.509 30.05 228.409 33.1 226.359 37.55C225.109 40.35 223.834 43 222.534 45.5C221.234 48 219.684 50.025 217.884 51.575C216.084 53.125 213.834 53.9 211.134 53.9C209.084 53.9 207.159 53.325 205.359 52.175C203.609 50.975 202.334 49.3 201.534 47.15C201.434 46.85 201.384 46.575 201.384 46.325C201.384 45.875 201.559 45.25 201.909 44.45C202.309 43.6 202.784 42.725 203.334 41.825C203.934 40.925 204.484 40.175 204.984 39.575C205.534 38.975 205.959 38.675 206.259 38.675C206.809 41.075 207.759 42.975 209.109 44.375C210.509 45.725 211.984 46.4 213.534 46.4C215.384 46.4 217.009 45.475 218.409 43.625C219.409 42.425 220.259 41 220.959 39.35C221.709 37.7 222.484 35.95 223.284 34.1C224.084 32.25 225.009 30.4 226.059 28.55C227.109 26.7 228.434 24.95 230.034 23.3C231.634 21.75 233.334 20.525 235.134 19.625C236.934 18.675 238.859 18.2 240.909 18.2C243.809 18.2 246.209 18.9 248.109 20.3C250.009 21.65 251.434 23.425 252.384 25.625C253.334 27.825 253.809 30.225 253.809 32.825C253.809 35.625 253.334 38.325 252.384 40.925C251.484 43.475 250.184 45.75 248.484 47.75C246.784 49.75 244.809 51.35 242.559 52.55C240.309 53.7 237.859 54.275 235.209 54.275ZM238.959 47.525C240.309 47.525 241.459 47.375 242.409 47.075C242.409 44.925 241.784 43.25 240.534 42.05C239.334 40.8 237.859 40.175 236.109 40.175C234.959 40.175 234.084 40.475 233.484 41.075C232.884 41.625 232.584 42.3 232.584 43.1C232.584 44.05 233.084 45.025 234.084 46.025C235.084 47.025 236.709 47.525 238.959 47.525ZM314.595 53.975C314.195 53.975 313.92 53.875 313.77 53.675C313.67 53.525 313.595 53.35 313.545 53.15C313.145 51.4 312.595 49.875 311.895 48.575C311.195 47.225 310.42 46.05 309.57 45.05C307.77 46.9 305.67 48.475 303.27 49.775C300.92 51.075 298.495 52.075 295.995 52.775C293.495 53.475 291.145 53.825 288.945 53.825C286.195 53.825 283.92 53.25 282.12 52.1C280.32 50.95 279.42 49.275 279.42 47.075C279.42 45.025 280.245 43.025 281.895 41.075C283.545 39.075 285.87 37.425 288.87 36.125C291.87 34.825 295.345 34.175 299.295 34.175C300.895 34.175 302.495 34.3 304.095 34.55C305.745 34.8 307.32 35.15 308.82 35.6C309.67 34.2 310.345 32.8 310.845 31.4C311.345 30 311.595 28.775 311.595 27.725C311.595 26.225 311.145 25.1 310.245 24.35C309.395 23.55 308.32 23.15 307.02 23.15C305.57 23.15 304.295 23.6 303.195 24.5C302.095 25.35 301.12 26.35 300.27 27.5C299.42 28.65 298.645 29.65 297.945 30.5C297.545 31 297.145 31.35 296.745 31.55C296.395 31.7 296.045 31.775 295.695 31.775C294.845 31.775 294.295 31.5 294.045 30.95C293.845 30.4 293.645 29.725 293.445 28.925C293.245 28.125 292.795 27.375 292.095 26.675C291.245 25.825 290.045 25.4 288.495 25.4C286.945 25.4 285.72 25.775 284.82 26.525C283.97 27.225 283.12 28.15 282.27 29.3C281.92 29.8 281.645 30.175 281.445 30.425C281.245 30.625 280.87 30.725 280.32 30.725C279.82 30.725 279.295 30.525 278.745 30.125C278.195 29.725 277.92 29.2 277.92 28.55C277.92 27.8 278.27 26.85 278.97 25.7C279.72 24.55 280.695 23.4 281.895 22.25C283.145 21.05 284.57 20.05 286.17 19.25C287.82 18.45 289.545 18.05 291.345 18.05C292.795 18.05 294.195 18.375 295.545 19.025C296.945 19.625 298.145 20.6 299.145 21.95C300.895 19.75 302.845 18.125 304.995 17.075C307.145 15.975 309.145 15.425 310.995 15.425C313.545 15.425 315.42 16.225 316.62 17.825C317.82 19.425 318.42 21.4 318.42 23.75C318.42 25.9 317.945 28.175 316.995 30.575C316.095 32.975 314.845 35.225 313.245 37.325C315.495 38.475 317.32 39.9 318.72 41.6C320.17 43.25 320.895 45.1 320.895 47.15C320.895 49.1 320.17 50.725 318.72 52.025C318.12 52.525 317.42 52.975 316.62 53.375C315.82 53.775 315.145 53.975 314.595 53.975ZM291.795 47.15C293.245 47.15 294.82 46.95 296.52 46.55C298.27 46.1 299.995 45.475 301.695 44.675C303.395 43.875 304.895 42.975 306.195 41.975C304.495 40.825 302.745 40.025 300.945 39.575C299.195 39.125 297.57 38.9 296.07 38.9C293.47 38.9 291.22 39.4 289.32 40.4C287.47 41.4 286.545 42.625 286.545 44.075C286.545 45.025 287.02 45.775 287.97 46.325C288.97 46.875 290.245 47.15 291.795 47.15ZM338.427 53.975C335.777 53.975 333.652 53.5 332.052 52.55C330.452 51.55 329.277 50.225 328.527 48.575C327.827 46.925 327.477 45.125 327.477 43.175C327.477 40.325 328.127 37.525 329.427 34.775C330.727 31.975 332.527 29.6 334.827 27.65C333.327 28.15 332.077 28.625 331.077 29.075C330.077 29.525 329.352 29.75 328.902 29.75C328.402 29.75 328.027 29.45 327.777 28.85C327.527 28.2 327.402 27.55 327.402 26.9C327.402 25.35 327.777 23.75 328.527 22.1C329.327 20.45 330.302 18.95 331.452 17.6C334.102 14.55 336.777 12.15 339.477 10.4C342.177 8.6 344.727 7.325 347.127 6.575C349.527 5.775 351.527 5.375 353.127 5.375C355.177 5.375 356.602 5.75 357.402 6.5C358.252 7.25 358.677 8.125 358.677 9.125C358.677 10.025 358.377 10.925 357.777 11.825C357.177 12.725 356.427 13.5 355.527 14.15C354.677 14.75 353.827 15.05 352.977 15.05C352.627 15.05 352.352 14.9 352.152 14.6C351.952 14.3 351.527 13.95 350.877 13.55C349.927 12.9 348.627 12.575 346.977 12.575C345.077 12.575 343.227 13.025 341.427 13.925C339.627 14.825 337.952 16.025 336.402 17.525C334.852 19.025 333.502 20.65 332.352 22.4C334.402 21.3 336.802 20.35 339.552 19.55C342.352 18.75 345.052 18.35 347.652 18.35C350.052 18.35 352.252 18.775 354.252 19.625C356.302 20.425 357.952 21.725 359.202 23.525C360.452 25.275 361.077 27.6 361.077 30.5C361.077 33.25 360.502 36.025 359.352 38.825C358.202 41.575 356.577 44.1 354.477 46.4C352.427 48.65 350.027 50.475 347.277 51.875C344.527 53.275 341.577 53.975 338.427 53.975ZM341.502 46.25C342.802 46.25 344.202 46.05 345.702 45.65C347.202 45.25 348.627 44.6 349.977 43.7C351.327 42.8 352.427 41.65 353.277 40.25C354.177 38.8 354.627 37.075 354.627 35.075C354.627 32.875 354.102 31.15 353.052 29.9C352.052 28.6 350.702 27.675 349.002 27.125C347.302 26.525 345.402 26.225 343.302 26.225C343.052 26.225 342.777 26.225 342.477 26.225C342.177 26.225 341.902 26.25 341.652 26.3C339.202 28.25 337.327 30.375 336.027 32.675C334.727 34.925 334.077 37.125 334.077 39.275C334.077 41.275 334.677 42.95 335.877 44.3C337.127 45.6 339.002 46.25 341.502 46.25ZM361.227 53.9C358.777 53.9 356.627 53.225 354.777 51.875C352.977 50.525 351.777 49.125 351.177 47.675L355.377 40.025C356.527 42.025 357.702 43.625 358.902 44.825C360.152 46.025 362.002 46.625 364.452 46.625C366.102 46.625 367.677 46.325 369.177 45.725C370.727 45.125 371.977 44.15 372.927 42.8C373.877 41.4 374.352 39.525 374.352 37.175C374.352 35.125 374.002 33.425 373.302 32.075C372.602 30.725 371.727 29.6 370.677 28.7C369.677 27.75 368.702 26.975 367.752 26.375C367.552 26.225 367.327 26.025 367.077 25.775C366.877 25.475 366.777 25.075 366.777 24.575C366.777 23.725 367.052 22.825 367.602 21.875C368.202 20.875 368.927 20.025 369.777 19.325C370.627 18.575 371.502 18.2 372.402 18.2C373.852 18.2 375.202 18.875 376.452 20.225C377.702 21.525 378.702 23.3 379.452 25.55C380.252 27.75 380.652 30.225 380.652 32.975C380.652 36.025 380.102 38.85 379.002 41.45C377.952 44 376.502 46.2 374.652 48.05C372.802 49.9 370.727 51.35 368.427 52.4C366.127 53.4 363.727 53.9 361.227 53.9ZM414.171 56.75C411.371 56.75 409.321 55.95 408.021 54.35C406.771 52.8 406.146 50.975 406.146 48.875C406.146 46.875 406.646 44.875 407.646 42.875C408.646 40.825 410.046 39.125 411.846 37.775C413.646 36.375 415.696 35.675 417.996 35.675C420.096 35.675 421.796 36.325 423.096 37.625C424.446 38.925 425.121 40.975 425.121 43.775C425.121 45.125 424.946 46.5 424.596 47.9C425.896 47.05 427.046 46.05 428.046 44.9C429.046 43.75 429.946 42.65 430.746 41.6C431.046 41.2 431.371 40.85 431.721 40.55C432.071 40.2 432.496 40.025 432.996 40.025C433.396 40.025 433.696 40.175 433.896 40.475C434.146 40.775 434.321 41.125 434.421 41.525C435.021 43.375 435.996 44.725 437.346 45.575C438.696 46.375 440.071 46.775 441.471 46.775C443.521 46.775 445.046 45.975 446.046 44.375C447.096 42.775 447.621 40.725 447.621 38.225C447.621 34.975 446.996 32.275 445.746 30.125C444.546 27.925 442.946 26.2 440.946 24.95C438.996 23.65 436.871 22.725 434.571 22.175C432.321 21.625 430.121 21.35 427.971 21.35C425.271 21.35 423.021 21.675 421.221 22.325C419.471 22.975 418.096 23.625 417.096 24.275C416.096 24.925 415.321 25.25 414.771 25.25C413.971 25.25 413.296 24.9 412.746 24.2C412.246 23.5 411.996 22.725 411.996 21.875C411.996 21.025 412.221 20.375 412.671 19.925C413.121 19.425 413.971 18.775 415.221 17.975C417.971 16.475 420.746 15.375 423.546 14.675C426.346 13.975 428.996 13.625 431.496 13.625C435.646 13.625 439.346 14.35 442.596 15.8C445.896 17.2 448.496 19.425 450.396 22.475C452.346 25.525 453.321 29.475 453.321 34.325C453.321 37.775 452.621 41 451.221 44C449.821 47 447.871 49.425 445.371 51.275C442.921 53.075 440.071 53.975 436.821 53.975C435.421 53.975 434.046 53.575 432.696 52.775C431.396 51.975 430.396 50.775 429.696 49.175C428.396 50.425 426.896 51.625 425.196 52.775C423.546 53.925 421.771 54.875 419.871 55.625C418.021 56.375 416.121 56.75 414.171 56.75ZM417.921 50C419.221 50 420.371 49.825 421.371 49.475C421.371 47.375 420.746 45.725 419.496 44.525C418.296 43.275 416.821 42.65 415.071 42.65C413.921 42.65 413.046 42.95 412.446 43.55C411.846 44.1 411.546 44.775 411.546 45.575C411.546 46.525 412.046 47.5 413.046 48.5C414.046 49.5 415.671 50 417.921 50ZM468.079 48.575C465.629 48.575 463.704 47.85 462.304 46.4C460.904 44.9 460.204 42.825 460.204 40.175C459.904 40.825 459.604 41.3 459.304 41.6C459.054 41.9 458.679 42.05 458.179 42.05C457.579 42.05 457.204 41.825 457.054 41.375C456.904 40.875 456.829 40.375 456.829 39.875C456.829 38.275 457.179 36.45 457.879 34.4C458.579 32.3 459.629 30.275 461.029 28.325C462.479 26.325 464.304 24.7 466.504 23.45C468.704 22.15 471.304 21.5 474.304 21.5C476.904 21.5 478.904 21.975 480.304 22.925C481.704 23.875 482.679 25.075 483.229 26.525C483.779 27.975 484.054 29.45 484.054 30.95C484.054 33.15 483.629 35.3 482.779 37.4C481.929 39.5 480.754 41.4 479.254 43.1C477.804 44.75 476.104 46.075 474.154 47.075C472.254 48.075 470.229 48.575 468.079 48.575ZM469.804 40.7C470.904 40.7 472.154 40.475 473.554 40.025C475.004 39.525 476.254 38.775 477.304 37.775C478.354 36.725 478.879 35.425 478.879 33.875C478.879 32.775 478.454 31.725 477.604 30.725C476.804 29.675 475.154 29.15 472.654 29.15C470.304 29.15 468.379 29.65 466.879 30.65C465.379 31.6 464.154 32.75 463.204 34.1C463.204 36.15 463.829 37.775 465.079 38.975C466.379 40.125 467.954 40.7 469.804 40.7ZM504.628 55.175C501.128 55.175 497.953 54.825 495.103 54.125C492.303 53.425 490.078 52.45 488.428 51.2C486.778 49.9 485.953 48.375 485.953 46.625C485.953 45.975 486.153 45.25 486.553 44.45C487.003 43.6 487.528 42.875 488.128 42.275C488.778 41.675 489.378 41.375 489.928 41.375C490.128 41.375 490.603 41.75 491.353 42.5C492.103 43.25 493.203 44.125 494.653 45.125C496.103 46.125 497.953 47 500.203 47.75C502.453 48.5 505.153 48.875 508.303 48.875C510.753 48.875 513.103 48.525 515.353 47.825C517.653 47.125 519.528 46.025 520.978 44.525C522.478 42.975 523.228 41 523.228 38.6C523.228 37.45 522.953 36.25 522.403 35C521.903 33.7 521.178 32.575 520.228 31.625C519.328 30.625 518.253 30 517.003 29.75C518.103 30.8 518.653 32.3 518.653 34.25C518.653 36 518.203 37.7 517.303 39.35C516.403 41 515.203 42.35 513.703 43.4C512.253 44.45 510.628 44.975 508.828 44.975C506.528 44.975 504.778 44.2 503.578 42.65C502.378 41.1 501.778 39.3 501.778 37.25C501.778 35.35 502.253 33.45 503.203 31.55C504.203 29.6 505.678 28 507.628 26.75C507.028 26.65 506.428 26.575 505.828 26.525C505.228 26.425 504.578 26.375 503.878 26.375C502.528 26.375 501.203 26.55 499.903 26.9C498.603 27.25 497.403 27.65 496.303 28.1C495.153 28.55 494.228 28.975 493.528 29.375C492.828 29.725 492.353 29.9 492.103 29.9C491.603 29.9 491.153 29.55 490.753 28.85C490.403 28.1 490.228 27.325 490.228 26.525C490.228 25.525 490.553 24.375 491.203 23.075C492.203 21.125 493.828 19.2 496.078 17.3C498.378 15.35 501.153 13.575 504.403 11.975C507.653 10.325 511.253 9.025 515.203 8.075C519.203 7.075 523.378 6.575 527.728 6.575C531.328 6.575 534.728 7 537.928 7.85C541.178 8.65 544.028 9.975 546.478 11.825C548.928 13.625 550.853 16.025 552.253 19.025C553.703 22.025 554.428 25.725 554.428 30.125C554.428 32.975 554.053 35.825 553.303 38.675C552.553 41.475 551.453 44.05 550.003 46.4C548.603 48.7 546.903 50.55 544.903 51.95C542.953 53.35 540.753 54.05 538.303 54.05C536.403 54.05 534.753 53.475 533.353 52.325C532.003 51.125 531.328 49.35 531.328 47C531.328 45.4 531.753 43.7 532.603 41.9C533.503 40.1 534.728 38.325 536.278 36.575C537.828 34.825 539.628 33.25 541.678 31.85C543.778 30.4 546.003 29.275 548.353 28.475C547.253 24.875 545.328 22 542.578 19.85C539.878 17.7 536.653 16.15 532.903 15.2C529.203 14.2 525.278 13.7 521.128 13.7C516.128 13.7 511.503 14.475 507.253 16.025C503.053 17.525 499.503 19.475 496.603 21.875C497.903 21.225 499.278 20.725 500.728 20.375C502.178 20.025 503.603 19.85 505.003 19.85C506.803 19.85 508.453 20.175 509.953 20.825C511.503 21.425 512.878 22.425 514.078 23.825C514.928 23.675 515.753 23.6 516.553 23.6C518.803 23.6 520.903 24.15 522.853 25.25C524.803 26.3 526.378 27.775 527.578 29.675C528.828 31.575 529.453 33.725 529.453 36.125C529.453 39.125 528.778 41.8 527.428 44.15C526.078 46.5 524.228 48.5 521.878 50.15C519.578 51.8 516.928 53.05 513.928 53.9C510.978 54.75 507.878 55.175 504.628 55.175ZM510.403 40.025C511.253 40.025 512.053 39.65 512.803 38.9C513.553 38.1 513.928 36.875 513.928 35.225C513.928 33.475 513.528 32.175 512.728 31.325C511.978 30.425 511.103 29.975 510.103 29.975C509.153 29.975 508.303 30.4 507.553 31.25C506.803 32.1 506.428 33.325 506.428 34.925C506.428 36.575 506.853 37.85 507.703 38.75C508.553 39.6 509.453 40.025 510.403 40.025ZM542.128 46.25C543.728 46.25 545.053 45.725 546.103 44.675C547.153 43.575 547.928 42.175 548.428 40.475C548.978 38.775 549.253 37 549.253 35.15V35.075C547.503 35.025 545.803 35.35 544.153 36.05C542.503 36.7 541.153 37.625 540.103 38.825C539.053 39.975 538.528 41.3 538.528 42.8C538.528 43.95 538.878 44.825 539.578 45.425C540.328 45.975 541.178 46.25 542.128 46.25ZM565.459 56.75C563.459 56.75 561.984 56.2 561.034 55.1C560.084 54 559.609 52.45 559.609 50.45C559.609 47.8 560.084 45.05 561.034 42.2C562.034 39.35 563.334 36.625 564.934 34.025C566.584 31.425 568.359 29.25 570.259 27.5C568.409 28 566.959 28.5 565.909 29C564.909 29.5 564.109 29.75 563.509 29.75C563.109 29.75 562.759 29.45 562.459 28.85C562.159 28.25 561.984 27.475 561.934 26.525C562.034 24.975 562.459 23.425 563.209 21.875C563.959 20.325 564.884 18.9 565.984 17.6C568.634 14.55 571.309 12.15 574.009 10.4C576.709 8.6 579.259 7.325 581.659 6.575C584.059 5.775 586.059 5.375 587.659 5.375C589.709 5.375 591.134 5.75 591.934 6.5C592.784 7.25 593.209 8.125 593.209 9.125C593.209 10.025 592.909 10.925 592.309 11.825C591.709 12.725 590.959 13.5 590.059 14.15C589.209 14.75 588.359 15.05 587.509 15.05C587.259 15.05 587.009 14.925 586.759 14.675C586.509 14.425 586.059 14.05 585.409 13.55C585.009 13.2 584.434 12.95 583.684 12.8C582.984 12.65 582.259 12.575 581.509 12.575C578.759 12.575 576.109 13.5 573.559 15.35C571.009 17.2 568.884 19.375 567.184 21.875C569.834 20.725 572.709 19.85 575.809 19.25C578.959 18.65 582.259 18.35 585.709 18.35C589.209 18.35 592.284 18.95 594.934 20.15C597.634 21.35 599.734 23.2 601.234 25.7C602.784 28.15 603.559 31.25 603.559 35C603.559 37.45 603.109 39.825 602.209 42.125C601.309 44.375 600.059 46.4 598.459 48.2C596.859 49.95 595.034 51.35 592.984 52.4C590.984 53.45 588.859 53.975 586.609 53.975C584.959 53.975 583.434 53.625 582.034 52.925C580.684 52.175 579.609 51.025 578.809 49.475C576.509 51.975 574.134 53.8 571.684 54.95C569.284 56.15 567.209 56.75 565.459 56.75ZM570.334 48.95C571.184 48.95 572.159 48.625 573.259 47.975C574.409 47.275 575.559 46.375 576.709 45.275C577.859 44.125 578.884 42.9 579.784 41.6C580.534 40.55 581.309 40.025 582.109 40.025C582.709 40.025 583.134 40.425 583.384 41.225C584.084 43.175 585.084 44.6 586.384 45.5C587.734 46.35 589.109 46.775 590.509 46.775C592.559 46.775 594.309 46.025 595.759 44.525C597.209 43.025 597.934 41.25 597.934 39.2C597.934 36.6 597.209 34.325 595.759 32.375C594.359 30.425 592.484 28.9 590.134 27.8C587.784 26.65 585.159 26.075 582.259 26.075C581.209 26.075 580.209 26.1 579.259 26.15C578.309 26.2 577.409 26.275 576.559 26.375C574.859 27.775 573.284 29.575 571.834 31.775C570.434 33.975 569.309 36.25 568.459 38.6C567.609 40.9 567.184 42.95 567.184 44.75C567.184 46 567.409 47.025 567.859 47.825C568.359 48.575 569.184 48.95 570.334 48.95ZM620.849 53.975C618.199 53.975 616.074 53.5 614.474 52.55C612.874 51.55 611.699 50.225 610.949 48.575C610.249 46.925 609.899 45.125 609.899 43.175C609.899 40.325 610.549 37.525 611.849 34.775C613.149 31.975 614.949 29.6 617.249 27.65C615.749 28.15 614.499 28.625 613.499 29.075C612.499 29.525 611.774 29.75 611.324 29.75C610.824 29.75 610.449 29.45 610.199 28.85C609.949 28.2 609.824 27.55 609.824 26.9C609.824 25.35 610.199 23.75 610.949 22.1C611.749 20.45 612.724 18.95 613.874 17.6C616.524 14.55 619.199 12.15 621.899 10.4C624.599 8.6 627.149 7.325 629.549 6.575C631.949 5.775 633.949 5.375 635.549 5.375C637.599 5.375 639.024 5.75 639.824 6.5C640.674 7.25 641.099 8.125 641.099 9.125C641.099 10.025 640.799 10.925 640.199 11.825C639.599 12.725 638.849 13.5 637.949 14.15C637.099 14.75 636.249 15.05 635.399 15.05C635.049 15.05 634.774 14.9 634.574 14.6C634.374 14.3 633.949 13.95 633.299 13.55C632.349 12.9 631.049 12.575 629.399 12.575C627.499 12.575 625.649 13.025 623.849 13.925C622.049 14.825 620.374 16.025 618.824 17.525C617.274 19.025 615.924 20.65 614.774 22.4C616.824 21.3 619.224 20.35 621.974 19.55C624.774 18.75 627.474 18.35 630.074 18.35C632.474 18.35 634.674 18.775 636.674 19.625C638.724 20.425 640.374 21.725 641.624 23.525C642.874 25.275 643.499 27.6 643.499 30.5C643.499 33.25 642.924 36.025 641.774 38.825C640.624 41.575 638.999 44.1 636.899 46.4C634.849 48.65 632.449 50.475 629.699 51.875C626.949 53.275 623.999 53.975 620.849 53.975ZM623.924 46.25C625.224 46.25 626.624 46.05 628.124 45.65C629.624 45.25 631.049 44.6 632.399 43.7C633.749 42.8 634.849 41.65 635.699 40.25C636.599 38.8 637.049 37.075 637.049 35.075C637.049 32.875 636.524 31.15 635.474 29.9C634.474 28.6 633.124 27.675 631.424 27.125C629.724 26.525 627.824 26.225 625.724 26.225C625.474 26.225 625.199 26.225 624.899 26.225C624.599 26.225 624.324 26.25 624.074 26.3C621.624 28.25 619.749 30.375 618.449 32.675C617.149 34.925 616.499 37.125 616.499 39.275C616.499 41.275 617.099 42.95 618.299 44.3C619.549 45.6 621.424 46.25 623.924 46.25ZM643.649 53.9C641.199 53.9 639.049 53.225 637.199 51.875C635.399 50.525 634.199 49.125 633.599 47.675L637.799 40.025C638.949 42.025 640.124 43.625 641.324 44.825C642.574 46.025 644.424 46.625 646.874 46.625C648.524 46.625 650.099 46.325 651.599 45.725C653.149 45.125 654.399 44.15 655.349 42.8C656.299 41.4 656.774 39.525 656.774 37.175C656.774 35.125 656.424 33.425 655.724 32.075C655.024 30.725 654.149 29.6 653.099 28.7C652.099 27.75 651.124 26.975 650.174 26.375C649.974 26.225 649.749 26.025 649.499 25.775C649.299 25.475 649.199 25.075 649.199 24.575C649.199 23.725 649.474 22.825 650.024 21.875C650.624 20.875 651.349 20.025 652.199 19.325C653.049 18.575 653.924 18.2 654.824 18.2C656.274 18.2 657.624 18.875 658.874 20.225C660.124 21.525 661.124 23.3 661.874 25.55C662.674 27.75 663.074 30.225 663.074 32.975C663.074 36.025 662.524 38.85 661.424 41.45C660.374 44 658.924 46.2 657.074 48.05C655.224 49.9 653.149 51.35 650.849 52.4C648.549 53.4 646.149 53.9 643.649 53.9ZM726.142 53.975C725.742 53.975 725.467 53.875 725.317 53.675C725.217 53.525 725.142 53.35 725.092 53.15C724.692 51.4 724.142 49.875 723.442 48.575C722.742 47.225 721.967 46.05 721.117 45.05C719.317 46.9 717.217 48.475 714.817 49.775C712.467 51.075 710.042 52.075 707.542 52.775C705.042 53.475 702.692 53.825 700.492 53.825C697.742 53.825 695.467 53.25 693.667 52.1C691.867 50.95 690.967 49.275 690.967 47.075C690.967 45.025 691.792 43.025 693.442 41.075C695.092 39.075 697.417 37.425 700.417 36.125C703.417 34.825 706.892 34.175 710.842 34.175C712.442 34.175 714.042 34.3 715.642 34.55C717.292 34.8 718.867 35.15 720.367 35.6C721.217 34.2 721.892 32.8 722.392 31.4C722.892 30 723.142 28.775 723.142 27.725C723.142 26.225 722.692 25.1 721.792 24.35C720.942 23.55 719.867 23.15 718.567 23.15C717.117 23.15 715.842 23.6 714.742 24.5C713.642 25.35 712.667 26.35 711.817 27.5C710.967 28.65 710.192 29.65 709.492 30.5C709.092 31 708.692 31.35 708.292 31.55C707.942 31.7 707.592 31.775 707.242 31.775C706.392 31.775 705.842 31.5 705.592 30.95C705.392 30.4 705.192 29.725 704.992 28.925C704.792 28.125 704.342 27.375 703.642 26.675C702.792 25.825 701.592 25.4 700.042 25.4C698.492 25.4 697.267 25.775 696.367 26.525C695.517 27.225 694.667 28.15 693.817 29.3C693.467 29.8 693.192 30.175 692.992 30.425C692.792 30.625 692.417 30.725 691.867 30.725C691.367 30.725 690.842 30.525 690.292 30.125C689.742 29.725 689.467 29.2 689.467 28.55C689.467 27.8 689.817 26.85 690.517 25.7C691.267 24.55 692.242 23.4 693.442 22.25C694.692 21.05 696.117 20.05 697.717 19.25C699.367 18.45 701.092 18.05 702.892 18.05C704.342 18.05 705.742 18.375 707.092 19.025C708.492 19.625 709.692 20.6 710.692 21.95C712.442 19.75 714.392 18.125 716.542 17.075C718.692 15.975 720.692 15.425 722.542 15.425C725.092 15.425 726.967 16.225 728.167 17.825C729.367 19.425 729.967 21.4 729.967 23.75C729.967 25.9 729.492 28.175 728.542 30.575C727.642 32.975 726.392 35.225 724.792 37.325C727.042 38.475 728.867 39.9 730.267 41.6C731.717 43.25 732.442 45.1 732.442 47.15C732.442 49.1 731.717 50.725 730.267 52.025C729.667 52.525 728.967 52.975 728.167 53.375C727.367 53.775 726.692 53.975 726.142 53.975ZM703.342 47.15C704.792 47.15 706.367 46.95 708.067 46.55C709.817 46.1 711.542 45.475 713.242 44.675C714.942 43.875 716.442 42.975 717.742 41.975C716.042 40.825 714.292 40.025 712.492 39.575C710.742 39.125 709.117 38.9 707.617 38.9C705.017 38.9 702.767 39.4 700.867 40.4C699.017 41.4 698.092 42.625 698.092 44.075C698.092 45.025 698.567 45.775 699.517 46.325C700.517 46.875 701.792 47.15 703.342 47.15ZM749.975 53.975C747.325 53.975 745.2 53.5 743.6 52.55C742 51.55 740.825 50.225 740.075 48.575C739.375 46.925 739.025 45.125 739.025 43.175C739.025 40.325 739.675 37.525 740.975 34.775C742.275 31.975 744.075 29.6 746.375 27.65C744.875 28.15 743.625 28.625 742.625 29.075C741.625 29.525 740.9 29.75 740.45 29.75C739.95 29.75 739.575 29.45 739.325 28.85C739.075 28.2 738.95 27.55 738.95 26.9C738.95 25.35 739.325 23.75 740.075 22.1C740.875 20.45 741.85 18.95 743 17.6C745.65 14.55 748.325 12.15 751.025 10.4C753.725 8.6 756.275 7.325 758.675 6.575C761.075 5.775 763.075 5.375 764.675 5.375C766.725 5.375 768.15 5.75 768.95 6.5C769.8 7.25 770.225 8.125 770.225 9.125C770.225 10.025 769.925 10.925 769.325 11.825C768.725 12.725 767.975 13.5 767.075 14.15C766.225 14.75 765.375 15.05 764.525 15.05C764.175 15.05 763.9 14.9 763.7 14.6C763.5 14.3 763.075 13.95 762.425 13.55C761.475 12.9 760.175 12.575 758.525 12.575C756.625 12.575 754.775 13.025 752.975 13.925C751.175 14.825 749.5 16.025 747.95 17.525C746.4 19.025 745.05 20.65 743.9 22.4C745.95 21.3 748.35 20.35 751.1 19.55C753.9 18.75 756.6 18.35 759.2 18.35C761.6 18.35 763.8 18.775 765.8 19.625C767.85 20.425 769.5 21.725 770.75 23.525C772 25.275 772.625 27.6 772.625 30.5C772.625 33.25 772.05 36.025 770.9 38.825C769.75 41.575 768.125 44.1 766.025 46.4C763.975 48.65 761.575 50.475 758.825 51.875C756.075 53.275 753.125 53.975 749.975 53.975ZM753.05 46.25C754.35 46.25 755.75 46.05 757.25 45.65C758.75 45.25 760.175 44.6 761.525 43.7C762.875 42.8 763.975 41.65 764.825 40.25C765.725 38.8 766.175 37.075 766.175 35.075C766.175 32.875 765.65 31.15 764.6 29.9C763.6 28.6 762.25 27.675 760.55 27.125C758.85 26.525 756.95 26.225 754.85 26.225C754.6 26.225 754.325 26.225 754.025 26.225C753.725 26.225 753.45 26.25 753.2 26.3C750.75 28.25 748.875 30.375 747.575 32.675C746.275 34.925 745.625 37.125 745.625 39.275C745.625 41.275 746.225 42.95 747.425 44.3C748.675 45.6 750.55 46.25 753.05 46.25ZM772.775 53.9C770.325 53.9 768.175 53.225 766.325 51.875C764.525 50.525 763.325 49.125 762.725 47.675L766.925 40.025C768.075 42.025 769.25 43.625 770.45 44.825C771.7 46.025 773.55 46.625 776 46.625C777.65 46.625 779.225 46.325 780.725 45.725C782.275 45.125 783.525 44.15 784.475 42.8C785.425 41.4 785.9 39.525 785.9 37.175C785.9 35.125 785.55 33.425 784.85 32.075C784.15 30.725 783.275 29.6 782.225 28.7C781.225 27.75 780.25 26.975 779.3 26.375C779.1 26.225 778.875 26.025 778.625 25.775C778.425 25.475 778.325 25.075 778.325 24.575C778.325 23.725 778.6 22.825 779.15 21.875C779.75 20.875 780.475 20.025 781.325 19.325C782.175 18.575 783.05 18.2 783.95 18.2C785.4 18.2 786.75 18.875 788 20.225C789.25 21.525 790.25 23.3 791 25.55C791.8 27.75 792.2 30.225 792.2 32.975C792.2 36.025 791.65 38.85 790.55 41.45C789.5 44 788.05 46.2 786.2 48.05C784.35 49.9 782.275 51.35 779.975 52.4C777.675 53.4 775.275 53.9 772.775 53.9ZM825.718 56.75C822.918 56.75 820.868 55.95 819.568 54.35C818.318 52.8 817.693 50.975 817.693 48.875C817.693 46.875 818.193 44.875 819.193 42.875C820.193 40.825 821.593 39.125 823.393 37.775C825.193 36.375 827.243 35.675 829.543 35.675C831.643 35.675 833.343 36.325 834.643 37.625C835.993 38.925 836.668 40.975 836.668 43.775C836.668 45.125 836.493 46.5 836.143 47.9C837.443 47.05 838.593 46.05 839.593 44.9C840.593 43.75 841.493 42.65 842.293 41.6C842.593 41.2 842.918 40.85 843.268 40.55C843.618 40.2 844.043 40.025 844.543 40.025C844.943 40.025 845.243 40.175 845.443 40.475C845.693 40.775 845.868 41.125 845.968 41.525C846.568 43.375 847.543 44.725 848.893 45.575C850.243 46.375 851.618 46.775 853.018 46.775C855.068 46.775 856.593 45.975 857.593 44.375C858.643 42.775 859.168 40.725 859.168 38.225C859.168 34.975 858.543 32.275 857.293 30.125C856.093 27.925 854.493 26.2 852.493 24.95C850.543 23.65 848.418 22.725 846.118 22.175C843.868 21.625 841.668 21.35 839.518 21.35C836.818 21.35 834.568 21.675 832.768 22.325C831.018 22.975 829.643 23.625 828.643 24.275C827.643 24.925 826.868 25.25 826.318 25.25C825.518 25.25 824.843 24.9 824.293 24.2C823.793 23.5 823.543 22.725 823.543 21.875C823.543 21.025 823.768 20.375 824.218 19.925C824.668 19.425 825.518 18.775 826.768 17.975C829.518 16.475 832.293 15.375 835.093 14.675C837.893 13.975 840.543 13.625 843.043 13.625C847.193 13.625 850.893 14.35 854.143 15.8C857.443 17.2 860.043 19.425 861.943 22.475C863.893 25.525 864.868 29.475 864.868 34.325C864.868 37.775 864.168 41 862.768 44C861.368 47 859.418 49.425 856.918 51.275C854.468 53.075 851.618 53.975 848.368 53.975C846.968 53.975 845.593 53.575 844.243 52.775C842.943 51.975 841.943 50.775 841.243 49.175C839.943 50.425 838.443 51.625 836.743 52.775C835.093 53.925 833.318 54.875 831.418 55.625C829.568 56.375 827.668 56.75 825.718 56.75ZM829.468 50C830.768 50 831.918 49.825 832.918 49.475C832.918 47.375 832.293 45.725 831.043 44.525C829.843 43.275 828.368 42.65 826.618 42.65C825.468 42.65 824.593 42.95 823.993 43.55C823.393 44.1 823.093 44.775 823.093 45.575C823.093 46.525 823.593 47.5 824.593 48.5C825.593 49.5 827.218 50 829.468 50ZM880.359 48.575C877.909 48.575 875.984 47.85 874.584 46.4C873.184 44.9 872.484 42.825 872.484 40.175C872.184 40.825 871.884 41.3 871.584 41.6C871.334 41.9 870.959 42.05 870.459 42.05C869.859 42.05 869.484 41.825 869.334 41.375C869.184 40.875 869.109 40.375 869.109 39.875C869.109 38.275 869.459 36.45 870.159 34.4C870.859 32.3 871.909 30.275 873.309 28.325C874.759 26.325 876.584 24.7 878.784 23.45C880.984 22.15 883.584 21.5 886.584 21.5C889.184 21.5 891.184 21.975 892.584 22.925C893.984 23.875 894.959 25.075 895.509 26.525C896.059 27.975 896.334 29.45 896.334 30.95C896.334 33.15 895.909 35.3 895.059 37.4C894.209 39.5 893.034 41.4 891.534 43.1C890.084 44.75 888.384 46.075 886.434 47.075C884.534 48.075 882.509 48.575 880.359 48.575ZM882.084 40.7C883.184 40.7 884.434 40.475 885.834 40.025C887.284 39.525 888.534 38.775 889.584 37.775C890.634 36.725 891.159 35.425 891.159 33.875C891.159 32.775 890.734 31.725 889.884 30.725C889.084 29.675 887.434 29.15 884.934 29.15C882.584 29.15 880.659 29.65 879.159 30.65C877.659 31.6 876.434 32.75 875.484 34.1C875.484 36.15 876.109 37.775 877.359 38.975C878.659 40.125 880.234 40.7 882.084 40.7ZM906.108 56.75C904.108 56.75 902.633 56.2 901.683 55.1C900.733 54 900.258 52.45 900.258 50.45C900.258 47.3 900.883 44.075 902.133 40.775C903.383 37.425 905.083 34.275 907.233 31.325C909.383 28.325 911.808 25.75 914.508 23.6C913.558 23.55 912.633 23.5 911.733 23.45C910.883 23.35 910.108 23.275 909.408 23.225C906.908 22.925 905.658 21.875 905.658 20.075C905.658 19.425 905.858 18.7 906.258 17.9C906.808 16.85 907.208 16.15 907.458 15.8C907.758 15.4 908.083 15.2 908.433 15.2C908.583 15.2 908.733 15.225 908.883 15.275C909.083 15.325 909.283 15.4 909.483 15.5C910.383 15.8 911.808 16.125 913.758 16.475C915.708 16.825 917.908 17.125 920.358 17.375C922.808 17.575 925.208 17.675 927.558 17.675C928.558 17.675 929.483 17.65 930.333 17.6C931.233 17.55 932.083 17.475 932.883 17.375C932.383 16.025 932.133 14.575 932.133 13.025C932.133 10.925 932.608 8.925 933.558 7.025C934.508 5.125 935.833 3.6 937.533 2.45C939.233 1.25 941.183 0.649999 943.383 0.649999C946.083 0.649999 948.133 1.425 949.533 2.975C950.983 4.525 951.708 6.35 951.708 8.45C951.708 12.15 950.483 15.1 948.033 17.3C945.583 19.5 942.458 21.125 938.658 22.175C940.408 23.825 941.758 25.75 942.708 27.95C943.708 30.1 944.208 32.275 944.208 34.475C944.208 37.025 943.758 39.475 942.858 41.825C942.008 44.175 940.783 46.275 939.183 48.125C937.633 49.925 935.833 51.35 933.783 52.4C931.783 53.45 929.608 53.975 927.258 53.975C925.608 53.975 924.083 53.625 922.683 52.925C921.333 52.175 920.258 51.025 919.458 49.475C917.158 51.975 914.783 53.8 912.333 54.95C909.933 56.15 907.858 56.75 906.108 56.75ZM941.208 16.025C942.508 16.025 943.708 15.625 944.808 14.825C945.908 14.025 946.458 12.825 946.458 11.225C946.458 9.875 946.033 8.775 945.183 7.925C944.383 7.075 943.283 6.65 941.883 6.65C940.133 6.65 938.808 7.125 937.908 8.075C937.008 8.975 936.558 10.175 936.558 11.675C936.558 12.775 936.933 13.775 937.683 14.675C938.483 15.575 939.658 16.025 941.208 16.025ZM910.983 48.95C911.833 48.95 912.808 48.625 913.908 47.975C915.058 47.275 916.208 46.375 917.358 45.275C918.508 44.125 919.533 42.9 920.433 41.6C921.183 40.55 921.958 40.025 922.758 40.025C923.358 40.025 923.708 40.25 923.808 40.7C923.958 41.1 924.108 41.5 924.258 41.9C924.808 43.15 925.658 44.275 926.808 45.275C927.958 46.275 929.408 46.775 931.158 46.775C933.708 46.775 935.558 46 936.708 44.45C937.858 42.9 938.433 41.025 938.433 38.825C938.433 37.225 938.033 35.55 937.233 33.8C936.433 32 935.333 30.35 933.933 28.85C932.533 27.3 930.908 26.05 929.058 25.1C927.258 24.15 925.308 23.675 923.208 23.675C923.008 23.675 922.808 23.675 922.608 23.675C922.408 23.675 922.208 23.7 922.008 23.75C920.208 24.4 918.458 25.575 916.758 27.275C915.058 28.925 913.533 30.8 912.183 32.9C910.833 35 909.758 37.1 908.958 39.2C908.208 41.3 907.833 43.15 907.833 44.75C907.833 46 908.058 47.025 908.508 47.825C909.008 48.575 909.833 48.95 910.983 48.95ZM960.047 48.575C957.597 48.575 955.672 47.85 954.272 46.4C952.872 44.9 952.172 42.825 952.172 40.175C951.872 40.825 951.572 41.3 951.272 41.6C951.022 41.9 950.647 42.05 950.147 42.05C949.547 42.05 949.172 41.825 949.022 41.375C948.872 40.875 948.797 40.375 948.797 39.875C948.797 38.275 949.147 36.45 949.847 34.4C950.547 32.3 951.597 30.275 952.997 28.325C954.447 26.325 956.272 24.7 958.472 23.45C960.672 22.15 963.272 21.5 966.272 21.5C968.872 21.5 970.872 21.975 972.272 22.925C973.672 23.875 974.647 25.075 975.197 26.525C975.747 27.975 976.022 29.45 976.022 30.95C976.022 33.15 975.597 35.3 974.747 37.4C973.897 39.5 972.722 41.4 971.222 43.1C969.772 44.75 968.072 46.075 966.122 47.075C964.222 48.075 962.197 48.575 960.047 48.575ZM961.772 40.7C962.872 40.7 964.122 40.475 965.522 40.025C966.972 39.525 968.222 38.775 969.272 37.775C970.322 36.725 970.847 35.425 970.847 33.875C970.847 32.775 970.422 31.725 969.572 30.725C968.772 29.675 967.122 29.15 964.622 29.15C962.272 29.15 960.347 29.65 958.847 30.65C957.347 31.6 956.122 32.75 955.172 34.1C955.172 36.15 955.797 37.775 957.047 38.975C958.347 40.125 959.922 40.7 961.772 40.7ZM985.796 56.75C983.796 56.75 982.321 56.2 981.371 55.1C980.421 54 979.946 52.45 979.946 50.45C979.946 48 980.571 45.2 981.821 42.05C983.121 38.9 984.846 35.85 986.996 32.9C985.296 32.3 984.021 31.25 983.171 29.75C982.321 28.2 981.896 26.5 981.896 24.65C981.896 22.05 982.596 19.65 983.996 17.45C985.446 15.2 987.396 13.375 989.846 11.975C992.296 10.575 995.046 9.875 998.096 9.875C1001.6 9.875 1004.9 10.5 1008 11.75C1011.1 13 1013.82 14.75 1016.17 17C1018.57 19.25 1020.45 21.875 1021.8 24.875C1023.2 27.825 1023.9 31.025 1023.9 34.475C1023.9 37.025 1023.45 39.475 1022.55 41.825C1021.7 44.175 1020.47 46.275 1018.87 48.125C1017.32 49.925 1015.52 51.35 1013.47 52.4C1011.47 53.45 1009.3 53.975 1006.95 53.975C1005.3 53.975 1003.77 53.625 1002.37 52.925C1001.02 52.175 999.946 51.025 999.146 49.475C996.846 51.975 994.471 53.8 992.021 54.95C989.621 56.15 987.546 56.75 985.796 56.75ZM992.246 27.65C993.396 27.65 994.521 27.375 995.621 26.825C996.721 26.275 997.646 25.475 998.396 24.425C999.146 23.325 999.521 22.05 999.521 20.6C999.521 19.3 999.096 18.225 998.246 17.375C997.396 16.475 996.096 16.025 994.346 16.025C992.946 16.025 991.721 16.375 990.671 17.075C989.671 17.775 988.896 18.675 988.346 19.775C987.846 20.825 987.596 21.9 987.596 23C987.596 24.6 988.046 25.775 988.946 26.525C989.896 27.275 990.996 27.65 992.246 27.65ZM990.671 48.95C991.521 48.95 992.496 48.625 993.596 47.975C994.746 47.275 995.896 46.375 997.046 45.275C998.196 44.125 999.221 42.9 1000.12 41.6C1000.87 40.55 1001.65 40.025 1002.45 40.025C1003.05 40.025 1003.4 40.25 1003.5 40.7C1003.65 41.1 1003.8 41.5 1003.95 41.9C1004.5 43.15 1005.35 44.275 1006.5 45.275C1007.65 46.275 1009.1 46.775 1010.85 46.775C1013.4 46.775 1015.25 46 1016.4 44.45C1017.55 42.9 1018.12 41.025 1018.12 38.825C1018.12 35.675 1017.37 32.725 1015.87 29.975C1014.42 27.225 1012.55 24.825 1010.25 22.775C1008 20.725 1005.65 19.175 1003.2 18.125C1003.35 21.175 1002.85 23.8 1001.7 26C1000.55 28.15 999.071 29.85 997.271 31.1C995.471 32.3 993.596 33.05 991.646 33.35C990.446 35.45 989.446 37.525 988.646 39.575C987.896 41.575 987.521 43.3 987.521 44.75C987.521 46 987.746 47.025 988.196 47.825C988.696 48.575 989.521 48.95 990.671 48.95ZM1031.44 53C1030.79 53 1030.46 52.575 1030.46 51.725C1030.51 47.425 1031.06 43.475 1032.11 39.875C1033.16 36.275 1034.54 33.2 1036.24 30.65C1037.99 28.05 1039.86 26.2 1041.86 25.1C1040.31 25.45 1038.86 25.875 1037.51 26.375C1036.16 26.875 1034.94 27.325 1033.84 27.725C1033.34 27.925 1032.79 28.125 1032.19 28.325C1031.64 28.475 1031.24 28.55 1030.99 28.55C1030.74 28.55 1030.44 28.375 1030.09 28.025C1029.79 27.625 1029.64 27.05 1029.64 26.3C1029.64 24.65 1030.01 23 1030.76 21.35C1031.51 19.7 1032.49 18.175 1033.69 16.775C1036.34 13.725 1039.01 11.325 1041.71 9.575C1044.41 7.775 1046.96 6.5 1049.36 5.75C1051.76 4.95 1053.76 4.55 1055.36 4.55C1057.41 4.55 1058.84 4.925 1059.64 5.675C1060.49 6.425 1060.91 7.3 1060.91 8.3C1060.91 9.2 1060.61 10.1 1060.01 11C1059.41 11.9 1058.66 12.675 1057.76 13.325C1056.91 13.925 1056.06 14.225 1055.21 14.225C1054.86 14.225 1054.54 14.05 1054.24 13.7C1053.99 13.3 1053.61 12.975 1053.11 12.725C1052.66 12.475 1052.09 12.25 1051.39 12.05C1050.69 11.85 1049.96 11.75 1049.21 11.75C1047.36 11.75 1045.54 12.2 1043.74 13.1C1041.99 13.95 1040.36 15.075 1038.86 16.475C1037.36 17.875 1036.04 19.425 1034.89 21.125C1037.09 19.775 1039.41 18.75 1041.86 18.05C1044.31 17.35 1046.49 17 1048.39 17C1050.69 17 1052.69 17.375 1054.39 18.125C1056.14 18.825 1057.64 19.825 1058.89 21.125C1060.64 22.975 1061.91 25.3 1062.71 28.1C1063.56 30.9 1063.99 33.925 1063.99 37.175C1063.99 39.425 1063.89 41.35 1063.69 42.95C1063.54 44.5 1063.31 45.925 1063.01 47.225C1062.96 47.525 1062.66 47.975 1062.11 48.575C1061.61 49.125 1060.99 49.7 1060.24 50.3C1059.49 50.85 1058.74 51.35 1057.99 51.8C1057.29 52.2 1056.71 52.4 1056.26 52.4C1055.71 52.4 1055.44 52.05 1055.44 51.35C1055.44 50.6 1055.69 49.3 1056.19 47.45C1056.69 45.55 1056.94 42.7 1056.94 38.9C1056.94 34.75 1056.16 31.525 1054.61 29.225C1053.06 26.875 1050.99 25.425 1048.39 24.875C1046.39 25.825 1044.61 27.475 1043.06 29.825C1041.51 32.125 1040.26 34.55 1039.31 37.1C1038.81 38.65 1038.46 40.15 1038.26 41.6C1038.11 43.05 1038.04 44.35 1038.04 45.5C1038.04 46.6 1037.61 47.725 1036.76 48.875C1035.96 50.025 1035.04 51 1033.99 51.8C1032.94 52.6 1032.09 53 1031.44 53ZM1091.29 53.375C1088.49 53.375 1086.44 52.6 1085.14 51.05C1083.89 49.45 1083.26 47.6 1083.26 45.5C1083.26 43.5 1083.76 41.5 1084.76 39.5C1085.76 37.45 1087.16 35.75 1088.96 34.4C1090.76 33 1092.81 32.3 1095.11 32.3C1096.76 32.3 1098.14 32.725 1099.24 33.575C1100.39 34.375 1101.24 35.45 1101.79 36.8C1102.34 38.15 1102.61 39.575 1102.61 41.075C1102.61 41.975 1102.49 42.925 1102.24 43.925C1103.74 41.725 1104.49 39.3 1104.49 36.65C1104.49 34.65 1104.09 32.775 1103.29 31.025C1102.49 29.275 1101.36 27.85 1099.91 26.75C1098.46 25.6 1096.74 25.025 1094.74 25.025C1092.89 25.025 1090.89 25.85 1088.74 27.5C1086.59 29.15 1084.49 32.2 1082.44 36.65C1081.19 39.45 1079.91 42.1 1078.61 44.6C1077.31 47.1 1075.76 49.125 1073.96 50.675C1072.16 52.225 1069.91 53 1067.21 53C1065.16 53 1063.24 52.425 1061.44 51.275C1059.69 50.075 1058.41 48.4 1057.61 46.25C1057.51 45.95 1057.46 45.675 1057.46 45.425C1057.46 44.975 1057.64 44.35 1057.99 43.55C1058.39 42.7 1058.86 41.825 1059.41 40.925C1060.01 40.025 1060.56 39.275 1061.06 38.675C1061.61 38.075 1062.04 37.775 1062.34 37.775C1062.89 40.175 1063.84 42.075 1065.19 43.475C1066.59 44.825 1068.06 45.5 1069.61 45.5C1071.46 45.5 1073.09 44.575 1074.49 42.725C1075.49 41.525 1076.34 40.1 1077.04 38.45C1077.79 36.8 1078.56 35.05 1079.36 33.2C1080.16 31.35 1081.09 29.5 1082.14 27.65C1083.19 25.8 1084.51 24.05 1086.11 22.4C1087.71 20.85 1089.41 19.625 1091.21 18.725C1093.01 17.775 1094.94 17.3 1096.99 17.3C1099.89 17.3 1102.29 18 1104.19 19.4C1106.09 20.75 1107.51 22.525 1108.46 24.725C1109.41 26.925 1109.89 29.325 1109.89 31.925C1109.89 34.725 1109.41 37.425 1108.46 40.025C1107.56 42.575 1106.26 44.85 1104.56 46.85C1102.86 48.85 1100.89 50.45 1098.64 51.65C1096.39 52.8 1093.94 53.375 1091.29 53.375ZM1095.04 46.625C1096.39 46.625 1097.54 46.475 1098.49 46.175C1098.49 44.025 1097.86 42.35 1096.61 41.15C1095.41 39.9 1093.94 39.275 1092.19 39.275C1091.04 39.275 1090.16 39.575 1089.56 40.175C1088.96 40.725 1088.66 41.4 1088.66 42.2C1088.66 43.15 1089.16 44.125 1090.16 45.125C1091.16 46.125 1092.79 46.625 1095.04 46.625ZM1138.1 67.325C1137.1 67.325 1136.05 66.975 1134.95 66.275C1133.9 65.575 1133.02 64.575 1132.32 63.275C1131.57 62.025 1131.2 60.525 1131.2 58.775C1131.2 57.125 1131.52 55.475 1132.17 53.825C1132.82 52.175 1133.72 50.65 1134.87 49.25C1136.07 47.85 1137.45 46.725 1139 45.875C1140.6 45.025 1142.3 44.6 1144.1 44.6C1146 44.6 1147.92 44.85 1149.87 45.35C1151.87 45.85 1154.17 46.1 1156.77 46.1C1158.32 46.1 1159.6 45.625 1160.6 44.675C1161.6 43.675 1162.32 42.425 1162.77 40.925C1163.27 39.375 1163.52 37.825 1163.52 36.275C1163.52 30.775 1161.45 26.575 1157.3 23.675C1156.9 26.525 1155.97 28.975 1154.52 31.025C1153.07 33.075 1151.35 34.65 1149.35 35.75C1147.4 36.85 1145.35 37.4 1143.2 37.4C1140.45 37.4 1138.35 36.5 1136.9 34.7C1135.5 32.85 1134.8 30.75 1134.8 28.4C1134.8 25.6 1135.57 23.1 1137.12 20.9C1138.67 18.7 1140.72 16.975 1143.27 15.725C1145.87 14.425 1148.65 13.775 1151.6 13.775C1153.85 13.775 1156.05 14.175 1158.2 14.975C1160.4 15.725 1162.37 16.875 1164.12 18.425C1165.87 19.925 1167.27 21.85 1168.32 24.2C1169.37 26.5 1169.9 29.2 1169.9 32.3C1169.9 36 1169.17 39.475 1167.72 42.725C1166.27 45.925 1164.42 48.4 1162.17 50.15C1160.77 51.25 1159.22 52.175 1157.52 52.925C1155.87 53.625 1154.17 53.975 1152.42 53.975C1150.37 53.975 1148.32 53.75 1146.27 53.3C1144.22 52.85 1142.45 52.625 1140.95 52.625C1140 52.625 1139.1 52.85 1138.25 53.3C1137.4 53.75 1136.97 54.625 1136.97 55.925C1136.97 57.025 1137.3 57.85 1137.95 58.4C1138.6 59 1139.35 59.4 1140.2 59.6C1141.1 59.8 1141.82 59.95 1142.37 60.05C1143.07 60.1 1143.42 60.625 1143.42 61.625C1143.42 62.325 1143.2 63.125 1142.75 64.025C1142.3 64.925 1141.67 65.7 1140.87 66.35C1140.12 67 1139.2 67.325 1138.1 67.325ZM1145.37 31.4C1146.52 31.4 1147.65 31.125 1148.75 30.575C1149.85 30.025 1150.77 29.225 1151.52 28.175C1152.27 27.075 1152.65 25.8 1152.65 24.35C1152.65 23.05 1152.22 21.975 1151.37 21.125C1150.52 20.225 1149.22 19.775 1147.47 19.775C1146.07 19.775 1144.85 20.125 1143.8 20.825C1142.8 21.525 1142.02 22.425 1141.47 23.525C1140.97 24.575 1140.72 25.65 1140.72 26.75C1140.72 28.35 1141.17 29.525 1142.07 30.275C1143.02 31.025 1144.12 31.4 1145.37 31.4ZM1185.74 56.75C1181.89 56.75 1178.94 55.5 1176.89 53C1174.89 50.45 1173.89 47.125 1173.89 43.025C1173.89 38.875 1174.59 35.2 1175.99 32C1177.39 28.75 1179.21 26 1181.46 23.75C1183.71 21.5 1186.09 19.8 1188.59 18.65C1191.14 17.5 1193.54 16.925 1195.79 16.925C1198.19 16.925 1200.19 17.6 1201.79 18.95C1203.44 20.3 1204.26 22.3 1204.26 24.95C1204.26 26.65 1203.81 28.375 1202.91 30.125C1202.01 31.825 1200.79 33.4 1199.24 34.85C1197.74 36.3 1196.04 37.475 1194.14 38.375C1192.29 39.275 1190.39 39.725 1188.44 39.725C1186.49 39.725 1185.06 39.325 1184.16 38.525C1183.26 37.725 1182.81 36.775 1182.81 35.675C1182.81 34.425 1183.21 33.425 1184.01 32.675C1184.86 31.875 1185.76 31.325 1186.71 31.025C1187.71 30.675 1188.39 30.575 1188.74 30.725C1189.04 30.825 1189.36 31.075 1189.71 31.475C1190.06 31.875 1190.51 32.275 1191.06 32.675C1191.66 33.025 1192.36 33.2 1193.16 33.2C1194.56 33.2 1195.64 32.725 1196.39 31.775C1197.14 30.775 1197.51 29.725 1197.51 28.625C1197.51 27.425 1197.09 26.325 1196.24 25.325C1195.39 24.325 1194.09 23.825 1192.34 23.825C1190.14 23.825 1188.14 24.575 1186.34 26.075C1184.54 27.525 1183.11 29.4 1182.06 31.7C1181.01 33.95 1180.49 36.25 1180.49 38.6C1180.49 40.6 1180.81 42.475 1181.46 44.225C1182.16 45.975 1183.19 47.4 1184.54 48.5C1185.89 49.55 1187.61 50.075 1189.71 50.075C1191.66 50.075 1193.36 49.7 1194.81 48.95C1196.26 48.2 1197.51 47.325 1198.56 46.325C1199.66 45.325 1200.56 44.475 1201.26 43.775C1201.56 43.475 1201.81 43.3 1202.01 43.25C1202.21 43.15 1202.39 43.1 1202.54 43.1C1203.09 43.1 1203.51 43.3 1203.81 43.7C1204.11 44.05 1204.26 44.475 1204.26 44.975C1204.26 45.525 1203.76 46.425 1202.76 47.675C1201.81 48.925 1200.49 50.25 1198.79 51.65C1197.09 53.05 1195.11 54.25 1192.86 55.25C1190.61 56.25 1188.24 56.75 1185.74 56.75ZM1239.56 54.05C1236.81 54.05 1234.61 53.4 1232.96 52.1C1231.36 50.75 1230.56 49.05 1230.56 47C1230.56 45.55 1230.98 43.975 1231.83 42.275C1232.73 40.575 1234.03 39.025 1235.73 37.625C1235.08 37.825 1234.48 38.025 1233.93 38.225C1233.43 38.425 1232.98 38.6 1232.58 38.75C1232.28 38.85 1231.98 38.95 1231.68 39.05C1231.43 39.15 1231.18 39.2 1230.93 39.2C1230.68 39.2 1230.43 39.1 1230.18 38.9C1229.93 38.7 1229.81 38.45 1229.81 38.15C1229.81 37.6 1230.03 37 1230.48 36.35C1230.98 35.7 1231.53 35.05 1232.13 34.4C1232.78 33.75 1233.33 33.225 1233.78 32.825C1234.93 31.825 1236.08 30.925 1237.23 30.125C1238.43 29.325 1239.36 28.725 1240.01 28.325C1240.56 27.575 1240.88 27.05 1240.98 26.75C1241.13 26.4 1241.21 26.125 1241.21 25.925C1241.21 25.525 1240.98 25.325 1240.53 25.325C1239.98 25.325 1239.16 25.675 1238.06 26.375C1237.01 27.025 1235.91 27.7 1234.76 28.4C1233.66 29.05 1232.68 29.375 1231.83 29.375C1231.48 29.375 1231.06 29.25 1230.56 29C1230.06 28.7 1229.81 28.225 1229.81 27.575C1229.81 25.975 1230.18 24.35 1230.93 22.7C1231.68 21 1232.66 19.475 1233.86 18.125C1236.51 15.075 1239.18 12.675 1241.88 10.925C1244.58 9.125 1247.13 7.85 1249.53 7.1C1251.93 6.3 1253.93 5.9 1255.53 5.9C1257.58 5.9 1259.01 6.275 1259.81 7.025C1260.66 7.775 1261.08 8.65 1261.08 9.65C1261.08 10.55 1260.78 11.45 1260.18 12.35C1259.58 13.25 1258.83 14.025 1257.93 14.675C1257.08 15.275 1256.23 15.575 1255.38 15.575C1255.03 15.575 1254.71 15.4 1254.41 15.05C1254.11 14.7 1253.73 14.375 1253.28 14.075C1252.33 13.425 1251.03 13.1 1249.38 13.1C1246.68 13.1 1244.08 14 1241.58 15.8C1239.08 17.55 1236.98 19.675 1235.28 22.175C1237.13 20.875 1238.96 19.7 1240.76 18.65C1242.61 17.6 1244.08 17.075 1245.18 17.075C1246.18 17.075 1246.93 17.35 1247.43 17.9C1247.93 18.4 1248.18 19 1248.18 19.7C1248.18 21.15 1247.21 23.025 1245.26 25.325C1247.76 24.025 1250.28 22.95 1252.83 22.1C1255.43 21.25 1257.81 20.825 1259.96 20.825C1262.06 20.825 1263.56 21.225 1264.46 22.025C1265.36 22.775 1265.81 23.625 1265.81 24.575C1265.81 25.475 1265.48 26.375 1264.83 27.275C1264.18 28.175 1263.43 28.95 1262.58 29.6C1261.73 30.2 1260.96 30.5 1260.26 30.5C1259.91 30.5 1259.66 30.4 1259.51 30.2C1259.36 30 1258.93 29.65 1258.23 29.15C1257.43 28.55 1256.56 28.15 1255.61 27.95C1254.71 27.7 1253.73 27.575 1252.68 27.575C1250.18 27.575 1247.71 28.05 1245.26 29C1242.81 29.9 1240.73 30.875 1239.03 31.925C1242.53 30.525 1245.76 29.825 1248.71 29.825C1251.41 29.825 1253.61 30.475 1255.31 31.775C1257.06 33.025 1257.93 35 1257.93 37.7C1257.93 39.8 1257.41 41.85 1256.36 43.85C1255.31 45.8 1253.88 47.55 1252.08 49.1C1250.33 50.6 1248.36 51.8 1246.16 52.7C1244.01 53.6 1241.81 54.05 1239.56 54.05ZM1243.23 47C1245.43 47 1247.41 46.5 1249.16 45.5C1250.96 44.5 1251.86 43.075 1251.86 41.225C1251.86 39.875 1251.23 38.75 1249.98 37.85C1248.73 36.95 1246.61 36.5 1243.61 36.5C1242.41 36.5 1241.28 36.575 1240.23 36.725C1238.18 38.625 1237.16 40.6 1237.16 42.65C1237.16 43.85 1237.63 44.875 1238.58 45.725C1239.53 46.575 1241.08 47 1243.23 47ZM1271.4 67.325C1270.4 67.325 1269.35 66.975 1268.25 66.275C1267.2 65.575 1266.33 64.575 1265.62 63.275C1264.87 62.025 1264.5 60.525 1264.5 58.775C1264.5 56.575 1265.1 54.425 1266.3 52.325C1267.5 50.175 1269.08 48.4 1271.03 47C1273.03 45.55 1275.25 44.825 1277.7 44.825C1279.6 44.825 1281.43 45.075 1283.18 45.575C1284.98 46.075 1286.63 46.325 1288.13 46.325C1290.18 46.325 1291.78 45.675 1292.93 44.375C1294.13 43.025 1294.73 41.3 1294.73 39.2C1294.73 36.7 1294.05 34.5 1292.7 32.6C1291.4 30.65 1289.73 29.125 1287.67 28.025C1285.63 26.925 1283.48 26.375 1281.23 26.375C1279.38 26.375 1277.75 26.7 1276.35 27.35C1274.95 28 1273.75 28.65 1272.75 29.3C1271.75 29.95 1270.93 30.275 1270.28 30.275C1269.68 30.275 1269.2 29.95 1268.85 29.3C1268.55 28.65 1268.4 27.925 1268.4 27.125C1268.4 25.675 1268.85 24.1 1269.75 22.4C1270.65 20.65 1271.58 19.225 1272.53 18.125C1275.18 15.075 1277.85 12.675 1280.55 10.925C1283.25 9.125 1285.8 7.85 1288.2 7.1C1290.6 6.3 1292.6 5.9 1294.2 5.9C1296.25 5.9 1297.68 6.275 1298.48 7.025C1299.33 7.775 1299.75 8.65 1299.75 9.65C1299.75 10.55 1299.45 11.45 1298.85 12.35C1298.25 13.25 1297.5 14.025 1296.6 14.675C1295.75 15.275 1294.9 15.575 1294.05 15.575C1293.7 15.575 1293.4 15.425 1293.15 15.125C1292.9 14.775 1292.5 14.425 1291.95 14.075C1290.95 13.425 1289.65 13.1 1288.05 13.1C1285.45 13.1 1282.95 13.925 1280.55 15.575C1278.2 17.175 1276.18 19.1 1274.48 21.35C1276.03 20.5 1277.65 19.775 1279.35 19.175C1281.05 18.575 1282.75 18.275 1284.45 18.275C1287.6 18.275 1290.38 18.975 1292.78 20.375C1295.18 21.775 1297.03 23.725 1298.33 26.225C1299.68 28.725 1300.35 31.65 1300.35 35C1300.35 37.95 1299.7 40.775 1298.4 43.475C1297.1 46.175 1295.38 48.4 1293.23 50.15C1291.83 51.3 1290.28 52.225 1288.58 52.925C1286.93 53.625 1285.23 53.975 1283.48 53.975C1281.43 53.975 1279.75 53.75 1278.45 53.3C1277.15 52.85 1275.75 52.625 1274.25 52.625C1273.3 52.625 1272.4 52.85 1271.55 53.3C1270.7 53.75 1270.28 54.625 1270.28 55.925C1270.28 57.025 1270.6 57.85 1271.25 58.4C1271.9 59 1272.65 59.4 1273.5 59.6C1274.4 59.8 1275.13 59.95 1275.68 60.05C1276.38 60.1 1276.73 60.625 1276.73 61.625C1276.73 62.325 1276.5 63.125 1276.05 64.025C1275.6 64.925 1274.98 65.7 1274.18 66.35C1273.43 67 1272.5 67.325 1271.4 67.325ZM1306.35 79.325C1306 79.325 1305.78 79.175 1305.68 78.875C1305.48 78.025 1305.25 77.225 1305 76.475C1304.75 75.775 1304.5 75.1 1304.25 74.45C1303.25 71.9 1302.05 69.825 1300.65 68.225C1298.7 70.975 1296.32 73.275 1293.52 75.125C1290.72 76.975 1287.82 77.9 1284.82 77.9C1282.07 77.9 1280.05 77.25 1278.75 75.95C1277.45 74.7 1276.8 73.175 1276.8 71.375C1276.8 69.525 1277.47 67.6 1278.82 65.6C1280.17 63.65 1282.12 62 1284.67 60.65C1287.22 59.3 1290.3 58.625 1293.9 58.625C1295.1 58.625 1296.25 58.725 1297.35 58.925C1298.45 59.125 1299.47 59.4 1300.42 59.75C1300.82 58.95 1301.17 57.9 1301.47 56.6C1301.77 55.3 1302.02 53.9 1302.22 52.4C1302.42 50.85 1302.52 49.4 1302.52 48.05C1302.52 47.65 1302.52 47.275 1302.52 46.925C1302.47 46.575 1302.45 46.225 1302.45 45.875C1302.45 45.425 1302.67 44.925 1303.12 44.375C1303.58 43.825 1304.15 43.35 1304.85 42.95C1305.6 42.5 1306.33 42.275 1307.03 42.275C1307.68 42.275 1308.18 42.6 1308.53 43.25C1308.93 43.85 1309.13 44.65 1309.13 45.65C1309.13 46.65 1308.93 48.125 1308.53 50.075C1308.18 51.975 1307.65 54 1306.95 56.15C1306.3 58.3 1305.53 60.225 1304.63 61.925C1306.98 63.525 1308.78 65.4 1310.03 67.55C1311.33 69.7 1311.98 71.525 1311.98 73.025C1311.98 74.825 1311.3 76.325 1309.95 77.525C1309.5 77.925 1308.9 78.325 1308.15 78.725C1307.45 79.125 1306.85 79.325 1306.35 79.325ZM1287.97 71.6C1290.02 71.6 1291.87 71.05 1293.52 69.95C1295.12 68.85 1296.47 67.4 1297.57 65.6C1296.52 64.9 1295.42 64.4 1294.27 64.1C1293.12 63.85 1291.97 63.725 1290.82 63.725C1288.22 63.725 1286.3 64.2 1285.05 65.15C1283.75 66.15 1283.1 67.175 1283.1 68.225C1283.1 69.125 1283.52 69.9 1284.38 70.55C1285.17 71.25 1286.37 71.6 1287.97 71.6ZM1319.41 56.75C1317.41 56.75 1315.94 56.2 1314.99 55.1C1314.04 54 1313.56 52.45 1313.56 50.45C1313.56 47.65 1314.09 44.75 1315.14 41.75C1316.24 38.7 1317.66 35.85 1319.41 33.2C1321.21 30.5 1323.14 28.3 1325.19 26.6C1323.04 27.3 1321.36 28 1320.16 28.7C1318.96 29.4 1318.06 29.75 1317.46 29.75C1317.06 29.75 1316.71 29.475 1316.41 28.925C1316.11 28.325 1315.94 27.625 1315.89 26.825C1315.89 25.225 1316.31 23.6 1317.16 21.95C1318.01 20.25 1318.94 18.8 1319.94 17.6C1322.59 14.55 1325.26 12.15 1327.96 10.4C1330.66 8.6 1333.21 7.325 1335.61 6.575C1338.01 5.775 1340.01 5.375 1341.61 5.375C1343.66 5.375 1345.09 5.75 1345.89 6.5C1346.74 7.25 1347.16 8.125 1347.16 9.125C1347.16 10.025 1346.86 10.925 1346.26 11.825C1345.66 12.725 1344.91 13.5 1344.01 14.15C1343.16 14.75 1342.31 15.05 1341.46 15.05C1341.21 15.05 1340.96 14.925 1340.71 14.675C1340.46 14.425 1340.01 14.05 1339.36 13.55C1338.96 13.2 1338.39 12.95 1337.64 12.8C1336.94 12.65 1336.21 12.575 1335.46 12.575C1332.71 12.575 1330.09 13.475 1327.59 15.275C1325.09 17.075 1322.99 19.225 1321.29 21.725C1324.09 20.575 1327.16 19.725 1330.51 19.175C1333.91 18.575 1337.14 18.275 1340.19 18.275C1342.74 18.275 1345.01 18.6 1347.01 19.25C1349.06 19.85 1350.69 20.775 1351.89 22.025C1353.09 23.225 1353.69 24.75 1353.69 26.6C1353.69 27.55 1353.51 28.525 1353.16 29.525C1355.21 29.775 1356.94 30.575 1358.34 31.925C1359.79 33.225 1360.51 35.05 1360.51 37.4C1360.51 39.1 1359.94 41.025 1358.79 43.175C1357.64 45.325 1356.06 47.275 1354.06 49.025C1352.31 50.575 1350.29 51.8 1347.99 52.7C1345.69 53.6 1343.44 54.05 1341.24 54.05C1339.39 54.05 1337.69 53.7 1336.14 53C1334.64 52.25 1333.51 51.1 1332.76 49.55C1330.46 52 1328.09 53.8 1325.64 54.95C1323.24 56.15 1321.16 56.75 1319.41 56.75ZM1324.29 48.95C1325.14 48.95 1326.11 48.625 1327.21 47.975C1328.36 47.275 1329.51 46.375 1330.66 45.275C1331.81 44.125 1332.84 42.9 1333.74 41.6C1334.49 40.55 1335.26 40.025 1336.06 40.025C1336.81 40.025 1337.24 40.425 1337.34 41.225C1337.54 42.725 1338.06 43.9 1338.91 44.75C1339.81 45.55 1340.81 46.125 1341.91 46.475C1343.06 46.775 1344.11 46.925 1345.06 46.925C1347.81 46.925 1350.06 46.275 1351.81 44.975C1353.56 43.625 1354.44 41.8 1354.44 39.5C1354.44 38.4 1354.16 37.425 1353.61 36.575C1353.11 35.725 1352.36 35.2 1351.36 35C1350.11 36.55 1348.64 37.925 1346.94 39.125C1345.24 40.275 1343.69 40.85 1342.29 40.85C1341.54 40.85 1341.01 40.625 1340.71 40.175C1340.41 39.675 1340.26 39.1 1340.26 38.45C1340.26 36.7 1340.69 35.225 1341.54 34.025C1342.44 32.775 1343.56 31.8 1344.91 31.1C1346.26 30.4 1347.69 29.925 1349.19 29.675C1349.04 28.475 1348.34 27.525 1347.09 26.825C1345.89 26.125 1344.41 25.625 1342.66 25.325C1340.91 25.025 1339.11 24.875 1337.26 24.875C1336.41 24.875 1335.56 24.9 1334.71 24.95C1333.86 25 1333.01 25.075 1332.16 25.175C1330.71 26.075 1329.31 27.3 1327.96 28.85C1326.66 30.4 1325.49 32.125 1324.44 34.025C1323.44 35.925 1322.64 37.825 1322.04 39.725C1321.44 41.575 1321.14 43.25 1321.14 44.75C1321.14 46 1321.36 47.025 1321.81 47.825C1322.31 48.575 1323.14 48.95 1324.29 48.95ZM1370.92 56.75C1368.12 56.75 1366.07 55.95 1364.77 54.35C1363.52 52.8 1362.89 50.975 1362.89 48.875C1362.89 46.875 1363.39 44.875 1364.39 42.875C1365.39 40.825 1366.79 39.125 1368.59 37.775C1370.39 36.375 1372.44 35.675 1374.74 35.675C1376.84 35.675 1378.54 36.325 1379.84 37.625C1381.19 38.925 1381.87 40.975 1381.87 43.775C1381.87 45.125 1381.69 46.5 1381.34 47.9C1382.64 47.05 1383.79 46.05 1384.79 44.9C1385.79 43.75 1386.69 42.65 1387.49 41.6C1387.79 41.2 1388.12 40.85 1388.47 40.55C1388.82 40.2 1389.24 40.025 1389.74 40.025C1390.44 40.025 1390.92 40.425 1391.17 41.225C1391.77 43.075 1392.72 44.475 1394.02 45.425C1395.37 46.325 1396.74 46.775 1398.14 46.775C1400.19 46.775 1401.74 46 1402.79 44.45C1403.89 42.9 1404.44 41.15 1404.44 39.2C1404.44 37.2 1403.84 35.2 1402.64 33.2C1401.49 31.2 1399.79 29.525 1397.54 28.175C1395.34 26.825 1392.64 26.15 1389.44 26.15C1387.09 26.15 1384.89 26.475 1382.84 27.125C1380.79 27.775 1379.04 28.425 1377.59 29.075C1376.19 29.725 1375.19 30.05 1374.59 30.05C1373.94 30.05 1373.34 29.7 1372.79 29C1372.24 28.25 1371.97 27.525 1371.97 26.825C1371.97 25.625 1372.39 24.3 1373.24 22.85C1374.09 21.35 1375.27 19.875 1376.77 18.425C1378.27 16.925 1379.97 15.6 1381.87 14.45C1384.47 12.85 1387.32 11.475 1390.42 10.325C1393.52 9.125 1396.62 8.2 1399.72 7.55C1402.82 6.9 1405.67 6.575 1408.27 6.575C1412.07 6.575 1415.64 7.025 1418.99 7.925C1422.39 8.825 1425.32 10.3 1427.77 12.35C1429.97 14.2 1431.72 16.6 1433.02 19.55C1434.32 22.45 1434.97 25.975 1434.97 30.125C1434.97 32.975 1434.59 35.825 1433.84 38.675C1433.09 41.475 1431.99 44.05 1430.54 46.4C1429.14 48.7 1427.44 50.55 1425.44 51.95C1423.49 53.35 1421.29 54.05 1418.84 54.05C1416.94 54.05 1415.29 53.475 1413.89 52.325C1412.54 51.125 1411.87 49.35 1411.87 47C1411.87 45.4 1412.29 43.7 1413.14 41.9C1414.04 40.1 1415.27 38.325 1416.82 36.575C1418.37 34.825 1420.17 33.25 1422.22 31.85C1424.32 30.4 1426.54 29.275 1428.89 28.475C1428.29 26.525 1427.42 24.8 1426.27 23.3C1425.17 21.75 1423.87 20.425 1422.37 19.325C1419.77 17.325 1416.64 15.9 1412.99 15.05C1409.39 14.15 1405.62 13.7 1401.67 13.7C1396.92 13.7 1392.72 14.4 1389.07 15.8C1385.42 17.15 1382.27 18.925 1379.62 21.125C1382.07 20.175 1384.39 19.5 1386.59 19.1C1388.84 18.65 1390.97 18.425 1392.97 18.425C1396.17 18.425 1398.87 18.925 1401.07 19.925C1403.27 20.925 1405.02 22.25 1406.32 23.9C1407.67 25.5 1408.62 27.3 1409.17 29.3C1409.77 31.25 1410.07 33.225 1410.07 35.225C1410.07 38.825 1409.29 42.05 1407.74 44.9C1406.24 47.7 1404.27 49.925 1401.82 51.575C1399.42 53.175 1396.87 53.975 1394.17 53.975C1392.47 53.975 1390.94 53.6 1389.59 52.85C1388.29 52.1 1387.27 50.875 1386.52 49.175C1385.22 50.425 1383.72 51.625 1382.02 52.775C1380.32 53.925 1378.52 54.875 1376.62 55.625C1374.77 56.375 1372.87 56.75 1370.92 56.75ZM1422.67 46.25C1424.87 46.25 1426.59 45.175 1427.84 43.025C1429.14 40.825 1429.79 38.175 1429.79 35.075C1428.04 35.025 1426.34 35.35 1424.69 36.05C1423.04 36.7 1421.69 37.625 1420.64 38.825C1419.59 39.975 1419.07 41.3 1419.07 42.8C1419.07 43.95 1419.42 44.825 1420.12 45.425C1420.87 45.975 1421.72 46.25 1422.67 46.25ZM1374.67 50C1375.97 50 1377.12 49.825 1378.12 49.475C1378.12 47.375 1377.49 45.725 1376.24 44.525C1375.04 43.275 1373.57 42.65 1371.82 42.65C1370.67 42.65 1369.79 42.95 1369.19 43.55C1368.59 44.1 1368.29 44.775 1368.29 45.575C1368.29 46.525 1368.79 47.5 1369.79 48.5C1370.79 49.5 1372.42 50 1374.67 50ZM1441.72 53C1441.07 53 1440.74 52.575 1440.74 51.725C1440.74 47.625 1441.22 43.85 1442.17 40.4C1443.17 36.9 1444.44 33.9 1445.99 31.4C1444.44 30.95 1443.17 30 1442.17 28.55C1441.22 27.05 1440.74 25.225 1440.74 23.075C1440.74 20.175 1441.52 17.625 1443.07 15.425C1444.62 13.225 1446.62 11.5 1449.07 10.25C1451.52 8.95 1454.09 8.3 1456.79 8.3C1460.19 8.3 1463.04 8.95 1465.34 10.25C1467.69 11.5 1469.54 13.275 1470.89 15.575C1472.29 17.825 1473.29 20.45 1473.89 23.45C1474.49 26.4 1474.79 29.575 1474.79 32.975C1474.79 37.525 1474.37 42.275 1473.52 47.225C1473.47 47.525 1473.17 47.975 1472.62 48.575C1472.07 49.125 1471.39 49.7 1470.59 50.3C1469.84 50.85 1469.09 51.35 1468.34 51.8C1467.59 52.2 1466.99 52.4 1466.54 52.4C1466.29 52.4 1466.07 52.325 1465.87 52.175C1465.72 51.975 1465.67 51.7 1465.72 51.35C1466.27 48.7 1466.69 45.925 1466.99 43.025C1467.29 40.125 1467.44 37.3 1467.44 34.55C1467.44 30.95 1467.04 27.7 1466.24 24.8C1465.49 21.85 1464.09 19.7 1462.04 18.35C1461.94 20.7 1461.42 22.775 1460.47 24.575C1459.57 26.375 1458.39 27.85 1456.94 29C1455.49 30.1 1453.97 30.875 1452.37 31.325C1450.92 33.625 1449.87 35.95 1449.22 38.3C1448.62 40.6 1448.32 43 1448.32 45.5C1448.32 46.6 1447.89 47.725 1447.04 48.875C1446.24 50.025 1445.32 51 1444.27 51.8C1443.22 52.6 1442.37 53 1441.72 53ZM1451.09 26.075C1452.24 26.075 1453.37 25.8 1454.47 25.25C1455.57 24.7 1456.49 23.9 1457.24 22.85C1457.99 21.75 1458.37 20.475 1458.37 19.025C1458.37 17.725 1457.94 16.65 1457.09 15.8C1456.24 14.9 1454.94 14.45 1453.19 14.45C1451.79 14.45 1450.57 14.8 1449.52 15.5C1448.52 16.2 1447.74 17.1 1447.19 18.2C1446.69 19.25 1446.44 20.325 1446.44 21.425C1446.44 23.025 1446.89 24.2 1447.79 24.95C1448.74 25.7 1449.84 26.075 1451.09 26.075ZM1493.82 53.975C1491.17 53.975 1489.05 53.5 1487.45 52.55C1485.85 51.55 1484.67 50.225 1483.92 48.575C1483.22 46.925 1482.87 45.125 1482.87 43.175C1482.87 40.325 1483.52 37.525 1484.82 34.775C1486.12 31.975 1487.92 29.6 1490.22 27.65C1488.72 28.15 1487.47 28.625 1486.47 29.075C1485.47 29.525 1484.75 29.75 1484.3 29.75C1483.8 29.75 1483.42 29.45 1483.17 28.85C1482.92 28.2 1482.8 27.55 1482.8 26.9C1482.8 25.35 1483.17 23.75 1483.92 22.1C1484.72 20.45 1485.7 18.95 1486.85 17.6C1489.5 14.55 1492.17 12.15 1494.87 10.4C1497.57 8.6 1500.12 7.325 1502.52 6.575C1504.92 5.775 1506.92 5.375 1508.52 5.375C1510.57 5.375 1512 5.75 1512.8 6.5C1513.65 7.25 1514.07 8.125 1514.07 9.125C1514.07 10.025 1513.77 10.925 1513.17 11.825C1512.57 12.725 1511.82 13.5 1510.92 14.15C1510.07 14.75 1509.22 15.05 1508.37 15.05C1508.02 15.05 1507.75 14.9 1507.55 14.6C1507.35 14.3 1506.92 13.95 1506.27 13.55C1505.32 12.9 1504.02 12.575 1502.37 12.575C1500.47 12.575 1498.62 13.025 1496.82 13.925C1495.02 14.825 1493.35 16.025 1491.8 17.525C1490.25 19.025 1488.9 20.65 1487.75 22.4C1489.8 21.3 1492.2 20.35 1494.95 19.55C1497.75 18.75 1500.45 18.35 1503.05 18.35C1505.45 18.35 1507.65 18.775 1509.65 19.625C1511.7 20.425 1513.35 21.725 1514.6 23.525C1515.85 25.275 1516.47 27.6 1516.47 30.5C1516.47 33.25 1515.9 36.025 1514.75 38.825C1513.6 41.575 1511.97 44.1 1509.87 46.4C1507.82 48.65 1505.42 50.475 1502.67 51.875C1499.92 53.275 1496.97 53.975 1493.82 53.975ZM1496.9 46.25C1498.2 46.25 1499.6 46.05 1501.1 45.65C1502.6 45.25 1504.02 44.6 1505.37 43.7C1506.72 42.8 1507.82 41.65 1508.67 40.25C1509.57 38.8 1510.02 37.075 1510.02 35.075C1510.02 32.875 1509.5 31.15 1508.45 29.9C1507.45 28.6 1506.1 27.675 1504.4 27.125C1502.7 26.525 1500.8 26.225 1498.7 26.225C1498.45 26.225 1498.17 26.225 1497.87 26.225C1497.57 26.225 1497.3 26.25 1497.05 26.3C1494.6 28.25 1492.72 30.375 1491.42 32.675C1490.12 34.925 1489.47 37.125 1489.47 39.275C1489.47 41.275 1490.07 42.95 1491.27 44.3C1492.52 45.6 1494.4 46.25 1496.9 46.25ZM1516.62 53.9C1514.17 53.9 1512.02 53.225 1510.17 51.875C1508.37 50.525 1507.17 49.125 1506.57 47.675L1510.77 40.025C1511.92 42.025 1513.1 43.625 1514.3 44.825C1515.55 46.025 1517.4 46.625 1519.85 46.625C1521.5 46.625 1523.07 46.325 1524.57 45.725C1526.12 45.125 1527.37 44.15 1528.32 42.8C1529.27 41.4 1529.75 39.525 1529.75 37.175C1529.75 35.125 1529.4 33.425 1528.7 32.075C1528 30.725 1527.12 29.6 1526.07 28.7C1525.07 27.75 1524.1 26.975 1523.15 26.375C1522.95 26.225 1522.72 26.025 1522.47 25.775C1522.27 25.475 1522.17 25.075 1522.17 24.575C1522.17 23.725 1522.45 22.825 1523 21.875C1523.6 20.875 1524.32 20.025 1525.17 19.325C1526.02 18.575 1526.9 18.2 1527.8 18.2C1529.25 18.2 1530.6 18.875 1531.85 20.225C1533.1 21.525 1534.1 23.3 1534.85 25.55C1535.65 27.75 1536.05 30.225 1536.05 32.975C1536.05 36.025 1535.5 38.85 1534.4 41.45C1533.35 44 1531.9 46.2 1530.05 48.05C1528.2 49.9 1526.12 51.35 1523.82 52.4C1521.52 53.4 1519.12 53.9 1516.62 53.9ZM1549.65 53.675C1548.25 53.675 1547.1 53.225 1546.2 52.325C1545.35 51.425 1544.93 50.275 1544.93 48.875C1544.93 47.425 1545.4 46.225 1546.35 45.275C1547.3 44.325 1548.53 43.85 1550.03 43.85C1551.43 43.85 1552.55 44.275 1553.4 45.125C1554.25 45.975 1554.68 47.1 1554.68 48.5C1554.68 50 1554.2 51.25 1553.25 52.25C1552.3 53.2 1551.1 53.675 1549.65 53.675Z" fill="black"/>
</svg>
