<svg width="629" height="75" viewBox="0 0 629 75" fill="none" xmlns="http://www.w3.org/2000/svg">
<path d="M7.95 51.75C6.1 51.75 4.675 51.2 3.675 50.1C2.725 49 2.25 47.575 2.25 45.825C2.25 44.225 2.6 42.625 3.3 41.025C4 39.425 4.85 37.85 5.85 36.3C6.9 34.75 7.925 33.225 8.925 31.725C8.575 31.875 8.175 31.975 7.725 32.025C7.325 32.075 6.925 32.1 6.525 32.1C4.275 32.1 2.625 31.35 1.575 29.85C0.525 28.35 2.12342e-07 26.525 2.12342e-07 24.375C2.12342e-07 22.675 0.3 20.925 0.9 19.125C1.55 17.325 2.45 15.65 3.6 14.1C4.75 12.5 6.15 11.225 7.8 10.275C9.45 9.275 11.275 8.775 13.275 8.775C15.775 8.775 17.525 9.55 18.525 11.1C19.525 12.65 20.025 14.45 20.025 16.5C20.025 18.95 19.525 21.225 18.525 23.325C17.525 25.425 16.375 27.425 15.075 29.325C13.775 31.175 12.625 33.025 11.625 34.875C10.625 36.725 10.125 38.6 10.125 40.5C10.125 42.8 11.025 43.95 12.825 43.95C13.975 43.95 15.1 43.55 16.2 42.75C17.3 41.95 18.3 41.05 19.2 40.05C20.1 39 20.825 38.075 21.375 37.275C22.075 36.375 22.6 35.775 22.95 35.475C23.3 35.175 23.7 35.025 24.15 35.025C24.7 35.025 25.1 35.325 25.35 35.925C25.7 36.925 26.075 37.725 26.475 38.325C26.875 38.875 27.4 39.35 28.05 39.75C28.8 40.25 29.625 40.625 30.525 40.875C31.475 41.125 32.35 41.25 33.15 41.25C35.95 41.25 38.15 40.5 39.75 39C41.35 37.5 42.15 35.3 42.15 32.4C42.15 29.8 41.375 27.3 39.825 24.9C38.275 22.45 36.25 20.475 33.75 18.975C32.6 18.275 31.525 17.75 30.525 17.4C29.525 17 28.725 16.6 28.125 16.2C27.575 15.8 27.3 15.225 27.3 14.475C27.3 13.125 27.95 11.7 29.25 10.2C30.6 8.7 32.35 7.325 34.5 6.075C36.7 4.775 39.125 3.725 41.775 2.925C44.425 2.075 47.05 1.65 49.65 1.65C54.25 1.65 58.3 2.625 61.8 4.575C65.3 6.525 68.025 9.25 69.975 12.75C71.975 16.25 72.975 20.35 72.975 25.05C72.975 27.95 72.55 30.825 71.7 33.675C70.9 36.525 69.75 39.125 68.25 41.475C66.8 43.775 65.05 45.625 63 47.025C60.95 48.375 58.7 49.05 56.25 49.05C54.25 49.05 52.575 48.45 51.225 47.25C49.925 46 49.275 44.25 49.275 42C49.275 40.4 49.7 38.7 50.55 36.9C51.45 35.1 52.675 33.325 54.225 31.575C55.825 29.825 57.65 28.25 59.7 26.85C61.75 25.4 63.95 24.275 66.3 23.475C65.45 20.525 63.925 17.925 61.725 15.675C59.575 13.425 57.025 11.65 54.075 10.35C51.175 9.05 48.15 8.4 45 8.4C41.3 8.4 38.1 9.15 35.4 10.65C37.85 11.5 39.975 12.9 41.775 14.85C43.575 16.8 44.975 19.125 45.975 21.825C47.025 24.525 47.55 27.425 47.55 30.525C47.55 32.375 47.175 34.375 46.425 36.525C45.675 38.625 44.575 40.625 43.125 42.525C41.675 44.425 39.875 45.975 37.725 47.175C35.575 48.325 33.1 48.9 30.3 48.9C28.75 48.9 27.075 48.6 25.275 48C23.525 47.45 22.025 46.375 20.775 44.775C18.525 47.175 16.25 48.925 13.95 50.025C11.7 51.175 9.7 51.75 7.95 51.75ZM10.2 26.475C10.5 26.475 10.8 26.45 11.1 26.4C11.45 26.35 11.8 26.25 12.15 26.1C12.5 25.3 12.775 24.475 12.975 23.625C13.175 22.775 13.275 21.875 13.275 20.925C13.275 19.025 12.9 17.625 12.15 16.725C11.4 15.825 10.55 15.375 9.6 15.375C8.2 15.375 7.125 15.95 6.375 17.1C5.675 18.2 5.325 19.425 5.325 20.775C5.325 22.175 5.725 23.475 6.525 24.675C7.325 25.875 8.55 26.475 10.2 26.475ZM60 41.25C61.65 41.25 63 40.725 64.05 39.675C65.1 38.625 65.875 37.25 66.375 35.55C66.925 33.85 67.2 32.05 67.2 30.15C65.4 30.1 63.675 30.4 62.025 31.05C60.375 31.7 59.025 32.6 57.975 33.75C56.975 34.9 56.475 36.25 56.475 37.8C56.475 39 56.825 39.875 57.525 40.425C58.225 40.975 59.05 41.25 60 41.25ZM90.4354 49.2C87.9854 49.2 85.9854 48.675 84.4354 47.625C82.8854 46.575 81.7354 45.175 80.9854 43.425C80.2354 41.625 79.8604 39.65 79.8604 37.5C79.8604 35.85 80.2104 34.075 80.9104 32.175C81.6104 30.225 82.4604 28.5 83.4604 27C82.2604 26.2 81.3604 25.125 80.7604 23.775C80.1604 22.425 79.8604 20.975 79.8604 19.425C79.8604 16.525 80.6354 13.975 82.1854 11.775C83.7354 9.575 85.7354 7.85 88.1854 6.6C90.6354 5.3 93.2104 4.65 95.9104 4.65C98.8104 4.65 101.585 5.425 104.235 6.975C106.935 8.475 109.135 10.725 110.835 13.725C112.585 16.725 113.46 20.425 113.46 24.825C113.46 28.175 112.86 31.325 111.66 34.275C110.46 37.175 108.785 39.75 106.635 42C104.535 44.25 102.085 46.025 99.2854 47.325C96.5354 48.575 93.5854 49.2 90.4354 49.2ZM90.2104 22.425C91.3604 22.425 92.4854 22.15 93.5854 21.6C94.6854 21.05 95.6104 20.25 96.3604 19.2C97.1104 18.1 97.4854 16.825 97.4854 15.375C97.4854 14.075 97.0604 13 96.2104 12.15C95.3604 11.25 94.0604 10.8 92.3104 10.8C90.9104 10.8 89.6854 11.15 88.6354 11.85C87.6354 12.55 86.8604 13.45 86.3104 14.55C85.8104 15.6 85.5604 16.675 85.5604 17.775C85.5604 19.375 86.0104 20.55 86.9104 21.3C87.8604 22.05 88.9604 22.425 90.2104 22.425ZM93.9604 41.25C97.9604 41.25 101.235 40.15 103.785 37.95C106.385 35.75 107.685 32.675 107.685 28.725C107.685 25.875 107.06 23.2 105.81 20.7C104.61 18.2 103.06 16.1 101.16 14.4C101.06 17.4 100.335 19.925 98.9854 21.975C97.6354 24.025 95.9604 25.575 93.9604 26.625C92.0104 27.675 90.0354 28.2 88.0354 28.2H87.2854C86.4354 30.2 86.0104 32.025 86.0104 33.675C86.0104 35.825 86.6354 37.625 87.8854 39.075C89.1354 40.525 91.1604 41.25 93.9604 41.25ZM130.465 35.625C128.915 35.625 127.64 35.075 126.64 33.975C125.69 32.875 125.215 31.475 125.215 29.775C125.215 28.825 125.415 27.75 125.815 26.55C126.215 25.3 126.965 24 128.065 22.65C127.415 22.8 126.665 23.075 125.815 23.475C125.015 23.825 124.24 24.15 123.49 24.45C122.74 24.75 122.14 24.9 121.69 24.9C120.69 24.9 119.99 24.625 119.59 24.075C119.24 23.475 119.04 22.625 118.99 21.525C118.99 20.075 119.39 18.55 120.19 16.95C121.04 15.3 121.99 13.85 123.04 12.6C125.69 9.55 128.365 7.15 131.065 5.4C133.765 3.6 136.315 2.325 138.715 1.575C141.115 0.774997 143.115 0.374996 144.715 0.374996C146.765 0.374996 148.19 0.749997 148.99 1.5C149.84 2.25 150.265 3.125 150.265 4.125C150.265 5.025 149.965 5.925 149.365 6.825C148.765 7.725 148.015 8.5 147.115 9.15C146.265 9.75 145.415 10.05 144.565 10.05C144.215 10.05 143.94 9.9 143.74 9.6C143.54 9.3 143.115 8.95 142.465 8.55C141.515 7.9 140.215 7.575 138.565 7.575C136.665 7.575 134.815 8.025 133.015 8.925C131.215 9.825 129.54 11.025 127.99 12.525C126.44 13.975 125.09 15.575 123.94 17.325C126.44 16.125 128.59 15.175 130.39 14.475C132.19 13.775 133.79 13.425 135.19 13.425C137.89 13.425 139.84 14.2 141.04 15.75C142.29 17.25 142.915 19.075 142.915 21.225C142.915 22.825 142.59 24.475 141.94 26.175C141.34 27.825 140.465 29.375 139.315 30.825C138.215 32.275 136.89 33.45 135.34 34.35C133.84 35.2 132.215 35.625 130.465 35.625ZM133.465 28.425C134.865 28.425 135.94 28.025 136.69 27.225C137.49 26.375 137.89 25.5 137.89 24.6C137.89 22.2 136.765 21 134.515 21C133.415 21 132.415 21.425 131.515 22.275C130.615 23.125 130.165 24.2 130.165 25.5C130.165 26.55 130.465 27.3 131.065 27.75C131.715 28.2 132.515 28.425 133.465 28.425ZM124.09 62.325C123.09 62.325 122.04 61.975 120.94 61.275C119.89 60.575 118.99 59.575 118.24 58.275C117.54 57.025 117.19 55.525 117.19 53.775C117.19 51.575 117.79 49.425 118.99 47.325C120.19 45.175 121.765 43.4 123.715 42C125.715 40.55 127.94 39.825 130.39 39.825C131.49 39.825 132.74 39.95 134.14 40.2C135.54 40.45 136.965 40.7 138.415 40.95C139.865 41.2 141.19 41.325 142.39 41.325C143.74 41.325 144.865 41.075 145.765 40.575C146.715 40.025 147.19 38.975 147.19 37.425C147.19 36.425 147.015 35.65 146.665 35.1C146.365 34.55 146.04 34.1 145.69 33.75C145.34 33.4 145.115 33.075 145.015 32.775C144.915 32.325 145.04 31.625 145.39 30.675C145.74 29.725 146.315 28.85 147.115 28.05C147.915 27.25 148.915 26.85 150.115 26.85C151.215 26.85 152.165 27.3 152.965 28.2C153.765 29.1 154.165 30.475 154.165 32.325C154.165 34.325 153.665 36.3 152.665 38.25C151.665 40.2 150.315 41.975 148.615 43.575C146.965 45.175 145.09 46.475 142.99 47.475C140.94 48.425 138.84 48.9 136.69 48.9C135.04 48.9 133.29 48.675 131.44 48.225C129.64 47.825 128.14 47.625 126.94 47.625C125.99 47.625 125.09 47.85 124.24 48.3C123.39 48.75 122.965 49.625 122.965 50.925C122.965 52.025 123.29 52.85 123.94 53.4C124.59 54 125.34 54.4 126.19 54.6C127.09 54.8 127.815 54.95 128.365 55.05C129.065 55.1 129.415 55.625 129.415 56.625C129.415 57.325 129.19 58.125 128.74 59.025C128.29 59.925 127.665 60.7 126.865 61.35C126.115 62 125.19 62.325 124.09 62.325ZM157.09 48.9C154.64 48.9 152.49 48.225 150.64 46.875C148.84 45.525 147.64 44.125 147.04 42.675L151.24 35.025C152.39 37.025 153.565 38.625 154.765 39.825C156.015 41.025 157.865 41.625 160.315 41.625C161.965 41.625 163.54 41.325 165.04 40.725C166.59 40.125 167.84 39.15 168.79 37.8C169.74 36.4 170.215 34.525 170.215 32.175C170.215 30.125 169.865 28.425 169.165 27.075C168.465 25.725 167.59 24.6 166.54 23.7C165.54 22.75 164.565 21.975 163.615 21.375C163.415 21.225 163.19 21.025 162.94 20.775C162.74 20.475 162.64 20.075 162.64 19.575C162.64 18.725 162.915 17.825 163.465 16.875C164.065 15.875 164.79 15.025 165.64 14.325C166.49 13.575 167.365 13.2 168.265 13.2C169.715 13.2 171.065 13.875 172.315 15.225C173.565 16.525 174.565 18.3 175.315 20.55C176.115 22.75 176.515 25.225 176.515 27.975C176.515 31.025 175.965 33.85 174.865 36.45C173.815 39 172.365 41.2 170.515 43.05C168.665 44.9 166.59 46.35 164.29 47.4C161.99 48.4 159.59 48.9 157.09 48.9ZM214.024 49.05C211.274 49.05 209.074 48.4 207.424 47.1C205.824 45.75 205.024 44.05 205.024 42C205.024 40.55 205.449 38.975 206.299 37.275C207.199 35.575 208.499 34.025 210.199 32.625C209.549 32.825 208.949 33.025 208.399 33.225C207.899 33.425 207.449 33.6 207.049 33.75C206.749 33.85 206.449 33.95 206.149 34.05C205.899 34.15 205.649 34.2 205.399 34.2C205.149 34.2 204.899 34.1 204.649 33.9C204.399 33.7 204.274 33.45 204.274 33.15C204.274 32.6 204.499 32 204.949 31.35C205.449 30.7 205.999 30.05 206.599 29.4C207.249 28.75 207.799 28.225 208.249 27.825C209.399 26.825 210.549 25.925 211.699 25.125C212.899 24.325 213.824 23.725 214.474 23.325C215.024 22.575 215.349 22.05 215.449 21.75C215.599 21.4 215.674 21.125 215.674 20.925C215.674 20.525 215.449 20.325 214.999 20.325C214.449 20.325 213.624 20.675 212.524 21.375C211.474 22.025 210.374 22.7 209.224 23.4C208.124 24.05 207.149 24.375 206.299 24.375C205.949 24.375 205.524 24.25 205.024 24C204.524 23.7 204.274 23.225 204.274 22.575C204.274 20.975 204.649 19.35 205.399 17.7C206.149 16 207.124 14.475 208.324 13.125C210.974 10.075 213.649 7.675 216.349 5.925C219.049 4.125 221.599 2.85 223.999 2.1C226.399 1.3 228.399 0.899998 229.999 0.899998C232.049 0.899998 233.474 1.275 234.274 2.025C235.124 2.775 235.549 3.65 235.549 4.65C235.549 5.55 235.249 6.45 234.649 7.35C234.049 8.25 233.299 9.025 232.399 9.675C231.549 10.275 230.699 10.575 229.849 10.575C229.499 10.575 229.174 10.4 228.874 10.05C228.574 9.7 228.199 9.375 227.749 9.075C226.799 8.425 225.499 8.1 223.849 8.1C221.149 8.1 218.549 9 216.049 10.8C213.549 12.55 211.449 14.675 209.749 17.175C211.599 15.875 213.424 14.7 215.224 13.65C217.074 12.6 218.549 12.075 219.649 12.075C220.649 12.075 221.399 12.35 221.899 12.9C222.399 13.4 222.649 14 222.649 14.7C222.649 16.15 221.674 18.025 219.724 20.325C222.224 19.025 224.749 17.95 227.299 17.1C229.899 16.25 232.274 15.825 234.424 15.825C236.524 15.825 238.024 16.225 238.924 17.025C239.824 17.775 240.274 18.625 240.274 19.575C240.274 20.475 239.949 21.375 239.299 22.275C238.649 23.175 237.899 23.95 237.049 24.6C236.199 25.2 235.424 25.5 234.724 25.5C234.374 25.5 234.124 25.4 233.974 25.2C233.824 25 233.399 24.65 232.699 24.15C231.899 23.55 231.024 23.15 230.074 22.95C229.174 22.7 228.199 22.575 227.149 22.575C224.649 22.575 222.174 23.05 219.724 24C217.274 24.9 215.199 25.875 213.499 26.925C216.999 25.525 220.224 24.825 223.174 24.825C225.874 24.825 228.074 25.475 229.774 26.775C231.524 28.025 232.399 30 232.399 32.7C232.399 34.8 231.874 36.85 230.824 38.85C229.774 40.8 228.349 42.55 226.549 44.1C224.799 45.6 222.824 46.8 220.624 47.7C218.474 48.6 216.274 49.05 214.024 49.05ZM217.699 42C219.899 42 221.874 41.5 223.624 40.5C225.424 39.5 226.324 38.075 226.324 36.225C226.324 34.875 225.699 33.75 224.449 32.85C223.199 31.95 221.074 31.5 218.074 31.5C216.874 31.5 215.749 31.575 214.699 31.725C212.649 33.625 211.624 35.6 211.624 37.65C211.624 38.85 212.099 39.875 213.049 40.725C213.999 41.575 215.549 42 217.699 42ZM245.866 62.325C244.866 62.325 243.816 61.975 242.716 61.275C241.666 60.575 240.791 59.575 240.091 58.275C239.341 57.025 238.966 55.525 238.966 53.775C238.966 51.575 239.566 49.425 240.766 47.325C241.966 45.175 243.541 43.4 245.491 42C247.491 40.55 249.716 39.825 252.166 39.825C254.066 39.825 255.891 40.075 257.641 40.575C259.441 41.075 261.091 41.325 262.591 41.325C264.641 41.325 266.241 40.675 267.391 39.375C268.591 38.025 269.191 36.3 269.191 34.2C269.191 31.7 268.516 29.5 267.166 27.6C265.866 25.65 264.191 24.125 262.141 23.025C260.091 21.925 257.941 21.375 255.691 21.375C253.841 21.375 252.216 21.7 250.816 22.35C249.416 23 248.216 23.65 247.216 24.3C246.216 24.95 245.391 25.275 244.741 25.275C244.141 25.275 243.666 24.95 243.316 24.3C243.016 23.65 242.866 22.925 242.866 22.125C242.866 20.675 243.316 19.1 244.216 17.4C245.116 15.65 246.041 14.225 246.991 13.125C249.641 10.075 252.316 7.675 255.016 5.925C257.716 4.125 260.266 2.85 262.666 2.1C265.066 1.3 267.066 0.899998 268.666 0.899998C270.716 0.899998 272.141 1.275 272.941 2.025C273.791 2.775 274.216 3.65 274.216 4.65C274.216 5.55 273.916 6.45 273.316 7.35C272.716 8.25 271.966 9.025 271.066 9.675C270.216 10.275 269.366 10.575 268.516 10.575C268.166 10.575 267.866 10.425 267.616 10.125C267.366 9.775 266.966 9.425 266.416 9.075C265.416 8.425 264.116 8.1 262.516 8.1C259.916 8.1 257.416 8.925 255.016 10.575C252.666 12.175 250.641 14.1 248.941 16.35C250.491 15.5 252.116 14.775 253.816 14.175C255.516 13.575 257.216 13.275 258.916 13.275C262.066 13.275 264.841 13.975 267.241 15.375C269.641 16.775 271.491 18.725 272.791 21.225C274.141 23.725 274.816 26.65 274.816 30C274.816 32.95 274.166 35.775 272.866 38.475C271.566 41.175 269.841 43.4 267.691 45.15C266.291 46.3 264.741 47.225 263.041 47.925C261.391 48.625 259.691 48.975 257.941 48.975C255.891 48.975 254.216 48.75 252.916 48.3C251.616 47.85 250.216 47.625 248.716 47.625C247.766 47.625 246.866 47.85 246.016 48.3C245.166 48.75 244.741 49.625 244.741 50.925C244.741 52.025 245.066 52.85 245.716 53.4C246.366 54 247.116 54.4 247.966 54.6C248.866 54.8 249.591 54.95 250.141 55.05C250.841 55.1 251.191 55.625 251.191 56.625C251.191 57.325 250.966 58.125 250.516 59.025C250.066 59.925 249.441 60.7 248.641 61.35C247.891 62 246.966 62.325 245.866 62.325ZM280.816 74.325C280.466 74.325 280.241 74.175 280.141 73.875C279.941 73.025 279.716 72.225 279.466 71.475C279.216 70.775 278.966 70.1 278.716 69.45C277.716 66.9 276.516 64.825 275.116 63.225C273.166 65.975 270.791 68.275 267.991 70.125C265.191 71.975 262.291 72.9 259.291 72.9C256.541 72.9 254.516 72.25 253.216 70.95C251.916 69.7 251.266 68.175 251.266 66.375C251.266 64.525 251.941 62.6 253.291 60.6C254.641 58.65 256.591 57 259.141 55.65C261.691 54.3 264.766 53.625 268.366 53.625C269.566 53.625 270.716 53.725 271.816 53.925C272.916 54.125 273.941 54.4 274.891 54.75C275.291 53.95 275.641 52.9 275.941 51.6C276.241 50.3 276.491 48.9 276.691 47.4C276.891 45.85 276.991 44.4 276.991 43.05C276.991 42.65 276.991 42.275 276.991 41.925C276.941 41.575 276.916 41.225 276.916 40.875C276.916 40.425 277.141 39.925 277.591 39.375C278.041 38.825 278.616 38.35 279.316 37.95C280.066 37.5 280.791 37.275 281.491 37.275C282.141 37.275 282.641 37.6 282.991 38.25C283.391 38.85 283.591 39.65 283.591 40.65C283.591 41.65 283.391 43.125 282.991 45.075C282.641 46.975 282.116 49 281.416 51.15C280.766 53.3 279.991 55.225 279.091 56.925C281.441 58.525 283.241 60.4 284.491 62.55C285.791 64.7 286.441 66.525 286.441 68.025C286.441 69.825 285.766 71.325 284.416 72.525C283.966 72.925 283.366 73.325 282.616 73.725C281.916 74.125 281.316 74.325 280.816 74.325ZM262.441 66.6C264.491 66.6 266.341 66.05 267.991 64.95C269.591 63.85 270.941 62.4 272.041 60.6C270.991 59.9 269.891 59.4 268.741 59.1C267.591 58.85 266.441 58.725 265.291 58.725C262.691 58.725 260.766 59.2 259.516 60.15C258.216 61.15 257.566 62.175 257.566 63.225C257.566 64.125 257.991 64.9 258.841 65.55C259.641 66.25 260.841 66.6 262.441 66.6ZM293.88 51.75C291.88 51.75 290.405 51.2 289.455 50.1C288.505 49 288.03 47.45 288.03 45.45C288.03 42.65 288.555 39.75 289.605 36.75C290.705 33.7 292.13 30.85 293.88 28.2C295.68 25.5 297.605 23.3 299.655 21.6C297.505 22.3 295.83 23 294.63 23.7C293.43 24.4 292.53 24.75 291.93 24.75C291.53 24.75 291.18 24.475 290.88 23.925C290.58 23.325 290.405 22.625 290.355 21.825C290.355 20.225 290.78 18.6 291.63 16.95C292.48 15.25 293.405 13.8 294.405 12.6C297.055 9.55 299.73 7.15 302.43 5.4C305.13 3.6 307.68 2.325 310.08 1.575C312.48 0.774997 314.48 0.374996 316.08 0.374996C318.13 0.374996 319.555 0.749997 320.355 1.5C321.205 2.25 321.63 3.125 321.63 4.125C321.63 5.025 321.33 5.925 320.73 6.825C320.13 7.725 319.38 8.5 318.48 9.15C317.63 9.75 316.78 10.05 315.93 10.05C315.68 10.05 315.43 9.925 315.18 9.675C314.93 9.425 314.48 9.05 313.83 8.55C313.43 8.2 312.855 7.95 312.105 7.8C311.405 7.65 310.68 7.575 309.93 7.575C307.18 7.575 304.555 8.475 302.055 10.275C299.555 12.075 297.455 14.225 295.755 16.725C298.555 15.575 301.63 14.725 304.98 14.175C308.38 13.575 311.605 13.275 314.655 13.275C317.205 13.275 319.48 13.6 321.48 14.25C323.53 14.85 325.155 15.775 326.355 17.025C327.555 18.225 328.155 19.75 328.155 21.6C328.155 22.55 327.98 23.525 327.63 24.525C329.68 24.775 331.405 25.575 332.805 26.925C334.255 28.225 334.98 30.05 334.98 32.4C334.98 34.1 334.405 36.025 333.255 38.175C332.105 40.325 330.53 42.275 328.53 44.025C326.78 45.575 324.755 46.8 322.455 47.7C320.155 48.6 317.905 49.05 315.705 49.05C313.855 49.05 312.155 48.7 310.605 48C309.105 47.25 307.98 46.1 307.23 44.55C304.93 47 302.555 48.8 300.105 49.95C297.705 51.15 295.63 51.75 293.88 51.75ZM298.755 43.95C299.605 43.95 300.58 43.625 301.68 42.975C302.83 42.275 303.98 41.375 305.13 40.275C306.28 39.125 307.305 37.9 308.205 36.6C308.955 35.55 309.73 35.025 310.53 35.025C311.28 35.025 311.705 35.425 311.805 36.225C312.005 37.725 312.53 38.9 313.38 39.75C314.28 40.55 315.28 41.125 316.38 41.475C317.53 41.775 318.58 41.925 319.53 41.925C322.28 41.925 324.53 41.275 326.28 39.975C328.03 38.625 328.905 36.8 328.905 34.5C328.905 33.4 328.63 32.425 328.08 31.575C327.58 30.725 326.83 30.2 325.83 30C324.58 31.55 323.105 32.925 321.405 34.125C319.705 35.275 318.155 35.85 316.755 35.85C316.005 35.85 315.48 35.625 315.18 35.175C314.88 34.675 314.73 34.1 314.73 33.45C314.73 31.7 315.155 30.225 316.005 29.025C316.905 27.775 318.03 26.8 319.38 26.1C320.73 25.4 322.155 24.925 323.655 24.675C323.505 23.475 322.805 22.525 321.555 21.825C320.355 21.125 318.88 20.625 317.13 20.325C315.38 20.025 313.58 19.875 311.73 19.875C310.88 19.875 310.03 19.9 309.18 19.95C308.33 20 307.48 20.075 306.63 20.175C305.18 21.075 303.78 22.3 302.43 23.85C301.13 25.4 299.955 27.125 298.905 29.025C297.905 30.925 297.105 32.825 296.505 34.725C295.905 36.575 295.605 38.25 295.605 39.75C295.605 41 295.83 42.025 296.28 42.825C296.78 43.575 297.605 43.95 298.755 43.95ZM365.071 51.75C363.071 51.75 361.596 51.2 360.646 50.1C359.696 49 359.221 47.45 359.221 45.45C359.221 42.55 359.796 39.5 360.946 36.3C362.146 33.1 363.671 30.2 365.521 27.6C364.071 26.9 362.971 25.85 362.221 24.45C361.521 23 361.171 21.4 361.171 19.65C361.171 16.75 361.946 14.175 363.496 11.925C365.096 9.675 367.196 7.925 369.796 6.675C372.396 5.375 375.221 4.725 378.271 4.725C380.821 4.725 383.321 5.15 385.771 6C388.271 6.8 390.521 7.95 392.521 9.45C394.571 10.9 396.196 12.625 397.396 14.625C398.596 16.625 399.196 18.8 399.196 21.15C399.196 22.25 399.046 23.375 398.746 24.525C400.846 24.725 402.596 25.5 403.996 26.85C405.446 28.2 406.171 30.05 406.171 32.4C406.171 34.1 405.596 36.025 404.446 38.175C403.296 40.325 401.721 42.275 399.721 44.025C397.971 45.575 395.946 46.8 393.646 47.7C391.346 48.55 389.096 48.975 386.896 48.975C385.046 48.975 383.346 48.625 381.796 47.925C380.296 47.225 379.171 46.1 378.421 44.55C376.121 47 373.746 48.8 371.296 49.95C368.896 51.15 366.821 51.75 365.071 51.75ZM371.521 22.65C372.671 22.65 373.796 22.375 374.896 21.825C375.996 21.275 376.921 20.475 377.671 19.425C378.421 18.325 378.796 17.05 378.796 15.6C378.796 14.3 378.371 13.225 377.521 12.375C376.671 11.475 375.371 11.025 373.621 11.025C372.221 11.025 370.996 11.375 369.946 12.075C368.946 12.775 368.171 13.675 367.621 14.775C367.121 15.825 366.871 16.9 366.871 18C366.871 19.6 367.321 20.775 368.221 21.525C369.171 22.275 370.271 22.65 371.521 22.65ZM369.946 43.95C370.796 43.95 371.771 43.625 372.871 42.975C374.021 42.275 375.171 41.375 376.321 40.275C377.471 39.125 378.496 37.9 379.396 36.6C380.146 35.55 380.921 35.025 381.721 35.025C382.471 35.025 382.896 35.425 382.996 36.225C383.196 37.725 383.721 38.9 384.571 39.75C385.471 40.55 386.471 41.125 387.571 41.475C388.721 41.775 389.771 41.925 390.721 41.925C393.471 41.925 395.721 41.275 397.471 39.975C399.221 38.625 400.096 36.8 400.096 34.5C400.096 33.4 399.821 32.425 399.271 31.575C398.771 30.725 398.021 30.2 397.021 30C395.771 31.55 394.296 32.925 392.596 34.125C390.896 35.275 389.346 35.85 387.946 35.85C387.196 35.85 386.671 35.625 386.371 35.175C386.071 34.675 385.921 34.1 385.921 33.45C385.921 30.95 386.771 29 388.471 27.6C390.171 26.2 392.096 25.25 394.246 24.75C394.296 24.6 394.321 24.45 394.321 24.3C394.321 24.15 394.321 24 394.321 23.85C394.321 22.5 393.921 21.175 393.121 19.875C392.371 18.575 391.371 17.425 390.121 16.425C388.921 15.425 387.621 14.625 386.221 14.025C384.871 13.425 383.621 13.125 382.471 13.125C382.621 16.225 382.096 18.9 380.896 21.15C379.696 23.35 378.146 25.05 376.246 26.25C374.396 27.45 372.471 28.15 370.471 28.35C369.371 30.3 368.471 32.3 367.771 34.35C367.121 36.35 366.796 38.15 366.796 39.75C366.796 41 367.021 42.025 367.471 42.825C367.971 43.575 368.796 43.95 369.946 43.95ZM420.548 43.575C418.098 43.575 416.173 42.85 414.773 41.4C413.373 39.9 412.673 37.825 412.673 35.175C412.373 35.825 412.073 36.3 411.773 36.6C411.523 36.9 411.148 37.05 410.648 37.05C410.048 37.05 409.673 36.825 409.523 36.375C409.373 35.875 409.298 35.375 409.298 34.875C409.298 33.275 409.648 31.45 410.348 29.4C411.048 27.3 412.098 25.275 413.498 23.325C414.948 21.325 416.773 19.7 418.973 18.45C421.173 17.15 423.773 16.5 426.773 16.5C429.373 16.5 431.373 16.975 432.773 17.925C434.173 18.875 435.148 20.075 435.698 21.525C436.248 22.975 436.523 24.45 436.523 25.95C436.523 28.15 436.098 30.3 435.248 32.4C434.398 34.5 433.223 36.4 431.723 38.1C430.273 39.75 428.573 41.075 426.623 42.075C424.723 43.075 422.698 43.575 420.548 43.575ZM422.273 35.7C423.373 35.7 424.623 35.475 426.023 35.025C427.473 34.525 428.723 33.775 429.773 32.775C430.823 31.725 431.348 30.425 431.348 28.875C431.348 27.775 430.923 26.725 430.073 25.725C429.273 24.675 427.623 24.15 425.123 24.15C422.773 24.15 420.848 24.65 419.348 25.65C417.848 26.6 416.623 27.75 415.673 29.1C415.673 31.15 416.298 32.775 417.548 33.975C418.848 35.125 420.423 35.7 422.273 35.7ZM446.297 51.75C444.297 51.75 442.822 51.2 441.872 50.1C440.922 49 440.447 47.45 440.447 45.45C440.447 42.55 441.022 39.5 442.172 36.3C443.372 33.1 444.897 30.2 446.747 27.6C445.297 26.9 444.197 25.85 443.447 24.45C442.747 23 442.397 21.4 442.397 19.65C442.397 16.75 443.172 14.175 444.722 11.925C446.322 9.675 448.422 7.925 451.022 6.675C453.622 5.375 456.447 4.725 459.497 4.725C462.047 4.725 464.547 5.15 466.997 6C469.497 6.8 471.747 7.95 473.747 9.45C475.797 10.9 477.422 12.625 478.622 14.625C479.822 16.625 480.422 18.8 480.422 21.15C480.422 22.25 480.272 23.375 479.972 24.525C482.072 24.725 483.822 25.5 485.222 26.85C486.672 28.2 487.397 30.05 487.397 32.4C487.397 34.1 486.822 36.025 485.672 38.175C484.522 40.325 482.947 42.275 480.947 44.025C479.197 45.575 477.172 46.8 474.872 47.7C472.572 48.55 470.322 48.975 468.122 48.975C466.272 48.975 464.572 48.625 463.022 47.925C461.522 47.225 460.397 46.1 459.647 44.55C457.347 47 454.972 48.8 452.522 49.95C450.122 51.15 448.047 51.75 446.297 51.75ZM452.747 22.65C453.897 22.65 455.022 22.375 456.122 21.825C457.222 21.275 458.147 20.475 458.897 19.425C459.647 18.325 460.022 17.05 460.022 15.6C460.022 14.3 459.597 13.225 458.747 12.375C457.897 11.475 456.597 11.025 454.847 11.025C453.447 11.025 452.222 11.375 451.172 12.075C450.172 12.775 449.397 13.675 448.847 14.775C448.347 15.825 448.097 16.9 448.097 18C448.097 19.6 448.547 20.775 449.447 21.525C450.397 22.275 451.497 22.65 452.747 22.65ZM451.172 43.95C452.022 43.95 452.997 43.625 454.097 42.975C455.247 42.275 456.397 41.375 457.547 40.275C458.697 39.125 459.722 37.9 460.622 36.6C461.372 35.55 462.147 35.025 462.947 35.025C463.697 35.025 464.122 35.425 464.222 36.225C464.422 37.725 464.947 38.9 465.797 39.75C466.697 40.55 467.697 41.125 468.797 41.475C469.947 41.775 470.997 41.925 471.947 41.925C474.697 41.925 476.947 41.275 478.697 39.975C480.447 38.625 481.322 36.8 481.322 34.5C481.322 33.4 481.047 32.425 480.497 31.575C479.997 30.725 479.247 30.2 478.247 30C476.997 31.55 475.522 32.925 473.822 34.125C472.122 35.275 470.572 35.85 469.172 35.85C468.422 35.85 467.897 35.625 467.597 35.175C467.297 34.675 467.147 34.1 467.147 33.45C467.147 30.95 467.997 29 469.697 27.6C471.397 26.2 473.322 25.25 475.472 24.75C475.522 24.6 475.547 24.45 475.547 24.3C475.547 24.15 475.547 24 475.547 23.85C475.547 22.5 475.147 21.175 474.347 19.875C473.597 18.575 472.597 17.425 471.347 16.425C470.147 15.425 468.847 14.625 467.447 14.025C466.097 13.425 464.847 13.125 463.697 13.125C463.847 16.225 463.322 18.9 462.122 21.15C460.922 23.35 459.372 25.05 457.472 26.25C455.622 27.45 453.697 28.15 451.697 28.35C450.597 30.3 449.697 32.3 448.997 34.35C448.347 36.35 448.022 38.15 448.022 39.75C448.022 41 448.247 42.025 448.697 42.825C449.197 43.575 450.022 43.95 451.172 43.95ZM497.798 51.75C494.998 51.75 492.948 50.95 491.648 49.35C490.398 47.8 489.773 45.975 489.773 43.875C489.773 41.875 490.273 39.875 491.273 37.875C492.273 35.825 493.673 34.125 495.473 32.775C497.273 31.375 499.323 30.675 501.623 30.675C503.723 30.675 505.423 31.325 506.723 32.625C508.073 33.925 508.748 35.975 508.748 38.775C508.748 40.125 508.573 41.5 508.223 42.9C509.523 42.05 510.673 41.05 511.673 39.9C512.673 38.75 513.573 37.65 514.373 36.6C514.673 36.2 514.998 35.85 515.348 35.55C515.698 35.2 516.123 35.025 516.623 35.025C517.323 35.025 517.798 35.425 518.048 36.225C518.648 38.075 519.598 39.475 520.898 40.425C522.248 41.325 523.623 41.775 525.023 41.775C527.073 41.775 528.623 41 529.673 39.45C530.773 37.9 531.323 36.15 531.323 34.2C531.323 32.2 530.723 30.2 529.523 28.2C528.373 26.2 526.673 24.525 524.423 23.175C522.223 21.825 519.523 21.15 516.323 21.15C513.973 21.15 511.773 21.475 509.723 22.125C507.673 22.775 505.923 23.425 504.473 24.075C503.073 24.725 502.073 25.05 501.473 25.05C500.823 25.05 500.223 24.7 499.673 24C499.123 23.25 498.823 22.425 498.773 21.525C498.773 20.275 499.123 18.825 499.823 17.175C500.573 15.525 501.573 14 502.823 12.6C505.473 9.55 508.148 7.15 510.848 5.4C513.548 3.6 516.098 2.325 518.498 1.575C520.898 0.774997 522.898 0.374996 524.498 0.374996C526.548 0.374996 527.973 0.749997 528.773 1.5C529.623 2.25 530.048 3.125 530.048 4.125C530.048 5.025 529.748 5.925 529.148 6.825C528.548 7.725 527.798 8.5 526.898 9.15C526.048 9.75 525.198 10.05 524.348 10.05C523.998 10.05 523.673 9.875 523.373 9.525C523.073 9.175 522.698 8.85 522.248 8.55C521.298 7.9 519.998 7.575 518.348 7.575C516.448 7.575 514.598 8.025 512.798 8.925C510.998 9.825 509.323 11 507.773 12.45C506.273 13.9 504.948 15.5 503.798 17.25C506.748 15.95 509.573 15 512.273 14.4C514.973 13.75 517.498 13.425 519.848 13.425C523.048 13.425 525.748 13.925 527.948 14.925C530.148 15.925 531.898 17.25 533.198 18.9C534.548 20.5 535.498 22.3 536.048 24.3C536.648 26.25 536.948 28.225 536.948 30.225C536.948 33.825 536.173 37.05 534.623 39.9C533.123 42.7 531.148 44.925 528.698 46.575C526.298 48.175 523.748 48.975 521.048 48.975C519.348 48.975 517.823 48.6 516.473 47.85C515.173 47.1 514.148 45.875 513.398 44.175C512.098 45.425 510.598 46.625 508.898 47.775C507.198 48.925 505.398 49.875 503.498 50.625C501.648 51.375 499.748 51.75 497.798 51.75ZM501.548 45C502.848 45 503.998 44.825 504.998 44.475C504.998 42.375 504.373 40.725 503.123 39.525C501.923 38.275 500.448 37.65 498.698 37.65C497.548 37.65 496.673 37.95 496.073 38.55C495.473 39.1 495.173 39.775 495.173 40.575C495.173 41.525 495.673 42.5 496.673 43.5C497.673 44.5 499.298 45 501.548 45ZM540.173 48.9C537.723 48.9 535.573 48.225 533.723 46.875C531.923 45.525 530.723 44.125 530.123 42.675L534.323 35.025C535.473 37.025 536.648 38.625 537.848 39.825C539.098 41.025 540.948 41.625 543.398 41.625C545.048 41.625 546.623 41.325 548.123 40.725C549.673 40.125 550.923 39.15 551.873 37.8C552.823 36.4 553.298 34.525 553.298 32.175C553.298 30.125 552.948 28.425 552.248 27.075C551.548 25.725 550.673 24.6 549.623 23.7C548.623 22.75 547.648 21.975 546.698 21.375C546.498 21.225 546.273 21.025 546.023 20.775C545.823 20.475 545.723 20.075 545.723 19.575C545.723 18.725 545.998 17.825 546.548 16.875C547.148 15.875 547.873 15.025 548.723 14.325C549.573 13.575 550.448 13.2 551.348 13.2C552.798 13.2 554.148 13.875 555.398 15.225C556.648 16.525 557.648 18.3 558.398 20.55C559.198 22.75 559.598 25.225 559.598 27.975C559.598 31.025 559.048 33.85 557.948 36.45C556.898 39 555.448 41.2 553.598 43.05C551.748 44.9 549.673 46.35 547.373 47.4C545.073 48.4 542.673 48.9 540.173 48.9ZM572.139 51.75C569.339 51.75 567.289 50.95 565.989 49.35C564.739 47.8 564.114 45.975 564.114 43.875C564.114 41.875 564.614 39.875 565.614 37.875C566.614 35.825 568.014 34.125 569.814 32.775C571.614 31.375 573.664 30.675 575.964 30.675C578.064 30.675 579.764 31.325 581.064 32.625C582.414 33.925 583.089 35.975 583.089 38.775C583.089 40.125 582.914 41.5 582.564 42.9C583.864 42.05 585.014 41.05 586.014 39.9C587.014 38.75 587.914 37.65 588.714 36.6C589.014 36.2 589.339 35.85 589.689 35.55C590.039 35.2 590.464 35.025 590.964 35.025C591.664 35.025 592.139 35.425 592.389 36.225C592.989 38.075 593.939 39.475 595.239 40.425C596.589 41.325 597.964 41.775 599.364 41.775C601.414 41.775 602.964 41 604.014 39.45C605.114 37.9 605.664 36.15 605.664 34.2C605.664 32.2 605.064 30.2 603.864 28.2C602.714 26.2 601.014 24.525 598.764 23.175C596.564 21.825 593.864 21.15 590.664 21.15C588.314 21.15 586.114 21.475 584.064 22.125C582.014 22.775 580.264 23.425 578.814 24.075C577.414 24.725 576.414 25.05 575.814 25.05C575.164 25.05 574.564 24.7 574.014 24C573.464 23.25 573.164 22.425 573.114 21.525C573.114 20.275 573.464 18.825 574.164 17.175C574.914 15.525 575.914 14 577.164 12.6C579.814 9.55 582.489 7.15 585.189 5.4C587.889 3.6 590.439 2.325 592.839 1.575C595.239 0.774997 597.239 0.374996 598.839 0.374996C600.889 0.374996 602.314 0.749997 603.114 1.5C603.964 2.25 604.389 3.125 604.389 4.125C604.389 5.025 604.089 5.925 603.489 6.825C602.889 7.725 602.139 8.5 601.239 9.15C600.389 9.75 599.539 10.05 598.689 10.05C598.339 10.05 598.014 9.875 597.714 9.525C597.414 9.175 597.039 8.85 596.589 8.55C595.639 7.9 594.339 7.575 592.689 7.575C590.789 7.575 588.939 8.025 587.139 8.925C585.339 9.825 583.664 11 582.114 12.45C580.614 13.9 579.289 15.5 578.139 17.25C581.089 15.95 583.914 15 586.614 14.4C589.314 13.75 591.839 13.425 594.189 13.425C597.389 13.425 600.089 13.925 602.289 14.925C604.489 15.925 606.239 17.25 607.539 18.9C608.889 20.5 609.839 22.3 610.389 24.3C610.989 26.25 611.289 28.225 611.289 30.225C611.289 33.825 610.514 37.05 608.964 39.9C607.464 42.7 605.489 44.925 603.039 46.575C600.639 48.175 598.089 48.975 595.389 48.975C593.689 48.975 592.164 48.6 590.814 47.85C589.514 47.1 588.489 45.875 587.739 44.175C586.439 45.425 584.939 46.625 583.239 47.775C581.539 48.925 579.739 49.875 577.839 50.625C575.989 51.375 574.089 51.75 572.139 51.75ZM575.889 45C577.189 45 578.339 44.825 579.339 44.475C579.339 42.375 578.714 40.725 577.464 39.525C576.264 38.275 574.789 37.65 573.039 37.65C571.889 37.65 571.014 37.95 570.414 38.55C569.814 39.1 569.514 39.775 569.514 40.575C569.514 41.525 570.014 42.5 571.014 43.5C572.014 44.5 573.639 45 575.889 45ZM623.14 48.675C621.74 48.675 620.59 48.225 619.69 47.325C618.84 46.425 618.415 45.275 618.415 43.875C618.415 42.425 618.89 41.225 619.84 40.275C620.79 39.325 622.015 38.85 623.515 38.85C624.915 38.85 626.04 39.275 626.89 40.125C627.74 40.975 628.165 42.1 628.165 43.5C628.165 45 627.69 46.25 626.74 47.25C625.79 48.2 624.59 48.675 623.14 48.675Z" fill="black"/>
</svg>
