<svg width="1853" height="60" viewBox="0 0 1853 60" fill="none" xmlns="http://www.w3.org/2000/svg">
<path d="M36.45 39.975C36.35 48.375 32.1 52.95 23.7 53.7C22.1 53.7 20.775 53.4 19.725 52.8C18.675 52.15 17.775 51.45 17.025 50.7C16.325 49.95 15.7 49.275 15.15 48.675C14.65 48.025 14.15 47.7 13.65 47.7C13.15 47.7 12.675 48.025 12.225 48.675C11.775 49.275 11.25 49.95 10.65 50.7C10.05 51.4 9.35 52.075 8.55 52.725C7.75 53.325 6.775 53.625 5.625 53.625C4.075 53.625 2.875 53.275 2.025 52.575C1.175 51.825 0.75 50.8 0.75 49.5V35.475H8.7V47.325C8.7 47.575 8.7 47.8 8.7 48C8.7 48.2 8.8 48.3 9 48.3C9.3 48.3 9.6 47.925 9.9 47.175C10.25 46.375 10.675 45.525 11.175 44.625C11.725 43.725 12.375 42.9 13.125 42.15C13.875 41.35 14.85 40.95 16.05 40.95C17.3 40.95 18.35 41.4 19.2 42.3C20.1 43.2 20.95 44.2 21.75 45.3C22.55 46.4 23.35 47.4 24.15 48.3C25 49.2 26 49.65 27.15 49.65C27.9 49.65 28.55 49.45 29.1 49.05C29.65 48.6 30.1 48.05 30.45 47.4C30.8 46.7 31.05 45.95 31.2 45.15C31.35 44.3 31.425 43.5 31.425 42.75C31.425 38.85 30.025 34.925 27.225 30.975C24.425 27.025 20.275 22.975 14.775 18.825L20.925 14.55C30.875 22.15 36.05 30.625 36.45 39.975ZM82.5129 39.525C82.5129 40.825 82.3879 41.95 82.1379 42.9C81.8879 43.8 81.5629 44.65 81.1629 45.45C80.3129 47.05 79.3129 48.375 78.1629 49.425C77.0129 50.425 75.6379 51.25 74.0379 51.9C72.4379 52.55 70.5379 53 68.3379 53.25C66.1379 53.5 63.5379 53.625 60.5379 53.625C58.1879 53.625 56.0129 53.325 54.0129 52.725C52.0129 52.075 50.2629 51.15 48.7629 49.95C47.2629 48.7 46.0879 47.175 45.2379 45.375C44.3879 43.525 43.9629 41.425 43.9629 39.075V14.625H63.7629V22.65C63.7629 24.65 63.4129 26.325 62.7129 27.675C62.0629 28.975 61.1629 30.075 60.0129 30.975C58.8629 31.875 57.5379 32.625 56.0379 33.225C54.5879 33.825 53.0629 34.35 51.4629 34.8V37.05C51.4629 39.15 51.6879 41.05 52.1379 42.75C52.6379 44.4 53.4629 45.8 54.6129 46.95C55.8129 48.1 57.4129 48.975 59.4129 49.575C61.4129 50.175 63.9629 50.475 67.0629 50.475C68.0129 50.475 69.0379 50.35 70.1379 50.1C71.2379 49.85 72.2629 49.4 73.2129 48.75C74.1629 48.1 74.9379 47.25 75.5379 46.2C76.1879 45.15 76.5129 43.825 76.5129 42.225C76.5129 41.425 76.4129 40.65 76.2129 39.9C76.0129 39.1 75.7629 38.35 75.4629 37.65C74.7129 35.95 73.8879 34.35 72.9879 32.85C72.0879 31.35 71.2629 29.75 70.5129 28.05C69.7629 26.35 69.1129 24.45 68.5629 22.35C68.0629 20.2 67.8129 17.625 67.8129 14.625H75.6129C75.6129 17.875 75.8879 20.5 76.4379 22.5C77.0379 24.5 77.7129 26.3 78.4629 27.9C79.2629 29.45 80.0379 31 80.7879 32.55C81.5879 34.1 82.1629 36.05 82.5129 38.4V39.525ZM56.4879 24.075C56.4879 23.475 56.4379 22.875 56.3379 22.275C56.2879 21.625 56.1629 21.05 55.9629 20.55C55.7629 20 55.4879 19.55 55.1379 19.2C54.7879 18.8 54.3129 18.55 53.7129 18.45H51.6129V31.125C52.9129 30.625 54.0379 29.9 54.9879 28.95C55.9879 27.95 56.4879 26.325 56.4879 24.075ZM95.277 2.925V14.625H99.027C100.477 14.625 101.827 14.775 103.077 15.075C104.377 15.325 105.477 15.775 106.377 16.425C107.327 17.075 108.077 17.95 108.627 19.05C109.177 20.15 109.452 21.525 109.452 23.175V33.9L95.427 33.975C93.327 33.975 91.677 33.9 90.477 33.75C89.277 33.6 88.377 33.325 87.777 32.925C87.227 32.525 86.877 31.95 86.727 31.2C86.577 30.45 86.502 29.475 86.502 28.275V21.975H73.827V14.625H86.502V2.925H95.277ZM100.902 21.975H95.277V27.6C95.277 28.4 95.477 29.025 95.877 29.475C96.277 29.875 96.977 30.075 97.977 30.075C99.027 30.075 99.777 29.6 100.227 28.65C100.677 27.7 100.902 26.275 100.902 24.375V21.975ZM154.803 39.525C154.803 40.825 154.678 41.95 154.428 42.9C154.178 43.8 153.853 44.65 153.453 45.45C152.603 47.05 151.603 48.375 150.453 49.425C149.303 50.425 147.928 51.25 146.328 51.9C144.728 52.55 142.828 53 140.628 53.25C138.428 53.5 135.828 53.625 132.828 53.625C130.478 53.625 128.303 53.325 126.303 52.725C124.303 52.075 122.553 51.15 121.053 49.95C119.553 48.7 118.378 47.175 117.528 45.375C116.678 43.525 116.253 41.425 116.253 39.075V14.625H136.053V22.65C136.053 24.65 135.703 26.325 135.003 27.675C134.353 28.975 133.453 30.075 132.303 30.975C131.153 31.875 129.828 32.625 128.328 33.225C126.878 33.825 125.353 34.35 123.753 34.8V37.05C123.753 39.15 123.978 41.05 124.428 42.75C124.928 44.4 125.753 45.8 126.903 46.95C128.103 48.1 129.703 48.975 131.703 49.575C133.703 50.175 136.253 50.475 139.353 50.475C140.303 50.475 141.328 50.35 142.428 50.1C143.528 49.85 144.553 49.4 145.503 48.75C146.453 48.1 147.228 47.25 147.828 46.2C148.478 45.15 148.803 43.825 148.803 42.225C148.803 41.425 148.703 40.65 148.503 39.9C148.303 39.1 148.053 38.35 147.753 37.65C147.003 35.95 146.178 34.35 145.278 32.85C144.378 31.35 143.553 29.75 142.803 28.05C142.053 26.35 141.403 24.45 140.853 22.35C140.353 20.2 140.103 17.625 140.103 14.625H147.903C147.903 17.875 148.178 20.5 148.728 22.5C149.328 24.5 150.003 26.3 150.753 27.9C151.553 29.45 152.328 31 153.078 32.55C153.878 34.1 154.453 36.05 154.803 38.4V39.525ZM128.778 24.075C128.778 23.475 128.728 22.875 128.628 22.275C128.578 21.625 128.453 21.05 128.253 20.55C128.053 20 127.778 19.55 127.428 19.2C127.078 18.8 126.603 18.55 126.003 18.45H123.903V31.125C125.203 30.625 126.328 29.9 127.278 28.95C128.278 27.95 128.778 26.325 128.778 24.075ZM189.842 37.275C189.842 39.775 189.517 42.025 188.867 44.025C188.217 46.025 187.317 47.75 186.167 49.2C185.067 50.6 183.767 51.7 182.267 52.5C180.817 53.25 179.242 53.625 177.542 53.625C176.592 53.625 175.617 53.5 174.617 53.25C173.617 53 172.717 52.55 171.917 51.9C171.117 51.25 170.442 50.4 169.892 49.35C169.392 48.25 169.142 46.9 169.142 45.3V29.25L181.067 29.175C180.367 27.375 179.567 25.85 178.667 24.6C177.767 23.3 176.992 22.425 176.342 21.975H145.517V14.625H181.367C184.667 18.875 186.892 22.95 188.042 26.85C189.242 30.75 189.842 34.225 189.842 37.275ZM183.617 40.275C183.617 38.375 183.467 36.95 183.167 36C182.867 35 182.617 34.175 182.417 33.525H176.342V45.6C176.342 46.8 176.567 47.875 177.017 48.825C177.517 49.775 178.242 50.25 179.192 50.25C180.392 50.25 181.417 49.325 182.267 47.475C183.167 45.575 183.617 43.175 183.617 40.275ZM234.439 38.175C234.439 40.675 233.989 42.875 233.089 44.775C232.189 46.675 231.089 48.275 229.789 49.575C228.539 50.875 227.214 51.875 225.814 52.575C224.414 53.225 223.189 53.55 222.139 53.55C220.339 53.55 218.889 53.225 217.789 52.575C216.739 51.875 215.864 51.125 215.164 50.325C214.514 49.475 213.939 48.7 213.439 48C212.989 47.3 212.514 46.95 212.014 46.95C211.414 46.95 210.814 47.3 210.214 48C209.614 48.65 208.964 49.375 208.264 50.175C207.564 50.975 206.764 51.725 205.864 52.425C205.014 53.075 203.989 53.4 202.789 53.4C201.539 53.4 200.439 52.95 199.489 52.05C198.589 51.15 198.139 49.875 198.139 48.225L198.064 14.625H227.164V2.925H234.439V21.975H226.039C227.089 23.075 228.114 24.275 229.114 25.575C230.114 26.875 231.014 28.225 231.814 29.625C232.614 30.975 233.239 32.4 233.689 33.9C234.189 35.35 234.439 36.775 234.439 38.175ZM228.289 43.725C228.289 41.275 227.814 38.95 226.864 36.75C225.914 34.55 224.764 32.525 223.414 30.675C222.064 28.775 220.639 27.1 219.139 25.65C217.639 24.2 216.339 22.975 215.239 21.975H205.564V46.125C205.564 46.525 205.564 46.85 205.564 47.1C205.614 47.35 205.789 47.475 206.089 47.475C206.689 47.475 207.214 47 207.664 46.05C208.114 45.1 208.589 44.075 209.089 42.975C209.639 41.825 210.264 40.775 210.964 39.825C211.714 38.875 212.664 38.4 213.814 38.4C214.714 38.4 215.464 38.675 216.064 39.225C216.664 39.775 217.214 40.45 217.714 41.25C218.214 42.05 218.664 42.925 219.064 43.875C219.514 44.825 219.989 45.7 220.489 46.5C220.989 47.3 221.564 47.975 222.214 48.525C222.914 49.075 223.739 49.35 224.689 49.35C225.789 49.35 226.664 48.775 227.314 47.625C227.964 46.475 228.289 45.175 228.289 43.725ZM274.412 38.7C274.412 40.65 274.087 42.525 273.437 44.325C272.787 46.125 271.787 47.725 270.437 49.125C269.087 50.475 267.337 51.575 265.187 52.425C263.087 53.225 260.587 53.625 257.687 53.625C252.737 53.625 248.862 52.525 246.062 50.325C243.312 48.075 241.937 44.425 241.937 39.375V14.625H267.137V2.925H274.412V21.975H266.162C267.212 23.075 268.237 24.3 269.237 25.65C270.237 27 271.112 28.425 271.862 29.925C272.662 31.375 273.287 32.85 273.737 34.35C274.187 35.85 274.412 37.3 274.412 38.7ZM267.887 41.7C267.887 40.05 267.537 38.35 266.837 36.6C266.187 34.85 265.337 33.125 264.287 31.425C263.287 29.675 262.137 28 260.837 26.4C259.587 24.8 258.362 23.325 257.162 21.975H249.737V40.875C249.737 44.025 250.437 46.4 251.837 48C253.287 49.55 255.362 50.325 258.062 50.325C259.262 50.325 260.437 50.2 261.587 49.95C262.737 49.65 263.787 49.175 264.737 48.525C265.687 47.875 266.437 47 266.987 45.9C267.587 44.75 267.887 43.35 267.887 41.7ZM326.627 37.5C326.627 39.95 326.302 42.175 325.652 44.175C325.002 46.125 324.102 47.8 322.952 49.2C321.852 50.6 320.552 51.7 319.052 52.5C317.602 53.25 316.027 53.625 314.327 53.625C313.377 53.625 312.402 53.5 311.402 53.25C310.402 53 309.502 52.55 308.702 51.9C307.902 51.25 307.227 50.425 306.677 49.425C306.177 48.375 305.927 47.05 305.927 45.45V29.475L317.852 29.55C317.152 27.75 316.352 26.15 315.452 24.75C314.552 23.35 313.777 22.425 313.127 21.975H292.502C293.002 22.625 293.652 23.7 294.452 25.2C295.252 26.65 296.027 28.3 296.777 30.15C297.527 31.95 298.152 33.8 298.652 35.7C299.202 37.6 299.477 39.325 299.477 40.875C299.577 49.275 294.352 53.475 283.802 53.475C278.252 53.125 274.002 50.65 271.052 46.05V35.925C274.802 43.875 279.852 48.525 286.202 49.875C290.702 49.875 293.402 48.175 294.302 44.775C294.302 43.275 293.952 41.4 293.252 39.15C292.552 36.85 291.702 34.575 290.702 32.325C289.752 30.025 288.727 27.925 287.627 26.025C286.577 24.125 285.677 22.775 284.927 21.975V14.625H318.152C319.802 16.725 321.177 18.825 322.277 20.925C323.377 22.975 324.227 25 324.827 27C325.477 28.95 325.927 30.825 326.177 32.625C326.477 34.375 326.627 36 326.627 37.5ZM320.402 40.425C320.402 38.575 320.252 37.175 319.952 36.225C319.652 35.275 319.402 34.475 319.202 33.825H313.127V45.675C313.127 46.925 313.352 48 313.802 48.9C314.302 49.8 315.027 50.25 315.977 50.25C317.177 50.25 318.202 49.35 319.052 47.55C319.952 45.7 320.402 43.325 320.402 40.425ZM407.024 53.475C407.124 52.525 407.199 51.625 407.249 50.775C407.349 49.875 407.399 49 407.399 48.15C407.399 43.5 406.424 39.975 404.474 37.575C404.124 47.825 399.699 53.175 391.199 53.625C386.849 53.625 383.499 52.925 381.149 51.525C378.849 50.075 377.524 47.775 377.174 44.625V36.225C377.174 34.625 377.474 33.425 378.074 32.625C378.674 31.825 379.674 31.425 381.074 31.425H397.874C397.424 29.825 396.849 28.325 396.149 26.925C395.499 25.525 394.824 24.275 394.124 23.175C393.474 22.075 392.849 21.15 392.249 20.4C391.699 19.65 391.324 19.075 391.124 18.675H388.274V25.2H381.299V21C381.299 20.3 381.149 19.7 380.849 19.2C380.599 18.65 380.274 18.375 379.874 18.375H376.874V28.2H369.524V14.625H380.249C381.349 14.625 382.174 14.775 382.724 15.075C383.324 15.375 383.899 15.925 384.449 16.725C384.799 16.075 385.274 15.575 385.874 15.225C386.474 14.825 387.399 14.625 388.649 14.625H396.899L400.574 21C401.374 22.5 402.099 24.15 402.749 25.95C403.449 27.75 403.949 29.65 404.249 31.65C411.349 32.7 414.899 39.125 414.899 50.925C414.899 51.325 414.874 51.75 414.824 52.2C414.824 52.65 414.824 53.075 414.824 53.475H407.024ZM398.624 35.625H384.674V40.425C384.674 46.825 386.874 50.175 391.274 50.475C393.874 50.275 395.749 49.1 396.899 46.95C398.049 44.8 398.624 41.625 398.624 37.425V35.625ZM455.613 38.7C455.613 40.65 455.288 42.525 454.638 44.325C453.988 46.125 452.988 47.725 451.638 49.125C450.288 50.475 448.538 51.575 446.388 52.425C444.288 53.225 441.788 53.625 438.888 53.625C433.938 53.625 430.063 52.525 427.263 50.325C424.513 48.075 423.138 44.425 423.138 39.375V14.625H448.338V2.925H455.613V21.975H447.363C448.413 23.075 449.438 24.3 450.438 25.65C451.438 27 452.313 28.425 453.063 29.925C453.863 31.375 454.488 32.85 454.938 34.35C455.388 35.85 455.613 37.3 455.613 38.7ZM449.088 41.7C449.088 40.05 448.738 38.35 448.038 36.6C447.388 34.85 446.538 33.125 445.488 31.425C444.488 29.675 443.338 28 442.038 26.4C440.788 24.8 439.563 23.325 438.363 21.975H430.938V40.875C430.938 44.025 431.638 46.4 433.038 48C434.488 49.55 436.563 50.325 439.263 50.325C440.463 50.325 441.638 50.2 442.788 49.95C443.938 49.65 444.988 49.175 445.938 48.525C446.888 47.875 447.638 47 448.188 45.9C448.788 44.75 449.088 43.35 449.088 41.7ZM477.153 41.25C477.153 43.15 476.803 44.875 476.103 46.425C475.403 47.925 474.503 49.225 473.403 50.325C472.303 51.375 471.028 52.2 469.578 52.8C468.178 53.35 466.778 53.625 465.378 53.625C460.078 53.525 455.703 51.05 452.253 46.2V36.075C455.903 43.775 461.053 48.325 467.703 49.725C469.003 49.725 469.928 49.15 470.478 48C471.078 46.8 471.378 45.5 471.378 44.1C471.378 42.45 471.153 40.975 470.703 39.675C470.253 38.325 469.678 37 468.978 35.7C468.328 34.4 467.603 33.1 466.803 31.8C466.003 30.45 465.253 28.95 464.553 27.3C463.903 25.65 463.353 23.8 462.903 21.75C462.453 19.7 462.228 17.325 462.228 14.625H470.103C470.153 16.625 470.228 18.375 470.328 19.875C470.478 21.325 470.753 22.55 471.153 23.55C471.653 25 472.253 26.35 472.953 27.6C473.653 28.85 474.303 30.15 474.903 31.5C475.553 32.85 476.078 34.3 476.478 35.85C476.928 37.4 477.153 39.2 477.153 41.25ZM555.737 39.975C555.637 48.375 551.387 52.95 542.987 53.7C541.387 53.7 540.062 53.4 539.012 52.8C537.962 52.15 537.062 51.45 536.312 50.7C535.612 49.95 534.987 49.275 534.437 48.675C533.937 48.025 533.437 47.7 532.937 47.7C532.437 47.7 531.962 48.025 531.512 48.675C531.062 49.275 530.537 49.95 529.937 50.7C529.337 51.4 528.637 52.075 527.837 52.725C527.037 53.325 526.062 53.625 524.912 53.625C523.362 53.625 522.162 53.275 521.312 52.575C520.462 51.825 520.037 50.8 520.037 49.5V35.475H527.987V47.325C527.987 47.575 527.987 47.8 527.987 48C527.987 48.2 528.087 48.3 528.287 48.3C528.587 48.3 528.887 47.925 529.187 47.175C529.537 46.375 529.962 45.525 530.462 44.625C531.012 43.725 531.662 42.9 532.412 42.15C533.162 41.35 534.137 40.95 535.337 40.95C536.587 40.95 537.637 41.4 538.487 42.3C539.387 43.2 540.237 44.2 541.037 45.3C541.837 46.4 542.637 47.4 543.437 48.3C544.287 49.2 545.287 49.65 546.437 49.65C547.187 49.65 547.837 49.45 548.387 49.05C548.937 48.6 549.387 48.05 549.737 47.4C550.087 46.7 550.337 45.95 550.487 45.15C550.637 44.3 550.712 43.5 550.712 42.75C550.712 38.85 549.312 34.925 546.512 30.975C543.712 27.025 539.562 22.975 534.062 18.825L540.212 14.55C550.162 22.15 555.337 30.625 555.737 39.975ZM596.25 39.75C596.25 42.4 595.725 44.625 594.675 46.425C593.625 48.175 592.25 49.6 590.55 50.7C588.85 51.75 586.925 52.5 584.775 52.95C582.675 53.4 580.55 53.625 578.4 53.625C577.4 53.625 576.05 53.55 574.35 53.4C572.65 53.25 570.975 52.775 569.325 51.975C567.675 51.125 566.25 49.825 565.05 48.075C563.85 46.275 563.25 43.75 563.25 40.5V19.2C563.3 16.45 564.475 14.925 566.775 14.625H577.875C578.925 14.625 580.025 14.925 581.175 15.525C582.375 16.125 583.525 16.925 584.625 17.925C585.775 18.875 586.825 19.95 587.775 21.15C588.725 22.3 589.55 23.425 590.25 24.525C590.95 25.725 591.65 26.95 592.35 28.2C593.1 29.4 593.75 30.65 594.3 31.95C594.9 33.2 595.375 34.475 595.725 35.775C596.075 37.075 596.25 38.4 596.25 39.75ZM589.575 42.075C589.575 41.225 589.375 40.075 588.975 38.625C588.575 37.125 588 35.525 587.25 33.825C586.55 32.075 585.675 30.325 584.625 28.575C583.575 26.825 582.425 25.225 581.175 23.775C579.925 22.325 578.575 21.15 577.125 20.25C575.725 19.35 574.25 18.9 572.7 18.9H570.825V40.575C570.825 43.875 571.675 46.3 573.375 47.85C575.125 49.35 577.9 50.1 581.7 50.1C582.65 50.1 583.6 49.95 584.55 49.65C585.5 49.35 586.35 48.875 587.1 48.225C587.85 47.575 588.45 46.75 588.9 45.75C589.35 44.75 589.575 43.525 589.575 42.075ZM637.503 40.8C637.503 42.6 637.153 44.3 636.453 45.9C635.753 47.45 634.678 48.8 633.228 49.95C631.828 51.1 630.053 52 627.903 52.65C625.803 53.3 623.353 53.625 620.553 53.625C618.653 53.625 616.703 53.425 614.703 53.025C612.753 52.575 610.978 51.875 609.378 50.925C607.778 49.925 606.478 48.675 605.478 47.175C604.478 45.675 603.978 43.825 603.978 41.625V35.1H612.303V41.175C612.403 44.025 613.228 46.325 614.778 48.075C616.328 49.775 618.453 50.625 621.153 50.625C622.103 50.625 623.028 50.5 623.928 50.25C624.878 49.95 625.728 49.5 626.478 48.9C627.228 48.25 627.828 47.45 628.278 46.5C628.778 45.5 629.028 44.3 629.028 42.9C629.028 41.8 628.853 40.725 628.503 39.675C628.153 38.575 627.703 37.575 627.153 36.675C626.653 35.775 626.078 34.975 625.428 34.275C624.828 33.575 624.228 33.025 623.628 32.625H618.678V28.275H623.553C624.403 28.275 625.053 28 625.503 27.45C626.003 26.85 626.253 26.15 626.253 25.35C626.253 24.8 626.153 24.225 625.953 23.625C625.753 22.975 625.528 22.425 625.278 21.975H603.978V14.625H630.228V2.925H637.503V21.975H631.728C632.578 22.575 633.178 23.175 633.528 23.775C633.878 24.375 634.053 25.175 634.053 26.175C634.053 27.175 633.753 28 633.153 28.65C632.553 29.25 631.828 29.6 630.978 29.7C631.828 29.9 632.653 30.35 633.453 31.05C634.253 31.7 634.953 32.55 635.553 33.6C636.153 34.6 636.628 35.725 636.978 36.975C637.328 38.175 637.503 39.45 637.503 40.8ZM672.288 37.275C672.288 39.775 671.963 42.025 671.313 44.025C670.663 46.025 669.763 47.75 668.613 49.2C667.513 50.6 666.213 51.7 664.713 52.5C663.263 53.25 661.688 53.625 659.988 53.625C659.038 53.625 658.063 53.5 657.063 53.25C656.063 53 655.163 52.55 654.363 51.9C653.563 51.25 652.888 50.4 652.338 49.35C651.838 48.25 651.588 46.9 651.588 45.3V29.25L663.513 29.175C662.813 27.375 662.013 25.85 661.113 24.6C660.213 23.3 659.438 22.425 658.788 21.975H627.963V14.625H663.813C667.113 18.875 669.338 22.95 670.488 26.85C671.688 30.75 672.288 34.225 672.288 37.275ZM666.063 40.275C666.063 38.375 665.913 36.95 665.613 36C665.313 35 665.063 34.175 664.863 33.525H658.788V45.6C658.788 46.8 659.013 47.875 659.463 48.825C659.963 49.775 660.688 50.25 661.638 50.25C662.838 50.25 663.863 49.325 664.713 47.475C665.613 45.575 666.063 43.175 666.063 40.275ZM716.886 38.175C716.886 40.675 716.436 42.875 715.536 44.775C714.636 46.675 713.536 48.275 712.236 49.575C710.986 50.875 709.661 51.875 708.261 52.575C706.861 53.225 705.636 53.55 704.586 53.55C702.786 53.55 701.336 53.225 700.236 52.575C699.186 51.875 698.311 51.125 697.611 50.325C696.961 49.475 696.386 48.7 695.886 48C695.436 47.3 694.961 46.95 694.461 46.95C693.861 46.95 693.261 47.3 692.661 48C692.061 48.65 691.411 49.375 690.711 50.175C690.011 50.975 689.211 51.725 688.311 52.425C687.461 53.075 686.436 53.4 685.236 53.4C683.986 53.4 682.886 52.95 681.936 52.05C681.036 51.15 680.586 49.875 680.586 48.225L680.511 14.625H709.611V2.925H716.886V21.975H708.486C709.536 23.075 710.561 24.275 711.561 25.575C712.561 26.875 713.461 28.225 714.261 29.625C715.061 30.975 715.686 32.4 716.136 33.9C716.636 35.35 716.886 36.775 716.886 38.175ZM710.736 43.725C710.736 41.275 710.261 38.95 709.311 36.75C708.361 34.55 707.211 32.525 705.861 30.675C704.511 28.775 703.086 27.1 701.586 25.65C700.086 24.2 698.786 22.975 697.686 21.975H688.011V46.125C688.011 46.525 688.011 46.85 688.011 47.1C688.061 47.35 688.236 47.475 688.536 47.475C689.136 47.475 689.661 47 690.111 46.05C690.561 45.1 691.036 44.075 691.536 42.975C692.086 41.825 692.711 40.775 693.411 39.825C694.161 38.875 695.111 38.4 696.261 38.4C697.161 38.4 697.911 38.675 698.511 39.225C699.111 39.775 699.661 40.45 700.161 41.25C700.661 42.05 701.111 42.925 701.511 43.875C701.961 44.825 702.436 45.7 702.936 46.5C703.436 47.3 704.011 47.975 704.661 48.525C705.361 49.075 706.186 49.35 707.136 49.35C708.236 49.35 709.111 48.775 709.761 47.625C710.411 46.475 710.736 45.175 710.736 43.725ZM756.858 38.7C756.858 40.65 756.533 42.525 755.883 44.325C755.233 46.125 754.233 47.725 752.883 49.125C751.533 50.475 749.783 51.575 747.633 52.425C745.533 53.225 743.033 53.625 740.133 53.625C735.183 53.625 731.308 52.525 728.508 50.325C725.758 48.075 724.383 44.425 724.383 39.375V14.625H749.583V2.925H756.858V21.975H748.608C749.658 23.075 750.683 24.3 751.683 25.65C752.683 27 753.558 28.425 754.308 29.925C755.108 31.375 755.733 32.85 756.183 34.35C756.633 35.85 756.858 37.3 756.858 38.7ZM750.333 41.7C750.333 40.05 749.983 38.35 749.283 36.6C748.633 34.85 747.783 33.125 746.733 31.425C745.733 29.675 744.583 28 743.283 26.4C742.033 24.8 740.808 23.325 739.608 21.975H732.183V40.875C732.183 44.025 732.883 46.4 734.283 48C735.733 49.55 737.808 50.325 740.508 50.325C741.708 50.325 742.883 50.2 744.033 49.95C745.183 49.65 746.233 49.175 747.183 48.525C748.133 47.875 748.883 47 749.433 45.9C750.033 44.75 750.333 43.35 750.333 41.7ZM778.398 41.25C778.398 43.15 778.048 44.875 777.348 46.425C776.648 47.925 775.748 49.225 774.648 50.325C773.548 51.375 772.273 52.2 770.823 52.8C769.423 53.35 768.023 53.625 766.623 53.625C761.323 53.525 756.948 51.05 753.498 46.2V36.075C757.148 43.775 762.298 48.325 768.948 49.725C770.248 49.725 771.173 49.15 771.723 48C772.323 46.8 772.623 45.5 772.623 44.1C772.623 42.45 772.398 40.975 771.948 39.675C771.498 38.325 770.923 37 770.223 35.7C769.573 34.4 768.848 33.1 768.048 31.8C767.248 30.45 766.498 28.95 765.798 27.3C765.148 25.65 764.598 23.8 764.148 21.75C763.698 19.7 763.473 17.325 763.473 14.625H771.348C771.398 16.625 771.473 18.375 771.573 19.875C771.723 21.325 771.998 22.55 772.398 23.55C772.898 25 773.498 26.35 774.198 27.6C774.898 28.85 775.548 30.15 776.148 31.5C776.798 32.85 777.323 34.3 777.723 35.85C778.173 37.4 778.398 39.2 778.398 41.25ZM858.782 53.475C858.882 52.525 858.957 51.625 859.007 50.775C859.107 49.875 859.157 49 859.157 48.15C859.157 43.5 858.182 39.975 856.232 37.575C855.882 47.825 851.457 53.175 842.957 53.625C838.607 53.625 835.257 52.925 832.907 51.525C830.607 50.075 829.282 47.775 828.932 44.625V36.225C828.932 34.625 829.232 33.425 829.832 32.625C830.432 31.825 831.432 31.425 832.832 31.425H849.632C849.182 29.825 848.607 28.325 847.907 26.925C847.257 25.525 846.582 24.275 845.882 23.175C845.232 22.075 844.607 21.15 844.007 20.4C843.457 19.65 843.082 19.075 842.882 18.675H840.032V25.2H833.057V21C833.057 20.3 832.907 19.7 832.607 19.2C832.357 18.65 832.032 18.375 831.632 18.375H828.632V28.2H821.282V14.625H832.007C833.107 14.625 833.932 14.775 834.482 15.075C835.082 15.375 835.657 15.925 836.207 16.725C836.557 16.075 837.032 15.575 837.632 15.225C838.232 14.825 839.157 14.625 840.407 14.625H848.657L852.332 21C853.132 22.5 853.857 24.15 854.507 25.95C855.207 27.75 855.707 29.65 856.007 31.65C863.107 32.7 866.657 39.125 866.657 50.925C866.657 51.325 866.632 51.75 866.582 52.2C866.582 52.65 866.582 53.075 866.582 53.475H858.782ZM850.382 35.625H836.432V40.425C836.432 46.825 838.632 50.175 843.032 50.475C845.632 50.275 847.507 49.1 848.657 46.95C849.807 44.8 850.382 41.625 850.382 37.425V35.625ZM907.371 38.7C907.371 40.65 907.046 42.525 906.396 44.325C905.746 46.125 904.746 47.725 903.396 49.125C902.046 50.475 900.296 51.575 898.146 52.425C896.046 53.225 893.546 53.625 890.646 53.625C885.696 53.625 881.821 52.525 879.021 50.325C876.271 48.075 874.896 44.425 874.896 39.375V14.625H900.096V2.925H907.371V21.975H899.121C900.171 23.075 901.196 24.3 902.196 25.65C903.196 27 904.071 28.425 904.821 29.925C905.621 31.375 906.246 32.85 906.696 34.35C907.146 35.85 907.371 37.3 907.371 38.7ZM900.846 41.7C900.846 40.05 900.496 38.35 899.796 36.6C899.146 34.85 898.296 33.125 897.246 31.425C896.246 29.675 895.096 28 893.796 26.4C892.546 24.8 891.321 23.325 890.121 21.975H882.696V40.875C882.696 44.025 883.396 46.4 884.796 48C886.246 49.55 888.321 50.325 891.021 50.325C892.221 50.325 893.396 50.2 894.546 49.95C895.696 49.65 896.746 49.175 897.696 48.525C898.646 47.875 899.396 47 899.946 45.9C900.546 44.75 900.846 43.35 900.846 41.7ZM928.911 41.25C928.911 43.15 928.561 44.875 927.861 46.425C927.161 47.925 926.261 49.225 925.161 50.325C924.061 51.375 922.786 52.2 921.336 52.8C919.936 53.35 918.536 53.625 917.136 53.625C911.836 53.525 907.461 51.05 904.011 46.2V36.075C907.661 43.775 912.811 48.325 919.461 49.725C920.761 49.725 921.686 49.15 922.236 48C922.836 46.8 923.136 45.5 923.136 44.1C923.136 42.45 922.911 40.975 922.461 39.675C922.011 38.325 921.436 37 920.736 35.7C920.086 34.4 919.361 33.1 918.561 31.8C917.761 30.45 917.011 28.95 916.311 27.3C915.661 25.65 915.111 23.8 914.661 21.75C914.211 19.7 913.986 17.325 913.986 14.625H921.861C921.911 16.625 921.986 18.375 922.086 19.875C922.236 21.325 922.511 22.55 922.911 23.55C923.411 25 924.011 26.35 924.711 27.6C925.411 28.85 926.061 30.15 926.661 31.5C927.311 32.85 927.836 34.3 928.236 35.85C928.686 37.4 928.911 39.2 928.911 41.25ZM1007.49 39.975C1007.39 48.375 1003.14 52.95 994.745 53.7C993.145 53.7 991.82 53.4 990.77 52.8C989.72 52.15 988.82 51.45 988.07 50.7C987.37 49.95 986.745 49.275 986.195 48.675C985.695 48.025 985.195 47.7 984.695 47.7C984.195 47.7 983.72 48.025 983.27 48.675C982.82 49.275 982.295 49.95 981.695 50.7C981.095 51.4 980.395 52.075 979.595 52.725C978.795 53.325 977.82 53.625 976.67 53.625C975.12 53.625 973.92 53.275 973.07 52.575C972.22 51.825 971.795 50.8 971.795 49.5V35.475H979.745V47.325C979.745 47.575 979.745 47.8 979.745 48C979.745 48.2 979.845 48.3 980.045 48.3C980.345 48.3 980.645 47.925 980.945 47.175C981.295 46.375 981.72 45.525 982.22 44.625C982.77 43.725 983.42 42.9 984.17 42.15C984.92 41.35 985.895 40.95 987.095 40.95C988.345 40.95 989.395 41.4 990.245 42.3C991.145 43.2 991.995 44.2 992.795 45.3C993.595 46.4 994.395 47.4 995.195 48.3C996.045 49.2 997.045 49.65 998.195 49.65C998.945 49.65 999.595 49.45 1000.14 49.05C1000.69 48.6 1001.14 48.05 1001.49 47.4C1001.84 46.7 1002.09 45.95 1002.24 45.15C1002.39 44.3 1002.47 43.5 1002.47 42.75C1002.47 38.85 1001.07 34.925 998.27 30.975C995.47 27.025 991.32 22.975 985.82 18.825L991.97 14.55C1001.92 22.15 1007.09 30.625 1007.49 39.975ZM1048.01 39.75C1048.01 42.4 1047.48 44.625 1046.43 46.425C1045.38 48.175 1044.01 49.6 1042.31 50.7C1040.61 51.75 1038.68 52.5 1036.53 52.95C1034.43 53.4 1032.31 53.625 1030.16 53.625C1029.16 53.625 1027.81 53.55 1026.11 53.4C1024.41 53.25 1022.73 52.775 1021.08 51.975C1019.43 51.125 1018.01 49.825 1016.81 48.075C1015.61 46.275 1015.01 43.75 1015.01 40.5V19.2C1015.06 16.45 1016.23 14.925 1018.53 14.625H1029.63C1030.68 14.625 1031.78 14.925 1032.93 15.525C1034.13 16.125 1035.28 16.925 1036.38 17.925C1037.53 18.875 1038.58 19.95 1039.53 21.15C1040.48 22.3 1041.31 23.425 1042.01 24.525C1042.71 25.725 1043.41 26.95 1044.11 28.2C1044.86 29.4 1045.51 30.65 1046.06 31.95C1046.66 33.2 1047.13 34.475 1047.48 35.775C1047.83 37.075 1048.01 38.4 1048.01 39.75ZM1041.33 42.075C1041.33 41.225 1041.13 40.075 1040.73 38.625C1040.33 37.125 1039.76 35.525 1039.01 33.825C1038.31 32.075 1037.43 30.325 1036.38 28.575C1035.33 26.825 1034.18 25.225 1032.93 23.775C1031.68 22.325 1030.33 21.15 1028.88 20.25C1027.48 19.35 1026.01 18.9 1024.46 18.9H1022.58V40.575C1022.58 43.875 1023.43 46.3 1025.13 47.85C1026.88 49.35 1029.66 50.1 1033.46 50.1C1034.41 50.1 1035.36 49.95 1036.31 49.65C1037.26 49.35 1038.11 48.875 1038.86 48.225C1039.61 47.575 1040.21 46.75 1040.66 45.75C1041.11 44.75 1041.33 43.525 1041.33 42.075ZM1091.89 38.175C1091.89 40.675 1091.44 42.875 1090.54 44.775C1089.64 46.675 1088.54 48.275 1087.24 49.575C1085.99 50.875 1084.66 51.875 1083.26 52.575C1081.86 53.225 1080.64 53.55 1079.59 53.55C1077.79 53.55 1076.34 53.225 1075.24 52.575C1074.19 51.875 1073.31 51.125 1072.61 50.325C1071.96 49.475 1071.39 48.7 1070.89 48C1070.44 47.3 1069.96 46.95 1069.46 46.95C1068.86 46.95 1068.26 47.3 1067.66 48C1067.06 48.65 1066.41 49.375 1065.71 50.175C1065.01 50.975 1064.21 51.725 1063.31 52.425C1062.46 53.075 1061.44 53.4 1060.24 53.4C1058.99 53.4 1057.89 52.95 1056.94 52.05C1056.04 51.15 1055.59 49.875 1055.59 48.225L1055.51 14.625H1084.61V2.925H1091.89V21.975H1083.49C1084.54 23.075 1085.56 24.275 1086.56 25.575C1087.56 26.875 1088.46 28.225 1089.26 29.625C1090.06 30.975 1090.69 32.4 1091.14 33.9C1091.64 35.35 1091.89 36.775 1091.89 38.175ZM1085.74 43.725C1085.74 41.275 1085.26 38.95 1084.31 36.75C1083.36 34.55 1082.21 32.525 1080.86 30.675C1079.51 28.775 1078.09 27.1 1076.59 25.65C1075.09 24.2 1073.79 22.975 1072.69 21.975H1063.01V46.125C1063.01 46.525 1063.01 46.85 1063.01 47.1C1063.06 47.35 1063.24 47.475 1063.54 47.475C1064.14 47.475 1064.66 47 1065.11 46.05C1065.56 45.1 1066.04 44.075 1066.54 42.975C1067.09 41.825 1067.71 40.775 1068.41 39.825C1069.16 38.875 1070.11 38.4 1071.26 38.4C1072.16 38.4 1072.91 38.675 1073.51 39.225C1074.11 39.775 1074.66 40.45 1075.16 41.25C1075.66 42.05 1076.11 42.925 1076.51 43.875C1076.96 44.825 1077.44 45.7 1077.94 46.5C1078.44 47.3 1079.01 47.975 1079.66 48.525C1080.36 49.075 1081.19 49.35 1082.14 49.35C1083.24 49.35 1084.11 48.775 1084.76 47.625C1085.41 46.475 1085.74 45.175 1085.74 43.725ZM1095.63 21.975H1082.88V14.625H1087.46V12.225H1079.73C1076.48 12.225 1074.86 10.7 1074.86 7.65V2.175H1091.13C1094.13 2.175 1095.63 3.65 1095.63 6.6V21.975ZM1083.18 9.375C1083.48 9.725 1084.08 9.9 1084.98 9.9H1087.46V5.25H1082.73V7.575C1082.73 8.275 1082.88 8.875 1083.18 9.375ZM1137.51 39.75C1137.51 42.4 1136.98 44.625 1135.93 46.425C1134.88 48.175 1133.51 49.6 1131.81 50.7C1130.11 51.75 1128.18 52.5 1126.03 52.95C1123.93 53.4 1121.81 53.625 1119.66 53.625C1118.66 53.625 1117.31 53.55 1115.61 53.4C1113.91 53.25 1112.23 52.775 1110.58 51.975C1108.93 51.125 1107.51 49.825 1106.31 48.075C1105.11 46.275 1104.51 43.75 1104.51 40.5V19.2C1104.56 16.45 1105.73 14.925 1108.03 14.625H1119.13C1120.18 14.625 1121.28 14.925 1122.43 15.525C1123.63 16.125 1124.78 16.925 1125.88 17.925C1127.03 18.875 1128.08 19.95 1129.03 21.15C1129.98 22.3 1130.81 23.425 1131.51 24.525C1132.21 25.725 1132.91 26.95 1133.61 28.2C1134.36 29.4 1135.01 30.65 1135.56 31.95C1136.16 33.2 1136.63 34.475 1136.98 35.775C1137.33 37.075 1137.51 38.4 1137.51 39.75ZM1130.83 42.075C1130.83 41.225 1130.63 40.075 1130.23 38.625C1129.83 37.125 1129.26 35.525 1128.51 33.825C1127.81 32.075 1126.93 30.325 1125.88 28.575C1124.83 26.825 1123.68 25.225 1122.43 23.775C1121.18 22.325 1119.83 21.15 1118.38 20.25C1116.98 19.35 1115.51 18.9 1113.96 18.9H1112.08V40.575C1112.08 43.875 1112.93 46.3 1114.63 47.85C1116.38 49.35 1119.16 50.1 1122.96 50.1C1123.91 50.1 1124.86 49.95 1125.81 49.65C1126.76 49.35 1127.61 48.875 1128.36 48.225C1129.11 47.575 1129.71 46.75 1130.16 45.75C1130.61 44.75 1130.83 43.525 1130.83 42.075ZM1181.39 38.175C1181.39 40.675 1180.94 42.875 1180.04 44.775C1179.14 46.675 1178.04 48.275 1176.74 49.575C1175.49 50.875 1174.16 51.875 1172.76 52.575C1171.36 53.225 1170.14 53.55 1169.09 53.55C1167.29 53.55 1165.84 53.225 1164.74 52.575C1163.69 51.875 1162.81 51.125 1162.11 50.325C1161.46 49.475 1160.89 48.7 1160.39 48C1159.94 47.3 1159.46 46.95 1158.96 46.95C1158.36 46.95 1157.76 47.3 1157.16 48C1156.56 48.65 1155.91 49.375 1155.21 50.175C1154.51 50.975 1153.71 51.725 1152.81 52.425C1151.96 53.075 1150.94 53.4 1149.74 53.4C1148.49 53.4 1147.39 52.95 1146.44 52.05C1145.54 51.15 1145.09 49.875 1145.09 48.225L1145.01 14.625H1174.11V2.925H1181.39V21.975H1172.99C1174.04 23.075 1175.06 24.275 1176.06 25.575C1177.06 26.875 1177.96 28.225 1178.76 29.625C1179.56 30.975 1180.19 32.4 1180.64 33.9C1181.14 35.35 1181.39 36.775 1181.39 38.175ZM1175.24 43.725C1175.24 41.275 1174.76 38.95 1173.81 36.75C1172.86 34.55 1171.71 32.525 1170.36 30.675C1169.01 28.775 1167.59 27.1 1166.09 25.65C1164.59 24.2 1163.29 22.975 1162.19 21.975H1152.51V46.125C1152.51 46.525 1152.51 46.85 1152.51 47.1C1152.56 47.35 1152.74 47.475 1153.04 47.475C1153.64 47.475 1154.16 47 1154.61 46.05C1155.06 45.1 1155.54 44.075 1156.04 42.975C1156.59 41.825 1157.21 40.775 1157.91 39.825C1158.66 38.875 1159.61 38.4 1160.76 38.4C1161.66 38.4 1162.41 38.675 1163.01 39.225C1163.61 39.775 1164.16 40.45 1164.66 41.25C1165.16 42.05 1165.61 42.925 1166.01 43.875C1166.46 44.825 1166.94 45.7 1167.44 46.5C1167.94 47.3 1168.51 47.975 1169.16 48.525C1169.86 49.075 1170.69 49.35 1171.64 49.35C1172.74 49.35 1173.61 48.775 1174.26 47.625C1174.91 46.475 1175.24 45.175 1175.24 43.725ZM1175.46 19.05V15.525H1184.98C1186.28 15.525 1187.43 14.925 1188.43 13.725H1177.93V3.75C1177.93 1.8 1178.86 0.799998 1180.71 0.749998H1191.21C1194.46 0.749998 1196.16 3.125 1196.31 7.875C1196.26 15.325 1192.21 19.05 1184.16 19.05H1175.46ZM1185.58 10.2C1185.88 10.5 1186.51 10.65 1187.46 10.65H1189.56V10.05C1189.56 9.1 1189.41 8.25 1189.11 7.5C1188.81 6.75 1188.43 6.125 1187.98 5.625C1187.58 5.075 1187.18 4.65 1186.78 4.35C1186.38 4.05 1186.11 3.875 1185.96 3.825H1185.13V8.85C1185.13 9.45 1185.28 9.9 1185.58 10.2ZM1229.21 21.825C1235.26 28.475 1238.28 39.075 1238.28 53.625H1230.48C1230.48 48.825 1230.13 44.55 1229.43 40.8C1228.73 37.05 1227.61 33.85 1226.06 31.2C1224.51 28.55 1222.48 26.45 1219.98 24.9C1217.48 23.3 1214.41 22.275 1210.76 21.825V53.625H1202.58V14.625H1231.08V2.925H1238.36V21.825H1229.21ZM1290.49 37.5C1290.49 39.95 1290.17 42.175 1289.52 44.175C1288.87 46.125 1287.97 47.8 1286.82 49.2C1285.72 50.6 1284.42 51.7 1282.92 52.5C1281.47 53.25 1279.89 53.625 1278.19 53.625C1277.24 53.625 1276.27 53.5 1275.27 53.25C1274.27 53 1273.37 52.55 1272.57 51.9C1271.77 51.25 1271.09 50.425 1270.54 49.425C1270.04 48.375 1269.79 47.05 1269.79 45.45V29.475L1281.72 29.55C1281.02 27.75 1280.22 26.15 1279.32 24.75C1278.42 23.35 1277.64 22.425 1276.99 21.975H1256.37C1256.87 22.625 1257.52 23.7 1258.32 25.2C1259.12 26.65 1259.89 28.3 1260.64 30.15C1261.39 31.95 1262.02 33.8 1262.52 35.7C1263.07 37.6 1263.34 39.325 1263.34 40.875C1263.44 49.275 1258.22 53.475 1247.67 53.475C1242.12 53.125 1237.87 50.65 1234.92 46.05V35.925C1238.67 43.875 1243.72 48.525 1250.07 49.875C1254.57 49.875 1257.27 48.175 1258.17 44.775C1258.17 43.275 1257.82 41.4 1257.12 39.15C1256.42 36.85 1255.57 34.575 1254.57 32.325C1253.62 30.025 1252.59 27.925 1251.49 26.025C1250.44 24.125 1249.54 22.775 1248.79 21.975V14.625H1282.02C1283.67 16.725 1285.04 18.825 1286.14 20.925C1287.24 22.975 1288.09 25 1288.69 27C1289.34 28.95 1289.79 30.825 1290.04 32.625C1290.34 34.375 1290.49 36 1290.49 37.5ZM1284.27 40.425C1284.27 38.575 1284.12 37.175 1283.82 36.225C1283.52 35.275 1283.27 34.475 1283.07 33.825H1276.99V45.675C1276.99 46.925 1277.22 48 1277.67 48.9C1278.17 49.8 1278.89 50.25 1279.84 50.25C1281.04 50.25 1282.07 49.35 1282.92 47.55C1283.82 45.7 1284.27 43.325 1284.27 40.425ZM1368.12 38.475C1368.12 40.775 1367.74 42.875 1366.99 44.775C1366.29 46.625 1365.34 48.2 1364.14 49.5C1362.94 50.8 1361.57 51.825 1360.02 52.575C1358.47 53.275 1356.84 53.625 1355.14 53.625C1353.19 53.625 1351.57 53.025 1350.27 51.825C1349.02 50.625 1347.94 49.15 1347.04 47.4C1346.14 45.6 1345.34 43.7 1344.64 41.7C1343.94 39.7 1343.19 37.9 1342.39 36.3H1340.97V53.625H1333.39V36.525C1333.39 35.175 1333.67 34.2 1334.22 33.6C1334.82 33 1335.72 32.7 1336.92 32.7H1347.12C1347.72 32.7 1348.24 33.1 1348.69 33.9C1349.19 34.7 1349.67 35.725 1350.12 36.975C1350.62 38.175 1351.12 39.475 1351.62 40.875C1352.12 42.275 1352.69 43.6 1353.34 44.85C1353.99 46.05 1354.72 47.05 1355.52 47.85C1356.37 48.65 1357.34 49.05 1358.44 49.05C1359.49 49.05 1360.37 48.575 1361.07 47.625C1361.82 46.675 1362.19 45.35 1362.19 43.65C1362.19 41.15 1361.59 38.725 1360.39 36.375C1359.24 34.025 1357.89 31.875 1356.34 29.925C1354.84 27.975 1353.37 26.3 1351.92 24.9C1350.52 23.5 1349.57 22.525 1349.07 21.975H1333.39V14.625H1360.92V2.925H1368.19V21.975H1359.49C1360.79 23.075 1361.97 24.325 1363.02 25.725C1364.07 27.125 1364.97 28.575 1365.72 30.075C1366.47 31.575 1367.04 33.05 1367.44 34.5C1367.89 35.95 1368.12 37.275 1368.12 38.475ZM1362.23 19.05V15.525H1371.75C1373.05 15.525 1374.2 14.925 1375.2 13.725H1364.7V3.75C1364.7 1.8 1365.63 0.799998 1367.48 0.749998H1377.98C1381.23 0.749998 1382.93 3.125 1383.08 7.875C1383.03 15.325 1378.98 19.05 1370.93 19.05H1362.23ZM1372.35 10.2C1372.65 10.5 1373.28 10.65 1374.23 10.65H1376.33V10.05C1376.33 9.1 1376.18 8.25 1375.88 7.5C1375.58 6.75 1375.2 6.125 1374.75 5.625C1374.35 5.075 1373.95 4.65 1373.55 4.35C1373.15 4.05 1372.88 3.875 1372.73 3.825H1371.9V8.85C1371.9 9.45 1372.05 9.9 1372.35 10.2ZM1410.5 22.35C1410.5 25.1 1409.47 27.55 1407.42 29.7C1405.37 31.85 1402.4 33.425 1398.5 34.425V42.6C1398.5 44.1 1398.7 45.35 1399.1 46.35C1399.55 47.3 1400.1 48.075 1400.75 48.675C1401.4 49.225 1402.12 49.6 1402.92 49.8C1403.72 50 1404.52 50.1 1405.32 50.1C1406.02 50.1 1406.62 50.05 1407.12 49.95C1407.67 49.85 1408.25 49.625 1408.85 49.275V52.95C1408 53.25 1407.22 53.425 1406.52 53.475C1405.87 53.525 1405.05 53.55 1404.05 53.55C1399.7 53.55 1396.27 52.5 1393.77 50.4C1391.32 48.25 1390.1 44.8 1390.1 40.05V14.625H1404.72C1405.57 14.625 1406.35 14.85 1407.05 15.3C1407.75 15.7 1408.35 16.275 1408.85 17.025C1409.4 17.725 1409.8 18.55 1410.05 19.5C1410.35 20.4 1410.5 21.35 1410.5 22.35ZM1403.22 22.95C1403.22 21.7 1403.02 20.6 1402.62 19.65C1402.27 18.7 1401.65 18.05 1400.75 17.7H1398.5V30.9C1400.15 30.4 1401.35 29.525 1402.1 28.275C1402.85 27.025 1403.22 25.25 1403.22 22.95ZM1471.03 27.675H1484V32.1H1479.35C1479.95 32.6 1480.53 33.1 1481.08 33.6C1481.68 34.05 1482.18 34.625 1482.58 35.325C1482.98 35.975 1483.3 36.775 1483.55 37.725C1483.8 38.675 1483.93 39.85 1483.93 41.25C1483.93 43.35 1483.5 45.175 1482.65 46.725C1481.8 48.275 1480.68 49.575 1479.28 50.625C1477.88 51.625 1476.25 52.375 1474.4 52.875C1472.6 53.375 1470.73 53.625 1468.78 53.625C1466.68 53.625 1464.6 53.45 1462.55 53.1C1460.55 52.75 1458.73 52.175 1457.08 51.375C1455.48 50.575 1454.18 49.5 1453.18 48.15C1452.23 46.8 1451.75 45.125 1451.75 43.125V27.675H1464.05V21.975H1451.75V14.625H1476.73V2.925H1484V21.975H1471.03V27.675ZM1476.28 43.8C1476.28 42 1476.08 40.5 1475.68 39.3C1475.33 38.05 1474.83 37 1474.18 36.15C1473.53 35.25 1472.78 34.5 1471.93 33.9C1471.13 33.25 1470.25 32.625 1469.3 32.025H1459.33V42.075C1459.33 44.675 1460.25 46.7 1462.1 48.15C1463.95 49.55 1466.3 50.25 1469.15 50.25C1470.05 50.25 1470.93 50.125 1471.78 49.875C1472.63 49.625 1473.38 49.25 1474.03 48.75C1474.73 48.2 1475.28 47.525 1475.68 46.725C1476.08 45.925 1476.28 44.95 1476.28 43.8ZM1526.25 38.475C1526.25 40.775 1525.87 42.875 1525.12 44.775C1524.42 46.625 1523.47 48.2 1522.27 49.5C1521.07 50.8 1519.7 51.825 1518.15 52.575C1516.6 53.275 1514.97 53.625 1513.27 53.625C1511.32 53.625 1509.7 53.025 1508.4 51.825C1507.15 50.625 1506.07 49.15 1505.17 47.4C1504.27 45.6 1503.47 43.7 1502.77 41.7C1502.07 39.7 1501.32 37.9 1500.52 36.3H1499.1V53.625H1491.52V36.525C1491.52 35.175 1491.8 34.2 1492.35 33.6C1492.95 33 1493.85 32.7 1495.05 32.7H1505.25C1505.85 32.7 1506.37 33.1 1506.82 33.9C1507.32 34.7 1507.8 35.725 1508.25 36.975C1508.75 38.175 1509.25 39.475 1509.75 40.875C1510.25 42.275 1510.82 43.6 1511.47 44.85C1512.12 46.05 1512.85 47.05 1513.65 47.85C1514.5 48.65 1515.47 49.05 1516.57 49.05C1517.62 49.05 1518.5 48.575 1519.2 47.625C1519.95 46.675 1520.32 45.35 1520.32 43.65C1520.32 41.15 1519.72 38.725 1518.52 36.375C1517.37 34.025 1516.02 31.875 1514.47 29.925C1512.97 27.975 1511.5 26.3 1510.05 24.9C1508.65 23.5 1507.7 22.525 1507.2 21.975H1491.52V14.625H1519.05V2.925H1526.32V21.975H1517.62C1518.92 23.075 1520.1 24.325 1521.15 25.725C1522.2 27.125 1523.1 28.575 1523.85 30.075C1524.6 31.575 1525.17 33.05 1525.57 34.5C1526.02 35.95 1526.25 37.275 1526.25 38.475ZM1538.81 2.925V14.625H1542.56C1544.01 14.625 1545.36 14.775 1546.61 15.075C1547.91 15.325 1549.01 15.775 1549.91 16.425C1550.86 17.075 1551.61 17.95 1552.16 19.05C1552.71 20.15 1552.98 21.525 1552.98 23.175V33.9L1538.96 33.975C1536.86 33.975 1535.21 33.9 1534.01 33.75C1532.81 33.6 1531.91 33.325 1531.31 32.925C1530.76 32.525 1530.41 31.95 1530.26 31.2C1530.11 30.45 1530.03 29.475 1530.03 28.275V21.975H1517.36V14.625H1530.03V2.925H1538.81ZM1544.43 21.975H1538.81V27.6C1538.81 28.4 1539.01 29.025 1539.41 29.475C1539.81 29.875 1540.51 30.075 1541.51 30.075C1542.56 30.075 1543.31 29.6 1543.76 28.65C1544.21 27.7 1544.43 26.275 1544.43 24.375V21.975ZM1594.51 38.475C1594.51 40.775 1594.13 42.875 1593.38 44.775C1592.68 46.625 1591.73 48.2 1590.53 49.5C1589.33 50.8 1587.96 51.825 1586.41 52.575C1584.86 53.275 1583.23 53.625 1581.53 53.625C1579.58 53.625 1577.96 53.025 1576.66 51.825C1575.41 50.625 1574.33 49.15 1573.43 47.4C1572.53 45.6 1571.73 43.7 1571.03 41.7C1570.33 39.7 1569.58 37.9 1568.78 36.3H1567.36V53.625H1559.78V36.525C1559.78 35.175 1560.06 34.2 1560.61 33.6C1561.21 33 1562.11 32.7 1563.31 32.7H1573.51C1574.11 32.7 1574.63 33.1 1575.08 33.9C1575.58 34.7 1576.06 35.725 1576.51 36.975C1577.01 38.175 1577.51 39.475 1578.01 40.875C1578.51 42.275 1579.08 43.6 1579.73 44.85C1580.38 46.05 1581.11 47.05 1581.91 47.85C1582.76 48.65 1583.73 49.05 1584.83 49.05C1585.88 49.05 1586.76 48.575 1587.46 47.625C1588.21 46.675 1588.58 45.35 1588.58 43.65C1588.58 41.15 1587.98 38.725 1586.78 36.375C1585.63 34.025 1584.28 31.875 1582.73 29.925C1581.23 27.975 1579.76 26.3 1578.31 24.9C1576.91 23.5 1575.96 22.525 1575.46 21.975H1559.78V14.625H1587.31V2.925H1594.58V21.975H1585.88C1587.18 23.075 1588.36 24.325 1589.41 25.725C1590.46 27.125 1591.36 28.575 1592.11 30.075C1592.86 31.575 1593.43 33.05 1593.83 34.5C1594.28 35.95 1594.51 37.275 1594.51 38.475ZM1629.72 21.975C1630.92 23.375 1632.02 24.825 1633.02 26.325C1634.02 27.825 1634.99 29.35 1635.94 30.9H1638.87V38.325H1637.97C1637.97 40.875 1637.52 43.125 1636.62 45.075C1635.77 46.975 1634.69 48.575 1633.39 49.875C1632.14 51.175 1630.82 52.15 1629.42 52.8C1628.07 53.45 1626.87 53.775 1625.82 53.775C1624.07 53.775 1622.64 53.425 1621.54 52.725C1620.49 52.025 1619.62 51.275 1618.92 50.475C1618.27 49.625 1617.69 48.85 1617.19 48.15C1616.74 47.45 1616.27 47.1 1615.77 47.1C1615.17 47.1 1614.57 47.45 1613.97 48.15C1613.42 48.8 1612.79 49.55 1612.09 50.4C1611.39 51.2 1610.59 51.95 1609.69 52.65C1608.84 53.3 1607.84 53.625 1606.69 53.625C1605.44 53.625 1604.37 53.175 1603.47 52.275C1602.57 51.375 1602.09 50.1 1602.04 48.45V14.625H1630.84V2.925H1638.12V21.975H1629.72ZM1625.52 30.9H1627.24L1627.09 30.75C1625.74 28.85 1624.32 27.175 1622.82 25.725C1621.37 24.225 1620.09 22.975 1618.99 21.975H1609.47V46.35C1609.47 46.75 1609.47 47.1 1609.47 47.4C1609.52 47.65 1609.67 47.775 1609.92 47.775C1610.52 47.775 1611.04 47.3 1611.49 46.35C1611.94 45.35 1612.42 44.275 1612.92 43.125C1613.47 41.975 1614.09 40.925 1614.79 39.975C1615.54 38.975 1616.47 38.475 1617.57 38.475C1618.47 38.475 1619.22 38.75 1619.82 39.3C1620.42 39.85 1620.97 40.55 1621.47 41.4C1621.97 42.2 1622.42 43.075 1622.82 44.025C1623.27 44.975 1623.74 45.875 1624.24 46.725C1624.74 47.525 1625.32 48.2 1625.97 48.75C1626.62 49.3 1627.42 49.575 1628.37 49.575C1629.47 49.575 1630.32 49 1630.92 47.85C1631.57 46.7 1631.89 45.375 1631.89 43.875C1631.89 42.075 1631.62 40.225 1631.07 38.325H1625.52V30.9ZM1674.26 21.975C1675.11 22.575 1676.03 23.475 1677.03 24.675C1678.08 25.825 1679.06 27.175 1679.96 28.725C1680.86 30.225 1681.61 31.85 1682.21 33.6C1682.81 35.35 1683.11 37.075 1683.11 38.775C1683.11 39.825 1683.01 40.775 1682.81 41.625C1682.61 42.425 1682.33 43.175 1681.98 43.875C1681.68 44.525 1681.28 45.175 1680.78 45.825C1680.33 46.425 1679.86 47.05 1679.36 47.7C1678.01 49.4 1676.58 50.8 1675.08 51.9C1673.58 52.95 1671.51 53.475 1668.86 53.475C1667.36 53.475 1666.16 53.1 1665.26 52.35C1664.36 51.6 1663.61 50.775 1663.01 49.875C1662.46 48.975 1661.96 48.15 1661.51 47.4C1661.06 46.65 1660.51 46.275 1659.86 46.275C1659.16 46.275 1658.56 46.675 1658.06 47.475C1657.61 48.225 1657.08 49.05 1656.48 49.95C1655.93 50.85 1655.23 51.7 1654.38 52.5C1653.58 53.25 1652.48 53.625 1651.08 53.625C1649.43 53.625 1648.23 53.2 1647.48 52.35C1646.73 51.5 1646.36 50.1 1646.36 48.15V32.775H1654.53V45.825C1654.53 46.225 1654.53 46.6 1654.53 46.95C1654.58 47.25 1654.73 47.4 1654.98 47.4C1655.28 47.4 1655.58 46.925 1655.88 45.975C1656.23 44.975 1656.66 43.9 1657.16 42.75C1657.66 41.6 1658.28 40.55 1659.03 39.6C1659.78 38.6 1660.76 38.1 1661.96 38.1C1663.21 38.1 1664.23 38.65 1665.03 39.75C1665.83 40.85 1666.58 42.05 1667.28 43.35C1668.03 44.65 1668.78 45.85 1669.53 46.95C1670.33 48.05 1671.33 48.6 1672.53 48.6C1673.83 48.6 1674.93 48.1 1675.83 47.1C1676.73 46.1 1677.18 44.775 1677.18 43.125C1677.18 41.675 1676.88 40.2 1676.28 38.7C1675.73 37.15 1675.01 35.65 1674.11 34.2C1673.21 32.7 1672.21 31.275 1671.11 29.925C1670.01 28.525 1668.91 27.3 1667.81 26.25C1666.76 25.15 1665.76 24.225 1664.81 23.475C1663.91 22.725 1663.21 22.225 1662.71 21.975H1646.36V14.625H1675.91V2.925H1683.18V21.975H1674.26ZM1717.89 37.275C1717.89 39.775 1717.57 42.025 1716.92 44.025C1716.27 46.025 1715.37 47.75 1714.22 49.2C1713.12 50.6 1711.82 51.7 1710.32 52.5C1708.87 53.25 1707.29 53.625 1705.59 53.625C1704.64 53.625 1703.67 53.5 1702.67 53.25C1701.67 53 1700.77 52.55 1699.97 51.9C1699.17 51.25 1698.49 50.4 1697.94 49.35C1697.44 48.25 1697.19 46.9 1697.19 45.3V29.25L1709.12 29.175C1708.42 27.375 1707.62 25.85 1706.72 24.6C1705.82 23.3 1705.04 22.425 1704.39 21.975H1673.57V14.625H1709.42C1712.72 18.875 1714.94 22.95 1716.09 26.85C1717.29 30.75 1717.89 34.225 1717.89 37.275ZM1711.67 40.275C1711.67 38.375 1711.52 36.95 1711.22 36C1710.92 35 1710.67 34.175 1710.47 33.525H1704.39V45.6C1704.39 46.8 1704.62 47.875 1705.07 48.825C1705.57 49.775 1706.29 50.25 1707.24 50.25C1708.44 50.25 1709.47 49.325 1710.32 47.475C1711.22 45.575 1711.67 43.175 1711.67 40.275ZM1752.74 21.825C1758.79 28.475 1761.82 39.075 1761.82 53.625H1754.02C1754.02 48.825 1753.67 44.55 1752.97 40.8C1752.27 37.05 1751.14 33.85 1749.59 31.2C1748.04 28.55 1746.02 26.45 1743.52 24.9C1741.02 23.3 1737.94 22.275 1734.29 21.825V53.625H1726.12V14.625H1754.62V2.925H1761.89V21.825H1752.74ZM1755.9 19.05V15.525H1765.43C1766.73 15.525 1767.88 14.925 1768.88 13.725H1758.38V3.75C1758.38 1.8 1759.3 0.799998 1761.15 0.749998H1771.65C1774.9 0.749998 1776.6 3.125 1776.75 7.875C1776.7 15.325 1772.65 19.05 1764.6 19.05H1755.9ZM1766.03 10.2C1766.33 10.5 1766.95 10.65 1767.9 10.65H1770V10.05C1770 9.1 1769.85 8.25 1769.55 7.5C1769.25 6.75 1768.88 6.125 1768.43 5.625C1768.03 5.075 1767.63 4.65 1767.23 4.35C1766.83 4.05 1766.55 3.875 1766.4 3.825H1765.58V8.85C1765.58 9.45 1765.73 9.9 1766.03 10.2ZM1815.5 38.7C1815.5 40.65 1815.18 42.525 1814.53 44.325C1813.88 46.125 1812.88 47.725 1811.53 49.125C1810.18 50.475 1808.43 51.575 1806.28 52.425C1804.18 53.225 1801.68 53.625 1798.78 53.625C1793.83 53.625 1789.95 52.525 1787.15 50.325C1784.4 48.075 1783.03 44.425 1783.03 39.375V14.625H1808.23V2.925H1815.5V21.975H1807.25C1808.3 23.075 1809.33 24.3 1810.33 25.65C1811.33 27 1812.2 28.425 1812.95 29.925C1813.75 31.375 1814.38 32.85 1814.83 34.35C1815.28 35.85 1815.5 37.3 1815.5 38.7ZM1808.98 41.7C1808.98 40.05 1808.63 38.35 1807.93 36.6C1807.28 34.85 1806.43 33.125 1805.38 31.425C1804.38 29.675 1803.23 28 1801.93 26.4C1800.68 24.8 1799.45 23.325 1798.25 21.975H1790.83V40.875C1790.83 44.025 1791.53 46.4 1792.93 48C1794.38 49.55 1796.45 50.325 1799.15 50.325C1800.35 50.325 1801.53 50.2 1802.68 49.95C1803.83 49.65 1804.88 49.175 1805.83 48.525C1806.78 47.875 1807.53 47 1808.08 45.9C1808.68 44.75 1808.98 43.35 1808.98 41.7ZM1837.04 41.25C1837.04 43.15 1836.69 44.875 1835.99 46.425C1835.29 47.925 1834.39 49.225 1833.29 50.325C1832.19 51.375 1830.92 52.2 1829.47 52.8C1828.07 53.35 1826.67 53.625 1825.27 53.625C1819.97 53.525 1815.59 51.05 1812.14 46.2V36.075C1815.79 43.775 1820.94 48.325 1827.59 49.725C1828.89 49.725 1829.82 49.15 1830.37 48C1830.97 46.8 1831.27 45.5 1831.27 44.1C1831.27 42.45 1831.04 40.975 1830.59 39.675C1830.14 38.325 1829.57 37 1828.87 35.7C1828.22 34.4 1827.49 33.1 1826.69 31.8C1825.89 30.45 1825.14 28.95 1824.44 27.3C1823.79 25.65 1823.24 23.8 1822.79 21.75C1822.34 19.7 1822.12 17.325 1822.12 14.625H1829.99C1830.04 16.625 1830.12 18.375 1830.22 19.875C1830.37 21.325 1830.64 22.55 1831.04 23.55C1831.54 25 1832.14 26.35 1832.84 27.6C1833.54 28.85 1834.19 30.15 1834.79 31.5C1835.44 32.85 1835.97 34.3 1836.37 35.85C1836.82 37.4 1837.04 39.2 1837.04 41.25ZM1852.34 60H1844.09V51.15H1852.34V60Z" fill="black"/>
</svg>
