<svg width="1414" height="69" viewBox="0 0 1414 69" fill="none" xmlns="http://www.w3.org/2000/svg">
<path d="M30 38.25V12H0V8.25H31.875H33.75V38.25V42H21.075H3.3H0V23.25H7.5H11.25V30.75V34.5H3.75V38.25H15V30.75H18.75V38.25H30ZM3.75 27V30.75H7.5V27H3.75ZM67.5 12H60V8.25H86.25V42H75V30.75H82.5V12H71.25V42H37.5V8.25H48.75V19.5H41.25V38.25H67.5V12ZM82.5 34.5H78.75V38.25H82.5V34.5ZM41.25 12V15.75H45V12H41.25ZM75.0146 57V45.75H93.7646V57H90.0146V49.5H86.2646V57H82.5146V49.5H78.7646V57H75.0146ZM138.75 8.25V0.749999H142.5V8.25V11.325V12H135V42H105H101.25V12H93.75V8.25H131.25H135H138.75ZM120 38.25H131.25V12H105V38.25H116.25V30.75H120V38.25ZM187.515 42H153.765V12H146.265V8.25H191.265V0.749999H195.015V12H187.515V38.25H191.265H198.765V8.25H217.44L217.515 42H213.765V12H202.515V42H187.515ZM183.765 38.25V12H157.515V38.25H183.765ZM243.75 8.25H276.75H277.5V30.75H281.25V34.5H277.5V42H275.625H258.75V30.75H273.75V12H262.5V19.5H258.75V12H247.5V15.75H255V27H245.625H243.75V8.25ZM262.5 34.5V38.25H273.75V34.5H262.5ZM281.25 34.5V30.75H285V34.5H281.25ZM247.5 19.5V23.25H251.25V19.5H247.5ZM326.221 42H296.221V12H288.721V8.25H333.721V0.749999H337.471V12H329.971V38.25H341.221V8.25H344.971V42H333.721H326.221ZM299.971 12V38.25H326.221V12H299.971ZM401.191 38.25V12H371.191V8.25H403.066H404.941V38.25V42H392.266H374.491H371.191V23.25H378.691H382.441V30.75V34.5H374.941V38.25H386.191V30.75H389.941V38.25H401.191ZM374.941 27V30.75H378.691V27H374.941ZM442.441 8.25V42H408.691V8.25H442.441ZM438.691 12H412.441V38.25H438.691V12ZM483.691 12H472.441V42H446.191V23.25H457.441V34.5H449.941V38.25H468.691V27H461.191V23.25H468.691V12H446.191V8.25H487.441V42H476.191V30.75H483.691V12ZM449.941 27V30.75H453.691V27H449.941ZM483.691 34.5H479.941V38.25H483.691V34.5ZM536.162 8.25V0.749999H539.912V8.25V11.325V12H532.412V42H502.412H498.662V12H491.162V8.25H528.662H532.412H536.162ZM517.412 38.25H528.662V12H502.412V38.25H513.662V30.75H517.412V38.25ZM581.177 42H551.177V12H543.677V8.25H588.677V0.749999H592.427V12H584.927V38.25H596.177V8.25H599.927V42H588.677H581.177ZM554.927 12V38.25H581.177V12H554.927ZM626.147 8.25H659.147H659.897V30.75H663.647V34.5H659.897V42H658.022H641.147V30.75H656.147V12H644.897V19.5H641.147V12H629.897V15.75H637.397V27H628.022H626.147V8.25ZM644.897 34.5V38.25H656.147V34.5H644.897ZM663.647 34.5V30.75H667.397V34.5H663.647ZM629.897 19.5V23.25H633.647V19.5H629.897ZM708.618 42H678.618V12H671.118V8.25H716.118V0.749999H719.868V12H712.368V38.25H723.618V8.25H727.368V42H716.118H708.618ZM682.368 12V38.25H708.618V12H682.368ZM783.589 38.25V12H753.589V8.25H785.464H787.339V38.25V42H774.664H756.889H753.589V23.25H761.089H764.839V30.75V34.5H757.339V38.25H768.589V30.75H772.339V38.25H783.589ZM757.339 27V30.75H761.089V27H757.339ZM824.839 8.25V42H791.089V8.25H824.839ZM821.089 12H794.839V38.25H821.089V12ZM866.089 8.25V0.749999H877.339V12H869.839V42H836.089V12H828.589V8.25H866.089ZM858.589 12H839.839V38.25H851.089V30.75H854.839V38.25H866.089V12H858.589ZM873.589 4.5H869.839V8.25H873.589V4.5ZM914.854 8.25V42H881.104V8.25H914.854ZM911.104 12H884.854V38.25H911.104V12ZM952.354 42H918.604V8.25H952.354V42ZM937.354 12V19.5H922.354V38.25H933.604V30.75H937.354V38.25H948.604V12H937.354ZM933.604 12H922.354V15.75H933.604V12ZM989.854 40.125V42H986.104V12H967.354V42H963.604V12H956.104V8.25H993.604V0.749999H997.354V12H989.854V38.25H1001.1V8.25H1019.85L1019.93 42H1016.1V12H1004.85V42H989.854V40.125ZM1064.87 12V19.5H1053.62V8.25H1061.94H1064.87H1079.87V12V42H1061.12V27H1049.87V42H1046.12V23.25H1064.87V38.25H1076.12V12H1064.87ZM1061.12 12H1057.37V15.75H1061.12V12ZM1083.62 10.95V8.325H1092.62H1094.87V19.575H1087.37V38.25H1094.87V42H1083.62V10.95ZM1091.12 12.075H1087.37V15.825H1091.12V12.075ZM1128.62 42V19.5H1121.12V15.75H1136.12V12H1121.12V8.25H1151.12V0.749999H1154.87V12H1139.87V15.75H1154.87V19.5H1147.37V42H1128.62ZM1136.12 19.5H1132.37V38.25H1143.62V19.5H1136.12ZM1158.62 42V23.25H1177.37V38.25H1188.62V12H1158.62V8.25H1196.12V0.749999H1199.87V8.25V12H1192.37V42H1188.62H1173.62V27H1162.37V42H1158.62ZM1196.09 53.25V45.75H1199.84V53.25H1207.34V68.25H1203.59V57H1199.84V64.5H1188.59V53.25H1196.09ZM1192.34 57V60.75H1196.09V57H1192.34ZM1252.32 8.25V0.749999H1256.07V8.25V11.325V12H1248.57V42H1218.57H1214.82V12H1207.32V8.25H1244.82H1248.57H1252.32ZM1244.82 23.25V12H1218.57V38.25H1229.82V30.75H1233.57V38.25H1244.82V27H1237.32V23.25H1244.82ZM1301.09 12H1293.59V42H1259.84V23.25H1271.09V34.5H1263.59V38.25H1274.84V30.75H1278.59V38.25H1289.84V12H1259.84V8.25H1293.59H1308.59V42H1297.34V30.75H1304.84V12H1301.09ZM1304.84 34.5H1301.09V38.25H1304.84V34.5ZM1263.59 27V30.75H1267.34V27H1263.59ZM1316.1 19.5V42H1312.35V8.25H1338.6V12V42H1334.85V12H1323.6V19.5H1316.1ZM1316.1 12V15.75H1319.85V12H1316.1ZM1379.88 42H1349.88V12H1342.38V8.25H1387.38V0.749999H1391.13V12H1383.63V38.25H1394.88V8.25H1398.63V42H1387.38H1379.88ZM1353.63 12V38.25H1379.88V12H1353.63ZM1406.12 38.25H1407.54H1409.87H1413.62V45.75H1409.87H1406.12V38.25Z" fill="black"/>
</svg>
