<svg width="1554" height="81" viewBox="0 0 1554 81" fill="none" xmlns="http://www.w3.org/2000/svg">
<path d="M32.5225 54.8775C29.4025 54.8775 26.9975 54.2058 25.3075 52.8625C23.6392 51.4975 22.675 49.58 22.415 47.11H22.22C21.96 49.58 20.9633 51.4975 19.23 52.8625C17.5183 54.2058 15.0158 54.8775 11.7225 54.8775C7.93083 54.8775 5.06 53.8917 3.11 51.92C1.16 49.9483 0.185 47.0342 0.185 43.1775V41.585C0.185 38.0317 0.986667 35.3233 2.59 33.46C4.215 31.5967 6.57667 30.665 9.675 30.665C10.7367 30.665 11.6683 30.7733 12.47 30.99C13.2933 31.185 14.0408 31.4775 14.7125 31.8675L15.0375 37.1325C14.5175 36.8292 13.9217 36.58 13.25 36.385C12.6 36.1683 11.885 36.06 11.105 36.06C9.45833 36.06 8.245 36.5367 7.465 37.49C6.685 38.4217 6.295 39.8517 6.295 41.78V42.9825C6.295 45.0842 6.80417 46.6658 7.8225 47.7275C8.84083 48.7892 10.3683 49.32 12.405 49.32C14.615 49.32 16.2617 48.7242 17.345 47.5325C18.4283 46.3192 19.0242 44.4992 19.1325 42.0725L19.295 38.7575H25.3725L25.535 42.0725C25.6433 44.4992 26.185 46.2975 27.16 47.4675C28.135 48.6375 29.6083 49.2225 31.58 49.2225C33.5733 49.2225 35.0467 48.605 36 47.37C36.9533 46.1133 37.43 44.2067 37.43 41.65V39.18C37.43 34.695 36.5958 31.0442 34.9275 28.2275C33.2808 25.3892 30.735 23.2983 27.29 21.955C23.845 20.6117 19.4358 19.94 14.0625 19.94C13.7375 19.94 13.315 19.94 12.795 19.94C12.275 19.94 11.7117 19.94 11.105 19.94C10.4983 19.94 9.89167 19.94 9.285 19.94L11.1375 14.545C11.6575 14.545 12.1667 14.545 12.665 14.545C13.1633 14.545 13.6292 14.545 14.0625 14.545C14.4958 14.545 14.8533 14.545 15.135 14.545C21.57 14.545 26.9 15.4333 31.125 17.21C35.35 18.965 38.4917 21.6733 40.55 25.335C42.63 28.9967 43.67 33.6658 43.67 39.3425V41.91C43.67 46.2433 42.7275 49.4933 40.8425 51.66C38.9792 53.805 36.2058 54.8775 32.5225 54.8775ZM71.4209 54.9425C64.5743 54.9425 59.3959 53.2958 55.8859 50.0025C52.3976 46.7092 50.6534 41.8342 50.6534 35.3775V32.6475L56.7634 32.5825V35.3775C56.7634 40.0142 57.9876 43.5025 60.4359 45.8425C62.9059 48.1825 66.5676 49.3525 71.4209 49.3525C76.2093 49.3525 79.7626 48.2042 82.0809 45.9075C84.4209 43.6108 85.5909 40.22 85.5909 35.735V31.8675C85.5909 28.1408 84.8543 25.4325 83.3809 23.7425C81.9293 22.0308 79.6868 21.175 76.6534 21.175V20.5575H86.1434V21.37C88.0068 21.8467 89.4151 22.995 90.3684 24.815C91.3434 26.6133 91.8309 29.3217 91.8309 32.94V35.8C91.8309 42.1267 90.1084 46.9042 86.6634 50.1325C83.2401 53.3392 78.1593 54.9425 71.4209 54.9425ZM83.8359 21.175H76.2634V15.9425H83.3809L83.8359 21.175ZM56.7309 32.875L50.6534 33.2V29.2025C50.6534 24.3492 51.6068 20.7633 53.5134 18.445C55.4418 16.105 58.4209 14.935 62.4509 14.935C66.1343 14.935 68.9076 15.9208 70.7709 17.8925C72.6343 19.8642 73.5659 22.7783 73.5659 26.635V27.5775C73.5659 31.1092 72.8293 33.7742 71.3559 35.5725C69.8826 37.3708 67.6943 38.27 64.7909 38.27C62.7326 38.27 61.0534 37.8583 59.7534 37.035C58.4534 36.2117 57.5326 35.085 56.9909 33.655H55.8534L56.0809 28.8125C56.7093 30.1775 57.5868 31.2283 58.7134 31.965C59.8401 32.7017 61.2051 33.07 62.8084 33.07C64.3684 33.07 65.5384 32.6258 66.3184 31.7375C67.0984 30.8275 67.4884 29.4083 67.4884 27.48V26.5375C67.4884 24.4792 67.0768 22.93 66.2534 21.89C65.4301 20.8283 64.1518 20.2975 62.4184 20.2975C60.3384 20.2975 58.8651 20.9692 57.9984 22.3125C57.1534 23.6558 56.7309 25.8008 56.7309 28.7475V32.875ZM120.236 37.62L114.061 37.7825V34.6625C114.061 30.0692 112.967 26.6783 110.778 24.49C108.612 22.28 105.253 21.175 100.703 21.175H81.3659V15.9425H101.386C107.756 15.9425 112.49 17.5025 115.588 20.6225C118.687 23.7208 120.236 28.4117 120.236 34.695V37.62ZM108.893 54.8775C105.188 54.8775 102.415 53.935 100.573 52.05C98.7534 50.165 97.8434 47.3917 97.8434 43.73V42.1375C97.8434 38.6058 98.5801 35.93 100.053 34.11C101.527 32.29 103.78 31.38 106.813 31.38C108.698 31.38 110.226 31.7917 111.396 32.615C112.566 33.4383 113.389 34.5867 113.866 36.06H114.971L114.516 40.6425C113.974 39.3642 113.227 38.3783 112.273 37.685C111.32 36.9917 110.139 36.645 108.731 36.645C107.128 36.645 105.925 37.1 105.123 38.01C104.343 38.8983 103.953 40.3067 103.953 42.235V43.6975C103.953 45.6042 104.354 47.045 105.156 48.02C105.979 48.995 107.247 49.4825 108.958 49.4825C110.843 49.4825 112.165 48.8758 112.923 47.6625C113.703 46.4275 114.093 44.4667 114.093 41.78V37.62L120.236 37.295V41.1625C120.236 45.8425 119.326 49.2983 117.506 51.53C115.708 53.7617 112.837 54.8775 108.893 54.8775ZM116.186 72.1675H111.538L111.441 66.9675C111.419 65.5808 111.137 64.5408 110.596 63.8475C110.032 63.1758 109.187 62.84 108.061 62.84C106.934 62.84 106.089 63.165 105.526 63.815C104.962 64.4867 104.681 65.505 104.681 66.87V67.52C104.681 68.9283 104.854 70.2825 105.201 71.5825C105.526 72.8825 106.024 74.085 106.696 75.19H101.821C101.214 74.2583 100.748 73.1533 100.423 71.875C100.076 70.5967 99.9031 69.1017 99.9031 67.39V66.74C99.9031 64.0317 100.553 61.9842 101.853 60.5975C103.131 59.2325 105.016 58.55 107.508 58.55C109.35 58.55 110.791 58.9292 111.831 59.6875C112.871 60.4458 113.521 61.5183 113.781 62.905H113.943C114.203 61.5183 114.853 60.4458 115.893 59.6875C116.933 58.9292 118.374 58.55 120.216 58.55C122.729 58.55 124.625 59.2325 125.903 60.5975C127.181 61.9842 127.821 64.0317 127.821 66.74V67.39C127.821 69.1017 127.647 70.5967 127.301 71.875C126.976 73.1533 126.51 74.2583 125.903 75.19H121.028C121.7 74.085 122.209 72.8825 122.556 71.5825C122.881 70.2825 123.043 68.9283 123.043 67.52V66.87C123.043 65.505 122.761 64.4867 122.198 63.815C121.635 63.165 120.79 62.84 119.663 62.84C118.536 62.84 117.713 63.1758 117.193 63.8475C116.651 64.5408 116.359 65.5808 116.316 66.9675L116.186 72.1675ZM133.898 36.6125V41.0325C133.898 43.8492 134.386 45.9183 135.361 47.24C136.357 48.5617 137.874 49.2225 139.911 49.2225C141.817 49.2225 143.215 48.6592 144.103 47.5325C145.013 46.3842 145.511 44.6292 145.598 42.2675L145.761 38.79H151.838L152.001 42.2675C152.109 44.6292 152.607 46.3842 153.496 47.5325C154.384 48.6592 155.781 49.2225 157.688 49.2225C159.725 49.2225 161.231 48.5617 162.206 47.24C163.202 45.9183 163.701 43.8492 163.701 41.0325V36.6125C163.701 31.3692 162.531 27.48 160.191 24.945C157.851 22.41 154.232 21.1425 149.336 21.1425V20.3625H161.036V21.37C162.921 21.825 164.524 22.6917 165.846 23.97C167.167 25.2267 168.175 26.9383 168.868 29.105C169.583 31.2717 169.941 33.9367 169.941 37.1V41.4875C169.941 45.9942 168.976 49.3525 167.048 51.5625C165.141 53.7725 162.314 54.8775 158.566 54.8775C155.554 54.8775 153.246 54.2167 151.643 52.895C150.04 51.5733 149.119 49.6992 148.881 47.2725H148.718C148.48 49.6992 147.548 51.5733 145.923 52.895C144.32 54.2167 142.012 54.8775 139.001 54.8775C135.252 54.8775 132.425 53.7833 130.518 51.595C128.611 49.385 127.658 46.0267 127.658 41.52V37.1C127.658 33.9367 128.005 31.2717 128.698 29.105C129.413 26.9167 130.431 25.1942 131.753 23.9375C133.096 22.6592 134.711 21.7925 136.596 21.3375V20.395H148.231L148.263 21.1425C143.366 21.1425 139.748 22.41 137.408 24.945C135.068 27.48 133.898 31.3692 133.898 36.6125ZM160.386 21.1425H127.658V15.9425H160.126L160.386 21.1425ZM162.596 4.1125H167.698C168.5 5.30417 169.117 6.63667 169.551 8.11C169.984 9.56167 170.201 11.1217 170.201 12.79C170.201 18.38 167.644 21.175 162.531 21.175H158.696L158.241 15.9425H160.288C161.761 15.9425 162.823 15.6067 163.473 14.935C164.123 14.2417 164.448 13.115 164.448 11.555C164.448 10.2767 164.275 9.00917 163.928 7.7525C163.581 6.49583 163.137 5.2825 162.596 4.1125ZM208.885 42.3975V39.7H211.68V42.365L208.885 42.3975ZM184.64 20.33H204.628V21.37C207.054 22.02 208.874 23.4175 210.088 25.5625C211.301 27.6858 211.908 30.6325 211.908 34.4025V37.88C211.908 43.5783 210.456 47.8683 207.553 50.75C204.649 53.6317 200.338 55.0725 194.618 55.0725C188.919 55.0725 184.608 53.6317 181.683 50.75C178.779 47.8683 177.328 43.5783 177.328 37.88V34.4025C177.328 30.6325 177.945 27.675 179.18 25.53C180.437 23.385 182.257 21.9875 184.64 21.3375V20.33ZM194.618 49.45C198.323 49.45 201.085 48.4208 202.905 46.3625C204.747 44.3042 205.668 41.26 205.668 37.23V33.395C205.668 29.3217 204.747 26.2667 202.905 24.23C201.085 22.1717 198.323 21.1425 194.618 21.1425C190.913 21.1425 188.139 22.1717 186.298 24.23C184.478 26.2667 183.568 29.3217 183.568 33.395V37.23C183.568 41.26 184.478 44.3042 186.298 46.3625C188.139 48.4208 190.913 49.45 194.618 49.45ZM202.418 21.1425H177.328V15.9425H202.418V21.1425ZM204.66 4.1125H209.763C210.564 5.30417 211.182 6.63667 211.615 8.11C212.049 9.56167 212.265 11.1217 212.265 12.79C212.265 18.38 209.709 21.175 204.595 21.175H200.76L200.305 15.9425H202.353C203.826 15.9425 204.888 15.6067 205.538 14.935C206.188 14.2417 206.513 13.115 206.513 11.555C206.513 10.2767 206.339 9.00917 205.993 7.7525C205.646 6.49583 205.202 5.2825 204.66 4.1125ZM216.88 49.2225C218.549 49.2225 219.794 48.67 220.618 47.565C221.441 46.46 221.853 44.77 221.853 42.495V36.45H228.028V42.8525C228.028 46.7958 227.183 49.7858 225.493 51.8225C223.824 53.8375 221.311 54.845 217.953 54.845C214.941 54.845 212.677 53.9783 211.16 52.245C209.644 50.5117 208.885 47.955 208.885 44.575V41.715H211.68V42.625C211.68 47.0233 213.414 49.2225 216.88 49.2225ZM239.338 14.9025C245.123 14.9025 249.489 16.4408 252.435 19.5175C255.382 22.5942 256.855 27.1767 256.855 33.265V37.425L250.68 37.75V33.2C250.68 28.9967 249.749 25.8225 247.885 23.6775C246.022 21.5325 243.173 20.46 239.338 20.46C235.503 20.46 232.654 21.5217 230.79 23.645C228.949 25.7683 228.028 28.9533 228.028 33.2V36.905H221.853V33.135C221.853 27.09 223.315 22.54 226.24 19.485C229.165 16.43 233.531 14.9025 239.338 14.9025ZM256.855 37.2625V41.13C256.855 45.81 255.945 49.2658 254.125 51.4975C252.327 53.7292 249.456 54.845 245.513 54.845C241.808 54.845 239.034 53.9025 237.193 52.0175C235.373 50.1325 234.463 47.3592 234.463 43.6975V42.105C234.463 38.5733 235.199 35.8975 236.673 34.0775C238.146 32.2575 240.399 31.3475 243.433 31.3475C245.318 31.3475 246.845 31.7592 248.015 32.5825C249.185 33.4058 250.009 34.5542 250.485 36.0275H251.59L251.135 40.61C250.594 39.3317 249.846 38.3458 248.893 37.6525C247.939 36.9592 246.759 36.6125 245.35 36.6125C243.747 36.6125 242.544 37.0675 241.743 37.9775C240.963 38.8658 240.573 40.2742 240.573 42.2025V43.665C240.573 45.5717 240.974 47.0125 241.775 47.9875C242.599 48.9625 243.866 49.45 245.578 49.45C247.463 49.45 248.784 48.8433 249.543 47.63C250.323 46.395 250.713 44.4342 250.713 41.7475V37.5875L256.855 37.2625ZM321.247 59.3625H314.52C314.303 57.3042 313.989 55.3542 313.577 53.5125C313.187 51.6492 312.7 49.8617 312.115 48.15L315.592 43.99C316.437 45.355 317.207 46.85 317.9 48.475C318.593 50.1 319.211 51.8225 319.752 53.6425C320.316 55.4625 320.814 57.3692 321.247 59.3625ZM319.947 31.4125C319.947 34.7925 319.633 37.7608 319.005 40.3175C318.377 42.8742 317.261 45.1167 315.657 47.045L314.065 48.3775C313.003 49.6992 311.66 50.8475 310.035 51.8225C308.41 52.7975 306.568 53.545 304.51 54.065C302.452 54.585 300.209 54.845 297.782 54.845C293.102 54.845 289.549 54.0217 287.122 52.375C284.696 50.7067 283.482 48.1717 283.482 44.77V44.6075C283.482 41.2058 284.663 38.6817 287.025 37.035C289.408 35.3883 292.875 34.565 297.425 34.565C301.542 34.565 304.922 35.2367 307.565 36.58C310.23 37.9017 312.321 39.8192 313.837 42.3325L310.815 45.9725C309.472 43.9792 307.727 42.4625 305.582 41.4225C303.437 40.3608 300.848 39.83 297.815 39.83C295.107 39.83 293.081 40.2308 291.737 41.0325C290.394 41.8125 289.722 42.9933 289.722 44.575V44.7375C289.722 46.2975 290.416 47.4675 291.802 48.2475C293.189 49.0275 295.258 49.4175 298.01 49.4175C300.112 49.4175 302.018 49.1467 303.73 48.605C305.442 48.0417 306.926 47.2833 308.182 46.33C309.439 45.355 310.425 44.2608 311.14 43.0475L311.692 42.0725C312.472 40.5992 313.003 39.0283 313.285 37.36C313.567 35.67 313.707 33.7092 313.707 31.4775V28.0325C313.707 25.5192 313.22 23.645 312.245 22.41C311.27 21.175 309.797 20.5575 307.825 20.5575C305.94 20.5575 304.542 21.1208 303.632 22.2475C302.744 23.3525 302.257 25.0425 302.17 27.3175L302.04 31.055H295.962L295.832 27.3175C295.746 25.0425 295.247 23.3525 294.337 22.2475C293.427 21.1208 292.008 20.5575 290.08 20.5575C288.217 20.5575 286.808 21.0558 285.855 22.0525C284.902 23.0275 284.425 24.5117 284.425 26.505V26.7325C284.425 27.8158 284.512 28.7908 284.685 29.6575C284.858 30.5025 285.053 31.2392 285.27 31.8675H279.387C279.041 31.1525 278.781 30.3292 278.607 29.3975C278.434 28.4442 278.347 27.3283 278.347 26.05V25.7575C278.347 22.1392 279.268 19.4308 281.11 17.6325C282.952 15.8342 285.671 14.935 289.267 14.935C292.279 14.935 294.565 15.5742 296.125 16.8525C297.707 18.1092 298.627 19.8642 298.887 22.1175H299.082C299.364 19.8642 300.285 18.1092 301.845 16.8525C303.405 15.5742 305.647 14.935 308.572 14.935C312.386 14.935 315.235 16.0075 317.12 18.1525C319.005 20.2758 319.947 23.4825 319.947 27.7725V31.4125ZM359.105 41.325V38.27H361.802V41.2925L359.105 41.325ZM334.762 20.33H354.75V21.37C357.177 22.02 358.997 23.4175 360.21 25.5625C361.423 27.6858 362.03 30.6325 362.03 34.4025V37.88C362.03 43.5783 360.578 47.8683 357.675 50.75C354.772 53.6317 350.46 55.0725 344.74 55.0725C339.042 55.0725 334.73 53.6317 331.805 50.75C328.902 47.8683 327.45 43.5783 327.45 37.88V34.4025C327.45 30.6325 328.067 27.675 329.302 25.53C330.559 23.385 332.379 21.9875 334.762 21.3375V20.33ZM344.74 49.45C348.445 49.45 351.207 48.4208 353.027 46.3625C354.869 44.3042 355.79 41.26 355.79 37.23V33.395C355.79 29.3217 354.869 26.2667 353.027 24.23C351.207 22.1717 348.445 21.1425 344.74 21.1425C341.035 21.1425 338.262 22.1717 336.42 24.23C334.6 26.2667 333.69 29.3217 333.69 33.395V37.23C333.69 41.26 334.6 44.3042 336.42 46.3625C338.262 48.4208 341.035 49.45 344.74 49.45ZM352.54 21.1425H327.45V15.9425H352.54V21.1425ZM354.782 4.1125H359.885C360.687 5.30417 361.304 6.63667 361.737 8.11C362.171 9.56167 362.387 11.1217 362.387 12.79C362.387 18.38 359.831 21.175 354.717 21.175H350.882L350.427 15.9425H352.475C353.948 15.9425 355.01 15.6067 355.66 14.935C356.31 14.2417 356.635 13.115 356.635 11.555C356.635 10.2767 356.462 9.00917 356.115 7.7525C355.768 6.49583 355.324 5.2825 354.782 4.1125ZM370.61 15.52C374.813 15.52 377.955 16.8525 380.035 19.5175C382.137 22.1825 383.187 26.2667 383.187 31.77V39.3425C383.187 44.5208 382.147 48.41 380.067 51.01C377.987 53.5883 374.802 54.8775 370.512 54.8775C366.699 54.8775 363.839 53.8808 361.932 51.8875C360.047 49.8942 359.105 47.0775 359.105 43.4375V40.7725H361.802V41.0325C361.802 43.7192 362.42 45.7667 363.655 47.175C364.912 48.5617 366.786 49.255 369.277 49.255C371.942 49.255 373.882 48.4317 375.095 46.785C376.33 45.1383 376.947 42.5925 376.947 39.1475V31.77C376.947 28.0433 376.33 25.3458 375.095 23.6775C373.882 21.9875 372.007 21.1425 369.472 21.1425C369.256 21.1425 369.028 21.1425 368.79 21.1425C368.552 21.1425 368.302 21.1642 368.042 21.2075V15.6825C368.476 15.6392 368.898 15.6067 369.31 15.585C369.743 15.5417 370.177 15.52 370.61 15.52ZM438.074 54.8775C434.954 54.8775 432.549 54.2058 430.859 52.8625C429.191 51.4975 428.227 49.58 427.967 47.11H427.772C427.512 49.58 426.515 51.4975 424.782 52.8625C423.07 54.2058 420.568 54.8775 417.274 54.8775C413.483 54.8775 410.612 53.8917 408.662 51.92C406.712 49.9483 405.737 47.0342 405.737 43.1775V41.585C405.737 38.0317 406.538 35.3233 408.142 33.46C409.767 31.5967 412.128 30.665 415.227 30.665C416.288 30.665 417.22 30.7733 418.022 30.99C418.845 31.185 419.593 31.4775 420.264 31.8675L420.589 37.1325C420.069 36.8292 419.473 36.58 418.802 36.385C418.152 36.1683 417.437 36.06 416.657 36.06C415.01 36.06 413.797 36.5367 413.017 37.49C412.237 38.4217 411.847 39.8517 411.847 41.78V42.9825C411.847 45.0842 412.356 46.6658 413.374 47.7275C414.393 48.7892 415.92 49.32 417.957 49.32C420.167 49.32 421.813 48.7242 422.897 47.5325C423.98 46.3192 424.576 44.4992 424.684 42.0725L424.847 38.7575H430.924L431.087 42.0725C431.195 44.4992 431.737 46.2975 432.712 47.4675C433.687 48.6375 435.16 49.2225 437.132 49.2225C439.125 49.2225 440.598 48.605 441.552 47.37C442.505 46.1133 442.982 44.2067 442.982 41.65V39.18C442.982 34.695 442.148 31.0442 440.479 28.2275C438.833 25.3892 436.287 23.2983 432.842 21.955C429.397 20.6117 424.988 19.94 419.614 19.94C419.289 19.94 418.867 19.94 418.347 19.94C417.827 19.94 417.263 19.94 416.657 19.94C416.05 19.94 415.443 19.94 414.837 19.94L416.689 14.545C417.209 14.545 417.718 14.545 418.217 14.545C418.715 14.545 419.181 14.545 419.614 14.545C420.048 14.545 420.405 14.545 420.687 14.545C427.122 14.545 432.452 15.4333 436.677 17.21C440.902 18.965 444.043 21.6733 446.102 25.335C448.182 28.9967 449.222 33.6658 449.222 39.3425V41.91C449.222 46.2433 448.279 49.4933 446.394 51.66C444.531 53.805 441.758 54.8775 438.074 54.8775ZM456.205 37.9125V33.6225C456.205 28.7042 457.386 25.0208 459.748 22.5725C462.131 20.1242 465.641 18.9 470.278 18.9C474.914 18.9 478.403 20.1242 480.743 22.5725C483.104 25.0208 484.285 28.7042 484.285 33.6225V37.9125C484.285 42.8092 483.104 46.4817 480.743 48.93C478.403 51.3783 474.914 52.6025 470.278 52.6025C465.641 52.6025 462.131 51.3783 459.748 48.93C457.386 46.4817 456.205 42.8092 456.205 37.9125ZM470.278 47.2075C472.899 47.2075 474.871 46.4275 476.193 44.8675C477.514 43.2858 478.175 40.9567 478.175 37.88V33.6225C478.175 30.5025 477.514 28.1625 476.193 26.6025C474.871 25.0425 472.899 24.2625 470.278 24.2625C467.634 24.2625 465.641 25.0425 464.298 26.6025C462.976 28.1625 462.315 30.5025 462.315 33.6225V37.88C462.315 40.9567 462.976 43.2858 464.298 44.8675C465.641 46.4275 467.634 47.2075 470.278 47.2075ZM504.773 49.4175C507.807 49.4175 510.082 48.8758 511.598 47.7925C513.115 46.6875 513.873 45.03 513.873 42.82V42.5275C513.873 40.4475 513.278 38.9633 512.086 38.075C510.894 37.165 509.042 36.6992 506.528 36.6775L496.583 36.58V31.38L505.391 31.2825C507.644 31.2608 509.248 30.8817 510.201 30.145C511.176 29.3867 511.663 28.1842 511.663 26.5375V26.31C511.663 24.555 511.1 23.255 509.973 22.41C508.847 21.565 507.07 21.1425 504.643 21.1425L504.903 20.07L513.288 20.005V21.37C514.848 21.6517 516.008 22.2908 516.766 23.2875C517.524 24.2842 517.903 25.6058 517.903 27.2525V27.48C517.903 29.3 517.448 30.7192 516.538 31.7375C515.65 32.7558 514.307 33.3733 512.508 33.59V33.785C515.043 34.045 516.939 34.9442 518.196 36.4825C519.474 37.9992 520.113 40.1767 520.113 43.015V43.3725C520.113 47.2942 518.878 50.2192 516.408 52.1475C513.938 54.0542 510.179 55.0075 505.131 55.0075C502.964 55.0075 500.938 54.8342 499.053 54.4875C497.19 54.1408 495.489 53.675 493.951 53.09C492.413 52.505 491.048 51.8658 489.856 51.1725L489.498 45.1275C491.622 46.4275 493.94 47.4675 496.453 48.2475C498.988 49.0275 501.762 49.4175 504.773 49.4175ZM510.851 21.1425H490.506V15.9425H510.786L510.851 21.1425ZM517.481 21.175H508.413V15.9425H517.481V21.175ZM548.713 37.62L542.538 37.7825V34.6625C542.538 30.0692 541.444 26.6783 539.256 24.49C537.089 22.28 533.731 21.175 529.181 21.175H509.843V15.9425H529.863C536.233 15.9425 540.968 17.5025 544.066 20.6225C547.164 23.7208 548.713 28.4117 548.713 34.695V37.62ZM537.371 54.8775C533.666 54.8775 530.893 53.935 529.051 52.05C527.231 50.165 526.321 47.3917 526.321 43.73V42.1375C526.321 38.6058 527.058 35.93 528.531 34.11C530.004 32.29 532.258 31.38 535.291 31.38C537.176 31.38 538.703 31.7917 539.873 32.615C541.043 33.4383 541.867 34.5867 542.343 36.06H543.448L542.993 40.6425C542.452 39.3642 541.704 38.3783 540.751 37.685C539.798 36.9917 538.617 36.645 537.208 36.645C535.605 36.645 534.403 37.1 533.601 38.01C532.821 38.8983 532.431 40.3067 532.431 42.235V43.6975C532.431 45.6042 532.832 47.045 533.633 48.02C534.457 48.995 535.724 49.4825 537.436 49.4825C539.321 49.4825 540.643 48.8758 541.401 47.6625C542.181 46.4275 542.571 44.4667 542.571 41.78V37.62L548.713 37.295V41.1625C548.713 45.8425 547.803 49.2983 545.983 51.53C544.185 53.7617 541.314 54.8775 537.371 54.8775ZM562.365 36.6125V41.0325C562.365 43.8492 562.852 45.9183 563.827 47.24C564.824 48.5617 566.341 49.2225 568.377 49.2225C570.284 49.2225 571.682 48.6592 572.57 47.5325C573.48 46.3842 573.978 44.6292 574.065 42.2675L574.227 38.79H580.305L580.467 42.2675C580.576 44.6292 581.074 46.3842 581.962 47.5325C582.851 48.6592 584.248 49.2225 586.155 49.2225C588.192 49.2225 589.697 48.5617 590.672 47.24C591.669 45.9183 592.167 43.8492 592.167 41.0325V36.6125C592.167 31.3692 590.997 27.48 588.657 24.945C586.317 22.41 582.699 21.1425 577.802 21.1425V20.3625H589.502V21.37C591.387 21.825 592.991 22.6917 594.312 23.97C595.634 25.2267 596.642 26.9383 597.335 29.105C598.05 31.2717 598.407 33.9367 598.407 37.1V41.4875C598.407 45.9942 597.443 49.3525 595.515 51.5625C593.608 53.7725 590.781 54.8775 587.032 54.8775C584.021 54.8775 581.713 54.2167 580.11 52.895C578.507 51.5733 577.586 49.6992 577.347 47.2725H577.185C576.947 49.6992 576.015 51.5733 574.39 52.895C572.787 54.2167 570.479 54.8775 567.467 54.8775C563.719 54.8775 560.892 53.7833 558.985 51.595C557.078 49.385 556.125 46.0267 556.125 41.52V37.1C556.125 33.9367 556.472 31.2717 557.165 29.105C557.88 26.9167 558.898 25.1942 560.22 23.9375C561.563 22.6592 563.177 21.7925 565.062 21.3375V20.395H576.697L576.73 21.1425C571.833 21.1425 568.215 22.41 565.875 24.945C563.535 27.48 562.365 31.3692 562.365 36.6125ZM588.852 21.1425H556.125V15.9425H588.592L588.852 21.1425ZM591.062 4.1125H596.165C596.967 5.30417 597.584 6.63667 598.017 8.11C598.451 9.56167 598.667 11.1217 598.667 12.79C598.667 18.38 596.111 21.175 590.997 21.175H587.162L586.707 15.9425H588.755C590.228 15.9425 591.29 15.6067 591.94 14.935C592.59 14.2417 592.915 13.115 592.915 11.555C592.915 10.2767 592.742 9.00917 592.395 7.7525C592.048 6.49583 591.604 5.2825 591.062 4.1125ZM637.45 41.325V38.27H640.147V41.2925L637.45 41.325ZM613.107 20.33H633.095V21.37C635.521 22.02 637.341 23.4175 638.555 25.5625C639.768 27.6858 640.375 30.6325 640.375 34.4025V37.88C640.375 43.5783 638.923 47.8683 636.02 50.75C633.116 53.6317 628.805 55.0725 623.085 55.0725C617.386 55.0725 613.075 53.6317 610.15 50.75C607.246 47.8683 605.795 43.5783 605.795 37.88V34.4025C605.795 30.6325 606.412 27.675 607.647 25.53C608.904 23.385 610.724 21.9875 613.107 21.3375V20.33ZM623.085 49.45C626.79 49.45 629.552 48.4208 631.372 46.3625C633.214 44.3042 634.135 41.26 634.135 37.23V33.395C634.135 29.3217 633.214 26.2667 631.372 24.23C629.552 22.1717 626.79 21.1425 623.085 21.1425C619.38 21.1425 616.606 22.1717 614.765 24.23C612.945 26.2667 612.035 29.3217 612.035 33.395V37.23C612.035 41.26 612.945 44.3042 614.765 46.3625C616.606 48.4208 619.38 49.45 623.085 49.45ZM630.885 21.1425H605.795V15.9425H630.885V21.1425ZM633.127 4.1125H638.23C639.031 5.30417 639.649 6.63667 640.082 8.11C640.515 9.56167 640.732 11.1217 640.732 12.79C640.732 18.38 638.175 21.175 633.062 21.175H629.227L628.772 15.9425H630.82C632.293 15.9425 633.355 15.6067 634.005 14.935C634.655 14.2417 634.98 13.115 634.98 11.555C634.98 10.2767 634.806 9.00917 634.46 7.7525C634.113 6.49583 633.669 5.2825 633.127 4.1125ZM648.955 15.52C653.158 15.52 656.3 16.8525 658.38 19.5175C660.481 22.1825 661.532 26.2667 661.532 31.77V39.3425C661.532 44.5208 660.492 48.41 658.412 51.01C656.332 53.5883 653.147 54.8775 648.857 54.8775C645.044 54.8775 642.184 53.8808 640.277 51.8875C638.392 49.8942 637.45 47.0775 637.45 43.4375V40.7725H640.147V41.0325C640.147 43.7192 640.765 45.7667 642 47.175C643.256 48.5617 645.13 49.255 647.622 49.255C650.287 49.255 652.226 48.4317 653.44 46.785C654.675 45.1383 655.292 42.5925 655.292 39.1475V31.77C655.292 28.0433 654.675 25.3458 653.44 23.6775C652.226 21.9875 650.352 21.1425 647.817 21.1425C647.6 21.1425 647.373 21.1425 647.135 21.1425C646.896 21.1425 646.647 21.1642 646.387 21.2075V15.6825C646.82 15.6392 647.243 15.6067 647.655 15.585C648.088 15.5417 648.521 15.52 648.955 15.52ZM725.974 59.3625H719.246C719.03 57.3042 718.716 55.3542 718.304 53.5125C717.914 51.6492 717.426 49.8617 716.841 48.15L720.319 43.99C721.164 45.355 721.933 46.85 722.626 48.475C723.32 50.1 723.937 51.8225 724.479 53.6425C725.042 55.4625 725.541 57.3692 725.974 59.3625ZM724.674 31.4125C724.674 34.7925 724.36 37.7608 723.731 40.3175C723.103 42.8742 721.987 45.1167 720.384 47.045L718.791 48.3775C717.73 49.6992 716.386 50.8475 714.761 51.8225C713.136 52.7975 711.295 53.545 709.236 54.065C707.178 54.585 704.936 54.845 702.509 54.845C697.829 54.845 694.276 54.0217 691.849 52.375C689.422 50.7067 688.209 48.1717 688.209 44.77V44.6075C688.209 41.2058 689.39 38.6817 691.751 37.035C694.135 35.3883 697.601 34.565 702.151 34.565C706.268 34.565 709.648 35.2367 712.291 36.58C714.956 37.9017 717.047 39.8192 718.564 42.3325L715.541 45.9725C714.198 43.9792 712.454 42.4625 710.309 41.4225C708.164 40.3608 705.575 39.83 702.541 39.83C699.833 39.83 697.807 40.2308 696.464 41.0325C695.121 41.8125 694.449 42.9933 694.449 44.575V44.7375C694.449 46.2975 695.142 47.4675 696.529 48.2475C697.916 49.0275 699.985 49.4175 702.736 49.4175C704.838 49.4175 706.745 49.1467 708.456 48.605C710.168 48.0417 711.652 47.2833 712.909 46.33C714.166 45.355 715.151 44.2608 715.866 43.0475L716.419 42.0725C717.199 40.5992 717.73 39.0283 718.011 37.36C718.293 35.67 718.434 33.7092 718.434 31.4775V28.0325C718.434 25.5192 717.946 23.645 716.971 22.41C715.996 21.175 714.523 20.5575 712.551 20.5575C710.666 20.5575 709.269 21.1208 708.359 22.2475C707.471 23.3525 706.983 25.0425 706.896 27.3175L706.766 31.055H700.689L700.559 27.3175C700.472 25.0425 699.974 23.3525 699.064 22.2475C698.154 21.1208 696.735 20.5575 694.806 20.5575C692.943 20.5575 691.535 21.0558 690.581 22.0525C689.628 23.0275 689.151 24.5117 689.151 26.505V26.7325C689.151 27.8158 689.238 28.7908 689.411 29.6575C689.585 30.5025 689.78 31.2392 689.996 31.8675H684.114C683.767 31.1525 683.507 30.3292 683.334 29.3975C683.161 28.4442 683.074 27.3283 683.074 26.05V25.7575C683.074 22.1392 683.995 19.4308 685.836 17.6325C687.678 15.8342 690.397 14.935 693.994 14.935C697.006 14.935 699.291 15.5742 700.851 16.8525C702.433 18.1092 703.354 19.8642 703.614 22.1175H703.809C704.091 19.8642 705.011 18.1092 706.571 16.8525C708.131 15.5742 710.374 14.935 713.299 14.935C717.112 14.935 719.961 16.0075 721.846 18.1525C723.731 20.2758 724.674 23.4825 724.674 27.7725V31.4125ZM763.831 41.325V38.27H766.529V41.2925L763.831 41.325ZM739.489 20.33H759.476V21.37C761.903 22.02 763.723 23.4175 764.936 25.5625C766.15 27.6858 766.756 30.6325 766.756 34.4025V37.88C766.756 43.5783 765.305 47.8683 762.401 50.75C759.498 53.6317 755.186 55.0725 749.466 55.0725C743.768 55.0725 739.456 53.6317 736.531 50.75C733.628 47.8683 732.176 43.5783 732.176 37.88V34.4025C732.176 30.6325 732.794 27.675 734.029 25.53C735.286 23.385 737.106 21.9875 739.489 21.3375V20.33ZM749.466 49.45C753.171 49.45 755.934 48.4208 757.754 46.3625C759.596 44.3042 760.516 41.26 760.516 37.23V33.395C760.516 29.3217 759.596 26.2667 757.754 24.23C755.934 22.1717 753.171 21.1425 749.466 21.1425C745.761 21.1425 742.988 22.1717 741.146 24.23C739.326 26.2667 738.416 29.3217 738.416 33.395V37.23C738.416 41.26 739.326 44.3042 741.146 46.3625C742.988 48.4208 745.761 49.45 749.466 49.45ZM757.266 21.1425H732.176V15.9425H757.266V21.1425ZM759.509 4.1125H764.611C765.413 5.30417 766.031 6.63667 766.464 8.11C766.897 9.56167 767.114 11.1217 767.114 12.79C767.114 18.38 764.557 21.175 759.444 21.175H755.609L755.154 15.9425H757.201C758.675 15.9425 759.736 15.6067 760.386 14.935C761.036 14.2417 761.361 13.115 761.361 11.555C761.361 10.2767 761.188 9.00917 760.841 7.7525C760.495 6.49583 760.051 5.2825 759.509 4.1125ZM775.336 15.52C779.54 15.52 782.681 16.8525 784.761 19.5175C786.863 22.1825 787.914 26.2667 787.914 31.77V39.3425C787.914 44.5208 786.874 48.41 784.794 51.01C782.714 53.5883 779.529 54.8775 775.239 54.8775C771.426 54.8775 768.566 53.8808 766.659 51.8875C764.774 49.8942 763.831 47.0775 763.831 43.4375V40.7725H766.529V41.0325C766.529 43.7192 767.146 45.7667 768.381 47.175C769.638 48.5617 771.512 49.255 774.004 49.255C776.669 49.255 778.608 48.4317 779.821 46.785C781.056 45.1383 781.674 42.5925 781.674 39.1475V31.77C781.674 28.0433 781.056 25.3458 779.821 23.6775C778.608 21.9875 776.734 21.1425 774.199 21.1425C773.982 21.1425 773.755 21.1425 773.516 21.1425C773.278 21.1425 773.029 21.1642 772.769 21.2075V15.6825C773.202 15.6392 773.625 15.6067 774.036 15.585C774.47 15.5417 774.903 15.52 775.336 15.52ZM842.801 54.8775C839.681 54.8775 837.276 54.2058 835.586 52.8625C833.917 51.4975 832.953 49.58 832.693 47.11H832.498C832.238 49.58 831.242 51.4975 829.508 52.8625C827.797 54.2058 825.294 54.8775 822.001 54.8775C818.209 54.8775 815.338 53.8917 813.388 51.92C811.438 49.9483 810.463 47.0342 810.463 43.1775V41.585C810.463 38.0317 811.265 35.3233 812.868 33.46C814.493 31.5967 816.855 30.665 819.953 30.665C821.015 30.665 821.947 30.7733 822.748 30.99C823.572 31.185 824.319 31.4775 824.991 31.8675L825.316 37.1325C824.796 36.8292 824.2 36.58 823.528 36.385C822.878 36.1683 822.163 36.06 821.383 36.06C819.737 36.06 818.523 36.5367 817.743 37.49C816.963 38.4217 816.573 39.8517 816.573 41.78V42.9825C816.573 45.0842 817.082 46.6658 818.101 47.7275C819.119 48.7892 820.647 49.32 822.683 49.32C824.893 49.32 826.54 48.7242 827.623 47.5325C828.707 46.3192 829.302 44.4992 829.411 42.0725L829.573 38.7575H835.651L835.813 42.0725C835.922 44.4992 836.463 46.2975 837.438 47.4675C838.413 48.6375 839.887 49.2225 841.858 49.2225C843.852 49.2225 845.325 48.605 846.278 47.37C847.232 46.1133 847.708 44.2067 847.708 41.65V39.18C847.708 34.695 846.874 31.0442 845.206 28.2275C843.559 25.3892 841.013 23.2983 837.568 21.955C834.123 20.6117 829.714 19.94 824.341 19.94C824.016 19.94 823.593 19.94 823.073 19.94C822.553 19.94 821.99 19.94 821.383 19.94C820.777 19.94 820.17 19.94 819.563 19.94L821.416 14.545C821.936 14.545 822.445 14.545 822.943 14.545C823.442 14.545 823.907 14.545 824.341 14.545C824.774 14.545 825.132 14.545 825.413 14.545C831.848 14.545 837.178 15.4333 841.403 17.21C845.628 18.965 848.77 21.6733 850.828 25.335C852.908 28.9967 853.948 33.6658 853.948 39.3425V41.91C853.948 46.2433 853.006 49.4933 851.121 51.66C849.257 53.805 846.484 54.8775 842.801 54.8775ZM860.932 37.9125V33.6225C860.932 28.7042 862.113 25.0208 864.474 22.5725C866.858 20.1242 870.368 18.9 875.004 18.9C879.641 18.9 883.129 20.1242 885.469 22.5725C887.831 25.0208 889.012 28.7042 889.012 33.6225V37.9125C889.012 42.8092 887.831 46.4817 885.469 48.93C883.129 51.3783 879.641 52.6025 875.004 52.6025C870.368 52.6025 866.858 51.3783 864.474 48.93C862.113 46.4817 860.932 42.8092 860.932 37.9125ZM875.004 47.2075C877.626 47.2075 879.598 46.4275 880.919 44.8675C882.241 43.2858 882.902 40.9567 882.902 37.88V33.6225C882.902 30.5025 882.241 28.1625 880.919 26.6025C879.598 25.0425 877.626 24.2625 875.004 24.2625C872.361 24.2625 870.368 25.0425 869.024 26.6025C867.703 28.1625 867.042 30.5025 867.042 33.6225V37.88C867.042 40.9567 867.703 43.2858 869.024 44.8675C870.368 46.4275 872.361 47.2075 875.004 47.2075ZM902.345 36.6125V41.0325C902.345 43.8492 902.833 45.9183 903.808 47.24C904.805 48.5617 906.321 49.2225 908.358 49.2225C910.265 49.2225 911.662 48.6592 912.55 47.5325C913.46 46.3842 913.959 44.6292 914.045 42.2675L914.208 38.79H920.285L920.448 42.2675C920.556 44.6292 921.055 46.3842 921.943 47.5325C922.831 48.6592 924.229 49.2225 926.135 49.2225C928.172 49.2225 929.678 48.5617 930.653 47.24C931.65 45.9183 932.148 43.8492 932.148 41.0325V36.6125C932.148 31.3692 930.978 27.48 928.638 24.945C926.298 22.41 922.68 21.1425 917.783 21.1425V20.3625H929.483V21.37C931.368 21.825 932.971 22.6917 934.293 23.97C935.615 25.2267 936.622 26.9383 937.315 29.105C938.03 31.2717 938.388 33.9367 938.388 37.1V41.4875C938.388 45.9942 937.424 49.3525 935.495 51.5625C933.589 53.7725 930.761 54.8775 927.013 54.8775C924.001 54.8775 921.694 54.2167 920.09 52.895C918.487 51.5733 917.566 49.6992 917.328 47.2725H917.165C916.927 49.6992 915.995 51.5733 914.37 52.895C912.767 54.2167 910.46 54.8775 907.448 54.8775C903.7 54.8775 900.872 53.7833 898.965 51.595C897.059 49.385 896.105 46.0267 896.105 41.52V37.1C896.105 33.9367 896.452 31.2717 897.145 29.105C897.86 26.9167 898.879 25.1942 900.2 23.9375C901.544 22.6592 903.158 21.7925 905.043 21.3375V20.395H916.678L916.71 21.1425C911.814 21.1425 908.195 22.41 905.855 24.945C903.515 27.48 902.345 31.3692 902.345 36.6125ZM928.833 21.1425H896.105V15.9425H928.573L928.833 21.1425ZM929.678 21.175H924.803L924.77 15.9425H928.378C930.111 15.9425 931.39 15.4875 932.213 14.5775C933.036 13.6458 933.448 12.1833 933.448 10.19V9.41C933.448 8.00166 933.145 6.94 932.538 6.225C931.953 5.51 931.065 5.1525 929.873 5.1525C928.66 5.1525 927.75 5.4775 927.143 6.1275C926.558 6.75583 926.265 7.70916 926.265 8.9875V9.1825C926.265 9.85416 926.33 10.4933 926.46 11.1C926.59 11.7067 926.764 12.2592 926.98 12.7575H921.585C921.26 12.2592 921.011 11.6417 920.838 10.905C920.665 10.1467 920.578 9.35583 920.578 8.5325V8.3375C920.578 5.6075 921.358 3.53833 922.918 2.13C924.5 0.721663 926.807 0.0174957 929.84 0.0174957C932.917 0.0174957 935.257 0.84083 936.86 2.4875C938.464 4.1125 939.265 6.485 939.265 9.605V10.5475C939.265 14.1442 938.453 16.82 936.828 18.575C935.225 20.3083 932.841 21.175 929.678 21.175ZM945.483 37.9125V33.6225C945.483 28.7042 946.663 25.0208 949.025 22.5725C951.408 20.1242 954.918 18.9 959.555 18.9C964.192 18.9 967.68 20.1242 970.02 22.5725C972.382 25.0208 973.563 28.7042 973.563 33.6225V37.9125C973.563 42.8092 972.382 46.4817 970.02 48.93C967.68 51.3783 964.192 52.6025 959.555 52.6025C954.918 52.6025 951.408 51.3783 949.025 48.93C946.663 46.4817 945.483 42.8092 945.483 37.9125ZM959.555 47.2075C962.177 47.2075 964.148 46.4275 965.47 44.8675C966.792 43.2858 967.453 40.9567 967.453 37.88V33.6225C967.453 30.5025 966.792 28.1625 965.47 26.6025C964.148 25.0425 962.177 24.2625 959.555 24.2625C956.912 24.2625 954.918 25.0425 953.575 26.6025C952.253 28.1625 951.593 30.5025 951.593 33.6225V37.88C951.593 40.9567 952.253 43.2858 953.575 44.8675C954.918 46.4275 956.912 47.2075 959.555 47.2075ZM1001.52 16.0075C1005.42 16.0075 1008.65 16.6033 1011.21 17.795C1013.76 18.965 1015.72 20.7092 1017.09 23.0275L1018.1 22.7025L1022.94 35.8975V41.4875C1022.94 45.9942 1021.97 49.3525 1020.05 51.5625C1018.14 53.7725 1015.31 54.8775 1011.56 54.8775C1008.55 54.8775 1006.24 54.2167 1004.64 52.895C1003.04 51.5733 1002.12 49.6992 1001.88 47.2725H1001.72C1001.48 49.6992 1000.55 51.5733 998.921 52.895C997.318 54.2167 995.01 54.8775 991.999 54.8775C988.25 54.8775 985.423 53.7833 983.516 51.595C981.61 49.385 980.656 46.0267 980.656 41.52V37.1C980.656 33.5467 981.111 30.4808 982.021 27.9025C982.953 25.3242 984.372 23.2442 986.279 21.6625L987.936 20.265C989.583 18.7917 991.555 17.7192 993.851 17.0475C996.148 16.3542 998.705 16.0075 1001.52 16.0075ZM998.759 38.79H1004.84L1005 42.2675C1005.11 44.6292 1005.61 46.3842 1006.49 47.5325C1007.38 48.6592 1008.78 49.2225 1010.69 49.2225C1012.72 49.2225 1014.23 48.5617 1015.2 47.24C1016.2 45.9183 1016.7 43.8492 1016.7 41.0325V36.9375C1016.7 31.7375 1015.46 27.87 1012.99 25.335C1010.55 22.8 1006.81 21.5325 1001.78 21.5325C996.755 21.5325 993.017 22.8108 990.569 25.3675C988.12 27.9025 986.896 31.7808 986.896 37.0025V41.0325C986.896 43.8492 987.384 45.9183 988.359 47.24C989.355 48.5617 990.872 49.2225 992.909 49.2225C994.815 49.2225 996.213 48.6592 997.101 47.5325C998.011 46.3842 998.51 44.6292 998.596 42.2675L998.759 38.79ZM998.336 3.5925C1006.53 3.5925 1012.67 5.81333 1016.76 10.255C1020.88 14.675 1022.94 21.5 1022.94 30.73V36.6775L1017.93 36.515V29.5275C1017.93 25.8658 1017.46 22.7458 1016.5 20.1675C1015.57 17.5675 1014.24 15.455 1012.51 13.83C1010.77 12.205 1008.71 11.0133 1006.33 10.255C1003.97 9.49666 1001.36 9.1175 998.499 9.1175C994.729 9.1175 991.901 9.62666 990.016 10.645C988.131 11.6633 987.189 13.1583 987.189 15.13C987.189 16.17 987.449 17.0475 987.969 17.7625C988.51 18.4775 989.258 18.9975 990.211 19.3225L987.806 23.19C985.51 22.5833 983.765 21.5975 982.574 20.2325C981.404 18.8458 980.819 17.015 980.819 14.74C980.819 11.1217 982.292 8.35916 985.239 6.4525C988.207 4.54583 992.573 3.5925 998.336 3.5925ZM1038.06 20.525H1056.78V21.37C1058.23 21.76 1059.45 22.4642 1060.45 23.4825C1061.47 24.4792 1062.24 25.855 1062.76 27.61C1063.28 29.365 1063.54 31.5533 1063.54 34.175V54H1057.27V33.2C1057.27 29.0183 1056.44 25.9633 1054.8 24.035C1053.15 22.1067 1050.68 21.1425 1047.39 21.1425C1044.09 21.1425 1041.62 22.1067 1039.98 24.035C1038.35 25.9633 1037.54 29.0183 1037.54 33.2V54H1031.27V34.175C1031.27 31.5533 1031.53 29.365 1032.05 27.61C1032.59 25.8333 1033.36 24.4358 1034.35 23.4175C1035.37 22.3992 1036.61 21.7058 1038.06 21.3375V20.525ZM1030.65 15.9425H1055.19L1055.22 21.1425H1030.65V15.9425ZM1057.27 4.1125H1062.37C1063.17 5.30417 1063.79 6.63667 1064.22 8.11C1064.65 9.56167 1064.87 11.1217 1064.87 12.79C1064.87 18.38 1062.31 21.175 1057.2 21.175H1053.37L1052.91 15.9425H1054.96C1056.43 15.9425 1057.49 15.6067 1058.14 14.935C1058.79 14.2417 1059.12 13.115 1059.12 11.555C1059.12 10.2767 1058.94 9.00917 1058.6 7.7525C1058.25 6.49583 1057.81 5.2825 1057.27 4.1125ZM1068.74 49.255C1070.41 49.255 1071.65 48.7025 1072.48 47.5975C1073.3 46.4925 1073.71 44.8025 1073.71 42.5275V36.4825H1079.89V42.885C1079.89 46.8283 1079.04 49.8183 1077.35 51.855C1075.68 53.87 1073.17 54.8775 1069.81 54.8775C1066.8 54.8775 1064.53 54.0108 1063.02 52.2775C1061.5 50.5442 1060.74 47.9875 1060.74 44.6075V41.7475H1063.54V42.6575C1063.54 47.0558 1065.27 49.255 1068.74 49.255ZM1091.2 14.935C1096.98 14.935 1101.35 16.4733 1104.29 19.55C1107.24 22.6267 1108.71 27.2092 1108.71 33.2975V37.4575L1102.54 37.7825V33.2325C1102.54 29.0292 1101.61 25.855 1099.74 23.71C1097.88 21.565 1095.03 20.4925 1091.2 20.4925C1087.36 20.4925 1084.51 21.5542 1082.65 23.6775C1080.81 25.8008 1079.89 28.9858 1079.89 33.2325V36.9375H1073.71V33.1675C1073.71 27.1225 1075.17 22.5725 1078.1 19.5175C1081.02 16.4625 1085.39 14.935 1091.2 14.935ZM1108.71 37.295V41.1625C1108.71 45.8425 1107.8 49.2983 1105.98 51.53C1104.18 53.7617 1101.31 54.8775 1097.37 54.8775C1093.67 54.8775 1090.89 53.935 1089.05 52.05C1087.23 50.165 1086.32 47.3917 1086.32 43.73V42.1375C1086.32 38.6058 1087.06 35.93 1088.53 34.11C1090 32.29 1092.26 31.38 1095.29 31.38C1097.18 31.38 1098.7 31.7917 1099.87 32.615C1101.04 33.4383 1101.87 34.5867 1102.34 36.06H1103.45L1102.99 40.6425C1102.45 39.3642 1101.7 38.3783 1100.75 37.685C1099.8 36.9917 1098.62 36.645 1097.21 36.645C1095.6 36.645 1094.4 37.1 1093.6 38.01C1092.82 38.8983 1092.43 40.3067 1092.43 42.235V43.6975C1092.43 45.6042 1092.83 47.045 1093.63 48.02C1094.46 48.995 1095.72 49.4825 1097.44 49.4825C1099.32 49.4825 1100.64 48.8758 1101.4 47.6625C1102.18 46.4275 1102.57 44.4667 1102.57 41.78V37.62L1108.71 37.295ZM1141.9 30.6975C1144.83 30.6975 1147.14 31.4017 1148.83 32.81C1150.54 34.2183 1151.74 36.45 1152.43 39.505L1153.34 43.47C1153.82 45.55 1154.53 47.0342 1155.49 47.9225C1156.46 48.8108 1157.71 49.255 1159.23 49.255C1161.13 49.255 1162.53 48.5725 1163.42 47.2075C1164.31 45.8425 1164.75 43.8383 1164.75 41.195V38.4975L1170.99 38.92V41.6175C1170.99 45.9292 1170 49.2225 1168.03 51.4975C1166.08 53.7508 1163.22 54.8775 1159.45 54.8775C1156.33 54.8775 1153.82 54.1625 1151.91 52.7325C1150.01 51.2808 1148.7 48.9625 1147.98 45.7775L1147.07 41.715C1146.62 39.7 1146.01 38.2917 1145.25 37.49C1144.49 36.6667 1143.43 36.255 1142.07 36.255C1140.51 36.255 1139.34 36.7642 1138.56 37.7825C1137.8 38.7792 1137.42 40.3175 1137.42 42.3975V43.6C1137.42 45.6583 1137.65 47.6408 1138.1 49.5475C1138.56 51.4542 1139.15 53.1225 1139.89 54.5525H1133.65C1132.87 53.2092 1132.27 51.6275 1131.86 49.8075C1131.47 47.9658 1131.28 45.8642 1131.28 43.5025V42.3C1131.28 38.3567 1132.19 35.4425 1134.01 33.5575C1135.83 31.6508 1138.46 30.6975 1141.9 30.6975ZM1170.99 39.7L1164.75 39.2125V33.6875C1164.75 29.0508 1164.17 25.2483 1163 22.28C1161.85 19.3117 1160.1 17.1125 1157.76 15.6825C1155.44 14.2308 1152.53 13.505 1149.02 13.505C1146.18 13.505 1144.07 13.9492 1142.68 14.8375C1141.32 15.7258 1140.64 17.1017 1140.64 18.965V19.225C1140.64 20.5033 1141.01 21.4892 1141.77 22.1825C1142.55 22.8542 1143.67 23.19 1145.12 23.19C1146.51 23.19 1147.57 22.8542 1148.31 22.1825C1149.04 21.5108 1149.41 20.5358 1149.41 19.2575V19.03C1149.41 17.99 1149.23 17.1233 1148.86 16.43C1148.49 15.715 1147.97 15.13 1147.3 14.675C1146.63 14.22 1145.81 13.8733 1144.86 13.635L1151.17 12.4L1151 13.7975C1152.35 14.2525 1153.35 14.9675 1154.03 15.9425C1154.72 16.8958 1155.07 18.25 1155.07 20.005V20.265C1155.07 22.8433 1154.2 24.7933 1152.47 26.115C1150.75 27.415 1148.32 28.065 1145.15 28.065C1141.75 28.065 1139.17 27.3175 1137.42 25.8225C1135.68 24.3275 1134.82 22.1717 1134.82 19.355V19.03C1134.82 15.6067 1136.02 13.0067 1138.43 11.23C1140.85 9.43166 1144.35 8.5325 1148.92 8.5325C1153.84 8.5325 1157.94 9.45333 1161.21 11.295C1164.48 13.1367 1166.93 15.9317 1168.55 19.68C1170.18 23.4067 1170.99 28.1083 1170.99 33.785V39.7ZM1183.97 32.875L1177.9 33.2V29.2025C1177.9 24.3492 1178.85 20.7633 1180.76 18.445C1182.68 16.105 1185.67 14.935 1189.73 14.935C1193.43 14.935 1196.22 15.9208 1198.08 17.8925C1199.94 19.8642 1200.87 22.7783 1200.87 26.635V27.5775C1200.87 31.1092 1200.13 33.7742 1198.63 35.5725C1197.16 37.3708 1194.97 38.27 1192.07 38.27C1189.99 38.27 1188.3 37.8583 1187 37.035C1185.7 36.2117 1184.78 35.085 1184.23 33.655H1183.1L1183.32 28.8125C1183.95 30.1775 1184.83 31.2283 1185.96 31.965C1187.1 32.7017 1188.48 33.07 1190.08 33.07C1191.67 33.07 1192.85 32.6258 1193.63 31.7375C1194.41 30.8275 1194.8 29.4083 1194.8 27.48V26.5375C1194.8 24.4792 1194.37 22.93 1193.53 21.89C1192.71 20.8283 1191.43 20.2975 1189.69 20.2975C1187.59 20.2975 1186.11 20.9692 1185.24 22.3125C1184.4 23.6558 1183.97 25.8008 1183.97 28.7475V32.875ZM1177.9 32.68L1184.04 32.485V35.735C1184.04 40.3717 1185.14 43.7517 1187.35 45.875C1189.56 47.9767 1192.95 49.0275 1197.53 49.0275H1199.83L1198.7 54.4225H1196.32C1190.19 54.4225 1185.59 52.9058 1182.51 49.8725C1179.43 46.8175 1177.9 42.1267 1177.9 35.8V32.68ZM1221.81 28.975H1255.03V34.2075L1245.21 34.0125V33.1025H1231.66L1231.69 34.0125L1221.81 34.2075V28.975ZM1235.3 18.705H1241.48V31.315H1235.3V18.705ZM1221.81 15.9425H1245.28V21.175H1221.81V15.9425ZM1238.42 49.645C1241.28 49.645 1243.43 49.0383 1244.86 47.825C1246.29 46.59 1247 44.705 1247 42.17V41.715C1247 39.2017 1246.29 37.3167 1244.86 36.06C1243.43 34.8033 1241.28 34.175 1238.42 34.175C1235.56 34.175 1233.42 34.8033 1231.99 36.06C1230.56 37.3167 1229.84 39.2017 1229.84 41.715V42.17C1229.84 44.705 1230.56 46.59 1231.99 47.825C1233.42 49.0383 1235.56 49.645 1238.42 49.645ZM1229.26 32.68H1247.62V34.24C1249.29 34.63 1250.61 35.5075 1251.58 36.8725C1252.58 38.2158 1253.08 40.1658 1253.08 42.7225V43.34C1253.08 47.2183 1251.84 50.1542 1249.37 52.1475C1246.92 54.1408 1243.27 55.1375 1238.42 55.1375C1233.59 55.1375 1229.94 54.1408 1227.47 52.1475C1225 50.1542 1223.76 47.2183 1223.76 43.34V42.7225C1223.76 40.1658 1224.26 38.2158 1225.26 36.8725C1226.28 35.5075 1227.61 34.63 1229.26 34.24V32.68ZM1247.85 4.1125H1252.95C1253.75 5.30417 1254.37 6.63667 1254.8 8.11C1255.23 9.56167 1255.45 11.1217 1255.45 12.79C1255.45 18.38 1252.89 21.175 1247.78 21.175H1243.95L1243.49 15.9425H1245.54C1247.01 15.9425 1248.07 15.6067 1248.72 14.935C1249.37 14.2417 1249.7 13.115 1249.7 11.555C1249.7 10.2767 1249.52 9.00917 1249.18 7.7525C1248.83 6.49583 1248.39 5.2825 1247.85 4.1125ZM1289.39 54.8775C1286.25 54.8775 1283.72 54.1625 1281.79 52.7325C1279.88 51.2808 1278.57 48.9625 1277.86 45.7775L1276.95 41.715C1276.49 39.7 1275.88 38.2917 1275.13 37.49C1274.37 36.6667 1273.31 36.255 1271.94 36.255C1270.38 36.255 1269.21 36.7642 1268.43 37.7825C1267.67 38.7792 1267.29 40.3175 1267.29 42.3975V43.6C1267.29 45.6583 1267.52 47.6408 1267.98 49.5475C1268.43 51.4542 1269.03 53.1225 1269.76 54.5525H1263.52C1262.74 53.2092 1262.15 51.6275 1261.74 49.8075C1261.35 47.9658 1261.15 45.8642 1261.15 43.5025V42.3C1261.15 38.3567 1262.06 35.4425 1263.88 33.5575C1265.7 31.6508 1268.33 30.6975 1271.78 30.6975C1274.7 30.6975 1277.01 31.4017 1278.7 32.81C1280.41 34.2183 1281.62 36.45 1282.31 39.505L1283.22 43.47C1283.7 45.55 1284.42 47.0342 1285.4 47.9225C1286.37 48.8108 1287.63 49.255 1289.17 49.255C1291.01 49.255 1292.37 48.6158 1293.26 47.3375C1294.17 46.0375 1294.63 44.1417 1294.63 41.65V38.4975C1294.63 34.3808 1293.91 31.055 1292.48 28.52C1291.05 25.9633 1288.81 24.1 1285.75 22.93C1282.72 21.76 1278.78 21.175 1273.92 21.175V20.46L1289.95 20.4275V21.37C1292.33 21.8467 1294.33 22.7458 1295.96 24.0675C1297.58 25.3892 1298.81 27.2525 1299.63 29.6575C1300.45 32.0625 1300.87 35.15 1300.87 38.92V42.0725C1300.87 46.2542 1299.88 49.4392 1297.91 51.6275C1295.96 53.7942 1293.12 54.8775 1289.39 54.8775ZM1290.53 21.175H1262.09V15.9425H1290.3L1290.53 21.175ZM1293.52 4.1125H1298.62C1299.43 5.30417 1300.04 6.63667 1300.48 8.11C1300.91 9.56167 1301.13 11.1217 1301.13 12.79C1301.13 18.38 1298.57 21.175 1293.46 21.175H1289.62L1289.17 15.9425H1291.21C1292.69 15.9425 1293.75 15.6067 1294.4 14.935C1295.05 14.2417 1295.37 13.115 1295.37 11.555C1295.37 10.2767 1295.2 9.00917 1294.85 7.7525C1294.51 6.49583 1294.06 5.2825 1293.52 4.1125ZM1296.98 60.6625C1299.73 60.6625 1302.05 61.1608 1303.94 62.1575C1305.8 63.1542 1307.14 64.5625 1307.97 66.3825L1305.37 68.7875C1304.43 67.4658 1303.29 66.48 1301.92 65.83C1300.56 65.2017 1298.99 64.8875 1297.21 64.8875C1295.63 64.8875 1294.45 65.1367 1293.67 65.635C1292.89 66.1333 1292.5 66.8808 1292.5 67.8775V67.9425C1292.5 68.9392 1292.91 69.6867 1293.73 70.185C1294.53 70.6833 1295.76 70.9325 1297.4 70.9325C1299.33 70.9325 1300.94 70.575 1302.21 69.86C1303.49 69.1667 1304.54 68.1917 1305.37 66.935L1305.69 66.3825C1306.04 65.5808 1306.29 64.6817 1306.44 63.685C1306.61 62.71 1306.7 61.5942 1306.7 60.3375C1306.7 58.7992 1306.6 57.3258 1306.41 55.9175C1306.23 54.5308 1305.95 53.1875 1305.56 51.8875C1305.19 50.5875 1304.73 49.3092 1304.16 48.0525H1308.97C1309.86 49.8292 1310.52 51.7358 1310.96 53.7725C1311.39 55.7875 1311.61 57.9758 1311.61 60.3375C1311.61 62.3308 1311.39 64.0967 1310.96 65.635C1310.52 67.1733 1309.85 68.5383 1308.94 69.73L1307.64 70.835C1306.51 72.1783 1305.11 73.2292 1303.42 73.9875C1301.7 74.7675 1299.62 75.1575 1297.18 75.1575C1294.06 75.1575 1291.68 74.54 1290.06 73.305C1288.43 72.0917 1287.62 70.3042 1287.62 67.9425V67.8775C1287.62 65.4942 1288.42 63.6958 1290.03 62.4825C1291.63 61.2692 1293.95 60.6625 1296.98 60.6625ZM1312.65 80.195H1307.51C1307.49 78.115 1307.29 76.0892 1306.93 74.1175C1306.58 72.1675 1306.1 70.6075 1305.5 69.4375L1308.84 66.9025C1309.58 67.9858 1310.21 69.2533 1310.73 70.705C1311.27 72.1567 1311.7 73.695 1312.03 75.32C1312.35 76.945 1312.56 78.57 1312.65 80.195ZM1350.44 43.145V42.3975C1350.44 40.2742 1349.91 38.7683 1348.85 37.88C1347.79 36.97 1346.1 36.4933 1343.78 36.45L1340.37 36.385V31.185L1342.87 31.12C1344.8 31.0767 1346.17 30.7408 1347 30.1125C1347.84 29.4842 1348.27 28.4442 1348.27 26.9925V26.7975C1348.27 24.9125 1347.32 23.5042 1345.44 22.5725C1343.57 21.6192 1340.63 21.1425 1336.6 21.1425L1338.55 20.07H1349.14V21.4025C1350.92 21.6408 1352.24 22.2692 1353.11 23.2875C1354 24.3058 1354.44 25.66 1354.44 27.35V27.61C1354.44 29.3867 1354.01 30.7733 1353.14 31.77C1352.3 32.745 1351.01 33.33 1349.27 33.525V33.72C1351.72 34.0017 1353.55 34.9333 1354.77 36.515C1356 38.075 1356.62 40.285 1356.62 43.145V43.925C1356.62 47.5433 1355.69 50.2733 1353.82 52.115C1351.96 53.9567 1349.21 54.8775 1345.57 54.8775C1342.3 54.8775 1339.79 54.2167 1338.06 52.895C1336.35 51.5517 1335.36 49.6775 1335.1 47.2725H1334.91C1334.67 49.6775 1333.75 51.5517 1332.15 52.895C1330.54 54.2167 1328.19 54.8775 1325.09 54.8775C1321.32 54.8775 1318.48 53.7725 1316.58 51.5625C1314.67 49.3525 1313.72 45.9942 1313.72 41.4875V37.1C1313.72 33.915 1314.06 31.2392 1314.76 29.0725C1315.45 26.9058 1316.46 25.1942 1317.78 23.9375C1319.12 22.6592 1320.75 21.7925 1322.66 21.3375V20.395H1334.13L1334.36 21.1425C1329.44 21.1425 1325.81 22.41 1323.47 24.945C1321.13 27.48 1319.96 31.3692 1319.96 36.6125V41.0325C1319.96 43.8492 1320.45 45.9183 1321.42 47.24C1322.42 48.5617 1323.94 49.2225 1326 49.2225C1327.93 49.2225 1329.35 48.6483 1330.26 47.5C1331.19 46.3517 1331.7 44.5967 1331.79 42.235L1331.92 39.2775H1338.06L1338.19 42.2025C1338.3 44.6075 1338.86 46.395 1339.88 47.565C1340.9 48.7133 1342.49 49.2875 1344.66 49.2875C1346.54 49.2875 1347.97 48.7783 1348.95 47.76C1349.94 46.72 1350.44 45.1817 1350.44 43.145ZM1347.32 21.1425H1313.72V15.9425H1347.16L1347.32 21.1425ZM1349.44 4.1125H1354.54C1355.34 5.30417 1355.96 6.63667 1356.39 8.11C1356.82 9.56167 1357.04 11.1217 1357.04 12.79C1357.04 18.38 1354.48 21.175 1349.37 21.175H1345.54L1345.08 15.9425H1347.13C1348.6 15.9425 1349.66 15.6067 1350.31 14.935C1350.96 14.2417 1351.29 13.115 1351.29 11.555C1351.29 10.2767 1351.11 9.00917 1350.77 7.7525C1350.42 6.49583 1349.98 5.2825 1349.44 4.1125ZM1395.59 54.8775C1392.47 54.8775 1390.06 54.2058 1388.37 52.8625C1386.7 51.4975 1385.74 49.58 1385.48 47.11H1385.28C1385.02 49.58 1384.03 51.4975 1382.29 52.8625C1380.58 54.2058 1378.08 54.8775 1374.79 54.8775C1371 54.8775 1368.12 53.8917 1366.17 51.92C1364.22 49.9483 1363.25 47.0342 1363.25 43.1775V41.585C1363.25 38.0317 1364.05 35.3233 1365.65 33.46C1367.28 31.5967 1369.64 30.665 1372.74 30.665C1373.8 30.665 1374.73 30.7733 1375.53 30.99C1376.36 31.185 1377.11 31.4775 1377.78 31.8675L1378.1 37.1325C1377.58 36.8292 1376.99 36.58 1376.31 36.385C1375.66 36.1683 1374.95 36.06 1374.17 36.06C1372.52 36.06 1371.31 36.5367 1370.53 37.49C1369.75 38.4217 1369.36 39.8517 1369.36 41.78V42.9825C1369.36 45.0842 1369.87 46.6658 1370.89 47.7275C1371.91 48.7892 1373.43 49.32 1375.47 49.32C1377.68 49.32 1379.33 48.7242 1380.41 47.5325C1381.49 46.3192 1382.09 44.4992 1382.2 42.0725L1382.36 38.7575H1388.44L1388.6 42.0725C1388.71 44.4992 1389.25 46.2975 1390.22 47.4675C1391.2 48.6375 1392.67 49.2225 1394.64 49.2225C1396.64 49.2225 1398.11 48.605 1399.06 47.37C1400.02 46.1133 1400.49 44.2067 1400.49 41.65V38.4975C1400.49 34.3592 1399.78 31.0225 1398.35 28.4875C1396.92 25.9308 1394.68 24.0675 1391.62 22.8975C1388.59 21.7275 1384.63 21.1425 1379.76 21.1425V20.4275L1395.78 20.395V21.3375C1398.17 21.8142 1400.17 22.7133 1401.79 24.035C1403.42 25.3567 1404.64 27.2308 1405.47 29.6575C1406.31 32.0625 1406.73 35.15 1406.73 38.92V42.0075C1406.73 46.2542 1405.79 49.4608 1403.91 51.6275C1402.04 53.7942 1399.27 54.8775 1395.59 54.8775ZM1395.52 21.1425H1365V15.9425H1395.29L1395.52 21.1425ZM1402.64 21.175H1390.09V15.9425H1402.64V21.175ZM1435.5 37.62L1429.32 37.7825V34.6625C1429.32 30.0692 1428.23 26.6783 1426.04 24.49C1423.87 22.28 1420.51 21.175 1415.96 21.175H1396.63V15.9425H1416.65C1423.02 15.9425 1427.75 17.5025 1430.85 20.6225C1433.95 23.7208 1435.5 28.4117 1435.5 34.695V37.62ZM1424.15 54.8775C1420.45 54.8775 1417.68 53.935 1415.83 52.05C1414.01 50.165 1413.1 47.3917 1413.1 43.73V42.1375C1413.1 38.6058 1413.84 35.93 1415.31 34.11C1416.79 32.29 1419.04 31.38 1422.07 31.38C1423.96 31.38 1425.49 31.7917 1426.66 32.615C1427.83 33.4383 1428.65 34.5867 1429.13 36.06H1430.23L1429.78 40.6425C1429.24 39.3642 1428.49 38.3783 1427.53 37.685C1426.58 36.9917 1425.4 36.645 1423.99 36.645C1422.39 36.645 1421.19 37.1 1420.38 38.01C1419.6 38.8983 1419.21 40.3067 1419.21 42.235V43.6975C1419.21 45.6042 1419.62 47.045 1420.42 48.02C1421.24 48.995 1422.51 49.4825 1424.22 49.4825C1426.1 49.4825 1427.43 48.8758 1428.18 47.6625C1428.96 46.4275 1429.35 44.4667 1429.35 41.78V37.62L1435.5 37.295V41.1625C1435.5 45.8425 1434.59 49.2983 1432.77 51.53C1430.97 53.7617 1428.1 54.8775 1424.15 54.8775ZM1458.2 9.1825C1455.51 9.1825 1453.5 9.6375 1452.15 10.5475C1450.81 11.4358 1450.14 12.7358 1450.14 14.4475C1450.14 15.3792 1450.33 16.1808 1450.72 16.8525C1451.11 17.5242 1451.68 18.0117 1452.41 18.315L1450.07 22.1825C1448.01 21.6192 1446.45 20.6875 1445.39 19.3875C1444.35 18.0658 1443.83 16.3217 1443.83 14.155C1443.83 10.7317 1445.01 8.13166 1447.37 6.355C1449.76 4.55667 1453.28 3.6575 1457.94 3.6575C1461.99 3.6575 1465.35 4.42667 1468.01 5.965C1470.7 7.48166 1472.7 9.84333 1474.02 13.05C1475.37 16.235 1476.04 20.3517 1476.04 25.4V32.745L1471.07 32.6475V24.815C1471.07 19.3983 1469.96 15.4442 1467.75 12.9525C1465.56 10.4392 1462.38 9.1825 1458.2 9.1825ZM1469.73 33.07C1469.73 29.105 1468.92 26.2017 1467.3 24.36C1465.67 22.4967 1463.21 21.565 1459.92 21.565C1456.65 21.565 1454.19 22.4967 1452.54 24.36C1450.92 26.2017 1450.1 29.105 1450.1 33.07V54H1443.8V32.7775C1443.8 29.9392 1444.15 27.5233 1444.84 25.53C1445.55 23.515 1446.69 21.825 1448.25 20.46C1448.36 20.3733 1448.52 20.2542 1448.74 20.1025C1448.96 19.9292 1449.18 19.7558 1449.42 19.5825C1449.68 19.3875 1449.92 19.2142 1450.14 19.0625C1450.35 18.8892 1450.52 18.7592 1450.62 18.6725C1451.77 17.8058 1453.11 17.1558 1454.62 16.7225C1456.16 16.2675 1457.85 16.04 1459.69 16.04C1462.79 16.04 1465.22 16.5492 1466.97 17.5675C1468.73 18.5642 1469.97 19.8967 1470.71 21.565L1471.55 21.37L1476.04 28.26V54H1469.73V33.07ZM1516.03 41.325V38.27H1518.73V41.2925L1516.03 41.325ZM1491.69 20.33H1511.67V21.37C1514.1 22.02 1515.92 23.4175 1517.13 25.5625C1518.35 27.6858 1518.95 30.6325 1518.95 34.4025V37.88C1518.95 43.5783 1517.5 47.8683 1514.6 50.75C1511.7 53.6317 1507.38 55.0725 1501.66 55.0725C1495.97 55.0725 1491.65 53.6317 1488.73 50.75C1485.83 47.8683 1484.37 43.5783 1484.37 37.88V34.4025C1484.37 30.6325 1484.99 27.675 1486.23 25.53C1487.48 23.385 1489.3 21.9875 1491.69 21.3375V20.33ZM1501.66 49.45C1505.37 49.45 1508.13 48.4208 1509.95 46.3625C1511.79 44.3042 1512.71 41.26 1512.71 37.23V33.395C1512.71 29.3217 1511.79 26.2667 1509.95 24.23C1508.13 22.1717 1505.37 21.1425 1501.66 21.1425C1497.96 21.1425 1495.19 22.1717 1493.34 24.23C1491.52 26.2667 1490.61 29.3217 1490.61 33.395V37.23C1490.61 41.26 1491.52 44.3042 1493.34 46.3625C1495.19 48.4208 1497.96 49.45 1501.66 49.45ZM1509.46 21.1425H1484.37V15.9425H1509.46V21.1425ZM1511.71 4.1125H1516.81C1517.61 5.30417 1518.23 6.63667 1518.66 8.11C1519.09 9.56167 1519.31 11.1217 1519.31 12.79C1519.31 18.38 1516.75 21.175 1511.64 21.175H1507.81L1507.35 15.9425H1509.4C1510.87 15.9425 1511.93 15.6067 1512.58 14.935C1513.23 14.2417 1513.56 13.115 1513.56 11.555C1513.56 10.2767 1513.39 9.00917 1513.04 7.7525C1512.69 6.49583 1512.25 5.2825 1511.71 4.1125ZM1527.53 15.52C1531.74 15.52 1534.88 16.8525 1536.96 19.5175C1539.06 22.1825 1540.11 26.2667 1540.11 31.77V39.3425C1540.11 44.5208 1539.07 48.41 1536.99 51.01C1534.91 53.5883 1531.73 54.8775 1527.44 54.8775C1523.62 54.8775 1520.76 53.8808 1518.86 51.8875C1516.97 49.8942 1516.03 47.0775 1516.03 43.4375V40.7725H1518.73V41.0325C1518.73 43.7192 1519.34 45.7667 1520.58 47.175C1521.84 48.5617 1523.71 49.255 1526.2 49.255C1528.87 49.255 1530.81 48.4317 1532.02 46.785C1533.25 45.1383 1533.87 42.5925 1533.87 39.1475V31.77C1533.87 28.0433 1533.25 25.3458 1532.02 23.6775C1530.81 21.9875 1528.93 21.1425 1526.4 21.1425C1526.18 21.1425 1525.95 21.1425 1525.71 21.1425C1525.48 21.1425 1525.23 21.1642 1524.97 21.2075V15.6825C1525.4 15.6392 1525.82 15.6067 1526.23 15.585C1526.67 15.5417 1527.1 15.52 1527.53 15.52ZM1549.89 54.6825C1548.59 54.6825 1547.62 54.3358 1546.99 53.6425C1546.39 52.9275 1546.08 51.9417 1546.08 50.685V50.36C1546.08 49.1033 1546.39 48.1283 1546.99 47.435C1547.62 46.7417 1548.59 46.395 1549.89 46.395C1551.16 46.395 1552.12 46.7417 1552.75 47.435C1553.37 48.1283 1553.69 49.1033 1553.69 50.36V50.685C1553.69 51.9417 1553.37 52.9275 1552.75 53.6425C1552.12 54.3358 1551.16 54.6825 1549.89 54.6825Z" fill="black"/>
</svg>
