<svg width="1571" height="75" viewBox="0 0 1571 75" fill="none" xmlns="http://www.w3.org/2000/svg">
<path d="M21.34 46.74L16.48 51L4.48 52.32L0.4 47.76L1.48 36L4.24 31.68L14.08 30.96L19.3 35.16L12.7 39.96L11.02 37.26L9.64 37.5L9.7 42.06L13.48 43.14L21.94 37.26L28.72 43.14L34.36 42.54L33.28 28.44L30.82 25.86L7.72 27L10.24 16.68L35.86 17.76L41.44 23.34L43.36 47.1L39.34 50.76L26.86 52.02L21.34 46.74ZM73.2939 17.16L81.1539 17.76L109.954 17.88L117.154 23.22L116.374 47.76L113.614 51L97.4139 52.44L93.6939 48.06L94.2939 34.02L97.7739 30.66L109.054 28.92L110.254 37.56L103.774 36.96L101.854 39.42L102.574 43.86L107.914 42.96L108.214 39.06L112.354 39.54L110.794 27.24L106.474 27.72L105.754 26.46L103.954 24.96L86.9739 25.5L88.8339 27.48L90.8139 46.02L86.7939 50.22L74.6139 52.02L52.2339 52.32L48.1539 47.76L50.6739 24.72L53.4339 19.74L63.8739 18.96L70.2939 24.18L65.1339 35.1L56.8539 30.96L61.8339 26.4L58.2339 24.72V26.88L53.7939 31.32L58.2939 34.2L57.0939 42.18L60.6339 44.82L78.4539 43.68L81.9939 40.74L80.6739 28.5L78.3339 25.98L73.2939 26.46V17.16ZM137.942 58.32V66L133.562 73.02L125.582 71.1L127.862 69.42L130.442 64.92L129.122 62.58L126.182 62.1L120.662 66.42L115.022 62.58H111.902L110.162 63.72L111.602 67.26L113.282 70.02L106.202 71.4L103.382 66.72V58.62L106.502 54.36L116.822 55.38L120.542 58.62L124.742 54.6L134.882 55.56L137.942 58.32ZM142.867 51L130.867 52.32L126.787 47.76L129.067 30.36L132.427 26.88L129.787 27L128.707 24.36L130.207 17.64L160.747 17.76L159.607 10.62L160.627 9.42L168.007 8.64L169.747 9.66L168.607 24L165.667 25.38H165.247L168.727 27.96L169.747 47.1L165.727 50.76L153.247 52.02L147.727 46.74L142.867 51ZM148.327 37.26L155.107 43.14H159.307L161.167 40.8L159.367 28.56L154.747 25.92L142.507 26.46L139.027 29.34L135.907 41.22L141.127 42.84L148.327 37.26ZM221.461 20.28L229.801 16.38L250.561 17.88L257.761 22.62L257.041 47.76L254.281 51L238.081 52.44L234.361 48.06L234.961 34.02L238.441 30.66L249.601 28.8L250.801 37.56L244.381 36.96L241.921 39.42L242.881 43.8L248.281 42.6L248.761 40.44L248.281 38.82L253.201 39.24L251.581 27.12L247.081 27.54L246.361 26.28L243.961 24.96L232.981 24.54L229.081 26.28L230.761 46.02L225.541 51L209.701 51.66L206.701 46.92L203.101 51.18L180.241 52.44L174.541 47.28L175.501 30.6L179.161 26.82L175.501 27L174.541 24.42L175.921 17.64L199.621 17.7L198.481 10.62L199.501 9.42L206.881 8.64L208.621 9.66L207.481 24L204.541 25.38L203.641 25.44L206.581 28.92L206.821 31.02L204.781 33.42L206.221 37.26L206.401 35.1L209.581 32.28L217.201 31.68L217.741 38.52L213.841 39L212.581 40.26L213.181 42.9L220.441 43.44L222.241 40.44L219.661 27.18L221.461 20.28ZM182.941 41.7L185.281 43.74L197.161 43.02L199.561 39.48L198.121 28.14L195.241 26.16L187.681 26.46L183.841 29.04L182.941 41.7ZM320.379 17.76L325.179 22.74L319.599 46.08L318.039 47.34L321.699 52.38L318.099 55.44L311.859 55.02L310.539 51.24L301.779 51.78L297.339 48.3L296.499 39.42L301.299 35.04L307.419 35.46L310.359 36.9L315.339 43.74L316.059 42.96L313.539 37.86L315.099 28.86L314.679 27.24L311.139 26.94L302.859 32.52L296.199 27H293.019L291.099 28.86L291.399 31.8L293.559 33.48L286.359 36.66L283.359 33.06L282.939 23.64L287.919 17.7L298.539 18.42L303.939 23.22L310.539 17.28L320.379 17.76ZM303.879 41.46L303.999 43.86L306.519 44.7L308.019 44.1L307.059 41.4L305.499 40.62L303.879 41.46ZM368.69 17.7L379.49 17.82L384.29 22.08L386.21 46.02L380.99 51L365.15 51.66L362.15 46.92L358.55 51.18L335.69 52.44L329.99 47.28L330.95 30.6L334.61 26.82L330.95 27L329.99 24.42L331.37 17.64L355.07 17.7L353.93 10.62L354.95 9.42L362.33 8.64L364.07 9.66L362.93 24L359.99 25.38L359.09 25.44L362.03 28.92L362.27 31.02L360.23 33.42L361.67 37.26L361.85 35.1L365.03 32.28L372.65 31.68L373.19 38.52L369.29 39L368.03 40.26L368.63 42.9L375.89 43.44L377.69 40.44L376.01 26.28L374.27 25.08L368.03 25.74L368.69 17.7ZM338.39 41.7L340.73 43.74L352.61 43.02L355.01 39.48L353.57 28.14L350.69 26.16L343.13 26.46L339.29 29.04L338.39 41.7ZM432.317 46.74L427.457 51L415.457 52.32L411.377 47.76L412.457 36L415.217 31.68L425.057 30.96L430.277 35.16L423.677 39.96L421.997 37.26L420.617 37.5L420.677 42.06L424.457 43.14L432.917 37.26L439.697 43.14L445.337 42.54L444.257 28.44L441.797 25.86L418.697 27L421.217 16.68L446.837 17.76L452.417 23.34L454.337 47.1L450.317 50.76L437.837 52.02L432.317 46.74ZM490.93 44.1L485.41 50.58L464.83 51.78L459.13 46.62L460.87 22.14L465.85 17.04L481.99 16.44L488.47 20.22L490.93 44.1ZM468.43 28.68L468.01 41.28L470.35 43.32L480.49 42.24L482.11 39.12L480.13 27.3L477.67 25.26L471.49 24.9L468.43 28.68ZM499.172 17.64L552.752 17.88L559.952 23.22L559.172 47.76L556.412 51L540.212 52.44L536.492 48.06L537.092 34.02L540.572 30.66L551.852 28.92L553.052 37.56L546.572 36.96L544.652 39.42L545.372 43.86L550.712 42.96L551.012 39.06L555.152 39.54L553.592 27.24L549.272 27.72L548.552 26.46L546.752 24.96L528.932 25.5L530.732 26.1L531.032 31.56L526.532 33.12L530.972 33.66L532.352 35.22L532.952 46.02L527.612 50.88L501.572 51.96L495.752 46.38L497.732 33.12L504.932 33.72L506.732 35.46L505.172 40.98L508.172 42.6L524.192 41.28L523.832 37.68L512.852 35.76L513.392 30.48L522.932 29.16L522.692 27.06L520.592 25.86L498.752 27L497.672 24.36L499.172 17.64ZM580.855 51L568.855 52.32L564.775 47.76L567.055 30.36L570.415 26.88L567.775 27L566.695 24.36L568.195 17.64L598.735 17.76L597.595 10.62L598.615 9.42L605.995 8.64L607.735 9.66L606.595 24L603.655 25.38H603.235L606.715 27.96L607.735 47.1L603.715 50.76L591.235 52.02L585.715 46.74L580.855 51ZM586.315 37.26L593.095 43.14H597.295L599.155 40.8L597.355 28.56L592.735 25.92L580.495 26.46L577.015 29.34L573.895 41.22L579.115 42.84L586.315 37.26ZM651.229 17.7L662.029 17.82L666.829 22.08L668.749 46.02L663.529 51L647.689 51.66L644.689 46.92L641.089 51.18L618.229 52.44L612.529 47.28L613.489 30.6L617.149 26.82L613.489 27L612.529 24.42L613.909 17.64L637.609 17.7L636.469 10.62L637.489 9.42L644.869 8.64L646.609 9.66L645.469 24L642.529 25.38L641.629 25.44L644.569 28.92L644.809 31.02L642.769 33.42L644.209 37.26L644.389 35.1L647.569 32.28L655.189 31.68L655.729 38.52L651.829 39L650.569 40.26L651.169 42.9L658.429 43.44L660.229 40.44L658.549 26.28L656.809 25.08L650.569 25.74L651.229 17.7ZM620.929 41.7L623.269 43.74L635.149 43.02L637.549 39.48L636.109 28.14L633.229 26.16L625.669 26.46L621.829 29.04L620.929 41.7ZM731.356 17.76L736.156 22.74L730.576 46.08L729.016 47.34L732.676 52.38L729.076 55.44L722.836 55.02L721.516 51.24L712.756 51.78L708.316 48.3L707.476 39.42L712.276 35.04L718.396 35.46L721.336 36.9L726.316 43.74L727.036 42.96L724.516 37.86L726.076 28.86L725.656 27.24L722.116 26.94L713.836 32.52L707.176 27H703.996L702.076 28.86L702.376 31.8L704.536 33.48L697.336 36.66L694.336 33.06L693.916 23.64L698.896 17.7L709.516 18.42L714.916 23.22L721.516 17.28L731.356 17.76ZM714.856 41.46L714.976 43.86L717.496 44.7L718.996 44.1L718.036 41.4L716.476 40.62L714.856 41.46ZM779.666 17.7L790.466 17.82L795.266 22.08L797.186 46.02L791.966 51L776.126 51.66L773.126 46.92L769.526 51.18L746.666 52.44L740.966 47.28L741.926 30.6L745.586 26.82L741.926 27L740.966 24.42L742.346 17.64L766.046 17.7L764.906 10.62L765.926 9.42L773.306 8.64L775.046 9.66L773.906 24L770.966 25.38L770.066 25.44L773.006 28.92L773.246 31.02L771.206 33.42L772.646 37.26L772.826 35.1L776.006 32.28L783.626 31.68L784.166 38.52L780.266 39L779.006 40.26L779.606 42.9L786.866 43.44L788.666 40.44L786.986 26.28L785.246 25.08L779.006 25.74L779.666 17.7ZM749.366 41.7L751.706 43.74L763.586 43.02L765.986 39.48L764.546 28.14L761.666 26.16L754.106 26.46L750.266 29.04L749.366 41.7ZM843.293 46.74L838.433 51L826.433 52.32L822.353 47.76L823.433 36L826.193 31.68L836.033 30.96L841.253 35.16L834.653 39.96L832.973 37.26L831.593 37.5L831.653 42.06L835.433 43.14L843.893 37.26L850.673 43.14L856.313 42.54L855.233 28.44L852.773 25.86L829.673 27L832.193 16.68L857.813 17.76L863.393 23.34L865.313 47.1L861.293 50.76L848.813 52.02L843.293 46.74ZM901.907 44.1L896.387 50.58L875.807 51.78L870.107 46.62L871.847 22.14L876.827 17.04L892.967 16.44L899.447 20.22L901.907 44.1ZM879.407 28.68L878.987 41.28L881.327 43.32L891.467 42.24L893.087 39.12L891.107 27.3L888.647 25.26L882.467 24.9L879.407 28.68ZM949.688 22.98L946.388 25.32L945.188 25.38L948.668 27.96L949.688 47.1L945.668 50.76L933.188 52.02L927.668 46.74L922.808 51L910.808 52.32L906.728 47.76L909.008 30.36L912.368 26.88L909.728 27L908.648 24.36L910.148 17.64L942.128 17.4L944.708 16.38L942.788 8.22L940.748 8.46L940.088 7.5L938.828 7.2L936.488 7.74L936.608 9.3L937.928 10.08L941.348 9.84L942.608 15.48L933.728 15.78L930.308 13.5L929.348 6.54L932.708 2.46L944.168 0.839998L949.268 4.32L949.688 22.98ZM928.268 37.26L935.048 43.14H939.248L941.108 40.8L939.308 28.56L934.688 25.92L922.448 26.46L918.968 29.34L915.848 41.22L921.068 42.84L928.268 37.26ZM986.282 44.1L980.762 50.58L960.182 51.78L954.482 46.62L956.222 22.14L961.202 17.04L977.342 16.44L983.822 20.22L986.282 44.1ZM963.782 28.68L963.362 41.28L965.702 43.32L975.842 42.24L977.462 39.12L975.482 27.3L973.022 25.26L966.842 24.9L963.782 28.68ZM1002.38 6L1026.14 7.02L1031.84 13.98L1034.06 47.1L1030.04 50.76L1017.56 52.02L1012.04 46.74L1007.18 51L995.183 52.32L991.103 47.76L993.503 29.58L999.023 24.54L996.143 24.3L993.983 21.12L995.603 11.1L1002.38 6ZM1019.42 43.14H1023.62L1025.48 40.8L1023.86 28.44H1027.34L1024.88 16.2L1021.28 16.02L1020.26 14.76L1006.28 14.34L1003.76 15.9L1004.3 17.88L1023.14 17.7L1024.94 26.58L1008.08 25.26L1003.34 29.34L1000.22 41.22L1005.44 42.84L1012.64 37.26L1019.42 43.14ZM1086.26 20.28L1094.6 16.38L1115.36 17.88L1122.56 22.62L1121.84 47.76L1119.08 51L1102.88 52.44L1099.16 48.06L1099.76 34.02L1103.24 30.66L1114.4 28.8L1115.6 37.56L1109.18 36.96L1106.72 39.42L1107.68 43.8L1113.08 42.6L1113.56 40.44L1113.08 38.82L1118 39.24L1116.38 27.12L1111.88 27.54L1111.16 26.28L1108.76 24.96L1097.78 24.54L1093.88 26.28L1095.56 46.02L1090.34 51L1074.5 51.66L1071.32 46.68L1069.1 50.64L1060.16 53.94L1058.72 45.12L1064.42 42.48L1062.44 28.98L1059.2 27L1052.84 26.34L1048.94 30.36L1047.08 42.72L1050.98 46.98L1044.74 53.76L1038.86 47.64L1040.24 30.36L1044.86 26.76L1040.9 27L1039.82 24.36L1041.32 17.64L1063.82 17.76L1062.68 10.62L1063.7 9.42L1071.08 8.64L1072.82 9.66L1071.68 24L1068.74 25.38L1066.94 25.44L1070.96 27.6L1071.44 31.44L1069.22 33.72L1070.84 39.96L1071.2 35.1L1074.38 32.28L1082 31.68L1082.54 38.52L1078.64 39L1077.38 40.26L1077.98 42.9L1085.24 43.44L1087.04 40.44L1084.46 27.18L1086.26 20.28ZM1156.96 41.82L1164.7 44.94L1156.96 53.46L1147.72 42.48L1152.22 31.5L1166.44 33L1170.82 41.76L1177.12 42.72L1178.32 40.92L1174.78 17.7L1171.54 17.1L1170.34 13.5L1164.22 16.92L1161.52 17.7L1161.58 20.16L1162.54 20.58L1169.02 16.32L1170.82 23.16L1163.98 27.84L1154.92 25.8L1154.02 17.1L1160.2 9.48L1179.28 10.02L1183.96 14.28L1186.54 46.02L1182.4 51.06L1164.7 51.48L1163.98 48.72L1167.28 44.28L1161.04 41.34L1158.88 38.22L1156.96 41.82ZM1213.64 48.78L1211.66 50.76L1195.22 52.5L1191.32 48.36L1192.94 20.88L1197.08 16.8L1210.58 17.16L1215.26 21.42L1214.66 32.7L1210.58 35.7L1199.6 34.14L1200.92 26.64L1206.2 28.74L1207.4 25.74L1206.68 23.82L1203.38 22.8L1202.24 25.08L1199.54 24.36L1197.32 35.34L1200.62 36.18L1200.02 42.3L1201.76 44.28L1212.68 42.18L1213.64 48.78ZM1263.58 28.8L1275.16 28.5L1276.3 31.26L1275.34 33.78L1273.12 33.9L1276.3 37.44L1275.7 45.84L1273.72 50.88L1246.9 52.26L1242.4 49.14L1242.04 38.7L1246.12 35.58L1241.8 35.88L1240.66 34.56L1241.14 31.62L1242.76 30.12L1252.24 29.7L1253.8 29.88L1252.9 28.86V27L1254.22 25.5L1251.88 26.4L1241.5 27L1240.42 24.36L1241.92 17.64L1267.66 17.76L1266.52 10.62L1267.54 9.42L1274.92 8.64L1276.66 9.66L1275.52 24L1272.58 25.38L1265.26 25.68L1263.7 25.8L1261.84 25.44L1262.8 26.4V28.14L1261.9 29.22L1263.58 28.8ZM1265.26 43.38L1267.66 41.28L1267.06 36.42L1263.34 34.56L1254.64 35.1L1250.98 36.72L1250.38 41.52L1252.72 43.02L1265.26 43.38ZM1319.12 24L1316.18 25.38H1315.7L1319.48 28.68L1320.26 46.02L1316.12 51.06L1298.42 51.48L1297.7 48.72L1301 44.28L1294.76 41.34L1292.6 38.22L1290.68 41.82L1298.42 44.94L1290.68 53.46L1281.44 42.48L1285.94 31.5L1300.16 33L1304.54 41.76L1310.84 42.72L1312.04 40.92L1309.88 29.1L1305.8 26.04L1283.3 27.3L1282.34 24.72L1283.72 17.94L1311.26 17.76L1310.12 10.62L1311.14 9.42L1318.52 8.64L1320.26 9.66L1319.12 24ZM1328.87 65.46L1333.25 72.66L1330.37 75L1324.55 74.7L1323.95 69.18L1313.33 69.96L1309.67 66.96L1309.19 57.78L1313.21 54.42H1320.83L1325.33 58.74L1325.57 56.28L1323.95 44.34L1324.79 41.1L1330.67 40.38L1332.65 42.48L1333.19 55.38L1333.25 60.6L1328.87 65.46ZM1315.61 59.76L1315.73 63.96L1319.51 64.26L1322.03 63.3L1320.41 60.6L1318.73 59.16L1315.61 59.76ZM1379.98 27.96L1380.16 33.36L1376.98 35.4L1380.4 36.9L1381 47.1L1376.98 50.76L1364.5 52.02L1358.98 46.74L1354.12 51L1342.12 52.32L1338.04 47.76L1340.38 30.42L1343.74 26.88L1340.44 27L1339.36 24.36L1340.86 17.64L1372 17.76L1370.86 10.62L1371.88 9.42L1379.26 8.64L1381 9.66L1379.86 24L1376.92 25.38H1376.5L1379.98 27.96ZM1359.58 37.26L1366.36 43.38L1370.32 43.14L1372.18 40.8L1371.94 39.06L1370.5 37.86L1366.6 37.5L1365.76 32.34L1367.5 31.08L1370.68 30.78L1370.38 28.56L1365.76 25.92L1353.64 26.4L1350.16 29.34L1347.04 41.82L1352.44 43.2L1359.58 37.26ZM1452.21 51L1436.01 52.44L1432.29 48.06L1432.89 34.02L1436.37 30.66L1447.65 28.92L1448.85 37.56L1442.37 36.96L1440.45 39.42L1441.17 43.86L1446.51 42.96L1446.81 39.06L1450.95 39.54L1449.39 27.24L1445.07 27.72L1444.35 26.46L1442.55 24.96L1424.43 25.5L1427.73 27.96L1428.75 47.1L1424.73 50.76L1412.25 52.02L1406.73 46.74L1401.87 51L1389.87 52.32L1385.79 47.76L1386.87 36L1389.63 31.68L1399.47 30.96L1404.69 35.16L1398.09 39.96L1397.01 37.86L1395.03 38.1L1394.73 42.06L1399.47 43.14L1407.33 37.26L1414.11 43.74L1419.99 43.14L1418.91 28.44L1415.85 25.8L1388.19 27L1387.11 24.36L1388.61 17.64L1448.55 17.88L1455.75 23.22L1454.97 47.76L1452.21 51ZM1469.38 7.02L1487.5 7.68L1493.14 13.68L1494.52 44.1L1490.8 50.64L1481.86 53.94L1480.42 45.12L1486.12 42.48L1484.38 27.84L1488.58 27.72L1486 15.84L1483.12 15.96L1481.44 14.34L1472.68 14.04L1470.16 15.84V18.18L1484.5 17.64L1486.3 25.92L1475.32 25.32L1470.64 30.36L1468.78 42.72L1472.68 46.98L1466.44 53.76L1460.56 47.64L1462.3 29.46L1467.28 24.84L1465.78 24.78L1462.48 22.32L1463.32 11.4L1469.38 7.02ZM1538.05 17.7L1548.85 17.82L1553.65 22.08L1555.57 46.02L1550.35 51L1534.51 51.66L1531.51 46.92L1527.91 51.18L1505.05 52.44L1499.35 47.28L1500.31 30.6L1503.97 26.82L1500.31 27L1499.35 24.42L1500.73 17.64L1524.43 17.7L1523.29 10.62L1524.31 9.42L1531.69 8.64L1533.43 9.66L1532.29 24L1529.35 25.38L1528.45 25.44L1531.39 28.92L1531.63 31.02L1529.59 33.42L1531.03 37.26L1531.21 35.1L1534.39 32.28L1542.01 31.68L1542.55 38.52L1538.65 39L1537.39 40.26L1537.99 42.9L1545.25 43.44L1547.05 40.44L1545.37 26.28L1543.63 25.08L1537.39 25.74L1538.05 17.7ZM1507.75 41.7L1510.09 43.74L1521.97 43.02L1524.37 39.48L1522.93 28.14L1520.05 26.16L1512.49 26.46L1508.65 29.04L1507.75 41.7ZM1569.34 52.08L1562.86 52.62L1560.34 50.52L1560.88 44.34L1562.92 42.12L1567.66 42L1569.7 43.32L1570.9 49.26L1569.34 52.08Z" fill="black"/>
</svg>
