<svg width="1626" height="80" viewBox="0 0 1626 80" fill="none" xmlns="http://www.w3.org/2000/svg">
<path d="M8.08594 57C6.44531 57 5.625 56.1797 5.625 54.5391V53.3086C5.625 52.0195 4.98047 51.375 3.69141 51.375H2.46094C0.820313 51.375 0 50.5547 0 48.9141V36.9609C0 35.3203 0.820313 34.5 2.46094 34.5H8.78906C10.4297 34.5 11.25 35.3203 11.25 36.9609V37.6641C11.25 39.3047 10.4297 40.125 8.78906 40.125H7.55859C6.26953 40.125 5.625 40.7695 5.625 42.0586V49.4414C5.625 50.7305 6.26953 51.375 7.55859 51.375H14.9414C16.2305 51.375 16.875 50.7305 16.875 49.4414V42.5859C16.875 40.9453 17.6953 40.125 19.3359 40.125H20.0391C21.6797 40.125 22.5 40.9453 22.5 42.5859V49.4414C22.5 50.7305 23.1445 51.375 24.4336 51.375H31.8164C33.1055 51.375 33.75 50.7305 33.75 49.4414V25.1836C33.75 23.8945 33.1055 23.25 31.8164 23.25H8.08594C6.44531 23.25 5.625 22.4297 5.625 20.7891V20.0859C5.625 18.4453 6.44531 17.625 8.08594 17.625H31.2891C32.9297 17.625 33.75 18.4453 33.75 20.0859V21.3164C33.75 22.6055 34.3945 23.25 35.6836 23.25H36.9141C38.5547 23.25 39.375 24.0703 39.375 25.7109V48.9141C39.375 50.5547 38.5547 51.375 36.9141 51.375H35.6836C34.3945 51.375 33.75 52.0195 33.75 53.3086V54.5391C33.75 56.1797 32.9297 57 31.2891 57H24.9609C23.3203 57 22.5 56.1797 22.5 54.5391V53.3086C22.5 52.0195 21.8555 51.375 20.5664 51.375H18.8086C17.5195 51.375 16.875 52.0195 16.875 53.3086V54.5391C16.875 56.1797 16.0547 57 14.4141 57H8.08594ZM45 20.0859C45 18.4453 45.8203 17.625 47.4609 17.625H53.7891C55.4297 17.625 56.25 18.4453 56.25 20.0859V21.3164C56.25 22.6055 56.8945 23.25 58.1836 23.25H59.4141C61.0547 23.25 61.875 24.0703 61.875 25.7109V32.0391C61.875 33.6797 61.0547 34.5 59.4141 34.5H58.1836C56.8945 34.5 56.25 35.1445 56.25 36.4336V37.6641C56.25 39.3047 55.4297 40.125 53.7891 40.125H52.5586C51.2695 40.125 50.625 40.7695 50.625 42.0586V49.4414C50.625 50.7305 51.2695 51.375 52.5586 51.375H76.8164C78.1055 51.375 78.75 50.7305 78.75 49.4414V25.1836C78.75 23.8945 78.1055 23.25 76.8164 23.25H69.9609C68.3203 23.25 67.5 22.4297 67.5 20.7891V20.0859C67.5 18.4453 68.3203 17.625 69.9609 17.625H104.414C106.055 17.625 106.875 18.4453 106.875 20.0859V21.3164C106.875 22.6055 107.52 23.25 108.809 23.25H110.039C111.68 23.25 112.5 24.0703 112.5 25.7109V48.9141C112.5 50.5547 111.68 51.375 110.039 51.375H108.809C107.52 51.375 106.875 52.0195 106.875 53.3086V54.5391C106.875 56.1797 106.055 57 104.414 57H98.0859C96.4453 57 95.625 56.1797 95.625 54.5391V53.3086C95.625 52.0195 94.9805 51.375 93.6914 51.375H92.4609C90.8203 51.375 90 50.5547 90 48.9141V42.5859C90 40.9453 90.8203 40.125 92.4609 40.125H93.6914C94.9805 40.125 95.625 39.4805 95.625 38.1914V36.9609C95.625 35.3203 96.4453 34.5 98.0859 34.5H104.941C106.23 34.5 106.875 33.8555 106.875 32.5664V25.1836C106.875 23.8945 106.23 23.25 104.941 23.25H86.3086C85.0195 23.25 84.375 23.8945 84.375 25.1836V48.9141C84.375 50.5547 83.5547 51.375 81.9141 51.375H80.6836C79.3945 51.375 78.75 52.0195 78.75 53.3086V54.5391C78.75 56.1797 77.9297 57 76.2891 57H53.0859C51.4453 57 50.625 56.1797 50.625 54.5391V53.3086C50.625 52.0195 49.9805 51.375 48.6914 51.375H47.4609C45.8203 51.375 45 50.5547 45 48.9141V20.0859ZM50.625 32.5664C50.625 33.8555 51.2695 34.5 52.5586 34.5H54.3164C55.6055 34.5 56.25 33.8555 56.25 32.5664V25.1836C56.25 23.8945 55.6055 23.25 54.3164 23.25H52.5586C51.2695 23.25 50.625 23.8945 50.625 25.1836V32.5664ZM95.625 49.4414C95.625 50.7305 96.2695 51.375 97.5586 51.375H104.941C106.23 51.375 106.875 50.7305 106.875 49.4414V42.0586C106.875 40.7695 106.23 40.125 104.941 40.125H97.5586C96.2695 40.125 95.625 40.7695 95.625 42.0586V49.4414ZM110.039 62.625C111.68 62.625 112.5 63.4453 112.5 65.0859V66.3164C112.5 67.6055 113.145 68.25 114.434 68.25H116.191C117.48 68.25 118.125 67.6055 118.125 66.3164V65.0859C118.125 63.4453 118.945 62.625 120.586 62.625H126.914C128.555 62.625 129.375 63.4453 129.375 65.0859V66.3164C129.375 67.6055 130.02 68.25 131.309 68.25H132.539C134.18 68.25 135 69.0703 135 70.7109V77.0391C135 78.6797 134.18 79.5 132.539 79.5H131.836C130.195 79.5 129.375 78.6797 129.375 77.0391V70.1836C129.375 68.8945 128.73 68.25 127.441 68.25H120.059C118.77 68.25 118.125 68.8945 118.125 70.1836V71.4141C118.125 73.0547 117.305 73.875 115.664 73.875H114.961C113.32 73.875 112.5 73.0547 112.5 71.4141V70.1836C112.5 68.8945 111.855 68.25 110.566 68.25H103.184C101.895 68.25 101.25 68.8945 101.25 70.1836V77.0391C101.25 78.6797 100.43 79.5 98.7891 79.5H98.0859C96.4453 79.5 95.625 78.6797 95.625 77.0391V70.7109C95.625 69.0703 96.4453 68.25 98.0859 68.25H99.3164C100.605 68.25 101.25 67.6055 101.25 66.3164V65.0859C101.25 63.4453 102.07 62.625 103.711 62.625H110.039ZM123.75 20.0859C123.75 18.4453 124.57 17.625 126.211 17.625H166.816C168.105 17.625 168.75 16.9805 168.75 15.6914V8.83594C168.75 7.19531 169.57 6.375 171.211 6.375H171.914C173.555 6.375 174.375 7.19531 174.375 8.83594V20.7891C174.375 22.4297 173.555 23.25 171.914 23.25H170.684C169.395 23.25 168.75 23.8945 168.75 25.1836V48.9141C168.75 50.5547 167.93 51.375 166.289 51.375H165.059C163.77 51.375 163.125 52.0195 163.125 53.3086V54.5391C163.125 56.1797 162.305 57 160.664 57H154.336C152.695 57 151.875 56.1797 151.875 54.5391V53.3086C151.875 52.0195 151.23 51.375 149.941 51.375H148.184C146.895 51.375 146.25 52.0195 146.25 53.3086V54.5391C146.25 56.1797 145.43 57 143.789 57H137.461C135.82 57 135 56.1797 135 54.5391V53.3086C135 52.0195 134.355 51.375 133.066 51.375H131.836C130.195 51.375 129.375 50.5547 129.375 48.9141V25.1836C129.375 23.8945 128.73 23.25 127.441 23.25H126.211C124.57 23.25 123.75 22.4297 123.75 20.7891V20.0859ZM135 49.4414C135 50.7305 135.645 51.375 136.934 51.375H144.316C145.605 51.375 146.25 50.7305 146.25 49.4414V42.5859C146.25 40.9453 147.07 40.125 148.711 40.125H149.414C151.055 40.125 151.875 40.9453 151.875 42.5859V49.4414C151.875 50.7305 152.52 51.375 153.809 51.375H161.191C162.48 51.375 163.125 50.7305 163.125 49.4414V25.1836C163.125 23.8945 162.48 23.25 161.191 23.25H136.934C135.645 23.25 135 23.8945 135 25.1836V49.4414ZM185.625 25.1836C185.625 23.8945 184.98 23.25 183.691 23.25H182.461C180.82 23.25 180 22.4297 180 20.7891V20.0859C180 18.4453 180.82 17.625 182.461 17.625H211.816C213.105 17.625 213.75 16.9805 213.75 15.6914V8.83594C213.75 7.19531 214.57 6.375 216.211 6.375H216.914C218.555 6.375 219.375 7.19531 219.375 8.83594V20.7891C219.375 22.4297 218.555 23.25 216.914 23.25H215.684C214.395 23.25 213.75 23.8945 213.75 25.1836V49.4414C213.75 50.7305 214.395 51.375 215.684 51.375H228.691C229.98 51.375 230.625 50.7305 230.625 49.4414V25.7109C230.625 24.0703 231.445 23.25 233.086 23.25H234.316C235.605 23.25 236.25 22.6055 236.25 21.3164V20.0859C236.25 18.4453 237.07 17.625 238.711 17.625H256.289C257.93 17.625 258.75 18.4453 258.75 20.0859V21.3164C258.75 22.6055 259.395 23.25 260.684 23.25H261.914C263.555 23.25 264.375 24.0703 264.375 25.7109V48.9141C264.375 50.5547 263.555 51.375 261.914 51.375H260.684C259.395 51.375 258.75 52.0195 258.75 53.3086V54.5391C258.75 56.1797 257.93 57 256.289 57H249.961C248.32 57 247.5 56.1797 247.5 54.5391V53.3086C247.5 52.0195 246.855 51.375 245.566 51.375H244.336C242.695 51.375 241.875 50.5547 241.875 48.9141V42.5859C241.875 40.9453 242.695 40.125 244.336 40.125H245.566C246.855 40.125 247.5 39.4805 247.5 38.1914V36.9609C247.5 35.3203 248.32 34.5 249.961 34.5H256.816C258.105 34.5 258.75 33.8555 258.75 32.5664V25.1836C258.75 23.8945 258.105 23.25 256.816 23.25H238.184C236.895 23.25 236.25 23.8945 236.25 25.1836V48.9141C236.25 50.5547 235.43 51.375 233.789 51.375H232.559C231.27 51.375 230.625 52.0195 230.625 53.3086V54.5391C230.625 56.1797 229.805 57 228.164 57H216.211C214.57 57 213.75 56.1797 213.75 54.5391V53.3086C213.75 52.0195 213.105 51.375 211.816 51.375H210.059C208.77 51.375 208.125 52.0195 208.125 53.3086V54.5391C208.125 56.1797 207.305 57 205.664 57H193.711C192.07 57 191.25 56.1797 191.25 54.5391V53.3086C191.25 52.0195 190.605 51.375 189.316 51.375H188.086C186.445 51.375 185.625 50.5547 185.625 48.9141V25.1836ZM191.25 49.4414C191.25 50.7305 191.895 51.375 193.184 51.375H206.191C207.48 51.375 208.125 50.7305 208.125 49.4414V25.1836C208.125 23.8945 207.48 23.25 206.191 23.25H193.184C191.895 23.25 191.25 23.8945 191.25 25.1836V49.4414ZM247.5 49.4414C247.5 50.7305 248.145 51.375 249.434 51.375H256.816C258.105 51.375 258.75 50.7305 258.75 49.4414V42.0586C258.75 40.7695 258.105 40.125 256.816 40.125H249.434C248.145 40.125 247.5 40.7695 247.5 42.0586V49.4414ZM292.5 25.7109C292.5 24.0703 293.32 23.25 294.961 23.25H296.191C297.48 23.25 298.125 22.6055 298.125 21.3164V20.0859C298.125 18.4453 298.945 17.625 300.586 17.625H306.914C308.555 17.625 309.375 18.4453 309.375 20.0859V21.3164C309.375 22.6055 310.02 23.25 311.309 23.25H313.066C314.355 23.25 315 22.6055 315 21.3164V20.0859C315 18.4453 315.82 17.625 317.461 17.625H323.789C325.43 17.625 326.25 18.4453 326.25 20.0859V21.3164C326.25 22.6055 326.895 23.25 328.184 23.25H329.414C331.055 23.25 331.875 24.0703 331.875 25.7109V43.2891C331.875 44.9297 331.055 45.75 329.414 45.75H328.184C326.895 45.75 326.25 46.3945 326.25 47.6836V49.4414C326.25 50.7305 326.895 51.375 328.184 51.375H335.039C336.68 51.375 337.5 52.1953 337.5 53.8359V54.5391C337.5 56.1797 336.68 57 335.039 57H328.711C327.07 57 326.25 56.1797 326.25 54.5391V53.3086C326.25 52.0195 325.605 51.375 324.316 51.375H322.559C321.27 51.375 320.625 52.0195 320.625 53.3086V54.5391C320.625 56.1797 319.805 57 318.164 57H306.211C304.57 57 303.75 56.1797 303.75 54.5391V53.3086C303.75 52.0195 303.105 51.375 301.816 51.375H300.586C298.945 51.375 298.125 50.5547 298.125 48.9141V48.2109C298.125 46.5703 298.945 45.75 300.586 45.75H301.816C303.105 45.75 303.75 45.1055 303.75 43.8164V42.5859C303.75 40.9453 304.57 40.125 306.211 40.125H318.164C319.805 40.125 320.625 40.9453 320.625 42.5859V43.8164C320.625 45.1055 321.27 45.75 322.559 45.75H324.316C325.605 45.75 326.25 45.1055 326.25 43.8164V25.1836C326.25 23.8945 325.605 23.25 324.316 23.25H316.934C315.645 23.25 315 23.8945 315 25.1836V32.0391C315 33.6797 314.18 34.5 312.539 34.5H311.836C310.195 34.5 309.375 33.6797 309.375 32.0391V25.1836C309.375 23.8945 308.73 23.25 307.441 23.25H300.059C298.77 23.25 298.125 23.8945 298.125 25.1836V32.0391C298.125 33.6797 297.305 34.5 295.664 34.5H294.961C293.32 34.5 292.5 33.6797 292.5 32.0391V25.7109ZM303.75 49.4414C303.75 50.7305 304.395 51.375 305.684 51.375H318.691C319.98 51.375 320.625 50.7305 320.625 49.4414V47.6836C320.625 46.3945 319.98 45.75 318.691 45.75H305.684C304.395 45.75 303.75 46.3945 303.75 47.6836V49.4414ZM348.75 25.1836C348.75 23.8945 348.105 23.25 346.816 23.25H345.586C343.945 23.25 343.125 22.4297 343.125 20.7891V20.0859C343.125 18.4453 343.945 17.625 345.586 17.625H374.941C376.23 17.625 376.875 16.9805 376.875 15.6914V8.83594C376.875 7.19531 377.695 6.375 379.336 6.375H380.039C381.68 6.375 382.5 7.19531 382.5 8.83594V20.7891C382.5 22.4297 381.68 23.25 380.039 23.25H378.809C377.52 23.25 376.875 23.8945 376.875 25.1836V49.4414C376.875 50.7305 377.52 51.375 378.809 51.375H397.441C398.73 51.375 399.375 50.7305 399.375 49.4414V25.1836C399.375 23.8945 398.73 23.25 397.441 23.25H396.211C394.57 23.25 393.75 22.4297 393.75 20.7891V20.0859C393.75 18.4453 394.57 17.625 396.211 17.625H396.914C398.555 17.625 399.375 18.4453 399.375 20.0859V21.3164C399.375 22.6055 400.02 23.25 401.309 23.25H402.539C404.18 23.25 405 24.0703 405 25.7109V48.9141C405 50.5547 404.18 51.375 402.539 51.375H401.309C400.02 51.375 399.375 52.0195 399.375 53.3086V54.5391C399.375 56.1797 398.555 57 396.914 57H379.336C377.695 57 376.875 56.1797 376.875 54.5391V53.3086C376.875 52.0195 376.23 51.375 374.941 51.375H373.184C371.895 51.375 371.25 52.0195 371.25 53.3086V54.5391C371.25 56.1797 370.43 57 368.789 57H356.836C355.195 57 354.375 56.1797 354.375 54.5391V53.3086C354.375 52.0195 353.73 51.375 352.441 51.375H351.211C349.57 51.375 348.75 50.5547 348.75 48.9141V25.1836ZM354.375 49.4414C354.375 50.7305 355.02 51.375 356.309 51.375H369.316C370.605 51.375 371.25 50.7305 371.25 49.4414V25.1836C371.25 23.8945 370.605 23.25 369.316 23.25H356.309C355.02 23.25 354.375 23.8945 354.375 25.1836V49.4414ZM441.211 57C439.57 57 438.75 56.1797 438.75 54.5391V53.3086C438.75 52.0195 438.105 51.375 436.816 51.375H435.586C433.945 51.375 433.125 50.5547 433.125 48.9141V36.9609C433.125 35.3203 433.945 34.5 435.586 34.5H441.914C443.555 34.5 444.375 35.3203 444.375 36.9609V37.6641C444.375 39.3047 443.555 40.125 441.914 40.125H440.684C439.395 40.125 438.75 40.7695 438.75 42.0586V49.4414C438.75 50.7305 439.395 51.375 440.684 51.375H448.066C449.355 51.375 450 50.7305 450 49.4414V42.5859C450 40.9453 450.82 40.125 452.461 40.125H453.164C454.805 40.125 455.625 40.9453 455.625 42.5859V49.4414C455.625 50.7305 456.27 51.375 457.559 51.375H464.941C466.23 51.375 466.875 50.7305 466.875 49.4414V25.1836C466.875 23.8945 466.23 23.25 464.941 23.25H441.211C439.57 23.25 438.75 22.4297 438.75 20.7891V20.0859C438.75 18.4453 439.57 17.625 441.211 17.625H464.414C466.055 17.625 466.875 18.4453 466.875 20.0859V21.3164C466.875 22.6055 467.52 23.25 468.809 23.25H470.039C471.68 23.25 472.5 24.0703 472.5 25.7109V48.9141C472.5 50.5547 471.68 51.375 470.039 51.375H468.809C467.52 51.375 466.875 52.0195 466.875 53.3086V54.5391C466.875 56.1797 466.055 57 464.414 57H458.086C456.445 57 455.625 56.1797 455.625 54.5391V53.3086C455.625 52.0195 454.98 51.375 453.691 51.375H451.934C450.645 51.375 450 52.0195 450 53.3086V54.5391C450 56.1797 449.18 57 447.539 57H441.211ZM478.125 25.7109C478.125 24.0703 478.945 23.25 480.586 23.25H481.816C483.105 23.25 483.75 22.6055 483.75 21.3164V20.0859C483.75 18.4453 484.57 17.625 486.211 17.625H498.164C499.805 17.625 500.625 18.4453 500.625 20.0859V21.3164C500.625 22.6055 501.27 23.25 502.559 23.25H503.789C505.43 23.25 506.25 24.0703 506.25 25.7109V48.9141C506.25 50.5547 505.43 51.375 503.789 51.375H502.559C501.27 51.375 500.625 52.0195 500.625 53.3086V54.5391C500.625 56.1797 499.805 57 498.164 57H486.211C484.57 57 483.75 56.1797 483.75 54.5391V53.3086C483.75 52.0195 483.105 51.375 481.816 51.375H480.586C478.945 51.375 478.125 50.5547 478.125 48.9141V25.7109ZM483.75 49.4414C483.75 50.7305 484.395 51.375 485.684 51.375H498.691C499.98 51.375 500.625 50.7305 500.625 49.4414V25.1836C500.625 23.8945 499.98 23.25 498.691 23.25H485.684C484.395 23.25 483.75 23.8945 483.75 25.1836V49.4414ZM511.875 42.5859C511.875 40.9453 512.695 40.125 514.336 40.125H515.039C516.68 40.125 517.5 40.9453 517.5 42.5859V49.4414C517.5 50.7305 518.145 51.375 519.434 51.375H538.066C539.355 51.375 540 50.7305 540 49.4414V42.0586C540 40.7695 539.355 40.125 538.066 40.125H525.586C523.945 40.125 523.125 39.3047 523.125 37.6641V36.9609C523.125 35.3203 523.945 34.5 525.586 34.5H538.066C539.355 34.5 540 33.8555 540 32.5664V25.1836C540 23.8945 539.355 23.25 538.066 23.25H514.336C512.695 23.25 511.875 22.4297 511.875 20.7891V20.0859C511.875 18.4453 512.695 17.625 514.336 17.625H565.664C567.305 17.625 568.125 18.4453 568.125 20.0859V21.3164C568.125 22.6055 568.77 23.25 570.059 23.25H571.289C572.93 23.25 573.75 24.0703 573.75 25.7109V48.9141C573.75 50.5547 572.93 51.375 571.289 51.375H570.059C568.77 51.375 568.125 52.0195 568.125 53.3086V54.5391C568.125 56.1797 567.305 57 565.664 57H559.336C557.695 57 556.875 56.1797 556.875 54.5391V53.3086C556.875 52.0195 556.23 51.375 554.941 51.375H553.711C552.07 51.375 551.25 50.5547 551.25 48.9141V42.5859C551.25 40.9453 552.07 40.125 553.711 40.125H554.941C556.23 40.125 556.875 39.4805 556.875 38.1914V36.9609C556.875 35.3203 557.695 34.5 559.336 34.5H566.191C567.48 34.5 568.125 33.8555 568.125 32.5664V25.1836C568.125 23.8945 567.48 23.25 566.191 23.25H547.559C546.27 23.25 545.625 23.8945 545.625 25.1836V32.0391C545.625 33.6797 544.805 34.5 543.164 34.5H541.934C540.645 34.5 540 35.1445 540 36.4336V38.1914C540 39.4805 540.645 40.125 541.934 40.125H543.164C544.805 40.125 545.625 40.9453 545.625 42.5859V48.9141C545.625 50.5547 544.805 51.375 543.164 51.375H541.934C540.645 51.375 540 52.0195 540 53.3086V54.5391C540 56.1797 539.18 57 537.539 57H519.961C518.32 57 517.5 56.1797 517.5 54.5391V53.3086C517.5 52.0195 516.855 51.375 515.566 51.375H514.336C512.695 51.375 511.875 50.5547 511.875 48.9141V42.5859ZM556.875 49.4414C556.875 50.7305 557.52 51.375 558.809 51.375H566.191C567.48 51.375 568.125 50.7305 568.125 49.4414V42.0586C568.125 40.7695 567.48 40.125 566.191 40.125H558.809C557.52 40.125 556.875 40.7695 556.875 42.0586V49.4414ZM579.375 20.0859C579.375 18.4453 580.195 17.625 581.836 17.625H622.441C623.73 17.625 624.375 16.9805 624.375 15.6914V8.83594C624.375 7.19531 625.195 6.375 626.836 6.375H627.539C629.18 6.375 630 7.19531 630 8.83594V20.7891C630 22.4297 629.18 23.25 627.539 23.25H626.309C625.02 23.25 624.375 23.8945 624.375 25.1836V48.9141C624.375 50.5547 623.555 51.375 621.914 51.375H620.684C619.395 51.375 618.75 52.0195 618.75 53.3086V54.5391C618.75 56.1797 617.93 57 616.289 57H609.961C608.32 57 607.5 56.1797 607.5 54.5391V53.3086C607.5 52.0195 606.855 51.375 605.566 51.375H603.809C602.52 51.375 601.875 52.0195 601.875 53.3086V54.5391C601.875 56.1797 601.055 57 599.414 57H593.086C591.445 57 590.625 56.1797 590.625 54.5391V53.3086C590.625 52.0195 589.98 51.375 588.691 51.375H587.461C585.82 51.375 585 50.5547 585 48.9141V25.1836C585 23.8945 584.355 23.25 583.066 23.25H581.836C580.195 23.25 579.375 22.4297 579.375 20.7891V20.0859ZM590.625 49.4414C590.625 50.7305 591.27 51.375 592.559 51.375H599.941C601.23 51.375 601.875 50.7305 601.875 49.4414V42.5859C601.875 40.9453 602.695 40.125 604.336 40.125H605.039C606.68 40.125 607.5 40.9453 607.5 42.5859V49.4414C607.5 50.7305 608.145 51.375 609.434 51.375H616.816C618.105 51.375 618.75 50.7305 618.75 49.4414V25.1836C618.75 23.8945 618.105 23.25 616.816 23.25H592.559C591.27 23.25 590.625 23.8945 590.625 25.1836V49.4414ZM641.25 25.1836C641.25 23.8945 640.605 23.25 639.316 23.25H638.086C636.445 23.25 635.625 22.4297 635.625 20.7891V20.0859C635.625 18.4453 636.445 17.625 638.086 17.625H667.441C668.73 17.625 669.375 16.9805 669.375 15.6914V8.83594C669.375 7.19531 670.195 6.375 671.836 6.375H672.539C674.18 6.375 675 7.19531 675 8.83594V20.7891C675 22.4297 674.18 23.25 672.539 23.25H671.309C670.02 23.25 669.375 23.8945 669.375 25.1836V49.4414C669.375 50.7305 670.02 51.375 671.309 51.375H689.941C691.23 51.375 691.875 50.7305 691.875 49.4414V25.1836C691.875 23.8945 691.23 23.25 689.941 23.25H688.711C687.07 23.25 686.25 22.4297 686.25 20.7891V20.0859C686.25 18.4453 687.07 17.625 688.711 17.625H689.414C691.055 17.625 691.875 18.4453 691.875 20.0859V21.3164C691.875 22.6055 692.52 23.25 693.809 23.25H695.039C696.68 23.25 697.5 24.0703 697.5 25.7109V48.9141C697.5 50.5547 696.68 51.375 695.039 51.375H693.809C692.52 51.375 691.875 52.0195 691.875 53.3086V54.5391C691.875 56.1797 691.055 57 689.414 57H671.836C670.195 57 669.375 56.1797 669.375 54.5391V53.3086C669.375 52.0195 668.73 51.375 667.441 51.375H665.684C664.395 51.375 663.75 52.0195 663.75 53.3086V54.5391C663.75 56.1797 662.93 57 661.289 57H649.336C647.695 57 646.875 56.1797 646.875 54.5391V53.3086C646.875 52.0195 646.23 51.375 644.941 51.375H643.711C642.07 51.375 641.25 50.5547 641.25 48.9141V25.1836ZM646.875 49.4414C646.875 50.7305 647.52 51.375 648.809 51.375H661.816C663.105 51.375 663.75 50.7305 663.75 49.4414V25.1836C663.75 23.8945 663.105 23.25 661.816 23.25H648.809C647.52 23.25 646.875 23.8945 646.875 25.1836V49.4414ZM725.625 25.7109C725.625 24.0703 726.445 23.25 728.086 23.25H729.316C730.605 23.25 731.25 22.6055 731.25 21.3164V20.0859C731.25 18.4453 732.07 17.625 733.711 17.625H740.039C741.68 17.625 742.5 18.4453 742.5 20.0859V21.3164C742.5 22.6055 743.145 23.25 744.434 23.25H746.191C747.48 23.25 748.125 22.6055 748.125 21.3164V20.0859C748.125 18.4453 748.945 17.625 750.586 17.625H756.914C758.555 17.625 759.375 18.4453 759.375 20.0859V21.3164C759.375 22.6055 760.02 23.25 761.309 23.25H762.539C764.18 23.25 765 24.0703 765 25.7109V43.2891C765 44.9297 764.18 45.75 762.539 45.75H761.309C760.02 45.75 759.375 46.3945 759.375 47.6836V49.4414C759.375 50.7305 760.02 51.375 761.309 51.375H768.164C769.805 51.375 770.625 52.1953 770.625 53.8359V54.5391C770.625 56.1797 769.805 57 768.164 57H761.836C760.195 57 759.375 56.1797 759.375 54.5391V53.3086C759.375 52.0195 758.73 51.375 757.441 51.375H755.684C754.395 51.375 753.75 52.0195 753.75 53.3086V54.5391C753.75 56.1797 752.93 57 751.289 57H739.336C737.695 57 736.875 56.1797 736.875 54.5391V53.3086C736.875 52.0195 736.23 51.375 734.941 51.375H733.711C732.07 51.375 731.25 50.5547 731.25 48.9141V48.2109C731.25 46.5703 732.07 45.75 733.711 45.75H734.941C736.23 45.75 736.875 45.1055 736.875 43.8164V42.5859C736.875 40.9453 737.695 40.125 739.336 40.125H751.289C752.93 40.125 753.75 40.9453 753.75 42.5859V43.8164C753.75 45.1055 754.395 45.75 755.684 45.75H757.441C758.73 45.75 759.375 45.1055 759.375 43.8164V25.1836C759.375 23.8945 758.73 23.25 757.441 23.25H750.059C748.77 23.25 748.125 23.8945 748.125 25.1836V32.0391C748.125 33.6797 747.305 34.5 745.664 34.5H744.961C743.32 34.5 742.5 33.6797 742.5 32.0391V25.1836C742.5 23.8945 741.855 23.25 740.566 23.25H733.184C731.895 23.25 731.25 23.8945 731.25 25.1836V32.0391C731.25 33.6797 730.43 34.5 728.789 34.5H728.086C726.445 34.5 725.625 33.6797 725.625 32.0391V25.7109ZM736.875 49.4414C736.875 50.7305 737.52 51.375 738.809 51.375H751.816C753.105 51.375 753.75 50.7305 753.75 49.4414V47.6836C753.75 46.3945 753.105 45.75 751.816 45.75H738.809C737.52 45.75 736.875 46.3945 736.875 47.6836V49.4414ZM781.875 25.1836C781.875 23.8945 781.23 23.25 779.941 23.25H778.711C777.07 23.25 776.25 22.4297 776.25 20.7891V20.0859C776.25 18.4453 777.07 17.625 778.711 17.625H808.066C809.355 17.625 810 16.9805 810 15.6914V8.83594C810 7.19531 810.82 6.375 812.461 6.375H813.164C814.805 6.375 815.625 7.19531 815.625 8.83594V20.7891C815.625 22.4297 814.805 23.25 813.164 23.25H811.934C810.645 23.25 810 23.8945 810 25.1836V49.4414C810 50.7305 810.645 51.375 811.934 51.375H830.566C831.855 51.375 832.5 50.7305 832.5 49.4414V25.1836C832.5 23.8945 831.855 23.25 830.566 23.25H829.336C827.695 23.25 826.875 22.4297 826.875 20.7891V20.0859C826.875 18.4453 827.695 17.625 829.336 17.625H830.039C831.68 17.625 832.5 18.4453 832.5 20.0859V21.3164C832.5 22.6055 833.145 23.25 834.434 23.25H835.664C837.305 23.25 838.125 24.0703 838.125 25.7109V48.9141C838.125 50.5547 837.305 51.375 835.664 51.375H834.434C833.145 51.375 832.5 52.0195 832.5 53.3086V54.5391C832.5 56.1797 831.68 57 830.039 57H812.461C810.82 57 810 56.1797 810 54.5391V53.3086C810 52.0195 809.355 51.375 808.066 51.375H806.309C805.02 51.375 804.375 52.0195 804.375 53.3086V54.5391C804.375 56.1797 803.555 57 801.914 57H789.961C788.32 57 787.5 56.1797 787.5 54.5391V53.3086C787.5 52.0195 786.855 51.375 785.566 51.375H784.336C782.695 51.375 781.875 50.5547 781.875 48.9141V25.1836ZM787.5 49.4414C787.5 50.7305 788.145 51.375 789.434 51.375H802.441C803.73 51.375 804.375 50.7305 804.375 49.4414V25.1836C804.375 23.8945 803.73 23.25 802.441 23.25H789.434C788.145 23.25 787.5 23.8945 787.5 25.1836V49.4414ZM874.336 57C872.695 57 871.875 56.1797 871.875 54.5391V53.3086C871.875 52.0195 871.23 51.375 869.941 51.375H868.711C867.07 51.375 866.25 50.5547 866.25 48.9141V36.9609C866.25 35.3203 867.07 34.5 868.711 34.5H875.039C876.68 34.5 877.5 35.3203 877.5 36.9609V37.6641C877.5 39.3047 876.68 40.125 875.039 40.125H873.809C872.52 40.125 871.875 40.7695 871.875 42.0586V49.4414C871.875 50.7305 872.52 51.375 873.809 51.375H881.191C882.48 51.375 883.125 50.7305 883.125 49.4414V42.5859C883.125 40.9453 883.945 40.125 885.586 40.125H886.289C887.93 40.125 888.75 40.9453 888.75 42.5859V49.4414C888.75 50.7305 889.395 51.375 890.684 51.375H898.066C899.355 51.375 900 50.7305 900 49.4414V25.1836C900 23.8945 899.355 23.25 898.066 23.25H874.336C872.695 23.25 871.875 22.4297 871.875 20.7891V20.0859C871.875 18.4453 872.695 17.625 874.336 17.625H897.539C899.18 17.625 900 18.4453 900 20.0859V21.3164C900 22.6055 900.645 23.25 901.934 23.25H903.164C904.805 23.25 905.625 24.0703 905.625 25.7109V48.9141C905.625 50.5547 904.805 51.375 903.164 51.375H901.934C900.645 51.375 900 52.0195 900 53.3086V54.5391C900 56.1797 899.18 57 897.539 57H891.211C889.57 57 888.75 56.1797 888.75 54.5391V53.3086C888.75 52.0195 888.105 51.375 886.816 51.375H885.059C883.77 51.375 883.125 52.0195 883.125 53.3086V54.5391C883.125 56.1797 882.305 57 880.664 57H874.336ZM911.25 25.7109C911.25 24.0703 912.07 23.25 913.711 23.25H914.941C916.23 23.25 916.875 22.6055 916.875 21.3164V20.0859C916.875 18.4453 917.695 17.625 919.336 17.625H931.289C932.93 17.625 933.75 18.4453 933.75 20.0859V21.3164C933.75 22.6055 934.395 23.25 935.684 23.25H936.914C938.555 23.25 939.375 24.0703 939.375 25.7109V48.9141C939.375 50.5547 938.555 51.375 936.914 51.375H935.684C934.395 51.375 933.75 52.0195 933.75 53.3086V54.5391C933.75 56.1797 932.93 57 931.289 57H919.336C917.695 57 916.875 56.1797 916.875 54.5391V53.3086C916.875 52.0195 916.23 51.375 914.941 51.375H913.711C912.07 51.375 911.25 50.5547 911.25 48.9141V25.7109ZM916.875 49.4414C916.875 50.7305 917.52 51.375 918.809 51.375H931.816C933.105 51.375 933.75 50.7305 933.75 49.4414V25.1836C933.75 23.8945 933.105 23.25 931.816 23.25H918.809C917.52 23.25 916.875 23.8945 916.875 25.1836V49.4414ZM945 20.0859C945 18.4453 945.82 17.625 947.461 17.625H988.066C989.355 17.625 990 16.9805 990 15.6914V8.30859C990 7.01953 989.355 6.375 988.066 6.375H986.309C985.02 6.375 984.375 7.01953 984.375 8.30859V9.53906C984.375 11.1797 983.555 12 981.914 12H981.211C979.57 12 978.75 11.1797 978.75 9.53906V8.83594C978.75 7.19531 979.57 6.375 981.211 6.375H982.441C983.73 6.375 984.375 5.73047 984.375 4.44141V3.21094C984.375 1.57031 985.195 0.75 986.836 0.75H987.539C989.18 0.75 990 1.57031 990 3.21094V4.44141C990 5.73047 990.645 6.375 991.934 6.375H993.164C994.805 6.375 995.625 7.19531 995.625 8.83594V20.7891C995.625 22.4297 994.805 23.25 993.164 23.25H991.934C990.645 23.25 990 23.8945 990 25.1836V48.9141C990 50.5547 989.18 51.375 987.539 51.375H986.309C985.02 51.375 984.375 52.0195 984.375 53.3086V54.5391C984.375 56.1797 983.555 57 981.914 57H975.586C973.945 57 973.125 56.1797 973.125 54.5391V53.3086C973.125 52.0195 972.48 51.375 971.191 51.375H969.434C968.145 51.375 967.5 52.0195 967.5 53.3086V54.5391C967.5 56.1797 966.68 57 965.039 57H958.711C957.07 57 956.25 56.1797 956.25 54.5391V53.3086C956.25 52.0195 955.605 51.375 954.316 51.375H953.086C951.445 51.375 950.625 50.5547 950.625 48.9141V25.1836C950.625 23.8945 949.98 23.25 948.691 23.25H947.461C945.82 23.25 945 22.4297 945 20.7891V20.0859ZM956.25 49.4414C956.25 50.7305 956.895 51.375 958.184 51.375H965.566C966.855 51.375 967.5 50.7305 967.5 49.4414V42.5859C967.5 40.9453 968.32 40.125 969.961 40.125H970.664C972.305 40.125 973.125 40.9453 973.125 42.5859V49.4414C973.125 50.7305 973.77 51.375 975.059 51.375H982.441C983.73 51.375 984.375 50.7305 984.375 49.4414V25.1836C984.375 23.8945 983.73 23.25 982.441 23.25H958.184C956.895 23.25 956.25 23.8945 956.25 25.1836V49.4414ZM1001.25 25.7109C1001.25 24.0703 1002.07 23.25 1003.71 23.25H1004.94C1006.23 23.25 1006.88 22.6055 1006.88 21.3164V20.0859C1006.88 18.4453 1007.7 17.625 1009.34 17.625H1021.29C1022.93 17.625 1023.75 18.4453 1023.75 20.0859V21.3164C1023.75 22.6055 1024.39 23.25 1025.68 23.25H1026.91C1028.55 23.25 1029.38 24.0703 1029.38 25.7109V48.9141C1029.38 50.5547 1028.55 51.375 1026.91 51.375H1025.68C1024.39 51.375 1023.75 52.0195 1023.75 53.3086V54.5391C1023.75 56.1797 1022.93 57 1021.29 57H1009.34C1007.7 57 1006.88 56.1797 1006.88 54.5391V53.3086C1006.88 52.0195 1006.23 51.375 1004.94 51.375H1003.71C1002.07 51.375 1001.25 50.5547 1001.25 48.9141V25.7109ZM1006.88 49.4414C1006.88 50.7305 1007.52 51.375 1008.81 51.375H1021.82C1023.11 51.375 1023.75 50.7305 1023.75 49.4414V25.1836C1023.75 23.8945 1023.11 23.25 1021.82 23.25H1008.81C1007.52 23.25 1006.88 23.8945 1006.88 25.1836V49.4414ZM1035 31.3359C1035 29.6953 1035.82 28.875 1037.46 28.875H1038.69C1039.98 28.875 1040.62 28.2305 1040.62 26.9414V20.0859C1040.62 18.4453 1041.45 17.625 1043.09 17.625H1044.32C1045.61 17.625 1046.25 16.9805 1046.25 15.6914V14.4609C1046.25 12.8203 1047.07 12 1048.71 12H1066.29C1067.93 12 1068.75 12.8203 1068.75 14.4609V15.6914C1068.75 16.9805 1069.39 17.625 1070.68 17.625H1071.91C1073.55 17.625 1074.38 18.4453 1074.38 20.0859V48.9141C1074.38 50.5547 1073.55 51.375 1071.91 51.375H1070.68C1069.39 51.375 1068.75 52.0195 1068.75 53.3086V54.5391C1068.75 56.1797 1067.93 57 1066.29 57H1059.96C1058.32 57 1057.5 56.1797 1057.5 54.5391V53.3086C1057.5 52.0195 1056.86 51.375 1055.57 51.375H1053.81C1052.52 51.375 1051.88 52.0195 1051.88 53.3086V54.5391C1051.88 56.1797 1051.05 57 1049.41 57H1043.09C1041.45 57 1040.62 56.1797 1040.62 54.5391V53.3086C1040.62 52.0195 1039.98 51.375 1038.69 51.375H1037.46C1035.82 51.375 1035 50.5547 1035 48.9141V31.3359ZM1040.62 49.4414C1040.62 50.7305 1041.27 51.375 1042.56 51.375H1049.94C1051.23 51.375 1051.88 50.7305 1051.88 49.4414V42.5859C1051.88 40.9453 1052.7 40.125 1054.34 40.125H1055.04C1056.68 40.125 1057.5 40.9453 1057.5 42.5859V49.4414C1057.5 50.7305 1058.14 51.375 1059.43 51.375H1066.82C1068.11 51.375 1068.75 50.7305 1068.75 49.4414V19.5586C1068.75 18.2695 1068.11 17.625 1066.82 17.625H1065.06C1063.77 17.625 1063.12 18.2695 1063.12 19.5586V26.4141C1063.12 28.0547 1062.3 28.875 1060.66 28.875H1042.56C1041.27 28.875 1040.62 29.5195 1040.62 30.8086V49.4414ZM1046.25 21.3164C1046.25 22.6055 1046.89 23.25 1048.18 23.25H1055.57C1056.86 23.25 1057.5 22.6055 1057.5 21.3164V19.5586C1057.5 18.2695 1056.86 17.625 1055.57 17.625H1048.18C1046.89 17.625 1046.25 18.2695 1046.25 19.5586V21.3164ZM1085.62 25.1836C1085.62 23.8945 1084.98 23.25 1083.69 23.25H1082.46C1080.82 23.25 1080 22.4297 1080 20.7891V20.0859C1080 18.4453 1080.82 17.625 1082.46 17.625H1111.82C1113.11 17.625 1113.75 16.9805 1113.75 15.6914V8.83594C1113.75 7.19531 1114.57 6.375 1116.21 6.375H1116.91C1118.55 6.375 1119.38 7.19531 1119.38 8.83594V20.7891C1119.38 22.4297 1118.55 23.25 1116.91 23.25H1115.68C1114.39 23.25 1113.75 23.8945 1113.75 25.1836V49.4414C1113.75 50.7305 1114.39 51.375 1115.68 51.375H1128.69C1129.98 51.375 1130.62 50.7305 1130.62 49.4414V25.7109C1130.62 24.0703 1131.45 23.25 1133.09 23.25H1134.32C1135.61 23.25 1136.25 22.6055 1136.25 21.3164V20.0859C1136.25 18.4453 1137.07 17.625 1138.71 17.625H1156.29C1157.93 17.625 1158.75 18.4453 1158.75 20.0859V21.3164C1158.75 22.6055 1159.39 23.25 1160.68 23.25H1161.91C1163.55 23.25 1164.38 24.0703 1164.38 25.7109V48.9141C1164.38 50.5547 1163.55 51.375 1161.91 51.375H1160.68C1159.39 51.375 1158.75 52.0195 1158.75 53.3086V54.5391C1158.75 56.1797 1157.93 57 1156.29 57H1149.96C1148.32 57 1147.5 56.1797 1147.5 54.5391V53.3086C1147.5 52.0195 1146.86 51.375 1145.57 51.375H1144.34C1142.7 51.375 1141.88 50.5547 1141.88 48.9141V42.5859C1141.88 40.9453 1142.7 40.125 1144.34 40.125H1145.57C1146.86 40.125 1147.5 39.4805 1147.5 38.1914V36.9609C1147.5 35.3203 1148.32 34.5 1149.96 34.5H1156.82C1158.11 34.5 1158.75 33.8555 1158.75 32.5664V25.1836C1158.75 23.8945 1158.11 23.25 1156.82 23.25H1138.18C1136.89 23.25 1136.25 23.8945 1136.25 25.1836V48.9141C1136.25 50.5547 1135.43 51.375 1133.79 51.375H1132.56C1131.27 51.375 1130.62 52.0195 1130.62 53.3086V54.5391C1130.62 56.1797 1129.8 57 1128.16 57H1110.59C1108.95 57 1108.12 56.1797 1108.12 54.5391V25.1836C1108.12 23.8945 1107.48 23.25 1106.19 23.25H1093.18C1091.89 23.25 1091.25 23.8945 1091.25 25.1836V54.5391C1091.25 56.1797 1090.43 57 1088.79 57H1088.09C1086.45 57 1085.62 56.1797 1085.62 54.5391V25.1836ZM1147.5 49.4414C1147.5 50.7305 1148.14 51.375 1149.43 51.375H1156.82C1158.11 51.375 1158.75 50.7305 1158.75 49.4414V42.0586C1158.75 40.7695 1158.11 40.125 1156.82 40.125H1149.43C1148.14 40.125 1147.5 40.7695 1147.5 42.0586V49.4414ZM1192.5 42.5859C1192.5 40.9453 1193.32 40.125 1194.96 40.125H1196.19C1197.48 40.125 1198.12 39.4805 1198.12 38.1914V36.9609C1198.12 35.3203 1198.95 34.5 1200.59 34.5H1206.91C1208.55 34.5 1209.38 35.3203 1209.38 36.9609V38.1914C1209.38 39.4805 1210.02 40.125 1211.31 40.125H1212.54C1214.18 40.125 1215 40.9453 1215 42.5859V49.4414C1215 50.7305 1215.64 51.375 1216.93 51.375H1224.32C1225.61 51.375 1226.25 50.7305 1226.25 49.4414V30.8086C1226.25 29.5195 1225.61 28.875 1224.32 28.875H1217.46C1215.82 28.875 1215 28.0547 1215 26.4141V25.1836C1215 23.8945 1214.36 23.25 1213.07 23.25H1211.84C1210.2 23.25 1209.38 22.4297 1209.38 20.7891V20.0859C1209.38 18.4453 1210.2 17.625 1211.84 17.625H1213.07C1214.36 17.625 1215 16.9805 1215 15.6914V14.4609C1215 12.8203 1215.82 12 1217.46 12H1223.79C1225.43 12 1226.25 12.8203 1226.25 14.4609V15.6914C1226.25 16.9805 1226.89 17.625 1228.18 17.625H1229.41C1231.05 17.625 1231.88 18.4453 1231.88 20.0859V48.9141C1231.88 50.5547 1231.05 51.375 1229.41 51.375H1228.18C1226.89 51.375 1226.25 52.0195 1226.25 53.3086V54.5391C1226.25 56.1797 1225.43 57 1223.79 57H1217.46C1215.82 57 1215 56.1797 1215 54.5391V53.3086C1215 52.0195 1214.36 51.375 1213.07 51.375H1211.84C1210.2 51.375 1209.38 50.5547 1209.38 48.9141V42.0586C1209.38 40.7695 1208.73 40.125 1207.44 40.125H1200.06C1198.77 40.125 1198.12 40.7695 1198.12 42.0586V54.5391C1198.12 56.1797 1197.3 57 1195.66 57H1194.96C1193.32 57 1192.5 56.1797 1192.5 54.5391V42.5859ZM1215 21.3164C1215 22.6055 1215.64 23.25 1216.93 23.25H1224.32C1225.61 23.25 1226.25 22.6055 1226.25 21.3164V19.5586C1226.25 18.2695 1225.61 17.625 1224.32 17.625H1216.93C1215.64 17.625 1215 18.2695 1215 19.5586V21.3164ZM1237.5 25.7109C1237.5 24.0703 1238.32 23.25 1239.96 23.25H1241.19C1242.48 23.25 1243.12 22.6055 1243.12 21.3164V20.0859C1243.12 18.4453 1243.95 17.625 1245.59 17.625H1251.91C1253.55 17.625 1254.38 18.4453 1254.38 20.0859V21.3164C1254.38 22.6055 1255.02 23.25 1256.31 23.25H1257.54C1259.18 23.25 1260 24.0703 1260 25.7109V32.0391C1260 33.6797 1259.18 34.5 1257.54 34.5H1256.31C1255.02 34.5 1254.38 35.1445 1254.38 36.4336V37.6641C1254.38 39.3047 1253.55 40.125 1251.91 40.125H1245.06C1243.77 40.125 1243.12 40.7695 1243.12 42.0586V49.4414C1243.12 50.7305 1243.77 51.375 1245.06 51.375H1251.91C1253.55 51.375 1254.38 52.1953 1254.38 53.8359V54.5391C1254.38 56.1797 1253.55 57 1251.91 57H1245.59C1243.95 57 1243.12 56.1797 1243.12 54.5391V53.3086C1243.12 52.0195 1242.48 51.375 1241.19 51.375H1239.96C1238.32 51.375 1237.5 50.5547 1237.5 48.9141V25.7109ZM1243.12 32.5664C1243.12 33.8555 1243.77 34.5 1245.06 34.5H1252.44C1253.73 34.5 1254.38 33.8555 1254.38 32.5664V25.1836C1254.38 23.8945 1253.73 23.25 1252.44 23.25H1245.06C1243.77 23.25 1243.12 23.8945 1243.12 25.1836V32.5664ZM1290.59 34.5C1288.95 34.5 1288.12 33.6797 1288.12 32.0391V31.3359C1288.12 29.6953 1288.95 28.875 1290.59 28.875H1303.07C1304.36 28.875 1305 28.2305 1305 26.9414V25.1836C1305 23.8945 1304.36 23.25 1303.07 23.25H1290.59C1288.95 23.25 1288.12 22.4297 1288.12 20.7891V20.0859C1288.12 18.4453 1288.95 17.625 1290.59 17.625H1319.94C1321.23 17.625 1321.88 16.9805 1321.88 15.6914V8.83594C1321.88 7.19531 1322.7 6.375 1324.34 6.375H1325.04C1326.68 6.375 1327.5 7.19531 1327.5 8.83594V20.7891C1327.5 22.4297 1326.68 23.25 1325.04 23.25H1312.56C1311.27 23.25 1310.62 23.8945 1310.62 25.1836V26.9414C1310.62 28.2305 1311.27 28.875 1312.56 28.875H1325.04C1326.68 28.875 1327.5 29.6953 1327.5 31.3359V32.0391C1327.5 33.6797 1326.68 34.5 1325.04 34.5H1323.81C1322.52 34.5 1321.88 35.1445 1321.88 36.4336V48.9141C1321.88 50.5547 1321.05 51.375 1319.41 51.375H1318.18C1316.89 51.375 1316.25 52.0195 1316.25 53.3086V54.5391C1316.25 56.1797 1315.43 57 1313.79 57H1301.84C1300.2 57 1299.38 56.1797 1299.38 54.5391V53.3086C1299.38 52.0195 1298.73 51.375 1297.44 51.375H1296.21C1294.57 51.375 1293.75 50.5547 1293.75 48.9141V36.4336C1293.75 35.1445 1293.11 34.5 1291.82 34.5H1290.59ZM1299.38 49.4414C1299.38 50.7305 1300.02 51.375 1301.31 51.375H1314.32C1315.61 51.375 1316.25 50.7305 1316.25 49.4414V36.4336C1316.25 35.1445 1315.61 34.5 1314.32 34.5H1301.31C1300.02 34.5 1299.38 35.1445 1299.38 36.4336V49.4414ZM1333.12 42.5859C1333.12 40.9453 1333.95 40.125 1335.59 40.125H1336.82C1338.11 40.125 1338.75 39.4805 1338.75 38.1914V36.9609C1338.75 35.3203 1339.57 34.5 1341.21 34.5H1347.54C1349.18 34.5 1350 35.3203 1350 36.9609V38.1914C1350 39.4805 1350.64 40.125 1351.93 40.125H1353.16C1354.8 40.125 1355.62 40.9453 1355.62 42.5859V49.4414C1355.62 50.7305 1356.27 51.375 1357.56 51.375H1364.94C1366.23 51.375 1366.88 50.7305 1366.88 49.4414V25.1836C1366.88 23.8945 1366.23 23.25 1364.94 23.25H1335.59C1333.95 23.25 1333.12 22.4297 1333.12 20.7891V20.0859C1333.12 18.4453 1333.95 17.625 1335.59 17.625H1370.57C1371.86 17.625 1372.5 16.9805 1372.5 15.6914V8.83594C1372.5 7.19531 1373.32 6.375 1374.96 6.375H1375.66C1377.3 6.375 1378.12 7.19531 1378.12 8.83594V20.7891C1378.12 22.4297 1377.3 23.25 1375.66 23.25H1374.43C1373.14 23.25 1372.5 23.8945 1372.5 25.1836V48.9141C1372.5 50.5547 1371.68 51.375 1370.04 51.375H1368.81C1367.52 51.375 1366.88 52.0195 1366.88 53.3086V54.5391C1366.88 56.1797 1366.05 57 1364.41 57H1358.09C1356.45 57 1355.62 56.1797 1355.62 54.5391V53.3086C1355.62 52.0195 1354.98 51.375 1353.69 51.375H1352.46C1350.82 51.375 1350 50.5547 1350 48.9141V42.0586C1350 40.7695 1349.36 40.125 1348.07 40.125H1340.68C1339.39 40.125 1338.75 40.7695 1338.75 42.0586V54.5391C1338.75 56.1797 1337.93 57 1336.29 57H1335.59C1333.95 57 1333.12 56.1797 1333.12 54.5391V42.5859ZM1378.12 48.2109C1378.12 46.5703 1378.95 45.75 1380.59 45.75H1381.29C1382.93 45.75 1383.75 46.5703 1383.75 48.2109V60.6914C1383.75 61.9805 1384.39 62.625 1385.68 62.625H1386.91C1388.55 62.625 1389.38 63.4453 1389.38 65.0859V66.3164C1389.38 67.6055 1390.02 68.25 1391.31 68.25H1392.54C1394.18 68.25 1395 69.0703 1395 70.7109V77.0391C1395 78.6797 1394.18 79.5 1392.54 79.5H1391.84C1390.2 79.5 1389.38 78.6797 1389.38 77.0391V70.1836C1389.38 68.8945 1388.73 68.25 1387.44 68.25H1385.68C1384.39 68.25 1383.75 68.8945 1383.75 70.1836V77.0391C1383.75 78.6797 1382.93 79.5 1381.29 79.5H1369.34C1367.7 79.5 1366.88 78.6797 1366.88 77.0391V75.8086C1366.88 74.5195 1366.23 73.875 1364.94 73.875H1363.71C1362.07 73.875 1361.25 73.0547 1361.25 71.4141V70.7109C1361.25 69.0703 1362.07 68.25 1363.71 68.25H1364.94C1366.23 68.25 1366.88 67.6055 1366.88 66.3164V65.0859C1366.88 63.4453 1367.7 62.625 1369.34 62.625H1376.19C1377.48 62.625 1378.12 61.9805 1378.12 60.6914V48.2109ZM1366.88 71.9414C1366.88 73.2305 1367.52 73.875 1368.81 73.875H1376.19C1377.48 73.875 1378.12 73.2305 1378.12 71.9414V70.1836C1378.12 68.8945 1377.48 68.25 1376.19 68.25H1368.81C1367.52 68.25 1366.88 68.8945 1366.88 70.1836V71.9414ZM1389.38 20.0859C1389.38 18.4453 1390.2 17.625 1391.84 17.625H1432.44C1433.73 17.625 1434.38 16.9805 1434.38 15.6914V8.83594C1434.38 7.19531 1435.2 6.375 1436.84 6.375H1437.54C1439.18 6.375 1440 7.19531 1440 8.83594V20.7891C1440 22.4297 1439.18 23.25 1437.54 23.25H1436.31C1435.02 23.25 1434.38 23.8945 1434.38 25.1836V32.0391C1434.38 33.6797 1433.55 34.5 1431.91 34.5H1430.68C1429.39 34.5 1428.75 35.1445 1428.75 36.4336V38.1914C1428.75 39.4805 1429.39 40.125 1430.68 40.125H1431.91C1433.55 40.125 1434.38 40.9453 1434.38 42.5859V48.9141C1434.38 50.5547 1433.55 51.375 1431.91 51.375H1430.68C1429.39 51.375 1428.75 52.0195 1428.75 53.3086V54.5391C1428.75 56.1797 1427.93 57 1426.29 57H1419.96C1418.32 57 1417.5 56.1797 1417.5 54.5391V53.3086C1417.5 52.0195 1416.86 51.375 1415.57 51.375H1413.81C1412.52 51.375 1411.88 52.0195 1411.88 53.3086V54.5391C1411.88 56.1797 1411.05 57 1409.41 57H1403.09C1401.45 57 1400.62 56.1797 1400.62 54.5391V53.3086C1400.62 52.0195 1399.98 51.375 1398.69 51.375H1397.46C1395.82 51.375 1395 50.5547 1395 48.9141V25.1836C1395 23.8945 1394.36 23.25 1393.07 23.25H1391.84C1390.2 23.25 1389.38 22.4297 1389.38 20.7891V20.0859ZM1400.62 49.4414C1400.62 50.7305 1401.27 51.375 1402.56 51.375H1409.94C1411.23 51.375 1411.88 50.7305 1411.88 49.4414V42.5859C1411.88 40.9453 1412.7 40.125 1414.34 40.125H1415.04C1416.68 40.125 1417.5 40.9453 1417.5 42.5859V49.4414C1417.5 50.7305 1418.14 51.375 1419.43 51.375H1426.82C1428.11 51.375 1428.75 50.7305 1428.75 49.4414V42.0586C1428.75 40.7695 1428.11 40.125 1426.82 40.125H1425.59C1423.95 40.125 1423.12 39.3047 1423.12 37.6641V36.9609C1423.12 35.3203 1423.95 34.5 1425.59 34.5H1426.82C1428.11 34.5 1428.75 33.8555 1428.75 32.5664V25.1836C1428.75 23.8945 1428.11 23.25 1426.82 23.25H1402.56C1401.27 23.25 1400.62 23.8945 1400.62 25.1836V49.4414ZM1445.62 36.9609C1445.62 35.3203 1446.45 34.5 1448.09 34.5H1454.41C1456.05 34.5 1456.88 35.3203 1456.88 36.9609V37.6641C1456.88 39.3047 1456.05 40.125 1454.41 40.125H1453.18C1451.89 40.125 1451.25 40.7695 1451.25 42.0586V49.4414C1451.25 50.7305 1451.89 51.375 1453.18 51.375H1460.57C1461.86 51.375 1462.5 50.7305 1462.5 49.4414V42.5859C1462.5 40.9453 1463.32 40.125 1464.96 40.125H1465.66C1467.3 40.125 1468.12 40.9453 1468.12 42.5859V49.4414C1468.12 50.7305 1468.77 51.375 1470.06 51.375H1477.44C1478.73 51.375 1479.38 50.7305 1479.38 49.4414V25.1836C1479.38 23.8945 1478.73 23.25 1477.44 23.25H1448.09C1446.45 23.25 1445.62 22.4297 1445.62 20.7891V20.0859C1445.62 18.4453 1446.45 17.625 1448.09 17.625H1505.04C1506.68 17.625 1507.5 18.4453 1507.5 20.0859V21.3164C1507.5 22.6055 1508.14 23.25 1509.43 23.25H1510.66C1512.3 23.25 1513.12 24.0703 1513.12 25.7109V48.9141C1513.12 50.5547 1512.3 51.375 1510.66 51.375H1509.43C1508.14 51.375 1507.5 52.0195 1507.5 53.3086V54.5391C1507.5 56.1797 1506.68 57 1505.04 57H1498.71C1497.07 57 1496.25 56.1797 1496.25 54.5391V53.3086C1496.25 52.0195 1495.61 51.375 1494.32 51.375H1493.09C1491.45 51.375 1490.62 50.5547 1490.62 48.9141V42.5859C1490.62 40.9453 1491.45 40.125 1493.09 40.125H1494.32C1495.61 40.125 1496.25 39.4805 1496.25 38.1914V36.9609C1496.25 35.3203 1497.07 34.5 1498.71 34.5H1505.57C1506.86 34.5 1507.5 33.8555 1507.5 32.5664V25.1836C1507.5 23.8945 1506.86 23.25 1505.57 23.25H1486.93C1485.64 23.25 1485 23.8945 1485 25.1836V48.9141C1485 50.5547 1484.18 51.375 1482.54 51.375H1481.31C1480.02 51.375 1479.38 52.0195 1479.38 53.3086V54.5391C1479.38 56.1797 1478.55 57 1476.91 57H1470.59C1468.95 57 1468.12 56.1797 1468.12 54.5391V53.3086C1468.12 52.0195 1467.48 51.375 1466.19 51.375H1464.43C1463.14 51.375 1462.5 52.0195 1462.5 53.3086V54.5391C1462.5 56.1797 1461.68 57 1460.04 57H1453.71C1452.07 57 1451.25 56.1797 1451.25 54.5391V53.3086C1451.25 52.0195 1450.61 51.375 1449.32 51.375H1448.09C1446.45 51.375 1445.62 50.5547 1445.62 48.9141V36.9609ZM1496.25 49.4414C1496.25 50.7305 1496.89 51.375 1498.18 51.375H1505.57C1506.86 51.375 1507.5 50.7305 1507.5 49.4414V42.0586C1507.5 40.7695 1506.86 40.125 1505.57 40.125H1498.18C1496.89 40.125 1496.25 40.7695 1496.25 42.0586V49.4414ZM1518.75 31.3359C1518.75 29.6953 1519.57 28.875 1521.21 28.875H1522.44C1523.73 28.875 1524.38 28.2305 1524.38 26.9414V20.0859C1524.38 18.4453 1525.2 17.625 1526.84 17.625H1528.07C1529.36 17.625 1530 16.9805 1530 15.6914V14.4609C1530 12.8203 1530.82 12 1532.46 12H1538.79C1540.43 12 1541.25 12.8203 1541.25 14.4609V15.6914C1541.25 16.9805 1541.89 17.625 1543.18 17.625H1544.41C1546.05 17.625 1546.88 18.4453 1546.88 20.0859V54.5391C1546.88 56.1797 1546.05 57 1544.41 57H1543.71C1542.07 57 1541.25 56.1797 1541.25 54.5391V30.8086C1541.25 29.5195 1540.61 28.875 1539.32 28.875H1526.31C1525.02 28.875 1524.38 29.5195 1524.38 30.8086V54.5391C1524.38 56.1797 1523.55 57 1521.91 57H1521.21C1519.57 57 1518.75 56.1797 1518.75 54.5391V31.3359ZM1530 21.3164C1530 22.6055 1530.64 23.25 1531.93 23.25H1539.32C1540.61 23.25 1541.25 22.6055 1541.25 21.3164V19.5586C1541.25 18.2695 1540.61 17.625 1539.32 17.625H1531.93C1530.64 17.625 1530 18.2695 1530 19.5586V21.3164ZM1558.12 25.1836C1558.12 23.8945 1557.48 23.25 1556.19 23.25H1554.96C1553.32 23.25 1552.5 22.4297 1552.5 20.7891V20.0859C1552.5 18.4453 1553.32 17.625 1554.96 17.625H1584.32C1585.61 17.625 1586.25 16.9805 1586.25 15.6914V8.83594C1586.25 7.19531 1587.07 6.375 1588.71 6.375H1589.41C1591.05 6.375 1591.88 7.19531 1591.88 8.83594V20.7891C1591.88 22.4297 1591.05 23.25 1589.41 23.25H1588.18C1586.89 23.25 1586.25 23.8945 1586.25 25.1836V49.4414C1586.25 50.7305 1586.89 51.375 1588.18 51.375H1606.82C1608.11 51.375 1608.75 50.7305 1608.75 49.4414V25.1836C1608.75 23.8945 1608.11 23.25 1606.82 23.25H1605.59C1603.95 23.25 1603.12 22.4297 1603.12 20.7891V20.0859C1603.12 18.4453 1603.95 17.625 1605.59 17.625H1606.29C1607.93 17.625 1608.75 18.4453 1608.75 20.0859V21.3164C1608.75 22.6055 1609.39 23.25 1610.68 23.25H1611.91C1613.55 23.25 1614.38 24.0703 1614.38 25.7109V48.9141C1614.38 50.5547 1613.55 51.375 1611.91 51.375H1610.68C1609.39 51.375 1608.75 52.0195 1608.75 53.3086V54.5391C1608.75 56.1797 1607.93 57 1606.29 57H1588.71C1587.07 57 1586.25 56.1797 1586.25 54.5391V53.3086C1586.25 52.0195 1585.61 51.375 1584.32 51.375H1582.56C1581.27 51.375 1580.62 52.0195 1580.62 53.3086V54.5391C1580.62 56.1797 1579.8 57 1578.16 57H1566.21C1564.57 57 1563.75 56.1797 1563.75 54.5391V53.3086C1563.75 52.0195 1563.11 51.375 1561.82 51.375H1560.59C1558.95 51.375 1558.12 50.5547 1558.12 48.9141V25.1836ZM1563.75 49.4414C1563.75 50.7305 1564.39 51.375 1565.68 51.375H1578.69C1579.98 51.375 1580.62 50.7305 1580.62 49.4414V25.1836C1580.62 23.8945 1579.98 23.25 1578.69 23.25H1565.68C1564.39 23.25 1563.75 23.8945 1563.75 25.1836V49.4414ZM1620 48.2109C1620 46.5703 1620.82 45.75 1622.46 45.75H1623.16C1624.8 45.75 1625.62 46.5703 1625.62 48.2109V54.5391C1625.62 56.1797 1624.8 57 1623.16 57H1622.46C1620.82 57 1620 56.1797 1620 54.5391V48.2109Z" fill="black"/>
</svg>
