<svg width="1639" height="76" viewBox="0 0 1639 76" fill="none" xmlns="http://www.w3.org/2000/svg">
<path d="M20.436 41.503V35.833C20.73 35.623 21.066 35.455 21.444 35.329C21.864 35.203 22.305 35.14 22.767 35.14C23.229 35.14 23.628 35.203 23.964 35.329C24.342 35.455 24.678 35.623 24.972 35.833V41.503H20.436ZM44.754 34.825C44.754 39.823 43.641 43.519 41.415 45.913C39.189 48.307 36.207 49.504 32.469 49.504C30.243 49.504 28.248 49.063 26.484 48.181C24.762 47.257 23.418 45.955 22.452 44.275C21.486 42.553 21.003 40.516 21.003 38.164H24.972C24.972 40.6 25.686 42.406 27.114 43.582C28.542 44.758 30.285 45.346 32.343 45.346C34.569 45.346 36.396 44.527 37.824 42.889C39.252 41.209 39.966 38.542 39.966 34.888C39.966 31.234 39.084 28 37.32 25.186C35.598 22.372 33.225 20.167 30.201 18.571C27.219 16.975 23.796 16.177 19.932 16.177C18.126 16.177 16.551 16.324 15.207 16.618C13.905 16.87 12.771 17.206 11.805 17.626C11.553 17.332 11.343 17.017 11.175 16.681C11.007 16.345 10.923 15.967 10.923 15.547C10.923 14.497 11.7 13.657 13.254 13.027C14.85 12.397 17.181 12.082 20.247 12.082C23.817 12.082 27.093 12.67 30.075 13.846C33.057 14.98 35.64 16.597 37.824 18.697C40.05 20.755 41.751 23.17 42.927 25.942C44.145 28.672 44.754 31.633 44.754 34.825ZM4.938 38.353C4.938 40.495 5.61 42.196 6.954 43.456C8.34 44.716 10.146 45.346 12.372 45.346C14.64 45.346 16.551 44.737 18.105 43.519C19.659 42.259 20.436 40.474 20.436 38.164H24.342C24.342 40.516 23.796 42.553 22.704 44.275C21.654 45.955 20.205 47.257 18.357 48.181C16.551 49.063 14.493 49.504 12.183 49.504C8.613 49.504 5.715 48.496 3.489 46.48C1.263 44.464 0.15 41.755 0.15 38.353C0.15 36.337 0.549 34.552 1.347 32.998C2.187 31.444 3.384 30.226 4.938 29.344C6.492 28.462 8.34 28.021 10.482 28.021C11.952 28.021 13.044 28.294 13.758 28.84C14.514 29.344 14.892 29.974 14.892 30.73C14.892 31.234 14.766 31.696 14.514 32.116C14.304 32.494 14.031 32.788 13.695 32.998C13.275 32.788 12.792 32.62 12.246 32.494C11.742 32.326 11.154 32.242 10.482 32.242C9.012 32.242 7.71 32.746 6.576 33.754C5.484 34.72 4.938 36.253 4.938 38.353ZM98.3955 17.311H79.7475C79.6215 17.059 79.4955 16.765 79.3695 16.429C79.2855 16.093 79.2435 15.715 79.2435 15.295C79.2435 14.539 79.4535 14.014 79.8735 13.72C80.2935 13.426 80.8395 13.279 81.5115 13.279H98.3955V17.311ZM64.4385 30.226C63.2205 30.226 62.0865 30.058 61.0365 29.722C60.0285 29.386 59.1255 28.903 58.3275 28.273C57.5715 27.601 56.9835 26.824 56.5635 25.942C56.1435 25.018 55.9335 23.989 55.9335 22.855C55.9335 20.923 56.2905 19.222 57.0045 17.752C57.7185 16.24 58.6635 15.001 59.8395 14.035C61.0575 13.027 62.4015 12.355 63.8715 12.019C65.6775 12.019 67.2945 12.439 68.7225 13.279C70.1505 14.077 71.2845 15.169 72.1245 16.555C72.9645 17.941 73.3845 19.537 73.3845 21.343C73.3845 23.065 73.0065 24.598 72.2505 25.942C71.4945 27.286 70.4445 28.336 69.1005 29.092C67.7565 29.848 66.2025 30.226 64.4385 30.226ZM63.7455 26.068C65.2155 26.068 66.4125 25.606 67.3365 24.682C68.2605 23.758 68.7225 22.645 68.7225 21.343C68.7225 19.873 68.2605 18.655 67.3365 17.689C66.4545 16.681 65.2575 16.177 63.7455 16.177C62.2755 16.177 61.0575 16.66 60.0915 17.626C59.1255 18.55 58.6425 19.747 58.6425 21.217C58.6425 22.645 59.1255 23.821 60.0915 24.745C61.0995 25.627 62.3175 26.068 63.7455 26.068ZM74.0775 45.283C76.8495 45.283 79.4745 44.695 81.9525 43.519C84.4305 42.343 86.4466 40.579 88.0006 38.227C89.5546 35.875 90.3316 32.914 90.3316 29.344C90.3316 26.278 89.7225 23.569 88.5045 21.217C87.2865 18.823 85.4175 17.227 82.8975 16.429L88.5676 15.421C89.7855 16.135 90.8775 17.143 91.8435 18.445C92.8515 19.705 93.6495 21.259 94.2375 23.107C94.8255 24.913 95.1195 27.013 95.1195 29.407C95.1195 33.565 94.1955 37.156 92.3476 40.18C90.5415 43.162 88.0425 45.472 84.8505 47.11C81.7005 48.706 78.0885 49.504 74.0145 49.504C69.6045 49.504 65.7405 48.601 62.4225 46.795C59.1465 44.989 56.6055 42.49 54.7995 39.298C52.9935 36.106 52.0905 32.431 52.0905 28.273C52.0905 24.913 52.5735 22.036 53.5395 19.642C54.5475 17.206 55.9335 15.337 57.6975 14.035C59.4615 12.691 61.5195 12.019 63.8715 12.019L57.6975 19.957C57.3195 21.301 57.0255 22.582 56.8155 23.8C56.6475 25.018 56.5635 26.551 56.5635 28.399C56.5635 31.759 57.3405 34.72 58.8945 37.282C60.4485 39.802 62.5485 41.776 65.1945 43.204C67.8405 44.59 70.8015 45.283 74.0775 45.283ZM105.389 38.668C105.389 40.642 106.103 42.238 107.531 43.456C109.001 44.674 110.807 45.283 112.949 45.283C115.721 45.283 117.968 44.233 119.69 42.133C121.412 40.033 122.273 37.135 122.273 33.439C122.273 28.147 120.719 24.136 117.611 21.406C114.503 18.676 110.345 17.311 105.137 17.311H90.8355V13.279H106.712C110.492 13.279 113.915 14.098 116.981 15.736C120.089 17.374 122.546 19.705 124.352 22.729C126.158 25.711 127.061 29.281 127.061 33.439C127.061 37.009 126.431 39.991 125.171 42.385C123.911 44.737 122.21 46.522 120.068 47.74C117.926 48.916 115.511 49.504 112.823 49.504C110.681 49.504 108.686 49.063 106.838 48.181C104.99 47.299 103.499 46.039 102.365 44.401C101.231 42.763 100.664 40.81 100.664 38.542C100.664 36.358 101.126 34.531 102.05 33.061C103.016 31.591 104.234 30.478 105.704 29.722C107.216 28.966 108.749 28.588 110.303 28.588C111.689 28.588 112.718 28.84 113.39 29.344C114.104 29.806 114.461 30.394 114.461 31.108C114.461 31.864 114.251 32.494 113.831 32.998C113.369 32.872 112.949 32.788 112.571 32.746C112.235 32.704 111.857 32.683 111.437 32.683C109.883 32.683 108.476 33.166 107.216 34.132C105.998 35.098 105.389 36.61 105.389 38.668ZM115.527 73.003C114.687 73.003 113.763 72.625 112.755 71.869C111.747 71.113 110.886 70.021 110.172 68.593C109.458 67.207 109.101 65.548 109.101 63.616C109.101 61.222 109.857 59.248 111.369 57.694C112.839 56.182 114.729 55.426 117.039 55.426C118.551 55.426 119.874 55.741 121.008 56.371C122.1 57.001 122.961 57.883 123.591 59.017C124.179 60.151 124.473 61.495 124.473 63.049L121.575 63.238C121.575 61.852 121.176 60.718 120.378 59.836C119.58 58.954 118.53 58.513 117.228 58.513C115.842 58.513 114.729 58.996 113.889 59.962C113.049 60.928 112.629 62.167 112.629 63.679C112.629 65.653 113.133 67.228 114.141 68.404C115.107 69.58 116.178 70.441 117.354 70.987C117.354 71.491 117.207 71.953 116.913 72.373C116.577 72.793 116.115 73.003 115.527 73.003ZM124.914 67.459C124.704 67.627 124.452 67.753 124.158 67.837C123.864 67.963 123.549 68.026 123.213 68.026C122.499 68.026 121.953 67.837 121.575 67.459V58.828H124.914V67.459ZM130.962 73.003C130.374 73.003 129.933 72.793 129.639 72.373C129.303 71.953 129.135 71.491 129.135 70.987C130.311 70.441 131.382 69.58 132.348 68.404C133.356 67.228 133.86 65.653 133.86 63.679C133.86 62.125 133.44 60.865 132.6 59.899C131.76 58.975 130.647 58.513 129.261 58.513C127.959 58.513 126.909 58.954 126.111 59.836C125.313 60.718 124.914 61.852 124.914 63.238L122.016 63.049C122.016 61.495 122.331 60.151 122.961 59.017C123.549 57.883 124.41 57.001 125.544 56.371C126.678 55.741 127.98 55.426 129.45 55.426C131.76 55.426 133.65 56.182 135.12 57.694C136.632 59.206 137.388 61.18 137.388 63.616C137.388 65.548 137.031 67.207 136.317 68.593C135.603 70.021 134.742 71.113 133.734 71.869C132.768 72.625 131.844 73.003 130.962 73.003ZM146.271 49.504C144.087 49.504 142.029 49 140.097 47.992C138.207 46.984 136.653 45.43 135.435 43.33C134.259 41.23 133.671 38.563 133.671 35.329C133.671 32.221 134.238 29.365 135.372 26.761C136.548 24.115 138.102 21.889 140.034 20.083C141.966 18.277 144.108 17.08 146.46 16.492L153.642 17.185C150.744 17.521 148.161 18.529 145.893 20.209C143.625 21.889 141.819 23.989 140.475 26.509C139.173 29.029 138.522 31.78 138.522 34.762C138.522 38.458 139.341 41.146 140.979 42.826C142.617 44.506 144.528 45.346 146.712 45.346C148.686 45.346 150.261 44.779 151.437 43.645C152.613 42.511 153.201 40.663 153.201 38.101H157.107C157.107 41.629 156.204 44.422 154.398 46.48C152.592 48.496 149.883 49.504 146.271 49.504ZM153.201 41.692V35.77C153.537 35.56 153.894 35.392 154.272 35.266C154.65 35.14 155.049 35.077 155.469 35.077C155.931 35.077 156.351 35.14 156.729 35.266C157.107 35.392 157.443 35.56 157.737 35.77V41.692H153.201ZM164.982 49.504C162.714 49.504 160.74 49.042 159.06 48.118C157.38 47.194 156.078 45.892 155.154 44.212C154.272 42.49 153.831 40.453 153.831 38.101H157.737C157.737 40.327 158.346 42.091 159.564 43.393C160.824 44.695 162.546 45.346 164.73 45.346C166.998 45.346 168.846 44.527 170.274 42.889C171.702 41.251 172.416 38.584 172.416 34.888C172.416 31.906 171.765 29.134 170.463 26.572C169.161 24.01 167.376 21.889 165.108 20.209C162.84 18.529 160.236 17.521 157.296 17.185L164.478 16.492C166.83 17.08 168.972 18.298 170.904 20.146C172.836 21.994 174.369 24.241 175.503 26.887C176.679 29.533 177.267 32.368 177.267 35.392C177.267 38.584 176.721 41.23 175.629 43.33C174.579 45.43 173.13 46.984 171.282 47.992C169.434 49 167.334 49.504 164.982 49.504ZM168.573 17.311H134.175C134.049 17.059 133.923 16.765 133.797 16.429C133.713 16.093 133.671 15.715 133.671 15.295C133.671 14.539 133.881 14.014 134.301 13.72C134.721 13.426 135.267 13.279 135.939 13.279H167.817C169.497 13.279 170.736 12.859 171.534 12.019C172.332 11.179 172.731 10.066 172.731 8.68C172.731 7.84 172.605 7.042 172.353 6.286C172.143 5.53 171.807 4.816 171.345 4.144C171.555 3.724 171.87 3.388 172.29 3.136C172.71 2.842 173.193 2.695 173.739 2.695C174.831 2.695 175.692 3.325 176.322 4.585C176.952 5.845 177.267 7.315 177.267 8.995C177.267 11.809 176.469 13.909 174.873 15.295C173.277 16.639 171.177 17.311 168.573 17.311ZM192.806 16.681L212.21 16.744C214.016 17.542 215.549 18.76 216.809 20.398C218.111 22.036 219.098 23.863 219.77 25.879C220.484 27.853 220.841 29.848 220.841 31.864C220.841 35.602 220.043 38.794 218.447 41.44C216.851 44.086 214.688 46.102 211.958 47.488C209.228 48.832 206.162 49.504 202.76 49.504C199.4 49.504 196.355 48.769 193.625 47.299C190.937 45.829 188.795 43.771 187.199 41.125C185.603 38.479 184.805 35.392 184.805 31.864C184.805 28.63 185.477 25.627 186.821 22.855C188.207 20.083 190.202 18.025 192.806 16.681ZM202.823 17.311C200.387 17.311 198.161 17.92 196.145 19.138C194.129 20.314 192.533 21.973 191.357 24.115C190.181 26.257 189.593 28.756 189.593 31.612C189.593 34.342 190.16 36.736 191.294 38.794C192.428 40.852 193.982 42.448 195.956 43.582C197.972 44.716 200.282 45.283 202.886 45.283C206.918 45.283 210.11 44.086 212.462 41.692C214.856 39.298 216.053 35.938 216.053 31.612C216.053 28.756 215.465 26.257 214.289 24.115C213.113 21.973 211.517 20.314 209.501 19.138C207.527 17.92 205.301 17.311 202.823 17.311ZM212.966 17.311H209.186L202.193 16.996L193.058 17.311H183.986C183.86 17.059 183.734 16.765 183.608 16.429C183.524 16.093 183.482 15.715 183.482 15.295C183.482 14.539 183.692 14.014 184.112 13.72C184.532 13.426 185.078 13.279 185.75 13.279H212.21C213.89 13.279 215.129 12.859 215.927 12.019C216.725 11.179 217.124 10.066 217.124 8.68C217.124 7.84 216.998 7.042 216.746 6.286C216.536 5.53 216.2 4.816 215.738 4.144C215.948 3.724 216.263 3.388 216.683 3.136C217.103 2.842 217.586 2.695 218.132 2.695C219.224 2.695 220.085 3.325 220.715 4.585C221.345 5.845 221.66 7.315 221.66 8.995C221.66 11.809 220.862 13.909 219.266 15.295C217.67 16.639 215.57 17.311 212.966 17.311ZM226.713 49.504C224.235 49.504 222.093 48.874 220.287 47.614C218.481 46.354 217.284 44.8 216.696 42.952C217.032 42.238 217.494 41.692 218.082 41.314C218.67 40.894 219.342 40.663 220.098 40.621C220.686 42.427 221.589 43.666 222.807 44.338C224.025 44.968 225.285 45.283 226.587 45.283C228.351 45.283 229.758 44.716 230.808 43.582C231.858 42.448 232.383 40.6 232.383 38.038C232.383 36.904 232.341 35.77 232.257 34.636C232.173 33.46 232.131 32.284 232.131 31.108C232.131 27.874 232.593 25.081 233.517 22.729C234.441 20.335 235.722 18.34 237.36 16.744C238.998 15.148 240.867 13.972 242.967 13.216C245.067 12.418 247.314 12.019 249.708 12.019C253.572 12.019 256.869 12.859 259.599 14.539C262.371 16.219 264.471 18.529 265.899 21.469C267.369 24.409 268.104 27.769 268.104 31.549C268.104 35.539 267.495 38.878 266.277 41.566C265.101 44.212 263.442 46.207 261.3 47.551C259.2 48.853 256.764 49.504 253.992 49.504C252.018 49.504 250.17 49.084 248.448 48.244C246.726 47.404 245.34 46.207 244.29 44.653C243.24 43.099 242.715 41.23 242.715 39.046C242.715 36.904 243.156 35.098 244.038 33.628C244.962 32.158 246.138 31.066 247.566 30.352C248.994 29.596 250.464 29.218 251.976 29.218C253.488 29.218 254.538 29.512 255.126 30.1C255.756 30.646 256.071 31.255 256.071 31.927C256.071 32.599 255.882 33.166 255.504 33.628C255.042 33.502 254.622 33.418 254.244 33.376C253.908 33.334 253.53 33.313 253.11 33.313C251.43 33.313 250.065 33.859 249.015 34.951C247.965 36.043 247.44 37.45 247.44 39.172C247.44 41.02 248.049 42.511 249.267 43.645C250.527 44.737 252.081 45.283 253.929 45.283C256.743 45.283 259.011 44.128 260.733 41.818C262.455 39.466 263.316 36.043 263.316 31.549C263.316 26.845 262.14 23.086 259.788 20.272C257.436 17.458 254.076 16.051 249.708 16.051C247.188 16.051 244.941 16.66 242.967 17.878C241.035 19.054 239.502 20.776 238.368 23.044C237.234 25.312 236.667 28.105 236.667 31.423C236.667 32.641 236.709 33.88 236.793 35.14C236.877 36.358 236.919 37.576 236.919 38.794C236.919 42.406 235.995 45.094 234.147 46.858C232.299 48.622 229.821 49.504 226.713 49.504ZM312.529 49.315C310.135 49.315 308.035 48.958 306.229 48.244C304.465 47.53 303.079 46.522 302.071 45.22C301.105 43.876 300.622 42.301 300.622 40.495C300.622 38.773 301.084 37.261 302.008 35.959C302.932 34.615 304.255 33.565 305.977 32.809C307.699 32.053 309.757 31.675 312.151 31.675C315.007 31.675 317.695 32.347 320.215 33.691C322.735 34.993 324.877 36.841 326.641 39.235L327.901 41.251C328.741 42.721 329.392 44.254 329.854 45.85C330.358 47.446 330.61 48.769 330.61 49.819C330.61 50.785 330.442 51.499 330.106 51.961C329.77 52.465 329.245 52.717 328.531 52.717C328.027 52.717 327.586 52.675 327.208 52.591C326.83 52.549 326.536 52.444 326.326 52.276C326.326 51.142 326.179 49.84 325.885 48.37C325.633 46.858 325.276 45.514 324.814 44.338L323.554 41.755C322.378 40.117 320.782 38.731 318.766 37.597C316.75 36.421 314.566 35.833 312.214 35.833C310.114 35.833 308.455 36.274 307.237 37.156C306.019 37.996 305.41 39.109 305.41 40.495C305.41 41.881 306.019 42.994 307.237 43.834C308.497 44.674 310.303 45.094 312.655 45.094C314.629 45.094 316.645 44.695 318.703 43.897C320.803 43.099 322.525 41.944 323.869 40.432L325.444 38.668C326.956 37.03 328.132 35.098 328.972 32.872C329.812 30.604 330.232 28.168 330.232 25.564C330.232 22.792 329.476 20.545 327.964 18.823C326.494 17.101 324.646 16.24 322.42 16.24C320.404 16.24 318.766 16.933 317.506 18.319C316.246 19.705 315.616 21.574 315.616 23.926H311.962C311.962 21.448 312.403 19.327 313.285 17.563C314.209 15.799 315.469 14.434 317.065 13.468C318.703 12.502 320.551 12.019 322.609 12.019C324.961 12.019 327.061 12.607 328.909 13.783C330.799 14.917 332.29 16.513 333.382 18.571C334.474 20.587 335.02 22.96 335.02 25.69C335.02 28.84 334.348 31.948 333.004 35.014C331.66 38.038 329.917 40.579 327.775 42.637L326.2 44.212C324.142 45.892 322.063 47.173 319.963 48.055C317.863 48.895 315.385 49.315 312.529 49.315ZM311.206 18.193H315.616V25.312C315.322 25.522 314.986 25.69 314.608 25.816C314.23 25.942 313.831 26.005 313.411 26.005C312.991 26.005 312.592 25.942 312.214 25.816C311.878 25.69 311.542 25.522 311.206 25.312V18.193ZM303.457 12.019C305.557 12.019 307.468 12.502 309.19 13.468C310.912 14.434 312.277 15.799 313.285 17.563C314.335 19.327 314.86 21.448 314.86 23.926H311.206C311.206 22.372 310.849 21.028 310.135 19.894C309.463 18.76 308.56 17.878 307.426 17.248C306.334 16.576 305.137 16.24 303.835 16.24C301.861 16.24 300.223 16.87 298.921 18.13C297.619 19.348 296.968 20.965 296.968 22.981C296.968 23.821 297.073 24.64 297.283 25.438C297.535 26.194 297.892 26.887 298.354 27.517C298.06 28.021 297.703 28.399 297.283 28.651C296.905 28.903 296.485 29.029 296.023 29.029C294.847 29.029 293.902 28.462 293.188 27.328C292.516 26.194 292.18 24.682 292.18 22.792C292.18 20.692 292.663 18.844 293.629 17.248C294.595 15.61 295.918 14.329 297.598 13.405C299.32 12.481 301.273 12.019 303.457 12.019ZM350.491 16.681L369.895 16.744C371.701 17.542 373.234 18.76 374.494 20.398C375.796 22.036 376.783 23.863 377.455 25.879C378.169 27.853 378.526 29.848 378.526 31.864C378.526 35.602 377.728 38.794 376.132 41.44C374.536 44.086 372.373 46.102 369.643 47.488C366.913 48.832 363.847 49.504 360.445 49.504C357.085 49.504 354.04 48.769 351.31 47.299C348.622 45.829 346.48 43.771 344.884 41.125C343.288 38.479 342.49 35.392 342.49 31.864C342.49 28.63 343.162 25.627 344.506 22.855C345.892 20.083 347.887 18.025 350.491 16.681ZM360.508 17.311C358.072 17.311 355.846 17.92 353.83 19.138C351.814 20.314 350.218 21.973 349.042 24.115C347.866 26.257 347.278 28.756 347.278 31.612C347.278 34.342 347.845 36.736 348.979 38.794C350.113 40.852 351.667 42.448 353.641 43.582C355.657 44.716 357.967 45.283 360.571 45.283C364.603 45.283 367.795 44.086 370.147 41.692C372.541 39.298 373.738 35.938 373.738 31.612C373.738 28.756 373.15 26.257 371.974 24.115C370.798 21.973 369.202 20.314 367.186 19.138C365.212 17.92 362.986 17.311 360.508 17.311ZM370.651 17.311H366.871L359.878 16.996L350.743 17.311H341.671C341.545 17.059 341.419 16.765 341.293 16.429C341.209 16.093 341.167 15.715 341.167 15.295C341.167 14.539 341.377 14.014 341.797 13.72C342.217 13.426 342.763 13.279 343.435 13.279H369.895C371.575 13.279 372.814 12.859 373.612 12.019C374.41 11.179 374.809 10.066 374.809 8.68C374.809 7.84 374.683 7.042 374.431 6.286C374.221 5.53 373.885 4.816 373.423 4.144C373.633 3.724 373.948 3.388 374.368 3.136C374.788 2.842 375.271 2.695 375.817 2.695C376.909 2.695 377.77 3.325 378.4 4.585C379.03 5.845 379.345 7.315 379.345 8.995C379.345 11.809 378.547 13.909 376.951 15.295C375.355 16.639 373.255 17.311 370.651 17.311ZM374.065 43.267C374.065 42.553 374.359 41.86 374.947 41.188C375.493 40.516 376.207 40.117 377.089 39.991C377.803 41.293 379.063 42.511 380.869 43.645C382.633 44.737 384.712 45.283 387.106 45.283C390.256 45.283 392.818 44.149 394.792 41.881C396.766 39.571 397.753 36.379 397.753 32.305C397.753 28.777 397.186 25.858 396.052 23.548C394.918 21.196 393.49 19.348 391.768 18.004C390.046 16.66 388.282 15.736 386.476 15.232C386.476 14.308 386.665 13.552 387.043 12.964C387.421 12.334 388.135 12.019 389.185 12.019C390.193 12.019 391.453 12.439 392.965 13.279C394.477 14.077 395.947 15.316 397.375 16.996C398.845 18.676 400.063 20.797 401.029 23.359C402.037 25.921 402.541 28.945 402.541 32.431C402.541 35.959 401.89 39.004 400.588 41.566C399.286 44.128 397.501 46.102 395.233 47.488C392.965 48.832 390.361 49.504 387.421 49.504C385.153 49.504 383.137 49.189 381.373 48.559C379.609 47.929 378.139 47.131 376.963 46.165C375.745 45.199 374.779 44.233 374.065 43.267ZM448.147 41.503V35.833C448.441 35.623 448.777 35.455 449.155 35.329C449.575 35.203 450.016 35.14 450.478 35.14C450.94 35.14 451.339 35.203 451.675 35.329C452.053 35.455 452.389 35.623 452.683 35.833V41.503H448.147ZM472.465 34.825C472.465 39.823 471.352 43.519 469.126 45.913C466.9 48.307 463.918 49.504 460.18 49.504C457.954 49.504 455.959 49.063 454.195 48.181C452.473 47.257 451.129 45.955 450.163 44.275C449.197 42.553 448.714 40.516 448.714 38.164H452.683C452.683 40.6 453.397 42.406 454.825 43.582C456.253 44.758 457.996 45.346 460.054 45.346C462.28 45.346 464.107 44.527 465.535 42.889C466.963 41.209 467.677 38.542 467.677 34.888C467.677 31.234 466.795 28 465.031 25.186C463.309 22.372 460.936 20.167 457.912 18.571C454.93 16.975 451.507 16.177 447.643 16.177C445.837 16.177 444.262 16.324 442.918 16.618C441.616 16.87 440.482 17.206 439.516 17.626C439.264 17.332 439.054 17.017 438.886 16.681C438.718 16.345 438.634 15.967 438.634 15.547C438.634 14.497 439.411 13.657 440.965 13.027C442.561 12.397 444.892 12.082 447.958 12.082C451.528 12.082 454.804 12.67 457.786 13.846C460.768 14.98 463.351 16.597 465.535 18.697C467.761 20.755 469.462 23.17 470.638 25.942C471.856 28.672 472.465 31.633 472.465 34.825ZM432.649 38.353C432.649 40.495 433.321 42.196 434.665 43.456C436.051 44.716 437.857 45.346 440.083 45.346C442.351 45.346 444.262 44.737 445.816 43.519C447.37 42.259 448.147 40.474 448.147 38.164H452.053C452.053 40.516 451.507 42.553 450.415 44.275C449.365 45.955 447.916 47.257 446.068 48.181C444.262 49.063 442.204 49.504 439.894 49.504C436.324 49.504 433.426 48.496 431.2 46.48C428.974 44.464 427.861 41.755 427.861 38.353C427.861 36.337 428.26 34.552 429.058 32.998C429.898 31.444 431.095 30.226 432.649 29.344C434.203 28.462 436.051 28.021 438.193 28.021C439.663 28.021 440.755 28.294 441.469 28.84C442.225 29.344 442.603 29.974 442.603 30.73C442.603 31.234 442.477 31.696 442.225 32.116C442.015 32.494 441.742 32.788 441.406 32.998C440.986 32.788 440.503 32.62 439.957 32.494C439.453 32.326 438.865 32.242 438.193 32.242C436.723 32.242 435.421 32.746 434.287 33.754C433.195 34.72 432.649 36.253 432.649 38.353ZM494.829 49.504C491.469 49.504 488.529 48.769 486.009 47.299C483.489 45.787 481.536 43.687 480.15 40.999C478.764 38.269 478.071 35.119 478.071 31.549C478.071 27.895 478.764 24.724 480.15 22.036C481.536 19.306 483.489 17.185 486.009 15.673C488.529 14.161 491.469 13.405 494.829 13.405C498.189 13.405 501.129 14.161 503.649 15.673C506.169 17.185 508.122 19.306 509.508 22.036C510.894 24.724 511.587 27.895 511.587 31.549C511.587 35.119 510.894 38.269 509.508 40.999C508.122 43.687 506.169 45.787 503.649 47.299C501.129 48.769 498.189 49.504 494.829 49.504ZM494.829 45.283C497.223 45.283 499.323 44.716 501.129 43.582C502.935 42.406 504.321 40.789 505.287 38.731C506.295 36.631 506.799 34.216 506.799 31.486C506.799 28.714 506.295 26.299 505.287 24.241C504.321 22.141 502.935 20.524 501.129 19.39C499.323 18.214 497.223 17.626 494.829 17.626C492.435 17.626 490.335 18.214 488.529 19.39C486.723 20.524 485.316 22.141 484.308 24.241C483.342 26.299 482.859 28.714 482.859 31.486C482.859 34.216 483.342 36.631 484.308 38.731C485.316 40.789 486.723 42.406 488.529 43.582C490.335 44.716 492.435 45.283 494.829 45.283ZM563.104 38.668C563.104 40.642 563.818 42.238 565.246 43.456C566.716 44.674 568.522 45.283 570.664 45.283C573.436 45.283 575.683 44.233 577.405 42.133C579.127 40.033 579.988 37.135 579.988 33.439C579.988 28.147 578.434 24.136 575.326 21.406C572.218 18.676 568.06 17.311 562.852 17.311H548.551V13.279H564.427C568.207 13.279 571.63 14.098 574.696 15.736C577.804 17.374 580.261 19.705 582.067 22.729C583.873 25.711 584.776 29.281 584.776 33.439C584.776 37.009 584.146 39.991 582.886 42.385C581.626 44.737 579.925 46.522 577.783 47.74C575.641 48.916 573.226 49.504 570.538 49.504C568.396 49.504 566.401 49.063 564.553 48.181C562.705 47.299 561.214 46.039 560.08 44.401C558.946 42.763 558.379 40.81 558.379 38.542C558.379 36.358 558.841 34.531 559.765 33.061C560.731 31.591 561.949 30.478 563.419 29.722C564.931 28.966 566.464 28.588 568.018 28.588C569.404 28.588 570.433 28.84 571.105 29.344C571.819 29.806 572.176 30.394 572.176 31.108C572.176 31.864 571.966 32.494 571.546 32.998C571.084 32.872 570.664 32.788 570.286 32.746C569.95 32.704 569.572 32.683 569.152 32.683C567.598 32.683 566.191 33.166 564.931 34.132C563.713 35.098 563.104 36.61 563.104 38.668ZM536.707 49.504C533.809 49.504 531.205 49.084 528.895 48.244C526.627 47.404 524.695 46.27 523.099 44.842C521.503 43.372 520.285 41.734 519.445 39.928C518.605 38.08 518.185 36.19 518.185 34.258C518.185 33.04 518.458 32.2 519.004 31.738C519.592 31.234 520.243 30.982 520.957 30.982C521.293 30.982 521.587 31.024 521.839 31.108C522.091 31.15 522.343 31.213 522.595 31.297C522.595 34.405 523.204 37.009 524.422 39.109C525.64 41.167 527.32 42.721 529.462 43.771C531.604 44.779 534.061 45.283 536.833 45.283C540.151 45.283 542.776 44.527 544.708 43.015C546.682 41.461 547.669 39.508 547.669 37.156C547.669 35.518 547.207 34.111 546.283 32.935C545.401 31.759 544.288 30.898 542.944 30.352L545.212 27.328C547.27 28.126 548.992 29.365 550.378 31.045C551.764 32.725 552.457 34.909 552.457 37.597C552.457 40.033 551.785 42.154 550.441 43.96C549.097 45.724 547.228 47.089 544.834 48.055C542.482 49.021 539.773 49.504 536.707 49.504ZM534.817 32.935C530.995 32.935 529.084 31.822 529.084 29.596C529.084 28.756 529.294 28 529.714 27.328H535.636C537.988 27.328 539.71 26.908 540.802 26.068C541.936 25.186 542.503 23.905 542.503 22.225C542.503 21.091 542.167 19.978 541.495 18.886C540.865 17.794 539.878 17.08 538.534 16.744L543.07 16.24C544.372 16.786 545.38 17.626 546.094 18.76C546.808 19.894 547.165 21.133 547.165 22.477C547.165 23.779 546.976 24.871 546.598 25.753C546.262 26.593 545.926 27.244 545.59 27.706C545.422 27.958 545.17 28.336 544.834 28.84C544.54 29.302 544.288 29.638 544.078 29.848C543.154 30.688 541.915 31.423 540.361 32.053C538.849 32.641 537.001 32.935 534.817 32.935ZM555.481 17.311H519.067C518.941 17.059 518.815 16.765 518.689 16.429C518.605 16.093 518.563 15.715 518.563 15.295C518.563 14.539 518.773 14.014 519.193 13.72C519.613 13.426 520.159 13.279 520.831 13.279H555.481V17.311ZM603.697 49.504C601.513 49.504 599.455 49 597.523 47.992C595.633 46.984 594.079 45.43 592.861 43.33C591.685 41.23 591.097 38.563 591.097 35.329C591.097 32.221 591.664 29.365 592.798 26.761C593.974 24.115 595.528 21.889 597.46 20.083C599.392 18.277 601.534 17.08 603.886 16.492L611.068 17.185C608.17 17.521 605.587 18.529 603.319 20.209C601.051 21.889 599.245 23.989 597.901 26.509C596.599 29.029 595.948 31.78 595.948 34.762C595.948 38.458 596.767 41.146 598.405 42.826C600.043 44.506 601.954 45.346 604.138 45.346C606.112 45.346 607.687 44.779 608.863 43.645C610.039 42.511 610.627 40.663 610.627 38.101H614.533C614.533 41.629 613.63 44.422 611.824 46.48C610.018 48.496 607.309 49.504 603.697 49.504ZM610.627 41.692V35.77C610.963 35.56 611.32 35.392 611.698 35.266C612.076 35.14 612.475 35.077 612.895 35.077C613.357 35.077 613.777 35.14 614.155 35.266C614.533 35.392 614.869 35.56 615.163 35.77V41.692H610.627ZM622.408 49.504C620.14 49.504 618.166 49.042 616.486 48.118C614.806 47.194 613.504 45.892 612.58 44.212C611.698 42.49 611.257 40.453 611.257 38.101H615.163C615.163 40.327 615.772 42.091 616.99 43.393C618.25 44.695 619.972 45.346 622.156 45.346C624.424 45.346 626.272 44.527 627.7 42.889C629.128 41.251 629.842 38.584 629.842 34.888C629.842 31.906 629.191 29.134 627.889 26.572C626.587 24.01 624.802 21.889 622.534 20.209C620.266 18.529 617.662 17.521 614.722 17.185L621.904 16.492C624.256 17.08 626.398 18.298 628.33 20.146C630.262 21.994 631.795 24.241 632.929 26.887C634.105 29.533 634.693 32.368 634.693 35.392C634.693 38.584 634.147 41.23 633.055 43.33C632.005 45.43 630.556 46.984 628.708 47.992C626.86 49 624.76 49.504 622.408 49.504ZM625.999 17.311H591.601C591.475 17.059 591.349 16.765 591.223 16.429C591.139 16.093 591.097 15.715 591.097 15.295C591.097 14.539 591.307 14.014 591.727 13.72C592.147 13.426 592.693 13.279 593.365 13.279H625.243C626.923 13.279 628.162 12.859 628.96 12.019C629.758 11.179 630.157 10.066 630.157 8.68C630.157 7.84 630.031 7.042 629.779 6.286C629.569 5.53 629.233 4.816 628.771 4.144C628.981 3.724 629.296 3.388 629.716 3.136C630.136 2.842 630.619 2.695 631.165 2.695C632.257 2.695 633.118 3.325 633.748 4.585C634.378 5.845 634.693 7.315 634.693 8.995C634.693 11.809 633.895 13.909 632.299 15.295C630.703 16.639 628.603 17.311 625.999 17.311ZM650.233 16.681L669.637 16.744C671.443 17.542 672.976 18.76 674.236 20.398C675.538 22.036 676.525 23.863 677.197 25.879C677.911 27.853 678.268 29.848 678.268 31.864C678.268 35.602 677.47 38.794 675.874 41.44C674.278 44.086 672.115 46.102 669.385 47.488C666.655 48.832 663.589 49.504 660.187 49.504C656.827 49.504 653.782 48.769 651.052 47.299C648.364 45.829 646.222 43.771 644.626 41.125C643.03 38.479 642.232 35.392 642.232 31.864C642.232 28.63 642.904 25.627 644.248 22.855C645.634 20.083 647.629 18.025 650.233 16.681ZM660.25 17.311C657.814 17.311 655.588 17.92 653.572 19.138C651.556 20.314 649.96 21.973 648.784 24.115C647.608 26.257 647.02 28.756 647.02 31.612C647.02 34.342 647.587 36.736 648.721 38.794C649.855 40.852 651.409 42.448 653.383 43.582C655.399 44.716 657.709 45.283 660.313 45.283C664.345 45.283 667.537 44.086 669.889 41.692C672.283 39.298 673.48 35.938 673.48 31.612C673.48 28.756 672.892 26.257 671.716 24.115C670.54 21.973 668.944 20.314 666.928 19.138C664.954 17.92 662.728 17.311 660.25 17.311ZM670.393 17.311H666.613L659.62 16.996L650.485 17.311H641.413C641.287 17.059 641.161 16.765 641.035 16.429C640.951 16.093 640.909 15.715 640.909 15.295C640.909 14.539 641.119 14.014 641.539 13.72C641.959 13.426 642.505 13.279 643.177 13.279H669.637C671.317 13.279 672.556 12.859 673.354 12.019C674.152 11.179 674.551 10.066 674.551 8.68C674.551 7.84 674.425 7.042 674.173 6.286C673.963 5.53 673.627 4.816 673.165 4.144C673.375 3.724 673.69 3.388 674.11 3.136C674.53 2.842 675.013 2.695 675.559 2.695C676.651 2.695 677.512 3.325 678.142 4.585C678.772 5.845 679.087 7.315 679.087 8.995C679.087 11.809 678.289 13.909 676.693 15.295C675.097 16.639 672.997 17.311 670.393 17.311ZM673.808 43.267C673.808 42.553 674.102 41.86 674.69 41.188C675.236 40.516 675.95 40.117 676.832 39.991C677.546 41.293 678.806 42.511 680.612 43.645C682.376 44.737 684.455 45.283 686.849 45.283C689.999 45.283 692.561 44.149 694.535 41.881C696.509 39.571 697.496 36.379 697.496 32.305C697.496 28.777 696.929 25.858 695.795 23.548C694.661 21.196 693.233 19.348 691.511 18.004C689.789 16.66 688.025 15.736 686.219 15.232C686.219 14.308 686.408 13.552 686.786 12.964C687.164 12.334 687.878 12.019 688.928 12.019C689.936 12.019 691.196 12.439 692.708 13.279C694.22 14.077 695.69 15.316 697.118 16.996C698.588 18.676 699.806 20.797 700.772 23.359C701.78 25.921 702.284 28.945 702.284 32.431C702.284 35.959 701.633 39.004 700.331 41.566C699.029 44.128 697.244 46.102 694.976 47.488C692.708 48.832 690.104 49.504 687.164 49.504C684.896 49.504 682.88 49.189 681.116 48.559C679.352 47.929 677.882 47.131 676.706 46.165C675.488 45.199 674.522 44.233 673.808 43.267ZM747.007 49.315C744.613 49.315 742.513 48.958 740.707 48.244C738.943 47.53 737.557 46.522 736.549 45.22C735.583 43.876 735.1 42.301 735.1 40.495C735.1 38.773 735.562 37.261 736.486 35.959C737.41 34.615 738.733 33.565 740.455 32.809C742.177 32.053 744.235 31.675 746.629 31.675C749.485 31.675 752.173 32.347 754.693 33.691C757.213 34.993 759.355 36.841 761.119 39.235L762.379 41.251C763.219 42.721 763.87 44.254 764.332 45.85C764.836 47.446 765.088 48.769 765.088 49.819C765.088 50.785 764.92 51.499 764.584 51.961C764.248 52.465 763.723 52.717 763.009 52.717C762.505 52.717 762.064 52.675 761.686 52.591C761.308 52.549 761.014 52.444 760.804 52.276C760.804 51.142 760.657 49.84 760.363 48.37C760.111 46.858 759.754 45.514 759.292 44.338L758.032 41.755C756.856 40.117 755.26 38.731 753.244 37.597C751.228 36.421 749.044 35.833 746.692 35.833C744.592 35.833 742.933 36.274 741.715 37.156C740.497 37.996 739.888 39.109 739.888 40.495C739.888 41.881 740.497 42.994 741.715 43.834C742.975 44.674 744.781 45.094 747.133 45.094C749.107 45.094 751.123 44.695 753.181 43.897C755.281 43.099 757.003 41.944 758.347 40.432L759.922 38.668C761.434 37.03 762.61 35.098 763.45 32.872C764.29 30.604 764.71 28.168 764.71 25.564C764.71 22.792 763.954 20.545 762.442 18.823C760.972 17.101 759.124 16.24 756.898 16.24C754.882 16.24 753.244 16.933 751.984 18.319C750.724 19.705 750.094 21.574 750.094 23.926H746.44C746.44 21.448 746.881 19.327 747.763 17.563C748.687 15.799 749.947 14.434 751.543 13.468C753.181 12.502 755.029 12.019 757.087 12.019C759.439 12.019 761.539 12.607 763.387 13.783C765.277 14.917 766.768 16.513 767.86 18.571C768.952 20.587 769.498 22.96 769.498 25.69C769.498 28.84 768.826 31.948 767.482 35.014C766.138 38.038 764.395 40.579 762.253 42.637L760.678 44.212C758.62 45.892 756.541 47.173 754.441 48.055C752.341 48.895 749.863 49.315 747.007 49.315ZM745.684 18.193H750.094V25.312C749.8 25.522 749.464 25.69 749.086 25.816C748.708 25.942 748.309 26.005 747.889 26.005C747.469 26.005 747.07 25.942 746.692 25.816C746.356 25.69 746.02 25.522 745.684 25.312V18.193ZM737.935 12.019C740.035 12.019 741.946 12.502 743.668 13.468C745.39 14.434 746.755 15.799 747.763 17.563C748.813 19.327 749.338 21.448 749.338 23.926H745.684C745.684 22.372 745.327 21.028 744.613 19.894C743.941 18.76 743.038 17.878 741.904 17.248C740.812 16.576 739.615 16.24 738.313 16.24C736.339 16.24 734.701 16.87 733.399 18.13C732.097 19.348 731.446 20.965 731.446 22.981C731.446 23.821 731.551 24.64 731.761 25.438C732.013 26.194 732.37 26.887 732.832 27.517C732.538 28.021 732.181 28.399 731.761 28.651C731.383 28.903 730.963 29.029 730.501 29.029C729.325 29.029 728.38 28.462 727.666 27.328C726.994 26.194 726.658 24.682 726.658 22.792C726.658 20.692 727.141 18.844 728.107 17.248C729.073 15.61 730.396 14.329 732.076 13.405C733.798 12.481 735.751 12.019 737.935 12.019ZM784.97 16.681L804.374 16.744C806.18 17.542 807.713 18.76 808.973 20.398C810.275 22.036 811.262 23.863 811.934 25.879C812.648 27.853 813.005 29.848 813.005 31.864C813.005 35.602 812.207 38.794 810.611 41.44C809.015 44.086 806.852 46.102 804.122 47.488C801.392 48.832 798.326 49.504 794.924 49.504C791.564 49.504 788.519 48.769 785.789 47.299C783.101 45.829 780.959 43.771 779.363 41.125C777.767 38.479 776.969 35.392 776.969 31.864C776.969 28.63 777.641 25.627 778.985 22.855C780.371 20.083 782.366 18.025 784.97 16.681ZM794.987 17.311C792.551 17.311 790.325 17.92 788.309 19.138C786.293 20.314 784.697 21.973 783.521 24.115C782.345 26.257 781.757 28.756 781.757 31.612C781.757 34.342 782.324 36.736 783.458 38.794C784.592 40.852 786.146 42.448 788.12 43.582C790.136 44.716 792.446 45.283 795.05 45.283C799.082 45.283 802.274 44.086 804.626 41.692C807.02 39.298 808.217 35.938 808.217 31.612C808.217 28.756 807.629 26.257 806.453 24.115C805.277 21.973 803.681 20.314 801.665 19.138C799.691 17.92 797.465 17.311 794.987 17.311ZM805.13 17.311H801.35L794.357 16.996L785.222 17.311H776.15C776.024 17.059 775.898 16.765 775.772 16.429C775.688 16.093 775.646 15.715 775.646 15.295C775.646 14.539 775.856 14.014 776.276 13.72C776.696 13.426 777.242 13.279 777.914 13.279H804.374C806.054 13.279 807.293 12.859 808.091 12.019C808.889 11.179 809.288 10.066 809.288 8.68C809.288 7.84 809.162 7.042 808.91 6.286C808.7 5.53 808.364 4.816 807.902 4.144C808.112 3.724 808.427 3.388 808.847 3.136C809.267 2.842 809.75 2.695 810.296 2.695C811.388 2.695 812.249 3.325 812.879 4.585C813.509 5.845 813.824 7.315 813.824 8.995C813.824 11.809 813.026 13.909 811.43 15.295C809.834 16.639 807.734 17.311 805.13 17.311ZM808.544 43.267C808.544 42.553 808.838 41.86 809.426 41.188C809.972 40.516 810.686 40.117 811.568 39.991C812.282 41.293 813.542 42.511 815.348 43.645C817.112 44.737 819.191 45.283 821.585 45.283C824.735 45.283 827.297 44.149 829.271 41.881C831.245 39.571 832.232 36.379 832.232 32.305C832.232 28.777 831.665 25.858 830.531 23.548C829.397 21.196 827.969 19.348 826.247 18.004C824.525 16.66 822.761 15.736 820.955 15.232C820.955 14.308 821.144 13.552 821.522 12.964C821.9 12.334 822.614 12.019 823.664 12.019C824.672 12.019 825.932 12.439 827.444 13.279C828.956 14.077 830.426 15.316 831.854 16.996C833.324 18.676 834.542 20.797 835.508 23.359C836.516 25.921 837.02 28.945 837.02 32.431C837.02 35.959 836.369 39.004 835.067 41.566C833.765 44.128 831.98 46.102 829.712 47.488C827.444 48.832 824.84 49.504 821.9 49.504C819.632 49.504 817.616 49.189 815.852 48.559C814.088 47.929 812.618 47.131 811.442 46.165C810.224 45.199 809.258 44.233 808.544 43.267ZM882.625 41.503V35.833C882.919 35.623 883.255 35.455 883.633 35.329C884.053 35.203 884.494 35.14 884.956 35.14C885.418 35.14 885.817 35.203 886.153 35.329C886.531 35.455 886.867 35.623 887.161 35.833V41.503H882.625ZM906.943 34.825C906.943 39.823 905.83 43.519 903.604 45.913C901.378 48.307 898.396 49.504 894.658 49.504C892.432 49.504 890.437 49.063 888.673 48.181C886.951 47.257 885.607 45.955 884.641 44.275C883.675 42.553 883.192 40.516 883.192 38.164H887.161C887.161 40.6 887.875 42.406 889.303 43.582C890.731 44.758 892.474 45.346 894.532 45.346C896.758 45.346 898.585 44.527 900.013 42.889C901.441 41.209 902.155 38.542 902.155 34.888C902.155 31.234 901.273 28 899.509 25.186C897.787 22.372 895.414 20.167 892.39 18.571C889.408 16.975 885.985 16.177 882.121 16.177C880.315 16.177 878.74 16.324 877.396 16.618C876.094 16.87 874.96 17.206 873.994 17.626C873.742 17.332 873.532 17.017 873.364 16.681C873.196 16.345 873.112 15.967 873.112 15.547C873.112 14.497 873.889 13.657 875.443 13.027C877.039 12.397 879.37 12.082 882.436 12.082C886.006 12.082 889.282 12.67 892.264 13.846C895.246 14.98 897.829 16.597 900.013 18.697C902.239 20.755 903.94 23.17 905.116 25.942C906.334 28.672 906.943 31.633 906.943 34.825ZM867.127 38.353C867.127 40.495 867.799 42.196 869.143 43.456C870.529 44.716 872.335 45.346 874.561 45.346C876.829 45.346 878.74 44.737 880.294 43.519C881.848 42.259 882.625 40.474 882.625 38.164H886.531C886.531 40.516 885.985 42.553 884.893 44.275C883.843 45.955 882.394 47.257 880.546 48.181C878.74 49.063 876.682 49.504 874.372 49.504C870.802 49.504 867.904 48.496 865.678 46.48C863.452 44.464 862.339 41.755 862.339 38.353C862.339 36.337 862.738 34.552 863.536 32.998C864.376 31.444 865.573 30.226 867.127 29.344C868.681 28.462 870.529 28.021 872.671 28.021C874.141 28.021 875.233 28.294 875.947 28.84C876.703 29.344 877.081 29.974 877.081 30.73C877.081 31.234 876.955 31.696 876.703 32.116C876.493 32.494 876.22 32.788 875.884 32.998C875.464 32.788 874.981 32.62 874.435 32.494C873.931 32.326 873.343 32.242 872.671 32.242C871.201 32.242 869.899 32.746 868.765 33.754C867.673 34.72 867.127 36.253 867.127 38.353ZM929.308 49.504C925.948 49.504 923.008 48.769 920.488 47.299C917.968 45.787 916.015 43.687 914.629 40.999C913.243 38.269 912.55 35.119 912.55 31.549C912.55 27.895 913.243 24.724 914.629 22.036C916.015 19.306 917.968 17.185 920.488 15.673C923.008 14.161 925.948 13.405 929.308 13.405C932.668 13.405 935.608 14.161 938.128 15.673C940.648 17.185 942.601 19.306 943.987 22.036C945.373 24.724 946.066 27.895 946.066 31.549C946.066 35.119 945.373 38.269 943.987 40.999C942.601 43.687 940.648 45.787 938.128 47.299C935.608 48.769 932.668 49.504 929.308 49.504ZM929.308 45.283C931.702 45.283 933.802 44.716 935.608 43.582C937.414 42.406 938.8 40.789 939.766 38.731C940.774 36.631 941.278 34.216 941.278 31.486C941.278 28.714 940.774 26.299 939.766 24.241C938.8 22.141 937.414 20.524 935.608 19.39C933.802 18.214 931.702 17.626 929.308 17.626C926.914 17.626 924.814 18.214 923.008 19.39C921.202 20.524 919.795 22.141 918.787 24.241C917.821 26.299 917.338 28.714 917.338 31.486C917.338 34.216 917.821 36.631 918.787 38.731C919.795 40.789 921.202 42.406 923.008 43.582C924.814 44.716 926.914 45.283 929.308 45.283ZM965.578 49.504C963.394 49.504 961.336 49 959.404 47.992C957.514 46.984 955.96 45.43 954.742 43.33C953.566 41.23 952.978 38.563 952.978 35.329C952.978 32.221 953.545 29.365 954.679 26.761C955.855 24.115 957.409 21.889 959.341 20.083C961.273 18.277 963.415 17.08 965.767 16.492L972.949 17.185C970.051 17.521 967.468 18.529 965.2 20.209C962.932 21.889 961.126 23.989 959.782 26.509C958.48 29.029 957.829 31.78 957.829 34.762C957.829 38.458 958.648 41.146 960.286 42.826C961.924 44.506 963.835 45.346 966.019 45.346C967.993 45.346 969.568 44.779 970.744 43.645C971.92 42.511 972.508 40.663 972.508 38.101H976.414C976.414 41.629 975.511 44.422 973.705 46.48C971.899 48.496 969.19 49.504 965.578 49.504ZM972.508 41.692V35.77C972.844 35.56 973.201 35.392 973.579 35.266C973.957 35.14 974.356 35.077 974.776 35.077C975.238 35.077 975.658 35.14 976.036 35.266C976.414 35.392 976.75 35.56 977.044 35.77V41.692H972.508ZM984.289 49.504C982.021 49.504 980.047 49.042 978.367 48.118C976.687 47.194 975.385 45.892 974.461 44.212C973.579 42.49 973.138 40.453 973.138 38.101H977.044C977.044 40.327 977.653 42.091 978.871 43.393C980.131 44.695 981.853 45.346 984.037 45.346C986.305 45.346 988.153 44.527 989.581 42.889C991.009 41.251 991.723 38.584 991.723 34.888C991.723 31.906 991.072 29.134 989.77 26.572C988.468 24.01 986.683 21.889 984.415 20.209C982.147 18.529 979.543 17.521 976.603 17.185L983.785 16.492C986.137 17.08 988.279 18.298 990.211 20.146C992.143 21.994 993.676 24.241 994.81 26.887C995.986 29.533 996.574 32.368 996.574 35.392C996.574 38.584 996.028 41.23 994.936 43.33C993.886 45.43 992.437 46.984 990.589 47.992C988.741 49 986.641 49.504 984.289 49.504ZM985.045 17.311H953.482C953.356 17.059 953.23 16.765 953.104 16.429C953.02 16.093 952.978 15.715 952.978 15.295C952.978 14.539 953.188 14.014 953.608 13.72C954.028 13.426 954.574 13.279 955.246 13.279H985.045V17.311ZM982.21 13.279H986.557C988.531 13.279 990.085 12.859 991.219 12.019C992.353 11.137 992.92 9.919 992.92 8.365C992.92 7.231 992.563 6.328 991.849 5.656C991.177 4.942 990.295 4.585 989.203 4.585C988.279 4.585 987.46 4.858 986.746 5.404C986.032 5.95 985.675 6.79 985.675 7.924C985.675 8.134 985.675 8.344 985.675 8.554C985.717 8.764 985.759 8.953 985.801 9.121C985.675 9.205 985.465 9.31 985.171 9.436C984.877 9.562 984.499 9.625 984.037 9.625C983.239 9.625 982.588 9.394 982.084 8.932C981.622 8.47 981.391 7.735 981.391 6.727C981.391 4.837 982.126 3.346 983.596 2.254C985.066 1.162 986.893 0.616 989.077 0.616C990.589 0.616 991.975 0.930999 993.235 1.561C994.495 2.191 995.482 3.094 996.196 4.27C996.952 5.446 997.33 6.874 997.33 8.554C997.33 10.486 996.889 12.103 996.007 13.405C995.125 14.707 993.886 15.694 992.29 16.366C990.694 16.996 988.846 17.311 986.746 17.311H982.21V13.279ZM1020.85 49.504C1017.49 49.504 1014.55 48.769 1012.03 47.299C1009.51 45.787 1007.56 43.687 1006.18 40.999C1004.79 38.269 1004.1 35.119 1004.1 31.549C1004.1 27.895 1004.79 24.724 1006.18 22.036C1007.56 19.306 1009.51 17.185 1012.03 15.673C1014.55 14.161 1017.49 13.405 1020.85 13.405C1024.21 13.405 1027.15 14.161 1029.67 15.673C1032.19 17.185 1034.15 19.306 1035.53 22.036C1036.92 24.724 1037.61 27.895 1037.61 31.549C1037.61 35.119 1036.92 38.269 1035.53 40.999C1034.15 43.687 1032.19 45.787 1029.67 47.299C1027.15 48.769 1024.21 49.504 1020.85 49.504ZM1020.85 45.283C1023.25 45.283 1025.35 44.716 1027.15 43.582C1028.96 42.406 1030.35 40.789 1031.31 38.731C1032.32 36.631 1032.82 34.216 1032.82 31.486C1032.82 28.714 1032.32 26.299 1031.31 24.241C1030.35 22.141 1028.96 20.524 1027.15 19.39C1025.35 18.214 1023.25 17.626 1020.85 17.626C1018.46 17.626 1016.36 18.214 1014.55 19.39C1012.75 20.524 1011.34 22.141 1010.33 24.241C1009.37 26.299 1008.88 28.714 1008.88 31.486C1008.88 34.216 1009.37 36.631 1010.33 38.731C1011.34 40.789 1012.75 42.406 1014.55 43.582C1016.36 44.716 1018.46 45.283 1020.85 45.283ZM1061.6 1.12C1065.13 1.12 1068.49 1.897 1071.68 3.451C1074.87 5.005 1077.71 7.273 1080.18 10.255C1082.66 13.195 1084.59 16.786 1085.98 21.028C1087.41 25.228 1088.12 30.016 1088.12 35.392C1088.12 38.584 1087.58 41.23 1086.48 43.33C1085.43 45.43 1083.98 46.984 1082.14 47.992C1080.29 49 1078.19 49.504 1075.84 49.504C1073.74 49.504 1071.87 49.105 1070.23 48.307C1068.63 47.467 1067.37 46.312 1066.45 44.842C1065.61 46.312 1064.39 47.467 1062.8 48.307C1061.24 49.105 1059.35 49.504 1057.13 49.504C1054.94 49.504 1052.88 49 1050.95 47.992C1049.06 46.984 1047.51 45.43 1046.29 43.33C1045.11 41.23 1044.53 38.563 1044.53 35.329C1044.53 32.347 1044.97 29.617 1045.85 27.139C1046.77 24.661 1048.01 22.477 1049.57 20.587C1048.77 19.789 1048.03 18.718 1047.36 17.374C1046.73 16.03 1046.42 14.518 1046.42 12.838C1046.42 10.57 1047.02 8.554 1048.24 6.79C1049.5 5.026 1051.27 3.64 1053.53 2.632C1055.84 1.624 1058.53 1.12 1061.6 1.12ZM1061.72 5.152C1058.36 5.152 1055.76 5.866 1053.91 7.294C1052.11 8.68 1051.2 10.486 1051.2 12.712C1051.2 14.56 1051.75 16.135 1052.84 17.437C1054.69 15.967 1056.71 14.833 1058.89 14.035C1061.12 13.237 1063.36 12.838 1065.63 12.838C1069.16 12.838 1072.25 13.489 1074.89 14.791C1077.58 16.093 1079.85 17.731 1081.7 19.705C1080.81 17.983 1079.72 16.282 1078.42 14.602C1077.16 12.88 1075.69 11.305 1074.01 9.877C1072.37 8.449 1070.52 7.315 1068.47 6.475C1066.45 5.593 1064.2 5.152 1061.72 5.152ZM1075.58 45.346C1077.85 45.346 1079.7 44.527 1081.13 42.889C1082.56 41.251 1083.27 38.584 1083.27 34.888C1083.27 31.78 1082.64 28.882 1081.38 26.194C1080.16 23.464 1078.27 21.259 1075.71 19.579C1073.19 17.899 1069.96 17.059 1066.01 17.059C1062.86 17.059 1060.02 17.857 1057.5 19.453C1054.98 21.007 1052.99 23.128 1051.52 25.816C1050.09 28.462 1049.38 31.444 1049.38 34.762C1049.38 38.458 1050.2 41.146 1051.83 42.826C1053.47 44.506 1055.38 45.346 1057.57 45.346C1059.54 45.346 1061.12 44.779 1062.29 43.645C1063.47 42.511 1064.06 40.663 1064.06 38.101V35.77C1064.39 35.56 1064.75 35.392 1065.13 35.266C1065.5 35.14 1065.9 35.077 1066.32 35.077C1066.79 35.077 1067.21 35.14 1067.58 35.266C1067.96 35.392 1068.3 35.56 1068.59 35.77V38.101C1068.59 40.327 1069.2 42.091 1070.42 43.393C1071.68 44.695 1073.4 45.346 1075.58 45.346ZM1144.87 36.778C1144.87 35.812 1144.83 34.867 1144.74 33.943C1144.7 32.977 1144.68 32.032 1144.68 31.108C1144.68 27.874 1145.14 25.081 1146.07 22.729C1146.99 20.335 1148.27 18.34 1149.91 16.744C1151.55 15.148 1153.42 13.972 1155.52 13.216C1157.62 12.418 1159.86 12.019 1162.26 12.019C1166.12 12.019 1169.42 12.859 1172.15 14.539C1174.92 16.219 1177.02 18.529 1178.45 21.469C1179.92 24.409 1180.65 27.769 1180.65 31.549C1180.65 35.539 1180.05 38.878 1178.83 41.566C1177.65 44.212 1175.99 46.207 1173.85 47.551C1171.75 48.853 1169.31 49.504 1166.54 49.504C1164.57 49.504 1162.72 49.084 1161 48.244C1159.28 47.404 1157.89 46.207 1156.84 44.653C1155.79 43.099 1155.27 41.23 1155.27 39.046C1155.27 36.904 1155.71 35.098 1156.59 33.628C1157.51 32.158 1158.69 31.066 1160.12 30.352C1161.54 29.596 1163.01 29.218 1164.53 29.218C1166.04 29.218 1167.09 29.512 1167.68 30.1C1168.31 30.646 1168.62 31.255 1168.62 31.927C1168.62 32.599 1168.43 33.166 1168.05 33.628C1167.59 33.502 1167.17 33.418 1166.79 33.376C1166.46 33.334 1166.08 33.313 1165.66 33.313C1163.98 33.313 1162.62 33.859 1161.57 34.951C1160.52 36.043 1159.99 37.45 1159.99 39.172C1159.99 41.02 1160.6 42.511 1161.82 43.645C1163.08 44.737 1164.63 45.283 1166.48 45.283C1169.29 45.283 1171.56 44.128 1173.28 41.818C1175.01 39.466 1175.87 36.043 1175.87 31.549C1175.87 26.845 1174.69 23.086 1172.34 20.272C1169.99 17.458 1166.63 16.051 1162.26 16.051C1159.74 16.051 1157.49 16.66 1155.52 17.878C1153.59 19.054 1152.05 20.776 1150.92 23.044C1149.78 25.312 1149.22 28.105 1149.22 31.423C1149.22 32.431 1149.24 33.46 1149.28 34.51C1149.36 35.518 1149.41 36.526 1149.41 37.534C1149.41 41.608 1148.31 44.632 1146.13 46.606C1143.99 48.538 1141.15 49.504 1137.63 49.504C1135.23 49.504 1133.22 49.105 1131.58 48.307C1129.98 47.467 1128.85 46.648 1128.18 45.85L1128.81 40.747C1129.77 42.385 1130.99 43.561 1132.46 44.275C1133.93 44.947 1135.44 45.283 1137 45.283C1139.35 45.283 1141.24 44.632 1142.67 43.33C1144.14 42.028 1144.87 39.844 1144.87 36.778ZM1104.93 16.492H1120.3C1121.9 17.416 1123.37 18.823 1124.71 20.713C1126.1 22.561 1127.21 25.186 1128.05 28.588C1128.93 31.948 1129.37 36.358 1129.37 41.818V49.189C1129.12 49.315 1128.81 49.42 1128.43 49.504C1128.09 49.588 1127.69 49.63 1127.23 49.63C1126.39 49.63 1125.78 49.42 1125.4 49C1125.03 48.622 1124.84 48.034 1124.84 47.236V40.684C1124.84 35.896 1124.4 31.759 1123.51 28.273C1122.63 24.745 1121.29 22.036 1119.48 20.146C1117.72 18.256 1115.43 17.311 1112.61 17.311C1109.84 17.311 1107.55 18.319 1105.75 20.335C1103.94 22.351 1102.58 25.123 1101.65 28.651C1100.77 32.179 1100.33 36.232 1100.33 40.81V49.189C1100.08 49.315 1099.76 49.42 1099.38 49.504C1099.05 49.588 1098.65 49.63 1098.19 49.63C1097.35 49.63 1096.74 49.42 1096.36 49C1095.98 48.622 1095.79 48.034 1095.79 47.236V41.881C1095.79 37.681 1096.05 34.132 1096.55 31.234C1097.05 28.294 1097.73 25.879 1098.57 23.989C1099.45 22.057 1100.43 20.503 1101.53 19.327C1102.62 18.151 1103.75 17.206 1104.93 16.492ZM1122.82 17.311H1118.41L1112.55 16.807L1105.5 17.311H1094.85C1094.72 17.059 1094.6 16.765 1094.47 16.429C1094.39 16.093 1094.34 15.715 1094.34 15.295C1094.34 14.539 1094.55 14.014 1094.97 13.72C1095.39 13.426 1095.94 13.279 1096.61 13.279H1122.06C1123.74 13.279 1124.98 12.859 1125.78 12.019C1126.58 11.179 1126.98 10.066 1126.98 8.68C1126.98 7.84 1126.85 7.042 1126.6 6.286C1126.39 5.53 1126.05 4.816 1125.59 4.144C1125.8 3.724 1126.12 3.388 1126.54 3.136C1126.96 2.842 1127.44 2.695 1127.99 2.695C1129.08 2.695 1129.94 3.325 1130.57 4.585C1131.2 5.845 1131.51 7.315 1131.51 8.995C1131.51 11.809 1130.72 13.909 1129.12 15.295C1127.52 16.639 1125.42 17.311 1122.82 17.311ZM1225.11 5.215C1227.29 5.215 1229.5 5.74 1231.72 6.79C1233.99 7.84 1236.13 9.31 1238.15 11.2C1240.21 13.09 1242.03 15.337 1243.63 17.941C1245.23 20.503 1246.49 23.317 1247.41 26.383C1248.33 29.407 1248.8 32.599 1248.8 35.959C1248.8 38.941 1248.29 41.44 1247.28 43.456C1246.32 45.472 1244.95 46.984 1243.19 47.992C1241.47 49 1239.45 49.504 1237.14 49.504C1234.83 49.504 1232.63 48.937 1230.53 47.803C1228.43 46.627 1226.54 44.443 1224.86 41.251L1223.41 38.479C1222.36 36.379 1221.24 34.951 1220.07 34.195C1218.93 33.397 1217.74 32.998 1216.48 32.998C1214.84 32.998 1213.52 33.565 1212.51 34.699C1211.54 35.791 1211.06 37.303 1211.06 39.235C1211.06 40.957 1211.42 42.511 1212.13 43.897C1212.89 45.241 1213.89 46.375 1215.15 47.299C1214.99 47.887 1214.69 48.391 1214.27 48.811C1213.89 49.189 1213.31 49.378 1212.51 49.378C1211.75 49.378 1210.87 49 1209.86 48.244C1208.9 47.446 1208.06 46.291 1207.34 44.779C1206.63 43.267 1206.27 41.44 1206.27 39.298C1206.27 36.862 1206.75 34.888 1207.72 33.376C1208.73 31.822 1209.99 30.667 1211.5 29.911C1213.05 29.155 1214.65 28.777 1216.29 28.777C1219.1 28.777 1221.35 29.449 1223.03 30.793C1224.75 32.137 1226.3 34.111 1227.69 36.715L1229.58 40.243C1230.29 41.587 1231.26 42.784 1232.48 43.834C1233.74 44.842 1235.27 45.346 1237.08 45.346C1239.18 45.346 1240.86 44.527 1242.12 42.889C1243.38 41.251 1244.01 38.899 1244.01 35.833C1244.01 32.221 1243.44 28.903 1242.31 25.879C1241.17 22.855 1239.72 20.209 1237.96 17.941C1236.24 15.673 1234.45 13.888 1232.6 12.586C1232.6 15.4 1231.87 17.479 1230.4 18.823C1228.97 20.125 1226.96 20.776 1224.35 20.776C1222 20.776 1220.03 20.104 1218.43 18.76C1216.83 17.374 1216.04 15.526 1216.04 13.216C1216.04 10.864 1216.88 8.953 1218.56 7.483C1220.28 5.971 1222.46 5.215 1225.11 5.215ZM1220.38 13.09C1220.38 14.35 1220.78 15.358 1221.58 16.114C1222.42 16.828 1223.45 17.185 1224.67 17.185C1225.88 17.185 1226.89 16.828 1227.69 16.114C1228.53 15.4 1228.95 14.413 1228.95 13.153C1228.95 11.935 1228.53 10.948 1227.69 10.192C1226.85 9.394 1225.84 8.995 1224.67 8.995C1223.45 8.995 1222.42 9.373 1221.58 10.129C1220.78 10.885 1220.38 11.872 1220.38 13.09ZM1269.66 49.504C1268.23 49.504 1266.62 49.084 1264.81 48.244C1263.05 47.404 1261.32 46.123 1259.64 44.401C1258.01 42.637 1256.66 40.432 1255.61 37.786C1254.56 35.098 1254.04 31.948 1254.04 28.336C1254.04 24.976 1254.54 22.078 1255.55 19.642C1256.6 17.206 1258.03 15.337 1259.83 14.035C1261.64 12.733 1263.72 12.082 1266.07 12.082L1260.15 20.02C1259.85 20.986 1259.5 22.225 1259.08 23.737C1258.7 25.207 1258.51 26.929 1258.51 28.903C1258.51 31.885 1259.06 34.573 1260.15 36.967C1261.28 39.361 1262.86 41.314 1264.87 42.826C1266.93 44.338 1269.3 45.262 1271.99 45.598C1272.08 45.808 1272.14 46.039 1272.18 46.291C1272.22 46.543 1272.24 46.795 1272.24 47.047C1272.24 47.803 1272.01 48.412 1271.55 48.874C1271.13 49.294 1270.5 49.504 1269.66 49.504ZM1266.51 30.289C1265.04 30.289 1263.63 29.974 1262.29 29.344C1260.99 28.714 1259.92 27.79 1259.08 26.572C1258.24 25.312 1257.82 23.758 1257.82 21.91C1257.82 20.104 1258.24 18.529 1259.08 17.185C1259.92 15.841 1260.97 14.749 1262.23 13.909C1263.49 13.027 1264.77 12.418 1266.07 12.082C1267.79 12.082 1269.37 12.481 1270.8 13.279C1272.27 14.035 1273.44 15.106 1274.32 16.492C1275.21 17.878 1275.65 19.495 1275.65 21.343C1275.65 23.107 1275.25 24.661 1274.45 26.005C1273.69 27.349 1272.62 28.399 1271.24 29.155C1269.89 29.911 1268.32 30.289 1266.51 30.289ZM1266.13 26.131C1267.56 26.131 1268.72 25.69 1269.6 24.808C1270.52 23.884 1270.98 22.75 1270.98 21.406C1270.98 19.936 1270.5 18.718 1269.54 17.752C1268.61 16.744 1267.39 16.24 1265.88 16.24C1264.5 16.24 1263.32 16.723 1262.35 17.689C1261.39 18.613 1260.9 19.81 1260.9 21.28C1260.9 22.708 1261.41 23.884 1262.42 24.808C1263.47 25.69 1264.71 26.131 1266.13 26.131ZM1314.4 26.131V16.303H1318.93V26.131H1314.4ZM1310.24 28.399H1299.47C1299.34 28.147 1299.22 27.853 1299.09 27.517C1299.01 27.181 1298.96 26.803 1298.96 26.383C1298.96 25.627 1299.17 25.102 1299.59 24.808C1300.01 24.514 1300.56 24.367 1301.23 24.367H1334.05C1334.18 24.619 1334.29 24.913 1334.37 25.249C1334.5 25.585 1334.56 25.963 1334.56 26.383C1334.56 27.139 1334.35 27.664 1333.93 27.958C1333.51 28.252 1332.96 28.399 1332.29 28.399H1321.2L1316.79 27.832L1310.24 28.399ZM1309.36 27.454L1324.42 27.706C1326.52 28.378 1328.2 29.596 1329.46 31.36C1330.72 33.082 1331.35 35.056 1331.35 37.282C1331.35 39.676 1330.74 41.797 1329.52 43.645C1328.3 45.493 1326.6 46.942 1324.42 47.992C1322.27 49 1319.75 49.504 1316.86 49.504C1314.13 49.504 1311.65 49.021 1309.42 48.055C1307.2 47.089 1305.43 45.703 1304.13 43.897C1302.83 42.049 1302.18 39.865 1302.18 37.345C1302.18 34.741 1302.87 32.62 1304.26 30.982C1305.68 29.302 1307.38 28.126 1309.36 27.454ZM1316.79 28.273C1313.94 28.273 1311.52 29.05 1309.55 30.604C1307.57 32.158 1306.59 34.321 1306.59 37.093C1306.59 38.857 1307.05 40.39 1307.97 41.692C1308.94 42.952 1310.22 43.939 1311.82 44.653C1313.41 45.325 1315.18 45.661 1317.11 45.661C1319.96 45.661 1322.32 44.884 1324.16 43.33C1326.01 41.734 1326.94 39.655 1326.94 37.093C1326.94 35.329 1326.47 33.796 1325.55 32.494C1324.63 31.15 1323.39 30.121 1321.83 29.407C1320.32 28.651 1318.64 28.273 1316.79 28.273ZM1301.23 13.279H1325.11C1326.79 13.279 1328.03 12.859 1328.83 12.019C1329.62 11.179 1330.02 10.066 1330.02 8.68C1330.02 7.84 1329.9 7.042 1329.64 6.286C1329.43 5.53 1329.1 4.816 1328.64 4.144C1328.85 3.724 1329.16 3.388 1329.58 3.136C1330 2.842 1330.48 2.695 1331.03 2.695C1332.12 2.695 1332.98 3.325 1333.61 4.585C1334.24 5.845 1334.56 7.315 1334.56 8.995C1334.56 11.809 1333.76 13.909 1332.16 15.295C1330.57 16.639 1328.47 17.311 1325.86 17.311H1299.47C1299.34 17.059 1299.22 16.765 1299.09 16.429C1299.01 16.093 1298.96 15.715 1298.96 15.295C1298.96 14.539 1299.17 14.014 1299.59 13.72C1300.01 13.426 1300.56 13.279 1301.23 13.279ZM1345.82 49.378C1345.07 49.378 1344.18 49 1343.18 48.244C1342.21 47.446 1341.37 46.291 1340.66 44.779C1339.94 43.267 1339.58 41.44 1339.58 39.298C1339.58 36.862 1340.07 34.888 1341.03 33.376C1342.04 31.822 1343.3 30.667 1344.81 29.911C1346.37 29.155 1347.96 28.777 1349.6 28.777C1352.42 28.777 1354.66 29.449 1356.34 30.793C1358.06 32.137 1359.62 34.111 1361 36.715L1362.89 40.243C1363.61 41.587 1364.57 42.784 1365.79 43.834C1367.05 44.842 1368.59 45.346 1370.39 45.346C1372.49 45.346 1374.15 44.548 1375.37 42.952C1376.63 41.314 1377.26 38.962 1377.26 35.896C1377.26 33.208 1376.8 30.772 1375.87 28.588C1374.99 26.404 1373.81 24.514 1372.34 22.918C1370.87 21.28 1369.3 19.978 1367.62 19.012C1365.94 18.046 1364.3 17.479 1362.71 17.311L1371.15 16.744C1373.12 17.668 1374.93 19.096 1376.57 21.028C1378.25 22.918 1379.59 25.144 1380.6 27.706C1381.61 30.268 1382.11 33.019 1382.11 35.959C1382.11 38.941 1381.61 41.44 1380.6 43.456C1379.63 45.472 1378.27 46.984 1376.5 47.992C1374.78 49 1372.76 49.504 1370.45 49.504C1368.14 49.504 1365.94 48.937 1363.84 47.803C1361.74 46.627 1359.85 44.443 1358.17 41.251L1356.72 38.479C1355.67 36.379 1354.56 34.951 1353.38 34.195C1352.25 33.397 1351.05 32.998 1349.79 32.998C1348.15 32.998 1346.83 33.565 1345.82 34.699C1344.86 35.791 1344.37 37.303 1344.37 39.235C1344.37 40.957 1344.73 42.511 1345.44 43.897C1346.2 45.241 1347.21 46.375 1348.47 47.299C1348.3 47.887 1348.01 48.391 1347.59 48.811C1347.21 49.189 1346.62 49.378 1345.82 49.378ZM1372.85 17.311H1339.14C1339.02 17.059 1338.89 16.765 1338.77 16.429C1338.68 16.093 1338.64 15.715 1338.64 15.295C1338.64 14.539 1338.85 14.014 1339.27 13.72C1339.69 13.426 1340.24 13.279 1340.91 13.279H1372.09C1373.77 13.279 1375.01 12.859 1375.81 12.019C1376.61 11.179 1377.01 10.066 1377.01 8.68C1377.01 7.84 1376.88 7.042 1376.63 6.286C1376.42 5.53 1376.08 4.816 1375.62 4.144C1375.83 3.724 1376.15 3.388 1376.57 3.136C1376.99 2.842 1377.47 2.695 1378.01 2.695C1379.11 2.695 1379.97 3.325 1380.6 4.585C1381.23 5.845 1381.54 7.315 1381.54 8.995C1381.54 10.843 1381.19 12.397 1380.47 13.657C1379.76 14.875 1378.75 15.799 1377.45 16.429C1376.15 17.017 1374.61 17.311 1372.85 17.311ZM1381.24 63.112C1381.96 61.978 1382.44 60.76 1382.69 59.458C1382.95 58.156 1383.07 57.085 1383.07 56.245C1383.07 55.195 1382.97 54.166 1382.76 53.158C1382.5 52.192 1382.11 51.352 1381.56 50.638C1381.73 50.26 1381.98 49.966 1382.32 49.756C1382.65 49.546 1383.03 49.441 1383.45 49.441C1384.42 49.441 1385.19 50.05 1385.78 51.268C1386.37 52.486 1386.66 54.061 1386.66 55.993C1386.66 57.673 1386.35 59.5 1385.72 61.474C1385.09 63.448 1384.16 65.065 1382.95 66.325L1381.56 67.585C1380.64 68.467 1379.56 69.223 1378.35 69.853C1377.09 70.483 1375.55 70.798 1373.75 70.798C1372.49 70.798 1371.27 70.567 1370.09 70.105C1368.92 69.643 1367.95 68.929 1367.2 67.963C1366.44 67.039 1366.06 65.821 1366.06 64.309C1366.06 62.377 1366.78 60.844 1368.2 59.71C1369.63 58.618 1371.35 58.072 1373.37 58.072C1374.97 58.072 1376.29 58.324 1377.34 58.828C1378.39 59.374 1379.27 60.046 1379.98 60.844C1380.7 61.642 1381.33 62.461 1381.87 63.301L1382.88 65.254C1383.3 65.968 1383.83 66.85 1384.46 67.9C1385.09 68.95 1385.76 69.874 1386.47 70.672C1387.23 71.47 1387.96 71.869 1388.68 71.869C1389.14 71.869 1389.5 71.806 1389.75 71.68C1390 71.554 1390.27 71.386 1390.57 71.176C1390.9 71.344 1391.16 71.554 1391.32 71.806C1391.53 72.1 1391.64 72.457 1391.64 72.877C1391.64 73.423 1391.41 73.906 1390.95 74.326C1390.48 74.788 1389.71 75.019 1388.62 75.019C1387.44 75.019 1386.39 74.62 1385.47 73.822C1384.54 73.066 1383.7 72.1 1382.95 70.924C1382.19 69.748 1381.48 68.572 1380.8 67.396L1379.67 65.569C1378.87 64.141 1377.99 63.028 1377.02 62.23C1376.06 61.474 1374.84 61.096 1373.37 61.096C1372.19 61.096 1371.29 61.411 1370.66 62.041C1370.03 62.713 1369.72 63.49 1369.72 64.372C1369.72 65.254 1370.07 66.01 1370.79 66.64C1371.46 67.312 1372.45 67.648 1373.75 67.648C1375.13 67.648 1376.31 67.396 1377.28 66.892C1378.24 66.43 1379.06 65.779 1379.73 64.939L1381.24 63.112ZM1402.71 49.504C1400.52 49.504 1398.44 49 1396.47 47.992C1394.54 46.984 1392.96 45.43 1391.74 43.33C1390.53 41.23 1389.92 38.563 1389.92 35.329C1389.92 32.221 1390.48 29.365 1391.62 26.761C1392.75 24.115 1394.26 21.889 1396.15 20.083C1398.09 18.277 1400.17 17.08 1402.39 16.492L1409.57 17.185C1406.8 17.521 1404.3 18.529 1402.08 20.209C1399.85 21.889 1398.07 23.989 1396.72 26.509C1395.42 29.029 1394.77 31.78 1394.77 34.762C1394.77 37.282 1395.15 39.319 1395.9 40.873C1396.7 42.427 1397.73 43.561 1398.99 44.275C1400.25 44.989 1401.61 45.346 1403.08 45.346C1405.06 45.346 1406.65 44.779 1407.87 43.645C1409.13 42.511 1409.76 40.663 1409.76 38.101H1413.67C1413.67 39.865 1413.44 41.461 1412.98 42.889C1412.51 44.275 1411.82 45.472 1410.9 46.48C1409.97 47.446 1408.82 48.202 1407.43 48.748C1406.09 49.252 1404.51 49.504 1402.71 49.504ZM1409.76 41.692V35.77C1410.1 35.56 1410.46 35.392 1410.83 35.266C1411.21 35.14 1411.61 35.077 1412.03 35.077C1412.49 35.077 1412.91 35.14 1413.29 35.266C1413.67 35.392 1414 35.56 1414.3 35.77V41.692H1409.76ZM1422.24 49.504C1420.43 49.504 1418.81 49.252 1417.39 48.748C1415.96 48.202 1414.74 47.446 1413.73 46.48C1412.72 45.472 1411.97 44.275 1411.46 42.889C1410.96 41.461 1410.71 39.865 1410.71 38.101H1414.3C1414.3 40.327 1415.05 42.091 1416.57 43.393C1418.08 44.695 1419.91 45.346 1422.05 45.346C1424.27 45.346 1426.04 44.695 1427.34 43.393C1428.64 42.091 1429.29 40.39 1429.29 38.29C1429.29 36.274 1428.66 34.573 1427.4 33.187C1426.18 31.759 1424.63 30.751 1422.74 30.163L1425.76 27.139C1428.12 28.021 1430.05 29.491 1431.56 31.549C1433.07 33.565 1433.83 35.812 1433.83 38.29C1433.83 41.818 1432.74 44.569 1430.55 46.543C1428.41 48.517 1425.64 49.504 1422.24 49.504ZM1420.09 30.982C1418.88 30.982 1417.93 30.772 1417.26 30.352C1416.59 29.89 1416.25 29.239 1416.25 28.399C1416.25 27.979 1416.29 27.622 1416.38 27.328C1416.5 26.992 1416.65 26.698 1416.82 26.446H1419.09C1420.56 26.446 1421.8 26.089 1422.8 25.375C1423.81 24.619 1424.32 23.506 1424.32 22.036C1424.32 20.65 1423.85 19.516 1422.93 18.634C1422.01 17.752 1420.68 17.311 1418.96 17.311L1424 16.303C1425.81 16.849 1427.05 17.731 1427.72 18.949C1428.43 20.125 1428.79 21.406 1428.79 22.792C1428.79 23.968 1428.52 25.018 1427.97 25.942C1427.42 26.824 1426.94 27.412 1426.52 27.706L1425.39 29.092C1424.84 29.638 1424.06 30.1 1423.06 30.478C1422.05 30.814 1421.06 30.982 1420.09 30.982ZM1425.07 17.311H1390.42C1390.3 17.059 1390.17 16.765 1390.04 16.429C1389.96 16.093 1389.92 15.715 1389.92 15.295C1389.92 14.539 1390.13 14.014 1390.55 13.72C1390.97 13.426 1391.51 13.279 1392.19 13.279H1424.32C1426 13.279 1427.23 12.859 1428.03 12.019C1428.83 11.179 1429.23 10.066 1429.23 8.68C1429.23 7.84 1429.1 7.042 1428.85 6.286C1428.64 5.53 1428.31 4.816 1427.84 4.144C1428.05 3.724 1428.37 3.388 1428.79 3.136C1429.21 2.842 1429.69 2.695 1430.24 2.695C1431.33 2.695 1432.19 3.325 1432.82 4.585C1433.45 5.845 1433.77 7.315 1433.77 8.995C1433.77 11.809 1432.97 13.909 1431.37 15.295C1429.78 16.639 1427.68 17.311 1425.07 17.311ZM1460.33 41.503V35.833C1460.63 35.623 1460.96 35.455 1461.34 35.329C1461.76 35.203 1462.2 35.14 1462.67 35.14C1463.13 35.14 1463.53 35.203 1463.86 35.329C1464.24 35.455 1464.58 35.623 1464.87 35.833V41.503H1460.33ZM1472.49 49.504C1470.56 49.504 1468.71 49.126 1466.95 48.37C1465.19 47.572 1463.74 46.354 1462.6 44.716C1461.51 43.036 1460.96 40.852 1460.96 38.164H1464.87C1464.87 39.844 1465.23 41.23 1465.94 42.322C1466.7 43.372 1467.66 44.149 1468.84 44.653C1470.02 45.115 1471.23 45.346 1472.49 45.346C1475.14 45.346 1477.11 44.485 1478.42 42.763C1479.76 41.041 1480.43 38.5 1480.43 35.14C1480.43 32.41 1479.8 29.785 1478.54 27.265C1477.32 24.703 1475.62 22.519 1473.44 20.713C1471.25 18.907 1468.73 17.731 1465.88 17.185L1473 16.618C1474.59 16.996 1476.13 17.794 1477.6 19.012C1479.07 20.23 1480.37 21.7 1481.5 23.422C1482.64 25.144 1483.54 27.013 1484.21 29.029C1484.88 31.045 1485.22 33.061 1485.22 35.077C1485.22 39.529 1484.13 43.057 1481.94 45.661C1479.76 48.223 1476.61 49.504 1472.49 49.504ZM1470.92 17.311H1440.49C1440.36 17.059 1440.24 16.765 1440.11 16.429C1440.03 16.093 1439.99 15.715 1439.99 15.295C1439.99 14.539 1440.2 14.014 1440.62 13.72C1441.04 13.426 1441.58 13.279 1442.25 13.279H1486.23V17.311H1473.63H1470.92ZM1444.84 38.353C1444.84 40.495 1445.51 42.196 1446.85 43.456C1448.24 44.716 1450.04 45.346 1452.27 45.346C1454.54 45.346 1456.45 44.737 1458 43.519C1459.56 42.259 1460.33 40.474 1460.33 38.164H1464.24C1464.24 40.516 1463.69 42.553 1462.6 44.275C1461.55 45.955 1460.1 47.257 1458.26 48.181C1456.45 49.063 1454.39 49.504 1452.08 49.504C1448.51 49.504 1445.61 48.496 1443.39 46.48C1441.16 44.464 1440.05 41.755 1440.05 38.353C1440.05 36.337 1440.45 34.552 1441.25 32.998C1442.09 31.444 1443.28 30.226 1444.84 29.344C1446.39 28.462 1448.24 28.021 1450.38 28.021C1451.85 28.021 1452.94 28.294 1453.66 28.84C1454.41 29.344 1454.79 29.974 1454.79 30.73C1454.79 31.234 1454.66 31.696 1454.41 32.116C1454.2 32.494 1453.93 32.788 1453.59 32.998C1453.17 32.788 1452.69 32.62 1452.14 32.494C1451.64 32.326 1451.05 32.242 1450.38 32.242C1448.91 32.242 1447.61 32.746 1446.47 33.754C1445.38 34.72 1444.84 36.253 1444.84 38.353ZM1495.8 38.668C1495.8 40.642 1496.52 42.238 1497.95 43.456C1499.42 44.674 1501.22 45.283 1503.36 45.283C1506.14 45.283 1508.38 44.233 1510.1 42.133C1511.83 40.033 1512.69 37.135 1512.69 33.439C1512.69 28.147 1511.13 24.136 1508.03 21.406C1504.92 18.676 1500.76 17.311 1495.55 17.311H1481.25V13.279H1497.13C1500.91 13.279 1504.33 14.098 1507.4 15.736C1510.5 17.374 1512.96 19.705 1514.77 22.729C1516.57 25.711 1517.48 29.281 1517.48 33.439C1517.48 37.009 1516.85 39.991 1515.59 42.385C1514.33 44.737 1512.62 46.522 1510.48 47.74C1508.34 48.916 1505.93 49.504 1503.24 49.504C1501.1 49.504 1499.1 49.063 1497.25 48.181C1495.4 47.299 1493.91 46.039 1492.78 44.401C1491.65 42.763 1491.08 40.81 1491.08 38.542C1491.08 36.358 1491.54 34.531 1492.46 33.061C1493.43 31.591 1494.65 30.478 1496.12 29.722C1497.63 28.966 1499.16 28.588 1500.72 28.588C1502.1 28.588 1503.13 28.84 1503.8 29.344C1504.52 29.806 1504.88 30.394 1504.88 31.108C1504.88 31.864 1504.67 32.494 1504.25 32.998C1503.78 32.872 1503.36 32.788 1502.99 32.746C1502.65 32.704 1502.27 32.683 1501.85 32.683C1500.3 32.683 1498.89 33.166 1497.63 34.132C1496.41 35.098 1495.8 36.61 1495.8 38.668ZM1540.49 12.019C1543.09 12.019 1545.42 12.565 1547.48 13.657C1549.54 14.749 1551.22 16.282 1552.52 18.256C1551.22 14.266 1549.29 11.095 1546.73 8.743C1544.21 6.349 1541.2 5.152 1537.72 5.152C1535.07 5.152 1533.01 5.824 1531.54 7.168C1530.07 8.47 1529.34 10.15 1529.34 12.208C1529.34 13.09 1529.46 13.888 1529.72 14.602C1530.01 15.316 1530.37 15.904 1530.79 16.366C1532.13 14.812 1533.62 13.699 1535.26 13.027C1536.94 12.355 1538.68 12.019 1540.49 12.019ZM1558.13 33.691V49.189C1557.88 49.315 1557.56 49.42 1557.18 49.504C1556.85 49.588 1556.45 49.63 1555.99 49.63C1555.15 49.63 1554.54 49.42 1554.16 49C1553.78 48.622 1553.59 48.034 1553.59 47.236V35.833C1553.59 31.297 1553.03 27.58 1551.89 24.682C1550.8 21.784 1549.29 19.642 1547.36 18.256C1545.47 16.828 1543.28 16.114 1540.8 16.114C1538.45 16.114 1536.39 16.975 1534.63 18.697C1532.87 20.419 1531.5 22.897 1530.54 26.131C1529.57 29.323 1529.09 33.166 1529.09 37.66V49.189C1528.83 49.315 1528.52 49.42 1528.14 49.504C1527.81 49.588 1527.41 49.63 1526.94 49.63C1526.1 49.63 1525.5 49.42 1525.12 49C1524.74 48.622 1524.55 48.034 1524.55 47.236V41.881C1524.55 38.227 1524.68 35.098 1524.93 32.494C1525.22 29.89 1525.64 27.622 1526.19 25.69C1526.73 23.758 1527.39 22.015 1528.14 20.461C1527.26 19.621 1526.46 18.508 1525.75 17.122C1525.08 15.736 1524.74 14.14 1524.74 12.334C1524.74 10.066 1525.24 8.092 1526.25 6.412C1527.3 4.732 1528.77 3.43 1530.66 2.506C1532.59 1.582 1534.86 1.12 1537.47 1.12C1541.79 1.12 1545.49 2.506 1548.55 5.278C1551.66 8.008 1554.03 11.83 1555.67 16.744C1557.31 21.616 1558.13 27.265 1558.13 33.691ZM1575.24 16.681L1594.64 16.744C1596.45 17.542 1597.98 18.76 1599.24 20.398C1600.54 22.036 1601.53 23.863 1602.2 25.879C1602.92 27.853 1603.27 29.848 1603.27 31.864C1603.27 35.602 1602.48 38.794 1600.88 41.44C1599.28 44.086 1597.12 46.102 1594.39 47.488C1591.66 48.832 1588.59 49.504 1585.19 49.504C1581.83 49.504 1578.79 48.769 1576.06 47.299C1573.37 45.829 1571.23 43.771 1569.63 41.125C1568.04 38.479 1567.24 35.392 1567.24 31.864C1567.24 28.63 1567.91 25.627 1569.25 22.855C1570.64 20.083 1572.63 18.025 1575.24 16.681ZM1585.26 17.311C1582.82 17.311 1580.59 17.92 1578.58 19.138C1576.56 20.314 1574.97 21.973 1573.79 24.115C1572.61 26.257 1572.03 28.756 1572.03 31.612C1572.03 34.342 1572.59 36.736 1573.73 38.794C1574.86 40.852 1576.41 42.448 1578.39 43.582C1580.4 44.716 1582.71 45.283 1585.32 45.283C1589.35 45.283 1592.54 44.086 1594.89 41.692C1597.29 39.298 1598.49 35.938 1598.49 31.612C1598.49 28.756 1597.9 26.257 1596.72 24.115C1595.55 21.973 1593.95 20.314 1591.93 19.138C1589.96 17.92 1587.73 17.311 1585.26 17.311ZM1595.4 17.311H1591.62L1584.63 16.996L1575.49 17.311H1566.42C1566.29 17.059 1566.17 16.765 1566.04 16.429C1565.96 16.093 1565.91 15.715 1565.91 15.295C1565.91 14.539 1566.12 14.014 1566.54 13.72C1566.96 13.426 1567.51 13.279 1568.18 13.279H1594.64C1596.32 13.279 1597.56 12.859 1598.36 12.019C1599.16 11.179 1599.56 10.066 1599.56 8.68C1599.56 7.84 1599.43 7.042 1599.18 6.286C1598.97 5.53 1598.63 4.816 1598.17 4.144C1598.38 3.724 1598.7 3.388 1599.12 3.136C1599.54 2.842 1600.02 2.695 1600.56 2.695C1601.66 2.695 1602.52 3.325 1603.15 4.585C1603.78 5.845 1604.09 7.315 1604.09 8.995C1604.09 11.809 1603.29 13.909 1601.7 15.295C1600.1 16.639 1598 17.311 1595.4 17.311ZM1598.81 43.267C1598.81 42.553 1599.11 41.86 1599.69 41.188C1600.24 40.516 1600.95 40.117 1601.84 39.991C1602.55 41.293 1603.81 42.511 1605.62 43.645C1607.38 44.737 1609.46 45.283 1611.85 45.283C1615 45.283 1617.57 44.149 1619.54 41.881C1621.51 39.571 1622.5 36.379 1622.5 32.305C1622.5 28.777 1621.93 25.858 1620.8 23.548C1619.67 21.196 1618.24 19.348 1616.52 18.004C1614.79 16.66 1613.03 15.736 1611.22 15.232C1611.22 14.308 1611.41 13.552 1611.79 12.964C1612.17 12.334 1612.88 12.019 1613.93 12.019C1614.94 12.019 1616.2 12.439 1617.71 13.279C1619.22 14.077 1620.69 15.316 1622.12 16.996C1623.59 18.676 1624.81 20.797 1625.78 23.359C1626.78 25.921 1627.29 28.945 1627.29 32.431C1627.29 35.959 1626.64 39.004 1625.34 41.566C1624.03 44.128 1622.25 46.102 1619.98 47.488C1617.71 48.832 1615.11 49.504 1612.17 49.504C1609.9 49.504 1607.88 49.189 1606.12 48.559C1604.36 47.929 1602.89 47.131 1601.71 46.165C1600.49 45.199 1599.53 44.233 1598.81 43.267ZM1631.58 46.354C1631.58 45.346 1631.87 44.506 1632.46 43.834C1633.09 43.162 1633.95 42.826 1635.04 42.826C1636.14 42.826 1636.98 43.162 1637.56 43.834C1638.15 44.506 1638.45 45.346 1638.45 46.354C1638.45 47.32 1638.15 48.139 1637.56 48.811C1636.98 49.483 1636.14 49.819 1635.04 49.819C1633.95 49.819 1633.09 49.483 1632.46 48.811C1631.87 48.139 1631.58 47.32 1631.58 46.354Z" fill="black"/>
</svg>
