<svg width="1318" height="81" viewBox="0 0 1318 81" fill="none" xmlns="http://www.w3.org/2000/svg">
<path d="M31.25 38.675C31.25 40.775 31.075 42.675 30.725 44.375C30.375 46.075 29.85 47.525 29.15 48.725C28.5 49.925 27.7 50.85 26.75 51.5C25.85 52.15 24.85 52.475 23.75 52.475C22 52.475 20.55 51.75 19.4 50.3C18.25 48.85 17.1 46.55 15.95 43.4C15.25 45.2 14.575 46.7 13.925 47.9C13.325 49.05 12.7 49.975 12.05 50.675C11.45 51.325 10.825 51.8 10.175 52.1C9.525 52.35 8.85 52.475 8.15 52.475C7 52.475 5.95 52.15 5 51.5C4.05 50.8 3.225 49.85 2.525 48.65C1.875 47.45 1.375 46.025 1.025 44.375C0.675 42.675 0.5 40.85 0.5 38.9C0.5 36.8 0.65 35.05 0.95 33.65C1.25 32.25 1.675 31.125 2.225 30.275C2.775 29.425 3.425 28.825 4.175 28.475C4.975 28.075 5.85 27.875 6.8 27.875C8.4 27.875 9.7 28.525 10.7 29.825C11.7 31.075 12.2 32.675 12.2 34.625C12.2 37.075 11.7 38.95 10.7 40.25C9.75 41.5 8.55 42.125 7.1 42.125C5.45 41.925 4.625 40.675 4.625 38.375V38C5.125 38.9 5.85 39.35 6.8 39.35C7.75 39.35 8.45 39 8.9 38.3C9.4 37.6 9.65 36.625 9.65 35.375C9.5 33.425 8.45 32.45 6.5 32.45C5.35 32.45 4.4 33 3.65 34.1C2.95 35.15 2.6 36.475 2.6 38.075C2.6 40.225 3.15 41.875 4.25 43.025C5.4 44.175 6.625 44.75 7.925 44.75C9.775 44.75 11.375 44.1 12.725 42.8C14.075 41.45 15.075 39.375 15.725 36.575C16.725 39.625 17.8 41.75 18.95 42.95C20.1 44.15 21.6 44.75 23.45 44.75C25.25 44.75 26.625 43.875 27.575 42.125C28.525 40.325 29.05 37.7 29.15 34.25C29.15 32.3 28.75 30.5 27.95 28.85C27.2 27.15 26.175 25.675 24.875 24.425C23.575 23.125 22.05 22.125 20.3 21.425C18.55 20.675 16.7 20.3 14.75 20.3L10.55 20.825C8.55 20.825 7.55 19.725 7.55 17.525C7.55 16.575 8 15.65 8.9 14.75L10.1 14C10.85 13.65 11.9 13.475 13.25 13.475C15.65 13.475 17.925 14.075 20.075 15.275C22.275 16.475 24.2 18.175 25.85 20.375C27.5 22.575 28.8 25.225 29.75 28.325C30.75 31.425 31.25 34.875 31.25 38.675ZM70.1955 31.7C70.1955 34.65 69.7955 37.4 68.9955 39.95C68.2455 42.5 67.1955 44.725 65.8455 46.625C64.4955 48.475 62.8955 49.95 61.0455 51.05C59.2455 52.1 57.2955 52.625 55.1955 52.625C52.9455 52.625 50.8955 52.075 49.0455 50.975C47.2455 49.875 45.6705 48.35 44.3205 46.4C43.0205 44.45 42.0205 42.15 41.3205 39.5C40.6205 36.85 40.2705 33.95 40.2705 30.8C40.2705 25.4 41.0955 21.175 42.7455 18.125C44.4455 15.025 46.5705 13.475 49.1205 13.475C50.2205 13.475 51.2205 13.75 52.1205 14.3C53.0705 14.8 53.8705 15.5 54.5205 16.4C55.1705 17.3 55.6705 18.35 56.0205 19.55C56.3705 20.7 56.5455 21.9 56.5455 23.15C56.5455 24.45 56.3955 25.7 56.0955 26.9C55.7955 28.1 55.3455 29.15 54.7455 30.05C54.1455 30.95 53.3955 31.675 52.4955 32.225C51.6455 32.775 50.6705 33.05 49.5705 33.05C45.5205 32.9 43.4955 29.75 43.4955 23.6C43.1955 24.9 42.9455 26.15 42.7455 27.35C42.5955 28.55 42.5205 29.675 42.5205 30.725C42.5205 32.875 42.8205 34.825 43.4205 36.575C44.0205 38.275 44.8705 39.75 45.9705 41C47.1205 42.2 48.4705 43.15 50.0205 43.85C51.5705 44.5 53.2955 44.825 55.1955 44.825C56.8455 44.825 58.3955 44.6 59.8455 44.15C61.3455 43.65 62.6705 42.875 63.8205 41.825C65.0205 40.725 65.9955 39.325 66.7455 37.625C67.4955 35.925 67.9705 33.875 68.1705 31.475C68.1705 27.375 67.4705 24.2 66.0705 21.95C64.6705 19.7 63.0205 18.475 61.1205 18.275H59.1705V13.55H64.3455V17.6C68.2455 19.8 70.1955 24.5 70.1955 31.7ZM49.7955 18.275C48.8455 18.275 48.0205 18.775 47.3205 19.775C46.6705 20.725 46.3455 21.925 46.3455 23.375C46.3455 24.825 46.6705 26.05 47.3205 27.05C48.0205 28 48.8455 28.475 49.7955 28.475C50.7955 28.475 51.6205 28 52.2705 27.05C52.9705 26.05 53.3205 24.825 53.3205 23.375C53.3205 21.925 52.9705 20.725 52.2705 19.775C51.6205 18.775 50.7955 18.275 49.7955 18.275ZM92.1295 35.375C92.1295 37.625 91.9545 39.8 91.6045 41.9C91.2545 43.95 90.7295 45.775 90.0295 47.375C89.3795 48.925 88.5295 50.175 87.4795 51.125C86.4295 52.075 85.2295 52.55 83.8795 52.55C82.6295 52.55 81.5545 52.075 80.6545 51.125C79.7545 50.175 79.0045 49.025 78.4045 47.675C77.8045 46.275 77.3545 44.775 77.0545 43.175C76.8045 41.575 76.6795 40.1 76.6795 38.75C76.6795 37.55 76.7795 36.4 76.9795 35.3C77.2295 34.2 77.5795 33.225 78.0295 32.375C78.4795 31.475 79.0545 30.775 79.7545 30.275C80.4545 29.725 81.2545 29.45 82.1545 29.45C82.8045 29.45 83.4045 29.65 83.9545 30.05C84.5545 30.4 85.0545 30.875 85.4545 31.475C85.8545 32.025 86.1545 32.675 86.3545 33.425C86.6045 34.125 86.7295 34.85 86.7295 35.6C86.7295 37.05 86.4795 38.275 85.9795 39.275C85.4795 40.225 84.7295 40.7 83.7295 40.7C82.9295 40.7 82.2795 40.4 81.7795 39.8C81.2795 39.2 81.0295 38.25 81.0295 36.95C81.0295 35.25 81.7045 34.4 83.0545 34.4C83.6045 34.4 84.0045 34.525 84.2545 34.775C83.8545 33.375 83.1295 32.675 82.0795 32.675C81.0295 32.675 80.1295 33.15 79.3795 34.1C78.6295 35 78.2545 36.15 78.2545 37.55C78.2545 39.45 78.6795 41.125 79.5295 42.575C80.4295 44.025 81.8045 44.75 83.6545 44.75C85.8545 44.75 87.5795 43.9 88.8295 42.2C90.0795 40.5 90.7045 38.275 90.7045 35.525C90.7045 33.425 90.4295 31.35 89.8795 29.3C89.3295 27.25 88.5795 25.425 87.6295 23.825C86.6795 22.175 85.5545 20.85 84.2545 19.85C82.9545 18.85 81.5545 18.325 80.0545 18.275H58.9795V13.55H77.9545C80.0545 13.55 81.9545 14.1 83.6545 15.2C85.4045 16.3 86.9045 17.825 88.1545 19.775C89.4045 21.675 90.3795 23.975 91.0795 26.675C91.7795 29.325 92.1295 32.225 92.1295 35.375ZM100.685 66.125C100.685 68.725 100.41 70.65 99.8598 71.9C99.3098 73.15 98.6098 73.775 97.7598 73.775L97.2348 73.625C96.8848 73.325 96.7098 72.975 96.7098 72.575C96.7098 72.175 96.7348 71.9 96.7848 71.75C96.8848 71.6 97.0348 71.45 97.2348 71.3C97.4348 71.2 97.6598 71.05 97.9098 70.85C98.2098 70.7 98.5598 70.375 98.9598 69.875L99.6348 67.1C99.6348 65.8 99.3098 64.75 98.6598 63.95C98.0598 63.2 97.2598 62.825 96.2598 62.825C95.6098 62.825 94.9598 63.075 94.3098 63.575C93.6098 64.075 93.2598 64.975 93.2598 66.275H92.7348C92.3848 64.925 91.9598 63.95 91.4598 63.35C90.9598 62.8 90.3348 62.525 89.5848 62.525C88.6348 62.525 87.8598 62.975 87.2598 63.875C86.6598 64.775 86.3598 65.775 86.3598 66.875C86.3598 67.275 86.4098 67.7 86.5098 68.15C86.5598 68.65 86.6598 69.1 86.8098 69.5C86.9598 69.95 87.1598 70.325 87.4098 70.625C87.6598 70.925 87.9348 71.075 88.2348 71.075C88.4848 71.075 88.7098 71.175 88.9098 71.375C89.0598 71.575 89.1348 71.95 89.1348 72.5C89.1348 73.3 88.7598 73.7 88.0098 73.7C87.7098 73.7 87.4098 73.475 87.1098 73.025C86.8098 72.625 86.5348 72.1 86.2848 71.45C85.9848 70.8 85.7598 70.075 85.6098 69.275C85.4598 68.475 85.3848 67.675 85.3848 66.875C85.3848 64.325 85.8098 62.375 86.6598 61.025C87.4598 59.675 88.5348 59 89.8848 59C90.9848 59 91.9848 59.975 92.8848 61.925C93.3848 59.975 94.3598 59 95.8098 59C96.3598 59 96.9098 59.15 97.4598 59.45C98.0598 59.8 98.5848 60.275 99.0348 60.875C99.5348 61.475 99.9348 62.225 100.235 63.125C100.535 64.025 100.685 65.025 100.685 66.125ZM132.669 34.625C132.669 32.325 132.344 30.175 131.694 28.175C131.044 26.175 130.119 24.45 128.919 23C127.769 21.55 126.344 20.4 124.644 19.55C122.994 18.7 121.144 18.275 119.094 18.275C117.094 18.275 115.294 18.7 113.694 19.55C112.094 20.4 110.719 21.575 109.569 23.075C108.419 24.575 107.519 26.325 106.869 28.325C106.269 30.325 105.969 32.45 105.969 34.7C105.969 35.95 106.094 37.2 106.344 38.45C106.594 39.65 106.944 40.725 107.394 41.675C107.894 42.625 108.494 43.4 109.194 44C109.894 44.55 110.694 44.825 111.594 44.825C113.344 44.825 114.919 44.125 116.319 42.725C117.719 41.275 118.694 39.05 119.244 36.05C119.394 36.65 119.619 37.45 119.919 38.45C120.269 39.4 120.719 40.35 121.269 41.3C121.819 42.25 122.519 43.075 123.369 43.775C124.219 44.475 125.244 44.825 126.444 44.825C127.394 44.825 128.244 44.55 128.994 44C129.794 43.4 130.469 42.65 131.019 41.75C131.569 40.8 131.969 39.725 132.219 38.525C132.519 37.275 132.669 35.975 132.669 34.625ZM127.794 18.275C130.444 20.275 132.369 22.925 133.569 26.225C134.819 29.525 135.444 33.575 135.444 38.375C135.444 40.425 135.244 42.3 134.844 44C134.494 45.7 133.969 47.2 133.269 48.5C132.569 49.75 131.694 50.725 130.644 51.425C129.644 52.125 128.494 52.475 127.194 52.475C126.394 52.475 125.669 52.325 125.019 52.025C124.369 51.725 123.744 51.225 123.144 50.525C122.544 49.775 121.919 48.775 121.269 47.525C120.669 46.225 119.969 44.6 119.169 42.65C118.019 46.35 116.794 48.925 115.494 50.375C114.244 51.775 112.844 52.475 111.294 52.475C109.844 52.475 108.594 52.1 107.544 51.35C106.544 50.6 105.694 49.525 104.994 48.125C104.344 46.725 103.844 45.05 103.494 43.1C103.144 41.1 102.919 38.875 102.819 36.425C103.269 26.575 106.244 20.525 111.744 18.275H103.119V13.55H127.119C130.269 13.2 131.844 11.3 131.844 7.85C131.844 6.9 131.719 5.875 131.469 4.775C131.219 3.625 130.869 2.375 130.419 1.025L130.794 0.724999C132.244 2.975 133.244 4.95 133.794 6.65C134.344 8.3 134.619 9.8 134.619 11.15C134.619 14.7 132.794 17.075 129.144 18.275H127.794ZM170.446 11.225C170.446 14.775 168.621 17.15 164.971 18.35H164.071C168.221 20.7 170.346 25.9 170.446 33.95C170.146 46 165.821 52.175 157.471 52.475C149.121 52.175 144.771 46.025 144.421 34.025C144.421 26.025 146.771 20.8 151.471 18.35H144.646V13.55H162.871C166.021 13.25 167.596 11.4 167.596 8C167.596 6.1 167.146 3.8 166.246 1.1L166.621 0.799998C169.171 5 170.446 8.325 170.446 10.775V11.225ZM157.546 18.2C156.146 18.2 154.821 18.55 153.571 19.25C152.321 19.95 151.221 20.9 150.271 22.1C149.371 23.3 148.646 24.7 148.096 26.3C147.546 27.9 147.271 29.625 147.271 31.475C147.271 33.325 147.521 35.075 148.021 36.725C148.521 38.325 149.221 39.725 150.121 40.925C151.021 42.125 152.096 43.075 153.346 43.775C154.596 44.475 155.996 44.825 157.546 44.825C159.196 44.825 160.646 44.475 161.896 43.775C163.196 43.075 164.271 42.125 165.121 40.925C166.021 39.675 166.696 38.25 167.146 36.65C167.596 35 167.821 33.275 167.821 31.475C167.821 29.625 167.546 27.9 166.996 26.3C166.446 24.7 165.696 23.3 164.746 22.1C163.846 20.9 162.771 19.95 161.521 19.25C160.271 18.55 158.946 18.2 157.546 18.2ZM201.481 34.7C201.481 37.25 201.281 39.6 200.881 41.75C200.481 43.9 199.906 45.775 199.156 47.375C198.406 48.975 197.481 50.225 196.381 51.125C195.331 52.025 194.131 52.475 192.781 52.475C191.831 52.475 190.906 52.175 190.006 51.575C189.156 50.925 188.381 50.05 187.681 48.95C187.031 47.85 186.481 46.55 186.031 45.05C185.631 43.5 185.431 41.825 185.431 40.025C185.431 37.175 185.906 35.175 186.856 34.025C187.806 32.825 189.006 32.225 190.456 32.225C193.606 32.225 195.181 33.9 195.181 37.25C195.081 38.4 194.781 39.325 194.281 40.025C193.831 40.675 193.206 41 192.406 41C191.756 41 191.181 40.75 190.681 40.25C190.231 39.75 190.006 38.975 190.006 37.925C190.006 36.725 190.281 35.65 190.831 34.7C190.731 34.65 190.581 34.625 190.381 34.625C189.481 34.625 188.706 34.925 188.056 35.525C187.406 36.125 187.081 37.075 187.081 38.375C187.081 40.375 187.556 41.925 188.506 43.025C189.456 44.075 190.731 44.675 192.331 44.825C193.131 44.825 193.931 44.675 194.731 44.375C195.581 44.075 196.331 43.55 196.981 42.8C197.681 42 198.256 40.95 198.706 39.65C199.156 38.3 199.381 36.6 199.381 34.55C199.381 32.75 199.231 30.9 198.931 29C198.631 27.05 198.106 25.275 197.356 23.675C196.606 22.025 195.606 20.7 194.356 19.7C193.106 18.65 191.506 18.125 189.556 18.125C187.856 18.125 186.456 18.55 185.356 19.4C184.256 20.2 183.381 21.275 182.731 22.625C182.131 23.975 181.706 25.525 181.456 27.275C181.206 29.025 181.081 30.825 181.081 32.675L181.531 37.4C181.831 39.6 181.981 41.125 181.981 41.975C181.981 45.475 181.431 48.1 180.331 49.85C179.281 51.6 177.881 52.475 176.131 52.475C174.931 52.475 173.831 52.025 172.831 51.125C171.831 50.225 171.006 49.075 170.356 47.675C169.656 46.225 169.131 44.6 168.781 42.8C168.381 40.95 168.181 39.075 168.181 37.175C168.231 37.775 168.406 38.525 168.706 39.425C168.956 40.275 169.356 41.125 169.906 41.975C170.406 42.775 171.056 43.475 171.856 44.075C172.606 44.625 173.506 44.9 174.556 44.9C176.106 44.9 177.281 44.15 178.081 42.65C178.881 41.1 179.281 38.625 179.281 35.225C179.281 27.775 180.081 22.3 181.681 18.8C183.331 15.25 185.731 13.475 188.881 13.475C190.831 13.475 192.581 14 194.131 15.05C195.731 16.1 197.056 17.575 198.106 19.475C199.206 21.375 200.031 23.625 200.581 26.225C201.181 28.825 201.481 31.65 201.481 34.7ZM238.628 38.45C239.078 42.75 241.978 44.9 247.328 44.9C251.128 44.7 254.228 42.9 256.628 39.5C253.978 34.45 250.678 31.925 246.728 31.925C241.328 32.325 238.628 34.5 238.628 38.45ZM236.828 13.475C240.428 13.475 243.053 15.825 244.703 20.525L245.528 18.275C247.328 15.075 249.653 13.475 252.503 13.475H253.028C259.078 14.125 262.103 19.225 262.103 28.775C262.103 32.975 261.203 37.125 259.403 41.225C260.253 43.525 260.678 46.05 260.678 48.8L260.303 55.025C260.303 57.325 260.903 58.475 262.103 58.475C262.353 58.475 262.678 58.4 263.078 58.25C262.778 60.45 261.728 61.55 259.928 61.55C257.128 61.55 255.728 59.625 255.728 55.775C255.728 55.325 255.903 54.45 256.253 53.15C256.603 51.8 257.153 50 257.903 47.75C258.103 47.15 258.203 46.5 258.203 45.8C258.203 45.15 258.103 44.5 257.903 43.85C256.503 46.85 254.753 49.05 252.653 50.45C250.553 51.8 248.053 52.475 245.153 52.475C242.553 51.925 240.378 50.625 238.628 48.575C236.878 46.475 236.003 43.75 236.003 40.4C236.003 33.95 239.128 30.35 245.378 29.6H246.128C251.778 29.6 255.778 32.325 258.128 37.775C258.678 36.475 259.028 35.15 259.178 33.8C259.378 32.45 259.478 31 259.478 29.45C259.478 22 257.278 18.275 252.878 18.275C249.128 18.575 246.403 21.7 244.703 27.65C244.053 24.1 243.028 21.65 241.628 20.3C240.278 18.9 238.478 18.2 236.228 18.2C234.878 18.2 233.678 18.625 232.628 19.475C231.628 20.325 231.128 21.625 231.128 23.375C231.128 24.925 231.578 26.075 232.478 26.825C233.378 27.575 234.403 27.95 235.553 27.95C236.203 27.95 236.978 27.825 237.878 27.575C237.978 27.825 238.028 28.05 238.028 28.25C238.028 28.45 238.028 28.675 238.028 28.925C238.028 30.725 236.878 31.85 234.578 32.3C232.528 32.3 231.003 31.45 230.003 29.75C229.003 28 228.503 25.775 228.503 23.075C228.503 20.425 229.253 18.2 230.753 16.4C232.303 14.55 234.328 13.575 236.828 13.475ZM298.107 11.225C298.107 14.775 296.282 17.15 292.632 18.35H291.732C295.882 20.7 298.007 25.9 298.107 33.95C297.807 46 293.482 52.175 285.132 52.475C276.782 52.175 272.432 46.025 272.082 34.025C272.082 26.025 274.432 20.8 279.132 18.35H272.307V13.55H290.532C293.682 13.25 295.257 11.4 295.257 8C295.257 6.1 294.807 3.8 293.907 1.1L294.282 0.799998C296.832 5 298.107 8.325 298.107 10.775V11.225ZM285.207 18.2C283.807 18.2 282.482 18.55 281.232 19.25C279.982 19.95 278.882 20.9 277.932 22.1C277.032 23.3 276.307 24.7 275.757 26.3C275.207 27.9 274.932 29.625 274.932 31.475C274.932 33.325 275.182 35.075 275.682 36.725C276.182 38.325 276.882 39.725 277.782 40.925C278.682 42.125 279.757 43.075 281.007 43.775C282.257 44.475 283.657 44.825 285.207 44.825C286.857 44.825 288.307 44.475 289.557 43.775C290.857 43.075 291.932 42.125 292.782 40.925C293.682 39.675 294.357 38.25 294.807 36.65C295.257 35 295.482 33.275 295.482 31.475C295.482 29.625 295.207 27.9 294.657 26.3C294.107 24.7 293.357 23.3 292.407 22.1C291.507 20.9 290.432 19.95 289.182 19.25C287.932 18.55 286.607 18.2 285.207 18.2ZM315.267 34.475C314.667 45.925 311.592 51.925 306.042 52.475C304.392 52.425 303.017 52 301.917 51.2C300.767 50.35 299.817 49.2 299.067 47.75C298.267 46.25 297.617 44.5 297.117 42.5C296.617 40.5 296.167 38.3 295.767 35.9C296.667 37.6 297.467 39.025 298.167 40.175C298.867 41.275 299.542 42.175 300.192 42.875C300.792 43.575 301.442 44.075 302.142 44.375C302.842 44.675 303.642 44.825 304.542 44.825C305.642 44.825 306.717 44.55 307.767 44C308.867 43.4 309.842 42.6 310.692 41.6C311.542 40.55 312.242 39.35 312.792 38C313.342 36.65 313.617 35.2 313.617 33.65C313.617 32.3 313.442 30.925 313.092 29.525C312.742 28.125 312.242 26.8 311.592 25.55C310.942 24.3 310.142 23.225 309.192 22.325C308.292 21.375 307.292 20.675 306.192 20.225C305.542 20.225 305.017 19.875 304.617 19.175C304.267 18.475 304.092 17.575 304.092 16.475C304.092 14.475 304.867 13.475 306.417 13.475C307.617 13.475 308.742 14.15 309.792 15.5C310.842 16.8 311.767 18.475 312.567 20.525C313.417 22.575 314.067 24.85 314.517 27.35C315.017 29.8 315.267 32.175 315.267 34.475ZM372.925 38.675C372.925 40.775 372.75 42.675 372.4 44.375C372.05 46.075 371.525 47.525 370.825 48.725C370.175 49.925 369.375 50.85 368.425 51.5C367.525 52.15 366.525 52.475 365.425 52.475C363.675 52.475 362.225 51.75 361.075 50.3C359.925 48.85 358.775 46.55 357.625 43.4C356.925 45.2 356.25 46.7 355.6 47.9C355 49.05 354.375 49.975 353.725 50.675C353.125 51.325 352.5 51.8 351.85 52.1C351.2 52.35 350.525 52.475 349.825 52.475C348.675 52.475 347.625 52.15 346.675 51.5C345.725 50.8 344.9 49.85 344.2 48.65C343.55 47.45 343.05 46.025 342.7 44.375C342.35 42.675 342.175 40.85 342.175 38.9C342.175 36.8 342.325 35.05 342.625 33.65C342.925 32.25 343.35 31.125 343.9 30.275C344.45 29.425 345.1 28.825 345.85 28.475C346.65 28.075 347.525 27.875 348.475 27.875C350.075 27.875 351.375 28.525 352.375 29.825C353.375 31.075 353.875 32.675 353.875 34.625C353.875 37.075 353.375 38.95 352.375 40.25C351.425 41.5 350.225 42.125 348.775 42.125C347.125 41.925 346.3 40.675 346.3 38.375V38C346.8 38.9 347.525 39.35 348.475 39.35C349.425 39.35 350.125 39 350.575 38.3C351.075 37.6 351.325 36.625 351.325 35.375C351.175 33.425 350.125 32.45 348.175 32.45C347.025 32.45 346.075 33 345.325 34.1C344.625 35.15 344.275 36.475 344.275 38.075C344.275 40.225 344.825 41.875 345.925 43.025C347.075 44.175 348.3 44.75 349.6 44.75C351.45 44.75 353.05 44.1 354.4 42.8C355.75 41.45 356.75 39.375 357.4 36.575C358.4 39.625 359.475 41.75 360.625 42.95C361.775 44.15 363.275 44.75 365.125 44.75C366.925 44.75 368.3 43.875 369.25 42.125C370.2 40.325 370.725 37.7 370.825 34.25C370.825 32.3 370.425 30.5 369.625 28.85C368.875 27.15 367.85 25.675 366.55 24.425C365.25 23.125 363.725 22.125 361.975 21.425C360.225 20.675 358.375 20.3 356.425 20.3L352.225 20.825C350.225 20.825 349.225 19.725 349.225 17.525C349.225 16.575 349.675 15.65 350.575 14.75L351.775 14C352.525 13.65 353.575 13.475 354.925 13.475C357.325 13.475 359.6 14.075 361.75 15.275C363.95 16.475 365.875 18.175 367.525 20.375C369.175 22.575 370.475 25.225 371.425 28.325C372.425 31.425 372.925 34.875 372.925 38.675ZM403.62 33.05C403.62 35.7 403.32 38.2 402.72 40.55C402.17 42.9 401.395 44.975 400.395 46.775C399.445 48.525 398.32 49.925 397.02 50.975C395.72 52.025 394.32 52.55 392.82 52.55C391.27 52.55 389.82 52.025 388.47 50.975C387.17 49.925 386.02 48.525 385.02 46.775C384.07 44.975 383.32 42.9 382.77 40.55C382.22 38.2 381.945 35.7 381.945 33.05C381.945 30.4 382.22 27.9 382.77 25.55C383.32 23.15 384.07 21.075 385.02 19.325C386.02 17.525 387.17 16.125 388.47 15.125C389.82 14.075 391.27 13.55 392.82 13.55C394.32 13.55 395.72 14.075 397.02 15.125C398.32 16.175 399.445 17.6 400.395 19.4C401.395 21.15 402.17 23.2 402.72 25.55C403.32 27.9 403.62 30.4 403.62 33.05ZM392.97 18.2C391.92 18.2 390.945 18.575 390.045 19.325C389.145 20.025 388.345 20.975 387.645 22.175C386.995 23.375 386.47 24.775 386.07 26.375C385.72 27.975 385.545 29.65 385.545 31.4C385.545 33.2 385.72 34.925 386.07 36.575C386.47 38.175 386.995 39.575 387.645 40.775C388.345 41.975 389.145 42.95 390.045 43.7C390.945 44.4 391.92 44.75 392.97 44.75C393.97 44.75 394.92 44.4 395.82 43.7C396.72 43 397.495 42.05 398.145 40.85C398.845 39.6 399.37 38.175 399.72 36.575C400.12 34.925 400.32 33.2 400.32 31.4C400.32 29.6 400.12 27.9 399.72 26.3C399.37 24.7 398.845 23.3 398.145 22.1C397.495 20.9 396.72 19.95 395.82 19.25C394.92 18.55 393.97 18.2 392.97 18.2ZM432.059 27.425C430.659 26.375 428.809 25.725 426.509 25.475C423.809 25.575 422.459 26.85 422.459 29.3C422.759 31.25 424.059 32.225 426.359 32.225C427.509 32.225 428.559 31.8 429.509 30.95C430.459 30.1 431.309 28.925 432.059 27.425ZM434.309 18.2C434.709 19.05 435.009 19.925 435.209 20.825C435.409 21.725 435.509 22.7 435.509 23.75C435.509 24.3 435.484 24.85 435.434 25.4C435.384 25.9 435.309 26.425 435.209 26.975C436.109 28.225 436.859 29.8 437.459 31.7C438.059 33.6 438.359 35.7 438.359 38C438.359 47 434.009 51.825 425.309 52.475C423.459 52.475 421.759 52.15 420.209 51.5C418.709 50.85 417.409 49.95 416.309 48.8C415.209 47.6 414.359 46.175 413.759 44.525C413.159 42.875 412.859 41.025 412.859 38.975C412.859 34.975 413.834 32.3 415.784 30.95C415.484 32.4 415.334 33.725 415.334 34.925C415.334 36.725 415.634 38.25 416.234 39.5C416.884 40.75 417.684 41.775 418.634 42.575C419.634 43.375 420.734 43.95 421.934 44.3C423.134 44.65 424.334 44.825 425.534 44.825C426.784 44.825 427.984 44.625 429.134 44.225C430.334 43.825 431.384 43.225 432.284 42.425C433.234 41.625 433.984 40.625 434.534 39.425C435.134 38.175 435.434 36.75 435.434 35.15C435.434 32.9 435.059 31.2 434.309 30.05C433.059 34.7 430.134 37.15 425.534 37.4C424.684 37.35 423.859 37.2 423.059 36.95C422.309 36.65 421.634 36.225 421.034 35.675C420.434 35.075 419.959 34.3 419.609 33.35C419.259 32.4 419.084 31.2 419.084 29.75C419.084 28.85 419.234 27.975 419.534 27.125C419.834 26.225 420.284 25.425 420.884 24.725C421.484 24.025 422.209 23.475 423.059 23.075C423.959 22.625 424.984 22.4 426.134 22.4C429.084 22.4 431.459 23.15 433.259 24.65V23.525C433.259 22.825 433.184 22.05 433.034 21.2C432.884 20.3 432.609 19.325 432.209 18.275H412.634V13.55H432.209L434.309 18.2ZM460.245 35.375C460.245 37.625 460.07 39.8 459.72 41.9C459.37 43.95 458.845 45.775 458.145 47.375C457.495 48.925 456.645 50.175 455.595 51.125C454.545 52.075 453.345 52.55 451.995 52.55C450.745 52.55 449.67 52.075 448.77 51.125C447.87 50.175 447.12 49.025 446.52 47.675C445.92 46.275 445.47 44.775 445.17 43.175C444.92 41.575 444.795 40.1 444.795 38.75C444.795 37.55 444.895 36.4 445.095 35.3C445.345 34.2 445.695 33.225 446.145 32.375C446.595 31.475 447.17 30.775 447.87 30.275C448.57 29.725 449.37 29.45 450.27 29.45C450.92 29.45 451.52 29.65 452.07 30.05C452.67 30.4 453.17 30.875 453.57 31.475C453.97 32.025 454.27 32.675 454.47 33.425C454.72 34.125 454.845 34.85 454.845 35.6C454.845 37.05 454.595 38.275 454.095 39.275C453.595 40.225 452.845 40.7 451.845 40.7C451.045 40.7 450.395 40.4 449.895 39.8C449.395 39.2 449.145 38.25 449.145 36.95C449.145 35.25 449.82 34.4 451.17 34.4C451.72 34.4 452.12 34.525 452.37 34.775C451.97 33.375 451.245 32.675 450.195 32.675C449.145 32.675 448.245 33.15 447.495 34.1C446.745 35 446.37 36.15 446.37 37.55C446.37 39.45 446.795 41.125 447.645 42.575C448.545 44.025 449.92 44.75 451.77 44.75C453.97 44.75 455.695 43.9 456.945 42.2C458.195 40.5 458.82 38.275 458.82 35.525C458.82 33.425 458.545 31.35 457.995 29.3C457.445 27.25 456.695 25.425 455.745 23.825C454.795 22.175 453.67 20.85 452.37 19.85C451.07 18.85 449.67 18.325 448.17 18.275H427.095V13.55H446.07C448.17 13.55 450.07 14.1 451.77 15.2C453.52 16.3 455.02 17.825 456.27 19.775C457.52 21.675 458.495 23.975 459.195 26.675C459.895 29.325 460.245 32.225 460.245 35.375ZM499.1 34.625C499.1 32.325 498.775 30.175 498.125 28.175C497.475 26.175 496.55 24.45 495.35 23C494.2 21.55 492.775 20.4 491.075 19.55C489.425 18.7 487.575 18.275 485.525 18.275C483.525 18.275 481.725 18.7 480.125 19.55C478.525 20.4 477.15 21.575 476 23.075C474.85 24.575 473.95 26.325 473.3 28.325C472.7 30.325 472.4 32.45 472.4 34.7C472.4 35.95 472.525 37.2 472.775 38.45C473.025 39.65 473.375 40.725 473.825 41.675C474.325 42.625 474.925 43.4 475.625 44C476.325 44.55 477.125 44.825 478.025 44.825C479.775 44.825 481.35 44.125 482.75 42.725C484.15 41.275 485.125 39.05 485.675 36.05C485.825 36.65 486.05 37.45 486.35 38.45C486.7 39.4 487.15 40.35 487.7 41.3C488.25 42.25 488.95 43.075 489.8 43.775C490.65 44.475 491.675 44.825 492.875 44.825C493.825 44.825 494.675 44.55 495.425 44C496.225 43.4 496.9 42.65 497.45 41.75C498 40.8 498.4 39.725 498.65 38.525C498.95 37.275 499.1 35.975 499.1 34.625ZM494.225 18.275C496.875 20.275 498.8 22.925 500 26.225C501.25 29.525 501.875 33.575 501.875 38.375C501.875 40.425 501.675 42.3 501.275 44C500.925 45.7 500.4 47.2 499.7 48.5C499 49.75 498.125 50.725 497.075 51.425C496.075 52.125 494.925 52.475 493.625 52.475C492.825 52.475 492.1 52.325 491.45 52.025C490.8 51.725 490.175 51.225 489.575 50.525C488.975 49.775 488.35 48.775 487.7 47.525C487.1 46.225 486.4 44.6 485.6 42.65C484.45 46.35 483.225 48.925 481.925 50.375C480.675 51.775 479.275 52.475 477.725 52.475C476.275 52.475 475.025 52.1 473.975 51.35C472.975 50.6 472.125 49.525 471.425 48.125C470.775 46.725 470.275 45.05 469.925 43.1C469.575 41.1 469.35 38.875 469.25 36.425C469.7 26.575 472.675 20.525 478.175 18.275H469.55V13.55H493.55C496.7 13.2 498.275 11.3 498.275 7.85C498.275 6.9 498.15 5.875 497.9 4.775C497.65 3.625 497.3 2.375 496.85 1.025L497.225 0.724999C498.675 2.975 499.675 4.95 500.225 6.65C500.775 8.3 501.05 9.8 501.05 11.15C501.05 14.7 499.225 17.075 495.575 18.275H494.225ZM536.877 11.225C536.877 14.775 535.052 17.15 531.402 18.35H530.502C534.652 20.7 536.777 25.9 536.877 33.95C536.577 46 532.252 52.175 523.902 52.475C515.552 52.175 511.202 46.025 510.852 34.025C510.852 26.025 513.202 20.8 517.902 18.35H511.077V13.55H529.302C532.452 13.25 534.027 11.4 534.027 8C534.027 6.1 533.577 3.8 532.677 1.1L533.052 0.799998C535.602 5 536.877 8.325 536.877 10.775V11.225ZM523.977 18.2C522.577 18.2 521.252 18.55 520.002 19.25C518.752 19.95 517.652 20.9 516.702 22.1C515.802 23.3 515.077 24.7 514.527 26.3C513.977 27.9 513.702 29.625 513.702 31.475C513.702 33.325 513.952 35.075 514.452 36.725C514.952 38.325 515.652 39.725 516.552 40.925C517.452 42.125 518.527 43.075 519.777 43.775C521.027 44.475 522.427 44.825 523.977 44.825C525.627 44.825 527.077 44.475 528.327 43.775C529.627 43.075 530.702 42.125 531.552 40.925C532.452 39.675 533.127 38.25 533.577 36.65C534.027 35 534.252 33.275 534.252 31.475C534.252 29.625 533.977 27.9 533.427 26.3C532.877 24.7 532.127 23.3 531.177 22.1C530.277 20.9 529.202 19.95 527.952 19.25C526.702 18.55 525.377 18.2 523.977 18.2ZM554.036 34.475C553.436 45.925 550.361 51.925 544.811 52.475C543.161 52.425 541.786 52 540.686 51.2C539.536 50.35 538.586 49.2 537.836 47.75C537.036 46.25 536.386 44.5 535.886 42.5C535.386 40.5 534.936 38.3 534.536 35.9C535.436 37.6 536.236 39.025 536.936 40.175C537.636 41.275 538.311 42.175 538.961 42.875C539.561 43.575 540.211 44.075 540.911 44.375C541.611 44.675 542.411 44.825 543.311 44.825C544.411 44.825 545.486 44.55 546.536 44C547.636 43.4 548.611 42.6 549.461 41.6C550.311 40.55 551.011 39.35 551.561 38C552.111 36.65 552.386 35.2 552.386 33.65C552.386 32.3 552.211 30.925 551.861 29.525C551.511 28.125 551.011 26.8 550.361 25.55C549.711 24.3 548.911 23.225 547.961 22.325C547.061 21.375 546.061 20.675 544.961 20.225C544.311 20.225 543.786 19.875 543.386 19.175C543.036 18.475 542.861 17.575 542.861 16.475C542.861 14.475 543.636 13.475 545.186 13.475C546.386 13.475 547.511 14.15 548.561 15.5C549.611 16.8 550.536 18.475 551.336 20.525C552.186 22.575 552.836 24.85 553.286 27.35C553.786 29.8 554.036 32.175 554.036 34.475ZM591.069 38.45C591.519 42.75 594.419 44.9 599.769 44.9C603.569 44.7 606.669 42.9 609.069 39.5C606.419 34.45 603.119 31.925 599.169 31.925C593.769 32.325 591.069 34.5 591.069 38.45ZM589.269 13.475C592.869 13.475 595.494 15.825 597.144 20.525L597.969 18.275C599.769 15.075 602.094 13.475 604.944 13.475H605.469C611.519 14.125 614.544 19.225 614.544 28.775C614.544 32.975 613.644 37.125 611.844 41.225C612.694 43.525 613.119 46.05 613.119 48.8L612.744 55.025C612.744 57.325 613.344 58.475 614.544 58.475C614.794 58.475 615.119 58.4 615.519 58.25C615.219 60.45 614.169 61.55 612.369 61.55C609.569 61.55 608.169 59.625 608.169 55.775C608.169 55.325 608.344 54.45 608.694 53.15C609.044 51.8 609.594 50 610.344 47.75C610.544 47.15 610.644 46.5 610.644 45.8C610.644 45.15 610.544 44.5 610.344 43.85C608.944 46.85 607.194 49.05 605.094 50.45C602.994 51.8 600.494 52.475 597.594 52.475C594.994 51.925 592.819 50.625 591.069 48.575C589.319 46.475 588.444 43.75 588.444 40.4C588.444 33.95 591.569 30.35 597.819 29.6H598.569C604.219 29.6 608.219 32.325 610.569 37.775C611.119 36.475 611.469 35.15 611.619 33.8C611.819 32.45 611.919 31 611.919 29.45C611.919 22 609.719 18.275 605.319 18.275C601.569 18.575 598.844 21.7 597.144 27.65C596.494 24.1 595.469 21.65 594.069 20.3C592.719 18.9 590.919 18.2 588.669 18.2C587.319 18.2 586.119 18.625 585.069 19.475C584.069 20.325 583.569 21.625 583.569 23.375C583.569 24.925 584.019 26.075 584.919 26.825C585.819 27.575 586.844 27.95 587.994 27.95C588.644 27.95 589.419 27.825 590.319 27.575C590.419 27.825 590.469 28.05 590.469 28.25C590.469 28.45 590.469 28.675 590.469 28.925C590.469 30.725 589.319 31.85 587.019 32.3C584.969 32.3 583.444 31.45 582.444 29.75C581.444 28 580.944 25.775 580.944 23.075C580.944 20.425 581.694 18.2 583.194 16.4C584.744 14.55 586.769 13.575 589.269 13.475ZM650.548 11.225C650.548 14.775 648.723 17.15 645.073 18.35H644.173C648.323 20.7 650.448 25.9 650.548 33.95C650.248 46 645.923 52.175 637.573 52.475C629.223 52.175 624.873 46.025 624.523 34.025C624.523 26.025 626.873 20.8 631.573 18.35H624.748V13.55H642.973C646.123 13.25 647.698 11.4 647.698 8C647.698 6.1 647.248 3.8 646.348 1.1L646.723 0.799998C649.273 5 650.548 8.325 650.548 10.775V11.225ZM637.648 18.2C636.248 18.2 634.923 18.55 633.673 19.25C632.423 19.95 631.323 20.9 630.373 22.1C629.473 23.3 628.748 24.7 628.198 26.3C627.648 27.9 627.373 29.625 627.373 31.475C627.373 33.325 627.623 35.075 628.123 36.725C628.623 38.325 629.323 39.725 630.223 40.925C631.123 42.125 632.198 43.075 633.448 43.775C634.698 44.475 636.098 44.825 637.648 44.825C639.298 44.825 640.748 44.475 641.998 43.775C643.298 43.075 644.373 42.125 645.223 40.925C646.123 39.675 646.798 38.25 647.248 36.65C647.698 35 647.923 33.275 647.923 31.475C647.923 29.625 647.648 27.9 647.098 26.3C646.548 24.7 645.798 23.3 644.848 22.1C643.948 20.9 642.873 19.95 641.623 19.25C640.373 18.55 639.048 18.2 637.648 18.2ZM667.708 34.475C667.108 45.925 664.033 51.925 658.483 52.475C656.833 52.425 655.458 52 654.358 51.2C653.208 50.35 652.258 49.2 651.508 47.75C650.708 46.25 650.058 44.5 649.558 42.5C649.058 40.5 648.608 38.3 648.208 35.9C649.108 37.6 649.908 39.025 650.608 40.175C651.308 41.275 651.983 42.175 652.633 42.875C653.233 43.575 653.883 44.075 654.583 44.375C655.283 44.675 656.083 44.825 656.983 44.825C658.083 44.825 659.158 44.55 660.208 44C661.308 43.4 662.283 42.6 663.133 41.6C663.983 40.55 664.683 39.35 665.233 38C665.783 36.65 666.058 35.2 666.058 33.65C666.058 32.3 665.883 30.925 665.533 29.525C665.183 28.125 664.683 26.8 664.033 25.55C663.383 24.3 662.583 23.225 661.633 22.325C660.733 21.375 659.733 20.675 658.633 20.225C657.983 20.225 657.458 19.875 657.058 19.175C656.708 18.475 656.533 17.575 656.533 16.475C656.533 14.475 657.308 13.475 658.858 13.475C660.058 13.475 661.183 14.15 662.233 15.5C663.283 16.8 664.208 18.475 665.008 20.525C665.858 22.575 666.508 24.85 666.958 27.35C667.458 29.8 667.708 32.175 667.708 34.475ZM725.366 38.675C725.366 40.775 725.191 42.675 724.841 44.375C724.491 46.075 723.966 47.525 723.266 48.725C722.616 49.925 721.816 50.85 720.866 51.5C719.966 52.15 718.966 52.475 717.866 52.475C716.116 52.475 714.666 51.75 713.516 50.3C712.366 48.85 711.216 46.55 710.066 43.4C709.366 45.2 708.691 46.7 708.041 47.9C707.441 49.05 706.816 49.975 706.166 50.675C705.566 51.325 704.941 51.8 704.291 52.1C703.641 52.35 702.966 52.475 702.266 52.475C701.116 52.475 700.066 52.15 699.116 51.5C698.166 50.8 697.341 49.85 696.641 48.65C695.991 47.45 695.491 46.025 695.141 44.375C694.791 42.675 694.616 40.85 694.616 38.9C694.616 36.8 694.766 35.05 695.066 33.65C695.366 32.25 695.791 31.125 696.341 30.275C696.891 29.425 697.541 28.825 698.291 28.475C699.091 28.075 699.966 27.875 700.916 27.875C702.516 27.875 703.816 28.525 704.816 29.825C705.816 31.075 706.316 32.675 706.316 34.625C706.316 37.075 705.816 38.95 704.816 40.25C703.866 41.5 702.666 42.125 701.216 42.125C699.566 41.925 698.741 40.675 698.741 38.375V38C699.241 38.9 699.966 39.35 700.916 39.35C701.866 39.35 702.566 39 703.016 38.3C703.516 37.6 703.766 36.625 703.766 35.375C703.616 33.425 702.566 32.45 700.616 32.45C699.466 32.45 698.516 33 697.766 34.1C697.066 35.15 696.716 36.475 696.716 38.075C696.716 40.225 697.266 41.875 698.366 43.025C699.516 44.175 700.741 44.75 702.041 44.75C703.891 44.75 705.491 44.1 706.841 42.8C708.191 41.45 709.191 39.375 709.841 36.575C710.841 39.625 711.916 41.75 713.066 42.95C714.216 44.15 715.716 44.75 717.566 44.75C719.366 44.75 720.741 43.875 721.691 42.125C722.641 40.325 723.166 37.7 723.266 34.25C723.266 32.3 722.866 30.5 722.066 28.85C721.316 27.15 720.291 25.675 718.991 24.425C717.691 23.125 716.166 22.125 714.416 21.425C712.666 20.675 710.816 20.3 708.866 20.3L704.666 20.825C702.666 20.825 701.666 19.725 701.666 17.525C701.666 16.575 702.116 15.65 703.016 14.75L704.216 14C704.966 13.65 706.016 13.475 707.366 13.475C709.766 13.475 712.041 14.075 714.191 15.275C716.391 16.475 718.316 18.175 719.966 20.375C721.616 22.575 722.916 25.225 723.866 28.325C724.866 31.425 725.366 34.875 725.366 38.675ZM756.062 33.05C756.062 35.7 755.762 38.2 755.162 40.55C754.612 42.9 753.837 44.975 752.837 46.775C751.887 48.525 750.762 49.925 749.462 50.975C748.162 52.025 746.762 52.55 745.262 52.55C743.712 52.55 742.262 52.025 740.912 50.975C739.612 49.925 738.462 48.525 737.462 46.775C736.512 44.975 735.762 42.9 735.212 40.55C734.662 38.2 734.387 35.7 734.387 33.05C734.387 30.4 734.662 27.9 735.212 25.55C735.762 23.15 736.512 21.075 737.462 19.325C738.462 17.525 739.612 16.125 740.912 15.125C742.262 14.075 743.712 13.55 745.262 13.55C746.762 13.55 748.162 14.075 749.462 15.125C750.762 16.175 751.887 17.6 752.837 19.4C753.837 21.15 754.612 23.2 755.162 25.55C755.762 27.9 756.062 30.4 756.062 33.05ZM745.412 18.2C744.362 18.2 743.387 18.575 742.487 19.325C741.587 20.025 740.787 20.975 740.087 22.175C739.437 23.375 738.912 24.775 738.512 26.375C738.162 27.975 737.987 29.65 737.987 31.4C737.987 33.2 738.162 34.925 738.512 36.575C738.912 38.175 739.437 39.575 740.087 40.775C740.787 41.975 741.587 42.95 742.487 43.7C743.387 44.4 744.362 44.75 745.412 44.75C746.412 44.75 747.362 44.4 748.262 43.7C749.162 43 749.937 42.05 750.587 40.85C751.287 39.6 751.812 38.175 752.162 36.575C752.562 34.925 752.762 33.2 752.762 31.4C752.762 29.6 752.562 27.9 752.162 26.3C751.812 24.7 751.287 23.3 750.587 22.1C749.937 20.9 749.162 19.95 748.262 19.25C747.362 18.55 746.412 18.2 745.412 18.2ZM794.85 34.7C794.85 32.4 794.525 30.275 793.875 28.325C793.225 26.325 792.3 24.6 791.1 23.15C789.95 21.65 788.525 20.475 786.825 19.625C785.175 18.775 783.325 18.35 781.275 18.35C779.325 18.35 777.55 18.775 775.95 19.625C774.35 20.475 772.975 21.65 771.825 23.15C770.675 24.65 769.775 26.4 769.125 28.4C768.525 30.4 768.225 32.55 768.225 34.85C768.225 36.1 768.35 37.325 768.6 38.525C768.85 39.725 769.2 40.8 769.65 41.75C770.15 42.65 770.75 43.4 771.45 44C772.15 44.55 772.95 44.825 773.85 44.825C775.55 44.825 777.1 44.125 778.5 42.725C779.9 41.325 780.9 39.125 781.5 36.125C781.65 36.775 781.875 37.6 782.175 38.6C782.525 39.6 782.975 40.575 783.525 41.525C784.125 42.425 784.825 43.2 785.625 43.85C786.475 44.5 787.475 44.825 788.625 44.825C789.575 44.825 790.425 44.55 791.175 44C791.975 43.45 792.625 42.725 793.125 41.825C793.675 40.875 794.1 39.8 794.4 38.6C794.7 37.35 794.85 36.05 794.85 34.7ZM789.975 18.275C792.625 20.325 794.575 23 795.825 26.3C797.075 29.6 797.7 33.65 797.7 38.45C797.7 40.45 797.5 42.325 797.1 44.075C796.75 45.775 796.2 47.25 795.45 48.5C794.75 49.75 793.875 50.725 792.825 51.425C791.825 52.125 790.675 52.475 789.375 52.475C788.625 52.475 787.9 52.325 787.2 52.025C786.55 51.725 785.9 51.225 785.25 50.525C784.65 49.775 784.025 48.775 783.375 47.525C782.775 46.225 782.1 44.6 781.35 42.65C780.2 46.35 778.975 48.925 777.675 50.375C776.425 51.775 775.025 52.475 773.475 52.475C770.625 52.475 768.55 51.075 767.25 48.275C766 45.425 765.275 41.5 765.075 36.5C765.325 31.55 766.15 27.575 767.55 24.575C769 21.525 771.15 19.425 774 18.275H765.375V13.55H791.175L791.25 18.275H789.975ZM796.171 8.525C795.971 14.625 793.871 17.875 789.871 18.275H786.421V13.55H789.271C790.771 13.55 791.996 13 792.946 11.9C793.846 10.8 794.296 9.35 794.296 7.55C794.146 4.7 793.021 3.25 790.921 3.2C789.571 3.35 788.896 4.025 788.896 5.225C788.896 5.975 789.046 6.6 789.346 7.1C789.346 6.65 789.471 6.275 789.721 5.975C789.971 5.675 790.346 5.525 790.846 5.525C791.396 5.525 791.796 5.725 792.046 6.125C792.296 6.525 792.421 7.025 792.421 7.625C792.421 8.375 792.221 8.975 791.821 9.425C791.371 9.875 790.821 10.1 790.171 10.1C789.371 10.1 788.746 9.75 788.296 9.05C787.796 8.35 787.471 7.35 787.321 6.05C787.321 4.6 787.721 3.375 788.521 2.375C789.271 1.375 790.221 0.874997 791.371 0.874997C792.521 0.874997 793.621 1.525 794.671 2.825C795.671 4.075 796.171 5.975 796.171 8.525ZM826.814 33.05C826.814 35.7 826.514 38.2 825.914 40.55C825.364 42.9 824.589 44.975 823.589 46.775C822.639 48.525 821.514 49.925 820.214 50.975C818.914 52.025 817.514 52.55 816.014 52.55C814.464 52.55 813.014 52.025 811.664 50.975C810.364 49.925 809.214 48.525 808.214 46.775C807.264 44.975 806.514 42.9 805.964 40.55C805.414 38.2 805.139 35.7 805.139 33.05C805.139 30.4 805.414 27.9 805.964 25.55C806.514 23.15 807.264 21.075 808.214 19.325C809.214 17.525 810.364 16.125 811.664 15.125C813.014 14.075 814.464 13.55 816.014 13.55C817.514 13.55 818.914 14.075 820.214 15.125C821.514 16.175 822.639 17.6 823.589 19.4C824.589 21.15 825.364 23.2 825.914 25.55C826.514 27.9 826.814 30.4 826.814 33.05ZM816.164 18.2C815.114 18.2 814.139 18.575 813.239 19.325C812.339 20.025 811.539 20.975 810.839 22.175C810.189 23.375 809.664 24.775 809.264 26.375C808.914 27.975 808.739 29.65 808.739 31.4C808.739 33.2 808.914 34.925 809.264 36.575C809.664 38.175 810.189 39.575 810.839 40.775C811.539 41.975 812.339 42.95 813.239 43.7C814.139 44.4 815.114 44.75 816.164 44.75C817.164 44.75 818.114 44.4 819.014 43.7C819.914 43 820.689 42.05 821.339 40.85C822.039 39.6 822.564 38.175 822.914 36.575C823.314 34.925 823.514 33.2 823.514 31.4C823.514 29.6 823.314 27.9 822.914 26.3C822.564 24.7 822.039 23.3 821.339 22.1C820.689 20.9 819.914 19.95 819.014 19.25C818.114 18.55 817.164 18.2 816.164 18.2ZM866.052 34.85C866.052 37.3 865.877 39.6 865.527 41.75C865.177 43.9 864.627 45.775 863.877 47.375C863.177 48.925 862.302 50.175 861.252 51.125C860.202 52.025 858.977 52.475 857.577 52.475C856.127 52.475 854.852 51.775 853.752 50.375C852.702 48.975 851.677 46.65 850.677 43.4C849.727 46.8 848.702 49.175 847.602 50.525C846.502 51.825 845.252 52.475 843.852 52.475C841.602 52.475 839.702 51.175 838.152 48.575C836.602 45.975 835.827 42.275 835.827 37.475C835.827 34.225 836.202 31.125 836.952 28.175C837.702 25.225 839.002 22.525 840.852 20.075C839.752 18.275 839.052 15.9 838.752 12.95C838.752 8.85 839.577 5.775 841.227 3.725C842.927 1.625 845.227 0.574997 848.127 0.574997C853.127 0.574997 857.477 4.4 861.177 12.05C862.727 16.1 863.902 20.025 864.702 23.825C865.552 27.575 866.002 31.25 866.052 34.85ZM861.777 21.05C859.577 16.2 857.377 12.675 855.177 10.475C853.027 8.225 850.852 7.1 848.652 7.1C847.752 7.1 846.902 7.2 846.102 7.4C845.302 7.6 844.577 7.95 843.927 8.45C843.327 8.95 842.852 9.65 842.502 10.55C842.152 11.4 841.977 12.475 841.977 13.775C841.977 15.675 842.252 17.225 842.802 18.425C843.652 17.425 844.727 16.65 846.027 16.1C847.377 15.5 848.877 15.2 850.527 15.2C852.427 15.2 854.202 15.5 855.852 16.1C857.502 16.7 858.827 17.575 859.827 18.725L861.777 21.05ZM864.252 34.55C864.252 32.3 863.877 30.2 863.127 28.25C862.427 26.25 861.452 24.525 860.202 23.075C859.002 21.575 857.552 20.4 855.852 19.55C854.202 18.65 852.427 18.2 850.527 18.2C848.777 18.2 847.152 18.675 845.652 19.625C844.202 20.575 842.952 21.85 841.902 23.45C840.852 25 840.027 26.8 839.427 28.85C838.827 30.9 838.527 33.05 838.527 35.3C838.527 36.6 838.652 37.825 838.902 38.975C839.202 40.125 839.602 41.125 840.102 41.975C840.652 42.825 841.277 43.525 841.977 44.075C842.727 44.575 843.552 44.825 844.452 44.825C845.752 44.825 846.952 44.325 848.052 43.325C849.202 42.275 850.202 40.175 851.052 37.025C851.952 42.225 853.852 44.825 856.752 44.825C857.952 44.825 859.002 44.575 859.902 44.075C860.852 43.525 861.652 42.8 862.302 41.9C862.952 40.95 863.427 39.85 863.727 38.6C864.077 37.35 864.252 36 864.252 34.55ZM898.71 18.35C899.96 19.75 901.435 22.55 903.135 26.75C904.385 30.65 905.01 34.275 905.01 37.625C905.01 42.775 904.535 46.55 903.585 48.95C902.635 51.3 901.41 52.475 899.91 52.475C898.16 52.475 897.285 51.05 897.285 48.2C897.285 47.95 897.485 47.4 897.885 46.55C898.335 45.65 898.81 44.6 899.31 43.4C899.86 42.15 900.335 40.825 900.735 39.425C901.185 37.975 901.41 36.55 901.41 35.15C901.41 29.45 900.435 25.25 898.485 22.55C896.535 19.8 893.76 18.375 890.16 18.275C886.41 18.375 883.56 19.725 881.61 22.325C879.66 24.925 878.685 28.425 878.685 32.825C878.685 35.125 878.86 37.075 879.21 38.675C879.61 40.225 880.21 41.875 881.01 43.625C881.91 45.225 882.485 46.4 882.735 47.15C883.035 47.85 883.185 48.35 883.185 48.65C883.185 49.85 882.935 50.75 882.435 51.35C881.985 51.95 881.26 52.325 880.26 52.475C879.41 52.475 878.66 52.05 878.01 51.2C877.41 50.35 876.91 49.225 876.51 47.825C876.11 46.425 875.81 44.85 875.61 43.1C875.46 41.3 875.385 39.5 875.385 37.7C875.385 33.45 875.885 29.6 876.885 26.15C877.935 22.7 879.585 20.1 881.835 18.35H875.085V13.55H897.66C900.76 13.2 902.31 11.375 902.31 8.075C902.31 6.225 901.835 3.95 900.885 1.25L901.335 0.949996C902.735 3.2 903.71 5.15 904.26 6.8C904.81 8.45 905.085 9.95 905.085 11.3C905.085 14.9 903.26 17.25 899.61 18.35H898.71ZM936.1 34.7C936.1 37.25 935.9 39.6 935.5 41.75C935.1 43.9 934.525 45.775 933.775 47.375C933.025 48.975 932.1 50.225 931 51.125C929.95 52.025 928.75 52.475 927.4 52.475C926.45 52.475 925.525 52.175 924.625 51.575C923.775 50.925 923 50.05 922.3 48.95C921.65 47.85 921.1 46.55 920.65 45.05C920.25 43.5 920.05 41.825 920.05 40.025C920.05 37.175 920.525 35.175 921.475 34.025C922.425 32.825 923.625 32.225 925.075 32.225C928.225 32.225 929.8 33.9 929.8 37.25C929.7 38.4 929.4 39.325 928.9 40.025C928.45 40.675 927.825 41 927.025 41C926.375 41 925.8 40.75 925.3 40.25C924.85 39.75 924.625 38.975 924.625 37.925C924.625 36.725 924.9 35.65 925.45 34.7C925.35 34.65 925.2 34.625 925 34.625C924.1 34.625 923.325 34.925 922.675 35.525C922.025 36.125 921.7 37.075 921.7 38.375C921.7 40.375 922.175 41.925 923.125 43.025C924.075 44.075 925.35 44.675 926.95 44.825C927.75 44.825 928.55 44.675 929.35 44.375C930.2 44.075 930.95 43.55 931.6 42.8C932.3 42 932.875 40.95 933.325 39.65C933.775 38.3 934 36.6 934 34.55C934 32.75 933.85 30.9 933.55 29C933.25 27.05 932.725 25.275 931.975 23.675C931.225 22.025 930.225 20.7 928.975 19.7C927.725 18.65 926.125 18.125 924.175 18.125C922.475 18.125 921.075 18.55 919.975 19.4C918.875 20.2 918 21.275 917.35 22.625C916.75 23.975 916.325 25.525 916.075 27.275C915.825 29.025 915.7 30.825 915.7 32.675L916.15 37.4C916.45 39.6 916.6 41.125 916.6 41.975C916.6 45.475 916.05 48.1 914.95 49.85C913.9 51.6 912.5 52.475 910.75 52.475C909.55 52.475 908.45 52.025 907.45 51.125C906.45 50.225 905.625 49.075 904.975 47.675C904.275 46.225 903.75 44.6 903.4 42.8C903 40.95 902.8 39.075 902.8 37.175C902.85 37.775 903.025 38.525 903.325 39.425C903.575 40.275 903.975 41.125 904.525 41.975C905.025 42.775 905.675 43.475 906.475 44.075C907.225 44.625 908.125 44.9 909.175 44.9C910.725 44.9 911.9 44.15 912.7 42.65C913.5 41.1 913.9 38.625 913.9 35.225C913.9 27.775 914.7 22.3 916.3 18.8C917.95 15.25 920.35 13.475 923.5 13.475C925.45 13.475 927.2 14 928.75 15.05C930.35 16.1 931.675 17.575 932.725 19.475C933.825 21.375 934.65 23.625 935.2 26.225C935.8 28.825 936.1 31.65 936.1 34.7ZM980.447 4.325C979.797 4.475 979.247 5.025 978.797 5.975C978.397 6.875 978.197 8.05 978.197 9.5C978.197 10.5 978.297 11.475 978.497 12.425C978.747 13.375 979.047 14.225 979.397 14.975C979.797 15.725 980.222 16.325 980.672 16.775C981.122 17.225 981.597 17.45 982.097 17.45C982.947 17.45 983.597 17 984.047 16.1C984.547 15.15 984.797 13.875 984.797 12.275C984.797 9.925 984.347 8.025 983.447 6.575C982.547 5.075 981.547 4.325 980.447 4.325ZM984.197 52.55C984.097 52.55 983.972 52.575 983.822 52.625C983.722 52.625 983.622 52.625 983.522 52.625C978.472 52.625 975.947 50.1 975.947 45.05C975.947 44.65 975.947 44.225 975.947 43.775C975.997 43.275 976.022 42.8 976.022 42.35C976.022 37.55 974.097 35.15 970.247 35.15C967.247 35.15 965.722 36.775 965.672 40.025C965.822 42.875 966.697 44.6 968.297 45.2C969.247 45.55 969.897 46.125 970.247 46.925C970.647 47.725 970.847 48.75 970.847 50C970.847 50.7 970.672 51.425 970.322 52.175C969.972 52.925 969.347 53.3 968.447 53.3C967.847 53.3 967.222 53 966.572 52.4C965.922 51.75 965.347 50.85 964.847 49.7C964.347 48.55 963.922 47.175 963.572 45.575C963.272 43.975 963.122 42.2 963.122 40.25C963.122 36.15 963.772 33.025 965.072 30.875C966.422 28.725 968.322 27.65 970.772 27.65C972.322 27.65 973.672 28.325 974.822 29.675C975.972 31.025 976.747 33.05 977.147 35.75C977.547 38.75 978.222 41 979.172 42.5C980.122 44 981.522 44.8 983.372 44.9C988.622 43.85 991.247 38.025 991.247 27.425C991.247 23.375 990.822 19.85 989.972 16.85C989.172 13.8 988.297 11.55 987.347 10.1C987.397 10.65 987.422 11.175 987.422 11.675C987.422 12.175 987.422 12.675 987.422 13.175C987.422 18.875 985.397 21.725 981.347 21.725C980.247 21.725 979.297 21.4 978.497 20.75C977.747 20.05 977.122 19.15 976.622 18.05C976.122 16.95 975.747 15.725 975.497 14.375C975.247 13.025 975.122 11.675 975.122 10.325C975.122 9.075 975.222 7.85 975.422 6.65C975.672 5.45 976.022 4.4 976.472 3.5C976.922 2.55 977.472 1.8 978.122 1.25C978.822 0.699998 979.647 0.424999 980.597 0.424999C982.447 0.424999 984.172 1.225 985.772 2.825C987.372 4.375 988.747 6.525 989.897 9.275C991.097 11.975 992.022 15.125 992.672 18.725C993.322 22.325 993.647 26.15 993.647 30.2C993.647 33.4 993.447 36.35 993.047 39.05C992.647 41.75 992.047 44.1 991.247 46.1C990.447 48.05 989.447 49.6 988.247 50.75C987.097 51.9 985.747 52.5 984.197 52.55ZM1018.35 22.1C1018.35 27.75 1016.07 30.7 1011.52 30.95C1008.07 30.8 1005.97 29.55 1005.22 27.2C1004.97 27.85 1004.85 28.8 1004.85 30.05C1004.85 33.5 1005.8 37.075 1007.7 40.775C1009.65 44.475 1012.52 48.375 1016.32 52.475H1009.42C1008.47 51.575 1007.57 50.325 1006.72 48.725C1005.92 47.125 1005.22 45.35 1004.62 43.4C1004.02 41.45 1003.55 39.4 1003.2 37.25C1002.85 35.05 1002.67 32.925 1002.67 30.875C1002.67 28.525 1002.85 26.3 1003.2 24.2C1003.6 22.1 1004.15 20.25 1004.85 18.65C1005.55 17.05 1006.4 15.8 1007.4 14.9C1008.45 13.95 1009.62 13.475 1010.92 13.475C1015.47 13.475 1017.95 16.05 1018.35 21.2V22.1ZM1015.12 22.55C1015.12 19.8 1013.77 18.375 1011.07 18.275C1008.62 18.625 1007.02 20.425 1006.27 23.675C1007.32 25.825 1008.97 26.9 1011.22 26.9C1012.42 26.9 1013.35 26.475 1014 25.625C1014.65 24.775 1015.02 23.75 1015.12 22.55ZM1056.02 29.225C1055.17 29.225 1054.37 29.425 1053.62 29.825C1052.92 30.225 1052.3 30.8 1051.75 31.55C1051.2 32.25 1050.75 33.075 1050.4 34.025C1050.1 34.975 1049.95 35.975 1049.95 37.025C1049.95 39.175 1050.52 41.025 1051.67 42.575C1052.87 44.075 1054.32 44.825 1056.02 44.825C1056.82 44.825 1057.6 44.625 1058.35 44.225C1059.1 43.775 1059.75 43.2 1060.3 42.5C1060.85 41.8 1061.27 40.975 1061.57 40.025C1061.92 39.075 1062.1 38.075 1062.1 37.025C1062.1 35.975 1061.92 34.975 1061.57 34.025C1061.27 33.075 1060.82 32.25 1060.22 31.55C1059.67 30.8 1059.02 30.225 1058.27 29.825C1057.57 29.425 1056.82 29.225 1056.02 29.225ZM1057.6 18.275V23.525H1066.6V29.225H1060.6C1063.9 30.875 1065.6 34.375 1065.7 39.725C1065.2 47.575 1062.02 51.825 1056.17 52.475C1050.17 51.825 1047.07 47.45 1046.87 39.35C1047.07 34.2 1048.57 30.825 1051.37 29.225H1045.37V23.525H1053.85V18.275H1045.37V13.55H1059.1C1062.2 13.2 1063.75 11.35 1063.75 8C1063.75 6.25 1063.3 3.975 1062.4 1.175L1062.77 0.874997C1064.17 3.125 1065.15 5.1 1065.7 6.8C1066.3 8.45 1066.6 9.925 1066.6 11.225C1066.6 14.775 1064.75 17.125 1061.05 18.275H1057.6ZM1098.72 18.275C1100.82 19.875 1102.45 22.225 1103.6 25.325C1104.75 28.425 1105.32 32.3 1105.32 36.95C1105.32 46.55 1102.27 51.725 1096.17 52.475C1090.82 52.475 1088.15 50.025 1088.15 45.125C1088.15 44.575 1088.17 43.975 1088.22 43.325C1088.32 42.625 1088.37 42 1088.37 41.45C1088.37 36.85 1086.4 34.55 1082.45 34.55C1079.85 34.55 1078.42 36.05 1078.17 39.05C1078.22 41.95 1079.02 43.75 1080.57 44.45C1081.47 44.85 1082.1 45.425 1082.45 46.175C1082.8 46.925 1082.97 47.95 1082.97 49.25C1082.97 49.95 1082.8 50.675 1082.45 51.425C1082.1 52.125 1081.47 52.475 1080.57 52.475C1079.97 52.475 1079.37 52.175 1078.77 51.575C1078.22 50.975 1077.7 50.15 1077.2 49.1C1076.75 48.05 1076.37 46.775 1076.07 45.275C1075.77 43.775 1075.62 42.125 1075.62 40.325C1075.62 35.975 1076.3 32.7 1077.65 30.5C1079 28.25 1080.87 27.125 1083.27 27.125C1084.87 27.125 1086.25 27.825 1087.4 29.225C1088.55 30.625 1089.3 32.75 1089.65 35.6C1090 38.75 1090.67 41.075 1091.67 42.575C1092.67 44.075 1094.15 44.825 1096.1 44.825C1100.4 44.825 1102.55 41.2 1102.55 33.95C1102.1 26.4 1099.77 21.15 1095.57 18.2H1075.62V13.55H1098.65C1101.5 13.05 1102.92 11.175 1102.92 7.925C1102.92 7.025 1102.82 6.025 1102.62 4.925C1102.42 3.775 1102.07 2.5 1101.57 1.1L1101.95 0.799998C1103.35 3.05 1104.35 5 1104.95 6.65C1105.55 8.3 1105.85 9.825 1105.85 11.225C1105.85 14.825 1103.97 17.175 1100.22 18.275H1098.72ZM1118.1 76.1C1118.05 77.5 1117.73 78.625 1117.13 79.475C1116.53 80.375 1115.63 80.825 1114.43 80.825C1113.53 80.825 1112.68 80.4 1111.88 79.55C1111.08 78.7 1110.68 77.125 1110.68 74.825C1110.68 74.475 1110.68 74.1 1110.68 73.7C1110.73 73.35 1110.78 72.975 1110.83 72.575C1110.08 73.725 1109.15 74.55 1108.05 75.05C1106.9 75.55 1105.53 75.8 1103.93 75.8C1099.68 75.8 1097.5 72.975 1097.4 67.325C1097.65 62.225 1099.83 59.45 1103.93 59C1105.63 59 1107.08 59.475 1108.28 60.425C1109.43 61.425 1110.35 62.825 1111.05 64.625C1112.05 63.725 1112.58 61.825 1112.63 58.925C1112.48 56.225 1111.83 53.95 1110.68 52.1C1113.33 53.55 1114.68 56.35 1114.73 60.5C1114.43 64.35 1113.7 67.35 1112.55 69.5C1112.75 70.35 1112.88 71.15 1112.93 71.9C1113.03 72.7 1113.13 73.4 1113.23 74C1113.38 74.6 1113.58 75.075 1113.83 75.425C1114.13 75.775 1114.63 75.95 1115.33 75.95C1116.38 75.95 1116.9 74.975 1116.9 73.025C1116.9 72.825 1116.88 72.625 1116.83 72.425C1116.83 72.225 1116.83 72 1116.83 71.75C1117.58 72.8 1118 74.25 1118.1 76.1ZM1110.38 67.55C1109.68 66 1108.78 64.675 1107.68 63.575C1106.53 62.475 1105.23 61.925 1103.78 61.925C1101.33 61.925 1100.08 63.45 1100.03 66.5C1100.48 69.85 1101.8 71.525 1104 71.525C1106.35 71.525 1108.48 70.2 1110.38 67.55ZM1147.05 35C1146.5 38.6 1144.97 40.525 1142.47 40.775C1141.52 40.775 1140.65 40.525 1139.85 40.025C1139.1 39.525 1138.45 38.875 1137.9 38.075C1137.4 37.275 1137 36.375 1136.7 35.375C1136.45 34.325 1136.32 33.25 1136.32 32.15C1136.32 31.2 1136.45 30.275 1136.7 29.375C1136.95 28.425 1137.3 27.575 1137.75 26.825C1138.2 26.075 1138.75 25.475 1139.4 25.025C1140.05 24.575 1140.8 24.35 1141.65 24.35C1142.85 24.35 1143.75 24.825 1144.35 25.775C1143.6 20.775 1140.32 18.275 1134.52 18.275C1130.07 18.275 1126.75 19.675 1124.55 22.475C1122.35 25.275 1121.25 29.25 1121.25 34.4C1121.25 37.7 1121.77 40.225 1122.82 41.975C1123.87 43.725 1125.25 44.7 1126.95 44.9C1130.05 44.9 1132.25 42 1133.55 36.2C1135.35 42 1137.8 44.925 1140.9 44.975C1143.1 44.625 1144.7 43.8 1145.7 42.5C1146.7 41.15 1147.2 39.275 1147.2 36.875L1147.05 35ZM1141.95 27.425C1141.1 27.425 1140.37 27.925 1139.77 28.925C1139.17 29.875 1138.87 31.05 1138.87 32.45C1138.87 33.8 1139.17 34.975 1139.77 35.975C1140.37 36.975 1141.1 37.475 1141.95 37.475C1142.85 37.475 1143.6 36.975 1144.2 35.975C1144.8 34.975 1145.1 33.8 1145.1 32.45C1145.1 31.05 1144.8 29.875 1144.2 28.925C1143.6 27.925 1142.85 27.425 1141.95 27.425ZM1142.85 18.275C1146 21.325 1147.75 25.825 1148.1 31.775C1148.9 33.275 1149.45 35.425 1149.75 38.225C1149.75 40.075 1149.55 41.85 1149.15 43.55C1148.75 45.25 1148.17 46.775 1147.42 48.125C1146.67 49.425 1145.75 50.475 1144.65 51.275C1143.6 52.075 1142.42 52.475 1141.12 52.475C1139.82 52.475 1138.55 51.775 1137.3 50.375C1136.1 48.975 1134.87 46.625 1133.62 43.325C1132.77 46.425 1131.8 48.725 1130.7 50.225C1129.65 51.725 1128.4 52.475 1126.95 52.475C1124.5 52.475 1122.5 51 1120.95 48.05C1119.45 45.05 1118.57 40.85 1118.32 35.45C1118.52 26.2 1121.17 20.475 1126.27 18.275H1118.55V13.55H1141.05C1144.2 13.2 1145.77 11.3 1145.77 7.85C1145.77 6 1145.3 3.75 1144.35 1.1L1144.65 0.724999C1146.1 2.975 1147.1 4.925 1147.65 6.575C1148.25 8.225 1148.55 9.75 1148.55 11.15C1148.55 14.75 1146.65 17.125 1142.85 18.275ZM1182.98 18.275V18.35C1188.03 22.1 1190.73 28.525 1191.08 37.625C1191.08 42.275 1190.38 45.925 1188.98 48.575C1187.58 51.225 1185.55 52.55 1182.9 52.55C1181.15 52.55 1179.63 51.825 1178.33 50.375C1177.08 48.875 1175.85 46.4 1174.65 42.95C1173.7 46.3 1172.63 48.75 1171.43 50.3C1170.23 51.8 1168.8 52.55 1167.15 52.55C1166 52.55 1164.9 52.175 1163.85 51.425C1162.85 50.625 1161.98 49.575 1161.23 48.275C1160.48 46.925 1159.88 45.375 1159.43 43.625C1158.98 41.875 1158.75 40.025 1158.75 38.075C1158.75 34.125 1159.38 31.125 1160.63 29.075C1161.93 26.975 1163.58 25.925 1165.58 25.925C1167.08 25.925 1168.4 26.6 1169.55 27.95C1170.75 29.3 1171.35 31.1 1171.35 33.35C1171.35 35.6 1170.88 37.375 1169.93 38.675C1169.03 39.925 1167.7 40.55 1165.95 40.55C1163.95 40.4 1162.95 39.05 1162.95 36.5C1163.9 37.7 1164.8 38.3 1165.65 38.3C1166.65 38.3 1167.4 37.925 1167.9 37.175C1168.4 36.425 1168.65 35.4 1168.65 34.1C1168.35 32.45 1167.35 31.525 1165.65 31.325C1165.15 31.325 1164.6 31.425 1164 31.625C1163.45 31.825 1162.93 32.175 1162.43 32.675C1161.98 33.125 1161.58 33.725 1161.23 34.475C1160.93 35.225 1160.78 36.15 1160.78 37.25C1160.78 38.25 1160.93 39.2 1161.23 40.1C1161.53 41 1161.93 41.8 1162.43 42.5C1162.98 43.2 1163.58 43.775 1164.23 44.225C1164.93 44.625 1165.65 44.825 1166.4 44.825C1168.4 44.825 1170.18 44 1171.73 42.35C1173.28 40.7 1174.3 38.375 1174.8 35.375C1175.75 38.775 1176.8 41.2 1177.95 42.65C1179.1 44.1 1180.63 44.825 1182.53 44.825C1183.18 44.825 1183.83 44.6 1184.48 44.15C1185.18 43.65 1185.78 43 1186.28 42.2C1186.83 41.35 1187.25 40.35 1187.55 39.2C1187.9 38 1188.08 36.675 1188.08 35.225C1188.08 33.525 1187.85 31.825 1187.4 30.125C1186.95 28.425 1186.28 26.825 1185.38 25.325C1184.48 23.825 1183.35 22.475 1182 21.275C1180.65 20.025 1179.08 19.025 1177.28 18.275H1159.28V13.55H1182.6L1182.98 18.275ZM1212.95 35.375C1212.95 37.625 1212.78 39.8 1212.43 41.9C1212.08 43.95 1211.55 45.775 1210.85 47.375C1210.2 48.925 1209.35 50.175 1208.3 51.125C1207.25 52.075 1206.05 52.55 1204.7 52.55C1203.45 52.55 1202.38 52.075 1201.48 51.125C1200.58 50.175 1199.83 49.025 1199.23 47.675C1198.63 46.275 1198.18 44.775 1197.88 43.175C1197.63 41.575 1197.5 40.1 1197.5 38.75C1197.5 37.55 1197.6 36.4 1197.8 35.3C1198.05 34.2 1198.4 33.225 1198.85 32.375C1199.3 31.475 1199.88 30.775 1200.58 30.275C1201.28 29.725 1202.08 29.45 1202.98 29.45C1203.63 29.45 1204.23 29.65 1204.78 30.05C1205.38 30.4 1205.88 30.875 1206.28 31.475C1206.68 32.025 1206.98 32.675 1207.18 33.425C1207.43 34.125 1207.55 34.85 1207.55 35.6C1207.55 37.05 1207.3 38.275 1206.8 39.275C1206.3 40.225 1205.55 40.7 1204.55 40.7C1203.75 40.7 1203.1 40.4 1202.6 39.8C1202.1 39.2 1201.85 38.25 1201.85 36.95C1201.85 35.25 1202.53 34.4 1203.88 34.4C1204.43 34.4 1204.83 34.525 1205.08 34.775C1204.68 33.375 1203.95 32.675 1202.9 32.675C1201.85 32.675 1200.95 33.15 1200.2 34.1C1199.45 35 1199.08 36.15 1199.08 37.55C1199.08 39.45 1199.5 41.125 1200.35 42.575C1201.25 44.025 1202.63 44.75 1204.48 44.75C1206.68 44.75 1208.4 43.9 1209.65 42.2C1210.9 40.5 1211.53 38.275 1211.53 35.525C1211.53 33.425 1211.25 31.35 1210.7 29.3C1210.15 27.25 1209.4 25.425 1208.45 23.825C1207.5 22.175 1206.38 20.85 1205.08 19.85C1203.78 18.85 1202.38 18.325 1200.88 18.275H1179.8V13.55H1198.78C1200.88 13.55 1202.78 14.1 1204.48 15.2C1206.23 16.3 1207.73 17.825 1208.98 19.775C1210.23 21.675 1211.2 23.975 1211.9 26.675C1212.6 29.325 1212.95 32.225 1212.95 35.375ZM1248.96 38.75C1248.96 43.55 1248.48 47.05 1247.53 49.25C1246.63 51.45 1245.58 52.55 1244.38 52.55C1242.98 52.55 1242.28 51.175 1242.28 48.425L1244.46 41.75C1244.86 40.6 1245.11 39.375 1245.21 38.075C1245.36 36.725 1245.43 35.275 1245.43 33.725C1245.43 31.725 1245.18 29.9 1244.68 28.25C1244.18 26.55 1243.48 25.1 1242.58 23.9C1241.68 22.65 1240.61 21.675 1239.36 20.975C1238.11 20.275 1236.76 19.925 1235.31 19.925C1233.91 19.925 1232.61 20.275 1231.41 20.975C1230.21 21.625 1229.16 22.6 1228.26 23.9C1227.36 25.15 1226.66 26.675 1226.16 28.475C1225.66 30.225 1225.41 32.225 1225.41 34.475C1225.41 35.925 1225.48 37.25 1225.63 38.45C1225.78 39.6 1226.06 40.75 1226.46 41.9L1228.78 48.425C1228.78 49.825 1228.56 50.8 1228.11 51.35C1227.71 51.9 1227.13 52.3 1226.38 52.55C1225.63 52.55 1224.98 52.15 1224.43 51.35C1223.88 50.55 1223.41 49.5 1223.01 48.2C1222.66 46.85 1222.38 45.375 1222.18 43.775C1222.03 42.125 1221.96 40.475 1221.96 38.825C1221.96 35.175 1222.31 31.975 1223.01 29.225C1223.71 26.425 1224.86 24 1226.46 21.95C1225.91 20.95 1225.41 19.8 1224.96 18.5C1224.56 17.15 1224.36 15.5 1224.36 13.55C1224.36 11.35 1224.66 9.45 1225.26 7.85C1225.86 6.2 1226.66 4.85 1227.66 3.8C1228.66 2.7 1229.81 1.9 1231.11 1.4C1232.41 0.849998 1233.78 0.574997 1235.23 0.574997C1243.43 0.574997 1247.58 7.325 1247.68 20.825L1247.01 27.125C1247.51 28.125 1247.96 29.65 1248.36 31.7C1248.76 33.7 1248.96 36.05 1248.96 38.75ZM1245.73 19.925C1245.13 10.075 1241.41 5.1 1234.56 5C1231.66 5.25 1229.61 6.25 1228.41 8C1227.21 9.75 1226.61 11.9 1226.61 14.45C1226.61 16.8 1227.13 18.45 1228.18 19.4C1230.03 17.25 1232.33 16.175 1235.08 16.175C1237.13 16.175 1238.98 16.7 1240.63 17.75C1242.28 18.8 1243.93 20.8 1245.58 23.75L1245.73 19.925ZM1284.02 11.225C1284.02 14.775 1282.2 17.15 1278.55 18.35H1277.65C1281.8 20.7 1283.92 25.9 1284.02 33.95C1283.72 46 1279.4 52.175 1271.05 52.475C1262.7 52.175 1258.35 46.025 1258 34.025C1258 26.025 1260.35 20.8 1265.05 18.35H1258.22V13.55H1276.45C1279.6 13.25 1281.17 11.4 1281.17 8C1281.17 6.1 1280.72 3.8 1279.82 1.1L1280.2 0.799998C1282.75 5 1284.02 8.325 1284.02 10.775V11.225ZM1271.12 18.2C1269.72 18.2 1268.4 18.55 1267.15 19.25C1265.9 19.95 1264.8 20.9 1263.85 22.1C1262.95 23.3 1262.22 24.7 1261.67 26.3C1261.12 27.9 1260.85 29.625 1260.85 31.475C1260.85 33.325 1261.1 35.075 1261.6 36.725C1262.1 38.325 1262.8 39.725 1263.7 40.925C1264.6 42.125 1265.67 43.075 1266.92 43.775C1268.17 44.475 1269.57 44.825 1271.12 44.825C1272.77 44.825 1274.22 44.475 1275.47 43.775C1276.77 43.075 1277.85 42.125 1278.7 40.925C1279.6 39.675 1280.27 38.25 1280.72 36.65C1281.17 35 1281.4 33.275 1281.4 31.475C1281.4 29.625 1281.12 27.9 1280.57 26.3C1280.02 24.7 1279.27 23.3 1278.32 22.1C1277.42 20.9 1276.35 19.95 1275.1 19.25C1273.85 18.55 1272.52 18.2 1271.12 18.2ZM1301.18 34.475C1300.58 45.925 1297.5 51.925 1291.95 52.475C1290.3 52.425 1288.93 52 1287.83 51.2C1286.68 50.35 1285.73 49.2 1284.98 47.75C1284.18 46.25 1283.53 44.5 1283.03 42.5C1282.53 40.5 1282.08 38.3 1281.68 35.9C1282.58 37.6 1283.38 39.025 1284.08 40.175C1284.78 41.275 1285.45 42.175 1286.1 42.875C1286.7 43.575 1287.35 44.075 1288.05 44.375C1288.75 44.675 1289.55 44.825 1290.45 44.825C1291.55 44.825 1292.63 44.55 1293.68 44C1294.78 43.4 1295.75 42.6 1296.6 41.6C1297.45 40.55 1298.15 39.35 1298.7 38C1299.25 36.65 1299.53 35.2 1299.53 33.65C1299.53 32.3 1299.35 30.925 1299 29.525C1298.65 28.125 1298.15 26.8 1297.5 25.55C1296.85 24.3 1296.05 23.225 1295.1 22.325C1294.2 21.375 1293.2 20.675 1292.1 20.225C1291.45 20.225 1290.93 19.875 1290.53 19.175C1290.18 18.475 1290 17.575 1290 16.475C1290 14.475 1290.78 13.475 1292.33 13.475C1293.53 13.475 1294.65 14.15 1295.7 15.5C1296.75 16.8 1297.68 18.475 1298.48 20.525C1299.33 22.575 1299.98 24.85 1300.43 27.35C1300.93 29.8 1301.18 32.175 1301.18 34.475ZM1313.75 50.45C1314.8 50.45 1315.67 50.9 1316.37 51.8C1317.07 52.7 1317.42 53.775 1317.42 55.025C1317.42 56.325 1317.05 57.425 1316.3 58.325C1315.6 59.175 1314.75 59.6 1313.75 59.6C1312.75 59.6 1311.87 59.175 1311.12 58.325C1310.42 57.425 1310.07 56.325 1310.07 55.025C1310.07 53.775 1310.42 52.7 1311.12 51.8C1311.82 50.9 1312.7 50.45 1313.75 50.45Z" fill="black"/>
</svg>
