<svg width="1675" height="85" viewBox="0 0 1675 85" fill="none" xmlns="http://www.w3.org/2000/svg">
<path d="M21.975 42.55C21.425 44.6 20.525 46.425 19.275 48.025C18.025 49.625 16.6 50.875 15 51.775C13.45 52.625 11.825 53.05 10.125 53.05C8.275 53.05 6.625 52.525 5.175 51.475C3.775 50.375 2.675 48.925 1.875 47.125C1.125 45.325 0.75 43.3 0.75 41.05C0.75 37.8 1.475 35.225 2.925 33.325C4.425 31.425 6.275 30.475 8.475 30.475C10.325 30.475 11.725 31.075 12.675 32.275C13.675 33.425 14.375 34.8 14.775 36.4L13.575 37.525C13.225 36.625 12.65 35.975 11.85 35.575C11.1 35.175 10.225 34.975 9.225 34.975C7.675 34.975 6.375 35.425 5.325 36.325C4.275 37.175 3.75 38.5 3.75 40.3C3.75 42.25 4.35 43.8 5.55 44.95C6.8 46.1 8.35 46.675 10.2 46.675C12.05 46.675 13.775 46.15 15.375 45.1C17.025 44 18.4 42.6 19.5 40.9C20.6 39.15 21.325 37.325 21.675 35.425H22.35C22.7 37.275 23.425 39.075 24.525 40.825C25.675 42.525 27.1 43.925 28.8 45.025C30.55 46.125 32.45 46.675 34.5 46.675C36.45 46.675 38.175 46.175 39.675 45.175C41.175 44.125 42.35 42.725 43.2 40.975C44.05 39.175 44.475 37.175 44.475 34.975C44.475 31.825 43.625 29.075 41.925 26.725C40.225 24.325 37.95 22.45 35.1 21.1C32.3 19.75 29.15 19.075 25.65 19.075C25.25 19.075 24.875 19.1 24.525 19.15C24.175 19.15 23.825 19.175 23.475 19.225C23.225 19.275 22.95 19.325 22.65 19.375C22.4 19.375 22.15 19.375 21.9 19.375C21.4 19.375 20.875 19.3 20.325 19.15C19.125 18.75 18.525 17.9 18.525 16.6C18.525 15.7 18.875 14.9 19.575 14.2C20.325 13.45 21.35 13.075 22.65 13.075C25.15 13.075 27.8 13.525 30.6 14.425C33.45 15.325 36.125 16.725 38.625 18.625C41.175 20.475 43.225 22.85 44.775 25.75C46.375 28.65 47.175 32.125 47.175 36.175C47.175 39.225 46.675 42.05 45.675 44.65C44.675 47.2 43.25 49.25 41.4 50.8C39.6 52.3 37.4 53.05 34.8 53.05C31.9 53.05 29.275 52.075 26.925 50.125C24.575 48.175 22.975 45.65 22.125 42.55H21.975ZM87.9563 13.825H88.0313H113.006C117.456 13.825 121.156 14.35 124.106 15.4C127.106 16.4 129.481 17.825 131.231 19.675C132.981 21.525 134.231 23.675 134.981 26.125C135.731 28.575 136.106 31.225 136.106 34.075C136.106 37.725 135.531 40.975 134.381 43.825C133.231 46.675 131.581 48.925 129.431 50.575C127.331 52.175 124.856 52.975 122.006 52.975C118.506 52.975 115.706 51.775 113.606 49.375C111.506 46.925 110.431 43.85 110.381 40.15C110.431 37.2 111.181 34.7 112.631 32.65C114.081 30.55 116.156 29.5 118.856 29.5C120.906 29.5 122.406 30.075 123.356 31.225C124.356 32.325 124.856 33.525 124.856 34.825C124.856 36.075 124.406 37.175 123.506 38.125C122.656 39.075 121.581 39.55 120.281 39.55C119.031 39.55 118.031 39.125 117.281 38.275C116.581 37.375 116.231 36.25 116.231 34.9C116.231 34.4 116.056 34.15 115.706 34.15C115.256 34.15 114.731 34.6 114.131 35.5C113.531 36.35 113.231 37.525 113.231 39.025C113.231 41.225 114.006 43.075 115.556 44.575C117.156 46.075 119.356 46.825 122.156 46.825C125.506 46.825 128.231 45.725 130.331 43.525C132.431 41.325 133.481 38.25 133.481 34.3C133.481 31.55 132.831 29.05 131.531 26.8C130.281 24.55 128.206 22.775 125.306 21.475C122.406 20.125 118.531 19.45 113.681 19.45H96.7313C97.7813 20.9 98.6063 22.6 99.2063 24.55C99.8563 26.5 100.181 28.625 100.181 30.925C100.181 35.025 99.3063 38.75 97.5563 42.1C95.8563 45.45 93.3313 48.1 89.9813 50.05C86.6813 52 82.5813 53 77.6813 53.05C73.2813 53.05 69.4063 52.125 66.0563 50.275C62.7063 48.425 60.0813 45.825 58.1813 42.475C56.3313 39.125 55.4063 35.225 55.4063 30.775C55.4063 27.475 55.9313 24.5 56.9813 21.85C58.0313 19.15 59.4813 17.025 61.3313 15.475C63.2313 13.875 65.4063 13.075 67.8563 13.075C69.7563 13.075 71.3063 13.525 72.5063 14.425C73.7563 15.325 74.6813 16.5 75.2813 17.95C75.8813 19.35 76.1813 20.85 76.1813 22.45C76.1813 25.05 75.4563 27.225 74.0063 28.975C72.5563 30.675 70.5813 31.525 68.0813 31.525C66.0313 31.525 64.2813 30.875 62.8313 29.575C61.4313 28.225 60.7313 26.175 60.7313 23.425C60.7313 22.775 60.7813 22.05 60.8813 21.25C60.0313 22.3 59.4063 23.525 59.0063 24.925C58.6063 26.325 58.4063 27.825 58.4063 29.425C58.4063 32.625 59.2063 35.55 60.8062 38.2C62.4063 40.8 64.7063 42.875 67.7063 44.425C70.7063 45.925 74.3063 46.675 78.5063 46.675C82.3063 46.675 85.6313 46 88.4813 44.65C91.3313 43.3 93.5563 41.375 95.1563 38.875C96.7563 36.375 97.5563 33.425 97.5563 30.025C97.5563 27.325 96.6813 25 94.9313 23.05C93.2313 21.1 90.9063 19.825 87.9563 19.225V13.825ZM62.8313 21.4C62.8313 23 63.3563 24.2 64.4063 25C65.4563 25.8 66.8313 26.2 68.5313 26.2C70.1813 26.2 71.4813 25.825 72.4313 25.075C73.4313 24.325 73.9313 23.275 73.9313 21.925C73.9313 20.475 73.3813 19.45 72.2813 18.85C71.2313 18.25 69.9813 17.95 68.5313 17.95C66.4313 17.95 64.6313 18.4 63.1313 19.3C63.0313 19.65 62.9563 20.025 62.9063 20.425C62.8563 20.825 62.8313 21.15 62.8313 21.4ZM132.781 72.775C132.531 71.125 131.981 69.5 131.131 67.9C130.231 66.35 129.031 65.05 127.531 64C126.031 62.95 124.181 62.425 121.981 62.425C120.081 62.425 118.581 62.875 117.481 63.775C116.331 64.675 115.756 66.025 115.756 67.825C115.756 69.175 116.056 70.275 116.656 71.125L115.531 72.1C114.281 70.45 113.656 68.525 113.656 66.325C113.656 64.025 114.381 62 115.831 60.25C117.281 58.5 119.406 57.625 122.206 57.625C125.106 57.625 127.481 58.575 129.331 60.475C131.131 62.425 132.356 64.75 133.006 67.45H133.381C134.031 64.75 135.281 62.425 137.131 60.475C138.981 58.575 141.356 57.625 144.256 57.625C147.056 57.625 149.156 58.5 150.556 60.25C151.956 62 152.656 64.025 152.656 66.325C152.656 68.575 152.056 70.5 150.856 72.1L149.656 71.125C149.906 70.725 150.106 70.225 150.256 69.625C150.456 69.075 150.556 68.45 150.556 67.75C150.556 66.1 150.031 64.8 148.981 63.85C147.981 62.9 146.481 62.425 144.481 62.425C142.281 62.425 140.406 62.95 138.856 64C137.306 65.05 136.106 66.35 135.256 67.9C134.356 69.5 133.756 71.125 133.456 72.775H132.781ZM165.256 42.55C164.406 45.65 162.831 48.175 160.531 50.125C158.231 52.075 155.756 53.05 153.106 53.05C151.506 53.05 149.956 52.65 148.456 51.85C147.006 51 145.831 49.675 144.931 47.875C144.031 46.025 143.581 43.625 143.581 40.675C143.581 37.375 144.131 34.35 145.231 31.6C146.381 28.85 147.906 26.45 149.806 24.4C151.706 22.35 153.781 20.7 156.031 19.45H143.581V13.825H176.881C179.181 13.825 180.906 13.375 182.056 12.475C183.206 11.525 183.781 10.3 183.781 8.8C183.781 7.5 183.431 6.425 182.731 5.575C182.031 4.675 181.231 4.05 180.331 3.7L181.456 2.2C183.056 2.8 184.381 3.85 185.431 5.35C186.481 6.8 187.006 8.55 187.006 10.6C187.006 13.3 186.081 15.45 184.231 17.05C182.381 18.65 179.931 19.45 176.881 19.45H174.631C176.931 20.7 179.006 22.35 180.856 24.4C182.756 26.45 184.256 28.85 185.356 31.6C186.506 34.3 187.081 37.275 187.081 40.525C187.081 43.525 186.606 45.95 185.656 47.8C184.756 49.65 183.581 51 182.131 51.85C180.681 52.65 179.156 53.05 177.556 53.05C174.906 53.05 172.431 52.075 170.131 50.125C167.831 48.175 166.256 45.65 165.406 42.55H165.256ZM147.256 38.425C147.256 40.925 147.831 42.925 148.981 44.425C150.181 45.925 151.781 46.675 153.781 46.675C155.531 46.675 157.181 46.15 158.731 45.1C160.331 44 161.681 42.6 162.781 40.9C163.931 39.15 164.681 37.325 165.031 35.425H165.706C166.056 37.325 166.781 39.15 167.881 40.9C168.981 42.6 170.306 44 171.856 45.1C173.456 46.15 175.131 46.675 176.881 46.675C178.881 46.675 180.456 45.925 181.606 44.425C182.806 42.925 183.406 40.95 183.406 38.5C183.406 36.25 182.931 33.975 181.981 31.675C181.031 29.375 179.731 27.275 178.081 25.375C176.431 23.425 174.506 21.875 172.306 20.725C170.156 19.525 167.831 18.925 165.331 18.925C162.881 18.925 160.556 19.525 158.356 20.725C156.156 21.875 154.231 23.425 152.581 25.375C150.931 27.275 149.631 29.375 148.681 31.675C147.731 33.925 147.256 36.175 147.256 38.425ZM229.562 35.05C229.562 38.55 228.837 41.65 227.387 44.35C225.937 47.05 223.912 49.175 221.312 50.725C218.712 52.275 215.712 53.05 212.312 53.05C208.912 53.05 205.912 52.275 203.312 50.725C200.712 49.175 198.687 47.05 197.237 44.35C195.787 41.65 195.062 38.55 195.062 35.05C195.062 31.7 195.862 28.6 197.462 25.75C199.062 22.9 201.162 20.8 203.762 19.45H195.062V13.825H219.437C221.737 13.825 223.462 13.375 224.612 12.475C225.762 11.525 226.337 10.3 226.337 8.8C226.337 7.5 225.987 6.425 225.287 5.575C224.587 4.675 223.787 4.05 222.887 3.7L224.012 2.2C225.612 2.8 226.937 3.85 227.987 5.35C229.037 6.8 229.562 8.55 229.562 10.6C229.562 13.1 228.762 15.15 227.162 16.75C225.562 18.3 223.412 19.175 220.712 19.375C223.462 20.825 225.612 22.975 227.162 25.825C228.762 28.675 229.562 31.75 229.562 35.05ZM198.437 33.475C198.437 36.025 199.012 38.3 200.162 40.3C201.362 42.3 202.987 43.875 205.037 45.025C207.137 46.125 209.562 46.675 212.312 46.675C215.062 46.675 217.462 46.1 219.512 44.95C221.612 43.8 223.237 42.225 224.387 40.225C225.587 38.225 226.187 35.95 226.187 33.4C226.187 30.85 225.562 28.525 224.312 26.425C223.062 24.325 221.387 22.65 219.287 21.4C217.187 20.15 214.862 19.525 212.312 19.525C209.812 19.525 207.487 20.175 205.337 21.475C203.237 22.725 201.562 24.4 200.312 26.5C199.062 28.6 198.437 30.925 198.437 33.475ZM250.262 34.675C250.262 40.575 249.562 45.125 248.162 48.325C246.812 51.475 244.437 53.05 241.037 53.05C238.887 53.05 236.887 52.475 235.037 51.325C233.187 50.175 231.587 48.7 230.237 46.9C228.937 45.05 227.962 43.125 227.312 41.125V35.35C228.112 37.25 229.062 39.075 230.162 40.825C231.262 42.575 232.587 44 234.137 45.1C235.687 46.15 237.537 46.675 239.687 46.675C242.237 46.675 244.162 45.7 245.462 43.75C246.812 41.8 247.487 38.35 247.487 33.4C247.487 29 248.162 25.3 249.512 22.3C250.912 19.3 252.787 17.025 255.137 15.475C257.537 13.875 260.262 13.075 263.312 13.075C267.012 13.075 270.312 13.975 273.212 15.775C276.162 17.575 278.462 20.075 280.112 23.275C281.812 26.425 282.662 30.05 282.662 34.15C282.662 37.8 282.087 41.05 280.937 43.9C279.787 46.75 278.162 49 276.062 50.65C273.962 52.25 271.512 53.05 268.712 53.05C265.112 53.05 262.262 51.85 260.162 49.45C258.062 47 256.987 43.925 256.937 40.225C256.987 37.275 257.737 34.775 259.187 32.725C260.637 30.625 262.712 29.575 265.412 29.575C267.462 29.575 268.962 30.15 269.912 31.3C270.912 32.4 271.412 33.575 271.412 34.825C271.412 36.125 270.962 37.25 270.062 38.2C269.212 39.15 268.137 39.625 266.837 39.625C265.587 39.625 264.587 39.2 263.837 38.35C263.137 37.45 262.787 36.325 262.787 34.975C262.787 34.475 262.612 34.225 262.262 34.225C261.812 34.225 261.287 34.675 260.687 35.575C260.087 36.425 259.787 37.6 259.787 39.1C259.787 41.3 260.562 43.15 262.112 44.65C263.712 46.15 265.887 46.9 268.637 46.9C272.037 46.9 274.787 45.8 276.887 43.6C278.987 41.4 280.037 38.325 280.037 34.375C280.037 31.175 279.287 28.425 277.787 26.125C276.337 23.825 274.387 22.05 271.937 20.8C269.537 19.55 266.887 18.925 263.987 18.925C259.987 18.925 256.687 20.25 254.087 22.9C251.537 25.5 250.262 29.425 250.262 34.675ZM305.531 22.9C305.531 19.95 306.381 17.575 308.081 15.775C309.781 13.975 312.056 13.075 314.906 13.075C317.906 13.075 320.556 14.075 322.856 16.075C325.156 18.025 326.731 20.575 327.581 23.725H327.731C328.581 20.575 330.131 18.025 332.381 16.075C334.681 14.075 337.356 13.075 340.406 13.075C343.506 13.075 345.981 14.225 347.831 16.525C349.681 18.825 350.606 22.65 350.606 28C350.606 31.05 350.181 33.925 349.331 36.625C348.481 39.275 347.306 41.675 345.806 43.825C347.556 45.875 348.881 48 349.781 50.2C350.681 52.4 351.131 54.35 351.131 56.05C351.131 58.2 350.431 59.275 349.031 59.275C348.231 59.275 347.631 58.9 347.231 58.15C346.881 57.45 346.706 56.525 346.706 55.375C346.706 53.975 346.456 52.5 345.956 50.95C345.456 49.35 344.731 47.8 343.781 46.3C341.781 48.4 339.481 50.05 336.881 51.25C334.331 52.45 331.631 53.05 328.781 53.05C325.431 53.05 322.681 52.2 320.531 50.5C318.381 48.75 317.306 46.625 317.306 44.125C317.306 41.775 318.331 39.8 320.381 38.2C322.431 36.6 325.306 35.8 329.006 35.8C331.856 35.8 334.456 36.3 336.806 37.3C339.156 38.25 341.231 39.5 343.031 41.05C344.531 39.5 345.706 37.75 346.556 35.8C347.456 33.8 347.906 31.7 347.906 29.5C347.906 26.1 347.056 23.5 345.356 21.7C343.656 19.85 341.631 18.925 339.281 18.925C337.231 18.925 335.406 19.525 333.806 20.725C332.256 21.925 330.981 23.45 329.981 25.3C328.981 27.1 328.331 28.925 328.031 30.775H327.281C326.931 28.875 326.281 27.025 325.331 25.225C324.381 23.375 323.131 21.85 321.581 20.65C320.031 19.45 318.156 18.85 315.956 18.85C313.656 18.85 311.931 19.475 310.781 20.725C309.631 21.975 309.056 23.4 309.056 25C309.056 25.7 309.156 26.325 309.356 26.875C309.556 27.375 309.781 27.825 310.031 28.225L307.706 29.8C306.906 28.8 306.331 27.7 305.981 26.5C305.681 25.3 305.531 24.1 305.531 22.9ZM321.281 42.625C321.281 43.975 322.106 45 323.756 45.7C325.406 46.35 327.331 46.675 329.531 46.675C331.631 46.675 333.656 46.35 335.606 45.7C337.556 45 339.331 44.05 340.931 42.85C339.481 41.5 337.781 40.4 335.831 39.55C333.931 38.65 331.781 38.2 329.381 38.2C326.781 38.2 324.781 38.65 323.381 39.55C321.981 40.45 321.281 41.475 321.281 42.625ZM393.111 35.05C393.111 38.55 392.386 41.65 390.936 44.35C389.486 47.05 387.461 49.175 384.861 50.725C382.261 52.275 379.261 53.05 375.861 53.05C372.461 53.05 369.461 52.275 366.861 50.725C364.261 49.175 362.236 47.05 360.786 44.35C359.336 41.65 358.611 38.55 358.611 35.05C358.611 31.7 359.411 28.6 361.011 25.75C362.611 22.9 364.711 20.8 367.311 19.45H358.611V13.825H382.986C385.286 13.825 387.011 13.375 388.161 12.475C389.311 11.525 389.886 10.3 389.886 8.8C389.886 7.5 389.536 6.425 388.836 5.575C388.136 4.675 387.336 4.05 386.436 3.7L387.561 2.2C389.161 2.8 390.486 3.85 391.536 5.35C392.586 6.8 393.111 8.55 393.111 10.6C393.111 13.1 392.311 15.15 390.711 16.75C389.111 18.3 386.961 19.175 384.261 19.375C387.011 20.825 389.161 22.975 390.711 25.825C392.311 28.675 393.111 31.75 393.111 35.05ZM361.986 33.475C361.986 36.025 362.561 38.3 363.711 40.3C364.911 42.3 366.536 43.875 368.586 45.025C370.686 46.125 373.111 46.675 375.861 46.675C378.611 46.675 381.011 46.1 383.061 44.95C385.161 43.8 386.786 42.225 387.936 40.225C389.136 38.225 389.736 35.95 389.736 33.4C389.736 30.85 389.111 28.525 387.861 26.425C386.611 24.325 384.936 22.65 382.836 21.4C380.736 20.15 378.411 19.525 375.861 19.525C373.361 19.525 371.036 20.175 368.886 21.475C366.786 22.725 365.111 24.4 363.861 26.5C362.611 28.6 361.986 30.925 361.986 33.475ZM418.386 33.85C418.386 37.5 417.761 40.775 416.511 43.675C415.311 46.575 413.636 48.875 411.486 50.575C409.386 52.225 406.961 53.05 404.211 53.05C401.411 53.05 398.861 52.125 396.561 50.275C394.311 48.375 392.611 45.725 391.461 42.325L391.986 36.475C393.386 40.275 395.061 42.925 397.011 44.425C399.011 45.925 401.236 46.675 403.686 46.675C407.086 46.675 409.936 45.475 412.236 43.075C414.586 40.675 415.761 37.275 415.761 32.875C415.761 30.625 415.411 28.65 414.711 26.95C414.061 25.2 413.236 23.775 412.236 22.675C411.236 21.525 410.236 20.775 409.236 20.425C408.836 20.275 408.436 20.2 408.036 20.2C407.636 20.15 407.236 20.1 406.836 20.05C405.936 20.05 405.111 19.95 404.361 19.75C403.761 19.55 403.261 19.175 402.861 18.625C402.461 18.075 402.261 17.45 402.261 16.75C402.261 15.9 402.561 15.15 403.161 14.5C403.811 13.85 404.736 13.525 405.936 13.525C407.686 13.525 409.511 14.325 411.411 15.925C413.361 17.475 415.011 19.775 416.361 22.825C417.711 25.825 418.386 29.5 418.386 33.85ZM465.896 42.55C465.346 44.6 464.446 46.425 463.196 48.025C461.946 49.625 460.521 50.875 458.921 51.775C457.371 52.625 455.746 53.05 454.046 53.05C452.196 53.05 450.546 52.525 449.096 51.475C447.696 50.375 446.596 48.925 445.796 47.125C445.046 45.325 444.671 43.3 444.671 41.05C444.671 37.8 445.396 35.225 446.846 33.325C448.346 31.425 450.196 30.475 452.396 30.475C454.246 30.475 455.646 31.075 456.596 32.275C457.596 33.425 458.296 34.8 458.696 36.4L457.496 37.525C457.146 36.625 456.571 35.975 455.771 35.575C455.021 35.175 454.146 34.975 453.146 34.975C451.596 34.975 450.296 35.425 449.246 36.325C448.196 37.175 447.671 38.5 447.671 40.3C447.671 42.25 448.271 43.8 449.471 44.95C450.721 46.1 452.271 46.675 454.121 46.675C455.971 46.675 457.696 46.15 459.296 45.1C460.946 44 462.321 42.6 463.421 40.9C464.521 39.15 465.246 37.325 465.596 35.425H466.271C466.621 37.275 467.346 39.075 468.446 40.825C469.596 42.525 471.021 43.925 472.721 45.025C474.471 46.125 476.371 46.675 478.421 46.675C480.371 46.675 482.096 46.175 483.596 45.175C485.096 44.125 486.271 42.725 487.121 40.975C487.971 39.175 488.396 37.175 488.396 34.975C488.396 31.825 487.546 29.075 485.846 26.725C484.146 24.325 481.871 22.45 479.021 21.1C476.221 19.75 473.071 19.075 469.571 19.075C469.171 19.075 468.796 19.1 468.446 19.15C468.096 19.15 467.746 19.175 467.396 19.225C467.146 19.275 466.871 19.325 466.571 19.375C466.321 19.375 466.071 19.375 465.821 19.375C465.321 19.375 464.796 19.3 464.246 19.15C463.046 18.75 462.446 17.9 462.446 16.6C462.446 15.7 462.796 14.9 463.496 14.2C464.246 13.45 465.271 13.075 466.571 13.075C469.071 13.075 471.721 13.525 474.521 14.425C477.371 15.325 480.046 16.725 482.546 18.625C485.096 20.475 487.146 22.85 488.696 25.75C490.296 28.65 491.096 32.125 491.096 36.175C491.096 39.225 490.596 42.05 489.596 44.65C488.596 47.2 487.171 49.25 485.321 50.8C483.521 52.3 481.321 53.05 478.721 53.05C475.821 53.05 473.196 52.075 470.846 50.125C468.496 48.175 466.896 45.65 466.046 42.55H465.896ZM530.377 33.25C530.377 35.9 529.952 38.425 529.102 40.825C528.302 43.175 527.152 45.275 525.652 47.125C524.202 48.975 522.527 50.425 520.627 51.475C518.727 52.525 516.677 53.05 514.477 53.05C512.327 53.05 510.277 52.525 508.327 51.475C506.427 50.425 504.727 48.975 503.227 47.125C501.777 45.275 500.627 43.175 499.777 40.825C498.977 38.425 498.577 35.9 498.577 33.25C498.577 30.6 498.977 28.075 499.777 25.675C500.627 23.225 501.777 21.075 503.227 19.225C504.727 17.325 506.427 15.825 508.327 14.725C510.277 13.625 512.352 13.075 514.552 13.075C516.752 13.075 518.802 13.625 520.702 14.725C522.602 15.825 524.277 17.325 525.727 19.225C527.177 21.075 528.302 23.225 529.102 25.675C529.952 28.075 530.377 30.6 530.377 33.25ZM501.352 32.575C501.352 35.425 502.002 37.925 503.302 40.075C504.602 42.175 506.252 43.8 508.252 44.95C510.302 46.1 512.377 46.675 514.477 46.675C516.627 46.675 518.702 46.1 520.702 44.95C522.702 43.8 524.352 42.2 525.652 40.15C527.002 38.1 527.677 35.7 527.677 32.95C527.677 30.05 527.077 27.575 525.877 25.525C524.677 23.425 523.077 21.8 521.077 20.65C519.077 19.5 516.902 18.925 514.552 18.925C512.202 18.925 510.002 19.5 507.952 20.65C505.952 21.75 504.352 23.325 503.152 25.375C501.952 27.425 501.352 29.825 501.352 32.575ZM574.583 37.675C574.583 40.575 573.833 43.2 572.333 45.55C570.833 47.85 568.708 49.675 565.958 51.025C563.258 52.375 560.058 53.05 556.358 53.05C552.608 53.05 549.408 52.4 546.758 51.1C544.108 49.75 542.083 48.025 540.683 45.925C539.333 43.825 538.658 41.625 538.658 39.325C538.658 38.025 538.833 36.75 539.183 35.5C539.583 34.25 540.008 33.3 540.458 32.65L542.258 32.95C541.708 34.05 541.433 35.275 541.433 36.625C541.433 39.475 542.758 41.875 545.408 43.825C548.058 45.725 551.633 46.675 556.133 46.675C559.383 46.675 562.108 46.175 564.308 45.175C566.558 44.175 568.258 42.85 569.408 41.2C570.558 39.55 571.133 37.775 571.133 35.875C571.133 34.525 570.858 33.3 570.308 32.2C569.758 31.05 568.983 30.05 567.983 29.2C567.633 31.8 566.408 33.9 564.308 35.5C562.258 37.05 559.833 37.825 557.033 37.825C554.383 37.825 552.133 37.15 550.283 35.8C548.433 34.4 547.508 32.65 547.508 30.55C547.508 28.45 548.483 26.75 550.433 25.45C552.433 24.15 555.058 23.5 558.308 23.5C560.558 23.5 562.683 23.85 564.683 24.55C564.183 23.35 563.383 22.3 562.283 21.4C561.233 20.5 560.083 19.85 558.833 19.45H538.283V13.825H582.983C587.433 13.825 591.133 14.35 594.083 15.4C597.083 16.4 599.458 17.825 601.208 19.675C602.958 21.525 604.208 23.675 604.958 26.125C605.708 28.575 606.083 31.225 606.083 34.075C606.083 37.725 605.508 40.975 604.358 43.825C603.208 46.675 601.558 48.925 599.408 50.575C597.308 52.175 594.833 52.975 591.983 52.975C588.483 52.975 585.683 51.775 583.583 49.375C581.483 46.925 580.408 43.85 580.358 40.15C580.408 37.2 581.158 34.7 582.608 32.65C584.058 30.55 586.133 29.5 588.833 29.5C590.883 29.5 592.383 30.075 593.333 31.225C594.333 32.325 594.833 33.525 594.833 34.825C594.833 36.075 594.383 37.175 593.483 38.125C592.633 39.075 591.558 39.55 590.258 39.55C589.008 39.55 588.008 39.125 587.258 38.275C586.558 37.375 586.208 36.25 586.208 34.9C586.208 34.4 586.033 34.15 585.683 34.15C585.233 34.15 584.708 34.6 584.108 35.5C583.508 36.35 583.208 37.525 583.208 39.025C583.208 41.225 583.983 43.075 585.533 44.575C587.133 46.075 589.333 46.825 592.133 46.825C595.483 46.825 598.208 45.725 600.308 43.525C602.408 41.325 603.458 38.25 603.458 34.3C603.458 31.55 602.808 29.05 601.508 26.8C600.258 24.55 598.183 22.775 595.283 21.475C592.383 20.125 588.508 19.45 583.658 19.45H563.483C564.533 20.15 565.433 21.075 566.183 22.225C566.983 23.325 567.533 24.575 567.833 25.975C569.883 27.175 571.508 28.775 572.708 30.775C573.958 32.775 574.583 35.075 574.583 37.675ZM551.633 29.95C551.633 31.05 552.133 31.925 553.133 32.575C554.183 33.175 555.558 33.475 557.258 33.475C559.358 33.475 561.158 32.95 562.658 31.9C564.208 30.85 565.058 29.375 565.208 27.475C563.258 26.625 561.083 26.2 558.683 26.2C556.583 26.2 554.883 26.55 553.583 27.25C552.283 27.9 551.633 28.8 551.633 29.95ZM635.251 42.55C634.401 45.65 632.826 48.175 630.526 50.125C628.226 52.075 625.751 53.05 623.101 53.05C621.501 53.05 619.951 52.65 618.451 51.85C617.001 51 615.826 49.675 614.926 47.875C614.026 46.025 613.576 43.625 613.576 40.675C613.576 37.375 614.126 34.35 615.226 31.6C616.376 28.85 617.901 26.45 619.801 24.4C621.701 22.35 623.776 20.7 626.026 19.45H613.576V13.825H646.876C649.176 13.825 650.901 13.375 652.051 12.475C653.201 11.525 653.776 10.3 653.776 8.8C653.776 7.5 653.426 6.425 652.726 5.575C652.026 4.675 651.226 4.05 650.326 3.7L651.451 2.2C653.051 2.8 654.376 3.85 655.426 5.35C656.476 6.8 657.001 8.55 657.001 10.6C657.001 13.3 656.076 15.45 654.226 17.05C652.376 18.65 649.926 19.45 646.876 19.45H644.626C646.926 20.7 649.001 22.35 650.851 24.4C652.751 26.45 654.251 28.85 655.351 31.6C656.501 34.3 657.076 37.275 657.076 40.525C657.076 43.525 656.601 45.95 655.651 47.8C654.751 49.65 653.576 51 652.126 51.85C650.676 52.65 649.151 53.05 647.551 53.05C644.901 53.05 642.426 52.075 640.126 50.125C637.826 48.175 636.251 45.65 635.401 42.55H635.251ZM617.251 38.425C617.251 40.925 617.826 42.925 618.976 44.425C620.176 45.925 621.776 46.675 623.776 46.675C625.526 46.675 627.176 46.15 628.726 45.1C630.326 44 631.676 42.6 632.776 40.9C633.926 39.15 634.676 37.325 635.026 35.425H635.701C636.051 37.325 636.776 39.15 637.876 40.9C638.976 42.6 640.301 44 641.851 45.1C643.451 46.15 645.126 46.675 646.876 46.675C648.876 46.675 650.451 45.925 651.601 44.425C652.801 42.925 653.401 40.95 653.401 38.5C653.401 36.25 652.926 33.975 651.976 31.675C651.026 29.375 649.726 27.275 648.076 25.375C646.426 23.425 644.501 21.875 642.301 20.725C640.151 19.525 637.826 18.925 635.326 18.925C632.876 18.925 630.551 19.525 628.351 20.725C626.151 21.875 624.226 23.425 622.576 25.375C620.926 27.275 619.626 29.375 618.676 31.675C617.726 33.925 617.251 36.175 617.251 38.425ZM699.557 35.05C699.557 38.55 698.832 41.65 697.382 44.35C695.932 47.05 693.907 49.175 691.307 50.725C688.707 52.275 685.707 53.05 682.307 53.05C678.907 53.05 675.907 52.275 673.307 50.725C670.707 49.175 668.682 47.05 667.232 44.35C665.782 41.65 665.057 38.55 665.057 35.05C665.057 31.7 665.857 28.6 667.457 25.75C669.057 22.9 671.157 20.8 673.757 19.45H665.057V13.825H689.432C691.732 13.825 693.457 13.375 694.607 12.475C695.757 11.525 696.332 10.3 696.332 8.8C696.332 7.5 695.982 6.425 695.282 5.575C694.582 4.675 693.782 4.05 692.882 3.7L694.007 2.2C695.607 2.8 696.932 3.85 697.982 5.35C699.032 6.8 699.557 8.55 699.557 10.6C699.557 13.1 698.757 15.15 697.157 16.75C695.557 18.3 693.407 19.175 690.707 19.375C693.457 20.825 695.607 22.975 697.157 25.825C698.757 28.675 699.557 31.75 699.557 35.05ZM668.432 33.475C668.432 36.025 669.007 38.3 670.157 40.3C671.357 42.3 672.982 43.875 675.032 45.025C677.132 46.125 679.557 46.675 682.307 46.675C685.057 46.675 687.457 46.1 689.507 44.95C691.607 43.8 693.232 42.225 694.382 40.225C695.582 38.225 696.182 35.95 696.182 33.4C696.182 30.85 695.557 28.525 694.307 26.425C693.057 24.325 691.382 22.65 689.282 21.4C687.182 20.15 684.857 19.525 682.307 19.525C679.807 19.525 677.482 20.175 675.332 21.475C673.232 22.725 671.557 24.4 670.307 26.5C669.057 28.6 668.432 30.925 668.432 33.475ZM724.832 33.85C724.832 37.5 724.207 40.775 722.957 43.675C721.757 46.575 720.082 48.875 717.932 50.575C715.832 52.225 713.407 53.05 710.657 53.05C707.857 53.05 705.307 52.125 703.007 50.275C700.757 48.375 699.057 45.725 697.907 42.325L698.432 36.475C699.832 40.275 701.507 42.925 703.457 44.425C705.457 45.925 707.682 46.675 710.132 46.675C713.532 46.675 716.382 45.475 718.682 43.075C721.032 40.675 722.207 37.275 722.207 32.875C722.207 30.625 721.857 28.65 721.157 26.95C720.507 25.2 719.682 23.775 718.682 22.675C717.682 21.525 716.682 20.775 715.682 20.425C715.282 20.275 714.882 20.2 714.482 20.2C714.082 20.15 713.682 20.1 713.282 20.05C712.382 20.05 711.557 19.95 710.807 19.75C710.207 19.55 709.707 19.175 709.307 18.625C708.907 18.075 708.707 17.45 708.707 16.75C708.707 15.9 709.007 15.15 709.607 14.5C710.257 13.85 711.182 13.525 712.382 13.525C714.132 13.525 715.957 14.325 717.857 15.925C719.807 17.475 721.457 19.775 722.807 22.825C724.157 25.825 724.832 29.5 724.832 33.85ZM748.866 22.9C748.866 19.95 749.716 17.575 751.416 15.775C753.116 13.975 755.391 13.075 758.241 13.075C761.241 13.075 763.891 14.075 766.191 16.075C768.491 18.025 770.066 20.575 770.916 23.725H771.066C771.916 20.575 773.466 18.025 775.716 16.075C778.016 14.075 780.691 13.075 783.741 13.075C786.841 13.075 789.316 14.225 791.166 16.525C793.016 18.825 793.941 22.65 793.941 28C793.941 31.05 793.516 33.925 792.666 36.625C791.816 39.275 790.641 41.675 789.141 43.825C790.891 45.875 792.216 48 793.116 50.2C794.016 52.4 794.466 54.35 794.466 56.05C794.466 58.2 793.766 59.275 792.366 59.275C791.566 59.275 790.966 58.9 790.566 58.15C790.216 57.45 790.041 56.525 790.041 55.375C790.041 53.975 789.791 52.5 789.291 50.95C788.791 49.35 788.066 47.8 787.116 46.3C785.116 48.4 782.816 50.05 780.216 51.25C777.666 52.45 774.966 53.05 772.116 53.05C768.766 53.05 766.016 52.2 763.866 50.5C761.716 48.75 760.641 46.625 760.641 44.125C760.641 41.775 761.666 39.8 763.716 38.2C765.766 36.6 768.641 35.8 772.341 35.8C775.191 35.8 777.791 36.3 780.141 37.3C782.491 38.25 784.566 39.5 786.366 41.05C787.866 39.5 789.041 37.75 789.891 35.8C790.791 33.8 791.241 31.7 791.241 29.5C791.241 26.1 790.391 23.5 788.691 21.7C786.991 19.85 784.966 18.925 782.616 18.925C780.566 18.925 778.741 19.525 777.141 20.725C775.591 21.925 774.316 23.45 773.316 25.3C772.316 27.1 771.666 28.925 771.366 30.775H770.616C770.266 28.875 769.616 27.025 768.666 25.225C767.716 23.375 766.466 21.85 764.916 20.65C763.366 19.45 761.491 18.85 759.291 18.85C756.991 18.85 755.266 19.475 754.116 20.725C752.966 21.975 752.391 23.4 752.391 25C752.391 25.7 752.491 26.325 752.691 26.875C752.891 27.375 753.116 27.825 753.366 28.225L751.041 29.8C750.241 28.8 749.666 27.7 749.316 26.5C749.016 25.3 748.866 24.1 748.866 22.9ZM764.616 42.625C764.616 43.975 765.441 45 767.091 45.7C768.741 46.35 770.666 46.675 772.866 46.675C774.966 46.675 776.991 46.35 778.941 45.7C780.891 45 782.666 44.05 784.266 42.85C782.816 41.5 781.116 40.4 779.166 39.55C777.266 38.65 775.116 38.2 772.716 38.2C770.116 38.2 768.116 38.65 766.716 39.55C765.316 40.45 764.616 41.475 764.616 42.625ZM836.446 35.05C836.446 38.55 835.721 41.65 834.271 44.35C832.821 47.05 830.796 49.175 828.196 50.725C825.596 52.275 822.596 53.05 819.196 53.05C815.796 53.05 812.796 52.275 810.196 50.725C807.596 49.175 805.571 47.05 804.121 44.35C802.671 41.65 801.946 38.55 801.946 35.05C801.946 31.7 802.746 28.6 804.346 25.75C805.946 22.9 808.046 20.8 810.646 19.45H801.946V13.825H826.321C828.621 13.825 830.346 13.375 831.496 12.475C832.646 11.525 833.221 10.3 833.221 8.8C833.221 7.5 832.871 6.425 832.171 5.575C831.471 4.675 830.671 4.05 829.771 3.7L830.896 2.2C832.496 2.8 833.821 3.85 834.871 5.35C835.921 6.8 836.446 8.55 836.446 10.6C836.446 13.1 835.646 15.15 834.046 16.75C832.446 18.3 830.296 19.175 827.596 19.375C830.346 20.825 832.496 22.975 834.046 25.825C835.646 28.675 836.446 31.75 836.446 35.05ZM805.321 33.475C805.321 36.025 805.896 38.3 807.046 40.3C808.246 42.3 809.871 43.875 811.921 45.025C814.021 46.125 816.446 46.675 819.196 46.675C821.946 46.675 824.346 46.1 826.396 44.95C828.496 43.8 830.121 42.225 831.271 40.225C832.471 38.225 833.071 35.95 833.071 33.4C833.071 30.85 832.446 28.525 831.196 26.425C829.946 24.325 828.271 22.65 826.171 21.4C824.071 20.15 821.746 19.525 819.196 19.525C816.696 19.525 814.371 20.175 812.221 21.475C810.121 22.725 808.446 24.4 807.196 26.5C805.946 28.6 805.321 30.925 805.321 33.475ZM861.721 33.85C861.721 37.5 861.096 40.775 859.846 43.675C858.646 46.575 856.971 48.875 854.821 50.575C852.721 52.225 850.296 53.05 847.546 53.05C844.746 53.05 842.196 52.125 839.896 50.275C837.646 48.375 835.946 45.725 834.796 42.325L835.321 36.475C836.721 40.275 838.396 42.925 840.346 44.425C842.346 45.925 844.571 46.675 847.021 46.675C850.421 46.675 853.271 45.475 855.571 43.075C857.921 40.675 859.096 37.275 859.096 32.875C859.096 30.625 858.746 28.65 858.046 26.95C857.396 25.2 856.571 23.775 855.571 22.675C854.571 21.525 853.571 20.775 852.571 20.425C852.171 20.275 851.771 20.2 851.371 20.2C850.971 20.15 850.571 20.1 850.171 20.05C849.271 20.05 848.446 19.95 847.696 19.75C847.096 19.55 846.596 19.175 846.196 18.625C845.796 18.075 845.596 17.45 845.596 16.75C845.596 15.9 845.896 15.15 846.496 14.5C847.146 13.85 848.071 13.525 849.271 13.525C851.021 13.525 852.846 14.325 854.746 15.925C856.696 17.475 858.346 19.775 859.696 22.825C861.046 25.825 861.721 29.5 861.721 33.85ZM909.231 42.55C908.681 44.6 907.781 46.425 906.531 48.025C905.281 49.625 903.856 50.875 902.256 51.775C900.706 52.625 899.081 53.05 897.381 53.05C895.531 53.05 893.881 52.525 892.431 51.475C891.031 50.375 889.931 48.925 889.131 47.125C888.381 45.325 888.006 43.3 888.006 41.05C888.006 37.8 888.731 35.225 890.181 33.325C891.681 31.425 893.531 30.475 895.731 30.475C897.581 30.475 898.981 31.075 899.931 32.275C900.931 33.425 901.631 34.8 902.031 36.4L900.831 37.525C900.481 36.625 899.906 35.975 899.106 35.575C898.356 35.175 897.481 34.975 896.481 34.975C894.931 34.975 893.631 35.425 892.581 36.325C891.531 37.175 891.006 38.5 891.006 40.3C891.006 42.25 891.606 43.8 892.806 44.95C894.056 46.1 895.606 46.675 897.456 46.675C899.306 46.675 901.031 46.15 902.631 45.1C904.281 44 905.656 42.6 906.756 40.9C907.856 39.15 908.581 37.325 908.931 35.425H909.606C909.956 37.275 910.681 39.075 911.781 40.825C912.931 42.525 914.356 43.925 916.056 45.025C917.806 46.125 919.706 46.675 921.756 46.675C923.706 46.675 925.431 46.175 926.931 45.175C928.431 44.125 929.606 42.725 930.456 40.975C931.306 39.175 931.731 37.175 931.731 34.975C931.731 31.825 930.881 29.075 929.181 26.725C927.481 24.325 925.206 22.45 922.356 21.1C919.556 19.75 916.406 19.075 912.906 19.075C912.506 19.075 912.131 19.1 911.781 19.15C911.431 19.15 911.081 19.175 910.731 19.225C910.481 19.275 910.206 19.325 909.906 19.375C909.656 19.375 909.406 19.375 909.156 19.375C908.656 19.375 908.131 19.3 907.581 19.15C906.381 18.75 905.781 17.9 905.781 16.6C905.781 15.7 906.131 14.9 906.831 14.2C907.581 13.45 908.606 13.075 909.906 13.075C912.406 13.075 915.056 13.525 917.856 14.425C920.706 15.325 923.381 16.725 925.881 18.625C928.431 20.475 930.481 22.85 932.031 25.75C933.631 28.65 934.431 32.125 934.431 36.175C934.431 39.225 933.931 42.05 932.931 44.65C931.931 47.2 930.506 49.25 928.656 50.8C926.856 52.3 924.656 53.05 922.056 53.05C919.156 53.05 916.531 52.075 914.181 50.125C911.831 48.175 910.231 45.65 909.381 42.55H909.231ZM973.712 33.25C973.712 35.9 973.287 38.425 972.437 40.825C971.637 43.175 970.487 45.275 968.987 47.125C967.537 48.975 965.862 50.425 963.962 51.475C962.062 52.525 960.012 53.05 957.812 53.05C955.662 53.05 953.612 52.525 951.662 51.475C949.762 50.425 948.062 48.975 946.562 47.125C945.112 45.275 943.962 43.175 943.112 40.825C942.312 38.425 941.912 35.9 941.912 33.25C941.912 30.6 942.312 28.075 943.112 25.675C943.962 23.225 945.112 21.075 946.562 19.225C948.062 17.325 949.762 15.825 951.662 14.725C953.612 13.625 955.687 13.075 957.887 13.075C960.087 13.075 962.137 13.625 964.037 14.725C965.937 15.825 967.612 17.325 969.062 19.225C970.512 21.075 971.637 23.225 972.437 25.675C973.287 28.075 973.712 30.6 973.712 33.25ZM944.687 32.575C944.687 35.425 945.337 37.925 946.637 40.075C947.937 42.175 949.587 43.8 951.587 44.95C953.637 46.1 955.712 46.675 957.812 46.675C959.962 46.675 962.037 46.1 964.037 44.95C966.037 43.8 967.687 42.2 968.987 40.15C970.337 38.1 971.012 35.7 971.012 32.95C971.012 30.05 970.412 27.575 969.212 25.525C968.012 23.425 966.412 21.8 964.412 20.65C962.412 19.5 960.237 18.925 957.887 18.925C955.537 18.925 953.337 19.5 951.287 20.65C949.287 21.75 947.687 23.325 946.487 25.375C945.287 27.425 944.687 29.825 944.687 32.575ZM1003.29 42.55C1002.44 45.65 1000.87 48.175 998.568 50.125C996.268 52.075 993.793 53.05 991.143 53.05C989.543 53.05 987.993 52.65 986.493 51.85C985.043 51 983.868 49.675 982.968 47.875C982.068 46.025 981.618 43.625 981.618 40.675C981.618 37.375 982.168 34.35 983.268 31.6C984.418 28.85 985.943 26.45 987.843 24.4C989.743 22.35 991.818 20.7 994.068 19.45H981.618V13.825H1014.92C1015.52 13.825 1016.07 13.8 1016.57 13.75L1016.72 13.675H1017.02L1017.32 13.6H1017.39C1018.69 13.3 1019.74 12.75 1020.54 11.95C1021.39 11.15 1021.82 10.075 1021.82 8.725C1021.82 7.925 1021.67 7.225 1021.37 6.625C1021.12 5.975 1020.77 5.425 1020.32 4.975C1019.82 4.525 1019.29 4.225 1018.74 4.075C1018.19 3.875 1017.79 3.775 1017.54 3.775C1017.24 3.775 1017.09 4.025 1017.09 4.525C1017.09 5.875 1016.72 7 1015.97 7.9C1015.22 8.75 1014.17 9.175 1012.82 9.175C1011.62 9.175 1010.62 8.825 1009.82 8.125C1009.07 7.375 1008.69 6.425 1008.69 5.275C1008.69 3.975 1009.19 2.875 1010.19 1.975C1011.24 1.075 1012.77 0.624995 1014.77 0.624995C1016.27 0.624995 1017.79 0.949996 1019.34 1.6C1020.94 2.2 1022.29 3.2 1023.39 4.6C1024.49 6 1025.04 7.875 1025.04 10.225V10.45V10.6C1025.04 12.45 1024.59 14.05 1023.69 15.4C1022.79 16.75 1021.54 17.775 1019.94 18.475C1018.49 19.125 1016.84 19.45 1014.99 19.45H1014.92H1012.67C1014.97 20.7 1017.04 22.35 1018.89 24.4C1020.79 26.45 1022.29 28.85 1023.39 31.6C1024.54 34.3 1025.12 37.275 1025.12 40.525C1025.12 43.525 1024.64 45.95 1023.69 47.8C1022.79 49.65 1021.62 51 1020.17 51.85C1018.72 52.65 1017.19 53.05 1015.59 53.05C1012.94 53.05 1010.47 52.075 1008.17 50.125C1005.87 48.175 1004.29 45.65 1003.44 42.55H1003.29ZM985.293 38.425C985.293 40.925 985.868 42.925 987.018 44.425C988.218 45.925 989.818 46.675 991.818 46.675C993.568 46.675 995.218 46.15 996.768 45.1C998.368 44 999.718 42.6 1000.82 40.9C1001.97 39.15 1002.72 37.325 1003.07 35.425H1003.74C1004.09 37.325 1004.82 39.15 1005.92 40.9C1007.02 42.6 1008.34 44 1009.89 45.1C1011.49 46.15 1013.17 46.675 1014.92 46.675C1016.92 46.675 1018.49 45.925 1019.64 44.425C1020.84 42.925 1021.44 40.95 1021.44 38.5C1021.44 36.25 1020.97 33.975 1020.02 31.675C1019.07 29.375 1017.77 27.275 1016.12 25.375C1014.47 23.425 1012.54 21.875 1010.34 20.725C1008.19 19.525 1005.87 18.925 1003.37 18.925C1000.92 18.925 998.593 19.525 996.393 20.725C994.193 21.875 992.268 23.425 990.618 25.375C988.968 27.275 987.668 29.375 986.718 31.675C985.768 33.925 985.293 36.175 985.293 38.425ZM1064.83 33.25C1064.83 35.9 1064.4 38.425 1063.55 40.825C1062.75 43.175 1061.6 45.275 1060.1 47.125C1058.65 48.975 1056.98 50.425 1055.08 51.475C1053.18 52.525 1051.13 53.05 1048.93 53.05C1046.78 53.05 1044.73 52.525 1042.78 51.475C1040.88 50.425 1039.18 48.975 1037.68 47.125C1036.23 45.275 1035.08 43.175 1034.23 40.825C1033.43 38.425 1033.03 35.9 1033.03 33.25C1033.03 30.6 1033.43 28.075 1034.23 25.675C1035.08 23.225 1036.23 21.075 1037.68 19.225C1039.18 17.325 1040.88 15.825 1042.78 14.725C1044.73 13.625 1046.8 13.075 1049 13.075C1051.2 13.075 1053.25 13.625 1055.15 14.725C1057.05 15.825 1058.73 17.325 1060.18 19.225C1061.63 21.075 1062.75 23.225 1063.55 25.675C1064.4 28.075 1064.83 30.6 1064.83 33.25ZM1035.8 32.575C1035.8 35.425 1036.45 37.925 1037.75 40.075C1039.05 42.175 1040.7 43.8 1042.7 44.95C1044.75 46.1 1046.83 46.675 1048.93 46.675C1051.08 46.675 1053.15 46.1 1055.15 44.95C1057.15 43.8 1058.8 42.2 1060.1 40.15C1061.45 38.1 1062.13 35.7 1062.13 32.95C1062.13 30.05 1061.53 27.575 1060.33 25.525C1059.13 23.425 1057.53 21.8 1055.53 20.65C1053.53 19.5 1051.35 18.925 1049 18.925C1046.65 18.925 1044.45 19.5 1042.4 20.65C1040.4 21.75 1038.8 23.325 1037.6 25.375C1036.4 27.425 1035.8 29.825 1035.8 32.575ZM1094.41 42.55C1093.56 45.65 1091.98 48.175 1089.68 50.125C1087.38 52.075 1084.91 53.05 1082.26 53.05C1080.66 53.05 1079.11 52.65 1077.61 51.85C1076.16 51 1074.98 49.675 1074.08 47.875C1073.18 46.025 1072.73 43.625 1072.73 40.675C1072.73 36.275 1073.73 32.35 1075.73 28.9C1077.73 25.45 1080.21 22.725 1083.16 20.725C1080.61 20.675 1078.38 20 1076.48 18.7C1074.58 17.35 1073.63 15.175 1073.63 12.175C1073.63 9.625 1074.48 7.575 1076.18 6.025C1077.93 4.475 1080.43 3.7 1083.68 3.7C1086.23 3.7 1088.76 4.275 1091.26 5.425C1093.81 6.525 1096.26 8.025 1098.61 9.925C1100.96 11.825 1103.13 13.95 1105.13 16.3C1107.13 18.6 1108.88 20.975 1110.38 23.425C1111.93 25.825 1113.13 28.125 1113.98 30.325C1114.68 31.875 1115.23 33.5 1115.63 35.2C1116.03 36.9 1116.23 38.675 1116.23 40.525C1116.23 43.525 1115.76 45.95 1114.81 47.8C1113.91 49.65 1112.73 51 1111.28 51.85C1109.83 52.65 1108.31 53.05 1106.71 53.05C1104.06 53.05 1101.58 52.075 1099.28 50.125C1096.98 48.175 1095.41 45.65 1094.56 42.55H1094.41ZM1094.48 16.975C1098.38 16.975 1102.16 18.225 1105.81 20.725C1103.91 18.125 1101.78 15.825 1099.43 13.825C1097.08 11.825 1094.73 10.25 1092.38 9.1C1090.03 7.95 1087.91 7.375 1086.01 7.375C1083.91 7.375 1082.28 7.85 1081.13 8.8C1080.03 9.7 1079.48 10.95 1079.48 12.55C1079.48 13.95 1079.93 15.275 1080.83 16.525C1081.78 17.725 1083.33 18.325 1085.48 18.325C1086.08 18.325 1086.76 18.275 1087.51 18.175C1088.31 18.025 1089.13 17.8 1089.98 17.5L1089.91 17.575C1091.46 17.175 1092.98 16.975 1094.48 16.975ZM1076.41 38.425C1076.41 40.925 1076.98 42.925 1078.13 44.425C1079.33 45.925 1080.93 46.675 1082.93 46.675C1084.68 46.675 1086.33 46.15 1087.88 45.1C1089.48 44 1090.83 42.6 1091.93 40.9C1093.08 39.15 1093.83 37.325 1094.18 35.425H1094.86C1095.21 37.325 1095.93 39.15 1097.03 40.9C1098.13 42.6 1099.46 44 1101.01 45.1C1102.61 46.15 1104.28 46.675 1106.03 46.675C1108.03 46.675 1109.61 45.925 1110.76 44.425C1111.96 42.925 1112.56 40.95 1112.56 38.5C1112.56 36.25 1112.08 33.975 1111.13 31.675C1110.18 29.375 1108.88 27.275 1107.23 25.375C1105.58 23.425 1103.66 21.875 1101.46 20.725C1099.31 19.525 1096.98 18.925 1094.48 18.925C1092.03 18.925 1089.71 19.525 1087.51 20.725C1085.31 21.875 1083.38 23.425 1081.73 25.375C1080.08 27.275 1078.78 29.375 1077.83 31.675C1076.88 33.925 1076.41 36.175 1076.41 38.425ZM1130.36 52H1124.51V48.175C1124.51 45.825 1124.76 43.275 1125.26 40.525C1125.76 37.775 1126.46 35.05 1127.36 32.35C1128.31 29.65 1129.46 27.175 1130.81 24.925C1132.16 22.675 1133.69 20.85 1135.39 19.45H1124.89V13.825H1149.49C1151.79 13.825 1153.51 13.375 1154.66 12.475C1155.81 11.525 1156.39 10.3 1156.39 8.8C1156.39 7.5 1156.04 6.425 1155.34 5.575C1154.64 4.675 1153.84 4.05 1152.94 3.7L1154.06 2.2C1155.66 2.8 1156.99 3.85 1158.04 5.35C1159.09 6.8 1159.61 8.55 1159.61 10.6C1159.61 13.3 1158.69 15.45 1156.84 17.05C1154.99 18.65 1152.54 19.45 1149.49 19.45H1149.19C1150.89 20.85 1152.41 22.675 1153.76 24.925C1155.11 27.175 1156.24 29.65 1157.14 32.35C1158.09 35.05 1158.81 37.775 1159.31 40.525C1159.81 43.275 1160.06 45.825 1160.06 48.175V52H1154.21V46.15C1154.21 43 1153.96 39.825 1153.46 36.625C1152.96 33.425 1152.21 30.525 1151.21 27.925C1150.21 25.275 1148.96 23.15 1147.46 21.55C1145.96 19.95 1144.24 19.15 1142.29 19.15C1140.34 19.15 1138.61 19.95 1137.11 21.55C1135.61 23.15 1134.36 25.275 1133.36 27.925C1132.36 30.525 1131.61 33.425 1131.11 36.625C1130.61 39.825 1130.36 43 1130.36 46.15V52ZM1181.21 34.675C1181.21 40.575 1180.51 45.125 1179.11 48.325C1177.76 51.475 1175.39 53.05 1171.99 53.05C1169.84 53.05 1167.84 52.475 1165.99 51.325C1164.14 50.175 1162.54 48.7 1161.19 46.9C1159.89 45.05 1158.91 43.125 1158.26 41.125V35.35C1159.06 37.25 1160.01 39.075 1161.11 40.825C1162.21 42.575 1163.54 44 1165.09 45.1C1166.64 46.15 1168.49 46.675 1170.64 46.675C1173.19 46.675 1175.11 45.7 1176.41 43.75C1177.76 41.8 1178.44 38.35 1178.44 33.4C1178.44 29 1179.11 25.3 1180.46 22.3C1181.86 19.3 1183.74 17.025 1186.09 15.475C1188.49 13.875 1191.21 13.075 1194.26 13.075C1197.96 13.075 1201.26 13.975 1204.16 15.775C1207.11 17.575 1209.41 20.075 1211.06 23.275C1212.76 26.425 1213.61 30.05 1213.61 34.15C1213.61 37.8 1213.04 41.05 1211.89 43.9C1210.74 46.75 1209.11 49 1207.01 50.65C1204.91 52.25 1202.46 53.05 1199.66 53.05C1196.06 53.05 1193.21 51.85 1191.11 49.45C1189.01 47 1187.94 43.925 1187.89 40.225C1187.94 37.275 1188.69 34.775 1190.14 32.725C1191.59 30.625 1193.66 29.575 1196.36 29.575C1198.41 29.575 1199.91 30.15 1200.86 31.3C1201.86 32.4 1202.36 33.575 1202.36 34.825C1202.36 36.125 1201.91 37.25 1201.01 38.2C1200.16 39.15 1199.09 39.625 1197.79 39.625C1196.54 39.625 1195.54 39.2 1194.79 38.35C1194.09 37.45 1193.74 36.325 1193.74 34.975C1193.74 34.475 1193.56 34.225 1193.21 34.225C1192.76 34.225 1192.24 34.675 1191.64 35.575C1191.04 36.425 1190.74 37.6 1190.74 39.1C1190.74 41.3 1191.51 43.15 1193.06 44.65C1194.66 46.15 1196.84 46.9 1199.59 46.9C1202.99 46.9 1205.74 45.8 1207.84 43.6C1209.94 41.4 1210.99 38.325 1210.99 34.375C1210.99 31.175 1210.24 28.425 1208.74 26.125C1207.29 23.825 1205.34 22.05 1202.89 20.8C1200.49 19.55 1197.84 18.925 1194.94 18.925C1190.94 18.925 1187.64 20.25 1185.04 22.9C1182.49 25.5 1181.21 29.425 1181.21 34.675ZM1256.31 1.075C1258.26 1.075 1260.21 1.725 1262.16 3.025C1264.11 4.275 1265.96 6.05 1267.71 8.35C1269.46 10.6 1271.01 13.2 1272.36 16.15C1273.71 19.1 1274.76 22.25 1275.51 25.6C1276.31 28.95 1276.71 32.375 1276.71 35.875C1276.71 41.225 1275.69 45.425 1273.64 48.475C1271.59 51.525 1268.91 53.05 1265.61 53.05C1263.81 53.05 1262.39 52.65 1261.34 51.85C1260.29 51 1259.46 49.95 1258.86 48.7C1258.26 47.4 1257.74 46.025 1257.29 44.575C1256.84 43.125 1256.29 41.775 1255.64 40.525C1255.04 39.225 1254.19 38.175 1253.09 37.375C1252.04 36.525 1250.59 36.1 1248.74 36.1C1246.29 36.1 1244.44 36.775 1243.19 38.125C1241.99 39.425 1241.39 41 1241.39 42.85C1241.39 44.7 1241.94 46.4 1243.04 47.95C1244.19 49.5 1245.71 50.6 1247.61 51.25C1248.56 51.6 1249.31 52.1 1249.86 52.75C1250.41 53.4 1250.69 54.075 1250.69 54.775C1250.69 56.225 1249.96 56.95 1248.51 56.95C1247.21 56.95 1245.96 56.475 1244.76 55.525C1243.61 54.625 1242.59 53.425 1241.69 51.925C1240.79 50.425 1240.06 48.825 1239.51 47.125C1239.01 45.375 1238.76 43.725 1238.76 42.175C1238.76 39.825 1239.21 37.75 1240.11 35.95C1241.01 34.1 1242.21 32.65 1243.71 31.6C1245.26 30.5 1246.99 29.95 1248.89 29.95C1250.59 29.95 1251.96 30.35 1253.01 31.15C1254.11 31.95 1255.01 33 1255.71 34.3C1256.41 35.55 1257.04 36.9 1257.59 38.35C1258.14 39.75 1258.74 41.1 1259.39 42.4C1260.09 43.65 1260.94 44.675 1261.94 45.475C1262.94 46.275 1264.24 46.675 1265.84 46.675C1267.99 46.675 1269.76 45.75 1271.16 43.9C1272.61 42 1273.34 38.775 1273.34 34.225C1273.34 30.175 1272.86 26.5 1271.91 23.2C1270.96 19.85 1269.69 16.975 1268.09 14.575C1266.54 12.125 1264.86 10.175 1263.06 8.725C1263.06 8.925 1263.06 9.15 1263.06 9.4C1263.06 11.55 1262.49 13.5 1261.34 15.25C1260.24 16.95 1258.59 17.8 1256.39 17.8C1254.29 17.8 1252.56 17 1251.21 15.4C1249.91 13.75 1249.26 11.7 1249.26 9.25C1249.26 6.85 1249.89 4.9 1251.14 3.4C1252.44 1.85 1254.16 1.075 1256.31 1.075ZM1251.74 9.625C1251.74 10.725 1252.11 11.625 1252.86 12.325C1253.61 12.975 1254.61 13.3 1255.86 13.3C1257.71 13.3 1259.01 12.75 1259.76 11.65C1260.56 10.5 1260.96 9.375 1260.96 8.275C1260.96 7.975 1260.94 7.675 1260.89 7.375C1259.24 6.475 1257.64 6.025 1256.09 6.025C1254.69 6.025 1253.61 6.425 1252.86 7.225C1252.11 7.975 1251.74 8.775 1251.74 9.625ZM1288.28 30.775C1288.28 34.975 1289.16 38.825 1290.91 42.325C1292.66 45.825 1295.38 49.05 1299.08 52V53.05H1293.68C1291.08 50.25 1289.03 47.2 1287.53 43.9C1286.03 40.6 1285.28 36.675 1285.28 32.125C1285.28 28.125 1285.81 24.7 1286.86 21.85C1287.96 19 1289.36 16.825 1291.06 15.325C1292.81 13.825 1294.68 13.075 1296.68 13.075C1298.28 13.075 1299.63 13.525 1300.73 14.425C1301.83 15.325 1302.66 16.5 1303.21 17.95C1303.81 19.4 1304.11 20.925 1304.11 22.525C1304.11 25.075 1303.43 27.225 1302.08 28.975C1300.73 30.675 1299.01 31.525 1296.91 31.525C1295.16 31.525 1293.63 30.85 1292.33 29.5C1291.08 28.15 1290.46 26.075 1290.46 23.275C1290.46 22.525 1290.48 21.825 1290.53 21.175C1289.03 23.375 1288.28 26.575 1288.28 30.775ZM1292.63 21.325C1292.63 22.975 1293.03 24.2 1293.83 25C1294.68 25.8 1295.83 26.2 1297.28 26.2C1298.68 26.2 1299.78 25.825 1300.58 25.075C1301.43 24.325 1301.86 23.275 1301.86 21.925C1301.86 20.475 1301.38 19.45 1300.43 18.85C1299.48 18.25 1298.36 17.95 1297.06 17.95C1295.46 17.95 1294.06 18.3 1292.86 19C1292.71 19.7 1292.63 20.475 1292.63 21.325ZM1356.68 40.225C1356.68 42.525 1356.13 44.65 1355.03 46.6C1353.93 48.55 1352.43 50.125 1350.53 51.325C1348.63 52.475 1346.5 53.05 1344.15 53.05C1341.75 53.05 1339.58 52.475 1337.63 51.325C1335.73 50.125 1334.2 48.55 1333.05 46.6C1331.95 44.65 1331.4 42.525 1331.4 40.225C1331.4 38.125 1331.85 36.175 1332.75 34.375C1333.7 32.575 1334.98 31.1 1336.58 29.95H1328.1V25H1342.65C1343.3 24.1 1343.63 23.025 1343.63 21.775C1343.63 20.925 1343.48 20.15 1343.18 19.45H1328.1V13.825H1349.1C1351.4 13.825 1353.13 13.35 1354.28 12.4C1355.43 11.45 1356 10.25 1356 8.8C1356 7.5 1355.65 6.425 1354.95 5.575C1354.25 4.675 1353.45 4.05 1352.55 3.7L1353.68 2.2C1355.28 2.8 1356.6 3.85 1357.65 5.35C1358.7 6.8 1359.23 8.55 1359.23 10.6C1359.23 13.3 1358.3 15.45 1356.45 17.05C1354.65 18.65 1352.2 19.45 1349.1 19.45H1345.73C1346.03 20.25 1346.18 21.075 1346.18 21.925C1346.18 23.025 1345.95 24.05 1345.5 25H1359.98V29.95H1351.58C1353.13 31.1 1354.35 32.575 1355.25 34.375C1356.2 36.175 1356.68 38.125 1356.68 40.225ZM1335 38.35C1335 40.8 1335.85 42.8 1337.55 44.35C1339.25 45.9 1341.45 46.675 1344.15 46.675C1346.8 46.675 1348.95 45.9 1350.6 44.35C1352.3 42.8 1353.15 40.8 1353.15 38.35C1353.15 36.6 1352.73 35.075 1351.88 33.775C1351.03 32.475 1349.9 31.475 1348.5 30.775C1347.15 30.075 1345.7 29.725 1344.15 29.725C1342.6 29.725 1341.13 30.075 1339.73 30.775C1338.33 31.475 1337.18 32.475 1336.28 33.775C1335.43 35.075 1335 36.6 1335 38.35ZM1376.54 56.95C1375.19 56.95 1373.92 56.475 1372.72 55.525C1371.57 54.625 1370.54 53.45 1369.64 52C1368.74 50.5 1368.02 48.9 1367.47 47.2C1366.97 45.45 1366.72 43.775 1366.72 42.175C1366.72 39.825 1367.17 37.75 1368.07 35.95C1368.97 34.1 1370.17 32.65 1371.67 31.6C1373.22 30.5 1374.94 29.95 1376.84 29.95C1378.59 29.95 1379.99 30.375 1381.04 31.225C1382.14 32.025 1383.02 33.075 1383.67 34.375C1384.37 35.675 1385.02 37.05 1385.62 38.5C1386.22 39.85 1386.82 41.15 1387.42 42.4C1388.07 43.65 1388.89 44.675 1389.89 45.475C1390.89 46.275 1392.19 46.675 1393.79 46.675C1395.94 46.675 1397.72 45.875 1399.12 44.275C1400.57 42.625 1401.29 40.35 1401.29 37.45C1401.29 34.5 1400.49 31.85 1398.89 29.5C1397.34 27.1 1395.17 25.075 1392.37 23.425C1389.62 21.725 1386.42 20.45 1382.77 19.6L1381.72 19.45H1366.72V13.825H1394.09C1396.39 13.825 1398.12 13.35 1399.27 12.4C1400.42 11.45 1400.99 10.225 1400.99 8.725C1400.99 7.475 1400.64 6.425 1399.94 5.575C1399.24 4.675 1398.44 4.05 1397.54 3.7L1398.67 2.2C1400.27 2.8 1401.59 3.85 1402.64 5.35C1403.69 6.8 1404.22 8.55 1404.22 10.6C1404.22 13.3 1403.29 15.45 1401.44 17.05C1399.64 18.65 1397.19 19.45 1394.09 19.45H1389.82C1394.67 20.95 1398.39 23.475 1400.99 27.025C1403.59 30.525 1404.89 34.45 1404.89 38.8C1404.89 41.4 1404.39 43.775 1403.39 45.925C1402.44 48.075 1401.09 49.8 1399.34 51.1C1397.64 52.4 1395.67 53.05 1393.42 53.05C1391.62 53.05 1390.19 52.65 1389.14 51.85C1388.14 51 1387.37 49.95 1386.82 48.7C1386.27 47.4 1385.74 46.05 1385.24 44.65C1384.79 43.2 1384.27 41.825 1383.67 40.525C1383.07 39.225 1382.24 38.175 1381.19 37.375C1380.14 36.525 1378.67 36.1 1376.77 36.1C1374.32 36.1 1372.47 36.775 1371.22 38.125C1369.97 39.425 1369.34 41 1369.34 42.85C1369.34 44.7 1369.87 46.4 1370.92 47.95C1372.02 49.5 1373.42 50.55 1375.12 51.1C1376.27 51.5 1377.14 52.05 1377.74 52.75C1378.34 53.5 1378.64 54.25 1378.64 55C1378.64 56.3 1377.94 56.95 1376.54 56.95ZM1412.94 50.125C1413.54 50.875 1414.21 52.025 1414.96 53.575C1415.76 55.125 1416.44 56.875 1416.99 58.825C1417.59 60.825 1417.89 62.9 1417.89 65.05C1417.89 67.5 1417.46 69.675 1416.61 71.575C1415.81 73.525 1414.76 75.175 1413.46 76.525C1414.36 77.675 1415.44 78.6 1416.69 79.3C1417.94 80.05 1419.51 80.425 1421.41 80.425C1422.26 80.425 1422.86 80.6 1423.21 80.95C1423.56 81.35 1423.74 81.825 1423.74 82.375C1423.74 83.725 1422.94 84.4 1421.34 84.4C1419.09 84.4 1417.24 83.75 1415.79 82.45C1414.34 81.2 1413.04 79.7 1411.89 77.95C1409.34 79.9 1406.54 80.875 1403.49 80.875C1400.54 80.875 1398.31 79.975 1396.81 78.175C1395.26 76.425 1394.49 74.375 1394.49 72.025C1394.49 69.725 1395.16 67.875 1396.51 66.475C1397.81 65.075 1399.56 64.375 1401.76 64.375C1403.66 64.375 1405.19 64.85 1406.34 65.8C1407.49 66.8 1408.46 68.05 1409.26 69.55C1410.06 71.05 1410.91 72.55 1411.81 74.05C1413.06 73 1414.06 71.725 1414.81 70.225C1415.61 68.725 1416.01 67 1416.01 65.05C1416.01 62.5 1415.39 60.125 1414.14 57.925C1412.94 55.775 1411.59 54.15 1410.09 53.05C1408.74 52.05 1408.06 51 1408.06 49.9C1408.06 48.6 1408.66 47.95 1409.86 47.95C1410.81 47.95 1411.84 48.675 1412.94 50.125ZM1396.81 71.575C1396.81 73.225 1397.44 74.525 1398.69 75.475C1399.94 76.425 1401.56 76.9 1403.56 76.9C1405.96 76.9 1408.19 76.3 1410.24 75.1C1409.44 73.7 1408.64 72.35 1407.84 71.05C1406.99 69.8 1406.06 68.775 1405.06 67.975C1404.01 67.175 1402.81 66.775 1401.46 66.775C1400.06 66.775 1398.94 67.225 1398.09 68.125C1397.24 69.025 1396.81 70.175 1396.81 71.575ZM1416.97 40.75C1416.97 37.45 1417.52 34.425 1418.62 31.675C1419.77 28.925 1421.29 26.525 1423.19 24.475C1425.14 22.375 1427.32 20.7 1429.72 19.45H1416.97V13.825H1450.27C1452.57 13.825 1454.29 13.375 1455.44 12.475C1456.59 11.525 1457.17 10.3 1457.17 8.8C1457.17 7.5 1456.82 6.425 1456.12 5.575C1455.42 4.675 1454.62 4.05 1453.72 3.7L1454.84 2.2C1456.44 2.8 1457.77 3.85 1458.82 5.35C1459.87 6.8 1460.39 8.55 1460.39 10.6C1460.39 13.3 1459.47 15.45 1457.62 17.05C1455.77 18.65 1453.32 19.45 1450.27 19.45H1449.37C1451.57 20.55 1453.44 22 1454.99 23.8C1456.54 25.6 1457.39 27.7 1457.54 30.1C1458.79 31.85 1459.72 33.85 1460.32 36.1C1460.92 38.3 1461.22 40.325 1461.22 42.175C1461.22 44.625 1460.74 46.65 1459.79 48.25C1458.89 49.85 1457.69 51.05 1456.19 51.85C1454.69 52.65 1453.07 53.05 1451.32 53.05C1448.47 53.05 1445.87 52.075 1443.52 50.125C1441.22 48.175 1439.64 45.65 1438.79 42.55H1438.64C1437.79 45.65 1436.22 48.175 1433.92 50.125C1431.62 52.075 1429.14 53.05 1426.49 53.05C1424.89 53.05 1423.34 52.65 1421.84 51.85C1420.39 51 1419.22 49.675 1418.32 47.875C1417.42 46.025 1416.97 43.65 1416.97 40.75ZM1439.09 35.425C1439.44 37.325 1440.17 39.15 1441.27 40.9C1442.42 42.6 1443.79 44 1445.39 45.1C1447.04 46.15 1448.82 46.675 1450.72 46.675C1452.92 46.675 1454.64 45.95 1455.89 44.5C1457.14 43 1457.77 41 1457.77 38.5C1457.77 36.9 1457.52 35.35 1457.02 33.85C1456.42 35.3 1455.47 36.375 1454.17 37.075C1452.92 37.775 1451.59 38.125 1450.19 38.125C1448.04 38.125 1446.24 37.425 1444.79 36.025C1443.39 34.625 1442.69 33.05 1442.69 31.3C1442.69 29.85 1443.24 28.5 1444.34 27.25C1445.44 26 1447.09 25.375 1449.29 25.375C1451.09 25.375 1452.74 25.875 1454.24 26.875C1453.54 25.575 1452.44 24.325 1450.94 23.125C1449.44 21.875 1447.69 20.875 1445.69 20.125C1443.69 19.325 1441.59 18.925 1439.39 18.925C1436.74 18.925 1434.27 19.525 1431.97 20.725C1429.72 21.875 1427.74 23.425 1426.04 25.375C1424.34 27.275 1423.02 29.375 1422.07 31.675C1421.12 33.925 1420.64 36.175 1420.64 38.425C1420.64 40.925 1421.22 42.925 1422.37 44.425C1423.57 45.925 1425.17 46.675 1427.17 46.675C1428.92 46.675 1430.57 46.15 1432.12 45.1C1433.72 44 1435.07 42.6 1436.17 40.9C1437.32 39.15 1438.07 37.325 1438.42 35.425H1439.09ZM1445.62 30.7C1445.62 31.5 1445.94 32.225 1446.59 32.875C1447.29 33.475 1448.42 33.775 1449.97 33.775C1451.67 33.775 1452.89 33.425 1453.64 32.725C1454.44 32.025 1454.92 31.25 1455.07 30.4C1454.37 29.5 1453.54 28.8 1452.59 28.3C1451.69 27.8 1450.67 27.55 1449.52 27.55C1448.27 27.55 1447.29 27.875 1446.59 28.525C1445.94 29.125 1445.62 29.85 1445.62 30.7ZM1490.33 42.55C1489.78 44.6 1488.88 46.425 1487.63 48.025C1486.38 49.625 1484.96 50.875 1483.36 51.775C1481.76 52.625 1480.11 53.05 1478.41 53.05C1476.56 53.05 1474.93 52.525 1473.53 51.475C1472.13 50.375 1471.03 48.925 1470.23 47.125C1469.48 45.275 1469.11 43.225 1469.11 40.975C1469.11 37.775 1469.83 35.225 1471.28 33.325C1472.78 31.425 1474.61 30.475 1476.76 30.475C1478.66 30.475 1480.08 31.075 1481.03 32.275C1482.03 33.425 1482.73 34.8 1483.13 36.4L1481.93 37.525C1481.58 36.625 1481.01 35.975 1480.21 35.575C1479.46 35.175 1478.61 34.975 1477.66 34.975C1476.11 34.975 1474.78 35.425 1473.68 36.325C1472.63 37.175 1472.11 38.525 1472.11 40.375C1472.11 42.275 1472.71 43.8 1473.91 44.95C1475.11 46.1 1476.63 46.675 1478.48 46.675C1480.38 46.675 1482.13 46.15 1483.73 45.1C1485.38 44 1486.76 42.6 1487.86 40.9C1488.96 39.15 1489.68 37.325 1490.03 35.425H1490.71C1491.06 37.325 1491.81 39.15 1492.96 40.9C1494.11 42.6 1495.48 44 1497.08 45.1C1498.73 46.15 1500.46 46.675 1502.26 46.675C1504.41 46.675 1506.21 45.825 1507.66 44.125C1509.11 42.375 1509.83 40.125 1509.83 37.375C1509.83 34.475 1509.06 31.7 1507.51 29.05C1505.96 26.4 1503.76 24.2 1500.91 22.45C1498.11 20.7 1494.81 19.7 1491.01 19.45H1469.11V13.825H1522.43C1526.88 13.825 1530.58 14.35 1533.53 15.4C1536.53 16.4 1538.91 17.825 1540.66 19.675C1542.41 21.525 1543.66 23.675 1544.41 26.125C1545.16 28.575 1545.53 31.225 1545.53 34.075C1545.53 37.725 1544.96 40.975 1543.81 43.825C1542.66 46.675 1541.01 48.925 1538.86 50.575C1536.76 52.175 1534.28 52.975 1531.43 52.975C1527.93 52.975 1525.13 51.775 1523.03 49.375C1520.93 46.925 1519.86 43.85 1519.81 40.15C1519.86 37.2 1520.61 34.7 1522.06 32.65C1523.51 30.55 1525.58 29.5 1528.28 29.5C1530.33 29.5 1531.83 30.075 1532.78 31.225C1533.78 32.325 1534.28 33.525 1534.28 34.825C1534.28 36.075 1533.83 37.175 1532.93 38.125C1532.08 39.075 1531.01 39.55 1529.71 39.55C1528.46 39.55 1527.46 39.125 1526.71 38.275C1526.01 37.375 1525.66 36.25 1525.66 34.9C1525.66 34.4 1525.48 34.15 1525.13 34.15C1524.68 34.15 1524.16 34.6 1523.56 35.5C1522.96 36.35 1522.66 37.525 1522.66 39.025C1522.66 41.225 1523.43 43.075 1524.98 44.575C1526.58 46.075 1528.78 46.825 1531.58 46.825C1534.93 46.825 1537.66 45.725 1539.76 43.525C1541.86 41.325 1542.91 38.25 1542.91 34.3C1542.91 31.55 1542.26 29.05 1540.96 26.8C1539.71 24.55 1537.63 22.775 1534.73 21.475C1531.83 20.125 1527.96 19.45 1523.11 19.45H1502.18C1505.18 21.25 1507.68 23.8 1509.68 27.1C1511.68 30.35 1512.68 34.2 1512.68 38.65C1512.68 41 1512.31 43.275 1511.56 45.475C1510.86 47.675 1509.76 49.5 1508.26 50.95C1506.81 52.35 1504.93 53.05 1502.63 53.05C1500.93 53.05 1499.26 52.625 1497.61 51.775C1495.96 50.875 1494.51 49.625 1493.26 48.025C1492.01 46.425 1491.08 44.6 1490.48 42.55H1490.33ZM1559.65 52H1553.8V48.925C1553.8 45.575 1554.18 42.1 1554.93 38.5C1555.73 34.9 1556.85 31.525 1558.3 28.375C1559.75 25.225 1561.5 22.65 1563.55 20.65C1563.05 20.7 1562.55 20.725 1562.05 20.725C1559.45 20.725 1557.3 20.075 1555.6 18.775C1553.9 17.475 1553.05 15.4 1553.05 12.55C1553.05 9.8 1553.88 7.65 1555.53 6.1C1557.18 4.5 1559.35 3.7 1562.05 3.7C1564.55 3.7 1566.9 4.35 1569.1 5.65C1571.35 6.95 1573.43 8.725 1575.33 10.975C1577.28 13.175 1579.05 15.675 1580.65 18.475C1582.25 21.275 1583.63 24.175 1584.78 27.175C1585.98 30.125 1586.93 33.025 1587.63 35.875C1588.38 38.675 1588.85 41.225 1589.05 43.525C1589.25 45.375 1589.35 47.175 1589.35 48.925V52H1583.5V46.15C1583.5 43 1583.25 39.825 1582.75 36.625C1582.25 33.425 1581.5 30.525 1580.5 27.925C1579.5 25.275 1578.25 23.15 1576.75 21.55C1575.25 19.95 1573.53 19.15 1571.58 19.15C1569.63 19.15 1567.9 19.95 1566.4 21.55C1564.9 23.15 1563.65 25.275 1562.65 27.925C1561.65 30.525 1560.9 33.425 1560.4 36.625C1559.9 39.825 1559.65 43 1559.65 46.15V52ZM1571.58 17.05C1572.98 17.05 1574.3 17.35 1575.55 17.95C1576.85 18.5 1578.08 19.275 1579.23 20.275C1576.73 15.725 1574.13 12.45 1571.43 10.45C1568.78 8.4 1566.4 7.375 1564.3 7.375C1562.75 7.375 1561.45 7.85 1560.4 8.8C1559.4 9.75 1558.9 11.15 1558.9 13C1558.9 13.75 1559.03 14.55 1559.28 15.4C1559.58 16.2 1560.1 16.9 1560.85 17.5C1561.6 18.05 1562.7 18.325 1564.15 18.325C1564.75 18.325 1565.4 18.275 1566.1 18.175C1566.85 18.025 1567.58 17.85 1568.28 17.65C1569.33 17.25 1570.43 17.05 1571.58 17.05ZM1631.78 35.05C1631.78 38.55 1631.06 41.65 1629.61 44.35C1628.16 47.05 1626.13 49.175 1623.53 50.725C1620.93 52.275 1617.93 53.05 1614.53 53.05C1611.13 53.05 1608.13 52.275 1605.53 50.725C1602.93 49.175 1600.91 47.05 1599.46 44.35C1598.01 41.65 1597.28 38.55 1597.28 35.05C1597.28 31.7 1598.08 28.6 1599.68 25.75C1601.28 22.9 1603.38 20.8 1605.98 19.45H1597.28V13.825H1621.66C1623.96 13.825 1625.68 13.375 1626.83 12.475C1627.98 11.525 1628.56 10.3 1628.56 8.8C1628.56 7.5 1628.21 6.425 1627.51 5.575C1626.81 4.675 1626.01 4.05 1625.11 3.7L1626.23 2.2C1627.83 2.8 1629.16 3.85 1630.21 5.35C1631.26 6.8 1631.78 8.55 1631.78 10.6C1631.78 13.1 1630.98 15.15 1629.38 16.75C1627.78 18.3 1625.63 19.175 1622.93 19.375C1625.68 20.825 1627.83 22.975 1629.38 25.825C1630.98 28.675 1631.78 31.75 1631.78 35.05ZM1600.66 33.475C1600.66 36.025 1601.23 38.3 1602.38 40.3C1603.58 42.3 1605.21 43.875 1607.26 45.025C1609.36 46.125 1611.78 46.675 1614.53 46.675C1617.28 46.675 1619.68 46.1 1621.73 44.95C1623.83 43.8 1625.46 42.225 1626.61 40.225C1627.81 38.225 1628.41 35.95 1628.41 33.4C1628.41 30.85 1627.78 28.525 1626.53 26.425C1625.28 24.325 1623.61 22.65 1621.51 21.4C1619.41 20.15 1617.08 19.525 1614.53 19.525C1612.03 19.525 1609.71 20.175 1607.56 21.475C1605.46 22.725 1603.78 24.4 1602.53 26.5C1601.28 28.6 1600.66 30.925 1600.66 33.475ZM1657.06 33.85C1657.06 37.5 1656.43 40.775 1655.18 43.675C1653.98 46.575 1652.31 48.875 1650.16 50.575C1648.06 52.225 1645.63 53.05 1642.88 53.05C1640.08 53.05 1637.53 52.125 1635.23 50.275C1632.98 48.375 1631.28 45.725 1630.13 42.325L1630.66 36.475C1632.06 40.275 1633.73 42.925 1635.68 44.425C1637.68 45.925 1639.91 46.675 1642.36 46.675C1645.76 46.675 1648.61 45.475 1650.91 43.075C1653.26 40.675 1654.43 37.275 1654.43 32.875C1654.43 30.625 1654.08 28.65 1653.38 26.95C1652.73 25.2 1651.91 23.775 1650.91 22.675C1649.91 21.525 1648.91 20.775 1647.91 20.425C1647.51 20.275 1647.11 20.2 1646.71 20.2C1646.31 20.15 1645.91 20.1 1645.51 20.05C1644.61 20.05 1643.78 19.95 1643.03 19.75C1642.43 19.55 1641.93 19.175 1641.53 18.625C1641.13 18.075 1640.93 17.45 1640.93 16.75C1640.93 15.9 1641.23 15.15 1641.83 14.5C1642.48 13.85 1643.41 13.525 1644.61 13.525C1646.36 13.525 1648.18 14.325 1650.08 15.925C1652.03 17.475 1653.68 19.775 1655.03 22.825C1656.38 25.825 1657.06 29.5 1657.06 33.85ZM1674.33 48.925C1674.33 50.075 1673.93 51.05 1673.13 51.85C1672.33 52.65 1671.35 53.05 1670.2 53.05C1669.05 53.05 1668.08 52.65 1667.28 51.85C1666.48 51.05 1666.08 50.075 1666.08 48.925C1666.08 47.775 1666.48 46.8 1667.28 46C1668.08 45.2 1669.05 44.8 1670.2 44.8C1671.35 44.8 1672.33 45.2 1673.13 46C1673.93 46.8 1674.33 47.775 1674.33 48.925Z" fill="black"/>
</svg>
