<svg width="1771" height="73" viewBox="0 0 1771 73" fill="none" xmlns="http://www.w3.org/2000/svg">
<path d="M20.4 13.225C22.75 13.675 24.85 14.35 26.7 15.25C28.6 16.1 30.25 17.375 31.65 19.075C33.05 20.725 34.175 22.9 35.025 25.6C35.875 28.25 36.45 31.6 36.75 35.65C36.55 40.2 35.875 43.875 34.725 46.675C33.575 49.425 32.275 51.45 30.825 52.75C30.275 53.25 29.75 53.65 29.25 53.95C28.8 54.25 28.375 54.575 27.975 54.925C27.625 55.275 27.3 55.7 27 56.2C26.75 56.65 26.525 57.275 26.325 58.075H25.8C25.65 56.925 25.225 56.15 24.525 55.75C23.875 55.3 23.125 54.875 22.275 54.475C21.425 54.075 20.575 53.55 19.725 52.9C18.875 52.25 18.2 51.125 17.7 49.525C17.15 50.925 16.45 51.975 15.6 52.675C14.8 53.375 13.975 53.95 13.125 54.4C12.325 54.85 11.575 55.325 10.875 55.825C10.225 56.325 9.775 57.075 9.525 58.075H9.15C8.4 56.575 7.5 55.425 6.45 54.625C5.4 53.825 4.4 53 3.45 52.15C2.5 51.25 1.675 50.125 0.975 48.775C0.325 47.425 2.12342e-07 45.45 2.12342e-07 42.85C2.12342e-07 40.55 0.325 38.6 0.975 37C1.675 35.4 2.525 34.1 3.525 33.1C4.525 32.05 5.625 31.3 6.825 30.85C8.025 30.35 9.15 30.1 10.2 30.1C11.6 30.1 12.75 30.55 13.65 31.45C14.55 32.3 15 33.375 15 34.675C15 35.725 14.625 36.65 13.875 37.45C13.175 38.2 12.275 38.575 11.175 38.575C10.325 38.575 9.5 38.325 8.7 37.825C7.9 37.325 7.5 36.475 7.5 35.275C7.5 34.775 7.575 34.375 7.725 34.075C7.875 33.725 8.1 33.35 8.4 32.95C7.8 33.1 7.3 33.475 6.9 34.075C6.55 34.625 6.375 35.525 6.375 36.775C6.375 38.875 6.875 40.45 7.875 41.5C8.925 42.55 10.325 43.075 12.075 43.075C15.875 43.075 17.775 40.1 17.775 34.15H19.05C19.05 37.15 19.45 39.4 20.25 40.9C21.1 42.35 22.425 43.075 24.225 43.075C26.625 43.075 28.375 42.425 29.475 41.125C30.575 39.825 31.125 37.8 31.125 35.05C30.525 25.2 26.075 19.8 17.775 18.85V18.775C16.375 18.775 15.35 18.975 14.7 19.375C14.05 19.725 13.725 20.375 13.725 21.325C13.725 22.175 13.925 22.825 14.325 23.275C14.775 23.725 15.225 23.95 15.675 23.95H15.975C15.475 23.8 15.225 23.475 15.225 22.975C15.225 22.075 15.675 21.625 16.575 21.625C17.375 21.675 17.775 22.125 17.775 22.975C17.775 24.475 17.025 25.225 15.525 25.225C14.325 25.225 13.35 24.825 12.6 24.025C11.85 23.175 11.475 21.875 11.475 20.125C11.475 18.525 11.7 17.2 12.15 16.15C12.6 15.1 12.825 14.125 12.825 13.225C12.825 11.475 12.5 10.275 11.85 9.625L12.3 9.475C12.55 9.925 12.85 10.375 13.2 10.825C13.55 11.275 14.025 11.675 14.625 12.025C15.275 12.375 16.05 12.675 16.95 12.925C17.9 13.125 19.05 13.225 20.4 13.225ZM83.4234 20.5C85.9734 24.4 87.2484 28.3 87.2484 32.2C87.2484 36.15 86.8734 39.325 86.1234 41.725C85.3734 44.125 84.3734 46.05 83.1234 47.5C81.8734 48.9 80.4234 50 78.7734 50.8C77.1734 51.55 75.4984 52.25 73.7484 52.9C73.1484 53.2 72.3734 53.475 71.4234 53.725C70.5234 53.975 69.6234 54.275 68.7234 54.625C67.8234 54.925 67.0234 55.3 66.3234 55.75C65.6234 56.15 65.1734 56.65 64.9734 57.25H64.2234C64.0734 56.6 63.4984 56 62.4984 55.45C61.5484 54.9 60.4234 54.375 59.1234 53.875C57.8734 53.375 56.5484 52.9 55.1484 52.45C53.7984 51.95 52.6484 51.475 51.6984 51.025C50.5484 50.525 49.4484 49.825 48.3984 48.925C47.3484 48.025 46.3984 46.875 45.5484 45.475C44.6984 44.075 44.0234 42.4 43.5234 40.45C43.0234 38.5 42.7734 36.2 42.7734 33.55C42.7734 31.3 43.0734 29.075 43.6734 26.875C44.2734 24.625 45.1234 22.625 46.2234 20.875C47.3734 19.075 48.7484 17.625 50.3484 16.525C51.9984 15.375 53.8734 14.8 55.9734 14.8C56.8234 14.8 57.5984 14.9 58.2984 15.1C58.9984 15.25 59.7734 15.325 60.6234 15.325C61.0734 15.325 61.4484 15.175 61.7484 14.875C62.0984 14.575 62.3984 14.3 62.6484 14.05L63.0984 14.35L62.4984 15.55C62.2984 15.9 62.1984 16.45 62.1984 17.2C62.1984 17.65 62.2484 18.2 62.3484 18.85C62.4984 19.5 62.6484 20.2 62.7984 20.95C62.9984 21.65 63.1484 22.35 63.2484 23.05C63.3984 23.75 63.4734 24.375 63.4734 24.925C63.3734 27.175 62.6484 28.975 61.2984 30.325C59.9984 31.625 57.9984 32.275 55.2984 32.275C53.1484 32.275 51.4734 31.675 50.2734 30.475C49.0734 29.275 48.4734 27.475 48.4734 25.075C48.4734 24.925 48.4734 24.775 48.4734 24.625C48.5234 24.475 48.5484 24.325 48.5484 24.175C48.1984 24.875 47.9484 25.7 47.7984 26.65C47.6984 27.55 47.6484 28.6 47.6484 29.8C47.6484 34.45 49.2484 37.825 52.4484 39.925C55.6984 41.975 60.4734 43 66.7734 43C75.6234 43 80.5484 39.1 81.5484 31.3C81.5484 24 79.6984 20.35 75.9984 20.35C73.3984 20.35 72.0984 21.375 72.0984 23.425C72.0984 24.575 72.4734 25.525 73.2234 26.275L72.6984 26.5C70.6484 25.2 69.6234 23.575 69.6234 21.625C69.6234 20.775 69.7984 19.9 70.1484 19C70.4984 18.05 70.6734 16.925 70.6734 15.625C70.6734 14.925 70.5984 14.325 70.4484 13.825C70.3484 13.325 70.0734 12.875 69.6234 12.475L70.0734 12.25C70.6734 13.5 71.8984 14.125 73.7484 14.125H84.7734V20.5H83.4234ZM54.3984 20.275C53.3984 20.275 52.5734 20.6 51.9234 21.25C51.2734 21.9 50.9484 22.675 50.9484 23.575C50.9484 24.575 51.2734 25.4 51.9234 26.05C52.5734 26.65 53.3984 26.95 54.3984 26.95C55.2484 26.95 55.9984 26.65 56.6484 26.05C57.3484 25.4 57.6984 24.575 57.6984 23.575C57.6984 22.675 57.3484 21.9 56.6484 21.25C55.9984 20.6 55.2484 20.275 54.3984 20.275ZM114.422 33.7C114.422 37.4 114.122 40.425 113.522 42.775C112.972 45.075 112.247 46.925 111.347 48.325C110.497 49.725 109.572 50.825 108.572 51.625C107.572 52.375 106.622 53.025 105.722 53.575C104.822 54.125 104.072 54.725 103.472 55.375C102.872 55.975 102.547 56.85 102.497 58H101.972C101.622 56.8 101.097 55.85 100.397 55.15C99.7475 54.45 98.9975 53.825 98.1475 53.275C97.3475 52.725 96.5225 52.15 95.6725 51.55C94.8225 50.95 94.0475 50.175 93.3475 49.225C92.6475 48.225 92.0725 46.95 91.6225 45.4C91.1725 43.8 90.9475 41.75 90.9475 39.25C90.9475 37.15 91.1475 35.15 91.5475 33.25C91.9975 31.3 92.6475 29.6 93.4975 28.15C94.3975 26.7 95.5225 25.55 96.8725 24.7C98.2225 23.85 99.8225 23.425 101.672 23.425C103.272 23.425 104.522 23.95 105.422 25C106.372 26.05 106.847 27.375 106.847 28.975C106.847 30.375 106.372 31.525 105.422 32.425C104.522 33.275 103.372 33.7 101.972 33.7C100.972 33.7 100.022 33.35 99.1225 32.65C98.2225 31.95 97.7725 31.025 97.7725 29.875C97.7725 29.525 97.8975 28.975 98.1475 28.225C97.8475 28.575 97.5725 28.85 97.3225 29.05C97.1225 29.2 96.9225 29.475 96.7225 29.875C96.5225 30.225 96.3475 30.775 96.1975 31.525C96.0475 32.225 95.8975 33.3 95.7475 34.75C95.9475 37.75 96.5725 39.95 97.6225 41.35C98.7225 42.7 100.272 43.375 102.272 43.375C107.772 43.125 110.522 39.65 110.522 32.95C110.522 28.4 109.897 25.175 108.647 23.275C107.397 21.325 105.797 20.35 103.847 20.35H74.8225V14.05H107.597C108.147 14.05 108.697 13.95 109.247 13.75C109.797 13.55 110.197 13.25 110.447 12.85L110.972 13.3L109.922 14.35C109.622 14.65 109.472 15.225 109.472 16.075C109.472 16.925 110.047 18.225 111.197 19.975C112.347 21.725 113.172 23.675 113.672 25.825C114.172 27.925 114.422 30.55 114.422 33.7ZM127.762 64.9C127.762 66.25 127.562 67.375 127.162 68.275C126.762 69.175 126.262 69.9 125.662 70.45C125.062 71.05 124.362 71.5 123.562 71.8C122.812 72.1 122.062 72.3 121.312 72.4L121.087 72.175C121.387 72.025 121.712 71.875 122.062 71.725C122.412 71.575 122.737 71.375 123.037 71.125C123.387 70.875 123.662 70.55 123.862 70.15C124.112 69.75 124.237 69.225 124.237 68.575C124.237 67.075 123.762 66.025 122.812 65.425C121.912 64.875 120.912 64.6 119.812 64.6C118.362 64.6 117.112 64.975 116.062 65.725C114.962 66.475 114.412 67.775 114.412 69.625H113.812C113.562 67.625 112.937 66.275 111.937 65.575C110.937 64.925 109.712 64.6 108.262 64.6C106.912 64.6 105.687 64.9 104.587 65.5C103.487 66.1 102.937 67.25 102.937 68.95C102.937 69.8 103.112 70.45 103.462 70.9C103.812 71.35 104.237 71.825 104.737 72.325L104.437 72.625L103.387 72.325C102.987 72.225 102.587 72.025 102.187 71.725C101.787 71.475 101.412 71.1 101.062 70.6C100.712 70.1 100.437 69.45 100.237 68.65C99.9869 67.9 99.8619 66.95 99.8619 65.8C99.8619 64.5 100.112 63.375 100.612 62.425C101.062 61.475 101.662 60.675 102.412 60.025C103.162 59.425 104.012 58.975 104.962 58.675C105.912 58.375 106.887 58.225 107.887 58.225C109.337 58.225 110.612 58.575 111.712 59.275C112.812 60.025 113.587 61.2 114.037 62.8C114.587 61.3 115.462 60.125 116.662 59.275C117.812 58.425 119.187 58 120.787 58C121.387 58 121.862 58.025 122.212 58.075C122.612 58.125 122.962 58.175 123.262 58.225C123.562 58.325 123.837 58.4 124.087 58.45C124.387 58.5 124.762 58.525 125.212 58.525C125.812 58.525 126.237 58.45 126.487 58.3C126.737 58.15 127.062 57.95 127.462 57.7L127.762 58C127.512 58.25 127.287 58.55 127.087 58.9C126.887 59.25 126.787 59.7 126.787 60.25C126.787 60.75 126.837 61.125 126.937 61.375C127.037 61.625 127.137 61.875 127.237 62.125C127.387 62.425 127.512 62.775 127.612 63.175C127.712 63.575 127.762 64.15 127.762 64.9ZM162.5 34.3C162.5 31.95 162.175 29.9 161.525 28.15C160.925 26.4 160.075 24.95 158.975 23.8C157.875 22.65 156.575 21.775 155.075 21.175C153.625 20.575 152.075 20.225 150.425 20.125C148.725 20.125 147 20.375 145.25 20.875C143.55 21.325 141.975 22.075 140.525 23.125C139.125 24.175 137.975 25.575 137.075 27.325C136.175 29.025 135.725 31.1 135.725 33.55C135.725 36.7 136.3 39.1 137.45 40.75C138.6 42.4 140.15 43.225 142.1 43.225C145.25 43.225 147.425 40.225 148.625 34.225H149.6C150.15 40.175 152.05 43.15 155.3 43.15C156.35 43.15 157.3 42.925 158.15 42.475C159.05 41.975 159.8 41.325 160.4 40.525C161.05 39.725 161.55 38.8 161.9 37.75C162.3 36.65 162.5 35.5 162.5 34.3ZM161.375 20.125C166.175 24.525 168.75 29.875 169.1 36.175C169.1 39.375 168.825 42.025 168.275 44.125C167.725 46.225 167.025 47.95 166.175 49.3C165.375 50.6 164.5 51.625 163.55 52.375C162.6 53.125 161.7 53.775 160.85 54.325C160 54.875 159.275 55.425 158.675 55.975C158.125 56.475 157.825 57.15 157.775 58H157.325C157.175 56.85 156.725 56 155.975 55.45C155.275 54.9 154.475 54.35 153.575 53.8C152.675 53.2 151.75 52.45 150.8 51.55C149.85 50.6 149.075 49.15 148.475 47.2C147.875 49 147.125 50.375 146.225 51.325C145.325 52.275 144.425 53.05 143.525 53.65C142.625 54.25 141.825 54.85 141.125 55.45C140.475 56 140.075 56.8 139.925 57.85H139.4C139.25 56.8 138.875 56.025 138.275 55.525C137.675 54.975 136.95 54.5 136.1 54.1C135.25 53.7 134.375 53.25 133.475 52.75C132.575 52.2 131.725 51.4 130.925 50.35C130.125 49.3 129.475 47.875 128.975 46.075C128.475 44.275 128.225 41.875 128.225 38.875C128.225 34.475 129.125 30.775 130.925 27.775C132.725 24.725 135.65 22.275 139.7 20.425H127.85C126.2 20.675 125.375 21.475 125.375 22.825C125.375 23.775 125.575 24.5 125.975 25C126.425 25.5 126.9 25.75 127.4 25.75C127.65 25.75 127.8 25.725 127.85 25.675C127.2 25.375 126.875 24.975 126.875 24.475C126.875 23.575 127.35 23.125 128.3 23.125C129.3 23.125 129.8 23.725 129.8 24.925C129.8 25.725 129.475 26.275 128.825 26.575C128.175 26.875 127.375 27.025 126.425 27.025C125.425 26.825 124.575 26.3 123.875 25.45C123.225 24.55 122.9 23.3 122.9 21.7C122.9 20.8 122.975 20 123.125 19.3C123.275 18.6 123.45 17.95 123.65 17.35C123.85 16.75 124.025 16.2 124.175 15.7C124.325 15.15 124.4 14.6 124.4 14.05C124.4 13.2 124.325 12.475 124.175 11.875C124.025 11.225 123.75 10.725 123.35 10.375L123.725 10.15C124.475 11.25 125.4 12.175 126.5 12.925C127.65 13.675 129.4 14.05 131.75 14.05H160.175C160.525 14.05 160.95 13.9 161.45 13.6C162 13.3 162.5 12.875 162.95 12.325C163.4 11.775 163.775 11.15 164.075 10.45C164.425 9.75 164.6 8.975 164.6 8.125C164.6 5.375 163.275 3.1 160.625 1.3L161.075 0.474999C164.075 1.975 166.25 3.625 167.6 5.425C168.95 7.225 169.625 9.275 169.625 11.575C169.625 16.675 166.875 19.525 161.375 20.125ZM215.385 11.05C215.385 13.45 214.91 15.375 213.96 16.825C213.06 18.225 211.56 19.25 209.46 19.9C212.26 21.75 214.185 23.925 215.235 26.425C216.335 28.875 216.885 31.725 216.885 34.975C216.885 38.175 216.485 40.85 215.685 43C214.885 45.1 213.86 46.85 212.61 48.25C211.41 49.6 210.085 50.7 208.635 51.55C207.185 52.35 205.81 53.075 204.51 53.725C203.21 54.375 202.085 55.025 201.135 55.675C200.235 56.275 199.685 57.05 199.485 58H198.96C198.56 56.9 197.835 56.05 196.785 55.45C195.735 54.85 194.535 54.3 193.185 53.8C191.885 53.25 190.51 52.65 189.06 52C187.61 51.3 186.285 50.325 185.085 49.075C183.885 47.825 182.885 46.175 182.085 44.125C181.335 42.075 180.96 39.425 180.96 36.175C180.96 35.125 181.06 33.875 181.26 32.425C181.51 30.975 181.96 29.5 182.61 28C183.31 26.5 184.31 25.075 185.61 23.725C186.91 22.375 188.635 21.275 190.785 20.425H182.46C179.36 20.425 177.81 21.3 177.81 23.05C177.81 23.9 178.01 24.55 178.41 25C178.86 25.4 179.285 25.6 179.685 25.6C179.935 25.6 180.085 25.575 180.135 25.525C179.585 25.375 179.31 25 179.31 24.4C179.36 23.6 179.81 23.2 180.66 23.2C181.56 23.3 182.01 23.875 182.01 24.925C181.86 25.625 181.535 26.1 181.035 26.35C180.535 26.6 179.835 26.725 178.935 26.725C177.985 26.725 177.235 26.3 176.685 25.45C176.185 24.6 175.835 23.525 175.635 22.225C175.635 21.375 175.71 20.625 175.86 19.975C176.01 19.325 176.185 18.725 176.385 18.175C176.585 17.625 176.76 17.1 176.91 16.6C177.06 16.1 177.135 15.575 177.135 15.025C177.135 13.475 176.81 12.375 176.16 11.725L176.535 11.5C176.735 11.8 176.91 12.125 177.06 12.475C177.21 12.775 177.435 13.05 177.735 13.3C178.085 13.55 178.56 13.75 179.16 13.9C179.76 14.05 180.635 14.125 181.785 14.125H205.935C206.285 14.125 206.71 13.975 207.21 13.675C207.71 13.375 208.185 12.975 208.635 12.475C209.085 11.975 209.46 11.375 209.76 10.675C210.11 9.975 210.285 9.225 210.285 8.425C210.285 5.625 208.96 3.35 206.31 1.6L206.76 0.849998C212.11 3.5 214.985 6.9 215.385 11.05ZM210.36 31.975C210.36 30.425 210.06 28.95 209.46 27.55C208.91 26.15 208.16 24.95 207.21 23.95C206.26 22.9 205.16 22.075 203.91 21.475C202.66 20.875 201.335 20.575 199.935 20.575C198.435 20.575 197.01 20.875 195.66 21.475C194.31 22.075 193.11 22.9 192.06 23.95C191.06 24.95 190.26 26.15 189.66 27.55C189.06 28.95 188.76 30.425 188.76 31.975C188.76 33.525 189.06 35 189.66 36.4C190.26 37.75 191.06 38.95 192.06 40C193.11 41 194.31 41.8 195.66 42.4C197.01 43 198.435 43.3 199.935 43.3C201.335 43.3 202.66 43 203.91 42.4C205.16 41.8 206.26 41 207.21 40C208.16 38.95 208.91 37.75 209.46 36.4C210.06 35 210.36 33.525 210.36 31.975ZM237.876 17.425C237.876 17.125 237.926 16.925 238.026 16.825C238.026 16.275 237.826 15.825 237.426 15.475C237.076 15.075 236.476 14.625 235.626 14.125L236.151 13.825C236.701 14.075 237.301 14.375 237.951 14.725C238.651 15.025 239.326 15.475 239.976 16.075C241.526 15.425 242.951 14.95 244.251 14.65C245.551 14.3 247.051 14.125 248.751 14.125C250.451 14.125 252.176 14.25 253.926 14.5C255.726 14.7 257.201 15.25 258.351 16.15C259.151 15.35 259.876 14.8 260.526 14.5C261.226 14.2 261.851 13.925 262.401 13.675L262.926 14.05C261.926 14.6 261.301 15.075 261.051 15.475C260.851 15.825 260.751 16.425 260.751 17.275C260.751 17.825 260.976 18.575 261.426 19.525C261.926 20.425 262.476 21.6 263.076 23.05C263.676 24.5 264.201 26.25 264.651 28.3C265.151 30.3 265.401 32.65 265.401 35.35C265.401 38.8 265.126 41.625 264.576 43.825C264.026 46.025 263.326 47.8 262.476 49.15C261.676 50.45 260.776 51.45 259.776 52.15C258.826 52.85 257.926 53.425 257.076 53.875C256.276 54.325 255.601 54.775 255.051 55.225C254.501 55.675 254.226 56.3 254.226 57.1C254.226 57.2 254.276 57.5 254.376 58H253.476C253.526 57.95 253.551 57.65 253.551 57.1C253.551 56.4 253.301 55.875 252.801 55.525C252.301 55.125 251.676 54.725 250.926 54.325C250.226 53.925 249.426 53.475 248.526 52.975C247.676 52.425 246.876 51.65 246.126 50.65C245.426 49.65 244.826 48.375 244.326 46.825C243.826 45.225 243.576 43.175 243.576 40.675C243.876 36.625 244.801 33.525 246.351 31.375C247.901 29.175 250.176 28.075 253.176 28.075C254.626 28.075 255.876 28.55 256.926 29.5C257.976 30.4 258.501 31.55 258.501 32.95C258.501 34.2 258.076 35.325 257.226 36.325C256.376 37.325 255.301 37.825 254.001 37.825C253.001 37.825 252.076 37.475 251.226 36.775C250.426 36.025 250.026 35.125 250.026 34.075C250.026 33.125 250.426 32.175 251.226 31.225C249.076 31.825 248.001 33.525 248.001 36.325C248.001 38.725 248.601 40.475 249.801 41.575C251.001 42.625 252.601 43.15 254.601 43.15C259.701 43.15 262.251 39.7 262.251 32.8C262.251 30.8 261.901 29.025 261.201 27.475C260.501 25.925 259.576 24.625 258.426 23.575C257.276 22.525 255.951 21.725 254.451 21.175C252.951 20.625 251.401 20.35 249.801 20.35C242.601 20.35 239.001 23.45 239.001 29.65C239.001 31.75 239.151 33.775 239.451 35.725C239.801 37.675 239.976 39.5 239.976 41.2C239.976 43.45 239.726 45.25 239.226 46.6C238.726 47.9 237.676 48.975 236.076 49.825C234.826 50.475 233.801 51.175 233.001 51.925C232.201 52.625 231.551 53.35 231.051 54.1C230.601 54.8 230.276 55.5 230.076 56.2C229.876 56.85 229.776 57.45 229.776 58H229.326C229.326 56.95 229.126 56.125 228.726 55.525C228.326 54.925 227.826 54.475 227.226 54.175C226.626 53.825 225.951 53.55 225.201 53.35C224.501 53.1 223.801 52.825 223.101 52.525C220.551 51.575 218.451 49.725 216.801 46.975C215.151 44.225 213.826 40.35 212.826 35.35V34.075C213.876 35.975 215.001 37.525 216.201 38.725C217.351 39.875 218.576 40.775 219.876 41.425C221.226 42.075 222.601 42.525 224.001 42.775C225.401 43.025 226.851 43.175 228.351 43.225C232.451 43.225 234.526 40.875 234.576 36.175C234.726 33.625 234.901 31.425 235.101 29.575C235.301 27.725 235.401 26.15 235.401 24.85C235.401 21.55 236.226 19.075 237.876 17.425ZM334.611 37.375C332.611 36.075 330.436 35.25 328.086 34.9C325.786 34.5 323.586 34.3 321.486 34.3C320.636 34.3 319.636 34.375 318.486 34.525C317.386 34.625 316.336 34.85 315.336 35.2C314.336 35.55 313.486 36.025 312.786 36.625C312.086 37.225 311.736 38 311.736 38.95C311.736 39.55 311.961 40.1 312.411 40.6C312.911 41.1 313.561 41.55 314.361 41.95C315.161 42.3 316.036 42.6 316.986 42.85C317.986 43.05 319.011 43.15 320.061 43.15C323.111 43.15 325.936 42.75 328.536 41.95C331.136 41.1 333.161 39.575 334.611 37.375ZM311.886 13.225C312.836 13.225 313.711 13.3 314.511 13.45C315.311 13.6 316.036 13.875 316.686 14.275C317.386 14.675 318.036 15.25 318.636 16C319.286 16.7 319.936 17.625 320.586 18.775C321.286 16.525 322.361 15.025 323.811 14.275C325.311 13.475 327.011 13.075 328.911 13.075C330.161 13.075 331.311 13.125 332.361 13.225C333.411 13.325 334.486 13.375 335.586 13.375C336.136 13.375 336.636 13.325 337.086 13.225C337.536 13.075 337.961 12.75 338.361 12.25L338.661 12.775C337.911 13.225 337.536 14 337.536 15.1C337.536 15.65 337.661 16.3 337.911 17.05C338.211 17.75 338.536 18.625 338.886 19.675C339.236 20.675 339.561 21.9 339.861 23.35C340.211 24.8 340.436 26.525 340.536 28.525C340.536 31.925 340.286 34.275 339.786 35.575C342.336 37.025 344.311 39.05 345.711 41.65C347.161 44.25 347.886 47 347.886 49.9C347.886 52.95 347.361 55.4 346.311 57.25C345.261 59.05 343.836 59.95 342.036 59.95C341.586 59.95 341.136 59.825 340.686 59.575C340.286 59.375 339.861 59.125 339.411 58.825C339.011 58.525 338.561 58.25 338.061 58C337.611 57.8 337.136 57.7 336.636 57.7C336.286 57.7 335.911 57.8 335.511 58C335.111 58.15 334.736 58.5 334.386 59.05L334.161 58.6C334.311 58.5 334.711 58.1 335.361 57.4C336.061 56.7 336.786 55.8 337.536 54.7C338.286 53.6 338.961 52.35 339.561 50.95C340.161 49.5 340.461 47.975 340.461 46.375C340.461 45.325 340.311 44.375 340.011 43.525C339.711 42.675 339.286 41.775 338.736 40.825C338.286 42.925 337.586 44.675 336.636 46.075C335.686 47.475 334.611 48.675 333.411 49.675C332.211 50.675 330.936 51.5 329.586 52.15C328.286 52.8 327.061 53.425 325.911 54.025C324.761 54.625 323.736 55.25 322.836 55.9C321.936 56.5 321.311 57.25 320.961 58.15H320.436C320.036 57.05 319.436 56.25 318.636 55.75C317.886 55.2 317.011 54.8 316.011 54.55C315.061 54.3 314.036 54.075 312.936 53.875C311.836 53.675 310.761 53.35 309.711 52.9C307.461 51.9 305.561 50.475 304.011 48.625C302.511 46.725 301.761 44.55 301.761 42.1C301.761 39.6 302.336 37.575 303.486 36.025C304.686 34.425 306.211 33.2 308.061 32.35C309.961 31.45 312.111 30.85 314.511 30.55C316.911 30.2 319.336 30.025 321.786 30.025C324.486 30.025 326.886 30.325 328.986 30.925C331.136 31.475 333.461 32.35 335.961 33.55C336.311 32.15 336.611 30.175 336.861 27.625C336.611 24.725 335.786 22.65 334.386 21.4C332.986 20.1 331.011 19.45 328.461 19.45C324.261 19.45 321.786 22.425 321.036 28.375H320.136C319.886 25.525 318.736 23.325 316.686 21.775C314.686 20.225 311.736 19.45 307.836 19.45C305.186 19.45 303.861 20.325 303.861 22.075C303.861 22.925 304.086 23.6 304.536 24.1C305.036 24.55 305.486 24.775 305.886 24.775C306.136 24.775 306.286 24.75 306.336 24.7C305.686 24.55 305.361 24.15 305.361 23.5C305.511 22.7 306.011 22.3 306.861 22.3C307.811 22.3 308.286 22.875 308.286 24.025C308.136 24.725 307.786 25.225 307.236 25.525C306.736 25.775 306.011 25.9 305.061 25.9C303.111 25.65 301.961 24.075 301.611 21.175C301.611 20.275 301.686 19.5 301.836 18.85C302.036 18.15 302.211 17.5 302.361 16.9C302.561 16.3 302.736 15.75 302.886 15.25C303.086 14.7 303.186 14.15 303.186 13.6C303.186 12.05 302.836 10.925 302.136 10.225L302.586 9.85C303.086 10.8 303.711 11.625 304.461 12.325C305.211 12.975 306.386 13.3 307.986 13.3C308.736 13.3 309.411 13.3 310.011 13.3C310.661 13.25 311.286 13.225 311.886 13.225ZM393.656 11.05C393.656 13.45 393.181 15.375 392.231 16.825C391.331 18.225 389.831 19.25 387.731 19.9C390.531 21.75 392.456 23.925 393.506 26.425C394.606 28.875 395.156 31.725 395.156 34.975C395.156 38.175 394.756 40.85 393.956 43C393.156 45.1 392.131 46.85 390.881 48.25C389.681 49.6 388.356 50.7 386.906 51.55C385.456 52.35 384.081 53.075 382.781 53.725C381.481 54.375 380.356 55.025 379.406 55.675C378.506 56.275 377.956 57.05 377.756 58H377.231C376.831 56.9 376.106 56.05 375.056 55.45C374.006 54.85 372.806 54.3 371.456 53.8C370.156 53.25 368.781 52.65 367.331 52C365.881 51.3 364.556 50.325 363.356 49.075C362.156 47.825 361.156 46.175 360.356 44.125C359.606 42.075 359.231 39.425 359.231 36.175C359.231 35.125 359.331 33.875 359.531 32.425C359.781 30.975 360.231 29.5 360.881 28C361.581 26.5 362.581 25.075 363.881 23.725C365.181 22.375 366.906 21.275 369.056 20.425H360.731C357.631 20.425 356.081 21.3 356.081 23.05C356.081 23.9 356.281 24.55 356.681 25C357.131 25.4 357.556 25.6 357.956 25.6C358.206 25.6 358.356 25.575 358.406 25.525C357.856 25.375 357.581 25 357.581 24.4C357.631 23.6 358.081 23.2 358.931 23.2C359.831 23.3 360.281 23.875 360.281 24.925C360.131 25.625 359.806 26.1 359.306 26.35C358.806 26.6 358.106 26.725 357.206 26.725C356.256 26.725 355.506 26.3 354.956 25.45C354.456 24.6 354.106 23.525 353.906 22.225C353.906 21.375 353.981 20.625 354.131 19.975C354.281 19.325 354.456 18.725 354.656 18.175C354.856 17.625 355.031 17.1 355.181 16.6C355.331 16.1 355.406 15.575 355.406 15.025C355.406 13.475 355.081 12.375 354.431 11.725L354.806 11.5C355.006 11.8 355.181 12.125 355.331 12.475C355.481 12.775 355.706 13.05 356.006 13.3C356.356 13.55 356.831 13.75 357.431 13.9C358.031 14.05 358.906 14.125 360.056 14.125H384.206C384.556 14.125 384.981 13.975 385.481 13.675C385.981 13.375 386.456 12.975 386.906 12.475C387.356 11.975 387.731 11.375 388.031 10.675C388.381 9.975 388.556 9.225 388.556 8.425C388.556 5.625 387.231 3.35 384.581 1.6L385.031 0.849998C390.381 3.5 393.256 6.9 393.656 11.05ZM388.631 31.975C388.631 30.425 388.331 28.95 387.731 27.55C387.181 26.15 386.431 24.95 385.481 23.95C384.531 22.9 383.431 22.075 382.181 21.475C380.931 20.875 379.606 20.575 378.206 20.575C376.706 20.575 375.281 20.875 373.931 21.475C372.581 22.075 371.381 22.9 370.331 23.95C369.331 24.95 368.531 26.15 367.931 27.55C367.331 28.95 367.031 30.425 367.031 31.975C367.031 33.525 367.331 35 367.931 36.4C368.531 37.75 369.331 38.95 370.331 40C371.381 41 372.581 41.8 373.931 42.4C375.281 43 376.706 43.3 378.206 43.3C379.606 43.3 380.931 43 382.181 42.4C383.431 41.8 384.531 41 385.481 40C386.431 38.95 387.181 37.75 387.731 36.4C388.331 35 388.631 33.525 388.631 31.975ZM409.622 43.15C412.172 42.9 414.072 41.675 415.322 39.475C416.572 37.275 417.197 34.2 417.197 30.25C417.197 28.85 417.097 27.525 416.897 26.275C416.747 25.025 416.422 23.925 415.922 22.975C415.422 22.025 414.722 21.275 413.822 20.725C412.972 20.175 411.872 19.9 410.522 19.9C409.972 19.9 409.397 19.95 408.797 20.05C408.247 20.15 407.722 20.35 407.222 20.65C406.722 20.95 406.297 21.35 405.947 21.85C405.647 22.35 405.497 23 405.497 23.8C405.497 24.25 405.597 24.575 405.797 24.775L405.347 25.225C404.897 24.825 404.522 24.5 404.222 24.25C403.972 23.95 403.772 23.65 403.622 23.35C403.522 23.05 403.447 22.725 403.397 22.375C403.347 22.025 403.322 21.575 403.322 21.025C403.322 19.625 403.497 18.4 403.847 17.35C404.197 16.3 404.372 15.175 404.372 13.975C404.372 13.225 404.222 12.65 403.922 12.25C403.672 11.85 403.472 11.375 403.322 10.825L403.622 10.6C403.722 10.9 403.922 11.25 404.222 11.65C404.522 12 404.897 12.375 405.347 12.775C405.797 13.125 406.297 13.425 406.847 13.675C407.447 13.925 408.097 14.05 408.797 14.05H414.497C415.497 14.05 416.247 13.825 416.747 13.375C417.297 12.875 417.722 12.375 418.022 11.875L418.247 12.25C417.597 12.9 417.272 13.85 417.272 15.1C417.272 16.1 417.497 17.1 417.947 18.1C418.397 19.1 418.897 20.3 419.447 21.7C419.997 23.1 420.497 24.825 420.947 26.875C421.397 28.875 421.622 31.375 421.622 34.375C421.622 37.675 421.322 40.375 420.722 42.475C420.172 44.525 419.472 46.225 418.622 47.575C418.372 47.925 417.772 48.675 416.822 49.825C415.872 50.925 414.622 51.95 413.072 52.9H412.997C412.347 54.05 411.847 54.975 411.497 55.675C411.147 56.325 410.947 57.075 410.897 57.925H410.522C410.522 56.875 410.172 56.1 409.472 55.6C408.822 55.05 407.997 54.625 406.997 54.325C406.047 54.025 405.047 53.8 403.997 53.65C402.947 53.45 402.072 53.2 401.372 52.9C398.822 51.9 396.722 50.05 395.072 47.35C393.422 44.6 392.122 40.7 391.172 35.65L390.797 33.325C392.897 36.775 395.247 39.3 397.847 40.9C400.447 42.45 403.647 43.225 407.447 43.225H408.497C409.097 43.225 409.472 43.2 409.622 43.15ZM478.31 13.225C480.66 13.675 482.76 14.35 484.61 15.25C486.51 16.1 488.16 17.375 489.56 19.075C490.96 20.725 492.085 22.9 492.935 25.6C493.785 28.25 494.36 31.6 494.66 35.65C494.46 40.2 493.785 43.875 492.635 46.675C491.485 49.425 490.185 51.45 488.735 52.75C488.185 53.25 487.66 53.65 487.16 53.95C486.71 54.25 486.285 54.575 485.885 54.925C485.535 55.275 485.21 55.7 484.91 56.2C484.66 56.65 484.435 57.275 484.235 58.075H483.71C483.56 56.925 483.135 56.15 482.435 55.75C481.785 55.3 481.035 54.875 480.185 54.475C479.335 54.075 478.485 53.55 477.635 52.9C476.785 52.25 476.11 51.125 475.61 49.525C475.06 50.925 474.36 51.975 473.51 52.675C472.71 53.375 471.885 53.95 471.035 54.4C470.235 54.85 469.485 55.325 468.785 55.825C468.135 56.325 467.685 57.075 467.435 58.075H467.06C466.31 56.575 465.41 55.425 464.36 54.625C463.31 53.825 462.31 53 461.36 52.15C460.41 51.25 459.585 50.125 458.885 48.775C458.235 47.425 457.91 45.45 457.91 42.85C457.91 40.55 458.235 38.6 458.885 37C459.585 35.4 460.435 34.1 461.435 33.1C462.435 32.05 463.535 31.3 464.735 30.85C465.935 30.35 467.06 30.1 468.11 30.1C469.51 30.1 470.66 30.55 471.56 31.45C472.46 32.3 472.91 33.375 472.91 34.675C472.91 35.725 472.535 36.65 471.785 37.45C471.085 38.2 470.185 38.575 469.085 38.575C468.235 38.575 467.41 38.325 466.61 37.825C465.81 37.325 465.41 36.475 465.41 35.275C465.41 34.775 465.485 34.375 465.635 34.075C465.785 33.725 466.01 33.35 466.31 32.95C465.71 33.1 465.21 33.475 464.81 34.075C464.46 34.625 464.285 35.525 464.285 36.775C464.285 38.875 464.785 40.45 465.785 41.5C466.835 42.55 468.235 43.075 469.985 43.075C473.785 43.075 475.685 40.1 475.685 34.15H476.96C476.96 37.15 477.36 39.4 478.16 40.9C479.01 42.35 480.335 43.075 482.135 43.075C484.535 43.075 486.285 42.425 487.385 41.125C488.485 39.825 489.035 37.8 489.035 35.05C488.435 25.2 483.985 19.8 475.685 18.85V18.775C474.285 18.775 473.26 18.975 472.61 19.375C471.96 19.725 471.635 20.375 471.635 21.325C471.635 22.175 471.835 22.825 472.235 23.275C472.685 23.725 473.135 23.95 473.585 23.95H473.885C473.385 23.8 473.135 23.475 473.135 22.975C473.135 22.075 473.585 21.625 474.485 21.625C475.285 21.675 475.685 22.125 475.685 22.975C475.685 24.475 474.935 25.225 473.435 25.225C472.235 25.225 471.26 24.825 470.51 24.025C469.76 23.175 469.385 21.875 469.385 20.125C469.385 18.525 469.61 17.2 470.06 16.15C470.51 15.1 470.735 14.125 470.735 13.225C470.735 11.475 470.41 10.275 469.76 9.625L470.21 9.475C470.46 9.925 470.76 10.375 471.11 10.825C471.46 11.275 471.935 11.675 472.535 12.025C473.185 12.375 473.96 12.675 474.86 12.925C475.81 13.125 476.96 13.225 478.31 13.225ZM534.434 32.725C534.434 36.125 534.034 38.975 533.234 41.275C532.484 43.525 531.534 45.425 530.384 46.975C529.234 48.525 527.984 49.8 526.634 50.8C525.334 51.75 524.109 52.6 522.959 53.35C521.809 54.1 520.834 54.85 520.034 55.6C519.284 56.35 518.909 57.25 518.909 58.3H518.309C518.309 57.25 517.859 56.4 516.959 55.75C516.109 55.05 515.034 54.375 513.734 53.725C512.434 53.025 511.009 52.25 509.459 51.4C507.959 50.55 506.559 49.4 505.259 47.95C503.959 46.5 502.859 44.675 501.959 42.475C501.109 40.225 500.684 37.4 500.684 34C500.684 30.9 501.034 28.05 501.734 25.45C502.484 22.8 503.584 20.525 505.034 18.625C506.484 16.725 508.309 15.25 510.509 14.2C512.759 13.1 515.359 12.55 518.309 12.55C519.709 12.55 520.934 12.625 521.984 12.775C523.034 12.875 524.259 12.925 525.659 12.925C526.509 12.925 527.284 12.85 527.984 12.7C528.734 12.5 529.359 12.05 529.859 11.35L530.234 11.875C529.834 12.425 529.584 12.85 529.484 13.15C529.434 13.4 529.409 13.8 529.409 14.35C529.409 15.25 529.659 16.15 530.159 17.05C530.709 17.95 531.284 19.05 531.884 20.35C532.534 21.65 533.109 23.275 533.609 25.225C534.159 27.175 534.434 29.675 534.434 32.725ZM517.709 19C516.359 19 515.084 19.325 513.884 19.975C512.684 20.575 511.609 21.425 510.659 22.525C509.759 23.575 509.034 24.85 508.484 26.35C507.984 27.8 507.734 29.35 507.734 31C507.734 32.65 508.009 34.2 508.559 35.65C509.109 37.1 509.834 38.375 510.734 39.475C511.684 40.525 512.759 41.375 513.959 42.025C515.159 42.625 516.409 42.925 517.709 42.925C519.059 42.925 520.334 42.625 521.534 42.025C522.734 41.375 523.784 40.5 524.684 39.4C525.584 38.3 526.309 37.025 526.859 35.575C527.409 34.125 527.684 32.6 527.684 31C527.684 29.35 527.409 27.8 526.859 26.35C526.359 24.9 525.634 23.65 524.684 22.6C523.784 21.5 522.734 20.625 521.534 19.975C520.334 19.325 519.059 19 517.709 19ZM570.379 20.425C570.979 20.825 571.429 21.275 571.729 21.775C572.079 22.275 572.304 23.175 572.404 24.475C572.154 26.625 570.954 28.1 568.804 28.9C571.054 29.75 572.754 31.125 573.904 33.025C575.054 34.925 575.629 36.925 575.629 39.025C575.629 41.575 575.229 43.675 574.429 45.325C573.629 46.925 572.629 48.25 571.429 49.3C570.229 50.3 568.904 51.1 567.454 51.7C566.004 52.3 564.629 52.85 563.329 53.35C562.029 53.85 560.904 54.4 559.954 55C559.004 55.55 558.404 56.3 558.154 57.25H557.779C557.479 56.15 556.854 55.3 555.904 54.7C554.954 54.05 553.829 53.475 552.529 52.975C551.279 52.475 549.954 51.975 548.554 51.475C547.154 50.975 545.854 50.3 544.654 49.45C543.504 48.6 542.554 47.475 541.804 46.075C541.054 44.675 540.679 42.85 540.679 40.6C540.679 37.9 541.479 35.65 543.079 33.85C544.729 32 546.854 30.725 549.454 30.025L549.904 30.325C547.554 32.075 546.379 34.175 546.379 36.625C546.379 38.875 547.254 40.525 549.004 41.575C550.804 42.625 553.504 43.15 557.104 43.15C560.004 43.15 562.329 42.6 564.079 41.5C565.879 40.35 566.779 38.55 566.779 36.1C566.779 32.45 564.329 30.425 559.429 30.025C558.829 30.025 558.354 30.05 558.004 30.1C557.704 30.1 557.279 30.2 556.729 30.4V27.025C557.129 27.125 557.429 27.175 557.629 27.175H558.229C558.379 27.175 558.654 27.2 559.054 27.25C559.454 27.25 559.929 27.25 560.479 27.25C561.129 27.25 561.804 27.225 562.504 27.175C563.254 27.075 563.954 26.925 564.604 26.725C565.254 26.525 565.779 26.25 566.179 25.9C566.629 25.5 566.854 24.975 566.854 24.325C566.854 22.425 565.954 21.125 564.154 20.425H545.479C543.729 20.675 542.854 21.475 542.854 22.825C542.854 23.725 543.054 24.425 543.454 24.925C543.904 25.425 544.354 25.675 544.804 25.675C545.104 25.675 545.279 25.65 545.329 25.6C544.729 25.45 544.429 25.075 544.429 24.475C544.429 23.575 544.904 23.125 545.854 23.125C546.854 23.125 547.354 23.7 547.354 24.85C547.054 26.3 545.929 27.025 543.979 27.025C542.979 26.875 542.129 26.35 541.429 25.45C540.779 24.55 540.454 23.3 540.454 21.7C540.454 20.8 540.529 20 540.679 19.3C540.879 18.6 541.054 17.975 541.204 17.425C541.404 16.825 541.579 16.275 541.729 15.775C541.929 15.225 542.029 14.675 542.029 14.125C542.029 12.475 541.679 11.225 540.979 10.375L541.354 10.15C542.054 11.3 542.929 12.25 543.979 13C545.079 13.75 546.829 14.125 549.229 14.125H570.379V20.425ZM602.801 33.7C602.801 37.4 602.501 40.425 601.901 42.775C601.351 45.075 600.626 46.925 599.726 48.325C598.876 49.725 597.951 50.825 596.951 51.625C595.951 52.375 595.001 53.025 594.101 53.575C593.201 54.125 592.451 54.725 591.851 55.375C591.251 55.975 590.926 56.85 590.876 58H590.351C590.001 56.8 589.476 55.85 588.776 55.15C588.126 54.45 587.376 53.825 586.526 53.275C585.726 52.725 584.901 52.15 584.051 51.55C583.201 50.95 582.426 50.175 581.726 49.225C581.026 48.225 580.451 46.95 580.001 45.4C579.551 43.8 579.326 41.75 579.326 39.25C579.326 37.15 579.526 35.15 579.926 33.25C580.376 31.3 581.026 29.6 581.876 28.15C582.776 26.7 583.901 25.55 585.251 24.7C586.601 23.85 588.201 23.425 590.051 23.425C591.651 23.425 592.901 23.95 593.801 25C594.751 26.05 595.226 27.375 595.226 28.975C595.226 30.375 594.751 31.525 593.801 32.425C592.901 33.275 591.751 33.7 590.351 33.7C589.351 33.7 588.401 33.35 587.501 32.65C586.601 31.95 586.151 31.025 586.151 29.875C586.151 29.525 586.276 28.975 586.526 28.225C586.226 28.575 585.951 28.85 585.701 29.05C585.501 29.2 585.301 29.475 585.101 29.875C584.901 30.225 584.726 30.775 584.576 31.525C584.426 32.225 584.276 33.3 584.126 34.75C584.326 37.75 584.951 39.95 586.001 41.35C587.101 42.7 588.651 43.375 590.651 43.375C596.151 43.125 598.901 39.65 598.901 32.95C598.901 28.4 598.276 25.175 597.026 23.275C595.776 21.325 594.176 20.35 592.226 20.35H563.201V14.05H595.976C596.526 14.05 597.076 13.95 597.626 13.75C598.176 13.55 598.576 13.25 598.826 12.85L599.351 13.3L598.301 14.35C598.001 14.65 597.851 15.225 597.851 16.075C597.851 16.925 598.426 18.225 599.576 19.975C600.726 21.725 601.551 23.675 602.051 25.825C602.551 27.925 602.801 30.55 602.801 33.7ZM648.316 34.3C648.316 31.95 647.991 29.9 647.341 28.15C646.741 26.4 645.891 24.95 644.791 23.8C643.691 22.65 642.391 21.775 640.891 21.175C639.441 20.575 637.891 20.225 636.241 20.125C634.541 20.125 632.816 20.375 631.066 20.875C629.366 21.325 627.791 22.075 626.341 23.125C624.941 24.175 623.791 25.575 622.891 27.325C621.991 29.025 621.541 31.1 621.541 33.55C621.541 36.7 622.116 39.1 623.266 40.75C624.416 42.4 625.966 43.225 627.916 43.225C631.066 43.225 633.241 40.225 634.441 34.225H635.416C635.966 40.175 637.866 43.15 641.116 43.15C642.166 43.15 643.116 42.925 643.966 42.475C644.866 41.975 645.616 41.325 646.216 40.525C646.866 39.725 647.366 38.8 647.716 37.75C648.116 36.65 648.316 35.5 648.316 34.3ZM647.191 20.125C651.991 24.525 654.566 29.875 654.916 36.175C654.916 39.375 654.641 42.025 654.091 44.125C653.541 46.225 652.841 47.95 651.991 49.3C651.191 50.6 650.316 51.625 649.366 52.375C648.416 53.125 647.516 53.775 646.666 54.325C645.816 54.875 645.091 55.425 644.491 55.975C643.941 56.475 643.641 57.15 643.591 58H643.141C642.991 56.85 642.541 56 641.791 55.45C641.091 54.9 640.291 54.35 639.391 53.8C638.491 53.2 637.566 52.45 636.616 51.55C635.666 50.6 634.891 49.15 634.291 47.2C633.691 49 632.941 50.375 632.041 51.325C631.141 52.275 630.241 53.05 629.341 53.65C628.441 54.25 627.641 54.85 626.941 55.45C626.291 56 625.891 56.8 625.741 57.85H625.216C625.066 56.8 624.691 56.025 624.091 55.525C623.491 54.975 622.766 54.5 621.916 54.1C621.066 53.7 620.191 53.25 619.291 52.75C618.391 52.2 617.541 51.4 616.741 50.35C615.941 49.3 615.291 47.875 614.791 46.075C614.291 44.275 614.041 41.875 614.041 38.875C614.041 34.475 614.941 30.775 616.741 27.775C618.541 24.725 621.466 22.275 625.516 20.425H613.666C612.016 20.675 611.191 21.475 611.191 22.825C611.191 23.775 611.391 24.5 611.791 25C612.241 25.5 612.716 25.75 613.216 25.75C613.466 25.75 613.616 25.725 613.666 25.675C613.016 25.375 612.691 24.975 612.691 24.475C612.691 23.575 613.166 23.125 614.116 23.125C615.116 23.125 615.616 23.725 615.616 24.925C615.616 25.725 615.291 26.275 614.641 26.575C613.991 26.875 613.191 27.025 612.241 27.025C611.241 26.825 610.391 26.3 609.691 25.45C609.041 24.55 608.716 23.3 608.716 21.7C608.716 20.8 608.791 20 608.941 19.3C609.091 18.6 609.266 17.95 609.466 17.35C609.666 16.75 609.841 16.2 609.991 15.7C610.141 15.15 610.216 14.6 610.216 14.05C610.216 13.2 610.141 12.475 609.991 11.875C609.841 11.225 609.566 10.725 609.166 10.375L609.541 10.15C610.291 11.25 611.216 12.175 612.316 12.925C613.466 13.675 615.216 14.05 617.566 14.05H645.991C646.341 14.05 646.766 13.9 647.266 13.6C647.816 13.3 648.316 12.875 648.766 12.325C649.216 11.775 649.591 11.15 649.891 10.45C650.241 9.75 650.416 8.975 650.416 8.125C650.416 5.375 649.091 3.1 646.441 1.3L646.891 0.474999C649.891 1.975 652.066 3.625 653.416 5.425C654.766 7.225 655.441 9.275 655.441 11.575C655.441 16.675 652.691 19.525 647.191 20.125ZM701.2 11.05C701.2 13.45 700.725 15.375 699.775 16.825C698.875 18.225 697.375 19.25 695.275 19.9C698.075 21.75 700 23.925 701.05 26.425C702.15 28.875 702.7 31.725 702.7 34.975C702.7 38.175 702.3 40.85 701.5 43C700.7 45.1 699.675 46.85 698.425 48.25C697.225 49.6 695.9 50.7 694.45 51.55C693 52.35 691.625 53.075 690.325 53.725C689.025 54.375 687.9 55.025 686.95 55.675C686.05 56.275 685.5 57.05 685.3 58H684.775C684.375 56.9 683.65 56.05 682.6 55.45C681.55 54.85 680.35 54.3 679 53.8C677.7 53.25 676.325 52.65 674.875 52C673.425 51.3 672.1 50.325 670.9 49.075C669.7 47.825 668.7 46.175 667.9 44.125C667.15 42.075 666.775 39.425 666.775 36.175C666.775 35.125 666.875 33.875 667.075 32.425C667.325 30.975 667.775 29.5 668.425 28C669.125 26.5 670.125 25.075 671.425 23.725C672.725 22.375 674.45 21.275 676.6 20.425H668.275C665.175 20.425 663.625 21.3 663.625 23.05C663.625 23.9 663.825 24.55 664.225 25C664.675 25.4 665.1 25.6 665.5 25.6C665.75 25.6 665.9 25.575 665.95 25.525C665.4 25.375 665.125 25 665.125 24.4C665.175 23.6 665.625 23.2 666.475 23.2C667.375 23.3 667.825 23.875 667.825 24.925C667.675 25.625 667.35 26.1 666.85 26.35C666.35 26.6 665.65 26.725 664.75 26.725C663.8 26.725 663.05 26.3 662.5 25.45C662 24.6 661.65 23.525 661.45 22.225C661.45 21.375 661.525 20.625 661.675 19.975C661.825 19.325 662 18.725 662.2 18.175C662.4 17.625 662.575 17.1 662.725 16.6C662.875 16.1 662.95 15.575 662.95 15.025C662.95 13.475 662.625 12.375 661.975 11.725L662.35 11.5C662.55 11.8 662.725 12.125 662.875 12.475C663.025 12.775 663.25 13.05 663.55 13.3C663.9 13.55 664.375 13.75 664.975 13.9C665.575 14.05 666.45 14.125 667.6 14.125H691.75C692.1 14.125 692.525 13.975 693.025 13.675C693.525 13.375 694 12.975 694.45 12.475C694.9 11.975 695.275 11.375 695.575 10.675C695.925 9.975 696.1 9.225 696.1 8.425C696.1 5.625 694.775 3.35 692.125 1.6L692.575 0.849998C697.925 3.5 700.8 6.9 701.2 11.05ZM696.175 31.975C696.175 30.425 695.875 28.95 695.275 27.55C694.725 26.15 693.975 24.95 693.025 23.95C692.075 22.9 690.975 22.075 689.725 21.475C688.475 20.875 687.15 20.575 685.75 20.575C684.25 20.575 682.825 20.875 681.475 21.475C680.125 22.075 678.925 22.9 677.875 23.95C676.875 24.95 676.075 26.15 675.475 27.55C674.875 28.95 674.575 30.425 674.575 31.975C674.575 33.525 674.875 35 675.475 36.4C676.075 37.75 676.875 38.95 677.875 40C678.925 41 680.125 41.8 681.475 42.4C682.825 43 684.25 43.3 685.75 43.3C687.15 43.3 688.475 43 689.725 42.4C690.975 41.8 692.075 41 693.025 40C693.975 38.95 694.725 37.75 695.275 36.4C695.875 35 696.175 33.525 696.175 31.975ZM717.166 43.15C719.716 42.9 721.616 41.675 722.866 39.475C724.116 37.275 724.741 34.2 724.741 30.25C724.741 28.85 724.641 27.525 724.441 26.275C724.291 25.025 723.966 23.925 723.466 22.975C722.966 22.025 722.266 21.275 721.366 20.725C720.516 20.175 719.416 19.9 718.066 19.9C717.516 19.9 716.941 19.95 716.341 20.05C715.791 20.15 715.266 20.35 714.766 20.65C714.266 20.95 713.841 21.35 713.491 21.85C713.191 22.35 713.041 23 713.041 23.8C713.041 24.25 713.141 24.575 713.341 24.775L712.891 25.225C712.441 24.825 712.066 24.5 711.766 24.25C711.516 23.95 711.316 23.65 711.166 23.35C711.066 23.05 710.991 22.725 710.941 22.375C710.891 22.025 710.866 21.575 710.866 21.025C710.866 19.625 711.041 18.4 711.391 17.35C711.741 16.3 711.916 15.175 711.916 13.975C711.916 13.225 711.766 12.65 711.466 12.25C711.216 11.85 711.016 11.375 710.866 10.825L711.166 10.6C711.266 10.9 711.466 11.25 711.766 11.65C712.066 12 712.441 12.375 712.891 12.775C713.341 13.125 713.841 13.425 714.391 13.675C714.991 13.925 715.641 14.05 716.341 14.05H722.041C723.041 14.05 723.791 13.825 724.291 13.375C724.841 12.875 725.266 12.375 725.566 11.875L725.791 12.25C725.141 12.9 724.816 13.85 724.816 15.1C724.816 16.1 725.041 17.1 725.491 18.1C725.941 19.1 726.441 20.3 726.991 21.7C727.541 23.1 728.041 24.825 728.491 26.875C728.941 28.875 729.166 31.375 729.166 34.375C729.166 37.675 728.866 40.375 728.266 42.475C727.716 44.525 727.016 46.225 726.166 47.575C725.916 47.925 725.316 48.675 724.366 49.825C723.416 50.925 722.166 51.95 720.616 52.9H720.541C719.891 54.05 719.391 54.975 719.041 55.675C718.691 56.325 718.491 57.075 718.441 57.925H718.066C718.066 56.875 717.716 56.1 717.016 55.6C716.366 55.05 715.541 54.625 714.541 54.325C713.591 54.025 712.591 53.8 711.541 53.65C710.491 53.45 709.616 53.2 708.916 52.9C706.366 51.9 704.266 50.05 702.616 47.35C700.966 44.6 699.666 40.7 698.716 35.65L698.341 33.325C700.441 36.775 702.791 39.3 705.391 40.9C707.991 42.45 711.191 43.225 714.991 43.225H716.041C716.641 43.225 717.016 43.2 717.166 43.15ZM798.454 37.375C796.454 36.075 794.279 35.25 791.929 34.9C789.629 34.5 787.429 34.3 785.329 34.3C784.479 34.3 783.479 34.375 782.329 34.525C781.229 34.625 780.179 34.85 779.179 35.2C778.179 35.55 777.329 36.025 776.629 36.625C775.929 37.225 775.579 38 775.579 38.95C775.579 39.55 775.804 40.1 776.254 40.6C776.754 41.1 777.404 41.55 778.204 41.95C779.004 42.3 779.879 42.6 780.829 42.85C781.829 43.05 782.854 43.15 783.904 43.15C786.954 43.15 789.779 42.75 792.379 41.95C794.979 41.1 797.004 39.575 798.454 37.375ZM775.729 13.225C776.679 13.225 777.554 13.3 778.354 13.45C779.154 13.6 779.879 13.875 780.529 14.275C781.229 14.675 781.879 15.25 782.479 16C783.129 16.7 783.779 17.625 784.429 18.775C785.129 16.525 786.204 15.025 787.654 14.275C789.154 13.475 790.854 13.075 792.754 13.075C794.004 13.075 795.154 13.125 796.204 13.225C797.254 13.325 798.329 13.375 799.429 13.375C799.979 13.375 800.479 13.325 800.929 13.225C801.379 13.075 801.804 12.75 802.204 12.25L802.504 12.775C801.754 13.225 801.379 14 801.379 15.1C801.379 15.65 801.504 16.3 801.754 17.05C802.054 17.75 802.379 18.625 802.729 19.675C803.079 20.675 803.404 21.9 803.704 23.35C804.054 24.8 804.279 26.525 804.379 28.525C804.379 31.925 804.129 34.275 803.629 35.575C806.179 37.025 808.154 39.05 809.554 41.65C811.004 44.25 811.729 47 811.729 49.9C811.729 52.95 811.204 55.4 810.154 57.25C809.104 59.05 807.679 59.95 805.879 59.95C805.429 59.95 804.979 59.825 804.529 59.575C804.129 59.375 803.704 59.125 803.254 58.825C802.854 58.525 802.404 58.25 801.904 58C801.454 57.8 800.979 57.7 800.479 57.7C800.129 57.7 799.754 57.8 799.354 58C798.954 58.15 798.579 58.5 798.229 59.05L798.004 58.6C798.154 58.5 798.554 58.1 799.204 57.4C799.904 56.7 800.629 55.8 801.379 54.7C802.129 53.6 802.804 52.35 803.404 50.95C804.004 49.5 804.304 47.975 804.304 46.375C804.304 45.325 804.154 44.375 803.854 43.525C803.554 42.675 803.129 41.775 802.579 40.825C802.129 42.925 801.429 44.675 800.479 46.075C799.529 47.475 798.454 48.675 797.254 49.675C796.054 50.675 794.779 51.5 793.429 52.15C792.129 52.8 790.904 53.425 789.754 54.025C788.604 54.625 787.579 55.25 786.679 55.9C785.779 56.5 785.154 57.25 784.804 58.15H784.279C783.879 57.05 783.279 56.25 782.479 55.75C781.729 55.2 780.854 54.8 779.854 54.55C778.904 54.3 777.879 54.075 776.779 53.875C775.679 53.675 774.604 53.35 773.554 52.9C771.304 51.9 769.404 50.475 767.854 48.625C766.354 46.725 765.604 44.55 765.604 42.1C765.604 39.6 766.179 37.575 767.329 36.025C768.529 34.425 770.054 33.2 771.904 32.35C773.804 31.45 775.954 30.85 778.354 30.55C780.754 30.2 783.179 30.025 785.629 30.025C788.329 30.025 790.729 30.325 792.829 30.925C794.979 31.475 797.304 32.35 799.804 33.55C800.154 32.15 800.454 30.175 800.704 27.625C800.454 24.725 799.629 22.65 798.229 21.4C796.829 20.1 794.854 19.45 792.304 19.45C788.104 19.45 785.629 22.425 784.879 28.375H783.979C783.729 25.525 782.579 23.325 780.529 21.775C778.529 20.225 775.579 19.45 771.679 19.45C769.029 19.45 767.704 20.325 767.704 22.075C767.704 22.925 767.929 23.6 768.379 24.1C768.879 24.55 769.329 24.775 769.729 24.775C769.979 24.775 770.129 24.75 770.179 24.7C769.529 24.55 769.204 24.15 769.204 23.5C769.354 22.7 769.854 22.3 770.704 22.3C771.654 22.3 772.129 22.875 772.129 24.025C771.979 24.725 771.629 25.225 771.079 25.525C770.579 25.775 769.854 25.9 768.904 25.9C766.954 25.65 765.804 24.075 765.454 21.175C765.454 20.275 765.529 19.5 765.679 18.85C765.879 18.15 766.054 17.5 766.204 16.9C766.404 16.3 766.579 15.75 766.729 15.25C766.929 14.7 767.029 14.15 767.029 13.6C767.029 12.05 766.679 10.925 765.979 10.225L766.429 9.85C766.929 10.8 767.554 11.625 768.304 12.325C769.054 12.975 770.229 13.3 771.829 13.3C772.579 13.3 773.254 13.3 773.854 13.3C774.504 13.25 775.129 13.225 775.729 13.225ZM857.499 11.05C857.499 13.45 857.024 15.375 856.074 16.825C855.174 18.225 853.674 19.25 851.574 19.9C854.374 21.75 856.299 23.925 857.349 26.425C858.449 28.875 858.999 31.725 858.999 34.975C858.999 38.175 858.599 40.85 857.799 43C856.999 45.1 855.974 46.85 854.724 48.25C853.524 49.6 852.199 50.7 850.749 51.55C849.299 52.35 847.924 53.075 846.624 53.725C845.324 54.375 844.199 55.025 843.249 55.675C842.349 56.275 841.799 57.05 841.599 58H841.074C840.674 56.9 839.949 56.05 838.899 55.45C837.849 54.85 836.649 54.3 835.299 53.8C833.999 53.25 832.624 52.65 831.174 52C829.724 51.3 828.399 50.325 827.199 49.075C825.999 47.825 824.999 46.175 824.199 44.125C823.449 42.075 823.074 39.425 823.074 36.175C823.074 35.125 823.174 33.875 823.374 32.425C823.624 30.975 824.074 29.5 824.724 28C825.424 26.5 826.424 25.075 827.724 23.725C829.024 22.375 830.749 21.275 832.899 20.425H824.574C821.474 20.425 819.924 21.3 819.924 23.05C819.924 23.9 820.124 24.55 820.524 25C820.974 25.4 821.399 25.6 821.799 25.6C822.049 25.6 822.199 25.575 822.249 25.525C821.699 25.375 821.424 25 821.424 24.4C821.474 23.6 821.924 23.2 822.774 23.2C823.674 23.3 824.124 23.875 824.124 24.925C823.974 25.625 823.649 26.1 823.149 26.35C822.649 26.6 821.949 26.725 821.049 26.725C820.099 26.725 819.349 26.3 818.799 25.45C818.299 24.6 817.949 23.525 817.749 22.225C817.749 21.375 817.824 20.625 817.974 19.975C818.124 19.325 818.299 18.725 818.499 18.175C818.699 17.625 818.874 17.1 819.024 16.6C819.174 16.1 819.249 15.575 819.249 15.025C819.249 13.475 818.924 12.375 818.274 11.725L818.649 11.5C818.849 11.8 819.024 12.125 819.174 12.475C819.324 12.775 819.549 13.05 819.849 13.3C820.199 13.55 820.674 13.75 821.274 13.9C821.874 14.05 822.749 14.125 823.899 14.125H848.049C848.399 14.125 848.824 13.975 849.324 13.675C849.824 13.375 850.299 12.975 850.749 12.475C851.199 11.975 851.574 11.375 851.874 10.675C852.224 9.975 852.399 9.225 852.399 8.425C852.399 5.625 851.074 3.35 848.424 1.6L848.874 0.849998C854.224 3.5 857.099 6.9 857.499 11.05ZM852.474 31.975C852.474 30.425 852.174 28.95 851.574 27.55C851.024 26.15 850.274 24.95 849.324 23.95C848.374 22.9 847.274 22.075 846.024 21.475C844.774 20.875 843.449 20.575 842.049 20.575C840.549 20.575 839.124 20.875 837.774 21.475C836.424 22.075 835.224 22.9 834.174 23.95C833.174 24.95 832.374 26.15 831.774 27.55C831.174 28.95 830.874 30.425 830.874 31.975C830.874 33.525 831.174 35 831.774 36.4C832.374 37.75 833.174 38.95 834.174 40C835.224 41 836.424 41.8 837.774 42.4C839.124 43 840.549 43.3 842.049 43.3C843.449 43.3 844.774 43 846.024 42.4C847.274 41.8 848.374 41 849.324 40C850.274 38.95 851.024 37.75 851.574 36.4C852.174 35 852.474 33.525 852.474 31.975ZM873.465 43.15C876.015 42.9 877.915 41.675 879.165 39.475C880.415 37.275 881.04 34.2 881.04 30.25C881.04 28.85 880.94 27.525 880.74 26.275C880.59 25.025 880.265 23.925 879.765 22.975C879.265 22.025 878.565 21.275 877.665 20.725C876.815 20.175 875.715 19.9 874.365 19.9C873.815 19.9 873.24 19.95 872.64 20.05C872.09 20.15 871.565 20.35 871.065 20.65C870.565 20.95 870.14 21.35 869.79 21.85C869.49 22.35 869.34 23 869.34 23.8C869.34 24.25 869.44 24.575 869.64 24.775L869.19 25.225C868.74 24.825 868.365 24.5 868.065 24.25C867.815 23.95 867.615 23.65 867.465 23.35C867.365 23.05 867.29 22.725 867.24 22.375C867.19 22.025 867.165 21.575 867.165 21.025C867.165 19.625 867.34 18.4 867.69 17.35C868.04 16.3 868.215 15.175 868.215 13.975C868.215 13.225 868.065 12.65 867.765 12.25C867.515 11.85 867.315 11.375 867.165 10.825L867.465 10.6C867.565 10.9 867.765 11.25 868.065 11.65C868.365 12 868.74 12.375 869.19 12.775C869.64 13.125 870.14 13.425 870.69 13.675C871.29 13.925 871.94 14.05 872.64 14.05H878.34C879.34 14.05 880.09 13.825 880.59 13.375C881.14 12.875 881.565 12.375 881.865 11.875L882.09 12.25C881.44 12.9 881.115 13.85 881.115 15.1C881.115 16.1 881.34 17.1 881.79 18.1C882.24 19.1 882.74 20.3 883.29 21.7C883.84 23.1 884.34 24.825 884.79 26.875C885.24 28.875 885.465 31.375 885.465 34.375C885.465 37.675 885.165 40.375 884.565 42.475C884.015 44.525 883.315 46.225 882.465 47.575C882.215 47.925 881.615 48.675 880.665 49.825C879.715 50.925 878.465 51.95 876.915 52.9H876.84C876.19 54.05 875.69 54.975 875.34 55.675C874.99 56.325 874.79 57.075 874.74 57.925H874.365C874.365 56.875 874.015 56.1 873.315 55.6C872.665 55.05 871.84 54.625 870.84 54.325C869.89 54.025 868.89 53.8 867.84 53.65C866.79 53.45 865.915 53.2 865.215 52.9C862.665 51.9 860.565 50.05 858.915 47.35C857.265 44.6 855.965 40.7 855.015 35.65L854.64 33.325C856.74 36.775 859.09 39.3 861.69 40.9C864.29 42.45 867.49 43.225 871.29 43.225H872.34C872.94 43.225 873.315 43.2 873.465 43.15ZM942.153 13.225C944.503 13.675 946.603 14.35 948.453 15.25C950.353 16.1 952.003 17.375 953.403 19.075C954.803 20.725 955.928 22.9 956.778 25.6C957.628 28.25 958.203 31.6 958.503 35.65C958.303 40.2 957.628 43.875 956.478 46.675C955.328 49.425 954.028 51.45 952.578 52.75C952.028 53.25 951.503 53.65 951.003 53.95C950.553 54.25 950.128 54.575 949.728 54.925C949.378 55.275 949.053 55.7 948.753 56.2C948.503 56.65 948.278 57.275 948.078 58.075H947.553C947.403 56.925 946.978 56.15 946.278 55.75C945.628 55.3 944.878 54.875 944.028 54.475C943.178 54.075 942.328 53.55 941.478 52.9C940.628 52.25 939.953 51.125 939.453 49.525C938.903 50.925 938.203 51.975 937.353 52.675C936.553 53.375 935.728 53.95 934.878 54.4C934.078 54.85 933.328 55.325 932.628 55.825C931.978 56.325 931.528 57.075 931.278 58.075H930.903C930.153 56.575 929.253 55.425 928.203 54.625C927.153 53.825 926.153 53 925.203 52.15C924.253 51.25 923.428 50.125 922.728 48.775C922.078 47.425 921.753 45.45 921.753 42.85C921.753 40.55 922.078 38.6 922.728 37C923.428 35.4 924.278 34.1 925.278 33.1C926.278 32.05 927.378 31.3 928.578 30.85C929.778 30.35 930.903 30.1 931.953 30.1C933.353 30.1 934.503 30.55 935.403 31.45C936.303 32.3 936.753 33.375 936.753 34.675C936.753 35.725 936.378 36.65 935.628 37.45C934.928 38.2 934.028 38.575 932.928 38.575C932.078 38.575 931.253 38.325 930.453 37.825C929.653 37.325 929.253 36.475 929.253 35.275C929.253 34.775 929.328 34.375 929.478 34.075C929.628 33.725 929.853 33.35 930.153 32.95C929.553 33.1 929.053 33.475 928.653 34.075C928.303 34.625 928.128 35.525 928.128 36.775C928.128 38.875 928.628 40.45 929.628 41.5C930.678 42.55 932.078 43.075 933.828 43.075C937.628 43.075 939.528 40.1 939.528 34.15H940.803C940.803 37.15 941.203 39.4 942.003 40.9C942.853 42.35 944.178 43.075 945.978 43.075C948.378 43.075 950.128 42.425 951.228 41.125C952.328 39.825 952.878 37.8 952.878 35.05C952.278 25.2 947.828 19.8 939.528 18.85V18.775C938.128 18.775 937.103 18.975 936.453 19.375C935.803 19.725 935.478 20.375 935.478 21.325C935.478 22.175 935.678 22.825 936.078 23.275C936.528 23.725 936.978 23.95 937.428 23.95H937.728C937.228 23.8 936.978 23.475 936.978 22.975C936.978 22.075 937.428 21.625 938.328 21.625C939.128 21.675 939.528 22.125 939.528 22.975C939.528 24.475 938.778 25.225 937.278 25.225C936.078 25.225 935.103 24.825 934.353 24.025C933.603 23.175 933.228 21.875 933.228 20.125C933.228 18.525 933.453 17.2 933.903 16.15C934.353 15.1 934.578 14.125 934.578 13.225C934.578 11.475 934.253 10.275 933.603 9.625L934.053 9.475C934.303 9.925 934.603 10.375 934.953 10.825C935.303 11.275 935.778 11.675 936.378 12.025C937.028 12.375 937.803 12.675 938.703 12.925C939.653 13.125 940.803 13.225 942.153 13.225ZM998.276 32.725C998.276 36.125 997.876 38.975 997.076 41.275C996.326 43.525 995.376 45.425 994.226 46.975C993.076 48.525 991.826 49.8 990.476 50.8C989.176 51.75 987.951 52.6 986.801 53.35C985.651 54.1 984.676 54.85 983.876 55.6C983.126 56.35 982.751 57.25 982.751 58.3H982.151C982.151 57.25 981.701 56.4 980.801 55.75C979.951 55.05 978.876 54.375 977.576 53.725C976.276 53.025 974.851 52.25 973.301 51.4C971.801 50.55 970.401 49.4 969.101 47.95C967.801 46.5 966.701 44.675 965.801 42.475C964.951 40.225 964.526 37.4 964.526 34C964.526 30.9 964.876 28.05 965.576 25.45C966.326 22.8 967.426 20.525 968.876 18.625C970.326 16.725 972.151 15.25 974.351 14.2C976.601 13.1 979.201 12.55 982.151 12.55C983.551 12.55 984.776 12.625 985.826 12.775C986.876 12.875 988.101 12.925 989.501 12.925C990.351 12.925 991.126 12.85 991.826 12.7C992.576 12.5 993.201 12.05 993.701 11.35L994.076 11.875C993.676 12.425 993.426 12.85 993.326 13.15C993.276 13.4 993.251 13.8 993.251 14.35C993.251 15.25 993.501 16.15 994.001 17.05C994.551 17.95 995.126 19.05 995.726 20.35C996.376 21.65 996.951 23.275 997.451 25.225C998.001 27.175 998.276 29.675 998.276 32.725ZM981.551 19C980.201 19 978.926 19.325 977.726 19.975C976.526 20.575 975.451 21.425 974.501 22.525C973.601 23.575 972.876 24.85 972.326 26.35C971.826 27.8 971.576 29.35 971.576 31C971.576 32.65 971.851 34.2 972.401 35.65C972.951 37.1 973.676 38.375 974.576 39.475C975.526 40.525 976.601 41.375 977.801 42.025C979.001 42.625 980.251 42.925 981.551 42.925C982.901 42.925 984.176 42.625 985.376 42.025C986.576 41.375 987.626 40.5 988.526 39.4C989.426 38.3 990.151 37.025 990.701 35.575C991.251 34.125 991.526 32.6 991.526 31C991.526 29.35 991.251 27.8 990.701 26.35C990.201 24.9 989.476 23.65 988.526 22.6C987.626 21.5 986.576 20.625 985.376 19.975C984.176 19.325 982.901 19 981.551 19ZM1043.07 33.85C1043.07 31.55 1042.75 29.55 1042.1 27.85C1041.5 26.15 1040.67 24.75 1039.62 23.65C1038.57 22.5 1037.32 21.65 1035.87 21.1C1034.47 20.5 1032.95 20.15 1031.3 20.05C1029.65 20.05 1027.95 20.275 1026.2 20.725C1024.5 21.175 1022.95 21.925 1021.55 22.975C1020.2 23.975 1019.07 25.325 1018.17 27.025C1017.32 28.675 1016.9 30.725 1016.9 33.175C1016.9 36.175 1017.45 38.5 1018.55 40.15C1019.65 41.8 1021.15 42.625 1023.05 42.625C1026.15 42.625 1028.3 39.675 1029.5 33.775H1030.4C1030.9 39.625 1032.75 42.55 1035.95 42.55C1036.95 42.55 1037.87 42.325 1038.72 41.875C1039.62 41.375 1040.37 40.75 1040.97 40C1041.62 39.2 1042.12 38.275 1042.47 37.225C1042.87 36.175 1043.07 35.05 1043.07 33.85ZM1042.25 20.35C1044.5 22.45 1046.22 24.75 1047.42 27.25C1048.62 29.75 1049.32 32.575 1049.52 35.725C1049.52 38.875 1049.25 41.475 1048.7 43.525C1048.15 45.575 1047.47 47.25 1046.67 48.55C1045.87 49.85 1045 50.875 1044.05 51.625C1043.1 52.325 1042.2 52.95 1041.35 53.5C1040.55 54 1039.85 54.5 1039.25 55C1038.7 55.5 1038.4 56.175 1038.35 57.025H1038.05C1037.9 55.925 1037.45 55.1 1036.7 54.55C1036 54 1035.2 53.45 1034.3 52.9C1033.4 52.35 1032.5 51.625 1031.6 50.725C1030.7 49.775 1029.97 48.375 1029.42 46.525C1028.82 48.325 1028.07 49.7 1027.17 50.65C1026.27 51.55 1025.4 52.3 1024.55 52.9C1023.7 53.45 1022.92 54 1022.22 54.55C1021.57 55.1 1021.17 55.9 1021.02 56.95H1020.5C1020.35 55.9 1019.97 55.125 1019.37 54.625C1018.77 54.125 1018.07 53.675 1017.27 53.275C1016.47 52.825 1015.6 52.35 1014.65 51.85C1013.75 51.35 1012.92 50.6 1012.17 49.6C1011.42 48.55 1010.8 47.15 1010.3 45.4C1009.8 43.6 1009.55 41.25 1009.55 38.35C1009.55 33.95 1010.42 30.3 1012.17 27.4C1013.92 24.45 1016.77 22.1 1020.72 20.35H1009.1C1007.5 20.65 1006.7 21.4 1006.7 22.6C1006.7 23.55 1006.9 24.275 1007.3 24.775C1007.75 25.275 1008.17 25.525 1008.57 25.525C1008.52 25.525 1008.7 25.475 1009.1 25.375C1008.55 25.225 1008.27 24.875 1008.27 24.325C1008.27 23.375 1008.72 22.9 1009.62 22.9C1010.07 23 1010.42 23.175 1010.67 23.425C1010.92 23.675 1011.05 24.1 1011.05 24.7C1010.95 25.45 1010.62 25.975 1010.07 26.275C1009.52 26.575 1008.75 26.725 1007.75 26.725C1006.75 26.575 1005.92 26.075 1005.27 25.225C1004.62 24.325 1004.3 23.075 1004.3 21.475C1004.3 20.625 1004.37 19.875 1004.52 19.225C1004.67 18.525 1004.85 17.9 1005.05 17.35C1005.25 16.75 1005.42 16.2 1005.57 15.7C1005.72 15.2 1005.8 14.675 1005.8 14.125C1005.8 12.425 1005.42 11.2 1004.67 10.45L1005.12 10.15C1005.82 11.25 1006.72 12.2 1007.82 13C1008.92 13.75 1010.6 14.125 1012.85 14.125H1042.25V20.35ZM1051.03 12.1C1051.03 13.1 1050.88 14.1 1050.58 15.1C1050.28 16.05 1049.83 16.925 1049.23 17.725C1048.63 18.525 1047.88 19.175 1046.98 19.675C1046.08 20.125 1045.03 20.35 1043.83 20.35H1039.85V14.05H1043.3C1046.35 14.05 1047.88 12.55 1047.88 9.55C1047.88 8.7 1047.65 7.9 1047.2 7.15C1046.7 6.4 1046.1 6.025 1045.4 6.025H1045.18C1045.38 6.325 1045.6 6.65 1045.85 7C1046.1 7.3 1046.23 7.775 1046.23 8.425C1046.23 9.625 1045.85 10.575 1045.1 11.275C1044.35 11.975 1043.33 12.325 1042.03 12.325C1040.98 12.325 1040.1 12 1039.4 11.35C1038.7 10.7 1038.35 9.725 1038.35 8.425C1038.35 7.675 1038.53 7.025 1038.88 6.475C1039.18 5.925 1039.6 5.475 1040.15 5.125C1040.65 4.775 1041.23 4.525 1041.88 4.375C1042.53 4.175 1043.15 4.075 1043.75 4.075C1045.9 4.075 1047.65 4.775 1049 6.175C1050.35 7.525 1051.03 9.5 1051.03 12.1ZM1090.12 32.725C1090.12 36.125 1089.72 38.975 1088.92 41.275C1088.17 43.525 1087.22 45.425 1086.07 46.975C1084.92 48.525 1083.67 49.8 1082.32 50.8C1081.02 51.75 1079.8 52.6 1078.65 53.35C1077.5 54.1 1076.52 54.85 1075.72 55.6C1074.97 56.35 1074.6 57.25 1074.6 58.3H1074C1074 57.25 1073.55 56.4 1072.65 55.75C1071.8 55.05 1070.72 54.375 1069.42 53.725C1068.12 53.025 1066.7 52.25 1065.15 51.4C1063.65 50.55 1062.25 49.4 1060.95 47.95C1059.65 46.5 1058.55 44.675 1057.65 42.475C1056.8 40.225 1056.37 37.4 1056.37 34C1056.37 30.9 1056.72 28.05 1057.42 25.45C1058.17 22.8 1059.27 20.525 1060.72 18.625C1062.17 16.725 1064 15.25 1066.2 14.2C1068.45 13.1 1071.05 12.55 1074 12.55C1075.4 12.55 1076.62 12.625 1077.67 12.775C1078.72 12.875 1079.95 12.925 1081.35 12.925C1082.2 12.925 1082.97 12.85 1083.67 12.7C1084.42 12.5 1085.05 12.05 1085.55 11.35L1085.92 11.875C1085.52 12.425 1085.27 12.85 1085.17 13.15C1085.12 13.4 1085.1 13.8 1085.1 14.35C1085.1 15.25 1085.35 16.15 1085.85 17.05C1086.4 17.95 1086.97 19.05 1087.57 20.35C1088.22 21.65 1088.8 23.275 1089.3 25.225C1089.85 27.175 1090.12 29.675 1090.12 32.725ZM1073.4 19C1072.05 19 1070.77 19.325 1069.57 19.975C1068.37 20.575 1067.3 21.425 1066.35 22.525C1065.45 23.575 1064.72 24.85 1064.17 26.35C1063.67 27.8 1063.42 29.35 1063.42 31C1063.42 32.65 1063.7 34.2 1064.25 35.65C1064.8 37.1 1065.52 38.375 1066.42 39.475C1067.37 40.525 1068.45 41.375 1069.65 42.025C1070.85 42.625 1072.1 42.925 1073.4 42.925C1074.75 42.925 1076.02 42.625 1077.22 42.025C1078.42 41.375 1079.47 40.5 1080.37 39.4C1081.27 38.3 1082 37.025 1082.55 35.575C1083.1 34.125 1083.37 32.6 1083.37 31C1083.37 29.35 1083.1 27.8 1082.55 26.35C1082.05 24.9 1081.32 23.65 1080.37 22.6C1079.47 21.5 1078.42 20.625 1077.22 19.975C1076.02 19.325 1074.75 19 1073.4 19ZM1139.57 35.95C1139.57 39.2 1139.27 41.9 1138.67 44.05C1138.07 46.15 1137.29 47.875 1136.34 49.225C1135.44 50.525 1134.44 51.55 1133.34 52.3C1132.24 53.05 1131.22 53.7 1130.27 54.25C1129.37 54.75 1128.59 55.275 1127.94 55.825C1127.29 56.325 1126.94 57 1126.89 57.85H1126.22C1125.97 56.55 1125.52 55.675 1124.87 55.225C1124.22 54.775 1123.47 54.375 1122.62 54.025C1121.82 53.625 1120.94 53.05 1119.99 52.3C1119.09 51.5 1118.24 50.125 1117.44 48.175C1116.89 49.875 1116.17 51.125 1115.27 51.925C1114.42 52.725 1113.54 53.375 1112.64 53.875C1111.79 54.375 1110.99 54.9 1110.24 55.45C1109.54 55.95 1109.07 56.775 1108.82 57.925H1108.29C1107.94 57.025 1107.49 56.3 1106.94 55.75C1106.44 55.2 1105.84 54.7 1105.14 54.25C1104.49 53.8 1103.77 53.35 1102.97 52.9C1102.22 52.4 1101.39 51.775 1100.49 51.025C1099.84 50.475 1099.24 49.725 1098.69 48.775C1098.19 47.825 1097.74 46.775 1097.34 45.625C1096.99 44.425 1096.69 43.175 1096.44 41.875C1096.24 40.525 1096.14 39.175 1096.14 37.825C1096.14 34.525 1096.79 31.35 1098.09 28.3C1099.44 25.2 1101.27 22.65 1103.57 20.65C1102.52 19.8 1101.67 18.9 1101.02 17.95C1100.42 17 1100.12 15.55 1100.12 13.6C1100.12 11.75 1100.49 10.15 1101.24 8.8C1102.04 7.45 1103.14 6.35 1104.54 5.5C1105.94 4.65 1107.59 4.025 1109.49 3.625C1111.44 3.175 1113.54 2.95 1115.79 2.95C1118.14 2.95 1120.04 3.1 1121.49 3.4C1122.94 3.65 1124.29 3.775 1125.54 3.775C1126.09 3.775 1126.59 3.75 1127.04 3.7C1127.54 3.6 1128.04 3.5 1128.54 3.4L1128.99 3.775C1128.14 4.125 1127.57 4.5 1127.27 4.9C1127.02 5.25 1126.89 6.05 1126.89 7.3C1126.89 7.85 1127.14 8.525 1127.64 9.325C1128.14 10.125 1128.69 11.05 1129.29 12.1C1129.94 13.15 1130.54 14.325 1131.09 15.625C1131.69 16.925 1132.07 18.35 1132.22 19.9C1134.17 21.65 1135.87 23.875 1137.32 26.575C1138.82 29.225 1139.57 32.35 1139.57 35.95ZM1128.69 18.025C1128.44 16.775 1127.87 15.675 1126.97 14.725C1126.12 13.775 1125.09 13 1123.89 12.4C1122.69 11.8 1121.37 11.35 1119.92 11.05C1118.52 10.75 1117.14 10.6 1115.79 10.6C1114.54 10.6 1113.29 10.7 1112.04 10.9C1110.84 11.05 1109.74 11.375 1108.74 11.875C1107.79 12.375 1107.02 13.075 1106.42 13.975C1105.82 14.825 1105.52 15.925 1105.52 17.275C1105.52 17.675 1105.57 17.975 1105.67 18.175C1105.77 18.375 1105.87 18.6 1105.97 18.85C1107.72 17.8 1109.67 17.025 1111.82 16.525C1113.97 15.975 1116.04 15.7 1118.04 15.7C1120.14 15.7 1122.07 15.9 1123.82 16.3C1125.57 16.7 1127.19 17.275 1128.69 18.025ZM1132.89 33.925C1132.89 31.925 1132.59 30.025 1131.99 28.225C1131.44 26.425 1130.57 24.825 1129.37 23.425C1128.22 22.025 1126.74 20.925 1124.94 20.125C1123.19 19.275 1121.12 18.85 1118.72 18.85C1116.82 18.85 1114.94 19.15 1113.09 19.75C1111.29 20.3 1109.67 21.225 1108.22 22.525C1106.82 23.775 1105.67 25.4 1104.77 27.4C1103.87 29.35 1103.42 31.7 1103.42 34.45C1103.42 37.45 1104.02 39.675 1105.22 41.125C1106.47 42.525 1108.22 43.225 1110.47 43.225C1114.32 43.225 1116.67 40.175 1117.52 34.075H1118.72C1118.97 37.225 1119.62 39.525 1120.67 40.975C1121.77 42.425 1123.27 43.15 1125.17 43.15C1127.57 43.15 1129.44 42.3 1130.79 40.6C1132.19 38.85 1132.89 36.625 1132.89 33.925ZM1183.98 20.2C1188.83 21.25 1191.46 24.225 1191.86 29.125V54.025C1191.86 54.475 1192.16 54.9 1192.76 55.3C1193.41 55.7 1194.01 56.075 1194.56 56.425L1193.88 56.725C1193.33 56.375 1192.71 56.075 1192.01 55.825C1191.31 55.525 1190.46 55.375 1189.46 55.375C1188.51 55.375 1187.61 55.5 1186.76 55.75C1185.96 55.95 1185.18 56.2 1184.43 56.5C1183.68 56.75 1182.96 57 1182.26 57.25C1181.56 57.45 1180.83 57.55 1180.08 57.55C1178.58 57.55 1177.38 57.225 1176.48 56.575C1175.58 55.925 1175.13 55 1175.13 53.8L1175.96 53.425C1176.11 53.925 1176.36 54.375 1176.71 54.775C1177.11 55.175 1177.63 55.375 1178.28 55.375C1180.08 55.375 1181.23 55.175 1181.73 54.775C1182.23 54.325 1182.48 53.7 1182.48 52.9V26.725C1182.38 24.325 1181.46 22.65 1179.71 21.7C1178.01 20.7 1175.51 20.2 1172.21 20.2C1166.26 20.2 1162.98 22.375 1162.38 26.725V53.5C1162.38 54.35 1162.63 55 1163.13 55.45C1163.63 55.85 1164.83 56.05 1166.73 56.05C1167.33 56.05 1167.81 55.85 1168.16 55.45C1168.56 55.05 1168.83 54.6 1168.98 54.1L1169.96 54.475C1169.96 55.675 1169.46 56.6 1168.46 57.25C1167.51 57.9 1166.33 58.225 1164.93 58.225C1164.13 58.225 1163.36 58.125 1162.61 57.925C1161.91 57.675 1161.18 57.425 1160.43 57.175C1159.68 56.875 1158.91 56.625 1158.11 56.425C1157.31 56.175 1156.43 56.05 1155.48 56.05C1154.43 56.05 1153.56 56.2 1152.86 56.5C1152.21 56.75 1151.58 57.05 1150.98 57.4L1150.46 57.025C1150.96 56.725 1151.53 56.375 1152.18 55.975C1152.83 55.575 1153.16 55.15 1153.16 54.7V29.8C1153.91 24.45 1156.96 21.275 1162.31 20.275H1150.61C1148.91 20.575 1148.06 21.4 1148.06 22.75C1148.06 23.75 1148.28 24.5 1148.73 25C1149.23 25.45 1149.68 25.675 1150.08 25.675C1150.33 25.675 1150.48 25.65 1150.53 25.6C1149.93 25.4 1149.63 25.025 1149.63 24.475C1149.63 23.525 1150.08 23.05 1150.98 23.05C1151.98 23.15 1152.48 23.7 1152.48 24.7C1152.48 25.4 1152.21 25.925 1151.66 26.275C1151.16 26.625 1150.51 26.8 1149.71 26.8C1147.41 26.8 1146.03 25.15 1145.58 21.85C1145.58 20.95 1145.66 20.15 1145.81 19.45C1146.01 18.75 1146.21 18.1 1146.41 17.5C1146.61 16.9 1146.78 16.325 1146.93 15.775C1147.13 15.225 1147.23 14.675 1147.23 14.125C1147.23 12.425 1146.86 11.2 1146.11 10.45L1146.63 10.225C1147.33 11.375 1148.21 12.3 1149.26 13C1150.31 13.7 1151.96 14.05 1154.21 14.05H1186.01C1186.36 14.05 1186.76 13.9 1187.21 13.6C1187.71 13.3 1188.18 12.9 1188.63 12.4C1189.08 11.85 1189.46 11.225 1189.76 10.525C1190.06 9.825 1190.21 9.075 1190.21 8.275C1190.21 5.475 1188.91 3.225 1186.31 1.525L1186.83 0.774999C1189.73 2.225 1191.83 3.85 1193.13 5.65C1194.48 7.4 1195.16 9.425 1195.16 11.725C1195.16 16.775 1192.21 19.6 1186.31 20.2H1183.98ZM1216.17 17.425C1216.17 17.125 1216.22 16.925 1216.32 16.825C1216.32 16.275 1216.12 15.825 1215.72 15.475C1215.37 15.075 1214.77 14.625 1213.92 14.125L1214.45 13.825C1215 14.075 1215.6 14.375 1216.25 14.725C1216.95 15.025 1217.62 15.475 1218.27 16.075C1219.82 15.425 1221.25 14.95 1222.55 14.65C1223.85 14.3 1225.35 14.125 1227.05 14.125C1228.75 14.125 1230.47 14.25 1232.22 14.5C1234.02 14.7 1235.5 15.25 1236.65 16.15C1237.45 15.35 1238.17 14.8 1238.82 14.5C1239.52 14.2 1240.15 13.925 1240.7 13.675L1241.22 14.05C1240.22 14.6 1239.6 15.075 1239.35 15.475C1239.15 15.825 1239.05 16.425 1239.05 17.275C1239.05 17.825 1239.27 18.575 1239.72 19.525C1240.22 20.425 1240.77 21.6 1241.37 23.05C1241.97 24.5 1242.5 26.25 1242.95 28.3C1243.45 30.3 1243.7 32.65 1243.7 35.35C1243.7 38.8 1243.42 41.625 1242.87 43.825C1242.32 46.025 1241.62 47.8 1240.77 49.15C1239.97 50.45 1239.07 51.45 1238.07 52.15C1237.12 52.85 1236.22 53.425 1235.37 53.875C1234.57 54.325 1233.9 54.775 1233.35 55.225C1232.8 55.675 1232.52 56.3 1232.52 57.1C1232.52 57.2 1232.57 57.5 1232.67 58H1231.77C1231.82 57.95 1231.85 57.65 1231.85 57.1C1231.85 56.4 1231.6 55.875 1231.1 55.525C1230.6 55.125 1229.97 54.725 1229.22 54.325C1228.52 53.925 1227.72 53.475 1226.82 52.975C1225.97 52.425 1225.17 51.65 1224.42 50.65C1223.72 49.65 1223.12 48.375 1222.62 46.825C1222.12 45.225 1221.87 43.175 1221.87 40.675C1222.17 36.625 1223.1 33.525 1224.65 31.375C1226.2 29.175 1228.47 28.075 1231.47 28.075C1232.92 28.075 1234.17 28.55 1235.22 29.5C1236.27 30.4 1236.8 31.55 1236.8 32.95C1236.8 34.2 1236.37 35.325 1235.52 36.325C1234.67 37.325 1233.6 37.825 1232.3 37.825C1231.3 37.825 1230.37 37.475 1229.52 36.775C1228.72 36.025 1228.32 35.125 1228.32 34.075C1228.32 33.125 1228.72 32.175 1229.52 31.225C1227.37 31.825 1226.3 33.525 1226.3 36.325C1226.3 38.725 1226.9 40.475 1228.1 41.575C1229.3 42.625 1230.9 43.15 1232.9 43.15C1238 43.15 1240.55 39.7 1240.55 32.8C1240.55 30.8 1240.2 29.025 1239.5 27.475C1238.8 25.925 1237.87 24.625 1236.72 23.575C1235.57 22.525 1234.25 21.725 1232.75 21.175C1231.25 20.625 1229.7 20.35 1228.1 20.35C1220.9 20.35 1217.3 23.45 1217.3 29.65C1217.3 31.75 1217.45 33.775 1217.75 35.725C1218.1 37.675 1218.27 39.5 1218.27 41.2C1218.27 43.45 1218.02 45.25 1217.52 46.6C1217.02 47.9 1215.97 48.975 1214.37 49.825C1213.12 50.475 1212.1 51.175 1211.3 51.925C1210.5 52.625 1209.85 53.35 1209.35 54.1C1208.9 54.8 1208.57 55.5 1208.37 56.2C1208.17 56.85 1208.07 57.45 1208.07 58H1207.62C1207.62 56.95 1207.42 56.125 1207.02 55.525C1206.62 54.925 1206.12 54.475 1205.52 54.175C1204.92 53.825 1204.25 53.55 1203.5 53.35C1202.8 53.1 1202.1 52.825 1201.4 52.525C1198.85 51.575 1196.75 49.725 1195.1 46.975C1193.45 44.225 1192.12 40.35 1191.12 35.35V34.075C1192.17 35.975 1193.3 37.525 1194.5 38.725C1195.65 39.875 1196.87 40.775 1198.17 41.425C1199.52 42.075 1200.9 42.525 1202.3 42.775C1203.7 43.025 1205.15 43.175 1206.65 43.225C1210.75 43.225 1212.82 40.875 1212.87 36.175C1213.02 33.625 1213.2 31.425 1213.4 29.575C1213.6 27.725 1213.7 26.15 1213.7 24.85C1213.7 21.55 1214.52 19.075 1216.17 17.425ZM1305.63 11.95C1305.63 10.7 1305.21 9.65 1304.36 8.8C1303.51 7.9 1302.43 7.45 1301.13 7.45C1299.98 7.45 1298.93 7.9 1297.98 8.8C1297.03 9.65 1296.56 10.7 1296.56 11.95C1296.56 13.1 1297.03 14.1 1297.98 14.95C1298.93 15.8 1299.98 16.225 1301.13 16.225C1302.43 16.225 1303.51 15.8 1304.36 14.95C1305.21 14.1 1305.63 13.1 1305.63 11.95ZM1322.06 28.6C1322.06 24.7 1321.68 21.45 1320.93 18.85C1320.18 16.2 1319.16 14.1 1317.86 12.55C1316.61 10.95 1315.16 9.825 1313.51 9.175C1311.86 8.475 1310.16 8.125 1308.41 8.125C1309.46 9.275 1309.98 10.8 1309.98 12.7C1309.98 14.2 1309.63 15.5 1308.93 16.6C1308.23 17.7 1307.33 18.625 1306.23 19.375C1305.13 20.075 1303.88 20.6 1302.48 20.95C1301.13 21.25 1299.78 21.4 1298.43 21.4C1296.78 21.4 1295.13 21.25 1293.48 20.95C1291.83 20.65 1290.33 20.175 1288.98 19.525C1287.63 18.825 1286.53 17.925 1285.68 16.825C1284.83 15.725 1284.41 14.35 1284.41 12.7C1284.41 10.9 1284.83 9.4 1285.68 8.2C1286.53 6.95 1287.66 5.925 1289.06 5.125C1290.51 4.325 1292.18 3.75 1294.08 3.4C1295.98 3.05 1297.98 2.875 1300.08 2.875C1301.48 2.875 1302.78 2.9 1303.98 2.95C1305.18 3 1306.36 3.05 1307.51 3.1C1308.71 3.1 1309.91 3.125 1311.11 3.175C1312.36 3.225 1313.71 3.25 1315.16 3.25C1316.26 3.25 1317.16 3.225 1317.86 3.175C1318.61 3.075 1319.46 2.775 1320.41 2.275L1320.86 2.575C1320.11 3.425 1319.73 4.4 1319.73 5.5C1319.73 6.6 1319.93 7.575 1320.33 8.425C1320.73 9.225 1321.23 10.1 1321.83 11.05C1322.48 11.95 1323.16 12.975 1323.86 14.125C1324.61 15.225 1325.28 16.625 1325.88 18.325C1326.53 20.025 1327.08 22.075 1327.53 24.475C1327.98 26.875 1328.23 29.8 1328.28 33.25C1328.18 36.1 1327.88 38.55 1327.38 40.6C1326.88 42.65 1326.28 44.375 1325.58 45.775C1324.88 47.175 1324.16 48.275 1323.41 49.075C1322.66 49.875 1322.01 50.45 1321.46 50.8C1320.56 51.4 1319.71 51.95 1318.91 52.45C1318.11 52.95 1317.38 53.475 1316.73 54.025C1316.13 54.525 1315.63 55.075 1315.23 55.675C1314.83 56.225 1314.61 56.85 1314.56 57.55H1314.26C1314.26 56.7 1313.96 56.025 1313.36 55.525C1312.81 55.025 1312.11 54.6 1311.26 54.25C1310.41 53.85 1309.48 53.425 1308.48 52.975C1307.53 52.525 1306.63 51.9 1305.78 51.1C1304.93 50.3 1304.21 49.275 1303.61 48.025C1303.06 46.775 1302.78 45.125 1302.78 43.075C1302.78 41.875 1302.86 40.775 1303.01 39.775C1303.21 38.775 1303.41 37.875 1303.61 37.075C1303.86 36.225 1304.06 35.45 1304.21 34.75C1304.41 34.05 1304.51 33.4 1304.51 32.8C1304.51 32.1 1304.28 31.425 1303.83 30.775C1303.38 30.125 1302.71 29.8 1301.81 29.8C1300.91 29.8 1300.08 30.1 1299.33 30.7C1298.58 31.3 1298.16 32.15 1298.06 33.25V55.3C1298.06 55.75 1298.38 56.2 1299.03 56.65C1299.73 57.05 1300.36 57.4 1300.91 57.7L1300.16 58.075C1299.51 57.675 1298.83 57.35 1298.13 57.1C1297.43 56.8 1296.53 56.65 1295.43 56.65C1294.38 56.65 1293.43 56.775 1292.58 57.025C1291.73 57.275 1290.88 57.55 1290.03 57.85C1289.23 58.1 1288.43 58.35 1287.63 58.6C1286.88 58.85 1286.06 58.975 1285.16 58.975C1283.66 58.975 1282.41 58.65 1281.41 58C1280.41 57.3 1279.91 56.325 1279.91 55.075L1280.88 54.55C1281.08 55.1 1281.36 55.6 1281.71 56.05C1282.11 56.45 1282.66 56.65 1283.36 56.65C1285.26 56.65 1286.51 56.425 1287.11 55.975C1287.76 55.525 1288.08 54.875 1288.08 54.025V29.8C1288.08 29.35 1287.88 28.925 1287.48 28.525C1287.08 28.075 1286.76 27.675 1286.51 27.325L1286.88 27.175C1287.48 27.575 1287.98 27.925 1288.38 28.225C1288.83 28.475 1289.43 28.6 1290.18 28.6C1291.28 28.6 1292.26 28.425 1293.11 28.075C1294.01 27.725 1294.91 27.35 1295.81 26.95C1296.76 26.5 1297.78 26.1 1298.88 25.75C1300.03 25.4 1301.43 25.225 1303.08 25.225C1304.88 25.225 1306.26 25.525 1307.21 26.125C1308.16 26.725 1308.83 27.6 1309.23 28.75C1309.68 29.85 1309.93 31.2 1309.98 32.8C1310.08 34.35 1310.16 36.1 1310.21 38.05C1310.26 41.2 1311.76 42.85 1314.71 43C1317.31 42.9 1319.18 41.7 1320.33 39.4C1321.48 37.05 1322.06 33.45 1322.06 28.6ZM1356.15 39.55C1356.15 39.8 1356.08 40.2 1355.93 40.75C1355.78 41.25 1355.6 41.85 1355.4 42.55C1355.25 43.2 1355.1 43.9 1354.95 44.65C1354.8 45.4 1354.73 46.15 1354.73 46.9C1354.73 47.65 1354.78 48.35 1354.88 49C1355.03 49.6 1355.43 50.15 1356.08 50.65C1355.13 51.55 1354.18 52.225 1353.23 52.675C1352.33 53.075 1351.48 53.475 1350.68 53.875C1349.93 54.225 1349.25 54.7 1348.65 55.3C1348.1 55.85 1347.7 56.725 1347.45 57.925H1347.08C1347.03 56.975 1346.68 56.225 1346.03 55.675C1345.38 55.075 1344.58 54.475 1343.63 53.875C1342.68 53.275 1341.65 52.575 1340.55 51.775C1339.45 50.975 1338.43 49.9 1337.48 48.55C1336.58 47.15 1335.8 45.375 1335.15 43.225C1334.55 41.075 1334.25 38.35 1334.25 35.05C1334.25 33.2 1334.4 31.075 1334.7 28.675C1335.05 26.275 1335.7 24 1336.65 21.85C1337.6 19.7 1338.93 17.9 1340.63 16.45C1342.38 14.95 1344.65 14.2 1347.45 14.2C1348.4 14.2 1349.18 14.25 1349.78 14.35C1350.38 14.4 1351.13 14.425 1352.03 14.425C1352.53 14.425 1352.95 14.375 1353.3 14.275C1353.65 14.125 1354.05 13.9 1354.5 13.6L1354.88 14.125C1354.28 14.425 1353.98 14.975 1353.98 15.775C1353.98 17.075 1354.23 18.5 1354.73 20.05C1355.28 21.55 1355.55 23.2 1355.55 25C1355.55 27.85 1354.75 30.075 1353.15 31.675C1351.55 33.225 1349.53 34 1347.08 34C1344.68 34 1342.83 33.3 1341.53 31.9C1340.23 30.45 1339.58 28.525 1339.58 26.125C1339.58 25.775 1339.58 25.45 1339.58 25.15C1339.63 24.8 1339.68 24.425 1339.73 24.025C1339.58 24.375 1339.43 24.7 1339.28 25C1339.18 25.3 1339.08 25.675 1338.98 26.125C1338.93 26.525 1338.88 27.025 1338.83 27.625C1338.78 28.175 1338.75 28.925 1338.75 29.875C1339.4 38.775 1342.35 43.375 1347.6 43.675C1349 43.675 1350.18 43.475 1351.13 43.075C1352.13 42.675 1352.9 42.15 1353.45 41.5C1354.05 40.8 1354.48 40.025 1354.73 39.175C1354.98 38.275 1355.1 37.375 1355.1 36.475C1355.1 35.475 1355 34.775 1354.8 34.375L1355.18 34.075C1355.58 34.875 1355.85 35.625 1356 36.325C1356.15 36.975 1356.23 37.6 1356.23 38.2V38.875C1356.23 39.225 1356.2 39.45 1356.15 39.55ZM1349.03 23.575C1349.03 22.825 1348.7 22.125 1348.05 21.475C1347.4 20.825 1346.58 20.5 1345.58 20.5C1344.73 20.5 1343.95 20.825 1343.25 21.475C1342.6 22.125 1342.28 22.825 1342.28 23.575C1342.28 24.525 1342.6 25.3 1343.25 25.9C1343.95 26.45 1344.73 26.725 1345.58 26.725C1346.58 26.725 1347.4 26.45 1348.05 25.9C1348.7 25.3 1349.03 24.525 1349.03 23.575ZM1427.06 14.125C1427.41 14.125 1427.83 13.975 1428.33 13.675C1428.83 13.325 1429.31 12.875 1429.76 12.325C1430.21 11.775 1430.58 11.15 1430.88 10.45C1431.18 9.7 1431.33 8.925 1431.33 8.125C1431.33 5.225 1430.06 2.9 1427.51 1.15L1427.81 0.249997C1433.61 3.25 1436.51 6.975 1436.51 11.425C1436.51 16.775 1433.51 19.75 1427.51 20.35H1420.38C1421.48 21.15 1422.03 22.15 1422.03 23.35C1422.03 24.05 1421.83 24.75 1421.43 25.45H1432.98C1433.43 25.35 1433.78 25.25 1434.03 25.15C1434.28 25.05 1434.48 24.9 1434.63 24.7C1434.83 24.5 1435.03 24.25 1435.23 23.95C1435.43 23.65 1435.71 23.225 1436.06 22.675L1436.58 22.975C1435.88 23.975 1435.48 25.125 1435.38 26.425C1435.43 26.775 1435.51 27.125 1435.61 27.475C1435.71 27.825 1435.76 28.2 1435.76 28.6C1435.76 29.05 1435.23 29.275 1434.18 29.275H1430.73L1432.98 31C1433.98 31.8 1434.81 32.775 1435.46 33.925C1436.16 35.025 1436.51 36.625 1436.51 38.725C1436.51 42.025 1435.78 44.75 1434.33 46.9C1432.88 49.05 1431.16 50.65 1429.16 51.7C1427.86 52.25 1426.63 52.7 1425.48 53.05C1424.33 53.35 1423.28 53.7 1422.33 54.1C1421.38 54.5 1420.53 55 1419.78 55.6C1419.03 56.15 1418.43 56.95 1417.98 58H1417.53C1416.98 57.15 1416.43 56.45 1415.88 55.9C1415.33 55.3 1414.73 54.8 1414.08 54.4C1413.43 53.95 1412.68 53.575 1411.83 53.275C1410.98 52.975 1410.01 52.675 1408.91 52.375C1407.76 51.975 1406.58 51.5 1405.38 50.95C1404.23 50.35 1403.18 49.575 1402.23 48.625C1401.28 47.675 1400.51 46.475 1399.91 45.025C1399.36 43.575 1399.08 41.775 1399.08 39.625C1399.08 38.175 1399.28 36.875 1399.68 35.725C1400.13 34.575 1400.71 33.575 1401.41 32.725C1402.11 31.875 1402.88 31.175 1403.73 30.625C1404.63 30.025 1405.53 29.575 1406.43 29.275H1402.68C1402.23 29.375 1401.88 29.475 1401.63 29.575C1401.38 29.675 1401.16 29.825 1400.96 30.025C1400.81 30.175 1400.63 30.425 1400.43 30.775C1400.23 31.075 1399.96 31.475 1399.61 31.975L1399.08 31.75C1399.78 30.75 1400.18 29.6 1400.28 28.3C1400.23 27.95 1400.16 27.6 1400.06 27.25C1399.96 26.85 1399.91 26.5 1399.91 26.2C1399.91 25.7 1400.43 25.45 1401.48 25.45H1414.46C1413.96 24.95 1413.71 24.25 1413.71 23.35C1413.71 22.2 1414.23 21.2 1415.28 20.35L1399.08 20.275C1396.03 20.275 1394.51 21.15 1394.51 22.9C1394.51 23.65 1394.73 24.275 1395.18 24.775C1395.63 25.275 1396.06 25.525 1396.46 25.525C1396.71 25.525 1396.86 25.5 1396.91 25.45C1396.26 25.15 1395.93 24.75 1395.93 24.25C1395.98 23.45 1396.48 23.05 1397.43 23.05C1398.33 23.15 1398.78 23.725 1398.78 24.775C1398.63 25.475 1398.31 25.95 1397.81 26.2C1397.31 26.45 1396.58 26.575 1395.63 26.575C1393.83 26.375 1392.73 24.825 1392.33 21.925C1392.33 20.325 1392.58 19 1393.08 17.95C1393.58 16.85 1393.83 15.8 1393.83 14.8C1393.83 13.25 1393.51 12.15 1392.86 11.5L1393.23 11.125C1393.48 11.525 1393.71 11.925 1393.91 12.325C1394.11 12.675 1394.38 13 1394.73 13.3C1395.08 13.55 1395.58 13.75 1396.23 13.9C1396.88 14.05 1397.78 14.125 1398.93 14.125H1427.06ZM1417.76 29.2C1416.36 29.2 1415.01 29.4 1413.71 29.8C1412.46 30.15 1411.33 30.65 1410.33 31.3C1409.38 31.95 1408.61 32.725 1408.01 33.625C1407.46 34.475 1407.18 35.4 1407.18 36.4C1407.18 37.4 1407.46 38.35 1408.01 39.25C1408.61 40.1 1409.38 40.85 1410.33 41.5C1411.28 42.15 1412.38 42.675 1413.63 43.075C1414.93 43.475 1416.31 43.675 1417.76 43.675C1419.16 43.675 1420.48 43.5 1421.73 43.15C1422.98 42.75 1424.08 42.225 1425.03 41.575C1425.98 40.925 1426.73 40.15 1427.28 39.25C1427.83 38.35 1428.11 37.4 1428.11 36.4C1428.11 35.4 1427.83 34.475 1427.28 33.625C1426.78 32.725 1426.06 31.95 1425.11 31.3C1424.21 30.65 1423.11 30.15 1421.81 29.8C1420.56 29.4 1419.21 29.2 1417.76 29.2ZM1484.14 20.35C1485.69 21.2 1486.99 22.925 1488.04 25.525C1489.09 28.075 1489.62 31.075 1489.62 34.525C1489.62 37.825 1489.29 40.55 1488.64 42.7C1487.99 44.85 1487.17 46.625 1486.17 48.025C1485.22 49.425 1484.17 50.55 1483.02 51.4C1481.92 52.2 1480.87 52.925 1479.87 53.575C1478.87 54.175 1478.02 54.8 1477.32 55.45C1476.67 56.1 1476.32 56.925 1476.27 57.925H1475.89C1475.89 57.025 1475.62 56.35 1475.07 55.9C1474.52 55.4 1473.82 54.95 1472.97 54.55C1472.12 54.15 1471.19 53.75 1470.19 53.35C1469.24 52.9 1468.34 52.3 1467.49 51.55C1466.64 50.75 1465.94 49.725 1465.39 48.475C1464.84 47.225 1464.57 45.6 1464.57 43.6C1464.57 42.4 1464.64 41.325 1464.79 40.375C1464.99 39.425 1465.19 38.55 1465.39 37.75C1465.59 36.9 1465.77 36.125 1465.92 35.425C1466.12 34.725 1466.22 34.025 1466.22 33.325C1466.22 32.625 1465.99 31.975 1465.54 31.375C1465.14 30.775 1464.49 30.475 1463.59 30.475C1462.69 30.475 1461.87 30.775 1461.12 31.375C1460.42 31.975 1459.99 32.8 1459.84 33.85V55.675C1459.84 56.125 1460.17 56.575 1460.82 57.025C1461.52 57.425 1462.14 57.775 1462.69 58.075L1462.02 58.45C1461.32 58.05 1460.62 57.725 1459.92 57.475C1459.22 57.175 1458.34 57.025 1457.29 57.025C1456.29 57.025 1455.34 57.15 1454.44 57.4C1453.59 57.65 1452.77 57.9 1451.97 58.15C1451.17 58.45 1450.37 58.725 1449.57 58.975C1448.82 59.225 1448.02 59.35 1447.17 59.35C1445.57 59.35 1444.29 59 1443.34 58.3C1442.39 57.65 1441.92 56.7 1441.92 55.45L1442.82 55C1442.92 55.55 1443.17 56.025 1443.57 56.425C1444.02 56.825 1444.59 57.025 1445.29 57.025C1447.19 57.025 1448.42 56.825 1448.97 56.425C1449.57 55.975 1449.87 55.325 1449.87 54.475V30.475C1449.87 30.075 1449.69 29.625 1449.34 29.125C1449.04 28.625 1448.74 28.225 1448.44 27.925L1448.82 27.775C1449.37 28.175 1449.87 28.525 1450.32 28.825C1450.77 29.075 1451.34 29.2 1452.04 29.2C1453.14 29.2 1454.12 29.025 1454.97 28.675C1455.87 28.325 1456.77 27.95 1457.67 27.55C1458.62 27.15 1459.64 26.775 1460.74 26.425C1461.84 26.075 1463.19 25.9 1464.79 25.9C1466.64 25.9 1468.02 26.2 1468.92 26.8C1469.87 27.4 1470.54 28.275 1470.94 29.425C1471.39 30.525 1471.64 31.85 1471.69 33.4C1471.74 34.95 1471.82 36.675 1471.92 38.575C1472.07 41.625 1473.54 43.275 1476.34 43.525C1479.19 43.425 1481.27 42.3 1482.57 40.15C1483.87 37.95 1484.52 34.725 1484.52 30.475C1483.97 27.425 1483.19 25.05 1482.19 23.35C1481.19 21.65 1479.64 20.65 1477.54 20.35H1453.24C1451.49 20.6 1450.62 21.475 1450.62 22.975C1450.62 23.975 1450.87 24.725 1451.37 25.225C1451.87 25.675 1452.32 25.9 1452.72 25.9C1452.97 25.9 1453.12 25.875 1453.17 25.825C1452.57 25.675 1452.27 25.325 1452.27 24.775C1452.27 23.675 1452.77 23.125 1453.77 23.125C1454.27 23.125 1454.64 23.325 1454.89 23.725C1455.14 24.075 1455.27 24.475 1455.27 24.925C1455.02 26.375 1454.07 27.1 1452.42 27.1C1449.92 27.1 1448.49 25.375 1448.14 21.925C1448.14 21.025 1448.22 20.225 1448.37 19.525C1448.57 18.775 1448.77 18.1 1448.97 17.5C1449.17 16.9 1449.34 16.325 1449.49 15.775C1449.69 15.225 1449.79 14.65 1449.79 14.05C1449.79 12.2 1449.39 10.95 1448.59 10.3L1449.12 9.925C1449.47 10.525 1449.84 11.075 1450.24 11.575C1450.69 12.075 1451.22 12.525 1451.82 12.925C1452.42 13.275 1453.14 13.55 1453.99 13.75C1454.84 13.95 1455.89 14.05 1457.14 14.05H1484.67C1485.02 14.05 1485.44 13.9 1485.94 13.6C1486.44 13.25 1486.92 12.825 1487.37 12.325C1487.82 11.775 1488.19 11.15 1488.49 10.45C1488.84 9.7 1489.02 8.9 1489.02 8.05C1489.02 5.2 1487.69 2.875 1485.04 1.075L1485.42 0.249997C1488.27 1.7 1490.44 3.325 1491.94 5.125C1493.44 6.925 1494.19 9.025 1494.19 11.425C1494.19 16.675 1491.14 19.65 1485.04 20.35H1484.14ZM1507.34 69.175C1507.24 69.875 1507.02 70.525 1506.67 71.125C1506.32 71.775 1505.79 72.1 1505.09 72.1C1504.54 72.1 1504.09 72 1503.74 71.8C1503.39 71.65 1503.02 71.575 1502.62 71.575C1502.37 71.575 1502.22 71.6 1502.17 71.65C1502.12 71.75 1501.94 71.85 1501.64 71.95H1501.49C1501.94 71.75 1502.47 71.2 1503.07 70.3C1503.67 69.4 1503.97 68.425 1503.97 67.375C1503.97 67.025 1503.94 66.6 1503.89 66.1C1503.89 65.65 1503.84 65.2 1503.74 64.75C1503.69 64.3 1503.62 63.875 1503.52 63.475C1503.47 63.125 1503.39 62.875 1503.29 62.725C1502.74 64.225 1502.04 65.35 1501.19 66.1C1500.34 66.9 1499.52 67.525 1498.72 67.975C1497.97 68.425 1497.32 68.8 1496.77 69.1C1496.17 69.45 1495.87 69.925 1495.87 70.525H1495.72C1495.72 70.075 1495.62 69.75 1495.42 69.55C1495.17 69.35 1494.84 69.175 1494.44 69.025C1494.04 68.925 1493.59 68.825 1493.09 68.725C1492.59 68.675 1492.04 68.55 1491.44 68.35C1490.54 68.05 1489.74 67.325 1489.04 66.175C1488.34 65.075 1487.99 64 1487.99 62.95C1487.99 62.05 1488.27 61.275 1488.82 60.625C1489.32 59.975 1489.97 59.45 1490.77 59.05C1491.52 58.7 1492.37 58.425 1493.32 58.225C1494.27 58.075 1495.19 58 1496.09 58C1498.14 58 1500.12 58.4 1502.02 59.2V58.075C1502.02 57.075 1501.74 56.175 1501.19 55.375C1500.69 54.575 1499.77 54.175 1498.42 54.175C1497.87 54.175 1497.39 54.3 1496.99 54.55C1496.59 54.75 1496.39 55.075 1496.39 55.525C1496.39 55.675 1496.42 55.775 1496.47 55.825L1496.32 55.975C1496.07 55.875 1495.92 55.75 1495.87 55.6C1495.82 55.4 1495.79 55.25 1495.79 55.15C1495.79 54.55 1495.92 54 1496.17 53.5C1496.37 53 1496.62 52.55 1496.92 52.15C1497.22 51.7 1497.47 51.325 1497.67 51.025C1497.92 50.725 1498.04 50.475 1498.04 50.275C1498.04 50.075 1498.02 49.95 1497.97 49.9C1497.97 49.85 1497.97 49.775 1497.97 49.675L1498.12 49.525C1498.42 49.625 1498.59 49.825 1498.64 50.125C1498.69 50.375 1498.79 50.55 1498.94 50.65C1500.64 51.35 1501.89 52.25 1502.69 53.35C1503.54 54.4 1503.97 56.075 1503.97 58.375V59.275C1503.97 59.725 1503.94 60.025 1503.89 60.175C1504.89 60.825 1505.72 61.925 1506.37 63.475C1507.02 65.075 1507.34 66.7 1507.34 68.35V69.175ZM1501.49 61.15C1500.74 60.75 1499.89 60.45 1498.94 60.25C1497.99 60.05 1497.04 59.95 1496.09 59.95C1495.24 59.95 1494.37 60.1 1493.47 60.4C1492.57 60.7 1492.12 61.275 1492.12 62.125C1492.12 62.875 1492.54 63.525 1493.39 64.075C1494.19 64.625 1495.02 64.9 1495.87 64.9C1497.47 64.9 1498.72 64.5 1499.62 63.7C1500.52 62.9 1501.14 62.05 1501.49 61.15ZM1541.75 20.275C1544.35 22.125 1545.65 24.05 1545.65 26.05V26.35C1547.35 27.4 1548.55 28.775 1549.25 30.475C1550 32.125 1550.37 34.425 1550.37 37.375C1550.37 40.075 1550.1 42.35 1549.55 44.2C1549.05 46 1548.37 47.525 1547.52 48.775C1546.72 50.025 1545.85 51.05 1544.9 51.85C1543.95 52.6 1543.05 53.275 1542.2 53.875C1541.35 54.475 1540.62 55.075 1540.02 55.675C1539.42 56.275 1539.07 57 1538.97 57.85H1538.52C1538.17 56.35 1537.57 55.275 1536.72 54.625C1535.92 53.975 1535.05 53.375 1534.1 52.825C1533.2 52.275 1532.32 51.625 1531.47 50.875C1530.62 50.075 1530.02 48.85 1529.67 47.2C1528.97 48.9 1528.17 50.15 1527.27 50.95C1526.37 51.75 1525.5 52.45 1524.65 53.05C1523.85 53.6 1523.12 54.2 1522.47 54.85C1521.82 55.5 1521.4 56.5 1521.2 57.85H1520.75C1520.6 56.75 1520.2 55.9 1519.55 55.3C1518.95 54.7 1518.22 54.15 1517.37 53.65C1516.57 53.15 1515.7 52.6 1514.75 52C1513.85 51.4 1513 50.575 1512.2 49.525C1511.45 48.475 1510.8 47.1 1510.25 45.4C1509.75 43.7 1509.5 41.5 1509.5 38.8C1509.5 34.4 1510.22 30.65 1511.67 27.55C1513.17 24.45 1515.27 22.025 1517.97 20.275H1510.92C1507.87 20.275 1506.35 21.15 1506.35 22.9C1506.35 23.7 1506.57 24.35 1507.02 24.85C1507.47 25.3 1507.9 25.525 1508.3 25.525C1508.55 25.525 1508.7 25.5 1508.75 25.45C1508.15 25.15 1507.85 24.75 1507.85 24.25C1507.9 23.45 1508.37 23.05 1509.27 23.05C1510.17 23.15 1510.62 23.725 1510.62 24.775C1510.47 25.475 1510.15 25.975 1509.65 26.275C1509.15 26.525 1508.42 26.65 1507.47 26.65C1505.67 26.35 1504.57 24.8 1504.17 22C1504.17 21.2 1504.25 20.475 1504.4 19.825C1504.55 19.175 1504.72 18.575 1504.92 18.025C1505.12 17.425 1505.3 16.875 1505.45 16.375C1505.6 15.875 1505.67 15.35 1505.67 14.8C1505.67 13.25 1505.35 12.15 1504.7 11.5L1505.07 11.125C1505.27 11.525 1505.47 11.925 1505.67 12.325C1505.87 12.675 1506.15 13 1506.5 13.3C1506.9 13.55 1507.42 13.75 1508.07 13.9C1508.72 14.05 1509.62 14.125 1510.77 14.125H1541.07C1541.42 14.125 1541.85 13.975 1542.35 13.675C1542.85 13.325 1543.32 12.9 1543.77 12.4C1544.22 11.85 1544.6 11.225 1544.9 10.525C1545.2 9.775 1545.35 8.975 1545.35 8.125C1545.35 5.325 1544.02 3.025 1541.37 1.225L1541.9 0.474999C1547.6 3.275 1550.45 6.925 1550.45 11.425C1550.45 16.625 1547.55 19.575 1541.75 20.275ZM1545.87 34.075C1545.52 35.125 1544.72 36.05 1543.47 36.85C1542.22 37.65 1540.55 38.05 1538.45 38.05C1536.2 38.05 1534.35 37.5 1532.9 36.4C1531.5 35.25 1530.8 33.55 1530.8 31.3C1530.8 30.55 1530.97 29.8 1531.32 29.05C1531.67 28.3 1532.2 27.625 1532.9 27.025C1533.6 26.425 1534.45 25.95 1535.45 25.6C1536.5 25.2 1537.7 25 1539.05 25H1539.95C1540.45 25 1540.77 25.025 1540.92 25.075C1539.87 21.875 1536.17 20.275 1529.82 20.275C1527.27 20.275 1525.05 20.625 1523.15 21.325C1521.25 22.025 1519.67 22.975 1518.42 24.175C1517.22 25.375 1516.32 26.8 1515.72 28.45C1515.12 30.1 1514.82 31.875 1514.82 33.775C1514.82 36.825 1515.42 39.15 1516.62 40.75C1517.82 42.3 1519.55 43.175 1521.8 43.375C1526.1 43.375 1528.25 40.35 1528.25 34.3H1529.82C1529.97 37.45 1530.8 39.75 1532.3 41.2C1533.85 42.65 1536.15 43.375 1539.2 43.375C1543.7 43.375 1545.95 40.8 1545.95 35.65C1545.95 35.4 1545.92 35.15 1545.87 34.9C1545.87 34.65 1545.87 34.375 1545.87 34.075ZM1539.05 28.075C1538.25 28.075 1537.57 28.35 1537.02 28.9C1536.52 29.4 1536.27 30 1536.27 30.7C1536.27 31.55 1536.52 32.25 1537.02 32.8C1537.57 33.3 1538.25 33.55 1539.05 33.55C1539.75 33.55 1540.37 33.3 1540.92 32.8C1541.52 32.25 1541.82 31.55 1541.82 30.7C1541.82 30 1541.52 29.4 1540.92 28.9C1540.37 28.35 1539.75 28.075 1539.05 28.075ZM1594.87 20.65C1598.77 24.6 1600.82 29.6 1601.02 35.65C1601.02 38.8 1600.77 41.4 1600.27 43.45C1599.82 45.45 1599.19 47.1 1598.39 48.4C1597.64 49.7 1596.82 50.725 1595.92 51.475C1595.02 52.225 1594.12 52.9 1593.22 53.5C1592.37 54.05 1591.59 54.625 1590.89 55.225C1590.24 55.825 1589.77 56.625 1589.47 57.625H1589.02C1588.62 56.375 1588.02 55.5 1587.22 55C1586.47 54.45 1585.64 53.925 1584.74 53.425C1583.89 52.925 1583.02 52.3 1582.12 51.55C1581.27 50.75 1580.54 49.475 1579.94 47.725C1579.34 49.375 1578.57 50.575 1577.62 51.325C1576.72 52.025 1575.82 52.6 1574.92 53.05C1574.02 53.5 1573.19 54.025 1572.44 54.625C1571.69 55.175 1571.19 56.15 1570.94 57.55H1570.34C1569.89 56.5 1569.32 55.625 1568.62 54.925C1567.97 54.175 1567.24 53.475 1566.44 52.825C1565.69 52.175 1564.92 51.525 1564.12 50.875C1563.37 50.175 1562.67 49.35 1562.02 48.4C1561.42 47.45 1560.92 46.325 1560.52 45.025C1560.17 43.675 1559.99 42.025 1559.99 40.075C1559.99 38.075 1560.27 36.225 1560.82 34.525C1561.42 32.825 1562.22 31.35 1563.22 30.1C1564.27 28.85 1565.49 27.875 1566.89 27.175C1568.34 26.475 1569.92 26.125 1571.62 26.125C1573.22 26.125 1574.49 26.6 1575.44 27.55C1576.44 28.45 1576.94 29.65 1576.94 31.15C1576.94 32.3 1576.49 33.275 1575.59 34.075C1574.74 34.875 1573.74 35.275 1572.59 35.275C1571.44 35.275 1570.47 34.95 1569.67 34.3C1568.92 33.65 1568.54 32.7 1568.54 31.45C1568.54 30.45 1568.77 29.675 1569.22 29.125C1566.97 29.775 1565.64 32.025 1565.24 35.875C1565.54 40.925 1568.07 43.45 1572.82 43.45C1574.92 43.45 1576.54 42.8 1577.69 41.5C1578.89 40.15 1579.67 37.75 1580.02 34.3H1580.99C1581.64 40.45 1583.92 43.525 1587.82 43.525C1590.52 43.525 1592.49 42.75 1593.74 41.2C1595.04 39.6 1595.72 37.125 1595.77 33.775C1595.57 26.825 1592.99 22.45 1588.04 20.65H1561.57C1559.82 20.9 1558.94 21.675 1558.94 22.975C1558.94 23.975 1559.17 24.725 1559.62 25.225C1560.12 25.675 1560.57 25.9 1560.97 25.9C1561.27 25.9 1561.44 25.875 1561.49 25.825C1560.89 25.675 1560.59 25.3 1560.59 24.7C1560.59 23.7 1561.07 23.2 1562.02 23.2C1562.57 23.3 1562.94 23.475 1563.14 23.725C1563.34 23.975 1563.44 24.4 1563.44 25C1563.19 26.45 1562.29 27.175 1560.74 27.175C1559.44 27.175 1558.47 26.75 1557.82 25.9C1557.17 25.05 1556.72 23.75 1556.47 22C1556.47 21.1 1556.54 20.3 1556.69 19.6C1556.89 18.9 1557.09 18.25 1557.29 17.65C1557.49 17.05 1557.67 16.475 1557.82 15.925C1558.02 15.375 1558.12 14.8 1558.12 14.2C1558.12 12.45 1557.74 11.2 1556.99 10.45L1557.44 10.15C1558.09 11.35 1558.97 12.325 1560.07 13.075C1561.17 13.775 1562.89 14.125 1565.24 14.125H1596.44V20.65H1594.87ZM1628.19 33.7C1628.19 37.4 1627.89 40.425 1627.29 42.775C1626.74 45.075 1626.02 46.925 1625.12 48.325C1624.27 49.725 1623.34 50.825 1622.34 51.625C1621.34 52.375 1620.39 53.025 1619.49 53.575C1618.59 54.125 1617.84 54.725 1617.24 55.375C1616.64 55.975 1616.32 56.85 1616.27 58H1615.74C1615.39 56.8 1614.87 55.85 1614.17 55.15C1613.52 54.45 1612.77 53.825 1611.92 53.275C1611.12 52.725 1610.29 52.15 1609.44 51.55C1608.59 50.95 1607.82 50.175 1607.12 49.225C1606.42 48.225 1605.84 46.95 1605.39 45.4C1604.94 43.8 1604.72 41.75 1604.72 39.25C1604.72 37.15 1604.92 35.15 1605.32 33.25C1605.77 31.3 1606.42 29.6 1607.27 28.15C1608.17 26.7 1609.29 25.55 1610.64 24.7C1611.99 23.85 1613.59 23.425 1615.44 23.425C1617.04 23.425 1618.29 23.95 1619.19 25C1620.14 26.05 1620.62 27.375 1620.62 28.975C1620.62 30.375 1620.14 31.525 1619.19 32.425C1618.29 33.275 1617.14 33.7 1615.74 33.7C1614.74 33.7 1613.79 33.35 1612.89 32.65C1611.99 31.95 1611.54 31.025 1611.54 29.875C1611.54 29.525 1611.67 28.975 1611.92 28.225C1611.62 28.575 1611.34 28.85 1611.09 29.05C1610.89 29.2 1610.69 29.475 1610.49 29.875C1610.29 30.225 1610.12 30.775 1609.97 31.525C1609.82 32.225 1609.67 33.3 1609.52 34.75C1609.72 37.75 1610.34 39.95 1611.39 41.35C1612.49 42.7 1614.04 43.375 1616.04 43.375C1621.54 43.125 1624.29 39.65 1624.29 32.95C1624.29 28.4 1623.67 25.175 1622.42 23.275C1621.17 21.325 1619.57 20.35 1617.62 20.35H1588.59V14.05H1621.37C1621.92 14.05 1622.47 13.95 1623.02 13.75C1623.57 13.55 1623.97 13.25 1624.22 12.85L1624.74 13.3L1623.69 14.35C1623.39 14.65 1623.24 15.225 1623.24 16.075C1623.24 16.925 1623.82 18.225 1624.97 19.975C1626.12 21.725 1626.94 23.675 1627.44 25.825C1627.94 27.925 1628.19 30.55 1628.19 33.7ZM1643.18 16.75C1642.93 16 1642.63 15.35 1642.28 14.8C1641.98 14.2 1641.83 13.35 1641.83 12.25C1641.83 10.75 1642.16 9.425 1642.81 8.275C1643.51 7.075 1644.46 6.1 1645.66 5.35C1646.86 4.55 1648.26 3.95 1649.86 3.55C1651.46 3.15 1653.16 2.95 1654.96 2.95C1657.06 2.95 1658.96 3.175 1660.66 3.625C1662.41 4.025 1664.08 4.225 1665.68 4.225C1665.98 4.225 1666.23 4.175 1666.43 4.075C1666.63 3.925 1666.83 3.825 1667.03 3.775L1667.63 4.225C1667.23 4.475 1666.88 4.775 1666.58 5.125C1666.28 5.425 1666.13 5.825 1666.13 6.325C1666.13 7.025 1666.33 7.675 1666.73 8.275C1667.13 8.875 1667.61 9.575 1668.16 10.375C1668.76 11.175 1669.33 12.15 1669.88 13.3C1670.43 14.4 1670.86 15.825 1671.16 17.575C1674.16 20.175 1675.83 23.825 1676.18 28.525V53.725C1676.18 54.225 1676.48 54.675 1677.08 55.075C1677.73 55.475 1678.33 55.85 1678.88 56.2L1678.21 56.425C1677.51 56.075 1676.86 55.775 1676.26 55.525C1675.71 55.225 1674.86 55.075 1673.71 55.075C1672.71 55.075 1671.81 55.2 1671.01 55.45C1670.21 55.7 1669.43 55.975 1668.68 56.275C1667.93 56.525 1667.18 56.775 1666.43 57.025C1665.73 57.275 1664.98 57.4 1664.18 57.4C1662.63 57.4 1661.41 57.05 1660.51 56.35C1659.61 55.65 1659.16 54.725 1659.16 53.575L1660.06 53.05C1660.16 53.6 1660.38 54.075 1660.73 54.475C1661.13 54.875 1661.68 55.075 1662.38 55.075C1664.13 55.075 1665.31 54.875 1665.91 54.475C1666.51 54.075 1666.81 53.45 1666.81 52.6V26.125C1666.56 23.425 1665.61 21.5 1663.96 20.35C1662.31 19.15 1659.88 18.55 1656.68 18.55C1650.33 18.55 1646.88 21.075 1646.33 26.125V53.125C1646.33 54.025 1646.58 54.7 1647.08 55.15C1647.63 55.55 1648.83 55.75 1650.68 55.75C1651.33 55.75 1651.83 55.575 1652.18 55.225C1652.58 54.825 1652.86 54.35 1653.01 53.8L1653.83 54.25C1653.83 55.4 1653.36 56.325 1652.41 57.025C1651.51 57.725 1650.33 58.075 1648.88 58.075C1648.13 58.075 1647.38 57.95 1646.63 57.7C1645.88 57.45 1645.13 57.2 1644.38 56.95C1643.63 56.65 1642.83 56.375 1641.98 56.125C1641.13 55.875 1640.23 55.75 1639.28 55.75C1638.23 55.75 1637.36 55.9 1636.66 56.2C1636.01 56.45 1635.41 56.775 1634.86 57.175L1634.11 56.8C1634.66 56.5 1635.26 56.15 1635.91 55.75C1636.56 55.35 1636.88 54.9 1636.88 54.4V29.2C1637.23 23.45 1639.33 19.3 1643.18 16.75ZM1665.68 15.925C1664.78 13.175 1663.38 11.3 1661.48 10.3C1659.58 9.3 1657.48 8.8 1655.18 8.8C1654.18 8.8 1653.16 8.925 1652.11 9.175C1651.11 9.375 1650.21 9.725 1649.41 10.225C1648.61 10.725 1647.96 11.375 1647.46 12.175C1646.96 12.975 1646.71 13.975 1646.71 15.175V15.7C1646.71 15.95 1646.73 16.1 1646.78 16.15C1648.38 15.2 1649.98 14.55 1651.58 14.2C1653.23 13.8 1655.11 13.6 1657.21 13.6C1658.86 13.6 1660.28 13.775 1661.48 14.125C1662.68 14.475 1664.08 15.075 1665.68 15.925ZM1724.61 11.05C1724.61 13.45 1724.14 15.375 1723.19 16.825C1722.29 18.225 1720.79 19.25 1718.69 19.9C1721.49 21.75 1723.41 23.925 1724.46 26.425C1725.56 28.875 1726.11 31.725 1726.11 34.975C1726.11 38.175 1725.71 40.85 1724.91 43C1724.11 45.1 1723.09 46.85 1721.84 48.25C1720.64 49.6 1719.31 50.7 1717.86 51.55C1716.41 52.35 1715.04 53.075 1713.74 53.725C1712.44 54.375 1711.31 55.025 1710.36 55.675C1709.46 56.275 1708.91 57.05 1708.71 58H1708.19C1707.79 56.9 1707.06 56.05 1706.01 55.45C1704.96 54.85 1703.76 54.3 1702.41 53.8C1701.11 53.25 1699.74 52.65 1698.29 52C1696.84 51.3 1695.51 50.325 1694.31 49.075C1693.11 47.825 1692.11 46.175 1691.31 44.125C1690.56 42.075 1690.19 39.425 1690.19 36.175C1690.19 35.125 1690.29 33.875 1690.49 32.425C1690.74 30.975 1691.19 29.5 1691.84 28C1692.54 26.5 1693.54 25.075 1694.84 23.725C1696.14 22.375 1697.86 21.275 1700.01 20.425H1691.69C1688.59 20.425 1687.04 21.3 1687.04 23.05C1687.04 23.9 1687.24 24.55 1687.64 25C1688.09 25.4 1688.51 25.6 1688.91 25.6C1689.16 25.6 1689.31 25.575 1689.36 25.525C1688.81 25.375 1688.54 25 1688.54 24.4C1688.59 23.6 1689.04 23.2 1689.89 23.2C1690.79 23.3 1691.24 23.875 1691.24 24.925C1691.09 25.625 1690.76 26.1 1690.26 26.35C1689.76 26.6 1689.06 26.725 1688.16 26.725C1687.21 26.725 1686.46 26.3 1685.91 25.45C1685.41 24.6 1685.06 23.525 1684.86 22.225C1684.86 21.375 1684.94 20.625 1685.09 19.975C1685.24 19.325 1685.41 18.725 1685.61 18.175C1685.81 17.625 1685.99 17.1 1686.14 16.6C1686.29 16.1 1686.36 15.575 1686.36 15.025C1686.36 13.475 1686.04 12.375 1685.39 11.725L1685.76 11.5C1685.96 11.8 1686.14 12.125 1686.29 12.475C1686.44 12.775 1686.66 13.05 1686.96 13.3C1687.31 13.55 1687.79 13.75 1688.39 13.9C1688.99 14.05 1689.86 14.125 1691.01 14.125H1715.16C1715.51 14.125 1715.94 13.975 1716.44 13.675C1716.94 13.375 1717.41 12.975 1717.86 12.475C1718.31 11.975 1718.69 11.375 1718.99 10.675C1719.34 9.975 1719.51 9.225 1719.51 8.425C1719.51 5.625 1718.19 3.35 1715.54 1.6L1715.99 0.849998C1721.34 3.5 1724.21 6.9 1724.61 11.05ZM1719.59 31.975C1719.59 30.425 1719.29 28.95 1718.69 27.55C1718.14 26.15 1717.39 24.95 1716.44 23.95C1715.49 22.9 1714.39 22.075 1713.14 21.475C1711.89 20.875 1710.56 20.575 1709.16 20.575C1707.66 20.575 1706.24 20.875 1704.89 21.475C1703.54 22.075 1702.34 22.9 1701.29 23.95C1700.29 24.95 1699.49 26.15 1698.89 27.55C1698.29 28.95 1697.99 30.425 1697.99 31.975C1697.99 33.525 1698.29 35 1698.89 36.4C1699.49 37.75 1700.29 38.95 1701.29 40C1702.34 41 1703.54 41.8 1704.89 42.4C1706.24 43 1707.66 43.3 1709.16 43.3C1710.56 43.3 1711.89 43 1713.14 42.4C1714.39 41.8 1715.49 41 1716.44 40C1717.39 38.95 1718.14 37.75 1718.69 36.4C1719.29 35 1719.59 33.525 1719.59 31.975ZM1740.58 43.15C1743.13 42.9 1745.03 41.675 1746.28 39.475C1747.53 37.275 1748.15 34.2 1748.15 30.25C1748.15 28.85 1748.05 27.525 1747.85 26.275C1747.7 25.025 1747.38 23.925 1746.88 22.975C1746.38 22.025 1745.68 21.275 1744.78 20.725C1743.93 20.175 1742.83 19.9 1741.48 19.9C1740.93 19.9 1740.35 19.95 1739.75 20.05C1739.2 20.15 1738.68 20.35 1738.18 20.65C1737.68 20.95 1737.25 21.35 1736.9 21.85C1736.6 22.35 1736.45 23 1736.45 23.8C1736.45 24.25 1736.55 24.575 1736.75 24.775L1736.3 25.225C1735.85 24.825 1735.48 24.5 1735.18 24.25C1734.93 23.95 1734.73 23.65 1734.58 23.35C1734.48 23.05 1734.4 22.725 1734.35 22.375C1734.3 22.025 1734.28 21.575 1734.28 21.025C1734.28 19.625 1734.45 18.4 1734.8 17.35C1735.15 16.3 1735.33 15.175 1735.33 13.975C1735.33 13.225 1735.18 12.65 1734.88 12.25C1734.63 11.85 1734.43 11.375 1734.28 10.825L1734.58 10.6C1734.68 10.9 1734.88 11.25 1735.18 11.65C1735.48 12 1735.85 12.375 1736.3 12.775C1736.75 13.125 1737.25 13.425 1737.8 13.675C1738.4 13.925 1739.05 14.05 1739.75 14.05H1745.45C1746.45 14.05 1747.2 13.825 1747.7 13.375C1748.25 12.875 1748.68 12.375 1748.98 11.875L1749.2 12.25C1748.55 12.9 1748.23 13.85 1748.23 15.1C1748.23 16.1 1748.45 17.1 1748.9 18.1C1749.35 19.1 1749.85 20.3 1750.4 21.7C1750.95 23.1 1751.45 24.825 1751.9 26.875C1752.35 28.875 1752.58 31.375 1752.58 34.375C1752.58 37.675 1752.28 40.375 1751.68 42.475C1751.13 44.525 1750.43 46.225 1749.58 47.575C1749.33 47.925 1748.73 48.675 1747.78 49.825C1746.83 50.925 1745.58 51.95 1744.03 52.9H1743.95C1743.3 54.05 1742.8 54.975 1742.45 55.675C1742.1 56.325 1741.9 57.075 1741.85 57.925H1741.48C1741.48 56.875 1741.13 56.1 1740.43 55.6C1739.78 55.05 1738.95 54.625 1737.95 54.325C1737 54.025 1736 53.8 1734.95 53.65C1733.9 53.45 1733.03 53.2 1732.33 52.9C1729.78 51.9 1727.68 50.05 1726.03 47.35C1724.38 44.6 1723.08 40.7 1722.13 35.65L1721.75 33.325C1723.85 36.775 1726.2 39.3 1728.8 40.9C1731.4 42.45 1734.6 43.225 1738.4 43.225H1739.45C1740.05 43.225 1740.43 43.2 1740.58 43.15ZM1764.99 40.675C1766.49 40.675 1767.79 41.2 1768.89 42.25C1769.99 43.3 1770.54 44.6 1770.54 46.15C1770.54 47.6 1769.99 48.875 1768.89 49.975C1767.79 51.025 1766.49 51.55 1764.99 51.55C1763.54 51.55 1762.26 51.025 1761.16 49.975C1760.06 48.875 1759.51 47.6 1759.51 46.15C1759.51 44.6 1760.06 43.3 1761.16 42.25C1762.26 41.2 1763.54 40.675 1764.99 40.675Z" fill="black"/>
</svg>
