<svg width="1730" height="75" viewBox="0 0 1730 75" fill="none" xmlns="http://www.w3.org/2000/svg">
<path d="M33.325 48C31.025 48 29 47.525 27.25 46.575C25.5 45.575 23.85 43.95 22.3 41.7C20.85 43.85 19.175 45.45 17.275 46.5C15.425 47.5 13.1 48 10.3 48C7.15 48 4.675 47.125 2.875 45.375C1.125 43.625 0.25 41.55 0.25 39.15C0.25 37.3 0.7 35.7 1.6 34.35C2.5 33 3.65 31.975 5.05 31.275C6.45 30.525 7.85 30.15 9.25 30.15C10.35 30.15 10.9 30.7 10.9 31.8C10.9 32.8 10.4 33.375 9.4 33.525C7.65 33.775 6.25 34.425 5.2 35.475C4.2 36.475 3.7 37.7 3.7 39.15C3.7 40.7 4.3 42 5.5 43.05C6.75 44.05 8.35 44.55 10.3 44.55C12.8 44.55 14.85 44 16.45 42.9C18.05 41.8 19.425 40.125 20.575 37.875C20.925 37.275 21.425 36.975 22.075 36.975H22.45C23.1 36.975 23.6 37.25 23.95 37.8C25.25 40.1 26.625 41.8 28.075 42.9C29.525 44 31.275 44.55 33.325 44.55C35.525 44.55 37.425 43.775 39.025 42.225C40.625 40.675 41.425 38.45 41.425 35.55C41.425 31.95 40.3 28.625 38.05 25.575C35.8 22.475 32.45 20 28 18.15C23.55 16.25 18 15.3 11.35 15.3C10.9 15.3 10.5 15.125 10.15 14.775C9.8 14.425 9.625 14.025 9.625 13.575C9.625 13.125 9.8 12.725 10.15 12.375C10.5 12.025 10.9 11.85 11.35 11.85C17.15 11.85 22.15 12.525 26.35 13.875C30.6 15.175 34.075 16.975 36.775 19.275C39.525 21.525 41.55 24.05 42.85 26.85C44.2 29.65 44.875 32.55 44.875 35.55C44.875 38.3 44.325 40.6 43.225 42.45C42.175 44.25 40.775 45.625 39.025 46.575C37.275 47.525 35.375 48 33.325 48ZM98.5352 29.625C98.5352 31.825 98.1602 34.025 97.4102 36.225C96.6602 38.375 95.4602 40.35 93.8102 42.15C92.1602 43.9 89.9852 45.325 87.2852 46.425C84.6352 47.475 81.3602 48 77.4602 48C72.5102 48 68.3602 47.15 65.0102 45.45C61.7102 43.7 59.2102 41.4 57.5102 38.55C55.8602 35.7 55.0352 32.625 55.0352 29.325C55.0352 26.275 55.5602 23.5 56.6102 21C57.7102 18.5 59.1102 16.5 60.8102 15C62.5602 13.45 64.4352 12.675 66.4352 12.675C69.1852 12.675 71.3102 13.5 72.8102 15.15C74.3102 16.8 75.0602 18.775 75.0602 21.075C75.0602 23.425 74.2602 25.35 72.6602 26.85C71.0602 28.3 69.0352 29.025 66.5852 29.025C65.1852 29.025 63.8102 28.775 62.4602 28.275C61.1602 27.725 59.9352 27 58.7852 26.1C58.6852 26.6 58.6102 27.125 58.5602 27.675C58.5102 28.225 58.4852 28.775 58.4852 29.325C58.4852 32.125 59.2102 34.7 60.6602 37.05C62.1602 39.35 64.3102 41.175 67.1102 42.525C69.9602 43.875 73.4102 44.55 77.4602 44.55C81.7102 44.55 85.1102 43.825 87.6602 42.375C90.2602 40.875 92.1352 39 93.2852 36.75C94.4852 34.45 95.0852 32.075 95.0852 29.625C95.0852 27.425 94.6102 25.225 93.6602 23.025C92.7602 20.825 91.5852 18.9 90.1352 17.25H83.6102C83.1602 17.25 82.7602 17.075 82.4102 16.725C82.0602 16.375 81.8852 15.975 81.8852 15.525C81.8852 15.075 82.0602 14.675 82.4102 14.325C82.7602 13.975 83.1602 13.8 83.6102 13.8H90.9602C91.4602 13.8 91.8852 13.975 92.2352 14.325C94.0852 16.275 95.5852 18.65 96.7352 21.45C97.9352 24.25 98.5352 26.975 98.5352 29.625ZM66.5852 25.575C67.9852 25.575 69.1602 25.175 70.1102 24.375C71.1102 23.575 71.6102 22.475 71.6102 21.075C71.6102 19.675 71.1352 18.5 70.1852 17.55C69.2852 16.6 68.0352 16.125 66.4352 16.125C64.9352 16.125 63.6102 16.725 62.4602 17.925C61.3102 19.125 60.3852 20.625 59.6852 22.425C60.6852 23.325 61.7602 24.075 62.9102 24.675C64.1102 25.275 65.3352 25.575 66.5852 25.575ZM114.21 48.3C111.56 48.3 109.485 47.475 107.985 45.825C106.535 44.125 105.81 42.2 105.81 40.05C105.81 37.6 106.61 35.45 108.21 33.6C109.86 31.75 112.385 30.825 115.785 30.825C117.285 30.825 118.835 31.025 120.435 31.425C119.685 26.875 117.785 23.375 114.735 20.925C111.685 18.475 107.985 17.25 103.635 17.25H86.9102C86.4602 17.25 86.0602 17.075 85.7102 16.725C85.3602 16.375 85.1852 15.975 85.1852 15.525C85.1852 15.075 85.3602 14.675 85.7102 14.325C86.0602 13.975 86.4602 13.8 86.9102 13.8H103.635C107.635 13.8 111.16 14.65 114.21 16.35C117.31 18 119.735 20.45 121.485 23.7C123.285 26.9 124.185 30.825 124.185 35.475C124.185 39.675 123.21 42.875 121.26 45.075C119.31 47.225 116.96 48.3 114.21 48.3ZM114.21 44.85C116.21 44.85 117.785 43.975 118.935 42.225C120.135 40.475 120.735 38.225 120.735 35.475V35.1C119.985 34.85 119.185 34.65 118.335 34.5C117.485 34.35 116.635 34.275 115.785 34.275C113.635 34.275 112.01 34.85 110.91 36C109.81 37.1 109.26 38.45 109.26 40.05C109.26 41.3 109.685 42.425 110.535 43.425C111.435 44.375 112.66 44.85 114.21 44.85ZM134.73 72.075C134.33 72.075 133.955 71.9 133.605 71.55C133.305 71.25 133.155 70.9 133.155 70.5C133.155 70.4 133.23 70.1 133.38 69.6C133.48 69.2 133.58 68.75 133.68 68.25C133.83 67.75 133.905 67.175 133.905 66.525C133.905 64.875 133.405 63.55 132.405 62.55C131.455 61.6 130.055 61.125 128.205 61.125C126.355 61.125 124.855 61.7 123.705 62.85C122.505 64.05 121.38 65.625 120.33 67.575C120.08 68.125 119.605 68.4 118.905 68.4H118.53C117.83 68.4 117.355 68.1 117.105 67.5C116.155 65.55 115.005 63.975 113.655 62.775C112.305 61.625 110.655 61.05 108.705 61.05C106.905 61.05 105.555 61.525 104.655 62.475C103.705 63.425 103.23 64.575 103.23 65.925C103.23 66.725 103.33 67.4 103.53 67.95C103.73 68.5 103.93 69 104.13 69.45C104.38 69.95 104.505 70.3 104.505 70.5C104.505 70.9 104.355 71.25 104.055 71.55C103.705 71.9 103.33 72.075 102.93 72.075C102.28 72.075 101.805 71.775 101.505 71.175C101.105 70.325 100.78 69.5 100.53 68.7C100.23 67.9 100.08 66.975 100.08 65.925C100.08 63.825 100.78 61.95 102.18 60.3C103.53 58.7 105.705 57.9 108.705 57.9C110.905 57.9 112.83 58.425 114.48 59.475C116.08 60.525 117.505 62 118.755 63.9C120.005 62 121.405 60.525 122.955 59.475C124.455 58.475 126.205 57.975 128.205 57.975C131.105 57.975 133.305 58.75 134.805 60.3C136.305 61.9 137.055 63.975 137.055 66.525C137.055 67.125 136.98 67.775 136.83 68.475C136.73 69.175 136.53 69.975 136.23 70.875C135.98 71.675 135.48 72.075 134.73 72.075ZM168.105 48C165.605 48 163.505 47.5 161.805 46.5C160.105 45.5 158.555 43.925 157.155 41.775C155.805 43.875 154.28 45.45 152.58 46.5C150.88 47.5 148.855 48 146.505 48C143.305 48 140.655 46.925 138.555 44.775C136.455 42.625 135.405 39.5 135.405 35.4C135.405 32.15 136.405 28.925 138.405 25.725C140.455 22.475 143.155 19.65 146.505 17.25H137.505C137.055 17.25 136.655 17.075 136.305 16.725C135.955 16.375 135.78 15.975 135.78 15.525C135.78 15.075 135.955 14.675 136.305 14.325C136.655 13.975 137.055 13.8 137.505 13.8H167.73C168.18 13.8 168.58 13.975 168.93 14.325C169.28 14.675 169.455 15.075 169.455 15.525C169.455 15.975 169.28 16.375 168.93 16.725C168.58 17.075 168.18 17.25 167.73 17.25C171.28 19.65 174.08 22.475 176.13 25.725C178.23 28.925 179.28 32.15 179.28 35.4C179.28 39.5 178.18 42.625 175.98 44.775C173.83 46.925 171.205 48 168.105 48ZM168.105 44.55C170.405 44.55 172.255 43.725 173.655 42.075C175.105 40.425 175.83 38.2 175.83 35.4C175.83 33.05 175.155 30.75 173.805 28.5C172.505 26.2 170.73 24.075 168.48 22.125C166.23 20.175 163.655 18.55 160.755 17.25H153.405C150.605 18.55 148.105 20.175 145.905 22.125C143.705 24.025 141.98 26.125 140.73 28.425C139.48 30.725 138.855 33.05 138.855 35.4C138.855 38.2 139.555 40.425 140.955 42.075C142.355 43.725 144.205 44.55 146.505 44.55C148.605 44.55 150.33 43.975 151.68 42.825C153.08 41.675 154.33 40.025 155.43 37.875C155.73 37.275 156.23 36.975 156.93 36.975H157.305C157.955 36.975 158.455 37.275 158.805 37.875C160.005 40.125 161.28 41.8 162.63 42.9C164.03 44 165.855 44.55 168.105 44.55ZM167.73 13.8C170.08 13.8 172.005 13.4 173.505 12.6C175.005 11.75 176.28 10.475 177.33 8.775C177.73 8.225 178.23 7.95 178.83 7.95C179.33 7.95 179.73 8.125 180.03 8.475C180.38 8.775 180.555 9.175 180.555 9.675C180.555 9.975 180.48 10.275 180.33 10.575C178.93 12.775 177.255 14.45 175.305 15.6C173.355 16.7 170.83 17.25 167.73 17.25C166.58 17.25 166.005 16.675 166.005 15.525C166.005 14.375 166.58 13.8 167.73 13.8ZM209.754 48.3C206.154 48.3 203.004 47.575 200.304 46.125C197.654 44.625 195.604 42.6 194.154 40.05C192.704 37.45 191.979 34.525 191.979 31.275C191.979 28.475 192.629 25.85 193.929 23.4C195.229 20.9 197.004 18.85 199.254 17.25H191.454C191.004 17.25 190.604 17.075 190.254 16.725C189.904 16.375 189.729 15.975 189.729 15.525C189.729 15.075 189.904 14.675 190.254 14.325C190.604 13.975 191.004 13.8 191.454 13.8H219.054C219.504 13.8 219.904 13.975 220.254 14.325C220.604 14.675 220.779 15.075 220.779 15.525C220.779 16.175 220.504 16.65 219.954 16.95C222.254 18.55 224.054 20.625 225.354 23.175C226.654 25.725 227.304 28.425 227.304 31.275C227.304 34.475 226.579 37.375 225.129 39.975C223.729 42.525 221.729 44.55 219.129 46.05C216.529 47.55 213.404 48.3 209.754 48.3ZM195.429 31.275C195.429 33.875 196.029 36.2 197.229 38.25C198.429 40.3 200.104 41.925 202.254 43.125C204.404 44.275 206.904 44.85 209.754 44.85C212.654 44.85 215.154 44.25 217.254 43.05C219.354 41.85 220.979 40.225 222.129 38.175C223.279 36.125 223.854 33.825 223.854 31.275C223.854 28.825 223.254 26.55 222.054 24.45C220.904 22.3 219.279 20.575 217.179 19.275C215.079 17.925 212.654 17.25 209.904 17.25C207.154 17.25 204.679 17.9 202.479 19.2C200.329 20.5 198.604 22.225 197.304 24.375C196.054 26.475 195.429 28.775 195.429 31.275ZM219.054 13.8C221.404 13.8 223.329 13.4 224.829 12.6C226.329 11.75 227.604 10.475 228.654 8.775C229.054 8.225 229.554 7.95 230.154 7.95C230.654 7.95 231.054 8.125 231.354 8.475C231.704 8.775 231.879 9.175 231.879 9.675C231.879 9.975 231.804 10.275 231.654 10.575C230.254 12.775 228.579 14.45 226.629 15.6C224.679 16.7 222.154 17.25 219.054 17.25C217.904 17.25 217.329 16.675 217.329 15.525C217.329 14.375 217.904 13.8 219.054 13.8ZM253.254 40.05C253.254 37.6 254.054 35.45 255.654 33.6C257.304 31.75 259.829 30.825 263.229 30.825C264.679 30.825 266.204 31.025 267.804 31.425C267.254 28.425 266.179 25.875 264.579 23.775C262.979 21.625 261.129 20 259.029 18.9C256.979 17.8 254.954 17.25 252.954 17.25C251.004 17.25 249.354 17.725 248.004 18.675C246.704 19.625 245.704 20.8 245.004 22.2C244.354 23.6 244.029 25 244.029 26.4C244.029 28.65 244.329 30.75 244.929 32.7C245.579 34.65 245.904 36.625 245.904 38.625C245.904 41.425 245.129 43.7 243.579 45.45C242.029 47.15 239.704 48 236.604 48C234.354 48 232.154 47.325 230.004 45.975C227.904 44.625 225.879 42.425 223.929 39.375L224.979 35.025C228.629 41.375 232.504 44.55 236.604 44.55C238.604 44.55 240.079 44 241.029 42.9C241.979 41.8 242.454 40.375 242.454 38.625C242.454 36.625 242.129 34.65 241.479 32.7C240.879 30.75 240.579 28.65 240.579 26.4C240.579 24.45 241.029 22.5 241.929 20.55C242.879 18.6 244.279 17 246.129 15.75C247.979 14.45 250.254 13.8 252.954 13.8C255.004 13.8 257.129 14.275 259.329 15.225C261.529 16.175 263.554 17.575 265.404 19.425C267.254 21.225 268.754 23.475 269.904 26.175C271.054 28.875 271.629 31.975 271.629 35.475C271.629 39.675 270.654 42.875 268.704 45.075C266.754 47.225 264.404 48.3 261.654 48.3C259.004 48.3 256.929 47.475 255.429 45.825C253.979 44.125 253.254 42.2 253.254 40.05ZM268.179 35.475V35.1C267.429 34.85 266.629 34.65 265.779 34.5C264.929 34.35 264.079 34.275 263.229 34.275C261.079 34.275 259.454 34.85 258.354 36C257.254 37.1 256.704 38.45 256.704 40.05C256.704 41.3 257.129 42.425 257.979 43.425C258.879 44.375 260.104 44.85 261.654 44.85C263.654 44.85 265.229 43.975 266.379 42.225C267.579 40.475 268.179 38.225 268.179 35.475ZM341.121 51.45C340.771 51.45 340.421 51.325 340.071 51.075C339.771 50.875 339.571 50.6 339.471 50.25C338.971 48.8 338.396 47.45 337.746 46.2C337.146 44.9 336.496 43.7 335.796 42.6C334.096 43.75 332.196 44.7 330.096 45.45C328.046 46.15 325.846 46.5 323.496 46.5C321.146 46.5 319.246 46.1 317.796 45.3C316.396 44.5 315.371 43.525 314.721 42.375C314.121 41.175 313.821 40 313.821 38.85C313.821 37.7 314.121 36.55 314.721 35.4C315.371 34.2 316.396 33.2 317.796 32.4C319.246 31.55 321.121 31.125 323.421 31.125C325.771 31.125 328.071 31.725 330.321 32.925C332.571 34.075 334.621 35.7 336.471 37.8C338.621 35.9 340.296 33.75 341.496 31.35C342.746 28.9 343.371 26.65 343.371 24.6C343.371 22.25 342.746 20.375 341.496 18.975C340.246 17.525 338.546 16.8 336.396 16.8C334.146 16.8 332.296 17.525 330.846 18.975C329.396 20.375 328.021 22.175 326.721 24.375C326.371 24.975 325.896 25.275 325.296 25.275H324.921C324.271 25.275 323.771 24.975 323.421 24.375C322.271 22.175 320.871 20.35 319.221 18.9C317.621 17.45 315.621 16.725 313.221 16.725C311.171 16.725 309.546 17.4 308.346 18.75C307.196 20.05 306.621 21.6 306.621 23.4C306.621 24.95 307.121 26.5 308.121 28.05C308.271 28.35 308.346 28.65 308.346 28.95C308.346 29.4 308.196 29.8 307.896 30.15C307.596 30.5 307.171 30.675 306.621 30.675C306.021 30.675 305.521 30.4 305.121 29.85C303.821 27.7 303.171 25.55 303.171 23.4C303.171 20.6 304.071 18.225 305.871 16.275C307.671 14.275 310.121 13.275 313.221 13.275C315.821 13.275 318.071 13.95 319.971 15.3C321.921 16.6 323.646 18.35 325.146 20.55C326.596 18.3 328.221 16.55 330.021 15.3C331.821 14 333.946 13.35 336.396 13.35C339.446 13.35 341.946 14.35 343.896 16.35C345.846 18.3 346.821 21.05 346.821 24.6C346.821 27.05 346.071 29.725 344.571 32.625C343.121 35.525 341.121 38.15 338.571 40.5C339.871 42.4 341.021 44.6 342.021 47.1C342.571 48.5 342.846 49.375 342.846 49.725C342.846 50.125 342.696 50.5 342.396 50.85C342.096 51.25 341.671 51.45 341.121 51.45ZM323.496 43.05C325.396 43.05 327.221 42.775 328.971 42.225C330.721 41.625 332.321 40.85 333.771 39.9C330.671 36.35 327.221 34.575 323.421 34.575C321.521 34.575 320.021 35.025 318.921 35.925C317.821 36.775 317.271 37.75 317.271 38.85C317.271 39.95 317.821 40.925 318.921 41.775C320.021 42.625 321.546 43.05 323.496 43.05ZM376.82 48.3C373.22 48.3 370.07 47.575 367.37 46.125C364.72 44.625 362.67 42.6 361.22 40.05C359.77 37.45 359.045 34.525 359.045 31.275C359.045 28.475 359.695 25.85 360.995 23.4C362.295 20.9 364.07 18.85 366.32 17.25H358.52C358.07 17.25 357.67 17.075 357.32 16.725C356.97 16.375 356.795 15.975 356.795 15.525C356.795 15.075 356.97 14.675 357.32 14.325C357.67 13.975 358.07 13.8 358.52 13.8H386.12C386.57 13.8 386.97 13.975 387.32 14.325C387.67 14.675 387.845 15.075 387.845 15.525C387.845 16.175 387.57 16.65 387.02 16.95C389.32 18.55 391.12 20.625 392.42 23.175C393.72 25.725 394.37 28.425 394.37 31.275C394.37 34.475 393.645 37.375 392.195 39.975C390.795 42.525 388.795 44.55 386.195 46.05C383.595 47.55 380.47 48.3 376.82 48.3ZM362.495 31.275C362.495 33.875 363.095 36.2 364.295 38.25C365.495 40.3 367.17 41.925 369.32 43.125C371.47 44.275 373.97 44.85 376.82 44.85C379.72 44.85 382.22 44.25 384.32 43.05C386.42 41.85 388.045 40.225 389.195 38.175C390.345 36.125 390.92 33.825 390.92 31.275C390.92 28.825 390.32 26.55 389.12 24.45C387.97 22.3 386.345 20.575 384.245 19.275C382.145 17.925 379.72 17.25 376.97 17.25C374.22 17.25 371.745 17.9 369.545 19.2C367.395 20.5 365.67 22.225 364.37 24.375C363.12 26.475 362.495 28.775 362.495 31.275ZM386.12 13.8C388.47 13.8 390.395 13.4 391.895 12.6C393.395 11.75 394.67 10.475 395.72 8.775C396.12 8.225 396.62 7.95 397.22 7.95C397.72 7.95 398.12 8.125 398.42 8.475C398.77 8.775 398.945 9.175 398.945 9.675C398.945 9.975 398.87 10.275 398.72 10.575C397.32 12.775 395.645 14.45 393.695 15.6C391.745 16.7 389.22 17.25 386.12 17.25C384.97 17.25 384.395 16.675 384.395 15.525C384.395 14.375 384.97 13.8 386.12 13.8ZM404.645 44.55C407.445 44.55 409.57 43.7 411.02 42C412.47 40.25 413.195 38.025 413.195 35.325C413.195 32.475 412.47 29.5 411.02 26.4C409.57 23.25 407.795 20.525 405.695 18.225C405.395 17.925 405.245 17.55 405.245 17.1C405.245 16.6 405.395 16.2 405.695 15.9C406.045 15.55 406.47 15.375 406.97 15.375C407.52 15.375 407.945 15.575 408.245 15.975C409.845 17.725 411.27 19.7 412.52 21.9C413.82 24.05 414.82 26.3 415.52 28.65C416.27 30.95 416.645 33.175 416.645 35.325C416.645 39.075 415.62 42.125 413.57 44.475C411.52 46.825 408.495 48 404.495 48C402.195 48 399.845 47.35 397.445 46.05C395.095 44.75 392.895 42.575 390.845 39.525L391.895 34.725C393.945 38.475 396.07 41.05 398.27 42.45C400.52 43.85 402.645 44.55 404.645 44.55ZM481.567 48C479.267 48 477.242 47.525 475.492 46.575C473.742 45.575 472.092 43.95 470.542 41.7C469.092 43.85 467.417 45.45 465.517 46.5C463.667 47.5 461.342 48 458.542 48C455.392 48 452.917 47.125 451.117 45.375C449.367 43.625 448.492 41.55 448.492 39.15C448.492 37.3 448.942 35.7 449.842 34.35C450.742 33 451.892 31.975 453.292 31.275C454.692 30.525 456.092 30.15 457.492 30.15C458.592 30.15 459.142 30.7 459.142 31.8C459.142 32.8 458.642 33.375 457.642 33.525C455.892 33.775 454.492 34.425 453.442 35.475C452.442 36.475 451.942 37.7 451.942 39.15C451.942 40.7 452.542 42 453.742 43.05C454.992 44.05 456.592 44.55 458.542 44.55C461.042 44.55 463.092 44 464.692 42.9C466.292 41.8 467.667 40.125 468.817 37.875C469.167 37.275 469.667 36.975 470.317 36.975H470.692C471.342 36.975 471.842 37.25 472.192 37.8C473.492 40.1 474.867 41.8 476.317 42.9C477.767 44 479.517 44.55 481.567 44.55C483.767 44.55 485.667 43.775 487.267 42.225C488.867 40.675 489.667 38.45 489.667 35.55C489.667 31.95 488.542 28.625 486.292 25.575C484.042 22.475 480.692 20 476.242 18.15C471.792 16.25 466.242 15.3 459.592 15.3C459.142 15.3 458.742 15.125 458.392 14.775C458.042 14.425 457.867 14.025 457.867 13.575C457.867 13.125 458.042 12.725 458.392 12.375C458.742 12.025 459.142 11.85 459.592 11.85C465.392 11.85 470.392 12.525 474.592 13.875C478.842 15.175 482.317 16.975 485.017 19.275C487.767 21.525 489.792 24.05 491.092 26.85C492.442 29.65 493.117 32.55 493.117 35.55C493.117 38.3 492.567 40.6 491.467 42.45C490.417 44.25 489.017 45.625 487.267 46.575C485.517 47.525 483.617 48 481.567 48ZM502.527 31.5C502.527 28.55 503.252 25.825 504.702 23.325C506.202 20.775 508.202 18.725 510.702 17.175C513.202 15.625 516.002 14.85 519.102 14.85C522.202 14.85 524.977 15.65 527.427 17.25C529.927 18.8 531.902 20.85 533.352 23.4C534.802 25.9 535.527 28.6 535.527 31.5C535.527 34.4 534.802 37.15 533.352 39.75C531.952 42.3 530.002 44.375 527.502 45.975C525.052 47.525 522.252 48.3 519.102 48.3C515.952 48.3 513.127 47.525 510.627 45.975C508.127 44.375 506.152 42.3 504.702 39.75C503.252 37.2 502.527 34.45 502.527 31.5ZM505.977 31.5C505.977 33.85 506.552 36.05 507.702 38.1C508.852 40.1 510.402 41.725 512.352 42.975C514.352 44.225 516.602 44.85 519.102 44.85C521.602 44.85 523.827 44.225 525.777 42.975C527.727 41.725 529.252 40.075 530.352 38.025C531.502 35.975 532.077 33.8 532.077 31.5C532.077 29.2 531.502 27.05 530.352 25.05C529.202 23.05 527.652 21.425 525.702 20.175C523.752 18.925 521.552 18.3 519.102 18.3C516.652 18.3 514.427 18.925 512.427 20.175C510.477 21.375 508.902 22.975 507.702 24.975C506.552 26.975 505.977 29.15 505.977 31.5ZM564.18 48.675C560.68 48.675 557.455 48.325 554.505 47.625C551.555 46.925 549.13 46.1 547.23 45.15C546.58 44.8 546.255 44.325 546.255 43.725C546.255 43.225 546.43 42.8 546.78 42.45C547.13 42.1 547.505 41.925 547.905 41.925C548.255 41.925 548.53 42 548.73 42.15C550.48 43 552.68 43.725 555.33 44.325C558.03 44.925 560.98 45.225 564.18 45.225C568.68 45.225 572.255 44.35 574.905 42.6C577.605 40.8 578.955 38.525 578.955 35.775C578.955 32.525 577.28 30 573.93 28.2C573.48 30.55 572.255 32.6 570.255 34.35C568.255 36.1 565.48 36.975 561.93 36.975C559.63 36.975 557.78 36.625 556.38 35.925C555.03 35.225 554.055 34.325 553.455 33.225C552.855 32.125 552.555 31.025 552.555 29.925C552.555 28.775 552.905 27.65 553.605 26.55C554.305 25.4 555.48 24.45 557.13 23.7C558.78 22.95 561.005 22.575 563.805 22.575C566.305 22.575 568.53 22.8 570.48 23.25C570.38 22.25 570.205 21.25 569.955 20.25C569.755 19.25 569.43 18.25 568.98 17.25H546.03C545.58 17.25 545.18 17.075 544.83 16.725C544.48 16.375 544.305 15.975 544.305 15.525C544.305 15.075 544.48 14.675 544.83 14.325C545.18 13.975 545.58 13.8 546.03 13.8H571.38C571.83 13.8 572.23 13.975 572.58 14.325C572.93 14.675 573.105 15.075 573.105 15.525C573.105 15.975 572.905 16.4 572.505 16.8C573.005 18.05 573.355 19.325 573.555 20.625C573.805 21.875 573.955 23.1 574.005 24.3C576.955 25.5 579.08 27.15 580.38 29.25C581.73 31.3 582.405 33.475 582.405 35.775C582.405 38.075 581.73 40.2 580.38 42.15C579.08 44.1 577.08 45.675 574.38 46.875C571.68 48.075 568.28 48.675 564.18 48.675ZM562.005 33.525C564.505 33.525 566.53 32.875 568.08 31.575C569.63 30.275 570.48 28.7 570.63 26.85C568.58 26.3 566.305 26.025 563.805 26.025C561.555 26.025 559.68 26.4 558.18 27.15C556.73 27.85 556.005 28.775 556.005 29.925C556.005 31.025 556.58 31.9 557.73 32.55C558.88 33.2 560.305 33.525 562.005 33.525ZM599.055 48.3C596.405 48.3 594.33 47.475 592.83 45.825C591.38 44.125 590.655 42.2 590.655 40.05C590.655 37.6 591.455 35.45 593.055 33.6C594.705 31.75 597.23 30.825 600.63 30.825C602.13 30.825 603.68 31.025 605.28 31.425C604.53 26.875 602.63 23.375 599.58 20.925C596.53 18.475 592.83 17.25 588.48 17.25H571.755C571.305 17.25 570.905 17.075 570.555 16.725C570.205 16.375 570.03 15.975 570.03 15.525C570.03 15.075 570.205 14.675 570.555 14.325C570.905 13.975 571.305 13.8 571.755 13.8H588.48C592.48 13.8 596.005 14.65 599.055 16.35C602.155 18 604.58 20.45 606.33 23.7C608.13 26.9 609.03 30.825 609.03 35.475C609.03 39.675 608.055 42.875 606.105 45.075C604.155 47.225 601.805 48.3 599.055 48.3ZM599.055 44.85C601.055 44.85 602.63 43.975 603.78 42.225C604.98 40.475 605.58 38.225 605.58 35.475V35.1C604.83 34.85 604.03 34.65 603.18 34.5C602.33 34.35 601.48 34.275 600.63 34.275C598.48 34.275 596.855 34.85 595.755 36C594.655 37.1 594.105 38.45 594.105 40.05C594.105 41.3 594.53 42.425 595.38 43.425C596.28 44.375 597.505 44.85 599.055 44.85ZM652.968 48C650.468 48 648.368 47.5 646.668 46.5C644.968 45.5 643.418 43.925 642.018 41.775C640.668 43.875 639.143 45.45 637.443 46.5C635.743 47.5 633.718 48 631.368 48C628.168 48 625.518 46.925 623.418 44.775C621.318 42.625 620.268 39.5 620.268 35.4C620.268 32.15 621.268 28.925 623.268 25.725C625.318 22.475 628.018 19.65 631.368 17.25H622.368C621.918 17.25 621.518 17.075 621.168 16.725C620.818 16.375 620.643 15.975 620.643 15.525C620.643 15.075 620.818 14.675 621.168 14.325C621.518 13.975 621.918 13.8 622.368 13.8H652.593C653.043 13.8 653.443 13.975 653.793 14.325C654.143 14.675 654.318 15.075 654.318 15.525C654.318 15.975 654.143 16.375 653.793 16.725C653.443 17.075 653.043 17.25 652.593 17.25C656.143 19.65 658.943 22.475 660.993 25.725C663.093 28.925 664.143 32.15 664.143 35.4C664.143 39.5 663.043 42.625 660.843 44.775C658.693 46.925 656.068 48 652.968 48ZM652.968 44.55C655.268 44.55 657.118 43.725 658.518 42.075C659.968 40.425 660.693 38.2 660.693 35.4C660.693 33.05 660.018 30.75 658.668 28.5C657.368 26.2 655.593 24.075 653.343 22.125C651.093 20.175 648.518 18.55 645.618 17.25H638.268C635.468 18.55 632.968 20.175 630.768 22.125C628.568 24.025 626.843 26.125 625.593 28.425C624.343 30.725 623.718 33.05 623.718 35.4C623.718 38.2 624.418 40.425 625.818 42.075C627.218 43.725 629.068 44.55 631.368 44.55C633.468 44.55 635.193 43.975 636.543 42.825C637.943 41.675 639.193 40.025 640.293 37.875C640.593 37.275 641.093 36.975 641.793 36.975H642.168C642.818 36.975 643.318 37.275 643.668 37.875C644.868 40.125 646.143 41.8 647.493 42.9C648.893 44 650.718 44.55 652.968 44.55ZM652.593 13.8C654.943 13.8 656.868 13.4 658.368 12.6C659.868 11.75 661.143 10.475 662.193 8.775C662.593 8.225 663.093 7.95 663.693 7.95C664.193 7.95 664.593 8.125 664.893 8.475C665.243 8.775 665.418 9.175 665.418 9.675C665.418 9.975 665.343 10.275 665.193 10.575C663.793 12.775 662.118 14.45 660.168 15.6C658.218 16.7 655.693 17.25 652.593 17.25C651.443 17.25 650.868 16.675 650.868 15.525C650.868 14.375 651.443 13.8 652.593 13.8ZM694.618 48.3C691.018 48.3 687.868 47.575 685.168 46.125C682.518 44.625 680.468 42.6 679.018 40.05C677.568 37.45 676.843 34.525 676.843 31.275C676.843 28.475 677.493 25.85 678.793 23.4C680.093 20.9 681.868 18.85 684.118 17.25H676.318C675.868 17.25 675.468 17.075 675.118 16.725C674.768 16.375 674.593 15.975 674.593 15.525C674.593 15.075 674.768 14.675 675.118 14.325C675.468 13.975 675.868 13.8 676.318 13.8H703.918C704.368 13.8 704.768 13.975 705.118 14.325C705.468 14.675 705.643 15.075 705.643 15.525C705.643 16.175 705.368 16.65 704.818 16.95C707.118 18.55 708.918 20.625 710.218 23.175C711.518 25.725 712.168 28.425 712.168 31.275C712.168 34.475 711.443 37.375 709.993 39.975C708.593 42.525 706.593 44.55 703.993 46.05C701.393 47.55 698.268 48.3 694.618 48.3ZM680.293 31.275C680.293 33.875 680.893 36.2 682.093 38.25C683.293 40.3 684.968 41.925 687.118 43.125C689.268 44.275 691.768 44.85 694.618 44.85C697.518 44.85 700.018 44.25 702.118 43.05C704.218 41.85 705.843 40.225 706.993 38.175C708.143 36.125 708.718 33.825 708.718 31.275C708.718 28.825 708.118 26.55 706.918 24.45C705.768 22.3 704.143 20.575 702.043 19.275C699.943 17.925 697.518 17.25 694.768 17.25C692.018 17.25 689.543 17.9 687.343 19.2C685.193 20.5 683.468 22.225 682.168 24.375C680.918 26.475 680.293 28.775 680.293 31.275ZM703.918 13.8C706.268 13.8 708.193 13.4 709.693 12.6C711.193 11.75 712.468 10.475 713.518 8.775C713.918 8.225 714.418 7.95 715.018 7.95C715.518 7.95 715.918 8.125 716.218 8.475C716.568 8.775 716.743 9.175 716.743 9.675C716.743 9.975 716.668 10.275 716.518 10.575C715.118 12.775 713.443 14.45 711.493 15.6C709.543 16.7 707.018 17.25 703.918 17.25C702.768 17.25 702.193 16.675 702.193 15.525C702.193 14.375 702.768 13.8 703.918 13.8ZM722.443 44.55C725.243 44.55 727.368 43.7 728.818 42C730.268 40.25 730.993 38.025 730.993 35.325C730.993 32.475 730.268 29.5 728.818 26.4C727.368 23.25 725.593 20.525 723.493 18.225C723.193 17.925 723.043 17.55 723.043 17.1C723.043 16.6 723.193 16.2 723.493 15.9C723.843 15.55 724.268 15.375 724.768 15.375C725.318 15.375 725.743 15.575 726.043 15.975C727.643 17.725 729.068 19.7 730.318 21.9C731.618 24.05 732.618 26.3 733.318 28.65C734.068 30.95 734.443 33.175 734.443 35.325C734.443 39.075 733.418 42.125 731.368 44.475C729.318 46.825 726.293 48 722.293 48C719.993 48 717.643 47.35 715.243 46.05C712.893 44.75 710.693 42.575 708.643 39.525L709.693 34.725C711.743 38.475 713.868 41.05 716.068 42.45C718.318 43.85 720.443 44.55 722.443 44.55ZM803.865 51.45C803.515 51.45 803.165 51.325 802.815 51.075C802.515 50.875 802.315 50.6 802.215 50.25C801.715 48.8 801.14 47.45 800.49 46.2C799.89 44.9 799.24 43.7 798.54 42.6C796.84 43.75 794.94 44.7 792.84 45.45C790.79 46.15 788.59 46.5 786.24 46.5C783.89 46.5 781.99 46.1 780.54 45.3C779.14 44.5 778.115 43.525 777.465 42.375C776.865 41.175 776.565 40 776.565 38.85C776.565 37.7 776.865 36.55 777.465 35.4C778.115 34.2 779.14 33.2 780.54 32.4C781.99 31.55 783.865 31.125 786.165 31.125C788.515 31.125 790.815 31.725 793.065 32.925C795.315 34.075 797.365 35.7 799.215 37.8C801.365 35.9 803.04 33.75 804.24 31.35C805.49 28.9 806.115 26.65 806.115 24.6C806.115 22.25 805.49 20.375 804.24 18.975C802.99 17.525 801.29 16.8 799.14 16.8C796.89 16.8 795.04 17.525 793.59 18.975C792.14 20.375 790.765 22.175 789.465 24.375C789.115 24.975 788.64 25.275 788.04 25.275H787.665C787.015 25.275 786.515 24.975 786.165 24.375C785.015 22.175 783.615 20.35 781.965 18.9C780.365 17.45 778.365 16.725 775.965 16.725C773.915 16.725 772.29 17.4 771.09 18.75C769.94 20.05 769.365 21.6 769.365 23.4C769.365 24.95 769.865 26.5 770.865 28.05C771.015 28.35 771.09 28.65 771.09 28.95C771.09 29.4 770.94 29.8 770.64 30.15C770.34 30.5 769.915 30.675 769.365 30.675C768.765 30.675 768.265 30.4 767.865 29.85C766.565 27.7 765.915 25.55 765.915 23.4C765.915 20.6 766.815 18.225 768.615 16.275C770.415 14.275 772.865 13.275 775.965 13.275C778.565 13.275 780.815 13.95 782.715 15.3C784.665 16.6 786.39 18.35 787.89 20.55C789.34 18.3 790.965 16.55 792.765 15.3C794.565 14 796.69 13.35 799.14 13.35C802.19 13.35 804.69 14.35 806.64 16.35C808.59 18.3 809.565 21.05 809.565 24.6C809.565 27.05 808.815 29.725 807.315 32.625C805.865 35.525 803.865 38.15 801.315 40.5C802.615 42.4 803.765 44.6 804.765 47.1C805.315 48.5 805.59 49.375 805.59 49.725C805.59 50.125 805.44 50.5 805.14 50.85C804.84 51.25 804.415 51.45 803.865 51.45ZM786.24 43.05C788.14 43.05 789.965 42.775 791.715 42.225C793.465 41.625 795.065 40.85 796.515 39.9C793.415 36.35 789.965 34.575 786.165 34.575C784.265 34.575 782.765 35.025 781.665 35.925C780.565 36.775 780.015 37.75 780.015 38.85C780.015 39.95 780.565 40.925 781.665 41.775C782.765 42.625 784.29 43.05 786.24 43.05ZM839.564 48.3C835.964 48.3 832.814 47.575 830.114 46.125C827.464 44.625 825.414 42.6 823.964 40.05C822.514 37.45 821.789 34.525 821.789 31.275C821.789 28.475 822.439 25.85 823.739 23.4C825.039 20.9 826.814 18.85 829.064 17.25H821.264C820.814 17.25 820.414 17.075 820.064 16.725C819.714 16.375 819.539 15.975 819.539 15.525C819.539 15.075 819.714 14.675 820.064 14.325C820.414 13.975 820.814 13.8 821.264 13.8H848.864C849.314 13.8 849.714 13.975 850.064 14.325C850.414 14.675 850.589 15.075 850.589 15.525C850.589 16.175 850.314 16.65 849.764 16.95C852.064 18.55 853.864 20.625 855.164 23.175C856.464 25.725 857.114 28.425 857.114 31.275C857.114 34.475 856.389 37.375 854.939 39.975C853.539 42.525 851.539 44.55 848.939 46.05C846.339 47.55 843.214 48.3 839.564 48.3ZM825.239 31.275C825.239 33.875 825.839 36.2 827.039 38.25C828.239 40.3 829.914 41.925 832.064 43.125C834.214 44.275 836.714 44.85 839.564 44.85C842.464 44.85 844.964 44.25 847.064 43.05C849.164 41.85 850.789 40.225 851.939 38.175C853.089 36.125 853.664 33.825 853.664 31.275C853.664 28.825 853.064 26.55 851.864 24.45C850.714 22.3 849.089 20.575 846.989 19.275C844.889 17.925 842.464 17.25 839.714 17.25C836.964 17.25 834.489 17.9 832.289 19.2C830.139 20.5 828.414 22.225 827.114 24.375C825.864 26.475 825.239 28.775 825.239 31.275ZM848.864 13.8C851.214 13.8 853.139 13.4 854.639 12.6C856.139 11.75 857.414 10.475 858.464 8.775C858.864 8.225 859.364 7.95 859.964 7.95C860.464 7.95 860.864 8.125 861.164 8.475C861.514 8.775 861.689 9.175 861.689 9.675C861.689 9.975 861.614 10.275 861.464 10.575C860.064 12.775 858.389 14.45 856.439 15.6C854.489 16.7 851.964 17.25 848.864 17.25C847.714 17.25 847.139 16.675 847.139 15.525C847.139 14.375 847.714 13.8 848.864 13.8ZM867.389 44.55C870.189 44.55 872.314 43.7 873.764 42C875.214 40.25 875.939 38.025 875.939 35.325C875.939 32.475 875.214 29.5 873.764 26.4C872.314 23.25 870.539 20.525 868.439 18.225C868.139 17.925 867.989 17.55 867.989 17.1C867.989 16.6 868.139 16.2 868.439 15.9C868.789 15.55 869.214 15.375 869.714 15.375C870.264 15.375 870.689 15.575 870.989 15.975C872.589 17.725 874.014 19.7 875.264 21.9C876.564 24.05 877.564 26.3 878.264 28.65C879.014 30.95 879.389 33.175 879.389 35.325C879.389 39.075 878.364 42.125 876.314 44.475C874.264 46.825 871.239 48 867.239 48C864.939 48 862.589 47.35 860.189 46.05C857.839 44.75 855.639 42.575 853.589 39.525L854.639 34.725C856.689 38.475 858.814 41.05 861.014 42.45C863.264 43.85 865.389 44.55 867.389 44.55ZM944.311 48C942.011 48 939.986 47.525 938.236 46.575C936.486 45.575 934.836 43.95 933.286 41.7C931.836 43.85 930.161 45.45 928.261 46.5C926.411 47.5 924.086 48 921.286 48C918.136 48 915.661 47.125 913.861 45.375C912.111 43.625 911.236 41.55 911.236 39.15C911.236 37.3 911.686 35.7 912.586 34.35C913.486 33 914.636 31.975 916.036 31.275C917.436 30.525 918.836 30.15 920.236 30.15C921.336 30.15 921.886 30.7 921.886 31.8C921.886 32.8 921.386 33.375 920.386 33.525C918.636 33.775 917.236 34.425 916.186 35.475C915.186 36.475 914.686 37.7 914.686 39.15C914.686 40.7 915.286 42 916.486 43.05C917.736 44.05 919.336 44.55 921.286 44.55C923.786 44.55 925.836 44 927.436 42.9C929.036 41.8 930.411 40.125 931.561 37.875C931.911 37.275 932.411 36.975 933.061 36.975H933.436C934.086 36.975 934.586 37.25 934.936 37.8C936.236 40.1 937.611 41.8 939.061 42.9C940.511 44 942.261 44.55 944.311 44.55C946.511 44.55 948.411 43.775 950.011 42.225C951.611 40.675 952.411 38.45 952.411 35.55C952.411 31.95 951.286 28.625 949.036 25.575C946.786 22.475 943.436 20 938.986 18.15C934.536 16.25 928.986 15.3 922.336 15.3C921.886 15.3 921.486 15.125 921.136 14.775C920.786 14.425 920.611 14.025 920.611 13.575C920.611 13.125 920.786 12.725 921.136 12.375C921.486 12.025 921.886 11.85 922.336 11.85C928.136 11.85 933.136 12.525 937.336 13.875C941.586 15.175 945.061 16.975 947.761 19.275C950.511 21.525 952.536 24.05 953.836 26.85C955.186 29.65 955.861 32.55 955.861 35.55C955.861 38.3 955.311 40.6 954.211 42.45C953.161 44.25 951.761 45.625 950.011 46.575C948.261 47.525 946.361 48 944.311 48ZM965.271 31.5C965.271 28.55 965.996 25.825 967.446 23.325C968.946 20.775 970.946 18.725 973.446 17.175C975.946 15.625 978.746 14.85 981.846 14.85C984.946 14.85 987.721 15.65 990.171 17.25C992.671 18.8 994.646 20.85 996.096 23.4C997.546 25.9 998.271 28.6 998.271 31.5C998.271 34.4 997.546 37.15 996.096 39.75C994.696 42.3 992.746 44.375 990.246 45.975C987.796 47.525 984.996 48.3 981.846 48.3C978.696 48.3 975.871 47.525 973.371 45.975C970.871 44.375 968.896 42.3 967.446 39.75C965.996 37.2 965.271 34.45 965.271 31.5ZM968.721 31.5C968.721 33.85 969.296 36.05 970.446 38.1C971.596 40.1 973.146 41.725 975.096 42.975C977.096 44.225 979.346 44.85 981.846 44.85C984.346 44.85 986.571 44.225 988.521 42.975C990.471 41.725 991.996 40.075 993.096 38.025C994.246 35.975 994.821 33.8 994.821 31.5C994.821 29.2 994.246 27.05 993.096 25.05C991.946 23.05 990.396 21.425 988.446 20.175C986.496 18.925 984.296 18.3 981.846 18.3C979.396 18.3 977.171 18.925 975.171 20.175C973.221 21.375 971.646 22.975 970.446 24.975C969.296 26.975 968.721 29.15 968.721 31.5ZM1040.2 48C1037.7 48 1035.6 47.5 1033.9 46.5C1032.2 45.5 1030.65 43.925 1029.25 41.775C1027.9 43.875 1026.37 45.45 1024.67 46.5C1022.97 47.5 1020.95 48 1018.6 48C1015.4 48 1012.75 46.925 1010.65 44.775C1008.55 42.625 1007.5 39.5 1007.5 35.4C1007.5 32.15 1008.5 28.925 1010.5 25.725C1012.55 22.475 1015.25 19.65 1018.6 17.25H1009.6C1009.15 17.25 1008.75 17.075 1008.4 16.725C1008.05 16.375 1007.87 15.975 1007.87 15.525C1007.87 15.075 1008.05 14.675 1008.4 14.325C1008.75 13.975 1009.15 13.8 1009.6 13.8H1039.82C1040.27 13.8 1040.67 13.975 1041.02 14.325C1041.37 14.675 1041.55 15.075 1041.55 15.525C1041.55 15.975 1041.37 16.375 1041.02 16.725C1040.67 17.075 1040.27 17.25 1039.82 17.25C1043.37 19.65 1046.17 22.475 1048.22 25.725C1050.32 28.925 1051.37 32.15 1051.37 35.4C1051.37 39.5 1050.27 42.625 1048.07 44.775C1045.92 46.925 1043.3 48 1040.2 48ZM1040.2 44.55C1042.5 44.55 1044.35 43.725 1045.75 42.075C1047.2 40.425 1047.92 38.2 1047.92 35.4C1047.92 33.05 1047.25 30.75 1045.9 28.5C1044.6 26.2 1042.82 24.075 1040.57 22.125C1038.32 20.175 1035.75 18.55 1032.85 17.25H1025.5C1022.7 18.55 1020.2 20.175 1018 22.125C1015.8 24.025 1014.07 26.125 1012.82 28.425C1011.57 30.725 1010.95 33.05 1010.95 35.4C1010.95 38.2 1011.65 40.425 1013.05 42.075C1014.45 43.725 1016.3 44.55 1018.6 44.55C1020.7 44.55 1022.42 43.975 1023.77 42.825C1025.17 41.675 1026.42 40.025 1027.52 37.875C1027.82 37.275 1028.32 36.975 1029.02 36.975H1029.4C1030.05 36.975 1030.55 37.275 1030.9 37.875C1032.1 40.125 1033.37 41.8 1034.72 42.9C1036.12 44 1037.95 44.55 1040.2 44.55ZM1033.82 17.25C1033.37 17.25 1032.97 17.075 1032.62 16.725C1032.27 16.375 1032.1 15.975 1032.1 15.525C1032.1 15.075 1032.27 14.675 1032.62 14.325C1032.97 13.975 1033.37 13.8 1033.82 13.8H1036.45C1036.35 13.25 1036.25 12.625 1036.15 11.925C1036.05 11.225 1036 10.55 1036 9.9C1036 7.1 1036.82 4.825 1038.47 3.075C1040.17 1.275 1042.27 0.374996 1044.77 0.374996C1047.27 0.374996 1049.25 1.125 1050.7 2.625C1052.2 4.125 1052.95 5.975 1052.95 8.175C1052.95 9.675 1052.55 11.125 1051.75 12.525C1050.95 13.925 1049.6 15.075 1047.7 15.975C1045.8 16.825 1043.2 17.25 1039.9 17.25H1033.82ZM1039.45 9.9C1039.45 10.6 1039.5 11.3 1039.6 12C1039.75 12.65 1039.87 13.25 1039.97 13.8C1043.47 13.8 1045.92 13.325 1047.32 12.375C1048.77 11.375 1049.5 9.975 1049.5 8.175C1049.5 6.875 1049.05 5.825 1048.15 5.025C1047.3 4.225 1046.17 3.825 1044.77 3.825C1043.17 3.825 1041.87 4.425 1040.87 5.625C1039.92 6.775 1039.45 8.2 1039.45 9.9ZM1061.58 31.5C1061.58 28.55 1062.31 25.825 1063.76 23.325C1065.26 20.775 1067.26 18.725 1069.76 17.175C1072.26 15.625 1075.06 14.85 1078.16 14.85C1081.26 14.85 1084.03 15.65 1086.48 17.25C1088.98 18.8 1090.96 20.85 1092.41 23.4C1093.86 25.9 1094.58 28.6 1094.58 31.5C1094.58 34.4 1093.86 37.15 1092.41 39.75C1091.01 42.3 1089.06 44.375 1086.56 45.975C1084.11 47.525 1081.31 48.3 1078.16 48.3C1075.01 48.3 1072.18 47.525 1069.68 45.975C1067.18 44.375 1065.21 42.3 1063.76 39.75C1062.31 37.2 1061.58 34.45 1061.58 31.5ZM1065.03 31.5C1065.03 33.85 1065.61 36.05 1066.76 38.1C1067.91 40.1 1069.46 41.725 1071.41 42.975C1073.41 44.225 1075.66 44.85 1078.16 44.85C1080.66 44.85 1082.88 44.225 1084.83 42.975C1086.78 41.725 1088.31 40.075 1089.41 38.025C1090.56 35.975 1091.13 33.8 1091.13 31.5C1091.13 29.2 1090.56 27.05 1089.41 25.05C1088.26 23.05 1086.71 21.425 1084.76 20.175C1082.81 18.925 1080.61 18.3 1078.16 18.3C1075.71 18.3 1073.48 18.925 1071.48 20.175C1069.53 21.375 1067.96 22.975 1066.76 24.975C1065.61 26.975 1065.03 29.15 1065.03 31.5ZM1136.29 48C1133.79 48 1131.69 47.5 1129.99 46.5C1128.29 45.5 1126.74 43.925 1125.34 41.775C1123.99 43.875 1122.46 45.45 1120.76 46.5C1119.06 47.5 1117.04 48 1114.69 48C1111.49 48 1108.84 46.925 1106.74 44.775C1104.64 42.625 1103.59 39.5 1103.59 35.4C1103.59 32.85 1104.11 30.375 1105.16 27.975C1106.21 25.575 1107.66 23.45 1109.51 21.6C1106.56 19.35 1105.09 16.825 1105.09 14.025C1105.09 13.025 1105.34 11.95 1105.84 10.8C1106.39 9.6 1107.29 8.475 1108.54 7.425C1109.84 6.375 1111.59 5.525 1113.79 4.875C1116.04 4.175 1118.86 3.825 1122.26 3.825C1125.76 3.825 1129.01 4.4 1132.01 5.55C1135.06 6.65 1137.59 8.225 1139.59 10.275C1140.94 11.625 1142.06 13.025 1142.96 14.475C1143.91 15.925 1144.61 17.675 1145.06 19.725C1145.56 21.725 1145.81 24.225 1145.81 27.225V28.05C1146.36 29.2 1146.76 30.4 1147.01 31.65C1147.31 32.85 1147.46 34.1 1147.46 35.4C1147.46 39.5 1146.36 42.625 1144.16 44.775C1142.01 46.925 1139.39 48 1136.29 48ZM1125.41 14.7C1128.66 14.7 1131.74 15.4 1134.64 16.8C1137.54 18.2 1140.01 20.05 1142.06 22.35C1141.71 20.15 1141.14 18.325 1140.34 16.875C1139.54 15.375 1138.49 13.975 1137.19 12.675C1135.49 10.925 1133.31 9.6 1130.66 8.7C1128.01 7.75 1125.21 7.275 1122.26 7.275C1117.81 7.275 1114.41 8 1112.06 9.45C1109.71 10.85 1108.54 12.375 1108.54 14.025C1108.54 15.075 1108.84 16 1109.44 16.8C1110.09 17.6 1110.99 18.425 1112.14 19.275C1113.99 17.825 1116.04 16.7 1118.29 15.9C1120.59 15.1 1122.96 14.7 1125.41 14.7ZM1125.41 18.15C1122.91 18.15 1120.56 18.625 1118.36 19.575C1116.16 20.525 1114.21 21.8 1112.51 23.4C1110.81 25 1109.46 26.85 1108.46 28.95C1107.51 31 1107.04 33.15 1107.04 35.4C1107.04 38.2 1107.74 40.425 1109.14 42.075C1110.54 43.725 1112.39 44.55 1114.69 44.55C1116.79 44.55 1118.51 43.975 1119.86 42.825C1121.26 41.675 1122.51 40.025 1123.61 37.875C1123.91 37.275 1124.41 36.975 1125.11 36.975H1125.49C1126.14 36.975 1126.64 37.275 1126.99 37.875C1128.19 40.125 1129.46 41.8 1130.81 42.9C1132.21 44 1134.04 44.55 1136.29 44.55C1138.59 44.55 1140.44 43.725 1141.84 42.075C1143.29 40.425 1144.01 38.2 1144.01 35.4C1144.01 33.15 1143.51 31 1142.51 28.95C1141.51 26.9 1140.14 25.075 1138.39 23.475C1136.64 21.825 1134.64 20.525 1132.39 19.575C1130.19 18.625 1127.86 18.15 1125.41 18.15ZM1189.88 48C1189.48 48 1189.1 47.825 1188.75 47.475C1188.4 47.125 1188.23 46.725 1188.23 46.275C1188.23 45.975 1188.38 45.525 1188.68 44.925C1189.33 43.575 1189.85 42.1 1190.25 40.5C1190.65 38.85 1190.85 36.95 1190.85 34.8C1190.85 32.65 1190.43 30.5 1189.58 28.35C1188.78 26.15 1187.48 24.075 1185.68 22.125C1183.93 20.175 1181.65 18.55 1178.85 17.25H1175.4C1172.65 18.55 1170.43 20.175 1168.73 22.125C1167.08 24.025 1165.85 26.075 1165.05 28.275C1164.3 30.475 1163.93 32.65 1163.93 34.8C1163.93 36.95 1164.13 38.875 1164.53 40.575C1164.93 42.275 1165.53 43.9 1166.33 45.45C1166.48 45.65 1166.55 45.925 1166.55 46.275C1166.55 46.675 1166.38 47.075 1166.03 47.475C1165.73 47.825 1165.33 48 1164.83 48C1164.13 48 1163.63 47.7 1163.33 47.1C1162.43 45.35 1161.73 43.475 1161.23 41.475C1160.73 39.475 1160.48 37.25 1160.48 34.8C1160.48 31.8 1161.13 28.725 1162.43 25.575C1163.73 22.425 1165.88 19.65 1168.88 17.25H1159.13C1158.68 17.25 1158.28 17.075 1157.93 16.725C1157.58 16.375 1157.4 15.975 1157.4 15.525C1157.4 15.075 1157.58 14.675 1157.93 14.325C1158.28 13.975 1158.68 13.8 1159.13 13.8H1186.2C1186.65 13.8 1187.05 13.975 1187.4 14.325C1187.75 14.675 1187.93 15.075 1187.93 15.525C1187.93 15.975 1187.75 16.375 1187.4 16.725C1187.05 17.075 1186.65 17.25 1186.2 17.25H1185.45C1188.55 19.7 1190.8 22.5 1192.2 25.65C1193.6 28.75 1194.3 31.8 1194.3 34.8C1194.3 37.25 1194.05 39.45 1193.55 41.4C1193.05 43.3 1192.38 45.175 1191.53 47.025C1191.23 47.675 1190.68 48 1189.88 48ZM1186.2 13.8C1188.55 13.8 1190.48 13.4 1191.98 12.6C1193.48 11.75 1194.75 10.475 1195.8 8.775C1196.2 8.225 1196.7 7.95 1197.3 7.95C1197.8 7.95 1198.2 8.125 1198.5 8.475C1198.85 8.775 1199.03 9.175 1199.03 9.675C1199.03 9.975 1198.95 10.275 1198.8 10.575C1197.4 12.775 1195.73 14.45 1193.78 15.6C1191.83 16.7 1189.3 17.25 1186.2 17.25C1185.05 17.25 1184.48 16.675 1184.48 15.525C1184.48 14.375 1185.05 13.8 1186.2 13.8ZM1221 40.05C1221 37.6 1221.8 35.45 1223.4 33.6C1225.05 31.75 1227.58 30.825 1230.98 30.825C1232.43 30.825 1233.95 31.025 1235.55 31.425C1235 28.425 1233.93 25.875 1232.33 23.775C1230.73 21.625 1228.88 20 1226.78 18.9C1224.73 17.8 1222.7 17.25 1220.7 17.25C1218.75 17.25 1217.1 17.725 1215.75 18.675C1214.45 19.625 1213.45 20.8 1212.75 22.2C1212.1 23.6 1211.78 25 1211.78 26.4C1211.78 28.65 1212.08 30.75 1212.68 32.7C1213.33 34.65 1213.65 36.625 1213.65 38.625C1213.65 41.425 1212.88 43.7 1211.33 45.45C1209.78 47.15 1207.45 48 1204.35 48C1202.1 48 1199.9 47.325 1197.75 45.975C1195.65 44.625 1193.63 42.425 1191.68 39.375L1192.73 35.025C1196.38 41.375 1200.25 44.55 1204.35 44.55C1206.35 44.55 1207.83 44 1208.78 42.9C1209.73 41.8 1210.2 40.375 1210.2 38.625C1210.2 36.625 1209.88 34.65 1209.23 32.7C1208.63 30.75 1208.33 28.65 1208.33 26.4C1208.33 24.45 1208.78 22.5 1209.68 20.55C1210.63 18.6 1212.03 17 1213.88 15.75C1215.73 14.45 1218 13.8 1220.7 13.8C1222.75 13.8 1224.88 14.275 1227.08 15.225C1229.28 16.175 1231.3 17.575 1233.15 19.425C1235 21.225 1236.5 23.475 1237.65 26.175C1238.8 28.875 1239.38 31.975 1239.38 35.475C1239.38 39.675 1238.4 42.875 1236.45 45.075C1234.5 47.225 1232.15 48.3 1229.4 48.3C1226.75 48.3 1224.68 47.475 1223.18 45.825C1221.73 44.125 1221 42.2 1221 40.05ZM1235.93 35.475V35.1C1235.18 34.85 1234.38 34.65 1233.53 34.5C1232.68 34.35 1231.83 34.275 1230.98 34.275C1228.83 34.275 1227.2 34.85 1226.1 36C1225 37.1 1224.45 38.45 1224.45 40.05C1224.45 41.3 1224.88 42.425 1225.73 43.425C1226.63 44.375 1227.85 44.85 1229.4 44.85C1231.4 44.85 1232.98 43.975 1234.13 42.225C1235.33 40.475 1235.93 38.225 1235.93 35.475ZM1274.45 47.025C1274.45 47.475 1274.27 47.875 1273.92 48.225C1273.57 48.575 1273.17 48.75 1272.72 48.75C1272.27 48.75 1271.87 48.575 1271.52 48.225C1271.17 47.875 1271 47.475 1271 47.025C1271 43.775 1271.3 40.975 1271.9 38.625C1272.55 36.275 1273.45 34.55 1274.6 33.45C1275.3 32.75 1276.15 32.15 1277.15 31.65C1278.15 31.15 1279.3 30.9 1280.6 30.9C1282.3 30.9 1284.02 31.425 1285.77 32.475C1287.57 33.475 1289.3 35.3 1290.95 37.95C1292.1 39.85 1293.22 41.425 1294.32 42.675C1295.42 43.925 1296.92 44.55 1298.82 44.55C1300.47 44.55 1302 43.675 1303.4 41.925C1304.8 40.125 1305.5 37.7 1305.5 34.65C1305.5 30.05 1304.6 25.65 1302.8 21.45C1301 17.25 1298.55 13.475 1295.45 10.125C1292.5 14.225 1289.07 16.275 1285.17 16.275C1282.42 16.275 1280.35 15.475 1278.95 13.875C1277.55 12.225 1276.85 10.425 1276.85 8.475C1276.85 7.275 1277.15 6.05 1277.75 4.8C1278.4 3.55 1279.35 2.525 1280.6 1.725C1281.85 0.874999 1283.42 0.45 1285.32 0.45C1287.12 0.45 1288.87 0.874999 1290.57 1.725C1292.32 2.525 1294.42 4.175 1296.87 6.675C1300.62 10.375 1303.57 14.65 1305.72 19.5C1307.87 24.35 1308.95 29.4 1308.95 34.65C1308.95 37.7 1308.42 40.225 1307.37 42.225C1306.32 44.175 1305 45.625 1303.4 46.575C1301.85 47.525 1300.32 48 1298.82 48C1296.32 48 1294.27 47.3 1292.67 45.9C1291.12 44.45 1289.55 42.4 1287.95 39.75C1286.85 37.85 1285.65 36.475 1284.35 35.625C1283.1 34.775 1281.85 34.35 1280.6 34.35C1279.8 34.35 1279.1 34.5 1278.5 34.8C1277.9 35.1 1277.4 35.45 1277 35.85C1276.05 36.8 1275.37 38.275 1274.97 40.275C1274.62 42.225 1274.45 44.475 1274.45 47.025ZM1285.17 12.825C1286.72 12.825 1288.12 12.4 1289.37 11.55C1290.67 10.65 1291.87 9.35 1292.97 7.65C1291.42 6.25 1290.07 5.275 1288.92 4.725C1287.77 4.175 1286.57 3.9 1285.32 3.9C1283.67 3.9 1282.42 4.4 1281.57 5.4C1280.72 6.4 1280.3 7.425 1280.3 8.475C1280.3 9.575 1280.72 10.575 1281.57 11.475C1282.42 12.375 1283.62 12.825 1285.17 12.825ZM1334.87 46.275C1334.87 46.775 1334.7 47.2 1334.35 47.55C1334 47.85 1333.6 48 1333.15 48C1333 48 1332.75 47.95 1332.4 47.85C1332.05 47.75 1331.32 47.475 1330.22 47.025C1328.12 46.175 1326.12 44.925 1324.22 43.275C1322.37 41.625 1320.85 39.6 1319.65 37.2C1318.5 34.75 1317.92 31.95 1317.92 28.8C1317.92 23.6 1318.95 19.625 1321 16.875C1323.05 14.075 1325.6 12.675 1328.65 12.675C1331.3 12.675 1333.35 13.5 1334.8 15.15C1336.3 16.75 1337.05 18.65 1337.05 20.85C1337.05 23.2 1336.27 25.15 1334.72 26.7C1333.22 28.25 1331.2 29.025 1328.65 29.025C1327.4 29.025 1326.15 28.825 1324.9 28.425C1323.7 27.975 1322.55 27.4 1321.45 26.7C1321.4 27.05 1321.37 27.4 1321.37 27.75C1321.37 28.05 1321.37 28.4 1321.37 28.8C1321.37 32.6 1322.47 35.925 1324.67 38.775C1326.87 41.575 1329.87 43.525 1333.67 44.625C1334.47 44.875 1334.87 45.425 1334.87 46.275ZM1328.65 25.575C1330.15 25.575 1331.35 25.15 1332.25 24.3C1333.15 23.4 1333.6 22.25 1333.6 20.85C1333.6 19.55 1333.15 18.45 1332.25 17.55C1331.35 16.6 1330.15 16.125 1328.65 16.125C1326.95 16.125 1325.55 16.75 1324.45 18C1323.4 19.2 1322.6 20.825 1322.05 22.875C1323 23.675 1324.05 24.325 1325.2 24.825C1326.35 25.325 1327.5 25.575 1328.65 25.575ZM1388.39 48.6C1384.79 48.6 1381.97 48.025 1379.92 46.875C1377.87 45.675 1376.39 44.175 1375.49 42.375C1374.64 40.575 1374.22 38.775 1374.22 36.975C1374.22 33.825 1375.42 31.125 1377.82 28.875H1369.12C1368.67 28.875 1368.27 28.7 1367.92 28.35C1367.57 28 1367.39 27.6 1367.39 27.15C1367.39 26.7 1367.57 26.3 1367.92 25.95C1368.27 25.6 1368.67 25.425 1369.12 25.425H1386.74V17.25H1369.42C1368.97 17.25 1368.57 17.075 1368.22 16.725C1367.87 16.375 1367.69 15.975 1367.69 15.525C1367.69 15.075 1367.87 14.675 1368.22 14.325C1368.57 13.975 1368.97 13.8 1369.42 13.8H1398.07C1398.52 13.8 1398.92 13.975 1399.27 14.325C1399.62 14.675 1399.79 15.075 1399.79 15.525C1399.79 15.975 1399.62 16.375 1399.27 16.725C1398.92 17.075 1398.52 17.25 1398.07 17.25H1390.19V25.425H1407.59C1408.04 25.425 1408.44 25.6 1408.79 25.95C1409.14 26.3 1409.32 26.7 1409.32 27.15C1409.32 27.6 1409.14 28 1408.79 28.35C1408.44 28.7 1408.04 28.875 1407.59 28.875H1399.04C1401.49 31.075 1402.72 33.775 1402.72 36.975C1402.72 38.775 1402.29 40.575 1401.44 42.375C1400.59 44.125 1399.12 45.6 1397.02 46.8C1394.97 48 1392.09 48.6 1388.39 48.6ZM1388.39 45.15C1390.99 45.15 1393.09 44.75 1394.69 43.95C1396.29 43.15 1397.44 42.125 1398.14 40.875C1398.89 39.625 1399.27 38.325 1399.27 36.975C1399.27 35.125 1398.54 33.4 1397.09 31.8C1395.64 30.2 1393.52 29.225 1390.72 28.875H1386.59C1384.04 29.075 1381.92 29.925 1380.22 31.425C1378.52 32.925 1377.67 34.775 1377.67 36.975C1377.67 38.375 1378.02 39.7 1378.72 40.95C1379.47 42.15 1380.62 43.15 1382.17 43.95C1383.77 44.75 1385.84 45.15 1388.39 45.15ZM1398.07 13.8C1400.42 13.8 1402.34 13.4 1403.84 12.6C1405.34 11.75 1406.62 10.475 1407.67 8.775C1408.07 8.225 1408.57 7.95 1409.17 7.95C1409.67 7.95 1410.07 8.125 1410.37 8.475C1410.72 8.775 1410.89 9.175 1410.89 9.675C1410.89 9.975 1410.82 10.275 1410.67 10.575C1409.27 12.775 1407.59 14.45 1405.64 15.6C1403.69 16.7 1401.17 17.25 1398.07 17.25C1396.92 17.25 1396.34 16.675 1396.34 15.525C1396.34 14.375 1396.92 13.8 1398.07 13.8ZM1424.05 47.025C1424.05 47.475 1423.88 47.875 1423.53 48.225C1423.18 48.575 1422.78 48.75 1422.33 48.75C1421.88 48.75 1421.48 48.575 1421.13 48.225C1420.78 47.875 1420.6 47.475 1420.6 47.025C1420.6 43.775 1420.9 40.975 1421.5 38.625C1422.15 36.275 1423.05 34.55 1424.2 33.45C1424.9 32.75 1425.75 32.15 1426.75 31.65C1427.75 31.15 1428.9 30.9 1430.2 30.9C1431.9 30.9 1433.63 31.425 1435.38 32.475C1437.18 33.475 1438.9 35.3 1440.55 37.95C1441.7 39.85 1442.83 41.425 1443.93 42.675C1445.03 43.925 1446.53 44.55 1448.43 44.55C1450.08 44.55 1451.58 43.8 1452.93 42.3C1454.33 40.75 1455.03 38.45 1455.03 35.4C1455.03 33.1 1454.48 30.85 1453.38 28.65C1452.28 26.45 1450.75 24.375 1448.8 22.425C1446.9 20.475 1444.75 18.75 1442.35 17.25H1421.65C1421.2 17.25 1420.8 17.075 1420.45 16.725C1420.1 16.375 1419.93 15.975 1419.93 15.525C1419.93 15.075 1420.1 14.675 1420.45 14.325C1420.8 13.975 1421.2 13.8 1421.65 13.8H1446.7C1447.15 13.8 1447.55 13.975 1447.9 14.325C1448.25 14.675 1448.43 15.075 1448.43 15.525C1448.43 16.025 1448.2 16.45 1447.75 16.8C1451 19.4 1453.6 22.325 1455.55 25.575C1457.5 28.775 1458.48 32.05 1458.48 35.4C1458.48 38.45 1457.95 40.9 1456.9 42.75C1455.85 44.6 1454.55 45.95 1453 46.8C1451.45 47.6 1449.93 48 1448.43 48C1445.93 48 1443.88 47.3 1442.28 45.9C1440.73 44.45 1439.15 42.4 1437.55 39.75C1436.45 37.85 1435.25 36.475 1433.95 35.625C1432.7 34.775 1431.45 34.35 1430.2 34.35C1429.4 34.35 1428.7 34.5 1428.1 34.8C1427.5 35.1 1427 35.45 1426.6 35.85C1425.65 36.8 1424.98 38.275 1424.58 40.275C1424.23 42.225 1424.05 44.475 1424.05 47.025ZM1446.18 13.8C1448.53 13.8 1450.45 13.4 1451.95 12.6C1453.45 11.75 1454.73 10.475 1455.78 8.775C1456.18 8.225 1456.68 7.95 1457.28 7.95C1457.78 7.95 1458.18 8.125 1458.48 8.475C1458.83 8.775 1459 9.175 1459 9.675C1459 9.975 1458.93 10.275 1458.78 10.575C1457.38 12.775 1455.7 14.45 1453.75 15.6C1451.8 16.7 1449.28 17.25 1446.18 17.25C1445.03 17.25 1444.45 16.675 1444.45 15.525C1444.45 14.375 1445.03 13.8 1446.18 13.8ZM1475.92 74.025C1475.47 74.025 1475.1 73.875 1474.8 73.575C1473.6 72.275 1472.42 71.1 1471.27 70.05C1470.17 69.05 1469.1 68.125 1468.05 67.275C1466.8 69.225 1465.02 70.8 1462.72 72C1460.47 73.2 1457.87 73.8 1454.92 73.8C1451.27 73.8 1448.6 73 1446.9 71.4C1445.2 69.8 1444.35 68.025 1444.35 66.075C1444.35 64.775 1444.7 63.525 1445.4 62.325C1446.05 61.175 1447.15 60.225 1448.7 59.475C1450.25 58.775 1452.27 58.425 1454.77 58.425C1456.67 58.425 1458.62 58.725 1460.62 59.325C1462.57 59.975 1464.62 61.025 1466.77 62.475C1466.87 62.025 1466.95 61.575 1467 61.125C1467.1 60.675 1467.15 60.2 1467.15 59.7C1467.15 57.45 1466.95 55.275 1466.55 53.175C1466.15 51.075 1465.7 49.325 1465.2 47.925C1464.85 46.775 1464.6 45.975 1464.45 45.525C1464.3 45.075 1464.22 44.8 1464.22 44.7C1464.22 44.3 1464.35 43.95 1464.6 43.65C1464.9 43.3 1465.3 43.125 1465.8 43.125C1466.55 43.125 1467.05 43.475 1467.3 44.175C1468.3 46.775 1469.05 49.4 1469.55 52.05C1470.05 54.75 1470.3 57.3 1470.3 59.7C1470.3 61.3 1470.02 62.875 1469.47 64.425C1471.87 66.225 1474.4 68.525 1477.05 71.325C1477.35 71.675 1477.5 72.05 1477.5 72.45C1477.5 72.9 1477.32 73.275 1476.97 73.575C1476.67 73.875 1476.32 74.025 1475.92 74.025ZM1454.92 70.65C1457.27 70.65 1459.37 70.15 1461.22 69.15C1463.07 68.2 1464.5 66.95 1465.5 65.4C1463.55 64.05 1461.7 63.075 1459.95 62.475C1458.2 61.875 1456.47 61.575 1454.77 61.575C1452.57 61.575 1450.82 61.975 1449.52 62.775C1448.17 63.625 1447.5 64.725 1447.5 66.075C1447.5 67.425 1448.2 68.525 1449.6 69.375C1451 70.225 1452.77 70.65 1454.92 70.65ZM1497.05 41.7C1495.65 43.85 1494.1 45.45 1492.4 46.5C1490.7 47.5 1488.65 48 1486.25 48C1484.3 48 1482.45 47.525 1480.7 46.575C1479 45.625 1477.63 44.25 1476.58 42.45C1475.53 40.6 1475 38.35 1475 35.7C1475 32.45 1475.85 29.175 1477.55 25.875C1479.25 22.575 1481.7 19.7 1484.9 17.25H1476.88C1476.43 17.25 1476.03 17.075 1475.68 16.725C1475.33 16.375 1475.15 15.975 1475.15 15.525C1475.15 15.075 1475.33 14.675 1475.68 14.325C1476.03 13.975 1476.43 13.8 1476.88 13.8H1508.38C1508.83 13.8 1509.23 13.975 1509.58 14.325C1509.93 14.675 1510.1 15.075 1510.1 15.525C1510.1 15.975 1509.93 16.375 1509.58 16.725C1512.53 18.925 1514.85 21.15 1516.55 23.4C1518.3 25.65 1519.53 27.825 1520.23 29.925C1520.98 31.975 1521.35 33.8 1521.35 35.4C1521.35 39.2 1520.23 42.25 1517.98 44.55C1515.78 46.85 1512.7 48 1508.75 48C1506.7 48 1504.63 47.5 1502.53 46.5C1500.48 45.45 1498.65 43.85 1497.05 41.7ZM1517.6 32.775C1516.65 33.875 1515.5 34.75 1514.15 35.4C1512.85 36.05 1511.4 36.375 1509.8 36.375C1507.4 36.375 1505.48 35.6 1504.03 34.05C1502.58 32.45 1501.85 30.65 1501.85 28.65C1501.85 26.9 1502.38 25.225 1503.43 23.625C1504.53 22.025 1506.23 20.925 1508.53 20.325C1507.88 19.775 1507.18 19.25 1506.43 18.75C1505.73 18.25 1504.95 17.75 1504.1 17.25H1491.58C1488.78 18.55 1486.4 20.2 1484.45 22.2C1482.5 24.2 1481 26.375 1479.95 28.725C1478.95 31.025 1478.45 33.35 1478.45 35.7C1478.45 38.45 1479.2 40.625 1480.7 42.225C1482.25 43.775 1484.1 44.55 1486.25 44.55C1488.35 44.55 1490.1 43.975 1491.5 42.825C1492.95 41.675 1494.23 40.025 1495.33 37.875C1495.68 37.275 1496.18 36.975 1496.83 36.975H1497.2C1497.85 36.975 1498.35 37.275 1498.7 37.875C1499.9 40.175 1501.4 41.875 1503.2 42.975C1505.05 44.025 1506.9 44.55 1508.75 44.55C1511.65 44.55 1513.9 43.725 1515.5 42.075C1517.1 40.375 1517.9 38.15 1517.9 35.4C1517.9 35 1517.88 34.575 1517.83 34.125C1517.78 33.675 1517.7 33.225 1517.6 32.775ZM1516.18 29.1C1515.73 28.2 1515.1 27.2 1514.3 26.1C1513.5 24.95 1512.65 23.95 1511.75 23.1H1511.45C1509.5 23.1 1507.95 23.675 1506.8 24.825C1505.7 25.925 1505.15 27.2 1505.15 28.65C1505.15 29.8 1505.58 30.825 1506.43 31.725C1507.33 32.575 1508.45 33 1509.8 33C1511.2 33 1512.48 32.675 1513.63 32.025C1514.78 31.325 1515.63 30.35 1516.18 29.1ZM1508.38 13.8C1510.73 13.8 1512.65 13.4 1514.15 12.6C1515.65 11.75 1516.93 10.475 1517.98 8.775C1518.38 8.225 1518.88 7.95 1519.48 7.95C1519.98 7.95 1520.38 8.125 1520.68 8.475C1521.03 8.775 1521.2 9.175 1521.2 9.675C1521.2 9.975 1521.13 10.275 1520.98 10.575C1519.58 12.775 1517.9 14.45 1515.95 15.6C1514 16.7 1511.48 17.25 1508.38 17.25C1507.23 17.25 1506.65 16.675 1506.65 15.525C1506.65 14.375 1507.23 13.8 1508.38 13.8ZM1564.25 48C1561.8 48 1559.67 47.475 1557.87 46.425C1556.07 45.325 1554.37 43.7 1552.77 41.55C1551.32 43.75 1549.65 45.375 1547.75 46.425C1545.85 47.475 1543.5 48 1540.7 48C1537.55 48 1535.07 47.125 1533.27 45.375C1531.52 43.625 1530.65 41.55 1530.65 39.15C1530.65 37.45 1531.05 35.925 1531.85 34.575C1532.7 33.225 1533.82 32.15 1535.22 31.35C1536.62 30.55 1538.15 30.15 1539.8 30.15C1540.25 30.15 1540.6 30.325 1540.85 30.675C1541.15 30.975 1541.3 31.35 1541.3 31.8C1541.3 32.8 1540.8 33.375 1539.8 33.525C1538.05 33.775 1536.65 34.425 1535.6 35.475C1534.6 36.475 1534.1 37.7 1534.1 39.15C1534.1 40.7 1534.7 42 1535.9 43.05C1537.15 44.05 1538.75 44.55 1540.7 44.55C1543.2 44.55 1545.25 44 1546.85 42.9C1548.45 41.8 1549.82 40.125 1550.97 37.875C1551.32 37.275 1551.82 36.975 1552.47 36.975H1552.85C1553.45 36.975 1553.92 37.25 1554.27 37.8C1555.62 39.9 1557.05 41.55 1558.55 42.75C1560.1 43.95 1562 44.55 1564.25 44.55C1566.3 44.55 1568.02 43.825 1569.42 42.375C1570.82 40.875 1571.52 38.9 1571.52 36.45C1571.52 33.35 1570.32 30.1 1567.92 26.7C1565.52 23.25 1561.8 20.1 1556.75 17.25H1534.25C1533.8 17.25 1533.4 17.075 1533.05 16.725C1532.7 16.375 1532.52 15.975 1532.52 15.525C1532.52 15.075 1532.7 14.675 1533.05 14.325C1533.4 13.975 1533.8 13.8 1534.25 13.8H1562.37C1562.82 13.8 1563.22 13.975 1563.57 14.325C1563.92 14.675 1564.1 15.075 1564.1 15.525C1564.1 16.275 1563.72 16.8 1562.97 17.1C1567.22 20.15 1570.27 23.375 1572.12 26.775C1574.02 30.175 1574.97 33.4 1574.97 36.45C1574.97 38.8 1574.47 40.85 1573.47 42.6C1572.52 44.35 1571.22 45.7 1569.57 46.65C1567.97 47.55 1566.2 48 1564.25 48ZM1590.35 48.3C1587.7 48.3 1585.62 47.475 1584.12 45.825C1582.67 44.125 1581.95 42.2 1581.95 40.05C1581.95 37.6 1582.75 35.45 1584.35 33.6C1586 31.75 1588.52 30.825 1591.92 30.825C1593.42 30.825 1594.97 31.025 1596.57 31.425C1595.82 26.875 1593.92 23.375 1590.87 20.925C1587.82 18.475 1584.12 17.25 1579.77 17.25H1563.05C1562.6 17.25 1562.2 17.075 1561.85 16.725C1561.5 16.375 1561.32 15.975 1561.32 15.525C1561.32 15.075 1561.5 14.675 1561.85 14.325C1562.2 13.975 1562.6 13.8 1563.05 13.8H1579.77C1583.77 13.8 1587.3 14.65 1590.35 16.35C1593.45 18 1595.87 20.45 1597.62 23.7C1599.42 26.9 1600.32 30.825 1600.32 35.475C1600.32 39.675 1599.35 42.875 1597.4 45.075C1595.45 47.225 1593.1 48.3 1590.35 48.3ZM1590.35 44.85C1592.35 44.85 1593.92 43.975 1595.07 42.225C1596.27 40.475 1596.87 38.225 1596.87 35.475V35.1C1596.12 34.85 1595.32 34.65 1594.47 34.5C1593.62 34.35 1592.77 34.275 1591.92 34.275C1589.77 34.275 1588.15 34.85 1587.05 36C1585.95 37.1 1585.4 38.45 1585.4 40.05C1585.4 41.3 1585.82 42.425 1586.67 43.425C1587.57 44.375 1588.8 44.85 1590.35 44.85ZM1640.18 48C1639.78 48 1639.4 47.825 1639.05 47.475C1638.7 47.075 1638.53 46.65 1638.53 46.2C1638.53 46.1 1638.58 45.925 1638.68 45.675C1638.78 45.375 1639 44.825 1639.35 44.025C1639.8 43.025 1640.2 41.825 1640.55 40.425C1640.95 39.025 1641.15 37.2 1641.15 34.95C1641.15 32.9 1640.8 30.9 1640.1 28.95C1639.4 27 1638.43 25.25 1637.18 23.7C1635.93 22.1 1634.48 20.825 1632.83 19.875C1631.18 18.925 1629.4 18.45 1627.5 18.45C1624.95 18.45 1622.68 19.25 1620.68 20.85C1618.68 22.4 1617.1 24.425 1615.95 26.925C1614.8 29.425 1614.23 32.05 1614.23 34.8C1614.23 36.95 1614.43 38.875 1614.83 40.575C1615.23 42.275 1615.83 43.9 1616.63 45.45C1616.78 45.65 1616.85 45.925 1616.85 46.275C1616.85 46.675 1616.68 47.075 1616.33 47.475C1616.03 47.825 1615.63 48 1615.13 48C1614.43 48 1613.93 47.7 1613.63 47.1C1612.73 45.35 1612.03 43.475 1611.53 41.475C1611.03 39.475 1610.78 37.25 1610.78 34.8C1610.78 30.25 1612.03 26.175 1614.53 22.575C1613.23 21.225 1612.28 19.875 1611.68 18.525C1611.08 17.125 1610.78 15.75 1610.78 14.4C1610.78 12.8 1611.2 11.2 1612.05 9.6C1612.95 7.95 1614.45 6.575 1616.55 5.475C1618.7 4.375 1621.6 3.825 1625.25 3.825C1628.2 3.825 1630.75 4.325 1632.9 5.325C1635.1 6.275 1636.98 7.55 1638.53 9.15C1639.83 10.4 1640.85 11.8 1641.6 13.35C1642.4 14.85 1642.98 16.825 1643.33 19.275C1643.68 21.675 1643.85 24.925 1643.85 29.025V29.25C1644.1 30.2 1644.28 31.15 1644.38 32.1C1644.53 33.05 1644.6 34 1644.6 34.95C1644.6 37.45 1644.35 39.65 1643.85 41.55C1643.35 43.4 1642.68 45.225 1641.83 47.025C1641.53 47.675 1640.98 48 1640.18 48ZM1627.5 15C1630 15 1632.35 15.65 1634.55 16.95C1636.75 18.2 1638.63 19.875 1640.18 21.975C1639.98 19.275 1639.55 17.175 1638.9 15.675C1638.3 14.175 1637.38 12.8 1636.13 11.55C1634.88 10.25 1633.35 9.225 1631.55 8.475C1629.75 7.675 1627.65 7.275 1625.25 7.275C1621.55 7.275 1618.78 8.025 1616.93 9.525C1615.13 10.975 1614.23 12.6 1614.23 14.4C1614.23 16.2 1615.05 18 1616.7 19.8C1618.15 18.35 1619.8 17.2 1621.65 16.35C1623.5 15.45 1625.45 15 1627.5 15ZM1674.96 48.3C1671.36 48.3 1668.21 47.575 1665.51 46.125C1662.86 44.625 1660.81 42.6 1659.36 40.05C1657.91 37.45 1657.19 34.525 1657.19 31.275C1657.19 28.475 1657.84 25.85 1659.14 23.4C1660.44 20.9 1662.21 18.85 1664.46 17.25H1656.66C1656.21 17.25 1655.81 17.075 1655.46 16.725C1655.11 16.375 1654.94 15.975 1654.94 15.525C1654.94 15.075 1655.11 14.675 1655.46 14.325C1655.81 13.975 1656.21 13.8 1656.66 13.8H1684.26C1684.71 13.8 1685.11 13.975 1685.46 14.325C1685.81 14.675 1685.99 15.075 1685.99 15.525C1685.99 16.175 1685.71 16.65 1685.16 16.95C1687.46 18.55 1689.26 20.625 1690.56 23.175C1691.86 25.725 1692.51 28.425 1692.51 31.275C1692.51 34.475 1691.79 37.375 1690.34 39.975C1688.94 42.525 1686.94 44.55 1684.34 46.05C1681.74 47.55 1678.61 48.3 1674.96 48.3ZM1660.64 31.275C1660.64 33.875 1661.24 36.2 1662.44 38.25C1663.64 40.3 1665.31 41.925 1667.46 43.125C1669.61 44.275 1672.11 44.85 1674.96 44.85C1677.86 44.85 1680.36 44.25 1682.46 43.05C1684.56 41.85 1686.19 40.225 1687.34 38.175C1688.49 36.125 1689.06 33.825 1689.06 31.275C1689.06 28.825 1688.46 26.55 1687.26 24.45C1686.11 22.3 1684.49 20.575 1682.39 19.275C1680.29 17.925 1677.86 17.25 1675.11 17.25C1672.36 17.25 1669.89 17.9 1667.69 19.2C1665.54 20.5 1663.81 22.225 1662.51 24.375C1661.26 26.475 1660.64 28.775 1660.64 31.275ZM1684.26 13.8C1686.61 13.8 1688.54 13.4 1690.04 12.6C1691.54 11.75 1692.81 10.475 1693.86 8.775C1694.26 8.225 1694.76 7.95 1695.36 7.95C1695.86 7.95 1696.26 8.125 1696.56 8.475C1696.91 8.775 1697.09 9.175 1697.09 9.675C1697.09 9.975 1697.01 10.275 1696.86 10.575C1695.46 12.775 1693.79 14.45 1691.84 15.6C1689.89 16.7 1687.36 17.25 1684.26 17.25C1683.11 17.25 1682.54 16.675 1682.54 15.525C1682.54 14.375 1683.11 13.8 1684.26 13.8ZM1702.79 44.55C1705.59 44.55 1707.71 43.7 1709.16 42C1710.61 40.25 1711.34 38.025 1711.34 35.325C1711.34 32.475 1710.61 29.5 1709.16 26.4C1707.71 23.25 1705.94 20.525 1703.84 18.225C1703.54 17.925 1703.39 17.55 1703.39 17.1C1703.39 16.6 1703.54 16.2 1703.84 15.9C1704.19 15.55 1704.61 15.375 1705.11 15.375C1705.66 15.375 1706.09 15.575 1706.39 15.975C1707.99 17.725 1709.41 19.7 1710.66 21.9C1711.96 24.05 1712.96 26.3 1713.66 28.65C1714.41 30.95 1714.79 33.175 1714.79 35.325C1714.79 39.075 1713.76 42.125 1711.71 44.475C1709.66 46.825 1706.64 48 1702.64 48C1700.34 48 1697.99 47.35 1695.59 46.05C1693.24 44.75 1691.04 42.575 1688.99 39.525L1690.04 34.725C1692.09 38.475 1694.21 41.05 1696.41 42.45C1698.66 43.85 1700.79 44.55 1702.79 44.55ZM1725.98 40.275C1726.98 40.275 1727.81 40.675 1728.46 41.475C1729.11 42.225 1729.43 43.175 1729.43 44.325C1729.43 45.725 1729.11 46.75 1728.46 47.4C1727.86 48.05 1727.06 48.375 1726.06 48.375C1725.26 48.375 1724.48 48.05 1723.73 47.4C1722.98 46.75 1722.61 45.725 1722.61 44.325C1722.61 43.125 1722.91 42.15 1723.51 41.4C1724.11 40.65 1724.93 40.275 1725.98 40.275Z" fill="black"/>
</svg>
