<svg width="1648" height="80" viewBox="0 0 1648 80" fill="none" xmlns="http://www.w3.org/2000/svg">
<path d="M18.925 15.8C18.925 14.6 19.675 14 21.175 14C23.525 14 25.775 14.325 27.925 14.975C33.575 16.625 37.925 19.65 40.975 24.05C43.925 28.3 45.4 33.3 45.4 39.05C45.4 43.3 44.25 47.1 41.95 50.45C39.3 54.15 35.925 56 31.825 56C29.925 56 28.125 55.575 26.425 54.725C24.475 53.875 23.05 52.725 22.15 51.275C21.05 52.675 19.525 53.825 17.575 54.725C15.675 55.675 13.825 56.15 12.025 56.15C8.275 56.15 5.35 54.925 3.25 52.475C1.2 50.125 0.175 47.075 0.175 43.325C0.175 40.025 1.35 37.125 3.7 34.625C5.95 32.225 8.75 31.025 12.1 31.025C13.75 31.025 15.4 31.425 17.05 32.225C19.1 33.125 20.125 34.225 20.125 35.525C20.125 36.275 19.7 36.825 18.85 37.175C17.35 37.925 16.5 38.4 16.3 38.6C15.25 39.35 14.5 40.575 14.05 42.275L13.75 45.2C13.6 46.3 12.95 46.85 11.8 46.85C10.4 46.85 9.7 45.875 9.7 43.925C9.7 40.025 11.175 37.2 14.125 35.45C13.475 35.05 12.7 34.85 11.8 34.85C9.6 34.85 7.75 35.85 6.25 37.85C4.9 39.65 4.225 41.7 4.225 44C4.225 46.55 4.925 48.55 6.325 50C7.775 51.45 9.775 52.175 12.325 52.175C13.875 52.175 15.525 51.575 17.275 50.375C19.125 49.025 20.05 47.625 20.05 46.175C20.05 44.725 20.3 43.4 20.8 42.2C21.4 40.5 22.225 39.65 23.275 39.65C24.625 39.65 25.3 40.3 25.3 41.6C25.3 42 25.075 42.525 24.625 43.175C24.175 43.775 23.95 44.45 23.95 45.2C23.95 47.05 24.75 48.675 26.35 50.075C27.9 51.425 29.6 52.1 31.45 52.1C34.55 52.1 37.05 50.75 38.95 48.05C40.6 45.6 41.425 42.775 41.425 39.575C41.425 32.225 38.725 26.3 33.325 21.8C32.375 21 30.825 20.175 28.675 19.325C26.575 18.525 24.775 18.05 23.275 17.9C22.275 17.8 21.4 17.65 20.65 17.45C19.5 17.15 18.925 16.6 18.925 15.8ZM49.8877 35.675L53.9377 35.975C53.9377 40.825 55.5127 44.75 58.6627 47.75C61.8127 50.65 65.8127 52.1 70.6627 52.1C75.4127 52.1 79.3127 50.35 82.3627 46.85C85.2127 43.55 86.6377 39.525 86.6377 34.775C86.6377 29.775 84.8877 25.45 81.3877 21.8H76.4377C75.2877 21.8 74.7127 21.225 74.7127 20.075C74.7127 18.875 75.3627 18.275 76.6627 18.275H87.6877C87.7877 20.625 87.7877 21.8 87.6877 21.8H86.4127C89.2627 25.35 90.6877 29.85 90.6877 35.3C90.6877 41.15 88.7127 46.05 84.7627 50C80.9127 54 76.0127 56 70.0627 56C63.9627 56 59.0877 54.125 55.4377 50.375C51.7377 46.675 49.8877 41.775 49.8877 35.675ZM49.8877 35.675C49.8877 30.725 51.2627 26.425 54.0127 22.775C53.9627 22.675 53.6127 22.375 52.9627 21.875C52.5127 21.575 52.2377 21 52.1377 20.15C52.0877 19.6 52.2377 19.125 52.5877 18.725C52.9877 18.325 53.4627 18.125 54.0127 18.125C55.2627 18.125 56.3127 18.7 57.1627 19.85C58.1627 21 58.6877 22.15 58.7377 23.3C59.0877 28 61.2627 30.5 65.2627 30.8C66.4127 30.9 66.9877 31.55 66.9877 32.75C66.9877 34.05 66.0627 34.7 64.2127 34.7C62.3627 34.7 60.6127 34.025 58.9627 32.675C57.4627 31.475 56.3377 29.95 55.5877 28.1C54.4877 30.6 53.9377 33.225 53.9377 35.975L49.8877 35.675ZM102.876 18.275C104.276 18.275 105.951 18.675 107.901 19.475C111.801 21.025 114.776 23.55 116.826 27.05C118.826 30.45 119.826 34.275 119.826 38.525C119.826 43.275 118.801 47.25 116.751 50.45C114.251 54.15 110.776 56 106.326 56C102.276 56 99.1014 54.8 96.8014 52.4C94.6014 50.05 93.5014 47.075 93.5014 43.475C93.5014 40.175 94.5764 37.35 96.7264 35C98.9264 32.55 101.676 31.3 104.976 31.25C106.476 31.2 108.151 31.55 110.001 32.3C112.151 33.2 113.251 34.35 113.301 35.75C113.301 36.55 112.726 37.125 111.576 37.475C110.026 38.125 108.951 38.7 108.351 39.2C107.801 39.8 107.401 40.525 107.151 41.375C106.901 42.225 106.826 43.25 106.926 44.45C107.026 46.1 106.376 46.975 104.976 47.075C103.626 47.125 102.926 46.15 102.876 44.15C102.726 40.1 104.351 37.225 107.751 35.525C107.201 35.225 106.276 35.075 104.976 35.075C102.826 35.075 101.051 35.975 99.6514 37.775C98.3014 39.425 97.6264 41.35 97.6264 43.55C97.6264 46 98.4264 48.075 100.026 49.775C101.776 51.625 103.926 52.5 106.476 52.4C109.726 52.3 112.176 50.75 113.826 47.75C115.226 45.3 115.926 42.275 115.926 38.675C115.926 34.125 114.576 30.225 111.876 26.975C108.926 23.525 105.251 21.8 100.851 21.8H74.1514V18.275H102.876ZM124.977 69.5C124.977 72.15 124.077 74.4 122.277 76.25C120.477 78.15 118.277 79.1 115.677 79.1C114.527 79.1 113.952 78.575 113.952 77.525C113.952 76.725 114.327 76.2 115.077 75.95C119.577 74.9 121.827 72.7 121.827 69.35C121.827 67.75 121.252 66.25 120.102 64.85C118.952 63.55 117.552 62.9 115.902 62.9C114.852 62.9 113.727 63.15 112.527 63.65C111.027 64.2 110.277 64.875 110.277 65.675C110.527 66.325 110.727 66.95 110.877 67.55C110.977 68.15 111.027 68.75 111.027 69.35C111.027 70.6 110.502 71.225 109.452 71.225C108.552 71.225 107.927 70.525 107.577 69.125C107.027 66.975 106.577 65.65 106.227 65.15C105.227 63.75 103.602 63.05 101.352 63.05C99.6018 63.05 98.1018 63.625 96.8518 64.775C95.6018 65.975 94.9768 67.45 94.9768 69.2C94.9768 71.4 95.6768 73.05 97.0768 74.15C97.4268 74.45 97.9268 74.725 98.5768 74.975C99.2268 75.275 100.027 75.6 100.977 75.95C102.377 76.4 103.077 76.925 103.077 77.525C103.077 78.575 102.402 79.1 101.052 79.1C98.5518 79.1 96.4018 78.125 94.6018 76.175C92.7518 74.275 91.8268 72.05 91.8268 69.5C91.8268 66.7 92.7518 64.4 94.6018 62.6C96.4018 60.8 98.7018 59.9 101.502 59.9C104.202 59.9 106.477 60.825 108.327 62.675C110.477 60.825 112.777 59.9 115.227 59.9C118.227 59.9 120.577 60.75 122.277 62.45C124.077 64.2 124.977 66.55 124.977 69.5ZM164.427 39.8C164.427 43.95 163.352 47.625 161.202 50.825C158.802 54.425 155.602 56.225 151.602 56.225C149.852 56.225 148.127 55.75 146.427 54.8C144.727 53.8 143.652 52.75 143.202 51.65C141.402 54.75 138.552 56.3 134.652 56.3C130.502 56.3 127.252 54.375 124.902 50.525C122.952 47.225 121.977 43.35 121.977 38.9C121.977 31.35 124.727 25.65 130.227 21.8H124.302C123.052 21.6 122.427 21 122.427 20C122.427 18.85 123.127 18.275 124.527 18.275H158.802C159.302 17.275 159.852 16.275 160.452 15.275C161.102 14.225 161.777 13.175 162.477 12.125C164.677 9.025 166.327 7.4 167.427 7.25C168.177 7.15 168.777 7.3 169.227 7.7C169.727 8.1 169.927 8.675 169.827 9.425C169.727 9.725 169.077 10.475 167.877 11.675C167.277 12.275 166.577 13.125 165.777 14.225C165.027 15.325 164.177 16.675 163.227 18.275C162.827 19.125 162.327 20 161.727 20.9C161.327 21.5 160.802 21.8 160.152 21.8H155.727C158.427 23.8 160.552 26.475 162.102 29.825C163.652 32.925 164.427 36.25 164.427 39.8ZM151.902 52.475C154.852 52.325 157.077 50.775 158.577 47.825C159.827 45.325 160.452 42.6 160.452 39.65C160.452 35.15 159.002 31.1 156.102 27.5C153.052 23.7 149.277 21.8 144.777 21.8H140.277C135.727 21.8 132.102 23.45 129.402 26.75C126.952 29.9 125.727 33.8 125.727 38.45C125.727 41.65 126.477 44.675 127.977 47.525C129.877 50.925 132.252 52.625 135.102 52.625C138.002 52.625 139.852 51.225 140.652 48.425V47.825C140.602 46.225 140.877 44.525 141.477 42.725C142.227 40.725 143.202 39.725 144.402 39.725C145.702 39.725 146.352 40.375 146.352 41.675C146.352 42.075 146.127 42.6 145.677 43.25C145.277 43.9 145.027 44.575 144.927 45.275C144.877 45.925 144.927 46.65 145.077 47.45C145.377 48.75 146.177 49.95 147.477 51.05C148.877 52.15 150.352 52.625 151.902 52.475ZM191.351 21.875C187.051 21.875 183.376 23.35 180.326 26.3C177.376 29.35 175.901 33.025 175.901 37.325C175.901 41.375 177.351 44.85 180.251 47.75C183.201 50.7 186.876 52.175 191.276 52.175C195.426 52.175 199.051 50.675 202.151 47.675C205.251 44.475 206.801 41.025 206.801 37.325C206.801 33.125 205.301 29.475 202.301 26.375C199.301 23.375 195.651 21.875 191.351 21.875ZM210.701 37.325C210.701 42.775 208.826 47.225 205.076 50.675C201.376 54.225 196.776 56 191.276 56C185.726 56 181.151 54.225 177.551 50.675C173.851 47.125 172.001 42.625 172.001 37.175C172.001 34.275 172.701 31.425 174.101 28.625C175.551 25.775 177.426 23.5 179.726 21.8H173.801C172.651 21.8 172.076 21.225 172.076 20.075C172.076 19.575 172.276 19.15 172.676 18.8C173.076 18.45 173.526 18.275 174.026 18.275H206.276C206.826 17.275 207.401 16.275 208.001 15.275C208.651 14.225 209.326 13.175 210.026 12.125C212.226 9.025 213.901 7.4 215.051 7.25C215.751 7.15 216.326 7.3 216.776 7.7C217.276 8.1 217.451 8.675 217.301 9.425C217.301 9.675 216.676 10.425 215.426 11.675C214.826 12.275 214.126 13.125 213.326 14.225C212.576 15.325 211.726 16.675 210.776 18.275C210.376 19.125 209.876 20 209.276 20.9C208.876 21.5 208.351 21.8 207.701 21.8H203.126C208.176 25.6 210.701 30.775 210.701 37.325ZM218.794 52.025C223.644 51.375 226.069 46.9 226.069 38.6C226.069 38.35 226.069 38.075 226.069 37.775C226.069 37.475 226.044 37.125 225.994 36.725C225.994 36.275 225.969 35.9 225.919 35.6C225.919 35.3 225.919 35.025 225.919 34.775C225.919 30.225 227.319 26.35 230.119 23.15C232.969 19.85 236.644 18.2 241.144 18.2C246.594 18.2 250.919 20.2 254.119 24.2C257.019 27.85 258.469 32.45 258.469 38C258.469 42.9 257.694 46.875 256.144 49.925C254.094 53.975 250.869 56 246.469 56C242.919 56 240.119 54.525 238.069 51.575C236.369 49.125 235.519 45.975 235.519 42.125C235.519 39.675 235.969 37.25 236.869 34.85C237.919 31.9 239.319 30.425 241.069 30.425C241.169 30.425 241.269 30.45 241.369 30.5C241.469 30.5 241.569 30.5 241.669 30.5C242.569 30.75 243.194 32.1 243.544 34.55C243.994 37.3 244.919 39.075 246.319 39.875L248.944 40.7C250.044 41 250.594 41.55 250.594 42.35C250.644 43 250.369 43.45 249.769 43.7C249.219 43.95 248.594 44.025 247.894 43.925C245.644 43.725 243.869 42.775 242.569 41.075C241.369 39.625 240.719 37.95 240.619 36.05C239.919 36.65 239.569 38.85 239.569 42.65C239.569 45 240.119 47.1 241.219 48.95C242.519 51.15 244.294 52.25 246.544 52.25C249.344 52.25 251.494 50.725 252.994 47.675C254.144 45.225 254.719 42.45 254.719 39.35C254.719 34.9 253.694 31 251.644 27.65C249.144 23.75 245.819 21.8 241.669 21.8C238.369 21.8 235.594 23.125 233.344 25.775C231.194 28.275 230.119 31.225 230.119 34.625V39.5C230.119 43.8 229.344 47.35 227.794 50.15C225.694 53.85 222.544 55.8 218.344 56C214.594 56.2 211.669 54.95 209.569 52.25C207.719 49.9 206.794 46.875 206.794 43.175C206.794 42.575 207.069 42.05 207.619 41.6C208.119 41.15 208.669 40.9 209.269 40.85C210.269 40.75 210.769 41.425 210.769 42.875C210.619 44.975 211.169 46.975 212.419 48.875C213.819 51.025 215.644 52.1 217.894 52.1C218.044 52.1 218.194 52.1 218.344 52.1C218.494 52.05 218.644 52.025 218.794 52.025ZM303.113 56.15C302.863 56.15 302.613 56.15 302.363 56.15C302.163 56.2 301.938 56.225 301.688 56.225C297.988 56.225 294.813 55.15 292.163 53C289.363 50.7 287.988 47.95 288.038 44.75C288.038 42.1 288.863 40.025 290.513 38.525C292.163 37.025 294.238 36.25 296.738 36.2C298.638 36.1 300.613 36.725 302.663 38.075C304.963 39.475 306.113 41.025 306.113 42.725C306.113 42.925 306.088 43.15 306.038 43.4C306.038 43.65 306.013 43.975 305.963 44.375C305.813 45.075 305.738 45.625 305.738 46.025C305.738 48.175 306.313 50.325 307.463 52.475C312.063 51.575 315.788 49.325 318.638 45.725C321.388 42.225 322.663 38.2 322.463 33.65C322.163 26.2 319.488 22.25 314.438 21.8C312.488 21.65 310.713 22.4 309.113 24.05C307.563 25.65 306.788 27.5 306.788 29.6C306.788 29.85 306.788 30.175 306.788 30.575C306.838 30.925 306.863 31.2 306.863 31.4C306.863 32.8 306.263 33.5 305.063 33.5C304.013 33.5 303.363 32.925 303.113 31.775L302.513 27.8C302.063 26.05 301.013 24.575 299.363 23.375C297.863 22.325 296.613 21.8 295.613 21.8C293.163 21.75 291.163 22.8 289.613 24.95C288.363 26.8 287.738 28.95 287.738 31.4C287.738 31.65 287.788 32.05 287.888 32.6C287.988 33.15 288.038 33.55 288.038 33.8C288.038 35.2 287.438 35.9 286.238 35.9C284.888 35.9 284.138 34.375 283.988 31.325C283.888 27.725 284.813 24.7 286.763 22.25C288.863 19.55 291.613 18.2 295.013 18.2C299.263 18.2 302.588 20.05 304.988 23.75C307.188 20.05 310.488 18.2 314.888 18.2C322.388 18.2 326.163 23.475 326.213 34.025C326.263 39.575 324.763 44.3 321.713 48.2C318.463 52.25 314.163 54.725 308.813 55.625C309.213 56.575 310.138 57.45 311.588 58.25C313.388 59.3 315.413 59.825 317.663 59.825C322.013 59.825 325.013 58.175 326.663 54.875C326.813 54.175 326.963 53.5 327.113 52.85C327.313 52.2 327.513 51.525 327.713 50.825C328.163 49.175 328.963 48.35 330.113 48.35C330.913 48.3 331.388 48.725 331.538 49.625C331.638 49.875 331.638 50.625 331.538 51.875C331.288 54.825 329.938 57.45 327.488 59.75C324.738 62.25 321.513 63.5 317.813 63.5C315.263 63.5 312.638 62.85 309.938 61.55C307.088 60.1 305.188 58.25 304.238 56L303.113 56.15ZM302.063 44.45C302.063 44.3 302.088 44.075 302.138 43.775C302.188 43.475 302.213 43.275 302.213 43.175C302.013 42.225 301.338 41.425 300.188 40.775C299.088 40.175 297.938 39.925 296.738 40.025C295.188 40.175 293.938 40.75 292.988 41.75C292.088 42.7 291.688 43.9 291.788 45.35C292.038 47.6 293.313 49.425 295.613 50.825C297.513 52.075 299.563 52.7 301.763 52.7H303.563C302.613 50.5 302.138 48.775 302.138 47.525L302.063 44.45ZM353.07 21.875C348.77 21.875 345.095 23.35 342.045 26.3C339.095 29.35 337.62 33.025 337.62 37.325C337.62 41.375 339.07 44.85 341.97 47.75C344.92 50.7 348.595 52.175 352.995 52.175C357.145 52.175 360.77 50.675 363.87 47.675C366.97 44.475 368.52 41.025 368.52 37.325C368.52 33.125 367.02 29.475 364.02 26.375C361.02 23.375 357.37 21.875 353.07 21.875ZM372.42 37.325C372.42 42.775 370.545 47.225 366.795 50.675C363.095 54.225 358.495 56 352.995 56C347.445 56 342.87 54.225 339.27 50.675C335.57 47.125 333.72 42.625 333.72 37.175C333.72 34.275 334.42 31.425 335.82 28.625C337.27 25.775 339.145 23.5 341.445 21.8H335.52C334.37 21.8 333.795 21.225 333.795 20.075C333.795 19.575 333.995 19.15 334.395 18.8C334.795 18.45 335.245 18.275 335.745 18.275H367.995C368.545 17.275 369.12 16.275 369.72 15.275C370.37 14.225 371.045 13.175 371.745 12.125C373.945 9.025 375.62 7.4 376.77 7.25C377.47 7.15 378.045 7.3 378.495 7.7C378.995 8.1 379.17 8.675 379.02 9.425C379.02 9.675 378.395 10.425 377.145 11.675C376.545 12.275 375.845 13.125 375.045 14.225C374.295 15.325 373.445 16.675 372.495 18.275C372.095 19.125 371.595 20 370.995 20.9C370.595 21.5 370.07 21.8 369.42 21.8H364.845C369.895 25.6 372.42 30.775 372.42 37.325ZM368.737 43.7C368.587 42.3 369.162 41.6 370.462 41.6C371.112 41.6 371.637 41.85 372.037 42.35C372.137 42.85 372.262 43.425 372.412 44.075C372.512 44.725 372.662 45.45 372.862 46.25C374.712 50.5 378.312 52.525 383.662 52.325C387.962 52.175 391.237 50.575 393.487 47.525C395.587 44.775 396.637 41.375 396.637 37.325C396.637 34.125 395.637 31 393.637 27.95C391.437 24.65 388.812 22.7 385.762 22.1C385.212 22 384.662 21.925 384.112 21.875C383.562 21.825 383.012 21.75 382.462 21.65C381.012 21.4 380.287 20.85 380.287 20C380.287 18.8 381.237 18.2 383.137 18.2C388.237 18.2 392.437 20.15 395.737 24.05C398.787 27.75 400.312 32.225 400.312 37.475C400.312 42.675 398.862 46.975 395.962 50.375C392.962 54.125 388.937 56 383.887 56C379.387 56 375.687 54.775 372.787 52.325C370.387 50.075 369.037 47.35 368.737 44.15V43.7V44.15V43.7ZM444.682 15.8C444.682 14.6 445.432 14 446.932 14C449.282 14 451.532 14.325 453.682 14.975C459.332 16.625 463.682 19.65 466.732 24.05C469.682 28.3 471.157 33.3 471.157 39.05C471.157 43.3 470.007 47.1 467.707 50.45C465.057 54.15 461.682 56 457.582 56C455.682 56 453.882 55.575 452.182 54.725C450.232 53.875 448.807 52.725 447.907 51.275C446.807 52.675 445.282 53.825 443.332 54.725C441.432 55.675 439.582 56.15 437.782 56.15C434.032 56.15 431.107 54.925 429.007 52.475C426.957 50.125 425.932 47.075 425.932 43.325C425.932 40.025 427.107 37.125 429.457 34.625C431.707 32.225 434.507 31.025 437.857 31.025C439.507 31.025 441.157 31.425 442.807 32.225C444.857 33.125 445.882 34.225 445.882 35.525C445.882 36.275 445.457 36.825 444.607 37.175C443.107 37.925 442.257 38.4 442.057 38.6C441.007 39.35 440.257 40.575 439.807 42.275L439.507 45.2C439.357 46.3 438.707 46.85 437.557 46.85C436.157 46.85 435.457 45.875 435.457 43.925C435.457 40.025 436.932 37.2 439.882 35.45C439.232 35.05 438.457 34.85 437.557 34.85C435.357 34.85 433.507 35.85 432.007 37.85C430.657 39.65 429.982 41.7 429.982 44C429.982 46.55 430.682 48.55 432.082 50C433.532 51.45 435.532 52.175 438.082 52.175C439.632 52.175 441.282 51.575 443.032 50.375C444.882 49.025 445.807 47.625 445.807 46.175C445.807 44.725 446.057 43.4 446.557 42.2C447.157 40.5 447.982 39.65 449.032 39.65C450.382 39.65 451.057 40.3 451.057 41.6C451.057 42 450.832 42.525 450.382 43.175C449.932 43.775 449.707 44.45 449.707 45.2C449.707 47.05 450.507 48.675 452.107 50.075C453.657 51.425 455.357 52.1 457.207 52.1C460.307 52.1 462.807 50.75 464.707 48.05C466.357 45.6 467.182 42.775 467.182 39.575C467.182 32.225 464.482 26.3 459.082 21.8C458.132 21 456.582 20.175 454.432 19.325C452.332 18.525 450.532 18.05 449.032 17.9C448.032 17.8 447.157 17.65 446.407 17.45C445.257 17.15 444.682 16.6 444.682 15.8ZM508.345 36.725C508.345 42.075 506.695 46.625 503.395 50.375C499.995 54.125 495.995 56 491.395 56C486.695 56 482.67 54.125 479.32 50.375C476.02 46.625 474.37 42.075 474.37 36.725C474.37 31.425 476.02 26.9 479.32 23.15C482.67 19.35 486.695 17.45 491.395 17.45C496.045 17.45 500.045 19.35 503.395 23.15C506.695 26.9 508.345 31.425 508.345 36.725ZM503.395 36.125C503.395 32.425 502.22 29.2 499.87 26.45C497.52 23.8 494.695 22.475 491.395 22.475C488.045 22.475 485.195 23.8 482.845 26.45C480.495 29.2 479.32 32.425 479.32 36.125C479.32 39.875 480.495 43.125 482.845 45.875C485.195 48.525 488.045 49.85 491.395 49.85C494.695 49.85 497.52 48.525 499.87 45.875C502.22 43.125 503.395 39.875 503.395 36.125ZM538.724 18.275C545.174 18.375 548.399 18.375 548.399 18.275C548.399 20.325 548.374 21.425 548.324 21.575C548.324 21.425 548.324 21.275 548.324 21.125C548.374 20.975 548.399 20.85 548.399 20.75C550.099 22.45 550.949 24.55 550.949 27.05C550.949 28.35 550.449 29.625 549.449 30.875C552.799 33.175 554.474 36.475 554.474 40.775C554.474 45.575 552.374 49.4 548.174 52.25C544.474 54.75 540.099 56 535.049 56C529.899 56 525.624 54.75 522.224 52.25C518.374 49.45 516.449 45.6 516.449 40.7C516.449 38.35 517.174 37.175 518.624 37.175C519.074 37.175 519.524 37.4 519.974 37.85C520.424 38.3 520.624 38.85 520.574 39.5C520.524 41.05 520.949 42.95 521.849 45.2C522.599 47 524.374 48.575 527.174 49.925C529.824 51.325 532.574 52.025 535.424 52.025C539.274 52.025 542.599 51.125 545.399 49.325C548.699 47.225 550.349 44.375 550.349 40.775C550.349 38.475 549.249 36.45 547.049 34.7C544.999 33.1 542.699 32.225 540.149 32.075C537.899 31.925 536.049 32.25 534.599 33.05C532.699 34.05 531.749 35.525 531.749 37.475C531.749 38.025 531.474 38.45 530.924 38.75C530.374 39.05 529.824 39.15 529.274 39.05C528.674 38.95 528.249 38.75 527.999 38.45C527.799 38.15 527.574 37.825 527.324 37.475C527.324 34.375 528.674 31.875 531.374 29.975C533.824 28.325 536.374 27.6 539.024 27.8C540.174 27.9 541.299 28 542.399 28.1C543.549 28.15 544.699 28.475 545.849 29.075C546.399 28.525 546.674 27.875 546.674 27.125C546.674 25.625 546.149 24.35 545.099 23.3C544.099 22.3 542.999 21.8 541.799 21.8H518.024C516.824 21.8 516.224 21.225 516.224 20.075C516.224 18.875 516.824 18.275 518.024 18.275H538.724ZM566.719 18.275C568.119 18.275 569.794 18.675 571.744 19.475C575.644 21.025 578.619 23.55 580.669 27.05C582.669 30.45 583.669 34.275 583.669 38.525C583.669 43.275 582.644 47.25 580.594 50.45C578.094 54.15 574.619 56 570.169 56C566.119 56 562.944 54.8 560.644 52.4C558.444 50.05 557.344 47.075 557.344 43.475C557.344 40.175 558.419 37.35 560.569 35C562.769 32.55 565.519 31.3 568.819 31.25C570.319 31.2 571.994 31.55 573.844 32.3C575.994 33.2 577.094 34.35 577.144 35.75C577.144 36.55 576.569 37.125 575.419 37.475C573.869 38.125 572.794 38.7 572.194 39.2C571.644 39.8 571.244 40.525 570.994 41.375C570.744 42.225 570.669 43.25 570.769 44.45C570.869 46.1 570.219 46.975 568.819 47.075C567.469 47.125 566.769 46.15 566.719 44.15C566.569 40.1 568.194 37.225 571.594 35.525C571.044 35.225 570.119 35.075 568.819 35.075C566.669 35.075 564.894 35.975 563.494 37.775C562.144 39.425 561.469 41.35 561.469 43.55C561.469 46 562.269 48.075 563.869 49.775C565.619 51.625 567.769 52.5 570.319 52.4C573.569 52.3 576.019 50.75 577.669 47.75C579.069 45.3 579.769 42.275 579.769 38.675C579.769 34.125 578.419 30.225 575.719 26.975C572.769 23.525 569.094 21.8 564.694 21.8H537.994V18.275H566.719ZM628.27 39.8C628.27 43.95 627.195 47.625 625.045 50.825C622.645 54.425 619.445 56.225 615.445 56.225C613.695 56.225 611.97 55.75 610.27 54.8C608.57 53.8 607.495 52.75 607.045 51.65C605.245 54.75 602.395 56.3 598.495 56.3C594.345 56.3 591.095 54.375 588.745 50.525C586.795 47.225 585.82 43.35 585.82 38.9C585.82 31.35 588.57 25.65 594.07 21.8H588.145C586.895 21.6 586.27 21 586.27 20C586.27 18.85 586.97 18.275 588.37 18.275H622.645C623.145 17.275 623.695 16.275 624.295 15.275C624.945 14.225 625.62 13.175 626.32 12.125C628.52 9.025 630.17 7.4 631.27 7.25C632.02 7.15 632.62 7.3 633.07 7.7C633.57 8.1 633.77 8.675 633.67 9.425C633.57 9.725 632.92 10.475 631.72 11.675C631.12 12.275 630.42 13.125 629.62 14.225C628.87 15.325 628.02 16.675 627.07 18.275C626.67 19.125 626.17 20 625.57 20.9C625.17 21.5 624.645 21.8 623.995 21.8H619.57C622.27 23.8 624.395 26.475 625.945 29.825C627.495 32.925 628.27 36.25 628.27 39.8ZM615.745 52.475C618.695 52.325 620.92 50.775 622.42 47.825C623.67 45.325 624.295 42.6 624.295 39.65C624.295 35.15 622.845 31.1 619.945 27.5C616.895 23.7 613.12 21.8 608.62 21.8H604.12C599.57 21.8 595.945 23.45 593.245 26.75C590.795 29.9 589.57 33.8 589.57 38.45C589.57 41.65 590.32 44.675 591.82 47.525C593.72 50.925 596.095 52.625 598.945 52.625C601.845 52.625 603.695 51.225 604.495 48.425V47.825C604.445 46.225 604.72 44.525 605.32 42.725C606.07 40.725 607.045 39.725 608.245 39.725C609.545 39.725 610.195 40.375 610.195 41.675C610.195 42.075 609.97 42.6 609.52 43.25C609.12 43.9 608.87 44.575 608.77 45.275C608.72 45.925 608.77 46.65 608.92 47.45C609.22 48.75 610.02 49.95 611.32 51.05C612.72 52.15 614.195 52.625 615.745 52.475ZM655.194 21.875C650.894 21.875 647.219 23.35 644.169 26.3C641.219 29.35 639.744 33.025 639.744 37.325C639.744 41.375 641.194 44.85 644.094 47.75C647.044 50.7 650.719 52.175 655.119 52.175C659.269 52.175 662.894 50.675 665.994 47.675C669.094 44.475 670.644 41.025 670.644 37.325C670.644 33.125 669.144 29.475 666.144 26.375C663.144 23.375 659.494 21.875 655.194 21.875ZM674.544 37.325C674.544 42.775 672.669 47.225 668.919 50.675C665.219 54.225 660.619 56 655.119 56C649.569 56 644.994 54.225 641.394 50.675C637.694 47.125 635.844 42.625 635.844 37.175C635.844 34.275 636.544 31.425 637.944 28.625C639.394 25.775 641.269 23.5 643.569 21.8H637.644C636.494 21.8 635.919 21.225 635.919 20.075C635.919 19.575 636.119 19.15 636.519 18.8C636.919 18.45 637.369 18.275 637.869 18.275H670.119C670.669 17.275 671.244 16.275 671.844 15.275C672.494 14.225 673.169 13.175 673.869 12.125C676.069 9.025 677.744 7.4 678.894 7.25C679.594 7.15 680.169 7.3 680.619 7.7C681.119 8.1 681.294 8.675 681.144 9.425C681.144 9.675 680.519 10.425 679.269 11.675C678.669 12.275 677.969 13.125 677.169 14.225C676.419 15.325 675.569 16.675 674.619 18.275C674.219 19.125 673.719 20 673.119 20.9C672.719 21.5 672.194 21.8 671.544 21.8H666.969C672.019 25.6 674.544 30.775 674.544 37.325ZM670.861 43.7C670.711 42.3 671.286 41.6 672.586 41.6C673.236 41.6 673.761 41.85 674.161 42.35C674.261 42.85 674.386 43.425 674.536 44.075C674.636 44.725 674.786 45.45 674.986 46.25C676.836 50.5 680.436 52.525 685.786 52.325C690.086 52.175 693.361 50.575 695.611 47.525C697.711 44.775 698.761 41.375 698.761 37.325C698.761 34.125 697.761 31 695.761 27.95C693.561 24.65 690.936 22.7 687.886 22.1C687.336 22 686.786 21.925 686.236 21.875C685.686 21.825 685.136 21.75 684.586 21.65C683.136 21.4 682.411 20.85 682.411 20C682.411 18.8 683.361 18.2 685.261 18.2C690.361 18.2 694.561 20.15 697.861 24.05C700.911 27.75 702.436 32.225 702.436 37.475C702.436 42.675 700.986 46.975 698.086 50.375C695.086 54.125 691.061 56 686.011 56C681.511 56 677.811 54.775 674.911 52.325C672.511 50.075 671.161 47.35 670.861 44.15V43.7V44.15V43.7ZM747.181 56.15C746.931 56.15 746.681 56.15 746.431 56.15C746.231 56.2 746.006 56.225 745.756 56.225C742.056 56.225 738.881 55.15 736.231 53C733.431 50.7 732.056 47.95 732.106 44.75C732.106 42.1 732.931 40.025 734.581 38.525C736.231 37.025 738.306 36.25 740.806 36.2C742.706 36.1 744.681 36.725 746.731 38.075C749.031 39.475 750.181 41.025 750.181 42.725C750.181 42.925 750.156 43.15 750.106 43.4C750.106 43.65 750.081 43.975 750.031 44.375C749.881 45.075 749.806 45.625 749.806 46.025C749.806 48.175 750.381 50.325 751.531 52.475C756.131 51.575 759.856 49.325 762.706 45.725C765.456 42.225 766.731 38.2 766.531 33.65C766.231 26.2 763.556 22.25 758.506 21.8C756.556 21.65 754.781 22.4 753.181 24.05C751.631 25.65 750.856 27.5 750.856 29.6C750.856 29.85 750.856 30.175 750.856 30.575C750.906 30.925 750.931 31.2 750.931 31.4C750.931 32.8 750.331 33.5 749.131 33.5C748.081 33.5 747.431 32.925 747.181 31.775L746.581 27.8C746.131 26.05 745.081 24.575 743.431 23.375C741.931 22.325 740.681 21.8 739.681 21.8C737.231 21.75 735.231 22.8 733.681 24.95C732.431 26.8 731.806 28.95 731.806 31.4C731.806 31.65 731.856 32.05 731.956 32.6C732.056 33.15 732.106 33.55 732.106 33.8C732.106 35.2 731.506 35.9 730.306 35.9C728.956 35.9 728.206 34.375 728.056 31.325C727.956 27.725 728.881 24.7 730.831 22.25C732.931 19.55 735.681 18.2 739.081 18.2C743.331 18.2 746.656 20.05 749.056 23.75C751.256 20.05 754.556 18.2 758.956 18.2C766.456 18.2 770.231 23.475 770.281 34.025C770.331 39.575 768.831 44.3 765.781 48.2C762.531 52.25 758.231 54.725 752.881 55.625C753.281 56.575 754.206 57.45 755.656 58.25C757.456 59.3 759.481 59.825 761.731 59.825C766.081 59.825 769.081 58.175 770.731 54.875C770.881 54.175 771.031 53.5 771.181 52.85C771.381 52.2 771.581 51.525 771.781 50.825C772.231 49.175 773.031 48.35 774.181 48.35C774.981 48.3 775.456 48.725 775.606 49.625C775.706 49.875 775.706 50.625 775.606 51.875C775.356 54.825 774.006 57.45 771.556 59.75C768.806 62.25 765.581 63.5 761.881 63.5C759.331 63.5 756.706 62.85 754.006 61.55C751.156 60.1 749.256 58.25 748.306 56L747.181 56.15ZM746.131 44.45C746.131 44.3 746.156 44.075 746.206 43.775C746.256 43.475 746.281 43.275 746.281 43.175C746.081 42.225 745.406 41.425 744.256 40.775C743.156 40.175 742.006 39.925 740.806 40.025C739.256 40.175 738.006 40.75 737.056 41.75C736.156 42.7 735.756 43.9 735.856 45.35C736.106 47.6 737.381 49.425 739.681 50.825C741.581 52.075 743.631 52.7 745.831 52.7H747.631C746.681 50.5 746.206 48.775 746.206 47.525L746.131 44.45ZM797.137 21.875C792.837 21.875 789.162 23.35 786.112 26.3C783.162 29.35 781.687 33.025 781.687 37.325C781.687 41.375 783.137 44.85 786.037 47.75C788.987 50.7 792.662 52.175 797.062 52.175C801.212 52.175 804.837 50.675 807.937 47.675C811.037 44.475 812.587 41.025 812.587 37.325C812.587 33.125 811.087 29.475 808.087 26.375C805.087 23.375 801.437 21.875 797.137 21.875ZM816.487 37.325C816.487 42.775 814.612 47.225 810.862 50.675C807.162 54.225 802.562 56 797.062 56C791.512 56 786.937 54.225 783.337 50.675C779.637 47.125 777.787 42.625 777.787 37.175C777.787 34.275 778.487 31.425 779.887 28.625C781.337 25.775 783.212 23.5 785.512 21.8H779.587C778.437 21.8 777.862 21.225 777.862 20.075C777.862 19.575 778.062 19.15 778.462 18.8C778.862 18.45 779.312 18.275 779.812 18.275H812.062C812.612 17.275 813.187 16.275 813.787 15.275C814.437 14.225 815.112 13.175 815.812 12.125C818.012 9.025 819.687 7.4 820.837 7.25C821.537 7.15 822.112 7.3 822.562 7.7C823.062 8.1 823.237 8.675 823.087 9.425C823.087 9.675 822.462 10.425 821.212 11.675C820.612 12.275 819.912 13.125 819.112 14.225C818.362 15.325 817.512 16.675 816.562 18.275C816.162 19.125 815.662 20 815.062 20.9C814.662 21.5 814.137 21.8 813.487 21.8H808.912C813.962 25.6 816.487 30.775 816.487 37.325ZM812.805 43.7C812.655 42.3 813.23 41.6 814.53 41.6C815.18 41.6 815.705 41.85 816.105 42.35C816.205 42.85 816.33 43.425 816.48 44.075C816.58 44.725 816.73 45.45 816.93 46.25C818.78 50.5 822.38 52.525 827.73 52.325C832.03 52.175 835.305 50.575 837.555 47.525C839.655 44.775 840.705 41.375 840.705 37.325C840.705 34.125 839.705 31 837.705 27.95C835.505 24.65 832.88 22.7 829.83 22.1C829.28 22 828.73 21.925 828.18 21.875C827.63 21.825 827.08 21.75 826.53 21.65C825.08 21.4 824.355 20.85 824.355 20C824.355 18.8 825.305 18.2 827.205 18.2C832.305 18.2 836.505 20.15 839.805 24.05C842.855 27.75 844.38 32.225 844.38 37.475C844.38 42.675 842.93 46.975 840.03 50.375C837.03 54.125 833.005 56 827.955 56C823.455 56 819.755 54.775 816.855 52.325C814.455 50.075 813.105 47.35 812.805 44.15V43.7V44.15V43.7ZM888.749 15.8C888.749 14.6 889.499 14 890.999 14C893.349 14 895.599 14.325 897.749 14.975C903.399 16.625 907.749 19.65 910.799 24.05C913.749 28.3 915.224 33.3 915.224 39.05C915.224 43.3 914.074 47.1 911.774 50.45C909.124 54.15 905.749 56 901.649 56C899.749 56 897.949 55.575 896.249 54.725C894.299 53.875 892.874 52.725 891.974 51.275C890.874 52.675 889.349 53.825 887.399 54.725C885.499 55.675 883.649 56.15 881.849 56.15C878.099 56.15 875.174 54.925 873.074 52.475C871.024 50.125 869.999 47.075 869.999 43.325C869.999 40.025 871.174 37.125 873.524 34.625C875.774 32.225 878.574 31.025 881.924 31.025C883.574 31.025 885.224 31.425 886.874 32.225C888.924 33.125 889.949 34.225 889.949 35.525C889.949 36.275 889.524 36.825 888.674 37.175C887.174 37.925 886.324 38.4 886.124 38.6C885.074 39.35 884.324 40.575 883.874 42.275L883.574 45.2C883.424 46.3 882.774 46.85 881.624 46.85C880.224 46.85 879.524 45.875 879.524 43.925C879.524 40.025 880.999 37.2 883.949 35.45C883.299 35.05 882.524 34.85 881.624 34.85C879.424 34.85 877.574 35.85 876.074 37.85C874.724 39.65 874.049 41.7 874.049 44C874.049 46.55 874.749 48.55 876.149 50C877.599 51.45 879.599 52.175 882.149 52.175C883.699 52.175 885.349 51.575 887.099 50.375C888.949 49.025 889.874 47.625 889.874 46.175C889.874 44.725 890.124 43.4 890.624 42.2C891.224 40.5 892.049 39.65 893.099 39.65C894.449 39.65 895.124 40.3 895.124 41.6C895.124 42 894.899 42.525 894.449 43.175C893.999 43.775 893.774 44.45 893.774 45.2C893.774 47.05 894.574 48.675 896.174 50.075C897.724 51.425 899.424 52.1 901.274 52.1C904.374 52.1 906.874 50.75 908.774 48.05C910.424 45.6 911.249 42.775 911.249 39.575C911.249 32.225 908.549 26.3 903.149 21.8C902.199 21 900.649 20.175 898.499 19.325C896.399 18.525 894.599 18.05 893.099 17.9C892.099 17.8 891.224 17.65 890.474 17.45C889.324 17.15 888.749 16.6 888.749 15.8ZM952.412 36.725C952.412 42.075 950.762 46.625 947.462 50.375C944.062 54.125 940.062 56 935.462 56C930.762 56 926.737 54.125 923.387 50.375C920.087 46.625 918.437 42.075 918.437 36.725C918.437 31.425 920.087 26.9 923.387 23.15C926.737 19.35 930.762 17.45 935.462 17.45C940.112 17.45 944.112 19.35 947.462 23.15C950.762 26.9 952.412 31.425 952.412 36.725ZM947.462 36.125C947.462 32.425 946.287 29.2 943.937 26.45C941.587 23.8 938.762 22.475 935.462 22.475C932.112 22.475 929.262 23.8 926.912 26.45C924.562 29.2 923.387 32.425 923.387 36.125C923.387 39.875 924.562 43.125 926.912 45.875C929.262 48.525 932.112 49.85 935.462 49.85C938.762 49.85 941.587 48.525 943.937 45.875C946.287 43.125 947.462 39.875 947.462 36.125ZM989.692 56.075C987.942 56.075 986.217 55.625 984.517 54.725C982.867 53.825 981.817 52.8 981.367 51.65C979.617 54.55 976.742 56 972.742 56C968.542 56 965.317 54.125 963.067 50.375C961.117 47.175 960.142 43.35 960.142 38.9C960.142 31.35 962.892 25.65 968.392 21.8H962.467C961.167 21.55 960.517 20.95 960.517 20C960.517 18.85 961.242 18.275 962.692 18.275H996.442V21.8H993.892L994.042 21.875C995.992 22.875 997.817 24.875 999.517 27.875C1001.57 31.475 1002.59 35.45 1002.59 39.8C1002.49 44.05 1001.39 47.7 999.292 50.75C996.792 54.3 993.592 56.075 989.692 56.075ZM990.142 52.25C992.942 52.25 995.092 50.775 996.592 47.825C997.892 45.325 998.542 42.6 998.542 39.65C998.542 35.1 997.117 31.05 994.267 27.5C991.217 23.7 987.442 21.8 982.942 21.8H978.442C973.892 21.8 970.267 23.45 967.567 26.75C965.117 29.8 963.892 33.7 963.892 38.45C963.892 41.65 964.642 44.625 966.142 47.375C967.942 50.675 970.292 52.325 973.192 52.325C974.592 52.325 975.842 51.9 976.942 51.05C977.892 50.25 978.517 49.375 978.817 48.425V47.825C978.667 45.725 978.942 43.875 979.642 42.275C980.292 40.575 981.267 39.725 982.567 39.725C983.867 39.725 984.517 40.375 984.517 41.675C984.517 42.075 984.292 42.6 983.842 43.25C983.442 43.9 983.192 44.575 983.092 45.275C983.042 45.925 983.092 46.65 983.242 47.45C983.442 48.75 984.267 49.875 985.717 50.825C987.217 51.775 988.692 52.25 990.142 52.25ZM981.59 21.8C981.59 21.5 981.59 21.05 981.59 20.45C981.59 19.85 981.615 19.125 981.665 18.275H992.465C994.365 18.275 996.04 17.6 997.49 16.25C998.84 14.9 999.515 13.25 999.515 11.3C999.515 9.35 998.84 7.7 997.49 6.35C996.09 4.95 994.415 4.25 992.465 4.25C990.815 4.25 989.415 4.725 988.265 5.675C990.015 6.125 991.415 7 992.465 8.3C993.615 9.7 994.19 11.25 994.19 12.95C994.19 14.2 993.565 14.825 992.315 14.825C991.065 14.825 990.44 14.2 990.44 12.95C990.44 11.95 990.015 11.075 989.165 10.325C988.315 9.475 987.14 9.05 985.64 9.05C985.49 9.05 985.34 9.075 985.19 9.125C985.04 9.125 984.865 9.125 984.665 9.125C983.215 9.375 982.49 8.75 982.49 7.25C982.49 7.05 982.715 6.575 983.165 5.825C985.215 2.275 988.315 0.499999 992.465 0.499999C995.465 0.499999 998.015 1.55 1000.11 3.65C1002.21 5.75 1003.26 8.3 1003.26 11.3C1003.26 14.2 1002.16 16.675 999.965 18.725C997.915 20.675 995.34 21.7 992.24 21.8H992.015H981.59ZM1039.79 36.725C1039.79 42.075 1038.14 46.625 1034.84 50.375C1031.44 54.125 1027.44 56 1022.84 56C1018.14 56 1014.11 54.125 1010.76 50.375C1007.46 46.625 1005.81 42.075 1005.81 36.725C1005.81 31.425 1007.46 26.9 1010.76 23.15C1014.11 19.35 1018.14 17.45 1022.84 17.45C1027.49 17.45 1031.49 19.35 1034.84 23.15C1038.14 26.9 1039.79 31.425 1039.79 36.725ZM1034.84 36.125C1034.84 32.425 1033.66 29.2 1031.31 26.45C1028.96 23.8 1026.14 22.475 1022.84 22.475C1019.49 22.475 1016.64 23.8 1014.29 26.45C1011.94 29.2 1010.76 32.425 1010.76 36.125C1010.76 39.875 1011.94 43.125 1014.29 45.875C1016.64 48.525 1019.49 49.85 1022.84 49.85C1026.14 49.85 1028.96 48.525 1031.31 45.875C1033.66 43.125 1034.84 39.875 1034.84 36.125ZM1090.27 39.5C1090.27 43.7 1089.19 47.4 1087.04 50.6C1084.54 54.2 1081.29 56 1077.29 56C1074.04 56 1071.34 54.5 1069.19 51.5C1066.69 54.5 1063.87 56 1060.72 56C1056.27 56 1052.84 53.95 1050.44 49.85C1048.24 46.2 1047.29 42.1 1047.59 37.55C1047.64 36.4 1047.79 35.225 1048.04 34.025C1048.34 32.825 1048.74 31.575 1049.24 30.275C1050.34 27.275 1051.67 25.325 1053.22 24.425C1051.42 22.025 1050.52 19.575 1050.52 17.075C1050.52 13.775 1051.97 10.95 1054.87 8.6C1057.82 6.25 1061.34 5.15 1065.44 5.3C1071.39 5.45 1076.72 8.125 1081.42 13.325C1085.97 18.425 1088.09 23.575 1087.79 28.775C1089.44 31.575 1090.27 35.15 1090.27 39.5ZM1083.82 24.2C1083.27 22.45 1082.44 20.75 1081.34 19.1C1080.24 17.45 1078.87 15.825 1077.22 14.225C1073.52 10.825 1069.64 9 1065.59 8.75C1062.24 8.6 1059.49 9.375 1057.34 11.075C1055.29 12.675 1054.27 14.625 1054.27 16.925C1054.27 18.475 1054.84 20.025 1055.99 21.575C1057.94 19.225 1061.82 18.05 1067.62 18.05C1075.42 18.05 1080.82 20.1 1083.82 24.2ZM1086.29 39.65C1086.29 35.05 1084.84 31 1081.94 27.5C1078.89 23.7 1075.12 21.8 1070.62 21.8H1066.57C1062.07 21.8 1058.39 23.475 1055.54 26.825C1052.89 30.025 1051.57 33.9 1051.57 38.45C1051.57 41.65 1052.32 44.6 1053.82 47.3C1055.62 50.6 1057.94 52.25 1060.79 52.25C1063.59 52.25 1065.49 50.975 1066.49 48.425V47.825C1066.39 45.825 1066.64 44.075 1067.24 42.575C1067.89 40.775 1068.92 39.825 1070.32 39.725C1071.62 39.725 1072.27 40.375 1072.27 41.675C1072.27 42.075 1072.02 42.6 1071.52 43.25C1071.07 43.95 1070.84 44.625 1070.84 45.275C1070.84 45.325 1070.87 45.55 1070.92 45.95C1070.97 46.3 1071.04 46.85 1071.14 47.6C1071.29 49.05 1072.17 50.225 1073.77 51.125C1075.07 51.825 1076.34 52.175 1077.59 52.175C1080.34 52.175 1082.54 50.725 1084.19 47.825C1085.59 45.375 1086.29 42.65 1086.29 39.65ZM1123.41 18.275C1123.96 17.275 1124.54 16.275 1125.14 15.275C1125.79 14.225 1126.46 13.175 1127.16 12.125C1129.36 9.025 1131.04 7.4 1132.19 7.25C1132.94 7.15 1133.54 7.3 1133.99 7.7C1134.49 8.1 1134.64 8.675 1134.44 9.425C1134.44 9.675 1133.81 10.425 1132.56 11.675C1131.96 12.275 1131.26 13.125 1130.46 14.225C1129.71 15.325 1128.86 16.675 1127.91 18.275C1127.51 19.125 1127.01 20 1126.41 20.9C1126.01 21.5 1125.49 21.8 1124.84 21.8H1121.31C1126.26 25.6 1128.74 30.975 1128.74 37.925C1128.74 41.925 1127.86 45.375 1126.11 48.275L1125.96 48.5C1125.01 49.95 1124.54 51.55 1124.54 53.3C1124.54 55.35 1125.36 56.625 1127.01 57.125C1127.86 57.425 1128.29 58.025 1128.29 58.925C1128.29 60.225 1127.71 60.875 1126.56 60.875C1126.41 60.875 1126.29 60.85 1126.19 60.8C1126.09 60.8 1125.96 60.775 1125.81 60.725L1125.06 60.425C1122.16 59.025 1120.71 56.575 1120.71 53.075C1120.71 50.675 1121.41 48.475 1122.81 46.475C1124.26 43.575 1124.99 40.725 1124.99 37.925C1124.99 33.425 1123.54 29.575 1120.64 26.375C1117.79 23.325 1114.41 21.8 1110.51 21.8C1106.66 21.8 1103.34 23.35 1100.54 26.45C1097.64 29.65 1096.19 33.575 1096.19 38.225C1096.19 42.375 1097.46 45.975 1100.01 49.025C1102.36 51.875 1105.36 53.65 1109.01 54.35C1110.06 54.5 1110.59 55.1 1110.59 56.15C1110.59 57.65 1109.86 58.275 1108.41 58.025C1103.86 57.275 1100.09 55.05 1097.09 51.35C1093.99 47.65 1092.44 43.275 1092.44 38.225C1092.44 31.275 1094.96 25.8 1100.01 21.8H1094.54C1093.39 21.8 1092.79 21.275 1092.74 20.225C1092.64 19.625 1092.76 19.15 1093.11 18.8C1093.51 18.45 1094.04 18.275 1094.69 18.275H1123.41ZM1142.45 52.025C1147.3 51.375 1149.73 46.9 1149.73 38.6C1149.73 38.35 1149.73 38.075 1149.73 37.775C1149.73 37.475 1149.7 37.125 1149.65 36.725C1149.65 36.275 1149.63 35.9 1149.58 35.6C1149.58 35.3 1149.58 35.025 1149.58 34.775C1149.58 30.225 1150.98 26.35 1153.78 23.15C1156.63 19.85 1160.3 18.2 1164.8 18.2C1170.25 18.2 1174.58 20.2 1177.78 24.2C1180.68 27.85 1182.13 32.45 1182.13 38C1182.13 42.9 1181.35 46.875 1179.8 49.925C1177.75 53.975 1174.53 56 1170.13 56C1166.58 56 1163.78 54.525 1161.73 51.575C1160.03 49.125 1159.18 45.975 1159.18 42.125C1159.18 39.675 1159.63 37.25 1160.53 34.85C1161.58 31.9 1162.98 30.425 1164.73 30.425C1164.83 30.425 1164.93 30.45 1165.03 30.5C1165.13 30.5 1165.23 30.5 1165.33 30.5C1166.23 30.75 1166.85 32.1 1167.2 34.55C1167.65 37.3 1168.58 39.075 1169.98 39.875L1172.6 40.7C1173.7 41 1174.25 41.55 1174.25 42.35C1174.3 43 1174.03 43.45 1173.43 43.7C1172.88 43.95 1172.25 44.025 1171.55 43.925C1169.3 43.725 1167.53 42.775 1166.23 41.075C1165.03 39.625 1164.38 37.95 1164.28 36.05C1163.58 36.65 1163.23 38.85 1163.23 42.65C1163.23 45 1163.78 47.1 1164.88 48.95C1166.18 51.15 1167.95 52.25 1170.2 52.25C1173 52.25 1175.15 50.725 1176.65 47.675C1177.8 45.225 1178.38 42.45 1178.38 39.35C1178.38 34.9 1177.35 31 1175.3 27.65C1172.8 23.75 1169.48 21.8 1165.33 21.8C1162.03 21.8 1159.25 23.125 1157 25.775C1154.85 28.275 1153.78 31.225 1153.78 34.625V39.5C1153.78 43.8 1153 47.35 1151.45 50.15C1149.35 53.85 1146.2 55.8 1142 56C1138.25 56.2 1135.33 54.95 1133.23 52.25C1131.38 49.9 1130.45 46.875 1130.45 43.175C1130.45 42.575 1130.73 42.05 1131.28 41.6C1131.78 41.15 1132.33 40.9 1132.93 40.85C1133.93 40.75 1134.43 41.425 1134.43 42.875C1134.28 44.975 1134.83 46.975 1136.08 48.875C1137.48 51.025 1139.3 52.1 1141.55 52.1C1141.7 52.1 1141.85 52.1 1142 52.1C1142.15 52.05 1142.3 52.025 1142.45 52.025ZM1226.47 15.95C1224.22 15.9 1222.02 16.425 1219.87 17.525C1217.37 18.875 1216.12 20.6 1216.12 22.7V23.15C1217.12 22 1219.35 21.425 1222.8 21.425C1224.65 21.425 1226.4 21.65 1228.05 22.1C1230.45 22.85 1231.65 23.85 1231.65 25.1C1231.65 26.4 1231.12 27.05 1230.07 27.05C1230.32 27.05 1229.5 26.65 1227.6 25.85C1225.85 25.05 1224.1 24.65 1222.35 24.65C1218.35 24.65 1215.32 25.825 1213.27 28.175C1212.52 27.475 1212.1 26.1 1212 24.05C1211.85 21.15 1213.37 18.475 1216.57 16.025C1218.02 14.925 1219.47 14.075 1220.92 13.475C1222.42 12.875 1223.9 12.55 1225.35 12.5H1226.7C1233.9 12.5 1239.32 15.525 1242.97 21.575C1246.07 26.525 1247.62 32.85 1247.62 40.55C1247.62 50.85 1243.85 56 1236.3 56C1233.75 56 1231.77 55.325 1230.37 53.975C1229.07 52.775 1228.17 51.325 1227.67 49.625C1227.42 48.825 1227.17 46.975 1226.92 44.075C1226.77 41.775 1226.37 40.05 1225.72 38.9C1224.72 37.4 1223.02 36.65 1220.62 36.65C1218.77 36.65 1217.17 37.375 1215.82 38.825C1214.47 40.275 1213.8 42 1213.8 44V45.875C1213.8 47.875 1214.3 49.65 1215.3 51.2C1215.85 52 1216.75 52.95 1218 54.05C1219 54.85 1219.5 55.5 1219.5 56C1219.5 57.5 1218.87 58.175 1217.62 58.025C1216.97 57.975 1216.35 57.75 1215.75 57.35C1214 56.2 1212.6 54.525 1211.55 52.325C1210.5 50.225 1209.97 48.225 1209.97 46.325V43.775C1209.97 40.825 1211.02 38.3 1213.12 36.2C1215.17 34.1 1217.7 33 1220.7 32.9C1226 32.7 1229.3 35.225 1230.6 40.475C1230.7 40.775 1230.75 41.225 1230.75 41.825C1230.8 42.425 1230.87 43.15 1230.97 44C1230.97 44.75 1231.02 45.425 1231.12 46.025C1231.22 46.575 1231.35 47.05 1231.5 47.45C1232.75 50.95 1234.6 52.65 1237.05 52.55C1241.45 52.45 1243.65 48.45 1243.65 40.55C1243.65 34.15 1242.4 28.725 1239.9 24.275C1236.85 18.975 1232.37 16.2 1226.47 15.95ZM1280.36 30.95C1280.36 33.25 1279.81 35.35 1278.71 37.25C1277.41 39.35 1275.76 40.7 1273.76 41.3C1273.36 41.4 1273.11 41.425 1273.01 41.375C1272.31 41.225 1271.86 40.375 1271.66 38.825C1271.36 36.975 1270.76 35.575 1269.86 34.625C1268.76 33.475 1267.28 32.75 1265.43 32.45C1263.98 32.2 1263.26 31.55 1263.26 30.5C1263.16 29.25 1263.91 28.625 1265.51 28.625C1267.51 28.575 1269.38 29.25 1271.13 30.65C1272.93 32.15 1274.08 34.075 1274.58 36.425C1275.93 35.075 1276.61 33.25 1276.61 30.95C1276.61 28.55 1275.91 26.475 1274.51 24.725C1272.91 22.775 1270.96 21.8 1268.66 21.8C1264.96 21.8 1261.83 23.5 1259.28 26.9C1256.98 30 1255.83 33.4 1255.83 37.1C1255.83 40.75 1256.88 44.1 1258.98 47.15C1261.33 50.55 1264.26 52.25 1267.76 52.25C1269.71 52.25 1271.43 51.725 1272.93 50.675C1273.73 50.025 1274.71 49.025 1275.86 47.675C1276.86 46.575 1277.58 46.025 1278.03 46.025C1279.33 46.025 1279.98 46.625 1279.98 47.825C1279.98 48.175 1279.88 48.525 1279.68 48.875C1276.83 53.625 1272.86 56 1267.76 56C1263.06 56 1259.23 53.925 1256.28 49.775C1253.48 46.075 1252.08 41.85 1252.08 37.1C1252.08 32.35 1253.48 28.15 1256.28 24.5C1259.33 20.5 1263.41 18.425 1268.51 18.275C1271.96 18.175 1274.86 19.45 1277.21 22.1C1279.31 24.6 1280.36 27.55 1280.36 30.95ZM1331.06 25.1C1331.06 26.65 1330.71 27.65 1330.01 28.1H1342.46C1343.86 28.1 1344.56 28.725 1344.56 29.975C1344.56 31.275 1343.84 31.925 1342.39 31.925H1338.41C1342.01 34.575 1343.81 38 1343.81 42.2C1343.81 46.45 1341.69 49.9 1337.44 52.55C1333.89 54.85 1329.81 56 1325.21 56C1320.56 56 1316.46 54.85 1312.91 52.55C1308.71 49.95 1306.61 46.5 1306.61 42.2C1306.61 38.25 1308.54 34.825 1312.39 31.925C1310.69 31.925 1309.46 31.95 1308.71 32C1307.96 32 1307.71 32 1307.96 32C1306.81 31.85 1306.11 31.275 1305.86 30.275C1305.86 28.875 1306.49 28.175 1307.74 28.175H1324.16C1326.11 28.175 1327.09 27.075 1327.09 24.875C1327.09 24.025 1326.81 23.3 1326.26 22.7C1325.76 22.1 1325.09 21.8 1324.24 21.8H1308.19C1306.79 21.8 1306.01 21.325 1305.86 20.375C1305.76 19.875 1305.89 19.4 1306.24 18.95C1306.64 18.5 1307.11 18.275 1307.66 18.275L1337.29 18.35C1338.39 16.25 1339.64 14.2 1341.04 12.2C1343.09 9.1 1344.71 7.475 1345.91 7.325C1346.66 7.225 1347.29 7.375 1347.79 7.775C1348.29 8.125 1348.46 8.675 1348.31 9.425C1348.26 9.675 1347.61 10.425 1346.36 11.675C1345.76 12.275 1345.09 13.15 1344.34 14.3C1343.59 15.4 1342.74 16.75 1341.79 18.35L1340.21 20.975C1339.86 21.525 1339.36 21.8 1338.71 21.8H1329.56C1330.56 22.95 1331.06 24.05 1331.06 25.1ZM1325.36 31.775C1321.91 31.775 1318.69 32.6 1315.69 34.25C1312.09 36.2 1310.29 38.775 1310.29 41.975C1310.29 45.125 1312.06 47.675 1315.61 49.625C1318.61 51.275 1321.81 52.1 1325.21 52.1C1328.66 52.1 1331.84 51.325 1334.74 49.775C1338.19 47.825 1339.91 45.275 1339.91 42.125C1339.91 38.875 1338.24 36.25 1334.89 34.25C1331.94 32.6 1328.76 31.775 1325.36 31.775ZM1388.12 40.55C1388.12 50.85 1384.34 56 1376.79 56C1374.24 56 1372.27 55.325 1370.87 53.975C1370.27 53.375 1369.72 52.725 1369.22 52.025C1368.77 51.275 1368.42 50.475 1368.17 49.625C1368.07 49.175 1367.94 48.5 1367.79 47.6C1367.64 46.65 1367.52 45.475 1367.42 44.075C1367.27 41.625 1366.87 39.9 1366.22 38.9C1365.32 37.4 1363.62 36.65 1361.12 36.65C1359.27 36.65 1357.67 37.375 1356.32 38.825C1354.97 40.275 1354.29 42 1354.29 44V45.875C1354.29 47.875 1354.79 49.65 1355.79 51.2C1356.29 51.9 1357.22 52.85 1358.57 54.05C1359.52 54.85 1359.99 55.5 1359.99 56C1359.99 57.4 1359.37 58.075 1358.12 58.025C1357.62 57.975 1356.99 57.75 1356.24 57.35C1354.44 56.25 1353.02 54.575 1351.97 52.325C1350.97 50.225 1350.47 48.225 1350.47 46.325V43.775C1350.47 40.825 1351.52 38.3 1353.62 36.2C1355.72 34.1 1358.24 33 1361.19 32.9C1366.49 32.7 1369.79 35.225 1371.09 40.475C1371.19 40.775 1371.27 41.225 1371.32 41.825C1371.37 42.425 1371.42 43.15 1371.47 44C1371.57 45.55 1371.74 46.7 1371.99 47.45C1373.24 50.95 1375.09 52.65 1377.54 52.55C1381.99 52.45 1384.22 48.45 1384.22 40.55C1384.22 37.3 1383.39 34.175 1381.74 31.175C1380.14 28.225 1377.99 25.85 1375.29 24.05C1373.09 22.55 1370.97 21.8 1368.92 21.8H1353.47C1351.97 21.8 1351.19 21.275 1351.14 20.225C1351.04 18.925 1351.72 18.275 1353.17 18.275H1381.97C1382.97 16.325 1384.24 14.275 1385.79 12.125C1387.89 9.025 1389.52 7.4 1390.67 7.25C1391.42 7.15 1392.04 7.3 1392.54 7.7C1393.04 8.1 1393.19 8.675 1392.99 9.425C1392.99 9.675 1392.37 10.425 1391.12 11.675C1390.52 12.275 1389.82 13.125 1389.02 14.225C1388.27 15.325 1387.42 16.675 1386.47 18.275C1386.22 18.725 1385.97 19.175 1385.72 19.625C1385.47 20.075 1385.22 20.5 1384.97 20.9C1384.52 21.5 1383.99 21.8 1383.39 21.8L1377.69 21.725C1380.94 23.075 1383.54 25.6 1385.49 29.3C1387.24 32.65 1388.12 36.4 1388.12 40.55ZM1383.71 71C1381.46 72.1 1379.14 72.65 1376.74 72.65C1374.39 72.65 1372.44 71.975 1370.89 70.625C1369.24 69.225 1368.41 67.35 1368.41 65C1368.41 63 1369.14 61.35 1370.59 60.05C1372.04 58.75 1373.76 58.1 1375.76 58.1C1378.11 58.1 1379.79 58.6 1380.79 59.6C1381.34 60.15 1381.91 61.25 1382.51 62.9C1383.11 64.6 1383.81 65.8 1384.61 66.5C1386.41 65.6 1387.91 64.025 1389.11 61.775C1390.26 59.625 1390.84 57.5 1390.84 55.4C1390.84 54.5 1390.56 53.175 1390.01 51.425C1389.46 49.675 1389.19 48.675 1389.19 48.425C1389.19 47.275 1389.79 46.7 1390.99 46.7C1392.04 46.7 1392.94 47.825 1393.69 50.075C1394.29 51.875 1394.59 53.5 1394.59 54.95C1394.59 57.7 1393.96 60.25 1392.71 62.6C1392.06 63.9 1391.31 65.025 1390.46 65.975C1389.61 66.975 1388.66 67.875 1387.61 68.675C1388.26 69.625 1389.74 70.1 1392.04 70.1C1393.99 70.1 1395.61 69.65 1396.91 68.75C1398.31 67.7 1399.06 66.225 1399.16 64.325C1399.16 64.075 1399.14 63.65 1399.09 63.05C1399.04 62.5 1399.01 62.1 1399.01 61.85C1399.01 60.7 1399.64 60.125 1400.89 60.125C1402.14 60.125 1402.76 61.275 1402.76 63.575C1402.76 66.525 1401.64 68.975 1399.39 70.925C1397.34 72.775 1394.74 73.7 1391.59 73.7C1388.29 73.7 1385.66 72.8 1383.71 71ZM1378.39 62.6C1377.94 62 1377.06 61.7 1375.76 61.7C1374.81 61.7 1373.94 62.025 1373.14 62.675C1372.34 63.375 1371.94 64.175 1371.94 65.075C1371.94 66.225 1372.41 67.2 1373.36 68C1374.31 68.7 1375.39 69.05 1376.59 69.05C1376.99 69.05 1378.56 68.725 1381.31 68.075C1379.96 66.925 1378.99 65.1 1378.39 62.6ZM1433.13 24.2C1433.53 24.9 1433.73 25.525 1433.73 26.075C1433.73 26.725 1433.5 27.15 1433.05 27.35C1433.85 27.45 1434.65 27.85 1435.45 28.55C1436.25 29.15 1436.78 29.7 1437.03 30.2C1437.18 30.45 1437.38 30.825 1437.63 31.325C1437.88 31.825 1438.15 32.475 1438.45 33.275C1438.7 34.175 1438.88 35.15 1438.98 36.2C1439.13 37.25 1439.23 38.375 1439.28 39.575C1439.43 43.725 1438.4 47.425 1436.2 50.675C1433.7 54.225 1430.45 56 1426.45 56C1424.7 56 1423.05 55.55 1421.5 54.65C1420.05 53.8 1418.93 52.675 1418.13 51.275C1415.83 54.475 1412.95 56.075 1409.5 56.075C1405.35 56.075 1402.13 54.175 1399.83 50.375C1397.88 47.225 1396.9 43.4 1396.9 38.9C1396.9 31.35 1399.65 25.65 1405.15 21.8H1399.23C1397.98 21.6 1397.35 21 1397.35 20C1397.35 18.85 1398.05 18.275 1399.45 18.275H1433.73C1434.23 17.275 1434.78 16.275 1435.38 15.275C1436.03 14.225 1436.7 13.175 1437.4 12.125C1439.6 9.025 1441.25 7.4 1442.35 7.25C1443.1 7.15 1443.7 7.3 1444.15 7.7C1444.65 8.1 1444.85 8.675 1444.75 9.425C1444.65 9.725 1444 10.475 1442.8 11.675C1442.2 12.275 1441.5 13.125 1440.7 14.225C1439.95 15.325 1439.1 16.675 1438.15 18.275C1437.75 19.125 1437.25 20 1436.65 20.9C1436.25 21.5 1435.73 21.8 1435.08 21.8H1430.65C1431.35 22.3 1432.18 23.1 1433.13 24.2ZM1435.53 38.225C1435.83 37.275 1435.65 36 1435 34.4C1434.15 32.3 1433.05 31.25 1431.7 31.25C1431.45 31.25 1431.28 31.275 1431.18 31.325C1430.53 31.625 1430.2 32.45 1430.2 33.8C1430.2 34.6 1430.35 35.4 1430.65 36.2C1431.55 38.3 1432.7 39.35 1434.1 39.35H1434.48C1435.03 39.1 1435.38 38.725 1435.53 38.225ZM1435 42.65C1434.75 42.75 1434.5 42.825 1434.25 42.875C1434 42.925 1433.75 42.95 1433.5 42.95C1431.6 42.95 1429.9 41.875 1428.4 39.725C1427.05 37.725 1426.38 35.575 1426.38 33.275C1426.38 30.425 1427.5 28.625 1429.75 27.875C1429.85 26.175 1428.88 24.75 1426.83 23.6C1424.78 22.4 1422.4 21.8 1419.7 21.8H1415.2C1410.65 21.8 1407.03 23.45 1404.33 26.75C1401.88 29.9 1400.65 33.8 1400.65 38.45C1400.65 41.65 1401.4 44.6 1402.9 47.3C1404.7 50.6 1407.05 52.25 1409.95 52.25C1411.5 52.25 1412.85 51.75 1414 50.75C1414.9 49.95 1415.45 49.075 1415.65 48.125V47.525C1415.6 45.525 1415.83 43.775 1416.33 42.275C1416.93 40.425 1417.9 39.5 1419.25 39.5C1420.6 39.45 1421.28 40.1 1421.28 41.45C1421.28 41.85 1421.05 42.35 1420.6 42.95C1420.25 43.55 1420.03 44.225 1419.93 44.975C1419.93 45.825 1420.03 46.625 1420.23 47.375C1420.68 48.775 1421.6 49.925 1423 50.825C1424.45 51.625 1425.75 52.025 1426.9 52.025C1429.05 52.025 1430.95 50.925 1432.6 48.725C1434.05 46.725 1434.85 44.7 1435 42.65ZM1489.98 18.125C1490.03 18.325 1490.03 19.55 1489.98 21.8H1486.75C1489.3 23.25 1491.33 25.675 1492.83 29.075C1494.18 32.175 1494.85 35.325 1494.85 38.525C1494.85 43.175 1493.63 47.175 1491.18 50.525C1488.48 54.175 1484.8 56 1480.15 56C1475.6 56 1472.55 54.425 1471 51.275C1468.45 54.425 1465.23 56 1461.33 56C1457.58 56 1454.6 54.825 1452.4 52.475C1450.3 50.125 1449.18 47.1 1449.03 43.4C1448.93 40.1 1450.08 37.3 1452.48 35C1454.88 32.65 1457.78 31.475 1461.18 31.475C1462.98 31.475 1464.73 31.825 1466.43 32.525C1468.33 33.375 1469.28 34.375 1469.28 35.525C1469.28 35.725 1469.25 35.875 1469.2 35.975C1469.05 36.575 1468.4 37.225 1467.25 37.925C1465.9 38.625 1464.95 39.3 1464.4 39.95C1463.4 41.2 1462.9 42.9 1462.9 45.05C1462.9 46.55 1462.23 47.3 1460.88 47.3C1459.48 47.3 1458.78 46.325 1458.78 44.375C1458.78 40.375 1460.25 37.55 1463.2 35.9C1462.95 35.5 1462.18 35.3 1460.88 35.3C1458.73 35.35 1456.9 36.25 1455.4 38C1453.9 39.75 1453.15 41.7 1453.15 43.85C1453.15 46.25 1453.93 48.225 1455.48 49.775C1456.93 51.275 1458.83 52.075 1461.18 52.175C1462.88 52.225 1464.6 51.65 1466.35 50.45C1468.05 49.25 1468.9 47.925 1468.9 46.475C1468.9 45.075 1469.13 43.7 1469.58 42.35C1470.18 40.55 1471.03 39.65 1472.13 39.65C1473.48 39.65 1474.15 40.3 1474.15 41.6C1474.15 41.95 1473.9 42.475 1473.4 43.175C1472.95 43.875 1472.73 44.55 1472.73 45.2C1472.73 47.25 1473.53 48.875 1475.13 50.075C1476.63 51.275 1478.38 51.875 1480.38 51.875C1483.58 51.875 1486.15 50.425 1488.1 47.525C1489.8 45.075 1490.65 42.15 1490.65 38.75C1490.65 35.55 1489.98 32.55 1488.63 29.75C1487.13 26.85 1485.08 24.65 1482.48 23.15C1480.88 22.25 1479.9 21.8 1479.55 21.8H1452.4C1451.2 21.8 1450.6 21.2 1450.6 20C1450.6 18.85 1451.3 18.275 1452.7 18.275L1489.98 18.125ZM1507.08 18.275C1508.48 18.275 1510.15 18.675 1512.1 19.475C1516 21.025 1518.98 23.55 1521.03 27.05C1523.03 30.45 1524.03 34.275 1524.03 38.525C1524.03 43.275 1523 47.25 1520.95 50.45C1518.45 54.15 1514.98 56 1510.53 56C1506.48 56 1503.3 54.8 1501 52.4C1498.8 50.05 1497.7 47.075 1497.7 43.475C1497.7 40.175 1498.78 37.35 1500.93 35C1503.13 32.55 1505.88 31.3 1509.18 31.25C1510.68 31.2 1512.35 31.55 1514.2 32.3C1516.35 33.2 1517.45 34.35 1517.5 35.75C1517.5 36.55 1516.93 37.125 1515.78 37.475C1514.23 38.125 1513.15 38.7 1512.55 39.2C1512 39.8 1511.6 40.525 1511.35 41.375C1511.1 42.225 1511.03 43.25 1511.13 44.45C1511.23 46.1 1510.58 46.975 1509.18 47.075C1507.83 47.125 1507.13 46.15 1507.08 44.15C1506.93 40.1 1508.55 37.225 1511.95 35.525C1511.4 35.225 1510.48 35.075 1509.18 35.075C1507.03 35.075 1505.25 35.975 1503.85 37.775C1502.5 39.425 1501.83 41.35 1501.83 43.55C1501.83 46 1502.63 48.075 1504.23 49.775C1505.98 51.625 1508.13 52.5 1510.68 52.4C1513.93 52.3 1516.38 50.75 1518.03 47.75C1519.43 45.3 1520.13 42.275 1520.13 38.675C1520.13 34.125 1518.78 30.225 1516.08 26.975C1513.13 23.525 1509.45 21.8 1505.05 21.8H1478.35V18.275H1507.08ZM1566 37.925C1566 41.925 1565.13 45.375 1563.38 48.275L1563.23 48.5C1562.28 49.95 1561.8 51.55 1561.8 53.3C1561.8 55.35 1562.63 56.625 1564.28 57.125C1565.13 57.425 1565.55 58.025 1565.55 58.925C1565.55 60.225 1564.98 60.875 1563.83 60.875C1563.63 60.875 1563.38 60.825 1563.08 60.725L1562.33 60.425C1559.43 59.025 1557.98 56.575 1557.98 53.075C1557.98 50.675 1558.68 48.475 1560.08 46.475C1561.53 43.575 1562.25 40.725 1562.25 37.925C1562.25 33.325 1560.8 29.5 1557.9 26.45C1555.05 23.3 1551.58 21.8 1547.48 21.95C1543.63 22.05 1540.35 23.6 1537.65 26.6C1534.85 29.8 1533.45 33.675 1533.45 38.225C1533.45 42.375 1534.73 45.975 1537.28 49.025C1539.63 51.875 1542.63 53.65 1546.28 54.35C1547.33 54.5 1547.85 55.1 1547.85 56.15C1547.85 57.65 1547.13 58.275 1545.68 58.025C1541.13 57.275 1537.35 55.05 1534.35 51.35C1531.25 47.65 1529.7 43.275 1529.7 38.225C1529.7 33.725 1531.05 29.475 1533.75 25.475C1531.35 23.175 1530.15 20.625 1530.15 17.825C1530.15 14.575 1531.65 11.75 1534.65 9.35C1537.7 6.95 1541.23 5.875 1545.23 6.125C1551.23 6.425 1556.1 9.025 1559.85 13.925C1563.3 18.575 1564.88 23.95 1564.58 30.05C1565.53 32.45 1566 35.075 1566 37.925ZM1560.53 24.425C1560.23 21.075 1558.68 17.9 1555.88 14.9C1552.73 11.5 1549.23 9.7 1545.38 9.5C1542.38 9.3 1539.7 10.05 1537.35 11.75C1535.1 13.4 1533.98 15.375 1533.98 17.675C1533.98 19.575 1534.8 21.3 1536.45 22.85C1539.85 20.05 1543.48 18.625 1547.33 18.575C1552.83 18.475 1557.23 20.425 1560.53 24.425ZM1587.49 21.875C1583.19 21.875 1579.52 23.35 1576.47 26.3C1573.52 29.35 1572.04 33.025 1572.04 37.325C1572.04 41.375 1573.49 44.85 1576.39 47.75C1579.34 50.7 1583.02 52.175 1587.42 52.175C1591.57 52.175 1595.19 50.675 1598.29 47.675C1601.39 44.475 1602.94 41.025 1602.94 37.325C1602.94 33.125 1601.44 29.475 1598.44 26.375C1595.44 23.375 1591.79 21.875 1587.49 21.875ZM1606.84 37.325C1606.84 42.775 1604.97 47.225 1601.22 50.675C1597.52 54.225 1592.92 56 1587.42 56C1581.87 56 1577.29 54.225 1573.69 50.675C1569.99 47.125 1568.14 42.625 1568.14 37.175C1568.14 34.275 1568.84 31.425 1570.24 28.625C1571.69 25.775 1573.57 23.5 1575.87 21.8H1569.94C1568.79 21.8 1568.22 21.225 1568.22 20.075C1568.22 19.575 1568.42 19.15 1568.82 18.8C1569.22 18.45 1569.67 18.275 1570.17 18.275H1602.42C1602.97 17.275 1603.54 16.275 1604.14 15.275C1604.79 14.225 1605.47 13.175 1606.17 12.125C1608.37 9.025 1610.04 7.4 1611.19 7.25C1611.89 7.15 1612.47 7.3 1612.92 7.7C1613.42 8.1 1613.59 8.675 1613.44 9.425C1613.44 9.675 1612.82 10.425 1611.57 11.675C1610.97 12.275 1610.27 13.125 1609.47 14.225C1608.72 15.325 1607.87 16.675 1606.92 18.275C1606.52 19.125 1606.02 20 1605.42 20.9C1605.02 21.5 1604.49 21.8 1603.84 21.8H1599.27C1604.32 25.6 1606.84 30.775 1606.84 37.325ZM1603.16 43.7C1603.01 42.3 1603.59 41.6 1604.89 41.6C1605.54 41.6 1606.06 41.85 1606.46 42.35C1606.56 42.85 1606.69 43.425 1606.84 44.075C1606.94 44.725 1607.09 45.45 1607.29 46.25C1609.14 50.5 1612.74 52.525 1618.09 52.325C1622.39 52.175 1625.66 50.575 1627.91 47.525C1630.01 44.775 1631.06 41.375 1631.06 37.325C1631.06 34.125 1630.06 31 1628.06 27.95C1625.86 24.65 1623.24 22.7 1620.19 22.1C1619.64 22 1619.09 21.925 1618.54 21.875C1617.99 21.825 1617.44 21.75 1616.89 21.65C1615.44 21.4 1614.71 20.85 1614.71 20C1614.71 18.8 1615.66 18.2 1617.56 18.2C1622.66 18.2 1626.86 20.15 1630.16 24.05C1633.21 27.75 1634.74 32.225 1634.74 37.475C1634.74 42.675 1633.29 46.975 1630.39 50.375C1627.39 54.125 1623.36 56 1618.31 56C1613.81 56 1610.11 54.775 1607.21 52.325C1604.81 50.075 1603.46 47.35 1603.16 44.15V43.7V44.15V43.7ZM1639.32 53.675C1639.32 52.525 1639.72 51.55 1640.52 50.75C1641.37 49.95 1642.37 49.55 1643.52 49.55C1644.67 49.55 1645.67 49.95 1646.52 50.75C1647.42 51.55 1647.87 52.525 1647.87 53.675C1647.87 54.825 1647.42 55.775 1646.52 56.525C1645.67 57.275 1644.67 57.65 1643.52 57.65C1642.37 57.65 1641.37 57.275 1640.52 56.525C1639.72 55.775 1639.32 54.825 1639.32 53.675Z" fill="black"/>
</svg>
