<svg width="1768" height="81" viewBox="0 0 1768 81" fill="none" xmlns="http://www.w3.org/2000/svg">
<path d="M4.625 44.075C5.925 45.225 7.725 45.8 10.025 45.8C12.575 45.8 14.85 45.125 16.85 43.775C18.9 42.375 20.7 39.95 22.25 36.5C23.45 39.9 24.95 42.275 26.75 43.625C28.55 44.975 30.725 45.65 33.275 45.65C35.825 45.65 37.875 44.75 39.425 42.95C41.025 41.15 41.825 38.6 41.825 35.3C41.825 33.45 41.2 31.6 39.95 29.75C38.75 27.9 37.1 26.25 35 24.8C32.95 23.35 30.575 22.175 27.875 21.275C25.175 20.375 22.375 19.925 19.475 19.925C17.725 19.925 16.4 20.025 15.5 20.225C14.6 20.375 13.925 20.45 13.475 20.45C12.575 20.45 11.825 20.175 11.225 19.625C10.625 19.075 10.325 18.45 10.325 17.75C10.325 16.6 10.95 15.625 12.2 14.825C13.45 13.975 15.35 13.55 17.9 13.55C21.4 13.55 24.725 14.2 27.875 15.5C31.075 16.8 33.875 18.625 36.275 20.975C38.675 23.275 40.575 26.025 41.975 29.225C43.375 32.425 44.075 35.925 44.075 39.725C44.075 41.475 43.825 43.15 43.325 44.75C42.875 46.3 42.2 47.675 41.3 48.875C40.4 50.025 39.325 50.95 38.075 51.65C36.825 52.3 35.425 52.625 33.875 52.625C27.275 52.625 23.4 48.9 22.25 41.45C20.5 48.9 16.575 52.625 10.475 52.625C8.725 52.625 7.225 52.325 5.975 51.725C4.725 51.075 3.675 50.2 2.825 49.1C2.025 48 1.425 46.725 1.025 45.275C0.675 43.775 0.5 42.175 0.5 40.475C0.7 38.025 1.475 36.1 2.825 34.7C4.225 33.25 6 32.525 8.15 32.525C9.95 32.525 11.5 33.05 12.8 34.1C14.15 35.15 14.825 36.5 14.825 38.15C14.825 39.1 14.525 39.9 13.925 40.55C13.375 41.15 12.875 41.45 12.425 41.45H12.2C12.35 41.1 12.425 40.7 12.425 40.25C12.425 39.45 12 38.65 11.15 37.85C10.35 37 9.175 36.575 7.625 36.575C6.425 36.575 5.325 36.875 4.325 37.475C3.375 38.075 2.9 39.05 2.9 40.4C2.9 41.85 3.475 43.075 4.625 44.075ZM61.1129 20.825C59.0129 22.225 57.5129 23.9 56.6129 25.85C55.7629 27.75 55.3379 29.65 55.3379 31.55C55.5379 35.75 57.2379 39.1 60.4379 41.6C63.6879 44.1 68.1629 45.35 73.8629 45.35C76.4129 45.35 78.8879 45.025 81.2879 44.375C83.7379 43.725 85.9129 42.825 87.8129 41.675C89.7629 40.475 91.3129 39.1 92.4629 37.55C93.6129 35.95 94.1879 34.2 94.1879 32.3C94.1879 30.4 93.8129 28.7 93.0629 27.2C92.3629 25.65 91.1129 24.2 89.3129 22.85C86.0629 20.5 83.3379 19.325 81.1379 19.325H76.8629V13.625H86.6129V19.325C88.1629 19.825 89.5629 20.55 90.8129 21.5C92.1129 22.4 93.2129 23.45 94.1129 24.65C95.0129 25.85 95.6879 27.15 96.1379 28.55C96.6379 29.95 96.8879 31.4 96.8879 32.9C96.8879 35.75 96.2879 38.4 95.0879 40.85C93.9379 43.25 92.3379 45.325 90.2879 47.075C88.2879 48.775 85.9379 50.125 83.2379 51.125C80.5879 52.075 77.7379 52.55 74.6879 52.55C71.4879 52.55 68.5629 52.05 65.9129 51.05C63.2629 50 60.9879 48.55 59.0879 46.7C57.1879 44.8 55.7129 42.575 54.6629 40.025C53.6129 37.425 53.0879 34.55 53.0879 31.4C53.0879 28.7 53.4129 26.25 54.0629 24.05C54.7629 21.85 55.6879 20 56.8379 18.5C57.9879 16.95 59.3379 15.775 60.8879 14.975C62.4879 14.125 64.1629 13.7 65.9129 13.7C68.4629 13.7 70.5379 14.55 72.1379 16.25C73.7879 17.9 74.6129 20.3 74.6129 23.45C74.6129 26.45 73.9379 28.7 72.5879 30.2C71.2379 31.65 69.5629 32.375 67.5629 32.375C66.6129 32.375 65.7129 32.2 64.8629 31.85C64.0129 31.45 63.2629 30.9 62.6129 30.2C61.9629 29.5 61.4379 28.65 61.0379 27.65C60.6879 26.65 60.5129 25.55 60.5129 24.35C60.5129 23.8 60.5629 23.225 60.6629 22.625C60.8129 21.975 60.9629 21.375 61.1129 20.825ZM67.5629 19.25C66.4129 19.25 65.4629 19.675 64.7129 20.525C63.9629 21.375 63.5879 22.425 63.5879 23.675C63.5879 24.825 63.9629 25.825 64.7129 26.675C65.4629 27.525 66.4129 27.95 67.5629 27.95C68.6129 27.95 69.5129 27.525 70.2629 26.675C71.0129 25.825 71.3879 24.825 71.3879 23.675C71.3879 22.425 71.0129 21.375 70.2629 20.525C69.5129 19.675 68.6129 19.25 67.5629 19.25ZM125.993 33.8C125.893 31.75 125.418 29.85 124.568 28.1C123.768 26.35 122.668 24.825 121.268 23.525C119.868 22.225 118.243 21.2 116.393 20.45C114.543 19.7 112.568 19.325 110.468 19.325H81.1426V13.625H107.543C110.393 13.625 113.018 14.125 115.418 15.125C117.868 16.075 119.968 17.45 121.718 19.25C123.518 21.05 124.918 23.225 125.918 25.775C126.968 28.325 127.518 31.175 127.568 34.325C127.518 36.925 127.193 39.35 126.593 41.6C125.993 43.8 125.143 45.7 124.043 47.3C122.993 48.9 121.668 50.175 120.068 51.125C118.468 52.025 116.668 52.475 114.668 52.475C108.518 51.775 105.118 47.375 104.468 39.275C104.468 36.675 105.143 34.7 106.493 33.35C107.843 31.95 109.443 31.25 111.293 31.25C112.893 31.25 114.243 31.725 115.343 32.675C116.443 33.625 116.993 34.925 116.993 36.575C116.993 37.775 116.668 38.7 116.018 39.35C115.368 40 114.568 40.325 113.618 40.325C112.718 40.325 111.968 40.075 111.368 39.575C110.768 39.025 110.468 38.325 110.468 37.475C110.468 36.725 110.718 36.025 111.218 35.375L111.893 34.7C111.593 34.35 111.143 34.175 110.543 34.175C109.493 34.175 108.493 34.6 107.543 35.45C106.643 36.3 106.193 37.4 106.193 38.75C106.193 39.8 106.418 40.75 106.868 41.6C107.368 42.4 108.018 43.1 108.818 43.7C109.618 44.3 110.543 44.775 111.593 45.125C112.693 45.425 113.843 45.575 115.043 45.575C118.393 45.575 120.993 44.55 122.843 42.5C124.743 40.45 125.793 37.55 125.993 33.8ZM120.065 69.275C120.165 69.275 120.215 69.325 120.215 69.425L120.44 69.65C120.79 69.85 121.165 70 121.565 70.1C121.915 70.25 122.29 70.325 122.69 70.325C123.84 70.325 124.74 69.95 125.39 69.2C126.04 68.5 126.365 67.625 126.365 66.575C126.365 65.525 125.99 64.625 125.24 63.875C124.44 63.125 123.29 62.75 121.79 62.75C120.14 62.75 118.115 63.725 115.715 65.675C114.715 64.625 113.665 63.875 112.565 63.425C111.415 62.975 110.365 62.75 109.415 62.75C108.115 62.75 107.065 63.15 106.265 63.95C105.415 64.75 104.99 65.7 104.99 66.8C104.99 67.7 105.34 68.45 106.04 69.05C106.74 69.7 107.615 70.025 108.665 70.025C109.415 70.025 110.19 69.825 110.99 69.425L111.14 69.275C111.24 69.275 111.315 69.25 111.365 69.2C111.365 69.3 111.39 69.35 111.44 69.35C111.49 69.4 111.515 69.5 111.515 69.65C111.515 70.2 111.24 70.8 110.69 71.45C110.09 72.15 109.29 72.5 108.29 72.5C106.84 72.5 105.69 71.825 104.84 70.475C103.94 69.125 103.49 67.55 103.49 65.75C103.49 63.95 103.99 62.35 104.99 60.95C105.94 59.6 107.34 58.925 109.19 58.925C110.49 58.925 111.64 59.2 112.64 59.75C113.64 60.35 114.615 61.3 115.565 62.6C116.765 61.15 117.815 60.15 118.715 59.6C119.615 59.05 120.615 58.775 121.715 58.775C123.565 58.775 125.065 59.4 126.215 60.65C127.365 61.95 127.94 63.75 127.94 66.05C127.94 67.8 127.565 69.275 126.815 70.475C126.015 71.725 124.89 72.35 123.44 72.35C122.44 72.35 121.64 72.05 121.04 71.45C120.39 70.85 120.065 70.125 120.065 69.275ZM146.39 45.65C148.34 45.65 150.29 45 152.24 43.7C154.24 42.4 155.815 40.4 156.965 37.7C158.265 40.55 159.64 42.6 161.09 43.85C162.59 45.05 164.415 45.65 166.565 45.65C169.415 45.65 171.615 44.75 173.165 42.95C174.715 41.15 175.49 38.825 175.49 35.975C175.49 33.775 175.04 31.675 174.14 29.675C173.24 27.675 171.965 25.925 170.315 24.425C168.665 22.875 166.665 21.65 164.315 20.75C162.015 19.85 159.465 19.4 156.665 19.4C154.065 19.45 151.64 19.925 149.39 20.825C147.19 21.725 145.265 22.95 143.615 24.5C141.965 26.05 140.665 27.85 139.715 29.9C138.815 31.95 138.365 34.15 138.365 36.5C138.365 39.2 139.015 41.4 140.315 43.1C141.665 44.8 143.69 45.65 146.39 45.65ZM165.965 19.25C167.965 20.2 169.79 21.4 171.44 22.85C173.14 24.3 174.59 25.925 175.79 27.725C176.99 29.525 177.915 31.475 178.565 33.575C179.265 35.625 179.615 37.725 179.615 39.875C179.615 41.675 179.365 43.35 178.865 44.9C178.365 46.4 177.64 47.725 176.69 48.875C175.74 50.025 174.565 50.925 173.165 51.575C171.815 52.225 170.29 52.55 168.59 52.55C166.34 52.55 164.215 51.825 162.215 50.375C160.215 48.925 158.465 46.525 156.965 43.175C155.765 46.525 154.24 48.925 152.39 50.375C150.54 51.825 148.315 52.55 145.715 52.55C143.815 52.55 142.14 52.225 140.69 51.575C139.24 50.925 138.04 50.025 137.09 48.875C136.14 47.725 135.415 46.4 134.915 44.9C134.465 43.35 134.24 41.7 134.24 39.95C134.24 37.8 134.565 35.65 135.215 33.5C135.915 31.3 136.89 29.25 138.14 27.35C139.44 25.45 140.99 23.8 142.79 22.4C144.59 20.95 146.615 19.925 148.865 19.325H134.24V13.625H167.915C170.465 13.625 172.265 13.15 173.315 12.2C174.365 11.25 174.89 9.925 174.89 8.225C174.89 7.075 174.565 5.95 173.915 4.85C173.315 3.75 172.59 2.95 171.74 2.45L173.315 0.874997C174.815 1.725 176.015 2.95 176.915 4.55C177.815 6.15 178.265 8 178.265 10.1C178.265 16.2 174.79 19.25 167.84 19.25H165.965ZM217.161 19.325C221.661 22.075 224.236 27.125 224.886 34.475C224.886 40.075 223.386 44.4 220.386 47.45C217.436 50.45 212.861 52.15 206.661 52.55C203.961 52.55 201.511 52.125 199.311 51.275C197.111 50.425 195.211 49.225 193.611 47.675C192.011 46.125 190.761 44.275 189.861 42.125C189.011 39.975 188.586 37.6 188.586 35C188.736 27.45 191.461 22.225 196.761 19.325H188.586V13.625H216.111C217.611 13.625 218.886 13.175 219.936 12.275C221.036 11.325 221.586 10 221.586 8.3C221.586 7.15 221.286 6.025 220.686 4.925C220.086 3.825 219.336 3.05 218.436 2.6L220.011 1.025C221.511 1.825 222.711 3.025 223.611 4.625C224.511 6.225 224.961 8.075 224.961 10.175C224.961 15.875 222.361 18.925 217.161 19.325ZM222.036 32.45C222.036 30.55 221.661 28.85 220.911 27.35C220.211 25.8 219.261 24.475 218.061 23.375C216.861 22.275 215.461 21.4 213.861 20.75C212.311 20.05 210.686 19.575 208.986 19.325H204.336C202.636 19.575 200.986 20.05 199.386 20.75C197.836 21.4 196.436 22.275 195.186 23.375C193.986 24.475 193.011 25.8 192.261 27.35C191.561 28.85 191.211 30.55 191.211 32.45C191.211 34.6 191.636 36.5 192.486 38.15C193.336 39.8 194.461 41.2 195.861 42.35C197.261 43.45 198.886 44.3 200.736 44.9C202.586 45.45 204.511 45.725 206.511 45.725C208.561 45.725 210.511 45.45 212.361 44.9C214.261 44.3 215.911 43.45 217.311 42.35C218.761 41.2 219.911 39.8 220.761 38.15C221.611 36.5 222.036 34.6 222.036 32.45ZM237.594 52.55C230.244 52.55 226.194 46.475 225.444 34.325C226.694 38.375 228.244 41.35 230.094 43.25C231.994 45.1 234.244 46.025 236.844 46.025C239.294 45.775 241.069 45.1 242.169 44C243.319 42.9 243.894 41.4 243.894 39.5C243.894 38.3 243.819 37.275 243.669 36.425C243.569 35.575 243.444 34.8 243.294 34.1C243.194 33.4 243.069 32.725 242.919 32.075C242.819 31.375 242.769 30.575 242.769 29.675C242.769 27.275 243.119 25.1 243.819 23.15C244.569 21.15 245.569 19.45 246.819 18.05C248.119 16.6 249.644 15.5 251.394 14.75C253.194 13.95 255.144 13.55 257.244 13.55C259.794 13.55 262.169 14.075 264.369 15.125C266.569 16.175 268.494 17.65 270.144 19.55C271.794 21.4 273.094 23.625 274.044 26.225C274.994 28.825 275.469 31.65 275.469 34.7C275.469 37.35 275.144 39.775 274.494 41.975C273.894 44.175 272.994 46.075 271.794 47.675C270.644 49.225 269.244 50.45 267.594 51.35C265.994 52.2 264.219 52.625 262.269 52.625C256.119 51.975 252.619 47.725 251.769 39.875C251.769 37.125 252.444 35.05 253.794 33.65C255.194 32.25 256.844 31.55 258.744 31.55C260.344 31.55 261.719 32.05 262.869 33.05C264.019 34 264.594 35.3 264.594 36.95C264.594 38.25 264.244 39.225 263.544 39.875C262.894 40.525 262.069 40.85 261.069 40.85C260.169 40.85 259.394 40.6 258.744 40.1C258.094 39.55 257.769 38.8 257.769 37.85C257.769 37.1 258.044 36.4 258.594 35.75L259.344 35.075C259.044 34.775 258.544 34.625 257.844 34.625C256.844 34.625 255.869 35.05 254.919 35.9C253.969 36.7 253.494 37.825 253.494 39.275C253.494 40.325 253.719 41.25 254.169 42.05C254.669 42.85 255.319 43.55 256.119 44.15C256.969 44.7 257.944 45.125 259.044 45.425C260.144 45.725 261.319 45.875 262.569 45.875C265.869 45.875 268.519 44.9 270.519 42.95C272.569 41 273.594 38.3 273.594 34.85C273.594 32.95 273.219 31.1 272.469 29.3C271.769 27.45 270.744 25.825 269.394 24.425C268.044 22.975 266.444 21.825 264.594 20.975C262.744 20.075 260.694 19.625 258.444 19.625C256.694 19.625 255.019 19.925 253.419 20.525C251.819 21.125 250.394 22 249.144 23.15C247.944 24.3 246.969 25.725 246.219 27.425C245.519 29.075 245.169 30.95 245.169 33.05C245.169 33.25 245.219 33.75 245.319 34.55C245.419 35.35 245.544 36.25 245.694 37.25C245.844 38.25 245.969 39.3 246.069 40.4C246.169 41.45 246.219 42.325 246.219 43.025C246.219 49.375 243.344 52.55 237.594 52.55ZM344.329 38.225C345.429 38.225 346.529 38 347.629 37.55C348.729 37.1 349.679 36.425 350.479 35.525C349.329 33.575 347.379 32.6 344.629 32.6C343.229 32.6 342.129 32.9 341.329 33.5C340.579 34.1 340.204 34.8 340.204 35.6C340.204 37.35 341.579 38.225 344.329 38.225ZM353.179 36.725C353.429 37.125 353.554 37.675 353.554 38.375C353.554 38.725 353.429 39.275 353.179 40.025C352.979 40.775 352.729 41.575 352.429 42.425C352.179 43.275 351.929 44.1 351.679 44.9C351.479 45.7 351.379 46.275 351.379 46.625C351.379 47.075 351.554 47.575 351.904 48.125C352.304 48.625 352.829 48.875 353.479 48.875C354.979 48.875 355.729 47.775 355.729 45.575L357.004 46.25V47.9C357.004 49.5 356.554 50.675 355.654 51.425C354.754 52.175 353.579 52.55 352.129 52.55C350.679 52.55 349.404 52.075 348.304 51.125C347.254 50.175 346.729 48.925 346.729 47.375C346.829 46.775 347.104 45.8 347.554 44.45C348.054 43.1 348.729 41.5 349.579 39.65C348.629 40.3 347.479 40.825 346.129 41.225C344.829 41.625 343.779 41.825 342.979 41.825C340.429 41.825 338.504 41.3 337.204 40.25C335.904 39.2 335.254 37.95 335.254 36.5C335.254 34.85 335.954 33.475 337.354 32.375C338.804 31.275 340.879 30.725 343.579 30.725C346.829 30.725 349.679 31.8 352.129 33.95C352.929 33.65 353.604 32.95 354.154 31.85C354.704 30.7 354.979 29.5 354.979 28.25C354.979 27.05 354.729 25.9 354.229 24.8C353.779 23.7 353.154 22.75 352.354 21.95C351.554 21.1 350.579 20.425 349.429 19.925C348.329 19.425 347.154 19.175 345.904 19.175C343.754 19.175 341.604 19.9 339.454 21.35C337.354 22.8 335.504 24.8 333.904 27.35C333.104 24.8 331.754 22.8 329.854 21.35C327.954 19.9 325.729 19.175 323.179 19.175C321.829 19.175 320.579 19.4 319.429 19.85C318.329 20.25 317.379 20.8 316.579 21.5C315.829 22.2 315.229 23 314.779 23.9C314.329 24.8 314.104 25.725 314.104 26.675C314.104 28.225 314.779 29.5 316.129 30.5C317.529 31.45 319.729 31.925 322.729 31.925C322.979 32.325 323.104 32.825 323.104 33.425C323.104 34.075 322.904 34.625 322.504 35.075C322.154 35.475 321.529 35.675 320.629 35.675C319.279 35.675 318.054 35.4 316.954 34.85C315.854 34.25 314.929 33.475 314.179 32.525C313.429 31.525 312.829 30.4 312.379 29.15C311.979 27.85 311.779 26.475 311.779 25.025C311.779 21.725 312.679 19 314.479 16.85C316.279 14.7 319.079 13.625 322.879 13.625C323.979 13.625 325.079 13.85 326.179 14.3C327.329 14.7 328.404 15.275 329.404 16.025C330.404 16.775 331.304 17.65 332.104 18.65C332.954 19.65 333.629 20.75 334.129 21.95C335.829 19.1 337.729 17 339.829 15.65C341.979 14.3 344.204 13.625 346.504 13.625C348.004 13.625 349.404 13.925 350.704 14.525C352.004 15.125 353.129 15.975 354.079 17.075C355.079 18.125 355.854 19.45 356.404 21.05C356.954 22.6 357.229 24.35 357.229 26.3C357.229 28.25 356.854 30.1 356.104 31.85C355.404 33.55 354.429 35.175 353.179 36.725ZM394.773 19.325C399.273 22.075 401.848 27.125 402.498 34.475C402.498 40.075 400.998 44.4 397.998 47.45C395.048 50.45 390.473 52.15 384.273 52.55C381.573 52.55 379.123 52.125 376.923 51.275C374.723 50.425 372.823 49.225 371.223 47.675C369.623 46.125 368.373 44.275 367.473 42.125C366.623 39.975 366.198 37.6 366.198 35C366.348 27.45 369.073 22.225 374.373 19.325H366.198V13.625H393.723C395.223 13.625 396.498 13.175 397.548 12.275C398.648 11.325 399.198 10 399.198 8.3C399.198 7.15 398.898 6.025 398.298 4.925C397.698 3.825 396.948 3.05 396.048 2.6L397.623 1.025C399.123 1.825 400.323 3.025 401.223 4.625C402.123 6.225 402.573 8.075 402.573 10.175C402.573 15.875 399.973 18.925 394.773 19.325ZM399.648 32.45C399.648 30.55 399.273 28.85 398.523 27.35C397.823 25.8 396.873 24.475 395.673 23.375C394.473 22.275 393.073 21.4 391.473 20.75C389.923 20.05 388.298 19.575 386.598 19.325H381.948C380.248 19.575 378.598 20.05 376.998 20.75C375.448 21.4 374.048 22.275 372.798 23.375C371.598 24.475 370.623 25.8 369.873 27.35C369.173 28.85 368.823 30.55 368.823 32.45C368.823 34.6 369.248 36.5 370.098 38.15C370.948 39.8 372.073 41.2 373.473 42.35C374.873 43.45 376.498 44.3 378.348 44.9C380.198 45.45 382.123 45.725 384.123 45.725C386.173 45.725 388.123 45.45 389.973 44.9C391.873 44.3 393.523 43.45 394.923 42.35C396.373 41.2 397.523 39.8 398.373 38.15C399.223 36.5 399.648 34.6 399.648 32.45ZM412.132 20C410.032 19.5 408.982 18.45 408.982 16.85C408.982 15.9 409.282 15.15 409.882 14.6C410.532 14 411.332 13.7 412.282 13.7C414.082 13.7 415.982 14.25 417.982 15.35C419.982 16.4 421.807 17.925 423.457 19.925C425.157 21.875 426.582 24.275 427.732 27.125C428.882 29.975 429.507 33.15 429.607 36.65C429.307 47.25 424.957 52.55 416.557 52.55C408.957 52.35 404.457 45.75 403.057 32.75C405.357 41.1 410.032 45.4 417.082 45.65C423.982 45.5 427.532 42.025 427.732 35.225C427.132 25.275 421.932 20.2 412.132 20ZM470.006 44.075C471.306 45.225 473.106 45.8 475.406 45.8C477.956 45.8 480.231 45.125 482.231 43.775C484.281 42.375 486.081 39.95 487.631 36.5C488.831 39.9 490.331 42.275 492.131 43.625C493.931 44.975 496.106 45.65 498.656 45.65C501.206 45.65 503.256 44.75 504.806 42.95C506.406 41.15 507.206 38.6 507.206 35.3C507.206 33.45 506.581 31.6 505.331 29.75C504.131 27.9 502.481 26.25 500.381 24.8C498.331 23.35 495.956 22.175 493.256 21.275C490.556 20.375 487.756 19.925 484.856 19.925C483.106 19.925 481.781 20.025 480.881 20.225C479.981 20.375 479.306 20.45 478.856 20.45C477.956 20.45 477.206 20.175 476.606 19.625C476.006 19.075 475.706 18.45 475.706 17.75C475.706 16.6 476.331 15.625 477.581 14.825C478.831 13.975 480.731 13.55 483.281 13.55C486.781 13.55 490.106 14.2 493.256 15.5C496.456 16.8 499.256 18.625 501.656 20.975C504.056 23.275 505.956 26.025 507.356 29.225C508.756 32.425 509.456 35.925 509.456 39.725C509.456 41.475 509.206 43.15 508.706 44.75C508.256 46.3 507.581 47.675 506.681 48.875C505.781 50.025 504.706 50.95 503.456 51.65C502.206 52.3 500.806 52.625 499.256 52.625C492.656 52.625 488.781 48.9 487.631 41.45C485.881 48.9 481.956 52.625 475.856 52.625C474.106 52.625 472.606 52.325 471.356 51.725C470.106 51.075 469.056 50.2 468.206 49.1C467.406 48 466.806 46.725 466.406 45.275C466.056 43.775 465.881 42.175 465.881 40.475C466.081 38.025 466.856 36.1 468.206 34.7C469.606 33.25 471.381 32.525 473.531 32.525C475.331 32.525 476.881 33.05 478.181 34.1C479.531 35.15 480.206 36.5 480.206 38.15C480.206 39.1 479.906 39.9 479.306 40.55C478.756 41.15 478.256 41.45 477.806 41.45H477.581C477.731 41.1 477.806 40.7 477.806 40.25C477.806 39.45 477.381 38.65 476.531 37.85C475.731 37 474.556 36.575 473.006 36.575C471.806 36.575 470.706 36.875 469.706 37.475C468.756 38.075 468.281 39.05 468.281 40.4C468.281 41.85 468.856 43.075 470.006 44.075ZM518.544 32.975C518.544 30.425 518.944 27.975 519.744 25.625C520.544 23.275 521.694 21.225 523.194 19.475C524.744 17.675 526.594 16.25 528.744 15.2C530.944 14.15 533.394 13.625 536.094 13.625C538.944 13.625 541.494 14.125 543.744 15.125C545.994 16.125 547.894 17.525 549.444 19.325C551.044 21.075 552.244 23.15 553.044 25.55C553.894 27.9 554.319 30.425 554.319 33.125C554.319 35.775 553.919 38.275 553.119 40.625C552.369 42.975 551.244 45.05 549.744 46.85C548.244 48.65 546.394 50.075 544.194 51.125C542.044 52.175 539.569 52.7 536.769 52.7C534.169 52.7 531.744 52.2 529.494 51.2C527.294 50.2 525.369 48.85 523.719 47.15C522.119 45.4 520.844 43.4 519.894 41.15C518.994 38.85 518.544 36.425 518.544 33.875V32.975ZM551.844 32.45C551.844 30.3 551.369 28.4 550.419 26.75C549.519 25.1 548.319 23.725 546.819 22.625C545.369 21.475 543.694 20.625 541.794 20.075C539.944 19.475 538.094 19.175 536.244 19.175C534.294 19.175 532.369 19.475 530.469 20.075C528.619 20.675 526.944 21.55 525.444 22.7C523.944 23.8 522.744 25.2 521.844 26.9C520.944 28.55 520.494 30.425 520.494 32.525C520.494 34.675 520.944 36.575 521.844 38.225C522.744 39.875 523.919 41.25 525.369 42.35C526.819 43.45 528.469 44.3 530.319 44.9C532.219 45.45 534.144 45.725 536.094 45.725C538.044 45.725 539.944 45.45 541.794 44.9C543.694 44.3 545.369 43.45 546.819 42.35C548.319 41.2 549.519 39.8 550.419 38.15C551.369 36.5 551.844 34.6 551.844 32.45ZM580.918 32.6C583.018 32.6 584.793 32.25 586.243 31.55C587.693 30.8 588.943 29.625 589.993 28.025C588.243 26.825 586.168 26.225 583.768 26.225C581.668 26.225 580.068 26.625 578.968 27.425C577.918 28.175 577.393 29.05 577.393 30.05C577.393 31.75 578.568 32.6 580.918 32.6ZM563.668 19.4V13.625H589.993L590.068 19.25C591.418 20.15 592.493 21.325 593.293 22.775C594.143 24.175 594.568 25.925 594.568 28.025C596.268 29.025 597.493 30.4 598.243 32.15C598.993 33.9 599.368 35.9 599.368 38.15C599.368 40.35 598.918 42.35 598.018 44.15C597.118 45.9 595.868 47.4 594.268 48.65C592.718 49.9 590.843 50.875 588.643 51.575C586.443 52.225 584.068 52.55 581.518 52.55C579.018 52.55 576.643 52.25 574.393 51.65C572.193 51 570.268 50.125 568.618 49.025C566.968 47.875 565.668 46.5 564.718 44.9C563.768 43.25 563.293 41.45 563.293 39.5C563.293 38.2 563.593 36.975 564.193 35.825C564.793 34.675 565.568 33.925 566.518 33.575C566.468 33.625 566.443 33.925 566.443 34.475V35.15C566.443 37 566.818 38.6 567.568 39.95C568.368 41.3 569.443 42.4 570.793 43.25C572.143 44.1 573.718 44.75 575.518 45.2C577.368 45.6 579.343 45.8 581.443 45.8C583.443 45.8 585.318 45.575 587.068 45.125C588.868 44.675 590.443 44.025 591.793 43.175C593.193 42.325 594.318 41.3 595.168 40.1C596.018 38.9 596.518 37.55 596.668 36.05C596.618 33.75 595.818 32.025 594.268 30.875C592.018 33.425 589.893 35.225 587.893 36.275C585.943 37.275 583.743 37.775 581.293 37.775C578.593 37.775 576.468 37.1 574.918 35.75C573.418 34.35 572.668 32.725 572.668 30.875C572.668 28.825 573.568 27.175 575.368 25.925C577.168 24.675 579.743 24.05 583.093 24.05C584.043 24.05 585.193 24.125 586.543 24.275C587.943 24.425 589.143 24.85 590.143 25.55L590.368 24.575C590.368 23.175 589.893 22 588.943 21.05C587.993 20.1 586.818 19.55 585.418 19.4H563.668ZM628.434 33.8C628.334 31.75 627.859 29.85 627.009 28.1C626.209 26.35 625.109 24.825 623.709 23.525C622.309 22.225 620.684 21.2 618.834 20.45C616.984 19.7 615.009 19.325 612.909 19.325H583.584V13.625H609.984C612.834 13.625 615.459 14.125 617.859 15.125C620.309 16.075 622.409 17.45 624.159 19.25C625.959 21.05 627.359 23.225 628.359 25.775C629.409 28.325 629.959 31.175 630.009 34.325C629.959 36.925 629.634 39.35 629.034 41.6C628.434 43.8 627.584 45.7 626.484 47.3C625.434 48.9 624.109 50.175 622.509 51.125C620.909 52.025 619.109 52.475 617.109 52.475C610.959 51.775 607.559 47.375 606.909 39.275C606.909 36.675 607.584 34.7 608.934 33.35C610.284 31.95 611.884 31.25 613.734 31.25C615.334 31.25 616.684 31.725 617.784 32.675C618.884 33.625 619.434 34.925 619.434 36.575C619.434 37.775 619.109 38.7 618.459 39.35C617.809 40 617.009 40.325 616.059 40.325C615.159 40.325 614.409 40.075 613.809 39.575C613.209 39.025 612.909 38.325 612.909 37.475C612.909 36.725 613.159 36.025 613.659 35.375L614.334 34.7C614.034 34.35 613.584 34.175 612.984 34.175C611.934 34.175 610.934 34.6 609.984 35.45C609.084 36.3 608.634 37.4 608.634 38.75C608.634 39.8 608.859 40.75 609.309 41.6C609.809 42.4 610.459 43.1 611.259 43.7C612.059 44.3 612.984 44.775 614.034 45.125C615.134 45.425 616.284 45.575 617.484 45.575C620.834 45.575 623.434 44.55 625.284 42.5C627.184 40.45 628.234 37.55 628.434 33.8ZM648.832 45.65C650.782 45.65 652.732 45 654.682 43.7C656.682 42.4 658.257 40.4 659.407 37.7C660.707 40.55 662.082 42.6 663.532 43.85C665.032 45.05 666.857 45.65 669.007 45.65C671.857 45.65 674.057 44.75 675.607 42.95C677.157 41.15 677.932 38.825 677.932 35.975C677.932 33.775 677.482 31.675 676.582 29.675C675.682 27.675 674.407 25.925 672.757 24.425C671.107 22.875 669.107 21.65 666.757 20.75C664.457 19.85 661.907 19.4 659.107 19.4C656.507 19.45 654.082 19.925 651.832 20.825C649.632 21.725 647.707 22.95 646.057 24.5C644.407 26.05 643.107 27.85 642.157 29.9C641.257 31.95 640.807 34.15 640.807 36.5C640.807 39.2 641.457 41.4 642.757 43.1C644.107 44.8 646.132 45.65 648.832 45.65ZM668.407 19.25C670.407 20.2 672.232 21.4 673.882 22.85C675.582 24.3 677.032 25.925 678.232 27.725C679.432 29.525 680.357 31.475 681.007 33.575C681.707 35.625 682.057 37.725 682.057 39.875C682.057 41.675 681.807 43.35 681.307 44.9C680.807 46.4 680.082 47.725 679.132 48.875C678.182 50.025 677.007 50.925 675.607 51.575C674.257 52.225 672.732 52.55 671.032 52.55C668.782 52.55 666.657 51.825 664.657 50.375C662.657 48.925 660.907 46.525 659.407 43.175C658.207 46.525 656.682 48.925 654.832 50.375C652.982 51.825 650.757 52.55 648.157 52.55C646.257 52.55 644.582 52.225 643.132 51.575C641.682 50.925 640.482 50.025 639.532 48.875C638.582 47.725 637.857 46.4 637.357 44.9C636.907 43.35 636.682 41.7 636.682 39.95C636.682 37.8 637.007 35.65 637.657 33.5C638.357 31.3 639.332 29.25 640.582 27.35C641.882 25.45 643.432 23.8 645.232 22.4C647.032 20.95 649.057 19.925 651.307 19.325H636.682V13.625H670.357C672.907 13.625 674.707 13.15 675.757 12.2C676.807 11.25 677.332 9.925 677.332 8.225C677.332 7.075 677.007 5.95 676.357 4.85C675.757 3.75 675.032 2.95 674.182 2.45L675.757 0.874997C677.257 1.725 678.457 2.95 679.357 4.55C680.257 6.15 680.707 8 680.707 10.1C680.707 16.2 677.232 19.25 670.282 19.25H668.407ZM719.602 19.325C724.102 22.075 726.677 27.125 727.327 34.475C727.327 40.075 725.827 44.4 722.827 47.45C719.877 50.45 715.302 52.15 709.102 52.55C706.402 52.55 703.952 52.125 701.752 51.275C699.552 50.425 697.652 49.225 696.052 47.675C694.452 46.125 693.202 44.275 692.302 42.125C691.452 39.975 691.027 37.6 691.027 35C691.177 27.45 693.902 22.225 699.202 19.325H691.027V13.625H718.552C720.052 13.625 721.327 13.175 722.377 12.275C723.477 11.325 724.027 10 724.027 8.3C724.027 7.15 723.727 6.025 723.127 4.925C722.527 3.825 721.777 3.05 720.877 2.6L722.452 1.025C723.952 1.825 725.152 3.025 726.052 4.625C726.952 6.225 727.402 8.075 727.402 10.175C727.402 15.875 724.802 18.925 719.602 19.325ZM724.477 32.45C724.477 30.55 724.102 28.85 723.352 27.35C722.652 25.8 721.702 24.475 720.502 23.375C719.302 22.275 717.902 21.4 716.302 20.75C714.752 20.05 713.127 19.575 711.427 19.325H706.777C705.077 19.575 703.427 20.05 701.827 20.75C700.277 21.4 698.877 22.275 697.627 23.375C696.427 24.475 695.452 25.8 694.702 27.35C694.002 28.85 693.652 30.55 693.652 32.45C693.652 34.6 694.077 36.5 694.927 38.15C695.777 39.8 696.902 41.2 698.302 42.35C699.702 43.45 701.327 44.3 703.177 44.9C705.027 45.45 706.952 45.725 708.952 45.725C711.002 45.725 712.952 45.45 714.802 44.9C716.702 44.3 718.352 43.45 719.752 42.35C721.202 41.2 722.352 39.8 723.202 38.15C724.052 36.5 724.477 34.6 724.477 32.45ZM736.961 20C734.861 19.5 733.811 18.45 733.811 16.85C733.811 15.9 734.111 15.15 734.711 14.6C735.361 14 736.161 13.7 737.111 13.7C738.911 13.7 740.811 14.25 742.811 15.35C744.811 16.4 746.636 17.925 748.286 19.925C749.986 21.875 751.411 24.275 752.561 27.125C753.711 29.975 754.336 33.15 754.436 36.65C754.136 47.25 749.786 52.55 741.386 52.55C733.786 52.35 729.286 45.75 727.886 32.75C730.186 41.1 734.861 45.4 741.911 45.65C748.811 45.5 752.361 42.025 752.561 35.225C751.961 25.275 746.761 20.2 736.961 20ZM823.26 38.225C824.36 38.225 825.46 38 826.56 37.55C827.66 37.1 828.61 36.425 829.41 35.525C828.26 33.575 826.31 32.6 823.56 32.6C822.16 32.6 821.06 32.9 820.26 33.5C819.51 34.1 819.135 34.8 819.135 35.6C819.135 37.35 820.51 38.225 823.26 38.225ZM832.11 36.725C832.36 37.125 832.485 37.675 832.485 38.375C832.485 38.725 832.36 39.275 832.11 40.025C831.91 40.775 831.66 41.575 831.36 42.425C831.11 43.275 830.86 44.1 830.61 44.9C830.41 45.7 830.31 46.275 830.31 46.625C830.31 47.075 830.485 47.575 830.835 48.125C831.235 48.625 831.76 48.875 832.41 48.875C833.91 48.875 834.66 47.775 834.66 45.575L835.935 46.25V47.9C835.935 49.5 835.485 50.675 834.585 51.425C833.685 52.175 832.51 52.55 831.06 52.55C829.61 52.55 828.335 52.075 827.235 51.125C826.185 50.175 825.66 48.925 825.66 47.375C825.76 46.775 826.035 45.8 826.485 44.45C826.985 43.1 827.66 41.5 828.51 39.65C827.56 40.3 826.41 40.825 825.06 41.225C823.76 41.625 822.71 41.825 821.91 41.825C819.36 41.825 817.435 41.3 816.135 40.25C814.835 39.2 814.185 37.95 814.185 36.5C814.185 34.85 814.885 33.475 816.285 32.375C817.735 31.275 819.81 30.725 822.51 30.725C825.76 30.725 828.61 31.8 831.06 33.95C831.86 33.65 832.535 32.95 833.085 31.85C833.635 30.7 833.91 29.5 833.91 28.25C833.91 27.05 833.66 25.9 833.16 24.8C832.71 23.7 832.085 22.75 831.285 21.95C830.485 21.1 829.51 20.425 828.36 19.925C827.26 19.425 826.085 19.175 824.835 19.175C822.685 19.175 820.535 19.9 818.385 21.35C816.285 22.8 814.435 24.8 812.835 27.35C812.035 24.8 810.685 22.8 808.785 21.35C806.885 19.9 804.66 19.175 802.11 19.175C800.76 19.175 799.51 19.4 798.36 19.85C797.26 20.25 796.31 20.8 795.51 21.5C794.76 22.2 794.16 23 793.71 23.9C793.26 24.8 793.035 25.725 793.035 26.675C793.035 28.225 793.71 29.5 795.06 30.5C796.46 31.45 798.66 31.925 801.66 31.925C801.91 32.325 802.035 32.825 802.035 33.425C802.035 34.075 801.835 34.625 801.435 35.075C801.085 35.475 800.46 35.675 799.56 35.675C798.21 35.675 796.985 35.4 795.885 34.85C794.785 34.25 793.86 33.475 793.11 32.525C792.36 31.525 791.76 30.4 791.31 29.15C790.91 27.85 790.71 26.475 790.71 25.025C790.71 21.725 791.61 19 793.41 16.85C795.21 14.7 798.01 13.625 801.81 13.625C802.91 13.625 804.01 13.85 805.11 14.3C806.26 14.7 807.335 15.275 808.335 16.025C809.335 16.775 810.235 17.65 811.035 18.65C811.885 19.65 812.56 20.75 813.06 21.95C814.76 19.1 816.66 17 818.76 15.65C820.91 14.3 823.135 13.625 825.435 13.625C826.935 13.625 828.335 13.925 829.635 14.525C830.935 15.125 832.06 15.975 833.01 17.075C834.01 18.125 834.785 19.45 835.335 21.05C835.885 22.6 836.16 24.35 836.16 26.3C836.16 28.25 835.785 30.1 835.035 31.85C834.335 33.55 833.36 35.175 832.11 36.725ZM873.704 19.325C878.204 22.075 880.779 27.125 881.429 34.475C881.429 40.075 879.929 44.4 876.929 47.45C873.979 50.45 869.404 52.15 863.204 52.55C860.504 52.55 858.054 52.125 855.854 51.275C853.654 50.425 851.754 49.225 850.154 47.675C848.554 46.125 847.304 44.275 846.404 42.125C845.554 39.975 845.129 37.6 845.129 35C845.279 27.45 848.004 22.225 853.304 19.325H845.129V13.625H872.654C874.154 13.625 875.429 13.175 876.479 12.275C877.579 11.325 878.129 10 878.129 8.3C878.129 7.15 877.829 6.025 877.229 4.925C876.629 3.825 875.879 3.05 874.979 2.6L876.554 1.025C878.054 1.825 879.254 3.025 880.154 4.625C881.054 6.225 881.504 8.075 881.504 10.175C881.504 15.875 878.904 18.925 873.704 19.325ZM878.579 32.45C878.579 30.55 878.204 28.85 877.454 27.35C876.754 25.8 875.804 24.475 874.604 23.375C873.404 22.275 872.004 21.4 870.404 20.75C868.854 20.05 867.229 19.575 865.529 19.325H860.879C859.179 19.575 857.529 20.05 855.929 20.75C854.379 21.4 852.979 22.275 851.729 23.375C850.529 24.475 849.554 25.8 848.804 27.35C848.104 28.85 847.754 30.55 847.754 32.45C847.754 34.6 848.179 36.5 849.029 38.15C849.879 39.8 851.004 41.2 852.404 42.35C853.804 43.45 855.429 44.3 857.279 44.9C859.129 45.45 861.054 45.725 863.054 45.725C865.104 45.725 867.054 45.45 868.904 44.9C870.804 44.3 872.454 43.45 873.854 42.35C875.304 41.2 876.454 39.8 877.304 38.15C878.154 36.5 878.579 34.6 878.579 32.45ZM891.062 20C888.962 19.5 887.912 18.45 887.912 16.85C887.912 15.9 888.212 15.15 888.812 14.6C889.462 14 890.262 13.7 891.212 13.7C893.012 13.7 894.912 14.25 896.912 15.35C898.912 16.4 900.737 17.925 902.387 19.925C904.087 21.875 905.512 24.275 906.662 27.125C907.812 29.975 908.437 33.15 908.537 36.65C908.237 47.25 903.887 52.55 895.487 52.55C887.887 52.35 883.387 45.75 881.987 32.75C884.287 41.1 888.962 45.4 896.012 45.65C902.912 45.5 906.462 42.025 906.662 35.225C906.062 25.275 900.862 20.2 891.062 20ZM948.937 44.075C950.237 45.225 952.037 45.8 954.337 45.8C956.887 45.8 959.162 45.125 961.162 43.775C963.212 42.375 965.012 39.95 966.562 36.5C967.762 39.9 969.262 42.275 971.062 43.625C972.862 44.975 975.037 45.65 977.587 45.65C980.137 45.65 982.187 44.75 983.737 42.95C985.337 41.15 986.137 38.6 986.137 35.3C986.137 33.45 985.512 31.6 984.262 29.75C983.062 27.9 981.412 26.25 979.312 24.8C977.262 23.35 974.887 22.175 972.187 21.275C969.487 20.375 966.687 19.925 963.787 19.925C962.037 19.925 960.712 20.025 959.812 20.225C958.912 20.375 958.237 20.45 957.787 20.45C956.887 20.45 956.137 20.175 955.537 19.625C954.937 19.075 954.637 18.45 954.637 17.75C954.637 16.6 955.262 15.625 956.512 14.825C957.762 13.975 959.662 13.55 962.212 13.55C965.712 13.55 969.037 14.2 972.187 15.5C975.387 16.8 978.187 18.625 980.587 20.975C982.987 23.275 984.887 26.025 986.287 29.225C987.687 32.425 988.387 35.925 988.387 39.725C988.387 41.475 988.137 43.15 987.637 44.75C987.187 46.3 986.512 47.675 985.612 48.875C984.712 50.025 983.637 50.95 982.387 51.65C981.137 52.3 979.737 52.625 978.187 52.625C971.587 52.625 967.712 48.9 966.562 41.45C964.812 48.9 960.887 52.625 954.787 52.625C953.037 52.625 951.537 52.325 950.287 51.725C949.037 51.075 947.987 50.2 947.137 49.1C946.337 48 945.737 46.725 945.337 45.275C944.987 43.775 944.812 42.175 944.812 40.475C945.012 38.025 945.787 36.1 947.137 34.7C948.537 33.25 950.312 32.525 952.462 32.525C954.262 32.525 955.812 33.05 957.112 34.1C958.462 35.15 959.137 36.5 959.137 38.15C959.137 39.1 958.837 39.9 958.237 40.55C957.687 41.15 957.187 41.45 956.737 41.45H956.512C956.662 41.1 956.737 40.7 956.737 40.25C956.737 39.45 956.312 38.65 955.462 37.85C954.662 37 953.487 36.575 951.937 36.575C950.737 36.575 949.637 36.875 948.637 37.475C947.687 38.075 947.212 39.05 947.212 40.4C947.212 41.85 947.787 43.075 948.937 44.075ZM997.474 32.975C997.474 30.425 997.874 27.975 998.674 25.625C999.474 23.275 1000.62 21.225 1002.12 19.475C1003.67 17.675 1005.52 16.25 1007.67 15.2C1009.87 14.15 1012.32 13.625 1015.02 13.625C1017.87 13.625 1020.42 14.125 1022.67 15.125C1024.92 16.125 1026.82 17.525 1028.37 19.325C1029.97 21.075 1031.17 23.15 1031.97 25.55C1032.82 27.9 1033.25 30.425 1033.25 33.125C1033.25 35.775 1032.85 38.275 1032.05 40.625C1031.3 42.975 1030.17 45.05 1028.67 46.85C1027.17 48.65 1025.32 50.075 1023.12 51.125C1020.97 52.175 1018.5 52.7 1015.7 52.7C1013.1 52.7 1010.67 52.2 1008.42 51.2C1006.22 50.2 1004.3 48.85 1002.65 47.15C1001.05 45.4 999.774 43.4 998.824 41.15C997.924 38.85 997.474 36.425 997.474 33.875V32.975ZM1030.77 32.45C1030.77 30.3 1030.3 28.4 1029.35 26.75C1028.45 25.1 1027.25 23.725 1025.75 22.625C1024.3 21.475 1022.62 20.625 1020.72 20.075C1018.87 19.475 1017.02 19.175 1015.17 19.175C1013.22 19.175 1011.3 19.475 1009.4 20.075C1007.55 20.675 1005.87 21.55 1004.37 22.7C1002.87 23.8 1001.67 25.2 1000.77 26.9C999.874 28.55 999.424 30.425 999.424 32.525C999.424 34.675 999.874 36.575 1000.77 38.225C1001.67 39.875 1002.85 41.25 1004.3 42.35C1005.75 43.45 1007.4 44.3 1009.25 44.9C1011.15 45.45 1013.07 45.725 1015.02 45.725C1016.97 45.725 1018.87 45.45 1020.72 44.9C1022.62 44.3 1024.3 43.45 1025.75 42.35C1027.25 41.2 1028.45 39.8 1029.35 38.15C1030.3 36.5 1030.77 34.6 1030.77 32.45ZM1054.37 45.65C1056.32 45.65 1058.27 45 1060.22 43.7C1062.22 42.4 1063.8 40.4 1064.95 37.7C1066.25 40.55 1067.62 42.6 1069.07 43.85C1070.57 45.05 1072.4 45.65 1074.55 45.65C1077.4 45.65 1079.6 44.75 1081.15 42.95C1082.7 41.15 1083.47 38.825 1083.47 35.975C1083.47 33.775 1083.02 31.675 1082.12 29.675C1081.22 27.675 1079.95 25.925 1078.3 24.425C1076.65 22.875 1074.65 21.65 1072.3 20.75C1070 19.85 1067.45 19.4 1064.65 19.4C1062.05 19.45 1059.62 19.925 1057.37 20.825C1055.17 21.725 1053.25 22.95 1051.6 24.5C1049.95 26.05 1048.65 27.85 1047.7 29.9C1046.8 31.95 1046.35 34.15 1046.35 36.5C1046.35 39.2 1047 41.4 1048.3 43.1C1049.65 44.8 1051.67 45.65 1054.37 45.65ZM1073.95 19.25C1075.95 20.2 1077.77 21.4 1079.42 22.85C1081.12 24.3 1082.57 25.925 1083.77 27.725C1084.97 29.525 1085.9 31.475 1086.55 33.575C1087.25 35.625 1087.6 37.725 1087.6 39.875C1087.6 41.675 1087.35 43.35 1086.85 44.9C1086.35 46.4 1085.62 47.725 1084.67 48.875C1083.72 50.025 1082.55 50.925 1081.15 51.575C1079.8 52.225 1078.27 52.55 1076.57 52.55C1074.32 52.55 1072.2 51.825 1070.2 50.375C1068.2 48.925 1066.45 46.525 1064.95 43.175C1063.75 46.525 1062.22 48.925 1060.37 50.375C1058.52 51.825 1056.3 52.55 1053.7 52.55C1051.8 52.55 1050.12 52.225 1048.67 51.575C1047.22 50.925 1046.02 50.025 1045.07 48.875C1044.12 47.725 1043.4 46.4 1042.9 44.9C1042.45 43.35 1042.22 41.7 1042.22 39.95C1042.22 37.8 1042.55 35.65 1043.2 33.5C1043.9 31.3 1044.87 29.25 1046.12 27.35C1047.42 25.45 1048.97 23.8 1050.77 22.4C1052.57 20.95 1054.6 19.925 1056.85 19.325H1042.22V13.625H1073.95V19.25ZM1082.39 8C1082.39 9.1 1082.04 9.925 1081.34 10.475C1080.64 10.975 1079.77 11.225 1078.72 11.225C1077.42 11.225 1076.32 10.825 1075.42 10.025C1074.52 9.225 1074.07 8 1074.07 6.35C1074.07 4.55 1074.69 3.125 1075.94 2.075C1077.19 1.025 1078.69 0.499998 1080.44 0.499998C1082.59 0.499998 1084.42 1.225 1085.92 2.675C1087.37 4.075 1088.09 6.325 1088.09 9.425C1088.09 10.875 1087.84 12.2 1087.34 13.4C1086.79 14.6 1086.12 15.65 1085.32 16.55C1084.52 17.45 1083.62 18.15 1082.62 18.65C1081.62 19.15 1080.64 19.4 1079.69 19.4H1073.09V13.625H1078.57C1080.67 13.625 1082.32 13.15 1083.52 12.2C1084.67 11.25 1085.24 9.925 1085.24 8.225C1085.24 6.325 1084.72 4.925 1083.67 4.025C1082.57 3.075 1081.24 2.6 1079.69 2.6C1078.39 2.6 1077.32 2.925 1076.47 3.575C1075.62 4.175 1075.19 5.1 1075.19 6.35C1075.19 7.95 1075.94 8.85 1077.44 9.05H1078.34C1078.09 8.8 1077.97 8.35 1077.97 7.7C1077.97 6.15 1078.69 5.375 1080.14 5.375C1081.64 5.375 1082.39 6.25 1082.39 8ZM1095.4 32.975C1095.4 30.425 1095.8 27.975 1096.6 25.625C1097.4 23.275 1098.55 21.225 1100.05 19.475C1101.6 17.675 1103.45 16.25 1105.6 15.2C1107.8 14.15 1110.25 13.625 1112.95 13.625C1115.8 13.625 1118.35 14.125 1120.6 15.125C1122.85 16.125 1124.75 17.525 1126.3 19.325C1127.9 21.075 1129.1 23.15 1129.9 25.55C1130.75 27.9 1131.17 30.425 1131.17 33.125C1131.17 35.775 1130.77 38.275 1129.97 40.625C1129.22 42.975 1128.1 45.05 1126.6 46.85C1125.1 48.65 1123.25 50.075 1121.05 51.125C1118.9 52.175 1116.42 52.7 1113.62 52.7C1111.02 52.7 1108.6 52.2 1106.35 51.2C1104.15 50.2 1102.22 48.85 1100.57 47.15C1098.97 45.4 1097.7 43.4 1096.75 41.15C1095.85 38.85 1095.4 36.425 1095.4 33.875V32.975ZM1128.7 32.45C1128.7 30.3 1128.22 28.4 1127.27 26.75C1126.37 25.1 1125.17 23.725 1123.67 22.625C1122.22 21.475 1120.55 20.625 1118.65 20.075C1116.8 19.475 1114.95 19.175 1113.1 19.175C1111.15 19.175 1109.22 19.475 1107.32 20.075C1105.47 20.675 1103.8 21.55 1102.3 22.7C1100.8 23.8 1099.6 25.2 1098.7 26.9C1097.8 28.55 1097.35 30.425 1097.35 32.525C1097.35 34.675 1097.8 36.575 1098.7 38.225C1099.6 39.875 1100.77 41.25 1102.22 42.35C1103.67 43.45 1105.32 44.3 1107.17 44.9C1109.07 45.45 1111 45.725 1112.95 45.725C1114.9 45.725 1116.8 45.45 1118.65 44.9C1120.55 44.3 1122.22 43.45 1123.67 42.35C1125.17 41.2 1126.37 39.8 1127.27 38.15C1128.22 36.5 1128.7 34.6 1128.7 32.45ZM1152.45 45.725C1154.45 45.725 1156.22 45.125 1157.77 43.925C1159.37 42.725 1161.05 40.75 1162.8 38C1163.75 40.95 1165.05 43.05 1166.7 44.3C1168.4 45.5 1170.45 46.1 1172.85 46.1C1176.35 46.1 1178.95 45.125 1180.65 43.175C1182.4 41.225 1183.27 38.725 1183.27 35.675C1183.22 33.325 1182.67 31.125 1181.62 29.075C1180.62 26.975 1179.22 25.15 1177.42 23.6C1175.62 22 1173.5 20.75 1171.05 19.85C1168.65 18.9 1166 18.425 1163.1 18.425C1160.3 18.475 1157.7 18.975 1155.3 19.925C1152.9 20.875 1150.82 22.15 1149.07 23.75C1147.32 25.35 1145.95 27.225 1144.95 29.375C1144 31.525 1143.52 33.825 1143.52 36.275C1143.52 39.175 1144.3 41.475 1145.85 43.175C1147.4 44.875 1149.6 45.725 1152.45 45.725ZM1174.65 52.625C1172.1 52.625 1169.77 51.925 1167.67 50.525C1165.62 49.075 1163.87 46.65 1162.42 43.25C1160.77 46.55 1159.02 48.925 1157.17 50.375C1155.37 51.775 1153.15 52.475 1150.5 52.475C1147.15 52.475 1144.6 51.3 1142.85 48.95C1141.1 46.6 1140.22 43.525 1140.22 39.725C1140.22 37.925 1140.42 36.125 1140.82 34.325C1141.27 32.525 1141.9 30.775 1142.7 29.075C1143.5 27.375 1144.5 25.8 1145.7 24.35C1146.9 22.85 1148.3 21.5 1149.9 20.3C1147.8 19.85 1146.22 19.15 1145.17 18.2C1144.17 17.2 1143.67 15.875 1143.67 14.225C1143.67 11.425 1144.8 9.3 1147.05 7.85C1149.35 6.35 1152.67 5.6 1157.02 5.6C1161.17 5.6 1165 6.425 1168.5 8.075C1172.05 9.675 1175.1 11.875 1177.65 14.675C1180.2 17.475 1182.2 20.725 1183.65 24.425C1185.1 28.125 1185.85 32.075 1185.9 36.275C1185.9 38.625 1185.65 40.8 1185.15 42.8C1184.65 44.8 1183.92 46.525 1182.97 47.975C1182.02 49.425 1180.85 50.575 1179.45 51.425C1178.05 52.225 1176.45 52.625 1174.65 52.625ZM1153.5 18.2C1156.5 17.05 1159.72 16.475 1163.17 16.475C1166.17 16.475 1169.17 17.025 1172.17 18.125C1175.22 19.225 1178.02 21.05 1180.57 23.6C1178.32 18.35 1175.27 14.6 1171.42 12.35C1167.57 10.1 1163.2 8.975 1158.3 8.975C1157 8.975 1155.77 9.125 1154.62 9.425C1153.47 9.725 1152.45 10.125 1151.55 10.625C1150.65 11.125 1149.92 11.75 1149.37 12.5C1148.87 13.2 1148.62 13.95 1148.62 14.75C1148.62 15.9 1149.1 16.8 1150.05 17.45C1151.05 18.05 1152.05 18.35 1153.05 18.35C1153.25 18.35 1153.4 18.3 1153.5 18.2ZM1221.48 19.325C1223.43 20.875 1225.08 22.575 1226.43 24.425C1227.83 26.275 1228.96 28.5 1229.81 31.1C1230.66 33.65 1231.26 36.675 1231.61 40.175C1232.01 43.625 1232.21 47.7 1232.21 52.4H1225.91C1225.91 47.15 1225.71 42.5 1225.31 38.45C1224.91 34.35 1224.23 30.925 1223.28 28.175C1222.38 25.375 1221.16 23.25 1219.61 21.8C1218.11 20.35 1216.23 19.625 1213.98 19.625C1209.63 19.625 1206.38 22.325 1204.23 27.725C1202.08 33.075 1201.01 41.3 1201.01 52.4H1194.93C1194.93 47.9 1195.13 43.95 1195.53 40.55C1195.93 37.15 1196.58 34.15 1197.48 31.55C1198.38 28.9 1199.56 26.6 1201.01 24.65C1202.46 22.7 1204.21 20.925 1206.26 19.325H1194.93V13.625H1221.63C1224.18 13.625 1226.01 13.15 1227.11 12.2C1228.21 11.25 1228.76 9.925 1228.76 8.225C1228.76 7.075 1228.43 5.95 1227.78 4.85C1227.18 3.75 1226.43 2.95 1225.53 2.45L1227.11 0.799998C1228.61 1.65 1229.81 2.9 1230.71 4.55C1231.66 6.15 1232.13 8 1232.13 10.1C1232.13 16.25 1228.58 19.325 1221.48 19.325ZM1244.75 52.55C1237.4 52.55 1233.35 46.475 1232.6 34.325C1233.85 38.375 1235.4 41.35 1237.25 43.25C1239.15 45.1 1241.4 46.025 1244 46.025C1246.45 45.775 1248.22 45.1 1249.32 44C1250.47 42.9 1251.05 41.4 1251.05 39.5C1251.05 38.3 1250.97 37.275 1250.82 36.425C1250.72 35.575 1250.6 34.8 1250.45 34.1C1250.35 33.4 1250.22 32.725 1250.07 32.075C1249.97 31.375 1249.92 30.575 1249.92 29.675C1249.92 27.275 1250.27 25.1 1250.97 23.15C1251.72 21.15 1252.72 19.45 1253.97 18.05C1255.27 16.6 1256.8 15.5 1258.55 14.75C1260.35 13.95 1262.3 13.55 1264.4 13.55C1266.95 13.55 1269.32 14.075 1271.52 15.125C1273.72 16.175 1275.65 17.65 1277.3 19.55C1278.95 21.4 1280.25 23.625 1281.2 26.225C1282.15 28.825 1282.62 31.65 1282.62 34.7C1282.62 37.35 1282.3 39.775 1281.65 41.975C1281.05 44.175 1280.15 46.075 1278.95 47.675C1277.8 49.225 1276.4 50.45 1274.75 51.35C1273.15 52.2 1271.37 52.625 1269.42 52.625C1263.27 51.975 1259.77 47.725 1258.92 39.875C1258.92 37.125 1259.6 35.05 1260.95 33.65C1262.35 32.25 1264 31.55 1265.9 31.55C1267.5 31.55 1268.87 32.05 1270.02 33.05C1271.17 34 1271.75 35.3 1271.75 36.95C1271.75 38.25 1271.4 39.225 1270.7 39.875C1270.05 40.525 1269.22 40.85 1268.22 40.85C1267.32 40.85 1266.55 40.6 1265.9 40.1C1265.25 39.55 1264.92 38.8 1264.92 37.85C1264.92 37.1 1265.2 36.4 1265.75 35.75L1266.5 35.075C1266.2 34.775 1265.7 34.625 1265 34.625C1264 34.625 1263.02 35.05 1262.07 35.9C1261.12 36.7 1260.65 37.825 1260.65 39.275C1260.65 40.325 1260.87 41.25 1261.32 42.05C1261.82 42.85 1262.47 43.55 1263.27 44.15C1264.12 44.7 1265.1 45.125 1266.2 45.425C1267.3 45.725 1268.47 45.875 1269.72 45.875C1273.02 45.875 1275.67 44.9 1277.67 42.95C1279.72 41 1280.75 38.3 1280.75 34.85C1280.75 32.95 1280.37 31.1 1279.62 29.3C1278.92 27.45 1277.9 25.825 1276.55 24.425C1275.2 22.975 1273.6 21.825 1271.75 20.975C1269.9 20.075 1267.85 19.625 1265.6 19.625C1263.85 19.625 1262.17 19.925 1260.57 20.525C1258.97 21.125 1257.55 22 1256.3 23.15C1255.1 24.3 1254.12 25.725 1253.37 27.425C1252.67 29.075 1252.32 30.95 1252.32 33.05C1252.32 33.25 1252.37 33.75 1252.47 34.55C1252.57 35.35 1252.7 36.25 1252.85 37.25C1253 38.25 1253.12 39.3 1253.22 40.4C1253.32 41.45 1253.37 42.325 1253.37 43.025C1253.37 49.375 1250.5 52.55 1244.75 52.55ZM1326.81 10.025C1326.16 10.025 1325.51 10.1 1324.86 10.25C1324.26 10.35 1323.71 10.55 1323.21 10.85C1322.71 11.15 1322.31 11.575 1322.01 12.125C1321.71 12.625 1321.56 13.275 1321.56 14.075C1321.56 16.025 1322.73 17 1325.08 17C1326.28 17 1327.33 16.675 1328.23 16.025C1329.18 15.375 1329.66 14.55 1329.66 13.55C1329.66 11.8 1328.71 10.625 1326.81 10.025ZM1321.18 42.5C1321.18 45.55 1322.71 47.7 1325.76 48.95C1328.91 50.3 1330.48 51.4 1330.48 52.25C1330.48 53 1330.28 53.55 1329.88 53.9C1329.53 54.25 1328.81 54.425 1327.71 54.425C1326.46 54.425 1325.28 53.975 1324.18 53.075C1323.13 52.175 1322.21 51.05 1321.41 49.7C1320.66 48.3 1320.06 46.75 1319.61 45.05C1319.16 43.3 1318.93 41.6 1318.93 39.95C1318.93 36.9 1319.63 34.45 1321.03 32.6C1322.43 30.75 1324.66 29.825 1327.71 29.825C1330.11 29.825 1331.98 30.475 1333.33 31.775C1334.68 33.025 1335.78 35.075 1336.63 37.925C1337.38 40.525 1338.53 42.575 1340.08 44.075C1341.63 45.525 1343.61 46.25 1346.01 46.25C1348.41 46.25 1350.38 45.4 1351.93 43.7C1353.53 41.95 1354.33 39.425 1354.33 36.125C1354.33 32.575 1353.63 29.225 1352.23 26.075C1350.88 22.875 1349.06 20.075 1346.76 17.675C1344.46 15.275 1341.81 13.375 1338.81 11.975C1335.86 10.575 1332.81 9.875 1329.66 9.875L1330.26 10.55C1331.16 11.7 1331.61 12.875 1331.61 14.075C1331.61 15.875 1331.03 17.25 1329.88 18.2C1328.78 19.1 1327.41 19.55 1325.76 19.55C1324.01 19.55 1322.48 19 1321.18 17.9C1319.88 16.75 1319.23 15.05 1319.23 12.8C1319.23 10.85 1320.11 9.175 1321.86 7.775C1323.66 6.375 1326.01 5.675 1328.91 5.675C1332.56 5.675 1336.06 6.625 1339.41 8.525C1342.76 10.375 1345.71 12.85 1348.26 15.95C1350.81 19 1352.83 22.5 1354.33 26.45C1355.88 30.4 1356.66 34.425 1356.66 38.525C1356.66 42.925 1355.71 46.4 1353.81 48.95C1351.91 51.45 1349.51 52.7 1346.61 52.7C1345.26 52.7 1344.11 52.55 1343.16 52.25C1342.26 51.95 1341.41 51.375 1340.61 50.525C1339.86 49.675 1339.11 48.5 1338.36 47C1337.66 45.45 1336.88 43.475 1336.03 41.075C1335.48 39.475 1334.51 38.3 1333.11 37.55C1331.76 36.75 1330.36 36.35 1328.91 36.35C1326.81 36.35 1324.98 36.925 1323.43 38.075C1321.93 39.225 1321.18 40.7 1321.18 42.5ZM1373.09 52.625C1369.59 50.375 1366.96 47.3 1365.21 43.4C1363.51 39.45 1362.66 35.225 1362.66 30.725C1362.66 28.375 1362.91 26.175 1363.41 24.125C1363.96 22.025 1364.71 20.2 1365.66 18.65C1366.66 17.05 1367.89 15.8 1369.34 14.9C1370.79 14 1372.44 13.55 1374.29 13.55C1376.84 13.55 1378.84 14.35 1380.29 15.95C1381.79 17.5 1382.54 19.625 1382.54 22.325C1382.54 23.625 1382.36 24.875 1382.01 26.075C1381.66 27.225 1381.16 28.25 1380.51 29.15C1379.86 30.05 1379.06 30.775 1378.11 31.325C1377.21 31.875 1376.19 32.15 1375.04 32.15C1372.74 32.15 1371.09 31.375 1370.09 29.825C1369.09 28.225 1368.59 26.15 1368.59 23.6V21.35C1366.14 23.6 1364.91 26.65 1364.91 30.5C1364.91 32.9 1365.41 35.25 1366.41 37.55C1367.41 39.8 1368.81 41.9 1370.61 43.85C1372.41 45.8 1374.56 47.525 1377.06 49.025C1379.56 50.525 1382.29 51.725 1385.24 52.625H1373.09ZM1370.16 20C1370.16 22.25 1370.59 24 1371.44 25.25C1372.34 26.5 1373.79 27.125 1375.79 27.125C1377.24 27.125 1378.39 26.65 1379.24 25.7C1380.14 24.75 1380.59 23.65 1380.59 22.4C1380.59 21.25 1380.11 20.3 1379.16 19.55C1378.26 18.75 1376.94 18.35 1375.19 18.35C1374.24 18.35 1373.41 18.475 1372.71 18.725C1372.01 18.975 1371.16 19.4 1370.16 20ZM1426.13 38C1426.13 39.2 1426.35 40.275 1426.8 41.225C1427.3 42.125 1427.95 42.925 1428.75 43.625C1429.55 44.275 1430.48 44.775 1431.53 45.125C1432.58 45.475 1433.68 45.65 1434.83 45.65C1435.93 45.65 1436.98 45.475 1437.98 45.125C1439.03 44.775 1439.93 44.275 1440.68 43.625C1441.48 42.925 1442.1 42.1 1442.55 41.15C1443 40.15 1443.23 39.025 1443.23 37.775C1443.23 35.075 1442.43 33.1 1440.83 31.85C1439.28 30.6 1437.35 29.975 1435.05 29.975C1433.85 29.975 1432.7 30.15 1431.6 30.5C1430.55 30.85 1429.6 31.375 1428.75 32.075C1427.95 32.775 1427.3 33.625 1426.8 34.625C1426.35 35.625 1426.13 36.75 1426.13 38ZM1435.2 19.325C1436.1 20.175 1436.55 21.15 1436.55 22.25C1436.55 23 1436.28 23.6 1435.73 24.05H1447.65V30.05H1441.43C1443.33 31.65 1444.7 33.4 1445.55 35.3C1446.45 37.15 1446.9 38.875 1446.9 40.475C1446.9 42.225 1446.6 43.85 1446 45.35C1445.45 46.8 1444.65 48.075 1443.6 49.175C1442.6 50.225 1441.38 51.05 1439.93 51.65C1438.48 52.25 1436.88 52.55 1435.13 52.55C1433.23 52.55 1431.53 52.25 1430.03 51.65C1428.53 51 1427.23 50.125 1426.13 49.025C1425.08 47.925 1424.25 46.65 1423.65 45.2C1423.1 43.7 1422.83 42.075 1422.83 40.325C1422.83 38.325 1423.3 36.5 1424.25 34.85C1425.2 33.2 1426.5 31.65 1428.15 30.2H1421.33V24.05H1431.98C1433.23 24.05 1433.85 23.475 1433.85 22.325C1433.85 21.675 1433.65 21.05 1433.25 20.45C1432.9 19.8 1432.43 19.425 1431.83 19.325H1421.33V13.625H1438.65C1440.2 13.625 1441.53 13.15 1442.63 12.2C1443.73 11.25 1444.28 9.925 1444.28 8.225C1444.28 7.075 1443.95 5.95 1443.3 4.85C1442.7 3.75 1441.95 2.95 1441.05 2.45L1442.63 0.874997C1444.08 1.725 1445.28 2.95 1446.23 4.55C1447.18 6.15 1447.65 8 1447.65 10.1C1447.65 15.9 1445 18.975 1439.7 19.325H1435.2ZM1482.43 19.325C1484.28 20.425 1485.98 21.725 1487.53 23.225C1489.08 24.725 1490.4 26.375 1491.5 28.175C1492.6 29.975 1493.45 31.9 1494.05 33.95C1494.65 35.95 1494.95 38.05 1494.95 40.25C1494.95 44.4 1493.95 47.475 1491.95 49.475C1490 51.425 1487.48 52.4 1484.38 52.4C1483.08 52.4 1481.98 52.275 1481.08 52.025C1480.18 51.775 1479.35 51.25 1478.6 50.45C1477.85 49.65 1477.13 48.525 1476.43 47.075C1475.73 45.575 1474.95 43.575 1474.1 41.075C1473.5 39.375 1472.53 38.125 1471.18 37.325C1469.83 36.525 1468.28 36.125 1466.53 36.125C1465.48 36.125 1464.48 36.275 1463.53 36.575C1462.58 36.875 1461.73 37.3 1460.98 37.85C1460.28 38.4 1459.7 39.05 1459.25 39.8C1458.85 40.55 1458.65 41.35 1458.65 42.2C1458.65 45.05 1460.23 47.15 1463.38 48.5C1466.58 49.9 1468.18 51.1 1468.18 52.1C1468.18 52.75 1468 53.275 1467.65 53.675C1467.3 54.025 1466.6 54.2 1465.55 54.2C1464.25 54.2 1463.05 53.75 1461.95 52.85C1460.9 51.95 1459.98 50.8 1459.18 49.4C1458.38 48 1457.75 46.45 1457.3 44.75C1456.85 43.05 1456.63 41.4 1456.63 39.8C1456.63 36.75 1457.33 34.3 1458.73 32.45C1460.13 30.55 1462.4 29.6 1465.55 29.6C1467.7 29.6 1469.5 30.2 1470.95 31.4C1472.45 32.6 1473.93 34.825 1475.38 38.075C1477.48 43.025 1480.53 45.5 1484.53 45.5C1485.58 45.5 1486.58 45.3 1487.53 44.9C1488.48 44.5 1489.3 43.95 1490 43.25C1490.7 42.5 1491.25 41.65 1491.65 40.7C1492.1 39.75 1492.33 38.75 1492.33 37.7C1492.33 30 1487.73 23.875 1478.53 19.325H1456.93V13.625H1479.58C1482.13 13.625 1483.93 13.15 1484.98 12.2C1486.08 11.2 1486.63 9.875 1486.63 8.225C1486.63 7.075 1486.3 5.95 1485.65 4.85C1485.05 3.75 1484.3 2.95 1483.4 2.45L1484.98 0.874997C1486.48 1.725 1487.68 2.975 1488.58 4.625C1489.53 6.275 1490 8.1 1490 10.1C1490 15.3 1487.45 18.3 1482.35 19.1L1482.43 19.325ZM1488.27 68.975C1489.07 68.975 1489.79 68.925 1490.44 68.825C1491.09 68.725 1491.74 68.55 1492.39 68.3C1493.04 68.05 1493.74 67.725 1494.49 67.325C1495.19 66.975 1496.04 66.5 1497.04 65.9C1495.89 64 1494.72 62.7 1493.52 62C1492.27 61.35 1490.74 61.025 1488.94 61.025C1484.09 61.025 1481.67 62.35 1481.67 65C1481.67 66.15 1482.22 67.1 1483.32 67.85C1484.42 68.6 1486.07 68.975 1488.27 68.975ZM1509.64 76.325C1509.64 77.575 1509.14 78.575 1508.14 79.325C1507.19 80.125 1506.07 80.525 1504.77 80.525C1503.02 80.525 1501.52 79.875 1500.27 78.575C1499.07 77.275 1498.47 75.375 1498.47 72.875L1498.32 70.475C1496.27 71.775 1494.32 72.65 1492.47 73.1C1490.62 73.6 1488.97 73.85 1487.52 73.85C1485.92 73.85 1484.52 73.625 1483.32 73.175C1482.07 72.775 1481.04 72.225 1480.24 71.525C1479.39 70.875 1478.77 70.1 1478.37 69.2C1477.92 68.3 1477.69 67.375 1477.69 66.425C1477.69 65.475 1477.92 64.55 1478.37 63.65C1478.82 62.75 1479.47 61.95 1480.32 61.25C1481.17 60.6 1482.19 60.075 1483.39 59.675C1484.59 59.275 1485.97 59.075 1487.52 59.075C1490.02 59.075 1492.17 59.5 1493.97 60.35C1495.77 61.2 1497.39 62.65 1498.84 64.7C1499.44 64.35 1500.02 63.5 1500.57 62.15C1501.12 60.85 1501.39 59.35 1501.39 57.65C1501.39 56.65 1501.29 55.625 1501.09 54.575C1500.89 53.475 1500.44 52.45 1499.74 51.5C1501.64 52.15 1502.97 53.05 1503.72 54.2C1504.47 55.3 1504.84 56.925 1504.84 59.075C1504.84 60.825 1504.44 62.575 1503.64 64.325C1502.89 66.075 1501.99 67.45 1500.94 68.45C1500.99 68.6 1501.09 69.075 1501.24 69.875C1501.44 70.675 1501.69 71.525 1501.99 72.425C1502.34 73.325 1502.79 74.15 1503.34 74.9C1503.94 75.65 1504.69 76.025 1505.59 76.025C1507.09 76.025 1508.19 75.175 1508.89 73.475C1509.14 73.725 1509.32 74.05 1509.42 74.45C1509.57 74.85 1509.64 75.475 1509.64 76.325ZM1531.15 19.25C1528.25 19.25 1525.57 19.675 1523.12 20.525C1520.72 21.325 1518.65 22.475 1516.9 23.975C1515.15 25.425 1513.77 27.175 1512.77 29.225C1511.82 31.275 1511.35 33.55 1511.35 36.05C1511.35 37.55 1511.57 38.9 1512.02 40.1C1512.52 41.25 1513.17 42.225 1513.97 43.025C1514.82 43.825 1515.77 44.45 1516.82 44.9C1517.87 45.3 1518.97 45.5 1520.12 45.5C1522.22 45.5 1524.2 44.825 1526.05 43.475C1527.95 42.075 1529.3 40.1 1530.1 37.55C1531.5 40.4 1533 42.45 1534.6 43.7C1536.25 44.95 1538.15 45.575 1540.3 45.575C1543.5 45.575 1545.8 44.925 1547.2 43.625C1548.6 42.275 1549.3 40.475 1549.3 38.225C1549.3 36.075 1548.7 34.05 1547.5 32.15C1546.35 34 1545.05 35.325 1543.6 36.125C1542.15 36.875 1540.62 37.25 1539.02 37.25C1537.07 37.25 1535.55 36.725 1534.45 35.675C1533.4 34.575 1532.87 33.275 1532.87 31.775C1532.87 30.375 1533.45 29.125 1534.6 28.025C1535.8 26.925 1537.45 26.375 1539.55 26.375C1540.6 26.375 1541.65 26.5 1542.7 26.75C1543.75 27 1544.62 27.4 1545.32 27.95C1545.32 26.1 1544.5 24.4 1542.85 22.85C1541.2 21.25 1538.77 20.2 1535.57 19.7L1531.15 19.25ZM1539.77 34.325C1542.32 34.325 1544.22 32.95 1545.47 30.2C1544.82 29.6 1544.15 29.15 1543.45 28.85C1542.8 28.5 1542 28.325 1541.05 28.325C1539.6 28.325 1538.45 28.7 1537.6 29.45C1536.8 30.15 1536.4 30.925 1536.4 31.775C1536.4 33.475 1537.52 34.325 1539.77 34.325ZM1540.6 19.175C1545.55 21.125 1548.12 24.25 1548.32 28.55V30.35C1550.57 32.6 1551.7 35.8 1551.7 39.95C1551.7 41.65 1551.45 43.275 1550.95 44.825C1550.45 46.325 1549.72 47.65 1548.77 48.8C1547.87 49.95 1546.75 50.875 1545.4 51.575C1544.05 52.225 1542.55 52.55 1540.9 52.55C1538.8 52.55 1536.85 51.85 1535.05 50.45C1533.25 49.05 1531.6 46.7 1530.1 43.4C1529.35 46.5 1527.92 48.825 1525.82 50.375C1523.72 51.875 1521.42 52.625 1518.92 52.625C1517.27 52.625 1515.75 52.3 1514.35 51.65C1513 50.95 1511.82 50 1510.82 48.8C1509.87 47.6 1509.12 46.15 1508.57 44.45C1508.07 42.75 1507.82 40.85 1507.82 38.75C1508.12 29.35 1512.45 22.875 1520.8 19.325H1508.57V13.625H1538.95C1541.4 13.625 1543.17 13.15 1544.27 12.2C1545.37 11.25 1545.92 9.925 1545.92 8.225C1545.92 7.075 1545.6 5.95 1544.95 4.85C1544.35 3.75 1543.62 2.95 1542.77 2.45L1544.35 0.874997C1545.85 1.675 1547.05 2.925 1547.95 4.625C1548.9 6.275 1549.37 8.1 1549.37 10.1C1549.37 15.7 1546.45 18.725 1540.6 19.175ZM1590.41 19.25C1592.66 20.2 1594.66 21.425 1596.41 22.925C1598.21 24.375 1599.73 26.025 1600.98 27.875C1602.28 29.675 1603.26 31.6 1603.91 33.65C1604.61 35.7 1604.96 37.8 1604.96 39.95C1604.96 41.6 1604.73 43.175 1604.28 44.675C1603.83 46.125 1603.16 47.425 1602.26 48.575C1601.36 49.725 1600.23 50.675 1598.88 51.425C1597.58 52.125 1596.08 52.5 1594.38 52.55C1587.68 52.55 1583.78 48.85 1582.68 41.45C1580.98 48.85 1577.06 52.55 1570.91 52.55C1569.16 52.55 1567.66 52.25 1566.41 51.65C1565.16 51 1564.13 50.15 1563.33 49.1C1562.53 48 1561.93 46.725 1561.53 45.275C1561.13 43.775 1560.93 42.175 1560.93 40.475C1561.13 37.925 1561.91 35.95 1563.26 34.55C1564.66 33.15 1566.41 32.45 1568.51 32.45C1570.36 32.45 1571.96 32.975 1573.31 34.025C1574.66 35.075 1575.33 36.425 1575.33 38.075C1575.33 39.075 1575.03 39.9 1574.43 40.55C1573.88 41.15 1573.36 41.45 1572.86 41.45H1572.63C1572.78 41 1572.86 40.6 1572.86 40.25C1572.86 39.45 1572.43 38.65 1571.58 37.85C1570.78 37 1569.63 36.575 1568.13 36.575C1566.93 36.575 1565.83 36.875 1564.83 37.475C1563.83 38.075 1563.33 39.05 1563.33 40.4C1563.33 41.9 1563.98 43.175 1565.28 44.225C1566.58 45.225 1568.31 45.725 1570.46 45.725C1573.01 45.725 1575.28 45.025 1577.28 43.625C1579.33 42.225 1581.13 39.85 1582.68 36.5C1583.98 39.9 1585.53 42.275 1587.33 43.625C1589.18 44.975 1591.43 45.65 1594.08 45.65C1596.78 45.65 1598.78 44.875 1600.08 43.325C1601.43 41.775 1602.11 39.725 1602.11 37.175C1602.11 35.475 1601.68 33.75 1600.83 32C1600.03 30.25 1598.88 28.575 1597.38 26.975C1595.88 25.325 1594.11 23.85 1592.06 22.55C1590.01 21.2 1587.78 20.125 1585.38 19.325H1560.71V13.55H1590.41V19.25ZM1634.05 33.8C1633.95 31.75 1633.47 29.85 1632.62 28.1C1631.82 26.35 1630.72 24.825 1629.32 23.525C1627.92 22.225 1626.3 21.2 1624.45 20.45C1622.6 19.7 1620.62 19.325 1618.52 19.325H1589.2V13.625H1615.6C1618.45 13.625 1621.07 14.125 1623.47 15.125C1625.92 16.075 1628.02 17.45 1629.77 19.25C1631.57 21.05 1632.97 23.225 1633.97 25.775C1635.02 28.325 1635.57 31.175 1635.62 34.325C1635.57 36.925 1635.25 39.35 1634.65 41.6C1634.05 43.8 1633.2 45.7 1632.1 47.3C1631.05 48.9 1629.72 50.175 1628.12 51.125C1626.52 52.025 1624.72 52.475 1622.72 52.475C1616.57 51.775 1613.17 47.375 1612.52 39.275C1612.52 36.675 1613.2 34.7 1614.55 33.35C1615.9 31.95 1617.5 31.25 1619.35 31.25C1620.95 31.25 1622.3 31.725 1623.4 32.675C1624.5 33.625 1625.05 34.925 1625.05 36.575C1625.05 37.775 1624.72 38.7 1624.07 39.35C1623.42 40 1622.62 40.325 1621.67 40.325C1620.77 40.325 1620.02 40.075 1619.42 39.575C1618.82 39.025 1618.52 38.325 1618.52 37.475C1618.52 36.725 1618.77 36.025 1619.27 35.375L1619.95 34.7C1619.65 34.35 1619.2 34.175 1618.6 34.175C1617.55 34.175 1616.55 34.6 1615.6 35.45C1614.7 36.3 1614.25 37.4 1614.25 38.75C1614.25 39.8 1614.47 40.75 1614.92 41.6C1615.42 42.4 1616.07 43.1 1616.87 43.7C1617.67 44.3 1618.6 44.775 1619.65 45.125C1620.75 45.425 1621.9 45.575 1623.1 45.575C1626.45 45.575 1629.05 44.55 1630.9 42.5C1632.8 40.45 1633.85 37.55 1634.05 33.8ZM1654.82 19.25C1655.87 18.8 1656.92 18.45 1657.97 18.2C1659.02 17.9 1660.15 17.75 1661.35 17.75C1666.8 17.75 1671.62 20.825 1675.82 26.975C1674.82 23.975 1673.72 21.425 1672.52 19.325C1671.32 17.175 1669.95 15.425 1668.4 14.075C1666.9 12.725 1665.2 11.75 1663.3 11.15C1661.4 10.5 1659.27 10.175 1656.92 10.175C1655.22 10.175 1653.72 10.5 1652.42 11.15C1651.17 11.8 1650.55 12.95 1650.55 14.6C1650.55 15.6 1650.8 16.5 1651.3 17.3C1651.85 18.1 1653.02 18.75 1654.82 19.25ZM1645.45 12.8C1645.45 10.55 1646.35 8.775 1648.15 7.475C1649.95 6.125 1652.35 5.45 1655.35 5.45C1658.75 5.45 1661.9 6.25 1664.8 7.85C1667.75 9.45 1670.3 11.7 1672.45 14.6C1674.65 17.5 1676.37 20.975 1677.62 25.025C1678.87 29.075 1679.5 33.55 1679.5 38.45V52.625H1673.5C1673.5 41.775 1672.47 33.575 1670.42 28.025C1668.42 22.475 1665.3 19.7 1661.05 19.7C1659.05 19.7 1657.27 20.225 1655.72 21.275C1654.17 22.325 1652.87 24.125 1651.82 26.675C1650.77 29.175 1649.97 32.55 1649.42 36.8C1648.92 41 1648.67 46.275 1648.67 52.625H1642.3C1642.3 47.125 1642.45 42.525 1642.75 38.825C1643.1 35.075 1643.65 32 1644.4 29.6C1645.2 27.15 1646.22 25.275 1647.47 23.975C1648.77 22.625 1650.4 21.575 1652.35 20.825C1649.75 20.225 1647.95 19.25 1646.95 17.9C1645.95 16.5 1645.45 14.8 1645.45 12.8ZM1717.09 19.325C1721.59 22.075 1724.16 27.125 1724.81 34.475C1724.81 40.075 1723.31 44.4 1720.31 47.45C1717.36 50.45 1712.79 52.15 1706.59 52.55C1703.89 52.55 1701.44 52.125 1699.24 51.275C1697.04 50.425 1695.14 49.225 1693.54 47.675C1691.94 46.125 1690.69 44.275 1689.79 42.125C1688.94 39.975 1688.51 37.6 1688.51 35C1688.66 27.45 1691.39 22.225 1696.69 19.325H1688.51V13.625H1716.04C1717.54 13.625 1718.81 13.175 1719.86 12.275C1720.96 11.325 1721.51 10 1721.51 8.3C1721.51 7.15 1721.21 6.025 1720.61 4.925C1720.01 3.825 1719.26 3.05 1718.36 2.6L1719.94 1.025C1721.44 1.825 1722.64 3.025 1723.54 4.625C1724.44 6.225 1724.89 8.075 1724.89 10.175C1724.89 15.875 1722.29 18.925 1717.09 19.325ZM1721.96 32.45C1721.96 30.55 1721.59 28.85 1720.84 27.35C1720.14 25.8 1719.19 24.475 1717.99 23.375C1716.79 22.275 1715.39 21.4 1713.79 20.75C1712.24 20.05 1710.61 19.575 1708.91 19.325H1704.26C1702.56 19.575 1700.91 20.05 1699.31 20.75C1697.76 21.4 1696.36 22.275 1695.11 23.375C1693.91 24.475 1692.94 25.8 1692.19 27.35C1691.49 28.85 1691.14 30.55 1691.14 32.45C1691.14 34.6 1691.56 36.5 1692.41 38.15C1693.26 39.8 1694.39 41.2 1695.79 42.35C1697.19 43.45 1698.81 44.3 1700.66 44.9C1702.51 45.45 1704.44 45.725 1706.44 45.725C1708.49 45.725 1710.44 45.45 1712.29 44.9C1714.19 44.3 1715.84 43.45 1717.24 42.35C1718.69 41.2 1719.84 39.8 1720.69 38.15C1721.54 36.5 1721.96 34.6 1721.96 32.45ZM1734.45 20C1732.35 19.5 1731.3 18.45 1731.3 16.85C1731.3 15.9 1731.6 15.15 1732.2 14.6C1732.85 14 1733.65 13.7 1734.6 13.7C1736.4 13.7 1738.3 14.25 1740.3 15.35C1742.3 16.4 1744.12 17.925 1745.77 19.925C1747.47 21.875 1748.9 24.275 1750.05 27.125C1751.2 29.975 1751.82 33.15 1751.92 36.65C1751.62 47.25 1747.27 52.55 1738.87 52.55C1731.27 52.35 1726.77 45.75 1725.37 32.75C1727.67 41.1 1732.35 45.4 1739.4 45.65C1746.3 45.5 1749.85 42.025 1750.05 35.225C1749.45 25.275 1744.25 20.2 1734.45 20ZM1762.59 43.775C1763.74 43.775 1764.77 44.225 1765.67 45.125C1766.62 45.975 1767.09 47 1767.09 48.2C1767.09 49.45 1766.64 50.525 1765.74 51.425C1764.89 52.275 1763.84 52.7 1762.59 52.7C1761.34 52.7 1760.27 52.275 1759.37 51.425C1758.52 50.525 1758.09 49.45 1758.09 48.2C1758.09 47 1758.54 45.975 1759.44 45.125C1760.34 44.225 1761.39 43.775 1762.59 43.775Z" fill="black"/>
</svg>
