<svg width="1828" height="77" viewBox="0 0 1828 77" fill="none" xmlns="http://www.w3.org/2000/svg">
<path d="M42.95 35.675C42.85 46.625 39.1 52.275 31.7 52.625C26.6 52.625 23.375 50.975 22.025 47.675C19.675 50.975 16.475 52.625 12.425 52.625C8.775 52.625 5.875 51.55 3.725 49.4C1.625 47.25 0.575 43.975 0.575 39.575C0.575 32.625 4.575 29.15 12.575 29.15C16.375 29.35 18.35 30.65 18.5 33.05C18.4 34.05 17.875 34.9 16.925 35.6C16.025 36.3 14.775 36.65 13.175 36.65C9.675 36.65 7.675 35.75 7.175 33.95C5.975 34.35 5.375 35.125 5.375 36.275C5.375 37.675 6.125 38.75 7.625 39.5C9.125 40.25 11.15 40.625 13.7 40.625C16.25 40.625 18.1 39.975 19.25 38.675C20.45 37.325 21.05 35.4 21.05 32.9H23.075C23.375 37.95 26.15 40.475 31.4 40.475C35.95 40.125 38.225 37.225 38.225 31.775C38.225 28.075 37.2 25.25 35.15 23.3C33.1 21.3 30.2 20.225 26.45 20.075C25.15 20.025 24.025 20 23.075 20C22.175 20 21.425 19.925 20.825 19.775C20.225 19.625 19.75 19.325 19.4 18.875C19.1 18.425 18.875 17.75 18.725 16.85C18.825 14.85 20.725 13.85 24.425 13.85C36.025 13.85 42.2 21.125 42.95 35.675ZM90.3143 19.55H88.0643C90.4143 20.7 92.2643 22.5 93.6143 24.95C94.9643 27.35 95.6393 30.35 95.6393 33.95C95.6393 46.25 88.1893 52.525 73.2893 52.775C60.0893 52.025 53.0393 45.125 52.1393 32.075C52.1393 29.975 52.4143 27.825 52.9643 25.625C53.5143 23.425 54.3643 21.425 55.5143 19.625C56.6643 17.825 58.1393 16.35 59.9393 15.2C61.7893 14 63.9893 13.4 66.5393 13.4C67.9393 13.4 69.1643 13.625 70.2143 14.075C71.3143 14.525 72.2393 15.125 72.9893 15.875C73.7393 16.575 74.3143 17.4 74.7143 18.35C75.1143 19.3 75.3143 20.275 75.3143 21.275C75.3143 22.775 75.0393 24.1 74.4893 25.25C73.9393 26.4 73.1893 27.375 72.2393 28.175C71.2893 28.925 70.1893 29.5 68.9393 29.9C67.7393 30.25 66.4643 30.425 65.1143 30.425C61.2143 30.425 58.5893 28.85 57.2393 25.7C57.2393 25.95 57.2143 26.175 57.1643 26.375C57.1643 26.575 57.1643 26.8 57.1643 27.05C57.1643 31.7 58.6393 35.1 61.5893 37.25C64.5393 39.35 69.0143 40.4 75.0143 40.4C85.0143 40.4 90.0143 37.225 90.0143 30.875C90.0143 29.125 89.7143 27.575 89.1143 26.225C88.5643 24.825 87.7893 23.675 86.7893 22.775C85.8393 21.825 84.7393 21.075 83.4893 20.525C82.2393 19.975 80.9643 19.65 79.6643 19.55H78.1643V13.475H90.3143V19.55ZM67.0643 22.4C67.0643 21.45 66.7143 20.675 66.0143 20.075C65.3643 19.475 64.5143 19.175 63.4643 19.175C62.3643 19.175 61.4643 19.475 60.7643 20.075C60.1143 20.675 59.7893 21.45 59.7893 22.4C59.7893 23.3 60.1143 24.025 60.7643 24.575C61.4643 25.125 62.3643 25.4 63.4643 25.4C64.5143 25.4 65.3643 25.125 66.0143 24.575C66.7143 24.025 67.0643 23.3 67.0643 22.4ZM126.886 32.675C126.886 39.375 125.911 44.4 123.961 47.75C122.011 51.05 118.761 52.7 114.211 52.7C112.311 52.7 110.511 52.475 108.811 52.025C107.111 51.525 105.636 50.725 104.386 49.625C103.136 48.475 102.136 46.975 101.386 45.125C100.686 43.275 100.336 40.975 100.336 38.225C100.336 33.625 101.261 30.275 103.111 28.175C105.011 26.075 107.836 25.025 111.586 25.025C115.686 25.025 117.736 26.775 117.736 30.275C117.486 32.625 115.711 33.95 112.411 34.25C111.061 34.25 109.886 33.875 108.886 33.125C107.886 32.325 107.386 31.375 107.386 30.275C106.136 31.025 105.511 32.3 105.511 34.1C105.511 38.3 108.136 40.4 113.386 40.4C116.236 40.4 118.336 39.475 119.686 37.625C121.086 35.775 121.786 33.1 121.786 29.6C121.086 23.45 118.111 20.125 112.861 19.625H80.2361V13.475H111.586C114.286 13.475 116.586 14 118.486 15.05C120.436 16.1 122.036 17.525 123.286 19.325C124.536 21.075 125.436 23.1 125.986 25.4C126.586 27.7 126.886 30.125 126.886 32.675ZM139.23 67.1C139.23 68 139.105 68.9 138.855 69.8C138.605 70.7 138.23 71.5 137.73 72.2C137.23 72.95 136.63 73.525 135.93 73.925C135.28 74.375 134.555 74.6 133.755 74.6C132.955 74.6 132.205 74.3 131.505 73.7C130.855 73.15 130.53 72.275 130.53 71.075C130.53 70.425 130.68 69.875 130.98 69.425C131.28 69.025 131.605 68.65 131.955 68.3C132.305 67.95 132.63 67.575 132.93 67.175C133.23 66.775 133.38 66.275 133.38 65.675C133.38 64.925 133.105 64.3 132.555 63.8C132.005 63.35 131.38 63.125 130.68 63.125C129.63 63.125 128.655 63.45 127.755 64.1C126.855 64.75 126.355 65.725 126.255 67.025C126.305 67.275 126.33 67.5 126.33 67.7C126.33 67.95 126.33 68.2 126.33 68.45H124.98L125.055 67.175C125.105 66.525 125.005 65.925 124.755 65.375C124.455 64.875 124.08 64.45 123.63 64.1C123.18 63.8 122.705 63.55 122.205 63.35C121.655 63.2 121.13 63.125 120.63 63.125C119.93 63.125 119.305 63.35 118.755 63.8C118.205 64.3 117.93 64.925 117.93 65.675C117.93 66.275 118.08 66.775 118.38 67.175C118.68 67.575 119.005 67.95 119.355 68.3C119.705 68.65 120.03 69.025 120.33 69.425C120.63 69.875 120.78 70.425 120.78 71.075C120.78 72.275 120.455 73.15 119.805 73.7C119.105 74.3 118.355 74.6 117.555 74.6C116.705 74.6 115.955 74.375 115.305 73.925C114.655 73.525 114.08 72.95 113.58 72.2C113.08 71.5 112.705 70.7 112.455 69.8C112.205 68.9 112.08 68 112.08 67.1C112.08 64.4 112.805 62.4 114.255 61.1C115.655 59.8 117.305 59.15 119.205 59.15C120.355 59.15 121.455 59.275 122.505 59.525C123.505 59.775 124.58 60.65 125.73 62.15C126.63 60.7 127.63 59.825 128.73 59.525C129.78 59.275 130.805 59.15 131.805 59.15C133.805 59.15 135.53 59.775 136.98 61.025C138.48 62.275 139.23 64.3 139.23 67.1ZM182.776 12.95C181.976 17.3 179.051 19.525 174.001 19.625C175.101 20.425 176.176 21.4 177.226 22.55C178.326 23.65 179.276 24.925 180.076 26.375C180.876 27.775 181.526 29.35 182.026 31.1C182.526 32.85 182.776 34.725 182.776 36.725C182.776 41.675 181.801 45.5 179.851 48.2C177.951 50.9 175.101 52.25 171.301 52.25C166.451 52.25 163.276 50.375 161.776 46.625C160.176 50.375 157.026 52.25 152.326 52.25C148.726 51.95 145.876 50.45 143.776 47.75C141.726 45.05 140.701 41.125 140.701 35.975C140.701 27.725 143.626 22.275 149.476 19.625H140.626V13.55H167.551C174.301 13.55 177.676 11.4 177.676 7.1C177.676 6.45 177.601 5.75 177.451 5L175.951 0.874997H177.826C179.126 2.325 180.276 3.975 181.276 5.825C182.326 7.625 182.851 9.525 182.851 11.525C182.851 11.775 182.851 12.025 182.851 12.275C182.851 12.475 182.826 12.7 182.776 12.95ZM176.476 32.3C176.376 27.85 175.001 24.625 172.351 22.625C169.701 20.575 165.726 19.55 160.426 19.55C151.176 20.05 146.401 24.175 146.101 31.925C146.651 37.275 148.926 40.1 152.926 40.4C157.426 40.25 159.826 37.7 160.126 32.75H161.701C162.201 37.75 164.651 40.3 169.051 40.4C171.601 40.3 173.451 39.575 174.601 38.225C175.801 36.875 176.426 34.9 176.476 32.3ZM231.409 13.25C230.909 17.7 228.159 19.925 223.159 19.925V20.075C224.909 21.725 226.334 23.8 227.434 26.3C228.534 28.8 229.084 31.575 229.084 34.625C229.084 46.825 222.484 52.95 209.284 53C198.284 52.35 192.509 46.15 191.959 34.4C192.459 27 194.934 22.125 199.384 19.775H192.334V13.625L220.609 13.775C224.209 13.175 226.009 11.15 226.009 7.7C226.009 5.7 225.509 3.475 224.509 1.025H226.384C228.184 3.275 229.459 5.4 230.209 7.4C231.009 9.4 231.409 11.35 231.409 13.25ZM210.559 19.85C208.809 19.85 207.109 20.125 205.459 20.675C203.859 21.225 202.434 21.975 201.184 22.925C199.984 23.875 199.009 25 198.259 26.3C197.559 27.55 197.209 28.875 197.209 30.275C197.209 31.725 197.559 33.1 198.259 34.4C199.009 35.65 199.984 36.75 201.184 37.7C202.434 38.65 203.884 39.4 205.534 39.95C207.184 40.5 208.909 40.775 210.709 40.775C212.459 40.775 214.109 40.5 215.659 39.95C217.259 39.35 218.634 38.575 219.784 37.625C220.984 36.675 221.909 35.575 222.559 34.325C223.259 33.075 223.609 31.775 223.609 30.425C223.609 28.925 223.259 27.55 222.559 26.3C221.859 25 220.909 23.9 219.709 23C218.509 22.05 217.109 21.3 215.509 20.75C213.959 20.2 212.309 19.9 210.559 19.85ZM282.625 31.7C282.625 38.65 281.45 43.7 279.1 46.85C276.8 50 273.25 51.575 268.45 51.575C264.45 51.575 261.275 50.4 258.925 48.05C256.625 45.65 255.475 42.05 255.475 37.25C255.475 33.5 256.475 30.825 258.475 29.225C260.475 27.575 263.475 26.75 267.475 26.75C269.375 26.9 270.875 27.35 271.975 28.1C273.125 28.85 273.7 29.925 273.7 31.325C273.7 32.525 273.25 33.5 272.35 34.25C271.45 34.95 270.125 35.3 268.375 35.3C266.975 35.3 265.8 34.925 264.85 34.175C263.95 33.375 263.5 32.475 263.5 31.475C263.5 31.275 263.55 30.975 263.65 30.575C261.75 30.975 260.775 32.275 260.725 34.475C260.975 36.225 261.75 37.575 263.05 38.525C264.35 39.425 266.225 39.875 268.675 39.875C271.975 39.875 274.4 39.025 275.95 37.325C277.55 35.575 278.35 33.025 278.35 29.675C277.35 22.975 271.625 19.625 261.175 19.625C254.725 20.275 251.25 23.375 250.75 28.925C251.35 32.325 251.65 35.325 251.65 37.925C251.65 42.875 250.65 46.4 248.65 48.5C246.7 50.6 243.75 51.65 239.8 51.65C233.45 51.65 229.125 47.425 226.825 38.975L225.775 32.75C226.625 33.95 227.575 35.025 228.625 35.975C229.675 36.875 230.775 37.625 231.925 38.225C233.025 38.825 234.125 39.275 235.225 39.575C236.325 39.875 237.35 40.025 238.3 40.025C240.7 40.025 242.5 39.5 243.7 38.45C244.9 37.4 245.5 35.45 245.5 32.6C245.5 31.7 245.4 30.675 245.2 29.525C245.05 28.325 244.975 27.2 244.975 26.15C244.975 18.5 250.55 14.3 261.7 13.55C274.75 13.95 281.725 20 282.625 31.7ZM372.713 46.775C372.713 47.475 372.613 48.2 372.413 48.95C372.213 49.7 371.888 50.4 371.438 51.05C371.038 51.65 370.513 52.15 369.863 52.55C369.213 52.95 368.438 53.15 367.538 53.15C366.438 53.15 365.413 52.775 364.463 52.025C363.513 51.225 363.038 50.075 363.038 48.575C363.038 47.975 363.113 47.475 363.263 47.075C363.463 46.625 363.638 46.175 363.788 45.725C363.988 45.275 364.163 44.775 364.313 44.225C364.513 43.625 364.613 42.875 364.613 41.975C364.613 40.825 364.463 39.825 364.163 38.975C363.913 38.125 363.588 37.175 363.188 36.125C362.938 38.575 362.338 40.825 361.388 42.875C360.488 44.875 359.213 46.6 357.563 48.05C355.963 49.5 354.013 50.625 351.713 51.425C349.413 52.225 346.763 52.625 343.763 52.625C341.663 52.625 339.638 52.325 337.688 51.725C335.788 51.125 334.088 50.225 332.588 49.025C331.138 47.825 329.988 46.35 329.138 44.6C328.288 42.85 327.863 40.8 327.863 38.45C327.863 35.85 328.363 33.75 329.363 32.15C330.413 30.55 331.788 29.3 333.488 28.4C335.188 27.5 337.113 26.9 339.263 26.6C341.413 26.3 343.613 26.15 345.863 26.15C351.313 26.5 355.688 27.7 358.988 29.75C358.988 27.9 358.788 26.375 358.388 25.175C358.038 23.925 357.563 22.925 356.963 22.175C356.363 21.425 355.663 20.9 354.863 20.6C354.063 20.3 353.213 20.15 352.313 20.15C351.563 20.15 350.838 20.2 350.138 20.3C349.438 20.4 348.788 20.625 348.188 20.975C347.588 21.275 347.088 21.725 346.688 22.325C346.288 22.925 346.013 23.7 345.863 24.65H343.763C343.763 21.35 342.213 19.7 339.113 19.7C337.913 19.7 337.038 19.875 336.488 20.225C335.938 20.575 335.538 21.025 335.288 21.575C335.088 22.125 334.938 22.725 334.838 23.375C334.788 23.975 334.613 24.55 334.313 25.1C334.063 25.65 333.638 26.1 333.038 26.45C332.438 26.8 331.513 26.975 330.263 26.975C328.963 26.975 327.938 26.55 327.188 25.7C326.438 24.85 326.063 23.7 326.063 22.25C326.063 19.55 327.088 17.425 329.138 15.875C331.188 14.325 333.988 13.55 337.538 13.55C339.138 13.55 340.538 13.925 341.738 14.675C342.988 15.425 344.013 16.425 344.813 17.675C345.163 16.675 345.613 15.9 346.163 15.35C346.763 14.8 347.413 14.4 348.113 14.15C348.813 13.85 349.513 13.675 350.213 13.625C350.963 13.575 351.688 13.55 352.388 13.55C355.988 13.55 358.788 15 360.788 17.9C362.788 20.8 363.788 25.375 363.788 31.625C368.788 34.725 371.763 39.775 372.713 46.775ZM357.263 33.5C355.513 32.15 353.838 31.25 352.238 30.8C350.638 30.3 348.788 30.05 346.688 30.05C345.688 30.05 344.613 30.175 343.463 30.425C342.313 30.625 341.238 30.95 340.238 31.4C339.288 31.85 338.488 32.425 337.838 33.125C337.188 33.775 336.863 34.55 336.863 35.45C336.863 36.25 337.163 36.95 337.763 37.55C338.413 38.15 339.188 38.65 340.088 39.05C341.038 39.45 342.013 39.75 343.013 39.95C344.063 40.15 345.013 40.25 345.863 40.25C347.163 40.25 348.413 40.1 349.613 39.8C350.813 39.45 351.913 38.975 352.913 38.375C353.963 37.775 354.863 37.075 355.613 36.275C356.363 35.425 356.913 34.5 357.263 33.5ZM421.326 13.25C420.826 17.7 418.076 19.925 413.076 19.925V20.075C414.826 21.725 416.251 23.8 417.351 26.3C418.451 28.8 419.001 31.575 419.001 34.625C419.001 46.825 412.401 52.95 399.201 53C388.201 52.35 382.426 46.15 381.876 34.4C382.376 27 384.851 22.125 389.301 19.775H382.251V13.625L410.526 13.775C414.126 13.175 415.926 11.15 415.926 7.7C415.926 5.7 415.426 3.475 414.426 1.025H416.301C418.101 3.275 419.376 5.4 420.126 7.4C420.926 9.4 421.326 11.35 421.326 13.25ZM400.476 19.85C398.726 19.85 397.026 20.125 395.376 20.675C393.776 21.225 392.351 21.975 391.101 22.925C389.901 23.875 388.926 25 388.176 26.3C387.476 27.55 387.126 28.875 387.126 30.275C387.126 31.725 387.476 33.1 388.176 34.4C388.926 35.65 389.901 36.75 391.101 37.7C392.351 38.65 393.801 39.4 395.451 39.95C397.101 40.5 398.826 40.775 400.626 40.775C402.376 40.775 404.026 40.5 405.576 39.95C407.176 39.35 408.551 38.575 409.701 37.625C410.901 36.675 411.826 35.575 412.476 34.325C413.176 33.075 413.526 31.775 413.526 30.425C413.526 28.925 413.176 27.55 412.476 26.3C411.776 25 410.826 23.9 409.626 23C408.426 22.05 407.026 21.3 405.426 20.75C403.876 20.2 402.226 19.9 400.476 19.85ZM445.617 34.85C444.867 46.8 439.842 52.775 430.542 52.775C424.642 52.775 420.267 49.4 417.417 42.65V36.725C420.167 39.375 423.942 40.7 428.742 40.7C430.692 40.7 432.392 40.575 433.842 40.325C435.342 40.025 436.592 39.525 437.592 38.825C438.642 38.125 439.417 37.175 439.917 35.975C440.467 34.775 440.792 33.275 440.892 31.475C440.892 29.425 440.567 27.825 439.917 26.675C439.317 25.525 438.517 24.625 437.517 23.975C436.567 23.325 435.492 22.875 434.292 22.625C433.142 22.325 432.042 22.025 430.992 21.725C429.942 21.375 428.992 20.95 428.142 20.45C427.342 19.9 426.817 19.075 426.567 17.975C426.567 16.575 427.092 15.525 428.142 14.825C429.192 14.075 430.842 13.65 433.092 13.55C441.442 14.25 445.617 21.35 445.617 34.85ZM531.109 35.675C531.009 46.625 527.259 52.275 519.859 52.625C514.759 52.625 511.534 50.975 510.184 47.675C507.834 50.975 504.634 52.625 500.584 52.625C496.934 52.625 494.034 51.55 491.884 49.4C489.784 47.25 488.734 43.975 488.734 39.575C488.734 32.625 492.734 29.15 500.734 29.15C504.534 29.35 506.509 30.65 506.659 33.05C506.559 34.05 506.034 34.9 505.084 35.6C504.184 36.3 502.934 36.65 501.334 36.65C497.834 36.65 495.834 35.75 495.334 33.95C494.134 34.35 493.534 35.125 493.534 36.275C493.534 37.675 494.284 38.75 495.784 39.5C497.284 40.25 499.309 40.625 501.859 40.625C504.409 40.625 506.259 39.975 507.409 38.675C508.609 37.325 509.209 35.4 509.209 32.9H511.234C511.534 37.95 514.309 40.475 519.559 40.475C524.109 40.125 526.384 37.225 526.384 31.775C526.384 28.075 525.359 25.25 523.309 23.3C521.259 21.3 518.359 20.225 514.609 20.075C513.309 20.025 512.184 20 511.234 20C510.334 20 509.584 19.925 508.984 19.775C508.384 19.625 507.909 19.325 507.559 18.875C507.259 18.425 507.034 17.75 506.884 16.85C506.984 14.85 508.884 13.85 512.584 13.85C524.184 13.85 530.359 21.125 531.109 35.675ZM569.848 33.05C569.848 35.75 569.448 38.3 568.648 40.7C567.848 43.05 566.773 45.125 565.423 46.925C564.073 48.675 562.498 50.05 560.698 51.05C558.898 52.05 556.998 52.55 554.998 52.55C552.898 52.55 550.948 52.05 549.148 51.05C547.348 50 545.773 48.6 544.423 46.85C543.073 45.05 541.998 42.975 541.198 40.625C540.448 38.275 540.073 35.75 540.073 33.05C540.073 30.35 540.473 27.825 541.273 25.475C542.073 23.075 543.148 21 544.498 19.25C545.848 17.45 547.423 16.05 549.223 15.05C551.023 14.05 552.948 13.55 554.998 13.55C556.948 13.55 558.823 14.05 560.623 15.05C562.423 16.05 563.998 17.425 565.348 19.175C566.748 20.925 567.848 23 568.648 25.4C569.448 27.75 569.848 30.3 569.848 33.05ZM554.923 19.7C553.573 19.7 552.298 19.975 551.098 20.525C549.948 21.075 548.948 21.825 548.098 22.775C547.248 23.725 546.573 24.825 546.073 26.075C545.623 27.325 545.398 28.65 545.398 30.05C545.398 31.45 545.648 32.775 546.148 34.025C546.648 35.275 547.323 36.375 548.173 37.325C549.023 38.275 550.023 39.025 551.173 39.575C552.373 40.125 553.623 40.4 554.923 40.4C556.123 40.4 557.298 40.15 558.448 39.65C559.598 39.1 560.598 38.375 561.448 37.475C562.348 36.525 563.073 35.425 563.623 34.175C564.173 32.875 564.448 31.5 564.448 30.05C564.448 28.65 564.198 27.325 563.698 26.075C563.198 24.775 562.498 23.675 561.598 22.775C560.748 21.825 559.748 21.075 558.598 20.525C557.448 19.975 556.223 19.7 554.923 19.7ZM610.319 19.625C611.569 19.925 612.494 20.475 613.094 21.275C613.744 22.025 614.119 22.95 614.219 24.05C614.119 26 613.369 27.35 611.969 28.1C615.219 29.7 616.919 33 617.069 38C616.569 47.1 610.344 52 598.394 52.7C586.594 52.45 580.094 47.1 578.894 36.65C578.894 34.9 579.069 33.225 579.419 31.625C579.769 29.975 580.294 28.525 580.994 27.275C581.744 25.975 582.669 24.95 583.769 24.2C584.919 23.45 586.294 23.075 587.894 23.075C588.944 23.075 589.869 23.4 590.669 24.05C591.469 24.65 591.869 25.45 591.869 26.45C591.869 27.25 591.669 27.85 591.269 28.25C590.869 28.6 590.369 28.875 589.769 29.075C589.169 29.225 588.519 29.375 587.819 29.525C587.119 29.625 586.469 29.8 585.869 30.05C585.269 30.25 584.769 30.6 584.369 31.1C583.969 31.55 583.769 32.225 583.769 33.125C583.769 35.625 584.944 37.5 587.294 38.75C589.644 39.95 592.919 40.55 597.119 40.55C606.069 40.55 610.544 38.35 610.544 33.95C610.544 32.5 610.044 31.375 609.044 30.575C608.094 29.775 606.819 29.375 605.219 29.375H597.344V25.4H605.369C606.919 25.2 607.694 24.375 607.694 22.925C607.694 20.975 606.444 19.875 603.944 19.625H579.569V13.475H610.319V19.625ZM648.444 32.675C648.444 39.375 647.469 44.4 645.519 47.75C643.569 51.05 640.319 52.7 635.769 52.7C633.869 52.7 632.069 52.475 630.369 52.025C628.669 51.525 627.194 50.725 625.944 49.625C624.694 48.475 623.694 46.975 622.944 45.125C622.244 43.275 621.894 40.975 621.894 38.225C621.894 33.625 622.819 30.275 624.669 28.175C626.569 26.075 629.394 25.025 633.144 25.025C637.244 25.025 639.294 26.775 639.294 30.275C639.044 32.625 637.269 33.95 633.969 34.25C632.619 34.25 631.444 33.875 630.444 33.125C629.444 32.325 628.944 31.375 628.944 30.275C627.694 31.025 627.069 32.3 627.069 34.1C627.069 38.3 629.694 40.4 634.944 40.4C637.794 40.4 639.894 39.475 641.244 37.625C642.644 35.775 643.344 33.1 643.344 29.6C642.644 23.45 639.669 20.125 634.419 19.625H601.794V13.475H633.144C635.844 13.475 638.144 14 640.044 15.05C641.994 16.1 643.594 17.525 644.844 19.325C646.094 21.075 646.994 23.1 647.544 25.4C648.144 27.7 648.444 30.125 648.444 32.675ZM700.013 12.95C699.213 17.3 696.288 19.525 691.238 19.625C692.338 20.425 693.413 21.4 694.463 22.55C695.563 23.65 696.513 24.925 697.313 26.375C698.113 27.775 698.763 29.35 699.263 31.1C699.763 32.85 700.013 34.725 700.013 36.725C700.013 41.675 699.038 45.5 697.088 48.2C695.188 50.9 692.338 52.25 688.538 52.25C683.688 52.25 680.513 50.375 679.013 46.625C677.413 50.375 674.263 52.25 669.563 52.25C665.963 51.95 663.113 50.45 661.013 47.75C658.963 45.05 657.938 41.125 657.938 35.975C657.938 27.725 660.863 22.275 666.713 19.625H657.863V13.55H684.788C691.538 13.55 694.913 11.4 694.913 7.1C694.913 6.45 694.838 5.75 694.688 5L693.188 0.874997H695.063C696.363 2.325 697.513 3.975 698.513 5.825C699.563 7.625 700.088 9.525 700.088 11.525C700.088 11.775 700.088 12.025 700.088 12.275C700.088 12.475 700.063 12.7 700.013 12.95ZM693.713 32.3C693.613 27.85 692.238 24.625 689.588 22.625C686.938 20.575 682.963 19.55 677.663 19.55C668.413 20.05 663.638 24.175 663.338 31.925C663.888 37.275 666.163 40.1 670.163 40.4C674.663 40.25 677.063 37.7 677.363 32.75H678.938C679.438 37.75 681.888 40.3 686.288 40.4C688.838 40.3 690.688 39.575 691.838 38.225C693.038 36.875 693.663 34.9 693.713 32.3ZM748.645 13.25C748.145 17.7 745.395 19.925 740.395 19.925V20.075C742.145 21.725 743.57 23.8 744.67 26.3C745.77 28.8 746.32 31.575 746.32 34.625C746.32 46.825 739.72 52.95 726.52 53C715.52 52.35 709.745 46.15 709.195 34.4C709.695 27 712.17 22.125 716.62 19.775H709.57V13.625L737.845 13.775C741.445 13.175 743.245 11.15 743.245 7.7C743.245 5.7 742.745 3.475 741.745 1.025H743.62C745.42 3.275 746.695 5.4 747.445 7.4C748.245 9.4 748.645 11.35 748.645 13.25ZM727.795 19.85C726.045 19.85 724.345 20.125 722.695 20.675C721.095 21.225 719.67 21.975 718.42 22.925C717.22 23.875 716.245 25 715.495 26.3C714.795 27.55 714.445 28.875 714.445 30.275C714.445 31.725 714.795 33.1 715.495 34.4C716.245 35.65 717.22 36.75 718.42 37.7C719.67 38.65 721.12 39.4 722.77 39.95C724.42 40.5 726.145 40.775 727.945 40.775C729.695 40.775 731.345 40.5 732.895 39.95C734.495 39.35 735.87 38.575 737.02 37.625C738.22 36.675 739.145 35.575 739.795 34.325C740.495 33.075 740.845 31.775 740.845 30.425C740.845 28.925 740.495 27.55 739.795 26.3C739.095 25 738.145 23.9 736.945 23C735.745 22.05 734.345 21.3 732.745 20.75C731.195 20.2 729.545 19.9 727.795 19.85ZM772.936 34.85C772.186 46.8 767.161 52.775 757.861 52.775C751.961 52.775 747.586 49.4 744.736 42.65V36.725C747.486 39.375 751.261 40.7 756.061 40.7C758.011 40.7 759.711 40.575 761.161 40.325C762.661 40.025 763.911 39.525 764.911 38.825C765.961 38.125 766.736 37.175 767.236 35.975C767.786 34.775 768.111 33.275 768.211 31.475C768.211 29.425 767.886 27.825 767.236 26.675C766.636 25.525 765.836 24.625 764.836 23.975C763.886 23.325 762.811 22.875 761.611 22.625C760.461 22.325 759.361 22.025 758.311 21.725C757.261 21.375 756.311 20.95 755.461 20.45C754.661 19.9 754.136 19.075 753.886 17.975C753.886 16.575 754.411 15.525 755.461 14.825C756.511 14.075 758.161 13.65 760.411 13.55C768.761 14.25 772.936 21.35 772.936 34.85ZM862.704 46.775C862.704 47.475 862.604 48.2 862.404 48.95C862.204 49.7 861.879 50.4 861.429 51.05C861.029 51.65 860.504 52.15 859.854 52.55C859.204 52.95 858.429 53.15 857.529 53.15C856.429 53.15 855.404 52.775 854.454 52.025C853.504 51.225 853.029 50.075 853.029 48.575C853.029 47.975 853.104 47.475 853.254 47.075C853.454 46.625 853.629 46.175 853.779 45.725C853.979 45.275 854.154 44.775 854.304 44.225C854.504 43.625 854.604 42.875 854.604 41.975C854.604 40.825 854.454 39.825 854.154 38.975C853.904 38.125 853.579 37.175 853.179 36.125C852.929 38.575 852.329 40.825 851.379 42.875C850.479 44.875 849.204 46.6 847.554 48.05C845.954 49.5 844.004 50.625 841.704 51.425C839.404 52.225 836.754 52.625 833.754 52.625C831.654 52.625 829.629 52.325 827.679 51.725C825.779 51.125 824.079 50.225 822.579 49.025C821.129 47.825 819.979 46.35 819.129 44.6C818.279 42.85 817.854 40.8 817.854 38.45C817.854 35.85 818.354 33.75 819.354 32.15C820.404 30.55 821.779 29.3 823.479 28.4C825.179 27.5 827.104 26.9 829.254 26.6C831.404 26.3 833.604 26.15 835.854 26.15C841.304 26.5 845.679 27.7 848.979 29.75C848.979 27.9 848.779 26.375 848.379 25.175C848.029 23.925 847.554 22.925 846.954 22.175C846.354 21.425 845.654 20.9 844.854 20.6C844.054 20.3 843.204 20.15 842.304 20.15C841.554 20.15 840.829 20.2 840.129 20.3C839.429 20.4 838.779 20.625 838.179 20.975C837.579 21.275 837.079 21.725 836.679 22.325C836.279 22.925 836.004 23.7 835.854 24.65H833.754C833.754 21.35 832.204 19.7 829.104 19.7C827.904 19.7 827.029 19.875 826.479 20.225C825.929 20.575 825.529 21.025 825.279 21.575C825.079 22.125 824.929 22.725 824.829 23.375C824.779 23.975 824.604 24.55 824.304 25.1C824.054 25.65 823.629 26.1 823.029 26.45C822.429 26.8 821.504 26.975 820.254 26.975C818.954 26.975 817.929 26.55 817.179 25.7C816.429 24.85 816.054 23.7 816.054 22.25C816.054 19.55 817.079 17.425 819.129 15.875C821.179 14.325 823.979 13.55 827.529 13.55C829.129 13.55 830.529 13.925 831.729 14.675C832.979 15.425 834.004 16.425 834.804 17.675C835.154 16.675 835.604 15.9 836.154 15.35C836.754 14.8 837.404 14.4 838.104 14.15C838.804 13.85 839.504 13.675 840.204 13.625C840.954 13.575 841.679 13.55 842.379 13.55C845.979 13.55 848.779 15 850.779 17.9C852.779 20.8 853.779 25.375 853.779 31.625C858.779 34.725 861.754 39.775 862.704 46.775ZM847.254 33.5C845.504 32.15 843.829 31.25 842.229 30.8C840.629 30.3 838.779 30.05 836.679 30.05C835.679 30.05 834.604 30.175 833.454 30.425C832.304 30.625 831.229 30.95 830.229 31.4C829.279 31.85 828.479 32.425 827.829 33.125C827.179 33.775 826.854 34.55 826.854 35.45C826.854 36.25 827.154 36.95 827.754 37.55C828.404 38.15 829.179 38.65 830.079 39.05C831.029 39.45 832.004 39.75 833.004 39.95C834.054 40.15 835.004 40.25 835.854 40.25C837.154 40.25 838.404 40.1 839.604 39.8C840.804 39.45 841.904 38.975 842.904 38.375C843.954 37.775 844.854 37.075 845.604 36.275C846.354 35.425 846.904 34.5 847.254 33.5ZM911.316 13.25C910.816 17.7 908.066 19.925 903.066 19.925V20.075C904.816 21.725 906.241 23.8 907.341 26.3C908.441 28.8 908.991 31.575 908.991 34.625C908.991 46.825 902.391 52.95 889.191 53C878.191 52.35 872.416 46.15 871.866 34.4C872.366 27 874.841 22.125 879.291 19.775H872.241V13.625L900.516 13.775C904.116 13.175 905.916 11.15 905.916 7.7C905.916 5.7 905.416 3.475 904.416 1.025H906.291C908.091 3.275 909.366 5.4 910.116 7.4C910.916 9.4 911.316 11.35 911.316 13.25ZM890.466 19.85C888.716 19.85 887.016 20.125 885.366 20.675C883.766 21.225 882.341 21.975 881.091 22.925C879.891 23.875 878.916 25 878.166 26.3C877.466 27.55 877.116 28.875 877.116 30.275C877.116 31.725 877.466 33.1 878.166 34.4C878.916 35.65 879.891 36.75 881.091 37.7C882.341 38.65 883.791 39.4 885.441 39.95C887.091 40.5 888.816 40.775 890.616 40.775C892.366 40.775 894.016 40.5 895.566 39.95C897.166 39.35 898.541 38.575 899.691 37.625C900.891 36.675 901.816 35.575 902.466 34.325C903.166 33.075 903.516 31.775 903.516 30.425C903.516 28.925 903.166 27.55 902.466 26.3C901.766 25 900.816 23.9 899.616 23C898.416 22.05 897.016 21.3 895.416 20.75C893.866 20.2 892.216 19.9 890.466 19.85ZM935.607 34.85C934.857 46.8 929.832 52.775 920.532 52.775C914.632 52.775 910.257 49.4 907.407 42.65V36.725C910.157 39.375 913.932 40.7 918.732 40.7C920.682 40.7 922.382 40.575 923.832 40.325C925.332 40.025 926.582 39.525 927.582 38.825C928.632 38.125 929.407 37.175 929.907 35.975C930.457 34.775 930.782 33.275 930.882 31.475C930.882 29.425 930.557 27.825 929.907 26.675C929.307 25.525 928.507 24.625 927.507 23.975C926.557 23.325 925.482 22.875 924.282 22.625C923.132 22.325 922.032 22.025 920.982 21.725C919.932 21.375 918.982 20.95 918.132 20.45C917.332 19.9 916.807 19.075 916.557 17.975C916.557 16.575 917.082 15.525 918.132 14.825C919.182 14.075 920.832 13.65 923.082 13.55C931.432 14.25 935.607 21.35 935.607 34.85ZM1021.1 35.675C1021 46.625 1017.25 52.275 1009.85 52.625C1004.75 52.625 1001.52 50.975 1000.17 47.675C997.824 50.975 994.624 52.625 990.574 52.625C986.924 52.625 984.024 51.55 981.874 49.4C979.774 47.25 978.724 43.975 978.724 39.575C978.724 32.625 982.724 29.15 990.724 29.15C994.524 29.35 996.499 30.65 996.649 33.05C996.549 34.05 996.024 34.9 995.074 35.6C994.174 36.3 992.924 36.65 991.324 36.65C987.824 36.65 985.824 35.75 985.324 33.95C984.124 34.35 983.524 35.125 983.524 36.275C983.524 37.675 984.274 38.75 985.774 39.5C987.274 40.25 989.299 40.625 991.849 40.625C994.399 40.625 996.249 39.975 997.399 38.675C998.599 37.325 999.199 35.4 999.199 32.9H1001.22C1001.52 37.95 1004.3 40.475 1009.55 40.475C1014.1 40.125 1016.37 37.225 1016.37 31.775C1016.37 28.075 1015.35 25.25 1013.3 23.3C1011.25 21.3 1008.35 20.225 1004.6 20.075C1003.3 20.025 1002.17 20 1001.22 20C1000.32 20 999.574 19.925 998.974 19.775C998.374 19.625 997.899 19.325 997.549 18.875C997.249 18.425 997.024 17.75 996.874 16.85C996.974 14.85 998.874 13.85 1002.57 13.85C1014.17 13.85 1020.35 21.125 1021.1 35.675ZM1059.84 33.05C1059.84 35.75 1059.44 38.3 1058.64 40.7C1057.84 43.05 1056.76 45.125 1055.41 46.925C1054.06 48.675 1052.49 50.05 1050.69 51.05C1048.89 52.05 1046.99 52.55 1044.99 52.55C1042.89 52.55 1040.94 52.05 1039.14 51.05C1037.34 50 1035.76 48.6 1034.41 46.85C1033.06 45.05 1031.99 42.975 1031.19 40.625C1030.44 38.275 1030.06 35.75 1030.06 33.05C1030.06 30.35 1030.46 27.825 1031.26 25.475C1032.06 23.075 1033.14 21 1034.49 19.25C1035.84 17.45 1037.41 16.05 1039.21 15.05C1041.01 14.05 1042.94 13.55 1044.99 13.55C1046.94 13.55 1048.81 14.05 1050.61 15.05C1052.41 16.05 1053.99 17.425 1055.34 19.175C1056.74 20.925 1057.84 23 1058.64 25.4C1059.44 27.75 1059.84 30.3 1059.84 33.05ZM1044.91 19.7C1043.56 19.7 1042.29 19.975 1041.09 20.525C1039.94 21.075 1038.94 21.825 1038.09 22.775C1037.24 23.725 1036.56 24.825 1036.06 26.075C1035.61 27.325 1035.39 28.65 1035.39 30.05C1035.39 31.45 1035.64 32.775 1036.14 34.025C1036.64 35.275 1037.31 36.375 1038.16 37.325C1039.01 38.275 1040.01 39.025 1041.16 39.575C1042.36 40.125 1043.61 40.4 1044.91 40.4C1046.11 40.4 1047.29 40.15 1048.44 39.65C1049.59 39.1 1050.59 38.375 1051.44 37.475C1052.34 36.525 1053.06 35.425 1053.61 34.175C1054.16 32.875 1054.44 31.5 1054.44 30.05C1054.44 28.65 1054.19 27.325 1053.69 26.075C1053.19 24.775 1052.49 23.675 1051.59 22.775C1050.74 21.825 1049.74 21.075 1048.59 20.525C1047.44 19.975 1046.21 19.7 1044.91 19.7ZM1104.58 19.625C1106.83 21.325 1108.58 23.6 1109.83 26.45C1111.08 29.25 1111.71 32.725 1111.71 36.875C1111.71 41.825 1110.76 45.725 1108.86 48.575C1106.96 51.425 1104.08 52.85 1100.23 52.85C1095.23 52.85 1091.98 50.9 1090.48 47C1088.93 50.8 1085.76 52.75 1080.96 52.85C1077.41 52.5 1074.56 50.975 1072.41 48.275C1070.26 45.525 1069.18 41.625 1069.18 36.575C1069.18 28.075 1072.16 22.425 1078.11 19.625H1069.11V13.475H1104.58V19.625ZM1106.91 32.375C1106.71 23.875 1101.11 19.625 1090.11 19.625C1080.11 20.225 1074.93 24.35 1074.58 32C1075.03 37.45 1077.48 40.325 1081.93 40.625C1086.73 40.575 1089.31 37.975 1089.66 32.825H1091.31C1091.86 38.025 1094.43 40.625 1099.03 40.625C1104.18 40.625 1106.81 37.875 1106.91 32.375ZM1112.98 10.325C1112.98 12.925 1112.55 15.125 1111.7 16.925C1110.85 18.675 1109.45 19.55 1107.5 19.55H1096.4V13.475H1105.63C1106.43 13.475 1107.25 13.15 1108.1 12.5C1108.9 11.8 1109.3 10.6 1109.3 8.9C1109.3 8.05 1109.15 7.325 1108.85 6.725C1108.55 6.075 1108.1 5.675 1107.5 5.525C1107.55 5.825 1107.63 6.1 1107.73 6.35C1107.78 6.55 1107.8 6.875 1107.8 7.325C1107.8 8.025 1107.5 8.625 1106.9 9.125C1106.25 9.625 1105.43 9.875 1104.43 9.875C1103.63 9.875 1102.9 9.55 1102.25 8.9C1101.55 8.25 1101.2 7.475 1101.2 6.575C1101.2 5.225 1101.73 4.25 1102.78 3.65C1103.78 3 1104.9 2.675 1106.15 2.675C1108.25 2.675 1109.9 3.275 1111.1 4.475C1112.25 5.675 1112.88 7.625 1112.98 10.325ZM1151.1 33.05C1151.1 35.75 1150.7 38.3 1149.9 40.7C1149.1 43.05 1148.02 45.125 1146.67 46.925C1145.32 48.675 1143.75 50.05 1141.95 51.05C1140.15 52.05 1138.25 52.55 1136.25 52.55C1134.15 52.55 1132.2 52.05 1130.4 51.05C1128.6 50 1127.02 48.6 1125.67 46.85C1124.32 45.05 1123.25 42.975 1122.45 40.625C1121.7 38.275 1121.32 35.75 1121.32 33.05C1121.32 30.35 1121.72 27.825 1122.52 25.475C1123.32 23.075 1124.4 21 1125.75 19.25C1127.1 17.45 1128.67 16.05 1130.47 15.05C1132.27 14.05 1134.2 13.55 1136.25 13.55C1138.2 13.55 1140.07 14.05 1141.87 15.05C1143.67 16.05 1145.25 17.425 1146.6 19.175C1148 20.925 1149.1 23 1149.9 25.4C1150.7 27.75 1151.1 30.3 1151.1 33.05ZM1136.17 19.7C1134.82 19.7 1133.55 19.975 1132.35 20.525C1131.2 21.075 1130.2 21.825 1129.35 22.775C1128.5 23.725 1127.82 24.825 1127.32 26.075C1126.87 27.325 1126.65 28.65 1126.65 30.05C1126.65 31.45 1126.9 32.775 1127.4 34.025C1127.9 35.275 1128.57 36.375 1129.42 37.325C1130.27 38.275 1131.27 39.025 1132.42 39.575C1133.62 40.125 1134.87 40.4 1136.17 40.4C1137.37 40.4 1138.55 40.15 1139.7 39.65C1140.85 39.1 1141.85 38.375 1142.7 37.475C1143.6 36.525 1144.32 35.425 1144.87 34.175C1145.42 32.875 1145.7 31.5 1145.7 30.05C1145.7 28.65 1145.45 27.325 1144.95 26.075C1144.45 24.775 1143.75 23.675 1142.85 22.775C1142 21.825 1141 21.075 1139.85 20.525C1138.7 19.975 1137.47 19.7 1136.17 19.7ZM1189.24 18.2C1187.69 13.45 1183.77 11.075 1177.47 11.075C1172.92 11.525 1170.64 12.875 1170.64 15.125C1170.69 16.025 1171.14 16.775 1171.99 17.375C1172.89 16.825 1174.04 16.375 1175.44 16.025C1176.84 15.625 1178.42 15.425 1180.17 15.425C1183.67 15.425 1186.69 16.35 1189.24 18.2ZM1194.72 32.525C1194.62 24.325 1189.67 20.15 1179.87 20C1170.72 20.6 1165.84 24.65 1165.24 32.15C1165.69 37.45 1167.84 40.225 1171.69 40.475C1176.19 40.425 1178.57 37.925 1178.82 32.975H1180.39C1180.64 35.375 1181.37 37.225 1182.57 38.525C1183.77 39.825 1185.49 40.475 1187.74 40.475C1192.29 40.475 1194.62 37.825 1194.72 32.525ZM1166.89 20.075C1165.04 19.175 1163.97 17.375 1163.67 14.675C1163.67 9.275 1168.02 6.575 1176.72 6.575C1180.82 6.575 1184.24 7.725 1186.99 10.025C1189.79 12.325 1191.89 15.725 1193.29 20.225C1195.29 22.125 1196.84 24.5 1197.94 27.35C1199.04 30.15 1199.59 33.35 1199.59 36.95C1199.59 41.8 1198.69 45.6 1196.89 48.35C1195.09 51.1 1192.34 52.475 1188.64 52.475C1184.04 52.475 1181.04 50.575 1179.64 46.775C1178.24 50.425 1175.27 52.325 1170.72 52.475C1167.27 52.175 1164.59 50.675 1162.69 47.975C1160.79 45.225 1159.84 41.275 1159.84 36.125C1159.84 28.725 1162.19 23.375 1166.89 20.075ZM1253.11 12.875C1252.51 17.275 1249.46 19.475 1243.96 19.475H1243.66C1248.06 22.225 1250.61 27.875 1251.31 36.425C1251.11 41.475 1249.94 45.425 1247.79 48.275C1245.64 51.125 1242.59 52.55 1238.64 52.55C1237.09 52.55 1235.71 52.1 1234.51 51.2C1233.36 50.25 1232.79 48.9 1232.79 47.15C1232.79 46.25 1232.89 45.5 1233.09 44.9C1233.29 44.25 1233.61 43.65 1234.06 43.1C1234.56 42.55 1235.21 41.975 1236.01 41.375C1236.81 40.775 1237.81 40.05 1239.01 39.2C1240.01 38.3 1240.96 37 1241.86 35.3C1242.76 33.55 1243.21 31.65 1243.21 29.6C1243.21 23.05 1238.71 19.725 1229.71 19.625C1221.06 19.825 1216.74 23.1 1216.74 29.45C1216.74 31.5 1217.09 33.275 1217.79 34.775C1218.49 36.275 1219.29 37.575 1220.19 38.675C1221.14 39.725 1222.09 40.625 1223.04 41.375C1223.99 42.075 1224.74 42.675 1225.29 43.175C1225.74 43.625 1226.06 44.175 1226.26 44.825C1226.51 45.425 1226.64 46.075 1226.64 46.775C1226.64 48.475 1226.01 49.875 1224.76 50.975C1223.51 52.025 1221.94 52.55 1220.04 52.55C1218.04 52.55 1216.29 52.075 1214.79 51.125C1213.34 50.125 1212.14 48.875 1211.19 47.375C1210.24 45.825 1209.51 44.1 1209.01 42.2C1208.56 40.25 1208.34 38.325 1208.34 36.425C1208.64 27.975 1211.41 22.325 1216.66 19.475H1208.26V13.55H1240.89C1245.09 13.05 1247.19 11.025 1247.19 7.475C1247.19 5.675 1246.61 3.425 1245.46 0.724999H1247.56C1249.56 2.975 1250.99 5.075 1251.84 7.025C1252.69 8.975 1253.11 10.925 1253.11 12.875ZM1305.67 31.7C1305.67 38.65 1304.5 43.7 1302.15 46.85C1299.85 50 1296.3 51.575 1291.5 51.575C1287.5 51.575 1284.32 50.4 1281.97 48.05C1279.67 45.65 1278.52 42.05 1278.52 37.25C1278.52 33.5 1279.52 30.825 1281.52 29.225C1283.52 27.575 1286.52 26.75 1290.52 26.75C1292.42 26.9 1293.92 27.35 1295.02 28.1C1296.17 28.85 1296.75 29.925 1296.75 31.325C1296.75 32.525 1296.3 33.5 1295.4 34.25C1294.5 34.95 1293.17 35.3 1291.42 35.3C1290.02 35.3 1288.85 34.925 1287.9 34.175C1287 33.375 1286.55 32.475 1286.55 31.475C1286.55 31.275 1286.6 30.975 1286.7 30.575C1284.8 30.975 1283.82 32.275 1283.77 34.475C1284.02 36.225 1284.8 37.575 1286.1 38.525C1287.4 39.425 1289.27 39.875 1291.72 39.875C1295.02 39.875 1297.45 39.025 1299 37.325C1300.6 35.575 1301.4 33.025 1301.4 29.675C1300.4 22.975 1294.67 19.625 1284.22 19.625C1277.77 20.275 1274.3 23.375 1273.8 28.925C1274.4 32.325 1274.7 35.325 1274.7 37.925C1274.7 42.875 1273.7 46.4 1271.7 48.5C1269.75 50.6 1266.8 51.65 1262.85 51.65C1256.5 51.65 1252.17 47.425 1249.87 38.975L1248.82 32.75C1249.67 33.95 1250.62 35.025 1251.67 35.975C1252.72 36.875 1253.82 37.625 1254.97 38.225C1256.07 38.825 1257.17 39.275 1258.27 39.575C1259.37 39.875 1260.4 40.025 1261.35 40.025C1263.75 40.025 1265.55 39.5 1266.75 38.45C1267.95 37.4 1268.55 35.45 1268.55 32.6C1268.55 31.7 1268.45 30.675 1268.25 29.525C1268.1 28.325 1268.02 27.2 1268.02 26.15C1268.02 18.5 1273.6 14.3 1284.75 13.55C1297.8 13.95 1304.77 20 1305.67 31.7ZM1366.36 14.675C1366.36 13.875 1365.99 13.15 1365.24 12.5C1364.54 11.8 1363.76 11.45 1362.91 11.45C1361.91 11.45 1361.09 11.8 1360.44 12.5C1359.79 13.15 1359.46 13.875 1359.46 14.675C1359.46 15.625 1359.79 16.425 1360.44 17.075C1361.09 17.675 1361.91 17.975 1362.91 17.975C1363.76 17.975 1364.54 17.675 1365.24 17.075C1365.99 16.425 1366.36 15.625 1366.36 14.675ZM1381.29 28.475C1380.49 23.775 1379.19 20.05 1377.39 17.3C1375.64 14.5 1373.41 12.575 1370.71 11.525C1370.96 12.225 1371.16 12.875 1371.31 13.475C1371.51 14.025 1371.61 14.6 1371.61 15.2C1371.61 19.8 1368.31 22.2 1361.71 22.4C1354.81 22.35 1351.16 19.7 1350.76 14.45C1350.81 9.05 1355.11 6.35 1363.66 6.35C1367.16 6.35 1370.29 7 1373.04 8.3C1375.84 9.55 1378.21 11.45 1380.16 14C1382.11 16.5 1383.59 19.625 1384.59 23.375C1385.64 27.075 1386.16 31.4 1386.16 36.35C1386.16 41.85 1385.21 45.925 1383.31 48.575C1381.41 51.175 1378.56 52.475 1374.76 52.475C1371.81 52.475 1369.41 51.525 1367.56 49.625C1365.76 47.725 1364.86 44.875 1364.86 41.075C1364.86 40.075 1365.01 39.05 1365.31 38C1365.61 36.95 1365.76 35.9 1365.76 34.85C1365.76 31.85 1363.66 30.3 1359.46 30.2C1355.31 30.5 1353.16 32.1 1353.01 35C1353.06 36.45 1353.49 37.575 1354.29 38.375C1355.09 39.125 1356.26 39.7 1357.81 40.1C1360.91 40.9 1362.46 42.85 1362.46 45.95C1362.46 48.15 1362.01 49.8 1361.11 50.9C1360.21 51.95 1358.94 52.475 1357.29 52.475C1356.09 52.325 1354.94 51.95 1353.84 51.35C1352.79 50.7 1351.84 49.825 1350.99 48.725C1350.19 47.575 1349.54 46.2 1349.04 44.6C1348.59 43 1348.36 41.175 1348.36 39.125C1348.36 34.775 1349.29 31.45 1351.14 29.15C1352.99 26.8 1355.79 25.625 1359.54 25.625C1365.94 25.625 1369.31 28.45 1369.66 34.1C1369.66 36.4 1370.14 38.025 1371.09 38.975C1372.09 39.875 1373.64 40.325 1375.74 40.325C1379.49 40.325 1381.36 37.1 1381.36 30.65C1381.36 30.3 1381.34 29.95 1381.29 29.6C1381.29 29.25 1381.29 28.875 1381.29 28.475ZM1409.5 52.7C1407.15 52.7 1405.05 52.325 1403.2 51.575C1401.35 50.775 1399.78 49.55 1398.48 47.9C1397.18 46.25 1396.18 44.125 1395.48 41.525C1394.78 38.925 1394.43 35.8 1394.43 32.15C1394.43 30 1394.63 27.825 1395.03 25.625C1395.43 23.425 1396.05 21.425 1396.9 19.625C1397.75 17.825 1398.83 16.35 1400.13 15.2C1401.43 14.05 1403 13.475 1404.85 13.475C1406.8 13.475 1408.33 14.225 1409.43 15.725C1410.58 17.225 1411.15 19.075 1411.15 21.275C1411.15 24.275 1410.43 26.575 1408.98 28.175C1407.53 29.725 1405.8 30.5 1403.8 30.5C1401.1 30.5 1399.2 28.925 1398.1 25.775C1398.1 30.925 1399.03 34.675 1400.88 37.025C1402.73 39.375 1405.8 40.55 1410.1 40.55C1413.1 40.55 1414.6 42.325 1414.6 45.875C1414.6 50.425 1412.9 52.7 1409.5 52.7ZM1405.3 22.4C1405.3 21.5 1405.05 20.75 1404.55 20.15C1404.05 19.55 1403.4 19.25 1402.6 19.25C1401.9 19.25 1401.28 19.55 1400.73 20.15C1400.23 20.75 1399.98 21.5 1399.98 22.4C1399.98 23.35 1400.23 24.1 1400.73 24.65C1401.28 25.15 1401.9 25.4 1402.6 25.4C1403.4 25.4 1404.05 25.15 1404.55 24.65C1405.05 24.1 1405.3 23.35 1405.3 22.4ZM1497.78 13.1C1497.08 17.4 1494.26 19.55 1489.31 19.55H1482.41C1483.11 20.65 1483.46 21.675 1483.46 22.625C1483.46 23.575 1483.16 24.45 1482.56 25.25H1497.93V29.375H1488.86C1493.11 31.225 1495.23 34.85 1495.23 40.25C1494.33 47.9 1488.31 51.975 1477.16 52.475C1465.56 52.175 1459.26 48.15 1458.26 40.4C1458.36 34.9 1460.71 31.225 1465.31 29.375H1457.58V25.25H1472.06C1471.16 24.35 1470.71 23.3 1470.71 22.1C1470.71 21.25 1470.98 20.4 1471.53 19.55H1457.58V13.475H1487.21C1490.61 12.925 1492.31 11.025 1492.31 7.775C1492.31 5.875 1491.78 3.575 1490.73 0.874997H1492.61C1496.06 5.125 1497.78 9.2 1497.78 13.1ZM1477.08 29.45C1475.58 29.45 1474.13 29.6 1472.73 29.9C1471.38 30.2 1470.18 30.6 1469.13 31.1C1468.13 31.6 1467.33 32.2 1466.73 32.9C1466.13 33.55 1465.83 34.275 1465.83 35.075C1465.83 35.875 1466.13 36.625 1466.73 37.325C1467.33 37.975 1468.13 38.55 1469.13 39.05C1470.13 39.55 1471.31 39.95 1472.66 40.25C1474.06 40.55 1475.53 40.7 1477.08 40.7C1478.78 40.7 1480.33 40.55 1481.73 40.25C1483.13 39.95 1484.33 39.55 1485.33 39.05C1486.33 38.5 1487.08 37.9 1487.58 37.25C1488.13 36.55 1488.41 35.825 1488.41 35.075C1488.41 34.325 1488.13 33.625 1487.58 32.975C1487.03 32.275 1486.26 31.675 1485.26 31.175C1484.26 30.625 1483.06 30.2 1481.66 29.9C1480.26 29.6 1478.73 29.45 1477.08 29.45ZM1545.81 12.8C1545.06 17.15 1542.36 19.45 1537.71 19.7C1539.56 21.05 1541.03 23.15 1542.13 26C1543.23 28.8 1543.78 32.25 1543.78 36.35C1543.78 41.85 1542.83 45.925 1540.93 48.575C1539.08 51.225 1536.28 52.55 1532.53 52.55C1529.53 52.55 1527.18 51.575 1525.48 49.625C1523.78 47.675 1522.93 44.7 1522.93 40.7C1522.93 39.7 1523.06 38.675 1523.31 37.625C1523.61 36.575 1523.76 35.55 1523.76 34.55C1523.76 31.6 1521.71 30.1 1517.61 30.05C1513.56 30.35 1511.43 31.95 1511.23 34.85C1511.33 37.65 1512.88 39.4 1515.88 40.1C1518.98 40.85 1520.56 42.8 1520.61 45.95C1520.41 50.35 1518.73 52.55 1515.58 52.55C1513.13 52.3 1511.03 51.025 1509.28 48.725C1507.53 46.425 1506.66 43.175 1506.66 38.975C1506.66 34.725 1507.56 31.425 1509.36 29.075C1511.16 26.725 1513.91 25.55 1517.61 25.55C1520.61 25.55 1523.03 26.275 1524.88 27.725C1526.73 29.125 1527.66 31.325 1527.66 34.325C1527.66 36.625 1528.16 38.2 1529.16 39.05C1530.16 39.9 1531.71 40.325 1533.81 40.325C1537.56 40.325 1539.43 37.975 1539.43 33.275C1539.43 29.975 1538.81 27.175 1537.56 24.875C1536.31 22.575 1534.63 20.825 1532.53 19.625H1507.33V13.55H1531.56V13.4C1537.86 13.4 1541.01 11.275 1541.01 7.025C1541.01 6.325 1540.93 5.6 1540.78 4.85L1539.28 0.649996H1541.08C1542.53 2.65 1543.68 4.525 1544.53 6.275C1545.43 8.025 1545.88 9.8 1545.88 11.6C1545.88 11.8 1545.88 12 1545.88 12.2C1545.88 12.4 1545.86 12.6 1545.81 12.8ZM1557.26 72.5C1557.21 73.6 1556.93 74.575 1556.43 75.425C1555.93 76.325 1555.11 76.775 1553.96 76.775C1552.81 76.775 1552.01 76.45 1551.56 75.8C1551.16 75.2 1550.96 74.575 1550.96 73.925C1550.96 73.475 1551.13 72.825 1551.48 71.975C1551.88 71.125 1552.08 70.175 1552.08 69.125C1552.08 67.925 1551.81 66.75 1551.26 65.6C1551.06 66.9 1550.61 68.1 1549.91 69.2C1549.21 70.3 1548.38 71.225 1547.43 71.975C1546.43 72.775 1545.33 73.375 1544.13 73.775C1542.88 74.225 1541.63 74.45 1540.38 74.45C1537.08 74.45 1534.41 73.65 1532.36 72.05C1530.26 70.5 1529.21 68.45 1529.21 65.9C1529.21 61.3 1532.51 59 1539.11 59C1540.71 59 1542.26 59.175 1543.76 59.525C1545.26 59.875 1546.96 60.675 1548.86 61.925C1549.66 60.175 1550.16 58.725 1550.36 57.575C1550.36 56.575 1550.23 55.625 1549.98 54.725C1549.73 53.825 1549.61 52.8 1549.61 51.65C1549.61 50.95 1549.78 50.375 1550.13 49.925C1550.48 49.425 1550.93 49.175 1551.48 49.175C1552.33 49.175 1553.06 49.675 1553.66 50.675C1554.26 51.675 1554.56 52.825 1554.56 54.125C1554.56 56.025 1554.38 57.725 1554.03 59.225C1553.68 60.725 1553.23 61.975 1552.68 62.975C1553.63 63.975 1554.38 64.85 1554.93 65.6C1555.53 66.4 1555.98 67.15 1556.28 67.85C1556.63 68.55 1556.86 69.275 1556.96 70.025C1557.11 70.775 1557.21 71.6 1557.26 72.5ZM1547.58 63.8C1545.68 62.15 1543.41 61.325 1540.76 61.325C1540.06 61.325 1539.36 61.35 1538.66 61.4C1537.91 61.45 1537.23 61.575 1536.63 61.775C1535.98 62.025 1535.46 62.375 1535.06 62.825C1534.66 63.275 1534.46 63.9 1534.46 64.7C1534.46 65.25 1534.71 65.7 1535.21 66.05C1535.71 66.45 1536.31 66.775 1537.01 67.025C1537.71 67.275 1538.43 67.45 1539.18 67.55C1539.88 67.65 1540.46 67.7 1540.91 67.7C1542.26 67.7 1543.61 67.4 1544.96 66.8C1546.31 66.2 1547.18 65.2 1547.58 63.8ZM1601.99 12.8C1601.34 17.15 1598.62 19.375 1593.82 19.475C1594.62 20.675 1595.22 22.225 1595.62 24.125C1600.02 26.125 1602.37 30.675 1602.67 37.775C1602.42 42.625 1601.24 46.275 1599.14 48.725C1597.09 51.175 1594.12 52.4 1590.22 52.4C1586.12 52.4 1583.24 50.725 1581.59 47.375C1580.29 49.175 1578.87 50.475 1577.32 51.275C1575.82 52.025 1574.04 52.4 1571.99 52.4C1568.14 52.4 1565.12 51.05 1562.92 48.35C1560.77 45.65 1559.69 41.725 1559.69 36.575C1559.69 28.825 1562.64 23.125 1568.54 19.475H1559.69V13.475H1590.97C1594.67 12.875 1596.52 10.9 1596.52 7.55C1596.52 5.8 1595.94 3.55 1594.79 0.799998H1596.82C1598.67 3 1599.99 5.075 1600.79 7.025C1601.59 8.975 1601.99 10.9 1601.99 12.8ZM1596.82 32C1595.37 33.5 1593.47 34.25 1591.12 34.25C1587.12 34.25 1585.04 32.55 1584.89 29.15C1584.99 25.7 1587.07 23.9 1591.12 23.75C1590.22 21.05 1586.89 19.625 1581.14 19.475C1579.04 19.575 1577.09 19.925 1575.29 20.525C1573.54 21.075 1571.99 21.9 1570.64 23C1569.34 24.05 1568.32 25.375 1567.57 26.975C1566.82 28.525 1566.44 30.325 1566.44 32.375C1566.44 34.925 1566.99 36.875 1568.09 38.225C1569.24 39.575 1570.94 40.25 1573.19 40.25C1577.09 40.25 1579.62 37.7 1580.77 32.6H1582.34C1582.64 35.1 1583.42 37 1584.67 38.3C1585.97 39.6 1587.77 40.25 1590.07 40.25C1594.77 40.25 1597.12 38.4 1597.12 34.7C1597.12 33.75 1597.02 32.85 1596.82 32ZM1595.02 29.375C1595.02 28.925 1594.82 28.525 1594.42 28.175C1594.02 27.825 1593.59 27.65 1593.14 27.65C1592.69 27.65 1592.24 27.825 1591.79 28.175C1591.34 28.525 1591.12 28.925 1591.12 29.375C1591.12 29.775 1591.34 30.15 1591.79 30.5C1592.24 30.85 1592.69 31.025 1593.14 31.025C1593.59 31.025 1594.02 30.85 1594.42 30.5C1594.82 30.15 1595.02 29.775 1595.02 29.375ZM1648.65 19.55H1647.08C1649.33 21.1 1651.1 23.35 1652.4 26.3C1653.7 29.2 1654.35 32.675 1654.35 36.725C1654.35 46.375 1650.53 51.675 1642.88 52.625C1638.43 52.375 1635.5 50.675 1634.1 47.525C1632.75 50.675 1629.55 52.375 1624.5 52.625H1623.3C1616.25 52.225 1612.4 48.05 1611.75 40.1C1611.9 31.3 1615.9 26.9 1623.75 26.9C1625.5 26.9 1627.03 27.225 1628.33 27.875C1629.63 28.525 1630.28 29.5 1630.28 30.8C1630.28 33.45 1628.43 34.85 1624.73 35C1623.58 34.95 1622.55 34.65 1621.65 34.1C1620.75 33.55 1620.3 32.725 1620.3 31.625C1620.3 31.425 1620.35 31.175 1620.45 30.875C1618.3 31.825 1617.23 33.275 1617.23 35.225C1617.23 36.825 1617.7 38.1 1618.65 39.05C1619.6 39.95 1621.4 40.45 1624.05 40.55C1627.2 40.55 1629.53 39.9 1631.03 38.6C1632.53 37.3 1633.28 35.35 1633.28 32.75H1635.08C1635.38 37.95 1638.15 40.55 1643.4 40.55C1647.1 40.15 1648.95 37.45 1648.95 32.45C1648.95 30.45 1648.7 28.675 1648.2 27.125C1647.7 25.575 1647 24.275 1646.1 23.225C1645.25 22.125 1644.25 21.275 1643.1 20.675C1641.95 20.025 1640.7 19.65 1639.35 19.55H1611.83V13.475H1648.65V19.55ZM1685.92 32.675C1685.92 39.375 1684.94 44.4 1682.99 47.75C1681.04 51.05 1677.79 52.7 1673.24 52.7C1671.34 52.7 1669.54 52.475 1667.84 52.025C1666.14 51.525 1664.67 50.725 1663.42 49.625C1662.17 48.475 1661.17 46.975 1660.42 45.125C1659.72 43.275 1659.37 40.975 1659.37 38.225C1659.37 33.625 1660.29 30.275 1662.14 28.175C1664.04 26.075 1666.87 25.025 1670.62 25.025C1674.72 25.025 1676.77 26.775 1676.77 30.275C1676.52 32.625 1674.74 33.95 1671.44 34.25C1670.09 34.25 1668.92 33.875 1667.92 33.125C1666.92 32.325 1666.42 31.375 1666.42 30.275C1665.17 31.025 1664.54 32.3 1664.54 34.1C1664.54 38.3 1667.17 40.4 1672.42 40.4C1675.27 40.4 1677.37 39.475 1678.72 37.625C1680.12 35.775 1680.82 33.1 1680.82 29.6C1680.12 23.45 1677.14 20.125 1671.89 19.625H1639.27V13.475H1670.62C1673.32 13.475 1675.62 14 1677.52 15.05C1679.47 16.1 1681.07 17.525 1682.32 19.325C1683.57 21.075 1684.47 23.1 1685.02 25.4C1685.62 27.7 1685.92 30.125 1685.92 32.675ZM1736.66 36.95C1736.66 39.25 1736.36 41.4 1735.76 43.4C1735.21 45.4 1734.39 47.15 1733.29 48.65C1732.24 50.1 1730.96 51.25 1729.46 52.1C1727.96 52.95 1726.29 53.375 1724.44 53.375C1723.59 53.375 1722.74 53.275 1721.89 53.075C1721.09 52.825 1720.36 52.45 1719.71 51.95C1719.11 51.45 1718.61 50.85 1718.21 50.15C1717.86 49.45 1717.69 48.6 1717.69 47.6C1717.69 46.35 1717.96 45.35 1718.51 44.6C1719.06 43.8 1719.74 43.1 1720.54 42.5C1721.39 41.9 1722.29 41.325 1723.24 40.775C1724.24 40.175 1725.14 39.475 1725.94 38.675C1726.79 37.825 1727.49 36.775 1728.04 35.525C1728.59 34.275 1728.86 32.65 1728.86 30.65C1728.86 29.1 1728.64 27.675 1728.19 26.375C1727.79 25.075 1727.09 23.95 1726.09 23C1725.09 22 1723.74 21.225 1722.04 20.675C1720.34 20.125 1718.21 19.85 1715.66 19.85C1712.96 19.9 1710.79 20.275 1709.14 20.975C1707.49 21.675 1706.19 22.55 1705.24 23.6C1704.34 24.65 1703.71 25.825 1703.36 27.125C1703.06 28.425 1702.91 29.725 1702.91 31.025C1702.91 32.675 1703.14 34.075 1703.59 35.225C1704.04 36.375 1704.59 37.375 1705.24 38.225C1705.89 39.025 1706.61 39.725 1707.41 40.325C1708.21 40.925 1708.94 41.55 1709.59 42.2C1710.24 42.85 1710.79 43.575 1711.24 44.375C1711.69 45.125 1711.91 46.05 1711.91 47.15C1711.91 47.9 1711.76 48.65 1711.46 49.4C1711.21 50.15 1710.84 50.825 1710.34 51.425C1709.84 51.975 1709.21 52.45 1708.46 52.85C1707.71 53.2 1706.86 53.375 1705.91 53.375C1703.86 53.375 1702.09 52.875 1700.59 51.875C1699.09 50.875 1697.84 49.575 1696.84 47.975C1695.89 46.375 1695.16 44.575 1694.66 42.575C1694.21 40.575 1693.99 38.575 1693.99 36.575C1693.99 34.925 1694.09 33.425 1694.29 32.075C1694.54 30.675 1694.94 29.35 1695.49 28.1C1696.04 26.85 1696.74 25.675 1697.59 24.575C1698.49 23.475 1699.59 22.375 1700.89 21.275C1699.69 20.525 1698.69 19.65 1697.89 18.65C1697.14 17.65 1696.76 16.6 1696.76 15.5C1696.81 13.8 1697.34 12.375 1698.34 11.225C1699.34 10.025 1700.59 9.075 1702.09 8.375C1703.64 7.675 1705.39 7.175 1707.34 6.875C1709.29 6.575 1711.29 6.425 1713.34 6.425C1715.89 6.425 1718.24 6.825 1720.39 7.625C1722.59 8.375 1724.49 9.45 1726.09 10.85C1727.69 12.2 1728.96 13.85 1729.91 15.8C1730.91 17.7 1731.46 19.8 1731.56 22.1C1732.31 23.25 1732.99 24.3 1733.59 25.25C1734.24 26.2 1734.79 27.225 1735.24 28.325C1735.69 29.425 1736.04 30.675 1736.29 32.075C1736.54 33.425 1736.66 35.05 1736.66 36.95ZM1724.96 17.45C1724.01 15.65 1722.59 14.275 1720.69 13.325C1718.79 12.375 1716.64 11.9 1714.24 11.9C1712.14 11.9 1710.31 12.25 1708.76 12.95C1707.26 13.65 1706.51 14.675 1706.51 16.025C1706.51 16.425 1706.54 16.75 1706.59 17C1706.69 17.2 1706.94 17.425 1707.34 17.675C1708.19 17.375 1708.96 17.15 1709.66 17C1710.36 16.8 1711.04 16.675 1711.69 16.625C1712.34 16.525 1713.01 16.475 1713.71 16.475C1714.41 16.425 1715.21 16.4 1716.11 16.4C1717.06 16.4 1717.89 16.4 1718.59 16.4C1719.34 16.4 1720.01 16.45 1720.61 16.55C1721.26 16.6 1721.91 16.7 1722.56 16.85C1723.26 17 1724.06 17.2 1724.96 17.45ZM1784.29 13.25C1783.79 17.7 1781.04 19.925 1776.04 19.925V20.075C1777.79 21.725 1779.21 23.8 1780.31 26.3C1781.41 28.8 1781.96 31.575 1781.96 34.625C1781.96 46.825 1775.36 52.95 1762.16 53C1751.16 52.35 1745.39 46.15 1744.84 34.4C1745.34 27 1747.81 22.125 1752.26 19.775H1745.21V13.625L1773.49 13.775C1777.09 13.175 1778.89 11.15 1778.89 7.7C1778.89 5.7 1778.39 3.475 1777.39 1.025H1779.26C1781.06 3.275 1782.34 5.4 1783.09 7.4C1783.89 9.4 1784.29 11.35 1784.29 13.25ZM1763.44 19.85C1761.69 19.85 1759.99 20.125 1758.34 20.675C1756.74 21.225 1755.31 21.975 1754.06 22.925C1752.86 23.875 1751.89 25 1751.14 26.3C1750.44 27.55 1750.09 28.875 1750.09 30.275C1750.09 31.725 1750.44 33.1 1751.14 34.4C1751.89 35.65 1752.86 36.75 1754.06 37.7C1755.31 38.65 1756.76 39.4 1758.41 39.95C1760.06 40.5 1761.79 40.775 1763.59 40.775C1765.34 40.775 1766.99 40.5 1768.54 39.95C1770.14 39.35 1771.51 38.575 1772.66 37.625C1773.86 36.675 1774.79 35.575 1775.44 34.325C1776.14 33.075 1776.49 31.775 1776.49 30.425C1776.49 28.925 1776.14 27.55 1775.44 26.3C1774.74 25 1773.79 23.9 1772.59 23C1771.39 22.05 1769.99 21.3 1768.39 20.75C1766.84 20.2 1765.19 19.9 1763.44 19.85ZM1808.58 34.85C1807.83 46.8 1802.81 52.775 1793.51 52.775C1787.61 52.775 1783.23 49.4 1780.38 42.65V36.725C1783.13 39.375 1786.91 40.7 1791.71 40.7C1793.66 40.7 1795.36 40.575 1796.81 40.325C1798.31 40.025 1799.56 39.525 1800.56 38.825C1801.61 38.125 1802.38 37.175 1802.88 35.975C1803.43 34.775 1803.76 33.275 1803.86 31.475C1803.86 29.425 1803.53 27.825 1802.88 26.675C1802.28 25.525 1801.48 24.625 1800.48 23.975C1799.53 23.325 1798.46 22.875 1797.26 22.625C1796.11 22.325 1795.01 22.025 1793.96 21.725C1792.91 21.375 1791.96 20.95 1791.11 20.45C1790.31 19.9 1789.78 19.075 1789.53 17.975C1789.53 16.575 1790.06 15.525 1791.11 14.825C1792.16 14.075 1793.81 13.65 1796.06 13.55C1804.41 14.25 1808.58 21.35 1808.58 34.85ZM1822.23 41.675C1823.73 41.675 1825.03 42.2 1826.13 43.25C1827.23 44.3 1827.78 45.6 1827.78 47.15C1827.78 48.6 1827.23 49.875 1826.13 50.975C1825.03 52.025 1823.73 52.55 1822.23 52.55C1820.78 52.55 1819.51 52.025 1818.41 50.975C1817.31 49.875 1816.76 48.6 1816.76 47.15C1816.76 45.6 1817.31 44.3 1818.41 43.25C1819.51 42.2 1820.78 41.675 1822.23 41.675Z" fill="black"/>
</svg>
