<svg width="1756" height="82" viewBox="0 0 1756 82" fill="none" xmlns="http://www.w3.org/2000/svg">
<path d="M32.15 53.625C30.95 53.625 29.8 53.35 28.7 52.8C27.65 52.2 26.675 51.425 25.775 50.475C24.925 49.475 24.175 48.325 23.525 47.025C22.925 45.725 22.475 44.325 22.175 42.825C21.875 44.325 21.375 45.75 20.675 47.1C20.025 48.4 19.225 49.55 18.275 50.55C17.325 51.5 16.25 52.25 15.05 52.8C13.9 53.35 12.675 53.625 11.375 53.625C9.875 53.625 8.45 53.3 7.1 52.65C5.8 51.95 4.65 51.05 3.65 49.95C2.7 48.8 1.925 47.475 1.325 45.975C0.775 44.425 0.5 42.8 0.5 41.1C0.5 39.65 0.7 38.325 1.1 37.125C1.5 35.875 2.025 34.8 2.675 33.9C3.375 33 4.2 32.3 5.15 31.8C6.1 31.3 7.125 31.05 8.225 31.05C9.925 31.05 11.425 31.625 12.725 32.775C14.025 33.875 14.675 35.275 14.675 36.975C14.675 38.275 13.575 39.375 11.375 40.275C11.575 39.875 11.675 39.175 11.675 38.175C11.675 37.575 11.325 37.075 10.625 36.675C9.925 36.275 9.05 36.075 8 36.075C6.6 36.075 5.425 36.4 4.475 37.05C3.525 37.7 3.05 38.475 3.05 39.375C3.05 40.825 3.85 42 5.45 42.9C7.1 43.75 9.575 44.175 12.875 44.175C15.425 44.175 17.375 43.55 18.725 42.3C20.125 41 21.275 39.225 22.175 36.975C22.975 39.225 24.175 41 25.775 42.3C27.375 43.55 28.975 44.175 30.575 44.175C33.025 44.175 35 43.375 36.5 41.775C38.05 40.175 38.825 37.95 38.825 35.1C38.825 27.9 33.475 23.75 22.775 22.65C22.175 22.65 21.5 22.675 20.75 22.725C20.05 22.725 19.325 22.725 18.575 22.725C16.825 22.725 15.325 22.35 14.075 21.6C12.825 20.8 12.2 19.775 12.2 18.525C12.2 17.425 12.7 16.475 13.7 15.675C14.7 14.825 15.85 14.4 17.15 14.4C19.5 14.55 21.85 14.9 24.2 15.45C26.55 15.95 28.775 16.775 30.875 17.925C32.975 19.025 34.9 20.475 36.65 22.275C38.4 24.075 39.85 26.325 41 29.025C41.65 30.775 42.15 32.45 42.5 34.05C42.85 35.6 43.025 37.125 43.025 38.625C43.025 40.725 42.725 42.7 42.125 44.55C41.575 46.35 40.8 47.925 39.8 49.275C38.85 50.625 37.7 51.7 36.35 52.5C35.05 53.25 33.65 53.625 32.15 53.625ZM61.3643 22.95C62.3643 24.7 63.7643 25.575 65.5643 25.575C67.3143 25.575 68.8893 24.575 70.2893 22.575C69.1893 21.775 67.7643 21.375 66.0143 21.375C65.4143 21.375 64.7393 21.5 63.9893 21.75C63.2393 22 62.3643 22.4 61.3643 22.95ZM73.3643 44.1C75.9643 44.1 78.3893 43.825 80.6393 43.275C82.9393 42.675 84.9143 41.875 86.5643 40.875C88.2143 39.875 89.5143 38.7 90.4643 37.35C91.4143 36 91.8893 34.575 91.8893 33.075C91.8893 28.225 89.0893 24.95 83.4893 23.25H76.6643V14.625H89.3393V23.1C91.1893 24.25 92.6393 25.85 93.6893 27.9C94.7893 29.9 95.3393 32.55 95.3393 35.85C95.3393 38.3 94.7643 40.6 93.6143 42.75C92.4643 44.9 90.8893 46.8 88.8893 48.45C86.9393 50.05 84.6143 51.325 81.9143 52.275C79.2143 53.175 76.3393 53.625 73.2893 53.625C70.3393 53.625 67.5643 53.05 64.9643 51.9C62.3643 50.75 60.0893 49.2 58.1393 47.25C56.2393 45.25 54.7393 42.9 53.6393 40.2C52.5393 37.5 51.9893 34.6 51.9893 31.5C51.9893 29.2 52.2893 27.025 52.8893 24.975C53.5393 22.925 54.4143 21.125 55.5143 19.575C56.6143 18.025 57.8893 16.8 59.3393 15.9C60.7893 15 62.3393 14.55 63.9893 14.55C65.1393 14.55 66.2143 14.8 67.2143 15.3C68.2643 15.75 69.1643 16.4 69.9143 17.25C70.6643 18.1 71.2643 19.1 71.7143 20.25C72.1643 21.4 72.3893 22.625 72.3893 23.925C72.3893 25.075 72.2143 26.175 71.8643 27.225C71.5143 28.225 71.0143 29.1 70.3643 29.85C69.7643 30.6 69.0393 31.2 68.1893 31.65C67.3893 32.1 66.5143 32.325 65.5643 32.325C64.7143 32.325 63.9393 32.1 63.2393 31.65C62.5393 31.15 61.9143 30.475 61.3643 29.625C60.8643 28.775 60.4643 27.8 60.1643 26.7C59.8643 25.55 59.7143 24.3 59.7143 22.95C58.1143 23.8 56.8643 25.075 55.9643 26.775C55.0643 28.475 54.6143 30.325 54.6143 32.325C54.6143 33.925 55.0893 35.45 56.0393 36.9C57.0393 38.3 58.3893 39.55 60.0893 40.65C61.7893 41.7 63.7643 42.55 66.0143 43.2C68.3143 43.8 70.7643 44.1 73.3643 44.1ZM80.2432 14.625H105.968C108.918 14.625 111.668 15.2 114.218 16.35C116.818 17.5 119.068 19.1 120.968 21.15C122.918 23.15 124.443 25.525 125.543 28.275C126.643 31.025 127.193 33.975 127.193 37.125C127.143 39.425 126.743 41.575 125.993 43.575C125.293 45.575 124.343 47.325 123.143 48.825C121.943 50.325 120.518 51.5 118.868 52.35C117.218 53.2 115.468 53.625 113.618 53.625C110.168 53.625 107.468 52.425 105.518 50.025C103.618 47.575 102.668 44.15 102.668 39.75C102.668 38.55 102.868 37.425 103.268 36.375C103.718 35.325 104.318 34.425 105.068 33.675C105.868 32.875 106.768 32.25 107.768 31.8C108.818 31.3 109.943 31.05 111.143 31.05C112.793 31.05 114.243 31.6 115.493 32.7C116.793 33.75 117.443 35.025 117.443 36.525C117.443 37.625 117.018 38.6 116.168 39.45C115.318 40.25 114.318 40.65 113.168 40.65C112.118 40.65 111.218 40.325 110.468 39.675C109.768 38.975 109.418 38.075 109.418 36.975C109.418 36.225 109.668 35.45 110.168 34.65C110.118 34.65 110.018 34.625 109.868 34.575C109.768 34.525 109.668 34.5 109.568 34.5C108.368 34.5 107.318 34.925 106.418 35.775C105.568 36.625 105.143 37.675 105.143 38.925C105.143 39.825 105.368 40.65 105.818 41.4C106.318 42.15 106.968 42.8 107.768 43.35C108.568 43.85 109.493 44.25 110.543 44.55C111.593 44.85 112.693 45 113.843 45C117.293 45 119.868 44.225 121.568 42.675C123.318 41.075 124.343 38.625 124.643 35.325C124.643 33.625 124.143 32.05 123.143 30.6C122.193 29.15 120.868 27.875 119.168 26.775C117.468 25.675 115.493 24.825 113.243 24.225C110.993 23.575 108.568 23.25 105.968 23.25H80.2432V14.625ZM111.262 67.725C111.262 66.675 111.437 65.675 111.787 64.725C112.137 63.825 112.612 63.025 113.212 62.325C113.812 61.625 114.512 61.075 115.312 60.675C116.112 60.275 116.962 60.075 117.862 60.075C119.262 60.075 120.637 60.725 121.987 62.025C123.287 63.375 124.287 65.05 124.987 67.05C125.687 65.05 126.737 63.375 128.137 62.025C129.537 60.725 130.937 60.075 132.337 60.075C133.237 60.075 134.087 60.25 134.887 60.6C135.687 61 136.387 61.525 136.987 62.175C137.587 62.825 138.062 63.55 138.412 64.35C138.762 65.2 138.937 66.1 138.937 67.05C138.937 68.1 138.837 69.125 138.637 70.125C138.437 71.175 138.137 72.1 137.737 72.9C137.337 73.75 136.862 74.425 136.312 74.925C135.762 75.425 135.137 75.675 134.437 75.675C133.937 75.675 133.587 75.475 133.387 75.075C133.237 74.725 133.162 74.4 133.162 74.1C133.162 73.85 133.362 73.6 133.762 73.35C134.162 73.1 134.587 72.825 135.037 72.525C135.487 72.225 135.912 71.85 136.312 71.4C136.712 71 136.912 70.475 136.912 69.825C136.912 68.575 136.462 67.55 135.562 66.75C134.712 66 133.637 65.625 132.337 65.625C130.887 65.625 129.487 66.125 128.137 67.125C126.737 68.125 125.687 69.5 124.987 71.25C124.237 69.55 123.237 68.175 121.987 67.125C120.687 66.125 119.312 65.625 117.862 65.625C116.562 65.625 115.462 66.05 114.562 66.9C113.662 67.75 113.212 68.775 113.212 69.975C113.212 70.425 113.412 70.825 113.812 71.175C114.212 71.525 114.637 71.875 115.087 72.225C115.537 72.575 115.962 72.9 116.362 73.2C116.762 73.55 116.962 73.925 116.962 74.325C116.962 74.725 116.837 75.05 116.587 75.3C116.287 75.55 115.962 75.675 115.612 75.675C114.912 75.675 114.312 75.375 113.812 74.775C113.262 74.225 112.812 73.525 112.462 72.675C112.062 71.875 111.762 71.025 111.562 70.125C111.362 69.225 111.262 68.425 111.262 67.725ZM139.733 14.55H172.433C174.083 14.55 175.508 13.975 176.708 12.825C177.908 11.625 178.508 10.2 178.508 8.55C178.508 7 177.483 5.275 175.433 3.375C179.733 5.025 182.083 8.375 182.483 13.425C182.133 19.925 178.633 23.175 171.983 23.175H170.333C177.633 25.825 181.583 31.175 182.183 39.225C182.183 41.175 181.908 43.025 181.358 44.775C180.858 46.525 180.133 48.05 179.183 49.35C178.283 50.65 177.208 51.7 175.958 52.5C174.708 53.25 173.383 53.625 171.983 53.625C169.383 53.625 167.108 52.725 165.158 50.925C163.208 49.075 161.833 46.575 161.033 43.425C160.233 46.475 158.808 48.95 156.758 50.85C154.758 52.7 152.458 53.625 149.858 53.625C148.508 53.625 147.208 53.25 145.958 52.5C144.758 51.7 143.683 50.65 142.733 49.35C141.833 48.05 141.108 46.525 140.558 44.775C140.008 43.025 139.733 41.175 139.733 39.225C140.233 31.525 144.183 26.175 151.583 23.175H139.733V14.55ZM144.008 36.225C144.158 41.225 146.458 43.925 150.908 44.325C156.058 44.325 159.433 41.775 161.033 36.675C161.733 39.225 162.933 41.15 164.633 42.45C166.383 43.7 168.308 44.325 170.408 44.325C175.108 43.675 177.458 40.975 177.458 36.225C177.458 34.375 177.033 32.65 176.183 31.05C175.333 29.4 174.158 28 172.658 26.85C171.158 25.7 169.408 24.8 167.408 24.15C165.408 23.45 163.283 23.1 161.033 23.1C159.033 23.1 157.058 23.375 155.108 23.925C153.208 24.475 151.458 25.3 149.858 26.4C148.308 27.5 147.008 28.875 145.958 30.525C144.908 32.175 144.258 34.075 144.008 36.225ZM226.391 13.5C226.241 16.35 225.516 18.575 224.216 20.175C222.916 21.775 220.916 22.7 218.216 22.95C220.916 24.6 222.891 26.625 224.141 29.025C225.391 31.375 226.016 34.125 226.016 37.275C226.016 39.525 225.566 41.65 224.666 43.65C223.766 45.6 222.516 47.325 220.916 48.825C219.366 50.275 217.541 51.45 215.441 52.35C213.391 53.2 211.191 53.625 208.841 53.625C206.441 53.625 204.166 53.175 202.016 52.275C199.916 51.375 198.091 50.175 196.541 48.675C194.991 47.125 193.766 45.35 192.866 43.35C191.966 41.35 191.516 39.225 191.516 36.975C191.516 33.925 192.216 31.275 193.616 29.025C195.016 26.775 196.916 24.85 199.316 23.25H191.516V14.625H216.491C217.291 14.625 218.041 14.475 218.741 14.175C219.491 13.825 220.141 13.375 220.691 12.825C221.241 12.275 221.666 11.65 221.966 10.95C222.316 10.2 222.491 9.425 222.491 8.625C222.491 7.025 221.466 5.325 219.416 3.525C223.766 5.225 226.091 8.55 226.391 13.5ZM196.616 34.05C196.616 35.45 196.941 36.775 197.591 38.025C198.241 39.225 199.116 40.3 200.216 41.25C201.316 42.15 202.616 42.875 204.116 43.425C205.616 43.925 207.216 44.175 208.916 44.175C210.616 44.175 212.191 43.925 213.641 43.425C215.141 42.875 216.441 42.15 217.541 41.25C218.641 40.3 219.516 39.225 220.166 38.025C220.816 36.775 221.141 35.45 221.141 34.05C221.141 32.65 220.816 31.3 220.166 30C219.516 28.65 218.641 27.475 217.541 26.475C216.441 25.475 215.141 24.675 213.641 24.075C212.191 23.425 210.616 23.1 208.916 23.1C207.216 23.1 205.616 23.4 204.116 24C202.616 24.6 201.316 25.4 200.216 26.4C199.116 27.4 198.241 28.575 197.591 29.925C196.941 31.225 196.616 32.6 196.616 34.05ZM223.313 36.675C224.363 37.675 225.513 38.625 226.763 39.525C227.963 40.375 229.188 41.125 230.438 41.775C231.638 42.425 232.838 42.95 234.038 43.35C235.238 43.7 236.363 43.875 237.413 43.875C239.713 43.875 241.613 43.175 243.113 41.775C244.663 40.375 245.438 38.675 245.438 36.675C245.438 35.025 245.288 33.4 244.988 31.8C244.688 30.2 244.538 28.575 244.538 26.925C244.538 25.225 244.938 23.625 245.738 22.125C246.538 20.575 247.613 19.25 248.963 18.15C250.363 17 251.988 16.1 253.838 15.45C255.688 14.8 257.663 14.475 259.763 14.475C262.463 14.475 264.988 15.05 267.338 16.2C269.688 17.3 271.738 18.825 273.488 20.775C275.238 22.675 276.613 24.925 277.613 27.525C278.663 30.125 279.188 32.9 279.188 35.85C279.188 38.3 278.838 40.6 278.138 42.75C277.438 44.9 276.488 46.8 275.288 48.45C274.088 50.05 272.663 51.325 271.013 52.275C269.413 53.175 267.713 53.625 265.913 53.625C264.463 53.625 263.088 53.3 261.788 52.65C260.488 52 259.338 51.125 258.338 50.025C257.388 48.875 256.613 47.55 256.013 46.05C255.463 44.55 255.188 42.95 255.188 41.25C255.188 39.8 255.438 38.475 255.938 37.275C256.488 36.075 257.213 35.05 258.113 34.2C259.063 33.3 260.138 32.625 261.338 32.175C262.538 31.675 263.813 31.425 265.163 31.425C266.863 31.425 268.288 32.05 269.438 33.3C270.588 34.5 271.163 35.95 271.163 37.65C271.163 39.2 270.638 40.475 269.588 41.475C268.588 42.425 267.313 42.9 265.763 42.9C264.563 42.9 263.538 42.5 262.688 41.7C261.838 40.85 261.413 39.775 261.413 38.475C261.413 37.675 261.588 37.075 261.938 36.675C262.288 36.275 262.713 36 263.213 35.85C262.813 35.65 262.313 35.55 261.713 35.55C261.213 35.55 260.738 35.7 260.288 36C259.838 36.25 259.438 36.575 259.088 36.975C258.738 37.325 258.463 37.725 258.263 38.175C258.063 38.625 257.963 39.025 257.963 39.375C257.963 40.375 258.138 41.3 258.488 42.15C258.888 43 259.413 43.75 260.063 44.4C260.713 45.05 261.463 45.575 262.313 45.975C263.163 46.325 264.088 46.5 265.088 46.5C266.638 46.5 268.113 46.225 269.513 45.675C270.913 45.075 272.113 44.3 273.113 43.35C274.163 42.35 274.988 41.225 275.588 39.975C276.188 38.675 276.488 37.3 276.488 35.85C276.488 31.45 275.188 28.225 272.588 26.175C269.988 24.125 265.963 23.1 260.513 23.1C258.863 23.1 257.288 23.325 255.788 23.775C254.288 24.225 252.963 24.9 251.813 25.8C250.713 26.65 249.813 27.7 249.113 28.95C248.463 30.2 248.138 31.6 248.138 33.15C248.138 35.05 248.263 36.85 248.513 38.55C248.813 40.25 248.963 42.025 248.963 43.875C248.963 45.225 248.688 46.5 248.138 47.7C247.638 48.85 246.938 49.875 246.038 50.775C245.138 51.625 244.088 52.325 242.888 52.875C241.738 53.375 240.513 53.625 239.213 53.625C237.713 53.625 236.188 53.325 234.638 52.725C233.138 52.125 231.713 51.3 230.363 50.25C229.013 49.15 227.788 47.85 226.688 46.35C225.538 44.8 224.588 43.1 223.838 41.25L223.313 36.675ZM317.565 26.475C317.565 24.825 317.84 23.275 318.39 21.825C318.99 20.375 319.765 19.125 320.715 18.075C321.715 16.975 322.89 16.125 324.24 15.525C325.59 14.925 327.04 14.625 328.59 14.625C329.84 14.625 331.015 14.9 332.115 15.45C333.215 16 334.215 16.775 335.115 17.775C336.015 18.725 336.79 19.875 337.44 21.225C338.09 22.575 338.565 24.05 338.865 25.65C339.165 24.05 339.64 22.575 340.29 21.225C340.94 19.875 341.715 18.725 342.615 17.775C343.515 16.775 344.49 16 345.54 15.45C346.64 14.9 347.79 14.625 348.99 14.625C350.49 14.625 351.915 15.05 353.265 15.9C354.615 16.75 355.79 17.9 356.79 19.35C357.84 20.8 358.64 22.5 359.19 24.45C359.79 26.4 360.09 28.475 360.09 30.675C360.09 34.875 358.94 38.875 356.64 42.675C359.34 44.675 361.29 46.85 362.49 49.2C363.69 51.5 364.29 53.875 364.29 56.325C364.29 56.975 364.04 57.475 363.54 57.825C363.04 58.175 362.415 58.35 361.665 58.35C361.265 58.35 360.89 58.15 360.54 57.75C360.24 57.35 360.09 56.825 360.09 56.175C360.09 53.475 359.665 51.125 358.815 49.125C358.015 47.125 356.84 45.525 355.29 44.325C354.54 45.775 353.615 47.075 352.515 48.225C351.415 49.375 350.215 50.35 348.915 51.15C347.615 51.95 346.24 52.575 344.79 53.025C343.34 53.425 341.915 53.625 340.515 53.625C338.865 53.625 337.315 53.35 335.865 52.8C334.415 52.25 333.14 51.525 332.04 50.625C330.99 49.675 330.14 48.6 329.49 47.4C328.89 46.15 328.59 44.825 328.59 43.425C328.59 42.175 328.89 40.975 329.49 39.825C330.14 38.675 330.99 37.675 332.04 36.825C333.14 35.975 334.415 35.3 335.865 34.8C337.315 34.3 338.865 34.05 340.515 34.05C342.915 34.05 345.315 34.575 347.715 35.625C350.115 36.625 352.54 38.1 354.99 40.05C356.69 38.05 357.54 35.475 357.54 32.325C357.54 30.925 357.315 29.675 356.865 28.575C356.415 27.425 355.79 26.45 354.99 25.65C354.24 24.85 353.34 24.25 352.29 23.85C351.24 23.4 350.115 23.175 348.915 23.175C347.865 23.175 346.84 23.375 345.84 23.775C344.84 24.125 343.89 24.625 342.99 25.275C342.14 25.875 341.365 26.575 340.665 27.375C339.965 28.175 339.365 29 338.865 29.85C338.265 29 337.565 28.175 336.765 27.375C336.015 26.575 335.19 25.875 334.29 25.275C333.39 24.625 332.415 24.125 331.365 23.775C330.365 23.375 329.34 23.175 328.29 23.175C326.19 23.175 324.44 23.675 323.04 24.675C321.69 25.675 321.015 27.225 321.015 29.325C321.315 30.625 321.74 31.65 322.29 32.4C322.89 33.1 323.865 33.65 325.215 34.05C326.365 34.65 326.94 35.525 326.94 36.675C326.94 37.125 326.665 37.525 326.115 37.875C325.615 38.225 325.04 38.4 324.39 38.4C323.64 38.4 322.84 38.15 321.99 37.65C321.19 37.1 320.465 36.325 319.815 35.325C319.165 34.275 318.615 33.025 318.165 31.575C317.765 30.075 317.565 28.375 317.565 26.475ZM332.04 40.35C332.04 41.4 332.765 42.3 334.215 43.05C335.665 43.75 337.515 44.1 339.765 44.1C342.215 44.1 344.39 43.825 346.29 43.275C348.24 42.675 349.99 41.95 351.54 41.1C349.54 39.75 347.54 38.8 345.54 38.25C343.59 37.7 341.565 37.425 339.465 37.425C337.365 37.425 335.59 37.725 334.14 38.325C332.74 38.875 332.04 39.55 332.04 40.35ZM408.178 13.5C408.028 16.35 407.303 18.575 406.003 20.175C404.703 21.775 402.703 22.7 400.003 22.95C402.703 24.6 404.678 26.625 405.928 29.025C407.178 31.375 407.803 34.125 407.803 37.275C407.803 39.525 407.353 41.65 406.453 43.65C405.553 45.6 404.303 47.325 402.703 48.825C401.153 50.275 399.328 51.45 397.228 52.35C395.178 53.2 392.978 53.625 390.628 53.625C388.228 53.625 385.953 53.175 383.803 52.275C381.703 51.375 379.878 50.175 378.328 48.675C376.778 47.125 375.553 45.35 374.653 43.35C373.753 41.35 373.303 39.225 373.303 36.975C373.303 33.925 374.003 31.275 375.403 29.025C376.803 26.775 378.703 24.85 381.103 23.25H373.303V14.625H398.278C399.078 14.625 399.828 14.475 400.528 14.175C401.278 13.825 401.928 13.375 402.478 12.825C403.028 12.275 403.453 11.65 403.753 10.95C404.103 10.2 404.278 9.425 404.278 8.625C404.278 7.025 403.253 5.325 401.203 3.525C405.553 5.225 407.878 8.55 408.178 13.5ZM378.403 34.05C378.403 35.45 378.728 36.775 379.378 38.025C380.028 39.225 380.903 40.3 382.003 41.25C383.103 42.15 384.403 42.875 385.903 43.425C387.403 43.925 389.003 44.175 390.703 44.175C392.403 44.175 393.978 43.925 395.428 43.425C396.928 42.875 398.228 42.15 399.328 41.25C400.428 40.3 401.303 39.225 401.953 38.025C402.603 36.775 402.928 35.45 402.928 34.05C402.928 32.65 402.603 31.3 401.953 30C401.303 28.65 400.428 27.475 399.328 26.475C398.228 25.475 396.928 24.675 395.428 24.075C393.978 23.425 392.403 23.1 390.703 23.1C389.003 23.1 387.403 23.4 385.903 24C384.403 24.6 383.103 25.4 382.003 26.4C380.903 27.4 380.028 28.575 379.378 29.925C378.728 31.225 378.403 32.6 378.403 34.05ZM405.55 37.2C406.3 38.05 407.25 38.85 408.4 39.6C409.5 40.35 410.675 41 411.925 41.55C413.175 42.1 414.425 42.525 415.675 42.825C416.975 43.125 418.175 43.275 419.275 43.275C420.925 43.275 422.475 43.025 423.925 42.525C425.375 41.975 426.65 41.25 427.75 40.35C428.85 39.45 429.725 38.4 430.375 37.2C431.025 35.95 431.35 34.6 431.35 33.15C431.35 32 430.975 30.875 430.225 29.775C429.525 28.675 428.55 27.675 427.3 26.775C426.05 25.875 424.575 25.125 422.875 24.525C421.175 23.925 419.325 23.55 417.325 23.4C416.075 23.3 414.975 22.875 414.025 22.125C413.125 21.375 412.675 20.375 412.675 19.125C412.675 17.825 413.225 16.75 414.325 15.9C415.475 15 416.85 14.55 418.45 14.55C420.55 14.55 422.5 15.1 424.3 16.2C426.15 17.25 427.775 18.7 429.175 20.55C430.575 22.35 431.675 24.5 432.475 27C433.275 29.45 433.675 32.1 433.675 34.95C433.675 37.5 433.35 39.925 432.7 42.225C432.05 44.475 431.15 46.45 430 48.15C428.85 49.8 427.5 51.125 425.95 52.125C424.45 53.125 422.85 53.625 421.15 53.625C419.8 53.625 418.35 53.35 416.8 52.8C415.25 52.2 413.75 51.375 412.3 50.325C410.85 49.275 409.525 48 408.325 46.5C407.125 45 406.2 43.3 405.55 41.4V37.2ZM503.756 53.625C502.556 53.625 501.406 53.35 500.306 52.8C499.256 52.2 498.281 51.425 497.381 50.475C496.531 49.475 495.781 48.325 495.131 47.025C494.531 45.725 494.081 44.325 493.781 42.825C493.481 44.325 492.981 45.75 492.281 47.1C491.631 48.4 490.831 49.55 489.881 50.55C488.931 51.5 487.856 52.25 486.656 52.8C485.506 53.35 484.281 53.625 482.981 53.625C481.481 53.625 480.056 53.3 478.706 52.65C477.406 51.95 476.256 51.05 475.256 49.95C474.306 48.8 473.531 47.475 472.931 45.975C472.381 44.425 472.106 42.8 472.106 41.1C472.106 39.65 472.306 38.325 472.706 37.125C473.106 35.875 473.631 34.8 474.281 33.9C474.981 33 475.806 32.3 476.756 31.8C477.706 31.3 478.731 31.05 479.831 31.05C481.531 31.05 483.031 31.625 484.331 32.775C485.631 33.875 486.281 35.275 486.281 36.975C486.281 38.275 485.181 39.375 482.981 40.275C483.181 39.875 483.281 39.175 483.281 38.175C483.281 37.575 482.931 37.075 482.231 36.675C481.531 36.275 480.656 36.075 479.606 36.075C478.206 36.075 477.031 36.4 476.081 37.05C475.131 37.7 474.656 38.475 474.656 39.375C474.656 40.825 475.456 42 477.056 42.9C478.706 43.75 481.181 44.175 484.481 44.175C487.031 44.175 488.981 43.55 490.331 42.3C491.731 41 492.881 39.225 493.781 36.975C494.581 39.225 495.781 41 497.381 42.3C498.981 43.55 500.581 44.175 502.181 44.175C504.631 44.175 506.606 43.375 508.106 41.775C509.656 40.175 510.431 37.95 510.431 35.1C510.431 27.9 505.081 23.75 494.381 22.65C493.781 22.65 493.106 22.675 492.356 22.725C491.656 22.725 490.931 22.725 490.181 22.725C488.431 22.725 486.931 22.35 485.681 21.6C484.431 20.8 483.806 19.775 483.806 18.525C483.806 17.425 484.306 16.475 485.306 15.675C486.306 14.825 487.456 14.4 488.756 14.4C491.106 14.55 493.456 14.9 495.806 15.45C498.156 15.95 500.381 16.775 502.481 17.925C504.581 19.025 506.506 20.475 508.256 22.275C510.006 24.075 511.456 26.325 512.606 29.025C513.256 30.775 513.756 32.45 514.106 34.05C514.456 35.6 514.631 37.125 514.631 38.625C514.631 40.725 514.331 42.7 513.731 44.55C513.181 46.35 512.406 47.925 511.406 49.275C510.456 50.625 509.306 51.7 507.956 52.5C506.656 53.25 505.256 53.625 503.756 53.625ZM526.671 33.45C526.671 35 526.971 36.425 527.571 37.725C528.221 38.975 529.071 40.075 530.121 41.025C531.221 41.925 532.471 42.65 533.871 43.2C535.321 43.7 536.846 43.95 538.446 43.95C540.046 43.95 541.546 43.675 542.946 43.125C544.396 42.575 545.646 41.825 546.696 40.875C547.746 39.925 548.571 38.8 549.171 37.5C549.771 36.2 550.071 34.8 550.071 33.3C550.071 31.85 549.746 30.5 549.096 29.25C548.496 28 547.646 26.925 546.546 26.025C545.496 25.075 544.246 24.35 542.796 23.85C541.396 23.3 539.921 23.025 538.371 23.025C536.771 23.025 535.246 23.3 533.796 23.85C532.396 24.4 531.171 25.15 530.121 26.1C529.071 27.05 528.221 28.175 527.571 29.475C526.971 30.725 526.671 32.05 526.671 33.45ZM523.596 33.975C523.596 31.275 523.996 28.75 524.796 26.4C525.596 24 526.671 21.925 528.021 20.175C529.371 18.425 530.946 17.05 532.746 16.05C534.596 15 536.546 14.475 538.596 14.475C540.596 14.475 542.496 15 544.296 16.05C546.096 17.05 547.671 18.425 549.021 20.175C550.371 21.925 551.421 24 552.171 26.4C552.971 28.75 553.371 31.275 553.371 33.975C553.371 36.725 552.971 39.3 552.171 41.7C551.421 44.05 550.371 46.125 549.021 47.925C547.671 49.675 546.096 51.075 544.296 52.125C542.496 53.125 540.571 53.625 538.521 53.625C536.471 53.625 534.521 53.125 532.671 52.125C530.871 51.075 529.296 49.675 527.946 47.925C526.596 46.125 525.521 44.05 524.721 41.7C523.971 39.3 523.596 36.725 523.596 33.975ZM576.291 31.875C576.291 32.675 576.766 33.325 577.716 33.825C578.716 34.275 579.966 34.5 581.466 34.5C582.716 34.5 583.891 34.075 584.991 33.225C586.141 32.375 587.141 31.2 587.991 29.7C585.341 28.85 583.491 28.425 582.441 28.425C580.691 28.425 579.216 28.75 578.016 29.4C576.866 30.05 576.291 30.875 576.291 31.875ZM588.366 27.6C588.366 26.6 588.041 25.75 587.391 25.05C586.791 24.3 585.991 23.65 584.991 23.1H562.341V14.55H589.266V23.1C590.416 24.1 591.291 26.175 591.891 29.325C593.791 29.975 595.291 31.2 596.391 33C597.491 34.75 598.041 36.825 598.041 39.225C598.041 41.225 597.566 43.1 596.616 44.85C595.716 46.6 594.466 48.125 592.866 49.425C591.316 50.725 589.466 51.75 587.316 52.5C585.216 53.25 582.966 53.625 580.566 53.625C578.066 53.625 575.691 53.3 573.441 52.65C571.241 51.95 569.316 51.025 567.666 49.875C566.016 48.675 564.716 47.275 563.766 45.675C562.816 44.075 562.341 42.375 562.341 40.575C562.341 38.425 562.941 36.675 564.141 35.325C565.491 41.125 570.766 44.025 579.966 44.025C588.816 43.825 593.341 41.225 593.541 36.225C593.541 34.175 592.866 32.725 591.516 31.875C591.316 32.975 590.891 34 590.241 34.95C589.591 35.9 588.791 36.725 587.841 37.425C586.891 38.125 585.791 38.675 584.541 39.075C583.291 39.475 581.966 39.675 580.566 39.675C579.366 39.675 578.241 39.525 577.191 39.225C576.191 38.925 575.291 38.525 574.491 38.025C573.691 37.475 573.066 36.825 572.616 36.075C572.166 35.325 571.941 34.5 571.941 33.6C571.941 32.55 572.241 31.6 572.841 30.75C573.441 29.9 574.241 29.175 575.241 28.575C576.241 27.975 577.416 27.525 578.766 27.225C580.166 26.875 581.616 26.7 583.116 26.7C584.366 26.7 585.416 26.775 586.266 26.925C587.116 27.025 587.816 27.25 588.366 27.6ZM583.051 14.625H608.776C611.726 14.625 614.476 15.2 617.026 16.35C619.626 17.5 621.876 19.1 623.776 21.15C625.726 23.15 627.251 25.525 628.351 28.275C629.451 31.025 630.001 33.975 630.001 37.125C629.951 39.425 629.551 41.575 628.801 43.575C628.101 45.575 627.151 47.325 625.951 48.825C624.751 50.325 623.326 51.5 621.676 52.35C620.026 53.2 618.276 53.625 616.426 53.625C612.976 53.625 610.276 52.425 608.326 50.025C606.426 47.575 605.476 44.15 605.476 39.75C605.476 38.55 605.676 37.425 606.076 36.375C606.526 35.325 607.126 34.425 607.876 33.675C608.676 32.875 609.576 32.25 610.576 31.8C611.626 31.3 612.751 31.05 613.951 31.05C615.601 31.05 617.051 31.6 618.301 32.7C619.601 33.75 620.251 35.025 620.251 36.525C620.251 37.625 619.826 38.6 618.976 39.45C618.126 40.25 617.126 40.65 615.976 40.65C614.926 40.65 614.026 40.325 613.276 39.675C612.576 38.975 612.226 38.075 612.226 36.975C612.226 36.225 612.476 35.45 612.976 34.65C612.926 34.65 612.826 34.625 612.676 34.575C612.576 34.525 612.476 34.5 612.376 34.5C611.176 34.5 610.126 34.925 609.226 35.775C608.376 36.625 607.951 37.675 607.951 38.925C607.951 39.825 608.176 40.65 608.626 41.4C609.126 42.15 609.776 42.8 610.576 43.35C611.376 43.85 612.301 44.25 613.351 44.55C614.401 44.85 615.501 45 616.651 45C620.101 45 622.676 44.225 624.376 42.675C626.126 41.075 627.151 38.625 627.451 35.325C627.451 33.625 626.951 32.05 625.951 30.6C625.001 29.15 623.676 27.875 621.976 26.775C620.276 25.675 618.301 24.825 616.051 24.225C613.801 23.575 611.376 23.25 608.776 23.25H583.051V14.625ZM638.22 14.55H670.92C672.57 14.55 673.995 13.975 675.195 12.825C676.395 11.625 676.995 10.2 676.995 8.55C676.995 7 675.97 5.275 673.92 3.375C678.22 5.025 680.57 8.375 680.97 13.425C680.62 19.925 677.12 23.175 670.47 23.175H668.82C676.12 25.825 680.07 31.175 680.67 39.225C680.67 41.175 680.395 43.025 679.845 44.775C679.345 46.525 678.62 48.05 677.67 49.35C676.77 50.65 675.695 51.7 674.445 52.5C673.195 53.25 671.87 53.625 670.47 53.625C667.87 53.625 665.595 52.725 663.645 50.925C661.695 49.075 660.32 46.575 659.52 43.425C658.72 46.475 657.295 48.95 655.245 50.85C653.245 52.7 650.945 53.625 648.345 53.625C646.995 53.625 645.695 53.25 644.445 52.5C643.245 51.7 642.17 50.65 641.22 49.35C640.32 48.05 639.595 46.525 639.045 44.775C638.495 43.025 638.22 41.175 638.22 39.225C638.72 31.525 642.67 26.175 650.07 23.175H638.22V14.55ZM642.495 36.225C642.645 41.225 644.945 43.925 649.395 44.325C654.545 44.325 657.92 41.775 659.52 36.675C660.22 39.225 661.42 41.15 663.12 42.45C664.87 43.7 666.795 44.325 668.895 44.325C673.595 43.675 675.945 40.975 675.945 36.225C675.945 34.375 675.52 32.65 674.67 31.05C673.82 29.4 672.645 28 671.145 26.85C669.645 25.7 667.895 24.8 665.895 24.15C663.895 23.45 661.77 23.1 659.52 23.1C657.52 23.1 655.545 23.375 653.595 23.925C651.695 24.475 649.945 25.3 648.345 26.4C646.795 27.5 645.495 28.875 644.445 30.525C643.395 32.175 642.745 34.075 642.495 36.225ZM724.877 13.5C724.727 16.35 724.002 18.575 722.702 20.175C721.402 21.775 719.402 22.7 716.702 22.95C719.402 24.6 721.377 26.625 722.627 29.025C723.877 31.375 724.502 34.125 724.502 37.275C724.502 39.525 724.052 41.65 723.152 43.65C722.252 45.6 721.002 47.325 719.402 48.825C717.852 50.275 716.027 51.45 713.927 52.35C711.877 53.2 709.677 53.625 707.327 53.625C704.927 53.625 702.652 53.175 700.502 52.275C698.402 51.375 696.577 50.175 695.027 48.675C693.477 47.125 692.252 45.35 691.352 43.35C690.452 41.35 690.002 39.225 690.002 36.975C690.002 33.925 690.702 31.275 692.102 29.025C693.502 26.775 695.402 24.85 697.802 23.25H690.002V14.625H714.977C715.777 14.625 716.527 14.475 717.227 14.175C717.977 13.825 718.627 13.375 719.177 12.825C719.727 12.275 720.152 11.65 720.452 10.95C720.802 10.2 720.977 9.425 720.977 8.625C720.977 7.025 719.952 5.325 717.902 3.525C722.252 5.225 724.577 8.55 724.877 13.5ZM695.102 34.05C695.102 35.45 695.427 36.775 696.077 38.025C696.727 39.225 697.602 40.3 698.702 41.25C699.802 42.15 701.102 42.875 702.602 43.425C704.102 43.925 705.702 44.175 707.402 44.175C709.102 44.175 710.677 43.925 712.127 43.425C713.627 42.875 714.927 42.15 716.027 41.25C717.127 40.3 718.002 39.225 718.652 38.025C719.302 36.775 719.627 35.45 719.627 34.05C719.627 32.65 719.302 31.3 718.652 30C718.002 28.65 717.127 27.475 716.027 26.475C714.927 25.475 713.627 24.675 712.127 24.075C710.677 23.425 709.102 23.1 707.402 23.1C705.702 23.1 704.102 23.4 702.602 24C701.102 24.6 699.802 25.4 698.702 26.4C697.602 27.4 696.727 28.575 696.077 29.925C695.427 31.225 695.102 32.6 695.102 34.05ZM722.249 37.2C722.999 38.05 723.949 38.85 725.099 39.6C726.199 40.35 727.374 41 728.624 41.55C729.874 42.1 731.124 42.525 732.374 42.825C733.674 43.125 734.874 43.275 735.974 43.275C737.624 43.275 739.174 43.025 740.624 42.525C742.074 41.975 743.349 41.25 744.449 40.35C745.549 39.45 746.424 38.4 747.074 37.2C747.724 35.95 748.049 34.6 748.049 33.15C748.049 32 747.674 30.875 746.924 29.775C746.224 28.675 745.249 27.675 743.999 26.775C742.749 25.875 741.274 25.125 739.574 24.525C737.874 23.925 736.024 23.55 734.024 23.4C732.774 23.3 731.674 22.875 730.724 22.125C729.824 21.375 729.374 20.375 729.374 19.125C729.374 17.825 729.924 16.75 731.024 15.9C732.174 15 733.549 14.55 735.149 14.55C737.249 14.55 739.199 15.1 740.999 16.2C742.849 17.25 744.474 18.7 745.874 20.55C747.274 22.35 748.374 24.5 749.174 27C749.974 29.45 750.374 32.1 750.374 34.95C750.374 37.5 750.049 39.925 749.399 42.225C748.749 44.475 747.849 46.45 746.699 48.15C745.549 49.8 744.199 51.125 742.649 52.125C741.149 53.125 739.549 53.625 737.849 53.625C736.499 53.625 735.049 53.35 733.499 52.8C731.949 52.2 730.449 51.375 728.999 50.325C727.549 49.275 726.224 48 725.024 46.5C723.824 45 722.899 43.3 722.249 41.4V37.2ZM788.806 26.475C788.806 24.825 789.081 23.275 789.631 21.825C790.231 20.375 791.006 19.125 791.956 18.075C792.956 16.975 794.131 16.125 795.481 15.525C796.831 14.925 798.281 14.625 799.831 14.625C801.081 14.625 802.256 14.9 803.356 15.45C804.456 16 805.456 16.775 806.356 17.775C807.256 18.725 808.031 19.875 808.681 21.225C809.331 22.575 809.806 24.05 810.106 25.65C810.406 24.05 810.881 22.575 811.531 21.225C812.181 19.875 812.956 18.725 813.856 17.775C814.756 16.775 815.731 16 816.781 15.45C817.881 14.9 819.031 14.625 820.231 14.625C821.731 14.625 823.156 15.05 824.506 15.9C825.856 16.75 827.031 17.9 828.031 19.35C829.081 20.8 829.881 22.5 830.431 24.45C831.031 26.4 831.331 28.475 831.331 30.675C831.331 34.875 830.181 38.875 827.881 42.675C830.581 44.675 832.531 46.85 833.731 49.2C834.931 51.5 835.531 53.875 835.531 56.325C835.531 56.975 835.281 57.475 834.781 57.825C834.281 58.175 833.656 58.35 832.906 58.35C832.506 58.35 832.131 58.15 831.781 57.75C831.481 57.35 831.331 56.825 831.331 56.175C831.331 53.475 830.906 51.125 830.056 49.125C829.256 47.125 828.081 45.525 826.531 44.325C825.781 45.775 824.856 47.075 823.756 48.225C822.656 49.375 821.456 50.35 820.156 51.15C818.856 51.95 817.481 52.575 816.031 53.025C814.581 53.425 813.156 53.625 811.756 53.625C810.106 53.625 808.556 53.35 807.106 52.8C805.656 52.25 804.381 51.525 803.281 50.625C802.231 49.675 801.381 48.6 800.731 47.4C800.131 46.15 799.831 44.825 799.831 43.425C799.831 42.175 800.131 40.975 800.731 39.825C801.381 38.675 802.231 37.675 803.281 36.825C804.381 35.975 805.656 35.3 807.106 34.8C808.556 34.3 810.106 34.05 811.756 34.05C814.156 34.05 816.556 34.575 818.956 35.625C821.356 36.625 823.781 38.1 826.231 40.05C827.931 38.05 828.781 35.475 828.781 32.325C828.781 30.925 828.556 29.675 828.106 28.575C827.656 27.425 827.031 26.45 826.231 25.65C825.481 24.85 824.581 24.25 823.531 23.85C822.481 23.4 821.356 23.175 820.156 23.175C819.106 23.175 818.081 23.375 817.081 23.775C816.081 24.125 815.131 24.625 814.231 25.275C813.381 25.875 812.606 26.575 811.906 27.375C811.206 28.175 810.606 29 810.106 29.85C809.506 29 808.806 28.175 808.006 27.375C807.256 26.575 806.431 25.875 805.531 25.275C804.631 24.625 803.656 24.125 802.606 23.775C801.606 23.375 800.581 23.175 799.531 23.175C797.431 23.175 795.681 23.675 794.281 24.675C792.931 25.675 792.256 27.225 792.256 29.325C792.556 30.625 792.981 31.65 793.531 32.4C794.131 33.1 795.106 33.65 796.456 34.05C797.606 34.65 798.181 35.525 798.181 36.675C798.181 37.125 797.906 37.525 797.356 37.875C796.856 38.225 796.281 38.4 795.631 38.4C794.881 38.4 794.081 38.15 793.231 37.65C792.431 37.1 791.706 36.325 791.056 35.325C790.406 34.275 789.856 33.025 789.406 31.575C789.006 30.075 788.806 28.375 788.806 26.475ZM803.281 40.35C803.281 41.4 804.006 42.3 805.456 43.05C806.906 43.75 808.756 44.1 811.006 44.1C813.456 44.1 815.631 43.825 817.531 43.275C819.481 42.675 821.231 41.95 822.781 41.1C820.781 39.75 818.781 38.8 816.781 38.25C814.831 37.7 812.806 37.425 810.706 37.425C808.606 37.425 806.831 37.725 805.381 38.325C803.981 38.875 803.281 39.55 803.281 40.35ZM879.418 13.5C879.268 16.35 878.543 18.575 877.243 20.175C875.943 21.775 873.943 22.7 871.243 22.95C873.943 24.6 875.918 26.625 877.168 29.025C878.418 31.375 879.043 34.125 879.043 37.275C879.043 39.525 878.593 41.65 877.693 43.65C876.793 45.6 875.543 47.325 873.943 48.825C872.393 50.275 870.568 51.45 868.468 52.35C866.418 53.2 864.218 53.625 861.868 53.625C859.468 53.625 857.193 53.175 855.043 52.275C852.943 51.375 851.118 50.175 849.568 48.675C848.018 47.125 846.793 45.35 845.893 43.35C844.993 41.35 844.543 39.225 844.543 36.975C844.543 33.925 845.243 31.275 846.643 29.025C848.043 26.775 849.943 24.85 852.343 23.25H844.543V14.625H869.518C870.318 14.625 871.068 14.475 871.768 14.175C872.518 13.825 873.168 13.375 873.718 12.825C874.268 12.275 874.693 11.65 874.993 10.95C875.343 10.2 875.518 9.425 875.518 8.625C875.518 7.025 874.493 5.325 872.443 3.525C876.793 5.225 879.118 8.55 879.418 13.5ZM849.643 34.05C849.643 35.45 849.968 36.775 850.618 38.025C851.268 39.225 852.143 40.3 853.243 41.25C854.343 42.15 855.643 42.875 857.143 43.425C858.643 43.925 860.243 44.175 861.943 44.175C863.643 44.175 865.218 43.925 866.668 43.425C868.168 42.875 869.468 42.15 870.568 41.25C871.668 40.3 872.543 39.225 873.193 38.025C873.843 36.775 874.168 35.45 874.168 34.05C874.168 32.65 873.843 31.3 873.193 30C872.543 28.65 871.668 27.475 870.568 26.475C869.468 25.475 868.168 24.675 866.668 24.075C865.218 23.425 863.643 23.1 861.943 23.1C860.243 23.1 858.643 23.4 857.143 24C855.643 24.6 854.343 25.4 853.243 26.4C852.143 27.4 851.268 28.575 850.618 29.925C849.968 31.225 849.643 32.6 849.643 34.05ZM876.79 37.2C877.54 38.05 878.49 38.85 879.64 39.6C880.74 40.35 881.915 41 883.165 41.55C884.415 42.1 885.665 42.525 886.915 42.825C888.215 43.125 889.415 43.275 890.515 43.275C892.165 43.275 893.715 43.025 895.165 42.525C896.615 41.975 897.89 41.25 898.99 40.35C900.09 39.45 900.965 38.4 901.615 37.2C902.265 35.95 902.59 34.6 902.59 33.15C902.59 32 902.215 30.875 901.465 29.775C900.765 28.675 899.79 27.675 898.54 26.775C897.29 25.875 895.815 25.125 894.115 24.525C892.415 23.925 890.565 23.55 888.565 23.4C887.315 23.3 886.215 22.875 885.265 22.125C884.365 21.375 883.915 20.375 883.915 19.125C883.915 17.825 884.465 16.75 885.565 15.9C886.715 15 888.09 14.55 889.69 14.55C891.79 14.55 893.74 15.1 895.54 16.2C897.39 17.25 899.015 18.7 900.415 20.55C901.815 22.35 902.915 24.5 903.715 27C904.515 29.45 904.915 32.1 904.915 34.95C904.915 37.5 904.59 39.925 903.94 42.225C903.29 44.475 902.39 46.45 901.24 48.15C900.09 49.8 898.74 51.125 897.19 52.125C895.69 53.125 894.09 53.625 892.39 53.625C891.04 53.625 889.59 53.35 888.04 52.8C886.49 52.2 884.99 51.375 883.54 50.325C882.09 49.275 880.765 48 879.565 46.5C878.365 45 877.44 43.3 876.79 41.4V37.2ZM974.997 53.625C973.797 53.625 972.647 53.35 971.547 52.8C970.497 52.2 969.522 51.425 968.622 50.475C967.772 49.475 967.022 48.325 966.372 47.025C965.772 45.725 965.322 44.325 965.022 42.825C964.722 44.325 964.222 45.75 963.522 47.1C962.872 48.4 962.072 49.55 961.122 50.55C960.172 51.5 959.097 52.25 957.897 52.8C956.747 53.35 955.522 53.625 954.222 53.625C952.722 53.625 951.297 53.3 949.947 52.65C948.647 51.95 947.497 51.05 946.497 49.95C945.547 48.8 944.772 47.475 944.172 45.975C943.622 44.425 943.347 42.8 943.347 41.1C943.347 39.65 943.547 38.325 943.947 37.125C944.347 35.875 944.872 34.8 945.522 33.9C946.222 33 947.047 32.3 947.997 31.8C948.947 31.3 949.972 31.05 951.072 31.05C952.772 31.05 954.272 31.625 955.572 32.775C956.872 33.875 957.522 35.275 957.522 36.975C957.522 38.275 956.422 39.375 954.222 40.275C954.422 39.875 954.522 39.175 954.522 38.175C954.522 37.575 954.172 37.075 953.472 36.675C952.772 36.275 951.897 36.075 950.847 36.075C949.447 36.075 948.272 36.4 947.322 37.05C946.372 37.7 945.897 38.475 945.897 39.375C945.897 40.825 946.697 42 948.297 42.9C949.947 43.75 952.422 44.175 955.722 44.175C958.272 44.175 960.222 43.55 961.572 42.3C962.972 41 964.122 39.225 965.022 36.975C965.822 39.225 967.022 41 968.622 42.3C970.222 43.55 971.822 44.175 973.422 44.175C975.872 44.175 977.847 43.375 979.347 41.775C980.897 40.175 981.672 37.95 981.672 35.1C981.672 27.9 976.322 23.75 965.622 22.65C965.022 22.65 964.347 22.675 963.597 22.725C962.897 22.725 962.172 22.725 961.422 22.725C959.672 22.725 958.172 22.35 956.922 21.6C955.672 20.8 955.047 19.775 955.047 18.525C955.047 17.425 955.547 16.475 956.547 15.675C957.547 14.825 958.697 14.4 959.997 14.4C962.347 14.55 964.697 14.9 967.047 15.45C969.397 15.95 971.622 16.775 973.722 17.925C975.822 19.025 977.747 20.475 979.497 22.275C981.247 24.075 982.697 26.325 983.847 29.025C984.497 30.775 984.997 32.45 985.347 34.05C985.697 35.6 985.872 37.125 985.872 38.625C985.872 40.725 985.572 42.7 984.972 44.55C984.422 46.35 983.647 47.925 982.647 49.275C981.697 50.625 980.547 51.7 979.197 52.5C977.897 53.25 976.497 53.625 974.997 53.625ZM997.911 33.45C997.911 35 998.211 36.425 998.811 37.725C999.461 38.975 1000.31 40.075 1001.36 41.025C1002.46 41.925 1003.71 42.65 1005.11 43.2C1006.56 43.7 1008.09 43.95 1009.69 43.95C1011.29 43.95 1012.79 43.675 1014.19 43.125C1015.64 42.575 1016.89 41.825 1017.94 40.875C1018.99 39.925 1019.81 38.8 1020.41 37.5C1021.01 36.2 1021.31 34.8 1021.31 33.3C1021.31 31.85 1020.99 30.5 1020.34 29.25C1019.74 28 1018.89 26.925 1017.79 26.025C1016.74 25.075 1015.49 24.35 1014.04 23.85C1012.64 23.3 1011.16 23.025 1009.61 23.025C1008.01 23.025 1006.49 23.3 1005.04 23.85C1003.64 24.4 1002.41 25.15 1001.36 26.1C1000.31 27.05 999.461 28.175 998.811 29.475C998.211 30.725 997.911 32.05 997.911 33.45ZM994.836 33.975C994.836 31.275 995.236 28.75 996.036 26.4C996.836 24 997.911 21.925 999.261 20.175C1000.61 18.425 1002.19 17.05 1003.99 16.05C1005.84 15 1007.79 14.475 1009.84 14.475C1011.84 14.475 1013.74 15 1015.54 16.05C1017.34 17.05 1018.91 18.425 1020.26 20.175C1021.61 21.925 1022.66 24 1023.41 26.4C1024.21 28.75 1024.61 31.275 1024.61 33.975C1024.61 36.725 1024.21 39.3 1023.41 41.7C1022.66 44.05 1021.61 46.125 1020.26 47.925C1018.91 49.675 1017.34 51.075 1015.54 52.125C1013.74 53.125 1011.81 53.625 1009.76 53.625C1007.71 53.625 1005.76 53.125 1003.91 52.125C1002.11 51.075 1000.54 49.675 999.186 47.925C997.836 46.125 996.761 44.05 995.961 41.7C995.211 39.3 994.836 36.725 994.836 33.975ZM1038.23 34.8C1038.23 37.7 1038.76 39.925 1039.81 41.475C1040.86 43.025 1042.58 43.875 1044.98 44.025C1050.28 44.025 1053.61 41.475 1054.96 36.375C1055.66 38.925 1056.86 40.85 1058.56 42.15C1060.26 43.4 1062.23 44.025 1064.48 44.025C1069.13 43.375 1071.46 40.7 1071.46 36C1071.46 34.05 1071.03 32.3 1070.18 30.75C1069.33 29.15 1068.16 27.8 1066.66 26.7C1065.21 25.55 1063.46 24.675 1061.41 24.075C1059.41 23.425 1057.26 23.075 1054.96 23.025C1052.76 23.125 1050.66 23.5 1048.66 24.15C1046.71 24.75 1044.98 25.575 1043.48 26.625C1041.98 27.675 1040.76 28.9 1039.81 30.3C1038.91 31.65 1038.38 33.15 1038.23 34.8ZM1033.58 14.55H1066.51V23.1H1064.41C1071.66 25.65 1075.61 30.975 1076.26 39.075C1076.26 41.075 1075.98 42.95 1075.43 44.7C1074.88 46.45 1074.13 48 1073.18 49.35C1072.28 50.65 1071.21 51.675 1069.96 52.425C1068.76 53.175 1067.46 53.55 1066.06 53.55C1063.51 53.55 1061.23 52.625 1059.23 50.775C1057.23 48.925 1055.81 46.425 1054.96 43.275C1054.11 46.425 1052.68 48.925 1050.68 50.775C1048.68 52.625 1046.41 53.55 1043.86 53.55C1042.41 53.55 1041.06 53.175 1039.81 52.425C1038.61 51.675 1037.53 50.65 1036.58 49.35C1035.63 48 1034.88 46.45 1034.33 44.7C1033.83 42.95 1033.58 41.075 1033.58 39.075C1034.18 31.325 1038.18 26 1045.58 23.1H1033.58V14.55ZM1061.25 14.625H1067.92C1069.57 14.625 1070.95 14.125 1072.05 13.125C1073.1 12.075 1073.62 10.7 1073.62 9C1073.62 8.3 1073.47 7.625 1073.17 6.975C1072.82 6.275 1072.4 5.675 1071.9 5.175C1071.35 4.625 1070.72 4.2 1070.02 3.9C1069.32 3.6 1068.62 3.45 1067.92 3.45C1069.47 4.25 1070.25 5.45 1070.25 7.05C1070.25 8.35 1069.85 9.325 1069.05 9.975C1068.25 10.575 1066.97 10.875 1065.22 10.875C1062.17 10.875 1060.65 9.35 1060.65 6.3C1060.65 2.75 1063.07 0.974995 1067.92 0.974995C1070.92 0.974995 1073.32 1.775 1075.12 3.375C1076.87 4.975 1077.75 7.425 1077.75 10.725C1077.75 14.975 1076.77 18.1 1074.82 20.1C1072.87 22.1 1069.77 23.1 1065.52 23.1H1061.25V14.625ZM1089.17 33.45C1089.17 35 1089.47 36.425 1090.07 37.725C1090.72 38.975 1091.57 40.075 1092.62 41.025C1093.72 41.925 1094.97 42.65 1096.37 43.2C1097.82 43.7 1099.35 43.95 1100.95 43.95C1102.55 43.95 1104.05 43.675 1105.45 43.125C1106.9 42.575 1108.15 41.825 1109.2 40.875C1110.25 39.925 1111.07 38.8 1111.67 37.5C1112.27 36.2 1112.57 34.8 1112.57 33.3C1112.57 31.85 1112.25 30.5 1111.6 29.25C1111 28 1110.15 26.925 1109.05 26.025C1108 25.075 1106.75 24.35 1105.3 23.85C1103.9 23.3 1102.42 23.025 1100.87 23.025C1099.27 23.025 1097.75 23.3 1096.3 23.85C1094.9 24.4 1093.67 25.15 1092.62 26.1C1091.57 27.05 1090.72 28.175 1090.07 29.475C1089.47 30.725 1089.17 32.05 1089.17 33.45ZM1086.1 33.975C1086.1 31.275 1086.5 28.75 1087.3 26.4C1088.1 24 1089.17 21.925 1090.52 20.175C1091.87 18.425 1093.45 17.05 1095.25 16.05C1097.1 15 1099.05 14.475 1101.1 14.475C1103.1 14.475 1105 15 1106.8 16.05C1108.6 17.05 1110.17 18.425 1111.52 20.175C1112.87 21.925 1113.92 24 1114.67 26.4C1115.47 28.75 1115.87 31.275 1115.87 33.975C1115.87 36.725 1115.47 39.3 1114.67 41.7C1113.92 44.05 1112.87 46.125 1111.52 47.925C1110.17 49.675 1108.6 51.075 1106.8 52.125C1105 53.125 1103.07 53.625 1101.02 53.625C1098.97 53.625 1097.02 53.125 1095.17 52.125C1093.37 51.075 1091.8 49.675 1090.45 47.925C1089.1 46.125 1088.02 44.05 1087.22 41.7C1086.47 39.3 1086.1 36.725 1086.1 33.975ZM1130.17 35.325C1130.17 36.575 1130.34 37.75 1130.69 38.85C1131.09 39.9 1131.62 40.825 1132.27 41.625C1132.92 42.425 1133.67 43.075 1134.52 43.575C1135.37 44.025 1136.27 44.25 1137.22 44.25C1139.32 44.25 1141.24 43.55 1142.99 42.15C1144.74 40.7 1146.07 38.7 1146.97 36.15C1147.82 38.7 1149.14 40.7 1150.94 42.15C1152.74 43.55 1154.64 44.25 1156.64 44.25C1158.74 44.25 1160.44 43.4 1161.74 41.7C1163.04 40 1163.69 37.875 1163.69 35.325C1163.69 33.125 1163.24 31.05 1162.34 29.1C1161.49 27.15 1160.32 25.45 1158.82 24C1157.32 22.5 1155.54 21.325 1153.49 20.475C1151.44 19.625 1149.27 19.2 1146.97 19.2C1144.62 19.2 1142.42 19.625 1140.37 20.475C1138.37 21.325 1136.59 22.5 1135.04 24C1133.54 25.45 1132.34 27.15 1131.44 29.1C1130.59 31.05 1130.17 33.125 1130.17 35.325ZM1137.22 14.7C1137.22 15.55 1137.54 16.225 1138.19 16.725C1138.89 17.175 1139.77 17.4 1140.82 17.4L1146.97 16.95C1150.62 17 1154.02 18 1157.17 19.95C1160.37 21.9 1163.02 24.6 1165.12 28.05C1164.47 25.6 1163.44 23.35 1162.04 21.3C1160.69 19.2 1159.09 17.425 1157.24 15.975C1155.44 14.475 1153.42 13.325 1151.17 12.525C1148.97 11.675 1146.69 11.25 1144.34 11.25C1142.39 11.25 1140.72 11.6 1139.32 12.3C1137.92 12.95 1137.22 13.75 1137.22 14.7ZM1124.84 38.55C1124.84 34.95 1125.89 31.5 1127.99 28.2C1130.09 24.9 1133.04 22.2 1136.84 20.1C1134.14 20.1 1131.92 19.6 1130.17 18.6C1128.42 17.55 1127.54 16.25 1127.54 14.7C1127.54 13.5 1127.92 12.375 1128.67 11.325C1129.47 10.275 1130.54 9.35 1131.89 8.55C1133.24 7.75 1134.82 7.125 1136.62 6.675C1138.47 6.175 1140.44 5.925 1142.54 5.925C1146.19 5.925 1149.62 6.775 1152.82 8.475C1156.07 10.175 1158.89 12.525 1161.29 15.525C1163.69 18.475 1165.57 21.925 1166.92 25.875C1168.32 29.825 1169.02 34.05 1169.02 38.55C1169.02 40.6 1168.74 42.55 1168.19 44.4C1167.64 46.2 1166.87 47.8 1165.87 49.2C1164.92 50.55 1163.79 51.625 1162.49 52.425C1161.24 53.225 1159.92 53.625 1158.52 53.625C1156.12 53.625 1153.87 52.675 1151.77 50.775C1149.72 48.825 1148.12 46.2 1146.97 42.9C1145.77 46.2 1144.12 48.825 1142.02 50.775C1139.97 52.675 1137.82 53.625 1135.57 53.625C1134.12 53.625 1132.74 53.225 1131.44 52.425C1130.14 51.625 1128.99 50.55 1127.99 49.2C1127.04 47.8 1126.27 46.2 1125.67 44.4C1125.12 42.55 1124.84 40.6 1124.84 38.55ZM1213.04 13.5C1212.84 16.8 1211.89 19.225 1210.19 20.775C1208.49 22.325 1205.96 23.1 1202.61 23.1H1200.66C1202.61 24.3 1204.34 25.8 1205.84 27.6C1207.34 29.35 1208.59 31.35 1209.59 33.6C1210.64 35.85 1211.41 38.3 1211.91 40.95C1212.46 43.55 1212.74 46.3 1212.74 49.2V53.625H1203.96V40.575C1203.96 38.175 1203.74 35.925 1203.29 33.825C1202.84 31.675 1202.21 29.825 1201.41 28.275C1200.66 26.675 1199.76 25.425 1198.71 24.525C1197.66 23.575 1196.54 23.1 1195.34 23.1C1194.19 23.1 1193.09 23.575 1192.04 24.525C1191.04 25.425 1190.14 26.675 1189.34 28.275C1188.54 29.825 1187.89 31.675 1187.39 33.825C1186.94 35.925 1186.71 38.175 1186.71 40.575V53.625H1178.01V48.3C1178.01 42.7 1179.06 37.7 1181.16 33.3C1183.26 28.9 1186.29 25.5 1190.24 23.1H1178.01V14.55H1202.99C1204.64 14.55 1206.04 14 1207.19 12.9C1208.39 11.75 1208.99 10.35 1208.99 8.7C1208.99 7.05 1207.99 5.325 1205.99 3.525C1210.34 5.175 1212.69 8.5 1213.04 13.5ZM1209.96 36.675C1211.01 37.675 1212.16 38.625 1213.41 39.525C1214.61 40.375 1215.83 41.125 1217.08 41.775C1218.28 42.425 1219.48 42.95 1220.68 43.35C1221.88 43.7 1223.01 43.875 1224.06 43.875C1226.36 43.875 1228.26 43.175 1229.76 41.775C1231.31 40.375 1232.08 38.675 1232.08 36.675C1232.08 35.025 1231.93 33.4 1231.63 31.8C1231.33 30.2 1231.18 28.575 1231.18 26.925C1231.18 25.225 1231.58 23.625 1232.38 22.125C1233.18 20.575 1234.26 19.25 1235.61 18.15C1237.01 17 1238.63 16.1 1240.48 15.45C1242.33 14.8 1244.31 14.475 1246.41 14.475C1249.11 14.475 1251.63 15.05 1253.98 16.2C1256.33 17.3 1258.38 18.825 1260.13 20.775C1261.88 22.675 1263.26 24.925 1264.26 27.525C1265.31 30.125 1265.83 32.9 1265.83 35.85C1265.83 38.3 1265.48 40.6 1264.78 42.75C1264.08 44.9 1263.13 46.8 1261.93 48.45C1260.73 50.05 1259.31 51.325 1257.66 52.275C1256.06 53.175 1254.36 53.625 1252.56 53.625C1251.11 53.625 1249.73 53.3 1248.43 52.65C1247.13 52 1245.98 51.125 1244.98 50.025C1244.03 48.875 1243.26 47.55 1242.66 46.05C1242.11 44.55 1241.83 42.95 1241.83 41.25C1241.83 39.8 1242.08 38.475 1242.58 37.275C1243.13 36.075 1243.86 35.05 1244.76 34.2C1245.71 33.3 1246.78 32.625 1247.98 32.175C1249.18 31.675 1250.46 31.425 1251.81 31.425C1253.51 31.425 1254.93 32.05 1256.08 33.3C1257.23 34.5 1257.81 35.95 1257.81 37.65C1257.81 39.2 1257.28 40.475 1256.23 41.475C1255.23 42.425 1253.96 42.9 1252.41 42.9C1251.21 42.9 1250.18 42.5 1249.33 41.7C1248.48 40.85 1248.06 39.775 1248.06 38.475C1248.06 37.675 1248.23 37.075 1248.58 36.675C1248.93 36.275 1249.36 36 1249.86 35.85C1249.46 35.65 1248.96 35.55 1248.36 35.55C1247.86 35.55 1247.38 35.7 1246.93 36C1246.48 36.25 1246.08 36.575 1245.73 36.975C1245.38 37.325 1245.11 37.725 1244.91 38.175C1244.71 38.625 1244.61 39.025 1244.61 39.375C1244.61 40.375 1244.78 41.3 1245.13 42.15C1245.53 43 1246.06 43.75 1246.71 44.4C1247.36 45.05 1248.11 45.575 1248.96 45.975C1249.81 46.325 1250.73 46.5 1251.73 46.5C1253.28 46.5 1254.76 46.225 1256.16 45.675C1257.56 45.075 1258.76 44.3 1259.76 43.35C1260.81 42.35 1261.63 41.225 1262.23 39.975C1262.83 38.675 1263.13 37.3 1263.13 35.85C1263.13 31.45 1261.83 28.225 1259.23 26.175C1256.63 24.125 1252.61 23.1 1247.16 23.1C1245.51 23.1 1243.93 23.325 1242.43 23.775C1240.93 24.225 1239.61 24.9 1238.46 25.8C1237.36 26.65 1236.46 27.7 1235.76 28.95C1235.11 30.2 1234.78 31.6 1234.78 33.15C1234.78 35.05 1234.91 36.85 1235.16 38.55C1235.46 40.25 1235.61 42.025 1235.61 43.875C1235.61 45.225 1235.33 46.5 1234.78 47.7C1234.28 48.85 1233.58 49.875 1232.68 50.775C1231.78 51.625 1230.73 52.325 1229.53 52.875C1228.38 53.375 1227.16 53.625 1225.86 53.625C1224.36 53.625 1222.83 53.325 1221.28 52.725C1219.78 52.125 1218.36 51.3 1217.01 50.25C1215.66 49.15 1214.43 47.85 1213.33 46.35C1212.18 44.8 1211.23 43.1 1210.48 41.25L1209.96 36.675ZM1337.81 35.925C1337.81 32.975 1337.34 30.175 1336.39 27.525C1335.44 24.825 1334.14 22.425 1332.49 20.325C1330.84 18.175 1328.86 16.4 1326.56 15C1324.31 13.55 1321.89 12.6 1319.29 12.15C1319.69 13.05 1319.89 13.775 1319.89 14.325C1319.89 15.075 1319.69 15.8 1319.29 16.5C1318.94 17.2 1318.44 17.825 1317.79 18.375C1317.19 18.875 1316.46 19.3 1315.61 19.65C1314.81 19.95 1313.99 20.1 1313.14 20.1C1310.84 20.1 1308.91 19.425 1307.36 18.075C1305.86 16.675 1305.11 14.975 1305.11 12.975C1305.11 11.975 1305.34 11.05 1305.79 10.2C1306.24 9.35 1306.84 8.6 1307.59 7.95C1308.34 7.3 1309.21 6.8 1310.21 6.45C1311.21 6.1 1312.29 5.925 1313.44 5.925C1317.29 5.925 1320.89 6.8 1324.24 8.55C1327.64 10.3 1330.59 12.65 1333.09 15.6C1335.64 18.55 1337.64 21.95 1339.09 25.8C1340.54 29.6 1341.26 33.6 1341.26 37.8C1341.26 43.35 1340.29 47.4 1338.34 49.95C1336.44 52.45 1333.61 53.7 1329.86 53.7C1325.06 53.7 1322.06 49.95 1320.86 42.45C1319.56 39.35 1316.91 37.8 1312.91 37.8C1311.21 37.8 1309.79 38.25 1308.64 39.15C1307.49 40 1306.91 41.025 1306.91 42.225C1306.91 43.775 1307.46 45.025 1308.56 45.975C1309.71 46.875 1311.24 47.675 1313.14 48.375C1314.14 48.775 1314.96 49.425 1315.61 50.325C1316.31 51.225 1316.66 52.025 1316.66 52.725C1316.66 53.925 1316.29 54.825 1315.54 55.425C1314.79 55.975 1313.86 56.25 1312.76 56.25C1311.36 56.25 1310.11 55.775 1309.01 54.825C1307.96 53.825 1307.09 52.575 1306.39 51.075C1305.69 49.525 1305.14 47.8 1304.74 45.9C1304.39 44 1304.21 42.15 1304.21 40.35C1304.71 32.25 1307.84 28.2 1313.59 28.2C1317.99 28.2 1320.76 31.1 1321.91 36.9C1323.31 41.7 1325.91 44.1 1329.71 44.1C1334.06 44.1 1336.76 41.375 1337.81 35.925ZM1308.64 15.675C1310.39 15.675 1311.86 15.275 1313.06 14.475C1314.26 13.625 1314.86 12.55 1314.86 11.25C1313.11 11.25 1311.64 11.65 1310.44 12.45C1309.24 13.25 1308.64 14.325 1308.64 15.675ZM1349.68 30.675C1349.68 28.425 1349.98 26.325 1350.58 24.375C1351.23 22.425 1352.08 20.725 1353.13 19.275C1354.23 17.825 1355.51 16.675 1356.96 15.825C1358.41 14.975 1359.96 14.55 1361.61 14.55C1362.71 14.55 1363.78 14.8 1364.83 15.3C1365.88 15.8 1366.78 16.475 1367.53 17.325C1368.33 18.125 1368.96 19.1 1369.41 20.25C1369.91 21.4 1370.16 22.6 1370.16 23.85C1370.16 25.05 1369.96 26.175 1369.56 27.225C1369.21 28.225 1368.71 29.1 1368.06 29.85C1367.46 30.6 1366.73 31.2 1365.88 31.65C1365.08 32.1 1364.23 32.325 1363.33 32.325C1362.38 32.325 1361.48 32.075 1360.63 31.575C1359.83 31.025 1359.11 30.3 1358.46 29.4C1357.86 28.45 1357.38 27.375 1357.03 26.175C1356.68 24.925 1356.51 23.6 1356.51 22.2C1353.66 24.7 1352.23 28.075 1352.23 32.325C1352.23 34.475 1352.71 36.6 1353.66 38.7C1354.61 40.75 1355.93 42.7 1357.63 44.55C1359.33 46.4 1361.38 48.1 1363.78 49.65C1366.18 51.2 1368.86 52.525 1371.81 53.625H1357.33C1352.23 47.425 1349.68 39.775 1349.68 30.675ZM1359.06 21.3C1359.51 22.65 1360.13 23.725 1360.93 24.525C1361.73 25.275 1362.71 25.65 1363.86 25.65C1365.16 25.65 1366.38 24.775 1367.53 23.025C1366.58 22.075 1365.76 21.425 1365.06 21.075C1364.36 20.675 1363.53 20.475 1362.58 20.475C1360.78 20.475 1359.61 20.75 1359.06 21.3ZM1437.68 13.425C1437.33 19.925 1433.88 23.175 1427.33 23.175H1424.18C1424.43 23.625 1424.61 24.025 1424.71 24.375C1424.81 24.725 1424.86 25.1 1424.86 25.5C1424.86 25.6 1424.81 25.875 1424.71 26.325C1424.61 26.775 1424.43 27.35 1424.18 28.05H1437.16V35.175H1430.41C1433.21 36.825 1434.61 39.775 1434.61 44.025C1434.36 50.425 1430.48 53.625 1422.98 53.625C1419.43 53.625 1416.56 52.825 1414.36 51.225C1412.21 49.625 1411.13 47.125 1411.13 43.725C1411.13 39.225 1412.86 36.375 1416.31 35.175H1408.58V28.05H1420.73C1420.98 27.65 1421.18 27.275 1421.33 26.925C1421.53 26.575 1421.63 26.175 1421.63 25.725C1421.63 25.375 1421.53 25 1421.33 24.6C1421.18 24.15 1420.98 23.675 1420.73 23.175H1408.58V14.625H1427.78C1429.43 14.625 1430.83 14.025 1431.98 12.825C1433.13 11.625 1433.71 10.2 1433.71 8.55C1433.71 6.85 1432.68 5.125 1430.63 3.375C1435.03 5.075 1437.38 8.425 1437.68 13.425ZM1416.01 39.525C1416.01 40.125 1416.18 40.7 1416.53 41.25C1416.93 41.8 1417.46 42.275 1418.11 42.675C1418.76 43.075 1419.51 43.4 1420.36 43.65C1421.21 43.9 1422.08 44.025 1422.98 44.025C1423.93 44.025 1424.83 43.9 1425.68 43.65C1426.58 43.4 1427.36 43.075 1428.01 42.675C1428.66 42.275 1429.18 41.8 1429.58 41.25C1429.98 40.7 1430.18 40.125 1430.18 39.525C1430.18 38.925 1429.98 38.375 1429.58 37.875C1429.18 37.325 1428.66 36.85 1428.01 36.45C1427.36 36 1426.58 35.675 1425.68 35.475C1424.83 35.225 1423.93 35.1 1422.98 35.1C1422.08 35.1 1421.21 35.225 1420.36 35.475C1419.51 35.675 1418.76 36 1418.11 36.45C1417.46 36.85 1416.93 37.325 1416.53 37.875C1416.18 38.375 1416.01 38.925 1416.01 39.525ZM1481.58 13.5C1481.23 19.75 1477.93 23 1471.68 23.25C1474.83 24.8 1477.23 26.85 1478.88 29.4C1480.58 31.9 1481.43 35.05 1481.43 38.85C1481.43 48.75 1477.91 53.7 1470.86 53.7C1468.26 53.7 1466.23 52.875 1464.78 51.225C1463.33 49.575 1462.43 47.025 1462.08 43.575C1461.68 41.675 1460.66 40.275 1459.01 39.375C1457.36 38.475 1455.48 38.025 1453.38 38.025C1451.78 38.025 1450.41 38.475 1449.26 39.375C1448.16 40.275 1447.61 41.3 1447.61 42.45C1447.61 43.6 1448.16 44.725 1449.26 45.825C1450.41 46.925 1451.86 47.8 1453.61 48.45C1454.71 48.85 1455.56 49.45 1456.16 50.25C1456.81 51.05 1457.13 51.9 1457.13 52.8C1457.13 54 1456.76 54.9 1456.01 55.5C1455.31 56.05 1454.38 56.325 1453.23 56.325C1451.93 56.325 1450.76 55.85 1449.71 54.9C1448.66 53.95 1447.78 52.725 1447.08 51.225C1446.38 49.725 1445.83 48.05 1445.43 46.2C1445.08 44.35 1444.91 42.5 1444.91 40.65C1444.91 39.1 1445.06 37.6 1445.36 36.15C1445.71 34.65 1446.23 33.325 1446.93 32.175C1447.68 31.025 1448.63 30.125 1449.78 29.475C1450.98 28.775 1452.46 28.425 1454.21 28.425C1458.31 28.425 1461.01 31.325 1462.31 37.125C1464.21 41.875 1467.28 44.25 1471.53 44.25C1475.93 44.25 1478.21 41.875 1478.36 37.125C1478.06 33.825 1476.91 31 1474.91 28.65C1472.91 26.25 1470.18 24.45 1466.73 23.25H1444.91V14.625H1471.53C1472.33 14.625 1473.08 14.475 1473.78 14.175C1474.53 13.825 1475.18 13.375 1475.73 12.825C1476.28 12.275 1476.73 11.65 1477.08 10.95C1477.43 10.2 1477.61 9.4 1477.61 8.55C1477.61 6.95 1476.58 5.2 1474.53 3.3C1478.88 4.95 1481.23 8.35 1481.58 13.5ZM1470.06 67.35C1470.06 68.05 1470.61 68.65 1471.71 69.15C1472.76 69.7 1474.01 69.975 1475.46 69.975C1476.91 69.975 1478.24 69.8 1479.44 69.45C1480.59 69.1 1481.74 68.525 1482.89 67.725C1481.74 66.325 1480.56 65.225 1479.36 64.425C1478.11 63.625 1476.81 63.225 1475.46 63.225C1474.01 63.225 1472.76 63.625 1471.71 64.425C1470.61 65.225 1470.06 66.2 1470.06 67.35ZM1465.11 67.425C1465.11 66.475 1465.39 65.55 1465.94 64.65C1466.44 63.75 1467.14 62.95 1468.04 62.25C1468.94 61.6 1469.99 61.075 1471.19 60.675C1472.39 60.275 1473.69 60.075 1475.09 60.075C1476.89 60.075 1478.64 60.55 1480.34 61.5C1482.04 62.5 1483.66 63.825 1485.21 65.475C1485.96 64.525 1486.59 63.55 1487.09 62.55C1487.64 61.6 1487.91 60.75 1487.91 60C1487.91 59.5 1487.81 59 1487.61 58.5C1487.41 57.95 1487.19 57.4 1486.94 56.85C1486.74 56.3 1486.54 55.75 1486.34 55.2C1486.19 54.6 1486.11 54 1486.11 53.4C1486.11 52.9 1486.24 52.475 1486.49 52.125C1486.79 51.725 1487.21 51.525 1487.76 51.525C1488.96 51.525 1489.86 52.225 1490.46 53.625C1491.06 55.025 1491.36 56.775 1491.36 58.875C1491.36 60.075 1491.26 61.125 1491.06 62.025C1490.91 62.975 1490.69 63.85 1490.39 64.65C1490.09 65.45 1489.71 66.225 1489.26 66.975C1488.86 67.725 1488.41 68.525 1487.91 69.375C1488.71 71.475 1489.89 73.225 1491.44 74.625C1493.04 76.025 1494.89 76.825 1496.99 77.025C1496.64 80.225 1494.86 81.825 1491.66 81.825C1490.31 81.825 1489.21 81.45 1488.36 80.7C1487.51 79.95 1486.84 79.025 1486.34 77.925C1485.89 76.825 1485.59 75.65 1485.44 74.4C1485.29 73.2 1485.21 72.1 1485.21 71.1C1483.41 72.55 1481.59 73.65 1479.74 74.4C1477.84 75.15 1476.04 75.525 1474.34 75.525C1473.04 75.525 1471.84 75.3 1470.74 74.85C1469.59 74.45 1468.61 73.875 1467.81 73.125C1466.96 72.425 1466.31 71.575 1465.86 70.575C1465.36 69.625 1465.11 68.575 1465.11 67.425ZM1538.58 13.5C1538.28 19.5 1535.31 22.7 1529.66 23.1C1532.56 24.55 1534.26 27.4 1534.76 31.65C1535.81 32.55 1536.63 33.725 1537.23 35.175C1537.83 36.575 1538.13 38.2 1538.13 40.05C1538.13 41.9 1537.86 43.65 1537.31 45.3C1536.81 46.95 1536.08 48.4 1535.13 49.65C1534.23 50.85 1533.16 51.825 1531.91 52.575C1530.66 53.275 1529.33 53.625 1527.93 53.625C1526.58 53.625 1525.28 53.375 1524.03 52.875C1522.78 52.375 1521.63 51.675 1520.58 50.775C1519.58 49.875 1518.68 48.8 1517.88 47.55C1517.13 46.3 1516.56 44.925 1516.16 43.425C1515.36 46.475 1513.93 48.95 1511.88 50.85C1509.88 52.7 1507.61 53.625 1505.06 53.625C1503.66 53.625 1502.33 53.225 1501.08 52.425C1499.88 51.575 1498.81 50.45 1497.86 49.05C1496.96 47.65 1496.23 46.025 1495.68 44.175C1495.18 42.325 1494.93 40.375 1494.93 38.325C1494.93 34.875 1495.73 31.9 1497.33 29.4C1498.98 26.85 1501.53 24.775 1504.98 23.175H1494.93V14.55H1528.53C1530.18 14.55 1531.61 14 1532.81 12.9C1534.06 11.75 1534.68 10.35 1534.68 8.7C1534.68 7.15 1533.66 5.425 1531.61 3.525C1535.96 5.275 1538.28 8.6 1538.58 13.5ZM1499.13 34.725C1499.13 35.975 1499.31 37.175 1499.66 38.325C1500.01 39.425 1500.51 40.4 1501.16 41.25C1501.81 42.1 1502.58 42.775 1503.48 43.275C1504.38 43.775 1505.41 44.025 1506.56 44.025C1508.46 44.025 1510.31 43.375 1512.11 42.075C1513.91 40.725 1515.26 38.85 1516.16 36.45C1517.01 38.85 1518.28 40.725 1519.98 42.075C1521.73 43.375 1523.61 44.025 1525.61 44.025C1527.01 44.025 1528.26 43.825 1529.36 43.425C1530.51 43.025 1531.48 42.5 1532.28 41.85C1533.08 41.2 1533.68 40.475 1534.08 39.675C1534.53 38.825 1534.76 37.95 1534.76 37.05C1534.76 36.7 1534.66 36.35 1534.46 36C1534.31 35.6 1534.11 35.175 1533.86 34.725C1533.06 36.025 1532.01 37.075 1530.71 37.875C1529.41 38.675 1527.91 39.075 1526.21 39.075C1525.16 39.075 1524.16 38.925 1523.21 38.625C1522.31 38.275 1521.51 37.825 1520.81 37.275C1520.16 36.725 1519.63 36.075 1519.23 35.325C1518.83 34.575 1518.63 33.75 1518.63 32.85C1518.63 31.9 1518.83 31.05 1519.23 30.3C1519.68 29.5 1520.23 28.85 1520.88 28.35C1521.58 27.8 1522.36 27.4 1523.21 27.15C1524.11 26.85 1525.01 26.7 1525.91 26.7C1527.66 26.7 1529.46 27.325 1531.31 28.575C1530.41 26.875 1528.68 25.575 1526.13 24.675C1523.58 23.725 1520.26 23.25 1516.16 23.25C1513.81 23.25 1511.61 23.55 1509.56 24.15C1507.51 24.75 1505.71 25.575 1504.16 26.625C1502.61 27.675 1501.38 28.9 1500.48 30.3C1499.58 31.7 1499.13 33.175 1499.13 34.725ZM1522.91 32.325C1522.91 33.125 1523.21 33.775 1523.81 34.275C1524.46 34.725 1525.26 34.95 1526.21 34.95C1528.16 34.95 1530.16 34.075 1532.21 32.325C1530.11 30.675 1527.78 29.85 1525.23 29.85C1524.53 29.85 1523.96 30.1 1523.51 30.6C1523.11 31.1 1522.91 31.675 1522.91 32.325ZM1579.84 44.175C1581.44 44.175 1582.94 43.575 1584.34 42.375C1585.79 41.125 1586.62 39.2 1586.82 36.6C1586.82 35.05 1586.44 33.5 1585.69 31.95C1584.99 30.4 1584.02 29 1582.77 27.75C1581.52 26.5 1580.07 25.475 1578.42 24.675C1576.82 23.825 1575.09 23.325 1573.24 23.175H1547.59V14.55H1581.57V23.1H1579.09C1586.44 26.25 1590.44 31.875 1591.09 39.975C1591.09 41.875 1590.79 43.65 1590.19 45.3C1589.64 46.95 1588.87 48.4 1587.87 49.65C1586.87 50.9 1585.69 51.875 1584.34 52.575C1583.04 53.275 1581.62 53.625 1580.07 53.625C1577.52 53.625 1575.22 52.725 1573.17 50.925C1571.17 49.075 1569.77 46.575 1568.97 43.425C1568.17 46.575 1566.74 49.075 1564.69 50.925C1562.69 52.725 1560.42 53.625 1557.87 53.625C1556.42 53.625 1555.07 53.275 1553.82 52.575C1552.62 51.825 1551.54 50.825 1550.59 49.575C1549.64 48.325 1548.89 46.875 1548.34 45.225C1547.84 43.575 1547.59 41.825 1547.59 39.975C1547.59 38.775 1547.79 37.65 1548.19 36.6C1548.59 35.55 1549.14 34.65 1549.84 33.9C1550.59 33.1 1551.44 32.5 1552.39 32.1C1553.34 31.65 1554.37 31.425 1555.47 31.425C1557.27 31.425 1558.79 31.925 1560.04 32.925C1561.34 33.875 1562.04 35.2 1562.14 36.9C1561.84 37.9 1561.49 38.65 1561.09 39.15C1560.74 39.65 1560.24 39.925 1559.59 39.975C1559.59 38.775 1559.19 37.775 1558.39 36.975C1557.59 36.125 1556.54 35.7 1555.24 35.7C1553.54 35.7 1552.27 36.1 1551.42 36.9C1550.62 37.65 1550.22 38.675 1550.22 39.975C1550.77 42.775 1553.47 44.175 1558.32 44.175C1561.02 44.175 1563.24 43.525 1564.99 42.225C1566.74 40.875 1568.07 39 1568.97 36.6C1569.87 39 1571.22 40.875 1573.02 42.225C1574.87 43.525 1577.14 44.175 1579.84 44.175ZM1576.07 14.625H1601.79C1604.74 14.625 1607.49 15.2 1610.04 16.35C1612.64 17.5 1614.89 19.1 1616.79 21.15C1618.74 23.15 1620.27 25.525 1621.37 28.275C1622.47 31.025 1623.02 33.975 1623.02 37.125C1622.97 39.425 1622.57 41.575 1621.82 43.575C1621.12 45.575 1620.17 47.325 1618.97 48.825C1617.77 50.325 1616.34 51.5 1614.69 52.35C1613.04 53.2 1611.29 53.625 1609.44 53.625C1605.99 53.625 1603.29 52.425 1601.34 50.025C1599.44 47.575 1598.49 44.15 1598.49 39.75C1598.49 38.55 1598.69 37.425 1599.09 36.375C1599.54 35.325 1600.14 34.425 1600.89 33.675C1601.69 32.875 1602.59 32.25 1603.59 31.8C1604.64 31.3 1605.77 31.05 1606.97 31.05C1608.62 31.05 1610.07 31.6 1611.32 32.7C1612.62 33.75 1613.27 35.025 1613.27 36.525C1613.27 37.625 1612.84 38.6 1611.99 39.45C1611.14 40.25 1610.14 40.65 1608.99 40.65C1607.94 40.65 1607.04 40.325 1606.29 39.675C1605.59 38.975 1605.24 38.075 1605.24 36.975C1605.24 36.225 1605.49 35.45 1605.99 34.65C1605.94 34.65 1605.84 34.625 1605.69 34.575C1605.59 34.525 1605.49 34.5 1605.39 34.5C1604.19 34.5 1603.14 34.925 1602.24 35.775C1601.39 36.625 1600.97 37.675 1600.97 38.925C1600.97 39.825 1601.19 40.65 1601.64 41.4C1602.14 42.15 1602.79 42.8 1603.59 43.35C1604.39 43.85 1605.32 44.25 1606.37 44.55C1607.42 44.85 1608.52 45 1609.67 45C1613.12 45 1615.69 44.225 1617.39 42.675C1619.14 41.075 1620.17 38.625 1620.47 35.325C1620.47 33.625 1619.97 32.05 1618.97 30.6C1618.02 29.15 1616.69 27.875 1614.99 26.775C1613.29 25.675 1611.32 24.825 1609.07 24.225C1606.82 23.575 1604.39 23.25 1601.79 23.25H1576.07V14.625ZM1641.74 14.475C1641.74 15.125 1642.09 15.675 1642.79 16.125C1643.54 16.525 1644.49 16.725 1645.64 16.725H1649.31C1651.06 16.725 1653.04 17.675 1655.24 19.575C1657.44 21.475 1659.49 24.15 1661.39 27.6C1660.99 25.25 1660.34 23.075 1659.44 21.075C1658.54 19.075 1657.46 17.35 1656.21 15.9C1654.96 14.45 1653.59 13.325 1652.09 12.525C1650.59 11.675 1649.06 11.25 1647.51 11.25C1645.86 11.25 1644.49 11.6 1643.39 12.3C1642.29 12.95 1641.74 13.675 1641.74 14.475ZM1631.24 48.225C1631.24 42.475 1632.01 37.25 1633.56 32.55C1635.16 27.85 1637.69 23.475 1641.14 19.425C1640.19 19.425 1639.26 19.3 1638.36 19.05C1637.51 18.75 1636.76 18.375 1636.11 17.925C1635.46 17.425 1634.94 16.85 1634.54 16.2C1634.14 15.5 1633.94 14.775 1633.94 14.025C1633.94 12.925 1634.24 11.875 1634.84 10.875C1635.44 9.875 1636.21 9.025 1637.16 8.325C1638.16 7.575 1639.31 7 1640.61 6.6C1641.91 6.15 1643.29 5.925 1644.74 5.925C1647.89 5.925 1650.81 7.075 1653.51 9.375C1656.26 11.625 1658.64 14.725 1660.64 18.675C1662.69 22.575 1664.29 27.15 1665.44 32.4C1666.64 37.6 1667.24 43.15 1667.24 49.05V53.625H1658.31V40.125C1658.31 37.125 1658.09 34.325 1657.64 31.725C1657.19 29.075 1656.54 26.775 1655.69 24.825C1654.89 22.875 1653.94 21.35 1652.84 20.25C1651.74 19.1 1650.56 18.525 1649.31 18.525C1648.01 18.525 1646.81 19.075 1645.71 20.175C1644.66 21.275 1643.74 22.8 1642.94 24.75C1642.14 26.7 1641.51 29 1641.06 31.65C1640.61 34.25 1640.39 37.075 1640.39 40.125V53.625H1631.24V48.225ZM1711.08 13.5C1710.93 16.35 1710.21 18.575 1708.91 20.175C1707.61 21.775 1705.61 22.7 1702.91 22.95C1705.61 24.6 1707.58 26.625 1708.83 29.025C1710.08 31.375 1710.71 34.125 1710.71 37.275C1710.71 39.525 1710.26 41.65 1709.36 43.65C1708.46 45.6 1707.21 47.325 1705.61 48.825C1704.06 50.275 1702.23 51.45 1700.13 52.35C1698.08 53.2 1695.88 53.625 1693.53 53.625C1691.13 53.625 1688.86 53.175 1686.71 52.275C1684.61 51.375 1682.78 50.175 1681.23 48.675C1679.68 47.125 1678.46 45.35 1677.56 43.35C1676.66 41.35 1676.21 39.225 1676.21 36.975C1676.21 33.925 1676.91 31.275 1678.31 29.025C1679.71 26.775 1681.61 24.85 1684.01 23.25H1676.21V14.625H1701.18C1701.98 14.625 1702.73 14.475 1703.43 14.175C1704.18 13.825 1704.83 13.375 1705.38 12.825C1705.93 12.275 1706.36 11.65 1706.66 10.95C1707.01 10.2 1707.18 9.425 1707.18 8.625C1707.18 7.025 1706.16 5.325 1704.11 3.525C1708.46 5.225 1710.78 8.55 1711.08 13.5ZM1681.31 34.05C1681.31 35.45 1681.63 36.775 1682.28 38.025C1682.93 39.225 1683.81 40.3 1684.91 41.25C1686.01 42.15 1687.31 42.875 1688.81 43.425C1690.31 43.925 1691.91 44.175 1693.61 44.175C1695.31 44.175 1696.88 43.925 1698.33 43.425C1699.83 42.875 1701.13 42.15 1702.23 41.25C1703.33 40.3 1704.21 39.225 1704.86 38.025C1705.51 36.775 1705.83 35.45 1705.83 34.05C1705.83 32.65 1705.51 31.3 1704.86 30C1704.21 28.65 1703.33 27.475 1702.23 26.475C1701.13 25.475 1699.83 24.675 1698.33 24.075C1696.88 23.425 1695.31 23.1 1693.61 23.1C1691.91 23.1 1690.31 23.4 1688.81 24C1687.31 24.6 1686.01 25.4 1684.91 26.4C1683.81 27.4 1682.93 28.575 1682.28 29.925C1681.63 31.225 1681.31 32.6 1681.31 34.05ZM1708.46 37.2C1709.21 38.05 1710.16 38.85 1711.31 39.6C1712.41 40.35 1713.58 41 1714.83 41.55C1716.08 42.1 1717.33 42.525 1718.58 42.825C1719.88 43.125 1721.08 43.275 1722.18 43.275C1723.83 43.275 1725.38 43.025 1726.83 42.525C1728.28 41.975 1729.56 41.25 1730.66 40.35C1731.76 39.45 1732.63 38.4 1733.28 37.2C1733.93 35.95 1734.26 34.6 1734.26 33.15C1734.26 32 1733.88 30.875 1733.13 29.775C1732.43 28.675 1731.46 27.675 1730.21 26.775C1728.96 25.875 1727.48 25.125 1725.78 24.525C1724.08 23.925 1722.23 23.55 1720.23 23.4C1718.98 23.3 1717.88 22.875 1716.93 22.125C1716.03 21.375 1715.58 20.375 1715.58 19.125C1715.58 17.825 1716.13 16.75 1717.23 15.9C1718.38 15 1719.76 14.55 1721.36 14.55C1723.46 14.55 1725.41 15.1 1727.21 16.2C1729.06 17.25 1730.68 18.7 1732.08 20.55C1733.48 22.35 1734.58 24.5 1735.38 27C1736.18 29.45 1736.58 32.1 1736.58 34.95C1736.58 37.5 1736.26 39.925 1735.61 42.225C1734.96 44.475 1734.06 46.45 1732.91 48.15C1731.76 49.8 1730.41 51.125 1728.86 52.125C1727.36 53.125 1725.76 53.625 1724.06 53.625C1722.71 53.625 1721.26 53.35 1719.71 52.8C1718.16 52.2 1716.66 51.375 1715.21 50.325C1713.76 49.275 1712.43 48 1711.23 46.5C1710.03 45 1709.11 43.3 1708.46 41.4V37.2ZM1750.38 42.675C1751.88 42.675 1753.18 43.2 1754.28 44.25C1755.38 45.3 1755.93 46.6 1755.93 48.15C1755.93 49.6 1755.38 50.875 1754.28 51.975C1753.18 53.025 1751.88 53.55 1750.38 53.55C1748.93 53.55 1747.66 53.025 1746.56 51.975C1745.46 50.875 1744.91 49.6 1744.91 48.15C1744.91 46.6 1745.46 45.3 1746.56 44.25C1747.66 43.2 1748.93 42.675 1750.38 42.675Z" fill="black"/>
</svg>
