<svg width="1766" height="81" viewBox="0 0 1766 81" fill="none" xmlns="http://www.w3.org/2000/svg">
<path d="M45.6582 41.0361C45.6582 44.6982 44.8159 47.7866 43.1313 50.3013C41.2271 53.1577 38.5903 54.5859 35.2212 54.5859C32.438 54.5859 29.9966 53.6094 27.897 51.6562C26.4077 50.2158 25.1504 48.3726 24.125 46.1265C23.417 44.5151 23.063 43.4897 23.063 43.0503C23.063 43.4653 22.709 44.4907 22.001 46.1265C20.9756 48.3726 19.7183 50.2158 18.229 51.6562C16.1782 53.6094 13.8223 54.5859 11.1611 54.5859C7.54785 54.5859 4.74023 53.1943 2.73828 50.4111C1.05371 48.0918 0.211426 45.333 0.211426 42.1348C0.211426 38.5947 1.12695 35.8848 2.95801 34.0049C4.54492 32.3936 6.52246 31.5879 8.89062 31.5879C10.8193 31.5879 12.5039 32.1738 13.9443 33.3457C15.3848 34.5176 16.105 35.9824 16.105 37.7402C16.105 38.9121 15.7021 39.8765 14.8965 40.6333C14.2129 41.2437 13.4927 41.5488 12.7358 41.5488C12.9312 40.8652 13.0288 40.2671 13.0288 39.7544C13.0288 38.6313 12.5527 37.7524 11.6006 37.1177C10.6729 36.4829 9.5498 36.1655 8.23145 36.1655C6.71777 36.1655 5.41162 36.5684 4.31299 37.374C3.06787 38.2529 2.44531 39.4248 2.44531 40.8896C2.44531 42.8672 3.16553 44.4175 4.60596 45.5405C6.04639 46.6392 7.99951 47.1885 10.4653 47.1885C16.9839 47.1885 21.1831 44.0879 23.063 37.8867C23.063 39.1074 23.771 40.6821 25.187 42.6108C27.4087 45.6626 30.6069 47.1885 34.7817 47.1885C37.394 47.1885 39.5059 46.2241 41.1172 44.2954C42.7285 42.3667 43.5342 39.7788 43.5342 36.5317C43.5342 32.4546 41.1538 28.6094 36.3931 24.9961C31.4126 21.2363 25.8828 19.3564 19.8037 19.3564C18.1191 19.3564 16.459 19.5273 14.8232 19.8691C14.4326 19.9424 14.0542 19.979 13.688 19.979C11.5396 19.979 10.4653 18.9902 10.4653 17.0127C10.4653 15.8896 11.1123 14.9131 12.4062 14.083C13.8955 13.1553 15.9219 12.6914 18.4854 12.6914C24.3203 12.6914 29.9233 14.791 35.2944 18.9902C42.2036 24.4102 45.6582 31.7588 45.6582 41.0361ZM100.81 32.7598C100.81 39.376 98.5024 44.6982 93.8882 48.7266C89.4937 52.584 83.9517 54.5127 77.2622 54.5127C71.0366 54.5127 65.873 52.7427 61.7715 49.2026C57.2061 45.2476 54.9233 39.7666 54.9233 32.7598C54.9233 26.9004 56.2905 22.2007 59.0249 18.6606C61.4907 15.4624 64.4448 13.8633 67.8872 13.8633C70.4995 13.8633 72.6724 14.73 74.4058 16.4634C76.2612 18.3188 77.189 20.8335 77.189 24.0073C77.189 26.9614 76.3833 29.3052 74.772 31.0386C73.356 32.6011 71.6592 33.3823 69.6816 33.3823C67.7041 33.3823 66.0684 32.6987 64.7744 31.3315C63.3584 29.8423 62.6504 27.8037 62.6504 25.2158C62.6504 23.0674 62.8457 21.8833 63.2363 21.6636C62.6016 21.6636 61.5884 22.5181 60.1968 24.2271C58.2192 26.5952 57.2305 29.4639 57.2305 32.833C57.2305 37.7402 59.1958 41.4268 63.1265 43.8926C66.5933 46.0898 71.3052 47.1885 77.2622 47.1885C83.5366 47.1885 88.627 45.9678 92.5332 43.5264C96.708 40.9385 98.7954 37.374 98.7954 32.833C98.7954 30.0986 97.6602 27.4985 95.3896 25.0327C92.9482 22.396 90.104 21.0776 86.8569 21.0776V14.7788H98.3193V21.0776H95.7192C99.1128 24.7153 100.81 28.6094 100.81 32.7598ZM75.248 24.0073C75.248 21.3706 73.3926 20.0156 69.6816 19.9424C68.5098 19.918 67.2891 20.1255 66.0195 20.5649C65.165 21.3218 64.7378 22.5181 64.7378 24.1538C64.7378 25.3745 65.1895 26.3633 66.0928 27.1201C66.9229 27.8281 67.9727 28.1821 69.2422 28.1821C70.7803 28.1821 72.1353 27.8281 73.3071 27.1201C74.6011 26.3145 75.248 25.2769 75.248 24.0073ZM136.442 37.3374C136.442 42.147 135.343 46.1509 133.146 49.3491C130.753 52.8403 127.519 54.5859 123.441 54.5859C116.19 54.5859 112.565 50.3379 112.565 41.8418C112.565 38.79 113.419 36.4097 115.128 34.7007C116.691 33.1138 118.742 32.3203 121.281 32.3203C123.136 32.3203 124.638 32.9917 125.785 34.3345C126.786 35.5552 127.287 36.9834 127.287 38.6191C127.287 39.8643 126.92 40.8896 126.188 41.6953C125.382 42.5986 124.32 43.0503 123.002 43.0503C120.658 43.0503 119.486 41.9517 119.486 39.7544C119.486 38.9976 119.755 38.3506 120.292 37.8135C120.829 37.252 121.513 36.9712 122.343 36.9712C122.953 36.9712 123.539 37.0933 124.101 37.3374C124.467 37.4839 124.65 37.5327 124.65 37.4839C124.87 35.5552 123.698 34.5908 121.134 34.5908C119.499 34.5908 118.034 35.189 116.74 36.3853C115.373 37.6548 114.689 39.2295 114.689 41.1094C114.689 43.1846 115.238 44.918 116.337 46.3096C117.851 48.2383 120.243 49.2026 123.515 49.2026C127.055 49.2026 129.838 48.0063 131.864 45.6138C133.72 43.4409 134.647 40.7065 134.647 37.4106C134.647 33.3823 133.073 29.6836 129.923 26.3145C126.627 22.8232 122.819 21.0776 118.498 21.0776H93.1558V14.7788H115.641C121.378 14.7788 126.322 17.1958 130.473 22.0298C134.452 26.5952 136.442 31.6978 136.442 37.3374ZM149.259 71.8711C149.259 74.0928 148.722 75.9971 147.648 77.584C146.452 79.3174 144.889 80.1841 142.96 80.1841C141.496 80.1841 140.312 79.7324 139.408 78.8291C138.578 78.0234 138.163 77.0713 138.163 75.9727C138.993 76.8271 140.189 77.2544 141.752 77.2544C143.339 77.2544 144.621 76.7783 145.597 75.8262C146.5 74.9473 146.977 73.873 147.025 72.6035C147.05 71.2852 146.525 70.1499 145.451 69.1978C144.254 68.1235 142.594 67.5864 140.47 67.5864C135.807 67.5864 132.938 68.8804 131.864 71.4683C130.985 68.9292 128.104 67.6597 123.222 67.6597C121.244 67.6597 119.682 68.2456 118.534 69.4175C117.509 70.4429 116.996 71.6514 116.996 73.043C116.996 74.2148 117.423 75.1914 118.278 75.9727C119.206 76.8271 120.463 77.2544 122.05 77.2544C123.441 77.2544 124.76 76.8271 126.005 75.9727C126.005 78.7803 124.503 80.1841 121.5 80.1841C119.401 80.1841 117.716 79.2563 116.447 77.4009C115.324 75.7407 114.762 73.7388 114.762 71.395C114.762 69.0024 115.434 66.9761 116.776 65.3159C118.266 63.4849 120.292 62.5693 122.855 62.5693C126.054 62.5693 128.507 63.5947 130.216 65.6455C131.315 66.9639 131.864 68.0381 131.864 68.8682C132.084 68.3066 132.292 67.7329 132.487 67.147C133.097 65.9263 133.927 64.9253 134.977 64.144C136.442 63.0942 138.249 62.5693 140.397 62.5693C143.229 62.5693 145.463 63.5581 147.099 65.5356C148.539 67.269 149.259 69.3809 149.259 71.8711ZM201.078 41.4756C201.078 45.2354 200.15 48.3115 198.295 50.7041C196.269 53.292 193.498 54.5859 189.982 54.5859C185.294 54.5859 181.291 51.4365 177.97 45.1377C176.139 51.4365 172.465 54.5859 166.947 54.5859C163.139 54.5859 160.197 53.2798 158.122 50.6675C156.266 48.3237 155.338 45.2598 155.338 41.4756C155.338 37.1299 156.571 33.0649 159.037 29.2808C161.771 25.1304 165.385 22.396 169.877 21.0776H155.778V14.7788H189.616C195.011 14.7788 197.709 12.6548 197.709 8.40674C197.709 6.64893 196.659 4.84229 194.56 2.98682L196.208 1.33887C199.455 4.46387 201.078 7.4668 201.078 10.3477C201.078 17.501 197.257 21.0776 189.616 21.0776H187.125C191.569 23.0552 195.06 26.0215 197.599 29.9766C199.918 33.6143 201.078 37.4473 201.078 41.4756ZM196.867 38.2529C196.867 33.8584 195.377 30.0376 192.399 26.7905C188.908 22.9819 184.098 21.0776 177.97 21.0776C172.379 21.0776 167.826 22.9819 164.311 26.7905C161.21 30.1597 159.66 33.9805 159.66 38.2529C159.66 40.8652 160.319 42.9526 161.637 44.5151C163.078 46.2485 165.128 47.1152 167.79 47.1152C172.379 47.1152 175.773 44.6128 177.97 39.6079C180.216 44.6616 183.573 47.1885 188.041 47.1885C190.727 47.1885 192.887 46.3218 194.523 44.5884C196.085 42.9526 196.867 40.8408 196.867 38.2529ZM245.316 36.3853C245.316 41.3657 243.546 45.626 240.006 49.166C236.491 52.6816 232.23 54.4395 227.226 54.4395C222.27 54.4395 218.034 52.6816 214.518 49.166C211.002 45.626 209.245 41.3657 209.245 36.3853C209.245 30.1841 211.991 25.0815 217.484 21.0776H209.171V14.7788H233.854C239.25 14.7788 241.947 12.6548 241.947 8.40674C241.947 6.64893 240.897 4.84229 238.798 2.98682L240.373 1.33887C243.62 4.46387 245.243 7.4668 245.243 10.3477C245.243 16.2314 242.362 19.8081 236.601 21.0776C242.411 23.9341 245.316 29.0366 245.316 36.3853ZM241.032 34.2612C241.032 30.4771 239.701 27.3398 237.04 24.8496C234.379 22.335 231.107 21.0776 227.226 21.0776C223.417 21.0776 220.194 22.335 217.558 24.8496C214.921 27.3398 213.603 30.4771 213.603 34.2612C213.603 38.0454 214.921 41.207 217.558 43.7461C220.194 46.2852 223.417 47.5547 227.226 47.5547C231.083 47.5547 234.342 46.2852 237.003 43.7461C239.689 41.1826 241.032 38.021 241.032 34.2612ZM296.549 36.312C296.549 42.8062 295.463 47.4814 293.29 50.3379C291.142 53.1699 287.724 54.5859 283.036 54.5859C279.74 54.5859 277.03 53.0479 274.906 49.9717C272.929 47.1396 271.94 43.8071 271.94 39.9741C271.94 37.1665 272.709 34.9814 274.247 33.4189C275.541 32.1006 277.14 31.417 279.044 31.3682C280.729 31.2949 282.206 31.7832 283.476 32.833C284.745 33.8828 285.368 35.2622 285.343 36.9712C285.343 38.314 284.928 39.3638 284.098 40.1206C283.39 40.8042 282.523 41.146 281.498 41.146C279.325 41.146 278.239 40.1328 278.239 38.1064C278.239 36.8857 278.837 35.8604 280.033 35.0303C279.594 34.6885 279.032 34.5176 278.349 34.5176C277.226 34.5176 276.249 34.9082 275.419 35.6895C274.442 36.6172 273.954 37.8989 273.954 39.5347C273.954 41.5854 274.845 43.4043 276.627 44.9912C278.434 46.5537 280.521 47.335 282.89 47.335C285.844 47.335 288.505 46.3096 290.873 44.2588C293.437 42.0371 294.718 39.3394 294.718 36.1655C294.718 30.3794 293.07 25.8872 289.774 22.689C286.796 19.8081 282.951 18.3677 278.239 18.3677C274.601 18.3677 271.476 19.6982 268.864 22.3594C266.203 25.0938 264.872 28.4263 264.872 32.3569C264.872 33.0894 264.921 33.834 265.019 34.5908C265.922 40.9629 266.374 44.1855 266.374 44.2588C266.374 47.1396 265.666 49.5078 264.25 51.3633C262.638 53.4629 260.319 54.5127 257.292 54.5127C253.458 54.5127 250.224 52.7915 247.587 49.3491C245.365 46.4194 244.254 43.4897 244.254 40.5601C246.745 45.0767 250.272 47.335 254.838 47.335C257.89 47.335 260.075 46.9321 261.393 46.1265C262.98 45.1987 263.773 43.4897 263.773 40.9995C263.773 39.9741 263.639 38.7778 263.371 37.4106C262.931 35.1401 262.711 32.9551 262.711 30.8555C262.711 25.3135 264.152 20.8701 267.033 17.5254C269.767 14.3516 273.271 12.7646 277.543 12.7646C282.963 12.7646 287.443 14.8521 290.983 19.0269C294.694 23.4214 296.549 29.1831 296.549 36.312ZM375.102 25.9482C375.102 29.7568 373.759 33.6021 371.073 37.4839C371.317 38.021 371.439 38.5703 371.439 39.1318C371.439 39.9131 371.049 41.1094 370.268 42.7207C369.486 44.332 369.096 45.6382 369.096 46.6392C369.096 48.1528 369.779 48.9097 371.146 48.9097C372.611 48.9097 373.405 47.811 373.527 45.6138L374.809 46.3462V48.9097C374.809 50.4233 374.308 51.6196 373.307 52.4985C372.404 53.2554 371.281 53.6582 369.938 53.707C368.522 53.7559 367.289 53.3164 366.239 52.3887C365.092 51.3633 364.518 49.9961 364.518 48.2871C364.518 47.7744 364.945 46.5415 365.8 44.5884C366.703 42.4888 367.204 41.146 367.301 40.5601C364.762 41.9761 362.565 42.6841 360.709 42.6841C358.317 42.6841 356.364 41.9517 354.85 40.4868C353.532 39.2417 352.86 37.8501 352.836 36.312C352.812 34.7495 353.507 33.4189 354.923 32.3203C356.51 31.0752 358.634 30.4526 361.295 30.4526C363.493 30.4526 365.58 31.0142 367.558 32.1372C369.315 33.1138 370.109 33.6509 369.938 33.7485C370.744 33.48 371.427 32.772 371.989 31.6245C372.575 30.4771 372.868 29.2563 372.868 27.9624C372.868 25.5942 371.916 23.4824 370.011 21.627C368.131 19.7471 365.934 18.8071 363.419 18.8071C360.465 18.8071 358.122 19.5151 356.388 20.9312C355.241 21.8833 353.678 23.9341 351.701 27.0835C349.894 21.5659 346.244 18.8071 340.751 18.8071C338.114 18.8071 335.905 19.5029 334.123 20.8945C332.34 22.2617 331.449 23.873 331.449 25.7285C331.449 29.6836 334.403 31.6611 340.312 31.6611C340.556 32.0518 340.678 32.6011 340.678 33.3091C340.678 34.8472 339.799 35.6162 338.041 35.6162C335.258 35.6162 333.024 34.5054 331.339 32.2837C329.777 30.2329 328.996 27.7183 328.996 24.7397C328.971 21.4927 329.887 18.7461 331.742 16.5C333.817 13.9609 336.674 12.6914 340.312 12.6914C342.631 12.6914 344.779 13.5825 346.757 15.3647C348.148 16.6099 349.394 18.2578 350.492 20.3086C351.298 21.7979 351.701 22.6523 351.701 22.8721C353.849 19.332 355.583 16.915 356.901 15.6211C358.952 13.668 361.344 12.6914 364.079 12.6914C367.106 12.6914 369.682 13.8877 371.806 16.2803C374.003 18.7949 375.102 22.0176 375.102 25.9482ZM368.363 35.25C367.094 33.2969 365.043 32.3203 362.211 32.3203C360.917 32.3203 359.867 32.6377 359.062 33.2725C358.256 33.8828 357.853 34.5908 357.853 35.3965C357.853 37.7891 359.257 38.9854 362.064 38.9854C364.579 38.9854 366.679 37.7402 368.363 35.25ZM420.219 36.3853C420.219 41.3657 418.449 45.626 414.909 49.166C411.393 52.6816 407.133 54.4395 402.128 54.4395C397.172 54.4395 392.936 52.6816 389.42 49.166C385.905 45.626 384.147 41.3657 384.147 36.3853C384.147 30.1841 386.894 25.0815 392.387 21.0776H384.074V14.7788H408.756C414.152 14.7788 416.85 12.6548 416.85 8.40674C416.85 6.64893 415.8 4.84229 413.7 2.98682L415.275 1.33887C418.522 4.46387 420.146 7.4668 420.146 10.3477C420.146 16.2314 417.265 19.8081 411.503 21.0776C417.313 23.9341 420.219 29.0366 420.219 36.3853ZM415.934 34.2612C415.934 30.4771 414.604 27.3398 411.942 24.8496C409.281 22.335 406.01 21.0776 402.128 21.0776C398.319 21.0776 395.097 22.335 392.46 24.8496C389.823 27.3398 388.505 30.4771 388.505 34.2612C388.505 38.0454 389.823 41.207 392.46 43.7461C395.097 46.2852 398.319 47.5547 402.128 47.5547C405.985 47.5547 409.245 46.2852 411.906 43.7461C414.591 41.1826 415.934 38.021 415.934 34.2612ZM444.608 36.1655C444.608 41.3413 443.546 45.5894 441.422 48.9097C439.005 52.6938 435.563 54.5859 431.095 54.5859C426.359 54.5859 422.819 52.0957 420.475 47.1152C419.523 45.04 418.839 42.5376 418.424 39.6079C418.668 40.2671 418.925 40.9263 419.193 41.5854C419.999 43.0991 421.22 44.3076 422.855 45.2109C425.126 46.5293 428.08 47.1885 431.718 47.1885C434.623 47.1885 437.113 46.3706 439.188 44.7349C441.605 42.8306 442.814 40.2427 442.814 36.9712C442.814 29.3052 437.406 23.9829 426.591 21.0044C424.418 20.394 423.332 19.21 423.332 17.4521C423.332 16.5488 423.649 15.7676 424.284 15.1084C424.943 14.4248 425.761 14.083 426.737 14.083C430.644 14.083 434.525 16.2437 438.383 20.5649C442.533 25.228 444.608 30.4282 444.608 36.1655ZM524.662 41.0361C524.662 44.6982 523.82 47.7866 522.135 50.3013C520.231 53.1577 517.594 54.5859 514.225 54.5859C511.442 54.5859 509 53.6094 506.901 51.6562C505.412 50.2158 504.154 48.3726 503.129 46.1265C502.421 44.5151 502.067 43.4897 502.067 43.0503C502.067 43.4653 501.713 44.4907 501.005 46.1265C499.979 48.3726 498.722 50.2158 497.233 51.6562C495.182 53.6094 492.826 54.5859 490.165 54.5859C486.552 54.5859 483.744 53.1943 481.742 50.4111C480.058 48.0918 479.215 45.333 479.215 42.1348C479.215 38.5947 480.131 35.8848 481.962 34.0049C483.549 32.3936 485.526 31.5879 487.895 31.5879C489.823 31.5879 491.508 32.1738 492.948 33.3457C494.389 34.5176 495.109 35.9824 495.109 37.7402C495.109 38.9121 494.706 39.8765 493.9 40.6333C493.217 41.2437 492.497 41.5488 491.74 41.5488C491.935 40.8652 492.033 40.2671 492.033 39.7544C492.033 38.6313 491.557 37.7524 490.604 37.1177C489.677 36.4829 488.554 36.1655 487.235 36.1655C485.722 36.1655 484.416 36.5684 483.317 37.374C482.072 38.2529 481.449 39.4248 481.449 40.8896C481.449 42.8672 482.169 44.4175 483.61 45.5405C485.05 46.6392 487.003 47.1885 489.469 47.1885C495.988 47.1885 500.187 44.0879 502.067 37.8867C502.067 39.1074 502.775 40.6821 504.191 42.6108C506.413 45.6626 509.611 47.1885 513.786 47.1885C516.398 47.1885 518.51 46.2241 520.121 44.2954C521.732 42.3667 522.538 39.7788 522.538 36.5317C522.538 32.4546 520.158 28.6094 515.397 24.9961C510.417 21.2363 504.887 19.3564 498.808 19.3564C497.123 19.3564 495.463 19.5273 493.827 19.8691C493.437 19.9424 493.058 19.979 492.692 19.979C490.543 19.979 489.469 18.9902 489.469 17.0127C489.469 15.8896 490.116 14.9131 491.41 14.083C492.899 13.1553 494.926 12.6914 497.489 12.6914C503.324 12.6914 508.927 14.791 514.298 18.9902C521.208 24.4102 524.662 31.7588 524.662 41.0361ZM563.48 33.6753C563.48 47.5669 558.573 54.5127 548.759 54.5127C544.12 54.5127 540.531 52.6328 537.992 48.873C535.526 45.2109 534.293 40.145 534.293 33.6753C534.293 27.6694 535.514 22.9819 537.956 19.6128C540.47 16.146 544.047 14.4126 548.686 14.4126C558.549 14.4126 563.48 20.8335 563.48 33.6753ZM561.43 34.2612C561.43 31.0142 560.124 28.0356 557.511 25.3257C554.923 22.5913 552.006 21.2241 548.759 21.2241C545.512 21.2241 542.619 22.5059 540.08 25.0693C537.467 27.7061 536.161 30.77 536.161 34.2612C536.161 38.2407 537.467 41.4023 540.08 43.7461C542.448 45.8701 545.341 46.9321 548.759 46.9321C552.372 46.9321 555.302 45.98 557.548 44.0757C560.136 41.854 561.43 38.5825 561.43 34.2612ZM609.33 39.7544C609.33 44.5151 607.438 48.2505 603.654 50.9604C600.285 53.3774 596.085 54.5859 591.056 54.5859C586.173 54.5859 582.011 53.4385 578.568 51.1436C574.833 48.6289 572.965 45.3574 572.965 41.3291C572.965 38.375 574.015 36.3242 576.115 35.1768V38.1064C576.115 41.1094 577.787 43.4653 581.132 45.1743C584.037 46.6636 587.589 47.4082 591.789 47.4082C595.939 47.4082 599.32 46.688 601.933 45.2476C605.033 43.563 606.583 41.085 606.583 37.8135C606.583 36.6416 606.181 35.4453 605.375 34.2246C604.813 33.3457 604.386 32.833 604.093 32.6865C600.504 37.252 596.134 39.5347 590.983 39.5347C588.468 39.5347 586.393 38.8633 584.757 37.5205C583.195 36.251 582.414 34.7495 582.414 33.0161C582.414 31.063 583.195 29.4028 584.757 28.0356C586.588 26.4487 589.14 25.6553 592.411 25.6553C594.12 25.6553 595.927 25.8994 597.831 26.3877C599.418 26.7783 600.211 26.9858 600.211 27.0103C600.285 26.7661 600.321 26.4976 600.321 26.2046C600.321 25.0083 599.821 23.8853 598.82 22.8354C597.721 21.6636 596.403 21.0776 594.865 21.0776H573.258V14.7788H601.09V21.0776H599.955C603.007 23.2261 604.533 26.0947 604.533 29.6836C604.533 29.6104 604.948 29.9521 605.778 30.709C606.754 31.6123 607.536 32.6743 608.122 33.895C608.927 35.604 609.33 37.5571 609.33 39.7544ZM599.955 29.6104C599.735 29.3906 599.162 29.0977 598.234 28.7314C596.769 28.1699 595.219 27.8892 593.583 27.8892C591.679 27.8892 590.116 28.292 588.896 29.0977C587.821 29.7812 587.235 30.6113 587.138 31.5879C587.064 32.3936 587.333 33.126 587.943 33.7852C588.651 34.5664 589.616 34.957 590.836 34.957C593.668 34.957 596.037 34.0903 597.941 32.3569C599.503 30.9409 600.175 30.0254 599.955 29.6104ZM639.103 37.3374C639.103 42.147 638.004 46.1509 635.807 49.3491C633.415 52.8403 630.18 54.5859 626.103 54.5859C618.852 54.5859 615.226 50.3379 615.226 41.8418C615.226 38.79 616.081 36.4097 617.79 34.7007C619.352 33.1138 621.403 32.3203 623.942 32.3203C625.797 32.3203 627.299 32.9917 628.446 34.3345C629.447 35.5552 629.948 36.9834 629.948 38.6191C629.948 39.8643 629.582 40.8896 628.849 41.6953C628.043 42.5986 626.981 43.0503 625.663 43.0503C623.319 43.0503 622.147 41.9517 622.147 39.7544C622.147 38.9976 622.416 38.3506 622.953 37.8135C623.49 37.252 624.174 36.9712 625.004 36.9712C625.614 36.9712 626.2 37.0933 626.762 37.3374C627.128 37.4839 627.311 37.5327 627.311 37.4839C627.531 35.5552 626.359 34.5908 623.795 34.5908C622.16 34.5908 620.695 35.189 619.401 36.3853C618.034 37.6548 617.35 39.2295 617.35 41.1094C617.35 43.1846 617.899 44.918 618.998 46.3096C620.512 48.2383 622.904 49.2026 626.176 49.2026C629.716 49.2026 632.499 48.0063 634.525 45.6138C636.381 43.4409 637.309 40.7065 637.309 37.4106C637.309 33.3823 635.734 29.6836 632.584 26.3145C629.289 22.8232 625.48 21.0776 621.159 21.0776H595.817V14.7788H618.302C624.04 14.7788 628.983 17.1958 633.134 22.0298C637.113 26.5952 639.103 31.6978 639.103 37.3374ZM692.021 41.4756C692.021 45.2354 691.093 48.3115 689.237 50.7041C687.211 53.292 684.44 54.5859 680.924 54.5859C676.237 54.5859 672.233 51.4365 668.913 45.1377C667.082 51.4365 663.407 54.5859 657.89 54.5859C654.081 54.5859 651.139 53.2798 649.064 50.6675C647.208 48.3237 646.281 45.2598 646.281 41.4756C646.281 37.1299 647.514 33.0649 649.979 29.2808C652.714 25.1304 656.327 22.396 660.819 21.0776H646.72V14.7788H680.558C685.954 14.7788 688.651 12.6548 688.651 8.40674C688.651 6.64893 687.602 4.84229 685.502 2.98682L687.15 1.33887C690.397 4.46387 692.021 7.4668 692.021 10.3477C692.021 17.501 688.2 21.0776 680.558 21.0776H678.068C682.511 23.0552 686.002 26.0215 688.542 29.9766C690.861 33.6143 692.021 37.4473 692.021 41.4756ZM687.809 38.2529C687.809 33.8584 686.32 30.0376 683.341 26.7905C679.85 22.9819 675.041 21.0776 668.913 21.0776C663.322 21.0776 658.769 22.9819 655.253 26.7905C652.152 30.1597 650.602 33.9805 650.602 38.2529C650.602 40.8652 651.261 42.9526 652.58 44.5151C654.02 46.2485 656.071 47.1152 658.732 47.1152C663.322 47.1152 666.715 44.6128 668.913 39.6079C671.159 44.6616 674.516 47.1885 678.983 47.1885C681.669 47.1885 683.83 46.3218 685.465 44.5884C687.028 42.9526 687.809 40.8408 687.809 38.2529ZM736.259 36.3853C736.259 41.3657 734.489 45.626 730.949 49.166C727.433 52.6816 723.173 54.4395 718.168 54.4395C713.212 54.4395 708.976 52.6816 705.46 49.166C701.945 45.626 700.187 41.3657 700.187 36.3853C700.187 30.1841 702.934 25.0815 708.427 21.0776H700.114V14.7788H724.796C730.192 14.7788 732.89 12.6548 732.89 8.40674C732.89 6.64893 731.84 4.84229 729.74 2.98682L731.315 1.33887C734.562 4.46387 736.186 7.4668 736.186 10.3477C736.186 16.2314 733.305 19.8081 727.543 21.0776C733.354 23.9341 736.259 29.0366 736.259 36.3853ZM731.974 34.2612C731.974 30.4771 730.644 27.3398 727.982 24.8496C725.321 22.335 722.05 21.0776 718.168 21.0776C714.359 21.0776 711.137 22.335 708.5 24.8496C705.863 27.3398 704.545 30.4771 704.545 34.2612C704.545 38.0454 705.863 41.207 708.5 43.7461C711.137 46.2852 714.359 47.5547 718.168 47.5547C722.025 47.5547 725.285 46.2852 727.946 43.7461C730.631 41.1826 731.974 38.021 731.974 34.2612ZM760.648 36.1655C760.648 41.3413 759.586 45.5894 757.462 48.9097C755.045 52.6938 751.603 54.5859 747.135 54.5859C742.399 54.5859 738.859 52.0957 736.515 47.1152C735.563 45.04 734.879 42.5376 734.464 39.6079C734.708 40.2671 734.965 40.9263 735.233 41.5854C736.039 43.0991 737.26 44.3076 738.896 45.2109C741.166 46.5293 744.12 47.1885 747.758 47.1885C750.663 47.1885 753.153 46.3706 755.229 44.7349C757.646 42.8306 758.854 40.2427 758.854 36.9712C758.854 29.3052 753.446 23.9829 742.631 21.0044C740.458 20.394 739.372 19.21 739.372 17.4521C739.372 16.5488 739.689 15.7676 740.324 15.1084C740.983 14.4248 741.801 14.083 742.777 14.083C746.684 14.083 750.565 16.2437 754.423 20.5649C758.573 25.228 760.648 30.4282 760.648 36.1655ZM841.288 25.9482C841.288 29.7568 839.945 33.6021 837.26 37.4839C837.504 38.021 837.626 38.5703 837.626 39.1318C837.626 39.9131 837.235 41.1094 836.454 42.7207C835.673 44.332 835.282 45.6382 835.282 46.6392C835.282 48.1528 835.966 48.9097 837.333 48.9097C838.798 48.9097 839.591 47.811 839.713 45.6138L840.995 46.3462V48.9097C840.995 50.4233 840.495 51.6196 839.494 52.4985C838.59 53.2554 837.467 53.6582 836.125 53.707C834.708 53.7559 833.476 53.3164 832.426 52.3887C831.278 51.3633 830.705 49.9961 830.705 48.2871C830.705 47.7744 831.132 46.5415 831.986 44.5884C832.89 42.4888 833.39 41.146 833.488 40.5601C830.949 41.9761 828.751 42.6841 826.896 42.6841C824.503 42.6841 822.55 41.9517 821.037 40.4868C819.718 39.2417 819.047 37.8501 819.022 36.312C818.998 34.7495 819.694 33.4189 821.11 32.3203C822.697 31.0752 824.821 30.4526 827.482 30.4526C829.679 30.4526 831.767 31.0142 833.744 32.1372C835.502 33.1138 836.295 33.6509 836.125 33.7485C836.93 33.48 837.614 32.772 838.175 31.6245C838.761 30.4771 839.054 29.2563 839.054 27.9624C839.054 25.5942 838.102 23.4824 836.198 21.627C834.318 19.7471 832.121 18.8071 829.606 18.8071C826.652 18.8071 824.308 19.5151 822.575 20.9312C821.427 21.8833 819.865 23.9341 817.887 27.0835C816.081 21.5659 812.431 18.8071 806.938 18.8071C804.301 18.8071 802.091 19.5029 800.309 20.8945C798.527 22.2617 797.636 23.873 797.636 25.7285C797.636 29.6836 800.59 31.6611 806.498 31.6611C806.742 32.0518 806.864 32.6011 806.864 33.3091C806.864 34.8472 805.985 35.6162 804.228 35.6162C801.444 35.6162 799.21 34.5054 797.526 32.2837C795.963 30.2329 795.182 27.7183 795.182 24.7397C795.158 21.4927 796.073 18.7461 797.929 16.5C800.004 13.9609 802.86 12.6914 806.498 12.6914C808.817 12.6914 810.966 13.5825 812.943 15.3647C814.335 16.6099 815.58 18.2578 816.679 20.3086C817.484 21.7979 817.887 22.6523 817.887 22.8721C820.036 19.332 821.769 16.915 823.087 15.6211C825.138 13.668 827.531 12.6914 830.265 12.6914C833.292 12.6914 835.868 13.8877 837.992 16.2803C840.189 18.7949 841.288 22.0176 841.288 25.9482ZM834.55 35.25C833.28 33.2969 831.229 32.3203 828.397 32.3203C827.104 32.3203 826.054 32.6377 825.248 33.2725C824.442 33.8828 824.04 34.5908 824.04 35.3965C824.04 37.7891 825.443 38.9854 828.251 38.9854C830.766 38.9854 832.865 37.7402 834.55 35.25ZM886.405 36.3853C886.405 41.3657 884.635 45.626 881.095 49.166C877.58 52.6816 873.319 54.4395 868.314 54.4395C863.358 54.4395 859.123 52.6816 855.607 49.166C852.091 45.626 850.333 41.3657 850.333 36.3853C850.333 30.1841 853.08 25.0815 858.573 21.0776H850.26V14.7788H874.943C880.338 14.7788 883.036 12.6548 883.036 8.40674C883.036 6.64893 881.986 4.84229 879.887 2.98682L881.461 1.33887C884.708 4.46387 886.332 7.4668 886.332 10.3477C886.332 16.2314 883.451 19.8081 877.689 21.0776C883.5 23.9341 886.405 29.0366 886.405 36.3853ZM882.121 34.2612C882.121 30.4771 880.79 27.3398 878.129 24.8496C875.468 22.335 872.196 21.0776 868.314 21.0776C864.506 21.0776 861.283 22.335 858.646 24.8496C856.01 27.3398 854.691 30.4771 854.691 34.2612C854.691 38.0454 856.01 41.207 858.646 43.7461C861.283 46.2852 864.506 47.5547 868.314 47.5547C872.172 47.5547 875.431 46.2852 878.092 43.7461C880.778 41.1826 882.121 38.021 882.121 34.2612ZM910.795 36.1655C910.795 41.3413 909.733 45.5894 907.609 48.9097C905.192 52.6938 901.75 54.5859 897.282 54.5859C892.545 54.5859 889.005 52.0957 886.662 47.1152C885.709 45.04 885.026 42.5376 884.611 39.6079C884.855 40.2671 885.111 40.9263 885.38 41.5854C886.186 43.0991 887.406 44.3076 889.042 45.2109C891.312 46.5293 894.267 47.1885 897.904 47.1885C900.81 47.1885 903.3 46.3706 905.375 44.7349C907.792 42.8306 909 40.2427 909 36.9712C909 29.3052 903.593 23.9829 892.777 21.0044C890.604 20.394 889.518 19.21 889.518 17.4521C889.518 16.5488 889.835 15.7676 890.47 15.1084C891.129 14.4248 891.947 14.083 892.924 14.083C896.83 14.083 900.712 16.2437 904.569 20.5649C908.72 25.228 910.795 30.4282 910.795 36.1655ZM990.849 41.0361C990.849 44.6982 990.006 47.7866 988.322 50.3013C986.417 53.1577 983.781 54.5859 980.412 54.5859C977.628 54.5859 975.187 53.6094 973.087 51.6562C971.598 50.2158 970.341 48.3726 969.315 46.1265C968.607 44.5151 968.253 43.4897 968.253 43.0503C968.253 43.4653 967.899 44.4907 967.191 46.1265C966.166 48.3726 964.909 50.2158 963.419 51.6562C961.369 53.6094 959.013 54.5859 956.352 54.5859C952.738 54.5859 949.931 53.1943 947.929 50.4111C946.244 48.0918 945.402 45.333 945.402 42.1348C945.402 38.5947 946.317 35.8848 948.148 34.0049C949.735 32.3936 951.713 31.5879 954.081 31.5879C956.01 31.5879 957.694 32.1738 959.135 33.3457C960.575 34.5176 961.295 35.9824 961.295 37.7402C961.295 38.9121 960.893 39.8765 960.087 40.6333C959.403 41.2437 958.683 41.5488 957.926 41.5488C958.122 40.8652 958.219 40.2671 958.219 39.7544C958.219 38.6313 957.743 37.7524 956.791 37.1177C955.863 36.4829 954.74 36.1655 953.422 36.1655C951.908 36.1655 950.602 36.5684 949.503 37.374C948.258 38.2529 947.636 39.4248 947.636 40.8896C947.636 42.8672 948.356 44.4175 949.796 45.5405C951.237 46.6392 953.19 47.1885 955.656 47.1885C962.174 47.1885 966.374 44.0879 968.253 37.8867C968.253 39.1074 968.961 40.6821 970.377 42.6108C972.599 45.6626 975.797 47.1885 979.972 47.1885C982.584 47.1885 984.696 46.2241 986.308 44.2954C987.919 42.3667 988.725 39.7788 988.725 36.5317C988.725 32.4546 986.344 28.6094 981.583 24.9961C976.603 21.2363 971.073 19.3564 964.994 19.3564C963.31 19.3564 961.649 19.5273 960.014 19.8691C959.623 19.9424 959.245 19.979 958.878 19.979C956.73 19.979 955.656 18.9902 955.656 17.0127C955.656 15.8896 956.303 14.9131 957.597 14.083C959.086 13.1553 961.112 12.6914 963.676 12.6914C969.511 12.6914 975.114 14.791 980.485 18.9902C987.394 24.4102 990.849 31.7588 990.849 41.0361ZM1029.67 33.6753C1029.67 47.5669 1024.76 54.5127 1014.95 54.5127C1010.31 54.5127 1006.72 52.6328 1004.18 48.873C1001.71 45.2109 1000.48 40.145 1000.48 33.6753C1000.48 27.6694 1001.7 22.9819 1004.14 19.6128C1006.66 16.146 1010.23 14.4126 1014.87 14.4126C1024.74 14.4126 1029.67 20.8335 1029.67 33.6753ZM1027.62 34.2612C1027.62 31.0142 1026.31 28.0356 1023.7 25.3257C1021.11 22.5913 1018.19 21.2241 1014.95 21.2241C1011.7 21.2241 1008.81 22.5059 1006.27 25.0693C1003.65 27.7061 1002.35 30.77 1002.35 34.2612C1002.35 38.2407 1003.65 41.4023 1006.27 43.7461C1008.63 45.8701 1011.53 46.9321 1014.95 46.9321C1018.56 46.9321 1021.49 45.98 1023.73 44.0757C1026.32 41.854 1027.62 38.5825 1027.62 34.2612ZM1083.94 41.4756C1083.94 45.2354 1083.01 48.3115 1081.16 50.7041C1079.13 53.292 1076.36 54.5859 1072.84 54.5859C1068.16 54.5859 1064.15 51.4365 1060.83 45.1377C1059 51.4365 1055.33 54.5859 1049.81 54.5859C1046 54.5859 1043.06 53.2798 1040.98 50.6675C1039.13 48.3237 1038.2 45.2598 1038.2 41.4756C1038.2 37.1299 1039.43 33.0649 1041.9 29.2808C1044.63 25.1304 1048.25 22.396 1052.74 21.0776H1038.64V14.7788H1075.63V21.0776H1069.99C1074.43 23.0552 1077.92 26.0215 1080.46 29.9766C1082.78 33.6143 1083.94 37.4473 1083.94 41.4756ZM1079.73 38.2529C1079.73 33.8584 1078.24 30.0376 1075.26 26.7905C1071.77 22.9819 1066.96 21.0776 1060.83 21.0776C1055.24 21.0776 1050.69 22.9819 1047.17 26.7905C1044.07 30.1597 1042.52 33.9805 1042.52 38.2529C1042.52 40.8652 1043.18 42.9526 1044.5 44.5151C1045.94 46.2485 1047.99 47.1152 1050.65 47.1152C1055.24 47.1152 1058.63 44.6128 1060.83 39.6079C1063.08 44.6616 1066.43 47.1885 1070.9 47.1885C1073.59 47.1885 1075.75 46.3218 1077.38 44.5884C1078.95 42.9526 1079.73 40.8408 1079.73 38.2529ZM1085.18 9.98145C1085.18 13.5703 1083.98 16.4023 1081.56 18.4775C1079.53 20.2109 1077.25 21.0776 1074.71 21.0776H1069.44V14.7788H1074.71C1076.86 14.7788 1078.62 14.2173 1079.98 13.0942C1081.35 11.9468 1082.04 10.4575 1082.04 8.62646C1082.04 6.64893 1081.42 5.06201 1080.2 3.86572C1079.08 2.7915 1077.75 2.25439 1076.21 2.25439C1074.7 2.25439 1073.44 2.6084 1072.44 3.31641C1071.34 4.07324 1070.79 5.12305 1070.79 6.46582C1070.79 8.12598 1071.5 8.91943 1072.92 8.84619C1072.92 6.74658 1073.61 5.69678 1075 5.69678C1076.49 5.69678 1077.24 6.55127 1077.24 8.26025C1077.24 10.0425 1075.94 10.9336 1073.36 10.9336C1070.74 10.9336 1069.44 9.49316 1069.44 6.6123C1069.44 4.58594 1070.19 2.99902 1071.71 1.85156C1073.08 0.826172 1074.77 0.313477 1076.8 0.313477C1079.04 0.313477 1080.96 1.11914 1082.55 2.73047C1084.31 4.5127 1085.18 6.92969 1085.18 9.98145ZM1122.03 33.6753C1122.03 47.5669 1117.12 54.5127 1107.3 54.5127C1102.67 54.5127 1099.08 52.6328 1096.54 48.873C1094.07 45.2109 1092.84 40.145 1092.84 33.6753C1092.84 27.6694 1094.06 22.9819 1096.5 19.6128C1099.02 16.146 1102.59 14.4126 1107.23 14.4126C1117.09 14.4126 1122.03 20.8335 1122.03 33.6753ZM1119.97 34.2612C1119.97 31.0142 1118.67 28.0356 1116.06 25.3257C1113.47 22.5913 1110.55 21.2241 1107.3 21.2241C1104.06 21.2241 1101.16 22.5059 1098.62 25.0693C1096.01 27.7061 1094.71 30.77 1094.71 34.2612C1094.71 38.2407 1096.01 41.4023 1098.62 43.7461C1100.99 45.8701 1103.89 46.9321 1107.3 46.9321C1110.92 46.9321 1113.85 45.98 1116.09 44.0757C1118.68 41.854 1119.97 38.5825 1119.97 34.2612ZM1176.3 41.4756C1176.3 45.2354 1175.37 48.3115 1173.51 50.7041C1171.49 53.292 1168.72 54.5859 1165.2 54.5859C1162.96 54.5859 1160.81 53.7925 1158.76 52.2056C1157.29 51.0581 1155.94 49.5566 1154.69 47.7012C1154.18 46.8467 1153.68 45.9922 1153.19 45.1377C1151.09 51.4365 1147.42 54.5859 1142.17 54.5859C1138.36 54.5859 1135.42 53.2798 1133.34 50.6675C1131.49 48.3237 1130.56 45.2598 1130.56 41.4756C1130.56 37.667 1131.4 34.1025 1133.08 30.7822C1134.96 27.1201 1137.61 24.3613 1141.03 22.5059C1136.34 21.4316 1134 19.1855 1134 15.7676C1134 12.8379 1135.39 10.604 1138.18 9.06592C1140.52 7.77197 1143.42 7.125 1146.89 7.125C1155.07 7.125 1162.1 10.8115 1167.98 18.1846C1173.53 25.1426 1176.3 32.9062 1176.3 41.4756ZM1171.06 26.8638C1169.96 23.7388 1168.46 21.041 1166.56 18.7705C1162.06 13.3994 1156.11 10.7139 1148.69 10.7139C1146.1 10.7139 1143.89 11.1899 1142.06 12.1421C1140.03 13.1919 1139.02 14.5713 1139.02 16.2803C1139.02 17.8184 1139.82 19.0635 1141.43 20.0156C1142.53 20.6748 1143.4 21.0044 1144.03 21.0044C1147.26 19.9058 1150.24 19.3564 1152.97 19.3564C1160.03 19.3564 1166.06 21.8589 1171.06 26.8638ZM1172.09 37.96C1172.09 33.5898 1170.6 29.8179 1167.62 26.644C1164.13 22.9331 1159.32 21.0776 1153.19 21.0776C1147.6 21.0776 1143.05 22.9331 1139.53 26.644C1136.43 29.9399 1134.88 33.7119 1134.88 37.96C1134.88 40.5967 1135.54 42.7329 1136.86 44.3687C1138.3 46.1997 1140.35 47.1152 1143.01 47.1152C1145.21 47.1152 1147.17 46.4683 1148.91 45.1743C1150.17 44.2466 1151.26 43.0503 1152.16 41.5854C1152.51 40.9263 1152.85 40.2671 1153.19 39.6079C1154 40.8774 1154.79 42.147 1155.57 43.4165C1157.69 45.9312 1160.26 47.1885 1163.26 47.1885C1165.95 47.1885 1168.11 46.2852 1169.74 44.4785C1171.31 42.7695 1172.09 40.5967 1172.09 37.96ZM1221.71 54H1215.48C1215.48 42.8916 1214.54 34.7007 1212.66 29.4272C1210.69 23.8608 1207.52 21.0776 1203.18 21.0776C1194.88 21.0776 1190.73 32.0518 1190.73 54H1184.5C1184.5 44.7227 1185.33 37.8989 1186.99 33.5288C1188.38 29.8667 1191.41 25.7163 1196.07 21.0776H1184.5V14.7788H1210.17C1215.57 14.7788 1218.27 12.6548 1218.27 8.40674C1218.27 6.64893 1217.22 4.84229 1215.12 2.98682L1216.76 1.33887C1220.01 4.46387 1221.63 7.4668 1221.63 10.3477C1221.63 17.501 1217.84 21.0776 1210.25 21.0776C1214.88 25.7163 1217.89 29.8667 1219.25 33.5288C1220.89 37.8745 1221.71 44.6982 1221.71 54ZM1272.94 36.312C1272.94 42.8062 1271.85 47.4814 1269.68 50.3379C1267.53 53.1699 1264.12 54.5859 1259.43 54.5859C1256.13 54.5859 1253.42 53.0479 1251.3 49.9717C1249.32 47.1396 1248.33 43.8071 1248.33 39.9741C1248.33 37.1665 1249.1 34.9814 1250.64 33.4189C1251.93 32.1006 1253.53 31.417 1255.44 31.3682C1257.12 31.2949 1258.6 31.7832 1259.87 32.833C1261.14 33.8828 1261.76 35.2622 1261.73 36.9712C1261.73 38.314 1261.32 39.3638 1260.49 40.1206C1259.78 40.8042 1258.92 41.146 1257.89 41.146C1255.72 41.146 1254.63 40.1328 1254.63 38.1064C1254.63 36.8857 1255.23 35.8604 1256.42 35.0303C1255.99 34.6885 1255.42 34.5176 1254.74 34.5176C1253.62 34.5176 1252.64 34.9082 1251.81 35.6895C1250.83 36.6172 1250.35 37.8989 1250.35 39.5347C1250.35 41.5854 1251.24 43.4043 1253.02 44.9912C1254.83 46.5537 1256.91 47.335 1259.28 47.335C1262.24 47.335 1264.9 46.3096 1267.26 44.2588C1269.83 42.0371 1271.11 39.3394 1271.11 36.1655C1271.11 30.3794 1269.46 25.8872 1266.17 22.689C1263.19 19.8081 1259.34 18.3677 1254.63 18.3677C1250.99 18.3677 1247.87 19.6982 1245.26 22.3594C1242.59 25.0938 1241.26 28.4263 1241.26 32.3569C1241.26 33.0894 1241.31 33.834 1241.41 34.5908C1242.31 40.9629 1242.77 44.1855 1242.77 44.2588C1242.77 47.1396 1242.06 49.5078 1240.64 51.3633C1239.03 53.4629 1236.71 54.5127 1233.68 54.5127C1229.85 54.5127 1226.62 52.7915 1223.98 49.3491C1221.76 46.4194 1220.65 43.4897 1220.65 40.5601C1223.14 45.0767 1226.66 47.335 1231.23 47.335C1234.28 47.335 1236.47 46.9321 1237.78 46.1265C1239.37 45.1987 1240.17 43.4897 1240.17 40.9995C1240.17 39.9741 1240.03 38.7778 1239.76 37.4106C1239.32 35.1401 1239.1 32.9551 1239.1 30.8555C1239.1 25.3135 1240.54 20.8701 1243.42 17.5254C1246.16 14.3516 1249.66 12.7646 1253.93 12.7646C1259.35 12.7646 1263.83 14.8521 1267.37 19.0269C1271.09 23.4214 1272.94 29.1831 1272.94 36.312ZM1343.55 41.2559C1343.55 45.4062 1342.51 48.7021 1340.43 51.1436C1338.5 53.4385 1336.06 54.5859 1333.11 54.5859C1330.08 54.5859 1327.69 53.231 1325.93 50.521C1325.42 49.7397 1324.3 47.1274 1322.56 42.6841C1321.29 39.4858 1318.81 37.8867 1315.13 37.8867C1313.08 37.8867 1311.27 38.4482 1309.71 39.5713C1308.07 40.7676 1307.25 42.2568 1307.25 44.0391C1307.25 46.2363 1308.07 47.9087 1309.71 49.0562C1310.03 49.3003 1311.54 49.9961 1314.25 51.1436C1315.89 51.8516 1316.7 52.7549 1316.7 53.8535C1316.7 55.3916 1315.78 56.1606 1313.92 56.1606C1311.7 56.1606 1309.68 54.6104 1307.88 51.5098C1306.14 48.5068 1305.23 45.2354 1305.13 41.6953C1305.08 38.7412 1305.72 36.373 1307.04 34.5908C1308.57 32.54 1310.87 31.5146 1313.92 31.5146C1318.61 31.5146 1321.68 34.1147 1323.15 39.3149C1324.61 44.5151 1327.98 47.1152 1333.26 47.1152C1335.4 47.1152 1337.19 46.3706 1338.6 44.8813C1340.14 43.2944 1340.91 41.1826 1340.91 38.5459C1340.91 32.54 1338.55 26.5952 1333.84 20.7114C1328.71 14.3638 1322.95 11.1899 1316.56 11.1899C1317.85 12.4595 1318.5 13.8755 1318.5 15.438C1318.5 17.2446 1317.84 18.6729 1316.52 19.7227C1315.35 20.6748 1313.91 21.1509 1312.2 21.1509C1310.64 21.1509 1309.27 20.5527 1308.1 19.3564C1306.83 18.0381 1306.19 16.3657 1306.19 14.3394C1306.19 12.2397 1307.05 10.5063 1308.76 9.13916C1310.49 7.74756 1312.83 7.05176 1315.79 7.05176C1321.52 7.05176 1326.68 9.17578 1331.24 13.4238C1335.07 16.9883 1338.15 21.6514 1340.47 27.4131C1342.52 32.4668 1343.55 37.0811 1343.55 41.2559ZM1316.48 14.8521C1316.48 13.0942 1315.58 11.9956 1313.77 11.5562C1310.14 11.5562 1308.32 12.8989 1308.32 15.5845C1308.32 17.5376 1309.54 18.5142 1311.98 18.5142C1313.13 18.5142 1314.16 18.1724 1315.09 17.4888C1316.02 16.7808 1316.48 15.9019 1316.48 14.8521ZM1375.11 54H1362.74C1359.24 51.7783 1356.55 48.5068 1354.64 44.1855C1352.91 40.2549 1352.04 36.0312 1352.04 31.5146C1352.04 26.5586 1353.04 22.457 1355.05 19.21C1357.22 15.6943 1360.16 13.9365 1363.87 13.9365C1366.73 13.9365 1368.91 14.8887 1370.43 16.793C1371.77 18.4775 1372.44 20.5771 1372.44 23.0918C1372.42 25.7041 1371.72 27.9624 1370.35 29.8667C1368.89 31.9663 1367.03 33.0161 1364.79 33.0161C1362.56 33.0161 1360.84 32.1128 1359.62 30.3062C1358.55 28.7192 1358.01 26.6929 1358.01 24.2271C1358.01 23.6655 1358.04 22.8843 1358.08 21.8833C1355.55 24.4468 1354.28 27.6572 1354.28 31.5146C1354.28 36.0312 1355.95 40.2915 1359.29 44.2954C1363.1 48.8364 1368.38 52.0713 1375.11 54ZM1370.46 23.3848C1370.46 20.4062 1368.64 18.917 1365.01 18.917C1363.25 18.917 1361.53 19.4663 1359.84 20.5649C1359.84 25.4966 1361.73 27.9624 1365.52 27.9624C1366.94 27.9624 1368.13 27.4863 1369.11 26.5342C1370.01 25.6309 1370.46 24.5811 1370.46 23.3848ZM1436.09 32.1006H1428.07C1429.41 32.8574 1430.63 34.0537 1431.73 35.6895C1433.07 37.7158 1433.74 39.8887 1433.74 42.208C1433.74 46.1875 1432.46 49.3125 1429.9 51.583C1427.6 53.585 1424.8 54.5859 1421.48 54.5859C1418.11 54.5859 1415.29 53.585 1413.02 51.583C1410.45 49.3369 1409.17 46.2119 1409.17 42.208C1409.17 39.8887 1409.84 37.7158 1411.19 35.6895C1412.28 34.0537 1413.5 32.8574 1414.85 32.1006H1406.31V27.1567H1420.78C1421.68 26.5464 1422.14 25.5454 1422.14 24.1538C1422.14 22.9087 1421.63 21.8833 1420.63 21.0776H1406.31V14.7788H1424.7C1430.09 14.7788 1432.79 12.6548 1432.79 8.40674C1432.79 6.64893 1431.74 4.84229 1429.64 2.98682L1431.22 1.33887C1434.46 4.46387 1436.09 7.4668 1436.09 10.3477C1436.09 13.1309 1435.4 15.5601 1434.04 17.6353C1432.52 19.9302 1430.53 21.0776 1428.07 21.0776H1424.22C1425.27 21.9077 1425.8 22.9331 1425.8 24.1538C1425.8 25.3501 1425.46 26.3511 1424.77 27.1567H1436.09V32.1006ZM1430.08 39.6812C1430.08 37.3374 1429.36 35.3965 1427.92 33.8584C1426.33 32.1982 1424.19 31.3682 1421.48 31.3682C1419.01 31.3682 1416.91 32.1982 1415.18 33.8584C1413.47 35.4941 1412.61 37.4351 1412.61 39.6812C1412.61 42.2446 1413.53 44.2344 1415.36 45.6504C1417 46.9199 1419.03 47.5547 1421.48 47.5547C1423.82 47.5547 1425.79 46.9199 1427.37 45.6504C1429.18 44.2344 1430.08 42.2446 1430.08 39.6812ZM1481.31 41.2559C1481.31 45.4062 1480.28 48.7021 1478.2 51.1436C1476.27 53.4385 1473.83 54.5859 1470.88 54.5859C1467.85 54.5859 1465.46 53.231 1463.7 50.521C1463.19 49.7397 1462.06 47.1274 1460.33 42.6841C1459.06 39.4858 1456.58 37.8867 1452.9 37.8867C1450.85 37.8867 1449.04 38.4482 1447.48 39.5713C1445.84 40.7676 1445.02 42.2568 1445.02 44.0391C1445.02 46.2363 1445.84 47.9087 1447.48 49.0562C1447.79 49.3003 1449.31 49.9961 1452.02 51.1436C1453.65 51.8516 1454.47 52.7549 1454.47 53.8535C1454.47 55.3916 1453.54 56.1606 1451.69 56.1606C1449.47 56.1606 1447.45 54.6104 1445.65 51.5098C1443.91 48.5068 1443 45.2354 1442.9 41.6953C1442.85 38.7412 1443.49 36.373 1444.8 34.5908C1446.34 32.54 1448.64 31.5146 1451.69 31.5146C1456.38 31.5146 1459.45 34.1147 1460.92 39.3149C1462.38 44.5151 1465.75 47.1152 1471.02 47.1152C1473.17 47.1152 1474.96 46.3706 1476.37 44.8813C1477.91 43.2944 1478.68 41.1826 1478.68 38.5459C1478.68 34.2979 1477.27 30.6602 1474.47 27.6328C1472.42 25.4355 1469.21 23.2505 1464.84 21.0776H1443.23V14.7788H1469.93C1475.32 14.7788 1478.02 12.6548 1478.02 8.40674C1478.02 6.64893 1476.97 4.84229 1474.87 2.98682L1476.44 1.33887C1479.69 4.46387 1481.31 7.4668 1481.31 10.3477C1481.31 17.501 1477.52 21.0776 1469.93 21.0776H1468.72C1477.12 25.936 1481.31 32.6621 1481.31 41.2559ZM1495.08 73.9219C1495.08 75.1426 1494.63 76.2412 1493.73 77.2178C1492.83 78.2188 1491.78 78.7192 1490.58 78.7192C1488.8 78.7192 1487.24 78.2432 1485.89 77.291C1484.16 76.0947 1483.29 74.3491 1483.29 72.0542C1483.29 71.7368 1483.27 71.2852 1483.22 70.6992C1483.17 70.1377 1483.15 69.7349 1483.15 69.4907C1479.73 71.7856 1476.29 72.9331 1472.82 72.9331C1469.91 72.9331 1467.58 72.0664 1465.82 70.333C1464.29 68.7949 1463.52 67.0371 1463.52 65.0596C1463.52 63.2041 1464.29 61.6294 1465.82 60.3354C1467.53 58.895 1469.84 58.1748 1472.75 58.1748C1477.56 58.1748 1481.16 59.9692 1483.55 63.5581C1484.16 63.1187 1484.7 62.0811 1485.16 60.4453C1485.67 58.6387 1485.93 56.6489 1485.93 54.4761C1485.93 52.0591 1485.38 50.1182 1484.28 48.6533C1487.58 49.5322 1489.23 51.9004 1489.23 55.7578C1489.23 57.6133 1488.87 59.7861 1488.16 62.2764C1487.38 64.9619 1486.52 66.7686 1485.56 67.6963C1486.42 68.4043 1486.84 69.8569 1486.84 72.0542C1486.84 73.5923 1488.37 74.3613 1491.42 74.3613C1492.08 74.3613 1492.75 74.0439 1493.44 73.4092C1494.14 72.7744 1494.5 72.0908 1494.5 71.3584C1494.89 71.9932 1495.08 72.8477 1495.08 73.9219ZM1482.34 64.7666C1480.31 61.5684 1477.62 59.9692 1474.25 59.9692C1472.03 59.9692 1470.27 60.3721 1468.97 61.1777C1467.78 61.9346 1467.18 62.8501 1467.18 63.9243C1467.18 64.9985 1467.7 65.9507 1468.75 66.7808C1469.95 67.7329 1471.5 68.209 1473.4 68.209C1476.94 68.209 1479.92 67.0615 1482.34 64.7666ZM1542.73 41.4023C1542.73 45.1133 1541.9 48.1406 1540.24 50.4844C1538.26 53.2188 1535.36 54.5859 1531.52 54.5859C1527.35 54.5859 1523.55 51.5952 1520.13 45.6138C1517.5 51.5952 1513.94 54.5859 1509.48 54.5859C1506.35 54.5859 1503.69 53.4263 1501.49 51.1069C1499.03 48.4946 1497.79 44.9546 1497.79 40.4868C1497.79 35.4331 1499.17 31.1362 1501.93 27.5962C1504.25 24.6421 1507.32 22.4692 1511.12 21.0776H1498.6V14.7788H1531.23C1536.62 14.7788 1539.32 12.6548 1539.32 8.40674C1539.32 6.64893 1538.27 4.84229 1536.17 2.98682L1537.86 1.33887C1541.1 4.46387 1542.73 7.4668 1542.73 10.3477C1542.73 17.501 1539.03 21.0776 1531.63 21.0776C1533.61 21.9565 1535.31 23.2993 1536.72 25.106C1538.16 26.8882 1538.88 28.5483 1538.88 30.0864C1538.88 31.0874 1538.98 31.6855 1539.18 31.8809C1539.74 31.8809 1540.46 33.0039 1541.34 35.25C1542.26 37.5938 1542.73 39.6445 1542.73 41.4023ZM1536.65 31.5146C1535.11 30.5137 1533.46 30.0132 1531.71 30.0132C1530.24 30.0132 1529.04 30.3306 1528.12 30.9653C1527.19 31.6001 1526.73 32.3569 1526.73 33.2358C1526.73 35.0669 1527.91 35.9824 1530.28 35.9824C1533.11 35.9824 1535.23 34.4932 1536.65 31.5146ZM1540.09 39.7544C1540.09 38.4849 1539.96 37.1909 1539.69 35.8726C1539.35 34.2612 1538.93 33.4556 1538.44 33.4556C1536.27 37.0444 1533.34 38.8389 1529.65 38.8389C1527.77 38.8389 1526.27 38.3262 1525.15 37.3008C1524.05 36.2754 1523.5 35.0669 1523.5 33.6753C1523.5 32.1372 1524.05 30.8433 1525.15 29.7935C1526.4 28.5728 1528.1 27.9624 1530.28 27.9624C1531.96 27.9624 1533.51 28.2676 1534.93 28.8779C1535.98 29.3418 1536.5 29.6104 1536.5 29.6836C1536.5 27.4863 1534.99 25.5332 1531.96 23.8242C1528.71 21.9932 1524.72 21.0776 1519.99 21.0776C1514.42 21.0776 1510 22.4448 1506.73 25.1792C1503.21 28.1089 1501.46 32.2959 1501.46 37.7402C1501.46 43.9902 1504.44 47.1152 1510.39 47.1152C1514.47 47.1152 1517.72 44.5151 1520.13 39.3149C1522.7 44.5151 1526.25 47.1152 1530.79 47.1152C1536.99 47.1152 1540.09 44.6616 1540.09 39.7544ZM1596.34 42.208C1596.34 45.748 1595.4 48.6655 1593.52 50.9604C1591.52 53.3774 1588.79 54.5859 1585.32 54.5859C1583 54.5859 1580.89 53.6826 1578.98 51.876C1577.62 50.582 1576.42 48.8853 1575.39 46.7856C1575 45.8823 1574.61 44.9668 1574.22 44.0391C1572.05 51.0703 1568.27 54.5859 1562.87 54.5859C1559.45 54.5859 1556.61 52.999 1554.34 49.8252C1552.34 47.042 1551.33 44.0879 1551.33 40.9629C1551.33 37.6426 1552.26 35.1157 1554.12 33.3823C1555.7 31.8687 1557.71 31.1118 1560.12 31.1118C1562.05 31.1118 1563.7 31.7466 1565.07 33.0161C1566.56 34.3589 1567.3 36.0801 1567.3 38.1797C1567.3 39.6445 1566.63 40.8896 1565.29 41.915C1564.09 42.8428 1562.88 43.3066 1561.66 43.3066C1560.69 43.3066 1560.2 42.9404 1560.2 42.208C1562.54 41.5977 1563.71 40.4258 1563.71 38.6924C1563.71 37.2764 1563.26 36.1533 1562.36 35.3232C1561.55 34.5664 1560.55 34.188 1559.35 34.188C1557.91 34.188 1556.66 34.7129 1555.58 35.7627C1554.41 36.959 1553.82 38.5337 1553.82 40.4868C1553.82 44.9058 1556.84 47.1152 1562.87 47.1152C1567.46 47.1152 1570.72 45.7114 1572.65 42.9038C1573.7 41.4146 1574.22 39.9619 1574.22 38.5459C1574.44 39.3027 1574.67 40.0596 1574.92 40.8164C1575.63 42.501 1576.64 43.8682 1577.96 44.918C1579.81 46.3828 1582.16 47.1152 1584.99 47.1152C1587.7 47.1152 1589.82 46.334 1591.36 44.7715C1592.83 43.3066 1593.56 41.3779 1593.56 38.9854C1593.56 35.5918 1592.18 32.2959 1589.42 29.0977C1586.3 25.4844 1582.02 22.811 1576.6 21.0776H1550.9V14.7788H1586.42V21.0776H1581.77C1586.5 23.0552 1590.19 26.1436 1592.83 30.3428C1595.17 34.0537 1596.34 38.0088 1596.34 42.208ZM1626.33 37.3374C1626.33 42.147 1625.24 46.1509 1623.04 49.3491C1620.65 52.8403 1617.41 54.5859 1613.33 54.5859C1606.08 54.5859 1602.46 50.3379 1602.46 41.8418C1602.46 38.79 1603.31 36.4097 1605.02 34.7007C1606.58 33.1138 1608.63 32.3203 1611.17 32.3203C1613.03 32.3203 1614.53 32.9917 1615.68 34.3345C1616.68 35.5552 1617.18 36.9834 1617.18 38.6191C1617.18 39.8643 1616.81 40.8896 1616.08 41.6953C1615.27 42.5986 1614.21 43.0503 1612.89 43.0503C1610.55 43.0503 1609.38 41.9517 1609.38 39.7544C1609.38 38.9976 1609.65 38.3506 1610.18 37.8135C1610.72 37.252 1611.41 36.9712 1612.24 36.9712C1612.85 36.9712 1613.43 37.0933 1613.99 37.3374C1614.36 37.4839 1614.54 37.5327 1614.54 37.4839C1614.76 35.5552 1613.59 34.5908 1611.03 34.5908C1609.39 34.5908 1607.93 35.189 1606.63 36.3853C1605.27 37.6548 1604.58 39.2295 1604.58 41.1094C1604.58 43.1846 1605.13 44.918 1606.23 46.3096C1607.74 48.2383 1610.14 49.2026 1613.41 49.2026C1616.95 49.2026 1619.73 48.0063 1621.76 45.6138C1623.61 43.4409 1624.54 40.7065 1624.54 37.4106C1624.54 33.3823 1622.97 29.6836 1619.82 26.3145C1616.52 22.8232 1612.71 21.0776 1608.39 21.0776H1583.05V14.7788H1605.53C1611.27 14.7788 1616.21 17.1958 1620.37 22.0298C1624.34 26.5952 1626.33 31.6978 1626.33 37.3374ZM1670.76 54H1664.09C1664.09 42.8672 1663.15 34.6274 1661.27 29.2808C1659.27 23.6655 1656.11 20.8579 1651.79 20.8579C1643.49 20.8579 1639.33 31.9053 1639.33 54H1633.11C1633.11 44.1855 1633.66 37.3862 1634.76 33.6021C1635.88 29.6958 1638.48 25.7896 1642.56 21.8833C1640.46 21.8833 1638.64 21.0776 1637.1 19.4663C1635.59 17.855 1634.83 15.9873 1634.83 13.8633C1634.83 12.0322 1635.89 10.4575 1638.02 9.13916C1640.26 7.74756 1643.16 7.05176 1646.7 7.05176C1655.29 7.05176 1661.72 12.7524 1666 24.1538C1669.17 32.6499 1670.76 42.5986 1670.76 54ZM1663.65 26.0215C1663.26 24.6787 1662.87 23.3237 1662.48 21.9565C1661.26 18.8315 1659.65 16.2803 1657.65 14.3027C1654.86 11.5684 1651.49 10.2012 1647.54 10.2012C1642.97 10.2012 1640.69 11.7759 1640.69 14.9253C1640.69 17.4399 1641.72 19.4663 1643.77 21.0044C1645.57 19.1978 1648.2 18.2944 1651.64 18.2944C1657.04 18.2944 1661.04 20.8701 1663.65 26.0215ZM1715.87 36.3853C1715.87 41.3657 1714.1 45.626 1710.56 49.166C1707.05 52.6816 1702.79 54.4395 1697.78 54.4395C1692.83 54.4395 1688.59 52.6816 1685.07 49.166C1681.56 45.626 1679.8 41.3657 1679.8 36.3853C1679.8 30.1841 1682.55 25.0815 1688.04 21.0776H1679.73V14.7788H1704.41C1709.81 14.7788 1712.5 12.6548 1712.5 8.40674C1712.5 6.64893 1711.45 4.84229 1709.35 2.98682L1710.93 1.33887C1714.18 4.46387 1715.8 7.4668 1715.8 10.3477C1715.8 16.2314 1712.92 19.8081 1707.16 21.0776C1712.97 23.9341 1715.87 29.0366 1715.87 36.3853ZM1711.59 34.2612C1711.59 30.4771 1710.26 27.3398 1707.6 24.8496C1704.94 22.335 1701.66 21.0776 1697.78 21.0776C1693.97 21.0776 1690.75 22.335 1688.11 24.8496C1685.48 27.3398 1684.16 30.4771 1684.16 34.2612C1684.16 38.0454 1685.48 41.207 1688.11 43.7461C1690.75 46.2852 1693.97 47.5547 1697.78 47.5547C1701.64 47.5547 1704.9 46.2852 1707.56 43.7461C1710.25 41.1826 1711.59 38.021 1711.59 34.2612ZM1740.26 36.1655C1740.26 41.3413 1739.2 45.5894 1737.08 48.9097C1734.66 52.6938 1731.22 54.5859 1726.75 54.5859C1722.01 54.5859 1718.47 52.0957 1716.13 47.1152C1715.18 45.04 1714.49 42.5376 1714.08 39.6079C1714.32 40.2671 1714.58 40.9263 1714.85 41.5854C1715.65 43.0991 1716.87 44.3076 1718.51 45.2109C1720.78 46.5293 1723.73 47.1885 1727.37 47.1885C1730.28 47.1885 1732.77 46.3706 1734.84 44.7349C1737.26 42.8306 1738.47 40.2427 1738.47 36.9712C1738.47 29.3052 1733.06 23.9829 1722.25 21.0044C1720.07 20.394 1718.99 19.21 1718.99 17.4521C1718.99 16.5488 1719.3 15.7676 1719.94 15.1084C1720.6 14.4248 1721.42 14.083 1722.39 14.083C1726.3 14.083 1730.18 16.2437 1734.04 20.5649C1738.19 25.228 1740.26 30.4282 1740.26 36.1655ZM1765.46 49.2026C1765.46 50.7163 1764.95 51.9126 1763.92 52.7915C1762.99 53.5972 1761.78 54 1760.29 54C1756.83 54 1755.09 52.4009 1755.09 49.2026C1755.09 47.5669 1755.64 46.2729 1756.74 45.3208C1757.72 44.4663 1758.93 44.0391 1760.37 44.0391C1761.76 44.0391 1762.93 44.4785 1763.88 45.3574C1764.93 46.3096 1765.46 47.5913 1765.46 49.2026Z" fill="black"/>
</svg>
