<svg width="1547" height="80" viewBox="0 0 1547 80" fill="none" xmlns="http://www.w3.org/2000/svg">
<path d="M37.0859 37.4023C37.0859 29.126 30.1279 19.165 19.874 17.4072C16.6514 16.8213 13.3555 16.1621 10.1328 16.5283C9.18066 16.5283 8.00879 16.0889 8.00879 14.8438C8.00879 13.0127 10.1328 12.793 10.8652 12.793C24.8545 12.793 40.3818 21.5088 40.3818 37.5488C40.3818 45.5322 36.1338 49.8535 28.5166 49.8535C22.3643 49.8535 21.6318 45.2393 17.6768 42.8955C16.7979 45.6055 14.9668 50 8.375 50C4.49316 50 0.0986328 45.2393 0.0986328 41.4307C0.0986328 36.084 5.0791 31.9824 10.2793 31.9824C18.3359 31.9824 21.4121 46.3379 29.0293 46.3379C35.2549 46.3379 37.0859 41.8701 37.0859 37.4023ZM3.54102 41.6504C3.6875 44.1406 6.03125 46.4111 8.44824 46.4844C12.623 46.5576 15.8457 43.4814 15.1133 39.6729C14.4541 36.5967 11.7441 35.4248 9.69336 35.4248C6.17773 35.4248 3.32129 38.1348 3.54102 41.6504ZM62.0615 25.6104C63.0137 21.7285 61.8418 18.2861 57.2275 18.2861C54.8105 18.2861 54.4443 21.0693 54.5908 22.8271C54.8838 25.9766 56.7148 27.7344 59.498 27.7344C60.377 27.7344 61.6953 26.7822 62.0615 25.6104ZM89.3809 18.2861C82.4961 18.3594 85.2061 18.3594 81.1045 18.3594C83.082 21.4355 83.5215 25.2441 83.5215 28.833C83.5215 40.0391 76.5635 50 63.9658 50C53.6387 50 44.0439 43.9941 44.0439 32.7881C44.0439 26.3428 46.5342 18.9453 52.4668 15.6494C53.6387 14.9902 54.8838 14.4043 56.2021 14.4043C61.9883 14.4043 65.2842 17.4072 65.2842 23.2666C65.2842 27.6611 63.8926 31.543 58.7656 31.543C56.2021 31.543 53.6387 30.0049 52.4668 27.7344C51.7344 26.3428 51.5879 24.6582 51.0752 23.1201C48.585 25.5371 47.7793 29.0527 47.7793 32.3486C47.7793 41.4307 55.6895 46.1914 63.8926 46.1914C73.7803 46.1914 80.3721 37.6221 80.3721 28.4668C80.3721 24.4385 79.127 21.2158 75.8311 18.2861C75.3184 18.2861 74.5859 18.2861 73.707 18.2861C72.9014 18.2861 72.8281 17.041 72.8281 16.4551C72.8281 14.1113 74.0732 14.4775 73.707 14.4775C73.5605 14.4043 83.375 14.4775 88.8682 14.4043C102.198 14.4043 109.889 19.6777 109.889 33.3008C109.889 41.8701 105.494 49.9268 95.9727 49.9268C88.7949 49.9268 85.5723 42.9688 86.5244 37.3291C87.1836 33.5205 89.2344 30.0049 93.043 30.1514C96.7051 30.3711 97.877 33.3008 97.584 35.5713C96.998 40.8447 91.2852 37.4756 91.2852 42.1631C91.2852 44.4336 94.1416 46.4111 96.0459 46.4111C103.077 46.4111 106.227 39.1602 106.227 33.1543C106.227 21.8018 99.5615 18.2861 89.3809 18.2861ZM95.8994 62.5244C95.8994 67.2852 100.294 70.5811 97.5107 71.2402C95.0205 71.8994 92.457 65.1611 92.457 62.5244C92.457 57.6904 95.9727 53.5889 100.953 53.5889C108.717 53.5889 107.911 60.4736 109.156 60.4736C110.401 60.4736 109.522 53.2959 117.286 53.2959C122.267 53.2959 124.757 58.3496 124.757 62.6709C124.757 65.8936 122.779 70.6543 118.971 70.6543C118.165 70.6543 117.726 70.0684 117.726 69.4092C117.726 67.2852 122.047 67.5049 122.047 62.9639C122.047 60.0342 120.143 56.0791 116.847 56.0791C109.522 56.0791 113.404 64.9414 109.156 64.9414C106.52 64.9414 107.032 56.1523 100.733 56.1523C96.7783 56.1523 95.8994 59.1553 95.8994 62.5244ZM127.101 16.6748C127.101 16.0156 127.174 14.4775 128.199 14.4775H157.716C160.279 14.4775 164.308 13.5254 164.308 10.2295C164.308 7.73926 163.868 5.32227 163.868 2.83203C163.868 2.39258 163.868 1.00098 164.674 1.00098C167.53 1.00098 167.823 7.15332 167.823 9.2041C167.823 16.3086 163.209 17.7002 157.276 18.2861C163.795 23.0469 167.457 30.5908 167.457 38.5742C167.457 43.6279 163.941 49.8535 158.155 49.8535C154.493 49.8535 151.783 47.4365 149.073 44.1406C145.924 47.6562 144.166 49.9268 139.991 49.9268C133.619 49.9268 128.565 44.0674 128.565 37.915C128.565 31.0303 133.839 22.0947 139.479 18.2861H139.552C138.673 18.2861 137.794 18.2129 136.915 18.2129C134.571 18.2129 132.081 18.3594 129.737 18.3594C128.565 18.3594 127.101 18.2861 127.101 16.6748ZM158.082 46.4844C162.696 46.4844 164.747 40.5518 164.234 36.4502C162.696 23.999 155.519 19.0918 147.755 19.0918C139.259 19.0918 132.228 30.2979 132.228 37.9883C132.228 42.749 135.377 46.4111 140.211 46.4111C143.507 46.4111 147.169 41.7236 148.78 39.1602C151.051 41.4307 153.468 46.4844 158.082 46.4844ZM203.199 32.6416C203.199 26.123 199.464 18.2861 190.382 18.2861C182.984 18.2861 178.15 25.9033 178.15 32.7148C178.15 40.4053 183.863 45.8252 191.48 45.8252C199.61 45.8252 203.199 39.8926 203.199 32.6416ZM216.383 49.4141C210.963 49.4141 207.081 44.5801 205.396 39.9658C203.126 45.8984 198.072 49.9268 191.554 49.9268C182.032 49.9268 174.708 42.0898 174.708 32.7148C174.708 27.5146 177.198 22.0947 180.787 18.2861H179.469C177.491 18.2861 171.485 19.2383 171.485 16.2354C171.485 15.7227 171.559 14.5508 172.364 14.5508L202.101 14.624C205.47 14.624 206.861 12.1338 206.861 9.05762C206.861 7.22656 205.982 5.68848 205.982 4.00391C205.982 3.34473 206.202 1.80664 207.228 1.80664C210.011 1.80664 210.45 7.51953 210.45 9.49707C210.45 15.7227 207.154 18.2861 201.075 18.2861C204.518 22.168 206.788 27.3682 206.788 32.6416C206.788 33.1543 206.788 33.667 206.715 34.2529C208.473 37.7686 211.036 45.6055 215.797 45.6055C220.558 45.6055 220.558 41.5771 220.558 37.915C220.558 34.1797 219.898 30.4443 219.898 26.709C219.898 20.6299 224.806 13.8184 231.324 13.8184C242.97 13.8184 249.708 25.7568 249.708 36.1572C249.708 43.2617 245.533 49.3408 237.989 49.3408C232.716 49.3408 228.102 44.7266 228.102 39.5264C228.102 35.9375 229.933 30.5908 234.254 30.5908C237.77 30.5908 240.333 32.0557 240.333 35.8643C240.333 38.3545 239.381 40.4053 236.524 40.4053C233.302 40.4053 233.741 38.501 231.91 36.5967C231.251 37.3291 230.958 38.2812 230.958 39.1602C230.958 42.749 235.206 46.1914 238.575 46.1914C244.508 46.1914 246.192 39.9658 246.192 35.1318C246.192 28.7598 240.919 17.1875 233.448 17.1875C226.637 17.1875 223.268 20.4834 223.268 27.2949C223.268 31.3232 224.146 35.2783 224.146 39.2334C224.146 43.8477 221.583 49.4141 216.383 49.4141ZM277.467 28.2471C277.467 33.374 281.349 33.3008 281.422 37.0361C281.422 37.8418 281.422 38.501 280.689 38.6475C277.979 39.2334 273.951 33.0811 273.951 27.9541C273.951 18.7988 278.053 15.3564 284.352 15.3564C289.112 15.3564 292.408 21.0693 294.605 25.0977C296.876 19.8242 299.659 14.4043 306.471 14.4043C313.136 14.4043 317.896 20.9229 317.896 27.2217C317.896 35.2051 313.136 40.8447 313.136 40.8447C316.798 43.7012 317.75 47.2168 317.75 50.9521C317.75 52.5635 316.798 58.7158 314.674 58.7158C312.916 58.7158 314.234 52.6367 314.234 51.4648C314.234 49.1943 313.355 45.0928 311.305 43.7744C311.305 43.7744 307.276 50 301.637 50C297.828 50 294.166 46.7773 294.166 42.8223C294.166 38.501 298.048 35.2783 302.223 35.2783C305.152 35.2783 308.668 36.5234 310.646 38.208C310.938 38.4277 313.795 35.7178 314.381 28.0273C314.674 23.4863 311.891 18.2861 305.885 18.4326C302.442 18.5059 298.78 22.9736 297.462 26.3428C295.997 30.1514 296.803 32.5684 294.898 32.5684C292.408 32.5684 291.236 19.0918 283.985 19.0918C279.078 19.0918 277.467 22.0947 277.467 28.2471ZM302.589 46.2646C306.031 46.0449 308.009 42.1631 307.936 41.1377C307.862 39.2334 304.713 38.208 302.589 38.2812C300.685 38.4277 297.975 39.9658 297.975 42.3096C297.975 44.2871 299.952 46.4111 302.589 46.2646ZM353.272 32.6416C353.272 26.123 349.537 18.2861 340.455 18.2861C333.058 18.2861 328.224 25.9033 328.224 32.7148C328.224 40.4053 333.937 45.8252 341.554 45.8252C349.684 45.8252 353.272 39.8926 353.272 32.6416ZM356.715 34.7656C357.74 39.6729 361.256 45.6787 367.408 45.6787C375.025 45.6787 378.321 37.8418 378.321 31.4697C378.321 22.3145 372.096 19.0918 370.191 15.6494C369.972 15.2832 370.265 13.9648 370.997 13.9648C374.586 13.9648 381.617 22.3877 381.69 30.6641C381.764 39.5264 377.662 49.4141 367.408 49.4141C361.036 49.4141 357.154 45.6055 355.616 39.6729C353.419 45.5322 348.438 49.9268 341.627 49.9268C332.252 49.9268 324.781 42.2363 324.781 32.7148C324.781 27.6611 327.198 22.0947 330.86 18.2861C325.001 18.2129 321.559 19.0918 321.559 16.2354C321.559 15.7227 321.632 14.5508 322.438 14.5508L352.174 14.624C357.154 14.624 357.667 9.2041 356.202 4.80957C355.909 4.00391 356.129 1.80664 357.301 1.80664C360.084 1.80664 360.523 7.51953 360.523 9.49707C360.523 14.9902 358.033 18.2861 351.148 18.2861C354.591 22.2412 356.861 27.5146 356.861 32.6416C356.861 33.3008 356.788 34.0332 356.715 34.7656ZM442.921 37.4023C442.921 29.126 435.963 19.165 425.709 17.4072C422.486 16.8213 419.19 16.1621 415.968 16.5283C415.016 16.5283 413.844 16.0889 413.844 14.8438C413.844 13.0127 415.968 12.793 416.7 12.793C430.689 12.793 446.217 21.5088 446.217 37.5488C446.217 45.5322 441.969 49.8535 434.352 49.8535C428.199 49.8535 427.467 45.2393 423.512 42.8955C422.633 45.6055 420.802 50 414.21 50C410.328 50 405.934 45.2393 405.934 41.4307C405.934 36.084 410.914 31.9824 416.114 31.9824C424.171 31.9824 427.247 46.3379 434.864 46.3379C441.09 46.3379 442.921 41.8701 442.921 37.4023ZM409.376 41.6504C409.522 44.1406 411.866 46.4111 414.283 46.4844C418.458 46.5576 421.681 43.4814 420.948 39.6729C420.289 36.5967 417.579 35.4248 415.528 35.4248C412.013 35.4248 409.156 38.1348 409.376 41.6504ZM467.164 18.2129C474.635 18.2129 481.227 26.416 481.227 33.5938C481.227 39.1602 477.857 44.0674 473.829 47.583C471.485 49.5605 467.97 50.2197 464.967 50.2197C457.203 50.2197 451.71 42.6025 451.71 35.2783C451.71 26.8555 458.229 18.2129 467.164 18.2129ZM465.04 45.3857C470.973 45.3857 478.224 40.0391 478.224 33.7402C478.224 27.2217 472.657 22.9736 466.358 22.9736C459.913 22.9736 454.347 29.4922 454.347 35.7178C454.347 41.1377 459.986 45.3857 465.04 45.3857ZM505.543 26.4893C503.053 26.4893 498.219 28.1738 498.219 31.1035C498.219 34.0332 502.833 34.9121 505.177 34.9121C508.839 34.9121 513.746 31.7627 513.746 29.7119C513.746 27.9541 507.667 26.4893 505.543 26.4893ZM528.541 18.2861H515.357C517.921 21.3623 519.093 24.3652 517.481 28.6133C519.752 30.2979 521.437 32.9346 521.437 35.8643C521.437 45.8984 512.501 50 503.712 50C495.143 50 484.889 45.8252 484.889 35.791C484.889 33.374 485.841 28.1738 488.99 28.1738C489.576 28.1738 489.723 28.6865 489.723 29.126C489.723 30.957 488.771 32.6416 488.771 34.4727C488.771 41.9434 496.607 45.9717 503.272 45.9717C509.132 45.9717 517.774 42.9688 517.774 36.377C517.774 34.8389 517.408 32.7148 516.236 31.3965C514.112 35.3516 510.45 38.2812 504.811 38.2812C500.562 38.2812 494.483 36.5967 494.483 31.3965C494.483 26.1963 499.83 23.5596 504.371 23.5596C507.96 23.5596 511.256 24.3652 514.552 26.123C514.918 22.7539 513.087 18.2861 508.985 18.2861C501.368 18.2861 493.824 18.2861 486.28 18.2861C485.548 18.2861 485.255 16.9678 485.255 16.5283C485.255 16.0156 485.401 14.5508 486.134 14.5508L528.028 14.4775C541.358 14.4775 549.049 19.751 549.049 33.374C549.049 41.9434 544.654 50 535.133 50C527.955 50 524.732 43.042 525.685 37.4023C526.344 33.5938 528.395 30.0781 532.203 30.2246C535.865 30.4443 537.037 33.374 536.744 35.6445C536.158 40.918 530.445 37.5488 530.445 42.2363C530.445 44.5068 533.229 46.4844 535.206 46.4844C542.237 46.4844 545.387 39.2334 545.387 33.2275C545.387 21.875 538.722 18.2861 528.541 18.2861ZM553.883 16.6748C553.883 16.0156 553.956 14.4775 554.981 14.4775H584.498C587.062 14.4775 591.09 13.5254 591.09 10.2295C591.09 7.73926 590.65 5.32227 590.65 2.83203C590.65 2.39258 590.65 1.00098 591.456 1.00098C594.312 1.00098 594.605 7.15332 594.605 9.2041C594.605 16.3086 589.991 17.7002 584.059 18.2861C590.577 23.0469 594.239 30.5908 594.239 38.5742C594.239 43.6279 590.724 49.8535 584.938 49.8535C581.275 49.8535 578.565 47.4365 575.855 44.1406C572.706 47.6562 570.948 49.9268 566.773 49.9268C560.401 49.9268 555.348 44.0674 555.348 37.915C555.348 31.0303 560.621 22.0947 566.261 18.2861H566.334C565.455 18.2861 564.576 18.2129 563.697 18.2129C561.354 18.2129 558.863 18.3594 556.52 18.3594C555.348 18.3594 553.883 18.2861 553.883 16.6748ZM584.864 46.4844C589.479 46.4844 591.529 40.5518 591.017 36.4502C589.479 23.999 582.301 19.0918 574.537 19.0918C566.041 19.0918 559.01 30.2979 559.01 37.9883C559.01 42.749 562.159 46.4111 566.993 46.4111C570.289 46.4111 573.951 41.7236 575.562 39.1602C577.833 41.4307 580.25 46.4844 584.864 46.4844ZM629.981 32.6416C629.981 26.123 626.246 18.2861 617.164 18.2861C609.767 18.2861 604.933 25.9033 604.933 32.7148C604.933 40.4053 610.646 45.8252 618.263 45.8252C626.393 45.8252 629.981 39.8926 629.981 32.6416ZM633.424 34.7656C634.449 39.6729 637.965 45.6787 644.117 45.6787C651.734 45.6787 655.03 37.8418 655.03 31.4697C655.03 22.3145 648.805 19.0918 646.9 15.6494C646.681 15.2832 646.974 13.9648 647.706 13.9648C651.295 13.9648 658.326 22.3877 658.399 30.6641C658.473 39.5264 654.371 49.4141 644.117 49.4141C637.745 49.4141 633.863 45.6055 632.325 39.6729C630.128 45.5322 625.147 49.9268 618.336 49.9268C608.961 49.9268 601.49 42.2363 601.49 32.7148C601.49 27.6611 603.907 22.0947 607.569 18.2861C601.71 18.2129 598.268 19.0918 598.268 16.2354C598.268 15.7227 598.341 14.5508 599.146 14.5508L628.883 14.624C633.863 14.624 634.376 9.2041 632.911 4.80957C632.618 4.00391 632.838 1.80664 634.01 1.80664C636.793 1.80664 637.232 7.51953 637.232 9.49707C637.232 14.9902 634.742 18.2861 627.857 18.2861C631.3 22.2412 633.57 27.5146 633.57 32.6416C633.57 33.3008 633.497 34.0332 633.424 34.7656ZM686.158 28.2471C686.158 33.374 690.04 33.3008 690.113 37.0361C690.113 37.8418 690.113 38.501 689.381 38.6475C686.671 39.2334 682.643 33.0811 682.643 27.9541C682.643 18.7988 686.744 15.3564 693.043 15.3564C697.804 15.3564 701.1 21.0693 703.297 25.0977C705.567 19.8242 708.351 14.4043 715.162 14.4043C721.827 14.4043 726.588 20.9229 726.588 27.2217C726.588 35.2051 721.827 40.8447 721.827 40.8447C725.489 43.7012 726.441 47.2168 726.441 50.9521C726.441 52.5635 725.489 58.7158 723.365 58.7158C721.607 58.7158 722.926 52.6367 722.926 51.4648C722.926 49.1943 722.047 45.0928 719.996 43.7744C719.996 43.7744 715.968 50 710.328 50C706.52 50 702.857 46.7773 702.857 42.8223C702.857 38.501 706.739 35.2783 710.914 35.2783C713.844 35.2783 717.359 36.5234 719.337 38.208C719.63 38.4277 722.486 35.7178 723.072 28.0273C723.365 23.4863 720.582 18.2861 714.576 18.4326C711.134 18.5059 707.472 22.9736 706.153 26.3428C704.688 30.1514 705.494 32.5684 703.59 32.5684C701.1 32.5684 699.928 19.0918 692.677 19.0918C687.77 19.0918 686.158 22.0947 686.158 28.2471ZM711.28 46.2646C714.723 46.0449 716.7 42.1631 716.627 41.1377C716.554 39.2334 713.404 38.208 711.28 38.2812C709.376 38.4277 706.666 39.9658 706.666 42.3096C706.666 44.2871 708.644 46.4111 711.28 46.2646ZM761.964 32.6416C761.964 26.123 758.229 18.2861 749.146 18.2861C741.749 18.2861 736.915 25.9033 736.915 32.7148C736.915 40.4053 742.628 45.8252 750.245 45.8252C758.375 45.8252 761.964 39.8926 761.964 32.6416ZM765.406 34.7656C766.432 39.6729 769.947 45.6787 776.1 45.6787C783.717 45.6787 787.013 37.8418 787.013 31.4697C787.013 22.3145 780.787 19.0918 778.883 15.6494C778.663 15.2832 778.956 13.9648 779.688 13.9648C783.277 13.9648 790.309 22.3877 790.382 30.6641C790.455 39.5264 786.354 49.4141 776.1 49.4141C769.728 49.4141 765.846 45.6055 764.308 39.6729C762.11 45.5322 757.13 49.9268 750.318 49.9268C740.943 49.9268 733.473 42.2363 733.473 32.7148C733.473 27.6611 735.89 22.0947 739.552 18.2861C733.692 18.2129 730.25 19.0918 730.25 16.2354C730.25 15.7227 730.323 14.5508 731.129 14.5508L760.865 14.624C765.846 14.624 766.358 9.2041 764.894 4.80957C764.601 4.00391 764.82 1.80664 765.992 1.80664C768.775 1.80664 769.215 7.51953 769.215 9.49707C769.215 14.9902 766.725 18.2861 759.84 18.2861C763.282 22.2412 765.553 27.5146 765.553 32.6416C765.553 33.3008 765.479 34.0332 765.406 34.7656ZM851.612 37.4023C851.612 29.126 844.654 19.165 834.4 17.4072C831.178 16.8213 827.882 16.1621 824.659 16.5283C823.707 16.5283 822.535 16.0889 822.535 14.8438C822.535 13.0127 824.659 12.793 825.392 12.793C839.381 12.793 854.908 21.5088 854.908 37.5488C854.908 45.5322 850.66 49.8535 843.043 49.8535C836.891 49.8535 836.158 45.2393 832.203 42.8955C831.324 45.6055 829.493 50 822.901 50C819.02 50 814.625 45.2393 814.625 41.4307C814.625 36.084 819.605 31.9824 824.806 31.9824C832.862 31.9824 835.938 46.3379 843.556 46.3379C849.781 46.3379 851.612 41.8701 851.612 37.4023ZM818.067 41.6504C818.214 44.1406 820.558 46.4111 822.975 46.4844C827.149 46.5576 830.372 43.4814 829.64 39.6729C828.98 36.5967 826.271 35.4248 824.22 35.4248C820.704 35.4248 817.848 38.1348 818.067 41.6504ZM875.855 18.2129C883.326 18.2129 889.918 26.416 889.918 33.5938C889.918 39.1602 886.549 44.0674 882.521 47.583C880.177 49.5605 876.661 50.2197 873.658 50.2197C865.895 50.2197 860.401 42.6025 860.401 35.2783C860.401 26.8555 866.92 18.2129 875.855 18.2129ZM873.731 45.3857C879.664 45.3857 886.915 40.0391 886.915 33.7402C886.915 27.2217 881.349 22.9736 875.05 22.9736C868.604 22.9736 863.038 29.4922 863.038 35.7178C863.038 41.1377 868.678 45.3857 873.731 45.3857ZM924.562 46.4844C928.956 46.4844 930.787 41.3574 930.787 37.6953C930.787 28.0273 924.342 19.0918 914.234 19.0918C905.738 19.0918 898.707 30.2979 898.707 37.9883C898.707 42.749 901.856 46.4111 906.69 46.4111C909.986 46.4111 913.648 41.7236 915.26 39.1602C918.043 42.0166 920.021 46.4844 924.562 46.4844ZM932.252 11.0352C932.252 7.95898 930.494 5.46875 927.198 5.46875C925.88 5.46875 924.488 5.61523 924.488 7.2998C924.488 9.05762 928.15 7.15332 928.15 9.7168C928.15 11.1084 927.052 12.4268 925.587 12.4268C922.95 12.4268 921.119 9.79004 921.119 7.37305C921.119 4.80957 923.756 2.83203 926.173 2.83203C929.981 2.83203 932.545 3.34473 934.376 6.93359C934.889 8.03223 935.401 9.13086 935.401 10.3027C935.401 18.5791 930.274 18.2861 923.756 18.2861C930.128 23.0469 933.937 30.5908 933.937 38.5742C933.937 43.7012 930.348 49.8535 924.635 49.8535C920.68 49.8535 917.823 46.9238 915.553 44.1406C912.843 47.1436 910.865 49.9268 906.471 49.9268C900.172 49.9268 895.045 44.1406 895.045 37.915C895.045 31.0303 900.318 22.0947 905.958 18.2861H906.031L896.217 18.3594C895.045 18.3594 893.58 18.2861 893.58 16.6748C893.58 16.0156 893.653 14.5508 894.679 14.5508H926.246C928.736 14.5508 932.252 14.3311 932.252 11.0352ZM956.422 18.2129C963.893 18.2129 970.484 26.416 970.484 33.5938C970.484 39.1602 967.115 44.0674 963.087 47.583C960.743 49.5605 957.228 50.2197 954.225 50.2197C946.461 50.2197 940.968 42.6025 940.968 35.2783C940.968 26.8555 947.486 18.2129 956.422 18.2129ZM954.298 45.3857C960.23 45.3857 967.481 40.0391 967.481 33.7402C967.481 27.2217 961.915 22.9736 955.616 22.9736C949.171 22.9736 943.604 29.4922 943.604 35.7178C943.604 41.1377 949.244 45.3857 954.298 45.3857ZM1003.66 46.4844C1008.28 46.4844 1010.33 40.5518 1009.82 36.4502C1008.28 23.999 1001.1 19.0918 993.336 19.0918C984.84 19.0918 977.809 30.2979 977.809 37.9883C977.809 42.749 980.958 46.4111 985.792 46.4111C989.088 46.4111 992.75 41.7236 994.361 39.1602C996.632 41.4307 999.049 46.4844 1003.66 46.4844ZM984.62 7.44629C983.229 7.44629 981.837 8.69141 981.837 10.376C981.837 15.21 993.922 15.7227 998.17 15.2832C996.339 11.4746 990.626 7.44629 984.62 7.44629ZM985.06 18.2861L985.865 17.4072C982.716 16.8213 977.809 13.5986 977.809 10.2295C977.809 6.27441 980.885 4.00391 984.62 4.00391C995.094 4.00391 1006.52 16.9678 1010.55 26.1963C1014.65 35.5713 1014.58 49.8535 1003.74 49.8535C1000.07 49.8535 997.364 47.4365 994.654 44.1406C991.505 47.6562 989.747 49.9268 985.572 49.9268C979.2 49.9268 974.146 44.0674 974.146 37.915C974.146 31.0303 979.42 22.0947 985.06 18.2861ZM1054.79 8.98438C1054.79 13.0859 1052.22 18.2861 1046.29 18.2861H1032.89C1031.93 18.2861 1019.92 18.2861 1019.78 18.2129C1018.68 17.4805 1018.97 17.1143 1018.97 16.0156C1018.97 15.21 1019.12 14.4775 1020.14 14.4775H1036.84C1038.23 14.4775 1046.29 14.624 1047.17 14.5508C1050.17 14.3311 1051.49 9.93652 1051.49 7.22656C1051.49 6.34766 1050.83 0.854492 1051.78 0.854492C1054.57 0.854492 1054.79 7.08008 1054.79 8.98438ZM1051.49 47.2168L1038.31 25.4639L1037.79 25.1709C1035.82 25.6836 1024.68 50 1022.85 50H1016.85L1016.7 49.7803C1017.8 47.0703 1021.02 42.4561 1022.56 39.8193C1025.86 34.4727 1028.93 28.7598 1032.45 23.4863C1033.47 22.0947 1034.79 19.9707 1036.77 19.9707C1038.6 19.9707 1039.92 21.8018 1040.8 23.1201C1044.61 28.4668 1048.05 34.4727 1051.56 39.9658C1052.3 41.2109 1054.71 45.0195 1055.45 45.752C1055.96 46.2646 1056.69 46.2646 1057.42 46.2646C1062.18 46.2646 1062.18 42.4561 1062.18 38.5742C1062.18 34.8389 1061.6 31.0303 1061.6 27.2949C1061.6 24.6582 1062.4 22.0215 1063.87 19.751C1065.63 17.041 1069.73 14.4043 1073.02 14.4043C1084.67 14.4043 1091.33 26.3428 1091.33 36.8164C1091.33 43.8477 1087.23 49.9268 1079.62 49.9268C1074.42 49.9268 1069.73 45.3857 1069.73 40.1123C1069.73 36.5967 1071.56 31.25 1075.88 31.25C1079.4 31.25 1082.03 32.7148 1082.03 36.5234C1082.03 39.0137 1081.01 41.0645 1078.22 41.0645C1074.85 41.0645 1075.37 39.0869 1073.61 37.2559C1072.88 37.915 1072.66 38.8672 1072.66 39.8193C1072.66 42.8223 1075.88 46.8506 1079.03 46.8506C1079.25 46.8506 1079.54 46.8506 1079.76 46.7773C1085.91 45.2393 1087.82 41.9434 1087.82 35.7178C1087.82 28.2471 1081.89 17.8467 1075.07 17.8467C1067.68 17.8467 1064.23 21.7285 1065.04 30.0781C1065.33 33.3008 1065.85 36.5967 1065.85 39.8926C1065.85 44.4336 1063.36 49.8535 1058.01 50.0732C1053.47 50.2197 1051.56 47.3633 1051.49 47.2168ZM1131.54 14.1113C1133.81 14.1113 1135.13 12.8662 1135.13 11.1816C1135.13 8.47168 1132.13 6.12793 1129.49 6.12793C1127 6.12793 1126.12 7.66602 1126.12 9.13086C1126.12 11.6211 1128.54 14.1113 1131.54 14.1113ZM1152.12 36.3037C1152.12 25.9766 1145.75 14.917 1138.28 11.1816C1138.58 12.7197 1136.01 17.334 1132.13 17.334C1127.44 17.334 1122.54 13.5986 1122.54 8.76465C1122.54 5.54199 1126.05 2.90527 1129.13 2.90527C1141.58 2.75879 1155.71 22.0947 1155.71 36.0107C1155.71 42.5293 1152.56 49.9268 1145.02 49.9268C1135.21 49.9268 1129.93 35.1318 1125.25 35.0586C1121.07 34.9854 1120.26 38.0615 1120.48 41.7236C1121 49.3408 1131.03 52.8564 1131.03 57.6172C1131.03 58.7158 1130.01 59.375 1129.05 59.375C1128.76 59.375 1128.39 59.2285 1128.1 59.1553C1121.95 55.7861 1116.82 48.3154 1116.82 41.2109C1116.82 35.9375 1120.12 31.0303 1125.83 31.0303C1133.74 31.0303 1135.13 45.0928 1144.65 45.0928C1150.29 45.0928 1152.12 41.5039 1152.12 36.3037ZM1176.37 23.7061C1176.37 28.2471 1173.95 31.3232 1170.07 31.3232C1166.33 31.3232 1165.46 29.8584 1163.99 28.1006C1164.28 33.0811 1165.67 37.6953 1168.9 41.5771C1169.92 42.749 1174.68 47.9492 1174.68 48.9746V49.0479C1173.8 49.6338 1172.78 49.9268 1171.83 49.9268C1167.07 49.9268 1162.6 39.3066 1161.57 35.4248C1160.84 32.5684 1160.55 29.5654 1160.55 26.6357C1160.55 21.3623 1162.96 11.9873 1169.56 11.9873C1175.12 11.9873 1176.37 18.2861 1176.37 23.7061ZM1169.85 16.3086C1166.55 16.3086 1164.8 19.458 1164.8 22.3877C1164.8 24.4385 1166.11 27.8076 1169.48 27.8076C1172.71 27.8076 1173.44 24.292 1173.44 22.7539C1173.44 22.168 1173.07 16.3086 1169.85 16.3086ZM1219.8 18.2861C1219.95 18.7256 1219.65 23.1201 1220.02 23.1201C1220.61 23.1201 1233.79 23.1934 1234.38 23.1934C1235.04 23.1934 1235.04 24.9512 1235.04 25.3906C1234.96 27.5146 1231.89 26.8555 1224.2 26.709C1228.37 27.5146 1231.15 33.0811 1231.15 37.7686C1231.15 44.9463 1224.93 49.9268 1218.41 49.9268C1209.99 49.9268 1205.67 43.6279 1205.67 37.6221C1205.67 34.0332 1206.69 29.9316 1212.11 27.0752C1211.52 27.2217 1202.66 27.2217 1202.66 27.2217C1202.22 27.2217 1200.54 26.7822 1200.54 25.5371C1200.54 25.0244 1200.54 23.0469 1201.42 23.0469L1215.26 23.1201C1215.55 22.8271 1215.41 18.5059 1215.41 18.2861H1202.22C1201.2 18.2861 1201.42 17.1143 1201.42 16.3818C1201.42 15.6494 1201.56 15.21 1202.08 14.6973C1202.44 14.4043 1225.59 14.6973 1228.52 14.6973C1231.3 14.6973 1231.89 10.5957 1231.89 8.47168C1231.89 6.64062 1231.45 4.80957 1231.45 2.90527C1231.45 2.46582 1231.67 1.87988 1232.25 1.7334C1234.89 2.68555 1235.33 6.4209 1235.33 8.91113C1235.33 19.8242 1227.93 18.2861 1219.8 18.2861ZM1218.19 27.6611C1212.7 27.6611 1209.62 32.0557 1209.62 37.3291C1209.62 41.6504 1212.99 46.7773 1218.26 46.7773C1223.24 46.7773 1227.42 43.2617 1227.42 37.0361C1227.42 30.7373 1222.51 27.6611 1218.19 27.6611ZM1241.04 14.4043L1262.43 14.4775C1267.12 14.4775 1280.81 15.5762 1280.81 8.39844C1280.81 7.22656 1280.37 0.78125 1281.91 0.78125C1284.4 0.78125 1284.4 5.24902 1284.4 6.93359C1284.4 15.21 1278.47 18.2861 1271.22 18.2861C1275.39 20.1172 1281.32 27.8076 1281.32 36.0107C1281.32 42.5293 1278.17 49.9268 1270.63 49.9268C1260.82 49.9268 1255.54 35.1318 1250.86 35.0586C1246.68 34.9854 1245.88 38.0615 1246.09 41.7236C1246.61 49.3408 1256.64 52.8564 1256.64 57.6172C1256.64 58.7158 1255.62 59.375 1254.66 59.375C1254.37 59.375 1254 59.2285 1253.71 59.1553C1247.56 55.7861 1242.43 48.3154 1242.43 41.2109C1242.43 35.9375 1245.73 31.0303 1251.44 31.0303C1259.35 31.0303 1260.74 45.0928 1270.26 45.0928C1275.9 45.0928 1277.74 41.5039 1277.74 36.3037C1277.74 30.6641 1274.81 25.8301 1272.68 23.4131C1271.51 22.168 1266.53 18.2861 1263.75 18.2861H1245.51C1243.6 18.2861 1240.09 19.0918 1240.09 16.3086C1240.09 15.8691 1240.31 14.4043 1241.04 14.4043ZM1299.34 77.9053C1299.34 74.0234 1301.47 70.5811 1301.47 66.7725C1301.47 63.6963 1300.07 60.6934 1297.58 59.2285C1295.17 61.792 1292.46 62.7441 1289.16 62.7441C1284.84 62.7441 1280.59 60.4736 1280.59 55.0537C1280.59 50.4395 1285.94 48.2422 1289.01 48.2422C1292.82 48.2422 1296.34 49.3408 1298.02 52.3438C1299.85 51.1719 1300.88 46.4111 1300.88 44.0674C1300.88 33.2275 1289.67 30.4443 1289.67 27.0752C1289.67 26.3428 1289.97 25.9033 1290.48 25.9033C1290.48 25.9033 1290.63 25.9033 1290.55 26.0498C1299.63 29.3457 1304.03 35.9375 1304.03 43.8477C1304.03 47.876 1302.78 52.3438 1300.29 55.5664C1303.59 59.375 1304.83 63.4033 1304.83 68.6035C1304.83 70.1416 1303.66 78.7109 1302.71 79.2236C1302.27 79.5898 1301.61 79.7363 1301.03 79.7363C1300 79.7363 1299.34 79.0039 1299.34 77.9053ZM1283.74 55.2734C1283.74 58.7158 1287.18 59.5215 1289.38 59.5947C1292.46 59.8145 1295.02 58.7158 1296.12 55.7861C1297 53.2227 1291.65 51.4648 1289.75 51.4648C1287.84 51.4648 1283.74 52.71 1283.74 55.2734ZM1307.76 16.6748C1307.76 15.9424 1307.84 14.4775 1308.86 14.4775H1338.45C1343.36 14.4775 1344.97 11.9873 1344.97 7.37305C1344.97 5.76172 1344.61 4.07715 1344.61 2.46582C1344.61 1.95312 1344.61 0.488281 1345.48 0.488281C1347.9 0.488281 1348.56 5.54199 1348.56 7.37305C1348.56 13.6719 1344.31 18.2861 1337.57 18.2861C1340.5 21.3623 1342.77 22.9736 1342.55 30.0049C1345.26 30.8838 1347.68 34.7656 1347.68 38.7939C1347.68 45.5322 1343.36 49.9268 1336.11 49.9268C1332.23 49.9268 1330.91 48.9014 1327.69 45.9717C1325.86 48.1689 1323.37 50 1320.36 50C1313.11 50 1307.84 44.4336 1307.84 36.8896C1307.84 29.4922 1312.89 22.5342 1318.97 18.2861C1317.51 18.2861 1309.3 18.5059 1308.86 18.2861C1308.13 17.8467 1307.76 17.4805 1307.76 16.6748ZM1336.11 28.3203C1338.23 28.3203 1338.75 29.3457 1338.75 27.9541C1338.75 22.0947 1333.55 18.7988 1327.98 18.7988C1319.04 18.7988 1311.35 29.9316 1311.35 36.5967C1311.35 42.3828 1315.53 46.1914 1319.92 46.1914C1323.37 46.1914 1325.86 43.335 1327.54 41.1377C1330.18 43.4082 1332.3 46.1182 1336.18 46.1182C1341.24 46.1182 1344.31 43.7012 1344.31 38.7939C1344.31 36.084 1342.41 32.5684 1340.65 32.5684C1338.89 32.5684 1339.33 34.3262 1336.33 34.3262C1334.21 34.3262 1333.11 33.1543 1333.11 31.0303C1333.11 29.3457 1334.5 28.3203 1336.11 28.3203ZM1358.3 41.2109C1358.3 43.6279 1359.91 46.5576 1362.7 46.5576C1365.33 46.5576 1367.02 43.5547 1367.02 41.2109C1367.02 38.6475 1365.26 36.084 1362.55 36.084C1359.77 36.084 1358.3 38.7207 1358.3 41.2109ZM1402.69 18.2861H1378.15C1384.89 20.7764 1395.88 29.4189 1395.88 37.5488C1395.88 43.5547 1390.02 49.9268 1383.94 49.9268C1378.96 49.9268 1373.98 46.6309 1370.68 43.2617C1368.63 43.9941 1368.56 50 1362.84 50C1357.64 50 1355.08 45.9717 1355.08 41.2109C1355.08 36.1572 1358.38 33.1543 1363.28 33.1543C1369.87 33.1543 1371.78 45.166 1383.79 45.166C1388.4 45.166 1392.36 42.5293 1392.36 37.5488C1392.36 29.7852 1376.61 18.3594 1369.51 18.3594C1364.6 18.3594 1358.3 18.2861 1353.17 18.2861C1352.37 18.2861 1352.22 17.041 1352.22 16.4551C1352.22 14.1113 1352.88 14.4775 1355.01 14.4775C1370.75 14.4775 1386.5 14.4775 1402.25 14.4775C1415.5 14.4775 1423.19 19.751 1423.19 33.374C1423.19 41.9434 1418.87 50 1409.35 50C1402.17 50 1398.95 43.042 1399.9 37.4023C1400.56 33.5938 1402.61 30.0781 1406.42 30.2246C1410.08 30.4443 1411.26 33.374 1410.96 35.6445C1410.38 40.918 1404.66 37.5488 1404.66 42.2363C1404.66 44.5068 1407.45 46.4844 1409.42 46.4844C1416.46 46.4844 1419.61 39.2334 1419.61 33.2275C1419.61 21.875 1412.94 18.2861 1402.69 18.2861ZM1428.83 17.8467C1428.83 21.0693 1433.59 21.8018 1436.01 21.8018C1438.21 21.8018 1443.12 22.0947 1443.12 19.3115C1443.12 15.7959 1438.36 12.9395 1435.35 12.9395C1432.13 12.9395 1428.83 14.0381 1428.83 17.8467ZM1425.03 18.0664C1425.03 12.9395 1430.23 9.27734 1434.91 9.27734C1439.67 9.27734 1442.53 11.6943 1445.53 15.1367C1451.91 22.6807 1456.45 31.7627 1461.87 39.9658C1463.99 43.2617 1466.48 46.4111 1467.95 50H1463.55L1463.11 49.7803L1448.61 25.4639L1448.1 25.1709C1444.51 28.3203 1435.28 50 1433.16 50H1427.15L1427 49.7803C1428.47 46.1914 1430.88 43.1152 1432.86 39.8193C1436.01 34.6191 1438.87 29.3457 1442.24 24.2188C1439.6 25.3174 1437.04 25.0977 1434.33 25.0977C1430.45 25.0977 1425.03 22.5342 1425.03 18.0664ZM1503.39 32.6416C1503.39 26.123 1499.66 18.2861 1490.58 18.2861C1483.18 18.2861 1478.35 25.9033 1478.35 32.7148C1478.35 40.4053 1484.06 45.8252 1491.68 45.8252C1499.81 45.8252 1503.39 39.8926 1503.39 32.6416ZM1506.84 34.7656C1507.86 39.6729 1511.38 45.6787 1517.53 45.6787C1525.15 45.6787 1528.44 37.8418 1528.44 31.4697C1528.44 22.3145 1522.22 19.0918 1520.31 15.6494C1520.09 15.2832 1520.39 13.9648 1521.12 13.9648C1524.71 13.9648 1531.74 22.3877 1531.81 30.6641C1531.89 39.5264 1527.78 49.4141 1517.53 49.4141C1511.16 49.4141 1507.28 45.6055 1505.74 39.6729C1503.54 45.5322 1498.56 49.9268 1491.75 49.9268C1482.37 49.9268 1474.9 42.2363 1474.9 32.7148C1474.9 27.6611 1477.32 22.0947 1480.98 18.2861C1475.12 18.2129 1471.68 19.0918 1471.68 16.2354C1471.68 15.7227 1471.75 14.5508 1472.56 14.5508L1502.3 14.624C1507.28 14.624 1507.79 9.2041 1506.32 4.80957C1506.03 4.00391 1506.25 1.80664 1507.42 1.80664C1510.21 1.80664 1510.65 7.51953 1510.65 9.49707C1510.65 14.9902 1508.16 18.2861 1501.27 18.2861C1504.71 22.2412 1506.98 27.5146 1506.98 32.6416C1506.98 33.3008 1506.91 34.0332 1506.84 34.7656ZM1541.92 50.0732C1539.28 50.0732 1537.09 48.5352 1537.09 45.6787C1537.09 42.9688 1538.92 41.1377 1541.63 41.1377C1544.34 41.1377 1546.31 43.335 1546.31 45.9717C1546.31 48.6084 1544.41 50.0732 1541.92 50.0732Z" fill="black"/>
</svg>
