<svg width="2321" height="89" viewBox="0 0 2321 89" fill="none" xmlns="http://www.w3.org/2000/svg">
<path d="M25.75 19.85C27.9 19.7 30.025 19.625 32.125 19.625C47.975 19.625 57.225 24.95 59.875 35.6C60.425 36.95 61.225 38.2 62.275 39.35C63.325 40.45 64.675 41.425 66.325 42.275C63.125 43.225 61 45.15 59.95 48.05C58.4 54.2 54.9 58.25 49.45 60.2C47.7 60.65 46.325 61.25 45.325 62C44.375 62.75 43.625 63.675 43.075 64.775C42.575 63.525 41.85 62.6 40.9 62C40 61.4 39 60.875 37.9 60.425C36.85 59.925 35.8 59.4 34.75 58.85C33.75 58.25 32.925 57.375 32.275 56.225C29.975 57.575 28.1 58.675 26.65 59.525C25.25 60.325 24.1 61.025 23.2 61.625C22.35 62.175 21.7 62.7 21.25 63.2C20.85 63.65 20.5 64.2 20.2 64.85C19.6 63.45 18.775 62.425 17.725 61.775C16.675 61.125 15.25 60.5 13.45 59.9C12.55 59.7 11.725 59.35 10.975 58.85C10.225 58.35 9.525 57.775 8.875 57.125C8.275 56.425 7.725 55.7 7.225 54.95C6.725 54.15 6.3 53.375 5.95 52.625C5.4 51.575 4.625 50.7 3.625 50C2.675 49.3 1.55 48.7 0.25 48.2C1.6 47.55 2.675 46.85 3.475 46.1C4.325 45.3 4.975 44.575 5.425 43.925C5.875 43.225 6.175 42.65 6.325 42.2C6.525 41.7 6.65 41.4 6.7 41.3C7.65 39.8 8.925 38.65 10.525 37.85C12.175 37 14.05 36.575 16.15 36.575C17.2 36.575 18.175 36.725 19.075 37.025C20.025 37.325 20.85 37.775 21.55 38.375C22.3 38.925 22.875 39.625 23.275 40.475C23.725 41.275 23.95 42.175 23.95 43.175C23.95 44.825 23.325 46.25 22.075 47.45C20.875 48.65 19.45 49.25 17.8 49.25C17.4 49.25 17.05 49.25 16.75 49.25C16.5 49.2 16.15 49.125 15.7 49.025C15.95 50.175 16.425 51.15 17.125 51.95C17.825 52.75 18.875 53.15 20.275 53.15C22.075 53.15 23.65 52.625 25 51.575C26.4 50.475 27.1 48.875 27.1 46.775C27.1 46.175 27.075 45.725 27.025 45.425C27.025 45.075 26.925 44.625 26.725 44.075H37.45C37.3 44.575 37.2 45 37.15 45.35C37.15 45.65 37.15 46.025 37.15 46.475C37.15 48.575 37.675 50.1 38.725 51.05C39.825 51.95 41.2 52.4 42.85 52.4C45.3 52.4 47.275 51.625 48.775 50.075C50.275 48.525 51.075 46.225 51.175 43.175C51.125 40.625 50.7 38.425 49.9 36.575C49.1 34.675 47.85 33.125 46.15 31.925C44.45 30.725 42.25 29.85 39.55 29.3C36.85 28.7 33.6 28.4 29.8 28.4C28.9 28.4 28.2 28.425 27.7 28.475C27.25 28.525 26.6 28.625 25.75 28.775V19.85ZM77.4555 31.025C78.6555 27.525 80.5305 24.85 83.0805 23C85.6805 21.15 88.8555 20.225 92.6055 20.225C96.9055 20.225 100.055 21.275 102.055 23.375C104.105 25.425 105.13 28.05 105.13 31.25C105.13 33 104.805 34.625 104.155 36.125C103.505 37.625 102.605 38.95 101.455 40.1C100.355 41.2 99.0555 42.075 97.5555 42.725C96.0555 43.325 94.4555 43.625 92.7555 43.625C91.1555 43.625 89.8555 43.425 88.8555 43.025C87.8555 42.575 86.7805 41.875 85.6305 40.925C85.7305 42.825 86.2305 44.475 87.1305 45.875C88.0805 47.225 89.2555 48.325 90.6555 49.175C92.1055 50.025 93.6805 50.65 95.3805 51.05C97.1305 51.45 98.8805 51.65 100.63 51.65C102.68 51.65 104.68 51.45 106.63 51.05C108.63 50.65 110.405 49.95 111.955 48.95C113.505 47.9 114.755 46.5 115.705 44.75C116.655 42.95 117.13 40.675 117.13 37.925C117.13 35.525 116.505 33.45 115.255 31.7C114.005 29.95 112.03 29.075 109.33 29.075C108.43 29.075 107.605 29.3 106.855 29.75V19.7H108.355C113.205 19.7 117.03 20.65 119.83 22.55C122.68 24.45 124.705 26.975 125.905 30.125V29.975C126.605 32.225 127.43 34.025 128.38 35.375C129.38 36.725 130.755 37.725 132.505 38.375C129.255 39.475 127.13 42.175 126.13 46.475V46.25C124.73 50.25 122.405 53.375 119.155 55.625C115.955 57.875 112.355 59.35 108.355 60.05C104.255 61 101.63 62.675 100.48 65.075C99.8805 63.725 98.8805 62.65 97.4805 61.85C96.1305 61 94.3555 60.325 92.1555 59.825C88.1055 58.925 84.8805 57.325 82.4805 55.025C80.0805 52.725 78.3305 50.075 77.2305 47.075L77.1555 46.775C77.0555 46.525 76.9805 46.3 76.9305 46.1C76.8805 45.9 76.8305 45.7 76.7805 45.5C75.5805 42.1 73.6055 39.925 70.8555 38.975C73.9555 37.875 76.1555 35.1 77.4555 30.65V31.025ZM94.7055 32.225C94.7055 31.275 94.4805 30.55 94.0305 30.05C93.5805 29.5 92.9805 29.225 92.2305 29.225C91.3805 29.225 90.6305 29.45 89.9805 29.9C89.3305 30.35 89.0055 31.125 89.0055 32.225C89.0055 34.075 89.9305 35 91.7805 35C92.5805 35 93.2555 34.75 93.8055 34.25C94.4055 33.75 94.7055 33.075 94.7055 32.225ZM142.633 60.05C140.233 59.05 138.258 57.475 136.708 55.325C135.208 53.175 134.458 50.25 134.458 46.55C134.458 44.75 134.683 43 135.133 41.3C135.583 39.6 136.283 38.1 137.233 36.8C138.233 35.45 139.483 34.375 140.983 33.575C142.483 32.775 144.283 32.375 146.383 32.375C147.333 32.375 148.258 32.5 149.158 32.75C150.108 32.95 150.933 33.325 151.633 33.875C152.383 34.425 152.983 35.15 153.433 36.05C153.883 36.95 154.108 38.075 154.108 39.425C154.108 40.375 153.908 41.3 153.508 42.2C153.108 43.1 152.583 43.9 151.933 44.6C151.283 45.25 150.508 45.775 149.608 46.175C148.708 46.575 147.783 46.775 146.833 46.775C146.433 46.775 146.108 46.75 145.858 46.7C145.608 46.6 145.358 46.5 145.108 46.4C145.008 46.65 144.933 46.85 144.883 47C144.883 47.1 144.883 47.2 144.883 47.3C144.883 48.9 145.358 50.175 146.308 51.125C147.308 52.025 148.583 52.475 150.133 52.475C151.733 52.475 153.058 52.1 154.108 51.35C155.158 50.6 155.983 49.65 156.583 48.5C157.183 47.35 157.608 46.05 157.858 44.6C158.108 43.15 158.233 41.7 158.233 40.25C158.233 36.2 157.183 33.225 155.083 31.325C153.033 29.375 150.308 28.4 146.908 28.4H111.583V19.625H146.383C149.833 19.625 152.783 20.025 155.233 20.825C157.683 21.575 159.733 22.625 161.383 23.975C163.083 25.275 164.408 26.8 165.358 28.55C166.308 30.25 167.008 32.025 167.458 33.875C168.608 36.925 170.783 39.2 173.983 40.7C172.083 41.25 170.583 42.05 169.483 43.1C168.433 44.1 167.708 45.35 167.308 46.85C166.408 50.1 164.933 52.875 162.883 55.175C160.833 57.425 158.458 59.075 155.758 60.125C154.458 60.675 153.233 61.375 152.083 62.225C150.933 63.075 149.858 64.025 148.858 65.075L142.633 60.05ZM187.33 70.55C188.13 71.75 189.255 72.725 190.705 73.475C189.255 73.925 188.155 74.6 187.405 75.5C187.205 76.4 186.83 77.25 186.28 78.05C185.73 78.85 185.055 79.55 184.255 80.15C183.505 80.75 182.655 81.225 181.705 81.575C180.755 81.975 179.805 82.2 178.855 82.25L177.655 77.375C177.855 77.425 178.13 77.45 178.48 77.45C179.88 77.45 180.905 77.075 181.555 76.325C182.255 75.575 182.605 74.625 182.605 73.475C182.605 72.425 182.305 71.525 181.705 70.775C181.155 70.025 180.28 69.65 179.08 69.65C177.48 69.65 176.305 70.05 175.555 70.85C174.855 71.7 174.505 72.775 174.505 74.075H168.505C168.505 73.075 168.205 72.125 167.605 71.225C166.955 70.375 165.88 69.95 164.38 69.95C163.28 69.95 162.405 70.25 161.755 70.85C161.105 71.45 160.78 72.225 160.78 73.175C160.78 74.275 161.105 75.175 161.755 75.875C162.405 76.625 163.28 77.2 164.38 77.6L161.98 81.875C160.28 81.325 158.83 80.55 157.63 79.55C156.43 78.6 155.63 77.425 155.23 76.025C154.53 75.025 153.355 74.3 151.705 73.85C153.255 73.2 154.48 72.2 155.38 70.85C155.93 69.05 157.03 67.625 158.68 66.575C160.28 65.525 162.305 65 164.755 65C166.255 65 167.655 65.3 168.955 65.9C170.255 66.5 171.18 67.325 171.73 68.375C172.33 67.325 173.28 66.5 174.58 65.9C175.93 65.3 177.355 65 178.855 65C180.805 65 182.48 65.45 183.88 66.35C185.33 67.25 186.38 68.425 187.03 69.875L187.33 70.55ZM185.629 37.475C186.029 36.125 186.679 34.825 187.579 33.575C188.479 32.275 189.604 30.55 190.954 28.4H183.454V19.625H227.629C228.929 19.625 229.904 19.275 230.554 18.575C231.204 17.875 231.529 16.55 231.529 14.6C231.529 13.65 231.329 12.65 230.929 11.6C230.579 10.55 229.904 9.725 228.904 9.125L237.304 4.25C238.604 5.1 239.604 6.525 240.304 8.525C241.054 10.525 241.429 12.65 241.429 14.9C241.429 22.15 238.779 26.575 233.479 28.175C234.429 28.875 235.354 29.925 236.254 31.325C237.154 32.725 237.879 34.375 238.429 36.275C239.579 39.325 241.704 41.55 244.804 42.95C241.254 44.1 239.079 46.225 238.279 49.325C236.679 54.175 234.079 57.525 230.479 59.375C227.629 60.475 225.179 62.35 223.129 65C221.879 62.75 220.329 61.15 218.479 60.2C216.279 59.55 214.554 58.1 213.304 55.85C212.554 56.9 211.729 57.8 210.829 58.55C209.979 59.25 209.104 59.8 208.204 60.2C206.254 60.75 204.729 61.325 203.629 61.925C202.579 62.475 201.754 63.45 201.154 64.85C200.654 63.5 199.729 62.425 198.379 61.625C197.079 60.825 195.704 60.25 194.254 59.9C192.154 59.05 190.404 57.85 189.004 56.3C187.604 54.75 186.529 52.925 185.779 50.825C184.879 47.625 182.704 45.45 179.254 44.3C182.454 42.75 184.579 40.475 185.629 37.475ZM229.129 42.425C229.129 40.875 228.904 39.275 228.454 37.625C228.054 35.975 227.254 34.475 226.054 33.125C224.904 31.725 223.304 30.6 221.254 29.75C219.204 28.85 216.554 28.4 213.304 28.4C212.654 28.4 211.854 28.45 210.904 28.55C210.004 28.65 209.054 28.775 208.054 28.925C207.054 29.075 206.054 29.275 205.054 29.525C204.054 29.775 203.179 30.05 202.429 30.35C200.179 31.6 198.429 33.325 197.179 35.525C195.929 37.725 195.304 40.2 195.304 42.95C195.304 45.85 195.829 47.975 196.879 49.325C197.979 50.675 199.404 51.35 201.154 51.35C202.054 51.35 202.879 51.275 203.629 51.125C204.379 50.925 205.029 50.575 205.579 50.075C206.129 49.575 206.554 48.925 206.854 48.125C207.154 47.275 207.304 46.175 207.304 44.825C207.304 44.375 207.254 44.025 207.154 43.775C207.104 43.525 206.954 43.15 206.704 42.65H218.179C218.029 43.65 217.954 44.475 217.954 45.125C217.954 46.375 218.079 47.375 218.329 48.125C218.579 48.875 218.929 49.475 219.379 49.925C219.879 50.325 220.429 50.6 221.029 50.75C221.679 50.9 222.379 50.975 223.129 50.975C224.279 50.975 225.229 50.75 225.979 50.3C226.779 49.85 227.404 49.25 227.854 48.5C228.304 47.7 228.629 46.775 228.829 45.725C229.029 44.675 229.129 43.575 229.129 42.425ZM271.923 59.975C267.873 59.225 264.473 57.8 261.723 55.7C258.973 53.6 256.998 50.975 255.798 47.825V47.9C254.948 44.7 252.773 42.525 249.273 41.375C252.023 39.975 254.048 37.95 255.348 35.3C255.748 33.85 256.298 32.525 256.998 31.325C257.748 30.075 258.573 29.1 259.473 28.4H251.448V19.625H292.698C293.998 19.625 294.948 19.275 295.548 18.575C296.198 17.875 296.523 16.575 296.523 14.675C296.523 13.725 296.348 12.75 295.998 11.75C295.648 10.75 294.998 9.95 294.048 9.35L302.223 4.55C303.473 5.4 304.448 6.8 305.148 8.75C305.898 10.65 306.273 12.725 306.273 14.975C306.273 16.725 306.073 18.25 305.673 19.55C305.323 20.85 304.823 21.975 304.173 22.925C303.573 23.875 302.848 24.675 301.998 25.325C301.198 25.975 300.348 26.525 299.448 26.975C300.448 27.925 301.323 28.875 302.073 29.825C302.873 30.775 303.423 31.675 303.723 32.525C304.273 33.975 305.048 35.275 306.048 36.425C307.048 37.575 308.398 38.575 310.098 39.425C306.848 40.475 304.748 42.375 303.798 45.125C302.748 49.175 300.723 52.475 297.723 55.025C294.773 57.575 290.798 59.25 285.798 60.05H285.873C284.423 60.6 283.073 61.3 281.823 62.15C280.573 63 279.448 63.95 278.448 65C276.598 62.55 274.423 60.875 271.923 59.975ZM294.423 39.65C294.423 37.55 294.073 35.775 293.373 34.325C292.673 32.875 291.698 31.7 290.448 30.8C289.248 29.9 287.823 29.25 286.173 28.85C284.573 28.45 282.873 28.25 281.073 28.25C270.623 28.25 265.398 32.225 265.398 40.175C265.398 41.725 265.723 43.175 266.373 44.525C267.073 45.825 268.023 46.975 269.223 47.975C270.473 48.975 271.973 49.775 273.723 50.375C275.473 50.925 277.423 51.2 279.573 51.2C282.123 51.2 284.323 50.875 286.173 50.225C288.073 49.575 289.623 48.725 290.823 47.675C292.023 46.575 292.923 45.325 293.523 43.925C294.123 42.525 294.423 41.1 294.423 39.65ZM306.58 59.825C304.13 58.825 302.155 57.3 300.655 55.25C299.105 53.2 298.23 50.825 298.03 48.125L303.28 40.475C303.83 42.675 304.48 44.5 305.23 45.95C305.93 47.35 306.73 48.5 307.63 49.4C308.53 50.25 309.53 50.875 310.63 51.275C311.68 51.625 312.88 51.825 314.23 51.875C315.38 51.725 316.405 51.225 317.305 50.375C318.255 49.525 318.73 48.55 318.73 47.45C318.73 45.95 318.455 44.8 317.905 44C317.355 43.15 316.755 42.35 316.105 41.6C315.505 40.8 314.93 39.875 314.38 38.825C313.83 37.725 313.555 36.175 313.555 34.175C313.555 31.075 314.355 28.575 315.955 26.675C317.555 24.775 319.555 23.3 321.955 22.25C324.355 21.2 326.93 20.5 329.68 20.15C332.48 19.8 335.055 19.625 337.405 19.625C341.305 19.625 344.705 20.025 347.605 20.825C350.505 21.575 352.955 22.675 354.955 24.125C357.005 25.575 358.655 27.35 359.905 29.45C361.205 31.55 362.205 33.925 362.905 36.575V36.425C363.955 39.525 366.13 41.85 369.43 43.4C367.63 43.95 366.18 44.8 365.08 45.95C363.98 47.05 363.205 48.35 362.755 49.85C361.655 52.45 360.43 54.575 359.08 56.225C357.73 57.825 356.055 59.125 354.055 60.125C351.055 61.275 348.555 62.95 346.555 65.15C345.755 64.15 344.905 63.275 344.005 62.525C343.155 61.725 342.23 61.125 341.23 60.725C340.98 60.625 340.68 60.5 340.33 60.35C339.98 60.2 339.78 60.1 339.73 60.05H339.805C338.455 59.45 337.28 58.65 336.28 57.65C335.28 56.65 334.43 55.525 333.73 54.275C333.08 53.025 332.58 51.725 332.23 50.375C331.88 48.975 331.705 47.55 331.705 46.1C331.705 44.5 331.905 42.9 332.305 41.3C332.755 39.65 333.455 38.175 334.405 36.875C335.355 35.525 336.58 34.45 338.08 33.65C339.63 32.8 341.48 32.375 343.63 32.375C344.73 32.375 345.755 32.6 346.705 33.05C347.655 33.5 348.455 34.1 349.105 34.85C349.805 35.55 350.33 36.35 350.68 37.25C351.08 38.1 351.28 38.975 351.28 39.875C351.28 40.975 351.055 41.925 350.605 42.725C350.205 43.525 349.68 44.2 349.03 44.75C348.38 45.25 347.68 45.625 346.93 45.875C346.23 46.125 345.58 46.25 344.98 46.25C344.48 46.25 344.055 46.2 343.705 46.1C343.405 46 343.03 45.725 342.58 45.275C342.53 45.675 342.43 46.05 342.28 46.4C342.13 46.7 342.055 47.075 342.055 47.525C342.055 48.825 342.505 49.9 343.405 50.75C344.355 51.6 345.505 52.025 346.855 52.025C347.755 52.025 348.655 51.825 349.555 51.425C350.455 50.975 351.255 50.35 351.955 49.55C352.655 48.75 353.205 47.8 353.605 46.7C354.055 45.55 354.28 44.275 354.28 42.875C354.28 41.425 354.055 39.875 353.605 38.225C353.155 36.525 352.33 34.95 351.13 33.5C349.98 32.05 348.38 30.85 346.33 29.9C344.28 28.9 341.68 28.4 338.53 28.4C336.43 28.4 334.505 28.525 332.755 28.775C331.005 28.975 329.505 29.35 328.255 29.9C327.005 30.4 326.03 31.125 325.33 32.075C324.63 32.975 324.28 34.1 324.28 35.45C324.28 36.65 324.48 37.625 324.88 38.375C325.33 39.125 325.805 39.9 326.305 40.7C326.855 41.5 327.355 42.475 327.805 43.625C328.255 44.725 328.48 46.2 328.48 48.05C328.48 51.3 327.605 53.975 325.855 56.075C324.155 58.175 321.98 59.65 319.33 60.5C319.28 60.6 319.23 60.65 319.18 60.65C319.13 60.65 319.08 60.675 319.03 60.725C316.83 61.775 314.93 63.175 313.33 64.925C312.38 63.625 311.355 62.575 310.255 61.775C309.105 60.925 307.88 60.275 306.58 59.825ZM455.784 65.825C454.634 65.825 453.634 65.5 452.784 64.85C451.984 64.2 451.534 63.3 451.434 62.15H451.509C452.059 61.25 452.409 60.325 452.559 59.375C452.759 58.375 452.859 57.2 452.859 55.85C452.859 55.2 452.809 54.6 452.709 54.05C452.659 53.45 452.459 52.85 452.109 52.25C450.359 54.5 448.184 56.25 445.584 57.5C443.034 58.7 440.159 59.525 436.959 59.975H437.034C433.084 60.925 430.659 62.55 429.759 64.85C428.859 62.55 426.759 60.9 423.459 59.9C420.009 59.3 417.159 58.1 414.909 56.3C412.709 54.5 411.609 51.95 411.609 48.65C411.609 46.05 412.359 43.95 413.859 42.35C415.359 40.7 417.259 39.425 419.559 38.525C421.909 37.625 424.484 37.025 427.284 36.725C430.084 36.375 432.809 36.2 435.459 36.2C438.309 36.2 440.909 36.5 443.259 37.1C445.609 37.65 447.734 38.35 449.634 39.2C449.734 38.7 449.809 38.3 449.859 38C449.909 37.7 449.934 37.325 449.934 36.875C449.934 34.475 449.284 32.475 447.984 30.875C446.734 29.225 444.834 28.4 442.284 28.4C441.384 28.4 440.509 28.475 439.659 28.625C438.859 28.725 438.134 28.975 437.484 29.375C436.884 29.725 436.384 30.25 435.984 30.95C435.634 31.65 435.459 32.55 435.459 33.65V34.175H426.609C426.759 33.725 426.834 33.25 426.834 32.75C426.834 31.45 426.409 30.4 425.559 29.6C424.759 28.8 423.584 28.4 422.034 28.4C420.134 28.4 418.834 28.775 418.134 29.525C417.434 30.275 417.084 31.3 417.084 32.6C417.084 33.1 417.109 33.5 417.159 33.8C417.259 34.1 417.409 34.45 417.609 34.85L409.209 37.325C409.009 36.775 408.834 36.275 408.684 35.825C408.584 35.325 408.509 34.8 408.459 34.25C407.909 33.7 407.259 33.2 406.509 32.75C405.759 32.25 404.934 31.875 404.034 31.625C405.084 31.075 406.059 30.45 406.959 29.75C407.859 29 408.634 28.175 409.284 27.275C411.184 24.475 413.159 22.525 415.209 21.425C417.259 20.325 419.634 19.775 422.334 19.775C424.734 19.775 426.659 20.2 428.109 21.05C429.559 21.9 430.734 23.05 431.634 24.5C431.884 23.8 432.359 23.15 433.059 22.55C433.809 21.95 434.659 21.45 435.609 21.05C436.609 20.6 437.659 20.275 438.759 20.075C439.909 19.825 441.059 19.7 442.209 19.7C444.359 19.7 446.259 20 447.909 20.6C449.559 21.15 450.984 21.925 452.184 22.925C453.434 23.925 454.459 25.125 455.259 26.525C456.059 27.875 456.659 29.375 457.059 31.025C458.259 33.575 460.284 35.55 463.134 36.95C460.084 37.9 458.009 39.65 456.909 42.2C456.859 42.6 456.734 43.025 456.534 43.475C458.334 45.725 459.559 48.05 460.209 50.45C460.859 52.8 461.184 55.1 461.184 57.35C461.184 58.35 461.134 59.2 461.034 59.9C460.934 60.6 460.709 61.425 460.359 62.375C460.259 63.375 459.784 64.2 458.934 64.85C458.134 65.5 457.084 65.825 455.784 65.825ZM447.084 47.225C444.734 45.675 442.409 44.7 440.109 44.3C437.859 43.9 435.559 43.7 433.209 43.7C431.859 43.7 430.434 43.775 428.934 43.925C427.484 44.025 426.134 44.275 424.884 44.675C423.684 45.075 422.659 45.65 421.809 46.4C421.009 47.1 420.609 48.05 420.609 49.25C420.609 49.95 420.934 50.55 421.584 51.05C422.234 51.5 423.034 51.875 423.984 52.175C424.984 52.475 426.059 52.7 427.209 52.85C428.409 52.95 429.559 53 430.659 53C431.909 53 433.284 52.925 434.784 52.775C436.334 52.575 437.859 52.275 439.359 51.875C440.859 51.425 442.284 50.825 443.634 50.075C444.984 49.325 446.134 48.375 447.084 47.225ZM490.258 59.975C486.208 59.225 482.808 57.8 480.058 55.7C477.308 53.6 475.333 50.975 474.133 47.825V47.9C473.283 44.7 471.108 42.525 467.608 41.375C470.358 39.975 472.383 37.95 473.683 35.3C474.083 33.85 474.633 32.525 475.333 31.325C476.083 30.075 476.908 29.1 477.808 28.4H469.783V19.625H511.033C512.333 19.625 513.283 19.275 513.883 18.575C514.533 17.875 514.858 16.575 514.858 14.675C514.858 13.725 514.683 12.75 514.333 11.75C513.983 10.75 513.333 9.95 512.383 9.35L520.558 4.55C521.808 5.4 522.783 6.8 523.483 8.75C524.233 10.65 524.608 12.725 524.608 14.975C524.608 16.725 524.408 18.25 524.008 19.55C523.658 20.85 523.158 21.975 522.508 22.925C521.908 23.875 521.183 24.675 520.333 25.325C519.533 25.975 518.683 26.525 517.783 26.975C518.783 27.925 519.658 28.875 520.408 29.825C521.208 30.775 521.758 31.675 522.058 32.525C522.608 33.975 523.383 35.275 524.383 36.425C525.383 37.575 526.733 38.575 528.433 39.425C525.183 40.475 523.083 42.375 522.133 45.125C521.083 49.175 519.058 52.475 516.058 55.025C513.108 57.575 509.133 59.25 504.133 60.05H504.208C502.758 60.6 501.408 61.3 500.158 62.15C498.908 63 497.783 63.95 496.783 65C494.933 62.55 492.758 60.875 490.258 59.975ZM512.758 39.65C512.758 37.55 512.408 35.775 511.708 34.325C511.008 32.875 510.033 31.7 508.783 30.8C507.583 29.9 506.158 29.25 504.508 28.85C502.908 28.45 501.208 28.25 499.408 28.25C488.958 28.25 483.733 32.225 483.733 40.175C483.733 41.725 484.058 43.175 484.708 44.525C485.408 45.825 486.358 46.975 487.558 47.975C488.808 48.975 490.308 49.775 492.058 50.375C493.808 50.925 495.758 51.2 497.908 51.2C500.458 51.2 502.658 50.875 504.508 50.225C506.408 49.575 507.958 48.725 509.158 47.675C510.358 46.575 511.258 45.325 511.858 43.925C512.458 42.525 512.758 41.1 512.758 39.65ZM524.84 59.9C522.44 58.9 520.49 57.4 518.99 55.4C517.44 53.35 516.565 50.975 516.365 48.275L521.54 40.7C521.99 42.5 522.515 44.075 523.115 45.425C523.665 46.775 524.365 47.95 525.215 48.95C526.065 49.9 527.115 50.7 528.365 51.35C529.615 52 531.14 52.5 532.94 52.85C540.24 52.65 544.115 48.975 544.565 41.825C544.565 37.625 543.665 34.35 541.865 32C540.065 29.6 537.615 28.4 534.515 28.4C533.865 28.4 533.365 28.45 533.015 28.55C532.665 28.65 532.215 28.875 531.665 29.225V19.85C532.265 19.75 532.74 19.7 533.09 19.7C533.49 19.65 534.065 19.625 534.815 19.625C536.965 19.625 538.815 19.8 540.365 20.15C541.915 20.45 543.265 20.9 544.415 21.5C545.615 22.05 546.64 22.725 547.49 23.525C548.39 24.325 549.215 25.175 549.965 26.075C550.965 27.325 551.79 28.6 552.44 29.9C553.14 31.15 553.69 32.5 554.09 33.95C555.04 36.8 557.19 39.05 560.54 40.7C557.14 41.65 554.94 43.725 553.94 46.925C553.39 49.325 552.715 51.275 551.915 52.775C551.115 54.275 550.09 55.525 548.84 56.525C547.64 57.525 546.165 58.35 544.415 59C542.665 59.65 540.565 60.325 538.115 61.025C537.665 61.025 537.14 61.15 536.54 61.4C535.94 61.65 535.34 61.975 534.74 62.375C534.14 62.725 533.54 63.125 532.94 63.575C532.39 64.025 531.94 64.475 531.59 64.925C529.59 62.375 527.34 60.7 524.84 59.9ZM622.381 19.85C624.531 19.7 626.656 19.625 628.756 19.625C644.606 19.625 653.856 24.95 656.506 35.6C657.056 36.95 657.856 38.2 658.906 39.35C659.956 40.45 661.306 41.425 662.956 42.275C659.756 43.225 657.631 45.15 656.581 48.05C655.031 54.2 651.531 58.25 646.081 60.2C644.331 60.65 642.956 61.25 641.956 62C641.006 62.75 640.256 63.675 639.706 64.775C639.206 63.525 638.481 62.6 637.531 62C636.631 61.4 635.631 60.875 634.531 60.425C633.481 59.925 632.431 59.4 631.381 58.85C630.381 58.25 629.556 57.375 628.906 56.225C626.606 57.575 624.731 58.675 623.281 59.525C621.881 60.325 620.731 61.025 619.831 61.625C618.981 62.175 618.331 62.7 617.881 63.2C617.481 63.65 617.131 64.2 616.831 64.85C616.231 63.45 615.406 62.425 614.356 61.775C613.306 61.125 611.881 60.5 610.081 59.9C609.181 59.7 608.356 59.35 607.606 58.85C606.856 58.35 606.156 57.775 605.506 57.125C604.906 56.425 604.356 55.7 603.856 54.95C603.356 54.15 602.931 53.375 602.581 52.625C602.031 51.575 601.256 50.7 600.256 50C599.306 49.3 598.181 48.7 596.881 48.2C598.231 47.55 599.306 46.85 600.106 46.1C600.956 45.3 601.606 44.575 602.056 43.925C602.506 43.225 602.806 42.65 602.956 42.2C603.156 41.7 603.281 41.4 603.331 41.3C604.281 39.8 605.556 38.65 607.156 37.85C608.806 37 610.681 36.575 612.781 36.575C613.831 36.575 614.806 36.725 615.706 37.025C616.656 37.325 617.481 37.775 618.181 38.375C618.931 38.925 619.506 39.625 619.906 40.475C620.356 41.275 620.581 42.175 620.581 43.175C620.581 44.825 619.956 46.25 618.706 47.45C617.506 48.65 616.081 49.25 614.431 49.25C614.031 49.25 613.681 49.25 613.381 49.25C613.131 49.2 612.781 49.125 612.331 49.025C612.581 50.175 613.056 51.15 613.756 51.95C614.456 52.75 615.506 53.15 616.906 53.15C618.706 53.15 620.281 52.625 621.631 51.575C623.031 50.475 623.731 48.875 623.731 46.775C623.731 46.175 623.706 45.725 623.656 45.425C623.656 45.075 623.556 44.625 623.356 44.075H634.081C633.931 44.575 633.831 45 633.781 45.35C633.781 45.65 633.781 46.025 633.781 46.475C633.781 48.575 634.306 50.1 635.356 51.05C636.456 51.95 637.831 52.4 639.481 52.4C641.931 52.4 643.906 51.625 645.406 50.075C646.906 48.525 647.706 46.225 647.806 43.175C647.756 40.625 647.331 38.425 646.531 36.575C645.731 34.675 644.481 33.125 642.781 31.925C641.081 30.725 638.881 29.85 636.181 29.3C633.481 28.7 630.231 28.4 626.431 28.4C625.531 28.4 624.831 28.425 624.331 28.475C623.881 28.525 623.231 28.625 622.381 28.775V19.85ZM687.586 59.9C684.536 58.75 681.936 57 679.786 54.65C677.686 52.25 676.161 49.475 675.211 46.325C674.161 43.725 672.086 41.9 668.986 40.85C672.236 39.3 674.386 37 675.436 33.95V34.025C676.136 31.925 677.111 30.025 678.361 28.325C679.661 26.575 681.136 25.075 682.786 23.825C684.486 22.575 686.336 21.6 688.336 20.9C690.386 20.2 692.536 19.85 694.786 19.85C697.036 19.85 699.186 20.2 701.236 20.9C703.286 21.6 705.136 22.575 706.786 23.825C708.486 25.025 709.961 26.475 711.211 28.175C712.461 29.875 713.436 31.725 714.136 33.725C715.186 36.775 717.336 39.1 720.586 40.7C717.586 41.7 715.536 43.375 714.436 45.725C713.536 49.125 711.861 52.15 709.411 54.8C706.961 57.4 703.611 59.375 699.361 60.725C696.961 61.475 695.311 62.85 694.411 64.85C693.861 63.5 693.036 62.5 691.936 61.85C690.886 61.2 689.436 60.55 687.586 59.9ZM683.911 40.475C683.911 42.025 684.186 43.5 684.736 44.9C685.286 46.3 686.036 47.525 686.986 48.575C687.986 49.625 689.136 50.475 690.436 51.125C691.786 51.725 693.211 52.025 694.711 52.025C696.211 52.025 697.611 51.725 698.911 51.125C700.261 50.475 701.436 49.625 702.436 48.575C703.436 47.525 704.211 46.3 704.761 44.9C705.361 43.5 705.661 42.025 705.661 40.475C705.661 38.875 705.361 37.375 704.761 35.975C704.211 34.525 703.436 33.275 702.436 32.225C701.436 31.125 700.261 30.275 698.911 29.675C697.611 29.025 696.211 28.7 694.711 28.7C693.211 28.7 691.786 29.025 690.436 29.675C689.136 30.275 687.986 31.125 686.986 32.225C686.036 33.275 685.286 34.525 684.736 35.975C684.186 37.375 683.911 38.875 683.911 40.475ZM738.443 41.975C738.443 43.575 738.818 44.95 739.568 46.1C740.368 47.25 741.393 48.2 742.643 48.95C743.893 49.7 745.318 50.275 746.918 50.675C748.568 51.025 750.268 51.2 752.018 51.2C753.268 51.2 754.568 51.125 755.918 50.975C757.268 50.775 758.518 50.5 759.668 50.15C760.818 49.75 761.768 49.25 762.518 48.65C763.268 48 763.643 47.225 763.643 46.325C763.643 45.025 763.168 44.125 762.218 43.625C761.268 43.125 760.243 42.875 759.143 42.875H749.018C748.218 42.875 747.568 42.925 747.068 43.025C746.568 43.075 746.143 43.225 745.793 43.475V34.325H758.993C759.793 34.325 760.493 34.025 761.093 33.425C761.693 32.825 761.993 32.1 761.993 31.25C761.993 29.35 760.568 28.4 757.718 28.4H732.368C731.518 28.4 730.918 28.475 730.568 28.625C730.268 28.725 729.943 28.975 729.593 29.375V19.625H771.293V27.35C772.043 28.35 772.418 29.45 772.418 30.65C772.418 31.65 772.243 32.625 771.893 33.575C771.543 34.525 771.143 35.4 770.693 36.2C772.043 36.9 773.168 37.925 774.068 39.275L775.043 41.225C776.193 43.175 777.968 44.7 780.368 45.8C778.768 46.35 777.443 47.1 776.393 48.05C775.393 48.95 774.543 50.2 773.843 51.8C772.593 53.9 770.768 55.675 768.368 57.125C765.968 58.525 763.118 59.525 759.818 60.125C756.868 61.275 754.443 62.9 752.543 65C750.893 62.75 748.893 61.175 746.543 60.275C742.593 59.825 739.218 58.9 736.418 57.5C733.618 56.05 731.468 53.975 729.968 51.275C729.418 49.775 728.643 48.5 727.643 47.45C726.643 46.4 725.243 45.6 723.443 45.05C726.443 44.6 728.543 43.575 729.743 41.975H738.443ZM790.46 60.05C788.06 59.05 786.085 57.475 784.535 55.325C783.035 53.175 782.285 50.25 782.285 46.55C782.285 44.75 782.51 43 782.96 41.3C783.41 39.6 784.11 38.1 785.06 36.8C786.06 35.45 787.31 34.375 788.81 33.575C790.31 32.775 792.11 32.375 794.21 32.375C795.16 32.375 796.085 32.5 796.985 32.75C797.935 32.95 798.76 33.325 799.46 33.875C800.21 34.425 800.81 35.15 801.26 36.05C801.71 36.95 801.935 38.075 801.935 39.425C801.935 40.375 801.735 41.3 801.335 42.2C800.935 43.1 800.41 43.9 799.76 44.6C799.11 45.25 798.335 45.775 797.435 46.175C796.535 46.575 795.61 46.775 794.66 46.775C794.26 46.775 793.935 46.75 793.685 46.7C793.435 46.6 793.185 46.5 792.935 46.4C792.835 46.65 792.76 46.85 792.71 47C792.71 47.1 792.71 47.2 792.71 47.3C792.71 48.9 793.185 50.175 794.135 51.125C795.135 52.025 796.41 52.475 797.96 52.475C799.56 52.475 800.885 52.1 801.935 51.35C802.985 50.6 803.81 49.65 804.41 48.5C805.01 47.35 805.435 46.05 805.685 44.6C805.935 43.15 806.06 41.7 806.06 40.25C806.06 36.2 805.01 33.225 802.91 31.325C800.86 29.375 798.135 28.4 794.735 28.4H759.41V19.625H794.21C797.66 19.625 800.61 20.025 803.06 20.825C805.51 21.575 807.56 22.625 809.21 23.975C810.91 25.275 812.235 26.8 813.185 28.55C814.135 30.25 814.835 32.025 815.285 33.875C816.435 36.925 818.61 39.2 821.81 40.7C819.91 41.25 818.41 42.05 817.31 43.1C816.26 44.1 815.535 45.35 815.135 46.85C814.235 50.1 812.76 52.875 810.71 55.175C808.66 57.425 806.285 59.075 803.585 60.125C802.285 60.675 801.06 61.375 799.91 62.225C798.76 63.075 797.685 64.025 796.685 65.075L790.46 60.05ZM828.183 37.475C828.583 36.125 829.233 34.825 830.133 33.575C831.033 32.275 832.158 30.55 833.508 28.4H826.008V19.625H870.183C871.483 19.625 872.458 19.275 873.108 18.575C873.758 17.875 874.083 16.55 874.083 14.6C874.083 13.65 873.883 12.65 873.483 11.6C873.133 10.55 872.458 9.725 871.458 9.125L879.858 4.25C881.158 5.1 882.158 6.525 882.858 8.525C883.608 10.525 883.983 12.65 883.983 14.9C883.983 22.15 881.333 26.575 876.033 28.175C876.983 28.875 877.908 29.925 878.808 31.325C879.708 32.725 880.433 34.375 880.983 36.275C882.133 39.325 884.258 41.55 887.358 42.95C883.808 44.1 881.633 46.225 880.833 49.325C879.233 54.175 876.633 57.525 873.033 59.375C870.183 60.475 867.733 62.35 865.683 65C864.433 62.75 862.883 61.15 861.033 60.2C858.833 59.55 857.108 58.1 855.858 55.85C855.108 56.9 854.283 57.8 853.383 58.55C852.533 59.25 851.658 59.8 850.758 60.2C848.808 60.75 847.283 61.325 846.183 61.925C845.133 62.475 844.308 63.45 843.708 64.85C843.208 63.5 842.283 62.425 840.933 61.625C839.633 60.825 838.258 60.25 836.808 59.9C834.708 59.05 832.958 57.85 831.558 56.3C830.158 54.75 829.083 52.925 828.333 50.825C827.433 47.625 825.258 45.45 821.808 44.3C825.008 42.75 827.133 40.475 828.183 37.475ZM871.683 42.425C871.683 40.875 871.458 39.275 871.008 37.625C870.608 35.975 869.808 34.475 868.608 33.125C867.458 31.725 865.858 30.6 863.808 29.75C861.758 28.85 859.108 28.4 855.858 28.4C855.208 28.4 854.408 28.45 853.458 28.55C852.558 28.65 851.608 28.775 850.608 28.925C849.608 29.075 848.608 29.275 847.608 29.525C846.608 29.775 845.733 30.05 844.983 30.35C842.733 31.6 840.983 33.325 839.733 35.525C838.483 37.725 837.858 40.2 837.858 42.95C837.858 45.85 838.383 47.975 839.433 49.325C840.533 50.675 841.958 51.35 843.708 51.35C844.608 51.35 845.433 51.275 846.183 51.125C846.933 50.925 847.583 50.575 848.133 50.075C848.683 49.575 849.108 48.925 849.408 48.125C849.708 47.275 849.858 46.175 849.858 44.825C849.858 44.375 849.808 44.025 849.708 43.775C849.658 43.525 849.508 43.15 849.258 42.65H860.733C860.583 43.65 860.508 44.475 860.508 45.125C860.508 46.375 860.633 47.375 860.883 48.125C861.133 48.875 861.483 49.475 861.933 49.925C862.433 50.325 862.983 50.6 863.583 50.75C864.233 50.9 864.933 50.975 865.683 50.975C866.833 50.975 867.783 50.75 868.533 50.3C869.333 49.85 869.958 49.25 870.408 48.5C870.858 47.7 871.183 46.775 871.383 45.725C871.583 44.675 871.683 43.575 871.683 42.425ZM914.477 59.975C910.427 59.225 907.027 57.8 904.277 55.7C901.527 53.6 899.552 50.975 898.352 47.825V47.9C897.502 44.7 895.327 42.525 891.827 41.375C894.577 39.975 896.602 37.95 897.902 35.3C898.302 33.85 898.852 32.525 899.552 31.325C900.302 30.075 901.127 29.1 902.027 28.4H894.002V19.625H935.252C936.552 19.625 937.502 19.275 938.102 18.575C938.752 17.875 939.077 16.575 939.077 14.675C939.077 13.725 938.902 12.75 938.552 11.75C938.202 10.75 937.552 9.95 936.602 9.35L944.777 4.55C946.027 5.4 947.002 6.8 947.702 8.75C948.452 10.65 948.827 12.725 948.827 14.975C948.827 16.725 948.627 18.25 948.227 19.55C947.877 20.85 947.377 21.975 946.727 22.925C946.127 23.875 945.402 24.675 944.552 25.325C943.752 25.975 942.902 26.525 942.002 26.975C943.002 27.925 943.877 28.875 944.627 29.825C945.427 30.775 945.977 31.675 946.277 32.525C946.827 33.975 947.602 35.275 948.602 36.425C949.602 37.575 950.952 38.575 952.652 39.425C949.402 40.475 947.302 42.375 946.352 45.125C945.302 49.175 943.277 52.475 940.277 55.025C937.327 57.575 933.352 59.25 928.352 60.05H928.427C926.977 60.6 925.627 61.3 924.377 62.15C923.127 63 922.002 63.95 921.002 65C919.152 62.55 916.977 60.875 914.477 59.975ZM936.977 39.65C936.977 37.55 936.627 35.775 935.927 34.325C935.227 32.875 934.252 31.7 933.002 30.8C931.802 29.9 930.377 29.25 928.727 28.85C927.127 28.45 925.427 28.25 923.627 28.25C913.177 28.25 907.952 32.225 907.952 40.175C907.952 41.725 908.277 43.175 908.927 44.525C909.627 45.825 910.577 46.975 911.777 47.975C913.027 48.975 914.527 49.775 916.277 50.375C918.027 50.925 919.977 51.2 922.127 51.2C924.677 51.2 926.877 50.875 928.727 50.225C930.627 49.575 932.177 48.725 933.377 47.675C934.577 46.575 935.477 45.325 936.077 43.925C936.677 42.525 936.977 41.1 936.977 39.65ZM949.059 59.9C946.659 58.9 944.709 57.4 943.209 55.4C941.659 53.35 940.784 50.975 940.584 48.275L945.759 40.7C946.209 42.5 946.734 44.075 947.334 45.425C947.884 46.775 948.584 47.95 949.434 48.95C950.284 49.9 951.334 50.7 952.584 51.35C953.834 52 955.359 52.5 957.159 52.85C964.459 52.65 968.334 48.975 968.784 41.825C968.784 37.625 967.884 34.35 966.084 32C964.284 29.6 961.834 28.4 958.734 28.4C958.084 28.4 957.584 28.45 957.234 28.55C956.884 28.65 956.434 28.875 955.884 29.225V19.85C956.484 19.75 956.959 19.7 957.309 19.7C957.709 19.65 958.284 19.625 959.034 19.625C961.184 19.625 963.034 19.8 964.584 20.15C966.134 20.45 967.484 20.9 968.634 21.5C969.834 22.05 970.859 22.725 971.709 23.525C972.609 24.325 973.434 25.175 974.184 26.075C975.184 27.325 976.009 28.6 976.659 29.9C977.359 31.15 977.909 32.5 978.309 33.95C979.259 36.8 981.409 39.05 984.759 40.7C981.359 41.65 979.159 43.725 978.159 46.925C977.609 49.325 976.934 51.275 976.134 52.775C975.334 54.275 974.309 55.525 973.059 56.525C971.859 57.525 970.384 58.35 968.634 59C966.884 59.65 964.784 60.325 962.334 61.025C961.884 61.025 961.359 61.15 960.759 61.4C960.159 61.65 959.559 61.975 958.959 62.375C958.359 62.725 957.759 63.125 957.159 63.575C956.609 64.025 956.159 64.475 955.809 64.925C953.809 62.375 951.559 60.7 949.059 59.9ZM1072.85 65.825C1071.7 65.825 1070.7 65.5 1069.85 64.85C1069.05 64.2 1068.6 63.3 1068.5 62.15H1068.57C1069.12 61.25 1069.47 60.325 1069.62 59.375C1069.82 58.375 1069.92 57.2 1069.92 55.85C1069.92 55.2 1069.87 54.6 1069.77 54.05C1069.72 53.45 1069.52 52.85 1069.17 52.25C1067.42 54.5 1065.25 56.25 1062.65 57.5C1060.1 58.7 1057.22 59.525 1054.02 59.975H1054.1C1050.15 60.925 1047.72 62.55 1046.82 64.85C1045.92 62.55 1043.82 60.9 1040.52 59.9C1037.07 59.3 1034.22 58.1 1031.97 56.3C1029.77 54.5 1028.67 51.95 1028.67 48.65C1028.67 46.05 1029.42 43.95 1030.92 42.35C1032.42 40.7 1034.32 39.425 1036.62 38.525C1038.97 37.625 1041.55 37.025 1044.35 36.725C1047.15 36.375 1049.87 36.2 1052.52 36.2C1055.37 36.2 1057.97 36.5 1060.32 37.1C1062.67 37.65 1064.8 38.35 1066.7 39.2C1066.8 38.7 1066.87 38.3 1066.92 38C1066.97 37.7 1067 37.325 1067 36.875C1067 34.475 1066.35 32.475 1065.05 30.875C1063.8 29.225 1061.9 28.4 1059.35 28.4C1058.45 28.4 1057.57 28.475 1056.72 28.625C1055.92 28.725 1055.2 28.975 1054.55 29.375C1053.95 29.725 1053.45 30.25 1053.05 30.95C1052.7 31.65 1052.52 32.55 1052.52 33.65V34.175H1043.67C1043.82 33.725 1043.9 33.25 1043.9 32.75C1043.9 31.45 1043.47 30.4 1042.62 29.6C1041.82 28.8 1040.65 28.4 1039.1 28.4C1037.2 28.4 1035.9 28.775 1035.2 29.525C1034.5 30.275 1034.15 31.3 1034.15 32.6C1034.15 33.1 1034.17 33.5 1034.22 33.8C1034.32 34.1 1034.47 34.45 1034.67 34.85L1026.27 37.325C1026.07 36.775 1025.9 36.275 1025.75 35.825C1025.65 35.325 1025.57 34.8 1025.52 34.25C1024.97 33.7 1024.32 33.2 1023.57 32.75C1022.82 32.25 1022 31.875 1021.1 31.625C1022.15 31.075 1023.12 30.45 1024.02 29.75C1024.92 29 1025.7 28.175 1026.35 27.275C1028.25 24.475 1030.22 22.525 1032.27 21.425C1034.32 20.325 1036.7 19.775 1039.4 19.775C1041.8 19.775 1043.72 20.2 1045.17 21.05C1046.62 21.9 1047.8 23.05 1048.7 24.5C1048.95 23.8 1049.42 23.15 1050.12 22.55C1050.87 21.95 1051.72 21.45 1052.67 21.05C1053.67 20.6 1054.72 20.275 1055.82 20.075C1056.97 19.825 1058.12 19.7 1059.27 19.7C1061.42 19.7 1063.32 20 1064.97 20.6C1066.62 21.15 1068.05 21.925 1069.25 22.925C1070.5 23.925 1071.52 25.125 1072.32 26.525C1073.12 27.875 1073.72 29.375 1074.12 31.025C1075.32 33.575 1077.35 35.55 1080.2 36.95C1077.15 37.9 1075.07 39.65 1073.97 42.2C1073.92 42.6 1073.8 43.025 1073.6 43.475C1075.4 45.725 1076.62 48.05 1077.27 50.45C1077.92 52.8 1078.25 55.1 1078.25 57.35C1078.25 58.35 1078.2 59.2 1078.1 59.9C1078 60.6 1077.77 61.425 1077.42 62.375C1077.32 63.375 1076.85 64.2 1076 64.85C1075.2 65.5 1074.15 65.825 1072.85 65.825ZM1064.15 47.225C1061.8 45.675 1059.47 44.7 1057.17 44.3C1054.92 43.9 1052.62 43.7 1050.27 43.7C1048.92 43.7 1047.5 43.775 1046 43.925C1044.55 44.025 1043.2 44.275 1041.95 44.675C1040.75 45.075 1039.72 45.65 1038.87 46.4C1038.07 47.1 1037.67 48.05 1037.67 49.25C1037.67 49.95 1038 50.55 1038.65 51.05C1039.3 51.5 1040.1 51.875 1041.05 52.175C1042.05 52.475 1043.12 52.7 1044.27 52.85C1045.47 52.95 1046.62 53 1047.72 53C1048.97 53 1050.35 52.925 1051.85 52.775C1053.4 52.575 1054.92 52.275 1056.42 51.875C1057.92 51.425 1059.35 50.825 1060.7 50.075C1062.05 49.325 1063.2 48.375 1064.15 47.225ZM1107.32 59.975C1103.27 59.225 1099.87 57.8 1097.12 55.7C1094.37 53.6 1092.4 50.975 1091.2 47.825V47.9C1090.35 44.7 1088.17 42.525 1084.67 41.375C1087.42 39.975 1089.45 37.95 1090.75 35.3C1091.15 33.85 1091.7 32.525 1092.4 31.325C1093.15 30.075 1093.97 29.1 1094.87 28.4H1086.85V19.625H1128.1C1129.4 19.625 1130.35 19.275 1130.95 18.575C1131.6 17.875 1131.92 16.575 1131.92 14.675C1131.92 13.725 1131.75 12.75 1131.4 11.75C1131.05 10.75 1130.4 9.95 1129.45 9.35L1137.62 4.55C1138.87 5.4 1139.85 6.8 1140.55 8.75C1141.3 10.65 1141.67 12.725 1141.67 14.975C1141.67 16.725 1141.47 18.25 1141.07 19.55C1140.72 20.85 1140.22 21.975 1139.57 22.925C1138.97 23.875 1138.25 24.675 1137.4 25.325C1136.6 25.975 1135.75 26.525 1134.85 26.975C1135.85 27.925 1136.72 28.875 1137.47 29.825C1138.27 30.775 1138.82 31.675 1139.12 32.525C1139.67 33.975 1140.45 35.275 1141.45 36.425C1142.45 37.575 1143.8 38.575 1145.5 39.425C1142.25 40.475 1140.15 42.375 1139.2 45.125C1138.15 49.175 1136.12 52.475 1133.12 55.025C1130.17 57.575 1126.2 59.25 1121.2 60.05H1121.27C1119.82 60.6 1118.47 61.3 1117.22 62.15C1115.97 63 1114.85 63.95 1113.85 65C1112 62.55 1109.82 60.875 1107.32 59.975ZM1129.82 39.65C1129.82 37.55 1129.47 35.775 1128.77 34.325C1128.07 32.875 1127.1 31.7 1125.85 30.8C1124.65 29.9 1123.22 29.25 1121.57 28.85C1119.97 28.45 1118.27 28.25 1116.47 28.25C1106.02 28.25 1100.8 32.225 1100.8 40.175C1100.8 41.725 1101.12 43.175 1101.77 44.525C1102.47 45.825 1103.42 46.975 1104.62 47.975C1105.87 48.975 1107.37 49.775 1109.12 50.375C1110.87 50.925 1112.82 51.2 1114.97 51.2C1117.52 51.2 1119.72 50.875 1121.57 50.225C1123.47 49.575 1125.02 48.725 1126.22 47.675C1127.42 46.575 1128.32 45.325 1128.92 43.925C1129.52 42.525 1129.82 41.1 1129.82 39.65ZM1141.91 59.9C1139.51 58.9 1137.56 57.4 1136.06 55.4C1134.51 53.35 1133.63 50.975 1133.43 48.275L1138.61 40.7C1139.06 42.5 1139.58 44.075 1140.18 45.425C1140.73 46.775 1141.43 47.95 1142.28 48.95C1143.13 49.9 1144.18 50.7 1145.43 51.35C1146.68 52 1148.21 52.5 1150.01 52.85C1157.31 52.65 1161.18 48.975 1161.63 41.825C1161.63 37.625 1160.73 34.35 1158.93 32C1157.13 29.6 1154.68 28.4 1151.58 28.4C1150.93 28.4 1150.43 28.45 1150.08 28.55C1149.73 28.65 1149.28 28.875 1148.73 29.225V19.85C1149.33 19.75 1149.81 19.7 1150.16 19.7C1150.56 19.65 1151.13 19.625 1151.88 19.625C1154.03 19.625 1155.88 19.8 1157.43 20.15C1158.98 20.45 1160.33 20.9 1161.48 21.5C1162.68 22.05 1163.71 22.725 1164.56 23.525C1165.46 24.325 1166.28 25.175 1167.03 26.075C1168.03 27.325 1168.86 28.6 1169.51 29.9C1170.21 31.15 1170.76 32.5 1171.16 33.95C1172.11 36.8 1174.26 39.05 1177.61 40.7C1174.21 41.65 1172.01 43.725 1171.01 46.925C1170.46 49.325 1169.78 51.275 1168.98 52.775C1168.18 54.275 1167.16 55.525 1165.91 56.525C1164.71 57.525 1163.23 58.35 1161.48 59C1159.73 59.65 1157.63 60.325 1155.18 61.025C1154.73 61.025 1154.21 61.15 1153.61 61.4C1153.01 61.65 1152.41 61.975 1151.81 62.375C1151.21 62.725 1150.61 63.125 1150.01 63.575C1149.46 64.025 1149.01 64.475 1148.66 64.925C1146.66 62.375 1144.41 60.7 1141.91 59.9ZM1239.45 19.85C1241.6 19.7 1243.72 19.625 1245.82 19.625C1261.67 19.625 1270.92 24.95 1273.57 35.6C1274.12 36.95 1274.92 38.2 1275.97 39.35C1277.02 40.45 1278.37 41.425 1280.02 42.275C1276.82 43.225 1274.7 45.15 1273.65 48.05C1272.1 54.2 1268.6 58.25 1263.15 60.2C1261.4 60.65 1260.02 61.25 1259.02 62C1258.07 62.75 1257.32 63.675 1256.77 64.775C1256.27 63.525 1255.55 62.6 1254.6 62C1253.7 61.4 1252.7 60.875 1251.6 60.425C1250.55 59.925 1249.5 59.4 1248.45 58.85C1247.45 58.25 1246.62 57.375 1245.97 56.225C1243.67 57.575 1241.8 58.675 1240.35 59.525C1238.95 60.325 1237.8 61.025 1236.9 61.625C1236.05 62.175 1235.4 62.7 1234.95 63.2C1234.55 63.65 1234.2 64.2 1233.9 64.85C1233.3 63.45 1232.47 62.425 1231.42 61.775C1230.37 61.125 1228.95 60.5 1227.15 59.9C1226.25 59.7 1225.42 59.35 1224.67 58.85C1223.92 58.35 1223.22 57.775 1222.57 57.125C1221.97 56.425 1221.42 55.7 1220.92 54.95C1220.42 54.15 1220 53.375 1219.65 52.625C1219.1 51.575 1218.32 50.7 1217.32 50C1216.37 49.3 1215.25 48.7 1213.95 48.2C1215.3 47.55 1216.37 46.85 1217.17 46.1C1218.02 45.3 1218.67 44.575 1219.12 43.925C1219.57 43.225 1219.87 42.65 1220.02 42.2C1220.22 41.7 1220.35 41.4 1220.4 41.3C1221.35 39.8 1222.62 38.65 1224.22 37.85C1225.87 37 1227.75 36.575 1229.85 36.575C1230.9 36.575 1231.87 36.725 1232.77 37.025C1233.72 37.325 1234.55 37.775 1235.25 38.375C1236 38.925 1236.57 39.625 1236.97 40.475C1237.42 41.275 1237.65 42.175 1237.65 43.175C1237.65 44.825 1237.02 46.25 1235.77 47.45C1234.57 48.65 1233.15 49.25 1231.5 49.25C1231.1 49.25 1230.75 49.25 1230.45 49.25C1230.2 49.2 1229.85 49.125 1229.4 49.025C1229.65 50.175 1230.12 51.15 1230.82 51.95C1231.52 52.75 1232.57 53.15 1233.97 53.15C1235.77 53.15 1237.35 52.625 1238.7 51.575C1240.1 50.475 1240.8 48.875 1240.8 46.775C1240.8 46.175 1240.77 45.725 1240.72 45.425C1240.72 45.075 1240.62 44.625 1240.42 44.075H1251.15C1251 44.575 1250.9 45 1250.85 45.35C1250.85 45.65 1250.85 46.025 1250.85 46.475C1250.85 48.575 1251.37 50.1 1252.42 51.05C1253.52 51.95 1254.9 52.4 1256.55 52.4C1259 52.4 1260.97 51.625 1262.47 50.075C1263.97 48.525 1264.77 46.225 1264.87 43.175C1264.82 40.625 1264.4 38.425 1263.6 36.575C1262.8 34.675 1261.55 33.125 1259.85 31.925C1258.15 30.725 1255.95 29.85 1253.25 29.3C1250.55 28.7 1247.3 28.4 1243.5 28.4C1242.6 28.4 1241.9 28.425 1241.4 28.475C1240.95 28.525 1240.3 28.625 1239.45 28.775V19.85ZM1304.65 59.9C1301.6 58.75 1299 57 1296.85 54.65C1294.75 52.25 1293.23 49.475 1292.28 46.325C1291.23 43.725 1289.15 41.9 1286.05 40.85C1289.3 39.3 1291.45 37 1292.5 33.95V34.025C1293.2 31.925 1294.18 30.025 1295.43 28.325C1296.73 26.575 1298.2 25.075 1299.85 23.825C1301.55 22.575 1303.4 21.6 1305.4 20.9C1307.45 20.2 1309.6 19.85 1311.85 19.85C1314.1 19.85 1316.25 20.2 1318.3 20.9C1320.35 21.6 1322.2 22.575 1323.85 23.825C1325.55 25.025 1327.03 26.475 1328.28 28.175C1329.53 29.875 1330.5 31.725 1331.2 33.725C1332.25 36.775 1334.4 39.1 1337.65 40.7C1334.65 41.7 1332.6 43.375 1331.5 45.725C1330.6 49.125 1328.93 52.15 1326.48 54.8C1324.03 57.4 1320.68 59.375 1316.43 60.725C1314.03 61.475 1312.38 62.85 1311.48 64.85C1310.93 63.5 1310.1 62.5 1309 61.85C1307.95 61.2 1306.5 60.55 1304.65 59.9ZM1300.98 40.475C1300.98 42.025 1301.25 43.5 1301.8 44.9C1302.35 46.3 1303.1 47.525 1304.05 48.575C1305.05 49.625 1306.2 50.475 1307.5 51.125C1308.85 51.725 1310.28 52.025 1311.78 52.025C1313.28 52.025 1314.68 51.725 1315.98 51.125C1317.33 50.475 1318.5 49.625 1319.5 48.575C1320.5 47.525 1321.28 46.3 1321.83 44.9C1322.43 43.5 1322.73 42.025 1322.73 40.475C1322.73 38.875 1322.43 37.375 1321.83 35.975C1321.28 34.525 1320.5 33.275 1319.5 32.225C1318.5 31.125 1317.33 30.275 1315.98 29.675C1314.68 29.025 1313.28 28.7 1311.78 28.7C1310.28 28.7 1308.85 29.025 1307.5 29.675C1306.2 30.275 1305.05 31.125 1304.05 32.225C1303.1 33.275 1302.35 34.525 1301.8 35.975C1301.25 37.375 1300.98 38.875 1300.98 40.475ZM1346.88 37.475C1347.28 36.125 1347.93 34.825 1348.83 33.575C1349.73 32.275 1350.86 30.55 1352.21 28.4H1344.71V19.625H1394.73V28.175C1395.68 28.875 1396.61 29.925 1397.51 31.325C1398.41 32.725 1399.13 34.375 1399.68 36.275C1400.83 39.325 1402.96 41.55 1406.06 42.95C1402.51 44.1 1400.33 46.225 1399.53 49.325C1397.93 54.175 1395.33 57.525 1391.73 59.375C1388.88 60.475 1386.43 62.35 1384.38 65C1383.13 62.75 1381.58 61.15 1379.73 60.2C1377.53 59.55 1375.81 58.1 1374.56 55.85C1373.81 56.9 1372.98 57.8 1372.08 58.55C1371.23 59.25 1370.36 59.8 1369.46 60.2C1367.51 60.75 1365.98 61.325 1364.88 61.925C1363.83 62.475 1363.01 63.45 1362.41 64.85C1361.91 63.5 1360.98 62.425 1359.63 61.625C1358.33 60.825 1356.96 60.25 1355.51 59.9C1353.41 59.05 1351.66 57.85 1350.26 56.3C1348.86 54.75 1347.78 52.925 1347.03 50.825C1346.13 47.625 1343.96 45.45 1340.51 44.3C1343.71 42.75 1345.83 40.475 1346.88 37.475ZM1390.38 42.425C1390.38 40.875 1390.16 39.275 1389.71 37.625C1389.31 35.975 1388.51 34.475 1387.31 33.125C1386.16 31.725 1384.56 30.6 1382.51 29.75C1380.46 28.85 1377.81 28.4 1374.56 28.4C1373.91 28.4 1373.11 28.45 1372.16 28.55C1371.26 28.65 1370.31 28.775 1369.31 28.925C1368.31 29.075 1367.31 29.275 1366.31 29.525C1365.31 29.775 1364.43 30.05 1363.68 30.35C1361.43 31.6 1359.68 33.325 1358.43 35.525C1357.18 37.725 1356.56 40.2 1356.56 42.95C1356.56 45.85 1357.08 47.975 1358.13 49.325C1359.23 50.675 1360.66 51.35 1362.41 51.35C1363.31 51.35 1364.13 51.275 1364.88 51.125C1365.63 50.925 1366.28 50.575 1366.83 50.075C1367.38 49.575 1367.81 48.925 1368.11 48.125C1368.41 47.275 1368.56 46.175 1368.56 44.825C1368.56 44.375 1368.51 44.025 1368.41 43.775C1368.36 43.525 1368.21 43.15 1367.96 42.65H1379.43C1379.28 43.65 1379.21 44.475 1379.21 45.125C1379.21 46.375 1379.33 47.375 1379.58 48.125C1379.83 48.875 1380.18 49.475 1380.63 49.925C1381.13 50.325 1381.68 50.6 1382.28 50.75C1382.93 50.9 1383.63 50.975 1384.38 50.975C1385.53 50.975 1386.48 50.75 1387.23 50.3C1388.03 49.85 1388.66 49.25 1389.11 48.5C1389.56 47.7 1389.88 46.775 1390.08 45.725C1390.28 44.675 1390.38 43.575 1390.38 42.425ZM1405.37 14C1405.37 16.9 1404.92 19.3 1404.02 21.2C1403.12 23.05 1401.94 24.525 1400.49 25.625C1399.04 26.675 1397.42 27.4 1395.62 27.8C1393.82 28.2 1392.04 28.4 1390.29 28.4H1385.19V19.625H1390.44C1392.19 19.625 1393.72 19.175 1395.02 18.275C1396.27 17.375 1396.89 15.9 1396.89 13.85C1396.89 12.95 1396.72 12.15 1396.37 11.45C1396.02 10.7 1395.32 10.125 1394.27 9.725V9.8C1394.27 11.5 1393.69 12.925 1392.54 14.075C1391.39 15.175 1389.97 15.725 1388.27 15.725C1386.57 15.725 1385.12 15.15 1383.92 14C1382.67 12.8 1382.04 11.25 1382.04 9.35C1382.04 8.35 1382.22 7.35 1382.57 6.35C1382.92 5.35 1383.54 4.45 1384.44 3.65C1385.29 2.85 1386.44 2.2 1387.89 1.7C1389.29 1.2 1391.07 0.949998 1393.22 0.949998C1395.22 0.949998 1396.99 1.325 1398.54 2.075C1400.04 2.825 1401.29 3.8 1402.29 5C1403.29 6.2 1404.04 7.6 1404.54 9.2C1405.09 10.75 1405.37 12.35 1405.37 14ZM1431.36 59.9C1428.31 58.75 1425.71 57 1423.56 54.65C1421.46 52.25 1419.94 49.475 1418.99 46.325C1417.94 43.725 1415.86 41.9 1412.76 40.85C1416.01 39.3 1418.16 37 1419.21 33.95V34.025C1419.91 31.925 1420.89 30.025 1422.14 28.325C1423.44 26.575 1424.91 25.075 1426.56 23.825C1428.26 22.575 1430.11 21.6 1432.11 20.9C1434.16 20.2 1436.31 19.85 1438.56 19.85C1440.81 19.85 1442.96 20.2 1445.01 20.9C1447.06 21.6 1448.91 22.575 1450.56 23.825C1452.26 25.025 1453.74 26.475 1454.99 28.175C1456.24 29.875 1457.21 31.725 1457.91 33.725C1458.96 36.775 1461.11 39.1 1464.36 40.7C1461.36 41.7 1459.31 43.375 1458.21 45.725C1457.31 49.125 1455.64 52.15 1453.19 54.8C1450.74 57.4 1447.39 59.375 1443.14 60.725C1440.74 61.475 1439.09 62.85 1438.19 64.85C1437.64 63.5 1436.81 62.5 1435.71 61.85C1434.66 61.2 1433.21 60.55 1431.36 59.9ZM1427.69 40.475C1427.69 42.025 1427.96 43.5 1428.51 44.9C1429.06 46.3 1429.81 47.525 1430.76 48.575C1431.76 49.625 1432.91 50.475 1434.21 51.125C1435.56 51.725 1436.99 52.025 1438.49 52.025C1439.99 52.025 1441.39 51.725 1442.69 51.125C1444.04 50.475 1445.21 49.625 1446.21 48.575C1447.21 47.525 1447.99 46.3 1448.54 44.9C1449.14 43.5 1449.44 42.025 1449.44 40.475C1449.44 38.875 1449.14 37.375 1448.54 35.975C1447.99 34.525 1447.21 33.275 1446.21 32.225C1445.21 31.125 1444.04 30.275 1442.69 29.675C1441.39 29.025 1439.99 28.7 1438.49 28.7C1436.99 28.7 1435.56 29.025 1434.21 29.675C1432.91 30.275 1431.76 31.125 1430.76 32.225C1429.81 33.275 1429.06 34.525 1428.51 35.975C1427.96 37.375 1427.69 38.875 1427.69 40.475ZM1473.74 38.9C1474.34 36.75 1475.19 34.775 1476.29 32.975C1477.39 31.175 1478.82 29.55 1480.57 28.1C1479.97 27 1479.44 25.95 1478.99 24.95C1478.59 23.9 1478.39 22.875 1478.39 21.875C1478.39 19.675 1478.92 17.775 1479.97 16.175C1481.02 14.525 1482.42 13.175 1484.17 12.125C1485.92 11.075 1487.92 10.3 1490.17 9.8C1492.47 9.25 1494.82 8.975 1497.22 8.975C1501.52 8.975 1505.09 9.625 1507.94 10.925C1510.79 12.225 1513.09 13.825 1514.84 15.725C1516.59 17.625 1517.89 19.675 1518.74 21.875C1519.59 24.075 1520.17 26.075 1520.47 27.875C1522.07 29.375 1523.44 31.05 1524.59 32.9C1525.79 34.7 1526.62 36.625 1527.07 38.675C1528.52 40.875 1530.42 42.525 1532.77 43.625C1530.12 44.525 1528.19 45.875 1526.99 47.675C1526.39 50.375 1525.37 52.775 1523.92 54.875C1522.52 56.925 1520.62 58.575 1518.22 59.825C1516.77 60.575 1515.49 61.3 1514.39 62C1513.29 62.65 1512.17 63.525 1511.02 64.625C1510.12 63.775 1509.19 63 1508.24 62.3C1507.34 61.6 1506.47 60.975 1505.62 60.425L1505.09 60.125C1503.14 59.325 1501.79 58.075 1501.04 56.375C1500.04 57.475 1498.97 58.425 1497.82 59.225C1496.72 60.025 1495.67 60.525 1494.67 60.725C1493.67 61.275 1492.69 61.9 1491.74 62.6C1490.79 63.25 1489.89 64 1489.04 64.85C1488.04 64 1487.07 63.225 1486.12 62.525C1485.22 61.775 1484.32 61.1 1483.42 60.5H1483.27C1480.72 59.65 1478.54 58.225 1476.74 56.225C1474.94 54.175 1473.77 51.725 1473.22 48.875C1472.27 47.075 1470.27 45.7 1467.22 44.75C1470.42 43.4 1472.59 41.45 1473.74 38.9ZM1517.77 43.625C1517.77 41.675 1517.49 39.85 1516.94 38.15C1516.44 36.4 1515.54 34.9 1514.24 33.65C1512.94 32.35 1511.19 31.325 1508.99 30.575C1506.84 29.825 1504.14 29.45 1500.89 29.45C1497.89 29.45 1495.27 29.825 1493.02 30.575C1490.82 31.325 1488.99 32.35 1487.54 33.65C1486.14 34.9 1485.09 36.425 1484.39 38.225C1483.69 39.975 1483.34 41.85 1483.34 43.85C1483.34 44.75 1483.44 45.675 1483.64 46.625C1483.84 47.525 1484.17 48.35 1484.62 49.1C1485.07 49.85 1485.67 50.475 1486.42 50.975C1487.22 51.425 1488.19 51.65 1489.34 51.65C1490.69 51.65 1491.74 51.425 1492.49 50.975C1493.24 50.475 1493.82 49.85 1494.22 49.1C1494.62 48.35 1494.87 47.5 1494.97 46.55C1495.07 45.55 1495.12 44.55 1495.12 43.55H1506.37C1506.27 44.1 1506.17 44.625 1506.07 45.125C1506.02 45.575 1505.99 46 1505.99 46.4C1505.99 48.5 1506.52 49.95 1507.57 50.75C1508.67 51.5 1509.94 51.875 1511.39 51.875C1512.64 51.875 1513.67 51.625 1514.47 51.125C1515.32 50.575 1515.99 49.9 1516.49 49.1C1516.99 48.3 1517.32 47.425 1517.47 46.475C1517.67 45.475 1517.77 44.525 1517.77 43.625ZM1507.94 21.575C1506.79 20.125 1505.37 19.125 1503.67 18.575C1501.97 18.025 1500.09 17.75 1498.04 17.75C1497.09 17.75 1496.09 17.825 1495.04 17.975C1494.04 18.125 1493.09 18.375 1492.19 18.725C1491.34 19.075 1490.64 19.55 1490.09 20.15C1489.54 20.7 1489.27 21.4 1489.27 22.25C1489.27 22.75 1489.29 23.025 1489.34 23.075C1493.24 21.775 1497.54 21.125 1502.24 21.125C1503.29 21.125 1504.27 21.175 1505.17 21.275C1506.07 21.375 1506.99 21.475 1507.94 21.575ZM1555.69 64.85C1554.04 64.15 1552.59 63.4 1551.34 62.6C1550.09 61.75 1549.01 60.8 1548.11 59.75C1547.21 58.7 1546.44 57.525 1545.79 56.225C1545.19 54.925 1544.66 53.45 1544.21 51.8C1543.31 48.45 1540.99 46.125 1537.24 44.825C1540.74 43.175 1543.04 40.75 1544.14 37.55C1544.59 35.75 1545.26 34.025 1546.16 32.375C1547.11 30.675 1548.31 29.35 1549.76 28.4H1543.99V19.625H1583.21C1584.51 19.625 1585.49 19.275 1586.14 18.575C1586.79 17.875 1587.11 16.55 1587.11 14.6C1587.11 13.65 1586.91 12.65 1586.51 11.6C1586.16 10.55 1585.49 9.725 1584.49 9.125L1592.89 4.25C1594.19 5.1 1595.19 6.525 1595.89 8.525C1596.64 10.525 1597.01 12.65 1597.01 14.9C1597.01 21.8 1594.59 26.125 1589.74 27.875C1591.09 29.075 1592.19 30.425 1593.04 31.925C1593.94 33.375 1594.59 35.1 1594.99 37.1C1596.14 39.75 1598.44 41.95 1601.89 43.7C1598.14 44.85 1595.79 47 1594.84 50.15C1594.54 51.45 1594.14 52.675 1593.64 53.825C1593.19 54.975 1592.56 56.15 1591.76 57.35C1590.96 58.5 1589.96 59.725 1588.76 61.025C1587.56 62.275 1586.11 63.625 1584.41 65.075L1578.26 57.8L1578.41 57.65V57.725C1579.16 57.275 1579.91 56.6 1580.66 55.7C1581.46 54.75 1582.19 53.65 1582.84 52.4C1583.49 51.1 1584.01 49.675 1584.41 48.125C1584.81 46.575 1585.01 44.95 1585.01 43.25C1585.01 41.25 1584.64 39.4 1583.89 37.7C1583.19 35.95 1582.16 34.45 1580.81 33.2C1579.51 31.9 1577.96 30.9 1576.16 30.2C1574.41 29.5 1572.49 29.15 1570.39 29.15C1564.64 29.15 1560.39 30.475 1557.64 33.125C1554.89 35.775 1553.51 39.525 1553.51 44.375C1553.51 45.875 1553.64 47.225 1553.89 48.425C1554.19 49.625 1554.59 50.75 1555.09 51.8C1555.64 52.8 1556.31 53.775 1557.11 54.725C1557.91 55.675 1558.84 56.65 1559.89 57.65L1559.96 57.575L1555.69 64.85ZM1598.35 59.825C1595.9 58.825 1593.93 57.3 1592.43 55.25C1590.88 53.2 1590 50.825 1589.8 48.125L1595.05 40.475C1595.6 42.675 1596.25 44.5 1597 45.95C1597.7 47.35 1598.5 48.5 1599.4 49.4C1600.3 50.25 1601.3 50.875 1602.4 51.275C1603.45 51.625 1604.65 51.825 1606 51.875C1607.15 51.725 1608.18 51.225 1609.08 50.375C1610.03 49.525 1610.5 48.55 1610.5 47.45C1610.5 45.95 1610.23 44.8 1609.68 44C1609.13 43.15 1608.53 42.35 1607.88 41.6C1607.28 40.8 1606.7 39.875 1606.15 38.825C1605.6 37.725 1605.33 36.175 1605.33 34.175C1605.33 31.075 1606.13 28.575 1607.73 26.675C1609.33 24.775 1611.33 23.3 1613.73 22.25C1616.13 21.2 1618.7 20.5 1621.45 20.15C1624.25 19.8 1626.83 19.625 1629.18 19.625C1633.08 19.625 1636.48 20.025 1639.38 20.825C1642.28 21.575 1644.73 22.675 1646.73 24.125C1648.78 25.575 1650.43 27.35 1651.68 29.45C1652.98 31.55 1653.98 33.925 1654.68 36.575V36.425C1655.73 39.525 1657.9 41.85 1661.2 43.4C1659.4 43.95 1657.95 44.8 1656.85 45.95C1655.75 47.05 1654.98 48.35 1654.53 49.85C1653.43 52.45 1652.2 54.575 1650.85 56.225C1649.5 57.825 1647.83 59.125 1645.83 60.125C1642.83 61.275 1640.33 62.95 1638.33 65.15C1637.53 64.15 1636.68 63.275 1635.78 62.525C1634.93 61.725 1634 61.125 1633 60.725C1632.75 60.625 1632.45 60.5 1632.1 60.35C1631.75 60.2 1631.55 60.1 1631.5 60.05H1631.58C1630.23 59.45 1629.05 58.65 1628.05 57.65C1627.05 56.65 1626.2 55.525 1625.5 54.275C1624.85 53.025 1624.35 51.725 1624 50.375C1623.65 48.975 1623.48 47.55 1623.48 46.1C1623.48 44.5 1623.68 42.9 1624.08 41.3C1624.53 39.65 1625.23 38.175 1626.18 36.875C1627.13 35.525 1628.35 34.45 1629.85 33.65C1631.4 32.8 1633.25 32.375 1635.4 32.375C1636.5 32.375 1637.53 32.6 1638.48 33.05C1639.43 33.5 1640.23 34.1 1640.88 34.85C1641.58 35.55 1642.1 36.35 1642.45 37.25C1642.85 38.1 1643.05 38.975 1643.05 39.875C1643.05 40.975 1642.83 41.925 1642.38 42.725C1641.98 43.525 1641.45 44.2 1640.8 44.75C1640.15 45.25 1639.45 45.625 1638.7 45.875C1638 46.125 1637.35 46.25 1636.75 46.25C1636.25 46.25 1635.83 46.2 1635.48 46.1C1635.18 46 1634.8 45.725 1634.35 45.275C1634.3 45.675 1634.2 46.05 1634.05 46.4C1633.9 46.7 1633.83 47.075 1633.83 47.525C1633.83 48.825 1634.28 49.9 1635.18 50.75C1636.13 51.6 1637.28 52.025 1638.63 52.025C1639.53 52.025 1640.43 51.825 1641.33 51.425C1642.23 50.975 1643.03 50.35 1643.73 49.55C1644.43 48.75 1644.98 47.8 1645.38 46.7C1645.83 45.55 1646.05 44.275 1646.05 42.875C1646.05 41.425 1645.83 39.875 1645.38 38.225C1644.93 36.525 1644.1 34.95 1642.9 33.5C1641.75 32.05 1640.15 30.85 1638.1 29.9C1636.05 28.9 1633.45 28.4 1630.3 28.4C1628.2 28.4 1626.28 28.525 1624.53 28.775C1622.78 28.975 1621.28 29.35 1620.03 29.9C1618.78 30.4 1617.8 31.125 1617.1 32.075C1616.4 32.975 1616.05 34.1 1616.05 35.45C1616.05 36.65 1616.25 37.625 1616.65 38.375C1617.1 39.125 1617.58 39.9 1618.08 40.7C1618.63 41.5 1619.13 42.475 1619.58 43.625C1620.03 44.725 1620.25 46.2 1620.25 48.05C1620.25 51.3 1619.38 53.975 1617.63 56.075C1615.93 58.175 1613.75 59.65 1611.1 60.5C1611.05 60.6 1611 60.65 1610.95 60.65C1610.9 60.65 1610.85 60.675 1610.8 60.725C1608.6 61.775 1606.7 63.175 1605.1 64.925C1604.15 63.625 1603.13 62.575 1602.03 61.775C1600.88 60.925 1599.65 60.275 1598.35 59.825ZM1701.88 42.05C1702.98 39.75 1704.81 37.9 1707.36 36.5C1709.91 35.05 1713.21 34.325 1717.26 34.325C1720.56 34.325 1723.21 34.975 1725.21 36.275C1727.21 37.575 1728.71 39.05 1729.71 40.7C1730.31 41.9 1730.73 43.225 1730.98 44.675C1731.23 46.125 1731.56 47.325 1731.96 48.275C1732.36 49.725 1733.01 50.75 1733.91 51.35C1734.86 51.95 1735.83 52.25 1736.83 52.25C1738.93 52.25 1740.63 51.675 1741.93 50.525C1743.23 49.325 1744.01 47.35 1744.26 44.6C1744.01 28.85 1740.68 20 1734.28 18.05C1734.48 18.6 1734.63 19.175 1734.73 19.775C1734.88 20.325 1734.96 20.9 1734.96 21.5C1734.96 22.85 1734.51 24.075 1733.61 25.175C1732.71 26.225 1731.53 27.125 1730.08 27.875C1728.68 28.625 1727.08 29.2 1725.28 29.6C1723.53 29.95 1721.78 30.125 1720.03 30.125C1717.98 30.125 1716.06 29.95 1714.26 29.6C1712.51 29.2 1710.98 28.6 1709.68 27.8C1708.38 27 1707.33 26.025 1706.53 24.875C1705.78 23.675 1705.41 22.25 1705.41 20.6C1705.41 19.15 1705.73 17.85 1706.38 16.7C1707.08 15.55 1707.91 14.55 1708.86 13.7C1710.76 11.95 1713.28 10.725 1716.43 10.025C1719.58 9.325 1723.51 8.975 1728.21 8.975C1742.81 8.975 1751.21 18.625 1753.41 37.925C1754.86 40.525 1757.03 42.525 1759.93 43.925C1756.98 44.875 1754.86 46.375 1753.56 48.425C1753.21 50.175 1752.61 51.725 1751.76 53.075C1750.96 54.375 1750.01 55.525 1748.91 56.525C1747.86 57.475 1746.73 58.275 1745.53 58.925C1744.38 59.525 1743.33 60 1742.38 60.35C1740.98 60.85 1739.68 61.5 1738.48 62.3C1737.33 63.1 1736.31 64 1735.41 65C1733.81 62.95 1731.98 61.475 1729.93 60.575C1727.38 59.775 1725.46 58.45 1724.16 56.6C1722.91 54.75 1722.23 52.475 1722.13 49.775C1722.13 49.075 1722.01 48.325 1721.76 47.525C1721.56 46.675 1721.23 45.9 1720.78 45.2C1720.33 44.5 1719.73 43.925 1718.98 43.475C1718.23 42.975 1717.33 42.725 1716.28 42.725C1714.38 42.725 1713.01 43.3 1712.16 44.45C1711.31 45.55 1710.88 46.725 1710.88 47.975C1710.88 51.525 1712.91 55.275 1716.96 59.225L1709.38 65.075C1706.58 63.925 1704.13 61.3 1702.03 57.2C1701.23 52.5 1699.16 49.625 1695.81 48.575C1698.86 47.075 1700.88 44.9 1701.88 42.05ZM1726.48 20C1726.48 19.5 1726.33 19.1 1726.03 18.8C1725.73 18.45 1725.36 18.175 1724.91 17.975C1724.46 17.775 1723.98 17.65 1723.48 17.6C1722.98 17.55 1722.56 17.525 1722.21 17.525C1721.56 17.525 1720.88 17.575 1720.18 17.675C1719.48 17.775 1718.83 17.95 1718.23 18.2C1717.63 18.4 1717.13 18.7 1716.73 19.1C1716.38 19.45 1716.21 19.9 1716.21 20.45C1716.21 20.9 1716.36 21.275 1716.66 21.575C1716.96 21.875 1717.36 22.125 1717.86 22.325C1718.36 22.475 1718.88 22.575 1719.43 22.625C1720.03 22.675 1720.61 22.7 1721.16 22.7C1721.76 22.7 1722.36 22.65 1722.96 22.55C1723.61 22.45 1724.18 22.3 1724.68 22.1C1725.23 21.85 1725.66 21.55 1725.96 21.2C1726.31 20.85 1726.48 20.45 1726.48 20ZM1770.81 36.425C1771.26 34.125 1771.96 31.975 1772.91 29.975C1773.86 27.925 1775.03 26.15 1776.43 24.65C1777.88 23.15 1779.53 21.975 1781.38 21.125C1783.28 20.225 1785.38 19.775 1787.68 19.775C1790.18 19.775 1792.28 20.225 1793.98 21.125C1795.68 22.025 1797.18 23.225 1798.48 24.725C1798.98 26.325 1799.76 27.675 1800.81 28.775C1801.86 29.825 1803.18 30.75 1804.78 31.55C1803.28 32 1802.13 32.6 1801.33 33.35C1800.53 34.1 1799.78 35.15 1799.08 36.5C1798.13 38.7 1796.58 40.375 1794.43 41.525C1792.28 42.675 1789.96 43.25 1787.46 43.25C1784.56 43.25 1782.26 42.325 1780.56 40.475C1780.41 40.825 1780.31 41.175 1780.26 41.525C1780.26 41.875 1780.26 42.2 1780.26 42.5C1780.26 43.8 1780.38 45.025 1780.63 46.175C1780.93 47.275 1781.41 48.25 1782.06 49.1C1782.76 49.95 1783.68 50.625 1784.83 51.125C1785.98 51.575 1787.43 51.8 1789.18 51.8C1791.28 51.8 1793.13 51.5 1794.73 50.9C1796.33 50.3 1797.83 49.3 1799.23 47.9V58.7C1798.63 59 1798.06 59.225 1797.51 59.375C1796.96 59.525 1796.53 59.725 1796.23 59.975C1793.33 61.125 1790.91 62.75 1788.96 64.85C1787.06 62.45 1784.86 60.8 1782.36 59.9H1782.43C1781.13 59.65 1779.91 59.35 1778.76 59C1777.61 58.65 1776.53 58.1 1775.53 57.35C1774.58 56.6 1773.71 55.6 1772.91 54.35C1772.11 53.05 1771.46 51.325 1770.96 49.175L1764.43 43.25C1767.63 41.7 1769.76 39.425 1770.81 36.425ZM1790.91 31.775C1790.91 30.725 1790.53 29.85 1789.78 29.15C1789.08 28.45 1788.21 28.1 1787.16 28.1C1786.16 28.1 1785.28 28.45 1784.53 29.15C1783.83 29.85 1783.48 30.725 1783.48 31.775C1783.48 32.725 1783.83 33.575 1784.53 34.325C1785.28 35.025 1786.16 35.375 1787.16 35.375C1788.21 35.375 1789.08 35.025 1789.78 34.325C1790.53 33.575 1790.91 32.725 1790.91 31.775ZM1887.02 42.275H1883.2C1883.25 42.375 1883.45 42.7 1883.8 43.25C1884.15 43.8 1884.62 44.45 1885.22 45.2C1885.82 45.95 1886.55 46.7 1887.4 47.45C1888.3 48.2 1889.27 48.825 1890.32 49.325C1888.52 49.875 1887.17 50.525 1886.27 51.275C1885.42 52.025 1884.62 52.975 1883.87 54.125C1882.72 55.825 1881.17 57.25 1879.22 58.4C1877.32 59.5 1874.95 60.275 1872.1 60.725C1869.6 61.425 1867.8 62.85 1866.7 65C1865.9 62.85 1864.07 61.35 1861.22 60.5C1859.12 60.1 1857.12 59.5 1855.22 58.7C1853.37 57.9 1851.87 56.725 1850.72 55.175V55.25L1850.65 55.175C1850.45 54.875 1850.25 54.575 1850.05 54.275C1849.85 53.975 1849.7 53.675 1849.6 53.375C1849.05 52.675 1848.3 52.05 1847.35 51.5C1846.4 50.9 1845.32 50.4 1844.12 50C1845.12 49.5 1845.9 49.025 1846.45 48.575C1847.05 48.125 1847.55 47.65 1847.95 47.15C1848.35 46.65 1848.72 46.125 1849.07 45.575C1849.42 45.025 1849.87 44.425 1850.42 43.775L1851.25 42.8H1847.65V33.725H1862.95C1862.25 33.325 1861.9 32.45 1861.9 31.1C1861.9 30.5 1861.92 29.95 1861.97 29.45C1862.07 28.9 1862.3 28.55 1862.65 28.4H1847.65V19.625H1875.1C1876.45 19.625 1877.42 19.275 1878.02 18.575C1878.67 17.825 1879 16.5 1879 14.6C1879 13.65 1878.82 12.7 1878.47 11.75C1878.12 10.75 1877.47 9.925 1876.52 9.275L1884.77 4.475C1885.97 5.325 1886.92 6.725 1887.62 8.675C1888.37 10.575 1888.75 12.65 1888.75 14.9C1888.75 17.8 1888.25 20.125 1887.25 21.875C1886.25 23.625 1885.02 25 1883.57 26C1882.12 26.95 1880.6 27.6 1879 27.95C1877.45 28.25 1876.07 28.4 1874.87 28.4H1872.32C1872.82 28.6 1873.07 29.35 1873.07 30.65C1873.07 31.7 1873 32.375 1872.85 32.675C1872.7 32.975 1872.52 33.3 1872.32 33.65H1887.02V42.275ZM1876.07 47.825C1876.07 46.675 1875.77 45.775 1875.17 45.125C1874.57 44.425 1873.82 43.9 1872.92 43.55C1872.02 43.15 1871.02 42.9 1869.92 42.8C1868.82 42.7 1867.77 42.65 1866.77 42.65C1865.87 42.65 1864.87 42.725 1863.77 42.875C1862.72 42.975 1861.75 43.2 1860.85 43.55C1859.95 43.9 1859.17 44.375 1858.52 44.975C1857.92 45.575 1857.62 46.35 1857.62 47.3C1857.62 48.4 1857.92 49.3 1858.52 50C1859.17 50.65 1859.95 51.175 1860.85 51.575C1861.75 51.925 1862.7 52.175 1863.7 52.325C1864.75 52.425 1865.7 52.475 1866.55 52.475C1867.55 52.475 1868.6 52.4 1869.7 52.25C1870.85 52.05 1871.87 51.775 1872.77 51.425C1873.72 51.025 1874.5 50.55 1875.1 50C1875.75 49.4 1876.07 48.675 1876.07 47.825ZM1900.88 42.05C1901.98 39.75 1903.81 37.9 1906.36 36.5C1908.91 35.05 1912.21 34.325 1916.26 34.325C1919.56 34.325 1922.21 34.975 1924.21 36.275C1926.21 37.575 1927.71 39.05 1928.71 40.7C1929.31 41.9 1929.73 43.225 1929.98 44.675C1930.23 46.125 1930.56 47.325 1930.96 48.275C1931.36 49.725 1932.01 50.75 1932.91 51.35C1933.86 51.95 1934.83 52.25 1935.83 52.25C1938.08 52.25 1939.88 51.55 1941.23 50.15C1942.63 48.7 1943.33 46.275 1943.33 42.875C1942.48 34.475 1939.83 29.65 1935.38 28.4H1899.76V19.625H1941.53C1942.83 19.625 1943.81 19.275 1944.46 18.575C1945.11 17.875 1945.43 16.55 1945.43 14.6C1945.43 13.65 1945.23 12.65 1944.83 11.6C1944.48 10.55 1943.81 9.725 1942.81 9.125L1951.21 4.25C1952.51 5.1 1953.51 6.525 1954.21 8.525C1954.96 10.525 1955.33 12.65 1955.33 14.9C1955.33 18.2 1954.78 20.9 1953.68 23C1952.63 25.05 1951.06 26.55 1948.96 27.5C1950.86 30.35 1952.01 33.825 1952.41 37.925C1953.86 40.525 1956.03 42.525 1958.93 43.925C1955.98 44.875 1953.86 46.375 1952.56 48.425C1952.21 50.175 1951.61 51.725 1950.76 53.075C1949.96 54.375 1949.01 55.525 1947.91 56.525C1946.86 57.475 1945.73 58.275 1944.53 58.925C1943.38 59.525 1942.33 60 1941.38 60.35C1939.98 60.85 1938.68 61.5 1937.48 62.3C1936.33 63.1 1935.31 64 1934.41 65C1932.81 62.95 1930.98 61.475 1928.93 60.575C1926.38 59.775 1924.46 58.45 1923.16 56.6C1921.91 54.75 1921.23 52.475 1921.13 49.775C1921.13 49.075 1921.01 48.325 1920.76 47.525C1920.56 46.675 1920.23 45.9 1919.78 45.2C1919.33 44.5 1918.73 43.925 1917.98 43.475C1917.23 42.975 1916.33 42.725 1915.28 42.725C1913.38 42.725 1912.01 43.3 1911.16 44.45C1910.31 45.55 1909.88 46.725 1909.88 47.975C1909.88 51.525 1911.91 55.275 1915.96 59.225L1908.38 65.075C1905.58 63.925 1903.13 61.3 1901.03 57.2C1900.23 52.5 1898.16 49.625 1894.81 48.575C1897.86 47.075 1899.88 44.9 1900.88 42.05ZM1936.28 70.85C1937.08 69.5 1938.18 68.425 1939.58 67.625C1940.98 66.875 1942.43 66.3 1943.93 65.9C1945.43 65.5 1946.88 65.25 1948.28 65.15C1949.63 65.05 1950.73 65 1951.58 65C1953.73 65 1955.98 65.1 1958.33 65.3C1960.68 65.55 1962.91 66.025 1965.01 66.725V65.75C1965.01 64.1 1964.73 62.45 1964.18 60.8C1963.63 59.1 1962.61 57.575 1961.11 56.225L1966.36 52.7C1968.36 54.6 1969.76 56.7 1970.56 59C1971.36 61.25 1971.76 63.575 1971.76 65.975C1971.76 66.675 1971.71 67.35 1971.61 68C1971.51 68.7 1971.38 69.4 1971.23 70.1C1972.73 71.55 1973.83 73.25 1974.53 75.2V74.975C1975.28 76.925 1976.68 78.425 1978.73 79.475C1976.78 80.025 1975.48 81 1974.83 82.4C1974.63 84.6 1974.13 86.65 1973.33 88.55H1967.03C1967.63 87.35 1968.11 86 1968.46 84.5C1968.81 83 1968.98 81.375 1968.98 79.625C1968.98 78.525 1968.73 77.575 1968.23 76.775C1966.73 78.775 1964.83 80.35 1962.53 81.5C1960.23 82.65 1957.68 83.425 1954.88 83.825C1953.28 84.575 1951.78 85.6 1950.38 86.9C1949.68 86.2 1948.98 85.6 1948.28 85.1C1947.58 84.6 1946.91 84.15 1946.26 83.75L1945.21 83.6C1943.36 83.35 1941.71 82.825 1940.26 82.025C1938.76 81.275 1937.58 80.325 1936.73 79.175C1936.33 78.625 1936.01 78.125 1935.76 77.675C1935.46 77.225 1935.16 76.825 1934.86 76.475C1934.56 76.125 1934.18 75.8 1933.73 75.5C1933.28 75.25 1932.68 75.025 1931.93 74.825C1933.93 74.025 1935.31 72.775 1936.06 71.075L1936.28 70.85ZM1963.43 72.575C1962.03 71.975 1960.51 71.5 1958.86 71.15C1957.21 70.85 1955.58 70.7 1953.98 70.7C1952.83 70.7 1951.58 70.75 1950.23 70.85C1948.88 71 1947.63 71.2 1946.48 71.45C1945.33 71.75 1944.38 72.125 1943.63 72.575C1942.88 73.075 1942.51 73.65 1942.51 74.3C1942.51 75.15 1942.78 75.825 1943.33 76.325C1943.83 76.825 1944.48 77.2 1945.28 77.45C1946.08 77.7 1946.98 77.85 1947.98 77.9C1948.93 78 1949.83 78.05 1950.68 78.05C1954.13 78.05 1956.88 77.575 1958.93 76.625C1960.93 75.675 1962.43 74.325 1963.43 72.575ZM1975.16 37.475C1976.41 34.075 1978.31 31.05 1980.86 28.4H1977.26C1976.11 28.4 1975.08 28.45 1974.18 28.55C1973.33 28.65 1972.73 28.95 1972.38 29.45V19.175C1972.73 19.375 1973.01 19.5 1973.21 19.55C1973.46 19.6 1973.86 19.625 1974.41 19.625H2018.66C2019.96 19.625 2020.93 19.275 2021.58 18.575C2022.23 17.875 2022.56 16.55 2022.56 14.6C2022.56 13.65 2022.36 12.65 2021.96 11.6C2021.61 10.55 2020.93 9.725 2019.93 9.125L2028.33 4.25C2029.63 5.1 2030.63 6.525 2031.33 8.525C2032.08 10.525 2032.46 12.65 2032.46 14.9C2032.46 17 2032.18 18.8 2031.63 20.3C2031.08 21.8 2030.38 23.075 2029.53 24.125C2028.68 25.125 2027.71 25.95 2026.61 26.6C2025.51 27.2 2024.41 27.65 2023.31 27.95C2025.46 29.2 2026.53 30.65 2026.53 32.3C2028.33 33.65 2029.71 35.4 2030.66 37.55C2031.16 39 2031.91 40.275 2032.91 41.375C2033.96 42.475 2035.36 43.425 2037.11 44.225C2035.16 44.875 2033.71 45.75 2032.76 46.85C2031.86 47.9 2031.11 49.225 2030.51 50.825C2029.51 53.375 2028.01 55.45 2026.01 57.05C2024.01 58.6 2021.73 59.75 2019.18 60.5C2016.68 61.65 2014.56 63.175 2012.81 65.075C2011.96 64.075 2010.98 63.15 2009.88 62.3C2008.83 61.45 2007.58 60.725 2006.13 60.125C2006.08 60.125 2006.03 60.1 2005.98 60.05H2006.06C2004.11 59.1 2002.66 57.675 2001.71 55.775C2000.31 57.875 1998.31 59.4 1995.71 60.35C1995.46 60.45 1995.16 60.525 1994.81 60.575C1994.51 60.625 1994.23 60.7 1993.98 60.8C1991.73 61.6 1990.13 62.975 1989.18 64.925C1988.13 62.275 1985.98 60.575 1982.73 59.825C1978.58 58.025 1975.93 54.5 1974.78 49.25C1973.73 46.8 1971.71 45.075 1968.71 44.075C1972.01 42.525 1974.16 40.2 1975.16 37.1V37.475ZM2020.23 49.55C2019.58 49.75 2019.01 49.9 2018.51 50C2018.01 50.1 2017.43 50.15 2016.78 50.15C2015.38 50.15 2014.11 49.925 2012.96 49.475C2011.81 48.975 2010.81 48.325 2009.96 47.525C2009.16 46.675 2008.51 45.725 2008.01 44.675C2007.56 43.625 2007.33 42.5 2007.33 41.3C2007.33 39.15 2007.86 37.225 2008.91 35.525C2009.96 33.825 2011.63 32.55 2013.93 31.7C2013.68 31.25 2013.21 30.825 2012.51 30.425C2011.81 30.025 2010.98 29.7 2010.03 29.45C2009.08 29.15 2008.06 28.925 2006.96 28.775C2005.86 28.575 2004.78 28.475 2003.73 28.475C2003.33 28.475 2002.68 28.5 2001.78 28.55C2000.93 28.6 1999.98 28.675 1998.93 28.775C1997.88 28.875 1996.81 29.05 1995.71 29.3C1994.66 29.5 1993.73 29.775 1992.93 30.125C1990.48 31.175 1988.43 32.8 1986.78 35C1985.18 37.2 1984.38 39.675 1984.38 42.425C1984.38 43.625 1984.51 44.775 1984.76 45.875C1985.06 46.925 1985.48 47.875 1986.03 48.725C1986.58 49.525 1987.26 50.175 1988.06 50.675C1988.91 51.125 1989.88 51.35 1990.98 51.35C1992.03 51.1 1992.86 50.825 1993.46 50.525C1994.11 50.225 1994.61 49.875 1994.96 49.475C1995.31 49.025 1995.56 48.5 1995.71 47.9C1995.86 47.3 1995.98 46.575 1996.08 45.725C1996.08 45.075 1996.03 44.55 1995.93 44.15C1995.83 43.75 1995.61 43.3 1995.26 42.8H2006.28C2006.08 43.35 2005.98 44.1 2005.98 45.05C2005.98 47.6 2006.71 49.375 2008.16 50.375C2009.66 51.325 2011.93 51.8 2014.98 51.8C2017.13 51.8 2018.88 51.05 2020.23 49.55ZM2021.96 40.625C2021.96 40.025 2021.78 39.525 2021.43 39.125C2021.08 38.725 2020.56 38.525 2019.86 38.525C2019.01 38.525 2018.43 38.675 2018.13 38.975C2017.83 39.225 2017.68 39.775 2017.68 40.625C2017.68 41.425 2017.91 41.95 2018.36 42.2C2018.81 42.45 2019.23 42.575 2019.63 42.575C2020.23 42.575 2020.76 42.475 2021.21 42.275C2021.71 42.025 2021.96 41.475 2021.96 40.625ZM2048.03 39.5C2049.03 37.2 2050.53 35.45 2052.53 34.25C2054.53 33 2056.81 32.375 2059.36 32.375C2062.31 32.375 2064.43 33.125 2065.73 34.625C2067.08 36.075 2067.76 37.875 2067.76 40.025C2067.76 40.925 2067.56 41.8 2067.16 42.65C2066.81 43.45 2066.31 44.175 2065.66 44.825C2065.01 45.475 2064.23 46 2063.33 46.4C2062.48 46.75 2061.53 46.925 2060.48 46.925C2059.93 46.925 2059.46 46.85 2059.06 46.7C2058.66 46.5 2058.16 46.25 2057.56 45.95V46.4C2057.56 47.95 2058.08 49.2 2059.13 50.15C2060.23 51.1 2061.66 51.575 2063.41 51.575C2065.36 51.575 2066.98 51.05 2068.28 50C2069.63 48.9 2070.31 47.05 2070.31 44.45C2070.31 43.95 2070.28 43.625 2070.23 43.475C2070.18 43.275 2070.11 42.975 2070.01 42.575H2080.13C2080.03 43.025 2079.91 43.45 2079.76 43.85C2079.66 44.2 2079.61 44.675 2079.61 45.275C2079.61 46.725 2080.13 48.025 2081.18 49.175C2082.23 50.325 2083.56 50.9 2085.16 50.9C2087.31 50.9 2088.93 50.025 2090.03 48.275C2091.13 46.475 2091.68 44.275 2091.68 41.675C2091.68 36.925 2090.61 33.525 2088.46 31.475C2086.36 29.425 2083.28 28.4 2079.23 28.4H2052.68C2051.68 28.4 2050.73 28.45 2049.83 28.55C2048.98 28.65 2048.36 28.925 2047.96 29.375V18.875C2048.36 19.275 2048.66 19.5 2048.86 19.55C2049.11 19.6 2049.51 19.625 2050.06 19.625H2089.28L2096.11 27.05C2096.66 27.7 2097.26 28.625 2097.91 29.825C2098.56 31.025 2099.21 32.55 2099.86 34.4C2100.36 37.25 2102.23 39.575 2105.48 41.375C2102.38 42.575 2100.71 44.525 2100.46 47.225C2100.11 51.475 2098.43 54.7 2095.43 56.9C2093.98 58 2092.71 58.875 2091.61 59.525C2090.51 60.175 2089.61 60.6 2088.91 60.8C2086.86 61.95 2085.13 63.3 2083.73 64.85C2082.73 63.55 2081.73 62.525 2080.73 61.775C2079.73 60.975 2078.68 60.325 2077.58 59.825C2076.73 59.425 2076.06 58.925 2075.56 58.325C2075.11 57.725 2074.68 57.15 2074.28 56.6C2073.63 57.6 2072.71 58.375 2071.51 58.925C2070.36 59.425 2069.16 59.925 2067.91 60.425C2066.66 60.875 2065.48 61.425 2064.38 62.075C2063.28 62.725 2062.48 63.65 2061.98 64.85C2061.43 63.55 2060.66 62.55 2059.66 61.85C2058.66 61.15 2057.31 60.525 2055.61 59.975C2053.86 59.375 2052.36 58.425 2051.11 57.125C2049.86 55.825 2048.91 54.35 2048.26 52.7V52.925C2047.36 49.675 2045.13 47.475 2041.58 46.325C2044.73 44.775 2046.88 42.5 2048.03 39.5ZM2115.63 60.05C2113.23 59.05 2111.26 57.475 2109.71 55.325C2108.21 53.175 2107.46 50.25 2107.46 46.55C2107.46 44.75 2107.68 43 2108.13 41.3C2108.58 39.6 2109.28 38.1 2110.23 36.8C2111.23 35.45 2112.48 34.375 2113.98 33.575C2115.48 32.775 2117.28 32.375 2119.38 32.375C2120.33 32.375 2121.26 32.5 2122.16 32.75C2123.11 32.95 2123.93 33.325 2124.63 33.875C2125.38 34.425 2125.98 35.15 2126.43 36.05C2126.88 36.95 2127.11 38.075 2127.11 39.425C2127.11 40.375 2126.91 41.3 2126.51 42.2C2126.11 43.1 2125.58 43.9 2124.93 44.6C2124.28 45.25 2123.51 45.775 2122.61 46.175C2121.71 46.575 2120.78 46.775 2119.83 46.775C2119.43 46.775 2119.11 46.75 2118.86 46.7C2118.61 46.6 2118.36 46.5 2118.11 46.4C2118.01 46.65 2117.93 46.85 2117.88 47C2117.88 47.1 2117.88 47.2 2117.88 47.3C2117.88 48.9 2118.36 50.175 2119.31 51.125C2120.31 52.025 2121.58 52.475 2123.13 52.475C2124.73 52.475 2126.06 52.1 2127.11 51.35C2128.16 50.6 2128.98 49.65 2129.58 48.5C2130.18 47.35 2130.61 46.05 2130.86 44.6C2131.11 43.15 2131.23 41.7 2131.23 40.25C2131.23 36.2 2130.18 33.225 2128.08 31.325C2126.03 29.375 2123.31 28.4 2119.91 28.4H2084.58V19.625H2119.38C2122.83 19.625 2125.78 20.025 2128.23 20.825C2130.68 21.575 2132.73 22.625 2134.38 23.975C2136.08 25.275 2137.41 26.8 2138.36 28.55C2139.31 30.25 2140.01 32.025 2140.46 33.875C2141.61 36.925 2143.78 39.2 2146.98 40.7C2145.08 41.25 2143.58 42.05 2142.48 43.1C2141.43 44.1 2140.71 45.35 2140.31 46.85C2139.41 50.1 2137.93 52.875 2135.88 55.175C2133.83 57.425 2131.46 59.075 2128.76 60.125C2127.46 60.675 2126.23 61.375 2125.08 62.225C2123.93 63.075 2122.86 64.025 2121.86 65.075L2115.63 60.05ZM2202.1 35.975C2202.35 36.425 2202.53 36.925 2202.63 37.475C2202.78 38.025 2202.93 38.575 2203.08 39.125C2204.43 41.525 2206.5 43.4 2209.3 44.75C2206.45 45.65 2204.4 47.1 2203.15 49.1C2202.7 50.75 2202.13 52.375 2201.43 53.975C2200.73 55.525 2199.95 56.975 2199.1 58.325C2198.3 59.675 2197.45 60.9 2196.55 62C2195.65 63.05 2194.8 63.95 2194 64.7L2186.35 58.775C2187.05 58.325 2187.83 57.6 2188.68 56.6C2189.53 55.6 2190.3 54.45 2191 53.15C2191.75 51.8 2192.38 50.375 2192.88 48.875C2193.38 47.325 2193.63 45.775 2193.63 44.225C2193.63 42.825 2193.4 41.35 2192.95 39.8C2192.5 38.2 2191.73 36.725 2190.63 35.375C2189.58 34.025 2188.15 32.9 2186.35 32C2184.6 31.1 2182.38 30.65 2179.68 30.65C2177.38 30.65 2175.25 30.925 2173.3 31.475C2171.35 32.025 2169.65 32.85 2168.2 33.95C2166.8 35 2165.68 36.375 2164.83 38.075C2164.03 39.725 2163.63 41.675 2163.63 43.925C2163.63 47.025 2164.3 49.925 2165.65 52.625C2167 55.275 2168.73 57.325 2170.83 58.775L2162.73 64.7C2161.38 64 2159.9 62.625 2158.3 60.575C2156.7 58.475 2155.33 55.85 2154.18 52.7C2153.58 51.05 2152.75 49.725 2151.7 48.725C2150.65 47.675 2149.08 46.825 2146.98 46.175C2148.43 45.525 2149.7 44.775 2150.8 43.925C2151.9 43.025 2152.75 42 2153.35 40.85C2153.75 38.55 2154.38 36.575 2155.23 34.925C2156.08 33.225 2157.38 31.45 2159.13 29.6C2157.93 28.6 2157.03 27.4 2156.43 26C2155.88 24.6 2155.6 23.25 2155.6 21.95C2155.6 19.7 2156.1 17.75 2157.1 16.1C2158.15 14.45 2159.53 13.1 2161.23 12.05C2162.98 10.95 2165 10.15 2167.3 9.65C2169.65 9.15 2172.15 8.9 2174.8 8.9C2177.85 8.9 2180.55 9.275 2182.9 10.025C2185.25 10.725 2187.28 11.65 2188.98 12.8C2190.73 13.95 2192.18 15.275 2193.33 16.775C2194.53 18.225 2195.48 19.7 2196.18 21.2C2196.93 22.7 2197.45 24.175 2197.75 25.625C2198.1 27.025 2198.3 28.225 2198.35 29.225C2199.95 31.375 2201.2 33.625 2202.1 35.975ZM2186.95 23.3C2185.5 21.45 2183.8 20.125 2181.85 19.325C2179.95 18.525 2177.83 18.125 2175.48 18.125C2174.48 18.125 2173.45 18.2 2172.4 18.35C2171.35 18.45 2170.4 18.675 2169.55 19.025C2168.7 19.325 2168 19.775 2167.45 20.375C2166.9 20.975 2166.63 21.725 2166.63 22.625V23.675L2166.78 24.5C2169.18 23.65 2171.35 23.1 2173.3 22.85C2175.25 22.55 2177.25 22.4 2179.3 22.4C2180.85 22.4 2182.15 22.475 2183.2 22.625C2184.25 22.775 2185.5 23 2186.95 23.3ZM2236.43 59.975C2232.38 59.225 2228.98 57.8 2226.23 55.7C2223.48 53.6 2221.5 50.975 2220.3 47.825V47.9C2219.45 44.7 2217.28 42.525 2213.78 41.375C2216.53 39.975 2218.55 37.95 2219.85 35.3C2220.25 33.85 2220.8 32.525 2221.5 31.325C2222.25 30.075 2223.08 29.1 2223.98 28.4H2215.95V19.625H2257.2C2258.5 19.625 2259.45 19.275 2260.05 18.575C2260.7 17.875 2261.03 16.575 2261.03 14.675C2261.03 13.725 2260.85 12.75 2260.5 11.75C2260.15 10.75 2259.5 9.95 2258.55 9.35L2266.73 4.55C2267.98 5.4 2268.95 6.8 2269.65 8.75C2270.4 10.65 2270.78 12.725 2270.78 14.975C2270.78 16.725 2270.58 18.25 2270.18 19.55C2269.83 20.85 2269.33 21.975 2268.68 22.925C2268.08 23.875 2267.35 24.675 2266.5 25.325C2265.7 25.975 2264.85 26.525 2263.95 26.975C2264.95 27.925 2265.83 28.875 2266.58 29.825C2267.38 30.775 2267.93 31.675 2268.23 32.525C2268.78 33.975 2269.55 35.275 2270.55 36.425C2271.55 37.575 2272.9 38.575 2274.6 39.425C2271.35 40.475 2269.25 42.375 2268.3 45.125C2267.25 49.175 2265.23 52.475 2262.23 55.025C2259.28 57.575 2255.3 59.25 2250.3 60.05H2250.38C2248.93 60.6 2247.58 61.3 2246.33 62.15C2245.08 63 2243.95 63.95 2242.95 65C2241.1 62.55 2238.93 60.875 2236.43 59.975ZM2258.93 39.65C2258.93 37.55 2258.58 35.775 2257.88 34.325C2257.18 32.875 2256.2 31.7 2254.95 30.8C2253.75 29.9 2252.33 29.25 2250.68 28.85C2249.08 28.45 2247.38 28.25 2245.58 28.25C2235.13 28.25 2229.9 32.225 2229.9 40.175C2229.9 41.725 2230.23 43.175 2230.88 44.525C2231.58 45.825 2232.53 46.975 2233.73 47.975C2234.98 48.975 2236.48 49.775 2238.23 50.375C2239.98 50.925 2241.93 51.2 2244.08 51.2C2246.63 51.2 2248.83 50.875 2250.68 50.225C2252.58 49.575 2254.13 48.725 2255.33 47.675C2256.53 46.575 2257.43 45.325 2258.03 43.925C2258.63 42.525 2258.93 41.1 2258.93 39.65ZM2271.01 59.9C2268.61 58.9 2266.66 57.4 2265.16 55.4C2263.61 53.35 2262.73 50.975 2262.53 48.275L2267.71 40.7C2268.16 42.5 2268.68 44.075 2269.28 45.425C2269.83 46.775 2270.53 47.95 2271.38 48.95C2272.23 49.9 2273.28 50.7 2274.53 51.35C2275.78 52 2277.31 52.5 2279.11 52.85C2286.41 52.65 2290.28 48.975 2290.73 41.825C2290.73 37.625 2289.83 34.35 2288.03 32C2286.23 29.6 2283.78 28.4 2280.68 28.4C2280.03 28.4 2279.53 28.45 2279.18 28.55C2278.83 28.65 2278.38 28.875 2277.83 29.225V19.85C2278.43 19.75 2278.91 19.7 2279.26 19.7C2279.66 19.65 2280.23 19.625 2280.98 19.625C2283.13 19.625 2284.98 19.8 2286.53 20.15C2288.08 20.45 2289.43 20.9 2290.58 21.5C2291.78 22.05 2292.81 22.725 2293.66 23.525C2294.56 24.325 2295.38 25.175 2296.13 26.075C2297.13 27.325 2297.96 28.6 2298.61 29.9C2299.31 31.15 2299.86 32.5 2300.26 33.95C2301.21 36.8 2303.36 39.05 2306.71 40.7C2303.31 41.65 2301.11 43.725 2300.11 46.925C2299.56 49.325 2298.88 51.275 2298.08 52.775C2297.28 54.275 2296.26 55.525 2295.01 56.525C2293.81 57.525 2292.33 58.35 2290.58 59C2288.83 59.65 2286.73 60.325 2284.28 61.025C2283.83 61.025 2283.31 61.15 2282.71 61.4C2282.11 61.65 2281.51 61.975 2280.91 62.375C2280.31 62.725 2279.71 63.125 2279.11 63.575C2278.56 64.025 2278.11 64.475 2277.76 64.925C2275.76 62.375 2273.51 60.7 2271.01 59.9ZM2315.16 47.675C2316.66 47.675 2317.96 48.2 2319.06 49.25C2320.16 50.3 2320.71 51.6 2320.71 53.15C2320.71 54.6 2320.16 55.875 2319.06 56.975C2317.96 58.025 2316.66 58.55 2315.16 58.55C2313.71 58.55 2312.43 58.025 2311.33 56.975C2310.23 55.875 2309.68 54.6 2309.68 53.15C2309.68 51.6 2310.23 50.3 2311.33 49.25C2312.43 48.2 2313.71 47.675 2315.16 47.675Z" fill="black"/>
</svg>
