<svg width="1812" height="102" viewBox="0 0 1812 102" fill="none" xmlns="http://www.w3.org/2000/svg">
<path d="M42.9736 42.8613C42.9736 36.8066 39.8975 31.6553 33.7451 27.4072C27.6416 23.1104 20.2441 20.9619 11.5527 20.9619V15.249C22.0508 15.249 31.0107 17.959 38.4326 23.3789C45.9033 28.75 49.6387 35.2441 49.6387 42.8613C49.6387 47.5977 48.2471 51.6504 45.4639 55.0195C42.6807 58.3398 39.3115 60 35.3564 60C32.8662 60 30.5713 59.2188 28.4717 57.6562C26.3721 56.0938 24.8584 54.0186 23.9307 51.4307C23.0029 54.0186 21.4893 56.0938 19.3896 57.6562C17.29 59.2188 14.9951 60 12.5049 60C9.08691 60 6.15723 58.7061 3.71582 56.1182C1.32324 53.4814 0.126953 50.332 0.126953 46.6699C0.126953 44.0332 1.05469 41.7871 2.91016 39.9316C4.76562 38.0762 7.01172 37.1484 9.64844 37.1484C11.6016 37.1484 13.3105 37.9785 14.7754 39.6387C16.2402 41.25 17.0703 43.2764 17.2656 45.7178H12.5049C12.5049 44.9365 12.2119 44.2773 11.626 43.7402C11.0889 43.1543 10.4297 42.8613 9.64844 42.8613C8.86719 42.8613 8.18359 43.3252 7.59766 44.2529C7.06055 45.1807 6.79199 46.3037 6.79199 47.6221C6.79199 49.4775 7.35352 51.0645 8.47656 52.3828C9.59961 53.6523 10.9424 54.2871 12.5049 54.2871C14.8486 54.2871 16.8506 53.1885 18.5107 50.9912C20.2197 48.7451 21.0742 46.0352 21.0742 42.8613H26.7871C26.7871 46.0352 27.6172 48.7451 29.2773 50.9912C30.9863 53.1885 33.0127 54.2871 35.3564 54.2871C37.4561 54.2871 39.2383 53.1885 40.7031 50.9912C42.2168 48.7451 42.9736 46.0352 42.9736 42.8613ZM68.3887 25.7227C68.3887 26.7969 68.7549 27.7002 69.4873 28.4326C70.2197 29.165 71.123 29.5312 72.1973 29.5312C73.2715 29.5312 74.1748 29.165 74.9072 28.4326C75.6396 27.7002 76.0059 26.7969 76.0059 25.7227C76.0059 24.6484 75.6396 23.7451 74.9072 23.0127C74.1748 22.2803 73.2715 21.9141 72.1973 21.9141C71.123 21.9141 70.2197 22.2803 69.4873 23.0127C68.7549 23.7451 68.3887 24.6484 68.3887 25.7227ZM80.3271 53.335C85.9424 53.335 90.4346 51.7236 93.8037 48.501C97.1729 45.2783 98.8574 41.0059 98.8574 35.6836C98.8574 32.168 97.832 29.165 95.7812 26.6748C93.7305 24.1357 91.2646 22.8662 88.3838 22.8662V17.1533H116.509C123.589 17.1533 129.644 19.3994 134.673 23.8916C139.702 28.335 142.217 33.7061 142.217 40.0049C142.217 45.5225 140.483 50.2344 137.017 54.1406C133.599 58.0469 129.448 60 124.565 60C120.757 60 117.51 58.8037 114.824 56.4111C112.139 53.9697 110.796 51.04 110.796 47.6221C110.796 44.2041 111.992 41.2988 114.385 38.9062C116.826 36.4648 119.756 35.2441 123.174 35.2441C125.029 35.2441 126.592 35.8545 127.861 37.0752C129.18 38.2471 129.839 39.6875 129.839 41.3965C129.839 42.8613 129.375 44.1064 128.447 45.1318C127.52 46.1572 126.396 46.6699 125.078 46.6699C123.76 46.6699 122.637 46.2061 121.709 45.2783C120.781 44.3506 120.317 43.2275 120.317 41.9092C118.999 42.3975 117.974 43.1787 117.241 44.2529C116.558 45.3271 116.313 46.4502 116.509 47.6221C116.509 49.4775 117.29 51.0645 118.853 52.3828C120.415 53.6523 122.319 54.2871 124.565 54.2871C127.593 54.2871 130.181 52.8955 132.329 50.1123C134.478 47.3291 135.552 43.96 135.552 40.0049C135.552 35.2686 133.696 31.2402 129.985 27.9199C126.274 24.5508 121.782 22.8662 116.509 22.8662H100.322C101.982 24.7217 103.252 26.7236 104.131 28.8721C105.059 30.9717 105.522 33.0957 105.522 35.2441C105.522 42.7148 103.228 48.7207 98.6377 53.2617C94.0479 57.7539 87.9443 60 80.3271 60C72.6611 60 66.5332 57.7539 61.9434 53.2617C57.3535 48.7207 55.0586 42.7148 55.0586 35.2441C55.0586 29.9707 56.7188 25.4785 60.0391 21.7676C63.4082 18.0566 67.4609 16.2012 72.1973 16.2012C75.0781 16.2012 77.5439 17.1289 79.5947 18.9844C81.6455 20.8398 82.6709 23.0859 82.6709 25.7227C82.6709 28.457 81.6455 30.8008 79.5947 32.7539C77.5439 34.707 75.0781 35.6836 72.1973 35.6836C69.9023 35.6836 67.9004 35.0977 66.1914 33.9258C64.4824 32.7539 63.4814 31.2891 63.1885 29.5312C62.7002 30.3613 62.334 31.2646 62.0898 32.2412C61.8457 33.2178 61.7236 34.2188 61.7236 35.2441C61.7236 40.2246 63.5303 44.4971 67.1436 48.0615C70.8057 51.5771 75.2002 53.335 80.3271 53.335ZM60.1123 82.043C60.1123 78.7715 61.1377 75.9639 63.1885 73.6201C65.2393 71.3252 67.7051 70.1777 70.5859 70.1777C72.832 70.1777 74.834 70.6904 76.5918 71.7158C78.3008 72.79 79.4727 74.1816 80.1074 75.8906C80.7422 74.1816 81.9141 72.79 83.623 71.7158C85.3809 70.6904 87.3828 70.1777 89.6289 70.1777C92.5098 70.1777 94.9756 71.3252 97.0264 73.6201C99.0771 75.9639 100.103 78.7715 100.103 82.043C100.103 83.3613 99.7607 84.7529 99.0771 86.2178C98.4424 87.6826 97.5146 89.1475 96.2939 90.6123L91.5332 87.7559C92.4609 86.6328 93.1689 85.583 93.6572 84.6064C94.1455 83.6299 94.3896 82.7754 94.3896 82.043C94.3896 80.1875 93.9258 78.6006 92.998 77.2822C92.0703 76.0127 90.9473 75.3779 89.6289 75.3779C87.7734 75.3779 86.1865 76.208 84.8682 77.8682C83.5986 79.5771 82.9639 81.6035 82.9639 83.9473H77.251C77.251 81.6035 76.6162 79.5771 75.3467 77.8682C74.0283 76.208 72.4414 75.3779 70.5859 75.3779C69.2676 75.3779 68.1445 76.0127 67.2168 77.2822C66.2891 78.6006 65.8252 80.1875 65.8252 82.043C65.8252 82.7754 66.0693 83.6299 66.5576 84.6064C67.0459 85.583 67.7539 86.6328 68.6816 87.7559L63.9209 90.6123C62.7002 89.1475 61.7725 87.6826 61.1377 86.2178C60.4541 84.7529 60.1123 83.3613 60.1123 82.043ZM148.809 42.8613C148.809 45.7422 149.443 48.208 150.713 50.2588C152.031 52.3096 153.618 53.335 155.474 53.335C157.573 53.335 159.355 52.3096 160.82 50.2588C162.334 48.208 163.091 45.7422 163.091 42.8613H168.804C168.804 45.7422 169.536 48.208 171.001 50.2588C172.515 52.3096 174.321 53.335 176.421 53.335C178.276 53.335 179.839 52.2363 181.108 50.0391C182.427 47.793 183.086 45.083 183.086 41.9092C183.086 36.6357 181.401 32.1436 178.032 28.4326C174.712 24.7217 170.684 22.8662 165.947 22.8662C161.211 22.8662 157.158 24.8193 153.789 28.7256C150.469 32.6318 148.809 37.3438 148.809 42.8613ZM150.713 22.8662H142.144V17.1533H181.182C182.5 17.1533 183.623 16.5918 184.551 15.4688C185.479 14.3457 185.942 13.0029 185.942 11.4404C185.942 10.6592 185.601 9.78027 184.917 8.80371C184.282 7.77832 183.354 6.75293 182.134 5.72754L184.99 1.91895C187.041 3.09082 188.652 4.53125 189.824 6.24023C191.045 7.94922 191.655 9.68262 191.655 11.4404C191.655 14.6143 190.63 17.3242 188.579 19.5703C186.528 21.7676 184.062 22.8662 181.182 22.8662C183.916 25.1611 186.016 27.9688 187.48 31.2891C188.994 34.6094 189.751 38.1494 189.751 41.9092C189.751 46.8896 188.433 51.1621 185.796 54.7266C183.208 58.2422 180.083 60 176.421 60C174.028 60 171.855 59.2188 169.902 57.6562C167.949 56.0449 166.631 53.9697 165.947 51.4307C165.264 53.9697 163.945 56.0449 161.992 57.6562C160.039 59.2188 157.866 60 155.474 60C151.812 60 148.662 58.3398 146.025 55.0195C143.438 51.6504 142.144 47.5977 142.144 42.8613C142.144 38.8086 142.876 35.0488 144.341 31.582C145.854 28.0664 147.979 25.1611 150.713 22.8662ZM202.275 38.1006C202.275 42.2998 203.667 45.8887 206.45 48.8672C209.233 51.8457 212.603 53.335 216.558 53.335C220.513 53.335 223.882 51.8457 226.665 48.8672C229.448 45.8887 230.84 42.2998 230.84 38.1006C230.84 33.9014 229.448 30.3125 226.665 27.334C223.882 24.3555 220.513 22.8662 216.558 22.8662C212.603 22.8662 209.233 24.3555 206.45 27.334C203.667 30.3125 202.275 33.9014 202.275 38.1006ZM202.715 22.8662H195.61V17.1533H229.888C231.206 17.1533 232.329 16.6895 233.257 15.7617C234.185 14.834 234.648 13.7109 234.648 12.3926C234.648 11.1719 234.355 9.97559 233.77 8.80371C233.184 7.63184 232.354 6.60645 231.279 5.72754L234.648 1.91895C236.406 2.94434 237.798 4.40918 238.823 6.31348C239.849 8.16895 240.361 10.1953 240.361 12.3926C240.361 15.2734 239.385 17.7393 237.432 19.79C235.479 21.8408 233.11 22.8662 230.327 22.8662C232.622 24.7705 234.38 27.0654 235.601 29.751C236.87 32.3877 237.505 35.1709 237.505 38.1006C237.505 44.1553 235.454 49.3311 231.353 53.6279C227.251 57.876 222.319 60 216.558 60C210.796 60 205.864 57.876 201.763 53.6279C197.661 49.3311 195.61 44.1553 195.61 38.1006C195.61 35.1709 196.221 32.3877 197.441 29.751C198.711 27.0654 200.469 24.7705 202.715 22.8662ZM294.927 37.8809C294.927 33.1445 293.657 29.2139 291.118 26.0889C288.628 22.9639 285.454 21.4014 281.597 21.4014C277.935 21.4014 274.785 23.3057 272.148 27.1143C269.561 30.9229 268.267 35.5371 268.267 40.957C268.267 46.2305 266.729 50.7227 263.652 54.4336C260.625 58.1445 256.938 60 252.593 60C249.565 60 246.88 58.9746 244.536 56.9238C242.192 54.8242 240.752 52.1875 240.215 49.0137L240.654 40.957C241.289 44.5215 242.729 47.4756 244.976 49.8193C247.222 52.1631 249.761 53.335 252.593 53.335C255.083 53.335 257.207 52.1387 258.965 49.7461C260.723 47.3047 261.602 44.375 261.602 40.957C261.602 34.1211 263.555 28.2861 267.461 23.4521C271.367 18.6182 276.079 16.2012 281.597 16.2012C287.651 16.2012 292.485 18.2031 296.099 22.207C299.761 26.1621 301.592 31.46 301.592 38.1006C301.592 44.4482 300.151 49.6973 297.271 53.8477C294.39 57.9492 290.752 60 286.357 60C282.939 60 280.01 58.7549 277.568 56.2646C275.176 53.7256 273.979 50.6738 273.979 47.1094C273.979 44.082 274.907 41.5186 276.763 39.4189C278.618 37.2705 280.864 36.1963 283.501 36.1963C285.063 36.1963 286.406 36.7578 287.529 37.8809C288.652 39.0039 289.214 40.3467 289.214 41.9092C289.214 43.4717 288.75 44.8145 287.822 45.9375C286.895 47.0605 285.771 47.6221 284.453 47.6221C283.574 47.6221 282.744 47.4023 281.963 46.9629C281.23 46.5234 280.645 45.9375 280.205 45.2051C280.059 45.498 279.937 45.791 279.839 46.084C279.741 46.3281 279.692 46.5234 279.692 46.6699C279.692 48.7695 280.327 50.5762 281.597 52.0898C282.915 53.5547 284.502 54.2871 286.357 54.2871C288.945 54.2871 291.021 52.7979 292.583 49.8193C294.146 46.8408 294.927 42.8613 294.927 37.8809ZM344.731 50.4785C344.731 51.2598 345.464 51.9434 346.929 52.5293C348.442 53.0664 350.249 53.335 352.349 53.335C354.106 53.335 355.791 53.042 357.402 52.4561C359.062 51.8701 360.552 51.04 361.87 49.9658C360.601 48.8916 359.136 48.0859 357.476 47.5488C355.864 46.9629 354.155 46.6699 352.349 46.6699C350.249 46.6699 348.442 47.0361 346.929 47.7686C345.464 48.501 344.731 49.4043 344.731 50.4785ZM328.545 28.5791C328.545 25.1611 329.741 22.2559 332.134 19.8633C334.575 17.4219 337.505 16.2012 340.923 16.2012C343.315 16.2012 345.537 16.8848 347.588 18.252C349.688 19.6191 351.274 21.4746 352.349 23.8184C353.423 21.4746 354.985 19.6191 357.036 18.252C359.136 16.8848 361.382 16.2012 363.774 16.2012C367.437 16.2012 370.562 17.8857 373.149 21.2549C375.786 24.5752 377.104 28.6035 377.104 33.3398C377.104 36.6602 376.616 39.8096 375.64 42.7881C374.663 45.7178 373.247 48.2812 371.392 50.4785C372.905 52.334 374.077 54.4824 374.907 56.9238C375.737 59.3652 376.152 61.9775 376.152 64.7607H369.487C369.487 62.9541 369.243 61.1719 368.755 59.4141C368.267 57.6074 367.559 55.8984 366.631 54.2871C364.434 56.1426 362.09 57.5586 359.6 58.5352C357.158 59.5117 354.741 60 352.349 60C348.394 60 345.024 59.0723 342.241 57.2168C339.458 55.3613 338.066 53.1152 338.066 50.4785C338.066 47.8418 339.458 45.5957 342.241 43.7402C345.024 41.8848 348.394 40.957 352.349 40.957C355.132 40.957 357.744 41.3721 360.186 42.2021C362.627 43.0322 364.775 44.2041 366.631 45.7178C367.852 44.2529 368.779 42.4707 369.414 40.3711C370.098 38.2227 370.439 35.8789 370.439 33.3398C370.439 30.459 369.78 27.9932 368.462 25.9424C367.192 23.8916 365.63 22.8662 363.774 22.8662C361.528 22.8662 359.624 23.7939 358.062 25.6494C356.499 27.5049 355.718 29.751 355.718 32.3877V36.1963H349.053V32.3877C349.053 29.751 348.247 27.5049 346.636 25.6494C345.073 23.7939 343.169 22.8662 340.923 22.8662C339.36 22.8662 338.018 23.4277 336.895 24.5508C335.771 25.6738 335.21 27.0166 335.21 28.5791C335.21 29.3115 335.454 30.166 335.942 31.1426C336.431 32.1191 337.139 33.1689 338.066 34.292L333.306 38.1006C331.792 36.8311 330.62 35.3662 329.79 33.7061C328.96 32.0459 328.545 30.3369 328.545 28.5791ZM383.55 38.1006C383.55 42.2998 384.941 45.8887 387.725 48.8672C390.508 51.8457 393.877 53.335 397.832 53.335C401.787 53.335 405.156 51.8457 407.939 48.8672C410.723 45.8887 412.114 42.2998 412.114 38.1006C412.114 33.9014 410.723 30.3125 407.939 27.334C405.156 24.3555 401.787 22.8662 397.832 22.8662C393.877 22.8662 390.508 24.3555 387.725 27.334C384.941 30.3125 383.55 33.9014 383.55 38.1006ZM383.989 22.8662H376.885V17.1533H411.162C412.48 17.1533 413.604 16.6895 414.531 15.7617C415.459 14.834 415.923 13.7109 415.923 12.3926C415.923 11.1719 415.63 9.97559 415.044 8.80371C414.458 7.63184 413.628 6.60645 412.554 5.72754L415.923 1.91895C417.681 2.94434 419.072 4.40918 420.098 6.31348C421.123 8.16895 421.636 10.1953 421.636 12.3926C421.636 15.2734 420.659 17.7393 418.706 19.79C416.753 21.8408 414.385 22.8662 411.602 22.8662C413.896 24.7705 415.654 27.0654 416.875 29.751C418.145 32.3877 418.779 35.1709 418.779 38.1006C418.779 44.1553 416.729 49.3311 412.627 53.6279C408.525 57.876 403.594 60 397.832 60C392.07 60 387.139 57.876 383.037 53.6279C378.936 49.3311 376.885 44.1553 376.885 38.1006C376.885 35.1709 377.495 32.3877 378.716 29.751C379.985 27.0654 381.743 24.7705 383.989 22.8662ZM437.163 22.8662L437.676 17.1533C443.047 17.1533 447.637 19.2529 451.445 23.4521C455.254 27.6025 457.158 32.6318 457.158 38.54C457.158 44.4482 455.205 49.502 451.299 53.7012C447.393 57.9004 442.681 60 437.163 60C433.306 60 429.888 58.7549 426.909 56.2646C423.979 53.7256 422.173 50.5273 421.489 46.6699V36.1963C422.417 41.4209 424.346 45.7422 427.275 49.1602C430.254 52.5781 433.55 54.2871 437.163 54.2871C440.825 54.2871 443.95 52.749 446.538 49.6729C449.175 46.5967 450.493 42.8857 450.493 38.54C450.493 34.1943 449.175 30.5078 446.538 27.4805C443.95 24.4043 440.825 22.8662 437.163 22.8662ZM526.372 42.8613C526.372 36.8066 523.296 31.6553 517.144 27.4072C511.04 23.1104 503.643 20.9619 494.951 20.9619V15.249C505.449 15.249 514.409 17.959 521.831 23.3789C529.302 28.75 533.037 35.2441 533.037 42.8613C533.037 47.5977 531.646 51.6504 528.862 55.0195C526.079 58.3398 522.71 60 518.755 60C516.265 60 513.97 59.2188 511.87 57.6562C509.771 56.0938 508.257 54.0186 507.329 51.4307C506.401 54.0186 504.888 56.0938 502.788 57.6562C500.688 59.2188 498.394 60 495.903 60C492.485 60 489.556 58.7061 487.114 56.1182C484.722 53.4814 483.525 50.332 483.525 46.6699C483.525 44.0332 484.453 41.7871 486.309 39.9316C488.164 38.0762 490.41 37.1484 493.047 37.1484C495 37.1484 496.709 37.9785 498.174 39.6387C499.639 41.25 500.469 43.2764 500.664 45.7178H495.903C495.903 44.9365 495.61 44.2773 495.024 43.7402C494.487 43.1543 493.828 42.8613 493.047 42.8613C492.266 42.8613 491.582 43.3252 490.996 44.2529C490.459 45.1807 490.19 46.3037 490.19 47.6221C490.19 49.4775 490.752 51.0645 491.875 52.3828C492.998 53.6523 494.341 54.2871 495.903 54.2871C498.247 54.2871 500.249 53.1885 501.909 50.9912C503.618 48.7451 504.473 46.0352 504.473 42.8613H510.186C510.186 46.0352 511.016 48.7451 512.676 50.9912C514.385 53.1885 516.411 54.2871 518.755 54.2871C520.854 54.2871 522.637 53.1885 524.102 50.9912C525.615 48.7451 526.372 46.0352 526.372 42.8613ZM538.457 38.1006C538.457 32.583 540.117 27.8711 543.438 23.9648C546.807 20.0586 550.859 18.1055 555.596 18.1055C560.332 18.1055 564.36 20.0586 567.681 23.9648C571.05 27.8711 572.734 32.583 572.734 38.1006C572.734 43.6182 571.05 48.3301 567.681 52.2363C564.36 56.1426 560.332 58.0957 555.596 58.0957C550.859 58.0957 546.807 56.1426 543.438 52.2363C540.117 48.3301 538.457 43.6182 538.457 38.1006ZM545.122 38.1006C545.122 42.0557 546.147 45.4248 548.198 48.208C550.249 50.9912 552.715 52.3828 555.596 52.3828C558.477 52.3828 560.942 50.9912 562.993 48.208C565.044 45.4248 566.069 42.0557 566.069 38.1006C566.069 34.1455 565.044 30.7764 562.993 27.9932C560.942 25.21 558.477 23.8184 555.596 23.8184C552.715 23.8184 550.249 25.21 548.198 27.9932C546.147 30.7764 545.122 34.1455 545.122 38.1006ZM592.803 36.1963C592.803 37.124 593.218 37.9053 594.048 38.54C594.927 39.1748 595.952 39.4922 597.124 39.4922C598.052 39.4922 598.955 39.1992 599.834 38.6133C600.762 38.0273 601.592 37.2217 602.324 36.1963C601.543 35.415 600.688 34.8291 599.761 34.4385C598.882 33.999 598.003 33.7793 597.124 33.7793C595.952 33.7793 594.927 34.0234 594.048 34.5117C593.218 34.9512 592.803 35.5127 592.803 36.1963ZM602.837 30.4834C602.837 28.9697 602.397 27.5293 601.519 26.1621C600.688 24.7949 599.541 23.6963 598.076 22.8662H576.177V17.1533H626.274C633.354 17.1533 639.409 19.3994 644.438 23.8916C649.468 28.335 651.982 33.7061 651.982 40.0049C651.982 45.5225 650.249 50.2344 646.782 54.1406C643.364 58.0469 639.214 60 634.331 60C630.522 60 627.275 58.8037 624.59 56.4111C621.904 53.9697 620.562 51.04 620.562 47.6221C620.562 44.2041 621.758 41.2988 624.15 38.9062C626.592 36.4648 629.521 35.2441 632.939 35.2441C634.795 35.2441 636.357 35.8545 637.627 37.0752C638.945 38.2471 639.604 39.6875 639.604 41.3965C639.604 42.8613 639.141 44.1064 638.213 45.1318C637.285 46.1572 636.162 46.6699 634.844 46.6699C633.525 46.6699 632.402 46.2061 631.475 45.2783C630.547 44.3506 630.083 43.2275 630.083 41.9092C628.765 42.3975 627.739 43.1787 627.007 44.2529C626.323 45.3271 626.079 46.4502 626.274 47.6221C626.274 49.4775 627.056 51.0645 628.618 52.3828C630.181 53.6523 632.085 54.2871 634.331 54.2871C637.358 54.2871 639.946 52.8955 642.095 50.1123C644.243 47.3291 645.317 43.96 645.317 40.0049C645.317 35.2686 643.462 31.2402 639.751 27.9199C636.04 24.5508 631.548 22.8662 626.274 22.8662H604.741C605.767 23.7451 606.572 25.1123 607.158 26.9678C607.744 28.7744 608.037 30.8984 608.037 33.3398C609.99 35 611.504 36.8311 612.578 38.833C613.701 40.835 614.263 42.8125 614.263 44.7656C614.263 48.9648 612.407 52.5537 608.696 55.5322C604.985 58.5107 600.493 60 595.22 60C589.702 60 584.99 58.5107 581.084 55.5322C577.178 52.5537 575.225 48.9648 575.225 44.7656C575.225 43.6914 575.347 42.666 575.591 41.6895C575.835 40.7129 576.177 39.834 576.616 39.0527L581.89 40.957C581.597 41.4941 581.353 42.1045 581.157 42.7881C581.011 43.4229 580.938 44.082 580.938 44.7656C580.938 47.1094 582.329 49.1357 585.112 50.8447C587.896 52.5049 591.265 53.335 595.22 53.335C598.638 53.335 601.543 52.5049 603.936 50.8447C606.377 49.1357 607.598 47.1094 607.598 44.7656C607.598 44.0332 607.476 43.3008 607.231 42.5684C606.987 41.8359 606.621 41.1279 606.133 40.4443C605.303 41.9092 604.082 43.0811 602.471 43.96C600.859 44.79 599.077 45.2051 597.124 45.2051C594.243 45.2051 591.777 44.375 589.727 42.7148C587.676 41.0059 586.65 38.9795 586.65 36.6357C586.65 34.3896 587.676 32.4854 589.727 30.9229C591.777 29.3604 594.243 28.5791 597.124 28.5791C597.905 28.5791 598.784 28.75 599.761 29.0918C600.737 29.3848 601.763 29.8486 602.837 30.4834ZM658.574 42.8613C658.574 45.7422 659.209 48.208 660.479 50.2588C661.797 52.3096 663.384 53.335 665.239 53.335C667.339 53.335 669.121 52.3096 670.586 50.2588C672.1 48.208 672.856 45.7422 672.856 42.8613H678.569C678.569 45.7422 679.302 48.208 680.767 50.2588C682.28 52.3096 684.087 53.335 686.187 53.335C688.042 53.335 689.604 52.2363 690.874 50.0391C692.192 47.793 692.852 45.083 692.852 41.9092C692.852 36.6357 691.167 32.1436 687.798 28.4326C684.478 24.7217 680.449 22.8662 675.713 22.8662C670.977 22.8662 666.924 24.8193 663.555 28.7256C660.234 32.6318 658.574 37.3438 658.574 42.8613ZM660.479 22.8662H651.909V17.1533H690.947C692.266 17.1533 693.389 16.5918 694.316 15.4688C695.244 14.3457 695.708 13.0029 695.708 11.4404C695.708 10.6592 695.366 9.78027 694.683 8.80371C694.048 7.77832 693.12 6.75293 691.899 5.72754L694.756 1.91895C696.807 3.09082 698.418 4.53125 699.59 6.24023C700.811 7.94922 701.421 9.68262 701.421 11.4404C701.421 14.6143 700.396 17.3242 698.345 19.5703C696.294 21.7676 693.828 22.8662 690.947 22.8662C693.682 25.1611 695.781 27.9688 697.246 31.2891C698.76 34.6094 699.517 38.1494 699.517 41.9092C699.517 46.8896 698.198 51.1621 695.562 54.7266C692.974 58.2422 689.849 60 686.187 60C683.794 60 681.621 59.2188 679.668 57.6562C677.715 56.0449 676.396 53.9697 675.713 51.4307C675.029 53.9697 673.711 56.0449 671.758 57.6562C669.805 59.2188 667.632 60 665.239 60C661.577 60 658.428 58.3398 655.791 55.0195C653.203 51.6504 651.909 47.5977 651.909 42.8613C651.909 38.8086 652.642 35.0488 654.106 31.582C655.62 28.0664 657.744 25.1611 660.479 22.8662ZM712.041 38.1006C712.041 42.2998 713.433 45.8887 716.216 48.8672C718.999 51.8457 722.368 53.335 726.323 53.335C730.278 53.335 733.647 51.8457 736.431 48.8672C739.214 45.8887 740.605 42.2998 740.605 38.1006C740.605 33.9014 739.214 30.3125 736.431 27.334C733.647 24.3555 730.278 22.8662 726.323 22.8662C722.368 22.8662 718.999 24.3555 716.216 27.334C713.433 30.3125 712.041 33.9014 712.041 38.1006ZM712.48 22.8662H705.376V17.1533H739.653C740.972 17.1533 742.095 16.6895 743.022 15.7617C743.95 14.834 744.414 13.7109 744.414 12.3926C744.414 11.1719 744.121 9.97559 743.535 8.80371C742.949 7.63184 742.119 6.60645 741.045 5.72754L744.414 1.91895C746.172 2.94434 747.563 4.40918 748.589 6.31348C749.614 8.16895 750.127 10.1953 750.127 12.3926C750.127 15.2734 749.15 17.7393 747.197 19.79C745.244 21.8408 742.876 22.8662 740.093 22.8662C742.388 24.7705 744.146 27.0654 745.366 29.751C746.636 32.3877 747.271 35.1709 747.271 38.1006C747.271 44.1553 745.22 49.3311 741.118 53.6279C737.017 57.876 732.085 60 726.323 60C720.562 60 715.63 57.876 711.528 53.6279C707.427 49.3311 705.376 44.1553 705.376 38.1006C705.376 35.1709 705.986 32.3877 707.207 29.751C708.477 27.0654 710.234 24.7705 712.48 22.8662ZM765.654 22.8662L766.167 17.1533C771.538 17.1533 776.128 19.2529 779.937 23.4521C783.745 27.6025 785.649 32.6318 785.649 38.54C785.649 44.4482 783.696 49.502 779.79 53.7012C775.884 57.9004 771.172 60 765.654 60C761.797 60 758.379 58.7549 755.4 56.2646C752.471 53.7256 750.664 50.5273 749.98 46.6699V36.1963C750.908 41.4209 752.837 45.7422 755.767 49.1602C758.745 52.5781 762.041 54.2871 765.654 54.2871C769.316 54.2871 772.441 52.749 775.029 49.6729C777.666 46.5967 778.984 42.8857 778.984 38.54C778.984 34.1943 777.666 30.5078 775.029 27.4805C772.441 24.4043 769.316 22.8662 765.654 22.8662ZM826.885 50.4785C826.885 51.2598 827.617 51.9434 829.082 52.5293C830.596 53.0664 832.402 53.335 834.502 53.335C836.26 53.335 837.944 53.042 839.556 52.4561C841.216 51.8701 842.705 51.04 844.023 49.9658C842.754 48.8916 841.289 48.0859 839.629 47.5488C838.018 46.9629 836.309 46.6699 834.502 46.6699C832.402 46.6699 830.596 47.0361 829.082 47.7686C827.617 48.501 826.885 49.4043 826.885 50.4785ZM810.698 28.5791C810.698 25.1611 811.895 22.2559 814.287 19.8633C816.729 17.4219 819.658 16.2012 823.076 16.2012C825.469 16.2012 827.69 16.8848 829.741 18.252C831.841 19.6191 833.428 21.4746 834.502 23.8184C835.576 21.4746 837.139 19.6191 839.189 18.252C841.289 16.8848 843.535 16.2012 845.928 16.2012C849.59 16.2012 852.715 17.8857 855.303 21.2549C857.939 24.5752 859.258 28.6035 859.258 33.3398C859.258 36.6602 858.77 39.8096 857.793 42.7881C856.816 45.7178 855.4 48.2812 853.545 50.4785C855.059 52.334 856.23 54.4824 857.061 56.9238C857.891 59.3652 858.306 61.9775 858.306 64.7607H851.641C851.641 62.9541 851.396 61.1719 850.908 59.4141C850.42 57.6074 849.712 55.8984 848.784 54.2871C846.587 56.1426 844.243 57.5586 841.753 58.5352C839.312 59.5117 836.895 60 834.502 60C830.547 60 827.178 59.0723 824.395 57.2168C821.611 55.3613 820.22 53.1152 820.22 50.4785C820.22 47.8418 821.611 45.5957 824.395 43.7402C827.178 41.8848 830.547 40.957 834.502 40.957C837.285 40.957 839.897 41.3721 842.339 42.2021C844.78 43.0322 846.929 44.2041 848.784 45.7178C850.005 44.2529 850.933 42.4707 851.567 40.3711C852.251 38.2227 852.593 35.8789 852.593 33.3398C852.593 30.459 851.934 27.9932 850.615 25.9424C849.346 23.8916 847.783 22.8662 845.928 22.8662C843.682 22.8662 841.777 23.7939 840.215 25.6494C838.652 27.5049 837.871 29.751 837.871 32.3877V36.1963H831.206V32.3877C831.206 29.751 830.4 27.5049 828.789 25.6494C827.227 23.7939 825.322 22.8662 823.076 22.8662C821.514 22.8662 820.171 23.4277 819.048 24.5508C817.925 25.6738 817.363 27.0166 817.363 28.5791C817.363 29.3115 817.607 30.166 818.096 31.1426C818.584 32.1191 819.292 33.1689 820.22 34.292L815.459 38.1006C813.945 36.8311 812.773 35.3662 811.943 33.7061C811.113 32.0459 810.698 30.3369 810.698 28.5791ZM865.703 38.1006C865.703 42.2998 867.095 45.8887 869.878 48.8672C872.661 51.8457 876.03 53.335 879.985 53.335C883.94 53.335 887.31 51.8457 890.093 48.8672C892.876 45.8887 894.268 42.2998 894.268 38.1006C894.268 33.9014 892.876 30.3125 890.093 27.334C887.31 24.3555 883.94 22.8662 879.985 22.8662C876.03 22.8662 872.661 24.3555 869.878 27.334C867.095 30.3125 865.703 33.9014 865.703 38.1006ZM866.143 22.8662H859.038V17.1533H893.315C894.634 17.1533 895.757 16.6895 896.685 15.7617C897.612 14.834 898.076 13.7109 898.076 12.3926C898.076 11.1719 897.783 9.97559 897.197 8.80371C896.611 7.63184 895.781 6.60645 894.707 5.72754L898.076 1.91895C899.834 2.94434 901.226 4.40918 902.251 6.31348C903.276 8.16895 903.789 10.1953 903.789 12.3926C903.789 15.2734 902.812 17.7393 900.859 19.79C898.906 21.8408 896.538 22.8662 893.755 22.8662C896.05 24.7705 897.808 27.0654 899.028 29.751C900.298 32.3877 900.933 35.1709 900.933 38.1006C900.933 44.1553 898.882 49.3311 894.78 53.6279C890.679 57.876 885.747 60 879.985 60C874.224 60 869.292 57.876 865.19 53.6279C861.089 49.3311 859.038 44.1553 859.038 38.1006C859.038 35.1709 859.648 32.3877 860.869 29.751C862.139 27.0654 863.896 24.7705 866.143 22.8662ZM919.316 22.8662L919.829 17.1533C925.2 17.1533 929.79 19.2529 933.599 23.4521C937.407 27.6025 939.312 32.6318 939.312 38.54C939.312 44.4482 937.358 49.502 933.452 53.7012C929.546 57.9004 924.834 60 919.316 60C915.459 60 912.041 58.7549 909.062 56.2646C906.133 53.7256 904.326 50.5273 903.643 46.6699V36.1963C904.57 41.4209 906.499 45.7422 909.429 49.1602C912.407 52.5781 915.703 54.2871 919.316 54.2871C922.979 54.2871 926.104 52.749 928.691 49.6729C931.328 46.5967 932.646 42.8857 932.646 38.54C932.646 34.1943 931.328 30.5078 928.691 27.4805C926.104 24.4043 922.979 22.8662 919.316 22.8662ZM1008.53 42.8613C1008.53 36.8066 1005.45 31.6553 999.297 27.4072C993.193 23.1104 985.796 20.9619 977.104 20.9619V15.249C987.603 15.249 996.562 17.959 1003.98 23.3789C1011.46 28.75 1015.19 35.2441 1015.19 42.8613C1015.19 47.5977 1013.8 51.6504 1011.02 55.0195C1008.23 58.3398 1004.86 60 1000.91 60C998.418 60 996.123 59.2188 994.023 57.6562C991.924 56.0938 990.41 54.0186 989.482 51.4307C988.555 54.0186 987.041 56.0938 984.941 57.6562C982.842 59.2188 980.547 60 978.057 60C974.639 60 971.709 58.7061 969.268 56.1182C966.875 53.4814 965.679 50.332 965.679 46.6699C965.679 44.0332 966.606 41.7871 968.462 39.9316C970.317 38.0762 972.563 37.1484 975.2 37.1484C977.153 37.1484 978.862 37.9785 980.327 39.6387C981.792 41.25 982.622 43.2764 982.817 45.7178H978.057C978.057 44.9365 977.764 44.2773 977.178 43.7402C976.641 43.1543 975.981 42.8613 975.2 42.8613C974.419 42.8613 973.735 43.3252 973.149 44.2529C972.612 45.1807 972.344 46.3037 972.344 47.6221C972.344 49.4775 972.905 51.0645 974.028 52.3828C975.151 53.6523 976.494 54.2871 978.057 54.2871C980.4 54.2871 982.402 53.1885 984.062 50.9912C985.771 48.7451 986.626 46.0352 986.626 42.8613H992.339C992.339 46.0352 993.169 48.7451 994.829 50.9912C996.538 53.1885 998.564 54.2871 1000.91 54.2871C1003.01 54.2871 1004.79 53.1885 1006.25 50.9912C1007.77 48.7451 1008.53 46.0352 1008.53 42.8613ZM1020.61 38.1006C1020.61 32.583 1022.27 27.8711 1025.59 23.9648C1028.96 20.0586 1033.01 18.1055 1037.75 18.1055C1042.49 18.1055 1046.51 20.0586 1049.83 23.9648C1053.2 27.8711 1054.89 32.583 1054.89 38.1006C1054.89 43.6182 1053.2 48.3301 1049.83 52.2363C1046.51 56.1426 1042.49 58.0957 1037.75 58.0957C1033.01 58.0957 1028.96 56.1426 1025.59 52.2363C1022.27 48.3301 1020.61 43.6182 1020.61 38.1006ZM1027.28 38.1006C1027.28 42.0557 1028.3 45.4248 1030.35 48.208C1032.4 50.9912 1034.87 52.3828 1037.75 52.3828C1040.63 52.3828 1043.1 50.9912 1045.15 48.208C1047.2 45.4248 1048.22 42.0557 1048.22 38.1006C1048.22 34.1455 1047.2 30.7764 1045.15 27.9932C1043.1 25.21 1040.63 23.8184 1037.75 23.8184C1034.87 23.8184 1032.4 25.21 1030.35 27.9932C1028.3 30.7764 1027.28 34.1455 1027.28 38.1006ZM1067.56 41.9092C1067.56 45.083 1068.19 47.793 1069.46 50.0391C1070.78 52.2363 1072.37 53.335 1074.22 53.335C1076.32 53.335 1078.11 52.3096 1079.57 50.2588C1081.08 48.208 1081.84 45.7422 1081.84 42.8613H1087.55C1087.55 45.7422 1088.29 48.208 1089.75 50.2588C1091.26 52.3096 1093.07 53.335 1095.17 53.335C1097.03 53.335 1098.59 52.2363 1099.86 50.0391C1101.18 47.793 1101.84 45.083 1101.84 41.9092C1101.84 36.6357 1100.15 32.1436 1096.78 28.4326C1093.46 24.7217 1089.43 22.8662 1084.7 22.8662C1079.96 22.8662 1075.91 24.7217 1072.54 28.4326C1069.22 32.1436 1067.56 36.6357 1067.56 41.9092ZM1069.46 22.8662H1060.89V17.1533H1097.81C1099.66 17.1533 1101.23 16.5918 1102.5 15.4688C1103.81 14.3457 1104.47 13.0029 1104.47 11.4404C1104.47 10.1221 1104.01 8.99902 1103.08 8.07129C1102.15 7.14355 1101.03 6.67969 1099.71 6.67969C1099.13 6.67969 1098.61 6.77734 1098.17 6.97266C1097.73 7.11914 1097.47 7.33887 1097.37 7.63184C1098.2 7.77832 1098.88 8.21777 1099.42 8.9502C1099.96 9.63379 1100.22 10.4639 1100.22 11.4404C1100.22 12.5146 1099.79 13.418 1098.91 14.1504C1098.08 14.8828 1097.08 15.249 1095.9 15.249C1094.58 15.249 1093.46 14.6875 1092.53 13.5645C1091.61 12.4414 1091.14 11.0986 1091.14 9.53613C1091.14 7.19238 1091.97 5.19043 1093.63 3.53027C1095.34 1.82129 1097.37 0.966797 1099.71 0.966797C1102.59 0.966797 1105.06 1.99219 1107.11 4.04297C1109.16 6.09375 1110.19 8.55957 1110.19 11.4404C1110.19 14.2236 1109.21 16.665 1107.26 18.7646C1105.3 20.8643 1102.86 22.1582 1099.93 22.6465C1102.67 24.9414 1104.77 27.7734 1106.23 31.1426C1107.74 34.5117 1108.5 38.1006 1108.5 41.9092C1108.5 46.8896 1107.18 51.1621 1104.55 54.7266C1101.96 58.2422 1098.83 60 1095.17 60C1092.78 60 1090.61 59.2188 1088.65 57.6562C1086.7 56.0449 1085.38 53.9697 1084.7 51.4307C1084.01 53.9697 1082.7 56.0449 1080.74 57.6562C1078.79 59.2188 1076.62 60 1074.22 60C1070.56 60 1067.41 58.2422 1064.78 54.7266C1062.19 51.1621 1060.89 46.8896 1060.89 41.9092C1060.89 38.1494 1061.63 34.6094 1063.09 31.2891C1064.6 27.9688 1066.73 25.1611 1069.46 22.8662ZM1113.92 38.1006C1113.92 32.583 1115.58 27.8711 1118.9 23.9648C1122.27 20.0586 1126.32 18.1055 1131.06 18.1055C1135.8 18.1055 1139.82 20.0586 1143.14 23.9648C1146.51 27.8711 1148.2 32.583 1148.2 38.1006C1148.2 43.6182 1146.51 48.3301 1143.14 52.2363C1139.82 56.1426 1135.8 58.0957 1131.06 58.0957C1126.32 58.0957 1122.27 56.1426 1118.9 52.2363C1115.58 48.3301 1113.92 43.6182 1113.92 38.1006ZM1120.59 38.1006C1120.59 42.0557 1121.61 45.4248 1123.66 48.208C1125.71 50.9912 1128.18 52.3828 1131.06 52.3828C1133.94 52.3828 1136.41 50.9912 1138.46 48.208C1140.51 45.4248 1141.53 42.0557 1141.53 38.1006C1141.53 34.1455 1140.51 30.7764 1138.46 27.9932C1136.41 25.21 1133.94 23.8184 1131.06 23.8184C1128.18 23.8184 1125.71 25.21 1123.66 27.9932C1121.61 30.7764 1120.59 34.1455 1120.59 38.1006ZM1160.87 13.3447C1160.87 14.4189 1161.6 15.3223 1163.07 16.0547C1164.58 16.7871 1166.39 17.1533 1168.49 17.1533H1178.01C1180.64 17.1533 1183.13 17.5684 1185.48 18.3984C1187.82 19.2285 1189.92 20.4004 1191.78 21.9141C1190.65 17.7148 1188.02 14.2969 1183.87 11.6602C1179.72 8.97461 1174.91 7.63184 1169.44 7.63184C1167.09 7.63184 1165.07 8.19336 1163.36 9.31641C1161.7 10.4395 1160.87 11.7822 1160.87 13.3447ZM1160.87 42.8613C1160.87 45.7422 1161.5 48.208 1162.77 50.2588C1164.09 52.3096 1165.68 53.335 1167.53 53.335C1169.63 53.335 1171.42 52.3096 1172.88 50.2588C1174.39 48.208 1175.15 45.7422 1175.15 42.8613H1180.86C1180.86 45.7422 1181.6 48.208 1183.06 50.2588C1184.58 52.3096 1186.38 53.335 1188.48 53.335C1190.34 53.335 1191.9 52.3096 1193.17 50.2588C1194.49 48.208 1195.15 45.7422 1195.15 42.8613C1195.15 37.3438 1193.46 32.6318 1190.09 28.7256C1186.77 24.8193 1182.74 22.8662 1178.01 22.8662C1173.27 22.8662 1169.22 24.8193 1165.85 28.7256C1162.53 32.6318 1160.87 37.3438 1160.87 42.8613ZM1154.2 42.8613C1154.2 38.8086 1154.94 35.0488 1156.4 31.582C1157.92 28.0664 1160.04 25.1611 1162.77 22.8662C1160.28 22.4268 1158.23 21.3037 1156.62 19.4971C1155.01 17.6904 1154.2 15.6396 1154.2 13.3447C1154.2 10.1709 1155.69 7.48535 1158.67 5.28809C1161.65 3.04199 1165.24 1.91895 1169.44 1.91895C1178.37 1.91895 1185.99 5.92285 1192.29 13.9307C1198.64 21.8896 1201.81 31.5332 1201.81 42.8613C1201.81 47.5977 1200.49 51.6504 1197.86 55.0195C1195.27 58.3398 1192.14 60 1188.48 60C1186.38 60 1184.38 59.3164 1182.48 57.9492C1180.57 56.582 1179.08 54.7266 1178.01 52.3828C1176.93 54.7266 1175.44 56.582 1173.54 57.9492C1171.64 59.3164 1169.63 60 1167.53 60C1163.87 60 1160.72 58.3398 1158.09 55.0195C1155.5 51.6504 1154.2 47.5977 1154.2 42.8613ZM1209.14 60V45.7178C1209.14 41.2744 1209.79 37.0996 1211.11 33.1934C1212.43 29.2383 1214.31 25.7959 1216.75 22.8662H1209.14V17.1533H1236.75C1237.82 17.1533 1238.73 16.6895 1239.46 15.7617C1240.19 14.834 1240.56 13.7109 1240.56 12.3926C1240.56 11.0254 1240.31 9.78027 1239.82 8.65723C1239.34 7.48535 1238.63 6.50879 1237.7 5.72754L1241.51 1.91895C1243.32 3.43262 1244.71 5.11719 1245.68 6.97266C1246.71 8.7793 1247.22 10.5859 1247.22 12.3926C1247.22 14.8828 1246.51 17.1045 1245.1 19.0576C1243.68 21.0107 1241.85 22.2803 1239.6 22.8662C1242.05 25.7959 1243.93 29.2383 1245.24 33.1934C1246.56 37.0996 1247.22 41.2744 1247.22 45.7178V60H1240.56V45.7178C1240.56 39.4189 1239.34 34.0479 1236.89 29.6045C1234.5 25.1123 1231.6 22.8662 1228.18 22.8662C1224.76 22.8662 1221.83 25.1123 1219.39 29.6045C1217 34.0479 1215.8 39.4189 1215.8 45.7178V60H1209.14ZM1301.27 37.8809C1301.27 33.1445 1300 29.2139 1297.47 26.0889C1294.98 22.9639 1291.8 21.4014 1287.94 21.4014C1284.28 21.4014 1281.13 23.3057 1278.5 27.1143C1275.91 30.9229 1274.61 35.5371 1274.61 40.957C1274.61 46.2305 1273.08 50.7227 1270 54.4336C1266.97 58.1445 1263.29 60 1258.94 60C1255.91 60 1253.23 58.9746 1250.88 56.9238C1248.54 54.8242 1247.1 52.1875 1246.56 49.0137L1247 40.957C1247.64 44.5215 1249.08 47.4756 1251.32 49.8193C1253.57 52.1631 1256.11 53.335 1258.94 53.335C1261.43 53.335 1263.55 52.1387 1265.31 49.7461C1267.07 47.3047 1267.95 44.375 1267.95 40.957C1267.95 34.1211 1269.9 28.2861 1273.81 23.4521C1277.71 18.6182 1282.43 16.2012 1287.94 16.2012C1294 16.2012 1298.83 18.2031 1302.45 22.207C1306.11 26.1621 1307.94 31.46 1307.94 38.1006C1307.94 44.4482 1306.5 49.6973 1303.62 53.8477C1300.74 57.9492 1297.1 60 1292.71 60C1289.29 60 1286.36 58.7549 1283.92 56.2646C1281.52 53.7256 1280.33 50.6738 1280.33 47.1094C1280.33 44.082 1281.25 41.5186 1283.11 39.4189C1284.97 37.2705 1287.21 36.1963 1289.85 36.1963C1291.41 36.1963 1292.75 36.7578 1293.88 37.8809C1295 39.0039 1295.56 40.3467 1295.56 41.9092C1295.56 43.4717 1295.1 44.8145 1294.17 45.9375C1293.24 47.0605 1292.12 47.6221 1290.8 47.6221C1289.92 47.6221 1289.09 47.4023 1288.31 46.9629C1287.58 46.5234 1286.99 45.9375 1286.55 45.2051C1286.41 45.498 1286.28 45.791 1286.19 46.084C1286.09 46.3281 1286.04 46.5234 1286.04 46.6699C1286.04 48.7695 1286.67 50.5762 1287.94 52.0898C1289.26 53.5547 1290.85 54.2871 1292.71 54.2871C1295.29 54.2871 1297.37 52.7979 1298.93 49.8193C1300.49 46.8408 1301.27 42.8613 1301.27 37.8809ZM1376.79 35.2441C1376.79 29.1895 1375.74 23.9404 1373.64 19.4971C1371.54 15.0537 1368.78 12.1973 1365.36 10.9277C1366.14 13.8086 1365.39 16.4453 1363.09 18.8379C1360.84 21.1816 1357.96 22.3535 1354.45 22.3535C1351.67 22.3535 1349.3 21.377 1347.34 19.4238C1345.39 17.4707 1344.41 15.127 1344.41 12.3926C1344.41 9.75586 1345.61 7.50977 1348 5.6543C1350.44 3.79883 1353.37 2.87109 1356.79 2.87109C1364.85 2.87109 1371.29 5.8252 1376.13 11.7334C1381.01 17.5928 1383.45 25.4297 1383.45 35.2441C1383.45 42.0801 1382.01 47.915 1379.13 52.749C1376.25 57.583 1372.78 60 1368.73 60C1366 60 1363.51 58.6572 1361.26 55.9717C1359.01 53.2861 1357.52 49.8682 1356.79 45.7178C1356.3 42.9834 1355.38 40.7129 1354.01 38.9062C1352.69 37.0996 1351.25 36.1963 1349.69 36.1963C1348.37 36.1963 1347.25 36.9531 1346.32 38.4668C1345.39 39.9316 1344.93 41.7139 1344.93 43.8135C1344.93 47.5244 1345.59 50.8936 1346.9 53.9209C1348.27 56.9482 1350.15 59.292 1352.54 60.9521L1347.27 64.7607C1344.44 62.3682 1342.22 59.3408 1340.61 55.6787C1339.04 52.0166 1338.26 48.0615 1338.26 43.8135C1338.26 39.8584 1339.36 36.4893 1341.56 33.7061C1343.8 30.9229 1346.51 29.5312 1349.69 29.5312C1352.86 29.5312 1355.74 31.0693 1358.33 34.1455C1360.92 37.1729 1362.63 41.0303 1363.46 45.7178C1363.85 47.915 1364.53 49.7461 1365.51 51.2109C1366.53 52.627 1367.61 53.335 1368.73 53.335C1370.98 53.335 1372.88 51.5771 1374.44 48.0615C1376.01 44.4971 1376.79 40.2246 1376.79 35.2441ZM1350.64 12.832C1350.64 13.7598 1351.03 14.5654 1351.81 15.249C1352.59 15.8838 1353.52 16.2012 1354.59 16.2012C1355.72 16.2012 1356.67 15.8838 1357.45 15.249C1358.28 14.5654 1358.7 13.7598 1358.7 12.832C1358.7 11.9043 1358.28 11.123 1357.45 10.4883C1356.67 9.85352 1355.72 9.53613 1354.59 9.53613C1353.52 9.53613 1352.59 9.85352 1351.81 10.4883C1351.03 11.123 1350.64 11.9043 1350.64 12.832ZM1404.03 25.7227C1404.03 26.7969 1404.4 27.7002 1405.13 28.4326C1405.86 29.165 1406.77 29.5312 1407.84 29.5312C1408.92 29.5312 1409.82 29.165 1410.55 28.4326C1411.28 27.7002 1411.65 26.7969 1411.65 25.7227C1411.65 24.6484 1411.28 23.7451 1410.55 23.0127C1409.82 22.2803 1408.92 21.9141 1407.84 21.9141C1406.77 21.9141 1405.86 22.2803 1405.13 23.0127C1404.4 23.7451 1404.03 24.6484 1404.03 25.7227ZM1388.8 35.2441C1388.8 29.9707 1390.56 25.4785 1394.07 21.7676C1397.64 18.0566 1401.91 16.2012 1406.89 16.2012C1409.77 16.2012 1412.24 17.1289 1414.29 18.9844C1416.34 20.8398 1417.36 23.0859 1417.36 25.7227C1417.36 28.3594 1416.44 30.6055 1414.58 32.4609C1412.72 34.3164 1410.48 35.2441 1407.84 35.2441C1405.21 35.2441 1402.96 34.3164 1401.1 32.4609C1399.25 30.6055 1398.32 28.3594 1398.32 25.7227C1397.39 26.8457 1396.68 28.2373 1396.2 29.8975C1395.71 31.5088 1395.46 33.291 1395.46 35.2441C1395.46 40.0781 1397.17 44.7412 1400.59 49.2334C1404.06 53.7256 1408.7 57.3145 1414.51 60H1404.03C1399.3 57.2656 1395.56 53.7012 1392.83 49.3066C1390.14 44.8633 1388.8 40.1758 1388.8 35.2441ZM1453.76 43.8135C1453.76 46.4502 1454.59 48.6963 1456.25 50.5518C1457.96 52.4072 1459.99 53.335 1462.33 53.335C1464.68 53.335 1466.68 52.4072 1468.34 50.5518C1470.05 48.6963 1470.9 46.4502 1470.9 43.8135C1470.9 41.1768 1470.05 38.9307 1468.34 37.0752C1466.68 35.2197 1464.68 34.292 1462.33 34.292C1459.99 34.292 1457.96 35.2197 1456.25 37.0752C1454.59 38.9307 1453.76 41.1768 1453.76 43.8135ZM1443.29 29.0186H1459.48V22.8662H1443.29V17.1533H1472.81C1473.98 17.1533 1474.98 16.7871 1475.81 16.0547C1476.64 15.3223 1477.06 14.4189 1477.06 13.3447C1477.06 12.5146 1476.67 11.6602 1475.88 10.7812C1475.15 9.90234 1474.13 9.16992 1472.81 8.58398L1476.62 3.82324C1478.52 4.94629 1480.01 6.3623 1481.08 8.07129C1482.21 9.73145 1482.77 11.4893 1482.77 13.3447C1482.77 15.9814 1481.84 18.2275 1479.99 20.083C1478.13 21.9385 1475.88 22.8662 1473.25 22.8662H1465.19V29.0186H1481.38V34.292H1473.25C1474.61 35.4639 1475.66 36.8799 1476.4 38.54C1477.18 40.2002 1477.57 41.958 1477.57 43.8135C1477.57 48.3057 1476.08 52.1387 1473.1 55.3125C1470.12 58.4375 1466.53 60 1462.33 60C1458.13 60 1454.55 58.4619 1451.57 55.3857C1448.59 52.3096 1447.1 48.5986 1447.1 44.2529C1447.1 42.2021 1447.47 40.3223 1448.2 38.6133C1448.93 36.8555 1449.98 35.415 1451.35 34.292H1443.29V29.0186ZM1523.34 40.957C1523.34 35.9766 1521.56 31.7285 1518 28.2129C1514.48 24.6484 1510.23 22.8662 1505.25 22.8662H1485.77V17.1533H1518.14C1519.46 17.1533 1520.59 16.6895 1521.51 15.7617C1522.44 14.834 1522.91 13.7109 1522.91 12.3926C1522.91 11.2695 1522.56 10.1465 1521.88 9.02344C1521.25 7.85156 1520.32 6.75293 1519.1 5.72754L1522.91 1.91895C1524.71 3.43262 1526.1 5.11719 1527.08 6.97266C1528.11 8.7793 1528.62 10.5859 1528.62 12.3926C1528.62 15.2734 1527.76 17.7393 1526.05 19.79C1524.39 21.8408 1522.39 22.8662 1520.05 22.8662C1523.12 24.624 1525.54 27.1387 1527.3 30.4102C1529.11 33.6328 1530.01 37.1484 1530.01 40.957C1530.01 46.7188 1528.74 51.333 1526.2 54.7998C1523.71 58.2666 1520.39 60 1516.24 60C1513.51 60 1511.02 58.6572 1508.77 55.9717C1506.52 53.2861 1505.03 49.8682 1504.3 45.7178C1503.81 42.9834 1502.89 40.7129 1501.52 38.9062C1500.2 37.0996 1498.76 36.1963 1497.2 36.1963C1495.88 36.1963 1494.76 36.9531 1493.83 38.4668C1492.9 39.9316 1492.44 41.7139 1492.44 43.8135C1492.44 47.5244 1493.1 50.8936 1494.41 53.9209C1495.78 56.9482 1497.66 59.292 1500.05 60.9521L1494.78 64.7607C1491.95 62.3682 1489.73 59.3408 1488.12 55.6787C1486.55 52.0166 1485.77 48.0615 1485.77 43.8135C1485.77 39.8584 1486.87 36.4893 1489.07 33.7061C1491.31 30.9229 1494.02 29.5312 1497.2 29.5312C1500.37 29.5312 1503.25 31.0693 1505.84 34.1455C1508.43 37.1729 1510.14 41.0303 1510.97 45.7178C1511.36 47.915 1512.04 49.7461 1513.02 51.2109C1514.04 52.627 1515.12 53.335 1516.24 53.335C1518.19 53.335 1519.85 52.1387 1521.22 49.7461C1522.64 47.3047 1523.34 44.375 1523.34 40.957ZM1493.75 84.9473C1493.75 86.0215 1494.32 86.9248 1495.44 87.6572C1496.56 88.3896 1497.91 88.7559 1499.47 88.7559C1500.83 88.7559 1502.18 88.5117 1503.5 88.0234C1504.77 87.5352 1505.96 86.8271 1507.08 85.8994C1505.82 84.3857 1504.52 83.2139 1503.2 82.3838C1501.88 81.5537 1500.64 81.1387 1499.47 81.1387C1497.91 81.1387 1496.56 81.5049 1495.44 82.2373C1494.32 82.9697 1493.75 83.873 1493.75 84.9473ZM1488.04 84.9473C1488.04 82.6035 1489.17 80.5771 1491.41 78.8682C1493.61 77.208 1496.29 76.3779 1499.47 76.3779C1501.27 76.3779 1503.11 76.8662 1504.96 77.8428C1506.77 78.8682 1508.43 80.2842 1509.94 82.0908C1510.09 81.749 1510.28 81.2363 1510.53 80.5527C1510.77 79.918 1510.89 79.4785 1510.89 79.2344C1510.89 77.4277 1510.65 75.6211 1510.16 73.8145C1509.67 72.0566 1508.96 70.3721 1508.04 68.7607L1512.36 66.417C1513.73 68.0283 1514.78 69.9326 1515.51 72.1299C1516.24 74.376 1516.61 76.7441 1516.61 79.2344C1516.61 80.6016 1516.31 81.9688 1515.73 83.3359C1515.19 84.752 1514.38 86.0947 1513.31 87.3643C1513.51 87.6084 1513.82 88.3164 1514.26 89.4883C1514.7 90.6602 1515.17 91.6855 1515.65 92.5645C1516.34 93.7363 1517.02 94.6641 1517.71 95.3477C1518.39 96.0312 1518.97 96.373 1519.46 96.373C1520 96.373 1520.51 96.251 1521 96.0068C1521.49 95.7627 1521.93 95.4209 1522.32 94.9814L1525.18 99.2295C1524.44 99.8643 1523.49 100.328 1522.32 100.621C1521.2 100.963 1519.93 101.134 1518.51 101.134C1516.8 101.134 1515.07 100.157 1513.31 98.2041C1511.55 96.2998 1510.11 93.7852 1508.99 90.6602C1507.67 91.5879 1506.21 92.2959 1504.59 92.7842C1502.93 93.2725 1501.23 93.5166 1499.47 93.5166C1496.29 93.5166 1493.61 92.6621 1491.41 90.9531C1489.17 89.293 1488.04 87.291 1488.04 84.9473ZM1561.28 35.2441C1561.28 36.0254 1561.65 36.709 1562.38 37.2949C1563.12 37.832 1564.02 38.1006 1565.09 38.1006C1565.83 38.1006 1566.68 37.8564 1567.66 37.3682C1568.63 36.8799 1569.68 36.1719 1570.81 35.2441C1569.68 34.3164 1568.63 33.6084 1567.66 33.1201C1566.68 32.6318 1565.83 32.3877 1565.09 32.3877C1564.02 32.3877 1563.12 32.6807 1562.38 33.2666C1561.65 33.8037 1561.28 34.4629 1561.28 35.2441ZM1538.43 42.8613C1538.43 45.7422 1539.12 48.208 1540.48 50.2588C1541.9 52.3096 1543.61 53.335 1545.61 53.335C1547.56 53.335 1549.22 52.3096 1550.59 50.2588C1552.01 48.208 1552.71 45.7422 1552.71 42.8613H1558.43C1558.43 45.7422 1559.26 48.208 1560.92 50.2588C1562.63 52.3096 1564.65 53.335 1567 53.335C1568.85 53.335 1570.42 52.6025 1571.68 51.1377C1573 49.624 1573.66 47.8174 1573.66 45.7178C1573.66 44.3506 1573.56 43.1543 1573.37 42.1289C1573.22 41.0547 1573 40.1758 1572.71 39.4922C1571.78 40.2734 1570.66 40.8838 1569.34 41.3232C1568.02 41.7139 1566.61 41.9092 1565.09 41.9092C1562.99 41.9092 1561.19 41.2744 1559.67 40.0049C1558.21 38.6865 1557.48 37.0996 1557.48 35.2441C1557.48 33.3887 1558.21 31.8262 1559.67 30.5566C1561.19 29.2383 1562.99 28.5791 1565.09 28.5791C1566.46 28.5791 1567.78 28.8232 1569.05 29.3115C1570.37 29.7998 1571.59 30.5078 1572.71 31.4355C1572.71 29.0918 1571.03 27.0898 1567.66 25.4297C1564.34 23.7207 1560.31 22.8662 1555.57 22.8662C1550.83 22.8662 1546.78 24.8193 1543.41 28.7256C1540.09 32.6318 1538.43 37.3438 1538.43 42.8613ZM1572.71 22.8662C1574.22 24.1357 1575.4 25.6006 1576.23 27.2607C1577.06 28.9209 1577.47 30.6299 1577.47 32.3877C1577.47 32.9248 1577.37 33.4375 1577.18 33.9258C1577.03 34.4141 1576.81 34.8535 1576.52 35.2441C1577.74 36.709 1578.67 38.3447 1579.3 40.1514C1579.99 41.958 1580.33 43.8135 1580.33 45.7178C1580.33 49.6729 1579.01 53.042 1576.37 55.8252C1573.78 58.6084 1570.66 60 1567 60C1564.75 60 1562.58 59.2432 1560.48 57.7295C1558.43 56.167 1556.79 54.0674 1555.57 51.4307C1554.35 54.0674 1552.84 56.167 1551.03 57.7295C1549.22 59.2432 1547.42 60 1545.61 60C1541.8 60 1538.53 58.3398 1535.8 55.0195C1533.11 51.6504 1531.77 47.5977 1531.77 42.8613C1531.77 38.9062 1532.7 35.1709 1534.55 31.6553C1536.41 28.0908 1538.97 25.1611 1542.24 22.8662H1531.77V17.1533H1573.66C1574.98 17.1533 1576.1 16.6895 1577.03 15.7617C1577.96 14.834 1578.42 13.7109 1578.42 12.3926C1578.42 11.2695 1578.08 10.1465 1577.4 9.02344C1576.76 7.85156 1575.83 6.75293 1574.61 5.72754L1578.42 1.91895C1580.23 3.43262 1581.62 5.11719 1582.6 6.97266C1583.62 8.7793 1584.14 10.5859 1584.14 12.3926C1584.14 15.2734 1583.01 17.7393 1580.77 19.79C1578.57 21.8408 1575.88 22.8662 1572.71 22.8662ZM1624.64 53.335C1626.49 53.335 1628.06 52.3096 1629.33 50.2588C1630.64 48.208 1631.3 45.7422 1631.3 42.8613C1631.3 37.3438 1628.59 32.6318 1623.17 28.7256C1617.8 24.8193 1611.31 22.8662 1603.69 22.8662H1589.41V17.1533H1648.81C1655.89 17.1533 1661.94 19.3994 1666.97 23.8916C1672 28.335 1674.52 33.7061 1674.52 40.0049C1674.52 45.5225 1672.78 50.2344 1669.32 54.1406C1665.9 58.0469 1661.77 60 1656.94 60C1653.13 60 1649.86 58.8037 1647.12 56.4111C1644.44 53.9697 1643.1 51.04 1643.1 47.6221C1643.1 44.2041 1644.29 41.2988 1646.68 38.9062C1649.13 36.4648 1652.06 35.2441 1655.47 35.2441C1657.33 35.2441 1658.89 35.8545 1660.16 37.0752C1661.48 38.2471 1662.14 39.6875 1662.14 41.3965C1662.14 42.8613 1661.67 44.1064 1660.75 45.1318C1659.82 46.1572 1658.7 46.6699 1657.38 46.6699C1656.06 46.6699 1654.94 46.2061 1654.01 45.2783C1653.08 44.3506 1652.62 43.2275 1652.62 41.9092C1651.3 42.3975 1650.27 43.1787 1649.54 44.2529C1648.86 45.3271 1648.61 46.4502 1648.81 47.6221C1648.81 49.4775 1649.59 51.0645 1651.15 52.3828C1652.76 53.6523 1654.69 54.2871 1656.94 54.2871C1659.97 54.2871 1662.53 52.8955 1664.63 50.1123C1666.78 47.3291 1667.85 43.96 1667.85 40.0049C1667.85 35.2686 1666 31.2402 1662.29 27.9199C1658.57 24.5508 1654.08 22.8662 1648.81 22.8662H1623.25C1627.45 24.8193 1630.79 27.5537 1633.28 31.0693C1635.77 34.585 1637.02 38.3447 1637.02 42.3486C1637.02 47.2314 1635.8 51.4062 1633.35 54.873C1630.96 58.291 1628.06 60 1624.64 60C1621.95 60 1619.54 59.2188 1617.39 57.6562C1615.29 56.0449 1613.9 53.9697 1613.21 51.4307C1612.53 53.9697 1611.11 56.0449 1608.96 57.6562C1606.87 59.2188 1604.47 60 1601.79 60C1598.37 60 1595.44 58.8525 1593 56.5576C1590.61 54.2139 1589.41 51.3818 1589.41 48.0615C1589.41 45.0342 1590.34 42.4707 1592.19 40.3711C1594.05 38.2227 1596.29 37.1484 1598.93 37.1484C1601.03 37.1484 1602.81 38.0029 1604.28 39.7119C1605.79 41.3721 1606.55 43.374 1606.55 45.7178H1601.79C1601.79 44.9365 1601.49 44.2773 1600.91 43.7402C1600.37 43.1543 1599.71 42.8613 1598.93 42.8613C1598.15 42.8613 1597.47 43.3252 1596.88 44.2529C1596.34 45.1807 1596.07 46.3037 1596.07 47.6221C1596.07 49.1846 1596.64 50.5273 1597.76 51.6504C1598.88 52.7734 1600.22 53.335 1601.79 53.335C1604.13 53.335 1606.13 52.3096 1607.79 50.2588C1609.5 48.208 1610.36 45.7422 1610.36 42.8613H1616.07C1616.07 45.7422 1616.9 48.208 1618.56 50.2588C1620.27 52.3096 1622.29 53.335 1624.64 53.335ZM1681.91 60V45.7178C1681.91 40.4443 1682.65 35.7324 1684.11 31.582C1685.62 27.4316 1687.75 24.209 1690.48 21.9141C1687.94 21.2305 1685.87 20.1074 1684.26 18.5449C1682.7 16.9336 1681.91 15.2002 1681.91 13.3447C1681.91 10.4639 1683.11 7.99805 1685.5 5.94727C1687.94 3.89648 1690.87 2.87109 1694.29 2.87109C1701.37 2.87109 1707.43 6.14258 1712.46 12.6855C1717.49 19.1797 1720 27.0166 1720 36.1963V45.7178V60H1713.33V45.7178C1713.33 39.4189 1712.11 34.0479 1709.67 29.6045C1707.28 25.1123 1704.38 22.8662 1700.96 22.8662C1697.54 22.8662 1694.61 25.1123 1692.17 29.6045C1689.78 34.0479 1688.58 39.4189 1688.58 45.7178V60H1681.91ZM1688.58 13.3447C1688.58 14.4189 1689.78 15.3223 1692.17 16.0547C1694.61 16.7871 1697.54 17.1533 1700.96 17.1533C1702.86 17.1533 1704.84 17.7881 1706.89 19.0576C1708.99 20.2783 1710.99 22.0117 1712.9 24.2578C1711.67 19.6191 1709.33 15.8594 1705.86 12.9785C1702.4 10.0488 1698.54 8.58398 1694.29 8.58398C1692.73 8.58398 1691.39 9.04785 1690.26 9.97559C1689.14 10.9033 1688.58 12.0264 1688.58 13.3447ZM1726.45 38.1006C1726.45 42.2998 1727.84 45.8887 1730.62 48.8672C1733.4 51.8457 1736.77 53.335 1740.73 53.335C1744.68 53.335 1748.05 51.8457 1750.83 48.8672C1753.62 45.8887 1755.01 42.2998 1755.01 38.1006C1755.01 33.9014 1753.62 30.3125 1750.83 27.334C1748.05 24.3555 1744.68 22.8662 1740.73 22.8662C1736.77 22.8662 1733.4 24.3555 1730.62 27.334C1727.84 30.3125 1726.45 33.9014 1726.45 38.1006ZM1726.88 22.8662H1719.78V17.1533H1754.06C1755.38 17.1533 1756.5 16.6895 1757.43 15.7617C1758.35 14.834 1758.82 13.7109 1758.82 12.3926C1758.82 11.1719 1758.53 9.97559 1757.94 8.80371C1757.35 7.63184 1756.52 6.60645 1755.45 5.72754L1758.82 1.91895C1760.58 2.94434 1761.97 4.40918 1762.99 6.31348C1764.02 8.16895 1764.53 10.1953 1764.53 12.3926C1764.53 15.2734 1763.55 17.7393 1761.6 19.79C1759.65 21.8408 1757.28 22.8662 1754.5 22.8662C1756.79 24.7705 1758.55 27.0654 1759.77 29.751C1761.04 32.3877 1761.67 35.1709 1761.67 38.1006C1761.67 44.1553 1759.62 49.3311 1755.52 53.6279C1751.42 57.876 1746.49 60 1740.73 60C1734.97 60 1730.03 57.876 1725.93 53.6279C1721.83 49.3311 1719.78 44.1553 1719.78 38.1006C1719.78 35.1709 1720.39 32.3877 1721.61 29.751C1722.88 27.0654 1724.64 24.7705 1726.88 22.8662ZM1780.06 22.8662L1780.57 17.1533C1785.94 17.1533 1790.53 19.2529 1794.34 23.4521C1798.15 27.6025 1800.05 32.6318 1800.05 38.54C1800.05 44.4482 1798.1 49.502 1794.19 53.7012C1790.29 57.9004 1785.58 60 1780.06 60C1776.2 60 1772.78 58.7549 1769.8 56.2646C1766.88 53.7256 1765.07 50.5273 1764.38 46.6699V36.1963C1765.31 41.4209 1767.24 45.7422 1770.17 49.1602C1773.15 52.5781 1776.45 54.2871 1780.06 54.2871C1783.72 54.2871 1786.85 52.749 1789.43 49.6729C1792.07 46.5967 1793.39 42.8857 1793.39 38.54C1793.39 34.1943 1792.07 30.5078 1789.43 27.4805C1786.85 24.4043 1783.72 22.8662 1780.06 22.8662ZM1805.47 60V52.6758H1811.33V60H1805.47Z" fill="black"/>
</svg>
