<svg width="2076" height="88" viewBox="0 0 2076 88" fill="none" xmlns="http://www.w3.org/2000/svg">
<path d="M52.875 41.575C52.875 44.175 52.45 46.475 51.6 48.475C50.8 50.425 49.675 52.075 48.225 53.425C46.775 54.775 45.025 55.8 42.975 56.5C40.975 57.2 38.75 57.575 36.3 57.625C31.95 57.625 28.6 56.075 26.25 52.975C24.8 54.625 23.2 55.825 21.45 56.575C19.7 57.275 17.7 57.625 15.45 57.625C13.35 57.625 11.4 57.35 9.6 56.8C7.8 56.2 6.225 55.35 4.875 54.25C3.575 53.15 2.55 51.85 1.8 50.35C1.1 48.8 0.75 47.075 0.75 45.175C0.75 41.825 1.725 39.225 3.675 37.375C5.625 35.475 8.1 34.525 11.1 34.525C13.05 34.525 14.75 35.1 16.2 36.25C17.7 37.35 18.45 38.85 18.45 40.75C18.45 42.3 17.875 43.65 16.725 44.8C15.575 45.9 14.225 46.45 12.675 46.45C12.275 46.45 11.95 46.45 11.7 46.45C11.45 46.4 11.1 46.325 10.65 46.225C10.9 47.275 11.35 48.2 12 49C12.7 49.75 13.7 50.125 15 50.125C16.7 50.125 18.175 49.625 19.425 48.625C20.725 47.575 21.375 46.075 21.375 44.125C21.375 43.575 21.35 43.15 21.3 42.85C21.3 42.5 21.2 42.075 21 41.575H31.125C30.975 42.025 30.875 42.425 30.825 42.775C30.825 43.075 30.825 43.425 30.825 43.825C30.825 45.825 31.325 47.25 32.325 48.1C33.325 48.95 34.6 49.375 36.15 49.375C38.45 49.375 40.225 48.6 41.475 47.05C42.725 45.45 43.55 43.35 43.95 40.75C43.95 35.8 42.3 32.125 39 29.725C35.7 27.325 30.45 26.125 23.25 26.125C21.35 26.125 19.325 26.2 17.175 26.35L20.175 18.85C22.275 18.7 24.25 18.625 26.1 18.625C35 18.625 41.675 20.475 46.125 24.175C50.625 27.825 52.875 33.625 52.875 41.575ZM110.07 35.95C110.07 40.05 109.32 43.5 107.82 46.3C106.37 49.05 104.445 51.275 102.045 52.975C99.6445 54.625 96.9195 55.825 93.8695 56.575C90.8195 57.275 87.6945 57.625 84.4945 57.625C80.4445 57.625 76.9695 57.05 74.0695 55.9C71.1695 54.75 68.7695 53.225 66.8695 51.325C65.0195 49.425 63.6445 47.225 62.7445 44.725C61.8445 42.225 61.3945 39.65 61.3945 37C61.3945 34.1 61.7695 31.525 62.5195 29.275C63.2695 26.975 64.3195 25.05 65.6695 23.5C67.0695 21.95 68.7195 20.775 70.6195 19.975C72.5695 19.125 74.7195 18.7 77.0695 18.7C80.8195 18.7 83.7195 19.6 85.7695 21.4C87.8695 23.15 88.9195 25.6 88.9195 28.75C88.9195 30.65 88.6195 32.375 88.0195 33.925C87.4195 35.425 86.5695 36.7 85.4695 37.75C84.4195 38.8 83.1695 39.625 81.7195 40.225C80.3195 40.775 78.7945 41.05 77.1445 41.05C75.5445 41.05 74.3195 40.85 73.4695 40.45C72.6695 40.05 71.7695 39.375 70.7695 38.425C70.7695 40.275 71.1695 41.85 71.9695 43.15C72.8195 44.45 73.8945 45.525 75.1945 46.375C76.5445 47.225 78.0695 47.85 79.7695 48.25C81.4695 48.65 83.1945 48.85 84.9445 48.85C86.8945 48.85 88.7945 48.675 90.6445 48.325C92.5445 47.925 94.1945 47.225 95.5945 46.225C97.0445 45.225 98.1945 43.9 99.0445 42.25C99.9445 40.55 100.395 38.375 100.395 35.725C100.395 34.625 100.245 33.55 99.9445 32.5C99.6945 31.45 99.2445 30.525 98.5945 29.725C97.9945 28.925 97.1945 28.275 96.1945 27.775C95.2445 27.275 94.0945 27.025 92.7445 27.025C92.2945 27.025 91.9695 27.075 91.7695 27.175C91.5695 27.275 91.2195 27.475 90.7195 27.775V18.625H97.9945L106.695 24.625C107.745 25.725 108.57 27.225 109.17 29.125C109.77 30.975 110.07 33.25 110.07 35.95ZM78.9445 30.25C78.9445 29.35 78.7445 28.625 78.3445 28.075C77.9945 27.525 77.4945 27.25 76.8445 27.25C75.9945 27.25 75.2195 27.5 74.5195 28C73.8695 28.5 73.5445 29.25 73.5445 30.25C73.5445 31 73.7695 31.6 74.2195 32.05C74.7195 32.45 75.3195 32.65 76.0195 32.65C76.6195 32.65 77.2445 32.45 77.8945 32.05C78.5945 31.6 78.9445 31 78.9445 30.25ZM145.457 37.6C145.457 40.55 145.007 43.25 144.107 45.7C143.257 48.1 142.032 50.175 140.432 51.925C138.882 53.675 137.032 55.05 134.882 56.05C132.732 57 130.407 57.475 127.907 57.475C126.007 57.475 124.207 57.225 122.507 56.725C120.857 56.175 119.382 55.35 118.082 54.25C116.832 53.1 115.832 51.675 115.082 49.975C114.382 48.275 114.032 46.225 114.032 43.825C114.032 42.175 114.232 40.55 114.632 38.95C115.082 37.35 115.757 35.925 116.657 34.675C117.557 33.425 118.707 32.425 120.107 31.675C121.507 30.925 123.182 30.55 125.132 30.55C126.032 30.55 126.907 30.675 127.757 30.925C128.607 31.125 129.357 31.475 130.007 31.975C130.707 32.475 131.257 33.15 131.657 34C132.107 34.85 132.332 35.9 132.332 37.15C132.332 38.05 132.132 38.925 131.732 39.775C131.382 40.575 130.907 41.3 130.307 41.95C129.707 42.55 128.982 43.05 128.132 43.45C127.332 43.8 126.482 43.975 125.582 43.975C125.232 43.975 124.932 43.95 124.682 43.9C124.432 43.85 124.182 43.775 123.932 43.675C123.832 43.975 123.782 44.225 123.782 44.425C123.782 44.575 123.782 44.775 123.782 45.025C123.782 46.325 124.282 47.375 125.282 48.175C126.282 48.925 127.407 49.3 128.657 49.3C130.157 49.3 131.382 48.95 132.332 48.25C133.332 47.55 134.107 46.675 134.657 45.625C135.257 44.525 135.657 43.3 135.857 41.95C136.107 40.6 136.232 39.25 136.232 37.9C136.232 34.2 135.257 31.475 133.307 29.725C131.357 27.925 128.807 27.025 125.657 27.025H95.5066V18.625H125.132C129.182 18.625 132.507 19.2 135.107 20.35C137.757 21.5 139.832 23 141.332 24.85C142.882 26.65 143.957 28.675 144.557 30.925C145.157 33.175 145.457 35.4 145.457 37.6ZM164.806 72.1C164.806 73.35 164.581 74.5 164.131 75.55C163.681 76.65 163.056 77.6 162.256 78.4C161.456 79.2 160.506 79.85 159.406 80.35C158.356 80.85 157.206 81.15 155.956 81.25L154.756 76.375C154.956 76.425 155.231 76.45 155.581 76.45C156.981 76.45 158.006 76.075 158.656 75.325C159.356 74.575 159.706 73.625 159.706 72.475C159.706 71.425 159.406 70.525 158.806 69.775C158.256 69.025 157.381 68.65 156.181 68.65C154.581 68.65 153.406 69.05 152.656 69.85C151.956 70.7 151.606 71.775 151.606 73.075H145.606C145.606 72.075 145.306 71.125 144.706 70.225C144.056 69.375 142.981 68.95 141.481 68.95C140.381 68.95 139.506 69.25 138.856 69.85C138.206 70.45 137.881 71.225 137.881 72.175C137.881 73.275 138.206 74.175 138.856 74.875C139.506 75.625 140.381 76.2 141.481 76.6L139.081 80.875C136.931 80.225 135.231 79.225 133.981 77.875C132.731 76.575 132.106 74.85 132.106 72.7C132.106 70.15 132.956 68.05 134.656 66.4C136.306 64.8 138.706 64 141.856 64C143.356 64 144.756 64.3 146.056 64.9C147.356 65.5 148.281 66.325 148.831 67.375C149.431 66.325 150.381 65.5 151.681 64.9C153.031 64.3 154.456 64 155.956 64C157.206 64 158.381 64.2 159.481 64.6C160.581 65 161.506 65.55 162.256 66.25C163.056 67 163.681 67.875 164.131 68.875C164.581 69.875 164.806 70.95 164.806 72.1ZM210.634 14.275C210.634 16.075 210.409 17.65 209.959 19C209.559 20.3 209.009 21.425 208.309 22.375C207.609 23.275 206.809 24.025 205.909 24.625C205.059 25.225 204.159 25.7 203.209 26.05C203.909 26.5 204.584 27.175 205.234 28.075C205.934 28.925 206.534 29.95 207.034 31.15C207.584 32.35 208.009 33.675 208.309 35.125C208.659 36.525 208.834 37.975 208.834 39.475C208.834 42.025 208.484 44.4 207.784 46.6C207.084 48.75 206.084 50.625 204.784 52.225C203.484 53.775 201.909 55 200.059 55.9C198.259 56.8 196.234 57.25 193.984 57.25C191.734 57.25 189.759 56.925 188.059 56.275C186.409 55.575 185.084 54.325 184.084 52.525C182.884 54.325 181.309 55.625 179.359 56.425C177.459 57.225 175.284 57.625 172.834 57.625C170.334 57.625 168.084 57.225 166.084 56.425C164.134 55.625 162.459 54.525 161.059 53.125C159.709 51.675 158.659 49.975 157.909 48.025C157.209 46.075 156.859 43.975 156.859 41.725C156.859 38.625 157.309 35.95 158.209 33.7C159.109 31.45 160.634 29.225 162.784 27.025H160.084C159.184 27.025 158.309 27.075 157.459 27.175C156.609 27.275 155.984 27.475 155.584 27.775V18.1C155.984 18.3 156.284 18.45 156.484 18.55C156.684 18.6 157.009 18.625 157.459 18.625L197.734 18.7C198.984 18.7 199.909 18.375 200.509 17.725C201.109 17.025 201.409 15.775 201.409 13.975C201.409 13.075 201.234 12.15 200.884 11.2C200.534 10.2 199.909 9.425 199.009 8.875L206.809 4.3C208.009 5.1 208.934 6.45 209.584 8.35C210.284 10.2 210.634 12.175 210.634 14.275ZM199.384 40C199.384 38.55 199.184 37.075 198.784 35.575C198.384 34.025 197.609 32.625 196.459 31.375C195.359 30.075 193.809 29.025 191.809 28.225C189.859 27.425 187.334 27.025 184.234 27.025C183.584 27.025 182.809 27.075 181.909 27.175C181.009 27.225 180.059 27.325 179.059 27.475C178.109 27.625 177.159 27.825 176.209 28.075C175.309 28.275 174.509 28.525 173.809 28.825C171.659 29.975 169.959 31.575 168.709 33.625C167.509 35.625 166.909 37.9 166.909 40.45C166.909 43.15 167.409 45.125 168.409 46.375C169.459 47.575 170.834 48.175 172.534 48.175C173.334 48.175 174.084 48.1 174.784 47.95C175.534 47.8 176.159 47.525 176.659 47.125C177.209 46.675 177.634 46.1 177.934 45.4C178.284 44.7 178.459 43.8 178.459 42.7C178.459 42.15 178.434 41.725 178.384 41.425C178.384 41.125 178.209 40.725 177.859 40.225H188.884C188.734 41.125 188.659 41.875 188.659 42.475C188.659 43.625 188.784 44.55 189.034 45.25C189.284 45.95 189.609 46.5 190.009 46.9C190.459 47.3 190.984 47.575 191.584 47.725C192.184 47.825 192.859 47.875 193.609 47.875C194.709 47.875 195.634 47.675 196.384 47.275C197.134 46.825 197.734 46.25 198.184 45.55C198.634 44.85 198.934 44.025 199.084 43.075C199.284 42.075 199.384 41.05 199.384 40ZM270.183 14.2C270.183 15.85 270.008 17.3 269.658 18.55C269.308 19.75 268.833 20.825 268.233 21.775C267.633 22.675 266.933 23.45 266.133 24.1C265.333 24.7 264.508 25.2 263.658 25.6C265.408 27.15 266.658 28.775 267.408 30.475C268.158 32.175 268.533 34.35 268.533 37C268.533 43.55 266.408 48.625 262.158 52.225C257.958 55.825 251.908 57.625 244.008 57.625C240.558 57.625 237.408 57.175 234.558 56.275C231.758 55.375 229.333 54.1 227.283 52.45C225.283 50.8 223.733 48.825 222.633 46.525C221.533 44.175 220.983 41.575 220.983 38.725C220.983 37.575 221.083 36.425 221.283 35.275C221.533 34.075 221.858 32.95 222.258 31.9C222.708 30.8 223.208 29.825 223.758 28.975C224.358 28.075 225.008 27.35 225.708 26.8H222.558C221.608 26.8 220.708 26.85 219.858 26.95C219.058 27.05 218.483 27.325 218.133 27.775V18.1C218.483 18.3 218.758 18.45 218.958 18.55C219.208 18.6 219.558 18.625 220.008 18.625H257.283C258.533 18.625 259.458 18.3 260.058 17.65C260.658 16.95 260.958 15.7 260.958 13.9C260.958 13 260.783 12.075 260.433 11.125C260.083 10.125 259.458 9.35 258.558 8.8L266.358 4.225C267.558 5.025 268.483 6.375 269.133 8.275C269.833 10.125 270.183 12.1 270.183 14.2ZM258.933 37.6C258.933 35.6 258.583 33.925 257.883 32.575C257.233 31.175 256.333 30.05 255.183 29.2C254.033 28.35 252.683 27.75 251.133 27.4C249.583 27 247.933 26.8 246.183 26.8C236.283 26.8 231.333 30.55 231.333 38.05C231.333 39.5 231.633 40.875 232.233 42.175C232.883 43.475 233.783 44.6 234.933 45.55C236.133 46.5 237.558 47.25 239.208 47.8C240.908 48.35 242.783 48.625 244.833 48.625C247.233 48.625 249.308 48.325 251.058 47.725C252.858 47.075 254.333 46.25 255.483 45.25C256.683 44.2 257.558 43.025 258.108 41.725C258.658 40.375 258.933 39 258.933 37.6ZM325.004 40.9C325.004 43.75 324.529 46.225 323.579 48.325C322.679 50.375 321.479 52.1 319.979 53.5C318.479 54.9 316.804 55.95 314.954 56.65C313.104 57.3 311.254 57.625 309.404 57.625C307.154 57.625 305.154 57.225 303.404 56.425C301.654 55.625 300.179 54.55 298.979 53.2C297.779 51.85 296.854 50.325 296.204 48.625C295.604 46.875 295.304 45.075 295.304 43.225C295.304 41.725 295.504 40.225 295.904 38.725C296.304 37.225 296.954 35.875 297.854 34.675C298.754 33.425 299.904 32.425 301.304 31.675C302.704 30.875 304.404 30.475 306.404 30.475C307.454 30.475 308.404 30.7 309.254 31.15C310.154 31.55 310.904 32.075 311.504 32.725C312.154 33.375 312.654 34.125 313.004 34.975C313.354 35.825 313.529 36.65 313.529 37.45C313.529 38.45 313.329 39.325 312.929 40.075C312.529 40.825 312.029 41.45 311.429 41.95C310.829 42.45 310.179 42.825 309.479 43.075C308.829 43.275 308.229 43.375 307.679 43.375C307.229 43.375 306.829 43.325 306.479 43.225C306.179 43.125 305.829 42.875 305.429 42.475C305.379 42.825 305.279 43.175 305.129 43.525C305.029 43.825 304.979 44.175 304.979 44.575C304.979 45.775 305.404 46.775 306.254 47.575C307.104 48.375 308.154 48.775 309.404 48.775C310.254 48.775 311.079 48.575 311.879 48.175C312.729 47.775 313.479 47.2 314.129 46.45C314.779 45.7 315.304 44.8 315.704 43.75C316.104 42.7 316.304 41.525 316.304 40.225C316.304 38.875 316.079 37.425 315.629 35.875C315.229 34.325 314.479 32.875 313.379 31.525C312.329 30.175 310.854 29.05 308.954 28.15C307.054 27.25 304.629 26.8 301.679 26.8C299.729 26.8 297.929 26.9 296.279 27.1C294.629 27.3 293.229 27.65 292.079 28.15C290.929 28.65 290.029 29.325 289.379 30.175C288.729 31.025 288.404 32.075 288.404 33.325C288.404 34.425 288.604 35.325 289.004 36.025C289.404 36.725 289.854 37.45 290.354 38.2C290.854 38.95 291.304 39.85 291.704 40.9C292.104 41.9 292.304 43.275 292.304 45.025C292.304 48.775 291.054 51.8 288.554 54.1C286.054 56.35 282.354 57.475 277.454 57.475C271.454 57.125 266.654 55.1 263.054 51.4L265.304 41.275C269.804 46.225 273.904 48.7 277.604 48.7C279.004 48.7 280.304 48.35 281.504 47.65C282.704 46.9 283.304 45.85 283.304 44.5C283.304 43.1 283.054 42.025 282.554 41.275C282.054 40.525 281.479 39.775 280.829 39.025C280.229 38.275 279.679 37.4 279.179 36.4C278.679 35.4 278.429 33.975 278.429 32.125C278.429 29.225 279.179 26.9 280.679 25.15C282.179 23.4 284.029 22.05 286.229 21.1C288.479 20.1 290.879 19.45 293.429 19.15C296.029 18.8 298.429 18.625 300.629 18.625C304.929 18.625 308.604 19.15 311.654 20.2C314.754 21.25 317.279 22.75 319.229 24.7C321.229 26.65 322.679 29 323.579 31.75C324.529 34.5 325.004 37.55 325.004 40.9ZM417.652 54.55C417.652 55.5 417.602 56.325 417.502 57.025C417.402 57.675 417.227 58.45 416.977 59.35H408.277C408.827 58.5 409.177 57.575 409.327 56.575C409.527 55.575 409.627 54.425 409.627 53.125C409.627 52.475 409.577 51.9 409.477 51.4C409.427 50.85 409.277 50.275 409.027 49.675C406.777 52.475 403.802 54.475 400.102 55.675C396.452 56.875 392.452 57.475 388.102 57.475C385.702 57.475 383.427 57.275 381.277 56.875C379.127 56.475 377.252 55.825 375.652 54.925C374.052 54.025 372.777 52.875 371.827 51.475C370.877 50.075 370.402 48.35 370.402 46.3C370.402 43.8 371.102 41.775 372.502 40.225C373.952 38.675 375.777 37.475 377.977 36.625C380.177 35.725 382.627 35.125 385.327 34.825C388.027 34.525 390.627 34.375 393.127 34.375C395.827 34.375 398.302 34.65 400.552 35.2C402.802 35.75 404.827 36.45 406.627 37.3C406.727 36.8 406.802 36.4 406.852 36.1C406.902 35.8 406.927 35.45 406.927 35.05C406.927 33.9 406.777 32.8 406.477 31.75C406.177 30.65 405.702 29.675 405.052 28.825C404.452 27.975 403.702 27.3 402.802 26.8C401.902 26.3 400.852 26.05 399.652 26.05C397.902 26.05 396.377 26.525 395.077 27.475C393.777 28.375 393.127 29.875 393.127 31.975V32.5H384.652C384.802 32.05 384.877 31.575 384.877 31.075C384.877 29.925 384.477 28.9 383.677 28C382.877 27.1 381.752 26.65 380.302 26.65C378.502 26.65 377.252 27.075 376.552 27.925C375.902 28.725 375.577 29.75 375.577 31C375.577 31.45 375.602 31.825 375.652 32.125C375.752 32.425 375.902 32.775 376.102 33.175L368.677 36.55C368.127 35.4 367.752 34.4 367.552 33.55C367.402 32.7 367.327 31.675 367.327 30.475C367.327 28.775 367.627 27.225 368.227 25.825C368.877 24.375 369.777 23.125 370.927 22.075C372.077 21.025 373.452 20.225 375.052 19.675C376.702 19.075 378.552 18.775 380.602 18.775C382.852 18.775 384.677 19.175 386.077 19.975C387.477 20.775 388.602 21.875 389.452 23.275C389.702 22.625 390.152 22.025 390.802 21.475C391.502 20.875 392.327 20.375 393.277 19.975C394.227 19.575 395.252 19.275 396.352 19.075C397.452 18.825 398.527 18.7 399.577 18.7C402.027 18.7 404.152 19.1 405.952 19.9C407.802 20.7 409.327 21.8 410.527 23.2C411.777 24.6 412.702 26.225 413.302 28.075C413.902 29.875 414.202 31.825 414.202 33.925C414.202 35.325 414.152 36.575 414.052 37.675C414.002 38.725 413.727 39.95 413.227 41.35C414.927 43.5 416.077 45.725 416.677 48.025C417.327 50.275 417.652 52.45 417.652 54.55ZM404.227 44.875C401.977 43.425 399.777 42.525 397.627 42.175C395.477 41.775 393.277 41.575 391.027 41.575C389.727 41.575 388.377 41.65 386.977 41.8C385.577 41.9 384.277 42.15 383.077 42.55C381.877 42.9 380.877 43.425 380.077 44.125C379.327 44.825 378.952 45.725 378.952 46.825C378.952 47.525 379.252 48.1 379.852 48.55C380.502 49 381.277 49.375 382.177 49.675C383.127 49.925 384.152 50.125 385.252 50.275C386.402 50.375 387.502 50.425 388.552 50.425C389.752 50.425 391.077 50.35 392.527 50.2C393.977 50 395.402 49.7 396.802 49.3C398.252 48.85 399.602 48.275 400.852 47.575C402.152 46.875 403.277 45.975 404.227 44.875ZM477.238 14.2C477.238 15.85 477.063 17.3 476.713 18.55C476.363 19.75 475.888 20.825 475.288 21.775C474.688 22.675 473.988 23.45 473.188 24.1C472.388 24.7 471.563 25.2 470.713 25.6C472.463 27.15 473.713 28.775 474.463 30.475C475.213 32.175 475.588 34.35 475.588 37C475.588 43.55 473.463 48.625 469.213 52.225C465.013 55.825 458.963 57.625 451.063 57.625C447.613 57.625 444.463 57.175 441.613 56.275C438.813 55.375 436.388 54.1 434.338 52.45C432.338 50.8 430.788 48.825 429.688 46.525C428.588 44.175 428.038 41.575 428.038 38.725C428.038 37.575 428.138 36.425 428.338 35.275C428.588 34.075 428.913 32.95 429.313 31.9C429.763 30.8 430.263 29.825 430.813 28.975C431.413 28.075 432.063 27.35 432.763 26.8H429.613C428.663 26.8 427.763 26.85 426.913 26.95C426.113 27.05 425.538 27.325 425.188 27.775V18.1C425.538 18.3 425.813 18.45 426.013 18.55C426.263 18.6 426.613 18.625 427.063 18.625H464.338C465.588 18.625 466.513 18.3 467.113 17.65C467.713 16.95 468.013 15.7 468.013 13.9C468.013 13 467.838 12.075 467.488 11.125C467.138 10.125 466.513 9.35 465.613 8.8L473.413 4.225C474.613 5.025 475.538 6.375 476.188 8.275C476.888 10.125 477.238 12.1 477.238 14.2ZM465.988 37.6C465.988 35.6 465.638 33.925 464.938 32.575C464.288 31.175 463.388 30.05 462.238 29.2C461.088 28.35 459.738 27.75 458.188 27.4C456.638 27 454.988 26.8 453.238 26.8C443.338 26.8 438.388 30.55 438.388 38.05C438.388 39.5 438.688 40.875 439.288 42.175C439.938 43.475 440.838 44.6 441.988 45.55C443.188 46.5 444.613 47.25 446.263 47.8C447.963 48.35 449.838 48.625 451.888 48.625C454.288 48.625 456.363 48.325 458.113 47.725C459.913 47.075 461.388 46.25 462.538 45.25C463.738 44.2 464.613 43.025 465.163 41.725C465.713 40.375 465.988 39 465.988 37.6ZM504.084 37.825C503.684 50.375 497.659 56.975 486.009 57.625C479.909 57.625 474.859 55.7 470.859 51.85L472.359 41.8C476.109 46.45 480.459 48.775 485.409 48.775C488.309 48.775 490.509 48.025 492.009 46.525C493.509 45.025 494.359 42.65 494.559 39.4C494.559 32 491.434 28.025 485.184 27.475C484.584 27.475 484.109 27.525 483.759 27.625C483.409 27.725 482.984 27.925 482.484 28.225V18.85C483.034 18.75 483.484 18.7 483.834 18.7C484.234 18.65 484.784 18.625 485.484 18.625C491.834 18.625 496.509 20.225 499.509 23.425C502.559 26.575 504.084 31.375 504.084 37.825ZM598.236 41.575C598.236 44.175 597.811 46.475 596.961 48.475C596.161 50.425 595.036 52.075 593.586 53.425C592.136 54.775 590.386 55.8 588.336 56.5C586.336 57.2 584.111 57.575 581.661 57.625C577.311 57.625 573.961 56.075 571.611 52.975C570.161 54.625 568.561 55.825 566.811 56.575C565.061 57.275 563.061 57.625 560.811 57.625C558.711 57.625 556.761 57.35 554.961 56.8C553.161 56.2 551.586 55.35 550.236 54.25C548.936 53.15 547.911 51.85 547.161 50.35C546.461 48.8 546.111 47.075 546.111 45.175C546.111 41.825 547.086 39.225 549.036 37.375C550.986 35.475 553.461 34.525 556.461 34.525C558.411 34.525 560.111 35.1 561.561 36.25C563.061 37.35 563.811 38.85 563.811 40.75C563.811 42.3 563.236 43.65 562.086 44.8C560.936 45.9 559.586 46.45 558.036 46.45C557.636 46.45 557.311 46.45 557.061 46.45C556.811 46.4 556.461 46.325 556.011 46.225C556.261 47.275 556.711 48.2 557.361 49C558.061 49.75 559.061 50.125 560.361 50.125C562.061 50.125 563.536 49.625 564.786 48.625C566.086 47.575 566.736 46.075 566.736 44.125C566.736 43.575 566.711 43.15 566.661 42.85C566.661 42.5 566.561 42.075 566.361 41.575H576.486C576.336 42.025 576.236 42.425 576.186 42.775C576.186 43.075 576.186 43.425 576.186 43.825C576.186 45.825 576.686 47.25 577.686 48.1C578.686 48.95 579.961 49.375 581.511 49.375C583.811 49.375 585.586 48.6 586.836 47.05C588.086 45.45 588.911 43.35 589.311 40.75C589.311 35.8 587.661 32.125 584.361 29.725C581.061 27.325 575.811 26.125 568.611 26.125C566.711 26.125 564.686 26.2 562.536 26.35L565.536 18.85C567.636 18.7 569.611 18.625 571.461 18.625C580.361 18.625 587.036 20.475 591.486 24.175C595.986 27.825 598.236 33.625 598.236 41.575ZM615.681 38.2C615.681 39.65 615.931 41.05 616.431 42.4C616.981 43.7 617.706 44.85 618.606 45.85C619.506 46.85 620.556 47.65 621.756 48.25C623.006 48.8 624.356 49.075 625.806 49.075C627.206 49.075 628.531 48.8 629.781 48.25C631.031 47.65 632.106 46.85 633.006 45.85C633.956 44.85 634.706 43.7 635.256 42.4C635.806 41.05 636.081 39.65 636.081 38.2C636.081 36.7 635.806 35.275 635.256 33.925C634.706 32.575 633.956 31.4 633.006 30.4C632.106 29.4 631.031 28.625 629.781 28.075C628.531 27.475 627.206 27.175 625.806 27.175C624.356 27.175 623.006 27.475 621.756 28.075C620.556 28.625 619.506 29.4 618.606 30.4C617.706 31.4 616.981 32.575 616.431 33.925C615.931 35.275 615.681 36.7 615.681 38.2ZM606.756 38.275C606.756 35.575 607.256 33.05 608.256 30.7C609.256 28.35 610.631 26.3 612.381 24.55C614.131 22.75 616.156 21.35 618.456 20.35C620.756 19.35 623.231 18.85 625.881 18.85C628.481 18.85 630.931 19.35 633.231 20.35C635.581 21.35 637.631 22.75 639.381 24.55C641.131 26.3 642.506 28.35 643.506 30.7C644.506 33.05 645.006 35.575 645.006 38.275C645.006 40.975 644.506 43.5 643.506 45.85C642.506 48.2 641.131 50.25 639.381 52C637.631 53.75 635.581 55.125 633.231 56.125C630.931 57.125 628.481 57.625 625.881 57.625C623.231 57.625 620.756 57.125 618.456 56.125C616.156 55.125 614.131 53.75 612.381 52C610.631 50.25 609.256 48.2 608.256 45.85C607.256 43.5 606.756 40.975 606.756 38.275ZM698.507 42.775C698.507 44.825 698.032 46.75 697.082 48.55C696.182 50.35 694.807 51.925 692.957 53.275C691.107 54.625 688.807 55.7 686.057 56.5C683.307 57.25 680.132 57.625 676.532 57.625C672.982 57.625 669.732 57.325 666.782 56.725C663.832 56.075 661.307 55.05 659.207 53.65C657.107 52.25 655.457 50.45 654.257 48.25C653.107 46 652.532 43.275 652.532 40.075C652.532 38.925 652.582 37.9 652.682 37C652.832 36.05 653.007 35.175 653.207 34.375L663.557 35.5C663.207 36.25 662.982 36.95 662.882 37.6C662.782 38.25 662.732 38.975 662.732 39.775C662.732 41.275 663.082 42.6 663.782 43.75C664.532 44.85 665.507 45.775 666.707 46.525C667.957 47.225 669.357 47.75 670.907 48.1C672.457 48.45 674.057 48.625 675.707 48.625C676.907 48.625 678.157 48.55 679.457 48.4C680.807 48.25 682.007 48 683.057 47.65C684.157 47.25 685.057 46.75 685.757 46.15C686.507 45.55 686.882 44.825 686.882 43.975C686.882 42.725 686.407 41.85 685.457 41.35C684.557 40.85 683.607 40.6 682.607 40.6H672.857C672.107 40.6 671.482 40.65 670.982 40.75C670.482 40.8 670.082 40.95 669.782 41.2V32.425H682.457C683.207 32.425 683.857 32.2 684.407 31.75C685.007 31.25 685.307 30.6 685.307 29.8C685.307 27.95 683.932 27.025 681.182 27.025H656.882C656.082 27.025 655.507 27.1 655.157 27.25C654.857 27.35 654.557 27.6 654.257 28V18.625H686.207L693.782 25.3C694.132 25.8 694.457 26.375 694.757 27.025C695.107 27.675 695.282 28.4 695.282 29.2C695.282 30.15 695.107 31.05 694.757 31.9C694.457 32.7 694.082 33.475 693.632 34.225C695.132 35.025 696.307 36.175 697.157 37.675C698.057 39.175 698.507 40.875 698.507 42.775ZM733.884 37.6C733.884 40.55 733.434 43.25 732.534 45.7C731.684 48.1 730.459 50.175 728.859 51.925C727.309 53.675 725.459 55.05 723.309 56.05C721.159 57 718.834 57.475 716.334 57.475C714.434 57.475 712.634 57.225 710.934 56.725C709.284 56.175 707.809 55.35 706.509 54.25C705.259 53.1 704.259 51.675 703.509 49.975C702.809 48.275 702.459 46.225 702.459 43.825C702.459 42.175 702.659 40.55 703.059 38.95C703.509 37.35 704.184 35.925 705.084 34.675C705.984 33.425 707.134 32.425 708.534 31.675C709.934 30.925 711.609 30.55 713.559 30.55C714.459 30.55 715.334 30.675 716.184 30.925C717.034 31.125 717.784 31.475 718.434 31.975C719.134 32.475 719.684 33.15 720.084 34C720.534 34.85 720.759 35.9 720.759 37.15C720.759 38.05 720.559 38.925 720.159 39.775C719.809 40.575 719.334 41.3 718.734 41.95C718.134 42.55 717.409 43.05 716.559 43.45C715.759 43.8 714.909 43.975 714.009 43.975C713.659 43.975 713.359 43.95 713.109 43.9C712.859 43.85 712.609 43.775 712.359 43.675C712.259 43.975 712.209 44.225 712.209 44.425C712.209 44.575 712.209 44.775 712.209 45.025C712.209 46.325 712.709 47.375 713.709 48.175C714.709 48.925 715.834 49.3 717.084 49.3C718.584 49.3 719.809 48.95 720.759 48.25C721.759 47.55 722.534 46.675 723.084 45.625C723.684 44.525 724.084 43.3 724.284 41.95C724.534 40.6 724.659 39.25 724.659 37.9C724.659 34.2 723.684 31.475 721.734 29.725C719.784 27.925 717.234 27.025 714.084 27.025H683.934V18.625H713.559C717.609 18.625 720.934 19.2 723.534 20.35C726.184 21.5 728.259 23 729.759 24.85C731.309 26.65 732.384 28.675 732.984 30.925C733.584 33.175 733.884 35.4 733.884 37.6ZM796.059 14.275C796.059 16.075 795.834 17.65 795.384 19C794.984 20.3 794.434 21.425 793.734 22.375C793.034 23.275 792.234 24.025 791.334 24.625C790.484 25.225 789.584 25.7 788.634 26.05C789.334 26.5 790.009 27.175 790.659 28.075C791.359 28.925 791.959 29.95 792.459 31.15C793.009 32.35 793.434 33.675 793.734 35.125C794.084 36.525 794.259 37.975 794.259 39.475C794.259 42.025 793.909 44.4 793.209 46.6C792.509 48.75 791.509 50.625 790.209 52.225C788.909 53.775 787.334 55 785.484 55.9C783.684 56.8 781.659 57.25 779.409 57.25C777.159 57.25 775.184 56.925 773.484 56.275C771.834 55.575 770.509 54.325 769.509 52.525C768.309 54.325 766.734 55.625 764.784 56.425C762.884 57.225 760.709 57.625 758.259 57.625C755.759 57.625 753.509 57.225 751.509 56.425C749.559 55.625 747.884 54.525 746.484 53.125C745.134 51.675 744.084 49.975 743.334 48.025C742.634 46.075 742.284 43.975 742.284 41.725C742.284 38.625 742.734 35.95 743.634 33.7C744.534 31.45 746.059 29.225 748.209 27.025H745.509C744.609 27.025 743.734 27.075 742.884 27.175C742.034 27.275 741.409 27.475 741.009 27.775V18.1C741.409 18.3 741.709 18.45 741.909 18.55C742.109 18.6 742.434 18.625 742.884 18.625L783.159 18.7C784.409 18.7 785.334 18.375 785.934 17.725C786.534 17.025 786.834 15.775 786.834 13.975C786.834 13.075 786.659 12.15 786.309 11.2C785.959 10.2 785.334 9.425 784.434 8.875L792.234 4.3C793.434 5.1 794.359 6.45 795.009 8.35C795.709 10.2 796.059 12.175 796.059 14.275ZM784.809 40C784.809 38.55 784.609 37.075 784.209 35.575C783.809 34.025 783.034 32.625 781.884 31.375C780.784 30.075 779.234 29.025 777.234 28.225C775.284 27.425 772.759 27.025 769.659 27.025C769.009 27.025 768.234 27.075 767.334 27.175C766.434 27.225 765.484 27.325 764.484 27.475C763.534 27.625 762.584 27.825 761.634 28.075C760.734 28.275 759.934 28.525 759.234 28.825C757.084 29.975 755.384 31.575 754.134 33.625C752.934 35.625 752.334 37.9 752.334 40.45C752.334 43.15 752.834 45.125 753.834 46.375C754.884 47.575 756.259 48.175 757.959 48.175C758.759 48.175 759.509 48.1 760.209 47.95C760.959 47.8 761.584 47.525 762.084 47.125C762.634 46.675 763.059 46.1 763.359 45.4C763.709 44.7 763.884 43.8 763.884 42.7C763.884 42.15 763.859 41.725 763.809 41.425C763.809 41.125 763.634 40.725 763.284 40.225H774.309C774.159 41.125 774.084 41.875 774.084 42.475C774.084 43.625 774.209 44.55 774.459 45.25C774.709 45.95 775.034 46.5 775.434 46.9C775.884 47.3 776.409 47.575 777.009 47.725C777.609 47.825 778.284 47.875 779.034 47.875C780.134 47.875 781.059 47.675 781.809 47.275C782.559 46.825 783.159 46.25 783.609 45.55C784.059 44.85 784.359 44.025 784.509 43.075C784.709 42.075 784.809 41.05 784.809 40ZM855.608 14.2C855.608 15.85 855.433 17.3 855.083 18.55C854.733 19.75 854.258 20.825 853.658 21.775C853.058 22.675 852.358 23.45 851.558 24.1C850.758 24.7 849.933 25.2 849.083 25.6C850.833 27.15 852.083 28.775 852.833 30.475C853.583 32.175 853.958 34.35 853.958 37C853.958 43.55 851.833 48.625 847.583 52.225C843.383 55.825 837.333 57.625 829.433 57.625C825.983 57.625 822.833 57.175 819.983 56.275C817.183 55.375 814.758 54.1 812.708 52.45C810.708 50.8 809.158 48.825 808.058 46.525C806.958 44.175 806.408 41.575 806.408 38.725C806.408 37.575 806.508 36.425 806.708 35.275C806.958 34.075 807.283 32.95 807.683 31.9C808.133 30.8 808.633 29.825 809.183 28.975C809.783 28.075 810.433 27.35 811.133 26.8H807.983C807.033 26.8 806.133 26.85 805.283 26.95C804.483 27.05 803.908 27.325 803.558 27.775V18.1C803.908 18.3 804.183 18.45 804.383 18.55C804.633 18.6 804.983 18.625 805.433 18.625H842.708C843.958 18.625 844.883 18.3 845.483 17.65C846.083 16.95 846.383 15.7 846.383 13.9C846.383 13 846.208 12.075 845.858 11.125C845.508 10.125 844.883 9.35 843.983 8.8L851.783 4.225C852.983 5.025 853.908 6.375 854.558 8.275C855.258 10.125 855.608 12.1 855.608 14.2ZM844.358 37.6C844.358 35.6 844.008 33.925 843.308 32.575C842.658 31.175 841.758 30.05 840.608 29.2C839.458 28.35 838.108 27.75 836.558 27.4C835.008 27 833.358 26.8 831.608 26.8C821.708 26.8 816.758 30.55 816.758 38.05C816.758 39.5 817.058 40.875 817.658 42.175C818.308 43.475 819.208 44.6 820.358 45.55C821.558 46.5 822.983 47.25 824.633 47.8C826.333 48.35 828.208 48.625 830.258 48.625C832.658 48.625 834.733 48.325 836.483 47.725C838.283 47.075 839.758 46.25 840.908 45.25C842.108 44.2 842.983 43.025 843.533 41.725C844.083 40.375 844.358 39 844.358 37.6ZM882.454 37.825C882.054 50.375 876.029 56.975 864.379 57.625C858.279 57.625 853.229 55.7 849.229 51.85L850.729 41.8C854.479 46.45 858.829 48.775 863.779 48.775C866.679 48.775 868.879 48.025 870.379 46.525C871.879 45.025 872.729 42.65 872.929 39.4C872.929 32 869.804 28.025 863.554 27.475C862.954 27.475 862.479 27.525 862.129 27.625C861.779 27.725 861.354 27.925 860.854 28.225V18.85C861.404 18.75 861.854 18.7 862.204 18.7C862.604 18.65 863.154 18.625 863.854 18.625C870.204 18.625 874.879 20.225 877.879 23.425C880.929 26.575 882.454 31.375 882.454 37.825ZM974.805 54.55C974.805 55.5 974.755 56.325 974.655 57.025C974.555 57.675 974.38 58.45 974.13 59.35H965.43C965.98 58.5 966.33 57.575 966.48 56.575C966.68 55.575 966.78 54.425 966.78 53.125C966.78 52.475 966.73 51.9 966.63 51.4C966.58 50.85 966.43 50.275 966.18 49.675C963.93 52.475 960.955 54.475 957.255 55.675C953.605 56.875 949.605 57.475 945.255 57.475C942.855 57.475 940.58 57.275 938.43 56.875C936.28 56.475 934.405 55.825 932.805 54.925C931.205 54.025 929.93 52.875 928.98 51.475C928.03 50.075 927.555 48.35 927.555 46.3C927.555 43.8 928.255 41.775 929.655 40.225C931.105 38.675 932.93 37.475 935.13 36.625C937.33 35.725 939.78 35.125 942.48 34.825C945.18 34.525 947.78 34.375 950.28 34.375C952.98 34.375 955.455 34.65 957.705 35.2C959.955 35.75 961.98 36.45 963.78 37.3C963.88 36.8 963.955 36.4 964.005 36.1C964.055 35.8 964.08 35.45 964.08 35.05C964.08 33.9 963.93 32.8 963.63 31.75C963.33 30.65 962.855 29.675 962.205 28.825C961.605 27.975 960.855 27.3 959.955 26.8C959.055 26.3 958.005 26.05 956.805 26.05C955.055 26.05 953.53 26.525 952.23 27.475C950.93 28.375 950.28 29.875 950.28 31.975V32.5H941.805C941.955 32.05 942.03 31.575 942.03 31.075C942.03 29.925 941.63 28.9 940.83 28C940.03 27.1 938.905 26.65 937.455 26.65C935.655 26.65 934.405 27.075 933.705 27.925C933.055 28.725 932.73 29.75 932.73 31C932.73 31.45 932.755 31.825 932.805 32.125C932.905 32.425 933.055 32.775 933.255 33.175L925.83 36.55C925.28 35.4 924.905 34.4 924.705 33.55C924.555 32.7 924.48 31.675 924.48 30.475C924.48 28.775 924.78 27.225 925.38 25.825C926.03 24.375 926.93 23.125 928.08 22.075C929.23 21.025 930.605 20.225 932.205 19.675C933.855 19.075 935.705 18.775 937.755 18.775C940.005 18.775 941.83 19.175 943.23 19.975C944.63 20.775 945.755 21.875 946.605 23.275C946.855 22.625 947.305 22.025 947.955 21.475C948.655 20.875 949.48 20.375 950.43 19.975C951.38 19.575 952.405 19.275 953.505 19.075C954.605 18.825 955.68 18.7 956.73 18.7C959.18 18.7 961.305 19.1 963.105 19.9C964.955 20.7 966.48 21.8 967.68 23.2C968.93 24.6 969.855 26.225 970.455 28.075C971.055 29.875 971.355 31.825 971.355 33.925C971.355 35.325 971.305 36.575 971.205 37.675C971.155 38.725 970.88 39.95 970.38 41.35C972.08 43.5 973.23 45.725 973.83 48.025C974.48 50.275 974.805 52.45 974.805 54.55ZM961.38 44.875C959.13 43.425 956.93 42.525 954.78 42.175C952.63 41.775 950.43 41.575 948.18 41.575C946.88 41.575 945.53 41.65 944.13 41.8C942.73 41.9 941.43 42.15 940.23 42.55C939.03 42.9 938.03 43.425 937.23 44.125C936.48 44.825 936.105 45.725 936.105 46.825C936.105 47.525 936.405 48.1 937.005 48.55C937.655 49 938.43 49.375 939.33 49.675C940.28 49.925 941.305 50.125 942.405 50.275C943.555 50.375 944.655 50.425 945.705 50.425C946.905 50.425 948.23 50.35 949.68 50.2C951.13 50 952.555 49.7 953.955 49.3C955.405 48.85 956.755 48.275 958.005 47.575C959.305 46.875 960.43 45.975 961.38 44.875ZM1034.39 14.2C1034.39 15.85 1034.22 17.3 1033.87 18.55C1033.52 19.75 1033.04 20.825 1032.44 21.775C1031.84 22.675 1031.14 23.45 1030.34 24.1C1029.54 24.7 1028.72 25.2 1027.87 25.6C1029.62 27.15 1030.87 28.775 1031.62 30.475C1032.37 32.175 1032.74 34.35 1032.74 37C1032.74 43.55 1030.62 48.625 1026.37 52.225C1022.17 55.825 1016.12 57.625 1008.22 57.625C1004.77 57.625 1001.62 57.175 998.767 56.275C995.967 55.375 993.542 54.1 991.492 52.45C989.492 50.8 987.942 48.825 986.842 46.525C985.742 44.175 985.192 41.575 985.192 38.725C985.192 37.575 985.292 36.425 985.492 35.275C985.742 34.075 986.067 32.95 986.467 31.9C986.917 30.8 987.417 29.825 987.967 28.975C988.567 28.075 989.217 27.35 989.917 26.8H986.767C985.817 26.8 984.917 26.85 984.067 26.95C983.267 27.05 982.692 27.325 982.342 27.775V18.1C982.692 18.3 982.967 18.45 983.167 18.55C983.417 18.6 983.767 18.625 984.217 18.625H1021.49C1022.74 18.625 1023.67 18.3 1024.27 17.65C1024.87 16.95 1025.17 15.7 1025.17 13.9C1025.17 13 1024.99 12.075 1024.64 11.125C1024.29 10.125 1023.67 9.35 1022.77 8.8L1030.57 4.225C1031.77 5.025 1032.69 6.375 1033.34 8.275C1034.04 10.125 1034.39 12.1 1034.39 14.2ZM1023.14 37.6C1023.14 35.6 1022.79 33.925 1022.09 32.575C1021.44 31.175 1020.54 30.05 1019.39 29.2C1018.24 28.35 1016.89 27.75 1015.34 27.4C1013.79 27 1012.14 26.8 1010.39 26.8C1000.49 26.8 995.542 30.55 995.542 38.05C995.542 39.5 995.842 40.875 996.442 42.175C997.092 43.475 997.992 44.6 999.142 45.55C1000.34 46.5 1001.77 47.25 1003.42 47.8C1005.12 48.35 1006.99 48.625 1009.04 48.625C1011.44 48.625 1013.52 48.325 1015.27 47.725C1017.07 47.075 1018.54 46.25 1019.69 45.25C1020.89 44.2 1021.77 43.025 1022.32 41.725C1022.87 40.375 1023.14 39 1023.14 37.6ZM1061.24 37.825C1060.84 50.375 1054.81 56.975 1043.16 57.625C1037.06 57.625 1032.01 55.7 1028.01 51.85L1029.51 41.8C1033.26 46.45 1037.61 48.775 1042.56 48.775C1045.46 48.775 1047.66 48.025 1049.16 46.525C1050.66 45.025 1051.51 42.65 1051.71 39.4C1051.71 32 1048.59 28.025 1042.34 27.475C1041.74 27.475 1041.26 27.525 1040.91 27.625C1040.56 27.725 1040.14 27.925 1039.64 28.225V18.85C1040.19 18.75 1040.64 18.7 1040.99 18.7C1041.39 18.65 1041.94 18.625 1042.64 18.625C1048.99 18.625 1053.66 20.225 1056.66 23.425C1059.71 26.575 1061.24 31.375 1061.24 37.825ZM1155.39 41.575C1155.39 44.175 1154.96 46.475 1154.11 48.475C1153.31 50.425 1152.19 52.075 1150.74 53.425C1149.29 54.775 1147.54 55.8 1145.49 56.5C1143.49 57.2 1141.26 57.575 1138.81 57.625C1134.46 57.625 1131.11 56.075 1128.76 52.975C1127.31 54.625 1125.71 55.825 1123.96 56.575C1122.21 57.275 1120.21 57.625 1117.96 57.625C1115.86 57.625 1113.91 57.35 1112.11 56.8C1110.31 56.2 1108.74 55.35 1107.39 54.25C1106.09 53.15 1105.06 51.85 1104.31 50.35C1103.61 48.8 1103.26 47.075 1103.26 45.175C1103.26 41.825 1104.24 39.225 1106.19 37.375C1108.14 35.475 1110.61 34.525 1113.61 34.525C1115.56 34.525 1117.26 35.1 1118.71 36.25C1120.21 37.35 1120.96 38.85 1120.96 40.75C1120.96 42.3 1120.39 43.65 1119.24 44.8C1118.09 45.9 1116.74 46.45 1115.19 46.45C1114.79 46.45 1114.46 46.45 1114.21 46.45C1113.96 46.4 1113.61 46.325 1113.16 46.225C1113.41 47.275 1113.86 48.2 1114.51 49C1115.21 49.75 1116.21 50.125 1117.51 50.125C1119.21 50.125 1120.69 49.625 1121.94 48.625C1123.24 47.575 1123.89 46.075 1123.89 44.125C1123.89 43.575 1123.86 43.15 1123.81 42.85C1123.81 42.5 1123.71 42.075 1123.51 41.575H1133.64C1133.49 42.025 1133.39 42.425 1133.34 42.775C1133.34 43.075 1133.34 43.425 1133.34 43.825C1133.34 45.825 1133.84 47.25 1134.84 48.1C1135.84 48.95 1137.11 49.375 1138.66 49.375C1140.96 49.375 1142.74 48.6 1143.99 47.05C1145.24 45.45 1146.06 43.35 1146.46 40.75C1146.46 35.8 1144.81 32.125 1141.51 29.725C1138.21 27.325 1132.96 26.125 1125.76 26.125C1123.86 26.125 1121.84 26.2 1119.69 26.35L1122.69 18.85C1124.79 18.7 1126.76 18.625 1128.61 18.625C1137.51 18.625 1144.19 20.475 1148.64 24.175C1153.14 27.825 1155.39 33.625 1155.39 41.575ZM1172.83 38.2C1172.83 39.65 1173.08 41.05 1173.58 42.4C1174.13 43.7 1174.86 44.85 1175.76 45.85C1176.66 46.85 1177.71 47.65 1178.91 48.25C1180.16 48.8 1181.51 49.075 1182.96 49.075C1184.36 49.075 1185.68 48.8 1186.93 48.25C1188.18 47.65 1189.26 46.85 1190.16 45.85C1191.11 44.85 1191.86 43.7 1192.41 42.4C1192.96 41.05 1193.23 39.65 1193.23 38.2C1193.23 36.7 1192.96 35.275 1192.41 33.925C1191.86 32.575 1191.11 31.4 1190.16 30.4C1189.26 29.4 1188.18 28.625 1186.93 28.075C1185.68 27.475 1184.36 27.175 1182.96 27.175C1181.51 27.175 1180.16 27.475 1178.91 28.075C1177.71 28.625 1176.66 29.4 1175.76 30.4C1174.86 31.4 1174.13 32.575 1173.58 33.925C1173.08 35.275 1172.83 36.7 1172.83 38.2ZM1163.91 38.275C1163.91 35.575 1164.41 33.05 1165.41 30.7C1166.41 28.35 1167.78 26.3 1169.53 24.55C1171.28 22.75 1173.31 21.35 1175.61 20.35C1177.91 19.35 1180.38 18.85 1183.03 18.85C1185.63 18.85 1188.08 19.35 1190.38 20.35C1192.73 21.35 1194.78 22.75 1196.53 24.55C1198.28 26.3 1199.66 28.35 1200.66 30.7C1201.66 33.05 1202.16 35.575 1202.16 38.275C1202.16 40.975 1201.66 43.5 1200.66 45.85C1199.66 48.2 1198.28 50.25 1196.53 52C1194.78 53.75 1192.73 55.125 1190.38 56.125C1188.08 57.125 1185.63 57.625 1183.03 57.625C1180.38 57.625 1177.91 57.125 1175.61 56.125C1173.31 55.125 1171.28 53.75 1169.53 52C1167.78 50.25 1166.41 48.2 1165.41 45.85C1164.41 43.5 1163.91 40.975 1163.91 38.275ZM1262.94 39.475C1262.94 42.025 1262.59 44.4 1261.89 46.6C1261.19 48.75 1260.19 50.625 1258.89 52.225C1257.59 53.775 1256.01 55 1254.16 55.9C1252.36 56.8 1250.34 57.25 1248.09 57.25C1245.84 57.25 1243.86 56.925 1242.16 56.275C1240.51 55.575 1239.19 54.325 1238.19 52.525C1236.99 54.325 1235.41 55.625 1233.46 56.425C1231.56 57.225 1229.39 57.625 1226.94 57.625C1224.44 57.625 1222.19 57.225 1220.19 56.425C1218.24 55.625 1216.56 54.525 1215.16 53.125C1213.81 51.675 1212.76 49.975 1212.01 48.025C1211.31 46.075 1210.96 43.975 1210.96 41.725C1210.96 38.625 1211.41 35.95 1212.31 33.7C1213.21 31.45 1214.74 29.225 1216.89 27.025H1214.19C1213.29 27.025 1212.41 27.075 1211.56 27.175C1210.71 27.275 1210.09 27.475 1209.69 27.775V18.1C1210.09 18.3 1210.39 18.45 1210.59 18.55C1210.79 18.6 1211.11 18.625 1211.56 18.625H1249.96L1257.31 25.975C1258.01 26.475 1258.69 27.175 1259.34 28.075C1260.04 28.925 1260.64 29.95 1261.14 31.15C1261.69 32.3 1262.11 33.6 1262.41 35.05C1262.76 36.45 1262.94 37.925 1262.94 39.475ZM1253.49 40C1253.49 38.55 1253.29 37.075 1252.89 35.575C1252.49 34.025 1251.71 32.625 1250.56 31.375C1249.46 30.075 1247.91 29.025 1245.91 28.225C1243.96 27.425 1241.44 27.025 1238.34 27.025C1237.69 27.025 1236.91 27.075 1236.01 27.175C1235.11 27.225 1234.16 27.325 1233.16 27.475C1232.21 27.625 1231.26 27.825 1230.31 28.075C1229.41 28.275 1228.61 28.525 1227.91 28.825C1225.76 29.975 1224.06 31.575 1222.81 33.625C1221.61 35.625 1221.01 37.9 1221.01 40.45C1221.01 43.15 1221.51 45.125 1222.51 46.375C1223.56 47.575 1224.94 48.175 1226.64 48.175C1228.39 48.175 1229.81 47.8 1230.91 47.05C1232.01 46.25 1232.56 44.625 1232.56 42.175C1232.56 41.775 1232.51 41.45 1232.41 41.2C1232.36 40.95 1232.21 40.625 1231.96 40.225H1242.99C1242.84 41.125 1242.76 41.875 1242.76 42.475C1242.76 43.625 1242.89 44.55 1243.14 45.25C1243.39 45.95 1243.71 46.5 1244.11 46.9C1244.56 47.3 1245.09 47.575 1245.69 47.725C1246.29 47.825 1246.96 47.875 1247.71 47.875C1248.81 47.875 1249.74 47.675 1250.49 47.275C1251.24 46.825 1251.84 46.25 1252.29 45.55C1252.74 44.85 1253.04 44.025 1253.19 43.075C1253.39 42.075 1253.49 41.05 1253.49 40ZM1261.09 13.3C1261.09 16.1 1260.66 18.4 1259.81 20.2C1258.91 21.95 1257.76 23.325 1256.36 24.325C1254.96 25.325 1253.41 26.025 1251.71 26.425C1250.01 26.825 1248.31 27.025 1246.61 27.025H1242.49V18.625H1246.76C1248.41 18.625 1249.86 18.2 1251.11 17.35C1252.31 16.5 1252.91 15.1 1252.91 13.15C1252.91 12.25 1252.74 11.475 1252.39 10.825C1252.04 10.125 1251.36 9.575 1250.36 9.175C1250.36 10.825 1249.81 12.2 1248.71 13.3C1247.61 14.4 1246.26 14.95 1244.66 14.95C1243.06 14.95 1241.66 14.4 1240.46 13.3C1239.26 12.15 1238.66 10.65 1238.66 8.8C1238.66 7.85 1238.84 6.9 1239.19 5.95C1239.54 5 1240.14 4.15 1240.99 3.4C1241.79 2.6 1242.89 1.975 1244.29 1.525C1245.64 1.025 1247.34 0.774996 1249.39 0.774996C1251.34 0.774996 1253.04 1.125 1254.49 1.825C1255.94 2.525 1257.16 3.475 1258.16 4.675C1259.11 5.825 1259.84 7.15 1260.34 8.65C1260.84 10.15 1261.09 11.7 1261.09 13.3ZM1276.98 38.2C1276.98 39.65 1277.23 41.05 1277.73 42.4C1278.28 43.7 1279.01 44.85 1279.91 45.85C1280.81 46.85 1281.86 47.65 1283.06 48.25C1284.31 48.8 1285.66 49.075 1287.11 49.075C1288.51 49.075 1289.83 48.8 1291.08 48.25C1292.33 47.65 1293.41 46.85 1294.31 45.85C1295.26 44.85 1296.01 43.7 1296.56 42.4C1297.11 41.05 1297.38 39.65 1297.38 38.2C1297.38 36.7 1297.11 35.275 1296.56 33.925C1296.01 32.575 1295.26 31.4 1294.31 30.4C1293.41 29.4 1292.33 28.625 1291.08 28.075C1289.83 27.475 1288.51 27.175 1287.11 27.175C1285.66 27.175 1284.31 27.475 1283.06 28.075C1281.86 28.625 1280.81 29.4 1279.91 30.4C1279.01 31.4 1278.28 32.575 1277.73 33.925C1277.23 35.275 1276.98 36.7 1276.98 38.2ZM1268.06 38.275C1268.06 35.575 1268.56 33.05 1269.56 30.7C1270.56 28.35 1271.93 26.3 1273.68 24.55C1275.43 22.75 1277.46 21.35 1279.76 20.35C1282.06 19.35 1284.53 18.85 1287.18 18.85C1289.78 18.85 1292.23 19.35 1294.53 20.35C1296.88 21.35 1298.93 22.75 1300.68 24.55C1302.43 26.3 1303.81 28.35 1304.81 30.7C1305.81 33.05 1306.31 35.575 1306.31 38.275C1306.31 40.975 1305.81 43.5 1304.81 45.85C1303.81 48.2 1302.43 50.25 1300.68 52C1298.93 53.75 1296.88 55.125 1294.53 56.125C1292.23 57.125 1289.78 57.625 1287.18 57.625C1284.53 57.625 1282.06 57.125 1279.76 56.125C1277.46 55.125 1275.43 53.75 1273.68 52C1271.93 50.25 1270.56 48.2 1269.56 45.85C1268.56 43.5 1268.06 40.975 1268.06 38.275ZM1365.36 40.15C1365.36 42.3 1365.01 44.425 1364.31 46.525C1363.66 48.575 1362.69 50.425 1361.39 52.075C1360.09 53.725 1358.46 55.05 1356.51 56.05C1354.61 57.05 1352.44 57.55 1349.99 57.55C1347.89 57.55 1345.94 57.15 1344.14 56.35C1342.34 55.55 1341.06 54.35 1340.31 52.75C1338.76 54.45 1337.16 55.675 1335.51 56.425C1333.86 57.175 1331.89 57.55 1329.59 57.55C1327.49 57.55 1325.46 57.25 1323.51 56.65C1321.61 56 1319.94 55.05 1318.49 53.8C1317.09 52.55 1315.96 50.975 1315.11 49.075C1314.26 47.125 1313.84 44.875 1313.84 42.325C1313.84 38.975 1314.44 35.925 1315.64 33.175C1316.89 30.425 1318.66 28.05 1320.96 26.05C1320.41 25.05 1319.94 24.075 1319.54 23.125C1319.14 22.125 1318.94 21.15 1318.94 20.2C1318.94 18.1 1319.44 16.3 1320.44 14.8C1321.44 13.25 1322.76 11.975 1324.41 10.975C1326.06 9.975 1327.94 9.225 1330.04 8.725C1332.19 8.225 1334.41 7.975 1336.71 7.975C1340.76 7.975 1344.14 8.6 1346.84 9.85C1349.54 11.05 1351.71 12.55 1353.36 14.35C1355.01 16.15 1356.24 18.1 1357.04 20.2C1357.84 22.25 1358.39 24.125 1358.69 25.825C1360.69 27.675 1362.29 29.775 1363.49 32.125C1364.74 34.475 1365.36 37.15 1365.36 40.15ZM1346.84 19.9C1345.79 18.55 1344.44 17.625 1342.79 17.125C1341.14 16.575 1339.36 16.3 1337.46 16.3C1336.56 16.3 1335.64 16.375 1334.69 16.525C1333.74 16.675 1332.84 16.925 1331.99 17.275C1331.19 17.575 1330.51 18 1329.96 18.55C1329.46 19.05 1329.21 19.7 1329.21 20.5C1329.21 21 1329.24 21.275 1329.29 21.325C1331.09 20.725 1332.99 20.275 1334.99 19.975C1337.04 19.625 1339.19 19.45 1341.44 19.45C1342.44 19.45 1343.36 19.5 1344.21 19.6C1345.11 19.7 1345.99 19.8 1346.84 19.9ZM1356.14 40.75C1356.14 38.9 1355.89 37.15 1355.39 35.5C1354.89 33.85 1354.01 32.425 1352.76 31.225C1351.56 30.025 1349.94 29.075 1347.89 28.375C1345.84 27.675 1343.26 27.325 1340.16 27.325C1337.31 27.325 1334.84 27.675 1332.74 28.375C1330.69 29.075 1328.96 30.05 1327.56 31.3C1326.21 32.5 1325.21 33.925 1324.56 35.575C1323.91 37.225 1323.59 39 1323.59 40.9C1323.59 41.8 1323.66 42.7 1323.81 43.6C1324.01 44.45 1324.34 45.225 1324.79 45.925C1325.24 46.625 1325.81 47.2 1326.51 47.65C1327.26 48.1 1328.19 48.325 1329.29 48.325C1330.39 48.325 1331.29 48.15 1331.99 47.8C1332.69 47.4 1333.24 46.9 1333.64 46.3C1334.09 45.7 1334.39 45 1334.54 44.2C1334.69 43.4 1334.76 42.575 1334.76 41.725V40.675H1345.34C1345.24 41.225 1345.16 41.725 1345.11 42.175C1345.06 42.575 1345.04 42.975 1345.04 43.375C1345.04 45.325 1345.54 46.675 1346.54 47.425C1347.54 48.175 1348.74 48.55 1350.14 48.55C1351.34 48.55 1352.31 48.3 1353.06 47.8C1353.86 47.3 1354.49 46.675 1354.94 45.925C1355.39 45.175 1355.69 44.35 1355.84 43.45C1356.04 42.5 1356.14 41.6 1356.14 40.75ZM1420.42 14.2C1420.42 17.35 1419.82 19.775 1418.62 21.475C1417.42 23.175 1416.02 24.45 1414.42 25.3C1416.47 27.05 1417.94 29.05 1418.84 31.3C1419.79 33.5 1420.27 36.375 1420.27 39.925C1420.27 43.225 1419.57 46.4 1418.17 49.45C1416.82 52.45 1414.54 55.075 1411.34 57.325L1404.97 52.3C1405.62 51.9 1406.29 51.3 1406.99 50.5C1407.69 49.7 1408.34 48.75 1408.94 47.65C1409.54 46.5 1410.02 45.25 1410.37 43.9C1410.77 42.5 1410.97 41.025 1410.97 39.475C1410.97 37.675 1410.64 36.025 1409.99 34.525C1409.34 33.025 1408.44 31.725 1407.29 30.625C1406.14 29.475 1404.77 28.6 1403.17 28C1401.62 27.35 1399.92 27.025 1398.07 27.025C1393.07 27.025 1389.32 28.2 1386.82 30.55C1384.37 32.9 1383.14 36.2 1383.14 40.45C1383.14 43.05 1383.64 45.25 1384.64 47.05C1385.69 48.85 1387.19 50.65 1389.14 52.45L1382.84 57.7C1381.89 57.25 1380.89 56.55 1379.84 55.6C1378.84 54.6 1377.92 53.375 1377.07 51.925C1376.22 50.475 1375.52 48.8 1374.97 46.9C1374.42 44.95 1374.14 42.8 1374.14 40.45C1374.14 37.6 1374.59 35 1375.49 32.65C1376.39 30.25 1377.84 28.4 1379.84 27.1H1377.29C1376.34 27.1 1375.44 27.15 1374.59 27.25C1373.79 27.3 1373.22 27.525 1372.87 27.925V18.1C1373.22 18.35 1373.49 18.5 1373.69 18.55C1373.89 18.6 1374.24 18.625 1374.74 18.625H1407.89C1408.99 18.575 1409.82 18.225 1410.37 17.575C1410.92 16.875 1411.19 15.65 1411.19 13.9C1411.19 13 1411.02 12.075 1410.67 11.125C1410.32 10.125 1409.69 9.35 1408.79 8.8L1416.59 4.225C1417.79 5.025 1418.72 6.375 1419.37 8.275C1420.07 10.125 1420.42 12.1 1420.42 14.2ZM1475.27 40.9C1475.27 43.75 1474.8 46.225 1473.85 48.325C1472.95 50.375 1471.75 52.1 1470.25 53.5C1468.75 54.9 1467.07 55.95 1465.22 56.65C1463.37 57.3 1461.52 57.625 1459.67 57.625C1457.42 57.625 1455.42 57.225 1453.67 56.425C1451.92 55.625 1450.45 54.55 1449.25 53.2C1448.05 51.85 1447.12 50.325 1446.47 48.625C1445.87 46.875 1445.57 45.075 1445.57 43.225C1445.57 41.725 1445.77 40.225 1446.17 38.725C1446.57 37.225 1447.22 35.875 1448.12 34.675C1449.02 33.425 1450.17 32.425 1451.57 31.675C1452.97 30.875 1454.67 30.475 1456.67 30.475C1457.72 30.475 1458.67 30.7 1459.52 31.15C1460.42 31.55 1461.17 32.075 1461.77 32.725C1462.42 33.375 1462.92 34.125 1463.27 34.975C1463.62 35.825 1463.8 36.65 1463.8 37.45C1463.8 38.45 1463.6 39.325 1463.2 40.075C1462.8 40.825 1462.3 41.45 1461.7 41.95C1461.1 42.45 1460.45 42.825 1459.75 43.075C1459.1 43.275 1458.5 43.375 1457.95 43.375C1457.5 43.375 1457.1 43.325 1456.75 43.225C1456.45 43.125 1456.1 42.875 1455.7 42.475C1455.65 42.825 1455.55 43.175 1455.4 43.525C1455.3 43.825 1455.25 44.175 1455.25 44.575C1455.25 45.775 1455.67 46.775 1456.52 47.575C1457.37 48.375 1458.42 48.775 1459.67 48.775C1460.52 48.775 1461.35 48.575 1462.15 48.175C1463 47.775 1463.75 47.2 1464.4 46.45C1465.05 45.7 1465.57 44.8 1465.97 43.75C1466.37 42.7 1466.57 41.525 1466.57 40.225C1466.57 38.875 1466.35 37.425 1465.9 35.875C1465.5 34.325 1464.75 32.875 1463.65 31.525C1462.6 30.175 1461.12 29.05 1459.22 28.15C1457.32 27.25 1454.9 26.8 1451.95 26.8C1450 26.8 1448.2 26.9 1446.55 27.1C1444.9 27.3 1443.5 27.65 1442.35 28.15C1441.2 28.65 1440.3 29.325 1439.65 30.175C1439 31.025 1438.67 32.075 1438.67 33.325C1438.67 34.425 1438.87 35.325 1439.27 36.025C1439.67 36.725 1440.12 37.45 1440.62 38.2C1441.12 38.95 1441.57 39.85 1441.97 40.9C1442.37 41.9 1442.57 43.275 1442.57 45.025C1442.57 48.775 1441.32 51.8 1438.82 54.1C1436.32 56.35 1432.62 57.475 1427.72 57.475C1421.72 57.125 1416.92 55.1 1413.32 51.4L1415.57 41.275C1420.07 46.225 1424.17 48.7 1427.87 48.7C1429.27 48.7 1430.57 48.35 1431.77 47.65C1432.97 46.9 1433.57 45.85 1433.57 44.5C1433.57 43.1 1433.32 42.025 1432.82 41.275C1432.32 40.525 1431.75 39.775 1431.1 39.025C1430.5 38.275 1429.95 37.4 1429.45 36.4C1428.95 35.4 1428.7 33.975 1428.7 32.125C1428.7 29.225 1429.45 26.9 1430.95 25.15C1432.45 23.4 1434.3 22.05 1436.5 21.1C1438.75 20.1 1441.15 19.45 1443.7 19.15C1446.3 18.8 1448.7 18.625 1450.9 18.625C1455.2 18.625 1458.87 19.15 1461.92 20.2C1465.02 21.25 1467.55 22.75 1469.5 24.7C1471.5 26.65 1472.95 29 1473.85 31.75C1474.8 34.5 1475.27 37.55 1475.27 40.9ZM1566.8 34.225C1566.8 37.125 1566.7 39.55 1566.5 41.5C1566.3 43.45 1566 45.125 1565.6 46.525C1565.2 47.875 1564.7 49.025 1564.1 49.975C1563.5 50.925 1562.82 51.85 1562.07 52.75C1560.62 54.4 1558.85 55.625 1556.75 56.425C1554.7 57.175 1552.45 57.55 1550 57.55C1547.45 57.55 1545.42 57.225 1543.92 56.575C1542.47 55.875 1541.3 55.025 1540.4 54.025C1539.55 53.025 1538.87 51.95 1538.37 50.8C1537.92 49.6 1537.45 48.5 1536.95 47.5C1536.5 46.5 1535.92 45.675 1535.22 45.025C1534.57 44.325 1533.6 43.975 1532.3 43.975C1530.55 43.975 1529.3 44.35 1528.55 45.1C1527.8 45.85 1527.42 46.85 1527.42 48.1C1527.42 49.05 1527.65 49.975 1528.1 50.875C1528.6 51.775 1529.42 52.7 1530.57 53.65L1523.37 58.975C1521.27 57.575 1519.77 55.875 1518.87 53.875C1518.02 51.825 1517.6 49.675 1517.6 47.425C1517.6 46.025 1517.92 44.65 1518.57 43.3C1519.22 41.9 1520.2 40.675 1521.5 39.625C1522.85 38.525 1524.52 37.65 1526.52 37C1528.52 36.3 1530.85 35.95 1533.5 35.95C1535.85 35.95 1537.75 36.3 1539.2 37C1540.65 37.65 1541.82 38.475 1542.72 39.475C1543.67 40.475 1544.42 41.575 1544.97 42.775C1545.52 43.925 1546.05 45 1546.55 46C1547.05 47 1547.62 47.85 1548.27 48.55C1548.92 49.2 1549.8 49.525 1550.9 49.525C1553.35 49.525 1555.15 48.475 1556.3 46.375C1557.5 44.225 1558.12 40.625 1558.17 35.575C1557.87 24.675 1554.7 18.325 1548.65 16.525C1549.05 17.575 1549.25 18.65 1549.25 19.75C1549.25 21.05 1548.82 22.2 1547.97 23.2C1547.12 24.2 1546.02 25.05 1544.67 25.75C1543.37 26.45 1541.87 26.975 1540.17 27.325C1538.52 27.675 1536.87 27.85 1535.22 27.85C1533.32 27.85 1531.52 27.675 1529.82 27.325C1528.17 26.975 1526.72 26.45 1525.47 25.75C1524.27 25 1523.3 24.075 1522.55 22.975C1521.85 21.825 1521.5 20.475 1521.5 18.925C1521.5 15.175 1523.42 12.425 1527.27 10.675C1531.12 8.875 1536.35 7.975 1542.95 7.975C1558.15 7.975 1566.1 16.725 1566.8 34.225ZM1541.3 18.325C1541.3 17.825 1541.15 17.425 1540.85 17.125C1540.55 16.825 1540.2 16.6 1539.8 16.45C1539.4 16.25 1538.95 16.125 1538.45 16.075C1538 16.025 1537.6 16 1537.25 16C1536.65 16 1536.02 16.05 1535.37 16.15C1534.72 16.25 1534.1 16.425 1533.5 16.675C1532.95 16.875 1532.5 17.15 1532.15 17.5C1531.8 17.85 1531.62 18.275 1531.62 18.775C1531.62 19.225 1531.77 19.6 1532.07 19.9C1532.37 20.15 1532.75 20.35 1533.2 20.5C1533.65 20.65 1534.15 20.75 1534.7 20.8C1535.25 20.85 1535.77 20.875 1536.27 20.875C1536.82 20.875 1537.4 20.825 1538 20.725C1538.6 20.625 1539.12 20.475 1539.57 20.275C1540.07 20.025 1540.47 19.75 1540.77 19.45C1541.12 19.15 1541.3 18.775 1541.3 18.325ZM1602.79 29.425C1602.79 31.475 1602.44 33.25 1601.74 34.75C1601.09 36.2 1600.19 37.4 1599.04 38.35C1597.94 39.3 1596.64 40.025 1595.14 40.525C1593.69 40.975 1592.19 41.2 1590.64 41.2C1587.84 41.2 1585.64 40.325 1584.04 38.575C1583.89 38.925 1583.79 39.275 1583.74 39.625C1583.74 39.925 1583.74 40.225 1583.74 40.525C1583.74 41.775 1583.86 42.95 1584.11 44.05C1584.41 45.1 1584.89 46.025 1585.54 46.825C1586.19 47.625 1587.06 48.275 1588.16 48.775C1589.26 49.225 1590.64 49.45 1592.29 49.45C1594.29 49.45 1596.06 49.15 1597.61 48.55C1599.16 47.95 1600.59 47 1601.89 45.7V56.05C1600.09 56.9 1598.44 57.425 1596.94 57.625C1595.44 57.775 1593.74 57.85 1591.84 57.85C1590.99 57.85 1589.96 57.825 1588.76 57.775C1587.56 57.675 1586.31 57.425 1585.01 57.025C1583.71 56.625 1582.41 56.025 1581.11 55.225C1579.86 54.375 1578.71 53.175 1577.66 51.625C1576.66 50.075 1575.84 48.125 1575.19 45.775C1574.59 43.425 1574.29 40.55 1574.29 37.15C1574.29 30.85 1575.74 26.225 1578.64 23.275C1581.54 20.275 1585.61 18.775 1590.86 18.775C1592.61 18.775 1594.21 19.05 1595.66 19.6C1597.11 20.1 1598.36 20.825 1599.41 21.775C1600.46 22.725 1601.29 23.85 1601.89 25.15C1602.49 26.45 1602.79 27.875 1602.79 29.425ZM1593.94 30.25C1593.94 29.25 1593.59 28.425 1592.89 27.775C1592.19 27.075 1591.34 26.725 1590.34 26.725C1589.39 26.725 1588.56 27.075 1587.86 27.775C1587.16 28.425 1586.81 29.25 1586.81 30.25C1586.81 31.15 1587.16 31.95 1587.86 32.65C1588.56 33.35 1589.39 33.7 1590.34 33.7C1591.34 33.7 1592.19 33.35 1592.89 32.65C1593.59 31.95 1593.94 31.15 1593.94 30.25ZM1685.38 14.2C1685.38 16.9 1684.91 19.1 1683.96 20.8C1683.01 22.45 1681.86 23.725 1680.51 24.625C1679.16 25.525 1677.73 26.125 1676.23 26.425C1674.73 26.725 1673.43 26.875 1672.33 26.875H1669.93C1670.38 27.125 1670.61 27.85 1670.61 29.05C1670.61 30.05 1670.53 30.675 1670.38 30.925C1670.23 31.175 1670.08 31.475 1669.93 31.825H1680.96C1681.66 31.825 1682.33 31.8 1682.98 31.75C1683.63 31.65 1684.11 31.4 1684.41 31V40.525C1684.06 40.175 1683.58 40 1682.98 40H1680.13C1680.73 40.55 1681.26 41.375 1681.71 42.475C1682.16 43.575 1682.38 44.825 1682.38 46.225C1682.38 47.625 1682.03 49 1681.33 50.35C1680.63 51.7 1679.58 52.925 1678.18 54.025C1676.78 55.075 1675.06 55.95 1673.01 56.65C1671.01 57.3 1668.66 57.625 1665.96 57.625C1664.01 57.625 1661.96 57.475 1659.81 57.175C1657.66 56.875 1655.68 56.325 1653.88 55.525C1652.08 54.675 1650.58 53.525 1649.38 52.075C1648.23 50.575 1647.66 48.65 1647.66 46.3C1647.66 44.95 1647.83 43.9 1648.18 43.15C1648.58 42.35 1649.21 41.475 1650.06 40.525H1649.23C1648.43 40.525 1647.61 40.575 1646.76 40.675C1645.96 40.725 1645.43 40.975 1645.18 41.425V31.45C1645.43 31.6 1645.66 31.725 1645.86 31.825C1646.06 31.875 1646.31 31.9 1646.61 31.9H1661.08C1660.43 31.55 1660.11 30.725 1660.11 29.425C1660.11 28.875 1660.13 28.35 1660.18 27.85C1660.28 27.35 1660.48 27.025 1660.78 26.875H1650.36C1649.61 26.875 1648.86 27.075 1648.11 27.475C1647.41 27.875 1646.91 28.275 1646.61 28.675V18.175C1646.91 18.375 1647.16 18.5 1647.36 18.55C1647.56 18.6 1647.88 18.625 1648.33 18.625H1672.56C1673.81 18.625 1674.73 18.3 1675.33 17.65C1675.93 16.95 1676.23 15.7 1676.23 13.9C1676.23 13 1676.06 12.075 1675.71 11.125C1675.36 10.175 1674.73 9.425 1673.83 8.875L1681.63 4.3C1682.78 5.1 1683.68 6.425 1684.33 8.275C1685.03 10.125 1685.38 12.1 1685.38 14.2ZM1673.38 45.25C1673.38 44.15 1673.11 43.3 1672.56 42.7C1672.01 42.05 1671.28 41.55 1670.38 41.2C1669.53 40.85 1668.58 40.625 1667.53 40.525C1666.53 40.425 1665.58 40.375 1664.68 40.375C1663.83 40.375 1662.91 40.45 1661.91 40.6C1660.91 40.7 1659.96 40.9 1659.06 41.2C1658.21 41.5 1657.48 41.95 1656.88 42.55C1656.33 43.1 1656.06 43.825 1656.06 44.725C1656.06 45.725 1656.33 46.55 1656.88 47.2C1657.48 47.85 1658.21 48.35 1659.06 48.7C1659.96 49.05 1660.88 49.3 1661.83 49.45C1662.83 49.55 1663.71 49.6 1664.46 49.6C1665.41 49.6 1666.41 49.525 1667.46 49.375C1668.51 49.175 1669.46 48.9 1670.31 48.55C1671.21 48.2 1671.93 47.75 1672.48 47.2C1673.08 46.65 1673.38 46 1673.38 45.25ZM1745.96 14.275C1745.96 17.125 1745.44 19.4 1744.39 21.1C1743.39 22.8 1742.16 24.1 1740.71 25L1740.86 25.075C1741.81 25.925 1742.64 26.925 1743.34 28.075C1744.04 29.225 1744.61 30.425 1745.06 31.675C1745.51 32.875 1745.84 34.075 1746.04 35.275C1746.24 36.475 1746.34 37.55 1746.34 38.5C1746.34 41.75 1745.84 44.575 1744.84 46.975C1743.89 49.375 1742.56 51.375 1740.86 52.975C1739.16 54.525 1737.16 55.7 1734.86 56.5C1732.56 57.25 1730.11 57.625 1727.51 57.625C1723.11 57.625 1719.84 56.575 1717.69 54.475C1715.54 52.325 1714.39 49.525 1714.24 46.075C1714.24 45.375 1714.11 44.625 1713.86 43.825C1713.66 42.975 1713.34 42.2 1712.89 41.5C1712.44 40.8 1711.84 40.225 1711.09 39.775C1710.34 39.275 1709.44 39.025 1708.39 39.025C1706.49 39.025 1705.11 39.6 1704.26 40.75C1703.41 41.85 1702.99 43.025 1702.99 44.275C1702.99 45.475 1703.16 46.55 1703.51 47.5C1703.91 48.45 1704.39 49.3 1704.94 50.05C1705.54 50.75 1706.19 51.375 1706.89 51.925C1707.64 52.425 1708.36 52.825 1709.06 53.125L1701.49 58.975C1698.94 57.275 1696.86 55.275 1695.26 52.975C1693.66 50.625 1692.86 47.8 1692.86 44.5C1692.86 42.5 1693.21 40.65 1693.91 38.95C1694.61 37.25 1695.66 35.775 1697.06 34.525C1698.46 33.275 1700.19 32.325 1702.24 31.675C1704.29 30.975 1706.66 30.625 1709.36 30.625C1712.66 30.625 1715.31 31.275 1717.31 32.575C1719.31 33.875 1720.81 35.35 1721.81 37C1722.41 38.2 1722.84 39.525 1723.09 40.975C1723.34 42.425 1723.66 43.625 1724.06 44.575C1724.46 46.025 1725.11 47.05 1726.01 47.65C1726.96 48.25 1727.94 48.55 1728.94 48.55C1731.19 48.55 1732.99 47.85 1734.34 46.45C1735.74 45 1736.44 42.575 1736.44 39.175C1736.44 37.725 1736.29 36.3 1735.99 34.9C1735.74 33.5 1735.26 32.225 1734.56 31.075C1733.91 29.925 1733.01 29 1731.86 28.3C1730.71 27.55 1729.26 27.125 1727.51 27.025H1697.59C1696.54 27.025 1695.56 27.075 1694.66 27.175C1693.76 27.275 1693.16 27.55 1692.86 28V18.1C1693.16 18.3 1693.51 18.45 1693.91 18.55C1694.31 18.6 1694.64 18.625 1694.89 18.625L1733.51 18.7C1734.61 18.7 1735.41 18.325 1735.91 17.575C1736.46 16.825 1736.74 15.625 1736.74 13.975C1736.74 13.075 1736.56 12.15 1736.21 11.2C1735.86 10.2 1735.24 9.425 1734.34 8.875L1742.14 4.3C1743.34 5.1 1744.26 6.45 1744.91 8.35C1745.61 10.2 1745.96 12.175 1745.96 14.275ZM1764.15 78.175C1764.1 80.025 1763.93 81.725 1763.63 83.275C1763.38 84.825 1762.98 86.25 1762.43 87.55H1756.13C1757.43 85.2 1758.08 82.225 1758.08 78.625C1758.08 77.525 1757.83 76.575 1757.33 75.775C1755.43 78.325 1752.95 80.175 1749.9 81.325C1746.8 82.525 1743.5 83.125 1740 83.125C1738.05 83.125 1736.15 82.95 1734.3 82.6C1732.45 82.3 1730.8 81.775 1729.35 81.025C1727.9 80.325 1726.72 79.375 1725.82 78.175C1724.92 76.975 1724.47 75.475 1724.47 73.675C1724.47 72.175 1724.8 70.9 1725.45 69.85C1726.05 68.8 1726.85 67.9 1727.85 67.15C1728.85 66.45 1729.97 65.875 1731.22 65.425C1732.42 65.025 1733.62 64.7 1734.82 64.45C1736.02 64.25 1737.15 64.125 1738.2 64.075C1739.25 64.025 1740.07 64 1740.67 64C1742.82 64 1745.07 64.1 1747.42 64.3C1749.77 64.55 1752 65.025 1754.1 65.725V64.75C1754.1 63.1 1753.83 61.45 1753.28 59.8C1752.73 58.1 1751.7 56.575 1750.2 55.225L1755.45 51.7C1757.45 53.6 1758.85 55.7 1759.65 58C1760.45 60.25 1760.85 62.575 1760.85 64.975C1760.85 65.675 1760.8 66.35 1760.7 67C1760.6 67.7 1760.48 68.4 1760.33 69.1C1761.53 70.2 1762.45 71.475 1763.1 72.925C1763.8 74.425 1764.15 76.175 1764.15 78.175ZM1752.53 71.575C1751.13 70.975 1749.6 70.5 1747.95 70.15C1746.3 69.85 1744.67 69.7 1743.07 69.7C1741.92 69.7 1740.67 69.75 1739.32 69.85C1737.97 70 1736.72 70.2 1735.57 70.45C1734.42 70.75 1733.47 71.125 1732.72 71.575C1731.97 72.075 1731.6 72.65 1731.6 73.3C1731.6 74.15 1731.87 74.825 1732.42 75.325C1732.92 75.825 1733.57 76.2 1734.37 76.45C1735.17 76.7 1736.07 76.85 1737.07 76.9C1738.02 77 1738.92 77.05 1739.77 77.05C1743.22 77.05 1745.97 76.575 1748.02 75.625C1750.02 74.675 1751.53 73.325 1752.53 71.575ZM1819.35 14.275C1819.35 16.225 1819.1 17.9 1818.6 19.3C1818.1 20.7 1817.42 21.875 1816.57 22.825C1815.77 23.775 1814.87 24.55 1813.87 25.15C1812.87 25.7 1811.85 26.125 1810.8 26.425C1812.8 27.525 1813.8 28.875 1813.8 30.475C1815.6 31.625 1816.82 33.175 1817.47 35.125C1818.17 37.075 1818.52 39.25 1818.52 41.65C1818.52 44.3 1818.05 46.625 1817.1 48.625C1816.2 50.625 1814.92 52.3 1813.27 53.65C1811.67 54.95 1809.77 55.95 1807.57 56.65C1805.42 57.3 1803.1 57.625 1800.6 57.625C1798.45 57.625 1796.5 57.2 1794.75 56.35C1793 55.5 1791.65 54.175 1790.7 52.375C1789.55 54.125 1788.02 55.4 1786.12 56.2C1784.27 57 1782.15 57.4 1779.75 57.4C1770 57.4 1765.12 51.925 1765.12 40.975C1765.12 37.875 1765.7 35.225 1766.85 33.025C1768.05 30.775 1769.5 28.725 1771.2 26.875H1767.82C1766.82 26.875 1765.9 26.925 1765.05 27.025C1764.2 27.125 1763.62 27.4 1763.32 27.85V18.25C1763.62 18.45 1763.87 18.575 1764.07 18.625C1764.32 18.675 1764.7 18.7 1765.2 18.7H1806.45C1807.7 18.7 1808.62 18.375 1809.22 17.725C1809.82 17.025 1810.12 15.775 1810.12 13.975C1810.12 13.075 1809.95 12.15 1809.6 11.2C1809.25 10.2 1808.62 9.425 1807.72 8.875L1815.52 4.3C1816.72 5.1 1817.65 6.45 1818.3 8.35C1819 10.2 1819.35 12.175 1819.35 14.275ZM1807.95 46.6C1807.35 46.75 1806.8 46.875 1806.3 46.975C1805.85 47.075 1805.32 47.125 1804.72 47.125C1803.42 47.125 1802.22 46.9 1801.12 46.45C1800.07 46 1799.15 45.4 1798.35 44.65C1797.6 43.9 1797 43.025 1796.55 42.025C1796.15 41.025 1795.95 39.975 1795.95 38.875C1795.95 36.875 1796.42 35.1 1797.37 33.55C1798.37 31.95 1799.95 30.75 1802.1 29.95C1801.85 29.55 1801.37 29.175 1800.67 28.825C1800.02 28.425 1799.25 28.1 1798.35 27.85C1797.5 27.55 1796.55 27.325 1795.5 27.175C1794.5 27.025 1793.5 26.95 1792.5 26.95C1792.15 26.95 1791.57 26.975 1790.77 27.025C1789.97 27.025 1789.07 27.1 1788.07 27.25C1787.12 27.35 1786.15 27.5 1785.15 27.7C1784.15 27.9 1783.27 28.175 1782.52 28.525C1780.22 29.475 1778.3 30.975 1776.75 33.025C1775.25 35.075 1774.5 37.375 1774.5 39.925C1774.5 41.025 1774.62 42.075 1774.87 43.075C1775.12 44.075 1775.5 44.975 1776 45.775C1776.55 46.525 1777.2 47.125 1777.95 47.575C1778.75 48.025 1779.65 48.25 1780.65 48.25C1782.55 47.8 1783.77 47.225 1784.32 46.525C1784.92 45.775 1785.3 44.6 1785.45 43C1785.45 42.45 1785.4 41.975 1785.3 41.575C1785.2 41.175 1784.97 40.75 1784.62 40.3H1794.97C1794.77 40.95 1794.67 41.65 1794.67 42.4C1794.67 44.7 1795.35 46.325 1796.7 47.275C1798.1 48.225 1800.22 48.7 1803.07 48.7C1804.97 48.7 1806.6 48 1807.95 46.6ZM1809.52 38.275C1809.52 37.725 1809.37 37.275 1809.07 36.925C1808.77 36.525 1808.3 36.325 1807.65 36.325C1806.85 36.325 1806.3 36.45 1806 36.7C1805.7 36.95 1805.55 37.475 1805.55 38.275C1805.55 38.975 1805.75 39.45 1806.15 39.7C1806.6 39.95 1807.02 40.075 1807.42 40.075C1807.97 40.075 1808.45 39.975 1808.85 39.775C1809.3 39.575 1809.52 39.075 1809.52 38.275ZM1871.52 24.7C1872.42 25.35 1873.22 26.225 1873.92 27.325C1874.62 28.375 1875.2 29.575 1875.65 30.925C1876.15 32.225 1876.52 33.625 1876.77 35.125C1877.02 36.625 1877.15 38.15 1877.15 39.7C1877.15 42.3 1876.77 44.7 1876.02 46.9C1875.27 49.1 1874.22 51.025 1872.87 52.675C1871.52 54.275 1869.9 55.55 1868 56.5C1866.15 57.4 1864.12 57.85 1861.92 57.85C1860.92 57.85 1859.9 57.75 1858.85 57.55C1857.85 57.3 1856.92 56.975 1856.07 56.575C1855.22 56.175 1854.5 55.7 1853.9 55.15C1853.3 54.6 1852.9 53.975 1852.7 53.275C1852.1 53.975 1851.32 54.6 1850.37 55.15C1849.47 55.7 1848.52 56.175 1847.52 56.575C1846.52 56.925 1845.52 57.2 1844.52 57.4C1843.52 57.55 1842.62 57.625 1841.82 57.625C1839.32 57.625 1837.15 57.275 1835.3 56.575C1833.45 55.825 1831.87 54.8 1830.57 53.5C1829.32 52.2 1828.37 50.675 1827.72 48.925C1827.12 47.125 1826.82 45.175 1826.82 43.075C1826.82 41.075 1827.12 39.3 1827.72 37.75C1828.32 36.2 1829.15 34.9 1830.2 33.85C1831.25 32.8 1832.47 32.025 1833.87 31.525C1835.32 30.975 1836.87 30.7 1838.52 30.7C1841.22 30.7 1843.17 31.4 1844.37 32.8C1845.62 34.2 1846.25 35.9 1846.25 37.9C1846.25 38.75 1846.07 39.575 1845.72 40.375C1845.42 41.125 1844.97 41.8 1844.37 42.4C1843.77 43 1843.05 43.475 1842.2 43.825C1841.4 44.175 1840.52 44.35 1839.57 44.35C1838.72 44.35 1837.8 44 1836.8 43.3V43.75C1836.8 45.25 1837.3 46.45 1838.3 47.35C1839.3 48.2 1840.6 48.625 1842.2 48.625C1844.05 48.625 1845.6 48.125 1846.85 47.125C1848.1 46.125 1848.72 44.425 1848.72 42.025C1848.72 41.575 1848.67 41.275 1848.57 41.125C1848.52 40.925 1848.45 40.625 1848.35 40.225H1857.8C1857.7 40.675 1857.6 41.075 1857.5 41.425C1857.4 41.775 1857.35 42.225 1857.35 42.775C1857.35 44.125 1857.85 45.325 1858.85 46.375C1859.85 47.425 1861.07 47.95 1862.52 47.95C1864.47 47.95 1865.97 47.15 1867.02 45.55C1868.07 43.95 1868.6 41.875 1868.6 39.325C1868.6 34.975 1867.6 31.85 1865.6 29.95C1863.6 28 1860.72 27.025 1856.97 27.025H1832.22C1831.32 27.025 1830.45 27.075 1829.6 27.175C1828.75 27.275 1828.17 27.55 1827.87 28V18.025C1828.17 18.325 1828.42 18.5 1828.62 18.55C1828.87 18.6 1829.27 18.625 1829.82 18.625H1862.07L1871.52 24.7ZM1912.57 37.6C1912.57 40.55 1912.12 43.25 1911.22 45.7C1910.37 48.1 1909.15 50.175 1907.55 51.925C1906 53.675 1904.15 55.05 1902 56.05C1899.85 57 1897.52 57.475 1895.02 57.475C1893.12 57.475 1891.32 57.225 1889.62 56.725C1887.97 56.175 1886.5 55.35 1885.2 54.25C1883.95 53.1 1882.95 51.675 1882.2 49.975C1881.5 48.275 1881.15 46.225 1881.15 43.825C1881.15 42.175 1881.35 40.55 1881.75 38.95C1882.2 37.35 1882.87 35.925 1883.77 34.675C1884.67 33.425 1885.82 32.425 1887.22 31.675C1888.62 30.925 1890.3 30.55 1892.25 30.55C1893.15 30.55 1894.02 30.675 1894.87 30.925C1895.72 31.125 1896.47 31.475 1897.12 31.975C1897.82 32.475 1898.37 33.15 1898.77 34C1899.22 34.85 1899.45 35.9 1899.45 37.15C1899.45 38.05 1899.25 38.925 1898.85 39.775C1898.5 40.575 1898.02 41.3 1897.42 41.95C1896.82 42.55 1896.1 43.05 1895.25 43.45C1894.45 43.8 1893.6 43.975 1892.7 43.975C1892.35 43.975 1892.05 43.95 1891.8 43.9C1891.55 43.85 1891.3 43.775 1891.05 43.675C1890.95 43.975 1890.9 44.225 1890.9 44.425C1890.9 44.575 1890.9 44.775 1890.9 45.025C1890.9 46.325 1891.4 47.375 1892.4 48.175C1893.4 48.925 1894.52 49.3 1895.77 49.3C1897.27 49.3 1898.5 48.95 1899.45 48.25C1900.45 47.55 1901.22 46.675 1901.77 45.625C1902.37 44.525 1902.77 43.3 1902.97 41.95C1903.22 40.6 1903.35 39.25 1903.35 37.9C1903.35 34.2 1902.37 31.475 1900.42 29.725C1898.47 27.925 1895.92 27.025 1892.77 27.025H1862.62V18.625H1892.25C1896.3 18.625 1899.62 19.2 1902.22 20.35C1904.87 21.5 1906.95 23 1908.45 24.85C1910 26.65 1911.07 28.675 1911.67 30.925C1912.27 33.175 1912.57 35.4 1912.57 37.6ZM1964.55 40.15C1964.55 41.95 1964.25 43.725 1963.65 45.475C1963.1 47.225 1962.4 48.875 1961.55 50.425C1960.7 51.925 1959.77 53.3 1958.77 54.55C1957.82 55.8 1956.92 56.8 1956.07 57.55L1949.25 52.225C1949.85 51.825 1950.52 51.175 1951.27 50.275C1952.02 49.375 1952.72 48.35 1953.37 47.2C1954.02 46.05 1954.57 44.8 1955.02 43.45C1955.47 42.05 1955.7 40.675 1955.7 39.325C1955.7 38.075 1955.5 36.75 1955.1 35.35C1954.7 33.95 1954.02 32.65 1953.07 31.45C1952.12 30.25 1950.85 29.25 1949.25 28.45C1947.7 27.65 1945.72 27.25 1943.32 27.25C1941.27 27.25 1939.37 27.5 1937.62 28C1935.87 28.45 1934.35 29.175 1933.05 30.175C1931.8 31.125 1930.8 32.35 1930.05 33.85C1929.35 35.3 1929 37.025 1929 39.025C1929 41.775 1929.6 44.35 1930.8 46.75C1932.05 49.15 1933.6 50.975 1935.45 52.225L1928.25 57.55C1927.5 57.15 1926.62 56.45 1925.62 55.45C1924.67 54.45 1923.75 53.225 1922.85 51.775C1922 50.325 1921.25 48.675 1920.6 46.825C1920 44.975 1919.7 42.95 1919.7 40.75C1919.7 39.1 1919.77 37.625 1919.92 36.325C1920.12 35.025 1920.42 33.8 1920.82 32.65C1921.22 31.5 1921.75 30.425 1922.4 29.425C1923.1 28.375 1923.97 27.325 1925.02 26.275C1923.97 25.425 1923.17 24.375 1922.62 23.125C1922.12 21.875 1921.87 20.675 1921.87 19.525C1921.87 17.525 1922.32 15.8 1923.22 14.35C1924.12 12.85 1925.35 11.625 1926.9 10.675C1928.45 9.725 1930.25 9.025 1932.3 8.575C1934.4 8.125 1936.62 7.9 1938.97 7.9C1943.07 7.9 1946.45 8.6 1949.1 10C1951.8 11.35 1953.92 12.975 1955.47 14.875C1957.07 16.775 1958.2 18.775 1958.85 20.875C1959.5 22.925 1959.85 24.625 1959.9 25.975C1960.65 26.925 1961.3 27.9 1961.85 28.9C1962.45 29.85 1962.95 30.9 1963.35 32.05C1963.75 33.15 1964.05 34.375 1964.25 35.725C1964.45 37.025 1964.55 38.5 1964.55 40.15ZM1949.77 20.725C1948.47 19.075 1946.97 17.9 1945.27 17.2C1943.57 16.45 1941.67 16.075 1939.57 16.075C1938.67 16.075 1937.75 16.15 1936.8 16.3C1935.9 16.4 1935.07 16.6 1934.32 16.9C1933.57 17.2 1932.95 17.625 1932.45 18.175C1931.95 18.675 1931.7 19.325 1931.7 20.125C1931.7 20.525 1931.7 20.825 1931.7 21.025C1931.75 21.175 1931.8 21.425 1931.85 21.775C1933.95 21.025 1935.87 20.525 1937.62 20.275C1939.37 20.025 1941.15 19.9 1942.95 19.9C1944.35 19.9 1945.5 19.975 1946.4 20.125C1947.35 20.275 1948.47 20.475 1949.77 20.725ZM2024.11 14.2C2024.11 15.85 2023.94 17.3 2023.59 18.55C2023.24 19.75 2022.76 20.825 2022.16 21.775C2021.56 22.675 2020.86 23.45 2020.06 24.1C2019.26 24.7 2018.44 25.2 2017.59 25.6C2019.34 27.15 2020.59 28.775 2021.34 30.475C2022.09 32.175 2022.46 34.35 2022.46 37C2022.46 43.55 2020.34 48.625 2016.09 52.225C2011.89 55.825 2005.84 57.625 1997.94 57.625C1994.49 57.625 1991.34 57.175 1988.49 56.275C1985.69 55.375 1983.26 54.1 1981.21 52.45C1979.21 50.8 1977.66 48.825 1976.56 46.525C1975.46 44.175 1974.91 41.575 1974.91 38.725C1974.91 37.575 1975.01 36.425 1975.21 35.275C1975.46 34.075 1975.79 32.95 1976.19 31.9C1976.64 30.8 1977.14 29.825 1977.69 28.975C1978.29 28.075 1978.94 27.35 1979.64 26.8H1976.49C1975.54 26.8 1974.64 26.85 1973.79 26.95C1972.99 27.05 1972.41 27.325 1972.06 27.775V18.1C1972.41 18.3 1972.69 18.45 1972.89 18.55C1973.14 18.6 1973.49 18.625 1973.94 18.625H2011.21C2012.46 18.625 2013.39 18.3 2013.99 17.65C2014.59 16.95 2014.89 15.7 2014.89 13.9C2014.89 13 2014.71 12.075 2014.36 11.125C2014.01 10.125 2013.39 9.35 2012.49 8.8L2020.29 4.225C2021.49 5.025 2022.41 6.375 2023.06 8.275C2023.76 10.125 2024.11 12.1 2024.11 14.2ZM2012.86 37.6C2012.86 35.6 2012.51 33.925 2011.81 32.575C2011.16 31.175 2010.26 30.05 2009.11 29.2C2007.96 28.35 2006.61 27.75 2005.06 27.4C2003.51 27 2001.86 26.8 2000.11 26.8C1990.21 26.8 1985.26 30.55 1985.26 38.05C1985.26 39.5 1985.56 40.875 1986.16 42.175C1986.81 43.475 1987.71 44.6 1988.86 45.55C1990.06 46.5 1991.49 47.25 1993.14 47.8C1994.84 48.35 1996.71 48.625 1998.76 48.625C2001.16 48.625 2003.24 48.325 2004.99 47.725C2006.79 47.075 2008.26 46.25 2009.41 45.25C2010.61 44.2 2011.49 43.025 2012.04 41.725C2012.59 40.375 2012.86 39 2012.86 37.6ZM2050.96 37.825C2050.56 50.375 2044.53 56.975 2032.88 57.625C2026.78 57.625 2021.73 55.7 2017.73 51.85L2019.23 41.8C2022.98 46.45 2027.33 48.775 2032.28 48.775C2035.18 48.775 2037.38 48.025 2038.88 46.525C2040.38 45.025 2041.23 42.65 2041.43 39.4C2041.43 32 2038.31 28.025 2032.06 27.475C2031.46 27.475 2030.98 27.525 2030.63 27.625C2030.28 27.725 2029.86 27.925 2029.36 28.225V18.85C2029.91 18.75 2030.36 18.7 2030.71 18.7C2031.11 18.65 2031.66 18.625 2032.36 18.625C2038.71 18.625 2043.38 20.225 2046.38 23.425C2049.43 26.575 2050.96 31.375 2050.96 37.825ZM2060 49.075H2075.9V64H2060V49.075Z" fill="black"/>
</svg>
