<svg width="1875" height="89" viewBox="0 0 1875 89" fill="none" xmlns="http://www.w3.org/2000/svg">
<path d="M16.85 17.55L16.475 10.8C41.375 11.925 51.95 29.1 51.95 42.45C51.95 51.15 47.45 58.125 39.8 58.125C33.95 58.125 28.7 54 27.05 46.05H26.75C24.95 53.325 19.775 58.125 13.025 58.125C4.025 58.125 0.125 49.65 0.125 42.825C0.125 35.925 4.175 29.775 10.775 29.775C15.35 29.775 19.175 32.7 19.175 37.125C19.175 40.125 17.375 42.975 14.45 45.15L12.95 44.025C14 42.9 14.525 41.55 14.525 40.35C14.525 37.95 12.425 35.925 9.35 35.925C5.45 35.925 2.9 39.225 2.9 42.75C2.9 46.275 5.675 49.95 12.8 49.95C20.15 49.95 25.1 45.975 26.3 37.95H27.5C28.325 44.4 32.15 49.8 38.825 49.8C44.975 49.8 48.5 45.3 48.5 39.6C48.5 30.3 39.05 18.225 16.85 17.55ZM122.03 22.5H103.805C106.355 25.5 108.68 29.85 108.68 35.85C108.68 45.225 103.205 58.125 85.6555 58.125C66.5305 58.125 61.7305 42.825 61.7305 33.3C61.7305 23.625 66.7555 15.15 73.6555 15.15C79.4305 15.15 82.3555 21 82.3555 26.925C82.3555 33.525 78.6805 36.9 74.2555 36.9C70.2805 36.9 66.3055 34.05 65.4805 27.9H65.2555C64.7305 29.475 64.5805 31.35 64.5805 32.775C64.5805 42.375 71.4055 49.8 85.2805 49.8C99.6055 49.8 105.755 41.85 105.755 34.275C105.755 29.25 103.055 23.025 94.2055 22.5L93.8305 15.9H121.655C138.905 15.9 145.955 27 145.955 37.8C145.955 48.15 139.505 58.125 128.855 58.125C120.755 58.125 115.28 52.35 115.28 44.4C115.28 36.45 120.755 32.175 126.68 32.175C131.555 32.175 134.33 35.025 134.33 38.925C134.33 42.675 131.705 44.55 129.08 44.55C126.08 44.55 124.355 42.225 124.355 39.75C124.355 38.175 125.03 36.6 126.53 35.4C126.005 35.325 125.78 35.325 125.405 35.325C120.605 35.325 117.755 38.85 117.755 43.35C117.755 47.25 119.93 52.425 128.555 52.425C138.155 52.425 143.03 46.05 143.03 38.85C143.03 30.675 136.73 22.5 122.03 22.5ZM73.2055 21.675C70.3555 21.675 68.2555 22.95 66.8305 24.975C67.6555 29.325 70.5055 31.35 74.1805 31.35C77.6305 31.35 79.6555 29.55 79.6555 27C79.6555 24.225 77.2555 21.675 73.2055 21.675ZM131.591 79.425L129.116 80.475C127.616 77.85 126.716 74.775 126.716 71.85C126.716 65.85 130.391 61.125 136.016 61.125C139.991 61.125 143.366 63.3 145.091 69.075H145.316C146.591 64.5 149.216 61.125 154.316 61.125C160.166 61.125 163.691 65.625 163.691 71.625C163.691 74.7 162.791 77.85 161.291 80.475L158.891 79.425C159.641 77.925 160.166 75.9 160.166 74.1C160.166 70.35 158.066 67.65 153.866 67.65C148.991 67.65 146.516 71.55 145.916 75.975H144.491C143.291 69.825 140.591 67.65 136.766 67.65C132.341 67.65 130.316 70.65 130.316 74.325C130.316 76.125 130.841 78 131.591 79.425ZM192.755 15.9C199.955 15.9 202.055 12.9 202.055 9.675C202.055 7.05 200.63 4.35 198.38 2.475L199.955 0.974997C203.48 3.525 205.73 7.125 205.73 11.85C205.73 15.975 204.005 22.275 192.23 22.5C200.255 26.775 205.805 35.325 205.805 44.025C205.805 53.25 199.655 58.125 193.58 58.125C188.705 58.125 183.08 54.9 181.28 46.8H180.98C179.18 54 174.455 58.125 168.68 58.125C161.48 58.125 156.23 51.675 156.23 43.5C156.23 35.025 161.78 26.7 169.805 22.5H156.605L156.23 15.9H192.755ZM201.755 40.35C201.755 31.65 191.105 22.2 181.13 22.2C171.68 22.2 160.505 30.675 160.505 40.5C160.505 46.275 164.255 49.8 169.58 49.8C175.055 49.8 179.48 45.975 180.53 38.7H181.73C182.555 44.85 186.53 49.8 192.68 49.8C198.605 49.8 201.755 45.15 201.755 40.35ZM241.791 15.9C248.991 15.9 251.091 12.9 251.091 9.675C251.091 7.05 249.666 4.35 247.416 2.475L248.991 0.974997C252.516 3.525 254.766 7.125 254.766 11.85C254.766 15.6 253.416 21.075 244.416 22.275C249.741 25.425 253.266 31.425 253.266 38.85V38.925C255.366 44.55 259.791 50.1 266.016 50.1C270.666 50.1 273.141 47.025 273.141 43.125C273.141 39.75 271.341 35.1 271.341 31.05C271.341 22.5 279.141 15.9 289.566 15.9C302.466 15.9 311.166 26.1 311.166 38.325C311.166 48.3 305.316 58.125 295.266 58.125C287.541 58.125 282.141 52.275 282.141 44.4C282.141 36.9 287.091 32.4 292.941 32.4C297.591 32.4 300.216 35.25 300.216 39.075C300.216 42.975 297.516 44.775 294.966 44.775C291.966 44.775 290.241 42.45 290.241 39.975C290.241 38.4 290.916 36.825 292.416 35.625C291.891 35.55 291.666 35.55 291.291 35.55C287.016 35.55 284.616 39.375 284.616 43.5C284.616 48.375 287.916 52.425 294.966 52.425C303.516 52.425 308.241 46.425 308.241 39.15C308.241 30.75 301.866 22.725 290.766 22.725C282.066 22.725 274.791 27.675 274.791 35.925C274.791 39.75 276.366 43.875 276.366 47.925C276.366 54.9 271.716 58.125 267.216 58.125C262.266 58.125 256.116 54.3 253.041 43.875H252.666C250.641 52.2 243.741 58.125 235.266 58.125C224.766 58.125 216.666 50.025 216.666 38.85C216.666 31.35 220.266 25.65 225.366 22.5H215.541L215.166 15.9H241.791ZM235.116 22.275C227.166 22.275 220.641 28.65 220.641 36.3C220.641 44.175 226.341 49.8 235.041 49.8C243.066 49.8 249.366 44.25 249.366 36.45C249.366 28.65 243.216 22.275 235.116 22.275ZM364.047 34.575H362.847C361.422 26.925 357.747 22.5 352.047 22.5C346.872 22.5 342.597 26.175 342.597 31.875C342.597 34.35 343.422 37.125 344.922 39.375L342.747 40.65C340.347 37.125 339.072 32.85 339.072 28.875C339.072 21.6 343.272 15.15 350.847 15.15C356.772 15.15 361.122 19.05 363.297 26.475H363.597C365.322 19.8 369.522 15.15 376.197 15.15C384.672 15.15 388.572 22.725 388.572 31.05C388.572 35.4 387.522 39.9 385.647 44.025C389.472 47.325 391.497 51.675 391.497 55.8C391.497 59.7 389.697 63.075 386.322 65.925L381.597 62.175C385.272 59.025 387.447 56.1 387.447 52.725C387.447 50.4 386.322 48.225 384.447 46.35C380.622 53.1 374.397 58.125 366.822 58.125C359.472 58.125 354.972 53.325 354.972 48.15C354.972 43.275 358.872 38.55 369.297 38.55C374.622 38.55 379.122 39.825 382.572 41.85C384.597 38.85 385.722 35.4 385.722 32.1C385.722 26.85 382.872 22.5 376.422 22.5C369.147 22.5 364.947 28.05 364.047 34.575ZM366.597 50.475C372.522 50.475 377.547 47.775 380.997 43.875C377.772 42.15 373.647 41.1 369.222 41.1C362.247 41.1 359.022 43.65 359.022 46.2C359.022 48.45 361.497 50.475 366.597 50.475ZM425.336 15.9C432.536 15.9 434.636 12.9 434.636 9.675C434.636 7.05 433.211 4.35 430.961 2.475L432.536 0.974997C436.061 3.525 438.311 7.125 438.311 11.85C438.311 15.6 436.961 21.075 427.961 22.275C433.286 25.425 436.811 31.425 436.811 38.85V38.925C439.436 45.9 444.161 49.8 450.161 49.8C456.161 49.8 459.086 45.225 459.086 39.6C459.086 33.15 455.261 25.575 445.586 22.2C444.761 21.6 444.236 20.325 444.236 19.2C444.236 17.925 444.911 17.025 445.961 17.025C449.711 17.025 462.836 28.125 462.836 43.125C462.836 50.85 459.386 58.125 451.436 58.125C445.136 58.125 438.836 52.2 436.586 43.875H436.211C434.186 52.2 427.286 58.125 418.811 58.125C408.311 58.125 400.211 50.025 400.211 38.85C400.211 31.35 403.811 25.65 408.911 22.5H399.086L398.711 15.9H425.336ZM418.661 22.275C410.711 22.275 404.186 28.65 404.186 36.3C404.186 44.175 409.886 49.8 418.586 49.8C426.611 49.8 432.911 44.25 432.911 36.45C432.911 28.65 426.761 22.275 418.661 22.275ZM508.378 17.55L508.003 10.8C532.903 11.925 543.478 29.1 543.478 42.45C543.478 51.15 538.978 58.125 531.328 58.125C525.478 58.125 520.228 54 518.578 46.05H518.278C516.478 53.325 511.303 58.125 504.553 58.125C495.553 58.125 491.653 49.65 491.653 42.825C491.653 35.925 495.703 29.775 502.303 29.775C506.878 29.775 510.703 32.7 510.703 37.125C510.703 40.125 508.903 42.975 505.978 45.15L504.478 44.025C505.528 42.9 506.053 41.55 506.053 40.35C506.053 37.95 503.953 35.925 500.878 35.925C496.978 35.925 494.428 39.225 494.428 42.75C494.428 46.275 497.203 49.95 504.328 49.95C511.678 49.95 516.628 45.975 517.828 37.95H519.028C519.853 44.4 523.678 49.8 530.353 49.8C536.503 49.8 540.028 45.3 540.028 39.6C540.028 30.3 530.578 18.225 508.378 17.55ZM570.134 58.125C558.809 58.125 552.884 47.775 552.884 37.425C552.884 27.675 558.134 17.775 569.384 17.775C580.934 17.775 586.334 28.275 586.334 38.4C586.334 48.375 581.084 58.125 570.134 58.125ZM569.759 25.2C562.034 25.2 555.734 30.075 555.734 37.725C555.734 44.925 561.284 49.875 569.534 49.875C577.559 49.875 583.484 45.15 583.484 37.65C583.484 30.225 577.559 25.2 569.759 25.2ZM648.923 22.5H626.723C629.198 24 630.923 27.3 630.923 30.975C630.923 31.35 630.923 31.65 630.848 32.025C633.923 34.65 635.498 38.25 635.498 41.925C635.498 49.8 628.748 58.125 616.748 58.125C606.998 58.125 597.923 52.65 595.373 39.75L597.548 39.225C600.248 46.5 607.898 49.95 616.598 49.95C627.098 49.95 632.123 45 632.123 39.975C632.123 38.25 631.448 36.45 630.248 34.95C628.298 40.2 622.523 42.825 617.348 42.825C611.573 42.825 606.323 39.675 606.323 35.1C606.323 30.525 611.423 27.975 618.398 27.975C622.298 27.975 625.523 28.8 628.073 30.075V30C628.073 25.875 624.548 22.425 619.448 22.425H597.698L597.323 15.9H648.548C665.798 15.9 672.848 27 672.848 37.8C672.848 48.15 666.398 58.125 655.748 58.125C647.648 58.125 642.173 52.35 642.173 44.4C642.173 36.45 647.648 32.175 653.573 32.175C658.448 32.175 661.223 35.025 661.223 38.925C661.223 42.675 658.598 44.55 655.973 44.55C652.973 44.55 651.248 42.225 651.248 39.75C651.248 38.175 651.923 36.6 653.423 35.4C652.898 35.325 652.673 35.325 652.298 35.325C647.498 35.325 644.648 38.85 644.648 43.35C644.648 47.25 646.823 52.425 655.448 52.425C665.048 52.425 669.923 46.05 669.923 38.85C669.923 30.675 663.623 22.5 648.923 22.5ZM616.898 37.725C621.398 37.725 625.973 36.15 627.473 32.7C625.223 31.35 622.223 30.45 618.473 30.45C612.248 30.45 609.323 32.7 609.323 34.5C609.323 36.45 612.923 37.725 616.898 37.725ZM719.66 15.9C726.86 15.9 728.96 12.9 728.96 9.675C728.96 7.05 727.535 4.35 725.285 2.475L726.86 0.974997C730.385 3.525 732.635 7.125 732.635 11.85C732.635 15.975 730.91 22.275 719.135 22.5C727.16 26.775 732.71 35.325 732.71 44.025C732.71 53.25 726.56 58.125 720.485 58.125C715.61 58.125 709.985 54.9 708.185 46.8H707.885C706.085 54 701.36 58.125 695.585 58.125C688.385 58.125 683.135 51.675 683.135 43.5C683.135 35.025 688.685 26.7 696.71 22.5H683.51L683.135 15.9H719.66ZM728.66 40.35C728.66 31.65 718.01 22.2 708.035 22.2C698.585 22.2 687.41 30.675 687.41 40.5C687.41 46.275 691.16 49.8 696.485 49.8C701.96 49.8 706.385 45.975 707.435 38.7H708.635C709.46 44.85 713.435 49.8 719.585 49.8C725.51 49.8 728.66 45.15 728.66 40.35ZM768.695 15.9C775.895 15.9 777.995 12.9 777.995 9.675C777.995 7.05 776.57 4.35 774.32 2.475L775.895 0.974997C779.42 3.525 781.67 7.125 781.67 11.85C781.67 15.6 780.32 21.075 771.32 22.275C776.645 25.425 780.17 31.425 780.17 38.85V38.925C782.795 45.9 787.52 49.8 793.52 49.8C799.52 49.8 802.445 45.225 802.445 39.6C802.445 33.15 798.62 25.575 788.945 22.2C788.12 21.6 787.595 20.325 787.595 19.2C787.595 17.925 788.27 17.025 789.32 17.025C793.07 17.025 806.195 28.125 806.195 43.125C806.195 50.85 802.745 58.125 794.795 58.125C788.495 58.125 782.195 52.2 779.945 43.875H779.57C777.545 52.2 770.645 58.125 762.17 58.125C751.67 58.125 743.57 50.025 743.57 38.85C743.57 31.35 747.17 25.65 752.27 22.5H742.445L742.07 15.9H768.695ZM762.02 22.275C754.07 22.275 747.545 28.65 747.545 36.3C747.545 44.175 753.245 49.8 761.945 49.8C769.97 49.8 776.27 44.25 776.27 36.45C776.27 28.65 770.12 22.275 762.02 22.275ZM859.238 34.575H858.038C856.613 26.925 852.938 22.5 847.238 22.5C842.063 22.5 837.788 26.175 837.788 31.875C837.788 34.35 838.613 37.125 840.113 39.375L837.938 40.65C835.538 37.125 834.263 32.85 834.263 28.875C834.263 21.6 838.463 15.15 846.038 15.15C851.963 15.15 856.313 19.05 858.488 26.475H858.788C860.513 19.8 864.713 15.15 871.388 15.15C879.863 15.15 883.763 22.725 883.763 31.05C883.763 35.4 882.713 39.9 880.838 44.025C884.663 47.325 886.688 51.675 886.688 55.8C886.688 59.7 884.888 63.075 881.513 65.925L876.788 62.175C880.463 59.025 882.638 56.1 882.638 52.725C882.638 50.4 881.513 48.225 879.638 46.35C875.813 53.1 869.588 58.125 862.013 58.125C854.663 58.125 850.163 53.325 850.163 48.15C850.163 43.275 854.063 38.55 864.488 38.55C869.813 38.55 874.313 39.825 877.763 41.85C879.788 38.85 880.913 35.4 880.913 32.1C880.913 26.85 878.063 22.5 871.613 22.5C864.338 22.5 860.138 28.05 859.238 34.575ZM861.788 50.475C867.713 50.475 872.738 47.775 876.188 43.875C872.963 42.15 868.838 41.1 864.413 41.1C857.438 41.1 854.213 43.65 854.213 46.2C854.213 48.45 856.688 50.475 861.788 50.475ZM920.526 15.9C927.726 15.9 929.826 12.9 929.826 9.675C929.826 7.05 928.401 4.35 926.151 2.475L927.726 0.974997C931.251 3.525 933.501 7.125 933.501 11.85C933.501 15.6 932.151 21.075 923.151 22.275C928.476 25.425 932.001 31.425 932.001 38.85V38.925C934.626 45.9 939.351 49.8 945.351 49.8C951.351 49.8 954.276 45.225 954.276 39.6C954.276 33.15 950.451 25.575 940.776 22.2C939.951 21.6 939.426 20.325 939.426 19.2C939.426 17.925 940.101 17.025 941.151 17.025C944.901 17.025 958.026 28.125 958.026 43.125C958.026 50.85 954.576 58.125 946.626 58.125C940.326 58.125 934.026 52.2 931.776 43.875H931.401C929.376 52.2 922.476 58.125 914.001 58.125C903.501 58.125 895.401 50.025 895.401 38.85C895.401 31.35 899.001 25.65 904.101 22.5H894.276L893.901 15.9H920.526ZM913.851 22.275C905.901 22.275 899.376 28.65 899.376 36.3C899.376 44.175 905.076 49.8 913.776 49.8C921.801 49.8 928.101 44.25 928.101 36.45C928.101 28.65 921.951 22.275 913.851 22.275ZM1003.57 17.55L1003.19 10.8C1028.09 11.925 1038.67 29.1 1038.67 42.45C1038.67 51.15 1034.17 58.125 1026.52 58.125C1020.67 58.125 1015.42 54 1013.77 46.05H1013.47C1011.67 53.325 1006.49 58.125 999.744 58.125C990.744 58.125 986.844 49.65 986.844 42.825C986.844 35.925 990.894 29.775 997.494 29.775C1002.07 29.775 1005.89 32.7 1005.89 37.125C1005.89 40.125 1004.09 42.975 1001.17 45.15L999.669 44.025C1000.72 42.9 1001.24 41.55 1001.24 40.35C1001.24 37.95 999.144 35.925 996.069 35.925C992.169 35.925 989.619 39.225 989.619 42.75C989.619 46.275 992.394 49.95 999.519 49.95C1006.87 49.95 1011.82 45.975 1013.02 37.95H1014.22C1015.04 44.4 1018.87 49.8 1025.54 49.8C1031.69 49.8 1035.22 45.3 1035.22 39.6C1035.22 30.3 1025.77 18.225 1003.57 17.55ZM1065.32 58.125C1054 58.125 1048.07 47.775 1048.07 37.425C1048.07 27.675 1053.32 17.775 1064.57 17.775C1076.12 17.775 1081.52 28.275 1081.52 38.4C1081.52 48.375 1076.27 58.125 1065.32 58.125ZM1064.95 25.2C1057.22 25.2 1050.92 30.075 1050.92 37.725C1050.92 44.925 1056.47 49.875 1064.72 49.875C1072.75 49.875 1078.67 45.15 1078.67 37.65C1078.67 30.225 1072.75 25.2 1064.95 25.2ZM1116.73 46.8H1116.43C1114.63 54 1109.9 58.125 1104.13 58.125C1096.93 58.125 1091.68 51.675 1091.68 43.5C1091.68 35.025 1097.23 26.7 1105.25 22.5H1092.05L1091.68 15.9H1128.28C1135.4 15.9 1137.65 12.975 1137.65 9.375C1137.65 5.25 1134.58 2.55 1131.05 2.55C1130.3 2.55 1129.48 2.7 1128.73 2.925C1130.9 3.6 1131.73 5.25 1131.73 6.825C1131.73 9.375 1129.7 10.95 1127.53 10.95C1125.35 10.95 1123.1 9.3 1123.1 6.45C1123.1 2.7 1126.85 0.374996 1130.98 0.374996C1137.05 0.374996 1141.25 5.4 1141.25 11.925C1141.25 18.6 1136.83 22.35 1127.68 22.5C1135.7 26.775 1141.25 35.325 1141.25 44.025C1141.25 53.25 1135.1 58.125 1129.03 58.125C1124.15 58.125 1118.53 54.9 1116.73 46.8ZM1137.2 40.35C1137.2 31.65 1126.55 22.2 1116.58 22.2C1107.13 22.2 1095.95 30.675 1095.95 40.5C1095.95 46.275 1099.7 49.8 1105.03 49.8C1110.5 49.8 1114.93 45.975 1115.98 38.7H1117.18C1118 44.85 1121.98 49.8 1128.13 49.8C1134.05 49.8 1137.2 45.15 1137.2 40.35ZM1167.79 58.125C1156.47 58.125 1150.54 47.775 1150.54 37.425C1150.54 27.675 1155.79 17.775 1167.04 17.775C1178.59 17.775 1183.99 28.275 1183.99 38.4C1183.99 48.375 1178.74 58.125 1167.79 58.125ZM1167.42 25.2C1159.69 25.2 1153.39 30.075 1153.39 37.725C1153.39 44.925 1158.94 49.875 1167.19 49.875C1175.22 49.875 1181.14 45.15 1181.14 37.65C1181.14 30.225 1175.22 25.2 1167.42 25.2ZM1243.72 44.025C1243.72 53.25 1237.57 58.125 1231.5 58.125C1226.77 58.125 1221.07 55.125 1219.2 46.8H1218.9C1217.1 54 1212.37 58.125 1206.6 58.125C1199.4 58.125 1194.15 51.675 1194.15 43.5C1194.15 36.75 1197.82 29.25 1204.87 24.375L1204.72 24.075C1203.97 24.225 1203.3 24.3 1202.7 24.3C1198.8 24.3 1196.17 21.675 1196.17 18.15C1196.17 13.2 1201.35 8.175 1211.55 8.175C1224.37 8.175 1232.55 16.2 1237.5 24.9C1241.25 31.575 1243.72 38.475 1243.72 44.025ZM1239.67 40.35C1239.67 31.65 1229.02 22.2 1219.05 22.2C1209.6 22.2 1198.42 30.675 1198.42 40.5C1198.42 46.275 1202.17 49.8 1207.5 49.8C1212.97 49.8 1217.4 45.975 1218.45 38.7H1219.65C1220.47 44.85 1224.45 49.8 1230.6 49.8C1236.52 49.8 1239.67 45.15 1239.67 40.35ZM1234.2 25.425L1234.5 25.2C1228.87 16.875 1222.95 11.7 1214.02 11.7C1207.72 11.7 1203.37 14.25 1203.37 17.775C1203.37 19.5 1204.42 21.45 1207.72 21.45C1210.95 21.45 1213.42 19.65 1218.82 19.65C1222.95 19.65 1228.35 20.7 1234.2 25.425ZM1280.38 15.9C1287.58 15.9 1289.68 12.9 1289.68 9.675C1289.68 7.05 1288.25 4.35 1286 2.475L1287.58 0.974997C1291.1 3.525 1293.35 7.125 1293.35 11.85C1293.35 15.825 1291.85 21.675 1281.43 22.425C1285.48 25.2 1288.63 30.225 1290.8 36.375C1293.5 42.75 1298.45 50.1 1305.13 50.1C1309.48 50.1 1312.03 47.025 1312.03 43.05C1312.03 39.75 1310.23 35.1 1310.23 31.05C1310.23 22.5 1318.03 15.9 1328.45 15.9C1341.35 15.9 1350.05 26.1 1350.05 38.325C1350.05 48.3 1344.2 58.125 1334.15 58.125C1326.43 58.125 1321.03 52.275 1321.03 44.4C1321.03 36.9 1325.98 32.4 1331.83 32.4C1336.48 32.4 1339.1 35.25 1339.1 39.075C1339.1 42.975 1336.4 44.775 1333.85 44.775C1330.85 44.775 1329.13 42.45 1329.13 39.975C1329.13 38.4 1329.8 36.825 1331.3 35.625C1330.78 35.55 1330.55 35.55 1330.18 35.55C1325.9 35.55 1323.5 39.375 1323.5 43.5C1323.5 48.375 1326.8 52.425 1333.85 52.425C1342.4 52.425 1347.13 46.425 1347.13 39.15C1347.13 30.75 1340.75 22.725 1329.65 22.725C1320.95 22.725 1313.68 27.675 1313.68 35.925C1313.68 39.75 1315.25 43.875 1315.25 47.925C1315.25 54.9 1310.6 58.125 1306.18 58.125C1302.05 58.125 1297.03 55.35 1293.65 46.35H1293.2C1293.8 49.875 1294.1 53.475 1294.18 57H1286.53C1286.08 38.1 1283.3 22.2 1274.3 22.2C1265.3 22.2 1262.53 38.1 1262.08 57H1254.2C1254.5 42.525 1258.93 28.125 1266.8 22.5H1254.88L1254.5 15.9H1280.38ZM1389.94 64.575L1387.84 66.675C1381.39 60.825 1378.31 54.15 1378.31 47.85C1378.31 40.8 1382.21 34.95 1388.36 34.95C1398.26 34.95 1398.86 49.8 1408.69 49.8C1413.11 49.8 1416.86 46.725 1416.86 37.875C1416.86 27.225 1411.46 14.25 1399.01 7.575L1398.79 7.8C1399.54 9.675 1399.99 11.475 1399.99 13.275C1399.99 17.625 1397.59 20.925 1393.16 20.925C1387.09 20.925 1383.86 14.625 1383.86 9.75C1383.86 5.325 1386.49 0.374996 1392.49 0.374996C1404.71 0.374996 1420.76 21 1420.76 41.55C1420.76 53.175 1415.59 58.125 1410.19 58.125C1400.66 58.125 1400.51 42.6 1390.01 42.6C1385.29 42.6 1382.74 45.75 1382.74 50.4C1382.74 55.125 1385.44 60.525 1389.94 64.575ZM1396.09 6.675C1395.04 6.15 1393.84 5.85 1392.56 5.85C1389.19 5.85 1386.49 7.8 1386.49 10.95C1386.49 13.875 1388.89 15.9 1392.04 15.9C1395.11 15.9 1397.44 13.95 1397.44 10.725C1397.44 9.9 1397.29 8.175 1396.09 6.675ZM1448.21 58.125C1448.81 59.175 1449.56 62.175 1449.56 64.05C1449.56 64.875 1449.41 65.475 1448.96 65.475C1448.43 65.475 1446.86 64.575 1445.88 63.975C1436.36 58.125 1428.26 47.025 1428.26 33C1428.26 20.55 1434.63 15.15 1440.63 15.15C1446.78 15.15 1450.08 20.85 1450.08 27C1450.08 33.45 1446.41 37.65 1442.13 37.65C1438.31 37.65 1433.88 34.275 1432.83 27.075L1432.38 27C1431.56 28.725 1431.11 30.975 1431.11 33.675C1431.11 44.775 1438.98 54.075 1448.21 58.125ZM1440.78 21.525C1438.53 21.525 1436.28 22.275 1434.48 24C1435.08 28.95 1438.01 32.1 1441.91 32.1C1445.36 32.1 1447.38 29.55 1447.38 27C1447.38 24.225 1444.91 21.525 1440.78 21.525ZM1476.92 22.425L1476.55 15.9H1503.25C1510.45 15.9 1512.55 12.9 1512.55 9.675C1512.55 7.05 1511.12 4.35 1508.87 2.475L1510.45 0.974997C1513.97 3.525 1516.22 7.125 1516.22 11.85C1516.22 16.05 1514.5 22.425 1502.05 22.425H1498.52C1499.35 23.25 1499.72 24.375 1499.72 25.5C1499.72 26.625 1499.35 27.675 1498.52 28.575H1514.5L1514.8 34.425H1504C1506.62 36.825 1508.35 40.425 1508.35 44.7C1508.35 52.275 1502.95 58.125 1495.67 58.125C1488.55 58.125 1482.85 52.575 1482.85 44.85C1482.85 40.35 1484.72 36.75 1487.57 34.425H1477.37L1477.07 28.575H1494.85C1496.2 28.05 1497.02 27.15 1497.02 25.575C1497.02 23.4 1495.37 22.425 1492.9 22.425H1476.92ZM1495.75 33.9C1490.72 33.9 1486.52 37.5 1486.52 42.225C1486.52 46.575 1490.2 49.95 1495.6 49.95C1500.85 49.95 1504.82 46.725 1504.82 42.15C1504.82 37.575 1500.92 33.9 1495.75 33.9ZM1554.09 22.35L1554.01 22.5C1559.34 25.8 1566.24 32.475 1566.24 43.575C1566.24 51.3 1562.94 58.125 1556.41 58.125C1546.66 58.125 1546.74 42.6 1536.16 42.6C1531.44 42.6 1528.89 45.75 1528.89 50.4C1528.89 55.125 1531.59 60.525 1536.09 64.575L1533.99 66.675C1527.54 60.825 1524.46 54.15 1524.46 47.85C1524.46 40.875 1528.29 34.95 1534.59 34.95C1544.41 34.95 1544.86 49.8 1554.91 49.8C1560.46 49.8 1562.26 45.225 1562.26 41.025C1562.26 32.025 1554.09 22.5 1542.69 22.5H1525.29L1524.91 15.9H1553.26C1560.46 15.9 1562.56 12.9 1562.56 9.675C1562.56 7.05 1561.14 4.35 1558.89 2.475L1560.46 0.974997C1564.21 3.675 1566.24 7.425 1566.24 11.85C1566.24 15.45 1564.81 21.975 1554.09 22.35ZM1586.88 79.425L1588.76 79.875C1587.93 86.025 1585.46 88.8 1581.86 88.8C1578.18 88.8 1575.78 85.95 1573.38 82.725C1570.23 85.125 1566.33 86.325 1562.66 86.325C1556.28 86.325 1551.71 82.65 1551.71 77.925C1551.71 73.5 1555.61 70.65 1560.63 70.65C1565.96 70.65 1569.48 73.8 1572.56 77.25C1575.33 75.15 1577.36 72 1577.36 67.5C1577.36 63.9 1576.23 60.3 1572.26 56.475C1571.66 55.8 1571.21 54.45 1571.21 53.325C1571.21 52.275 1571.66 51.6 1572.11 51.6C1573.31 51.6 1580.13 57.225 1580.13 68.175C1580.13 73.5 1578.33 77.625 1575.63 80.625C1577.51 82.425 1579.46 83.775 1581.78 83.775C1583.28 83.775 1585.76 83.175 1586.88 79.425ZM1562.13 80.475C1564.68 80.475 1567.68 79.875 1570.31 78.6C1567.76 75.675 1564.68 73.125 1560.41 73.125C1556.66 73.125 1554.71 75.15 1554.71 76.725C1554.71 78.6 1557.48 80.475 1562.13 80.475ZM1620.44 15.9C1627.64 15.9 1629.74 12.9 1629.74 9.675C1629.74 7.05 1628.32 4.35 1626.07 2.475L1627.64 0.974997C1631.17 3.525 1633.42 7.125 1633.42 11.85C1633.42 16.05 1631.69 22.5 1619.24 22.5H1618.64C1621.34 23.925 1623.82 25.95 1625.32 28.875C1629.67 31.125 1633.42 36.075 1633.42 44.025C1633.42 52.05 1628.17 58.125 1620.67 58.125C1615.19 58.125 1608.89 54.9 1606.87 46.8H1606.57C1604.77 54 1600.04 58.125 1594.27 58.125C1587.07 58.125 1581.82 51.675 1581.82 43.5C1581.82 35.025 1587.44 26.7 1595.47 22.5H1582.19L1581.82 15.9H1620.44ZM1629.59 40.575C1629.59 37.125 1628.24 34.35 1626.22 32.55C1626.29 33.075 1626.37 33.675 1626.37 34.425C1626.37 40.125 1622.69 42.675 1619.02 42.675C1615.12 42.675 1611.22 39.825 1611.22 34.875C1611.22 29.925 1615.04 27.375 1619.47 27.375C1620.07 27.375 1620.74 27.45 1621.42 27.525C1618.34 24.375 1612.72 22.275 1607.47 22.275C1596.89 22.275 1586.09 30.675 1586.09 40.5C1586.09 46.275 1589.84 49.8 1595.17 49.8C1600.64 49.8 1605.07 45.975 1606.12 38.7H1607.32C1608.29 44.85 1612.72 49.95 1619.84 49.95C1626.59 49.95 1629.59 45.375 1629.59 40.575ZM1623.52 33C1623.52 32.25 1623.37 31.35 1623.14 30.6C1622.09 30.15 1620.97 29.925 1619.84 29.925C1616.39 29.925 1614.22 31.95 1614.22 34.125C1614.22 36.225 1616.24 37.5 1618.57 37.5C1620.97 37.5 1623.52 36.075 1623.52 33ZM1708.88 22.5H1685.78L1685.7 22.65C1689.83 25.8 1695.38 32.85 1695.38 42.75C1695.38 51 1691.55 58.125 1683.68 58.125C1677.38 58.125 1672.43 53.625 1670.85 46.05H1670.55C1668.75 53.325 1663.58 58.125 1656.83 58.125C1647.83 58.125 1643.93 49.65 1643.93 42.825C1643.93 35.925 1647.98 29.775 1654.58 29.775C1659.15 29.775 1662.98 32.7 1662.98 37.125C1662.98 40.125 1661.18 42.975 1658.25 45.15L1656.75 44.025C1657.8 42.9 1658.33 41.55 1658.33 40.35C1658.33 37.95 1656.23 35.925 1653.15 35.925C1649.25 35.925 1646.7 39.225 1646.7 42.675C1646.7 46.275 1649.48 49.95 1656.6 49.95C1663.95 49.95 1668.9 45.975 1670.1 37.95H1671.3C1672.2 44.7 1676.1 49.8 1682.7 49.8C1688.93 49.8 1691.63 45.375 1691.63 39.9C1691.63 31.725 1685.18 22.5 1675.58 22.5H1646.18L1645.8 15.9H1708.5C1725.75 15.9 1732.8 27 1732.8 37.8C1732.8 48.15 1726.35 58.125 1715.7 58.125C1707.6 58.125 1702.13 52.35 1702.13 44.4C1702.13 36.45 1707.6 32.175 1713.53 32.175C1718.4 32.175 1721.18 35.025 1721.18 38.925C1721.18 42.675 1718.55 44.55 1715.93 44.55C1712.93 44.55 1711.2 42.225 1711.2 39.75C1711.2 38.175 1711.88 36.6 1713.38 35.4C1712.85 35.325 1712.63 35.325 1712.25 35.325C1707.45 35.325 1704.6 38.85 1704.6 43.35C1704.6 47.25 1706.78 52.425 1715.4 52.425C1725 52.425 1729.88 46.05 1729.88 38.85C1729.88 30.675 1723.58 22.5 1708.88 22.5ZM1762.39 22.2C1753.39 22.2 1750.61 38.1 1750.16 57H1742.29C1742.44 45.9 1745.81 30.525 1753.31 23.775L1753.16 23.475C1752.49 23.625 1751.44 23.7 1750.76 23.7C1746.86 23.7 1743.49 21.375 1743.49 17.4C1743.49 12.75 1747.99 8.25 1756.16 8.25C1763.29 8.25 1770.79 11.7 1776.26 24.975C1779.94 33.9 1782.19 46.275 1782.49 57H1774.61C1774.16 38.1 1771.39 22.2 1762.39 22.2ZM1772.89 25.5L1773.26 25.275C1769.51 16.875 1764.71 11.775 1758.11 11.775C1753.91 11.775 1750.46 13.875 1750.46 17.1C1750.46 18.9 1751.51 20.775 1754.74 20.775C1757.29 20.775 1759.09 19.65 1761.94 19.65C1763.44 19.65 1769.14 19.95 1772.89 25.5ZM1818.18 15.9C1825.38 15.9 1827.48 12.9 1827.48 9.675C1827.48 7.05 1826.06 4.35 1823.81 2.475L1825.38 0.974997C1828.91 3.525 1831.16 7.125 1831.16 11.85C1831.16 15.6 1829.81 21.075 1820.81 22.275C1826.13 25.425 1829.66 31.425 1829.66 38.85V38.925C1832.28 45.9 1837.01 49.8 1843.01 49.8C1849.01 49.8 1851.93 45.225 1851.93 39.6C1851.93 33.15 1848.11 25.575 1838.43 22.2C1837.61 21.6 1837.08 20.325 1837.08 19.2C1837.08 17.925 1837.76 17.025 1838.81 17.025C1842.56 17.025 1855.68 28.125 1855.68 43.125C1855.68 50.85 1852.23 58.125 1844.28 58.125C1837.98 58.125 1831.68 52.2 1829.43 43.875H1829.06C1827.03 52.2 1820.13 58.125 1811.66 58.125C1801.16 58.125 1793.06 50.025 1793.06 38.85C1793.06 31.35 1796.66 25.65 1801.76 22.5H1791.93L1791.56 15.9H1818.18ZM1811.51 22.275C1803.56 22.275 1797.03 28.65 1797.03 36.3C1797.03 44.175 1802.73 49.8 1811.43 49.8C1819.46 49.8 1825.76 44.25 1825.76 36.45C1825.76 28.65 1819.61 22.275 1811.51 22.275ZM1863.51 52.35C1863.51 49.275 1865.91 46.8 1868.91 46.8C1872.29 46.8 1874.54 49.425 1874.54 52.35C1874.54 55.35 1872.29 57.9 1868.91 57.9C1865.91 57.9 1863.51 55.5 1863.51 52.35Z" fill="black"/>
</svg>
