<svg width="2219" height="78" viewBox="0 0 2219 78" fill="none" xmlns="http://www.w3.org/2000/svg">
<path d="M34.025 49.55L34.55 48.95C35.65 48.95 36.625 48.675 37.475 48.125C38.325 47.575 39.025 46.85 39.575 45.95C40.125 45.05 40.525 44.05 40.775 42.95C41.075 41.85 41.225 40.775 41.225 39.725C41.225 37.425 40.8 35.45 39.95 33.8C39.1 32.15 37.975 30.775 36.575 29.675C35.175 28.525 33.6 27.625 31.85 26.975C30.1 26.275 28.325 25.75 26.525 25.4C25.025 25.15 23.65 24.925 22.4 24.725C21.15 24.475 20.025 24.35 19.025 24.35C17.825 24.35 17.075 24.375 16.775 24.425C16.475 24.425 16.1 24.45 15.65 24.5L24.725 16.775C27.625 16.825 30.65 17.325 33.8 18.275C36.95 19.225 39.825 20.55 42.425 22.25C45.025 23.9 47.15 25.9 48.8 28.25C50.5 30.6 51.35 33.2 51.35 36.05C51.35 36.7 51.275 37.5 51.125 38.45C50.975 39.35 50.725 40.325 50.375 41.375C50.025 42.375 49.575 43.375 49.025 44.375C48.525 45.325 47.9 46.175 47.15 46.925C42.5 52.275 37.125 55.175 31.025 55.625C28.525 55.575 26.925 55.35 26.225 54.95C25.375 54.4 24.625 53.775 23.975 53.075C23.375 52.375 22.8 51.725 22.25 51.125C21.75 50.525 21.25 50.025 20.75 49.625C20.3 49.175 19.825 48.95 19.325 48.95C18.375 48.95 17.575 49.3 16.925 50C16.325 50.7 15.7 51.475 15.05 52.325C14.4 53.125 13.65 53.875 12.8 54.575C12 55.275 10.925 55.625 9.575 55.625C8.425 55.625 7.3 55.35 6.2 54.8C5.15 54.2 4.2 53.45 3.35 52.55C2.5 51.65 1.8 50.625 1.25 49.475C0.75 48.325 0.5 47.175 0.5 46.025C0.5 44.325 0.925 42.65 1.775 41C2.675 39.35 3.75 37.9 5 36.65C6.3 35.35 7.7 34.325 9.2 33.575C10.7 32.775 12.075 32.375 13.325 32.375L18.65 39.8C15.3 40.7 13.3 42.3 12.65 44.6C12.65 44.85 12.725 45.1 12.875 45.35C13.025 45.6 13.3 45.725 13.7 45.725C14.45 45.725 15.225 45.425 16.025 44.825C16.825 44.175 17.625 43.475 18.425 42.725C19.275 41.925 20.175 41.225 21.125 40.625C22.075 39.975 23.075 39.65 24.125 39.65C25.375 39.65 26.375 40.15 27.125 41.15C27.875 42.1 28.55 43.15 29.15 44.3C29.8 45.45 30.5 46.525 31.25 47.525C32 48.475 33.025 48.95 34.325 48.95L34.025 49.55ZM110.589 25.775C110.989 26.725 111.314 27.725 111.564 28.775C111.814 29.775 111.939 30.85 111.939 32C111.939 34.8 111.189 37.6 109.689 40.4C108.239 43.2 106.214 45.725 103.614 47.975C101.064 50.225 98.0389 52.075 94.5389 53.525C91.0889 54.925 87.3889 55.625 83.4389 55.625C80.2389 55.625 77.2389 55.2 74.4389 54.35C71.6389 53.45 69.1889 52.225 67.0889 50.675C64.9889 49.125 63.3389 47.275 62.1389 45.125C60.9389 42.925 60.3389 40.5 60.3389 37.85C60.3389 35.4 60.6889 33.175 61.3889 31.175C62.1389 29.125 63.1139 27.325 64.3139 25.775C65.5139 24.175 66.8639 22.8 68.3639 21.65C69.8639 20.5 71.3889 19.55 72.9389 18.8C74.4889 18.05 75.9889 17.5 77.4389 17.15C78.8889 16.75 80.1389 16.55 81.1889 16.55C82.3889 16.55 83.3889 16.725 84.1889 17.075C85.0389 17.425 85.7139 17.875 86.2139 18.425C86.7639 18.975 87.1389 19.625 87.3389 20.375C87.5889 21.075 87.7139 21.825 87.7139 22.625C87.7139 24.975 87.0889 27.025 85.8389 28.775C84.5889 30.525 83.1139 32 81.4139 33.2C79.7639 34.35 78.0889 35.225 76.3889 35.825C74.6889 36.425 73.4139 36.725 72.5639 36.725C72.1139 36.725 71.7639 36.725 71.5139 36.725C71.2639 36.725 70.9139 36.7 70.4639 36.65C70.5139 38.3 71.0139 39.9 71.9639 41.45C72.9139 42.95 74.1889 44.275 75.7889 45.425C77.4389 46.575 79.3889 47.5 81.6389 48.2C83.8889 48.85 86.3639 49.175 89.0639 49.175C91.1639 49.175 93.0889 48.9 94.8389 48.35C96.6389 47.75 98.1889 46.925 99.4889 45.875C100.839 44.825 101.889 43.6 102.639 42.2C103.389 40.75 103.764 39.175 103.764 37.475C103.764 34.975 103.239 32.675 102.189 30.575C101.189 28.475 99.6389 26.875 97.5389 25.775H90.4889L96.9389 16.55H110.589V25.775ZM79.6139 28.25C79.6139 27.45 79.2389 26.775 78.4889 26.225C77.7889 25.625 76.9639 25.325 76.0139 25.325C75.1639 25.325 74.2889 25.5 73.3889 25.85C72.5389 26.15 72.1139 26.5 72.1139 26.9C72.1139 27.75 72.4639 28.45 73.1639 29C73.8639 29.55 74.7139 29.825 75.7139 29.825C76.5639 29.825 77.4139 29.675 78.2639 29.375C79.1639 29.075 79.6139 28.7 79.6139 28.25ZM149.385 32.375C149.385 35.225 148.835 38.05 147.735 40.85C146.635 43.6 145.16 46.075 143.31 48.275C141.46 50.475 139.36 52.25 137.01 53.6C134.66 54.95 132.21 55.625 129.66 55.625C127.91 55.625 126.335 55.325 124.935 54.725C123.585 54.075 122.41 53.225 121.41 52.175C120.46 51.075 119.735 49.8 119.235 48.35C118.735 46.85 118.485 45.275 118.485 43.625C118.485 34.125 123.26 29.075 132.81 28.475L135.135 40.175C134.235 39.925 133.435 39.8 132.735 39.8C131.835 39.8 130.91 40.025 129.96 40.475C129.06 40.925 128.61 41.7 128.61 42.8C128.61 43.55 128.81 44.275 129.21 44.975C129.61 45.675 130.135 46.275 130.785 46.775C131.435 47.275 132.16 47.675 132.96 47.975C133.81 48.275 134.635 48.425 135.435 48.425C136.085 48.425 136.735 48.275 137.385 47.975C138.085 47.625 138.71 47.1 139.26 46.4C139.86 45.7 140.335 44.8 140.685 43.7C141.085 42.55 141.285 41.175 141.285 39.575C141.285 37.825 141.085 36.15 140.685 34.55C140.335 32.9 139.86 31.45 139.26 30.2C138.66 28.9 137.985 27.875 137.235 27.125C136.535 26.325 135.835 25.875 135.135 25.775H97.335V16.625H138.135C139.685 16.625 141.135 17.025 142.485 17.825C143.835 18.575 145.01 19.65 146.01 21.05C147.06 22.45 147.885 24.125 148.485 26.075C149.085 27.975 149.385 30.075 149.385 32.375ZM157.217 66.425C156.367 66.425 155.692 66.75 155.192 67.4C154.692 68.05 154.242 68.75 153.842 69.5C153.442 70.25 152.992 70.95 152.492 71.6C151.992 72.25 151.317 72.575 150.467 72.575C149.767 72.575 149.117 72.35 148.517 71.9C147.867 71.5 147.267 71.05 146.717 70.55C146.167 70.05 145.642 69.575 145.142 69.125C144.592 68.725 144.067 68.525 143.567 68.525C143.317 68.525 143.142 68.6 143.042 68.75C142.942 68.95 142.892 69.125 142.892 69.275C143.342 70.825 144.667 71.9 146.867 72.5L143.342 77.375C142.492 77.375 141.592 77.1 140.642 76.55C139.642 76.05 138.717 75.375 137.867 74.525C137.017 73.725 136.317 72.775 135.767 71.675C135.167 70.625 134.867 69.525 134.867 68.375C134.867 67.575 135.042 66.8 135.392 66.05C135.742 65.3 136.192 64.625 136.742 64.025C137.292 63.425 137.942 62.925 138.692 62.525C139.392 62.175 140.117 62 140.867 62C141.767 62 142.492 62.225 143.042 62.675C143.592 63.125 144.092 63.625 144.542 64.175C144.942 64.775 145.342 65.3 145.742 65.75C146.142 66.2 146.667 66.425 147.317 66.425C147.667 66.425 147.992 66.275 148.292 65.975C148.592 65.725 148.917 65.4 149.267 65C149.617 64.6 150.017 64.175 150.467 63.725C150.867 63.275 151.342 62.85 151.892 62.45C152.242 62.25 153.292 62.1 155.042 62C156.342 62.1 157.717 62.425 159.167 62.975C160.617 63.575 161.967 64.35 163.217 65.3C164.517 66.3 165.617 67.475 166.517 68.825C167.467 70.175 168.067 71.675 168.317 73.325C168.367 73.625 168.392 74.075 168.392 74.675C168.442 75.325 168.467 76.125 168.467 77.075L161.792 74.6C161.792 73.55 161.767 72.675 161.717 71.975C161.667 71.325 161.592 70.775 161.492 70.325C161.392 69.925 161.267 69.575 161.117 69.275C161.017 68.975 160.867 68.675 160.667 68.375C160.267 67.825 159.792 67.35 159.242 66.95C158.692 66.6 158.067 66.425 157.367 66.425L157.067 66.05L157.217 66.425ZM215.538 34.475C215.538 37.175 214.888 39.8 213.588 42.35C212.338 44.9 210.763 47.15 208.863 49.1C207.013 51.05 204.988 52.625 202.788 53.825C200.588 55.025 198.588 55.625 196.788 55.625C194.938 55.625 193.413 55.3 192.213 54.65C191.013 53.95 189.963 53.2 189.063 52.4C188.213 51.6 187.413 50.875 186.663 50.225C185.963 49.525 185.163 49.175 184.263 49.175C183.413 49.175 182.663 49.525 182.013 50.225C181.363 50.875 180.713 51.6 180.063 52.4C179.463 53.2 178.813 53.95 178.113 54.65C177.413 55.3 176.588 55.625 175.638 55.625C173.888 55.625 172.313 55.225 170.913 54.425C169.513 53.575 168.313 52.525 167.313 51.275C166.313 50.025 165.538 48.65 164.988 47.15C164.488 45.6 164.238 44.1 164.238 42.65C164.238 39 165.263 35.75 167.313 32.9C169.363 30.05 171.938 27.675 175.038 25.775H162.438L169.863 16.55H208.788C209.688 16.55 210.388 16.4 210.888 16.1C211.438 15.8 211.713 15.35 211.713 14.75C211.713 11.95 209.113 9.7 203.913 8L211.338 0.649999C216.488 3.2 219.063 7.3 219.063 12.95C219.063 19.2 216.663 23.325 211.863 25.325C213.113 26.675 214.038 28.15 214.638 29.75C215.238 31.35 215.538 32.925 215.538 34.475ZM207.663 39.875C207.663 37.675 207.163 35.725 206.163 34.025C205.163 32.275 203.788 30.8 202.038 29.6C200.288 28.4 198.238 27.5 195.888 26.9C193.538 26.25 191.038 25.925 188.388 25.925C186.338 25.925 184.438 26.175 182.688 26.675C180.938 27.175 179.413 27.875 178.113 28.775C176.863 29.675 175.863 30.8 175.113 32.15C174.363 33.45 173.988 34.925 173.988 36.575C173.988 37.875 174.138 39.075 174.438 40.175C174.738 41.275 175.113 42.225 175.563 43.025C176.013 43.775 176.513 44.375 177.063 44.825C177.663 45.275 178.238 45.5 178.788 45.5C179.488 45.5 180.038 45.175 180.438 44.525C180.888 43.875 181.363 43.175 181.863 42.425C182.413 41.675 183.113 40.975 183.963 40.325C184.813 39.675 186.063 39.35 187.713 39.35C189.063 39.35 190.238 39.775 191.238 40.625C192.288 41.425 193.288 42.35 194.238 43.4C195.188 44.4 196.188 45.325 197.238 46.175C198.288 46.975 199.488 47.375 200.838 47.375C202.838 47.375 204.463 46.65 205.713 45.2C207.013 43.75 207.663 41.975 207.663 39.875ZM278.388 34.4C278.388 37 277.738 39.575 276.438 42.125C275.188 44.675 273.363 46.95 270.963 48.95C268.563 50.95 265.638 52.575 262.188 53.825C258.788 55.025 254.963 55.625 250.713 55.625C248.013 55.625 245.463 55.3 243.063 54.65C240.663 54 238.563 53.1 236.763 51.95C234.963 50.75 233.538 49.325 232.488 47.675C231.488 45.975 230.988 44.1 230.988 42.05C230.988 38.45 232.113 35.275 234.363 32.525C236.663 29.725 239.663 27.475 243.363 25.775H228.063L237.438 16.55H273.288C273.988 16.5 274.563 16.325 275.013 16.025C275.463 15.725 275.688 15.3 275.688 14.75C275.688 11.95 273.088 9.7 267.888 8L275.313 0.649999C280.463 3.2 283.038 7.3 283.038 12.95C283.038 19.75 280.113 24.075 274.263 25.925C275.563 26.825 276.563 27.95 277.263 29.3C278.013 30.6 278.388 32.3 278.388 34.4ZM270.138 38.75C270.138 37.2 269.688 35.75 268.788 34.4C267.938 33.05 266.763 31.9 265.263 30.95C263.763 29.95 261.988 29.175 259.938 28.625C257.938 28.075 255.788 27.8 253.488 27.8C251.638 27.8 249.913 28.025 248.313 28.475C246.713 28.925 245.313 29.575 244.113 30.425C242.913 31.225 241.963 32.2 241.263 33.35C240.563 34.45 240.213 35.675 240.213 37.025C240.213 38.875 240.813 40.5 242.013 41.9C243.213 43.25 244.713 44.375 246.513 45.275C248.313 46.175 250.263 46.85 252.363 47.3C254.463 47.75 256.438 47.975 258.288 47.975C261.988 47.975 264.888 47.15 266.988 45.5C269.088 43.8 270.138 41.55 270.138 38.75ZM341.054 34.1C341.054 36.9 340.479 39.575 339.329 42.125C338.179 44.625 336.629 46.85 334.679 48.8C332.779 50.7 330.529 52.225 327.929 53.375C325.379 54.525 322.679 55.1 319.829 55.1C316.329 55.1 313.754 54.225 312.104 52.475C310.454 50.675 309.629 48.425 309.629 45.725C310.079 34.975 315.129 29.6 324.779 29.6H326.129V41.45C325.679 41.35 325.254 41.275 324.854 41.225C324.504 41.125 324.129 41.075 323.729 41.075C323.379 41.075 322.979 41.125 322.529 41.225C322.129 41.325 321.729 41.475 321.329 41.675C320.929 41.875 320.579 42.15 320.279 42.5C320.029 42.8 319.904 43.15 319.904 43.55C319.904 43.9 319.979 44.325 320.129 44.825C320.329 45.275 320.629 45.725 321.029 46.175C321.479 46.575 322.029 46.925 322.679 47.225C323.329 47.525 324.129 47.675 325.079 47.675C326.279 47.675 327.304 47.425 328.154 46.925C329.004 46.375 329.679 45.675 330.179 44.825C330.729 43.925 331.104 42.95 331.304 41.9C331.554 40.8 331.679 39.675 331.679 38.525C331.679 37.025 331.479 35.7 331.079 34.55C330.679 33.35 330.154 32.225 329.504 31.175C327.954 28.625 325.779 26.8 322.979 25.7C320.179 24.55 316.379 23.975 311.579 23.975C310.279 23.975 308.904 24.1 307.454 24.35C306.004 24.55 304.654 24.875 303.404 25.325C302.154 25.775 301.129 26.3 300.329 26.9C299.529 27.5 299.129 28.175 299.129 28.925C299.129 29.525 299.604 30.175 300.554 30.875C301.554 31.575 302.654 32.375 303.854 33.275C305.054 34.175 306.129 35.2 307.079 36.35C308.079 37.45 308.579 38.725 308.579 40.175C308.579 42.425 307.879 44.5 306.479 46.4C305.129 48.25 303.379 49.875 301.229 51.275C299.129 52.625 296.804 53.7 294.254 54.5C291.754 55.25 289.354 55.625 287.054 55.625C285.754 55.625 284.454 55.475 283.154 55.175C281.854 54.875 280.604 54.475 279.404 53.975C278.204 53.425 277.079 52.775 276.029 52.025C274.979 51.275 274.104 50.475 273.404 49.625L277.679 39.725C277.679 40.575 278.354 41.45 279.704 42.35C281.054 43.2 282.704 43.975 284.654 44.675C286.554 45.325 288.554 45.875 290.654 46.325C292.754 46.725 294.554 46.925 296.054 46.925C296.504 46.925 296.979 46.875 297.479 46.775C298.029 46.675 298.529 46.525 298.979 46.325C299.429 46.125 299.804 45.9 300.104 45.65C300.404 45.35 300.554 45.025 300.554 44.675C300.554 43.975 300.254 43.35 299.654 42.8C299.104 42.2 298.404 41.65 297.554 41.15C296.704 40.6 295.754 40.05 294.704 39.5C293.704 38.9 292.779 38.25 291.929 37.55C291.079 36.85 290.354 36.075 289.754 35.225C289.204 34.325 288.929 33.3 288.929 32.15C288.929 30.2 289.704 28.3 291.254 26.45C292.854 24.6 294.904 22.95 297.404 21.5C299.954 20 302.829 18.8 306.029 17.9C309.229 17 312.454 16.55 315.704 16.55C319.954 16.55 323.654 17.025 326.804 17.975C330.004 18.925 332.654 20.2 334.754 21.8C336.854 23.4 338.429 25.275 339.479 27.425C340.529 29.525 341.054 31.75 341.054 34.1ZM428.314 56.675C428.814 55.825 429.064 54.575 429.064 52.925C429.064 51.825 428.914 50.775 428.614 49.775C428.364 48.725 427.839 47.925 427.039 47.375C424.189 50.325 420.939 52.375 417.289 53.525C413.689 54.625 410.089 55.175 406.489 55.175C404.389 55.175 402.314 54.9 400.264 54.35C398.214 53.8 396.364 53.075 394.714 52.175C393.114 51.225 391.789 50.125 390.739 48.875C389.739 47.575 389.239 46.2 389.239 44.75C389.239 43.8 389.664 42.675 390.514 41.375C391.414 40.075 392.764 38.825 394.564 37.625C396.364 36.425 398.639 35.4 401.389 34.55C404.139 33.7 407.389 33.275 411.139 33.275C414.589 33.275 417.739 33.675 420.589 34.475C423.439 35.275 425.714 36.225 427.414 37.325C427.414 37.175 427.414 37.05 427.414 36.95C427.464 36.8 427.489 36.65 427.489 36.5C427.489 35.25 427.114 33.925 426.364 32.525C425.664 31.075 424.764 29.75 423.664 28.55C422.564 27.35 421.339 26.375 419.989 25.625C418.639 24.825 417.339 24.425 416.089 24.425C415.639 24.425 415.239 24.6 414.889 24.95C414.539 25.3 414.214 25.725 413.914 26.225C413.664 26.725 413.464 27.275 413.314 27.875C413.214 28.425 413.164 28.95 413.164 29.45V29.975L403.939 32.75C403.939 31.8 403.689 30.825 403.189 29.825C402.739 28.775 402.114 27.825 401.314 26.975C400.564 26.125 399.689 25.425 398.689 24.875C397.739 24.325 396.789 24.05 395.839 24.05C395.139 24.05 394.689 24.375 394.489 25.025C394.339 25.625 394.264 26.225 394.264 26.825C394.264 27.275 394.389 27.65 394.639 27.95C394.889 28.25 395.189 28.525 395.539 28.775C395.939 28.975 396.339 29.125 396.739 29.225C397.189 29.325 397.589 29.375 397.939 29.375L388.789 36.125C387.389 36.125 386.289 35.6 385.489 34.55C384.689 33.45 384.289 32.275 384.289 31.025C384.289 29.975 384.614 28.875 385.264 27.725C385.964 26.575 386.839 25.475 387.889 24.425C388.989 23.375 390.189 22.375 391.489 21.425C392.789 20.475 394.039 19.65 395.239 18.95C396.439 18.2 397.514 17.625 398.464 17.225C399.464 16.825 400.189 16.625 400.639 16.625C401.389 16.625 402.264 16.775 403.264 17.075C404.314 17.325 405.339 17.725 406.339 18.275C407.339 18.825 408.239 19.5 409.039 20.3C409.889 21.05 410.514 21.9 410.914 22.85C412.664 21 414.364 19.5 416.014 18.35C417.664 17.15 419.089 16.55 420.289 16.55C422.539 16.55 424.639 17 426.589 17.9C428.539 18.75 430.214 19.925 431.614 21.425C433.064 22.925 434.189 24.675 434.989 26.675C435.839 28.675 436.264 30.775 436.264 32.975C436.264 34.625 436.114 36.025 435.814 37.175C435.514 38.325 434.939 39.625 434.089 41.075C434.689 41.625 435.339 42.325 436.039 43.175C436.739 44.025 437.389 45 437.989 46.1C438.589 47.15 439.064 48.35 439.414 49.7C439.814 51.05 440.014 52.5 440.014 54.05L428.314 56.675ZM424.339 44.675C424.339 44.525 423.839 44.2 422.839 43.7C421.889 43.2 420.589 42.7 418.939 42.2C417.339 41.65 415.514 41.175 413.464 40.775C411.414 40.325 409.339 40.1 407.239 40.1C406.439 40.1 405.564 40.15 404.614 40.25C403.664 40.3 402.789 40.45 401.989 40.7C401.189 40.9 400.514 41.2 399.964 41.6C399.414 41.95 399.139 42.4 399.139 42.95C399.139 43.75 399.589 44.45 400.489 45.05C401.389 45.65 402.514 46.175 403.864 46.625C405.214 47.025 406.689 47.325 408.289 47.525C409.939 47.725 411.489 47.825 412.939 47.825C414.339 47.825 415.714 47.725 417.064 47.525C418.464 47.325 419.689 47.075 420.739 46.775C421.839 46.475 422.714 46.15 423.364 45.8C424.014 45.4 424.339 45.025 424.339 44.675ZM499.36 34.4C499.36 37 498.71 39.575 497.41 42.125C496.16 44.675 494.335 46.95 491.935 48.95C489.535 50.95 486.61 52.575 483.16 53.825C479.76 55.025 475.935 55.625 471.685 55.625C468.985 55.625 466.435 55.3 464.035 54.65C461.635 54 459.535 53.1 457.735 51.95C455.935 50.75 454.51 49.325 453.46 47.675C452.46 45.975 451.96 44.1 451.96 42.05C451.96 38.45 453.085 35.275 455.335 32.525C457.635 29.725 460.635 27.475 464.335 25.775H449.035L458.41 16.55H494.26C494.96 16.5 495.535 16.325 495.985 16.025C496.435 15.725 496.66 15.3 496.66 14.75C496.66 11.95 494.06 9.7 488.86 8L496.285 0.649999C501.435 3.2 504.01 7.3 504.01 12.95C504.01 19.75 501.085 24.075 495.235 25.925C496.535 26.825 497.535 27.95 498.235 29.3C498.985 30.6 499.36 32.3 499.36 34.4ZM491.11 38.75C491.11 37.2 490.66 35.75 489.76 34.4C488.91 33.05 487.735 31.9 486.235 30.95C484.735 29.95 482.96 29.175 480.91 28.625C478.91 28.075 476.76 27.8 474.46 27.8C472.61 27.8 470.885 28.025 469.285 28.475C467.685 28.925 466.285 29.575 465.085 30.425C463.885 31.225 462.935 32.2 462.235 33.35C461.535 34.45 461.185 35.675 461.185 37.025C461.185 38.875 461.785 40.5 462.985 41.9C464.185 43.25 465.685 44.375 467.485 45.275C469.285 46.175 471.235 46.85 473.335 47.3C475.435 47.75 477.41 47.975 479.26 47.975C482.96 47.975 485.86 47.15 487.96 45.5C490.06 43.8 491.11 41.55 491.11 38.75ZM532.401 34.25C532.401 35.75 532.076 37.325 531.426 38.975C530.776 40.575 529.926 42.15 528.876 43.7C527.826 45.2 526.626 46.65 525.276 48.05C523.926 49.4 522.551 50.6 521.151 51.65C519.051 53 516.601 53.975 513.801 54.575C511.051 55.125 508.976 55.4 507.576 55.4C501.676 55.05 497.401 52.525 494.751 47.825L497.301 40.475C501.851 44.775 507.126 46.925 513.126 46.925C514.626 46.925 516.026 46.725 517.326 46.325C518.626 45.875 519.751 45.25 520.701 44.45C521.701 43.65 522.476 42.675 523.026 41.525C523.626 40.325 523.926 38.975 523.926 37.475C523.926 35.925 523.551 34.425 522.801 32.975C522.051 31.525 521.051 30.225 519.801 29.075C518.551 27.925 517.076 27 515.376 26.3C513.726 25.6 512.001 25.25 510.201 25.25C509.901 25.25 509.601 25.275 509.301 25.325C509.001 25.325 508.701 25.35 508.401 25.4L515.301 16.55C517.701 17.1 519.926 17.825 521.976 18.725C524.076 19.575 525.901 20.7 527.451 22.1C529.001 23.45 530.201 25.125 531.051 27.125C531.951 29.075 532.401 31.45 532.401 34.25ZM606.193 49.55L606.718 48.95C607.818 48.95 608.793 48.675 609.643 48.125C610.493 47.575 611.193 46.85 611.743 45.95C612.293 45.05 612.693 44.05 612.943 42.95C613.243 41.85 613.393 40.775 613.393 39.725C613.393 37.425 612.968 35.45 612.118 33.8C611.268 32.15 610.143 30.775 608.743 29.675C607.343 28.525 605.768 27.625 604.018 26.975C602.268 26.275 600.493 25.75 598.693 25.4C597.193 25.15 595.818 24.925 594.568 24.725C593.318 24.475 592.193 24.35 591.193 24.35C589.993 24.35 589.243 24.375 588.943 24.425C588.643 24.425 588.268 24.45 587.818 24.5L596.893 16.775C599.793 16.825 602.818 17.325 605.968 18.275C609.118 19.225 611.993 20.55 614.593 22.25C617.193 23.9 619.318 25.9 620.968 28.25C622.668 30.6 623.518 33.2 623.518 36.05C623.518 36.7 623.443 37.5 623.293 38.45C623.143 39.35 622.893 40.325 622.543 41.375C622.193 42.375 621.743 43.375 621.193 44.375C620.693 45.325 620.068 46.175 619.318 46.925C614.668 52.275 609.293 55.175 603.193 55.625C600.693 55.575 599.093 55.35 598.393 54.95C597.543 54.4 596.793 53.775 596.143 53.075C595.543 52.375 594.968 51.725 594.418 51.125C593.918 50.525 593.418 50.025 592.918 49.625C592.468 49.175 591.993 48.95 591.493 48.95C590.543 48.95 589.743 49.3 589.093 50C588.493 50.7 587.868 51.475 587.218 52.325C586.568 53.125 585.818 53.875 584.968 54.575C584.168 55.275 583.093 55.625 581.743 55.625C580.593 55.625 579.468 55.35 578.368 54.8C577.318 54.2 576.368 53.45 575.518 52.55C574.668 51.65 573.968 50.625 573.418 49.475C572.918 48.325 572.668 47.175 572.668 46.025C572.668 44.325 573.093 42.65 573.943 41C574.843 39.35 575.918 37.9 577.168 36.65C578.468 35.35 579.868 34.325 581.368 33.575C582.868 32.775 584.243 32.375 585.493 32.375L590.818 39.8C587.468 40.7 585.468 42.3 584.818 44.6C584.818 44.85 584.893 45.1 585.043 45.35C585.193 45.6 585.468 45.725 585.868 45.725C586.618 45.725 587.393 45.425 588.193 44.825C588.993 44.175 589.793 43.475 590.593 42.725C591.443 41.925 592.343 41.225 593.293 40.625C594.243 39.975 595.243 39.65 596.293 39.65C597.543 39.65 598.543 40.15 599.293 41.15C600.043 42.1 600.718 43.15 601.318 44.3C601.968 45.45 602.668 46.525 603.418 47.525C604.168 48.475 605.193 48.95 606.493 48.95L606.193 49.55ZM684.032 34.475C684.032 36.825 683.432 39.25 682.232 41.75C681.082 44.25 679.307 46.525 676.907 48.575C674.507 50.625 671.482 52.3 667.832 53.6C664.182 54.9 659.857 55.55 654.857 55.55C651.907 55.55 649.082 55.15 646.382 54.35C643.682 53.55 641.307 52.4 639.257 50.9C637.207 49.35 635.557 47.5 634.307 45.35C633.107 43.15 632.507 40.675 632.507 37.925C632.507 34.575 633.282 31.575 634.832 28.925C636.432 26.275 638.507 24.05 641.057 22.25C643.657 20.4 646.632 19 649.982 18.05C653.382 17.1 656.882 16.625 660.482 16.625C663.332 16.625 666.157 16.95 668.957 17.6C671.757 18.2 674.282 19.225 676.532 20.675C678.782 22.075 680.582 23.9 681.932 26.15C683.332 28.4 684.032 31.175 684.032 34.475ZM674.132 40.7C674.132 38.55 673.657 36.425 672.707 34.325C671.807 32.225 670.507 30.35 668.807 28.7C667.107 27 665.057 25.65 662.657 24.65C660.257 23.6 657.582 23.075 654.632 23.075C650.132 23.075 646.932 23.85 645.032 25.4C643.132 26.9 642.182 29.15 642.182 32.15C642.182 34.5 642.832 36.675 644.132 38.675C645.432 40.675 647.107 42.425 649.157 43.925C651.207 45.375 653.457 46.525 655.907 47.375C658.407 48.225 660.832 48.65 663.182 48.65C667.132 48.65 669.932 47.925 671.582 46.475C673.282 44.975 674.132 43.05 674.132 40.7ZM744.83 37.775C744.83 38.875 744.48 40.075 743.78 41.375C743.08 42.675 742.08 44 740.78 45.35C739.53 46.65 738.005 47.925 736.205 49.175C734.455 50.425 732.48 51.525 730.28 52.475C728.13 53.425 725.805 54.2 723.305 54.8C720.855 55.35 718.28 55.625 715.58 55.625C713.28 55.625 710.83 55.35 708.23 54.8C705.68 54.2 703.305 53.4 701.105 52.4C698.905 51.35 697.08 50.15 695.63 48.8C694.18 47.45 693.455 45.975 693.455 44.375L704.33 38.975C704.33 39.875 704.78 40.825 705.68 41.825C706.63 42.775 707.905 43.65 709.505 44.45C711.155 45.25 713.08 45.9 715.28 46.4C717.48 46.9 719.855 47.15 722.405 47.15C723.705 47.15 725.105 47.075 726.605 46.925C728.105 46.725 729.48 46.475 730.73 46.175C731.98 45.825 733.005 45.375 733.805 44.825C734.655 44.275 735.08 43.625 735.08 42.875C735.08 42.025 734.78 41.35 734.18 40.85C733.63 40.3 732.88 39.9 731.93 39.65C730.98 39.35 729.93 39.15 728.78 39.05C727.63 38.95 726.48 38.9 725.33 38.9L715.805 38.975L725.48 29.9H731.78C732.73 29.85 733.205 29.25 733.205 28.1C733.205 26.9 732.58 26.125 731.33 25.775H693.005L701.18 16.55H737.18L741.155 25.7C740.955 28.3 739.705 30.075 737.405 31.025C738.255 31.125 739.105 31.4 739.955 31.85C740.855 32.25 741.655 32.775 742.355 33.425C743.105 34.025 743.705 34.725 744.155 35.525C744.605 36.275 744.83 37.025 744.83 37.775ZM782.271 32.375C782.271 35.225 781.721 38.05 780.621 40.85C779.521 43.6 778.046 46.075 776.196 48.275C774.346 50.475 772.246 52.25 769.896 53.6C767.546 54.95 765.096 55.625 762.546 55.625C760.796 55.625 759.221 55.325 757.821 54.725C756.471 54.075 755.296 53.225 754.296 52.175C753.346 51.075 752.621 49.8 752.121 48.35C751.621 46.85 751.371 45.275 751.371 43.625C751.371 34.125 756.146 29.075 765.696 28.475L768.021 40.175C767.121 39.925 766.321 39.8 765.621 39.8C764.721 39.8 763.796 40.025 762.846 40.475C761.946 40.925 761.496 41.7 761.496 42.8C761.496 43.55 761.696 44.275 762.096 44.975C762.496 45.675 763.021 46.275 763.671 46.775C764.321 47.275 765.046 47.675 765.846 47.975C766.696 48.275 767.521 48.425 768.321 48.425C768.971 48.425 769.621 48.275 770.271 47.975C770.971 47.625 771.596 47.1 772.146 46.4C772.746 45.7 773.221 44.8 773.571 43.7C773.971 42.55 774.171 41.175 774.171 39.575C774.171 37.825 773.971 36.15 773.571 34.55C773.221 32.9 772.746 31.45 772.146 30.2C771.546 28.9 770.871 27.875 770.121 27.125C769.421 26.325 768.721 25.875 768.021 25.775H730.221V16.625H771.021C772.571 16.625 774.021 17.025 775.371 17.825C776.721 18.575 777.896 19.65 778.896 21.05C779.946 22.45 780.771 24.125 781.371 26.075C781.971 27.975 782.271 30.075 782.271 32.375ZM844.103 34.475C844.103 37.175 843.453 39.8 842.153 42.35C840.903 44.9 839.328 47.15 837.428 49.1C835.578 51.05 833.553 52.625 831.353 53.825C829.153 55.025 827.153 55.625 825.353 55.625C823.503 55.625 821.978 55.3 820.778 54.65C819.578 53.95 818.528 53.2 817.628 52.4C816.778 51.6 815.978 50.875 815.228 50.225C814.528 49.525 813.728 49.175 812.828 49.175C811.978 49.175 811.228 49.525 810.578 50.225C809.928 50.875 809.278 51.6 808.628 52.4C808.028 53.2 807.378 53.95 806.678 54.65C805.978 55.3 805.153 55.625 804.203 55.625C802.453 55.625 800.878 55.225 799.478 54.425C798.078 53.575 796.878 52.525 795.878 51.275C794.878 50.025 794.103 48.65 793.553 47.15C793.053 45.6 792.803 44.1 792.803 42.65C792.803 39 793.828 35.75 795.878 32.9C797.928 30.05 800.503 27.675 803.603 25.775H791.003L798.428 16.55H837.353C838.253 16.55 838.953 16.4 839.453 16.1C840.003 15.8 840.278 15.35 840.278 14.75C840.278 11.95 837.678 9.7 832.478 8L839.903 0.649999C845.053 3.2 847.628 7.3 847.628 12.95C847.628 19.2 845.228 23.325 840.428 25.325C841.678 26.675 842.603 28.15 843.203 29.75C843.803 31.35 844.103 32.925 844.103 34.475ZM836.228 39.875C836.228 37.675 835.728 35.725 834.728 34.025C833.728 32.275 832.353 30.8 830.603 29.6C828.853 28.4 826.803 27.5 824.453 26.9C822.103 26.25 819.603 25.925 816.953 25.925C814.903 25.925 813.003 26.175 811.253 26.675C809.503 27.175 807.978 27.875 806.678 28.775C805.428 29.675 804.428 30.8 803.678 32.15C802.928 33.45 802.553 34.925 802.553 36.575C802.553 37.875 802.703 39.075 803.003 40.175C803.303 41.275 803.678 42.225 804.128 43.025C804.578 43.775 805.078 44.375 805.628 44.825C806.228 45.275 806.803 45.5 807.353 45.5C808.053 45.5 808.603 45.175 809.003 44.525C809.453 43.875 809.928 43.175 810.428 42.425C810.978 41.675 811.678 40.975 812.528 40.325C813.378 39.675 814.628 39.35 816.278 39.35C817.628 39.35 818.803 39.775 819.803 40.625C820.853 41.425 821.853 42.35 822.803 43.4C823.753 44.4 824.753 45.325 825.803 46.175C826.853 46.975 828.053 47.375 829.403 47.375C831.403 47.375 833.028 46.65 834.278 45.2C835.578 43.75 836.228 41.975 836.228 39.875ZM906.953 34.4C906.953 37 906.303 39.575 905.003 42.125C903.753 44.675 901.928 46.95 899.528 48.95C897.128 50.95 894.203 52.575 890.753 53.825C887.353 55.025 883.528 55.625 879.278 55.625C876.578 55.625 874.028 55.3 871.628 54.65C869.228 54 867.128 53.1 865.328 51.95C863.528 50.75 862.103 49.325 861.053 47.675C860.053 45.975 859.553 44.1 859.553 42.05C859.553 38.45 860.678 35.275 862.928 32.525C865.228 29.725 868.228 27.475 871.928 25.775H856.628L866.003 16.55H901.853C902.553 16.5 903.128 16.325 903.578 16.025C904.028 15.725 904.253 15.3 904.253 14.75C904.253 11.95 901.653 9.7 896.453 8L903.878 0.649999C909.028 3.2 911.603 7.3 911.603 12.95C911.603 19.75 908.678 24.075 902.828 25.925C904.128 26.825 905.128 27.95 905.828 29.3C906.578 30.6 906.953 32.3 906.953 34.4ZM898.703 38.75C898.703 37.2 898.253 35.75 897.353 34.4C896.503 33.05 895.328 31.9 893.828 30.95C892.328 29.95 890.553 29.175 888.503 28.625C886.503 28.075 884.353 27.8 882.053 27.8C880.203 27.8 878.478 28.025 876.878 28.475C875.278 28.925 873.878 29.575 872.678 30.425C871.478 31.225 870.528 32.2 869.828 33.35C869.128 34.45 868.778 35.675 868.778 37.025C868.778 38.875 869.378 40.5 870.578 41.9C871.778 43.25 873.278 44.375 875.078 45.275C876.878 46.175 878.828 46.85 880.928 47.3C883.028 47.75 885.003 47.975 886.853 47.975C890.553 47.975 893.453 47.15 895.553 45.5C897.653 43.8 898.703 41.55 898.703 38.75ZM939.993 34.25C939.993 35.75 939.668 37.325 939.018 38.975C938.368 40.575 937.518 42.15 936.468 43.7C935.418 45.2 934.218 46.65 932.868 48.05C931.518 49.4 930.143 50.6 928.743 51.65C926.643 53 924.193 53.975 921.393 54.575C918.643 55.125 916.568 55.4 915.168 55.4C909.268 55.05 904.993 52.525 902.343 47.825L904.893 40.475C909.443 44.775 914.718 46.925 920.718 46.925C922.218 46.925 923.618 46.725 924.918 46.325C926.218 45.875 927.343 45.25 928.293 44.45C929.293 43.65 930.068 42.675 930.618 41.525C931.218 40.325 931.518 38.975 931.518 37.475C931.518 35.925 931.143 34.425 930.393 32.975C929.643 31.525 928.643 30.225 927.393 29.075C926.143 27.925 924.668 27 922.968 26.3C921.318 25.6 919.593 25.25 917.793 25.25C917.493 25.25 917.193 25.275 916.893 25.325C916.593 25.325 916.293 25.35 915.993 25.4L922.893 16.55C925.293 17.1 927.518 17.825 929.568 18.725C931.668 19.575 933.493 20.7 935.043 22.1C936.593 23.45 937.793 25.125 938.643 27.125C939.543 29.075 939.993 31.45 939.993 34.25ZM1024.29 56.675C1024.79 55.825 1025.04 54.575 1025.04 52.925C1025.04 51.825 1024.89 50.775 1024.59 49.775C1024.34 48.725 1023.81 47.925 1023.01 47.375C1020.16 50.325 1016.91 52.375 1013.26 53.525C1009.66 54.625 1006.06 55.175 1002.46 55.175C1000.36 55.175 998.286 54.9 996.236 54.35C994.186 53.8 992.336 53.075 990.686 52.175C989.086 51.225 987.761 50.125 986.711 48.875C985.711 47.575 985.211 46.2 985.211 44.75C985.211 43.8 985.636 42.675 986.486 41.375C987.386 40.075 988.736 38.825 990.536 37.625C992.336 36.425 994.611 35.4 997.361 34.55C1000.11 33.7 1003.36 33.275 1007.11 33.275C1010.56 33.275 1013.71 33.675 1016.56 34.475C1019.41 35.275 1021.69 36.225 1023.39 37.325C1023.39 37.175 1023.39 37.05 1023.39 36.95C1023.44 36.8 1023.46 36.65 1023.46 36.5C1023.46 35.25 1023.09 33.925 1022.34 32.525C1021.64 31.075 1020.74 29.75 1019.64 28.55C1018.54 27.35 1017.31 26.375 1015.96 25.625C1014.61 24.825 1013.31 24.425 1012.06 24.425C1011.61 24.425 1011.21 24.6 1010.86 24.95C1010.51 25.3 1010.19 25.725 1009.89 26.225C1009.64 26.725 1009.44 27.275 1009.29 27.875C1009.19 28.425 1009.14 28.95 1009.14 29.45V29.975L999.911 32.75C999.911 31.8 999.661 30.825 999.161 29.825C998.711 28.775 998.086 27.825 997.286 26.975C996.536 26.125 995.661 25.425 994.661 24.875C993.711 24.325 992.761 24.05 991.811 24.05C991.111 24.05 990.661 24.375 990.461 25.025C990.311 25.625 990.236 26.225 990.236 26.825C990.236 27.275 990.361 27.65 990.611 27.95C990.861 28.25 991.161 28.525 991.511 28.775C991.911 28.975 992.311 29.125 992.711 29.225C993.161 29.325 993.561 29.375 993.911 29.375L984.761 36.125C983.361 36.125 982.261 35.6 981.461 34.55C980.661 33.45 980.261 32.275 980.261 31.025C980.261 29.975 980.586 28.875 981.236 27.725C981.936 26.575 982.811 25.475 983.861 24.425C984.961 23.375 986.161 22.375 987.461 21.425C988.761 20.475 990.011 19.65 991.211 18.95C992.411 18.2 993.486 17.625 994.436 17.225C995.436 16.825 996.161 16.625 996.611 16.625C997.361 16.625 998.236 16.775 999.236 17.075C1000.29 17.325 1001.31 17.725 1002.31 18.275C1003.31 18.825 1004.21 19.5 1005.01 20.3C1005.86 21.05 1006.49 21.9 1006.89 22.85C1008.64 21 1010.34 19.5 1011.99 18.35C1013.64 17.15 1015.06 16.55 1016.26 16.55C1018.51 16.55 1020.61 17 1022.56 17.9C1024.51 18.75 1026.19 19.925 1027.59 21.425C1029.04 22.925 1030.16 24.675 1030.96 26.675C1031.81 28.675 1032.24 30.775 1032.24 32.975C1032.24 34.625 1032.09 36.025 1031.79 37.175C1031.49 38.325 1030.91 39.625 1030.06 41.075C1030.66 41.625 1031.31 42.325 1032.01 43.175C1032.71 44.025 1033.36 45 1033.96 46.1C1034.56 47.15 1035.04 48.35 1035.39 49.7C1035.79 51.05 1035.99 52.5 1035.99 54.05L1024.29 56.675ZM1020.31 44.675C1020.31 44.525 1019.81 44.2 1018.81 43.7C1017.86 43.2 1016.56 42.7 1014.91 42.2C1013.31 41.65 1011.49 41.175 1009.44 40.775C1007.39 40.325 1005.31 40.1 1003.21 40.1C1002.41 40.1 1001.54 40.15 1000.59 40.25C999.636 40.3 998.761 40.45 997.961 40.7C997.161 40.9 996.486 41.2 995.936 41.6C995.386 41.95 995.111 42.4 995.111 42.95C995.111 43.75 995.561 44.45 996.461 45.05C997.361 45.65 998.486 46.175 999.836 46.625C1001.19 47.025 1002.66 47.325 1004.26 47.525C1005.91 47.725 1007.46 47.825 1008.91 47.825C1010.31 47.825 1011.69 47.725 1013.04 47.525C1014.44 47.325 1015.66 47.075 1016.71 46.775C1017.81 46.475 1018.69 46.15 1019.34 45.8C1019.99 45.4 1020.31 45.025 1020.31 44.675ZM1095.33 34.4C1095.33 37 1094.68 39.575 1093.38 42.125C1092.13 44.675 1090.31 46.95 1087.91 48.95C1085.51 50.95 1082.58 52.575 1079.13 53.825C1075.73 55.025 1071.91 55.625 1067.66 55.625C1064.96 55.625 1062.41 55.3 1060.01 54.65C1057.61 54 1055.51 53.1 1053.71 51.95C1051.91 50.75 1050.48 49.325 1049.43 47.675C1048.43 45.975 1047.93 44.1 1047.93 42.05C1047.93 38.45 1049.06 35.275 1051.31 32.525C1053.61 29.725 1056.61 27.475 1060.31 25.775H1045.01L1054.38 16.55H1090.23C1090.93 16.5 1091.51 16.325 1091.96 16.025C1092.41 15.725 1092.63 15.3 1092.63 14.75C1092.63 11.95 1090.03 9.7 1084.83 8L1092.26 0.649999C1097.41 3.2 1099.98 7.3 1099.98 12.95C1099.98 19.75 1097.06 24.075 1091.21 25.925C1092.51 26.825 1093.51 27.95 1094.21 29.3C1094.96 30.6 1095.33 32.3 1095.33 34.4ZM1087.08 38.75C1087.08 37.2 1086.63 35.75 1085.73 34.4C1084.88 33.05 1083.71 31.9 1082.21 30.95C1080.71 29.95 1078.93 29.175 1076.88 28.625C1074.88 28.075 1072.73 27.8 1070.43 27.8C1068.58 27.8 1066.86 28.025 1065.26 28.475C1063.66 28.925 1062.26 29.575 1061.06 30.425C1059.86 31.225 1058.91 32.2 1058.21 33.35C1057.51 34.45 1057.16 35.675 1057.16 37.025C1057.16 38.875 1057.76 40.5 1058.96 41.9C1060.16 43.25 1061.66 44.375 1063.46 45.275C1065.26 46.175 1067.21 46.85 1069.31 47.3C1071.41 47.75 1073.38 47.975 1075.23 47.975C1078.93 47.975 1081.83 47.15 1083.93 45.5C1086.03 43.8 1087.08 41.55 1087.08 38.75ZM1128.37 34.25C1128.37 35.75 1128.05 37.325 1127.4 38.975C1126.75 40.575 1125.9 42.15 1124.85 43.7C1123.8 45.2 1122.6 46.65 1121.25 48.05C1119.9 49.4 1118.52 50.6 1117.12 51.65C1115.02 53 1112.57 53.975 1109.77 54.575C1107.02 55.125 1104.95 55.4 1103.55 55.4C1097.65 55.05 1093.37 52.525 1090.72 47.825L1093.27 40.475C1097.82 44.775 1103.1 46.925 1109.1 46.925C1110.6 46.925 1112 46.725 1113.3 46.325C1114.6 45.875 1115.72 45.25 1116.67 44.45C1117.67 43.65 1118.45 42.675 1119 41.525C1119.6 40.325 1119.9 38.975 1119.9 37.475C1119.9 35.925 1119.52 34.425 1118.77 32.975C1118.02 31.525 1117.02 30.225 1115.77 29.075C1114.52 27.925 1113.05 27 1111.35 26.3C1109.7 25.6 1107.97 25.25 1106.17 25.25C1105.87 25.25 1105.57 25.275 1105.27 25.325C1104.97 25.325 1104.67 25.35 1104.37 25.4L1111.27 16.55C1113.67 17.1 1115.9 17.825 1117.95 18.725C1120.05 19.575 1121.87 20.7 1123.42 22.1C1124.97 23.45 1126.17 25.125 1127.02 27.125C1127.92 29.075 1128.37 31.45 1128.37 34.25ZM1202.16 49.55L1202.69 48.95C1203.79 48.95 1204.76 48.675 1205.61 48.125C1206.46 47.575 1207.16 46.85 1207.71 45.95C1208.26 45.05 1208.66 44.05 1208.91 42.95C1209.21 41.85 1209.36 40.775 1209.36 39.725C1209.36 37.425 1208.94 35.45 1208.09 33.8C1207.24 32.15 1206.11 30.775 1204.71 29.675C1203.31 28.525 1201.74 27.625 1199.99 26.975C1198.24 26.275 1196.46 25.75 1194.66 25.4C1193.16 25.15 1191.79 24.925 1190.54 24.725C1189.29 24.475 1188.16 24.35 1187.16 24.35C1185.96 24.35 1185.21 24.375 1184.91 24.425C1184.61 24.425 1184.24 24.45 1183.79 24.5L1192.86 16.775C1195.76 16.825 1198.79 17.325 1201.94 18.275C1205.09 19.225 1207.96 20.55 1210.56 22.25C1213.16 23.9 1215.29 25.9 1216.94 28.25C1218.64 30.6 1219.49 33.2 1219.49 36.05C1219.49 36.7 1219.41 37.5 1219.26 38.45C1219.11 39.35 1218.86 40.325 1218.51 41.375C1218.16 42.375 1217.71 43.375 1217.16 44.375C1216.66 45.325 1216.04 46.175 1215.29 46.925C1210.64 52.275 1205.26 55.175 1199.16 55.625C1196.66 55.575 1195.06 55.35 1194.36 54.95C1193.51 54.4 1192.76 53.775 1192.11 53.075C1191.51 52.375 1190.94 51.725 1190.39 51.125C1189.89 50.525 1189.39 50.025 1188.89 49.625C1188.44 49.175 1187.96 48.95 1187.46 48.95C1186.51 48.95 1185.71 49.3 1185.06 50C1184.46 50.7 1183.84 51.475 1183.19 52.325C1182.54 53.125 1181.79 53.875 1180.94 54.575C1180.14 55.275 1179.06 55.625 1177.71 55.625C1176.56 55.625 1175.44 55.35 1174.34 54.8C1173.29 54.2 1172.34 53.45 1171.49 52.55C1170.64 51.65 1169.94 50.625 1169.39 49.475C1168.89 48.325 1168.64 47.175 1168.64 46.025C1168.64 44.325 1169.06 42.65 1169.91 41C1170.81 39.35 1171.89 37.9 1173.14 36.65C1174.44 35.35 1175.84 34.325 1177.34 33.575C1178.84 32.775 1180.21 32.375 1181.46 32.375L1186.79 39.8C1183.44 40.7 1181.44 42.3 1180.79 44.6C1180.79 44.85 1180.86 45.1 1181.01 45.35C1181.16 45.6 1181.44 45.725 1181.84 45.725C1182.59 45.725 1183.36 45.425 1184.16 44.825C1184.96 44.175 1185.76 43.475 1186.56 42.725C1187.41 41.925 1188.31 41.225 1189.26 40.625C1190.21 39.975 1191.21 39.65 1192.26 39.65C1193.51 39.65 1194.51 40.15 1195.26 41.15C1196.01 42.1 1196.69 43.15 1197.29 44.3C1197.94 45.45 1198.64 46.525 1199.39 47.525C1200.14 48.475 1201.16 48.95 1202.46 48.95L1202.16 49.55ZM1280 34.475C1280 36.825 1279.4 39.25 1278.2 41.75C1277.05 44.25 1275.28 46.525 1272.88 48.575C1270.48 50.625 1267.45 52.3 1263.8 53.6C1260.15 54.9 1255.83 55.55 1250.83 55.55C1247.88 55.55 1245.05 55.15 1242.35 54.35C1239.65 53.55 1237.28 52.4 1235.23 50.9C1233.18 49.35 1231.53 47.5 1230.28 45.35C1229.08 43.15 1228.48 40.675 1228.48 37.925C1228.48 34.575 1229.25 31.575 1230.8 28.925C1232.4 26.275 1234.48 24.05 1237.03 22.25C1239.63 20.4 1242.6 19 1245.95 18.05C1249.35 17.1 1252.85 16.625 1256.45 16.625C1259.3 16.625 1262.13 16.95 1264.93 17.6C1267.73 18.2 1270.25 19.225 1272.5 20.675C1274.75 22.075 1276.55 23.9 1277.9 26.15C1279.3 28.4 1280 31.175 1280 34.475ZM1270.1 40.7C1270.1 38.55 1269.63 36.425 1268.68 34.325C1267.78 32.225 1266.48 30.35 1264.78 28.7C1263.08 27 1261.03 25.65 1258.63 24.65C1256.23 23.6 1253.55 23.075 1250.6 23.075C1246.1 23.075 1242.9 23.85 1241 25.4C1239.1 26.9 1238.15 29.15 1238.15 32.15C1238.15 34.5 1238.8 36.675 1240.1 38.675C1241.4 40.675 1243.08 42.425 1245.13 43.925C1247.18 45.375 1249.43 46.525 1251.88 47.375C1254.38 48.225 1256.8 48.65 1259.15 48.65C1263.1 48.65 1265.9 47.925 1267.55 46.475C1269.25 44.975 1270.1 43.05 1270.1 40.7ZM1342.08 34.475C1342.08 37.175 1341.43 39.8 1340.13 42.35C1338.88 44.9 1337.3 47.15 1335.4 49.1C1333.55 51.05 1331.53 52.625 1329.33 53.825C1327.13 55.025 1325.13 55.625 1323.33 55.625C1321.48 55.625 1319.95 55.3 1318.75 54.65C1317.55 53.95 1316.5 53.2 1315.6 52.4C1314.75 51.6 1313.95 50.875 1313.2 50.225C1312.5 49.525 1311.7 49.175 1310.8 49.175C1309.95 49.175 1309.2 49.525 1308.55 50.225C1307.9 50.875 1307.25 51.6 1306.6 52.4C1306 53.2 1305.35 53.95 1304.65 54.65C1303.95 55.3 1303.13 55.625 1302.18 55.625C1300.43 55.625 1298.85 55.225 1297.45 54.425C1296.05 53.575 1294.85 52.525 1293.85 51.275C1292.85 50.025 1292.08 48.65 1291.53 47.15C1291.03 45.6 1290.78 44.1 1290.78 42.65C1290.78 39 1291.8 35.75 1293.85 32.9C1295.9 30.05 1298.48 27.675 1301.58 25.775H1288.98L1296.4 16.55H1335.7V23.825C1336 23.925 1336.28 24.025 1336.53 24.125C1336.83 24.175 1337.1 24.25 1337.35 24.35C1338.95 25.75 1340.13 27.35 1340.88 29.15C1341.68 30.95 1342.08 32.725 1342.08 34.475ZM1334.2 39.875C1334.2 37.675 1333.7 35.725 1332.7 34.025C1331.7 32.275 1330.33 30.8 1328.58 29.6C1326.83 28.4 1324.78 27.5 1322.43 26.9C1320.08 26.25 1317.58 25.925 1314.93 25.925C1312.88 25.925 1310.98 26.175 1309.23 26.675C1307.48 27.175 1305.95 27.875 1304.65 28.775C1303.4 29.675 1302.4 30.8 1301.65 32.15C1300.9 33.45 1300.53 34.925 1300.53 36.575C1300.53 37.875 1300.68 39.075 1300.98 40.175C1301.28 41.275 1301.65 42.225 1302.1 43.025C1302.55 43.775 1303.05 44.375 1303.6 44.825C1304.2 45.275 1304.78 45.5 1305.33 45.5C1306.03 45.5 1306.58 45.175 1306.98 44.525C1307.43 43.875 1307.9 43.175 1308.4 42.425C1308.95 41.675 1309.65 40.975 1310.5 40.325C1311.35 39.675 1312.6 39.35 1314.25 39.35C1315.6 39.35 1316.78 39.775 1317.78 40.625C1318.83 41.425 1319.83 42.35 1320.78 43.4C1321.73 44.4 1322.73 45.325 1323.78 46.175C1324.83 46.975 1326.03 47.375 1327.38 47.375C1329.38 47.375 1331 46.65 1332.25 45.2C1333.55 43.75 1334.2 41.975 1334.2 39.875ZM1349.71 10.175C1349.71 12.275 1349.19 14.175 1348.14 15.875C1347.14 17.525 1345.99 19.025 1344.69 20.375C1343.39 21.675 1342.16 22.775 1341.01 23.675C1339.86 24.575 1338.51 25.275 1336.96 25.775H1327.29V16.625H1338.91C1339.56 16.625 1340.09 16.15 1340.49 15.2C1340.84 14.2 1341.01 13.25 1341.01 12.35C1341.01 11.15 1340.71 10.175 1340.11 9.425C1339.51 8.675 1338.89 8.175 1338.24 7.925C1338.24 8.775 1338.04 9.6 1337.64 10.4C1337.19 11.15 1336.61 11.825 1335.91 12.425C1335.16 13.025 1334.34 13.525 1333.44 13.925C1332.54 14.275 1331.61 14.45 1330.66 14.45C1329.81 14.45 1329.11 14.325 1328.56 14.075C1327.96 13.775 1327.49 13.425 1327.14 13.025C1326.74 12.625 1326.46 12.2 1326.31 11.75C1326.16 11.25 1326.09 10.8 1326.09 10.4C1326.09 9.6 1326.34 8.65 1326.84 7.55C1327.34 6.45 1328.11 5.4 1329.16 4.4C1330.21 3.35 1331.54 2.475 1333.14 1.775C1334.74 1.025 1336.66 0.649999 1338.91 0.649999C1340.61 0.649999 1342.14 0.899998 1343.49 1.4C1344.84 1.9 1345.96 2.6 1346.86 3.5C1347.81 4.35 1348.51 5.35 1348.96 6.5C1349.46 7.65 1349.71 8.875 1349.71 10.175ZM1408.03 34.475C1408.03 36.825 1407.43 39.25 1406.23 41.75C1405.08 44.25 1403.31 46.525 1400.91 48.575C1398.51 50.625 1395.48 52.3 1391.83 53.6C1388.18 54.9 1383.86 55.55 1378.86 55.55C1375.91 55.55 1373.08 55.15 1370.38 54.35C1367.68 53.55 1365.31 52.4 1363.26 50.9C1361.21 49.35 1359.56 47.5 1358.31 45.35C1357.11 43.15 1356.51 40.675 1356.51 37.925C1356.51 34.575 1357.28 31.575 1358.83 28.925C1360.43 26.275 1362.51 24.05 1365.06 22.25C1367.66 20.4 1370.63 19 1373.98 18.05C1377.38 17.1 1380.88 16.625 1384.48 16.625C1387.33 16.625 1390.16 16.95 1392.96 17.6C1395.76 18.2 1398.28 19.225 1400.53 20.675C1402.78 22.075 1404.58 23.9 1405.93 26.15C1407.33 28.4 1408.03 31.175 1408.03 34.475ZM1398.13 40.7C1398.13 38.55 1397.66 36.425 1396.71 34.325C1395.81 32.225 1394.51 30.35 1392.81 28.7C1391.11 27 1389.06 25.65 1386.66 24.65C1384.26 23.6 1381.58 23.075 1378.63 23.075C1374.13 23.075 1370.93 23.85 1369.03 25.4C1367.13 26.9 1366.18 29.15 1366.18 32.15C1366.18 34.5 1366.83 36.675 1368.13 38.675C1369.43 40.675 1371.11 42.425 1373.16 43.925C1375.21 45.375 1377.46 46.525 1379.91 47.375C1382.41 48.225 1384.83 48.65 1387.18 48.65C1391.13 48.65 1393.93 47.925 1395.58 46.475C1397.28 44.975 1398.13 43.05 1398.13 40.7ZM1471 35.6C1470.6 38.55 1469.88 41.25 1468.83 43.7C1467.83 46.15 1466.5 48.275 1464.85 50.075C1463.2 51.825 1461.23 53.2 1458.93 54.2C1456.63 55.2 1454.03 55.7 1451.13 55.7C1450.88 55.7 1450.63 55.7 1450.38 55.7C1450.18 55.7 1449.95 55.675 1449.7 55.625H1449.18C1447.33 55.475 1446 55.175 1445.2 54.725C1444.3 54.225 1443.5 53.65 1442.8 53C1442.1 52.3 1441.45 51.65 1440.85 51.05C1440.3 50.45 1439.78 49.95 1439.28 49.55C1438.78 49.1 1438.25 48.875 1437.7 48.875C1436.65 48.875 1435.78 49.225 1435.08 49.925C1434.38 50.625 1433.68 51.4 1432.98 52.25C1432.28 53.05 1431.48 53.8 1430.58 54.5C1429.68 55.2 1428.5 55.55 1427.05 55.55C1425.8 55.45 1424.58 55.175 1423.38 54.725C1422.23 54.225 1421.18 53.55 1420.23 52.7C1419.33 51.8 1418.58 50.75 1417.98 49.55C1417.43 48.3 1417.1 46.875 1417 45.275C1417 38.225 1419.73 32.975 1425.18 29.525C1424.48 28.675 1423.93 27.825 1423.53 26.975C1423.18 26.125 1423 25.15 1423 24.05C1423 21.65 1423.73 19.425 1425.18 17.375C1426.68 15.325 1428.6 13.525 1430.95 11.975C1433.3 10.425 1435.93 9.225 1438.83 8.375C1441.78 7.475 1444.73 7.025 1447.68 7.025C1463.33 7.025 1471.15 15.125 1471.15 31.325C1471.15 32.025 1471.13 32.725 1471.08 33.425C1471.08 34.125 1471.05 34.85 1471 35.6ZM1449.48 45.95C1450.83 47.95 1452.6 48.95 1454.8 48.95C1457.15 48.95 1458.98 47.575 1460.28 44.825C1461.58 42.075 1462.4 38.375 1462.75 33.725C1462.75 29.525 1461.65 26.175 1459.45 23.675C1457.3 21.175 1453.85 19.45 1449.1 18.5C1449.2 18.9 1449.25 19.225 1449.25 19.475C1449.25 20.525 1448.88 21.8 1448.13 23.3C1447.38 24.8 1446.3 26.25 1444.9 27.65C1443.5 29.05 1441.8 30.25 1439.8 31.25C1437.85 32.2 1435.65 32.675 1433.2 32.675C1429 36.275 1426.9 39.175 1426.9 41.375C1426.9 42.925 1427.9 44.15 1429.9 45.05C1431.2 45.05 1432.35 44.95 1433.35 44.75C1434.35 44.5 1435.2 44.05 1435.9 43.4C1437.35 42.15 1438.58 41.225 1439.58 40.625C1440.58 40.025 1441.65 39.725 1442.8 39.725C1443.5 39.725 1444.1 39.825 1444.6 40.025C1445.15 40.225 1445.65 40.575 1446.1 41.075C1446.6 41.575 1447.1 42.225 1447.6 43.025C1448.1 43.775 1448.73 44.75 1449.48 45.95ZM1441.3 21.65C1441.3 21 1441.08 20.4 1440.63 19.85C1440.18 19.25 1439.6 18.75 1438.9 18.35C1438.2 17.95 1437.45 17.65 1436.65 17.45C1435.85 17.2 1435.08 17.075 1434.33 17.075C1433.88 17.075 1433.4 17.1 1432.9 17.15C1432.4 17.2 1431.93 17.3 1431.48 17.45C1431.03 17.55 1430.65 17.725 1430.35 17.975C1430.1 18.225 1429.98 18.525 1429.98 18.875C1429.98 19.625 1430.18 20.325 1430.58 20.975C1430.98 21.625 1431.48 22.2 1432.08 22.7C1432.73 23.2 1433.45 23.6 1434.25 23.9C1435.1 24.2 1435.95 24.35 1436.8 24.35C1438.45 24.35 1439.6 24.1 1440.25 23.6C1440.95 23.05 1441.3 22.4 1441.3 21.65ZM1523.82 58.1L1522.32 51.125C1522.22 50.475 1522.02 49.575 1521.72 48.425C1521.47 47.225 1521.09 45.9 1520.59 44.45C1520.09 43 1519.49 41.525 1518.79 40.025C1518.09 38.475 1517.27 37.025 1516.32 35.675C1515.47 34.475 1514.47 33.4 1513.32 32.45C1512.22 31.45 1511.09 30.625 1509.94 29.975C1508.79 29.275 1507.67 28.75 1506.57 28.4C1505.52 28 1504.64 27.8 1503.94 27.8C1503.44 27.8 1502.59 28.1 1501.39 28.7C1500.24 29.25 1499.19 30.175 1498.24 31.475C1497.44 32.575 1496.84 34 1496.44 35.75C1496.04 37.45 1495.84 39.025 1495.84 40.475C1495.84 41.925 1496.14 43.275 1496.74 44.525C1497.34 45.725 1498.19 46.6 1499.29 47.15L1492.24 55.7C1491.24 55.4 1490.32 54.9 1489.47 54.2C1488.67 53.45 1487.97 52.6 1487.37 51.65C1486.77 50.65 1486.29 49.575 1485.94 48.425C1485.64 47.225 1485.49 46.025 1485.49 44.825C1485.49 43.025 1485.84 41.175 1486.54 39.275C1487.24 37.375 1488.12 35.575 1489.17 33.875C1490.27 32.125 1491.44 30.55 1492.69 29.15C1493.94 27.75 1495.12 26.625 1496.22 25.775H1482.12L1489.54 16.55H1520.14C1521.04 16.55 1521.74 16.4 1522.24 16.1C1522.79 15.8 1523.07 15.35 1523.07 14.75C1523.07 11.95 1520.47 9.7 1515.27 8L1522.69 0.649999C1527.84 3.2 1530.42 7.3 1530.42 12.95C1530.42 20.2 1527.07 24.475 1520.37 25.775C1526.42 30.575 1530.74 39.875 1533.34 53.675L1523.82 58.1ZM1591.37 34.1C1591.37 36.9 1590.8 39.575 1589.65 42.125C1588.5 44.625 1586.95 46.85 1585 48.8C1583.1 50.7 1580.85 52.225 1578.25 53.375C1575.7 54.525 1573 55.1 1570.15 55.1C1566.65 55.1 1564.07 54.225 1562.42 52.475C1560.77 50.675 1559.95 48.425 1559.95 45.725C1560.4 34.975 1565.45 29.6 1575.1 29.6H1576.45V41.45C1576 41.35 1575.57 41.275 1575.17 41.225C1574.82 41.125 1574.45 41.075 1574.05 41.075C1573.7 41.075 1573.3 41.125 1572.85 41.225C1572.45 41.325 1572.05 41.475 1571.65 41.675C1571.25 41.875 1570.9 42.15 1570.6 42.5C1570.35 42.8 1570.22 43.15 1570.22 43.55C1570.22 43.9 1570.3 44.325 1570.45 44.825C1570.65 45.275 1570.95 45.725 1571.35 46.175C1571.8 46.575 1572.35 46.925 1573 47.225C1573.65 47.525 1574.45 47.675 1575.4 47.675C1576.6 47.675 1577.62 47.425 1578.47 46.925C1579.32 46.375 1580 45.675 1580.5 44.825C1581.05 43.925 1581.42 42.95 1581.62 41.9C1581.87 40.8 1582 39.675 1582 38.525C1582 37.025 1581.8 35.7 1581.4 34.55C1581 33.35 1580.47 32.225 1579.82 31.175C1578.27 28.625 1576.1 26.8 1573.3 25.7C1570.5 24.55 1566.7 23.975 1561.9 23.975C1560.6 23.975 1559.22 24.1 1557.77 24.35C1556.32 24.55 1554.97 24.875 1553.72 25.325C1552.47 25.775 1551.45 26.3 1550.65 26.9C1549.85 27.5 1549.45 28.175 1549.45 28.925C1549.45 29.525 1549.92 30.175 1550.87 30.875C1551.87 31.575 1552.97 32.375 1554.17 33.275C1555.37 34.175 1556.45 35.2 1557.4 36.35C1558.4 37.45 1558.9 38.725 1558.9 40.175C1558.9 42.425 1558.2 44.5 1556.8 46.4C1555.45 48.25 1553.7 49.875 1551.55 51.275C1549.45 52.625 1547.12 53.7 1544.57 54.5C1542.07 55.25 1539.67 55.625 1537.37 55.625C1536.07 55.625 1534.77 55.475 1533.47 55.175C1532.17 54.875 1530.92 54.475 1529.72 53.975C1528.52 53.425 1527.4 52.775 1526.35 52.025C1525.3 51.275 1524.42 50.475 1523.72 49.625L1528 39.725C1528 40.575 1528.67 41.45 1530.02 42.35C1531.37 43.2 1533.02 43.975 1534.97 44.675C1536.87 45.325 1538.87 45.875 1540.97 46.325C1543.07 46.725 1544.87 46.925 1546.37 46.925C1546.82 46.925 1547.3 46.875 1547.8 46.775C1548.35 46.675 1548.85 46.525 1549.3 46.325C1549.75 46.125 1550.12 45.9 1550.42 45.65C1550.72 45.35 1550.87 45.025 1550.87 44.675C1550.87 43.975 1550.57 43.35 1549.97 42.8C1549.42 42.2 1548.72 41.65 1547.87 41.15C1547.02 40.6 1546.07 40.05 1545.02 39.5C1544.02 38.9 1543.1 38.25 1542.25 37.55C1541.4 36.85 1540.67 36.075 1540.07 35.225C1539.52 34.325 1539.25 33.3 1539.25 32.15C1539.25 30.2 1540.02 28.3 1541.57 26.45C1543.17 24.6 1545.22 22.95 1547.72 21.5C1550.27 20 1553.15 18.8 1556.35 17.9C1559.55 17 1562.77 16.55 1566.02 16.55C1570.27 16.55 1573.97 17.025 1577.12 17.975C1580.32 18.925 1582.97 20.2 1585.07 21.8C1587.17 23.4 1588.75 25.275 1589.8 27.425C1590.85 29.525 1591.37 31.75 1591.37 34.1ZM1688.08 35.6C1686.13 48.95 1679.18 55.625 1667.23 55.625C1666.03 55.625 1664.81 55.4 1663.56 54.95C1662.36 54.5 1660.91 53.525 1659.21 52.025C1657.86 50.825 1656.68 49.7 1655.68 48.65C1654.73 47.6 1653.91 46.675 1653.21 45.875C1652.51 45.075 1651.88 44.45 1651.33 44C1650.83 43.55 1650.36 43.325 1649.91 43.325C1648.46 43.325 1647.28 43.775 1646.38 44.675C1645.48 45.575 1644.91 46.625 1644.66 47.825C1644.66 50.075 1645.06 51.95 1645.86 53.45C1646.71 54.95 1648.01 56.1 1649.76 56.9L1639.93 63.875C1639.28 63.525 1638.63 63.075 1637.98 62.525C1637.33 61.975 1636.76 61.35 1636.26 60.65C1635.76 59.9 1635.36 59.1 1635.06 58.25C1634.76 57.35 1634.61 56.4 1634.61 55.4C1634.61 53.2 1635.33 50.875 1636.78 48.425C1638.23 45.975 1639.98 43.725 1642.03 41.675C1644.13 39.625 1646.33 37.925 1648.63 36.575C1650.98 35.225 1653.03 34.55 1654.78 34.55C1655.78 34.55 1656.83 34.95 1657.93 35.75C1659.03 36.55 1660.08 37.475 1661.08 38.525C1662.08 39.525 1662.96 40.525 1663.71 41.525C1664.51 42.475 1665.11 43.15 1665.51 43.55C1666.36 44.45 1667.31 45.3 1668.36 46.1C1669.41 46.85 1670.76 47.225 1672.41 47.225C1675.96 46.075 1678.13 41.825 1678.93 34.475V33.65C1678.93 25.2 1674.68 20.15 1666.18 18.5C1666.28 18.9 1666.33 19.225 1666.33 19.475C1666.33 20.525 1665.93 21.825 1665.13 23.375C1664.38 24.875 1663.31 26.325 1661.91 27.725C1660.51 29.075 1658.78 30.25 1656.73 31.25C1654.73 32.2 1652.51 32.675 1650.06 32.675C1648.71 32.675 1647.43 32.45 1646.23 32C1645.03 31.55 1643.96 30.95 1643.01 30.2C1642.11 29.4 1641.38 28.475 1640.83 27.425C1640.33 26.375 1640.08 25.25 1640.08 24.05C1640.08 21.65 1640.81 19.425 1642.26 17.375C1643.76 15.325 1645.68 13.525 1648.03 11.975C1650.38 10.425 1653.01 9.225 1655.91 8.375C1658.86 7.475 1661.81 7.025 1664.76 7.025C1680.41 7.025 1688.23 15.125 1688.23 31.325C1688.23 32.025 1688.21 32.725 1688.16 33.425C1688.16 34.125 1688.13 34.85 1688.08 35.6ZM1659.58 21.65C1659.58 21 1659.36 20.4 1658.91 19.85C1658.46 19.25 1657.88 18.75 1657.18 18.35C1656.48 17.95 1655.73 17.65 1654.93 17.45C1654.13 17.2 1653.36 17.075 1652.61 17.075C1652.16 17.075 1651.68 17.1 1651.18 17.15C1650.68 17.2 1650.21 17.3 1649.76 17.45C1649.31 17.55 1648.93 17.725 1648.63 17.975C1648.38 18.225 1648.26 18.525 1648.26 18.875C1648.26 19.625 1648.46 20.325 1648.86 20.975C1649.26 21.625 1649.76 22.2 1650.36 22.7C1651.01 23.2 1651.73 23.6 1652.53 23.9C1653.38 24.2 1654.23 24.35 1655.08 24.35C1656.73 24.35 1657.88 24.1 1658.53 23.6C1659.23 23.05 1659.58 22.4 1659.58 21.65ZM1723.58 51.2C1720.48 53.55 1715.98 55.025 1710.08 55.625C1707.78 55.625 1705.48 55 1703.18 53.75C1700.93 52.5 1699.06 50.825 1697.56 48.725C1696.61 47.275 1695.88 45.6 1695.38 43.7C1694.93 41.8 1694.71 40 1694.71 38.3C1694.71 35.6 1695.18 32.975 1696.13 30.425C1697.08 27.825 1698.36 25.5 1699.96 23.45C1701.61 21.4 1703.51 19.75 1705.66 18.5C1707.81 17.25 1710.11 16.625 1712.56 16.625C1713.81 16.625 1714.98 16.775 1716.08 17.075C1717.23 17.325 1718.23 17.8 1719.08 18.5C1719.93 19.2 1720.61 20.15 1721.11 21.35C1721.61 22.5 1721.86 23.95 1721.86 25.7C1721.86 27.65 1721.43 29.45 1720.58 31.1C1719.73 32.75 1718.63 34.2 1717.28 35.45C1715.98 36.7 1714.51 37.675 1712.86 38.375C1711.21 39.075 1709.61 39.425 1708.06 39.425C1706.41 39.425 1704.73 38.65 1703.03 37.1C1703.13 38.3 1703.46 39.45 1704.01 40.55C1704.56 41.65 1705.26 42.625 1706.11 43.475C1706.96 44.275 1707.88 44.925 1708.88 45.425C1709.93 45.875 1710.98 46.1 1712.03 46.1C1712.93 46.1 1713.83 45.975 1714.73 45.725C1715.63 45.475 1716.48 45.15 1717.28 44.75C1718.13 44.35 1718.91 43.9 1719.61 43.4C1720.31 42.9 1720.91 42.4 1721.41 41.9L1723.58 51.2ZM1715.56 28.475C1715.56 27.825 1715.33 27.225 1714.88 26.675C1714.43 26.125 1713.88 25.675 1713.23 25.325C1712.63 24.925 1711.96 24.625 1711.21 24.425C1710.51 24.225 1709.88 24.125 1709.33 24.125C1708.48 24.125 1707.61 24.325 1706.71 24.725C1705.86 25.125 1705.43 25.65 1705.43 26.3C1705.43 26.85 1705.63 27.4 1706.03 27.95C1706.43 28.5 1706.93 29 1707.53 29.45C1708.18 29.9 1708.88 30.275 1709.63 30.575C1710.43 30.875 1711.18 31.025 1711.88 31.025C1712.73 31.025 1713.56 30.775 1714.36 30.275C1715.16 29.775 1715.56 29.175 1715.56 28.475ZM1812.82 37.175H1808.62C1809.17 38.075 1809.64 38.95 1810.04 39.8C1810.44 40.6 1810.64 41.475 1810.64 42.425C1810.64 44.075 1810.02 45.7 1808.77 47.3C1807.57 48.85 1805.97 50.25 1803.97 51.5C1802.02 52.7 1799.79 53.7 1797.29 54.5C1794.84 55.25 1792.39 55.625 1789.94 55.625C1787.79 55.625 1785.59 55.425 1783.34 55.025C1781.14 54.625 1779.12 54 1777.27 53.15C1775.47 52.3 1773.99 51.225 1772.84 49.925C1771.69 48.575 1771.12 47 1771.12 45.2C1771.12 44.55 1771.27 43.85 1771.57 43.1C1771.87 42.35 1772.27 41.65 1772.77 41C1773.27 40.3 1773.84 39.675 1774.49 39.125C1775.19 38.575 1775.92 38.15 1776.67 37.85L1765.42 37.925L1773.82 28.925H1784.24L1785.44 25.775H1767.14L1776.14 16.55H1804.72C1805.62 16.55 1806.32 16.4 1806.82 16.1C1807.37 15.8 1807.64 15.35 1807.64 14.75C1807.64 11.95 1805.04 9.7 1799.84 8L1807.27 0.649999C1812.42 3.2 1814.99 7.3 1814.99 12.95C1814.99 20.25 1811.67 24.525 1805.02 25.775H1799.02L1798.12 28.925H1816.64L1812.82 37.175ZM1802.47 45.125C1802.47 44.175 1802.12 43.25 1801.42 42.35C1800.72 41.4 1799.77 40.55 1798.57 39.8C1797.37 39.05 1795.97 38.45 1794.37 38C1792.82 37.55 1791.14 37.325 1789.34 37.325C1788.59 37.325 1787.74 37.375 1786.79 37.475C1785.89 37.575 1785.04 37.775 1784.24 38.075C1783.44 38.375 1782.77 38.775 1782.22 39.275C1781.72 39.725 1781.47 40.325 1781.47 41.075C1781.47 41.925 1781.79 42.775 1782.44 43.625C1783.14 44.475 1784.09 45.225 1785.29 45.875C1786.54 46.525 1788.04 47.05 1789.79 47.45C1791.59 47.85 1793.59 48.05 1795.79 48.05C1796.54 48.05 1797.29 47.975 1798.04 47.825C1798.84 47.675 1799.57 47.475 1800.22 47.225C1800.87 46.975 1801.39 46.675 1801.79 46.325C1802.24 45.975 1802.47 45.575 1802.47 45.125ZM1877.15 36.875C1877.15 39.575 1876.47 42.075 1875.12 44.375C1873.77 46.675 1872.07 48.675 1870.02 50.375C1868.02 52.025 1865.87 53.325 1863.57 54.275C1861.27 55.175 1859.17 55.625 1857.27 55.625C1855.27 55.625 1852.92 54.425 1850.22 52.025C1848.87 50.825 1847.7 49.7 1846.7 48.65C1845.75 47.6 1844.92 46.675 1844.22 45.875C1843.52 45.075 1842.9 44.45 1842.35 44C1841.85 43.55 1841.37 43.325 1840.92 43.325C1839.47 43.325 1838.3 43.775 1837.4 44.675C1836.5 45.575 1835.92 46.625 1835.67 47.825C1835.67 50.075 1836.07 51.95 1836.87 53.45C1837.72 54.95 1839.02 56.1 1840.77 56.9L1830.95 63.875C1830.3 63.525 1829.65 63.075 1829 62.525C1828.35 61.975 1827.77 61.35 1827.27 60.65C1826.77 59.9 1826.37 59.1 1826.07 58.25C1825.77 57.35 1825.62 56.4 1825.62 55.4C1825.62 53.2 1826.35 50.875 1827.8 48.425C1829.25 45.975 1831 43.725 1833.05 41.675C1835.15 39.625 1837.35 37.925 1839.65 36.575C1842 35.225 1844.05 34.55 1845.8 34.55C1846.8 34.55 1847.85 34.95 1848.95 35.75C1850.05 36.55 1851.1 37.475 1852.1 38.525C1853.1 39.525 1853.97 40.525 1854.72 41.525C1855.52 42.475 1856.12 43.15 1856.52 43.55C1857.37 44.45 1858.32 45.3 1859.37 46.1C1860.42 46.85 1861.77 47.225 1863.42 47.225C1865.52 47.225 1867.02 46.4 1867.92 44.75C1868.87 43.1 1869.35 41.15 1869.35 38.9C1869.35 37.4 1869 35.875 1868.3 34.325C1867.6 32.725 1866.62 31.3 1865.37 30.05C1864.17 28.8 1862.75 27.775 1861.1 26.975C1859.5 26.175 1857.77 25.775 1855.92 25.775H1826.3L1831.85 16.55H1870.32C1871.22 16.55 1871.92 16.4 1872.42 16.1C1872.97 15.8 1873.25 15.35 1873.25 14.75C1873.25 11.95 1870.65 9.7 1865.45 8L1872.87 0.649999C1878.02 3.2 1880.6 7.3 1880.6 12.95C1880.6 19.3 1878.1 23.475 1873.1 25.475C1873.7 26.225 1874.25 27.075 1874.75 28.025C1875.25 28.925 1875.67 29.875 1876.02 30.875C1876.37 31.875 1876.65 32.9 1876.85 33.95C1877.05 34.95 1877.15 35.925 1877.15 36.875ZM1894.29 76.85C1894.49 76.55 1894.61 76.225 1894.66 75.875C1894.71 75.575 1894.74 75.275 1894.74 74.975C1894.74 74.325 1894.71 73.725 1894.66 73.175C1894.66 72.675 1894.49 72.15 1894.14 71.6C1893.59 72.45 1892.81 73.225 1891.81 73.925C1890.86 74.625 1889.76 75.2 1888.51 75.65C1887.31 76.15 1886.06 76.525 1884.76 76.775C1883.46 77.025 1882.24 77.15 1881.09 77.15C1879.69 77.15 1878.29 77.025 1876.89 76.775C1875.49 76.525 1874.24 76.1 1873.14 75.5C1871.99 74.95 1871.06 74.225 1870.36 73.325C1869.61 72.475 1869.24 71.425 1869.24 70.175C1869.24 69.025 1869.61 67.9 1870.36 66.8C1871.11 65.75 1872.16 64.8 1873.51 63.95C1874.86 63.15 1876.46 62.5 1878.31 62C1880.16 61.5 1882.21 61.25 1884.46 61.25C1886.26 61.25 1887.76 61.35 1888.96 61.55C1890.21 61.7 1891.66 62.05 1893.31 62.6C1893.41 62.35 1893.46 62.15 1893.46 62C1893.46 61.85 1893.46 61.625 1893.46 61.325C1893.46 60.475 1893.24 59.575 1892.79 58.625C1892.34 57.675 1891.74 56.8 1890.99 56C1890.24 55.2 1889.34 54.525 1888.29 53.975C1887.29 53.375 1886.24 53 1885.14 52.85L1890.69 46.325C1892.19 46.875 1893.49 47.625 1894.59 48.575C1895.74 49.475 1896.69 50.525 1897.44 51.725C1898.19 52.875 1898.76 54.125 1899.16 55.475C1899.56 56.825 1899.76 58.15 1899.76 59.45C1899.76 60.7 1899.66 61.9 1899.46 63.05C1899.26 64.2 1898.94 65.175 1898.49 65.975C1899.94 67.175 1900.96 68.4 1901.56 69.65C1902.16 70.9 1902.59 72.35 1902.84 74L1894.29 76.85ZM1892.04 68.975C1890.69 68.025 1889.09 67.325 1887.24 66.875C1885.39 66.425 1883.74 66.2 1882.29 66.2C1881.79 66.2 1881.24 66.225 1880.64 66.275C1879.99 66.325 1879.39 66.425 1878.84 66.575C1878.24 66.725 1877.76 66.9 1877.41 67.1C1877.01 67.35 1876.81 67.65 1876.81 68C1876.81 68.55 1877.04 69 1877.49 69.35C1877.94 69.75 1878.54 70.075 1879.29 70.325C1879.99 70.575 1880.76 70.75 1881.61 70.85C1882.46 70.95 1883.29 71 1884.09 71C1885.64 71 1887.06 70.875 1888.36 70.625C1889.71 70.375 1890.94 69.825 1892.04 68.975ZM1946.59 39.05C1946.59 40.8 1945.99 42.65 1944.79 44.6C1943.64 46.55 1942.17 48.35 1940.37 50C1938.62 51.6 1936.69 52.95 1934.59 54.05C1932.54 55.1 1930.59 55.625 1928.74 55.625C1926.69 55.625 1925.04 55.3 1923.79 54.65C1922.59 53.95 1921.57 53.2 1920.72 52.4C1919.87 51.55 1919.09 50.8 1918.39 50.15C1917.74 49.45 1916.94 49.1 1915.99 49.1C1915.14 49.1 1914.37 49.425 1913.67 50.075C1913.02 50.725 1912.37 51.45 1911.72 52.25C1911.07 53.05 1910.39 53.775 1909.69 54.425C1908.99 55.075 1908.19 55.4 1907.29 55.4C1905.64 55.4 1904.12 55.025 1902.72 54.275C1901.37 53.475 1900.19 52.475 1899.19 51.275C1898.24 50.075 1897.49 48.75 1896.94 47.3C1896.39 45.85 1896.12 44.45 1896.12 43.1C1896.12 41.3 1896.39 39.55 1896.94 37.85C1897.49 36.1 1898.27 34.475 1899.27 32.975C1900.27 31.425 1901.44 30.05 1902.79 28.85C1904.14 27.6 1905.64 26.575 1907.29 25.775H1894.62L1901.97 16.55H1936.62C1937.32 16.5 1937.89 16.325 1938.34 16.025C1938.79 15.725 1939.02 15.3 1939.02 14.75C1939.02 11.95 1936.42 9.7 1931.22 8L1938.64 0.649999C1943.79 3.2 1946.37 7.3 1946.37 12.95C1946.37 19.9 1943.32 24.25 1937.22 26C1939.22 27.4 1940.62 29.15 1941.42 31.25C1942.02 31.3 1942.62 31.575 1943.22 32.075C1943.87 32.575 1944.44 33.2 1944.94 33.95C1945.44 34.7 1945.84 35.525 1946.14 36.425C1946.44 37.325 1946.59 38.2 1946.59 39.05ZM1937.44 44.45C1937.24 42.65 1936.84 41.425 1936.24 40.775L1930.09 43.475L1924.84 34.4L1931.29 32.15C1930.59 30.55 1929.22 29.2 1927.17 28.1C1925.17 27 1922.59 26.45 1919.44 26.45C1917.79 26.45 1916.17 26.7 1914.57 27.2C1912.97 27.65 1911.52 28.325 1910.22 29.225C1908.92 30.125 1907.87 31.225 1907.07 32.525C1906.27 33.775 1905.87 35.2 1905.87 36.8C1905.87 37.95 1905.97 39.05 1906.17 40.1C1906.42 41.15 1906.74 42.1 1907.14 42.95C1907.59 43.75 1908.12 44.4 1908.72 44.9C1909.32 45.4 1909.97 45.65 1910.67 45.65C1911.32 45.65 1911.84 45.35 1912.24 44.75C1912.69 44.15 1913.19 43.5 1913.74 42.8C1914.34 42.1 1915.04 41.45 1915.84 40.85C1916.69 40.25 1917.84 39.95 1919.29 39.95C1920.79 39.95 1922.04 40.375 1923.04 41.225C1924.09 42.025 1925.09 42.925 1926.04 43.925C1926.99 44.875 1927.97 45.775 1928.97 46.625C1930.02 47.425 1931.29 47.825 1932.79 47.825C1933.89 47.825 1934.94 47.575 1935.94 47.075C1936.94 46.575 1937.44 45.7 1937.44 44.45ZM2006.33 25.775C2007.48 27.375 2008.38 29.15 2009.03 31.1C2009.68 33 2010 34.875 2010 36.725C2010 39.425 2009.33 41.95 2007.98 44.3C2006.63 46.6 2004.95 48.6 2002.95 50.3C2000.95 51.95 1998.8 53.25 1996.5 54.2C1994.2 55.15 1992.08 55.625 1990.13 55.625C1985.38 55.625 1981.25 53.575 1977.75 49.475C1977.05 49.075 1976.4 48.875 1975.8 48.875C1975.15 48.875 1974.58 49.1 1974.08 49.55C1973.48 50.1 1972.88 50.725 1972.28 51.425C1971.73 52.075 1971.13 52.7 1970.48 53.3C1969.83 53.9 1969.1 54.4 1968.3 54.8C1967.5 55.2 1966.58 55.4 1965.53 55.4C1964.28 55.4 1963.05 55.125 1961.85 54.575C1960.7 54.025 1959.65 53.325 1958.7 52.475C1957.8 51.575 1957.05 50.575 1956.45 49.475C1955.9 48.325 1955.63 47.175 1955.63 46.025C1955.63 44.325 1956.08 42.675 1956.98 41.075C1957.93 39.425 1959.1 37.975 1960.5 36.725C1961.9 35.425 1963.4 34.4 1965 33.65C1966.6 32.85 1968.08 32.45 1969.43 32.45L1975.35 39.725C1971.65 40.625 1969.48 42.225 1968.83 44.525C1968.83 44.775 1968.9 45.025 1969.05 45.275C1969.25 45.525 1969.58 45.65 1970.03 45.65C1970.88 45.65 1971.7 45.35 1972.5 44.75C1973.35 44.1 1974.23 43.4 1975.13 42.65C1976.03 41.85 1977 41.15 1978.05 40.55C1979.1 39.9 1980.3 39.575 1981.65 39.575L1981.58 39.65C1982.58 39.75 1983.48 40.2 1984.28 41C1985.13 41.75 1985.98 42.575 1986.83 43.475C1987.73 44.375 1988.7 45.2 1989.75 45.95C1990.85 46.7 1992.15 47.075 1993.65 47.075C1994.75 47.075 1995.68 46.85 1996.43 46.4C1997.18 45.95 1997.78 45.35 1998.23 44.6C1998.73 43.8 1999.08 42.9 1999.28 41.9C1999.48 40.9 1999.58 39.85 1999.58 38.75C1999.58 37.3 1999.23 35.825 1998.53 34.325C1997.88 32.825 1996.95 31.45 1995.75 30.2C1994.6 28.95 1993.25 27.925 1991.7 27.125C1990.15 26.325 1988.5 25.875 1986.75 25.775H1956.38L1961.85 16.55H2006.4L2006.33 25.775ZM2047.46 32.375C2047.46 35.225 2046.91 38.05 2045.81 40.85C2044.71 43.6 2043.23 46.075 2041.38 48.275C2039.53 50.475 2037.43 52.25 2035.08 53.6C2032.73 54.95 2030.28 55.625 2027.73 55.625C2025.98 55.625 2024.41 55.325 2023.01 54.725C2021.66 54.075 2020.48 53.225 2019.48 52.175C2018.53 51.075 2017.81 49.8 2017.31 48.35C2016.81 46.85 2016.56 45.275 2016.56 43.625C2016.56 34.125 2021.33 29.075 2030.88 28.475L2033.21 40.175C2032.31 39.925 2031.51 39.8 2030.81 39.8C2029.91 39.8 2028.98 40.025 2028.03 40.475C2027.13 40.925 2026.68 41.7 2026.68 42.8C2026.68 43.55 2026.88 44.275 2027.28 44.975C2027.68 45.675 2028.21 46.275 2028.86 46.775C2029.51 47.275 2030.23 47.675 2031.03 47.975C2031.88 48.275 2032.71 48.425 2033.51 48.425C2034.16 48.425 2034.81 48.275 2035.46 47.975C2036.16 47.625 2036.78 47.1 2037.33 46.4C2037.93 45.7 2038.41 44.8 2038.76 43.7C2039.16 42.55 2039.36 41.175 2039.36 39.575C2039.36 37.825 2039.16 36.15 2038.76 34.55C2038.41 32.9 2037.93 31.45 2037.33 30.2C2036.73 28.9 2036.06 27.875 2035.31 27.125C2034.61 26.325 2033.91 25.875 2033.21 25.775H1995.41V16.625H2036.21C2037.76 16.625 2039.21 17.025 2040.56 17.825C2041.91 18.575 2043.08 19.65 2044.08 21.05C2045.13 22.45 2045.96 24.125 2046.56 26.075C2047.16 27.975 2047.46 30.075 2047.46 32.375ZM2098.56 55.55C2098.11 46.35 2096.41 39.525 2093.46 35.075C2090.51 30.625 2085.96 28.4 2079.81 28.4C2075.96 28.4 2072.84 29.525 2070.44 31.775C2068.09 33.975 2066.91 37.25 2066.91 41.6C2066.91 46.1 2068.56 50.775 2071.86 55.625H2059.34C2057.24 51.075 2056.19 47.275 2056.19 44.225C2056.19 40.425 2056.96 37.1 2058.51 34.25C2060.11 31.35 2062.44 28.9 2065.49 26.9C2063.09 26.4 2061.54 24.3 2060.84 20.6C2060.84 15.95 2062.24 12.525 2065.04 10.325C2067.84 8.075 2072.24 6.95 2078.24 6.95C2096.74 8.65 2107.19 24.875 2109.59 55.625L2098.56 55.55ZM2087.54 23C2087.29 22.15 2086.89 21.225 2086.34 20.225C2085.79 19.225 2085.06 18.3 2084.16 17.45C2083.26 16.55 2082.19 15.825 2080.94 15.275C2079.69 14.675 2078.24 14.375 2076.59 14.375C2075.89 14.375 2075.16 14.45 2074.41 14.6C2073.66 14.7 2072.96 14.9 2072.31 15.2C2071.71 15.45 2071.21 15.8 2070.81 16.25C2070.41 16.7 2070.21 17.25 2070.21 17.9C2070.21 20.65 2071.54 22.025 2074.19 22.025C2075.24 22.025 2076.44 21.875 2077.79 21.575C2079.19 21.225 2080.36 21.05 2081.31 21.05C2082.76 21.05 2084.84 21.7 2087.54 23ZM2168.92 34.4C2168.92 37 2168.27 39.575 2166.97 42.125C2165.72 44.675 2163.89 46.95 2161.49 48.95C2159.09 50.95 2156.17 52.575 2152.72 53.825C2149.32 55.025 2145.49 55.625 2141.24 55.625C2138.54 55.625 2135.99 55.3 2133.59 54.65C2131.19 54 2129.09 53.1 2127.29 51.95C2125.49 50.75 2124.07 49.325 2123.02 47.675C2122.02 45.975 2121.52 44.1 2121.52 42.05C2121.52 38.45 2122.64 35.275 2124.89 32.525C2127.19 29.725 2130.19 27.475 2133.89 25.775H2118.59L2127.97 16.55H2163.82C2164.52 16.5 2165.09 16.325 2165.54 16.025C2165.99 15.725 2166.22 15.3 2166.22 14.75C2166.22 11.95 2163.62 9.7 2158.42 8L2165.84 0.649999C2170.99 3.2 2173.57 7.3 2173.57 12.95C2173.57 19.75 2170.64 24.075 2164.79 25.925C2166.09 26.825 2167.09 27.95 2167.79 29.3C2168.54 30.6 2168.92 32.3 2168.92 34.4ZM2160.67 38.75C2160.67 37.2 2160.22 35.75 2159.32 34.4C2158.47 33.05 2157.29 31.9 2155.79 30.95C2154.29 29.95 2152.52 29.175 2150.47 28.625C2148.47 28.075 2146.32 27.8 2144.02 27.8C2142.17 27.8 2140.44 28.025 2138.84 28.475C2137.24 28.925 2135.84 29.575 2134.64 30.425C2133.44 31.225 2132.49 32.2 2131.79 33.35C2131.09 34.45 2130.74 35.675 2130.74 37.025C2130.74 38.875 2131.34 40.5 2132.54 41.9C2133.74 43.25 2135.24 44.375 2137.04 45.275C2138.84 46.175 2140.79 46.85 2142.89 47.3C2144.99 47.75 2146.97 47.975 2148.82 47.975C2152.52 47.975 2155.42 47.15 2157.52 45.5C2159.62 43.8 2160.67 41.55 2160.67 38.75ZM2201.96 34.25C2201.96 35.75 2201.63 37.325 2200.98 38.975C2200.33 40.575 2199.48 42.15 2198.43 43.7C2197.38 45.2 2196.18 46.65 2194.83 48.05C2193.48 49.4 2192.11 50.6 2190.71 51.65C2188.61 53 2186.16 53.975 2183.36 54.575C2180.61 55.125 2178.53 55.4 2177.13 55.4C2171.23 55.05 2166.96 52.525 2164.31 47.825L2166.86 40.475C2171.41 44.775 2176.68 46.925 2182.68 46.925C2184.18 46.925 2185.58 46.725 2186.88 46.325C2188.18 45.875 2189.31 45.25 2190.26 44.45C2191.26 43.65 2192.03 42.675 2192.58 41.525C2193.18 40.325 2193.48 38.975 2193.48 37.475C2193.48 35.925 2193.11 34.425 2192.36 32.975C2191.61 31.525 2190.61 30.225 2189.36 29.075C2188.11 27.925 2186.63 27 2184.93 26.3C2183.28 25.6 2181.56 25.25 2179.76 25.25C2179.46 25.25 2179.16 25.275 2178.86 25.325C2178.56 25.325 2178.26 25.35 2177.96 25.4L2184.86 16.55C2187.26 17.1 2189.48 17.825 2191.53 18.725C2193.63 19.575 2195.46 20.7 2197.01 22.1C2198.56 23.45 2199.76 25.125 2200.61 27.125C2201.51 29.075 2201.96 31.45 2201.96 34.25ZM2212.84 44.675C2214.34 44.675 2215.64 45.2 2216.74 46.25C2217.84 47.3 2218.39 48.6 2218.39 50.15C2218.39 51.6 2217.84 52.875 2216.74 53.975C2215.64 55.025 2214.34 55.55 2212.84 55.55C2211.39 55.55 2210.11 55.025 2209.01 53.975C2207.91 52.875 2207.36 51.6 2207.36 50.15C2207.36 48.6 2207.91 47.3 2209.01 46.25C2210.11 45.2 2211.39 44.675 2212.84 44.675Z" fill="black"/>
</svg>
