<svg width="1747" height="85" viewBox="0 0 1747 85" fill="none" xmlns="http://www.w3.org/2000/svg">
<path d="M10.0342 51.9268C7.2998 51.9268 5.00488 50.9746 3.14941 49.0703C1.29395 47.166 0.390625 44.9932 0.439453 42.5518C0.537109 39.3535 1.34277 36.7778 2.85645 34.8247C4.58984 32.5786 6.98242 31.48 10.0342 31.5288C11.4746 31.5532 12.6587 32.0781 13.5864 33.1035C14.6362 34.2754 15.1611 35.4473 15.1611 36.6191C14.9902 37.8643 14.5508 38.9263 13.8428 39.8052C13.1348 40.6841 12.2437 41.1235 11.1694 41.1235C10.3882 41.0503 9.61914 40.8062 8.8623 40.3911C8.00781 39.7075 7.55615 39.0972 7.50732 38.5601C6.31104 39.3901 5.7373 40.7207 5.78613 42.5518C5.81055 43.9189 6.26221 44.9932 7.14111 45.7744C8.04443 46.5312 9.19189 46.8853 10.5835 46.8364C14.6362 46.6655 17.8589 43.9067 20.2515 38.5601C21.1304 37.1685 21.7285 36.2285 22.0459 35.7402C22.876 34.9834 23.4985 34.605 23.9136 34.605H26.9897C27.1606 34.7026 27.2949 34.7759 27.3926 34.8247C27.8809 35.1909 28.125 35.5938 28.125 36.0332C27.9297 37.1318 27.8076 37.7544 27.7588 37.9009C27.4414 38.438 27.2827 38.8652 27.2827 39.1826C26.7456 39.5732 26.4771 40.6963 26.4771 42.5518C26.6235 43.8945 27.1606 44.9688 28.0884 45.7744C29.0405 46.5557 30.2002 46.9097 31.5674 46.8364C34.6191 46.6655 37.0239 44.981 38.7817 41.7827C40.3198 38.9995 41.04 36.0332 40.9424 32.8838C40.8203 27.9277 38.4033 23.6309 33.6914 19.9932C29.2236 16.5264 24.4385 14.793 19.3359 14.793C15.7715 14.793 12.6709 15.3423 10.0342 16.4409C9.57031 16.6362 8.89893 16.7339 8.02002 16.7339C7.26318 16.7339 6.88477 16.27 6.88477 15.3423C6.88477 13.438 7.4707 12.4126 8.64258 12.2661C10.6445 10.8745 14.5142 10.1909 20.2515 10.2153C26.4038 10.2642 32.1777 12.4614 37.5732 16.8071C43.4082 21.519 46.3135 26.8779 46.2891 32.8838C46.2402 38.1328 45.0562 42.4541 42.7368 45.8477C39.978 49.9004 36.1572 51.9268 31.2744 51.9268C28.6377 51.6826 26.5869 51.0601 25.1221 50.0591C23.1689 48.6919 22.1924 46.8364 22.1924 44.4927C19.9463 49.4487 15.8936 51.9268 10.0342 51.9268ZM99.939 32.4077C99.939 32.7251 99.9146 33.1035 99.8657 33.543C99.231 38.9873 96.7285 43.4185 92.3584 46.8364C88.1836 50.0835 82.6294 51.707 75.6958 51.707C69.2993 51.707 64.209 50.0347 60.4248 46.6899C56.7139 43.4185 54.8584 38.8896 54.8584 33.1035V31.6021C54.8828 31.5288 54.9561 30.9062 55.0781 29.7344C55.6641 24.8271 56.9702 20.7744 58.9966 17.5762C61.4868 13.6455 64.978 11.6436 69.4702 11.5703C73.3276 12.3271 75.1343 14.4023 74.8901 17.7959C74.5972 21.9463 72.2412 24.0215 67.8223 24.0215C64.9902 23.6553 63.5742 22.6055 63.5742 20.8721C62.0605 22.6787 61.0107 25.4253 60.4248 29.1118C60.4248 29.2339 60.4126 29.5635 60.3882 30.1006C60.3638 30.6133 60.3516 31.1138 60.3516 31.6021C60.2783 36.4849 61.6699 40.2324 64.5264 42.8447C67.2119 45.3105 71.0449 46.5679 76.0254 46.6167C80.7373 46.6411 84.8145 45.6523 88.2568 43.6504C92.3096 41.2822 94.5557 37.9131 94.9951 33.543C94.9951 29.8564 94.1162 26.6338 92.3584 23.875C90.4297 20.8477 87.7319 18.9678 84.2651 18.2354C83.8013 18.2354 83.0688 18.3452 82.0679 18.5649C81.0669 18.7603 80.3711 18.8579 79.9805 18.8579C79.5898 18.8579 79.2969 18.626 79.1016 18.1621C79.0283 18.04 78.9429 17.4175 78.8452 16.2944C79.0894 14.9272 80.2246 13.7798 82.251 12.8521C85.0586 11.5581 88.6475 10.9111 93.0176 10.9111L92.4316 15.1592C92.1143 15.3301 91.6138 15.5376 90.9302 15.7817C90.4907 15.7817 90.1367 15.855 89.8682 16.0015C92.8711 17.0269 95.3003 19.0044 97.1558 21.9341C99.0112 24.8394 99.939 27.9888 99.939 31.3823V32.4077ZM132.312 31.6753C132.312 33.5796 131.641 34.5317 130.298 34.5317C128.784 34.5317 128.052 34.5073 128.101 34.4585C127.832 34.3364 127.441 34.0801 126.929 33.6895C126.929 38.4502 126.05 42.5029 124.292 45.8477C122.119 49.998 118.848 52.0732 114.478 52.0732C112.061 52.0732 110.034 51.1089 108.398 49.1802C106.787 47.2515 105.957 44.8223 105.908 41.8926C105.884 37.9131 107.532 34.6294 110.852 32.0415C113.733 29.8198 117.285 28.6724 121.509 28.5991C120.386 23.6919 115.942 20.0176 108.179 17.5762C102.856 15.8916 96.8262 15.0127 90.0879 14.9395V10.9844C97.29 10.9844 104.517 12.2783 111.768 14.8662C121.167 18.2354 125.94 22.9839 126.086 29.1118C130.237 29.356 132.312 30.2104 132.312 31.6753ZM121.802 34.8247V33.1035C118.774 33.1768 116.272 34.1167 114.294 35.9233C112.317 37.7056 111.328 39.8906 111.328 42.4785C111.328 43.8701 111.67 45.0664 112.354 46.0674C113.062 47.0439 113.843 47.5444 114.697 47.5688C117.188 47.6177 119.08 46.0308 120.374 42.8081C121.326 40.4155 121.802 37.7544 121.802 34.8247ZM144.25 69.0654C144.324 71.9463 143.469 74.8516 141.687 77.7812C140.1 80.3936 137.83 82.5908 134.875 84.373C132.776 83.25 131.726 82.4077 131.726 81.8462C131.726 81.0894 132.495 80.2349 134.033 79.2827C137.793 75.6694 139.673 72.4468 139.673 69.6147C139.673 68.1255 139.148 66.7461 138.098 65.4766C136.975 64.3535 135.62 63.7554 134.033 63.6821C129.077 64.439 125.952 66.8926 124.658 71.043C124.072 72.2393 123.73 73.0327 123.633 73.4233C123.413 73.8628 123.083 74.1191 122.644 74.1924H120.996C120.044 74.1924 119.568 73.7163 119.568 72.7642C119.568 70.8843 119.946 69.4561 120.703 68.4795C117.798 65.2812 115.051 63.6821 112.463 63.6821C109.998 63.6821 108.044 64.561 106.604 66.3188C105.139 68.0767 104.382 70.2251 104.333 72.7642C104.309 76.1821 105.884 78.5503 109.058 79.8687C109.058 82.6763 108.386 84.0801 107.043 84.0801C104.773 83.6406 102.881 82.0171 101.367 79.2095C100.146 76.9878 99.5361 74.4609 99.5361 71.6289C99.5361 68.4795 100.867 65.6841 103.528 63.2427C106.067 60.8745 108.936 59.6904 112.134 59.6904C115.039 59.6904 117.407 60.2275 119.238 61.3018C121.069 62.4004 122.302 63.7676 122.937 65.4033C125.33 61.5947 129.028 59.6904 134.033 59.6904C137.183 59.6904 139.648 60.5327 141.431 62.2173C143.237 63.9019 144.177 66.1846 144.25 69.0654ZM194.238 35.2642C194.238 39.8296 193.115 43.687 190.869 46.8364C188.428 50.23 185.01 51.9512 180.615 52C178.076 52.0244 175.928 51.4263 174.17 50.2056C172.314 48.9116 171.155 47.0562 170.691 44.6392C169.983 46.9341 168.665 48.7407 166.736 50.0591C164.807 51.3774 162.634 52.0244 160.217 52C152.551 51.9512 148.767 47.3247 148.865 38.1206C148.914 33.9458 150.134 30.2593 152.527 27.061C154.919 23.8628 158.057 21.397 161.938 19.6636C158.228 19.6636 154.822 20.5181 151.721 22.2271C151.111 22.7642 150.061 23.0327 148.572 23.0327C147.424 23.0327 146.851 22.3857 146.851 21.0918C146.851 20.335 147.107 19.7368 147.62 19.2974C148.254 18.8823 149.426 18.3574 151.135 17.7227C157.312 15.3789 163.281 13.7065 169.043 12.7056L175.049 11.6436C176.782 11.375 178.613 11.0454 180.542 10.6548C182.495 10.2397 183.569 9.4707 183.765 8.34766C183.765 8.10352 183.582 7.70068 183.215 7.13916C183.142 6.82178 183.02 6.37012 182.849 5.78418C182.849 4.63672 183.704 4.06299 185.413 4.06299C187.17 4.28271 188.269 5.80859 188.708 8.64062C188.708 9.20215 188.757 9.67822 188.855 10.0688C188.855 11.5581 187.952 12.8154 186.145 13.8408C185.144 14.4023 183.044 14.8418 179.846 15.1592C178.625 15.2812 176.855 15.4888 174.536 15.7817C170.923 16.3677 167.749 17.2954 165.015 18.5649C166.04 18.2231 167.432 17.9912 169.189 17.8691C170.581 17.7959 172.107 17.7471 173.767 17.7227C178.992 17.6738 183.667 19.2485 187.793 22.4468C192.09 25.7915 194.238 30.064 194.238 35.2642ZM188.855 35.2642C188.855 31.9438 187.183 28.8677 183.838 26.0356C180.566 23.3013 177.039 21.9341 173.254 21.9341C167.786 21.9341 163.354 23.2402 159.961 25.8525C156.177 28.7334 154.285 32.8228 154.285 38.1206C154.285 40.2202 154.785 42.1489 155.786 43.9067C156.909 45.9087 158.484 46.9097 160.51 46.9097C163.733 46.9097 166.284 44.627 168.164 40.0615C168.53 39.1338 168.896 38.0107 169.263 36.6924C169.263 35.3496 170.117 34.6782 171.826 34.6782C173.877 34.6782 174.902 35.3496 174.902 36.6924V39.5488C174.902 41.5752 175.427 43.3208 176.477 44.7856C177.454 46.1772 178.833 46.8853 180.615 46.9097C183.496 46.9585 185.669 45.6523 187.134 42.9912C188.281 40.916 188.855 38.3403 188.855 35.2642ZM235.84 37.5347C235.84 42.4175 233.704 46.1528 229.431 48.7407C225.867 50.9136 221.484 52 216.284 52C211.987 52 208.618 50.8525 206.177 48.5576C203.662 46.2139 202.405 42.9058 202.405 38.6333C202.722 35.4839 203.955 32.5908 206.104 29.9541C208.13 27.4883 210.669 25.584 213.721 24.2412C212.524 23.6797 211.047 23.3867 209.29 23.3623C207.458 23.3135 205.042 23.0083 202.039 22.4468C201.331 21.9585 200.977 21.2383 200.977 20.2861C201.733 18.2354 203.259 16.8071 205.554 16.0015C209.534 13.9751 213.953 12.5225 218.811 11.6436C220.496 11.375 222.302 11.0576 224.231 10.6914C226.379 10.1543 227.478 9.37305 227.527 8.34766C227.551 8.05469 227.405 7.65186 227.087 7.13916C226.941 6.74854 226.819 6.29688 226.721 5.78418C226.721 4.63672 227.563 4.06299 229.248 4.06299C231.006 4.28271 232.104 5.80859 232.544 8.64062C232.544 9.20215 232.568 9.67822 232.617 10.0688C232.617 11.6313 231.75 12.8887 230.017 13.8408C228.967 14.4023 226.733 14.793 223.315 15.0127C218.286 15.3789 213.22 16.9292 208.118 19.6636C213.196 19.6636 216.87 20.1396 219.141 21.0918C222.168 19.7979 224.536 19.1509 226.245 19.1509C227.173 19.2241 227.954 19.4194 228.589 19.7368C229.272 20.2251 229.614 20.6768 229.614 21.0918C229.614 22.3857 228.296 23.0327 225.659 23.0327C228.076 23.5698 230.396 25.4741 232.617 28.7456C234.766 31.9194 235.84 34.8491 235.84 37.5347ZM230.75 37.5347C230.823 34.9712 229.712 32.2612 227.417 29.4048C225.122 26.5239 222.656 25.0835 220.02 25.0835C216.919 26.1333 214.221 27.8789 211.926 30.3203C209.753 32.6396 208.276 35.4106 207.495 38.6333C207.495 39.0483 207.471 39.4023 207.422 39.6953C207.422 41.917 208.472 43.748 210.571 45.1885C212.256 46.3359 214.355 46.9097 216.87 46.9097C221.094 46.9097 224.438 46.0674 226.904 44.3828C229.395 42.6982 230.676 40.4155 230.75 37.5347ZM296.265 34.2388C296.313 35.9233 295.935 36.9731 295.129 37.3882C294.25 37.022 293.604 36.7168 293.188 36.4727C292.334 35.9844 291.785 35.7158 291.541 35.667C291.125 35.4473 290.625 35.3374 290.039 35.3374C290.039 39.6099 289.136 43.3086 287.329 46.4336C285.181 50.1934 282.104 52.0732 278.101 52.0732C275.757 52.0732 273.889 51.1699 272.498 49.3633C271.13 47.6299 270.447 45.5059 270.447 42.9912C270.447 39.3779 271.948 36.3018 274.951 33.7627C277.661 31.4922 280.884 30.3203 284.619 30.2471C284.619 27.0977 283.85 24.168 282.312 21.458C280.457 18.2598 278.027 16.6606 275.024 16.6606C270.654 16.6606 267.053 18.9189 264.221 23.4355C262.219 26.6338 260.803 30.9062 259.973 36.2529C259.265 40.6719 257.69 44.4683 255.249 47.6421C252.954 50.5962 250.476 52.0732 247.815 52.0732C244.763 52.0732 242.004 51.0723 239.539 49.0703C237.073 47.0439 235.303 44.5415 234.229 41.563L235.071 36.7656C237.244 37.0098 238.745 38.5356 239.575 41.3433C241.895 45.103 244.641 46.9829 247.815 46.9829C249.792 46.9829 251.538 45.1396 253.052 41.4531C254.126 38.8164 254.822 36.1309 255.139 33.3965C255.92 27.0488 258.179 21.9463 261.914 18.0889C265.942 13.9385 270.496 11.8633 275.574 11.8633C280.066 11.8633 283.691 13.8652 286.45 17.8691C288.77 21.2627 289.966 25.3887 290.039 30.2471C291.724 30.3203 293.201 30.772 294.47 31.6021C295.642 32.3589 296.24 33.2378 296.265 34.2388ZM284.619 34.8247C282.373 35.3374 280.432 36.2407 278.796 37.5347C276.868 38.9995 275.891 40.8184 275.867 42.9912C275.818 45.6523 276.77 46.9829 278.723 46.9829C280.872 46.9829 282.507 45.1396 283.63 41.4531C284.216 39.5488 284.546 37.3394 284.619 34.8247ZM339.954 44.7856C340.247 46.2993 341.65 47.0562 344.165 47.0562C347.192 47.0562 350.891 45.5547 355.261 42.5518C352.332 39.8662 349.573 38.2671 346.985 37.7544C344.861 37.9009 343.152 38.5845 341.858 39.8052C340.588 41.0015 339.954 42.6616 339.954 44.7856ZM343.835 51.9268C340.808 51.7803 338.513 51.1577 336.951 50.0591C335.291 48.6187 334.485 46.8608 334.534 44.7856C334.631 41.4897 335.852 38.7798 338.196 36.6558C340.54 34.5317 343.372 33.4697 346.692 33.4697C350.623 33.4697 354.602 35.4473 358.63 39.4023C361.926 35.1055 363.525 30.9551 363.428 26.9512C363.379 24.7539 362.854 22.8252 361.853 21.165C360.51 19.5293 358.789 18.7114 356.689 18.7114C355.103 18.8579 353.784 19.2729 352.734 19.9565C351.709 20.6401 350.427 22.3735 348.889 25.1567C347.693 27.3052 346.118 28.3794 344.165 28.3794C343.115 27.9644 342.554 27.7324 342.48 27.6836C342.09 27.293 341.895 27.0488 341.895 26.9512C341.895 26.5361 341.992 25.9624 342.188 25.23C342.188 24.8149 342.285 24.4365 342.48 24.0947C342.627 23.6553 342.712 23.3867 342.737 23.2891C341.882 20.2373 339.905 18.7114 336.804 18.7114C334.68 18.7114 332.739 19.4683 330.981 20.9819C329.248 22.4956 328.381 24.3145 328.381 26.4385C328.845 27.7324 329.578 28.3794 330.579 28.3794C330.92 28.3794 331.47 28.7578 332.227 29.5146C332.129 30.2471 331.616 31.0527 330.688 31.9316C329.761 32.7861 328.992 33.2012 328.381 33.1768C324.939 33.0547 323.242 30.6011 323.291 25.8159C323.34 21.9829 324.622 19.0654 327.136 17.0635C329.749 14.9639 332.971 13.9141 336.804 13.9141C337.976 14.085 339.172 14.3779 340.393 14.793C343.762 15.9648 345.593 17.6616 345.886 19.8833C348.376 15.9038 351.978 13.9141 356.689 13.9141C360.522 13.9141 363.501 15.0737 365.625 17.3931C367.749 19.7124 368.811 22.7275 368.811 26.4385C368.811 32.2734 366.467 37.9131 361.78 43.3574C367.615 49.8271 370.532 54.7588 370.532 58.1523C370.337 58.8359 369.873 59.3608 369.141 59.7271C368.433 60.1665 367.676 60.3862 366.87 60.3862C365.698 60.3862 364.844 59.0679 364.307 56.4312C361.841 51.1821 359.851 47.6787 358.337 45.9209C356.799 47.3857 354.517 48.7529 351.489 50.0225C348.364 51.3896 345.813 52.0244 343.835 51.9268ZM411.768 37.5347C411.768 42.4175 409.631 46.1528 405.359 48.7407C401.794 50.9136 397.412 52 392.212 52C387.915 52 384.546 50.8525 382.104 48.5576C379.59 46.2139 378.333 42.9058 378.333 38.6333C378.65 35.4839 379.883 32.5908 382.031 29.9541C384.058 27.4883 386.597 25.584 389.648 24.2412C388.452 23.6797 386.975 23.3867 385.217 23.3623C383.386 23.3135 380.969 23.0083 377.966 22.4468C377.258 21.9585 376.904 21.2383 376.904 20.2861C377.661 18.2354 379.187 16.8071 381.482 16.0015C385.461 13.9751 389.88 12.5225 394.739 11.6436C396.423 11.375 398.23 11.0576 400.159 10.6914C402.307 10.1543 403.406 9.37305 403.455 8.34766C403.479 8.05469 403.333 7.65186 403.015 7.13916C402.869 6.74854 402.747 6.29688 402.649 5.78418C402.649 4.63672 403.491 4.06299 405.176 4.06299C406.934 4.28271 408.032 5.80859 408.472 8.64062C408.472 9.20215 408.496 9.67822 408.545 10.0688C408.545 11.6313 407.678 12.8887 405.945 13.8408C404.895 14.4023 402.661 14.793 399.243 15.0127C394.214 15.3789 389.148 16.9292 384.045 19.6636C389.124 19.6636 392.798 20.1396 395.068 21.0918C398.096 19.7979 400.464 19.1509 402.173 19.1509C403.101 19.2241 403.882 19.4194 404.517 19.7368C405.2 20.2251 405.542 20.6768 405.542 21.0918C405.542 22.3857 404.224 23.0327 401.587 23.0327C404.004 23.5698 406.323 25.4741 408.545 28.7456C410.693 31.9194 411.768 34.8491 411.768 37.5347ZM406.677 37.5347C406.75 34.9712 405.64 32.2612 403.345 29.4048C401.05 26.5239 398.584 25.0835 395.947 25.0835C392.847 26.1333 390.149 27.8789 387.854 30.3203C385.681 32.6396 384.204 35.4106 383.423 38.6333C383.423 39.0483 383.398 39.4023 383.35 39.6953C383.35 41.917 384.399 43.748 386.499 45.1885C388.184 46.3359 390.283 46.9097 392.798 46.9097C397.021 46.9097 400.366 46.0674 402.832 44.3828C405.322 42.6982 406.604 40.4155 406.677 37.5347ZM435.718 33.1035C435.718 38.2549 434.546 42.5762 432.202 46.0674C429.565 50.0225 425.745 52 420.74 52C417.615 52 414.807 51.3774 412.317 50.1323C409.558 48.7163 407.715 46.5923 406.787 43.7603C406.787 42.1489 407.556 40.3667 409.094 38.4136C410.608 38.6333 411.743 39.6587 412.5 41.4897C413.892 44.9077 416.711 46.6411 420.959 46.6899C423.987 46.7144 426.257 45.1152 427.771 41.8926C428.918 39.4512 429.492 36.5215 429.492 33.1035C429.492 26.5605 427.197 21.3604 422.607 17.5029C421.143 18.4551 419.666 18.9312 418.176 18.9312C416.858 18.9312 416.04 17.8569 415.723 15.7085C415.649 15.2446 416.101 14.5977 417.078 13.7676C417.444 13.3037 418.091 12.8521 419.019 12.4126C419.727 12.1196 420.703 11.8877 421.948 11.7168C424.487 11.7168 427.063 13.2427 429.675 16.2944C431.482 18.4185 432.849 20.6157 433.777 22.8862C435.071 26.0356 435.718 29.4414 435.718 33.1035ZM474.39 51.9268C471.655 51.9268 469.36 50.9746 467.505 49.0703C465.649 47.166 464.746 44.9932 464.795 42.5518C464.893 39.3535 465.698 36.7778 467.212 34.8247C468.945 32.5786 471.338 31.48 474.39 31.5288C475.83 31.5532 477.014 32.0781 477.942 33.1035C478.992 34.2754 479.517 35.4473 479.517 36.6191C479.346 37.8643 478.906 38.9263 478.198 39.8052C477.49 40.6841 476.599 41.1235 475.525 41.1235C474.744 41.0503 473.975 40.8062 473.218 40.3911C472.363 39.7075 471.912 39.0972 471.863 38.5601C470.667 39.3901 470.093 40.7207 470.142 42.5518C470.166 43.9189 470.618 44.9932 471.497 45.7744C472.4 46.5312 473.547 46.8853 474.939 46.8364C478.992 46.6655 482.214 43.9067 484.607 38.5601C485.486 37.1685 486.084 36.2285 486.401 35.7402C487.231 34.9834 487.854 34.605 488.269 34.605H491.345C491.516 34.7026 491.65 34.7759 491.748 34.8247C492.236 35.1909 492.48 35.5938 492.48 36.0332C492.285 37.1318 492.163 37.7544 492.114 37.9009C491.797 38.438 491.638 38.8652 491.638 39.1826C491.101 39.5732 490.833 40.6963 490.833 42.5518C490.979 43.8945 491.516 44.9688 492.444 45.7744C493.396 46.5557 494.556 46.9097 495.923 46.8364C498.975 46.6655 501.379 44.981 503.137 41.7827C504.675 38.9995 505.396 36.0332 505.298 32.8838C505.176 27.9277 502.759 23.6309 498.047 19.9932C493.579 16.5264 488.794 14.793 483.691 14.793C480.127 14.793 477.026 15.3423 474.39 16.4409C473.926 16.6362 473.254 16.7339 472.375 16.7339C471.619 16.7339 471.24 16.27 471.24 15.3423C471.24 13.438 471.826 12.4126 472.998 12.2661C475 10.8745 478.87 10.1909 484.607 10.2153C490.759 10.2642 496.533 12.4614 501.929 16.8071C507.764 21.519 510.669 26.8779 510.645 32.8838C510.596 38.1328 509.412 42.4541 507.092 45.8477C504.333 49.9004 500.513 51.9268 495.63 51.9268C492.993 51.6826 490.942 51.0601 489.478 50.0591C487.524 48.6919 486.548 46.8364 486.548 44.4927C484.302 49.4487 480.249 51.9268 474.39 51.9268ZM526.501 34.1655C526.526 37.2173 527.222 39.9883 528.589 42.4785C530.249 45.5059 532.471 46.9829 535.254 46.9097C539.185 46.7632 542.371 44.7246 544.812 40.7939C546.936 37.3516 547.998 33.543 547.998 29.3682C547.998 26.5117 547.351 23.8262 546.057 21.3115C544.421 18.1377 542.346 16.563 539.832 16.5874C535.681 16.6362 532.361 18.6382 529.871 22.5933C527.576 26.2065 526.453 30.064 526.501 34.1655ZM534.741 52C530.542 51.9756 527.197 49.9492 524.707 45.9209C522.485 42.4053 521.375 38.4868 521.375 34.1655C521.375 28.3794 522.974 23.3257 526.172 19.0044C529.858 14.0239 534.412 11.5947 539.832 11.7168C543.86 11.8145 547.131 13.6821 549.646 17.3198C552.161 20.9575 553.418 25.7183 553.418 31.6021C552.661 37.437 550.83 42.1367 547.925 45.7012C544.482 49.9492 540.088 52.0488 534.741 52ZM593.884 37.3882C593.884 40.6597 591.589 43.9556 587 47.2759C582.556 50.4741 578.149 52.0732 573.779 52.0732C570.532 52.0732 567.224 51.1455 563.855 49.29C559.973 47.1416 557.983 44.5659 557.886 41.563C557.812 39.2681 558.765 36.5459 560.742 33.3965L565.027 35.667C564.27 36.4238 563.599 38.3159 563.013 41.3433C563.013 42.7349 564.502 44.0898 567.48 45.4082C569.8 46.4092 571.899 46.9341 573.779 46.9829C576.099 47.0073 579.102 45.9819 582.788 43.9067C586.646 41.7339 588.574 39.561 588.574 37.3882C588.574 35.1177 587.622 33.4087 585.718 32.2612C581.567 37.022 577.795 39.3779 574.402 39.3291C573.059 39.3047 571.814 38.6943 570.667 37.498C569.543 36.3018 568.982 35.0322 568.982 33.6895C568.982 31.6387 570.386 29.6123 573.193 27.6104C575.659 25.8525 578.04 24.937 580.334 24.8638C581.946 24.7905 583.264 25.1812 584.29 26.0356C584.314 25.7427 584.363 25.2666 584.436 24.6074C584.436 24.2656 584.485 23.9727 584.583 23.7285C584.973 21.1162 581.482 18.8701 574.109 16.9902C572.766 17.1611 570.642 17.8325 567.737 19.0044C564.929 20.1274 562.878 20.75 561.584 20.8721C559.534 20.8721 558.508 20.2251 558.508 18.9312C558.875 17.564 559.717 16.8071 561.035 16.6606C570.874 12.8765 579.382 10.9844 586.56 10.9844L586.23 14.9395C584.033 15.501 582.434 15.7817 581.433 15.7817C582.751 16.0747 584.485 16.8682 586.633 18.1621C589.026 19.6514 590.125 20.9575 589.929 22.0806C589.929 24.6685 589.478 26.646 588.574 28.0132C592.114 30.7964 593.884 33.9214 593.884 37.3882ZM582.275 29.4414L579.492 29.1118C578.809 29.1118 577.783 29.6611 576.416 30.7598C575.073 31.834 574.402 32.7129 574.402 33.3965C574.402 34.1533 574.67 34.5317 575.208 34.5317C575.769 34.4585 576.978 33.7871 578.833 32.5176C580.566 31.2969 581.714 30.2715 582.275 29.4414ZM626.184 31.6753C626.184 33.5796 625.513 34.5317 624.17 34.5317C622.656 34.5317 621.924 34.5073 621.973 34.4585C621.704 34.3364 621.313 34.0801 620.801 33.6895C620.801 38.4502 619.922 42.5029 618.164 45.8477C615.991 49.998 612.72 52.0732 608.35 52.0732C605.933 52.0732 603.906 51.1089 602.271 49.1802C600.659 47.2515 599.829 44.8223 599.78 41.8926C599.756 37.9131 601.404 34.6294 604.724 32.0415C607.605 29.8198 611.157 28.6724 615.381 28.5991C614.258 23.6919 609.814 20.0176 602.051 17.5762C596.729 15.8916 590.698 15.0127 583.96 14.9395V10.9844C591.162 10.9844 598.389 12.2783 605.64 14.8662C615.039 18.2354 619.812 22.9839 619.958 29.1118C624.109 29.356 626.184 30.2104 626.184 31.6753ZM615.674 34.8247V33.1035C612.646 33.1768 610.144 34.1167 608.167 35.9233C606.189 37.7056 605.2 39.8906 605.2 42.4785C605.2 43.8701 605.542 45.0664 606.226 46.0674C606.934 47.0439 607.715 47.5444 608.569 47.5688C611.06 47.6177 612.952 46.0308 614.246 42.8081C615.198 40.4155 615.674 37.7544 615.674 34.8247ZM678.003 35.2642C678.003 39.8296 676.88 43.687 674.634 46.8364C672.192 50.23 668.774 51.9512 664.38 52C661.841 52.0244 659.692 51.4263 657.935 50.2056C656.079 48.9116 654.919 47.0562 654.456 44.6392C653.748 46.9341 652.429 48.7407 650.5 50.0591C648.572 51.3774 646.399 52.0244 643.982 52C636.316 51.9512 632.532 47.3247 632.629 38.1206C632.678 33.9458 633.899 30.2593 636.292 27.061C638.684 23.8628 641.821 21.397 645.703 19.6636C641.992 19.6636 638.586 20.5181 635.486 22.2271C634.875 22.7642 633.826 23.0327 632.336 23.0327C631.189 23.0327 630.615 22.3857 630.615 21.0918C630.615 20.335 630.872 19.7368 631.384 19.2974C632.019 18.8823 633.191 18.3574 634.9 17.7227C641.077 15.3789 647.046 13.7065 652.808 12.7056L658.813 11.6436C660.547 11.375 662.378 11.0454 664.307 10.6548C666.26 10.2397 667.334 9.4707 667.529 8.34766C667.529 8.10352 667.346 7.70068 666.98 7.13916C666.907 6.82178 666.785 6.37012 666.614 5.78418C666.614 4.63672 667.468 4.06299 669.177 4.06299C670.935 4.28271 672.034 5.80859 672.473 8.64062C672.473 9.20215 672.522 9.67822 672.62 10.0688C672.62 11.5581 671.716 12.8154 669.91 13.8408C668.909 14.4023 666.809 14.8418 663.611 15.1592C662.39 15.2812 660.62 15.4888 658.301 15.7817C654.688 16.3677 651.514 17.2954 648.779 18.5649C649.805 18.2231 651.196 17.9912 652.954 17.8691C654.346 17.7959 655.872 17.7471 657.532 17.7227C662.756 17.6738 667.432 19.2485 671.558 22.4468C675.854 25.7915 678.003 30.064 678.003 35.2642ZM672.62 35.2642C672.62 31.9438 670.947 28.8677 667.603 26.0356C664.331 23.3013 660.803 21.9341 657.019 21.9341C651.55 21.9341 647.119 23.2402 643.726 25.8525C639.941 28.7334 638.049 32.8228 638.049 38.1206C638.049 40.2202 638.55 42.1489 639.551 43.9067C640.674 45.9087 642.249 46.9097 644.275 46.9097C647.498 46.9097 650.049 44.627 651.929 40.0615C652.295 39.1338 652.661 38.0107 653.027 36.6924C653.027 35.3496 653.882 34.6782 655.591 34.6782C657.642 34.6782 658.667 35.3496 658.667 36.6924V39.5488C658.667 41.5752 659.192 43.3208 660.242 44.7856C661.218 46.1772 662.598 46.8853 664.38 46.9097C667.261 46.9585 669.434 45.6523 670.898 42.9912C672.046 40.916 672.62 38.3403 672.62 35.2642ZM719.604 37.5347C719.604 42.4175 717.468 46.1528 713.196 48.7407C709.631 50.9136 705.249 52 700.049 52C695.752 52 692.383 50.8525 689.941 48.5576C687.427 46.2139 686.169 42.9058 686.169 38.6333C686.487 35.4839 687.72 32.5908 689.868 29.9541C691.895 27.4883 694.434 25.584 697.485 24.2412C696.289 23.6797 694.812 23.3867 693.054 23.3623C691.223 23.3135 688.806 23.0083 685.803 22.4468C685.095 21.9585 684.741 21.2383 684.741 20.2861C685.498 18.2354 687.024 16.8071 689.319 16.0015C693.298 13.9751 697.717 12.5225 702.576 11.6436C704.26 11.375 706.067 11.0576 707.996 10.6914C710.144 10.1543 711.243 9.37305 711.292 8.34766C711.316 8.05469 711.169 7.65186 710.852 7.13916C710.706 6.74854 710.583 6.29688 710.486 5.78418C710.486 4.63672 711.328 4.06299 713.013 4.06299C714.771 4.28271 715.869 5.80859 716.309 8.64062C716.309 9.20215 716.333 9.67822 716.382 10.0688C716.382 11.6313 715.515 12.8887 713.782 13.8408C712.732 14.4023 710.498 14.793 707.08 15.0127C702.051 15.3789 696.985 16.9292 691.882 19.6636C696.96 19.6636 700.635 20.1396 702.905 21.0918C705.933 19.7979 708.301 19.1509 710.01 19.1509C710.938 19.2241 711.719 19.4194 712.354 19.7368C713.037 20.2251 713.379 20.6768 713.379 21.0918C713.379 22.3857 712.061 23.0327 709.424 23.0327C711.841 23.5698 714.16 25.4741 716.382 28.7456C718.53 31.9194 719.604 34.8491 719.604 37.5347ZM714.514 37.5347C714.587 34.9712 713.477 32.2612 711.182 29.4048C708.887 26.5239 706.421 25.0835 703.784 25.0835C700.684 26.1333 697.986 27.8789 695.691 30.3203C693.518 32.6396 692.041 35.4106 691.26 38.6333C691.26 39.0483 691.235 39.4023 691.187 39.6953C691.187 41.917 692.236 43.748 694.336 45.1885C696.021 46.3359 698.12 46.9097 700.635 46.9097C704.858 46.9097 708.203 46.0674 710.669 44.3828C713.159 42.6982 714.441 40.4155 714.514 37.5347ZM743.555 33.1035C743.555 38.2549 742.383 42.5762 740.039 46.0674C737.402 50.0225 733.582 52 728.577 52C725.452 52 722.644 51.3774 720.154 50.1323C717.395 48.7163 715.552 46.5923 714.624 43.7603C714.624 42.1489 715.393 40.3667 716.931 38.4136C718.445 38.6333 719.58 39.6587 720.337 41.4897C721.729 44.9077 724.548 46.6411 728.796 46.6899C731.824 46.7144 734.094 45.1152 735.608 41.8926C736.755 39.4512 737.329 36.5215 737.329 33.1035C737.329 26.5605 735.034 21.3604 730.444 17.5029C728.979 18.4551 727.502 18.9312 726.013 18.9312C724.695 18.9312 723.877 17.8569 723.56 15.7085C723.486 15.2446 723.938 14.5977 724.915 13.7676C725.281 13.3037 725.928 12.8521 726.855 12.4126C727.563 12.1196 728.54 11.8877 729.785 11.7168C732.324 11.7168 734.9 13.2427 737.512 16.2944C739.319 18.4185 740.686 20.6157 741.614 22.8862C742.908 26.0356 743.555 29.4414 743.555 33.1035ZM789.148 44.7856C789.441 46.2993 790.845 47.0562 793.359 47.0562C796.387 47.0562 800.085 45.5547 804.456 42.5518C801.526 39.8662 798.767 38.2671 796.179 37.7544C794.055 37.9009 792.346 38.5845 791.052 39.8052C789.783 41.0015 789.148 42.6616 789.148 44.7856ZM793.03 51.9268C790.002 51.7803 787.708 51.1577 786.145 50.0591C784.485 48.6187 783.679 46.8608 783.728 44.7856C783.826 41.4897 785.046 38.7798 787.39 36.6558C789.734 34.5317 792.566 33.4697 795.886 33.4697C799.817 33.4697 803.796 35.4473 807.825 39.4023C811.121 35.1055 812.72 30.9551 812.622 26.9512C812.573 24.7539 812.048 22.8252 811.047 21.165C809.705 19.5293 807.983 18.7114 805.884 18.7114C804.297 18.8579 802.979 19.2729 801.929 19.9565C800.903 20.6401 799.622 22.3735 798.083 25.1567C796.887 27.3052 795.312 28.3794 793.359 28.3794C792.31 27.9644 791.748 27.7324 791.675 27.6836C791.284 27.293 791.089 27.0488 791.089 26.9512C791.089 26.5361 791.187 25.9624 791.382 25.23C791.382 24.8149 791.479 24.4365 791.675 24.0947C791.821 23.6553 791.907 23.3867 791.931 23.2891C791.077 20.2373 789.099 18.7114 785.999 18.7114C783.875 18.7114 781.934 19.4683 780.176 20.9819C778.442 22.4956 777.576 24.3145 777.576 26.4385C778.04 27.7324 778.772 28.3794 779.773 28.3794C780.115 28.3794 780.664 28.7578 781.421 29.5146C781.323 30.2471 780.811 31.0527 779.883 31.9316C778.955 32.7861 778.186 33.2012 777.576 33.1768C774.133 33.0547 772.437 30.6011 772.485 25.8159C772.534 21.9829 773.816 19.0654 776.331 17.0635C778.943 14.9639 782.166 13.9141 785.999 13.9141C787.17 14.085 788.367 14.3779 789.587 14.793C792.957 15.9648 794.788 17.6616 795.081 19.8833C797.571 15.9038 801.172 13.9141 805.884 13.9141C809.717 13.9141 812.695 15.0737 814.819 17.3931C816.943 19.7124 818.005 22.7275 818.005 26.4385C818.005 32.2734 815.662 37.9131 810.974 43.3574C816.809 49.8271 819.727 54.7588 819.727 58.1523C819.531 58.8359 819.067 59.3608 818.335 59.7271C817.627 60.1665 816.87 60.3862 816.064 60.3862C814.893 60.3862 814.038 59.0679 813.501 56.4312C811.035 51.1821 809.045 47.6787 807.532 45.9209C805.994 47.3857 803.711 48.7529 800.684 50.0225C797.559 51.3896 795.007 52.0244 793.03 51.9268ZM860.962 37.5347C860.962 42.4175 858.826 46.1528 854.553 48.7407C850.989 50.9136 846.606 52 841.406 52C837.109 52 833.74 50.8525 831.299 48.5576C828.784 46.2139 827.527 42.9058 827.527 38.6333C827.844 35.4839 829.077 32.5908 831.226 29.9541C833.252 27.4883 835.791 25.584 838.843 24.2412C837.646 23.6797 836.169 23.3867 834.412 23.3623C832.581 23.3135 830.164 23.0083 827.161 22.4468C826.453 21.9585 826.099 21.2383 826.099 20.2861C826.855 18.2354 828.381 16.8071 830.676 16.0015C834.656 13.9751 839.075 12.5225 843.933 11.6436C845.618 11.375 847.424 11.0576 849.353 10.6914C851.501 10.1543 852.6 9.37305 852.649 8.34766C852.673 8.05469 852.527 7.65186 852.209 7.13916C852.063 6.74854 851.941 6.29688 851.843 5.78418C851.843 4.63672 852.686 4.06299 854.37 4.06299C856.128 4.28271 857.227 5.80859 857.666 8.64062C857.666 9.20215 857.69 9.67822 857.739 10.0688C857.739 11.6313 856.873 12.8887 855.139 13.8408C854.089 14.4023 851.855 14.793 848.438 15.0127C843.408 15.3789 838.342 16.9292 833.24 19.6636C838.318 19.6636 841.992 20.1396 844.263 21.0918C847.29 19.7979 849.658 19.1509 851.367 19.1509C852.295 19.2241 853.076 19.4194 853.711 19.7368C854.395 20.2251 854.736 20.6768 854.736 21.0918C854.736 22.3857 853.418 23.0327 850.781 23.0327C853.198 23.5698 855.518 25.4741 857.739 28.7456C859.888 31.9194 860.962 34.8491 860.962 37.5347ZM855.872 37.5347C855.945 34.9712 854.834 32.2612 852.539 29.4048C850.244 26.5239 847.778 25.0835 845.142 25.0835C842.041 26.1333 839.343 27.8789 837.048 30.3203C834.875 32.6396 833.398 35.4106 832.617 38.6333C832.617 39.0483 832.593 39.4023 832.544 39.6953C832.544 41.917 833.594 43.748 835.693 45.1885C837.378 46.3359 839.478 46.9097 841.992 46.9097C846.216 46.9097 849.561 46.0674 852.026 44.3828C854.517 42.6982 855.798 40.4155 855.872 37.5347ZM884.912 33.1035C884.912 38.2549 883.74 42.5762 881.396 46.0674C878.76 50.0225 874.939 52 869.934 52C866.809 52 864.001 51.3774 861.511 50.1323C858.752 48.7163 856.909 46.5923 855.981 43.7603C855.981 42.1489 856.75 40.3667 858.289 38.4136C859.802 38.6333 860.938 39.6587 861.694 41.4897C863.086 44.9077 865.906 46.6411 870.154 46.6899C873.181 46.7144 875.452 45.1152 876.965 41.8926C878.113 39.4512 878.687 36.5215 878.687 33.1035C878.687 26.5605 876.392 21.3604 871.802 17.5029C870.337 18.4551 868.86 18.9312 867.371 18.9312C866.052 18.9312 865.234 17.8569 864.917 15.7085C864.844 15.2446 865.295 14.5977 866.272 13.7676C866.638 13.3037 867.285 12.8521 868.213 12.4126C868.921 12.1196 869.897 11.8877 871.143 11.7168C873.682 11.7168 876.257 13.2427 878.87 16.2944C880.676 18.4185 882.043 20.6157 882.971 22.8862C884.265 26.0356 884.912 29.4414 884.912 33.1035ZM923.584 51.9268C920.85 51.9268 918.555 50.9746 916.699 49.0703C914.844 47.166 913.94 44.9932 913.989 42.5518C914.087 39.3535 914.893 36.7778 916.406 34.8247C918.14 32.5786 920.532 31.48 923.584 31.5288C925.024 31.5532 926.208 32.0781 927.136 33.1035C928.186 34.2754 928.711 35.4473 928.711 36.6191C928.54 37.8643 928.101 38.9263 927.393 39.8052C926.685 40.6841 925.793 41.1235 924.719 41.1235C923.938 41.0503 923.169 40.8062 922.412 40.3911C921.558 39.7075 921.106 39.0972 921.057 38.5601C919.861 39.3901 919.287 40.7207 919.336 42.5518C919.36 43.9189 919.812 44.9932 920.691 45.7744C921.594 46.5312 922.742 46.8853 924.133 46.8364C928.186 46.6655 931.409 43.9067 933.801 38.5601C934.68 37.1685 935.278 36.2285 935.596 35.7402C936.426 34.9834 937.048 34.605 937.463 34.605H940.54C940.71 34.7026 940.845 34.7759 940.942 34.8247C941.431 35.1909 941.675 35.5938 941.675 36.0332C941.479 37.1318 941.357 37.7544 941.309 37.9009C940.991 38.438 940.833 38.8652 940.833 39.1826C940.295 39.5732 940.027 40.6963 940.027 42.5518C940.173 43.8945 940.71 44.9688 941.638 45.7744C942.59 46.5557 943.75 46.9097 945.117 46.8364C948.169 46.6655 950.574 44.981 952.332 41.7827C953.87 38.9995 954.59 36.0332 954.492 32.8838C954.37 27.9277 951.953 23.6309 947.241 19.9932C942.773 16.5264 937.988 14.793 932.886 14.793C929.321 14.793 926.221 15.3423 923.584 16.4409C923.12 16.6362 922.449 16.7339 921.57 16.7339C920.813 16.7339 920.435 16.27 920.435 15.3423C920.435 13.438 921.021 12.4126 922.192 12.2661C924.194 10.8745 928.064 10.1909 933.801 10.2153C939.954 10.2642 945.728 12.4614 951.123 16.8071C956.958 21.519 959.863 26.8779 959.839 32.8838C959.79 38.1328 958.606 42.4541 956.287 45.8477C953.528 49.9004 949.707 51.9268 944.824 51.9268C942.188 51.6826 940.137 51.0601 938.672 50.0591C936.719 48.6919 935.742 46.8364 935.742 44.4927C933.496 49.4487 929.443 51.9268 923.584 51.9268ZM975.696 34.1655C975.72 37.2173 976.416 39.9883 977.783 42.4785C979.443 45.5059 981.665 46.9829 984.448 46.9097C988.379 46.7632 991.565 44.7246 994.006 40.7939C996.13 37.3516 997.192 33.543 997.192 29.3682C997.192 26.5117 996.545 23.8262 995.251 21.3115C993.616 18.1377 991.541 16.563 989.026 16.5874C984.875 16.6362 981.555 18.6382 979.065 22.5933C976.77 26.2065 975.647 30.064 975.696 34.1655ZM983.936 52C979.736 51.9756 976.392 49.9492 973.901 45.9209C971.68 42.4053 970.569 38.4868 970.569 34.1655C970.569 28.3794 972.168 23.3257 975.366 19.0044C979.053 14.0239 983.606 11.5947 989.026 11.7168C993.054 11.8145 996.326 13.6821 998.84 17.3198C1001.35 20.9575 1002.61 25.7183 1002.61 31.6021C1001.86 37.437 1000.02 42.1367 997.119 45.7012C993.677 49.9492 989.282 52.0488 983.936 52ZM1054.1 35.2642C1054.1 39.8296 1052.98 43.687 1050.73 46.8364C1048.29 50.23 1044.87 51.9512 1040.48 52C1037.94 52.0244 1035.79 51.4263 1034.03 50.2056C1032.18 48.9116 1031.02 47.0562 1030.55 44.6392C1029.85 46.9341 1028.53 48.7407 1026.6 50.0591C1024.67 51.3774 1022.5 52.0244 1020.08 52C1012.41 51.9512 1008.63 47.3247 1008.73 38.1206C1008.78 33.9458 1010 30.2593 1012.39 27.061C1014.78 23.8628 1017.92 21.397 1021.8 19.6636C1018.09 19.6636 1014.69 20.5181 1011.58 22.2271C1010.97 22.7642 1009.92 23.0327 1008.44 23.0327C1007.29 23.0327 1006.71 22.3857 1006.71 21.0918C1006.71 20.335 1006.97 19.7368 1007.48 19.2974C1008.12 18.8823 1009.29 18.3574 1011 17.7227C1023.18 13.1816 1034.8 10.9111 1045.86 10.9111L1045.57 14.8662C1037.78 14.8662 1030.88 16.0991 1024.88 18.5649C1025.9 18.2231 1027.29 17.9912 1029.05 17.8691C1030.44 17.7959 1031.97 17.7471 1033.63 17.7227C1038.85 17.6738 1043.53 19.2485 1047.66 22.4468C1051.95 25.7915 1054.1 30.064 1054.1 35.2642ZM1048.72 35.2642C1048.72 31.9438 1047.05 28.8677 1043.7 26.0356C1040.43 23.3013 1036.9 21.9341 1033.12 21.9341C1027.65 21.9341 1023.22 23.2402 1019.82 25.8525C1016.04 28.7334 1014.15 32.8228 1014.15 38.1206C1014.15 40.2202 1014.65 42.1489 1015.65 43.9067C1016.77 45.9087 1018.35 46.9097 1020.37 46.9097C1023.6 46.9097 1026.15 44.627 1028.03 40.0615C1028.39 39.1338 1028.76 38.0107 1029.13 36.6924C1029.13 35.3496 1029.98 34.6782 1031.69 34.6782C1033.74 34.6782 1034.77 35.3496 1034.77 36.6924V39.5488C1034.77 41.5752 1035.29 43.3208 1036.34 44.7856C1037.32 46.1772 1038.7 46.8853 1040.48 46.9097C1043.36 46.9585 1045.53 45.6523 1047 42.9912C1048.14 40.916 1048.72 38.3403 1048.72 35.2642ZM1057.51 7.35889C1057.26 9.50732 1055.63 11.314 1052.6 12.7788C1053.02 13.1694 1053.6 13.3647 1054.36 13.3647C1055.7 13.3647 1056.37 13.9141 1056.37 15.0127C1056.37 15.6963 1056.07 16.2944 1055.46 16.8071C1055.11 17.2222 1054.47 17.4785 1053.52 17.5762C1051.73 17.5762 1050.04 16.7217 1048.43 15.0127C1047.91 15.5254 1046.39 15.8306 1043.85 15.9282L1037.55 16.1479L1037.84 13.438L1044.14 11.9365C1042.24 10.5693 1041.28 9.04346 1041.28 7.35889C1041.28 5.35693 1042.31 3.61133 1044.36 2.12207C1046.02 0.925781 1048.02 0.327637 1050.37 0.327637C1052.37 0.327637 1054.02 0.999023 1055.31 2.3418C1056.6 3.68457 1057.34 5.35693 1057.51 7.35889ZM1052.38 7.35889C1052.38 5.479 1051.61 4.53906 1050.07 4.53906C1048.22 4.53906 1047.29 5.479 1047.29 7.35889C1047.29 8.70166 1047.74 9.86133 1048.65 10.8379C1051.14 10.0811 1052.38 8.92139 1052.38 7.35889ZM1067.69 34.1655C1067.71 37.2173 1068.41 39.9883 1069.78 42.4785C1071.44 45.5059 1073.66 46.9829 1076.44 46.9097C1080.37 46.7632 1083.56 44.7246 1086 40.7939C1088.12 37.3516 1089.18 33.543 1089.18 29.3682C1089.18 26.5117 1088.54 23.8262 1087.24 21.3115C1085.61 18.1377 1083.53 16.563 1081.02 16.5874C1076.87 16.6362 1073.55 18.6382 1071.06 22.5933C1068.76 26.2065 1067.64 30.064 1067.69 34.1655ZM1075.93 52C1071.73 51.9756 1068.38 49.9492 1065.89 45.9209C1063.67 42.4053 1062.56 38.4868 1062.56 34.1655C1062.56 28.3794 1064.16 23.3257 1067.36 19.0044C1071.04 14.0239 1075.6 11.5947 1081.02 11.7168C1085.05 11.8145 1088.32 13.6821 1090.83 17.3198C1093.35 20.9575 1094.6 25.7183 1094.6 31.6021C1093.85 37.437 1092.02 42.1367 1089.11 45.7012C1085.67 49.9492 1081.27 52.0488 1075.93 52ZM1143.71 29.5879C1143.71 29.6611 1143.7 29.9785 1143.68 30.54C1143.65 31.1016 1143.64 31.6265 1143.64 32.1147C1143.57 45.3716 1138.84 52 1129.47 52C1127.2 52 1125.07 51.353 1123.1 50.0591C1121.53 48.7896 1120.32 46.9829 1119.47 44.6392C1118.54 46.6655 1117.18 48.3745 1115.37 49.7661C1113.39 51.2798 1111.36 52.0244 1109.29 52C1102.04 51.9512 1098.46 46.8486 1098.56 36.6924C1098.61 30.2471 1100.59 24.6807 1104.49 19.9932C1101.51 18.8701 1099.96 16.4897 1099.84 12.8521C1099.82 12.3882 1099.87 12.0098 1099.99 11.7168C1099.99 9.03125 1101.61 6.73633 1104.86 4.83203C1107.54 3.24512 1110.45 2.43945 1113.57 2.41504C1120.46 2.36621 1126.12 4.34375 1130.57 8.34766C1131.62 7.00488 1132.57 6.3335 1133.42 6.3335C1135.89 6.3335 1137.12 7.00488 1137.12 8.34766C1137.12 9.2998 1136.44 10.1543 1135.07 10.9111C1140.76 15.9893 1143.64 22.2148 1143.71 29.5879ZM1127.2 12.6323C1124.93 10.3618 1120.39 8.66504 1113.57 7.54199C1111.72 7.54199 1109.96 7.93262 1108.3 8.71387C1106.18 9.73926 1105.1 11.0454 1105.08 12.6323C1105.03 14.6587 1106.05 15.9771 1108.15 16.5874C1109.67 14.854 1111.29 13.9873 1113.02 13.9873C1114.88 13.9873 1115.81 14.6587 1115.81 16.0015C1115.81 16.4165 1115.33 17.0635 1114.38 17.9424C1119.31 17.9424 1123.58 16.1724 1127.2 12.6323ZM1138.22 34.4585C1138.29 25.0103 1136.02 18.6626 1131.41 15.4155C1126.92 20.4204 1121.72 22.8862 1115.81 22.813C1114.27 22.813 1112.89 22.6421 1111.67 22.3003C1111.6 22.3003 1111.4 22.2759 1111.08 22.2271C1111.04 22.2026 1110.94 22.166 1110.79 22.1172C1110.64 22.0439 1110.52 21.9829 1110.42 21.9341C1106.25 26.3286 1103.99 31.7241 1103.65 38.1206C1103.55 40.2446 1104.06 42.2344 1105.19 44.0898C1106.34 45.9209 1107.7 46.8608 1109.29 46.9097C1111.17 46.9341 1114.67 42.8569 1119.8 34.6782H1123.24C1123.97 34.6782 1124.34 35.1543 1124.34 36.1064V39.5488C1124.34 39.8906 1124.29 40.2446 1124.19 40.6108C1124.19 42.3198 1124.65 43.7603 1125.55 44.9321C1126.55 46.2505 1127.86 46.9097 1129.47 46.9097C1132.47 46.9097 1134.77 45.5303 1136.35 42.7715C1137.6 40.6475 1138.22 37.8765 1138.22 34.4585ZM1185.83 37.0586C1185.83 37.6689 1185.8 38.1938 1185.75 38.6333C1185.51 40.9282 1184.77 43.8335 1183.52 47.3491C1181.98 51.6704 1180.38 53.8677 1178.72 53.9409C1176.21 53.5747 1174.95 52.9277 1174.95 52C1175.12 51.1699 1175.98 49.8394 1177.51 48.0083C1178.25 46.7876 1179.1 43.6626 1180.08 38.6333C1180.08 38.3403 1180.13 38.0474 1180.22 37.7544V36.2529C1180.22 32.4443 1179.42 29.2461 1177.81 26.6582C1175.98 23.7041 1173.25 22.2271 1169.64 22.2271C1165.42 22.2271 1161.89 23.7773 1159.06 26.8779C1156.32 29.8564 1154.93 33.5063 1154.88 37.8276C1154.76 38.2183 1154.7 39.0972 1154.7 40.4644C1154.7 41.6118 1154.83 43.1011 1155.1 44.9321C1155.15 45.5669 1155.27 46.4946 1155.47 47.7153C1155.59 47.9839 1155.79 48.4355 1156.05 49.0703C1156.15 49.1191 1156.23 49.2412 1156.27 49.4365C1156.27 50.1934 1155.91 50.8525 1155.18 51.4141C1154.37 52 1153.61 52.293 1152.91 52.293C1151.76 52.0732 1150.87 50.3276 1150.23 47.0562C1149.89 45.3228 1149.68 43.2231 1149.61 40.7573C1149.61 40.7573 1149.66 39.7808 1149.76 37.8276C1150.15 30.3569 1153.75 24.583 1160.56 20.5059C1159.9 20.5059 1158.01 21.1772 1154.88 22.52C1154.83 22.5444 1154.5 22.5933 1153.89 22.6665C1153.77 22.6421 1153.6 22.6177 1153.38 22.5933C1153.19 22.5688 1153.03 22.5444 1152.91 22.52C1151.76 22.52 1151.18 22.1416 1151.18 21.3848C1151.18 19.5049 1152.14 18.1865 1154.04 17.4297C1157.12 15.6475 1160.82 14.2192 1165.14 13.145C1166.63 12.8765 1169.87 12.2539 1174.88 11.2773C1178.08 10.6426 1179.68 9.69043 1179.68 8.4209C1179.68 8.15234 1179.53 7.74951 1179.24 7.2124C1179.14 6.89502 1179.02 6.44336 1178.87 5.85742C1178.87 4.70996 1179.71 4.13623 1181.4 4.13623C1183.15 4.35596 1184.27 5.88184 1184.73 8.71387C1184.73 9.27539 1184.75 9.75146 1184.8 10.1421C1184.8 11.7778 1183.92 13.0352 1182.17 13.9141C1181.26 14.3535 1180.19 14.6465 1178.94 14.793C1178.09 14.8662 1177.19 15.0127 1176.23 15.2324C1174.4 15.4766 1172.38 15.855 1170.15 16.3677C1167.15 17.0513 1164.98 17.8813 1163.64 18.8579C1163.76 18.7847 1164.61 18.6016 1166.2 18.3086C1168.15 18.3086 1169.37 18.2842 1169.86 18.2354C1174.91 18.2354 1178.92 19.9199 1181.87 23.2891C1184.51 26.292 1185.83 30.4912 1185.83 35.8867V37.0586ZM1246.22 34.2388C1246.26 35.9233 1245.89 36.9731 1245.08 37.3882C1244.2 37.022 1243.55 36.7168 1243.14 36.4727C1242.29 35.9844 1241.74 35.7158 1241.49 35.667C1241.08 35.4473 1240.58 35.3374 1239.99 35.3374C1239.99 39.6099 1239.09 43.3086 1237.28 46.4336C1235.13 50.1934 1232.06 52.0732 1228.05 52.0732C1225.71 52.0732 1223.84 51.1699 1222.45 49.3633C1221.08 47.6299 1220.4 45.5059 1220.4 42.9912C1220.4 39.3779 1221.9 36.3018 1224.9 33.7627C1227.61 31.4922 1230.83 30.3203 1234.57 30.2471C1234.57 27.0977 1233.8 24.168 1232.26 21.458C1230.41 18.2598 1227.98 16.6606 1224.98 16.6606C1220.61 16.6606 1217 18.9189 1214.17 23.4355C1212.17 26.6338 1210.75 30.9062 1209.92 36.2529C1209.22 40.6719 1207.64 44.4683 1205.2 47.6421C1202.91 50.5962 1200.43 52.0732 1197.77 52.0732C1194.71 52.0732 1191.96 51.0723 1189.49 49.0703C1187.02 47.0439 1185.25 44.5415 1184.18 41.563L1185.02 36.7656C1187.19 37.0098 1188.7 38.5356 1189.53 41.3433C1191.85 45.103 1194.59 46.9829 1197.77 46.9829C1199.74 46.9829 1201.49 45.1396 1203 41.4531C1204.08 38.8164 1204.77 36.1309 1205.09 33.3965C1205.87 27.0488 1208.13 21.9463 1211.87 18.0889C1215.89 13.9385 1220.45 11.8633 1225.52 11.8633C1230.02 11.8633 1233.64 13.8652 1236.4 17.8691C1238.72 21.2627 1239.92 25.3887 1239.99 30.2471C1241.67 30.3203 1243.15 30.772 1244.42 31.6021C1245.59 32.3589 1246.19 33.2378 1246.22 34.2388ZM1234.57 34.8247C1232.32 35.3374 1230.38 36.2407 1228.75 37.5347C1226.82 38.9995 1225.84 40.8184 1225.82 42.9912C1225.77 45.6523 1226.72 46.9829 1228.67 46.9829C1230.82 46.9829 1232.46 45.1396 1233.58 41.4531C1234.17 39.5488 1234.5 37.3394 1234.57 34.8247ZM1313.38 35.7402C1313.38 36.5703 1313.33 37.3638 1313.23 38.1206C1313.23 41.9292 1312.26 45.1274 1310.3 47.7153C1308.15 50.5718 1305.25 52 1301.59 52C1299.95 52 1295.03 48.4966 1286.83 41.4897C1284.19 39.2437 1282.31 38.1206 1281.19 38.1206C1280.48 38.1938 1279.83 38.8164 1279.25 39.9883C1279.1 40.4033 1278.86 41.3799 1278.52 42.918C1278.52 43.8701 1278.49 44.5415 1278.44 44.9321C1278.44 46.9829 1278.97 48.3867 1280.02 49.1436C1280.8 49.876 1281.19 50.8281 1281.19 52C1281.04 52.5859 1280.49 53.2817 1279.54 54.0874C1278.71 54.7954 1277.94 55.1494 1277.23 55.1494C1275.77 55.1494 1274.62 53.3794 1273.79 49.8394C1273.23 47.4956 1272.95 45.1885 1272.95 42.918C1273.93 36.5215 1276.86 33.3232 1281.74 33.3232C1285.16 33.3232 1288 34.7271 1290.27 37.5347C1297.77 43.8091 1301.92 46.9341 1302.72 46.9097C1303.87 46.8608 1305.04 45.6768 1306.24 43.3574C1307.24 41.502 1307.76 39.854 1307.81 38.4136C1307.81 38.0718 1307.86 37.4004 1307.96 36.3994V34.5317C1307.96 26.9634 1305.83 20.9819 1301.59 16.5874C1296.51 22.0562 1290.64 24.7905 1283.97 24.7905C1281.82 24.7905 1279.98 24.0581 1278.44 22.5933C1276.95 21.2261 1276.17 19.4072 1276.1 17.1367C1276.46 14.5 1278.54 12.2905 1282.32 10.5083C1285.42 9.06787 1288.53 8.34766 1291.63 8.34766C1293.12 8.34766 1294.74 8.46973 1296.5 8.71387C1297.72 8.88477 1299.12 9.23877 1300.71 9.77588C1301.68 8.28662 1302.73 7.54199 1303.86 7.54199H1305.8C1306.95 7.54199 1307.52 7.81055 1307.52 8.34766C1307.52 9.2998 1306.67 10.6304 1304.96 12.3394C1310.57 17.1733 1313.38 24.3145 1313.38 33.7627V35.7402ZM1297.34 13.9873C1295.7 13.1572 1293.73 12.7056 1291.41 12.6323C1289.92 12.5835 1288.01 13.1084 1285.69 14.207C1283.08 15.4521 1281.76 16.6973 1281.74 17.9424C1281.69 19.5049 1282.91 20.2861 1285.4 20.2861C1288.92 20.2861 1292.9 18.1865 1297.34 13.9873ZM1350.51 22.813C1350.51 26.2798 1349.44 29.0386 1347.29 31.0894C1345.17 33.1401 1342.37 34.1655 1338.9 34.1655C1336.8 34.1655 1334.73 33.311 1332.68 31.6021C1330.94 30.186 1329.52 28.3794 1328.39 26.1821C1327.64 27.769 1327.26 29.3804 1327.26 31.0161C1327.26 35.5571 1328.78 39.2925 1331.84 42.2222C1334.81 45.0786 1338.59 46.5435 1343.15 46.6167C1344.47 46.6167 1345.13 47.459 1345.13 49.1436C1345.03 49.9248 1344.78 50.5962 1344.36 51.1577C1343.82 51.7192 1343.13 52 1342.27 52C1336.46 52 1331.56 49.9492 1327.55 45.8477C1323.55 41.7461 1321.55 36.8022 1321.55 31.0161C1321.55 28.4526 1322.88 24.6685 1325.54 19.6636C1325.07 18.7358 1324.8 17.3198 1324.73 15.4155C1324.71 15.0737 1325.07 14.6465 1325.83 14.1338C1326.27 13.9141 1327.12 13.4136 1328.39 12.6323C1328.78 13.5845 1328.98 14.7075 1328.98 16.0015C1331.47 13.145 1334.78 11.7168 1338.9 11.7168C1342.27 11.7168 1345.09 12.7666 1347.36 14.8662C1349.46 16.8193 1350.51 19.4683 1350.51 22.813ZM1345.13 22.813C1345.13 21.0796 1344.49 19.5781 1343.23 18.3086C1342.1 17.21 1340.66 16.6362 1338.9 16.5874C1336.1 16.5386 1333.64 17.9424 1331.54 20.7988C1333.03 26.3408 1335.58 29.0874 1339.2 29.0386C1340.88 29.0142 1342.31 28.3916 1343.48 27.1709C1344.58 25.999 1345.13 24.5464 1345.13 22.813ZM1390.91 41.4165C1390.91 43.1255 1391.49 44.5537 1392.66 45.7012C1393.76 46.7998 1395.18 47.3491 1396.91 47.3491C1399.45 46.8853 1401.71 45.9087 1403.69 44.4194C1406.13 42.5884 1407.35 40.5376 1407.35 38.2671C1407.47 37.9741 1407.52 37.6323 1407.5 37.2417C1407.37 35.02 1406.59 33.1523 1405.15 31.6387C1403.71 30.125 1401.89 29.3682 1399.69 29.3682C1394.45 32.3711 1391.52 36.3872 1390.91 41.4165ZM1420.94 12.9985C1419.96 13.4868 1419.15 13.7676 1418.52 13.8408C1414.93 14.2314 1411.93 14.6221 1409.51 15.0127C1408.51 15.1592 1407.28 15.3789 1405.81 15.6719C1404.71 15.8916 1404 16.0015 1403.69 16.0015C1404.61 16.0747 1405.33 16.4775 1405.85 17.21C1406.51 18.1377 1406.84 18.9556 1406.84 19.6636C1406.49 20.3716 1406.24 21.0552 1406.07 21.7144C1405.65 23.0083 1405.05 23.8506 1404.27 24.2412C1406.18 23.46 1407.6 22.9839 1408.56 22.813C1411.12 22.3735 1413.44 22.1782 1415.52 22.2271C1416.66 22.2515 1417.76 22.5811 1418.81 23.2158C1420.03 23.9238 1420.63 24.8149 1420.61 25.8892C1420.56 28.9409 1419.51 30.4668 1417.46 30.4668C1416.8 30.2715 1416.31 30.1738 1415.99 30.1738C1415.84 30.1494 1415.66 30.1006 1415.44 30.0273C1415.22 29.9541 1415.05 29.9053 1414.93 29.8809L1415.52 29.0386V28.1597C1415.52 27.4028 1414.94 27.0244 1413.79 27.0244H1412.07C1410.07 27.0244 1408.69 27.3296 1407.93 27.9399C1411.04 29.3315 1412.59 32.1758 1412.59 36.4727C1412.54 36.9121 1412.51 37.5103 1412.51 38.2671C1411.93 42.4419 1410.21 45.7744 1407.35 48.2646C1404.42 50.7793 1400.94 52 1396.91 51.9268C1393.54 51.8535 1390.87 50.9258 1388.89 49.1436C1386.84 47.2881 1385.82 44.7124 1385.82 41.4165C1385.82 37.022 1387.72 33.5308 1391.53 30.9429L1384.72 33.4697C1384.23 33.8848 1383.4 34.0923 1382.23 34.0923C1380.93 34.0923 1380.29 33.1401 1380.29 31.2358C1380.58 29.771 1381.32 29.0386 1382.52 29.0386L1396.91 25.0835C1399.57 24.6196 1400.9 22.9229 1400.9 19.9932C1400.9 18.0889 1399.85 17.1367 1397.75 17.1367C1393.58 17.1367 1389.43 17.979 1385.3 19.6636L1382.01 20.6523C1381.81 20.75 1381.51 20.7988 1381.09 20.7988C1380.19 20.6523 1379.66 20.5059 1379.52 20.3594C1379.27 19.9688 1379.15 19.3706 1379.15 18.5649C1379.15 17.4175 1379.9 16.563 1381.38 16.0015C1385.93 14.2681 1391.1 12.8887 1396.91 11.8633C1402.84 10.8135 1408.04 10.2886 1412.51 10.2886C1416.47 10.2886 1418.44 9.37305 1418.44 7.54199C1418.23 7.00488 1418.08 6.57764 1418.01 6.26025C1417.76 5.55225 1417.64 5.125 1417.64 4.97852C1417.64 3.75781 1418.48 3.18408 1420.17 3.25732C1422.36 3.33057 1423.49 5.30811 1423.54 9.18994C1423.56 10.8501 1422.69 12.1196 1420.94 12.9985ZM1463.89 38.0474C1463.89 38.5601 1463.87 38.9873 1463.82 39.3291C1463.82 42.7959 1462.96 45.689 1461.25 48.0083C1459.45 50.4741 1456.8 51.7314 1453.31 51.7803C1448.96 51.8291 1444.14 48.3501 1438.84 41.3433C1437.94 40.1714 1436.94 39.2681 1435.84 38.6333C1434.91 38.1206 1433.84 37.7788 1432.62 37.6079C1430.74 37.8276 1429.61 39.4756 1429.25 42.5518C1429.2 43.1377 1429.13 43.8335 1429.03 44.6392C1429.03 46.7632 1429.55 48.2891 1430.6 49.2168C1431.41 49.9492 1431.98 50.7305 1432.32 51.5605C1432.25 52.0977 1431.68 52.769 1430.6 53.5747C1429.75 54.2095 1428.89 54.5635 1428.04 54.6367C1426.62 54.6367 1425.48 53.0132 1424.6 49.7661C1423.96 47.4712 1423.61 45.2129 1423.54 42.9912C1423.9 40.0371 1424.83 37.5347 1426.32 35.4839C1428.03 33.1401 1430.32 31.9683 1433.2 31.9683C1435.01 31.9683 1436.66 32.4688 1438.15 33.4697C1439.22 34.1777 1440.61 35.6914 1442.32 38.0107C1444.2 40.5498 1445.67 42.2588 1446.72 43.1377C1449.62 45.6279 1451.99 46.9097 1453.82 46.9829C1454.9 46.9097 1455.97 45.9087 1457.04 43.98C1457.97 42.3442 1458.53 40.7939 1458.73 39.3291C1458.73 33.9824 1455.8 29.1362 1449.94 24.7905C1444.52 20.7622 1439.01 18.7114 1433.42 18.6382L1430.35 19.5171C1429.61 19.6636 1429.04 19.7368 1428.63 19.7368C1427.65 19.7368 1427.12 19.2119 1427.05 18.1621C1427.05 17.918 1427.1 17.6006 1427.2 17.21C1427.2 16.209 1428.63 15.1836 1431.48 14.1338C1434.58 12.9863 1438.59 12.0586 1443.49 11.3506C1445.45 11.1064 1448.34 10.606 1452.17 9.84912C1454.17 9.31201 1455.25 8.56738 1455.4 7.61523C1455.4 7.39551 1455.22 6.96826 1454.88 6.3335C1454.81 6.01611 1454.69 5.58887 1454.52 5.05176C1454.52 3.9043 1455.36 3.33057 1457.04 3.33057C1458.8 3.55029 1459.91 5.07617 1460.38 7.9082C1460.38 8.44531 1460.42 8.89697 1460.52 9.26318C1460.52 10.8013 1459.62 12.0708 1457.81 13.0718C1457.18 13.4136 1455.85 13.7676 1453.82 14.1338C1453.6 14.1582 1451.53 14.4512 1447.6 15.0127C1444.96 15.4033 1442.99 15.855 1441.7 16.3677C1446.17 17.1733 1450.92 19.8223 1455.94 24.3145C1461.24 29.0752 1463.89 33.6528 1463.89 38.0474ZM1481.14 78.77C1480.63 79.063 1480.25 79.3193 1480 79.5391C1479.44 79.832 1478.89 80.0273 1478.36 80.125C1477.38 80.125 1476.71 79.2705 1476.34 77.5615C1474.93 73.8994 1473.5 71.5557 1472.06 70.5303C1468.66 73.9238 1464.25 75.6206 1458.8 75.6206C1456.56 75.6206 1454.35 75.0469 1452.17 73.8994C1449.78 72.6299 1448.58 70.8354 1448.58 68.5161C1448.58 66.0991 1450.04 64.1948 1452.94 62.8032C1455.19 61.729 1457.69 61.1797 1460.45 61.1553C1465.28 61.1064 1469.08 62.1562 1471.84 64.3047C1472.79 62.791 1473.27 61.0942 1473.27 59.2144C1473.27 55.6255 1472.12 52.293 1469.82 49.2168C1468.73 48.1182 1468.18 46.9951 1468.18 45.8477C1468.18 45.457 1468.44 45.0542 1468.98 44.6392C1469.37 44.2485 1469.85 44.0044 1470.41 43.9067C1471.88 43.9067 1473.6 46.0796 1475.57 50.4253C1477.23 54.063 1478.06 56.9927 1478.06 59.2144C1478.06 61.4116 1477.11 63.9629 1475.21 66.8682C1478.41 70.5791 1480.38 74.5464 1481.14 78.77ZM1469.27 66.8682C1466.59 65.501 1463.46 64.8174 1459.9 64.8174C1455.53 64.8174 1453.16 66.0503 1452.8 68.5161C1453.55 70.8354 1455.65 71.9829 1459.09 71.9585C1462.51 71.9097 1465.91 70.2129 1469.27 66.8682ZM1530.98 41.4165C1530.98 44.6147 1529.38 47.2881 1526.18 49.4365C1523.45 51.292 1520.32 52.2197 1516.81 52.2197C1514.56 52.2197 1512.61 51.5483 1510.95 50.2056C1509.22 48.7896 1508.24 46.9829 1508.02 44.7856C1507.02 47.0562 1505.58 48.8628 1503.7 50.2056C1501.75 51.5972 1499.58 52.2686 1497.22 52.2197C1489.62 52.1221 1485.85 47.5688 1485.9 38.5601C1485.93 34.5073 1487.18 30.772 1489.67 27.354C1492.02 24.1558 1495.12 21.6655 1498.97 19.8833C1497.27 19.8833 1493.86 21.0186 1488.76 23.2891C1488.07 23.8262 1487.02 24.0947 1485.61 24.0947C1485.49 24.1191 1485.36 24.1313 1485.24 24.1313C1484.34 24.1313 1483.91 23.3745 1483.96 21.8608C1483.98 20.9575 1484.29 20.2983 1484.88 19.8833C1485.68 19.2974 1486.88 18.7236 1488.46 18.1621C1494.15 16.1357 1500.33 14.3657 1506.99 12.8521C1508.26 12.73 1510.68 12.3271 1514.25 11.6436C1515.47 11.4482 1517.3 11.1064 1519.74 10.6182C1521.81 10.1055 1522.89 9.34863 1522.96 8.34766C1522.99 8.05469 1522.84 7.65186 1522.52 7.13916C1522.35 6.74854 1522.22 6.29688 1522.12 5.78418C1522.12 4.63672 1522.97 4.06299 1524.68 4.06299C1526.44 4.28271 1527.54 5.80859 1527.98 8.64062C1527.98 9.20215 1528 9.67822 1528.05 10.0688C1528.05 11.7046 1527.15 12.9863 1525.34 13.9141C1523.68 14.7686 1521.58 15.208 1519.04 15.2324C1516.89 15.2812 1514.45 15.5864 1511.72 16.1479C1507.79 16.9536 1503.91 18.0034 1500.07 19.2974C1500.71 19.2241 1502.66 18.98 1505.93 18.5649C1507.1 18.4429 1508.56 18.3086 1510.29 18.1621C1519.18 18.3086 1523.62 20.9575 1523.62 26.1089C1523.62 26.6704 1523.65 27.1953 1523.69 27.6836C1523.69 29.1973 1523.4 30.1738 1522.81 30.6133C1525.28 31.0039 1527.28 32.2368 1528.82 34.312C1530.26 36.2407 1530.98 38.6089 1530.98 41.4165ZM1525.89 41.4165C1525.89 37.0708 1524.08 34.8979 1520.47 34.8979C1519.59 36.6069 1518.57 37.4614 1517.4 37.4614C1517.1 37.3882 1516.65 37.0586 1516.04 36.4727C1515.11 35.3008 1514.62 34.3975 1514.58 33.7627V33.4697C1514.72 33.3477 1515.19 32.9448 1515.97 32.2612C1516.7 31.6753 1517.22 30.8818 1517.54 29.8809C1517.81 29.0996 1517.94 27.8423 1517.94 26.1089C1517.94 24.6685 1516.85 23.5942 1514.65 22.8862C1513.13 22.4224 1511.5 22.1782 1509.74 22.1538C1504.37 22.105 1499.95 23.4233 1496.48 26.1089C1492.82 28.9653 1490.99 33.0181 1490.99 38.2671C1490.99 40.4155 1491.49 42.4175 1492.49 44.2729C1493.69 46.519 1495.26 47.6421 1497.22 47.6421C1499.76 47.6421 1501.86 46.397 1503.52 43.9067C1504.88 41.856 1505.81 39.5 1506.3 36.8389C1506.3 35.5449 1507.25 34.8979 1509.16 34.8979C1510.62 34.8979 1511.38 35.8501 1511.43 37.7544C1511.45 39.8296 1511.91 41.8804 1512.82 43.9067C1513.92 46.3237 1515.44 47.5688 1517.4 47.6421C1523.06 46.812 1525.89 44.7368 1525.89 41.4165ZM1585.84 35.5571C1585.84 40.4399 1584.52 44.3706 1581.88 47.3491C1579.15 50.4497 1575.37 52 1570.53 52C1568.07 52 1565.89 51.231 1564.01 49.6929C1562.13 48.1548 1561.01 46.1772 1560.64 43.7603C1557.93 49.2534 1554.06 52 1549.04 52C1545.91 52 1543.41 51.0723 1541.53 49.2168C1539.72 47.459 1538.82 44.981 1538.82 41.7827C1538.82 39.1704 1539.51 36.8999 1540.91 34.9712C1542.54 32.7251 1544.57 31.6021 1546.98 31.6021C1548.5 31.6021 1549.73 32.0781 1550.68 33.0303C1551.64 33.9824 1552.11 35.2031 1552.11 36.6924C1552.11 37.8398 1551.86 38.8164 1551.34 39.6221C1550.85 40.6719 1550.09 41.1968 1549.04 41.1968C1547.81 41.1968 1546.86 40.8672 1546.18 40.208C1545.42 39.5 1545.04 38.8042 1545.04 38.1206C1544.46 38.2671 1544.17 39.3901 1544.17 41.4897C1544.17 43.0522 1544.6 44.3584 1545.48 45.4082C1546.51 46.3359 1547.77 46.8364 1549.26 46.9097C1552.84 46.519 1556.16 43.1133 1559.22 36.6924C1559.61 35.3496 1560.36 34.6782 1561.49 34.6782H1564.31C1564.55 34.7515 1564.9 34.9224 1565.37 35.1909L1565.73 35.5571C1565.54 35.8989 1565.44 36.4604 1565.44 37.2417C1564.86 37.8276 1564.56 38.6699 1564.56 39.7686C1564.56 41.917 1565.23 43.6748 1566.58 45.042C1567.8 46.2383 1569.4 46.8608 1571.37 46.9097C1574.04 46.9585 1576.31 45.7012 1578.19 43.1377C1579.9 40.8428 1580.75 38.3159 1580.75 35.5571C1580.75 31.7974 1578.92 28.4282 1575.26 25.4497C1571.72 22.5444 1567.49 21.0918 1562.59 21.0918H1552.11C1547.5 21.1406 1544.09 21.519 1541.89 22.2271C1540.89 22.1538 1540.17 22.0073 1539.73 21.7876C1539.2 21.397 1538.89 20.8965 1538.82 20.2861C1538.82 19.2607 1539.07 18.4795 1539.59 17.9424C1540.1 17.4053 1540.6 17.1367 1541.09 17.1367C1552.25 12.9863 1564.51 10.9111 1577.89 10.9111L1577.6 14.8662C1566.86 14.8662 1559.68 15.623 1556.07 17.1367C1557.17 16.917 1558.22 16.8071 1559.22 16.8071H1563.43C1569.17 16.8071 1574.24 18.4673 1578.66 21.7876C1583.45 25.3765 1585.84 29.9663 1585.84 35.5571ZM1618.91 31.6753C1618.91 33.5796 1618.24 34.5317 1616.89 34.5317C1615.38 34.5317 1614.65 34.5073 1614.7 34.4585C1614.43 34.3364 1614.04 34.0801 1613.53 33.6895C1613.53 38.4502 1612.65 42.5029 1610.89 45.8477C1608.72 49.998 1605.44 52.0732 1601.07 52.0732C1598.66 52.0732 1596.63 51.1089 1595 49.1802C1593.38 47.2515 1592.55 44.8223 1592.5 41.8926C1592.48 37.9131 1594.13 34.6294 1597.45 32.0415C1600.33 29.8198 1603.88 28.6724 1608.11 28.5991C1606.98 23.6919 1602.54 20.0176 1594.78 17.5762C1589.45 15.8916 1583.42 15.0127 1576.68 14.9395V10.9844C1583.89 10.9844 1591.11 12.2783 1598.36 14.8662C1607.76 18.2354 1612.54 22.9839 1612.68 29.1118C1616.83 29.356 1618.91 30.2104 1618.91 31.6753ZM1608.4 34.8247V33.1035C1605.37 33.1768 1602.87 34.1167 1600.89 35.9233C1598.91 37.7056 1597.92 39.8906 1597.92 42.4785C1597.92 43.8701 1598.27 45.0664 1598.95 46.0674C1599.66 47.0439 1600.44 47.5444 1601.29 47.5688C1603.78 47.6177 1605.68 46.0308 1606.97 42.8081C1607.92 40.4155 1608.4 37.7544 1608.4 34.8247ZM1660.33 32.2612C1660.33 32.6519 1660.3 33.2622 1660.25 34.0923C1660.25 34.3364 1660.21 34.8003 1660.11 35.4839C1660.11 38.145 1659.47 41.2944 1658.2 44.9321C1656.67 49.4731 1654.94 51.8047 1653.04 51.9268C1652.6 51.9512 1651.9 51.5972 1650.95 50.8647C1650.24 50.1812 1649.89 49.583 1649.89 49.0703C1649.89 48.8262 1650.46 47.7031 1651.61 45.7012C1653.71 42.9912 1654.76 39.5854 1654.76 35.4839C1654.79 35.0688 1654.83 34.373 1654.91 33.3965V32.2612C1654.91 26.7681 1653.43 22.5444 1650.48 19.5903C1647.99 23.7407 1643.54 25.8159 1637.15 25.8159C1636.83 25.8159 1636.35 25.6938 1635.72 25.4497C1635.72 25.4497 1635.17 25.2056 1634.07 24.7173C1631.48 27.2808 1629.79 31.1504 1628.98 36.3262C1629.05 38.9385 1629.17 40.6841 1629.35 41.563C1629.74 43.7603 1630.26 45.5181 1630.92 46.8364C1630.92 46.9829 1630.94 47.3491 1630.99 47.9351C1630.99 47.9351 1631.07 48.3135 1631.21 49.0703C1631.21 49.8027 1630.82 50.4619 1630.04 51.0479C1629.28 51.6338 1628.53 51.9268 1627.77 51.9268C1626.38 51.2676 1625.26 49.1436 1624.4 45.5547C1623.86 43.333 1623.56 40.8306 1623.49 38.0474C1623.46 37.4126 1623.49 36.8389 1623.56 36.3262C1624.39 30.0762 1626.2 25.8281 1628.98 23.582C1626.76 21.7998 1625.71 19.4194 1625.83 16.4409C1625.95 13.3403 1627.45 10.8623 1630.33 9.00684C1632.85 7.39551 1635.79 6.57764 1639.16 6.55322C1643.82 6.50439 1647.88 8.20117 1651.32 11.6436C1652.03 11.0088 1652.5 10.6304 1652.75 10.5083C1653.04 10.2886 1653.42 10.1909 1653.88 10.2153C1654.76 10.2642 1655.46 10.5449 1655.97 11.0576C1656.38 11.3994 1656.63 11.8755 1656.7 12.4858C1656.63 12.7056 1656.38 13.2061 1655.97 13.9873C1655.6 14.6465 1655.2 15.1958 1654.76 15.6353C1658.4 20.7378 1660.25 26.2798 1660.33 32.2612ZM1648.24 15.6353C1645.41 12.437 1642.09 10.8379 1638.28 10.8379C1636.55 10.8379 1634.95 11.3384 1633.48 12.3394C1631.8 13.4624 1630.94 14.8296 1630.92 16.4409C1630.9 17.8081 1631.27 18.9556 1632.06 19.8833C1633.54 18.5405 1634.48 17.8691 1634.88 17.8691C1635.34 17.8691 1635.97 18.1255 1636.78 18.6382C1637.49 19.0044 1637.9 19.4194 1638.02 19.8833C1637.66 20.2739 1637.37 20.6523 1637.15 21.0186C1641.47 21.0186 1645.17 19.2241 1648.24 15.6353ZM1701.42 37.5347C1701.42 42.4175 1699.28 46.1528 1695.01 48.7407C1691.44 50.9136 1687.06 52 1681.86 52C1677.56 52 1674.19 50.8525 1671.75 48.5576C1669.24 46.2139 1667.98 42.9058 1667.98 38.6333C1668.3 35.4839 1669.53 32.5908 1671.68 29.9541C1673.71 27.4883 1676.25 25.584 1679.3 24.2412C1678.1 23.6797 1676.62 23.3867 1674.87 23.3623C1673.03 23.3135 1670.62 23.0083 1667.61 22.4468C1666.91 21.9585 1666.55 21.2383 1666.55 20.2861C1667.31 18.2354 1668.84 16.8071 1671.13 16.0015C1675.11 13.9751 1679.53 12.5225 1684.39 11.6436C1686.07 11.375 1687.88 11.0576 1689.81 10.6914C1691.96 10.1543 1693.05 9.37305 1693.1 8.34766C1693.13 8.05469 1692.98 7.65186 1692.66 7.13916C1692.52 6.74854 1692.4 6.29688 1692.3 5.78418C1692.3 4.63672 1693.14 4.06299 1694.82 4.06299C1696.58 4.28271 1697.68 5.80859 1698.12 8.64062C1698.12 9.20215 1698.14 9.67822 1698.19 10.0688C1698.19 11.6313 1697.33 12.8887 1695.59 13.8408C1694.54 14.4023 1692.31 14.793 1688.89 15.0127C1683.86 15.3789 1678.8 16.9292 1673.69 19.6636C1678.77 19.6636 1682.45 20.1396 1684.72 21.0918C1687.74 19.7979 1690.11 19.1509 1691.82 19.1509C1692.75 19.2241 1693.53 19.4194 1694.17 19.7368C1694.85 20.2251 1695.19 20.6768 1695.19 21.0918C1695.19 22.3857 1693.87 23.0327 1691.24 23.0327C1693.65 23.5698 1695.97 25.4741 1698.19 28.7456C1700.34 31.9194 1701.42 34.8491 1701.42 37.5347ZM1696.33 37.5347C1696.4 34.9712 1695.29 32.2612 1692.99 29.4048C1690.7 26.5239 1688.23 25.0835 1685.6 25.0835C1682.5 26.1333 1679.8 27.8789 1677.5 30.3203C1675.33 32.6396 1673.85 35.4106 1673.07 38.6333C1673.07 39.0483 1673.05 39.4023 1673 39.6953C1673 41.917 1674.05 43.748 1676.15 45.1885C1677.83 46.3359 1679.93 46.9097 1682.45 46.9097C1686.67 46.9097 1690.01 46.0674 1692.48 44.3828C1694.97 42.6982 1696.25 40.4155 1696.33 37.5347ZM1725.37 33.1035C1725.37 38.2549 1724.19 42.5762 1721.85 46.0674C1719.21 50.0225 1715.39 52 1710.39 52C1707.26 52 1704.46 51.3774 1701.97 50.1323C1699.21 48.7163 1697.36 46.5923 1696.44 43.7603C1696.44 42.1489 1697.2 40.3667 1698.74 38.4136C1700.26 38.6333 1701.39 39.6587 1702.15 41.4897C1703.54 44.9077 1706.36 46.6411 1710.61 46.6899C1713.64 46.7144 1715.91 45.1152 1717.42 41.8926C1718.57 39.4512 1719.14 36.5215 1719.14 33.1035C1719.14 26.5605 1716.85 21.3604 1712.26 17.5029C1710.79 18.4551 1709.31 18.9312 1707.82 18.9312C1706.51 18.9312 1705.69 17.8569 1705.37 15.7085C1705.3 15.2446 1705.75 14.5977 1706.73 13.7676C1707.09 13.3037 1707.74 12.8521 1708.67 12.4126C1709.38 12.1196 1710.35 11.8877 1711.6 11.7168C1714.14 11.7168 1716.71 13.2427 1719.32 16.2944C1721.13 18.4185 1722.5 20.6157 1723.43 22.8862C1724.72 26.0356 1725.37 29.4414 1725.37 33.1035ZM1738.84 51.707C1737.28 51.6582 1735.95 51.1455 1734.85 50.1689C1733.78 49.1924 1733.24 48.0083 1733.24 46.6167C1733.46 44.7368 1734.3 43.0767 1735.77 41.6362C1737.26 40.1714 1738.94 39.4756 1740.82 39.5488C1742.6 39.6221 1743.99 40.0493 1745 40.8306C1746 41.7583 1746.5 42.8325 1746.5 44.0532C1746.28 46.2749 1745.46 48.0693 1744.04 49.4365C1742.46 50.999 1740.72 51.7559 1738.84 51.707Z" fill="black"/>
</svg>
