<svg width="1676" height="77" viewBox="0 0 1676 77" fill="none" xmlns="http://www.w3.org/2000/svg">
<path d="M7.5 33.7143C6.64286 33.7143 5.85714 34.1429 5.14286 35C4.47619 35.8095 4.14286 36.8571 4.14286 38.1429V42.4286C4.14286 44.1905 4.88095 45.7381 6.35714 47.0714C7.83333 48.3571 9.64286 49 11.7857 49C13.9286 49 15.7381 48.3571 17.2143 47.0714C18.6905 45.7381 19.4286 44.1905 19.4286 42.4286C19.4286 41.8571 19.619 41.381 20 41C20.381 40.619 20.8571 40.4286 21.4286 40.4286C22 40.4286 22.4762 40.619 22.8571 41C23.2381 41.381 23.4286 41.8571 23.4286 42.4286C23.4286 44.1905 24.1667 45.7381 25.6429 47.0714C27.119 48.3571 28.9286 49 31.0714 49C33.2143 49 35.0238 48.3571 36.5 47.0714C37.9762 45.7381 38.7143 44.1905 38.7143 42.4286V28.5C38.7143 24.6429 37.2381 21.3333 34.2857 18.5714C31.3333 15.8095 27.7619 14.4286 23.5714 14.4286H20.3571C15.6905 14.4286 11.881 15.119 8.92857 16.5C7.64286 17.119 6.80952 17.7381 6.42857 18.3571C6.33333 18.5476 6.28571 18.7143 6.28571 18.8571C6.28571 19.4286 6.09524 19.9048 5.71429 20.2857C5.33333 20.6667 4.85714 20.8571 4.28571 20.8571C3.71429 20.8571 3.2381 20.6667 2.85714 20.2857C2.47619 19.9048 2.28571 19.4286 2.28571 18.8571C2.28571 17 3.30952 15.3571 5.35714 13.9286C6.78571 12.9762 8.64286 12.1905 10.9286 11.5714C13.7857 10.8095 16.9286 10.4286 20.3571 10.4286H23.5714C28.8095 10.4286 33.3095 12.1905 37.0714 15.7143C40.8333 19.2381 42.7143 23.5 42.7143 28.5V42.4286C42.7143 45.381 41.5476 47.881 39.2143 49.9286C36.9286 51.9762 34.2143 53 31.0714 53C29.119 53 27.2857 52.5952 25.5714 51.7857C23.9048 50.9286 22.5238 49.7857 21.4286 48.3571C20.3333 49.7857 18.9286 50.9286 17.2143 51.7857C15.5476 52.5952 13.7381 53 11.7857 53C8.64286 53 5.90476 51.9762 3.57143 49.9286C1.28571 47.881 0.142857 45.381 0.142857 42.4286V38.1429C0.142857 35.9048 0.833333 33.9524 2.21429 32.2857C3.59524 30.5714 5.35714 29.7143 7.5 29.7143C8.07143 29.7143 8.54762 29.9048 8.92857 30.2857C9.30952 30.6667 9.5 31.1429 9.5 31.7143C9.5 32.2857 9.30952 32.7619 8.92857 33.1429C8.54762 33.5238 8.07143 33.7143 7.5 33.7143ZM68.8555 18.8571C68.8555 21.5714 67.8793 23.6429 65.9269 25.0714C64.8793 25.8333 63.7602 26.2143 62.5698 26.2143C61.9983 26.2143 61.5221 26.0238 61.1412 25.6429C60.7602 25.2619 60.5698 24.7857 60.5698 24.2143C60.5698 23.6429 60.7602 23.1667 61.1412 22.7857C61.5221 22.4048 61.9983 22.2143 62.5698 22.2143C62.9031 22.2143 63.2364 22.0952 63.5698 21.8571C64.4269 21.2381 64.8555 20.2381 64.8555 18.8571C64.8555 17.619 64.4269 16.5714 63.5698 15.7143C62.7126 14.8571 61.665 14.4286 60.4269 14.4286C59.1888 14.4286 58.1412 14.8571 57.284 15.7143C56.4269 16.5714 55.9983 17.619 55.9983 18.8571V29.5714C55.9983 35 57.6888 39.5952 61.0698 43.3571C64.4983 47.119 68.5698 49 73.284 49C77.9983 49 82.0459 47.119 85.4269 43.3571C88.8555 39.5952 90.5698 35 90.5698 29.5714V21C90.5698 19.1429 90.0221 17.5952 88.9269 16.3571C87.8317 15.0714 86.5459 14.4286 85.0698 14.4286C84.4983 14.4286 84.0221 14.2381 83.6412 13.8571C83.2602 13.4762 83.0698 13 83.0698 12.4286C83.0698 11.8571 83.2602 11.381 83.6412 11C84.0221 10.619 84.4983 10.4286 85.0698 10.4286C87.7364 10.4286 89.9745 11.4762 91.784 13.5714C93.6412 15.6667 94.5698 18.1429 94.5698 21V29.5714C94.5698 36 92.4983 41.5238 88.3555 46.1429C84.2126 50.7143 79.1888 53 73.284 53C67.3793 53 62.3555 50.7143 58.2126 46.1429C54.0698 41.5238 51.9983 36 51.9983 29.5714V18.8571C51.9983 16.5238 52.8078 14.5476 54.4269 12.9286C56.0936 11.2619 58.0936 10.4286 60.4269 10.4286C62.7602 10.4286 64.7364 11.2619 66.3555 12.9286C68.0221 14.5476 68.8555 16.5238 68.8555 18.8571ZM82.427 10.4286H99.5699C103.665 10.4286 107.165 11.881 110.07 14.7857C112.975 17.6905 114.427 21.1905 114.427 25.2857V42.4286C114.427 45.3333 113.379 47.8333 111.284 49.9286C109.237 51.9762 106.76 53 103.856 53C103.284 53 102.808 52.8095 102.427 52.4286C102.046 52.0476 101.856 51.5714 101.856 51C101.856 50.4286 102.046 49.9524 102.427 49.5714C102.808 49.1905 103.284 49 103.856 49C105.665 49 107.213 48.3571 108.498 47.0714C109.784 45.7857 110.427 44.2381 110.427 42.4286V25.2857C110.427 22.2857 109.356 19.7381 107.213 17.6429C105.118 15.5 102.57 14.4286 99.5699 14.4286H82.427C81.8556 14.4286 81.3794 14.2381 80.9985 13.8571C80.6175 13.4762 80.427 13 80.427 12.4286C80.427 11.8571 80.6175 11.381 80.9985 11C81.3794 10.619 81.8556 10.4286 82.427 10.4286ZM98.2024 68.5714C98.2024 66.3333 98.8929 64.3571 100.274 62.6429C101.655 60.9762 103.417 60.1429 105.56 60.1429C107.702 60.1429 109.488 61.0238 110.917 62.7857C112.345 61.0238 114.131 60.1429 116.274 60.1429C118.417 60.1429 120.179 60.9762 121.56 62.6429C122.941 64.3571 123.631 66.3333 123.631 68.5714C123.631 69.1429 123.441 69.619 123.06 70C122.679 70.381 122.202 70.5714 121.631 70.5714C121.06 70.5714 120.583 70.381 120.202 70C119.821 69.619 119.631 69.1429 119.631 68.5714C119.631 67.2857 119.298 66.2143 118.631 65.3571C117.917 64.5476 117.131 64.1429 116.274 64.1429C115.417 64.1429 114.655 64.5476 113.988 65.3571C113.274 66.2143 112.917 67.2857 112.917 68.5714C112.917 69.1429 112.726 69.619 112.345 70C111.964 70.381 111.488 70.5714 110.917 70.5714C110.345 70.5714 109.869 70.381 109.488 70C109.107 69.619 108.917 69.1429 108.917 68.5714C108.917 67.2857 108.583 66.2143 107.917 65.3571C107.202 64.5476 106.417 64.1429 105.56 64.1429C104.702 64.1429 103.941 64.5476 103.274 65.3571C102.56 66.2143 102.202 67.2857 102.202 68.5714C102.202 69.1429 102.012 69.619 101.631 70C101.25 70.381 100.774 70.5714 100.202 70.5714C99.631 70.5714 99.1548 70.381 98.7739 70C98.3929 69.619 98.2024 69.1429 98.2024 68.5714ZM127.753 10.4286H166.325C166.896 10.4286 167.372 10.619 167.753 11C168.134 11.381 168.325 11.8571 168.325 12.4286C168.325 13 168.134 13.4762 167.753 13.8571C167.372 14.2381 166.896 14.4286 166.325 14.4286H163.61C166.753 17.381 168.325 21 168.325 25.2857V42.4286C168.325 45.381 167.158 47.881 164.825 49.9286C162.539 51.9762 159.825 53 156.682 53C154.729 53 152.896 52.5952 151.182 51.7857C149.515 50.9286 148.134 49.7857 147.039 48.3571C145.944 49.7857 144.539 50.9286 142.825 51.7857C141.158 52.5952 139.348 53 137.396 53C134.253 53 131.515 51.9762 129.182 49.9286C126.896 47.881 125.753 45.381 125.753 42.4286V25.2857C125.753 21 127.325 17.381 130.467 14.4286H127.753C127.182 14.4286 126.706 14.2381 126.325 13.8571C125.944 13.4762 125.753 13 125.753 12.4286C125.753 11.8571 125.944 11.381 126.325 11C126.706 10.619 127.182 10.4286 127.753 10.4286ZM140.61 14.4286C137.61 14.4286 135.039 15.5 132.896 17.6429C130.801 19.7381 129.753 22.2857 129.753 25.2857V42.4286C129.753 44.1905 130.491 45.7381 131.967 47.0714C133.444 48.3571 135.253 49 137.396 49C139.539 49 141.348 48.3571 142.825 47.0714C144.301 45.7381 145.039 44.1905 145.039 42.4286C145.039 41.8571 145.229 41.381 145.61 41C145.991 40.619 146.467 40.4286 147.039 40.4286C147.61 40.4286 148.087 40.619 148.467 41C148.848 41.381 149.039 41.8571 149.039 42.4286C149.039 44.1905 149.777 45.7381 151.253 47.0714C152.729 48.3571 154.539 49 156.682 49C158.825 49 160.634 48.3571 162.11 47.0714C163.587 45.7381 164.325 44.1905 164.325 42.4286V25.2857C164.325 22.2857 163.253 19.7381 161.11 17.6429C159.015 15.5 156.467 14.4286 153.467 14.4286H140.61ZM179.609 10.4286C179.609 10.4286 192.466 10.4286 218.18 10.4286C218.752 10.4286 219.228 10.619 219.609 11C219.99 11.381 220.18 11.8571 220.18 12.4286C220.18 13 219.99 13.4762 219.609 13.8571C219.228 14.2381 218.752 14.4286 218.18 14.4286H211.894C214.466 16.1905 216.49 18.4048 217.966 21.0714C219.442 23.6905 220.18 26.5238 220.18 29.5714V33.8571C220.18 39.1905 218.085 43.7143 213.894 47.4286C209.704 51.1429 204.704 53 198.894 53C193.085 53 188.085 51.1429 183.894 47.4286C179.704 43.7143 177.609 39.1905 177.609 33.8571V29.5714C177.609 26.5238 178.347 23.6905 179.823 21.0714C181.299 18.4048 183.323 16.1905 185.894 14.4286H179.609C179.037 14.4286 178.561 14.2381 178.18 13.8571C177.799 13.4762 177.609 13 177.609 12.4286C177.609 11.8571 177.799 11.381 178.18 11C178.561 10.619 179.037 10.4286 179.609 10.4286ZM186.609 44.5714C189.99 47.5238 194.085 49 198.894 49C203.704 49 207.775 47.5238 211.109 44.5714C214.49 41.5714 216.18 38 216.18 33.8571V29.5714C216.18 25.4286 214.49 21.881 211.109 18.9286C207.775 15.9286 203.704 14.4286 198.894 14.4286C194.085 14.4286 189.99 15.9286 186.609 18.9286C183.275 21.881 181.609 25.4286 181.609 29.5714V33.8571C181.609 38 183.275 41.5714 186.609 44.5714ZM220.107 42.4286C220.107 43.5238 220.464 44.5714 221.178 45.5714C221.94 46.5714 223.012 47.4048 224.393 48.0714C225.726 48.6905 227.202 49 228.821 49C230.964 49 232.774 48.3571 234.25 47.0714C235.726 45.7381 236.464 44.1905 236.464 42.4286V21C236.464 18.0476 237.607 15.5476 239.893 13.5C242.226 11.4524 244.964 10.4286 248.107 10.4286C251.25 10.4286 253.964 11.4524 256.25 13.5C258.583 15.5476 259.75 18.0476 259.75 21V42.4286C259.75 44.2857 259.393 46 258.678 47.5714C258.012 49.1429 257.059 50.4286 255.821 51.4286C254.44 52.4762 252.94 53 251.321 53C250.75 53 250.274 52.8095 249.893 52.4286C249.512 52.0476 249.321 51.5714 249.321 51C249.321 50.4286 249.512 49.9524 249.893 49.5714C250.274 49.1905 250.75 49 251.321 49C252.036 49 252.702 48.7619 253.321 48.2857C254.036 47.7143 254.607 46.9048 255.036 45.8571C255.512 44.8095 255.75 43.6667 255.75 42.4286V21C255.75 19.2381 255.012 17.7143 253.536 16.4286C252.059 15.0952 250.25 14.4286 248.107 14.4286C245.964 14.4286 244.155 15.0952 242.678 16.4286C241.202 17.7143 240.464 19.2381 240.464 21V42.4286C240.464 45.381 239.297 47.881 236.964 49.9286C234.678 51.9762 231.964 53 228.821 53C226.583 53 224.512 52.5476 222.607 51.6429C220.655 50.7381 219.107 49.5 217.964 47.9286C216.726 46.2619 216.107 44.4286 216.107 42.4286C216.107 41.8571 216.297 41.381 216.678 41C217.059 40.619 217.536 40.4286 218.107 40.4286C218.678 40.4286 219.155 40.619 219.536 41C219.917 41.381 220.107 41.8571 220.107 42.4286ZM309.783 48.9286C312.116 48.9286 314.331 48.2857 316.426 47C315.664 45.5714 315.283 44.0238 315.283 42.3571C315.283 41.4524 314.974 40.5952 314.354 39.7857C313.735 38.9286 312.807 38.2381 311.569 37.7143C310.378 37.1429 309.069 36.8571 307.64 36.8571C305.783 36.8571 304.212 37.4048 302.926 38.5C301.688 39.5952 301.069 40.881 301.069 42.3571C301.069 43.4524 301.426 44.5 302.14 45.5C302.902 46.5 303.95 47.3333 305.283 48C306.664 48.619 308.164 48.9286 309.783 48.9286ZM319.283 42.3571C319.283 43.0714 319.426 43.7619 319.712 44.4286C321.95 42.1429 323.735 39.2381 325.069 35.7143C326.402 32.1429 327.069 28.2857 327.069 24.1429V20.9286C327.069 19.119 326.426 17.5714 325.14 16.2857C323.854 15 322.307 14.3571 320.497 14.3571C318.878 14.3571 317.378 14.6905 315.997 15.3571C314.664 15.9762 313.616 16.7857 312.854 17.7857C312.14 18.7857 311.783 19.8333 311.783 20.9286C311.783 21.5 311.593 21.9762 311.212 22.3571C310.831 22.7381 310.354 22.9286 309.783 22.9286C309.212 22.9286 308.735 22.7381 308.354 22.3571C307.974 21.9762 307.783 21.5 307.783 20.9286C307.783 19.8333 307.426 18.7857 306.712 17.7857C305.95 16.7857 304.878 15.9762 303.497 15.3571C302.164 14.6905 300.688 14.3571 299.069 14.3571C297.259 14.3571 295.712 15 294.426 16.2857C293.14 17.5714 292.497 19.119 292.497 20.9286C292.497 21.4524 292.569 21.9762 292.712 22.5C293.283 22.881 293.569 23.4286 293.569 24.1429C293.569 24.7143 293.378 25.1905 292.997 25.5714C292.616 25.9524 292.14 26.1429 291.569 26.1429C290.616 26.1429 289.854 25.6667 289.283 24.7143C288.759 23.7619 288.497 22.5 288.497 20.9286C288.497 18.0238 289.521 15.5476 291.569 13.5C293.664 11.4048 296.164 10.3571 299.069 10.3571C301.259 10.3571 303.283 10.7857 305.14 11.6429C307.045 12.5 308.593 13.6905 309.783 15.2143C310.974 13.6905 312.497 12.5 314.354 11.6429C316.259 10.7857 318.307 10.3571 320.497 10.3571C323.402 10.3571 325.878 11.4048 327.926 13.5C330.021 15.5476 331.069 18.0238 331.069 20.9286V24.1429C331.069 28.8571 330.283 33.2619 328.712 37.3571C327.14 41.4524 324.974 44.8333 322.212 47.5C323.593 48.4524 325.164 48.9286 326.926 48.9286C327.497 48.9286 327.974 49.119 328.354 49.5C328.735 49.881 328.926 50.3571 328.926 50.9286C328.926 51.5 328.735 51.9762 328.354 52.3571C327.974 52.7381 327.497 52.9286 326.926 52.9286C323.878 52.9286 321.235 52 318.997 50.1429C316.093 52 313.021 52.9286 309.783 52.9286C307.545 52.9286 305.45 52.4762 303.497 51.5714C301.593 50.6667 300.069 49.4286 298.926 47.8571C297.688 46.1905 297.069 44.3571 297.069 42.3571C297.069 39.6905 298.116 37.4524 300.212 35.6429C302.307 33.7857 304.783 32.8571 307.64 32.8571C309.688 32.8571 311.593 33.2619 313.354 34.0714C315.116 34.881 316.521 35.9762 317.569 37.3571C318.712 38.881 319.283 40.5476 319.283 42.3571ZM342.426 10.4286C342.426 10.4286 355.283 10.4286 380.997 10.4286C381.569 10.4286 382.045 10.619 382.426 11C382.807 11.381 382.997 11.8571 382.997 12.4286C382.997 13 382.807 13.4762 382.426 13.8571C382.045 14.2381 381.569 14.4286 380.997 14.4286H374.712C377.283 16.1905 379.307 18.4048 380.783 21.0714C382.259 23.6905 382.997 26.5238 382.997 29.5714V33.8571C382.997 39.1905 380.902 43.7143 376.712 47.4286C372.521 51.1429 367.521 53 361.712 53C355.902 53 350.902 51.1429 346.712 47.4286C342.521 43.7143 340.426 39.1905 340.426 33.8571V29.5714C340.426 26.5238 341.164 23.6905 342.64 21.0714C344.117 18.4048 346.14 16.1905 348.712 14.4286H342.426C341.855 14.4286 341.378 14.2381 340.997 13.8571C340.617 13.4762 340.426 13 340.426 12.4286C340.426 11.8571 340.617 11.381 340.997 11C341.378 10.619 341.855 10.4286 342.426 10.4286ZM349.426 44.5714C352.807 47.5238 356.902 49 361.712 49C366.521 49 370.593 47.5238 373.926 44.5714C377.307 41.5714 378.997 38 378.997 33.8571V29.5714C378.997 25.4286 377.307 21.881 373.926 18.9286C370.593 15.9286 366.521 14.4286 361.712 14.4286C356.902 14.4286 352.807 15.9286 349.426 18.9286C346.093 21.881 344.426 25.4286 344.426 29.5714V33.8571C344.426 38 346.093 41.5714 349.426 44.5714ZM394.924 10.4286C396.543 10.4286 398.043 10.9524 399.424 12C400.662 13 401.615 14.2857 402.282 15.8571C402.996 17.4286 403.353 19.1429 403.353 21V42.4286C403.353 45.381 402.186 47.881 399.853 49.9286C397.567 51.9762 394.853 53 391.71 53C389.472 53 387.401 52.5476 385.496 51.6429C383.543 50.7381 381.996 49.5 380.853 47.9286C379.615 46.2619 378.996 44.4286 378.996 42.4286C378.996 41.8571 379.186 41.381 379.567 41C379.948 40.619 380.424 40.4286 380.996 40.4286C381.567 40.4286 382.043 40.619 382.424 41C382.805 41.381 382.996 41.8571 382.996 42.4286C382.996 43.5238 383.353 44.5714 384.067 45.5714C384.829 46.5714 385.901 47.4048 387.282 48.0714C388.615 48.6905 390.091 49 391.71 49C393.853 49 395.662 48.3571 397.139 47.0714C398.615 45.7381 399.353 44.1905 399.353 42.4286V21C399.353 19.7619 399.115 18.619 398.639 17.5714C398.21 16.5238 397.639 15.7143 396.924 15.1429C396.305 14.6667 395.639 14.4286 394.924 14.4286C394.353 14.4286 393.877 14.2381 393.496 13.8571C393.115 13.4762 392.924 13 392.924 12.4286C392.924 11.8571 393.115 11.381 393.496 11C393.877 10.619 394.353 10.4286 394.924 10.4286ZM439.482 33.7143C438.625 33.7143 437.84 34.1429 437.125 35C436.459 35.8095 436.125 36.8571 436.125 38.1429V42.4286C436.125 44.1905 436.863 45.7381 438.34 47.0714C439.816 48.3571 441.625 49 443.768 49C445.911 49 447.721 48.3571 449.197 47.0714C450.673 45.7381 451.411 44.1905 451.411 42.4286C451.411 41.8571 451.601 41.381 451.982 41C452.363 40.619 452.84 40.4286 453.411 40.4286C453.982 40.4286 454.459 40.619 454.84 41C455.221 41.381 455.411 41.8571 455.411 42.4286C455.411 44.1905 456.149 45.7381 457.625 47.0714C459.101 48.3571 460.911 49 463.054 49C465.197 49 467.006 48.3571 468.482 47.0714C469.959 45.7381 470.697 44.1905 470.697 42.4286V28.5C470.697 24.6429 469.221 21.3333 466.268 18.5714C463.316 15.8095 459.744 14.4286 455.554 14.4286H452.34C447.673 14.4286 443.863 15.119 440.911 16.5C439.625 17.119 438.792 17.7381 438.411 18.3571C438.316 18.5476 438.268 18.7143 438.268 18.8571C438.268 19.4286 438.078 19.9048 437.697 20.2857C437.316 20.6667 436.84 20.8571 436.268 20.8571C435.697 20.8571 435.221 20.6667 434.84 20.2857C434.459 19.9048 434.268 19.4286 434.268 18.8571C434.268 17 435.292 15.3571 437.34 13.9286C438.768 12.9762 440.625 12.1905 442.911 11.5714C445.768 10.8095 448.911 10.4286 452.34 10.4286H455.554C460.792 10.4286 465.292 12.1905 469.054 15.7143C472.816 19.2381 474.697 23.5 474.697 28.5V42.4286C474.697 45.381 473.53 47.881 471.197 49.9286C468.911 51.9762 466.197 53 463.054 53C461.101 53 459.268 52.5952 457.554 51.7857C455.887 50.9286 454.506 49.7857 453.411 48.3571C452.316 49.7857 450.911 50.9286 449.197 51.7857C447.53 52.5952 445.721 53 443.768 53C440.625 53 437.887 51.9762 435.554 49.9286C433.268 47.881 432.125 45.381 432.125 42.4286V38.1429C432.125 35.9048 432.816 33.9524 434.197 32.2857C435.578 30.5714 437.34 29.7143 439.482 29.7143C440.054 29.7143 440.53 29.9048 440.911 30.2857C441.292 30.6667 441.482 31.1429 441.482 31.7143C441.482 32.2857 441.292 32.7619 440.911 33.1429C440.53 33.5238 440.054 33.7143 439.482 33.7143ZM499.909 10.4286H502.052C506.433 10.4286 510.171 11.881 513.266 14.7857C516.409 17.6429 517.981 21.1429 517.981 25.2857V38.1429C517.981 42.2857 516.409 45.8095 513.266 48.7143C510.171 51.5714 506.433 53 502.052 53H499.909C495.528 53 491.766 51.5714 488.624 48.7143C485.528 45.8095 483.981 42.2857 483.981 38.1429V25.2857C483.981 21.1429 485.528 17.6429 488.624 14.7857C491.766 11.881 495.528 10.4286 499.909 10.4286ZM499.909 14.4286C496.576 14.4286 493.743 15.5 491.409 17.6429C489.124 19.7857 487.981 22.3333 487.981 25.2857V38.1429C487.981 41.0952 489.124 43.6429 491.409 45.7857C493.743 47.9286 496.576 49 499.909 49H502.052C505.386 49 508.195 47.9286 510.481 45.7857C512.814 43.6429 513.981 41.0952 513.981 38.1429V25.2857C513.981 22.3333 512.814 19.7857 510.481 17.6429C508.195 15.5 505.386 14.4286 502.052 14.4286H499.909ZM531.41 10.4286H554.981C555.553 10.4286 556.029 10.619 556.41 11C556.791 11.381 556.981 11.8571 556.981 12.4286C556.981 13 556.791 13.4762 556.41 13.8571C556.029 14.2381 555.553 14.4286 554.981 14.4286H553.624C555.148 16.3333 555.91 18.5238 555.91 21C555.91 22.7143 555.481 24.3095 554.624 25.7857C553.814 27.2619 552.672 28.5 551.195 29.5C552.957 30.5476 554.362 31.9286 555.41 33.6429C556.457 35.3095 556.981 37.1667 556.981 39.2143V40.2857C556.981 43.9048 555.505 46.9286 552.553 49.3571C549.6 51.7857 546.124 53 542.124 53C538.124 53 534.648 51.7857 531.695 49.3571C528.743 46.9286 527.267 43.9048 527.267 40.2857C527.267 39.7143 527.457 39.2381 527.838 38.8571C528.219 38.4762 528.695 38.2857 529.267 38.2857C529.838 38.2857 530.314 38.4762 530.695 38.8571C531.076 39.2381 531.267 39.7143 531.267 40.2857C531.267 42.619 532.291 44.6667 534.338 46.4286C536.434 48.1429 539.029 49 542.124 49C545.219 49 547.791 48.1429 549.838 46.4286C551.934 44.6667 552.981 42.619 552.981 40.2857V39.2143C552.981 37.1667 552.124 35.381 550.41 33.8571C548.743 32.3333 546.695 31.5714 544.267 31.5714C543.695 31.5714 543.219 31.381 542.838 31C542.457 30.619 542.267 30.1429 542.267 29.5714C542.267 29 542.457 28.5238 542.838 28.1429C543.219 27.7619 543.695 27.5714 544.267 27.5714C546.41 27.5714 548.219 26.9286 549.695 25.6429C551.172 24.3095 551.91 22.7619 551.91 21C551.91 19.1905 551.267 17.6429 549.981 16.3571C548.695 15.0714 547.148 14.4286 545.338 14.4286H531.41C530.838 14.4286 530.362 14.2381 529.981 13.8571C529.6 13.4762 529.41 13 529.41 12.4286C529.41 11.8571 529.6 11.381 529.981 11C530.362 10.619 530.838 10.4286 531.41 10.4286ZM544.732 10.4286H561.875C565.97 10.4286 569.47 11.881 572.375 14.7857C575.279 17.6905 576.732 21.1905 576.732 25.2857V42.4286C576.732 45.3333 575.684 47.8333 573.589 49.9286C571.541 51.9762 569.065 53 566.16 53C565.589 53 565.113 52.8095 564.732 52.4286C564.351 52.0476 564.16 51.5714 564.16 51C564.16 50.4286 564.351 49.9524 564.732 49.5714C565.113 49.1905 565.589 49 566.16 49C567.97 49 569.517 48.3571 570.803 47.0714C572.089 45.7857 572.732 44.2381 572.732 42.4286V25.2857C572.732 22.2857 571.66 19.7381 569.517 17.6429C567.422 15.5 564.875 14.4286 561.875 14.4286H544.732C544.16 14.4286 543.684 14.2381 543.303 13.8571C542.922 13.4762 542.732 13 542.732 12.4286C542.732 11.8571 542.922 11.381 543.303 11C543.684 10.619 544.16 10.4286 544.732 10.4286ZM588.007 10.4286H626.579C627.15 10.4286 627.626 10.619 628.007 11C628.388 11.381 628.579 11.8571 628.579 12.4286C628.579 13 628.388 13.4762 628.007 13.8571C627.626 14.2381 627.15 14.4286 626.579 14.4286H623.864C627.007 17.381 628.579 21 628.579 25.2857V42.4286C628.579 45.381 627.412 47.881 625.079 49.9286C622.793 51.9762 620.079 53 616.936 53C614.983 53 613.15 52.5952 611.436 51.7857C609.769 50.9286 608.388 49.7857 607.293 48.3571C606.198 49.7857 604.793 50.9286 603.079 51.7857C601.412 52.5952 599.602 53 597.65 53C594.507 53 591.769 51.9762 589.436 49.9286C587.15 47.881 586.007 45.381 586.007 42.4286V25.2857C586.007 21 587.579 17.381 590.721 14.4286H588.007C587.436 14.4286 586.959 14.2381 586.579 13.8571C586.198 13.4762 586.007 13 586.007 12.4286C586.007 11.8571 586.198 11.381 586.579 11C586.959 10.619 587.436 10.4286 588.007 10.4286ZM600.864 14.4286C597.864 14.4286 595.293 15.5 593.15 17.6429C591.055 19.7381 590.007 22.2857 590.007 25.2857V42.4286C590.007 44.1905 590.745 45.7381 592.221 47.0714C593.698 48.3571 595.507 49 597.65 49C599.793 49 601.602 48.3571 603.079 47.0714C604.555 45.7381 605.293 44.1905 605.293 42.4286C605.293 41.8571 605.483 41.381 605.864 41C606.245 40.619 606.721 40.4286 607.293 40.4286C607.864 40.4286 608.34 40.619 608.721 41C609.102 41.381 609.293 41.8571 609.293 42.4286C609.293 44.1905 610.031 45.7381 611.507 47.0714C612.983 48.3571 614.793 49 616.936 49C619.079 49 620.888 48.3571 622.364 47.0714C623.84 45.7381 624.579 44.1905 624.579 42.4286V25.2857C624.579 22.2857 623.507 19.7381 621.364 17.6429C619.269 15.5 616.721 14.4286 613.721 14.4286H600.864ZM639.863 10.4286C639.863 10.4286 652.72 10.4286 678.434 10.4286C679.005 10.4286 679.482 10.619 679.863 11C680.244 11.381 680.434 11.8571 680.434 12.4286C680.434 13 680.244 13.4762 679.863 13.8571C679.482 14.2381 679.005 14.4286 678.434 14.4286H672.148C674.72 16.1905 676.744 18.4048 678.22 21.0714C679.696 23.6905 680.434 26.5238 680.434 29.5714V33.8571C680.434 39.1905 678.339 43.7143 674.148 47.4286C669.958 51.1429 664.958 53 659.148 53C653.339 53 648.339 51.1429 644.148 47.4286C639.958 43.7143 637.863 39.1905 637.863 33.8571V29.5714C637.863 26.5238 638.601 23.6905 640.077 21.0714C641.553 18.4048 643.577 16.1905 646.148 14.4286H639.863C639.291 14.4286 638.815 14.2381 638.434 13.8571C638.053 13.4762 637.863 13 637.863 12.4286C637.863 11.8571 638.053 11.381 638.434 11C638.815 10.619 639.291 10.4286 639.863 10.4286ZM646.863 44.5714C650.244 47.5238 654.339 49 659.148 49C663.958 49 668.029 47.5238 671.363 44.5714C674.744 41.5714 676.434 38 676.434 33.8571V29.5714C676.434 25.4286 674.744 21.881 671.363 18.9286C668.029 15.9286 663.958 14.4286 659.148 14.4286C654.339 14.4286 650.244 15.9286 646.863 18.9286C643.529 21.881 641.863 25.4286 641.863 29.5714V33.8571C641.863 38 643.529 41.5714 646.863 44.5714ZM692.361 10.4286C693.98 10.4286 695.48 10.9524 696.861 12C698.099 13 699.051 14.2857 699.718 15.8571C700.432 17.4286 700.789 19.1429 700.789 21V42.4286C700.789 45.381 699.623 47.881 697.289 49.9286C695.004 51.9762 692.289 53 689.147 53C686.909 53 684.837 52.5476 682.932 51.6429C680.98 50.7381 679.432 49.5 678.289 47.9286C677.051 46.2619 676.432 44.4286 676.432 42.4286C676.432 41.8571 676.623 41.381 677.004 41C677.385 40.619 677.861 40.4286 678.432 40.4286C679.004 40.4286 679.48 40.619 679.861 41C680.242 41.381 680.432 41.8571 680.432 42.4286C680.432 43.5238 680.789 44.5714 681.504 45.5714C682.266 46.5714 683.337 47.4048 684.718 48.0714C686.051 48.6905 687.528 49 689.147 49C691.289 49 693.099 48.3571 694.575 47.0714C696.051 45.7381 696.789 44.1905 696.789 42.4286V21C696.789 19.7619 696.551 18.619 696.075 17.5714C695.647 16.5238 695.075 15.7143 694.361 15.1429C693.742 14.6667 693.075 14.4286 692.361 14.4286C691.789 14.4286 691.313 14.2381 690.932 13.8571C690.551 13.4762 690.361 13 690.361 12.4286C690.361 11.8571 690.551 11.381 690.932 11C691.313 10.619 691.789 10.4286 692.361 10.4286ZM750.848 48.9286C753.181 48.9286 755.395 48.2857 757.49 47C756.728 45.5714 756.348 44.0238 756.348 42.3571C756.348 41.4524 756.038 40.5952 755.419 39.7857C754.8 38.9286 753.871 38.2381 752.633 37.7143C751.443 37.1429 750.133 36.8571 748.705 36.8571C746.848 36.8571 745.276 37.4048 743.99 38.5C742.752 39.5952 742.133 40.881 742.133 42.3571C742.133 43.4524 742.49 44.5 743.205 45.5C743.967 46.5 745.014 47.3333 746.348 48C747.728 48.619 749.228 48.9286 750.848 48.9286ZM760.348 42.3571C760.348 43.0714 760.49 43.7619 760.776 44.4286C763.014 42.1429 764.8 39.2381 766.133 35.7143C767.467 32.1429 768.133 28.2857 768.133 24.1429V20.9286C768.133 19.119 767.49 17.5714 766.205 16.2857C764.919 15 763.371 14.3571 761.562 14.3571C759.943 14.3571 758.443 14.6905 757.062 15.3571C755.728 15.9762 754.681 16.7857 753.919 17.7857C753.205 18.7857 752.848 19.8333 752.848 20.9286C752.848 21.5 752.657 21.9762 752.276 22.3571C751.895 22.7381 751.419 22.9286 750.848 22.9286C750.276 22.9286 749.8 22.7381 749.419 22.3571C749.038 21.9762 748.848 21.5 748.848 20.9286C748.848 19.8333 748.49 18.7857 747.776 17.7857C747.014 16.7857 745.943 15.9762 744.562 15.3571C743.228 14.6905 741.752 14.3571 740.133 14.3571C738.324 14.3571 736.776 15 735.49 16.2857C734.205 17.5714 733.562 19.119 733.562 20.9286C733.562 21.4524 733.633 21.9762 733.776 22.5C734.348 22.881 734.633 23.4286 734.633 24.1429C734.633 24.7143 734.443 25.1905 734.062 25.5714C733.681 25.9524 733.205 26.1429 732.633 26.1429C731.681 26.1429 730.919 25.6667 730.348 24.7143C729.824 23.7619 729.562 22.5 729.562 20.9286C729.562 18.0238 730.586 15.5476 732.633 13.5C734.728 11.4048 737.228 10.3571 740.133 10.3571C742.324 10.3571 744.348 10.7857 746.205 11.6429C748.109 12.5 749.657 13.6905 750.848 15.2143C752.038 13.6905 753.562 12.5 755.419 11.6429C757.324 10.7857 759.371 10.3571 761.562 10.3571C764.467 10.3571 766.943 11.4048 768.99 13.5C771.086 15.5476 772.133 18.0238 772.133 20.9286V24.1429C772.133 28.8571 771.348 33.2619 769.776 37.3571C768.205 41.4524 766.038 44.8333 763.276 47.5C764.657 48.4524 766.228 48.9286 767.99 48.9286C768.562 48.9286 769.038 49.119 769.419 49.5C769.8 49.881 769.99 50.3571 769.99 50.9286C769.99 51.5 769.8 51.9762 769.419 52.3571C769.038 52.7381 768.562 52.9286 767.99 52.9286C764.943 52.9286 762.3 52 760.062 50.1429C757.157 52 754.086 52.9286 750.848 52.9286C748.609 52.9286 746.514 52.4762 744.562 51.5714C742.657 50.6667 741.133 49.4286 739.99 47.8571C738.752 46.1905 738.133 44.3571 738.133 42.3571C738.133 39.6905 739.181 37.4524 741.276 35.6429C743.371 33.7857 745.848 32.8571 748.705 32.8571C750.752 32.8571 752.657 33.2619 754.419 34.0714C756.181 34.881 757.586 35.9762 758.633 37.3571C759.776 38.881 760.348 40.5476 760.348 42.3571ZM783.491 10.4286C783.491 10.4286 796.348 10.4286 822.062 10.4286C822.633 10.4286 823.11 10.619 823.491 11C823.871 11.381 824.062 11.8571 824.062 12.4286C824.062 13 823.871 13.4762 823.491 13.8571C823.11 14.2381 822.633 14.4286 822.062 14.4286H815.776C818.348 16.1905 820.371 18.4048 821.848 21.0714C823.324 23.6905 824.062 26.5238 824.062 29.5714V33.8571C824.062 39.1905 821.967 43.7143 817.776 47.4286C813.586 51.1429 808.586 53 802.776 53C796.967 53 791.967 51.1429 787.776 47.4286C783.586 43.7143 781.491 39.1905 781.491 33.8571V29.5714C781.491 26.5238 782.229 23.6905 783.705 21.0714C785.181 18.4048 787.205 16.1905 789.776 14.4286H783.491C782.919 14.4286 782.443 14.2381 782.062 13.8571C781.681 13.4762 781.491 13 781.491 12.4286C781.491 11.8571 781.681 11.381 782.062 11C782.443 10.619 782.919 10.4286 783.491 10.4286ZM790.491 44.5714C793.871 47.5238 797.967 49 802.776 49C807.586 49 811.657 47.5238 814.991 44.5714C818.371 41.5714 820.062 38 820.062 33.8571V29.5714C820.062 25.4286 818.371 21.881 814.991 18.9286C811.657 15.9286 807.586 14.4286 802.776 14.4286C797.967 14.4286 793.871 15.9286 790.491 18.9286C787.157 21.881 785.491 25.4286 785.491 29.5714V33.8571C785.491 38 787.157 41.5714 790.491 44.5714ZM835.989 10.4286C837.608 10.4286 839.108 10.9524 840.489 12C841.727 13 842.679 14.2857 843.346 15.8571C844.06 17.4286 844.417 19.1429 844.417 21V42.4286C844.417 45.381 843.251 47.881 840.917 49.9286C838.632 51.9762 835.917 53 832.775 53C830.536 53 828.465 52.5476 826.56 51.6429C824.608 50.7381 823.06 49.5 821.917 47.9286C820.679 46.2619 820.06 44.4286 820.06 42.4286C820.06 41.8571 820.251 41.381 820.632 41C821.013 40.619 821.489 40.4286 822.06 40.4286C822.632 40.4286 823.108 40.619 823.489 41C823.87 41.381 824.06 41.8571 824.06 42.4286C824.06 43.5238 824.417 44.5714 825.132 45.5714C825.894 46.5714 826.965 47.4048 828.346 48.0714C829.679 48.6905 831.156 49 832.775 49C834.917 49 836.727 48.3571 838.203 47.0714C839.679 45.7381 840.417 44.1905 840.417 42.4286V21C840.417 19.7619 840.179 18.619 839.703 17.5714C839.275 16.5238 838.703 15.7143 837.989 15.1429C837.37 14.6667 836.703 14.4286 835.989 14.4286C835.417 14.4286 834.941 14.2381 834.56 13.8571C834.179 13.4762 833.989 13 833.989 12.4286C833.989 11.8571 834.179 11.381 834.56 11C834.941 10.619 835.417 10.4286 835.989 10.4286ZM880.547 33.7143C879.69 33.7143 878.904 34.1429 878.19 35C877.523 35.8095 877.19 36.8571 877.19 38.1429V42.4286C877.19 44.1905 877.928 45.7381 879.404 47.0714C880.88 48.3571 882.69 49 884.833 49C886.975 49 888.785 48.3571 890.261 47.0714C891.737 45.7381 892.475 44.1905 892.475 42.4286C892.475 41.8571 892.666 41.381 893.047 41C893.428 40.619 893.904 40.4286 894.475 40.4286C895.047 40.4286 895.523 40.619 895.904 41C896.285 41.381 896.475 41.8571 896.475 42.4286C896.475 44.1905 897.214 45.7381 898.69 47.0714C900.166 48.3571 901.975 49 904.118 49C906.261 49 908.071 48.3571 909.547 47.0714C911.023 45.7381 911.761 44.1905 911.761 42.4286V28.5C911.761 24.6429 910.285 21.3333 907.333 18.5714C904.38 15.8095 900.809 14.4286 896.618 14.4286H893.404C888.737 14.4286 884.928 15.119 881.975 16.5C880.69 17.119 879.856 17.7381 879.475 18.3571C879.38 18.5476 879.333 18.7143 879.333 18.8571C879.333 19.4286 879.142 19.9048 878.761 20.2857C878.38 20.6667 877.904 20.8571 877.333 20.8571C876.761 20.8571 876.285 20.6667 875.904 20.2857C875.523 19.9048 875.333 19.4286 875.333 18.8571C875.333 17 876.356 15.3571 878.404 13.9286C879.833 12.9762 881.69 12.1905 883.975 11.5714C886.833 10.8095 889.975 10.4286 893.404 10.4286H896.618C901.856 10.4286 906.356 12.1905 910.118 15.7143C913.88 19.2381 915.761 23.5 915.761 28.5V42.4286C915.761 45.381 914.594 47.881 912.261 49.9286C909.975 51.9762 907.261 53 904.118 53C902.166 53 900.333 52.5952 898.618 51.7857C896.952 50.9286 895.571 49.7857 894.475 48.3571C893.38 49.7857 891.975 50.9286 890.261 51.7857C888.594 52.5952 886.785 53 884.833 53C881.69 53 878.952 51.9762 876.618 49.9286C874.333 47.881 873.19 45.381 873.19 42.4286V38.1429C873.19 35.9048 873.88 33.9524 875.261 32.2857C876.642 30.5714 878.404 29.7143 880.547 29.7143C881.118 29.7143 881.594 29.9048 881.975 30.2857C882.356 30.6667 882.547 31.1429 882.547 31.7143C882.547 32.2857 882.356 32.7619 881.975 33.1429C881.594 33.5238 881.118 33.7143 880.547 33.7143ZM940.974 10.4286H943.117C947.498 10.4286 951.236 11.881 954.331 14.7857C957.474 17.6429 959.045 21.1429 959.045 25.2857V38.1429C959.045 42.2857 957.474 45.8095 954.331 48.7143C951.236 51.5714 947.498 53 943.117 53H940.974C936.593 53 932.831 51.5714 929.688 48.7143C926.593 45.8095 925.045 42.2857 925.045 38.1429V25.2857C925.045 21.1429 926.593 17.6429 929.688 14.7857C932.831 11.881 936.593 10.4286 940.974 10.4286ZM940.974 14.4286C937.64 14.4286 934.807 15.5 932.474 17.6429C930.188 19.7857 929.045 22.3333 929.045 25.2857V38.1429C929.045 41.0952 930.188 43.6429 932.474 45.7857C934.807 47.9286 937.64 49 940.974 49H943.117C946.45 49 949.259 47.9286 951.545 45.7857C953.879 43.6429 955.045 41.0952 955.045 38.1429V25.2857C955.045 22.3333 953.879 19.7857 951.545 17.6429C949.259 15.5 946.45 14.4286 943.117 14.4286H940.974ZM970.331 10.4286H1008.9C1009.47 10.4286 1009.95 10.619 1010.33 11C1010.71 11.381 1010.9 11.8571 1010.9 12.4286C1010.9 13 1010.71 13.4762 1010.33 13.8571C1009.95 14.2381 1009.47 14.4286 1008.9 14.4286H1006.19C1009.33 17.381 1010.9 21 1010.9 25.2857V42.4286C1010.9 45.381 1009.74 47.881 1007.4 49.9286C1005.12 51.9762 1002.4 53 999.26 53C997.308 53 995.474 52.5952 993.76 51.7857C992.093 50.9286 990.712 49.7857 989.617 48.3571C988.522 49.7857 987.117 50.9286 985.403 51.7857C983.736 52.5952 981.927 53 979.974 53C976.831 53 974.093 51.9762 971.76 49.9286C969.474 47.881 968.331 45.381 968.331 42.4286V25.2857C968.331 21 969.903 17.381 973.046 14.4286H970.331C969.76 14.4286 969.284 14.2381 968.903 13.8571C968.522 13.4762 968.331 13 968.331 12.4286C968.331 11.8571 968.522 11.381 968.903 11C969.284 10.619 969.76 10.4286 970.331 10.4286ZM983.188 14.4286C980.188 14.4286 977.617 15.5 975.474 17.6429C973.379 19.7381 972.331 22.2857 972.331 25.2857V42.4286C972.331 44.1905 973.069 45.7381 974.546 47.0714C976.022 48.3571 977.831 49 979.974 49C982.117 49 983.927 48.3571 985.403 47.0714C986.879 45.7381 987.617 44.1905 987.617 42.4286C987.617 41.8571 987.808 41.381 988.188 41C988.569 40.619 989.046 40.4286 989.617 40.4286C990.188 40.4286 990.665 40.619 991.046 41C991.427 41.381 991.617 41.8571 991.617 42.4286C991.617 44.1905 992.355 45.7381 993.831 47.0714C995.308 48.3571 997.117 49 999.26 49C1001.4 49 1003.21 48.3571 1004.69 47.0714C1006.16 45.7381 1006.9 44.1905 1006.9 42.4286V25.2857C1006.9 22.2857 1005.83 19.7381 1003.69 17.6429C1001.59 15.5 999.046 14.4286 996.046 14.4286H983.188ZM1008.83 14.4286H995.973C995.401 14.4286 994.925 14.2381 994.544 13.8571C994.163 13.4762 993.973 13 993.973 12.4286C993.973 11.8571 994.163 11.381 994.544 11C994.925 10.619 995.401 10.4286 995.973 10.4286H1008.83C1009.4 10.4286 1009.88 10.619 1010.26 11C1010.64 11.381 1010.83 11.8571 1010.83 12.4286C1010.83 13 1010.64 13.4762 1010.26 13.8571C1009.88 14.2381 1009.4 14.4286 1008.83 14.4286ZM1003.76 2C1004.57 1.19048 1005.54 0.785714 1006.69 0.785714C1007.83 0.785714 1008.81 1.19048 1009.62 2C1010.42 2.80952 1010.83 3.78571 1010.83 4.92857C1010.83 6.07143 1010.42 7.04762 1009.62 7.85714C1008.81 8.66667 1007.83 9.07143 1006.69 9.07143C1005.54 9.07143 1004.57 8.66667 1003.76 7.85714C1002.95 7.04762 1002.54 6.07143 1002.54 4.92857C1002.54 3.78571 1002.95 2.80952 1003.76 2ZM1036.26 10.4286H1038.4C1042.79 10.4286 1046.52 11.881 1049.62 14.7857C1052.76 17.6429 1054.33 21.1429 1054.33 25.2857V38.1429C1054.33 42.2857 1052.76 45.8095 1049.62 48.7143C1046.52 51.5714 1042.79 53 1038.4 53H1036.26C1031.88 53 1028.12 51.5714 1024.98 48.7143C1021.88 45.8095 1020.33 42.2857 1020.33 38.1429V25.2857C1020.33 21.1429 1021.88 17.6429 1024.98 14.7857C1028.12 11.881 1031.88 10.4286 1036.26 10.4286ZM1036.26 14.4286C1032.93 14.4286 1030.1 15.5 1027.76 17.6429C1025.48 19.7857 1024.33 22.3333 1024.33 25.2857V38.1429C1024.33 41.0952 1025.48 43.6429 1027.76 45.7857C1030.1 47.9286 1032.93 49 1036.26 49H1038.4C1041.74 49 1044.55 47.9286 1046.83 45.7857C1049.17 43.6429 1050.33 41.0952 1050.33 38.1429V25.2857C1050.33 22.3333 1049.17 19.7857 1046.83 17.6429C1044.55 15.5 1041.74 14.4286 1038.4 14.4286H1036.26ZM1079.48 14.4286C1079.71 15.7143 1080.33 16.8095 1081.33 17.7143C1082.38 18.5714 1083.57 19 1084.91 19C1086.24 19 1087.41 18.5714 1088.41 17.7143C1089.45 16.8095 1090.1 15.7143 1090.33 14.4286H1079.48ZM1102.19 25.2857C1102.19 22.8095 1101.45 20.619 1099.98 18.7143C1098.5 16.8095 1096.62 15.5238 1094.33 14.8571C1094 17.1429 1092.93 19.0714 1091.12 20.6429C1089.36 22.2143 1087.29 23 1084.91 23C1082.52 23 1080.43 22.2143 1078.62 20.6429C1076.86 19.0714 1075.81 17.1429 1075.48 14.8571C1073.19 15.5238 1071.31 16.8095 1069.83 18.7143C1068.36 20.619 1067.62 22.8095 1067.62 25.2857V42.4286C1067.62 44.1905 1068.36 45.7381 1069.83 47.0714C1071.31 48.3571 1073.12 49 1075.26 49C1077.41 49 1079.21 48.3571 1080.69 47.0714C1082.17 45.7381 1082.91 44.1905 1082.91 42.4286C1082.91 41.8571 1083.1 41.381 1083.48 41C1083.86 40.619 1084.33 40.4286 1084.91 40.4286C1085.48 40.4286 1085.95 40.619 1086.33 41C1086.71 41.381 1086.91 41.8571 1086.91 42.4286C1086.91 44.1905 1087.64 45.7381 1089.12 47.0714C1090.6 48.3571 1092.41 49 1094.55 49C1096.69 49 1098.5 48.3571 1099.98 47.0714C1101.45 45.7381 1102.19 44.1905 1102.19 42.4286V25.2857ZM1078.48 10.4286H1091.33C1095.43 10.4286 1098.93 11.881 1101.83 14.7857C1104.74 17.6905 1106.19 21.1905 1106.19 25.2857V42.4286C1106.19 45.381 1105.02 47.881 1102.69 49.9286C1100.41 51.9762 1097.69 53 1094.55 53C1092.6 53 1090.76 52.5952 1089.05 51.7857C1087.38 50.9286 1086 49.7857 1084.91 48.3571C1083.81 49.7857 1082.41 50.9286 1080.69 51.7857C1079.02 52.5952 1077.21 53 1075.26 53C1072.12 53 1069.38 51.9762 1067.05 49.9286C1064.76 47.881 1063.62 45.381 1063.62 42.4286V25.2857C1063.62 21.1905 1065.07 17.6905 1067.98 14.7857C1070.88 11.881 1074.38 10.4286 1078.48 10.4286ZM1147.47 49C1149.28 49 1150.83 48.3571 1152.12 47.0714C1153.4 45.7857 1154.05 44.2381 1154.05 42.4286V25.2857C1154.05 22.2857 1152.97 19.7381 1150.83 17.6429C1148.74 15.5 1146.19 14.4286 1143.19 14.4286H1130.33C1127.33 14.4286 1124.76 15.5 1122.62 17.6429C1120.52 19.7381 1119.47 22.2857 1119.47 25.2857V42.4286C1119.47 44.2381 1120.12 45.7857 1121.4 47.0714C1122.69 48.3571 1124.24 49 1126.05 49C1126.62 49 1127.09 49.1905 1127.47 49.5714C1127.86 49.9524 1128.05 50.4286 1128.05 51C1128.05 51.5714 1127.86 52.0476 1127.47 52.4286C1127.09 52.8095 1126.62 53 1126.05 53C1123.14 53 1120.64 51.9762 1118.55 49.9286C1116.5 47.8333 1115.47 45.3333 1115.47 42.4286V25.2857C1115.47 21 1117.05 17.381 1120.19 14.4286H1117.47C1116.9 14.4286 1116.43 14.2381 1116.05 13.8571C1115.67 13.4762 1115.47 13 1115.47 12.4286C1115.47 11.8571 1115.67 11.381 1116.05 11C1116.43 10.619 1116.9 10.4286 1117.47 10.4286H1156.05C1156.62 10.4286 1157.09 10.619 1157.47 11C1157.86 11.381 1158.05 11.8571 1158.05 12.4286C1158.05 13 1157.86 13.4762 1157.47 13.8571C1157.09 14.2381 1156.62 14.4286 1156.05 14.4286H1153.33C1156.47 17.381 1158.05 21 1158.05 25.2857V42.4286C1158.05 45.3333 1157 47.8333 1154.9 49.9286C1152.86 51.9762 1150.38 53 1147.47 53C1146.9 53 1146.43 52.8095 1146.05 52.4286C1145.67 52.0476 1145.47 51.5714 1145.47 51C1145.47 50.4286 1145.67 49.9524 1146.05 49.5714C1146.43 49.1905 1146.9 49 1147.47 49ZM1157.97 42.4286C1157.97 43.5238 1158.33 44.5714 1159.04 45.5714C1159.81 46.5714 1160.88 47.4048 1162.26 48.0714C1163.59 48.6905 1165.07 49 1166.69 49C1168.83 49 1170.64 48.3571 1172.12 47.0714C1173.59 45.7381 1174.33 44.1905 1174.33 42.4286V21C1174.33 18.0476 1175.47 15.5476 1177.76 13.5C1180.09 11.4524 1182.83 10.4286 1185.97 10.4286C1189.12 10.4286 1191.83 11.4524 1194.12 13.5C1196.45 15.5476 1197.62 18.0476 1197.62 21V42.4286C1197.62 44.2857 1197.26 46 1196.54 47.5714C1195.88 49.1429 1194.93 50.4286 1193.69 51.4286C1192.31 52.4762 1190.81 53 1189.19 53C1188.62 53 1188.14 52.8095 1187.76 52.4286C1187.38 52.0476 1187.19 51.5714 1187.19 51C1187.19 50.4286 1187.38 49.9524 1187.76 49.5714C1188.14 49.1905 1188.62 49 1189.19 49C1189.9 49 1190.57 48.7619 1191.19 48.2857C1191.9 47.7143 1192.47 46.9048 1192.9 45.8571C1193.38 44.8095 1193.62 43.6667 1193.62 42.4286V21C1193.62 19.2381 1192.88 17.7143 1191.4 16.4286C1189.93 15.0952 1188.12 14.4286 1185.97 14.4286C1183.83 14.4286 1182.02 15.0952 1180.54 16.4286C1179.07 17.7143 1178.33 19.2381 1178.33 21V42.4286C1178.33 45.381 1177.16 47.881 1174.83 49.9286C1172.54 51.9762 1169.83 53 1166.69 53C1164.45 53 1162.38 52.5476 1160.47 51.6429C1158.52 50.7381 1156.97 49.5 1155.83 47.9286C1154.59 46.2619 1153.97 44.4286 1153.97 42.4286C1153.97 41.8571 1154.16 41.381 1154.54 41C1154.93 40.619 1155.4 40.4286 1155.97 40.4286C1156.54 40.4286 1157.02 40.619 1157.4 41C1157.78 41.381 1157.97 41.8571 1157.97 42.4286ZM1226.36 44.5714V42.4286C1226.36 39.5238 1227.39 37.0476 1229.43 35C1231.53 32.9048 1234.03 31.8571 1236.93 31.8571C1239.84 31.8571 1242.32 32.9048 1244.36 35C1246.46 37.0476 1247.51 39.5238 1247.51 42.4286C1247.51 44.2381 1248.15 45.7857 1249.43 47.0714C1250.72 48.3571 1252.27 49 1254.08 49C1255.89 49 1257.43 48.3571 1258.72 47.0714C1260.01 45.7857 1260.65 44.2381 1260.65 42.4286V25.2857C1260.65 22.619 1259.67 20.2619 1257.72 18.2143C1255.82 16.1667 1253.41 14.9524 1250.51 14.5714C1250.03 17 1248.82 19.0238 1246.86 20.6429C1244.91 22.2143 1242.67 23 1240.15 23C1237.24 23 1234.74 21.9762 1232.65 19.9286C1230.6 17.8333 1229.58 15.3333 1229.58 12.4286C1229.58 11.8571 1229.77 11.381 1230.15 11C1230.53 10.619 1231.01 10.4286 1231.58 10.4286H1248.72C1253.1 10.4286 1256.84 11.881 1259.93 14.7857C1263.08 17.6429 1264.65 21.1429 1264.65 25.2857V42.4286C1264.65 45.3333 1263.6 47.8333 1261.51 49.9286C1259.46 51.9762 1256.98 53 1254.08 53C1251.17 53 1248.67 51.9762 1246.58 49.9286C1244.53 47.8333 1243.51 45.3333 1243.51 42.4286C1243.51 40.619 1242.86 39.0714 1241.58 37.7857C1240.29 36.5 1238.74 35.8571 1236.93 35.8571C1235.13 35.8571 1233.58 36.5 1232.29 37.7857C1231.01 39.0714 1230.36 40.619 1230.36 42.4286V44.5714C1230.36 46.4286 1230.84 47.7857 1231.79 48.6429C1232.08 48.881 1232.36 49 1232.65 49C1233.22 49 1233.7 49.1905 1234.08 49.5714C1234.46 49.9524 1234.65 50.4286 1234.65 51C1234.65 51.5714 1234.46 52.0476 1234.08 52.4286C1233.7 52.8095 1233.22 53 1232.65 53C1231.36 53 1230.2 52.5476 1229.15 51.6429C1227.29 49.9762 1226.36 47.619 1226.36 44.5714ZM1236.22 17.7143C1237.41 18.5714 1238.72 19 1240.15 19C1241.58 19 1242.86 18.5714 1244.01 17.7143C1245.2 16.8571 1246.01 15.7619 1246.43 14.4286H1233.86C1234.29 15.7619 1235.08 16.8571 1236.22 17.7143ZM1278.4 11.5714C1279.21 10.7619 1280.19 10.3571 1281.33 10.3571C1282.47 10.3571 1283.45 10.7619 1284.26 11.5714C1285.07 12.381 1285.47 13.3571 1285.47 14.5C1285.47 15.6429 1285.07 16.619 1284.26 17.4286C1283.45 18.2381 1282.47 18.6429 1281.33 18.6429C1280.19 18.6429 1279.21 18.2381 1278.4 17.4286C1277.59 16.619 1277.19 15.6429 1277.19 14.5C1277.19 13.3571 1277.59 12.381 1278.4 11.5714ZM1275.83 42.3571C1275.83 43.5952 1276.04 44.7381 1276.47 45.7857C1276.95 46.8333 1277.54 47.6429 1278.26 48.2143C1278.88 48.6905 1279.54 48.9286 1280.26 48.9286C1280.83 48.9286 1281.3 49.119 1281.69 49.5C1282.07 49.881 1282.26 50.3571 1282.26 50.9286C1282.26 51.5 1282.07 51.9762 1281.69 52.3571C1281.3 52.7381 1280.83 52.9286 1280.26 52.9286C1278.64 52.9286 1277.14 52.4048 1275.76 51.3571C1274.52 50.3571 1273.54 49.0714 1272.83 47.5C1272.16 45.9286 1271.83 44.2143 1271.83 42.3571V12.3571C1271.83 11.7857 1272.02 11.3095 1272.4 10.9286C1272.78 10.5476 1273.26 10.3571 1273.83 10.3571C1274.4 10.3571 1274.88 10.5476 1275.26 10.9286C1275.64 11.3095 1275.83 11.7857 1275.83 12.3571V42.3571ZM1316.25 25.4286H1333.54V14.4286H1316.25C1315.68 14.4286 1315.21 14.2381 1314.83 13.8571C1314.44 13.4762 1314.25 13 1314.25 12.4286C1314.25 11.8571 1314.44 11.381 1314.83 11C1315.21 10.619 1315.68 10.4286 1316.25 10.4286H1354.83C1355.4 10.4286 1355.87 10.619 1356.25 11C1356.64 11.381 1356.83 11.8571 1356.83 12.4286C1356.83 13 1356.64 13.4762 1356.25 13.8571C1355.87 14.2381 1355.4 14.4286 1354.83 14.4286H1337.54V25.4286H1354.83C1355.4 25.4286 1355.87 25.619 1356.25 26C1356.64 26.381 1356.83 26.8571 1356.83 27.4286C1356.83 28 1356.64 28.4762 1356.25 28.8571C1355.87 29.2381 1355.4 29.4286 1354.83 29.4286H1353.11C1355.59 31.8571 1356.83 34.7619 1356.83 38.1429V41.3571C1356.83 44.5 1355.8 47.2381 1353.75 49.5714C1351.71 51.8571 1349.21 53 1346.25 53H1324.83C1321.87 53 1319.37 51.8571 1317.33 49.5714C1315.28 47.2381 1314.25 44.5 1314.25 41.3571V38.1429C1314.25 34.7619 1315.49 31.8571 1317.97 29.4286H1316.25C1315.68 29.4286 1315.21 29.2381 1314.83 28.8571C1314.44 28.4762 1314.25 28 1314.25 27.4286C1314.25 26.8571 1314.44 26.381 1314.83 26C1315.21 25.619 1315.68 25.4286 1316.25 25.4286ZM1328.04 29.4286C1325.28 29.4286 1322.94 30.2857 1321.04 32C1319.18 33.7143 1318.25 35.7619 1318.25 38.1429V41.3571C1318.25 43.5 1318.9 45.3095 1320.18 46.7857C1321.52 48.2619 1323.06 49 1324.83 49H1346.25C1348.02 49 1349.54 48.2619 1350.83 46.7857C1352.16 45.3095 1352.83 43.5 1352.83 41.3571V38.1429C1352.83 35.7619 1351.87 33.7143 1349.97 32C1348.11 30.2857 1345.8 29.4286 1343.04 29.4286H1328.04ZM1369.18 10.4286H1402.4C1402.97 10.4286 1403.44 10.619 1403.82 11C1404.2 11.381 1404.4 11.8571 1404.4 12.4286C1404.4 13 1404.2 13.4762 1403.82 13.8571C1403.44 14.2381 1402.97 14.4286 1402.4 14.4286H1399.68C1402.82 17.381 1404.4 21 1404.4 25.2857V42.4286C1404.4 45.3333 1403.35 47.8333 1401.25 49.9286C1399.2 51.9762 1396.73 53 1393.82 53C1390.92 53 1388.42 51.9762 1386.32 49.9286C1384.28 47.8333 1383.25 45.3333 1383.25 42.4286C1383.25 40.619 1382.61 39.0714 1381.32 37.7857C1380.04 36.5 1378.49 35.8571 1376.68 35.8571C1374.87 35.8571 1373.32 36.5 1372.04 37.7857C1370.75 39.0714 1370.11 40.619 1370.11 42.4286V44.5714C1370.11 46.4286 1370.59 47.7857 1371.54 48.6429C1371.82 48.881 1372.11 49 1372.4 49C1372.97 49 1373.44 49.1905 1373.82 49.5714C1374.2 49.9524 1374.4 50.4286 1374.4 51C1374.4 51.5714 1374.2 52.0476 1373.82 52.4286C1373.44 52.8095 1372.97 53 1372.4 53C1371.11 53 1369.94 52.5476 1368.9 51.6429C1367.04 49.9762 1366.11 47.619 1366.11 44.5714V42.4286C1366.11 39.5238 1367.13 37.0476 1369.18 35C1371.28 32.9048 1373.78 31.8571 1376.68 31.8571C1379.59 31.8571 1382.06 32.9048 1384.11 35C1386.2 37.0476 1387.25 39.5238 1387.25 42.4286C1387.25 44.2381 1387.9 45.7857 1389.18 47.0714C1390.47 48.3571 1392.01 49 1393.82 49C1395.63 49 1397.18 48.3571 1398.47 47.0714C1399.75 45.7857 1400.4 44.2381 1400.4 42.4286V25.2857C1400.4 22.2857 1399.32 19.7381 1397.18 17.6429C1395.09 15.5 1392.54 14.4286 1389.54 14.4286H1369.18C1368.61 14.4286 1368.13 14.2381 1367.75 13.8571C1367.37 13.4762 1367.18 13 1367.18 12.4286C1367.18 11.8571 1367.37 11.381 1367.75 11C1368.13 10.619 1368.61 10.4286 1369.18 10.4286ZM1412.65 61.0714C1412.65 65.2619 1410.96 68.7143 1407.57 71.4286C1408.67 72.4762 1410.05 73 1411.72 73C1412.29 73 1412.76 73.1905 1413.15 73.5714C1413.53 73.9524 1413.72 74.4286 1413.72 75C1413.72 75.5714 1413.53 76.0476 1413.15 76.4286C1412.76 76.8095 1412.29 77 1411.72 77C1408.53 77 1405.98 75.8571 1404.07 73.5714C1402.07 74.4286 1399.98 74.8571 1397.79 74.8571C1395.74 74.8571 1394 74.1429 1392.57 72.7143C1391.15 71.2857 1390.43 69.5476 1390.43 67.5C1390.43 65.4524 1391.15 63.7143 1392.57 62.2857C1394 60.8571 1395.74 60.1429 1397.79 60.1429C1399.88 60.1429 1401.72 60.8333 1403.29 62.2143C1404.86 63.5952 1405.81 65.3095 1406.15 67.3571C1407.81 65.5 1408.65 63.4048 1408.65 61.0714C1408.65 60.5 1408.84 60.0238 1409.22 59.6429C1409.6 59.2619 1410.07 59.0714 1410.65 59.0714C1411.22 59.0714 1411.69 59.2619 1412.07 59.6429C1412.46 60.0238 1412.65 60.5 1412.65 61.0714ZM1397.79 70.8571C1399.41 70.8571 1400.93 70.5476 1402.36 69.9286C1402.26 69.5 1402.22 69.0476 1402.22 68.5714C1402.22 67.3333 1401.79 66.2857 1400.93 65.4286C1400.07 64.5714 1399.03 64.1429 1397.79 64.1429C1396.88 64.1429 1396.1 64.4762 1395.43 65.1429C1394.76 65.8095 1394.43 66.5952 1394.43 67.5C1394.43 68.4048 1394.76 69.1905 1395.43 69.8571C1396.1 70.5238 1396.88 70.8571 1397.79 70.8571ZM1417.77 10.4286H1456.34C1456.91 10.4286 1457.39 10.619 1457.77 11C1458.15 11.381 1458.34 11.8571 1458.34 12.4286C1458.34 13 1458.15 13.4762 1457.77 13.8571C1457.39 14.2381 1456.91 14.4286 1456.34 14.4286H1453.7C1455.36 16.3333 1456.2 18.5238 1456.2 21C1456.2 24.3333 1455.03 27.0714 1452.7 29.2143C1454.41 30.2619 1455.77 31.6667 1456.77 33.4286C1457.82 35.1905 1458.34 37.119 1458.34 39.2143V40.2857C1458.34 43.7619 1457.22 46.7619 1454.98 49.2857C1452.74 51.7619 1449.98 53 1446.7 53C1444.74 53 1442.91 52.5952 1441.2 51.7857C1439.53 50.9286 1438.15 49.7857 1437.05 48.3571C1435.96 49.7857 1434.55 50.9286 1432.84 51.7857C1431.17 52.5952 1429.36 53 1427.41 53C1424.12 53 1421.36 51.7619 1419.12 49.2857C1416.89 46.7619 1415.77 43.7619 1415.77 40.2857V26.3571C1415.77 21.5952 1417.43 17.619 1420.77 14.4286H1417.77C1417.2 14.4286 1416.72 14.2381 1416.34 13.8571C1415.96 13.4762 1415.77 13 1415.77 12.4286C1415.77 11.8571 1415.96 11.381 1416.34 11C1416.72 10.619 1417.2 10.4286 1417.77 10.4286ZM1444.55 14.4286H1430.62C1427.67 14.4286 1425.13 15.5952 1422.98 17.9286C1420.84 20.2143 1419.77 23.0238 1419.77 26.3571V40.2857C1419.77 42.7143 1420.53 44.7857 1422.05 46.5C1423.58 48.1667 1425.36 49 1427.41 49C1429.55 49 1431.36 48.3571 1432.84 47.0714C1434.32 45.7381 1435.05 44.1905 1435.05 42.4286C1435.05 41.8571 1435.24 41.381 1435.62 41C1436.01 40.619 1436.48 40.4286 1437.05 40.4286C1437.63 40.4286 1438.1 40.619 1438.48 41C1438.86 41.381 1439.05 41.8571 1439.05 42.4286C1439.05 44.1905 1439.79 45.7381 1441.27 47.0714C1442.74 48.3571 1444.55 49 1446.7 49C1448.74 49 1450.53 48.1667 1452.05 46.5C1453.58 44.7857 1454.34 42.7143 1454.34 40.2857V39.2143C1454.34 37.119 1453.58 35.3333 1452.05 33.8571C1450.58 32.3333 1448.79 31.5714 1446.7 31.5714C1446.12 31.5714 1445.65 31.381 1445.27 31C1444.89 30.619 1444.7 30.1429 1444.7 29.5714C1444.7 29 1444.89 28.5238 1445.27 28.1429C1445.65 27.7619 1446.12 27.5714 1446.7 27.5714C1448.17 27.5714 1449.46 26.9524 1450.55 25.7143C1451.65 24.4286 1452.2 22.8571 1452.2 21C1452.2 19.2381 1451.46 17.7143 1449.98 16.4286C1448.51 15.0952 1446.7 14.4286 1444.55 14.4286ZM1470.69 10.4286H1508.19C1508.77 10.4286 1509.24 10.619 1509.62 11C1510 11.381 1510.19 11.8571 1510.19 12.4286C1510.19 13 1510 13.4762 1509.62 13.8571C1509.24 14.2381 1508.77 14.4286 1508.19 14.4286H1503.41C1505.5 16 1507.15 17.9286 1508.34 20.2143C1509.58 22.4524 1510.19 24.8571 1510.19 27.4286V42.4286C1510.19 45.381 1509.03 47.881 1506.69 49.9286C1504.41 51.9762 1501.69 53 1498.55 53C1496.6 53 1494.77 52.5952 1493.05 51.7857C1491.39 50.9286 1490 49.7857 1488.91 48.3571C1487.81 49.7857 1486.41 50.9286 1484.69 51.7857C1483.03 52.5952 1481.22 53 1479.27 53C1476.12 53 1473.39 51.9762 1471.05 49.9286C1468.77 47.881 1467.62 45.381 1467.62 42.4286V38.1429C1467.62 35.9048 1468.31 33.9524 1469.69 32.2857C1471.08 30.5714 1472.84 29.7143 1474.98 29.7143C1475.55 29.7143 1476.03 29.9048 1476.41 30.2857C1476.79 30.6667 1476.98 31.1429 1476.98 31.7143C1476.98 32.2857 1476.79 32.7619 1476.41 33.1429C1476.03 33.5238 1475.55 33.7143 1474.98 33.7143C1474.12 33.7143 1473.34 34.1429 1472.62 35C1471.96 35.8095 1471.62 36.8571 1471.62 38.1429V42.4286C1471.62 44.1905 1472.36 45.7381 1473.84 47.0714C1475.31 48.3571 1477.12 49 1479.27 49C1481.41 49 1483.22 48.3571 1484.69 47.0714C1486.17 45.7381 1486.91 44.1905 1486.91 42.4286C1486.91 41.8571 1487.1 41.381 1487.48 41C1487.86 40.619 1488.34 40.4286 1488.91 40.4286C1489.48 40.4286 1489.96 40.619 1490.34 41C1490.72 41.381 1490.91 41.8571 1490.91 42.4286C1490.91 44.1905 1491.65 45.7381 1493.12 47.0714C1494.6 48.3571 1496.41 49 1498.55 49C1500.69 49 1502.5 48.3571 1503.98 47.0714C1505.46 45.7381 1506.19 44.1905 1506.19 42.4286V27.4286C1506.19 23.9048 1504.72 20.8571 1501.77 18.2857C1498.86 15.7143 1495.29 14.4286 1491.05 14.4286H1470.69C1470.12 14.4286 1469.65 14.2381 1469.27 13.8571C1468.89 13.4762 1468.69 13 1468.69 12.4286C1468.69 11.8571 1468.89 11.381 1469.27 11C1469.65 10.619 1470.12 10.4286 1470.69 10.4286ZM1497.98 10.4286H1515.12C1519.22 10.4286 1522.72 11.881 1525.62 14.7857C1528.53 17.6905 1529.98 21.1905 1529.98 25.2857V42.4286C1529.98 45.3333 1528.93 47.8333 1526.84 49.9286C1524.79 51.9762 1522.31 53 1519.41 53C1518.84 53 1518.36 52.8095 1517.98 52.4286C1517.6 52.0476 1517.41 51.5714 1517.41 51C1517.41 50.4286 1517.6 49.9524 1517.98 49.5714C1518.36 49.1905 1518.84 49 1519.41 49C1521.22 49 1522.76 48.3571 1524.05 47.0714C1525.34 45.7857 1525.98 44.2381 1525.98 42.4286V25.2857C1525.98 22.2857 1524.91 19.7381 1522.76 17.6429C1520.67 15.5 1518.12 14.4286 1515.12 14.4286H1497.98C1497.41 14.4286 1496.93 14.2381 1496.55 13.8571C1496.17 13.4762 1495.98 13 1495.98 12.4286C1495.98 11.8571 1496.17 11.381 1496.55 11C1496.93 10.619 1497.41 10.4286 1497.98 10.4286ZM1571.33 48.9286C1573.14 48.9286 1574.68 48.2857 1575.97 47C1577.25 45.7143 1577.9 44.1667 1577.9 42.3571V25.2143C1577.9 22.2143 1576.83 19.6667 1574.68 17.5714C1572.59 15.4286 1570.04 14.3571 1567.04 14.3571H1562.47C1562.28 15.9762 1561.87 17.4524 1561.25 18.7857C1560.06 21.1667 1558.18 23.0476 1555.61 24.4286C1552.52 26.0952 1548.42 27.0238 1543.33 27.2143V42.3571C1543.33 44.1667 1543.97 45.7143 1545.25 47C1546.54 48.2857 1548.09 48.9286 1549.9 48.9286C1550.47 48.9286 1550.94 49.119 1551.33 49.5C1551.71 49.881 1551.9 50.3571 1551.9 50.9286C1551.9 51.5 1551.71 51.9762 1551.33 52.3571C1550.94 52.7381 1550.47 52.9286 1549.9 52.9286C1546.99 52.9286 1544.49 51.9048 1542.4 49.8571C1540.35 47.7619 1539.33 45.2619 1539.33 42.3571V25.2143C1539.33 21.119 1540.78 17.619 1543.68 14.7143C1546.59 11.8095 1550.09 10.3571 1554.18 10.3571H1567.04C1571.14 10.3571 1574.64 11.8095 1577.54 14.7143C1580.44 17.619 1581.9 21.119 1581.9 25.2143V42.3571C1581.9 45.2619 1580.85 47.7619 1578.75 49.8571C1576.71 51.9048 1574.23 52.9286 1571.33 52.9286C1570.75 52.9286 1570.28 52.7381 1569.9 52.3571C1569.52 51.9762 1569.33 51.5 1569.33 50.9286C1569.33 50.3571 1569.52 49.881 1569.9 49.5C1570.28 49.119 1570.75 48.9286 1571.33 48.9286ZM1558.47 14.3571H1554.18C1551.56 14.3571 1549.25 15.1905 1547.25 16.8571C1545.25 18.5238 1544.02 20.619 1543.54 23.1429C1547.87 22.9524 1551.28 22.2143 1553.75 20.9286C1555.56 19.9286 1556.85 18.6429 1557.61 17.0714C1558.04 16.2619 1558.33 15.3571 1558.47 14.3571ZM1593.11 10.4286C1593.11 10.4286 1605.97 10.4286 1631.68 10.4286C1632.25 10.4286 1632.73 10.619 1633.11 11C1633.49 11.381 1633.68 11.8571 1633.68 12.4286C1633.68 13 1633.49 13.4762 1633.11 13.8571C1632.73 14.2381 1632.25 14.4286 1631.68 14.4286H1625.4C1627.97 16.1905 1629.99 18.4048 1631.47 21.0714C1632.94 23.6905 1633.68 26.5238 1633.68 29.5714V33.8571C1633.68 39.1905 1631.59 43.7143 1627.4 47.4286C1623.2 51.1429 1618.2 53 1612.4 53C1606.59 53 1601.59 51.1429 1597.4 47.4286C1593.2 43.7143 1591.11 39.1905 1591.11 33.8571V29.5714C1591.11 26.5238 1591.85 23.6905 1593.32 21.0714C1594.8 18.4048 1596.82 16.1905 1599.4 14.4286H1593.11C1592.54 14.4286 1592.06 14.2381 1591.68 13.8571C1591.3 13.4762 1591.11 13 1591.11 12.4286C1591.11 11.8571 1591.3 11.381 1591.68 11C1592.06 10.619 1592.54 10.4286 1593.11 10.4286ZM1600.11 44.5714C1603.49 47.5238 1607.59 49 1612.4 49C1617.2 49 1621.28 47.5238 1624.61 44.5714C1627.99 41.5714 1629.68 38 1629.68 33.8571V29.5714C1629.68 25.4286 1627.99 21.881 1624.61 18.9286C1621.28 15.9286 1617.2 14.4286 1612.4 14.4286C1607.59 14.4286 1603.49 15.9286 1600.11 18.9286C1596.78 21.881 1595.11 25.4286 1595.11 29.5714V33.8571C1595.11 38 1596.78 41.5714 1600.11 44.5714ZM1645.61 10.4286C1647.23 10.4286 1648.73 10.9524 1650.11 12C1651.35 13 1652.3 14.2857 1652.97 15.8571C1653.68 17.4286 1654.04 19.1429 1654.04 21V42.4286C1654.04 45.381 1652.87 47.881 1650.54 49.9286C1648.25 51.9762 1645.54 53 1642.39 53C1640.16 53 1638.08 52.5476 1636.18 51.6429C1634.23 50.7381 1632.68 49.5 1631.54 47.9286C1630.3 46.2619 1629.68 44.4286 1629.68 42.4286C1629.68 41.8571 1629.87 41.381 1630.25 41C1630.63 40.619 1631.11 40.4286 1631.68 40.4286C1632.25 40.4286 1632.73 40.619 1633.11 41C1633.49 41.381 1633.68 41.8571 1633.68 42.4286C1633.68 43.5238 1634.04 44.5714 1634.75 45.5714C1635.51 46.5714 1636.58 47.4048 1637.97 48.0714C1639.3 48.6905 1640.77 49 1642.39 49C1644.54 49 1646.35 48.3571 1647.82 47.0714C1649.3 45.7381 1650.04 44.1905 1650.04 42.4286V21C1650.04 19.7619 1649.8 18.619 1649.32 17.5714C1648.89 16.5238 1648.32 15.7143 1647.61 15.1429C1646.99 14.6667 1646.32 14.4286 1645.61 14.4286C1645.04 14.4286 1644.56 14.2381 1644.18 13.8571C1643.8 13.4762 1643.61 13 1643.61 12.4286C1643.61 11.8571 1643.8 11.381 1644.18 11C1644.56 10.619 1645.04 10.4286 1645.61 10.4286ZM1666.58 48.95C1666.58 47.1 1667.03 45.8 1667.93 45.05C1668.83 44.3 1669.91 43.925 1671.16 43.925C1672.46 43.925 1673.56 44.3 1674.46 45.05C1675.41 45.8 1675.88 47.1 1675.88 48.95C1675.88 50.75 1675.41 52.05 1674.46 52.85C1673.56 53.65 1672.46 54.05 1671.16 54.05C1669.91 54.05 1668.83 53.65 1667.93 52.85C1667.03 52.05 1666.58 50.75 1666.58 48.95Z" fill="black"/>
</svg>
