<svg width="1600" height="75" viewBox="0 0 1600 75" fill="none" xmlns="http://www.w3.org/2000/svg">
<path d="M36.17 51.756C34.07 51.756 32.306 51.483 30.878 50.937C29.492 50.391 28.274 49.593 27.224 48.543C26.216 47.451 25.229 46.128 24.263 44.574L26.783 44.448C25.607 46.38 24.368 47.871 23.066 48.921C21.764 49.971 20.315 50.706 18.719 51.126C17.123 51.546 15.317 51.756 13.301 51.756C10.865 51.756 8.681 51.294 6.749 50.37C4.859 49.404 3.389 48.081 2.339 46.401C1.289 44.679 0.764 42.663 0.764 40.353C0.764 38.421 1.163 36.72 1.961 35.25C2.759 33.738 3.893 32.541 5.363 31.659C6.875 30.777 8.681 30.336 10.781 30.336C13.217 30.336 15.128 30.903 16.514 32.037C17.9 33.129 18.593 34.62 18.593 36.51C18.593 37.182 18.509 37.854 18.341 38.526C18.215 39.198 18.005 39.765 17.711 40.227L12.86 39.849C12.944 39.513 13.007 39.198 13.049 38.904C13.133 38.568 13.175 38.274 13.175 38.022C13.175 37.182 12.944 36.552 12.482 36.132C12.02 35.67 11.369 35.439 10.529 35.439C9.395 35.439 8.429 35.838 7.631 36.636C6.833 37.434 6.434 38.589 6.434 40.101C6.434 41.823 7.064 43.23 8.324 44.322C9.584 45.372 11.516 45.897 14.12 45.897C16.934 45.897 18.992 45.204 20.294 43.818C21.596 42.39 22.331 40.542 22.499 38.274H28.295C28.505 40.92 29.261 42.852 30.563 44.07C31.907 45.288 33.503 45.897 35.351 45.897C37.493 45.897 39.005 45.162 39.887 43.692C40.769 42.18 41.21 40.269 41.21 37.959C41.21 35.019 40.538 32.457 39.194 30.273C37.85 28.089 35.939 26.262 33.461 24.792C31.025 23.322 28.148 22.23 24.83 21.516C21.554 20.76 17.942 20.382 13.994 20.382L14.624 14.271C19.202 14.355 23.255 14.796 26.783 15.594C30.353 16.392 33.44 17.526 36.044 18.996C38.69 20.466 40.853 22.188 42.533 24.162C44.255 26.094 45.515 28.236 46.313 30.588C47.153 32.898 47.573 35.334 47.573 37.896C47.573 41.13 47.048 43.776 45.998 45.834C44.99 47.85 43.625 49.341 41.903 50.307C40.181 51.273 38.27 51.756 36.17 51.756ZM74.5774 51.756C69.7894 51.756 65.7154 50.895 62.3554 49.173C58.9954 47.451 56.4334 45.057 54.6694 41.991C52.9474 38.925 52.0864 35.439 52.0864 31.533C52.0864 28.215 52.6534 25.359 53.7874 22.965C54.9214 20.571 56.5174 18.744 58.5754 17.484C60.6334 16.182 63.0064 15.531 65.6944 15.531C67.7104 15.531 69.4324 15.888 70.8604 16.602C72.2884 17.316 73.3804 18.345 74.1364 19.689C74.8924 21.033 75.2704 22.629 75.2704 24.477C75.2704 26.325 74.8504 27.984 74.0104 29.454C73.1704 30.924 71.9314 32.079 70.2934 32.919C68.6554 33.759 66.6184 34.179 64.1824 34.179C62.9644 34.179 61.8724 34.053 60.9064 33.801C59.9404 33.549 59.0794 33.213 58.3234 32.793C57.6094 32.331 56.9584 31.89 56.3704 31.47L57.2524 26.367C57.6724 26.787 58.1764 27.207 58.7644 27.627C59.3524 28.047 60.0034 28.404 60.7174 28.698C61.4734 28.95 62.2924 29.076 63.1744 29.076C65.3164 29.076 66.8704 28.656 67.8364 27.816C68.8444 26.934 69.3484 25.821 69.3484 24.477C69.3484 23.259 68.9914 22.314 68.2774 21.642C67.5634 20.97 66.6394 20.634 65.5054 20.634C64.2454 20.634 63.0484 20.991 61.9144 21.705C60.7804 22.419 59.8564 23.574 59.1424 25.17C58.4704 26.766 58.1344 28.929 58.1344 31.659C58.1344 34.221 58.7434 36.573 59.9614 38.715C61.1794 40.857 63.0274 42.579 65.5054 43.881C67.9834 45.141 71.0494 45.771 74.7034 45.771C78.1474 45.771 81.0874 45.288 83.5234 44.322C85.9594 43.314 87.8074 41.886 89.0674 40.038C90.3694 38.148 91.0204 35.901 91.0204 33.297C91.0204 30.273 90.2224 27.711 88.6264 25.611C87.0304 23.469 84.9514 21.789 82.3894 20.571L86.4214 16.98C88.7734 18.198 90.7474 19.626 92.3434 21.264C93.9814 22.86 95.2204 24.666 96.0604 26.682C96.9004 28.656 97.3204 30.84 97.3204 33.234C97.3204 36.594 96.5434 39.681 94.9894 42.495C93.4774 45.309 91.0414 47.556 87.6814 49.236C84.3634 50.916 79.9954 51.756 74.5774 51.756ZM78.2314 22.02V16.287H90.1384V22.02H78.2314ZM126.429 35.691C126.429 39.093 125.862 41.991 124.728 44.385C123.636 46.779 122.04 48.606 119.94 49.866C117.882 51.126 115.383 51.756 112.443 51.756C109.965 51.756 107.865 51.315 106.143 50.433C104.421 49.509 103.119 48.27 102.237 46.716C101.397 45.12 100.977 43.314 100.977 41.298C100.977 39.492 101.292 37.959 101.922 36.699C102.552 35.439 103.434 34.494 104.568 33.864C105.702 33.192 106.962 32.856 108.348 32.856C110.028 32.856 111.309 33.276 112.191 34.116C113.073 34.914 113.514 35.985 113.514 37.329C113.514 38.547 113.178 39.534 112.506 40.29C111.834 41.004 110.952 41.361 109.86 41.361C108.852 41.361 108.012 41.088 107.34 40.542C106.668 39.996 106.269 39.156 106.143 38.022L106.773 37.77C106.563 38.274 106.416 38.757 106.332 39.219C106.248 39.681 106.206 40.206 106.206 40.794C106.206 42.138 106.647 43.398 107.529 44.574C108.411 45.708 109.965 46.275 112.191 46.275C113.829 46.275 115.236 45.876 116.412 45.078C117.588 44.28 118.491 43.104 119.121 41.55C119.751 39.996 120.066 38.043 120.066 35.691C120.066 33.465 119.772 31.533 119.184 29.895C118.638 28.257 117.777 26.871 116.601 25.737C115.803 24.897 114.879 24.204 113.829 23.658C112.821 23.112 111.498 22.713 109.86 22.461C108.264 22.167 106.206 22.02 103.686 22.02H83.8408V16.287H105.009C107.949 16.287 110.448 16.497 112.506 16.917C114.606 17.295 116.391 17.925 117.861 18.807C119.373 19.647 120.696 20.676 121.83 21.894C123.342 23.49 124.476 25.443 125.232 27.753C126.03 30.063 126.429 32.709 126.429 35.691ZM113.691 55.095C115.077 55.095 116.232 55.305 117.156 55.725C118.08 56.145 118.941 56.775 119.739 57.615C120.537 58.455 121.377 59.526 122.259 60.828L119.487 60.702C120.621 59.022 121.797 57.657 123.015 56.607C124.191 55.599 125.829 55.095 127.929 55.095C129.651 55.095 131.122 55.473 132.34 56.229C133.558 56.985 134.482 57.972 135.112 59.19C135.742 60.408 136.057 61.752 136.057 63.222C136.057 64.86 135.742 66.33 135.112 67.632C134.524 68.976 133.768 70.131 132.844 71.097C131.962 72.063 131.059 72.924 130.135 73.68L126.859 70.152C128.119 69.186 129.127 68.178 129.883 67.128C130.681 66.078 131.08 64.86 131.08 63.474C131.08 62.55 130.807 61.71 130.261 60.954C129.757 60.198 128.895 59.82 127.677 59.82C126.333 59.82 125.283 60.303 124.527 61.269C123.729 62.235 123.288 63.516 123.204 65.112H118.416C118.248 63.474 117.786 62.172 117.03 61.206C116.232 60.282 115.224 59.82 114.006 59.82C112.788 59.82 111.906 60.177 111.36 60.891C110.814 61.647 110.541 62.529 110.541 63.537C110.541 64.923 110.94 66.099 111.738 67.065C112.536 68.073 113.544 69.081 114.762 70.089L111.549 73.68C110.079 72.462 108.714 71.013 107.454 69.333C106.194 67.653 105.564 65.574 105.564 63.096C105.564 61.71 105.9 60.408 106.572 59.19C107.202 57.972 108.126 56.985 109.344 56.229C110.52 55.473 111.969 55.095 113.691 55.095ZM146.612 51.756C143.21 51.756 140.459 50.559 138.359 48.165C136.301 45.729 135.272 42.096 135.272 37.266C135.272 34.788 135.629 32.499 136.343 30.399C137.057 28.299 138.128 26.451 139.556 24.855C140.984 23.217 142.748 21.936 144.848 21.012L145.982 22.02H135.272V16.287H165.071C167.297 16.287 168.872 16.182 169.796 15.972C170.762 15.762 171.455 15.51 171.875 15.216C172.463 14.796 172.841 14.334 173.009 13.83C173.177 13.326 173.261 12.759 173.261 12.129C173.261 10.827 172.925 9.546 172.253 8.286C171.623 7.026 170.657 5.724 169.355 4.38L174.269 1.293C176.285 3.561 177.65 5.598 178.364 7.404C179.078 9.21 179.435 11.058 179.435 12.948C179.435 13.788 179.267 14.817 178.931 16.035C178.595 17.253 177.881 18.324 176.789 19.248C176.369 19.668 175.844 20.046 175.214 20.382C174.626 20.718 173.954 21.012 173.198 21.264C172.442 21.474 171.602 21.642 170.678 21.768L170.993 21.327C172.757 22.293 174.269 23.574 175.529 25.17C176.789 26.724 177.755 28.53 178.427 30.588C179.099 32.604 179.435 34.83 179.435 37.266C179.435 42.096 178.385 45.729 176.285 48.165C174.185 50.559 171.392 51.756 167.906 51.756C166.058 51.756 164.42 51.504 162.992 51C161.606 50.496 160.367 49.719 159.275 48.669C158.183 47.577 157.112 46.17 156.062 44.448L158.708 44.07C157.616 46.212 156.44 47.829 155.18 48.921C153.92 50.013 152.576 50.748 151.148 51.126C149.72 51.546 148.208 51.756 146.612 51.756ZM147.62 45.897C149.594 45.897 151.169 45.204 152.345 43.818C153.563 42.39 154.256 40.542 154.424 38.274H160.283C160.451 40.92 161.228 42.852 162.614 44.07C164 45.288 165.47 45.897 167.024 45.897C168.914 45.897 170.384 45.246 171.434 43.944C172.526 42.6 173.072 40.374 173.072 37.266C173.072 35.25 172.757 33.318 172.127 31.47C171.497 29.622 170.552 27.984 169.292 26.556C168.032 25.128 166.457 24.015 164.567 23.217C162.719 22.377 160.535 21.957 158.015 21.957H156.881C154.403 21.957 152.219 22.335 150.329 23.091C148.439 23.847 146.843 24.918 145.541 26.304C144.239 27.69 143.252 29.307 142.58 31.155C141.95 33.003 141.635 35.019 141.635 37.203C141.635 40.311 142.16 42.537 143.21 43.881C144.26 45.225 145.73 45.897 147.62 45.897ZM202.887 51.756C199.317 51.756 196.146 51.126 193.374 49.866C190.602 48.564 188.418 46.674 186.822 44.196C185.268 41.718 184.491 38.694 184.491 35.124C184.491 32.856 184.806 30.84 185.436 29.076C186.108 27.27 187.032 25.695 188.208 24.351C189.426 23.007 190.917 21.873 192.681 20.949L193.878 22.02H184.491V16.287H206.793C209.061 16.287 210.657 16.182 211.581 15.972C212.505 15.762 213.198 15.51 213.66 15.216C214.206 14.796 214.563 14.334 214.731 13.83C214.941 13.326 215.046 12.759 215.046 12.129C215.046 10.827 214.71 9.546 214.038 8.286C213.408 7.026 212.442 5.724 211.14 4.38L216.117 1.293C218.133 3.561 219.498 5.598 220.212 7.404C220.926 9.21 221.283 11.058 221.283 12.948C221.283 13.83 221.094 14.859 220.716 16.035C220.38 17.169 219.708 18.198 218.7 19.122C218.154 19.71 217.482 20.214 216.684 20.634C215.886 21.054 214.92 21.369 213.786 21.579L213.975 21.012C215.571 22.02 216.894 23.196 217.944 24.54C219.036 25.842 219.855 27.375 220.401 29.139C220.989 30.861 221.283 32.856 221.283 35.124C221.283 38.442 220.548 41.34 219.078 43.818C217.608 46.296 215.508 48.249 212.778 49.677C210.048 51.063 206.751 51.756 202.887 51.756ZM202.95 45.771C205.638 45.771 207.864 45.246 209.628 44.196C211.392 43.104 212.715 41.655 213.597 39.849C214.479 38.043 214.92 36.048 214.92 33.864C214.92 31.344 214.395 29.202 213.345 27.438C212.337 25.674 210.93 24.33 209.124 23.406C207.36 22.44 205.323 21.957 203.013 21.957C200.493 21.957 198.33 22.461 196.524 23.469C194.718 24.477 193.311 25.884 192.303 27.69C191.337 29.454 190.854 31.512 190.854 33.864C190.854 37.644 191.946 40.584 194.13 42.684C196.356 44.742 199.296 45.771 202.95 45.771ZM229.478 51.756C226.496 51.756 223.892 51.021 221.666 49.551C219.44 48.039 217.298 46.086 215.24 43.692L219.083 39.534C220.763 41.676 222.359 43.272 223.871 44.322C225.383 45.372 227.105 45.897 229.037 45.897C230.843 45.897 232.145 45.435 232.943 44.511C233.741 43.545 234.14 42.264 234.14 40.668C234.14 39.198 234.098 37.938 234.014 36.888C233.93 35.838 233.846 34.83 233.762 33.864C233.72 32.898 233.699 31.848 233.699 30.714C233.699 27.522 234.413 24.792 235.841 22.524C237.269 20.256 239.243 18.534 241.763 17.358C244.325 16.14 247.244 15.531 250.52 15.531C253.838 15.531 256.694 16.077 259.088 17.169C261.524 18.219 263.54 19.689 265.136 21.579C266.732 23.427 267.929 25.59 268.727 28.068C269.525 30.504 269.924 33.087 269.924 35.817C269.924 39.177 269.357 42.054 268.223 44.448C267.131 46.8 265.535 48.606 263.435 49.866C261.377 51.126 258.899 51.756 256.001 51.756C253.523 51.756 251.423 51.315 249.701 50.433C247.979 49.509 246.677 48.27 245.795 46.716C244.913 45.12 244.472 43.314 244.472 41.298C244.472 39.492 244.787 37.959 245.417 36.699C246.089 35.439 246.971 34.494 248.063 33.864C249.197 33.192 250.457 32.856 251.843 32.856C253.565 32.856 254.867 33.276 255.749 34.116C256.631 34.914 257.072 35.985 257.072 37.329C257.072 38.547 256.736 39.534 256.064 40.29C255.392 41.004 254.51 41.361 253.418 41.361C252.368 41.361 251.507 41.088 250.835 40.542C250.163 39.996 249.785 39.156 249.701 38.022L250.268 37.77C250.058 38.274 249.911 38.757 249.827 39.219C249.743 39.681 249.701 40.206 249.701 40.794C249.701 42.138 250.142 43.398 251.024 44.574C251.948 45.708 253.502 46.275 255.686 46.275C257.324 46.275 258.731 45.876 259.907 45.078C261.083 44.28 261.986 43.125 262.616 41.613C263.246 40.059 263.561 38.169 263.561 35.943C263.561 33.339 263.099 30.945 262.175 28.761C261.251 26.535 259.844 24.75 257.954 23.406C256.064 22.02 253.649 21.327 250.709 21.327C248.525 21.327 246.635 21.726 245.039 22.524C243.443 23.28 242.204 24.414 241.322 25.926C240.482 27.438 240.062 29.328 240.062 31.596C240.062 32.814 240.083 33.906 240.125 34.872C240.209 35.796 240.272 36.762 240.314 37.77C240.398 38.736 240.44 39.891 240.44 41.235C240.44 43.755 239.915 45.792 238.865 47.346C237.857 48.858 236.513 49.971 234.833 50.685C233.195 51.399 231.41 51.756 229.478 51.756ZM311.606 51.756C308.708 51.756 306.314 51.336 304.424 50.496C302.576 49.656 301.19 48.501 300.266 47.031C299.384 45.561 298.943 43.881 298.943 41.991C298.943 39.219 299.993 37.014 302.093 35.376C304.235 33.696 307.238 32.856 311.102 32.856C313.664 32.856 315.953 33.213 317.969 33.927C319.985 34.599 321.812 35.586 323.45 36.888C325.13 38.148 326.663 39.702 328.049 41.55C329.435 43.272 330.527 45.141 331.325 47.157C332.165 49.131 332.795 51.168 333.215 53.268L326.852 54.465C326.306 51.357 325.361 48.585 324.017 46.149C322.673 43.671 320.93 41.718 318.788 40.29C316.688 38.862 314.126 38.148 311.102 38.148C309.17 38.148 307.679 38.484 306.629 39.156C305.621 39.828 305.117 40.752 305.117 41.928C305.117 43.272 305.642 44.343 306.692 45.141C307.742 45.897 309.527 46.275 312.047 46.275C315.029 46.275 317.549 45.876 319.607 45.078C321.665 44.238 323.345 43.104 324.647 41.676C325.991 40.206 326.957 38.547 327.545 36.699C328.133 34.809 328.427 32.835 328.427 30.777C328.427 27.459 327.818 25.065 326.6 23.595C325.382 22.125 323.744 21.39 321.686 21.39C319.922 21.39 318.473 22.02 317.339 23.28C316.247 24.54 315.554 26.241 315.26 28.383H309.275C309.023 25.989 308.309 24.204 307.133 23.028C305.999 21.852 304.592 21.264 302.912 21.264C301.4 21.264 300.245 21.642 299.447 22.398C298.691 23.154 298.313 24.183 298.313 25.485C298.313 26.199 298.418 26.934 298.628 27.69C298.838 28.404 299.069 29.013 299.321 29.517L293.399 31.344C293.021 30.546 292.685 29.622 292.391 28.572C292.097 27.48 291.95 26.241 291.95 24.855C291.95 22.965 292.412 21.327 293.336 19.941C294.26 18.513 295.499 17.421 297.053 16.665C298.607 15.909 300.35 15.531 302.282 15.531C304.088 15.531 305.642 15.783 306.944 16.287C308.288 16.791 309.485 17.589 310.535 18.681C311.585 19.731 312.593 21.117 313.559 22.839L310.913 23.28C312.005 21.138 313.16 19.521 314.378 18.429C315.638 17.337 316.94 16.581 318.284 16.161C319.628 15.741 320.993 15.531 322.379 15.531C325.193 15.531 327.503 16.224 329.309 17.61C331.157 18.996 332.522 20.844 333.404 23.154C334.328 25.464 334.79 28.047 334.79 30.903C334.79 32.457 334.58 34.116 334.16 35.88C333.782 37.644 333.152 39.387 332.27 41.109C331.388 42.789 330.17 44.322 328.616 45.708L327.104 46.653C325.34 48.081 323.177 49.299 320.615 50.307C318.095 51.273 315.092 51.756 311.606 51.756ZM357.926 51.756C354.356 51.756 351.185 51.126 348.413 49.866C345.641 48.564 343.457 46.674 341.861 44.196C340.307 41.718 339.53 38.694 339.53 35.124C339.53 32.856 339.845 30.84 340.475 29.076C341.147 27.27 342.071 25.695 343.247 24.351C344.465 23.007 345.956 21.873 347.72 20.949L348.917 22.02H339.53V16.287H361.832C364.1 16.287 365.696 16.182 366.62 15.972C367.544 15.762 368.237 15.51 368.699 15.216C369.245 14.796 369.602 14.334 369.77 13.83C369.98 13.326 370.085 12.759 370.085 12.129C370.085 10.827 369.749 9.546 369.077 8.286C368.447 7.026 367.481 5.724 366.179 4.38L371.156 1.293C373.172 3.561 374.537 5.598 375.251 7.404C375.965 9.21 376.322 11.058 376.322 12.948C376.322 13.83 376.133 14.859 375.755 16.035C375.419 17.169 374.747 18.198 373.739 19.122C373.193 19.71 372.521 20.214 371.723 20.634C370.925 21.054 369.959 21.369 368.825 21.579L369.014 21.012C370.61 22.02 371.933 23.196 372.983 24.54C374.075 25.842 374.894 27.375 375.44 29.139C376.028 30.861 376.322 32.856 376.322 35.124C376.322 38.442 375.587 41.34 374.117 43.818C372.647 46.296 370.547 48.249 367.817 49.677C365.087 51.063 361.79 51.756 357.926 51.756ZM357.989 45.771C360.677 45.771 362.903 45.246 364.667 44.196C366.431 43.104 367.754 41.655 368.636 39.849C369.518 38.043 369.959 36.048 369.959 33.864C369.959 31.344 369.434 29.202 368.384 27.438C367.376 25.674 365.969 24.33 364.163 23.406C362.399 22.44 360.362 21.957 358.052 21.957C355.532 21.957 353.369 22.461 351.563 23.469C349.757 24.477 348.35 25.884 347.342 27.69C346.376 29.454 345.893 31.512 345.893 33.864C345.893 37.644 346.985 40.584 349.169 42.684C351.395 44.742 354.335 45.771 357.989 45.771ZM385.588 51.756C382.354 51.756 379.519 50.958 377.083 49.362C374.605 47.766 372.337 45.729 370.279 43.251L374.122 39.093C375.76 41.235 377.44 42.915 379.162 44.133C380.884 45.309 382.921 45.897 385.273 45.897C387.751 45.897 389.662 45.141 391.006 43.629C392.35 42.075 393.022 39.996 393.022 37.392C393.022 34.662 392.518 32.268 391.51 30.21C390.502 28.152 389.116 26.388 387.352 24.918C385.588 23.406 383.551 22.146 381.241 21.138L384.58 15.405C387.436 16.791 389.977 18.513 392.203 20.571C394.429 22.629 396.172 25.044 397.432 27.816C398.734 30.588 399.385 33.717 399.385 37.203C399.385 40.017 398.881 42.537 397.873 44.763C396.907 46.947 395.395 48.669 393.337 49.929C391.279 51.147 388.696 51.756 385.588 51.756ZM456.99 51.756C454.89 51.756 453.126 51.483 451.698 50.937C450.312 50.391 449.094 49.593 448.044 48.543C447.036 47.451 446.049 46.128 445.083 44.574L447.603 44.448C446.427 46.38 445.188 47.871 443.886 48.921C442.584 49.971 441.135 50.706 439.539 51.126C437.943 51.546 436.137 51.756 434.121 51.756C431.685 51.756 429.501 51.294 427.569 50.37C425.679 49.404 424.209 48.081 423.159 46.401C422.109 44.679 421.584 42.663 421.584 40.353C421.584 38.421 421.983 36.72 422.781 35.25C423.579 33.738 424.713 32.541 426.183 31.659C427.695 30.777 429.501 30.336 431.601 30.336C434.037 30.336 435.948 30.903 437.334 32.037C438.72 33.129 439.413 34.62 439.413 36.51C439.413 37.182 439.329 37.854 439.161 38.526C439.035 39.198 438.825 39.765 438.531 40.227L433.68 39.849C433.764 39.513 433.827 39.198 433.869 38.904C433.953 38.568 433.995 38.274 433.995 38.022C433.995 37.182 433.764 36.552 433.302 36.132C432.84 35.67 432.189 35.439 431.349 35.439C430.215 35.439 429.249 35.838 428.451 36.636C427.653 37.434 427.254 38.589 427.254 40.101C427.254 41.823 427.884 43.23 429.144 44.322C430.404 45.372 432.336 45.897 434.94 45.897C437.754 45.897 439.812 45.204 441.114 43.818C442.416 42.39 443.151 40.542 443.319 38.274H449.115C449.325 40.92 450.081 42.852 451.383 44.07C452.727 45.288 454.323 45.897 456.171 45.897C458.313 45.897 459.825 45.162 460.707 43.692C461.589 42.18 462.03 40.269 462.03 37.959C462.03 35.019 461.358 32.457 460.014 30.273C458.67 28.089 456.759 26.262 454.281 24.792C451.845 23.322 448.968 22.23 445.65 21.516C442.374 20.76 438.762 20.382 434.814 20.382L435.444 14.271C440.022 14.355 444.075 14.796 447.603 15.594C451.173 16.392 454.26 17.526 456.864 18.996C459.51 20.466 461.673 22.188 463.353 24.162C465.075 26.094 466.335 28.236 467.133 30.588C467.973 32.898 468.393 35.334 468.393 37.896C468.393 41.13 467.868 43.776 466.818 45.834C465.81 47.85 464.445 49.341 462.723 50.307C461.001 51.273 459.09 51.756 456.99 51.756ZM488.279 51.756C485.171 51.756 482.462 51.126 480.152 49.866C477.842 48.606 476.057 46.779 474.797 44.385C473.537 41.949 472.907 39.009 472.907 35.565C472.907 32.331 473.516 29.496 474.734 27.06C475.952 24.582 477.716 22.65 480.026 21.264C482.378 19.878 485.234 19.185 488.594 19.185C492.122 19.185 495.02 19.92 497.288 21.39C499.598 22.818 501.32 24.75 502.454 27.186C503.588 29.622 504.155 32.394 504.155 35.502C504.155 38.694 503.525 41.508 502.265 43.944C501.047 46.38 499.262 48.291 496.91 49.677C494.558 51.063 491.681 51.756 488.279 51.756ZM488.405 46.149C491.681 46.149 494.054 45.141 495.524 43.125C497.036 41.109 497.792 38.568 497.792 35.502C497.792 32.184 496.994 29.58 495.398 27.69C493.802 25.758 491.555 24.792 488.657 24.792C486.431 24.792 484.625 25.254 483.239 26.178C481.853 27.102 480.824 28.362 480.152 29.958C479.522 31.554 479.207 33.339 479.207 35.313C479.207 38.673 480.005 41.319 481.601 43.251C483.239 45.183 485.507 46.149 488.405 46.149ZM526.607 51.756C523.457 51.756 520.727 51.42 518.417 50.748C516.107 50.034 514.217 49.047 512.747 47.787C511.277 46.527 510.185 45.078 509.471 43.44C508.799 41.76 508.463 39.954 508.463 38.022C508.463 37.518 508.484 36.951 508.526 36.321C508.568 35.649 508.673 35.019 508.841 34.431L514.889 35.187C514.847 35.565 514.805 35.922 514.763 36.258C514.721 36.594 514.7 36.951 514.7 37.329C514.7 38.379 514.847 39.408 515.141 40.416C515.477 41.424 516.065 42.348 516.905 43.188C517.787 43.986 518.984 44.637 520.496 45.141C522.05 45.645 524.066 45.897 526.544 45.897C529.022 45.897 531.059 45.666 532.655 45.204C534.251 44.7 535.49 44.049 536.372 43.251C537.254 42.453 537.863 41.592 538.199 40.668C538.577 39.744 538.766 38.82 538.766 37.896C538.766 37.014 538.64 36.174 538.388 35.376C538.178 34.578 537.8 33.864 537.254 33.234C537.086 33.066 536.918 32.94 536.75 32.856C536.624 32.73 536.477 32.583 536.309 32.415C535.553 31.785 534.65 31.302 533.6 30.966C532.55 30.63 531.353 30.462 530.009 30.462C528.413 30.462 527.279 30.672 526.607 31.092C525.935 31.512 525.599 32.079 525.599 32.793C525.599 33.465 525.914 34.011 526.544 34.431C527.174 34.809 528.077 34.998 529.253 34.998C530.471 34.998 531.5 34.767 532.34 34.305C533.222 33.801 533.894 33.087 534.356 32.163C534.818 31.239 535.049 30.147 535.049 28.887C535.049 27.291 534.671 25.968 533.915 24.918C533.201 23.826 532.319 22.986 531.269 22.398C530.261 21.768 529.295 21.348 528.371 21.138L535.994 20.067C537.422 20.991 538.577 22.209 539.459 23.721C540.341 25.191 540.782 26.955 540.782 29.013C540.782 29.265 540.761 29.538 540.719 29.832C540.719 30.126 540.719 30.378 540.719 30.588L539.963 32.478C539.417 34.116 538.598 35.481 537.506 36.573C536.414 37.665 535.112 38.505 533.6 39.093C532.088 39.639 530.45 39.912 528.686 39.912C525.83 39.912 523.625 39.303 522.071 38.085C520.559 36.825 519.803 35.082 519.803 32.856C519.803 31.554 520.118 30.378 520.748 29.328C521.378 28.278 522.386 27.438 523.772 26.808C525.158 26.178 526.964 25.863 529.19 25.863C530.744 25.863 532.151 26.01 533.411 26.304C534.671 26.556 535.889 26.976 537.065 27.564C537.191 27.606 537.296 27.627 537.38 27.627C537.506 27.627 537.632 27.627 537.758 27.627C537.884 27.627 538.01 27.669 538.136 27.753C540.278 28.803 541.853 30.252 542.861 32.1C543.911 33.948 544.436 35.922 544.436 38.022C544.436 40.248 544.058 42.222 543.302 43.944C542.546 45.624 541.412 47.052 539.9 48.228C538.43 49.362 536.582 50.244 534.356 50.874C532.13 51.462 529.547 51.756 526.607 51.756ZM508.778 22.02V16.287H537.317V22.02H508.778ZM573.581 35.691C573.581 39.093 573.014 41.991 571.88 44.385C570.788 46.779 569.192 48.606 567.092 49.866C565.034 51.126 562.535 51.756 559.595 51.756C557.117 51.756 555.017 51.315 553.295 50.433C551.573 49.509 550.271 48.27 549.389 46.716C548.549 45.12 548.129 43.314 548.129 41.298C548.129 39.492 548.444 37.959 549.074 36.699C549.704 35.439 550.586 34.494 551.72 33.864C552.854 33.192 554.114 32.856 555.5 32.856C557.18 32.856 558.461 33.276 559.343 34.116C560.225 34.914 560.666 35.985 560.666 37.329C560.666 38.547 560.33 39.534 559.658 40.29C558.986 41.004 558.104 41.361 557.012 41.361C556.004 41.361 555.164 41.088 554.492 40.542C553.82 39.996 553.421 39.156 553.295 38.022L553.925 37.77C553.715 38.274 553.568 38.757 553.484 39.219C553.4 39.681 553.358 40.206 553.358 40.794C553.358 42.138 553.799 43.398 554.681 44.574C555.563 45.708 557.117 46.275 559.343 46.275C560.981 46.275 562.388 45.876 563.564 45.078C564.74 44.28 565.643 43.104 566.273 41.55C566.903 39.996 567.218 38.043 567.218 35.691C567.218 33.465 566.924 31.533 566.336 29.895C565.79 28.257 564.929 26.871 563.753 25.737C562.955 24.897 562.031 24.204 560.981 23.658C559.973 23.112 558.65 22.713 557.012 22.461C555.416 22.167 553.358 22.02 550.838 22.02H530.993V16.287H552.161C555.101 16.287 557.6 16.497 559.658 16.917C561.758 17.295 563.543 17.925 565.013 18.807C566.525 19.647 567.848 20.676 568.982 21.894C570.494 23.49 571.628 25.443 572.384 27.753C573.182 30.063 573.581 32.709 573.581 35.691ZM589.95 51.756C586.548 51.756 583.797 50.559 581.697 48.165C579.639 45.729 578.61 42.096 578.61 37.266C578.61 34.788 578.967 32.499 579.681 30.399C580.395 28.299 581.466 26.451 582.894 24.855C584.322 23.217 586.086 21.936 588.186 21.012L589.32 22.02H578.61V16.287H608.409C610.635 16.287 612.21 16.182 613.134 15.972C614.1 15.762 614.793 15.51 615.213 15.216C615.801 14.796 616.179 14.334 616.347 13.83C616.515 13.326 616.599 12.759 616.599 12.129C616.599 10.827 616.263 9.546 615.591 8.286C614.961 7.026 613.995 5.724 612.693 4.38L617.607 1.293C619.623 3.561 620.988 5.598 621.702 7.404C622.416 9.21 622.773 11.058 622.773 12.948C622.773 13.788 622.605 14.817 622.269 16.035C621.933 17.253 621.219 18.324 620.127 19.248C619.707 19.668 619.182 20.046 618.552 20.382C617.964 20.718 617.292 21.012 616.536 21.264C615.78 21.474 614.94 21.642 614.016 21.768L614.331 21.327C616.095 22.293 617.607 23.574 618.867 25.17C620.127 26.724 621.093 28.53 621.765 30.588C622.437 32.604 622.773 34.83 622.773 37.266C622.773 42.096 621.723 45.729 619.623 48.165C617.523 50.559 614.73 51.756 611.244 51.756C609.396 51.756 607.758 51.504 606.33 51C604.944 50.496 603.705 49.719 602.613 48.669C601.521 47.577 600.45 46.17 599.4 44.448L602.046 44.07C600.954 46.212 599.778 47.829 598.518 48.921C597.258 50.013 595.914 50.748 594.486 51.126C593.058 51.546 591.546 51.756 589.95 51.756ZM590.958 45.897C592.932 45.897 594.507 45.204 595.683 43.818C596.901 42.39 597.594 40.542 597.762 38.274H603.621C603.789 40.92 604.566 42.852 605.952 44.07C607.338 45.288 608.808 45.897 610.362 45.897C612.252 45.897 613.722 45.246 614.772 43.944C615.864 42.6 616.41 40.374 616.41 37.266C616.41 35.25 616.095 33.318 615.465 31.47C614.835 29.622 613.89 27.984 612.63 26.556C611.37 25.128 609.795 24.015 607.905 23.217C606.057 22.377 603.873 21.957 601.353 21.957H600.219C597.741 21.957 595.557 22.335 593.667 23.091C591.777 23.847 590.181 24.918 588.879 26.304C587.577 27.69 586.59 29.307 585.918 31.155C585.288 33.003 584.973 35.019 584.973 37.203C584.973 40.311 585.498 42.537 586.548 43.881C587.598 45.225 589.068 45.897 590.958 45.897ZM646.225 51.756C642.655 51.756 639.484 51.126 636.712 49.866C633.94 48.564 631.756 46.674 630.16 44.196C628.606 41.718 627.829 38.694 627.829 35.124C627.829 32.856 628.144 30.84 628.774 29.076C629.446 27.27 630.37 25.695 631.546 24.351C632.764 23.007 634.255 21.873 636.019 20.949L637.216 22.02H627.829V16.287H650.131C652.399 16.287 653.995 16.182 654.919 15.972C655.843 15.762 656.536 15.51 656.998 15.216C657.544 14.796 657.901 14.334 658.069 13.83C658.279 13.326 658.384 12.759 658.384 12.129C658.384 10.827 658.048 9.546 657.376 8.286C656.746 7.026 655.78 5.724 654.478 4.38L659.455 1.293C661.471 3.561 662.836 5.598 663.55 7.404C664.264 9.21 664.621 11.058 664.621 12.948C664.621 13.83 664.432 14.859 664.054 16.035C663.718 17.169 663.046 18.198 662.038 19.122C661.492 19.71 660.82 20.214 660.022 20.634C659.224 21.054 658.258 21.369 657.124 21.579L657.313 21.012C658.909 22.02 660.232 23.196 661.282 24.54C662.374 25.842 663.193 27.375 663.739 29.139C664.327 30.861 664.621 32.856 664.621 35.124C664.621 38.442 663.886 41.34 662.416 43.818C660.946 46.296 658.846 48.249 656.116 49.677C653.386 51.063 650.089 51.756 646.225 51.756ZM646.288 45.771C648.976 45.771 651.202 45.246 652.966 44.196C654.73 43.104 656.053 41.655 656.935 39.849C657.817 38.043 658.258 36.048 658.258 33.864C658.258 31.344 657.733 29.202 656.683 27.438C655.675 25.674 654.268 24.33 652.462 23.406C650.698 22.44 648.661 21.957 646.351 21.957C643.831 21.957 641.668 22.461 639.862 23.469C638.056 24.477 636.649 25.884 635.641 27.69C634.675 29.454 634.192 31.512 634.192 33.864C634.192 37.644 635.284 40.584 637.468 42.684C639.694 44.742 642.634 45.771 646.288 45.771ZM673.887 51.756C670.653 51.756 667.818 50.958 665.382 49.362C662.904 47.766 660.636 45.729 658.578 43.251L662.421 39.093C664.059 41.235 665.739 42.915 667.461 44.133C669.183 45.309 671.22 45.897 673.572 45.897C676.05 45.897 677.961 45.141 679.305 43.629C680.649 42.075 681.321 39.996 681.321 37.392C681.321 34.662 680.817 32.268 679.809 30.21C678.801 28.152 677.415 26.388 675.651 24.918C673.887 23.406 671.85 22.146 669.54 21.138L672.879 15.405C675.735 16.791 678.276 18.513 680.502 20.571C682.728 22.629 684.471 25.044 685.731 27.816C687.033 30.588 687.684 33.717 687.684 37.203C687.684 40.017 687.18 42.537 686.172 44.763C685.206 46.947 683.694 48.669 681.636 49.929C679.578 51.147 676.995 51.756 673.887 51.756ZM729.35 51.756C726.452 51.756 724.058 51.336 722.168 50.496C720.32 49.656 718.934 48.501 718.01 47.031C717.128 45.561 716.687 43.881 716.687 41.991C716.687 39.219 717.737 37.014 719.837 35.376C721.979 33.696 724.982 32.856 728.846 32.856C731.408 32.856 733.697 33.213 735.713 33.927C737.729 34.599 739.556 35.586 741.194 36.888C742.874 38.148 744.407 39.702 745.793 41.55C747.179 43.272 748.271 45.141 749.069 47.157C749.909 49.131 750.539 51.168 750.959 53.268L744.596 54.465C744.05 51.357 743.105 48.585 741.761 46.149C740.417 43.671 738.674 41.718 736.532 40.29C734.432 38.862 731.87 38.148 728.846 38.148C726.914 38.148 725.423 38.484 724.373 39.156C723.365 39.828 722.861 40.752 722.861 41.928C722.861 43.272 723.386 44.343 724.436 45.141C725.486 45.897 727.271 46.275 729.791 46.275C732.773 46.275 735.293 45.876 737.351 45.078C739.409 44.238 741.089 43.104 742.391 41.676C743.735 40.206 744.701 38.547 745.289 36.699C745.877 34.809 746.171 32.835 746.171 30.777C746.171 27.459 745.562 25.065 744.344 23.595C743.126 22.125 741.488 21.39 739.43 21.39C737.666 21.39 736.217 22.02 735.083 23.28C733.991 24.54 733.298 26.241 733.004 28.383H727.019C726.767 25.989 726.053 24.204 724.877 23.028C723.743 21.852 722.336 21.264 720.656 21.264C719.144 21.264 717.989 21.642 717.191 22.398C716.435 23.154 716.057 24.183 716.057 25.485C716.057 26.199 716.162 26.934 716.372 27.69C716.582 28.404 716.813 29.013 717.065 29.517L711.143 31.344C710.765 30.546 710.429 29.622 710.135 28.572C709.841 27.48 709.694 26.241 709.694 24.855C709.694 22.965 710.156 21.327 711.08 19.941C712.004 18.513 713.243 17.421 714.797 16.665C716.351 15.909 718.094 15.531 720.026 15.531C721.832 15.531 723.386 15.783 724.688 16.287C726.032 16.791 727.229 17.589 728.279 18.681C729.329 19.731 730.337 21.117 731.303 22.839L728.657 23.28C729.749 21.138 730.904 19.521 732.122 18.429C733.382 17.337 734.684 16.581 736.028 16.161C737.372 15.741 738.737 15.531 740.123 15.531C742.937 15.531 745.247 16.224 747.053 17.61C748.901 18.996 750.266 20.844 751.148 23.154C752.072 25.464 752.534 28.047 752.534 30.903C752.534 32.457 752.324 34.116 751.904 35.88C751.526 37.644 750.896 39.387 750.014 41.109C749.132 42.789 747.914 44.322 746.36 45.708L744.848 46.653C743.084 48.081 740.921 49.299 738.359 50.307C735.839 51.273 732.836 51.756 729.35 51.756ZM775.67 51.756C772.1 51.756 768.929 51.126 766.157 49.866C763.385 48.564 761.201 46.674 759.605 44.196C758.051 41.718 757.274 38.694 757.274 35.124C757.274 32.856 757.589 30.84 758.219 29.076C758.891 27.27 759.815 25.695 760.991 24.351C762.209 23.007 763.7 21.873 765.464 20.949L766.661 22.02H757.274V16.287H779.576C781.844 16.287 783.44 16.182 784.364 15.972C785.288 15.762 785.981 15.51 786.443 15.216C786.989 14.796 787.346 14.334 787.514 13.83C787.724 13.326 787.829 12.759 787.829 12.129C787.829 10.827 787.493 9.546 786.821 8.286C786.191 7.026 785.225 5.724 783.923 4.38L788.9 1.293C790.916 3.561 792.281 5.598 792.995 7.404C793.709 9.21 794.066 11.058 794.066 12.948C794.066 13.83 793.877 14.859 793.499 16.035C793.163 17.169 792.491 18.198 791.483 19.122C790.937 19.71 790.265 20.214 789.467 20.634C788.669 21.054 787.703 21.369 786.569 21.579L786.758 21.012C788.354 22.02 789.677 23.196 790.727 24.54C791.819 25.842 792.638 27.375 793.184 29.139C793.772 30.861 794.066 32.856 794.066 35.124C794.066 38.442 793.331 41.34 791.861 43.818C790.391 46.296 788.291 48.249 785.561 49.677C782.831 51.063 779.534 51.756 775.67 51.756ZM775.733 45.771C778.421 45.771 780.647 45.246 782.411 44.196C784.175 43.104 785.498 41.655 786.38 39.849C787.262 38.043 787.703 36.048 787.703 33.864C787.703 31.344 787.178 29.202 786.128 27.438C785.12 25.674 783.713 24.33 781.907 23.406C780.143 22.44 778.106 21.957 775.796 21.957C773.276 21.957 771.113 22.461 769.307 23.469C767.501 24.477 766.094 25.884 765.086 27.69C764.12 29.454 763.637 31.512 763.637 33.864C763.637 37.644 764.729 40.584 766.913 42.684C769.139 44.742 772.079 45.771 775.733 45.771ZM803.332 51.756C800.098 51.756 797.263 50.958 794.827 49.362C792.349 47.766 790.081 45.729 788.023 43.251L791.866 39.093C793.504 41.235 795.184 42.915 796.906 44.133C798.628 45.309 800.665 45.897 803.017 45.897C805.495 45.897 807.406 45.141 808.75 43.629C810.094 42.075 810.766 39.996 810.766 37.392C810.766 34.662 810.262 32.268 809.254 30.21C808.246 28.152 806.86 26.388 805.096 24.918C803.332 23.406 801.295 22.146 798.985 21.138L802.324 15.405C805.18 16.791 807.721 18.513 809.947 20.571C812.173 22.629 813.916 25.044 815.176 27.816C816.478 30.588 817.129 33.717 817.129 37.203C817.129 40.017 816.625 42.537 815.617 44.763C814.651 46.947 813.139 48.669 811.081 49.929C809.023 51.147 806.44 51.756 803.332 51.756ZM874.734 51.756C872.634 51.756 870.87 51.483 869.442 50.937C868.056 50.391 866.838 49.593 865.788 48.543C864.78 47.451 863.793 46.128 862.827 44.574L865.347 44.448C864.171 46.38 862.932 47.871 861.63 48.921C860.328 49.971 858.879 50.706 857.283 51.126C855.687 51.546 853.881 51.756 851.865 51.756C849.429 51.756 847.245 51.294 845.313 50.37C843.423 49.404 841.953 48.081 840.903 46.401C839.853 44.679 839.328 42.663 839.328 40.353C839.328 38.421 839.727 36.72 840.525 35.25C841.323 33.738 842.457 32.541 843.927 31.659C845.439 30.777 847.245 30.336 849.345 30.336C851.781 30.336 853.692 30.903 855.078 32.037C856.464 33.129 857.157 34.62 857.157 36.51C857.157 37.182 857.073 37.854 856.905 38.526C856.779 39.198 856.569 39.765 856.275 40.227L851.424 39.849C851.508 39.513 851.571 39.198 851.613 38.904C851.697 38.568 851.739 38.274 851.739 38.022C851.739 37.182 851.508 36.552 851.046 36.132C850.584 35.67 849.933 35.439 849.093 35.439C847.959 35.439 846.993 35.838 846.195 36.636C845.397 37.434 844.998 38.589 844.998 40.101C844.998 41.823 845.628 43.23 846.888 44.322C848.148 45.372 850.08 45.897 852.684 45.897C855.498 45.897 857.556 45.204 858.858 43.818C860.16 42.39 860.895 40.542 861.063 38.274H866.859C867.069 40.92 867.825 42.852 869.127 44.07C870.471 45.288 872.067 45.897 873.915 45.897C876.057 45.897 877.569 45.162 878.451 43.692C879.333 42.18 879.774 40.269 879.774 37.959C879.774 35.019 879.102 32.457 877.758 30.273C876.414 28.089 874.503 26.262 872.025 24.792C869.589 23.322 866.712 22.23 863.394 21.516C860.118 20.76 856.506 20.382 852.558 20.382L853.188 14.271C857.766 14.355 861.819 14.796 865.347 15.594C868.917 16.392 872.004 17.526 874.608 18.996C877.254 20.466 879.417 22.188 881.097 24.162C882.819 26.094 884.079 28.236 884.877 30.588C885.717 32.898 886.137 35.334 886.137 37.896C886.137 41.13 885.612 43.776 884.562 45.834C883.554 47.85 882.189 49.341 880.467 50.307C878.745 51.273 876.834 51.756 874.734 51.756ZM906.023 51.756C902.915 51.756 900.206 51.126 897.896 49.866C895.586 48.606 893.801 46.779 892.541 44.385C891.281 41.949 890.651 39.009 890.651 35.565C890.651 32.331 891.26 29.496 892.478 27.06C893.696 24.582 895.46 22.65 897.77 21.264C900.122 19.878 902.978 19.185 906.338 19.185C909.866 19.185 912.764 19.92 915.032 21.39C917.342 22.818 919.064 24.75 920.198 27.186C921.332 29.622 921.899 32.394 921.899 35.502C921.899 38.694 921.269 41.508 920.009 43.944C918.791 46.38 917.006 48.291 914.654 49.677C912.302 51.063 909.425 51.756 906.023 51.756ZM906.149 46.149C909.425 46.149 911.798 45.141 913.268 43.125C914.78 41.109 915.536 38.568 915.536 35.502C915.536 32.184 914.738 29.58 913.142 27.69C911.546 25.758 909.299 24.792 906.401 24.792C904.175 24.792 902.369 25.254 900.983 26.178C899.597 27.102 898.568 28.362 897.896 29.958C897.266 31.554 896.951 33.339 896.951 35.313C896.951 38.673 897.749 41.319 899.345 43.251C900.983 45.183 903.251 46.149 906.149 46.149ZM937.988 51.756C934.586 51.756 931.835 50.559 929.735 48.165C927.677 45.729 926.648 42.096 926.648 37.266C926.648 34.788 927.005 32.499 927.719 30.399C928.433 28.299 929.504 26.451 930.932 24.855C932.36 23.217 934.124 21.936 936.224 21.012L937.358 22.02H926.648V16.287H954.683C957.455 16.287 959.429 16.119 960.605 15.783C961.823 15.405 962.726 14.922 963.314 14.334C963.818 13.746 964.154 13.116 964.322 12.444C964.532 11.73 964.637 10.995 964.637 10.239C964.637 8.601 964.133 7.32 963.125 6.396C962.159 5.43 960.857 4.947 959.219 4.947C957.665 4.947 956.342 5.388 955.25 6.27C954.2 7.11 953.675 8.139 953.675 9.357C953.675 9.567 953.675 9.798 953.675 10.05C953.675 10.26 953.696 10.47 953.738 10.68L951.848 7.845C952.226 7.635 952.604 7.488 952.982 7.404C953.402 7.32 953.78 7.278 954.116 7.278C955.166 7.278 956.006 7.551 956.636 8.097C957.266 8.601 957.581 9.315 957.581 10.239C957.581 11.247 957.224 12.045 956.51 12.633C955.838 13.179 954.893 13.452 953.675 13.452C952.079 13.452 950.903 12.948 950.147 11.94C949.433 10.89 949.076 9.672 949.076 8.286C949.076 6.9 949.475 5.577 950.273 4.317C951.113 3.057 952.289 2.028 953.801 1.23C955.355 0.431999 957.287 0.032999 959.597 0.032999C961.949 0.032999 963.965 0.515999 965.645 1.482C967.325 2.406 968.606 3.708 969.488 5.388C970.37 7.026 970.811 8.916 970.811 11.058C970.811 12.738 970.538 14.229 969.992 15.531C969.488 16.833 968.711 17.967 967.661 18.933C966.947 19.605 966.044 20.172 964.952 20.634C963.902 21.054 962.642 21.39 961.172 21.642L961.802 20.886C963.692 21.852 965.309 23.154 966.653 24.792C967.997 26.43 969.026 28.32 969.74 30.462C970.454 32.562 970.811 34.83 970.811 37.266C970.811 42.096 969.761 45.729 967.661 48.165C965.561 50.559 962.768 51.756 959.282 51.756C957.434 51.756 955.796 51.504 954.368 51C952.982 50.496 951.743 49.719 950.651 48.669C949.559 47.577 948.488 46.17 947.438 44.448L950.084 44.07C948.992 46.212 947.816 47.829 946.556 48.921C945.296 50.013 943.952 50.748 942.524 51.126C941.096 51.546 939.584 51.756 937.988 51.756ZM938.996 45.897C940.97 45.897 942.545 45.204 943.721 43.818C944.939 42.39 945.632 40.542 945.8 38.274H951.659C951.827 40.92 952.604 42.852 953.99 44.07C955.376 45.288 956.846 45.897 958.4 45.897C960.29 45.897 961.76 45.246 962.81 43.944C963.902 42.6 964.448 40.374 964.448 37.266C964.448 35.208 964.133 33.276 963.503 31.47C962.915 29.622 961.991 27.984 960.731 26.556C959.471 25.128 957.896 24.015 956.006 23.217C954.116 22.377 951.911 21.957 949.391 21.957H948.257C945.779 21.957 943.595 22.335 941.705 23.091C939.815 23.847 938.219 24.918 936.917 26.304C935.615 27.648 934.628 29.244 933.956 31.092C933.326 32.94 933.011 34.956 933.011 37.14C933.011 40.248 933.536 42.495 934.586 43.881C935.636 45.225 937.106 45.897 938.996 45.897ZM990.987 51.756C987.879 51.756 985.17 51.126 982.86 49.866C980.55 48.606 978.765 46.779 977.505 44.385C976.245 41.949 975.615 39.009 975.615 35.565C975.615 32.331 976.224 29.496 977.442 27.06C978.66 24.582 980.424 22.65 982.734 21.264C985.086 19.878 987.942 19.185 991.302 19.185C994.83 19.185 997.728 19.92 999.996 21.39C1002.31 22.818 1004.03 24.75 1005.16 27.186C1006.3 29.622 1006.86 32.394 1006.86 35.502C1006.86 38.694 1006.23 41.508 1004.97 43.944C1003.75 46.38 1001.97 48.291 999.618 49.677C997.266 51.063 994.389 51.756 990.987 51.756ZM991.113 46.149C994.389 46.149 996.762 45.141 998.232 43.125C999.744 41.109 1000.5 38.568 1000.5 35.502C1000.5 32.184 999.702 29.58 998.106 27.69C996.51 25.758 994.263 24.792 991.365 24.792C989.139 24.792 987.333 25.254 985.947 26.178C984.561 27.102 983.532 28.362 982.86 29.958C982.23 31.554 981.915 33.339 981.915 35.313C981.915 38.673 982.713 41.319 984.309 43.251C985.947 45.183 988.215 46.149 991.113 46.149ZM1022.95 51.756C1020.68 51.756 1018.69 51.231 1016.97 50.181C1015.29 49.089 1013.96 47.43 1013 45.204C1012.07 42.936 1011.61 40.122 1011.61 36.762C1011.61 34.242 1012.07 31.764 1013 29.328C1013.92 26.892 1015.31 24.687 1017.16 22.713C1019 20.739 1021.29 19.164 1024.02 17.988C1026.75 16.812 1029.92 16.224 1033.54 16.224C1036.48 16.224 1038.97 16.644 1041.03 17.484C1043.09 18.324 1044.79 19.374 1046.14 20.634C1047.52 21.894 1048.68 23.196 1049.6 24.54L1049.85 24.414C1049.01 22.482 1047.94 20.634 1046.64 18.87C1045.34 17.106 1043.78 15.531 1041.98 14.145C1040.17 12.717 1038.11 11.604 1035.8 10.806C1033.54 10.008 1030.97 9.609 1028.12 9.609C1025.05 9.609 1022.89 10.071 1021.63 10.995C1020.37 11.919 1019.74 13.116 1019.74 14.586C1019.74 15.51 1019.93 16.392 1020.31 17.232C1020.73 18.072 1021.27 18.828 1021.94 19.5L1017.79 23.343C1016.95 22.461 1016.21 21.516 1015.58 20.508C1014.95 19.458 1014.47 18.387 1014.13 17.295C1013.8 16.161 1013.63 15.069 1013.63 14.019C1013.63 11.499 1014.28 9.504 1015.58 8.034C1016.88 6.564 1018.58 5.493 1020.68 4.821C1022.83 4.149 1025.16 3.813 1027.68 3.813C1030.24 3.813 1032.59 4.065 1034.73 4.569C1036.92 5.073 1038.89 5.766 1040.65 6.648C1042.42 7.53 1043.97 8.538 1045.32 9.672C1047.92 11.73 1049.98 14.103 1051.49 16.791C1053.04 19.479 1054.14 22.419 1054.77 25.611C1055.44 28.761 1055.77 32.142 1055.77 35.754C1055.77 39.618 1055.29 42.726 1054.33 45.078C1053.4 47.388 1052.08 49.089 1050.36 50.181C1048.63 51.231 1046.6 51.756 1044.25 51.756C1042.4 51.756 1040.76 51.504 1039.33 51C1037.95 50.496 1036.71 49.719 1035.61 48.669C1034.52 47.577 1033.45 46.17 1032.4 44.448L1035.05 44.07C1033.96 46.212 1032.78 47.829 1031.52 48.921C1030.26 50.013 1028.92 50.748 1027.49 51.126C1026.06 51.546 1024.55 51.756 1022.95 51.756ZM1023.96 45.897C1025.93 45.897 1027.51 45.204 1028.68 43.818C1029.9 42.39 1030.6 40.542 1030.76 38.274H1036.62C1036.79 40.92 1037.57 42.852 1038.95 44.07C1040.34 45.288 1041.81 45.897 1043.36 45.897C1045.25 45.897 1046.72 45.246 1047.77 43.944C1048.87 42.6 1049.41 40.395 1049.41 37.329C1049.41 35.271 1049.1 33.339 1048.47 31.533C1047.84 29.685 1046.89 28.047 1045.63 26.619C1044.37 25.191 1042.8 24.078 1040.91 23.28C1039.06 22.44 1036.87 22.02 1034.35 22.02H1033.22C1030.74 22.02 1028.56 22.398 1026.67 23.154C1024.78 23.91 1023.18 24.981 1021.88 26.367C1020.58 27.753 1019.59 29.37 1018.92 31.218C1018.29 33.066 1017.97 35.082 1017.97 37.266C1017.97 40.332 1018.5 42.537 1019.55 43.881C1020.6 45.225 1022.07 45.897 1023.96 45.897ZM1079.29 21.957C1077.57 21.957 1076.08 22.377 1074.82 23.217C1073.6 24.015 1072.57 25.107 1071.73 26.493C1070.89 27.879 1070.2 29.454 1069.65 31.218C1069.36 32.226 1069.1 33.381 1068.89 34.683C1068.68 35.943 1068.52 37.392 1068.39 39.03C1068.31 40.626 1068.26 42.474 1068.26 44.574V51H1061.4V43.251C1061.4 39.975 1061.65 36.909 1062.15 34.053C1062.7 31.155 1063.64 28.593 1064.99 26.367C1066.33 24.099 1068.26 22.293 1070.78 20.949L1072.04 22.02H1061.21V16.287H1082.63C1084.9 16.287 1086.49 16.182 1087.42 15.972C1088.34 15.762 1089.01 15.51 1089.43 15.216C1090.02 14.796 1090.4 14.334 1090.57 13.83C1090.73 13.326 1090.82 12.759 1090.82 12.129C1090.82 10.827 1090.48 9.546 1089.81 8.286C1089.18 7.026 1088.21 5.724 1086.91 4.38L1091.89 1.293C1093.91 3.561 1095.27 5.598 1095.98 7.404C1096.7 9.168 1097.06 11.016 1097.06 12.948C1097.06 14.502 1096.7 15.909 1095.98 17.169C1095.31 18.387 1094.35 19.416 1093.09 20.256C1091.83 21.054 1090.25 21.558 1088.36 21.768L1088.93 21.453C1091.32 23.175 1093.09 25.191 1094.22 27.501C1095.4 29.769 1096.15 32.226 1096.49 34.872C1096.87 37.518 1097.06 40.269 1097.06 43.125V51H1090.13V44.637C1090.13 42.411 1090.06 40.437 1089.94 38.715C1089.85 36.993 1089.68 35.46 1089.43 34.116C1089.22 32.73 1088.93 31.512 1088.55 30.462C1087.58 27.816 1086.39 25.737 1084.96 24.225C1083.53 22.713 1081.64 21.957 1079.29 21.957ZM1105.88 51.756C1102.9 51.756 1100.29 51.021 1098.07 49.551C1095.84 48.039 1093.7 46.086 1091.64 43.692L1095.48 39.534C1097.16 41.676 1098.76 43.272 1100.27 44.322C1101.78 45.372 1103.51 45.897 1105.44 45.897C1107.24 45.897 1108.55 45.435 1109.34 44.511C1110.14 43.545 1110.54 42.264 1110.54 40.668C1110.54 39.198 1110.5 37.938 1110.42 36.888C1110.33 35.838 1110.25 34.83 1110.16 33.864C1110.12 32.898 1110.1 31.848 1110.1 30.714C1110.1 27.522 1110.81 24.792 1112.24 22.524C1113.67 20.256 1115.64 18.534 1118.16 17.358C1120.73 16.14 1123.65 15.531 1126.92 15.531C1130.24 15.531 1133.1 16.077 1135.49 17.169C1137.93 18.219 1139.94 19.689 1141.54 21.579C1143.13 23.427 1144.33 25.59 1145.13 28.068C1145.93 30.504 1146.33 33.087 1146.33 35.817C1146.33 39.177 1145.76 42.054 1144.62 44.448C1143.53 46.8 1141.94 48.606 1139.84 49.866C1137.78 51.126 1135.3 51.756 1132.4 51.756C1129.92 51.756 1127.82 51.315 1126.1 50.433C1124.38 49.509 1123.08 48.27 1122.2 46.716C1121.31 45.12 1120.87 43.314 1120.87 41.298C1120.87 39.492 1121.19 37.959 1121.82 36.699C1122.49 35.439 1123.37 34.494 1124.46 33.864C1125.6 33.192 1126.86 32.856 1128.24 32.856C1129.97 32.856 1131.27 33.276 1132.15 34.116C1133.03 34.914 1133.47 35.985 1133.47 37.329C1133.47 38.547 1133.14 39.534 1132.47 40.29C1131.79 41.004 1130.91 41.361 1129.82 41.361C1128.77 41.361 1127.91 41.088 1127.24 40.542C1126.56 39.996 1126.19 39.156 1126.1 38.022L1126.67 37.77C1126.46 38.274 1126.31 38.757 1126.23 39.219C1126.14 39.681 1126.1 40.206 1126.1 40.794C1126.1 42.138 1126.54 43.398 1127.43 44.574C1128.35 45.708 1129.9 46.275 1132.09 46.275C1133.73 46.275 1135.13 45.876 1136.31 45.078C1137.48 44.28 1138.39 43.125 1139.02 41.613C1139.65 40.059 1139.96 38.169 1139.96 35.943C1139.96 33.339 1139.5 30.945 1138.58 28.761C1137.65 26.535 1136.25 24.75 1134.36 23.406C1132.47 22.02 1130.05 21.327 1127.11 21.327C1124.93 21.327 1123.04 21.726 1121.44 22.524C1119.84 23.28 1118.61 24.414 1117.72 25.926C1116.88 27.438 1116.46 29.328 1116.46 31.596C1116.46 32.814 1116.48 33.906 1116.53 34.872C1116.61 35.796 1116.67 36.762 1116.72 37.77C1116.8 38.736 1116.84 39.891 1116.84 41.235C1116.84 43.755 1116.32 45.792 1115.27 47.346C1114.26 48.858 1112.91 49.971 1111.23 50.685C1109.6 51.399 1107.81 51.756 1105.88 51.756ZM1197.71 51.756C1195.53 51.756 1193.66 51.357 1192.1 50.559C1190.59 49.761 1189.27 48.711 1188.13 47.409C1187.04 46.107 1185.97 44.679 1184.92 43.125C1184 41.571 1183.2 40.395 1182.53 39.597C1181.9 38.757 1181.29 38.19 1180.7 37.896C1180.15 37.602 1179.5 37.455 1178.75 37.455C1177.49 37.455 1176.5 37.854 1175.79 38.652C1175.11 39.45 1174.78 40.542 1174.78 41.928C1174.78 43.23 1175.05 44.532 1175.6 45.834C1176.14 47.094 1176.88 48.396 1177.8 49.74L1172.01 52.071C1171 50.727 1170.16 49.152 1169.49 47.346C1168.86 45.498 1168.54 43.713 1168.54 41.991C1168.54 39.975 1168.96 38.211 1169.8 36.699C1170.64 35.145 1171.82 33.927 1173.33 33.045C1174.88 32.163 1176.65 31.722 1178.62 31.722C1181.1 31.722 1183.14 32.31 1184.73 33.486C1186.37 34.62 1187.97 36.447 1189.52 38.967C1190.49 40.479 1191.37 41.76 1192.17 42.81C1193.01 43.818 1193.87 44.595 1194.75 45.141C1195.67 45.645 1196.76 45.897 1198.02 45.897C1199.75 45.897 1201.15 45.477 1202.25 44.637C1203.38 43.755 1204.22 42.495 1204.77 40.857C1205.35 39.177 1205.65 37.14 1205.65 34.746C1205.65 31.05 1205.08 27.564 1203.95 24.288C1202.81 20.97 1201.28 18.051 1199.35 15.531C1197.42 13.011 1195.19 11.037 1192.67 9.609C1190.15 8.139 1187.52 7.404 1184.79 7.404C1183.41 7.404 1182.38 7.698 1181.71 8.286C1181.08 8.874 1180.76 9.609 1180.76 10.491C1180.76 11.457 1181.08 12.213 1181.71 12.759C1182.34 13.305 1183.2 13.578 1184.29 13.578C1185.76 13.578 1187.02 13.158 1188.07 12.318C1189.12 11.436 1189.73 10.008 1189.9 8.034L1195.63 8.538C1195.21 10.932 1194.45 12.864 1193.36 14.334C1192.27 15.804 1190.95 16.896 1189.39 17.61C1187.84 18.282 1186.14 18.618 1184.29 18.618C1182.36 18.618 1180.66 18.303 1179.19 17.673C1177.76 17.043 1176.65 16.119 1175.85 14.901C1175.09 13.683 1174.71 12.192 1174.71 10.428C1174.71 8.874 1175.11 7.488 1175.91 6.27C1176.75 5.052 1177.95 4.107 1179.5 3.435C1181.06 2.721 1182.93 2.364 1185.11 2.364C1189.1 2.364 1192.73 3.204 1196.01 4.884C1199.33 6.564 1202.18 8.874 1204.58 11.814C1206.97 14.754 1208.82 18.156 1210.12 22.02C1211.42 25.884 1212.07 30.021 1212.07 34.431C1212.07 38.589 1211.46 41.949 1210.25 44.511C1209.07 47.031 1207.39 48.879 1205.21 50.055C1203.06 51.189 1200.57 51.756 1197.71 51.756ZM1240.09 24.477C1240.09 26.367 1239.65 28.047 1238.77 29.517C1237.89 30.987 1236.61 32.142 1234.93 32.982C1233.29 33.78 1231.25 34.179 1228.82 34.179C1226.34 34.179 1224.28 33.696 1222.64 32.73C1221 31.722 1219.74 30.714 1218.86 29.706L1220.44 24.855C1220.86 25.401 1221.38 26.01 1222.01 26.682C1222.64 27.354 1223.42 27.921 1224.34 28.383C1225.31 28.845 1226.44 29.076 1227.75 29.076C1229.89 29.076 1231.44 28.656 1232.41 27.816C1233.42 26.934 1233.92 25.821 1233.92 24.477C1233.92 23.259 1233.56 22.314 1232.85 21.642C1232.18 20.97 1231.21 20.634 1229.95 20.634C1228.73 20.634 1227.58 20.991 1226.49 21.705C1225.44 22.377 1224.57 23.427 1223.9 24.855C1223.27 26.241 1222.96 27.942 1222.96 29.958V30.651C1222.96 33.339 1223.46 35.649 1224.47 37.581C1225.52 39.513 1226.93 41.172 1228.69 42.558C1230.5 43.902 1232.51 45.078 1234.74 46.086L1231.4 51.756C1228.54 50.328 1226 48.627 1223.78 46.653C1221.59 44.679 1219.89 42.39 1218.67 39.786C1217.46 37.14 1216.85 34.158 1216.85 30.84C1216.85 27.648 1217.41 24.918 1218.55 22.65C1219.68 20.382 1221.24 18.639 1223.21 17.421C1225.23 16.161 1227.56 15.531 1230.2 15.531C1232.3 15.531 1234.09 15.909 1235.56 16.665C1237.03 17.421 1238.14 18.471 1238.9 19.815C1239.69 21.159 1240.09 22.713 1240.09 24.477ZM1278.26 51.756C1275.07 51.756 1272.36 51.294 1270.13 50.37C1267.95 49.404 1266.29 48.081 1265.15 46.401C1264.02 44.721 1263.45 42.81 1263.45 40.668C1263.45 39.366 1263.64 38.169 1264.02 37.077C1264.44 35.943 1265.05 34.935 1265.85 34.053C1266.69 33.129 1267.72 32.331 1268.93 31.659L1269.38 32.604L1262.07 32.667V27.69H1275.17C1275.76 27.354 1276.22 26.934 1276.56 26.43C1276.94 25.926 1277.12 25.338 1277.12 24.666C1277.12 24.078 1277 23.532 1276.75 23.028C1276.54 22.482 1276.24 21.999 1275.86 21.579L1279.33 20.823L1281.91 21.579C1282.29 22.125 1282.56 22.671 1282.73 23.217C1282.9 23.763 1282.98 24.267 1282.98 24.729C1282.98 25.401 1282.9 25.968 1282.73 26.43C1282.61 26.892 1282.42 27.312 1282.16 27.69H1294.89V32.667L1287.39 32.541L1287.83 31.785C1289.01 32.289 1290.02 32.982 1290.86 33.864C1291.74 34.704 1292.41 35.691 1292.87 36.825C1293.34 37.917 1293.57 39.156 1293.57 40.542C1293.57 42.684 1293 44.616 1291.87 46.338C1290.77 48.018 1289.09 49.341 1286.83 50.307C1284.6 51.273 1281.74 51.756 1278.26 51.756ZM1278.51 45.96C1281.66 45.96 1283.91 45.309 1285.25 44.007C1286.64 42.705 1287.33 41.13 1287.33 39.282C1287.33 37.896 1286.99 36.678 1286.32 35.628C1285.65 34.578 1284.66 33.78 1283.36 33.234C1282.06 32.646 1280.44 32.352 1278.51 32.352C1276.54 32.352 1274.88 32.646 1273.53 33.234C1272.23 33.822 1271.27 34.641 1270.64 35.691C1270.01 36.741 1269.69 37.938 1269.69 39.282C1269.69 41.298 1270.4 42.915 1271.83 44.133C1273.3 45.351 1275.53 45.96 1278.51 45.96ZM1262.07 22.02V16.287H1280.9C1283.17 16.287 1284.77 16.182 1285.69 15.972C1286.62 15.762 1287.29 15.51 1287.71 15.216C1288.25 14.796 1288.61 14.334 1288.78 13.83C1288.99 13.326 1289.09 12.759 1289.09 12.129C1289.09 10.827 1288.76 9.546 1288.09 8.286C1287.46 7.026 1286.49 5.724 1285.19 4.38L1290.1 1.293C1292.12 3.561 1293.48 5.598 1294.2 7.404C1294.91 9.21 1295.27 11.058 1295.27 12.948C1295.27 13.788 1295.1 14.817 1294.76 16.035C1294.43 17.211 1293.71 18.282 1292.62 19.248C1291.57 20.214 1290.25 20.928 1288.65 21.39C1287.1 21.81 1284.98 22.02 1282.29 22.02H1262.07ZM1328.2 51.756C1326.02 51.756 1324.15 51.357 1322.6 50.559C1321.08 49.761 1319.76 48.711 1318.63 47.409C1317.54 46.107 1316.49 44.679 1315.48 43.125C1314.55 41.571 1313.76 40.395 1313.08 39.597C1312.41 38.757 1311.78 38.19 1311.19 37.896C1310.65 37.602 1310.02 37.455 1309.3 37.455C1308 37.455 1307.01 37.854 1306.34 38.652C1305.67 39.45 1305.33 40.542 1305.33 41.928C1305.33 43.23 1305.61 44.532 1306.15 45.834C1306.7 47.094 1307.43 48.396 1308.36 49.74L1302.5 52.071C1301.53 50.727 1300.71 49.152 1300.04 47.346C1299.37 45.498 1299.03 43.713 1299.03 41.991C1299.03 39.975 1299.45 38.211 1300.29 36.699C1301.18 35.145 1302.37 33.927 1303.89 33.045C1305.4 32.163 1307.14 31.722 1309.11 31.722C1311.63 31.722 1313.69 32.31 1315.29 33.486C1316.88 34.62 1318.48 36.447 1320.08 38.967C1321 40.479 1321.86 41.76 1322.66 42.81C1323.46 43.818 1324.32 44.595 1325.24 45.141C1326.21 45.645 1327.32 45.897 1328.58 45.897C1330.56 45.897 1331.96 45.225 1332.8 43.881C1333.68 42.495 1334.13 40.773 1334.13 38.715C1334.13 36.069 1333.56 33.612 1332.42 31.344C1331.29 29.034 1329.76 27.081 1327.83 25.485C1325.89 23.847 1323.67 22.692 1321.15 22.02H1299.16V16.287H1326.06C1328.33 16.287 1329.93 16.182 1330.85 15.972C1331.77 15.762 1332.47 15.51 1332.93 15.216C1333.47 14.796 1333.83 14.334 1334 13.83C1334.17 13.326 1334.25 12.759 1334.25 12.129C1334.25 10.827 1333.94 9.546 1333.31 8.286C1332.68 7.026 1331.71 5.724 1330.41 4.38L1335.32 1.293C1337.34 3.561 1338.7 5.598 1339.42 7.404C1340.13 9.21 1340.49 11.058 1340.49 12.948C1340.49 13.788 1340.32 14.817 1339.98 16.035C1339.65 17.211 1338.93 18.282 1337.84 19.248C1336.75 20.214 1335.47 20.907 1334 21.327C1332.57 21.705 1330.72 21.936 1328.46 22.02H1326.94L1330.72 21.264C1332.82 22.608 1334.59 24.162 1336.02 25.926C1337.49 27.69 1338.6 29.622 1339.35 31.722C1340.11 33.822 1340.49 36.069 1340.49 38.463C1340.49 42.705 1339.42 45.981 1337.28 48.291C1335.18 50.601 1332.15 51.756 1328.2 51.756ZM1331.7 54.969C1333.68 54.969 1335.36 55.305 1336.74 55.977C1338.09 56.649 1339.35 57.699 1340.52 59.127C1341.66 60.597 1342.87 62.487 1344.18 64.797C1344.85 66.015 1345.44 66.96 1345.94 67.632C1346.49 68.346 1347.1 68.829 1347.77 69.081C1348.44 69.375 1349.26 69.522 1350.22 69.522C1350.56 69.522 1350.98 69.48 1351.48 69.396C1352.03 69.312 1352.41 69.228 1352.62 69.144L1353.44 73.68C1353.06 73.848 1352.53 73.995 1351.86 74.121C1351.23 74.247 1350.67 74.31 1350.16 74.31C1348.48 74.31 1347.07 74.058 1345.94 73.554C1344.81 73.05 1343.82 72.273 1342.98 71.223C1342.1 70.215 1341.22 68.913 1340.33 67.317C1339.49 65.553 1338.65 64.083 1337.81 62.907C1336.93 61.773 1336.03 60.912 1335.1 60.324C1334.18 59.736 1333.15 59.442 1332.02 59.442C1330.76 59.442 1329.79 59.736 1329.12 60.324C1328.45 60.954 1328.11 61.773 1328.11 62.781C1328.11 63.411 1328.26 64.02 1328.55 64.608C1328.85 65.238 1329.41 65.742 1330.25 66.12C1331.05 66.54 1332.19 66.75 1333.66 66.75C1336.26 66.75 1338.44 66.267 1340.21 65.301C1341.93 64.335 1343.23 63.054 1344.11 61.458C1345.04 59.862 1345.5 58.14 1345.5 56.292C1345.5 54.864 1345.31 53.499 1344.93 52.197C1344.6 50.937 1344.13 49.782 1343.55 48.732L1348.08 46.464C1348.96 47.766 1349.62 49.257 1350.04 50.937C1350.5 52.575 1350.73 54.213 1350.73 55.851C1350.73 58.497 1350.2 60.786 1349.15 62.718C1348.15 64.65 1346.78 66.246 1345.06 67.506C1343.38 68.766 1341.51 69.69 1339.45 70.278C1337.35 70.908 1335.27 71.223 1333.21 71.223C1330.78 71.223 1328.8 70.824 1327.29 70.026C1325.74 69.228 1324.63 68.178 1323.95 66.876C1323.24 65.574 1322.88 64.188 1322.88 62.718C1322.88 60.324 1323.72 58.434 1325.4 57.048C1327.04 55.662 1329.14 54.969 1331.7 54.969ZM1363.85 51.756C1360.45 51.756 1357.7 50.559 1355.6 48.165C1353.54 45.729 1352.51 42.096 1352.51 37.266C1352.51 34.788 1352.87 32.499 1353.58 30.399C1354.3 28.299 1355.37 26.451 1356.8 24.855C1358.23 23.217 1359.99 21.936 1362.09 21.012L1363.29 22.02H1352.51V16.287H1382.88C1385.15 16.287 1386.74 16.182 1387.67 15.972C1388.59 15.762 1389.28 15.51 1389.75 15.216C1390.29 14.796 1390.65 14.334 1390.82 13.83C1391.03 13.326 1391.13 12.759 1391.13 12.129C1391.13 10.827 1390.8 9.546 1390.12 8.286C1389.49 7.026 1388.53 5.724 1387.23 4.38L1392.14 1.293C1394.16 3.561 1395.52 5.598 1396.24 7.404C1396.95 9.21 1397.31 11.058 1397.31 12.948C1397.31 13.788 1397.14 14.817 1396.8 16.035C1396.47 17.253 1395.75 18.324 1394.66 19.248C1394.2 19.668 1393.65 20.046 1393.02 20.382C1392.43 20.718 1391.76 21.012 1391.01 21.264C1390.29 21.474 1389.45 21.642 1388.49 21.768L1388.68 20.76C1390.15 21.264 1391.36 22.02 1392.33 23.028C1393.3 23.994 1394.01 25.107 1394.47 26.367C1394.98 27.585 1395.23 28.866 1395.23 30.21C1395.23 30.966 1395.16 31.638 1395.04 32.226C1394.95 32.814 1394.74 33.444 1394.41 34.116C1394.32 34.284 1394.16 34.41 1393.9 34.494C1393.65 34.578 1393.46 34.725 1393.34 34.935C1392.46 36.153 1391.34 37.182 1390 38.022C1388.7 38.82 1387.08 39.219 1385.15 39.219C1383.72 39.219 1382.4 38.988 1381.18 38.526C1380 38.022 1379.04 37.266 1378.28 36.258C1377.57 35.208 1377.21 33.927 1377.21 32.415C1377.21 30.189 1377.94 28.551 1379.41 27.501C1380.93 26.409 1382.71 25.863 1384.77 25.863C1386.16 25.863 1387.31 26.031 1388.23 26.367C1389.2 26.703 1390.08 27.144 1390.88 27.69C1392.9 28.74 1394.47 30.315 1395.61 32.415C1396.74 34.473 1397.31 36.825 1397.31 39.471C1397.31 41.991 1396.76 44.175 1395.67 46.023C1394.62 47.871 1393.21 49.299 1391.45 50.307C1389.68 51.273 1387.69 51.756 1385.46 51.756C1382.52 51.756 1380.15 51.189 1378.34 50.055C1376.54 48.921 1374.88 47.052 1373.37 44.448L1375.95 44.07C1374.86 46.212 1373.68 47.829 1372.42 48.921C1371.16 50.013 1369.82 50.748 1368.39 51.126C1366.96 51.546 1365.45 51.756 1363.85 51.756ZM1364.86 45.897C1366.84 45.897 1368.37 45.246 1369.46 43.944C1370.59 42.6 1371.33 40.92 1371.67 38.904H1377.52C1377.86 41.298 1378.68 43.062 1379.98 44.196C1381.28 45.33 1382.88 45.897 1384.77 45.897C1385.95 45.897 1387.04 45.687 1388.05 45.267C1389.05 44.805 1389.87 44.07 1390.5 43.062C1391.13 42.054 1391.45 40.689 1391.45 38.967C1391.45 37.497 1391.24 36.09 1390.82 34.746C1390.4 33.36 1389.73 32.226 1388.8 31.344C1387.88 30.462 1386.7 30.021 1385.27 30.021C1384.43 30.021 1383.74 30.231 1383.19 30.651C1382.69 31.029 1382.44 31.575 1382.44 32.289C1382.44 33.171 1382.71 33.822 1383.26 34.242C1383.8 34.62 1384.56 34.809 1385.53 34.809C1386.2 34.809 1386.87 34.662 1387.54 34.368C1388.21 34.074 1388.78 33.591 1389.24 32.919C1389.7 32.247 1389.94 31.323 1389.94 30.147C1389.94 28.971 1389.62 27.9 1388.99 26.934C1388.4 25.926 1387.52 25.044 1386.34 24.288C1385.21 23.532 1383.8 22.965 1382.12 22.587C1380.49 22.167 1378.6 21.957 1376.45 21.957H1374.37C1371.85 21.957 1369.63 22.335 1367.7 23.091C1365.81 23.805 1364.19 24.834 1362.85 26.178C1361.54 27.522 1360.56 29.139 1359.88 31.029C1359.21 32.877 1358.88 34.914 1358.88 37.14C1358.88 40.29 1359.4 42.537 1360.45 43.881C1361.5 45.225 1362.97 45.897 1364.86 45.897ZM1414.13 51.756C1411.65 51.756 1409.47 51.294 1407.58 50.37C1405.69 49.404 1404.2 48.081 1403.11 46.401C1402.06 44.679 1401.53 42.663 1401.53 40.353C1401.53 38.421 1401.93 36.72 1402.73 35.25C1403.57 33.738 1404.72 32.541 1406.19 31.659C1407.71 30.777 1409.49 30.336 1411.55 30.336C1414.03 30.336 1415.96 30.903 1417.35 32.037C1418.73 33.129 1419.42 34.62 1419.42 36.51C1419.42 37.182 1419.34 37.854 1419.17 38.526C1419 39.198 1418.79 39.765 1418.54 40.227L1413.63 39.849C1413.71 39.597 1413.8 39.303 1413.88 38.967C1413.96 38.589 1414.01 38.274 1414.01 38.022C1414.01 37.182 1413.78 36.552 1413.31 36.132C1412.85 35.67 1412.2 35.439 1411.36 35.439C1410.18 35.439 1409.2 35.838 1408.4 36.636C1407.64 37.434 1407.27 38.589 1407.27 40.101C1407.27 41.823 1407.9 43.23 1409.16 44.322C1410.42 45.372 1412.35 45.897 1414.95 45.897C1417.72 45.897 1419.76 45.204 1421.06 43.818C1422.36 42.39 1423.12 40.542 1423.33 38.274H1429.13C1429.34 40.92 1430.11 42.852 1431.46 44.07C1432.8 45.288 1434.4 45.897 1436.25 45.897C1438.39 45.897 1439.88 45.204 1440.72 43.818C1441.6 42.39 1442.04 40.668 1442.04 38.652C1442.04 36.51 1441.66 34.515 1440.91 32.667C1440.15 30.777 1439.12 29.097 1437.82 27.627C1436.56 26.115 1435.11 24.876 1433.47 23.91C1431.88 22.944 1430.24 22.272 1428.56 21.894L1438.64 21.39C1440.74 22.734 1442.5 24.267 1443.93 25.989C1445.4 27.711 1446.51 29.622 1447.27 31.722C1448.03 33.822 1448.4 36.069 1448.4 38.463C1448.4 41.571 1447.88 44.112 1446.83 46.086C1445.78 48.018 1444.37 49.446 1442.61 50.37C1440.89 51.294 1439.04 51.756 1437.06 51.756C1434.92 51.756 1433.14 51.483 1431.71 50.937C1430.32 50.391 1429.11 49.593 1428.06 48.543C1427.05 47.451 1426.06 46.128 1425.09 44.574L1427.61 44.448C1426.4 46.38 1425.14 47.871 1423.83 48.921C1422.53 49.971 1421.08 50.706 1419.49 51.126C1417.93 51.546 1416.15 51.756 1414.13 51.756ZM1401.53 22.02V16.287H1441.16V22.02H1401.53ZM1477.79 35.691C1477.79 39.093 1477.22 41.991 1476.09 44.385C1475 46.779 1473.4 48.606 1471.3 49.866C1469.24 51.126 1466.75 51.756 1463.81 51.756C1461.33 51.756 1459.23 51.315 1457.51 50.433C1455.78 49.509 1454.48 48.27 1453.6 46.716C1452.76 45.12 1452.34 43.314 1452.34 41.298C1452.34 39.492 1452.65 37.959 1453.28 36.699C1453.91 35.439 1454.8 34.494 1455.93 33.864C1457.06 33.192 1458.32 32.856 1459.71 32.856C1461.39 32.856 1462.67 33.276 1463.55 34.116C1464.44 34.914 1464.88 35.985 1464.88 37.329C1464.88 38.547 1464.54 39.534 1463.87 40.29C1463.2 41.004 1462.31 41.361 1461.22 41.361C1460.21 41.361 1459.37 41.088 1458.7 40.542C1458.03 39.996 1457.63 39.156 1457.51 38.022L1458.14 37.77C1457.93 38.274 1457.78 38.757 1457.69 39.219C1457.61 39.681 1457.57 40.206 1457.57 40.794C1457.57 42.138 1458.01 43.398 1458.89 44.574C1459.77 45.708 1461.33 46.275 1463.55 46.275C1465.19 46.275 1466.6 45.876 1467.77 45.078C1468.95 44.28 1469.85 43.104 1470.48 41.55C1471.11 39.996 1471.43 38.043 1471.43 35.691C1471.43 33.465 1471.13 31.533 1470.55 29.895C1470 28.257 1469.14 26.871 1467.96 25.737C1467.17 24.897 1466.24 24.204 1465.19 23.658C1464.18 23.112 1462.86 22.713 1461.22 22.461C1459.63 22.167 1457.57 22.02 1455.05 22.02H1435.2V16.287H1456.37C1459.31 16.287 1461.81 16.497 1463.87 16.917C1465.97 17.295 1467.75 17.925 1469.22 18.807C1470.74 19.647 1472.06 20.676 1473.19 21.894C1474.7 23.49 1475.84 25.443 1476.59 27.753C1477.39 30.063 1477.79 32.709 1477.79 35.691ZM1501.28 22.02C1499.47 22.02 1497.96 22.44 1496.74 23.28C1495.52 24.078 1494.5 25.17 1493.66 26.556C1492.86 27.9 1492.19 29.454 1491.64 31.218C1491.35 32.226 1491.09 33.381 1490.88 34.683C1490.67 35.943 1490.51 37.392 1490.38 39.03C1490.3 40.626 1490.25 42.474 1490.25 44.574V51H1483.39V43.44C1483.39 40.332 1483.58 37.455 1483.95 34.809C1484.37 32.121 1485.05 29.685 1485.97 27.501C1486.94 25.317 1488.24 23.448 1489.88 21.894L1489.56 24.099C1488.59 23.175 1487.73 22.167 1486.98 21.075C1486.26 19.941 1485.7 18.765 1485.28 17.547C1484.9 16.329 1484.71 15.153 1484.71 14.019C1484.71 11.499 1485.28 9.504 1486.41 8.034C1487.59 6.564 1489.1 5.493 1490.95 4.821C1492.84 4.149 1494.83 3.813 1496.93 3.813C1500.33 3.813 1503.25 4.422 1505.69 5.64C1508.12 6.816 1510.22 8.454 1511.99 10.554C1513.88 12.654 1515.33 15.09 1516.34 17.862C1517.34 20.592 1518.04 23.784 1518.41 27.438C1518.83 31.092 1519.04 35.376 1519.04 40.29V51H1512.11V44.637C1512.11 42.411 1512.05 40.437 1511.93 38.715C1511.84 36.993 1511.67 35.46 1511.42 34.116C1511.21 32.73 1510.92 31.512 1510.54 30.462C1509.57 27.816 1508.36 25.758 1506.89 24.288C1505.46 22.776 1503.59 22.02 1501.28 22.02ZM1501.15 16.224C1503.84 16.224 1506.11 16.938 1507.96 18.366C1509.85 19.794 1511.55 22.062 1513.06 25.17H1513.31C1512.56 22.23 1511.48 19.584 1510.1 17.232C1508.75 14.88 1507.05 13.032 1505 11.688C1502.94 10.302 1500.46 9.609 1497.56 9.609C1495.17 9.609 1493.42 10.071 1492.33 10.995C1491.28 11.919 1490.76 13.116 1490.76 14.586C1490.76 15.72 1491.03 16.77 1491.58 17.736C1492.16 18.66 1492.94 19.5 1493.91 20.256L1491.64 20.193C1492.9 18.975 1494.33 18.009 1495.92 17.295C1497.56 16.581 1499.3 16.224 1501.15 16.224ZM1543.05 51.756C1539.48 51.756 1536.31 51.126 1533.54 49.866C1530.77 48.564 1528.58 46.674 1526.99 44.196C1525.43 41.718 1524.66 38.694 1524.66 35.124C1524.66 32.856 1524.97 30.84 1525.6 29.076C1526.27 27.27 1527.2 25.695 1528.37 24.351C1529.59 23.007 1531.08 21.873 1532.85 20.949L1534.04 22.02H1524.66V16.287H1546.96C1549.23 16.287 1550.82 16.182 1551.75 15.972C1552.67 15.762 1553.36 15.51 1553.82 15.216C1554.37 14.796 1554.73 14.334 1554.9 13.83C1555.11 13.326 1555.21 12.759 1555.21 12.129C1555.21 10.827 1554.87 9.546 1554.2 8.286C1553.57 7.026 1552.61 5.724 1551.3 4.38L1556.28 1.293C1558.3 3.561 1559.66 5.598 1560.38 7.404C1561.09 9.21 1561.45 11.058 1561.45 12.948C1561.45 13.83 1561.26 14.859 1560.88 16.035C1560.54 17.169 1559.87 18.198 1558.86 19.122C1558.32 19.71 1557.65 20.214 1556.85 20.634C1556.05 21.054 1555.08 21.369 1553.95 21.579L1554.14 21.012C1555.74 22.02 1557.06 23.196 1558.11 24.54C1559.2 25.842 1560.02 27.375 1560.57 29.139C1561.15 30.861 1561.45 32.856 1561.45 35.124C1561.45 38.442 1560.71 41.34 1559.24 43.818C1557.77 46.296 1555.67 48.249 1552.94 49.677C1550.21 51.063 1546.92 51.756 1543.05 51.756ZM1543.11 45.771C1545.8 45.771 1548.03 45.246 1549.79 44.196C1551.56 43.104 1552.88 41.655 1553.76 39.849C1554.64 38.043 1555.08 36.048 1555.08 33.864C1555.08 31.344 1554.56 29.202 1553.51 27.438C1552.5 25.674 1551.09 24.33 1549.29 23.406C1547.52 22.44 1545.49 21.957 1543.18 21.957C1540.66 21.957 1538.49 22.461 1536.69 23.469C1534.88 24.477 1533.48 25.884 1532.47 27.69C1531.5 29.454 1531.02 31.512 1531.02 33.864C1531.02 37.644 1532.11 40.584 1534.29 42.684C1536.52 44.742 1539.46 45.771 1543.11 45.771ZM1570.71 51.756C1567.48 51.756 1564.65 50.958 1562.21 49.362C1559.73 47.766 1557.46 45.729 1555.41 43.251L1559.25 39.093C1560.89 41.235 1562.57 42.915 1564.29 44.133C1566.01 45.309 1568.05 45.897 1570.4 45.897C1572.88 45.897 1574.79 45.141 1576.13 43.629C1577.48 42.075 1578.15 39.996 1578.15 37.392C1578.15 34.662 1577.64 32.268 1576.64 30.21C1575.63 28.152 1574.24 26.388 1572.48 24.918C1570.71 23.406 1568.68 22.146 1566.37 21.138L1569.71 15.405C1572.56 16.791 1575.1 18.513 1577.33 20.571C1579.56 22.629 1581.3 25.044 1582.56 27.816C1583.86 30.588 1584.51 33.717 1584.51 37.203C1584.51 40.017 1584.01 42.537 1583 44.763C1582.03 46.947 1580.52 48.669 1578.46 49.929C1576.41 51.147 1573.82 51.756 1570.71 51.756ZM1591.08 47.157C1591.08 45.519 1591.5 44.364 1592.34 43.692C1593.18 42.978 1594.19 42.621 1595.36 42.621C1596.58 42.621 1597.61 42.978 1598.45 43.692C1599.29 44.364 1599.71 45.519 1599.71 47.157C1599.71 48.795 1599.29 49.971 1598.45 50.685C1597.61 51.399 1596.58 51.756 1595.36 51.756C1594.19 51.756 1593.18 51.399 1592.34 50.685C1591.5 49.971 1591.08 48.795 1591.08 47.157Z" fill="black"/>
</svg>
