<svg width="1531" height="80" viewBox="0 0 1531 80" fill="none" xmlns="http://www.w3.org/2000/svg">
<path d="M21.57 43.835C21.0933 45.8283 20.3783 47.5833 19.425 49.1C18.515 50.5733 17.3233 51.7217 15.85 52.545C14.42 53.3683 12.6433 53.78 10.52 53.78C8.22333 53.78 6.295 53.2383 4.735 52.155C3.175 51.0283 2.005 49.5767 1.225 47.8C0.445 45.98 0.0550001 44.0083 0.0550001 41.885C0.0550001 39.9783 0.401667 38.2667 1.095 36.75C1.78833 35.19 2.76333 33.955 4.02 33.045C5.32 32.135 6.88 31.68 8.7 31.68C10.78 31.68 12.3833 32.2433 13.51 33.37C14.6367 34.4533 15.2 35.8617 15.2 37.595C15.2 39.285 14.6583 40.6067 13.575 41.56C12.4917 42.5133 10.9967 43.12 9.09 43.38L8.505 40.91C9.19833 40.78 9.74 40.52 10.13 40.13C10.52 39.74 10.715 39.1983 10.715 38.505C10.715 37.7683 10.4767 37.1833 10 36.75C9.52333 36.2733 8.78667 36.035 7.79 36.035C6.44667 36.035 5.36333 36.4683 4.54 37.335C3.76 38.2017 3.37 39.35 3.37 40.78C3.37 42.08 3.65167 43.185 4.215 44.095C4.82167 44.9617 5.68833 45.6117 6.815 46.045C7.985 46.4783 9.415 46.695 11.105 46.695C12.3183 46.695 13.4017 46.5433 14.355 46.24C15.3517 45.9367 16.2183 45.4817 16.955 44.875C17.6917 44.2683 18.32 43.5317 18.84 42.665C19.4033 41.755 19.8583 40.715 20.205 39.545H22.61C22.9567 41.0617 23.52 42.3617 24.3 43.445C25.08 44.485 26.055 45.2867 27.225 45.85C28.395 46.37 29.7383 46.63 31.255 46.63C32.7283 46.63 33.9633 46.3267 34.96 45.72C36 45.07 36.78 44.16 37.3 42.99C37.82 41.82 38.08 40.4767 38.08 38.96C38.08 35.4933 37.2567 32.59 35.61 30.25C34.0067 27.91 31.71 26.155 28.72 24.985C25.73 23.7717 22.22 23.165 18.19 23.165C16.89 23.165 15.5467 23.23 14.16 23.36C12.8167 23.49 11.4083 23.7067 9.935 24.01C9.63167 23.4467 9.43667 22.9267 9.35 22.45C9.26333 21.9733 9.22 21.5617 9.22 21.215C9.22 19.6117 9.805 18.4417 10.975 17.705C12.1883 16.925 13.9 16.535 16.11 16.535C19.4033 16.535 22.4367 17.0333 25.21 18.03C27.9833 18.9833 30.4533 20.305 32.62 21.995C34.83 23.6417 36.715 25.5267 38.275 27.65C39.835 29.7733 41.0267 32.005 41.85 34.345C42.6733 36.6417 43.085 38.9167 43.085 41.17C43.085 43.7267 42.63 45.9583 41.72 47.865C40.8533 49.7283 39.5967 51.18 37.95 52.22C36.3467 53.26 34.4617 53.78 32.295 53.78C30.3883 53.78 28.655 53.3683 27.095 52.545C25.535 51.7217 24.235 50.5733 23.195 49.1C22.1983 47.6267 21.505 45.8717 21.115 43.835H21.57ZM70.4332 53.715C66.0999 53.715 62.3949 52.9567 59.3182 51.44C56.2416 49.9233 53.9016 47.67 52.2982 44.68C50.6949 41.69 49.8932 38.05 49.8932 33.76C49.8932 30.25 50.4782 27.2167 51.6482 24.66C52.8616 22.06 54.4649 20.045 56.4582 18.615C58.4949 17.185 60.7482 16.47 63.2182 16.47C65.1249 16.47 66.6632 16.9033 67.8332 17.77C69.0032 18.6367 69.8482 19.785 70.3682 21.215C70.9316 22.6017 71.2132 24.14 71.2132 25.83C71.2132 28.56 70.5849 30.77 69.3282 32.46C68.1149 34.1067 66.2732 34.93 63.8032 34.93C61.4199 34.93 59.5782 34.1717 58.2782 32.655C56.9782 31.095 56.3282 28.9283 56.3282 26.155C56.3282 25.4183 56.3932 24.7467 56.5232 24.14C56.6532 23.49 56.8049 22.9917 56.9782 22.645L57.3682 23.165C56.0249 24.335 54.9849 25.7217 54.2482 27.325C53.5116 28.9283 53.1432 30.8567 53.1432 33.11C53.1432 35.71 53.7499 38.0067 54.9632 40C56.1766 41.9933 58.0616 43.5533 60.6182 44.68C63.1749 45.8067 66.3599 46.37 70.1732 46.37C74.1599 46.37 77.4099 45.85 79.9232 44.81C82.4799 43.77 84.3866 42.3617 85.6432 40.585C86.8999 38.765 87.5282 36.685 87.5282 34.345C87.5282 31.9183 86.8349 29.73 85.4482 27.78C84.0616 25.7867 81.7866 24.3783 78.6232 23.555L81.6782 18.29C83.3682 19.07 84.9066 20.175 86.2932 21.605C87.6799 22.9917 88.7632 24.725 89.5432 26.805C90.3666 28.885 90.7782 31.355 90.7782 34.215C90.7782 38.2883 90.0199 41.7983 88.5032 44.745C87.0299 47.6483 84.7766 49.88 81.7432 51.44C78.7532 52.9567 74.9832 53.715 70.4332 53.715ZM63.6732 29.405C65.2766 29.405 66.4249 29.0583 67.1182 28.365C67.8116 27.6283 68.1582 26.74 68.1582 25.7C68.1582 24.79 67.7899 23.9667 67.0532 23.23C66.3599 22.45 65.2549 22.06 63.7382 22.06C62.2216 22.06 61.0732 22.4067 60.2932 23.1C59.5566 23.7933 59.1882 24.66 59.1882 25.7C59.1882 26.8267 59.5566 27.7367 60.2932 28.43C61.0732 29.08 62.1999 29.405 63.6732 29.405ZM78.4282 23.555L78.9482 17.185H87.5282V23.555H78.4282ZM104.583 53.715C102.416 53.715 100.553 53.2817 98.9926 52.415C97.4326 51.5483 96.241 50.3567 95.4176 48.84C94.5943 47.3233 94.1826 45.5683 94.1826 43.575C94.1826 41.6683 94.5293 40.0217 95.2226 38.635C95.9593 37.2483 96.9343 36.1867 98.1476 35.45C99.361 34.67 100.661 34.28 102.048 34.28C103.521 34.28 104.648 34.6917 105.428 35.515C106.208 36.3383 106.598 37.3783 106.598 38.635C106.598 39.7183 106.273 40.6283 105.623 41.365C105.016 42.1017 104.063 42.47 102.763 42.47C101.679 42.47 100.791 42.1883 100.098 41.625C99.4476 41.0183 99.1226 40.1083 99.1226 38.895C99.1226 38.5917 99.1226 38.3317 99.1226 38.115C99.1226 37.855 99.1443 37.5733 99.1876 37.27L100.033 38.31C99.2093 38.6567 98.5376 39.2633 98.0176 40.13C97.541 40.9533 97.3026 41.9067 97.3026 42.99C97.3026 44.5933 97.8876 45.8717 99.0576 46.825C100.271 47.735 101.939 48.19 104.063 48.19C105.926 48.19 107.551 47.7567 108.938 46.89C110.324 45.98 111.386 44.68 112.123 42.99C112.859 41.3 113.228 39.2633 113.228 36.88C113.228 32.1567 111.798 28.755 108.938 26.675C106.121 24.595 101.918 23.555 96.3276 23.555H78.7776L79.2326 17.185H96.5226C103.326 17.185 108.353 18.81 111.603 22.06C114.896 25.2667 116.543 30.2283 116.543 36.945C116.543 40.1517 116.109 43.0333 115.243 45.59C114.376 48.1033 113.054 50.0967 111.278 51.57C109.501 53 107.269 53.715 104.583 53.715ZM105.202 77.44C103.859 77.44 102.71 76.9417 101.757 75.945C100.804 74.9917 100.089 73.735 99.6121 72.175C99.0921 70.615 98.8321 68.9683 98.8321 67.235C98.8321 65.155 99.1355 63.3133 99.7421 61.71C100.305 60.15 101.172 58.915 102.342 58.005C103.512 57.1383 104.92 56.705 106.567 56.705C108.56 56.705 110.207 57.355 111.507 58.655C112.807 59.955 113.717 61.7533 114.237 64.05H113.587C114.064 61.7533 114.952 59.955 116.252 58.655C117.552 57.355 119.199 56.705 121.192 56.705C122.882 56.705 124.29 57.1383 125.417 58.005C126.587 58.915 127.475 60.15 128.082 61.71C128.689 63.3133 128.992 65.155 128.992 67.235C128.992 68.9683 128.732 70.615 128.212 72.175C127.735 73.735 127.02 74.9917 126.067 75.945C125.114 76.9417 123.965 77.44 122.622 77.44C121.712 77.44 121.04 77.1367 120.607 76.53C120.174 75.9667 119.957 75.1433 119.957 74.06C121.864 73.4967 123.337 72.695 124.377 71.655C125.46 70.615 126.002 69.2933 126.002 67.69C126.002 66.0433 125.525 64.8083 124.572 63.985C123.619 63.1617 122.405 62.75 120.932 62.75C119.415 62.75 118.18 63.0967 117.227 63.79C116.23 64.4833 115.515 65.6317 115.082 67.235H112.742C112.265 65.6317 111.55 64.4833 110.597 63.79C109.644 63.0967 108.409 62.75 106.892 62.75C105.462 62.75 104.27 63.1617 103.317 63.985C102.32 64.8083 101.822 66.0433 101.822 67.69C101.822 69.2933 102.364 70.615 103.447 71.655C104.487 72.695 105.939 73.4967 107.802 74.06C107.802 75.1433 107.607 75.9667 107.217 76.53C106.784 77.1367 106.112 77.44 105.202 77.44ZM134.257 53.715C131.7 53.715 129.599 53.0867 127.952 51.83C126.349 50.5733 125.157 48.9483 124.377 46.955C123.64 44.9617 123.272 42.8817 123.272 40.715C123.272 37.985 123.727 35.4717 124.637 33.175C125.59 30.835 126.934 28.82 128.667 27.13C130.4 25.3967 132.394 24.0533 134.647 23.1L135.102 23.555H123.467L123.987 17.185H152.587C154.624 17.185 156.162 17.0767 157.202 16.86C158.242 16.6 159.087 16.1883 159.737 15.625C160.647 14.845 161.102 13.6533 161.102 12.05C161.102 10.7933 160.799 9.55833 160.192 8.345C159.629 7.08833 158.762 5.83166 157.592 4.575L160.127 2.69C161.687 4.33666 162.879 6.11333 163.702 8.02C164.525 9.88333 164.937 11.8117 164.937 13.805C164.937 15.1483 164.764 16.4267 164.417 17.64C164.07 18.81 163.399 19.85 162.402 20.76C161.795 21.3233 161.08 21.8217 160.257 22.255C159.434 22.6883 158.372 23.0133 157.072 23.23C155.815 23.4467 154.19 23.555 152.197 23.555H151.352L153.562 23.1C155.859 24.0533 157.852 25.3967 159.542 27.13C161.275 28.82 162.597 30.8133 163.507 33.11C164.46 35.4067 164.937 37.9417 164.937 40.715C164.937 42.145 164.742 43.6183 164.352 45.135C164.005 46.6083 163.399 48.0167 162.532 49.36C161.709 50.66 160.604 51.7217 159.217 52.545C157.83 53.325 156.097 53.715 154.017 53.715C152.067 53.715 150.42 53.3033 149.077 52.48C147.734 51.6567 146.629 50.4867 145.762 48.97C144.939 47.4533 144.289 45.6767 143.812 43.64L144.332 43.705C144.029 45.655 143.444 47.3883 142.577 48.905C141.71 50.4217 140.562 51.6133 139.132 52.48C137.745 53.3033 136.12 53.715 134.257 53.715ZM134.842 46.5C136.532 46.5 137.897 46.2183 138.937 45.655C139.977 45.0483 140.8 44.225 141.407 43.185C142.014 42.145 142.512 40.9533 142.902 39.61H145.307C145.784 41.04 146.325 42.275 146.932 43.315C147.582 44.355 148.427 45.1567 149.467 45.72C150.507 46.24 151.829 46.5 153.432 46.5C154.949 46.5 156.162 46.175 157.072 45.525C158.025 44.8317 158.719 43.8783 159.152 42.665C159.629 41.4517 159.867 40.0433 159.867 38.44C159.867 35.7533 159.239 33.2833 157.982 31.03C156.769 28.7333 154.992 26.9133 152.652 25.57C150.355 24.1833 147.56 23.49 144.267 23.49H144.007C140.714 23.49 137.897 24.1833 135.557 25.57C133.217 26.9133 131.419 28.7333 130.162 31.03C128.949 33.2833 128.342 35.7533 128.342 38.44C128.342 40.1733 128.58 41.6467 129.057 42.86C129.577 44.03 130.314 44.94 131.267 45.59C132.264 46.1967 133.455 46.5 134.842 46.5ZM188.992 53.715C185.438 53.715 182.383 53.0217 179.827 51.635C177.27 50.2483 175.298 48.3417 173.912 45.915C172.525 43.4883 171.832 40.715 171.832 37.595C171.832 34.1283 172.655 31.16 174.302 28.69C175.948 26.22 178.202 24.3133 181.062 22.97L181.192 23.555H172.092L172.612 17.185H193.802C195.795 17.185 197.312 17.0767 198.352 16.86C199.392 16.6 200.215 16.1883 200.822 15.625C201.775 14.8883 202.252 13.6967 202.252 12.05C202.252 10.7933 201.948 9.55833 201.342 8.345C200.778 7.08833 199.912 5.83166 198.742 4.575L201.277 2.69C202.793 4.33666 203.963 6.11333 204.787 8.02C205.61 9.88333 206.022 11.8117 206.022 13.805C206.022 15.1483 205.848 16.4267 205.502 17.64C205.155 18.81 204.483 19.85 203.487 20.76C202.88 21.3233 202.165 21.8217 201.342 22.255C200.562 22.6883 199.543 23.0133 198.287 23.23C197.03 23.4467 195.405 23.555 193.412 23.555H192.567L196.597 22.84C199.5 24.1833 201.775 26.1333 203.422 28.69C205.068 31.2033 205.892 34.1717 205.892 37.595C205.892 40.5417 205.22 43.25 203.877 45.72C202.533 48.1467 200.605 50.0967 198.092 51.57C195.578 53 192.545 53.715 188.992 53.715ZM188.927 46.5C191.57 46.5 193.78 46.0017 195.557 45.005C197.377 43.965 198.72 42.5783 199.587 40.845C200.497 39.1117 200.952 37.1833 200.952 35.06C200.952 32.8933 200.432 30.9433 199.392 29.21C198.395 27.4333 196.987 26.025 195.167 24.985C193.39 23.945 191.31 23.425 188.927 23.425C186.587 23.425 184.507 23.9667 182.687 25.05C180.867 26.09 179.437 27.4983 178.397 29.275C177.357 31.0083 176.837 32.9367 176.837 35.06C176.837 37.14 177.292 39.0467 178.202 40.78C179.155 42.5133 180.52 43.9 182.297 44.94C184.073 45.98 186.283 46.5 188.927 46.5ZM216.736 53.715C215.003 53.715 213.313 53.195 211.666 52.155C210.063 51.115 208.546 49.5983 207.116 47.605C205.686 45.6117 204.299 43.185 202.956 40.325L204.321 39.35C206.184 41.9067 208.048 43.77 209.911 44.94C211.818 46.0667 213.638 46.63 215.371 46.63C217.104 46.63 218.361 46.1317 219.141 45.135C219.921 44.1383 220.311 42.6433 220.311 40.65C220.311 39.48 220.289 38.18 220.246 36.75C220.203 35.32 220.181 33.8683 220.181 32.395C220.181 29.1883 220.766 26.3933 221.936 24.01C223.149 21.6267 224.861 19.785 227.071 18.485C229.281 17.1417 231.859 16.47 234.806 16.47C237.363 16.47 239.616 16.9683 241.566 17.965C243.516 18.9183 245.141 20.2833 246.441 22.06C247.784 23.8367 248.781 25.96 249.431 28.43C250.124 30.9 250.471 33.6083 250.471 36.555C250.471 39.7617 250.016 42.665 249.106 45.265C248.239 47.865 246.918 49.9233 245.141 51.44C243.364 52.9567 241.133 53.715 238.446 53.715C236.279 53.715 234.416 53.2817 232.856 52.415C231.296 51.5483 230.104 50.335 229.281 48.775C228.458 47.215 228.046 45.4383 228.046 43.445C228.046 41.5383 228.393 39.9133 229.086 38.57C229.823 37.1833 230.776 36.1217 231.946 35.385C233.159 34.6483 234.459 34.28 235.846 34.28C237.406 34.28 238.554 34.6917 239.291 35.515C240.071 36.295 240.461 37.335 240.461 38.635C240.461 39.7617 240.136 40.6933 239.486 41.43C238.836 42.1233 237.904 42.47 236.691 42.47C235.608 42.47 234.719 42.145 234.026 41.495C233.333 40.845 232.986 39.9567 232.986 38.83C232.986 38.5267 232.986 38.2667 232.986 38.05C232.986 37.8333 233.008 37.5733 233.051 37.27L233.896 38.31C233.116 38.7 232.466 39.3067 231.946 40.13C231.426 40.91 231.166 41.8633 231.166 42.99C231.166 44.5933 231.751 45.8717 232.921 46.825C234.091 47.735 235.759 48.19 237.926 48.19C240.786 48.19 243.039 47.1717 244.686 45.135C246.333 43.0983 247.156 40.3033 247.156 36.75C247.156 33.89 246.701 31.4633 245.791 29.47C244.881 27.4767 243.538 25.96 241.761 24.92C240.028 23.8367 237.861 23.295 235.261 23.295C231.448 23.295 228.523 24.3783 226.486 26.545C224.449 28.7117 223.431 31.6583 223.431 35.385C223.431 36.685 223.453 38.1367 223.496 39.74C223.539 41.3 223.561 42.9467 223.561 44.68C223.561 47.54 223.019 49.7717 221.936 51.375C220.853 52.935 219.119 53.715 216.736 53.715ZM310.788 56.64C310.788 58.5467 310.376 60.0417 309.553 61.125C308.729 62.2083 307.646 62.75 306.303 62.75C305.046 62.75 304.049 62.3383 303.313 61.515C302.619 60.735 302.273 59.76 302.273 58.59C303.486 58.07 304.396 57.355 305.002 56.445C305.653 55.535 305.978 54.3433 305.978 52.87C305.978 51.1367 305.588 49.4467 304.808 47.8C304.028 46.1533 302.923 44.6583 301.493 43.315C300.106 41.9717 298.459 40.91 296.553 40.13C294.646 39.3067 292.566 38.895 290.313 38.895C288.146 38.895 286.478 39.2633 285.308 40C284.181 40.6933 283.618 41.6467 283.618 42.86C283.618 43.64 283.856 44.3333 284.333 44.94C284.853 45.5467 285.611 46.0233 286.608 46.37C287.604 46.6733 288.861 46.825 290.378 46.825C292.718 46.825 294.884 46.4567 296.878 45.72C298.914 44.9833 300.669 43.965 302.143 42.665C303.659 41.3217 304.829 39.7617 305.653 37.985C306.476 36.165 306.888 34.215 306.888 32.135C306.888 30.3583 306.606 28.7983 306.043 27.455C305.479 26.1117 304.634 25.0717 303.507 24.335C302.424 23.5983 301.038 23.23 299.348 23.23C297.311 23.23 295.686 23.815 294.473 24.985C293.259 26.1117 292.631 27.65 292.588 29.6H289.208C289.208 28.3 288.926 27.1733 288.363 26.22C287.843 25.2667 287.063 24.53 286.023 24.01C285.026 23.49 283.791 23.23 282.318 23.23C280.238 23.23 278.634 23.7067 277.508 24.66C276.381 25.6133 275.818 26.805 275.818 28.235C275.818 29.145 275.991 29.9683 276.338 30.705C276.684 31.3983 277.183 32.1133 277.833 32.85L275.948 34.41C274.691 33.2833 273.716 32.005 273.023 30.575C272.329 29.145 271.983 27.4983 271.983 25.635C271.983 23.8583 272.394 22.2767 273.218 20.89C274.041 19.5033 275.189 18.42 276.663 17.64C278.136 16.8167 279.804 16.405 281.668 16.405C283.531 16.405 285.134 16.795 286.478 17.575C287.864 18.3117 288.969 19.33 289.793 20.63C290.616 21.8867 291.179 23.3383 291.483 24.985H290.508C290.681 23.2083 291.158 21.6917 291.938 20.435C292.761 19.135 293.823 18.1383 295.123 17.445C296.466 16.7517 297.961 16.405 299.608 16.405C302.078 16.405 304.093 17.0767 305.653 18.42C307.256 19.72 308.426 21.475 309.163 23.685C309.899 25.895 310.268 28.3433 310.268 31.03C310.268 34.28 309.748 37.2917 308.708 40.065C307.668 42.795 306.238 45.2 304.418 47.28C302.641 49.3167 300.583 50.92 298.243 52.09C295.903 53.2167 293.389 53.78 290.703 53.78C288.363 53.78 286.326 53.3683 284.593 52.545C282.859 51.7217 281.516 50.6167 280.563 49.23C279.653 47.8433 279.198 46.2833 279.198 44.55C279.198 41.9933 280.194 39.8917 282.188 38.245C284.181 36.555 286.846 35.71 290.183 35.71C293.259 35.71 296.054 36.3817 298.568 37.725C301.081 39.025 303.248 40.7367 305.068 42.86C306.888 44.9833 308.296 47.2583 309.293 49.685C310.289 52.1117 310.788 54.43 310.788 56.64ZM335.242 53.715C331.688 53.715 328.633 53.0217 326.077 51.635C323.52 50.2483 321.548 48.3417 320.162 45.915C318.775 43.4883 318.082 40.715 318.082 37.595C318.082 34.1283 318.905 31.16 320.552 28.69C322.198 26.22 324.452 24.3133 327.312 22.97L327.442 23.555H318.342L318.862 17.185H340.052C342.045 17.185 343.562 17.0767 344.602 16.86C345.642 16.6 346.465 16.1883 347.072 15.625C348.025 14.8883 348.502 13.6967 348.502 12.05C348.502 10.7933 348.198 9.55833 347.592 8.345C347.028 7.08833 346.162 5.83166 344.992 4.575L347.527 2.69C349.043 4.33666 350.213 6.11333 351.037 8.02C351.86 9.88333 352.272 11.8117 352.272 13.805C352.272 15.1483 352.098 16.4267 351.752 17.64C351.405 18.81 350.733 19.85 349.737 20.76C349.13 21.3233 348.415 21.8217 347.592 22.255C346.812 22.6883 345.793 23.0133 344.537 23.23C343.28 23.4467 341.655 23.555 339.662 23.555H338.817L342.847 22.84C345.75 24.1833 348.025 26.1333 349.672 28.69C351.318 31.2033 352.142 34.1717 352.142 37.595C352.142 40.5417 351.47 43.25 350.127 45.72C348.783 48.1467 346.855 50.0967 344.342 51.57C341.828 53 338.795 53.715 335.242 53.715ZM335.177 46.5C337.82 46.5 340.03 46.0017 341.807 45.005C343.627 43.965 344.97 42.5783 345.837 40.845C346.747 39.1117 347.202 37.1833 347.202 35.06C347.202 32.8933 346.682 30.9433 345.642 29.21C344.645 27.4333 343.237 26.025 341.417 24.985C339.64 23.945 337.56 23.425 335.177 23.425C332.837 23.425 330.757 23.9667 328.937 25.05C327.117 26.09 325.687 27.4983 324.647 29.275C323.607 31.0083 323.087 32.9367 323.087 35.06C323.087 37.14 323.542 39.0467 324.452 40.78C325.405 42.5133 326.77 43.9 328.547 44.94C330.323 45.98 332.533 46.5 335.177 46.5ZM362.738 53.715C360.528 53.715 358.6 53.1733 356.953 52.09C355.307 50.9633 353.812 49.4033 352.468 47.41C351.125 45.4167 349.825 43.0767 348.568 40.39L349.998 39.48C350.952 40.7367 351.992 41.9067 353.118 42.99C354.245 44.0733 355.545 44.94 357.018 45.59C358.492 46.24 360.247 46.565 362.283 46.565C364.277 46.565 365.88 46.175 367.093 45.395C368.35 44.615 369.26 43.575 369.823 42.275C370.43 40.975 370.733 39.5667 370.733 38.05C370.733 34.4967 369.672 31.745 367.548 29.795C365.468 27.8017 362.608 26.22 358.968 25.05C358.838 24.7467 358.73 24.3567 358.643 23.88C358.557 23.4033 358.513 22.905 358.513 22.385C358.513 21.475 358.708 20.6733 359.098 19.98C359.488 19.2433 360.095 18.875 360.918 18.875C362.045 18.875 363.345 19.395 364.818 20.435C366.292 21.4317 367.722 22.84 369.108 24.66C370.538 26.4367 371.708 28.5167 372.618 30.9C373.572 33.2833 374.048 35.8617 374.048 38.635C374.048 41.4083 373.637 43.9433 372.813 46.24C372.033 48.5367 370.798 50.3567 369.108 51.7C367.462 53.0433 365.338 53.715 362.738 53.715ZM417.283 43.835C416.806 45.8283 416.091 47.5833 415.138 49.1C414.228 50.5733 413.036 51.7217 411.563 52.545C410.133 53.3683 408.356 53.78 406.233 53.78C403.936 53.78 402.008 53.2383 400.448 52.155C398.888 51.0283 397.718 49.5767 396.938 47.8C396.158 45.98 395.768 44.0083 395.768 41.885C395.768 39.9783 396.115 38.2667 396.808 36.75C397.501 35.19 398.476 33.955 399.733 33.045C401.033 32.135 402.593 31.68 404.413 31.68C406.493 31.68 408.096 32.2433 409.223 33.37C410.35 34.4533 410.913 35.8617 410.913 37.595C410.913 39.285 410.371 40.6067 409.288 41.56C408.205 42.5133 406.71 43.12 404.803 43.38L404.218 40.91C404.911 40.78 405.453 40.52 405.843 40.13C406.233 39.74 406.428 39.1983 406.428 38.505C406.428 37.7683 406.19 37.1833 405.713 36.75C405.236 36.2733 404.5 36.035 403.503 36.035C402.16 36.035 401.076 36.4683 400.253 37.335C399.473 38.2017 399.083 39.35 399.083 40.78C399.083 42.08 399.365 43.185 399.928 44.095C400.535 44.9617 401.401 45.6117 402.528 46.045C403.698 46.4783 405.128 46.695 406.818 46.695C408.031 46.695 409.115 46.5433 410.068 46.24C411.065 45.9367 411.931 45.4817 412.668 44.875C413.405 44.2683 414.033 43.5317 414.553 42.665C415.116 41.755 415.571 40.715 415.918 39.545H418.323C418.67 41.0617 419.233 42.3617 420.013 43.445C420.793 44.485 421.768 45.2867 422.938 45.85C424.108 46.37 425.451 46.63 426.968 46.63C428.441 46.63 429.676 46.3267 430.673 45.72C431.713 45.07 432.493 44.16 433.013 42.99C433.533 41.82 433.793 40.4767 433.793 38.96C433.793 35.4933 432.97 32.59 431.323 30.25C429.72 27.91 427.423 26.155 424.433 24.985C421.443 23.7717 417.933 23.165 413.903 23.165C412.603 23.165 411.26 23.23 409.873 23.36C408.53 23.49 407.121 23.7067 405.648 24.01C405.345 23.4467 405.15 22.9267 405.063 22.45C404.976 21.9733 404.933 21.5617 404.933 21.215C404.933 19.6117 405.518 18.4417 406.688 17.705C407.901 16.925 409.613 16.535 411.823 16.535C415.116 16.535 418.15 17.0333 420.923 18.03C423.696 18.9833 426.166 20.305 428.333 21.995C430.543 23.6417 432.428 25.5267 433.988 27.65C435.548 29.7733 436.74 32.005 437.563 34.345C438.386 36.6417 438.798 38.9167 438.798 41.17C438.798 43.7267 438.343 45.9583 437.433 47.865C436.566 49.7283 435.31 51.18 433.663 52.22C432.06 53.26 430.175 53.78 428.008 53.78C426.101 53.78 424.368 53.3683 422.808 52.545C421.248 51.7217 419.948 50.5733 418.908 49.1C417.911 47.6267 417.218 45.8717 416.828 43.835H417.283ZM461.856 53.78C458.693 53.78 455.854 53.0433 453.341 51.57C450.871 50.0967 448.921 47.9733 447.491 45.2C446.061 42.4267 445.346 39.09 445.346 35.19C445.346 31.29 446.061 27.9533 447.491 25.18C448.921 22.4067 450.871 20.2833 453.341 18.81C455.854 17.3367 458.693 16.6 461.856 16.6C464.976 16.6 467.771 17.3367 470.241 18.81C472.711 20.2833 474.661 22.4067 476.091 25.18C477.521 27.9533 478.236 31.29 478.236 35.19C478.236 39.09 477.521 42.4267 476.091 45.2C474.661 47.9733 472.711 50.0967 470.241 51.57C467.771 53.0433 464.976 53.78 461.856 53.78ZM461.856 46.89C464.456 46.89 466.731 46.435 468.681 45.525C470.631 44.5717 472.148 43.2283 473.231 41.495C474.314 39.7183 474.856 37.6167 474.856 35.19C474.856 32.7633 474.314 30.6833 473.231 28.95C472.148 27.1733 470.631 25.83 468.681 24.92C466.731 23.9667 464.456 23.49 461.856 23.49C459.256 23.49 456.959 23.9667 454.966 24.92C453.016 25.83 451.478 27.1733 450.351 28.95C449.268 30.6833 448.726 32.7633 448.726 35.19C448.726 37.66 449.268 39.7833 450.351 41.56C451.478 43.2933 453.016 44.615 454.966 45.525C456.959 46.435 459.256 46.89 461.856 46.89ZM501.605 53.715C498.485 53.715 495.82 53.2817 493.61 52.415C491.443 51.505 489.688 50.3133 488.345 48.84C487.045 47.3233 486.091 45.6767 485.485 43.9C484.878 42.1233 484.575 40.3467 484.575 38.57C484.575 38.05 484.575 37.5733 484.575 37.14C484.618 36.6633 484.683 36.1217 484.77 35.515H487.435C487.478 37.0317 487.738 38.4833 488.215 39.87C488.691 41.2133 489.45 42.4267 490.49 43.51C491.573 44.55 493.003 45.3733 494.78 45.98C496.6 46.5867 498.831 46.89 501.475 46.89C505.505 46.89 508.516 46.0667 510.51 44.42C512.546 42.7733 513.565 40.7367 513.565 38.31C513.565 36.4467 513.088 34.93 512.135 33.76C511.225 32.5467 509.968 31.6583 508.365 31.095C506.805 30.4883 505.071 30.185 503.165 30.185C501.301 30.185 499.936 30.4667 499.07 31.03C498.203 31.5933 497.77 32.33 497.77 33.24C497.77 34.1067 498.181 34.8 499.005 35.32C499.828 35.7967 500.868 36.035 502.125 36.035C503.901 36.035 505.375 35.5367 506.545 34.54C507.715 33.5433 508.3 32.2217 508.3 30.575C508.3 29.0583 507.91 27.7583 507.13 26.675C506.35 25.5917 505.353 24.725 504.14 24.075C502.926 23.425 501.67 23.0567 500.37 22.97L506.74 22.905C508.17 23.685 509.34 24.855 510.25 26.415C511.203 27.9317 511.68 29.4917 511.68 31.095C511.68 33.9117 510.856 36.23 509.21 38.05C507.563 39.8267 505.266 40.715 502.32 40.715C500.586 40.715 499.07 40.4333 497.77 39.87C496.47 39.3067 495.451 38.5267 494.715 37.53C493.978 36.49 493.61 35.2983 493.61 33.955C493.61 31.9183 494.433 30.2933 496.08 29.08C497.726 27.8667 500.066 27.26 503.1 27.26C505.873 27.26 508.365 27.8233 510.575 28.95C512.828 30.0333 514.605 31.55 515.905 33.5C517.205 35.4067 517.855 37.6383 517.855 40.195C517.855 42.7083 517.248 45.005 516.035 47.085C514.821 49.1217 513.001 50.7467 510.575 51.96C508.191 53.13 505.201 53.715 501.605 53.715ZM509.925 17.185V23.555H484.64L485.16 17.185H509.925ZM531.97 53.715C529.804 53.715 527.94 53.2817 526.38 52.415C524.82 51.5483 523.629 50.3567 522.805 48.84C521.982 47.3233 521.57 45.5683 521.57 43.575C521.57 41.6683 521.917 40.0217 522.61 38.635C523.347 37.2483 524.322 36.1867 525.535 35.45C526.749 34.67 528.049 34.28 529.435 34.28C530.909 34.28 532.035 34.6917 532.815 35.515C533.595 36.3383 533.985 37.3783 533.985 38.635C533.985 39.7183 533.66 40.6283 533.01 41.365C532.404 42.1017 531.45 42.47 530.15 42.47C529.067 42.47 528.179 42.1883 527.485 41.625C526.835 41.0183 526.51 40.1083 526.51 38.895C526.51 38.5917 526.51 38.3317 526.51 38.115C526.51 37.855 526.532 37.5733 526.575 37.27L527.42 38.31C526.597 38.6567 525.925 39.2633 525.405 40.13C524.929 40.9533 524.69 41.9067 524.69 42.99C524.69 44.5933 525.275 45.8717 526.445 46.825C527.659 47.735 529.327 48.19 531.45 48.19C533.314 48.19 534.939 47.7567 536.325 46.89C537.712 45.98 538.774 44.68 539.51 42.99C540.247 41.3 540.615 39.2633 540.615 36.88C540.615 32.1567 539.185 28.755 536.325 26.675C533.509 24.595 529.305 23.555 523.715 23.555H506.165L506.62 17.185H523.91C530.714 17.185 535.74 18.81 538.99 22.06C542.284 25.2667 543.93 30.2283 543.93 36.945C543.93 40.1517 543.497 43.0333 542.63 45.59C541.764 48.1033 540.442 50.0967 538.665 51.57C536.889 53 534.657 53.715 531.97 53.715ZM561.645 53.715C559.088 53.715 556.987 53.0867 555.34 51.83C553.737 50.5733 552.545 48.9483 551.765 46.955C551.028 44.9617 550.66 42.8817 550.66 40.715C550.66 37.985 551.115 35.4717 552.025 33.175C552.978 30.835 554.322 28.82 556.055 27.13C557.788 25.3967 559.782 24.0533 562.035 23.1L562.49 23.555H550.855L551.375 17.185H579.975C582.012 17.185 583.55 17.0767 584.59 16.86C585.63 16.6 586.475 16.1883 587.125 15.625C588.035 14.845 588.49 13.6533 588.49 12.05C588.49 10.7933 588.187 9.55833 587.58 8.345C587.017 7.08833 586.15 5.83166 584.98 4.575L587.515 2.69C589.075 4.33666 590.267 6.11333 591.09 8.02C591.913 9.88333 592.325 11.8117 592.325 13.805C592.325 15.1483 592.152 16.4267 591.805 17.64C591.458 18.81 590.787 19.85 589.79 20.76C589.183 21.3233 588.468 21.8217 587.645 22.255C586.822 22.6883 585.76 23.0133 584.46 23.23C583.203 23.4467 581.578 23.555 579.585 23.555H578.74L580.95 23.1C583.247 24.0533 585.24 25.3967 586.93 27.13C588.663 28.82 589.985 30.8133 590.895 33.11C591.848 35.4067 592.325 37.9417 592.325 40.715C592.325 42.145 592.13 43.6183 591.74 45.135C591.393 46.6083 590.787 48.0167 589.92 49.36C589.097 50.66 587.992 51.7217 586.605 52.545C585.218 53.325 583.485 53.715 581.405 53.715C579.455 53.715 577.808 53.3033 576.465 52.48C575.122 51.6567 574.017 50.4867 573.15 48.97C572.327 47.4533 571.677 45.6767 571.2 43.64L571.72 43.705C571.417 45.655 570.832 47.3883 569.965 48.905C569.098 50.4217 567.95 51.6133 566.52 52.48C565.133 53.3033 563.508 53.715 561.645 53.715ZM562.23 46.5C563.92 46.5 565.285 46.2183 566.325 45.655C567.365 45.0483 568.188 44.225 568.795 43.185C569.402 42.145 569.9 40.9533 570.29 39.61H572.695C573.172 41.04 573.713 42.275 574.32 43.315C574.97 44.355 575.815 45.1567 576.855 45.72C577.895 46.24 579.217 46.5 580.82 46.5C582.337 46.5 583.55 46.175 584.46 45.525C585.413 44.8317 586.107 43.8783 586.54 42.665C587.017 41.4517 587.255 40.0433 587.255 38.44C587.255 35.7533 586.627 33.2833 585.37 31.03C584.157 28.7333 582.38 26.9133 580.04 25.57C577.743 24.1833 574.948 23.49 571.655 23.49H571.395C568.102 23.49 565.285 24.1833 562.945 25.57C560.605 26.9133 558.807 28.7333 557.55 31.03C556.337 33.2833 555.73 35.7533 555.73 38.44C555.73 40.1733 555.968 41.6467 556.445 42.86C556.965 44.03 557.702 44.94 558.655 45.59C559.652 46.1967 560.843 46.5 562.23 46.5ZM616.379 53.715C612.826 53.715 609.771 53.0217 607.214 51.635C604.658 50.2483 602.686 48.3417 601.299 45.915C599.913 43.4883 599.219 40.715 599.219 37.595C599.219 34.1283 600.043 31.16 601.689 28.69C603.336 26.22 605.589 24.3133 608.449 22.97L608.579 23.555H599.479L599.999 17.185H621.189C623.183 17.185 624.699 17.0767 625.739 16.86C626.779 16.6 627.603 16.1883 628.209 15.625C629.163 14.8883 629.639 13.6967 629.639 12.05C629.639 10.7933 629.336 9.55833 628.729 8.345C628.166 7.08833 627.299 5.83166 626.129 4.575L628.664 2.69C630.181 4.33666 631.351 6.11333 632.174 8.02C632.998 9.88333 633.409 11.8117 633.409 13.805C633.409 15.1483 633.236 16.4267 632.889 17.64C632.543 18.81 631.871 19.85 630.874 20.76C630.268 21.3233 629.553 21.8217 628.729 22.255C627.949 22.6883 626.931 23.0133 625.674 23.23C624.418 23.4467 622.793 23.555 620.799 23.555H619.954L623.984 22.84C626.888 24.1833 629.163 26.1333 630.809 28.69C632.456 31.2033 633.279 34.1717 633.279 37.595C633.279 40.5417 632.608 43.25 631.264 45.72C629.921 48.1467 627.993 50.0967 625.479 51.57C622.966 53 619.933 53.715 616.379 53.715ZM616.314 46.5C618.958 46.5 621.168 46.0017 622.944 45.005C624.764 43.965 626.108 42.5783 626.974 40.845C627.884 39.1117 628.339 37.1833 628.339 35.06C628.339 32.8933 627.819 30.9433 626.779 29.21C625.783 27.4333 624.374 26.025 622.554 24.985C620.778 23.945 618.698 23.425 616.314 23.425C613.974 23.425 611.894 23.9667 610.074 25.05C608.254 26.09 606.824 27.4983 605.784 29.275C604.744 31.0083 604.224 32.9367 604.224 35.06C604.224 37.14 604.679 39.0467 605.589 40.78C606.543 42.5133 607.908 43.9 609.684 44.94C611.461 45.98 613.671 46.5 616.314 46.5ZM643.876 53.715C641.666 53.715 639.738 53.1733 638.091 52.09C636.444 50.9633 634.949 49.4033 633.606 47.41C632.263 45.4167 630.963 43.0767 629.706 40.39L631.136 39.48C632.089 40.7367 633.129 41.9067 634.256 42.99C635.383 44.0733 636.683 44.94 638.156 45.59C639.629 46.24 641.384 46.565 643.421 46.565C645.414 46.565 647.018 46.175 648.231 45.395C649.488 44.615 650.398 43.575 650.961 42.275C651.568 40.975 651.871 39.5667 651.871 38.05C651.871 34.4967 650.809 31.745 648.686 29.795C646.606 27.8017 643.746 26.22 640.106 25.05C639.976 24.7467 639.868 24.3567 639.781 23.88C639.694 23.4033 639.651 22.905 639.651 22.385C639.651 21.475 639.846 20.6733 640.236 19.98C640.626 19.2433 641.233 18.875 642.056 18.875C643.183 18.875 644.483 19.395 645.956 20.435C647.429 21.4317 648.859 22.84 650.246 24.66C651.676 26.4367 652.846 28.5167 653.756 30.9C654.709 33.2833 655.186 35.8617 655.186 38.635C655.186 41.4083 654.774 43.9433 653.951 46.24C653.171 48.5367 651.936 50.3567 650.246 51.7C648.599 53.0433 646.476 53.715 643.876 53.715ZM715.451 56.64C715.451 58.5467 715.039 60.0417 714.216 61.125C713.392 62.2083 712.309 62.75 710.966 62.75C709.709 62.75 708.712 62.3383 707.976 61.515C707.282 60.735 706.936 59.76 706.936 58.59C708.149 58.07 709.059 57.355 709.666 56.445C710.316 55.535 710.641 54.3433 710.641 52.87C710.641 51.1367 710.251 49.4467 709.471 47.8C708.691 46.1533 707.586 44.6583 706.156 43.315C704.769 41.9717 703.122 40.91 701.216 40.13C699.309 39.3067 697.229 38.895 694.976 38.895C692.809 38.895 691.141 39.2633 689.971 40C688.844 40.6933 688.281 41.6467 688.281 42.86C688.281 43.64 688.519 44.3333 688.996 44.94C689.516 45.5467 690.274 46.0233 691.271 46.37C692.267 46.6733 693.524 46.825 695.041 46.825C697.381 46.825 699.547 46.4567 701.541 45.72C703.577 44.9833 705.332 43.965 706.806 42.665C708.322 41.3217 709.492 39.7617 710.316 37.985C711.139 36.165 711.551 34.215 711.551 32.135C711.551 30.3583 711.269 28.7983 710.706 27.455C710.142 26.1117 709.297 25.0717 708.171 24.335C707.087 23.5983 705.701 23.23 704.011 23.23C701.974 23.23 700.349 23.815 699.136 24.985C697.922 26.1117 697.294 27.65 697.251 29.6H693.871C693.871 28.3 693.589 27.1733 693.026 26.22C692.506 25.2667 691.726 24.53 690.686 24.01C689.689 23.49 688.454 23.23 686.981 23.23C684.901 23.23 683.297 23.7067 682.171 24.66C681.044 25.6133 680.481 26.805 680.481 28.235C680.481 29.145 680.654 29.9683 681.001 30.705C681.347 31.3983 681.846 32.1133 682.496 32.85L680.611 34.41C679.354 33.2833 678.379 32.005 677.686 30.575C676.992 29.145 676.646 27.4983 676.646 25.635C676.646 23.8583 677.057 22.2767 677.881 20.89C678.704 19.5033 679.852 18.42 681.326 17.64C682.799 16.8167 684.467 16.405 686.331 16.405C688.194 16.405 689.797 16.795 691.141 17.575C692.527 18.3117 693.632 19.33 694.456 20.63C695.279 21.8867 695.842 23.3383 696.146 24.985H695.171C695.344 23.2083 695.821 21.6917 696.601 20.435C697.424 19.135 698.486 18.1383 699.786 17.445C701.129 16.7517 702.624 16.405 704.271 16.405C706.741 16.405 708.756 17.0767 710.316 18.42C711.919 19.72 713.089 21.475 713.826 23.685C714.562 25.895 714.931 28.3433 714.931 31.03C714.931 34.28 714.411 37.2917 713.371 40.065C712.331 42.795 710.901 45.2 709.081 47.28C707.304 49.3167 705.246 50.92 702.906 52.09C700.566 53.2167 698.052 53.78 695.366 53.78C693.026 53.78 690.989 53.3683 689.256 52.545C687.522 51.7217 686.179 50.6167 685.226 49.23C684.316 47.8433 683.861 46.2833 683.861 44.55C683.861 41.9933 684.857 39.8917 686.851 38.245C688.844 36.555 691.509 35.71 694.846 35.71C697.922 35.71 700.717 36.3817 703.231 37.725C705.744 39.025 707.911 40.7367 709.731 42.86C711.551 44.9833 712.959 47.2583 713.956 49.685C714.952 52.1117 715.451 54.43 715.451 56.64ZM739.905 53.715C736.351 53.715 733.296 53.0217 730.74 51.635C728.183 50.2483 726.211 48.3417 724.825 45.915C723.438 43.4883 722.745 40.715 722.745 37.595C722.745 34.1283 723.568 31.16 725.215 28.69C726.861 26.22 729.115 24.3133 731.975 22.97L732.105 23.555H723.005L723.525 17.185H744.715C746.708 17.185 748.225 17.0767 749.265 16.86C750.305 16.6 751.128 16.1883 751.735 15.625C752.688 14.8883 753.165 13.6967 753.165 12.05C753.165 10.7933 752.861 9.55833 752.255 8.345C751.691 7.08833 750.825 5.83166 749.655 4.575L752.19 2.69C753.706 4.33666 754.876 6.11333 755.7 8.02C756.523 9.88333 756.935 11.8117 756.935 13.805C756.935 15.1483 756.761 16.4267 756.415 17.64C756.068 18.81 755.396 19.85 754.4 20.76C753.793 21.3233 753.078 21.8217 752.255 22.255C751.475 22.6883 750.456 23.0133 749.2 23.23C747.943 23.4467 746.318 23.555 744.325 23.555H743.48L747.51 22.84C750.413 24.1833 752.688 26.1333 754.335 28.69C755.981 31.2033 756.805 34.1717 756.805 37.595C756.805 40.5417 756.133 43.25 754.79 45.72C753.446 48.1467 751.518 50.0967 749.005 51.57C746.491 53 743.458 53.715 739.905 53.715ZM739.84 46.5C742.483 46.5 744.693 46.0017 746.47 45.005C748.29 43.965 749.633 42.5783 750.5 40.845C751.41 39.1117 751.865 37.1833 751.865 35.06C751.865 32.8933 751.345 30.9433 750.305 29.21C749.308 27.4333 747.9 26.025 746.08 24.985C744.303 23.945 742.223 23.425 739.84 23.425C737.5 23.425 735.42 23.9667 733.6 25.05C731.78 26.09 730.35 27.4983 729.31 29.275C728.27 31.0083 727.75 32.9367 727.75 35.06C727.75 37.14 728.205 39.0467 729.115 40.78C730.068 42.5133 731.433 43.9 733.21 44.94C734.986 45.98 737.196 46.5 739.84 46.5ZM767.401 53.715C765.191 53.715 763.263 53.1733 761.616 52.09C759.97 50.9633 758.475 49.4033 757.131 47.41C755.788 45.4167 754.488 43.0767 753.231 40.39L754.661 39.48C755.615 40.7367 756.655 41.9067 757.781 42.99C758.908 44.0733 760.208 44.94 761.681 45.59C763.155 46.24 764.91 46.565 766.946 46.565C768.94 46.565 770.543 46.175 771.756 45.395C773.013 44.615 773.923 43.575 774.486 42.275C775.093 40.975 775.396 39.5667 775.396 38.05C775.396 34.4967 774.335 31.745 772.211 29.795C770.131 27.8017 767.271 26.22 763.631 25.05C763.501 24.7467 763.393 24.3567 763.306 23.88C763.22 23.4033 763.176 22.905 763.176 22.385C763.176 21.475 763.371 20.6733 763.761 19.98C764.151 19.2433 764.758 18.875 765.581 18.875C766.708 18.875 768.008 19.395 769.481 20.435C770.955 21.4317 772.385 22.84 773.771 24.66C775.201 26.4367 776.371 28.5167 777.281 30.9C778.235 33.2833 778.711 35.8617 778.711 38.635C778.711 41.4083 778.3 43.9433 777.476 46.24C776.696 48.5367 775.461 50.3567 773.771 51.7C772.125 53.0433 770.001 53.715 767.401 53.715ZM821.946 43.835C821.469 45.8283 820.754 47.5833 819.801 49.1C818.891 50.5733 817.699 51.7217 816.226 52.545C814.796 53.3683 813.019 53.78 810.896 53.78C808.599 53.78 806.671 53.2383 805.111 52.155C803.551 51.0283 802.381 49.5767 801.601 47.8C800.821 45.98 800.431 44.0083 800.431 41.885C800.431 39.9783 800.778 38.2667 801.471 36.75C802.164 35.19 803.139 33.955 804.396 33.045C805.696 32.135 807.256 31.68 809.076 31.68C811.156 31.68 812.759 32.2433 813.886 33.37C815.013 34.4533 815.576 35.8617 815.576 37.595C815.576 39.285 815.034 40.6067 813.951 41.56C812.868 42.5133 811.373 43.12 809.466 43.38L808.881 40.91C809.574 40.78 810.116 40.52 810.506 40.13C810.896 39.74 811.091 39.1983 811.091 38.505C811.091 37.7683 810.853 37.1833 810.376 36.75C809.899 36.2733 809.163 36.035 808.166 36.035C806.823 36.035 805.739 36.4683 804.916 37.335C804.136 38.2017 803.746 39.35 803.746 40.78C803.746 42.08 804.028 43.185 804.591 44.095C805.198 44.9617 806.064 45.6117 807.191 46.045C808.361 46.4783 809.791 46.695 811.481 46.695C812.694 46.695 813.778 46.5433 814.731 46.24C815.728 45.9367 816.594 45.4817 817.331 44.875C818.068 44.2683 818.696 43.5317 819.216 42.665C819.779 41.755 820.234 40.715 820.581 39.545H822.986C823.333 41.0617 823.896 42.3617 824.676 43.445C825.456 44.485 826.431 45.2867 827.601 45.85C828.771 46.37 830.114 46.63 831.631 46.63C833.104 46.63 834.339 46.3267 835.336 45.72C836.376 45.07 837.156 44.16 837.676 42.99C838.196 41.82 838.456 40.4767 838.456 38.96C838.456 35.4933 837.633 32.59 835.986 30.25C834.383 27.91 832.086 26.155 829.096 24.985C826.106 23.7717 822.596 23.165 818.566 23.165C817.266 23.165 815.923 23.23 814.536 23.36C813.193 23.49 811.784 23.7067 810.311 24.01C810.008 23.4467 809.813 22.9267 809.726 22.45C809.639 21.9733 809.596 21.5617 809.596 21.215C809.596 19.6117 810.181 18.4417 811.351 17.705C812.564 16.925 814.276 16.535 816.486 16.535C819.779 16.535 822.813 17.0333 825.586 18.03C828.359 18.9833 830.829 20.305 832.996 21.995C835.206 23.6417 837.091 25.5267 838.651 27.65C840.211 29.7733 841.403 32.005 842.226 34.345C843.049 36.6417 843.461 38.9167 843.461 41.17C843.461 43.7267 843.006 45.9583 842.096 47.865C841.229 49.7283 839.973 51.18 838.326 52.22C836.723 53.26 834.838 53.78 832.671 53.78C830.764 53.78 829.031 53.3683 827.471 52.545C825.911 51.7217 824.611 50.5733 823.571 49.1C822.574 47.6267 821.881 45.8717 821.491 43.835H821.946ZM866.519 53.78C863.356 53.78 860.518 53.0433 858.004 51.57C855.534 50.0967 853.584 47.9733 852.154 45.2C850.724 42.4267 850.009 39.09 850.009 35.19C850.009 31.29 850.724 27.9533 852.154 25.18C853.584 22.4067 855.534 20.2833 858.004 18.81C860.518 17.3367 863.356 16.6 866.519 16.6C869.639 16.6 872.434 17.3367 874.904 18.81C877.374 20.2833 879.324 22.4067 880.754 25.18C882.184 27.9533 882.899 31.29 882.899 35.19C882.899 39.09 882.184 42.4267 880.754 45.2C879.324 47.9733 877.374 50.0967 874.904 51.57C872.434 53.0433 869.639 53.78 866.519 53.78ZM866.519 46.89C869.119 46.89 871.394 46.435 873.344 45.525C875.294 44.5717 876.811 43.2283 877.894 41.495C878.978 39.7183 879.519 37.6167 879.519 35.19C879.519 32.7633 878.978 30.6833 877.894 28.95C876.811 27.1733 875.294 25.83 873.344 24.92C871.394 23.9667 869.119 23.49 866.519 23.49C863.919 23.49 861.623 23.9667 859.629 24.92C857.679 25.83 856.141 27.1733 855.014 28.95C853.931 30.6833 853.389 32.7633 853.389 35.19C853.389 37.66 853.931 39.7833 855.014 41.56C856.141 43.2933 857.679 44.615 859.629 45.525C861.623 46.435 863.919 46.89 866.519 46.89ZM900.483 53.715C897.926 53.715 895.824 53.0867 894.178 51.83C892.574 50.5733 891.383 48.9483 890.603 46.955C889.866 44.9617 889.498 42.8817 889.498 40.715C889.498 37.985 889.953 35.4717 890.863 33.175C891.816 30.835 893.159 28.82 894.893 27.13C896.626 25.3967 898.619 24.0533 900.873 23.1L901.328 23.555H889.693L890.213 17.185H917.643C920.113 17.185 921.976 17.0333 923.233 16.73C924.489 16.4267 925.486 15.9717 926.223 15.365C926.829 14.845 927.263 14.2167 927.523 13.48C927.826 12.7 927.978 11.79 927.978 10.75C927.978 9.10333 927.414 7.65167 926.288 6.395C925.204 5.13833 923.579 4.51 921.413 4.51C919.809 4.51 918.574 4.9 917.708 5.68C916.884 6.41666 916.473 7.37 916.473 8.54C916.473 9.23333 916.581 9.81833 916.798 10.295C917.058 10.7717 917.469 11.1617 918.033 11.465H917.123V10.685C917.123 9.905 917.383 9.255 917.903 8.735C918.423 8.215 919.094 7.955 919.918 7.955C920.871 7.955 921.564 8.25833 921.998 8.865C922.474 9.42833 922.713 10.0783 922.713 10.815C922.713 11.725 922.388 12.4833 921.738 13.09C921.131 13.6533 920.243 13.935 919.073 13.935C918.076 13.935 917.144 13.7183 916.278 13.285C915.411 12.8083 914.696 12.115 914.133 11.205C913.613 10.295 913.353 9.21166 913.353 7.955C913.353 6.785 913.634 5.65833 914.198 4.575C914.761 3.44833 915.649 2.51666 916.863 1.78C918.076 1.04333 919.614 0.674996 921.478 0.674996C923.558 0.674996 925.313 1.21666 926.743 2.3C928.173 3.38333 929.278 4.77 930.058 6.46C930.838 8.15 931.228 9.94833 931.228 11.855C931.228 14.455 930.729 16.6217 929.733 18.355C928.736 20.0883 927.219 21.3883 925.183 22.255C923.146 23.1217 920.503 23.555 917.253 23.555H914.263L919.788 23.1C922.084 24.0533 924.078 25.3967 925.768 27.13C927.501 28.82 928.823 30.8133 929.733 33.11C930.686 35.4067 931.163 37.9417 931.163 40.715C931.163 42.145 930.968 43.6183 930.578 45.135C930.231 46.6083 929.624 48.0167 928.758 49.36C927.934 50.66 926.829 51.7217 925.443 52.545C924.056 53.325 922.323 53.715 920.243 53.715C918.293 53.715 916.646 53.3033 915.303 52.48C913.959 51.6567 912.854 50.4867 911.988 48.97C911.164 47.4533 910.514 45.6767 910.038 43.64L910.558 43.705C910.254 45.655 909.669 47.3883 908.803 48.905C907.936 50.4217 906.788 51.6133 905.358 52.48C903.971 53.3033 902.346 53.715 900.483 53.715ZM901.068 46.5C902.758 46.5 904.123 46.2183 905.163 45.655C906.203 45.0483 907.026 44.225 907.633 43.185C908.239 42.145 908.738 40.9533 909.128 39.61H911.533C912.009 41.04 912.551 42.275 913.158 43.315C913.808 44.355 914.653 45.1567 915.693 45.72C916.733 46.24 918.054 46.5 919.658 46.5C921.174 46.5 922.388 46.175 923.298 45.525C924.251 44.8317 924.944 43.8783 925.378 42.665C925.854 41.4517 926.093 40.0433 926.093 38.44C926.093 35.7533 925.464 33.2833 924.208 31.03C922.994 28.7333 921.218 26.9133 918.878 25.57C916.581 24.1833 913.786 23.49 910.493 23.49H910.233C906.939 23.49 904.123 24.1833 901.783 25.57C899.443 26.9133 897.644 28.7333 896.388 31.03C895.174 33.2833 894.568 35.7533 894.568 38.44C894.568 40.1733 894.806 41.6467 895.283 42.86C895.803 44.03 896.539 44.94 897.493 45.59C898.489 46.1967 899.681 46.5 901.068 46.5ZM954.371 53.78C951.207 53.78 948.369 53.0433 945.856 51.57C943.386 50.0967 941.436 47.9733 940.006 45.2C938.576 42.4267 937.861 39.09 937.861 35.19C937.861 31.29 938.576 27.9533 940.006 25.18C941.436 22.4067 943.386 20.2833 945.856 18.81C948.369 17.3367 951.207 16.6 954.371 16.6C957.491 16.6 960.286 17.3367 962.756 18.81C965.226 20.2833 967.176 22.4067 968.606 25.18C970.036 27.9533 970.751 31.29 970.751 35.19C970.751 39.09 970.036 42.4267 968.606 45.2C967.176 47.9733 965.226 50.0967 962.756 51.57C960.286 53.0433 957.491 53.78 954.371 53.78ZM954.371 46.89C956.971 46.89 959.246 46.435 961.196 45.525C963.146 44.5717 964.662 43.2283 965.746 41.495C966.829 39.7183 967.371 37.6167 967.371 35.19C967.371 32.7633 966.829 30.6833 965.746 28.95C964.662 27.1733 963.146 25.83 961.196 24.92C959.246 23.9667 956.971 23.49 954.371 23.49C951.771 23.49 949.474 23.9667 947.481 24.92C945.531 25.83 943.992 27.1733 942.866 28.95C941.782 30.6833 941.241 32.7633 941.241 35.19C941.241 37.66 941.782 39.7833 942.866 41.56C943.992 43.2933 945.531 44.615 947.481 45.525C949.474 46.435 951.771 46.89 954.371 46.89ZM988.334 53.715C985.778 53.715 983.676 53.0867 982.029 51.83C980.426 50.5733 979.234 48.97 978.454 47.02C977.718 45.0267 977.349 42.925 977.349 40.715C977.349 37.9417 977.848 35.385 978.844 33.045C979.841 30.705 981.206 28.6683 982.939 26.935C984.716 25.2017 986.774 23.88 989.114 22.97L992.884 23.685C992.278 24.1183 991.584 24.465 990.804 24.725C990.068 24.9417 989.244 25.05 988.334 25.05C986.644 25.05 985.063 24.725 983.589 24.075C982.159 23.425 980.989 22.515 980.079 21.345C979.213 20.1317 978.779 18.68 978.779 16.99C978.779 14.13 979.949 11.855 982.289 10.165C984.629 8.43166 987.793 7.565 991.779 7.565C995.549 7.565 998.908 8.215 1001.85 9.515C1004.8 10.815 1007.34 12.57 1009.46 14.78C1011.63 16.99 1013.4 19.46 1014.79 22.19C1016.22 24.92 1017.28 27.78 1017.97 30.77C1018.67 33.7167 1019.01 36.5767 1019.01 39.35C1019.01 41.17 1018.8 42.925 1018.36 44.615C1017.97 46.305 1017.35 47.8433 1016.48 49.23C1015.61 50.5733 1014.49 51.6567 1013.1 52.48C1011.71 53.3033 1010.04 53.715 1008.09 53.715C1006.14 53.715 1004.5 53.3033 1003.15 52.48C1001.81 51.6567 1000.71 50.4867 999.839 48.97C999.016 47.4533 998.366 45.6767 997.889 43.64L998.409 43.705C998.106 45.655 997.521 47.3883 996.654 48.905C995.788 50.4217 994.639 51.6133 993.209 52.48C991.823 53.3033 990.198 53.715 988.334 53.715ZM988.919 46.5C990.609 46.5 991.974 46.2183 993.014 45.655C994.054 45.0483 994.878 44.225 995.484 43.185C996.091 42.145 996.589 40.9533 996.979 39.61H999.384C999.861 41.04 1000.4 42.275 1001.01 43.315C1001.66 44.355 1002.5 45.1567 1003.54 45.72C1004.58 46.24 1005.91 46.5 1007.51 46.5C1009.03 46.5 1010.24 46.175 1011.15 45.525C1012.1 44.8317 1012.8 43.8783 1013.23 42.665C1013.71 41.4517 1013.94 40.0433 1013.94 38.44C1013.94 35.71 1013.27 33.2833 1011.93 31.16C1010.63 29.0367 1008.79 27.3683 1006.4 26.155C1004.06 24.9417 1001.33 24.335 998.214 24.335C994.964 24.335 992.148 25.0067 989.764 26.35C987.381 27.65 985.561 29.3617 984.304 31.485C983.048 33.6083 982.419 35.9267 982.419 38.44C982.419 40.1733 982.658 41.6467 983.134 42.86C983.654 44.03 984.391 44.94 985.344 45.59C986.341 46.1967 987.533 46.5 988.919 46.5ZM1015.24 32.59C1014.81 30.4667 1014.18 28.4083 1013.36 26.415C1012.58 24.3783 1011.58 22.4933 1010.37 20.76C1009.16 18.9833 1007.73 17.445 1006.08 16.145C1004.43 14.8017 1002.57 13.7617 1000.49 13.025C998.409 12.245 996.113 11.855 993.599 11.855C991.043 11.855 989.028 12.3317 987.554 13.285C986.081 14.2383 985.344 15.56 985.344 17.25C985.344 18.7667 985.908 19.9367 987.034 20.76C988.161 21.54 989.634 21.93 991.454 21.93C992.494 21.93 993.556 21.8433 994.639 21.67C995.723 21.4967 996.914 21.41 998.214 21.41C1003.15 21.41 1007.1 22.4283 1010.04 24.465C1013.03 26.5017 1015.22 29.21 1016.61 32.59H1015.24ZM1026.3 53V45.785C1026.3 42.665 1026.65 39.6967 1027.34 36.88C1028.08 34.0633 1029.2 31.55 1030.72 29.34C1031.59 27.9967 1032.6 26.7833 1033.77 25.7C1034.94 24.6167 1036.27 23.7067 1037.74 22.97L1038.39 23.555H1026.3L1026.75 17.185H1047.1C1049.14 17.185 1050.67 17.0767 1051.71 16.86C1052.75 16.6 1053.6 16.1883 1054.25 15.625C1055.16 14.845 1055.61 13.6533 1055.61 12.05C1055.61 10.7933 1055.31 9.55833 1054.7 8.345C1054.14 7.08833 1053.27 5.83166 1052.1 4.575L1054.64 2.69C1056.2 4.33666 1057.39 6.11333 1058.21 8.02C1059.04 9.88333 1059.45 11.8117 1059.45 13.805C1059.45 15.1483 1059.25 16.405 1058.86 17.575C1058.52 18.745 1057.87 19.8067 1056.91 20.76C1056 21.6267 1054.81 22.32 1053.34 22.84C1051.91 23.3167 1049.7 23.555 1046.71 23.555H1046.32L1048.07 22.97C1049.42 23.62 1050.63 24.4433 1051.71 25.44C1052.8 26.3933 1053.77 27.4333 1054.64 28.56C1056.37 30.8567 1057.61 33.5 1058.34 36.49C1059.08 39.4367 1059.45 42.4917 1059.45 45.655V53H1052.3V45.915C1052.3 43.575 1052.26 41.5383 1052.17 39.805C1052.08 38.0717 1051.93 36.555 1051.71 35.255C1051.54 33.9117 1051.3 32.7417 1051 31.745C1050.31 29.275 1049.27 27.2817 1047.88 25.765C1046.49 24.2483 1044.85 23.49 1042.94 23.49C1040.77 23.49 1039 24.335 1037.61 26.025C1036.22 27.715 1035.2 29.795 1034.55 32.265C1034.29 33.2617 1034.08 34.3883 1033.9 35.645C1033.77 36.8583 1033.64 38.2883 1033.51 39.935C1033.43 41.5383 1033.38 43.4017 1033.38 45.525V53H1026.3ZM1070.24 53.715C1068.51 53.715 1066.82 53.195 1065.17 52.155C1063.57 51.115 1062.05 49.5983 1060.62 47.605C1059.19 45.6117 1057.81 43.185 1056.46 40.325L1057.83 39.35C1059.69 41.9067 1061.55 43.77 1063.42 44.94C1065.32 46.0667 1067.14 46.63 1068.88 46.63C1070.61 46.63 1071.87 46.1317 1072.65 45.135C1073.43 44.1383 1073.82 42.6433 1073.82 40.65C1073.82 39.48 1073.8 38.18 1073.75 36.75C1073.71 35.32 1073.69 33.8683 1073.69 32.395C1073.69 29.1883 1074.27 26.3933 1075.44 24.01C1076.66 21.6267 1078.37 19.785 1080.58 18.485C1082.79 17.1417 1085.37 16.47 1088.31 16.47C1090.87 16.47 1093.12 16.9683 1095.07 17.965C1097.02 18.9183 1098.65 20.2833 1099.95 22.06C1101.29 23.8367 1102.29 25.96 1102.94 28.43C1103.63 30.9 1103.98 33.6083 1103.98 36.555C1103.98 39.7617 1103.52 42.665 1102.61 45.265C1101.75 47.865 1100.42 49.9233 1098.65 51.44C1096.87 52.9567 1094.64 53.715 1091.95 53.715C1089.79 53.715 1087.92 53.2817 1086.36 52.415C1084.8 51.5483 1083.61 50.335 1082.79 48.775C1081.96 47.215 1081.55 45.4383 1081.55 43.445C1081.55 41.5383 1081.9 39.9133 1082.59 38.57C1083.33 37.1833 1084.28 36.1217 1085.45 35.385C1086.67 34.6483 1087.97 34.28 1089.35 34.28C1090.91 34.28 1092.06 34.6917 1092.8 35.515C1093.58 36.295 1093.97 37.335 1093.97 38.635C1093.97 39.7617 1093.64 40.6933 1092.99 41.43C1092.34 42.1233 1091.41 42.47 1090.2 42.47C1089.11 42.47 1088.23 42.145 1087.53 41.495C1086.84 40.845 1086.49 39.9567 1086.49 38.83C1086.49 38.5267 1086.49 38.2667 1086.49 38.05C1086.49 37.8333 1086.51 37.5733 1086.56 37.27L1087.4 38.31C1086.62 38.7 1085.97 39.3067 1085.45 40.13C1084.93 40.91 1084.67 41.8633 1084.67 42.99C1084.67 44.5933 1085.26 45.8717 1086.43 46.825C1087.6 47.735 1089.27 48.19 1091.43 48.19C1094.29 48.19 1096.55 47.1717 1098.19 45.135C1099.84 43.0983 1100.66 40.3033 1100.66 36.75C1100.66 33.89 1100.21 31.4633 1099.3 29.47C1098.39 27.4767 1097.04 25.96 1095.27 24.92C1093.53 23.8367 1091.37 23.295 1088.77 23.295C1084.95 23.295 1082.03 24.3783 1079.99 26.545C1077.96 28.7117 1076.94 31.6583 1076.94 35.385C1076.94 36.685 1076.96 38.1367 1077 39.74C1077.05 41.3 1077.07 42.9467 1077.07 44.68C1077.07 47.54 1076.53 49.7717 1075.44 51.375C1074.36 52.935 1072.63 53.715 1070.24 53.715ZM1132.57 56.445C1131.58 56.445 1130.56 55.925 1129.52 54.885C1128.52 53.845 1127.66 52.35 1126.92 50.4C1126.23 48.45 1125.88 46.1317 1125.88 43.445C1125.88 39.935 1126.64 37.2267 1128.15 35.32C1129.71 33.37 1131.64 32.395 1133.94 32.395C1135.33 32.395 1136.52 32.6983 1137.51 33.305C1138.51 33.9117 1139.51 34.8433 1140.5 36.1C1141.54 37.3567 1142.74 38.9383 1144.08 40.845C1144.99 42.1017 1145.83 43.1633 1146.61 44.03C1147.39 44.8967 1148.22 45.5467 1149.08 45.98C1149.95 46.4133 1150.99 46.63 1152.2 46.63C1153.85 46.63 1155.15 46.175 1156.1 45.265C1157.1 44.3117 1157.82 43.0767 1158.25 41.56C1158.73 40 1158.96 38.2667 1158.96 36.36C1158.96 33.89 1158.64 31.485 1157.99 29.145C1157.38 26.805 1156.49 24.6383 1155.32 22.645C1153.72 19.8717 1151.6 17.5317 1148.95 15.625C1146.31 13.7183 1143.19 12.5267 1139.59 12.05L1141.93 11.855C1142.32 12.375 1142.63 13.0467 1142.84 13.87C1143.1 14.6933 1143.23 15.4733 1143.23 16.21C1143.23 18.3767 1142.67 20.1317 1141.54 21.475C1140.42 22.775 1138.71 23.425 1136.41 23.425C1134.24 23.425 1132.47 22.7317 1131.08 21.345C1129.74 19.915 1129.06 18.0733 1129.06 15.82C1129.06 13.6533 1129.8 11.7683 1131.27 10.165C1132.79 8.51833 1134.98 7.695 1137.84 7.695C1140.83 7.695 1143.58 8.25833 1146.09 9.385C1148.65 10.5117 1150.95 12.0717 1152.98 14.065C1155.02 16.015 1156.78 18.2467 1158.25 20.76C1159.94 23.62 1161.22 26.7183 1162.08 30.055C1162.99 33.3483 1163.45 36.62 1163.45 39.87C1163.45 42.2533 1163.12 44.5067 1162.47 46.63C1161.82 48.7533 1160.78 50.4867 1159.35 51.83C1157.92 53.13 1156 53.78 1153.57 53.78C1151.79 53.78 1150.28 53.4117 1149.02 52.675C1147.76 51.9383 1146.64 50.9633 1145.64 49.75C1144.69 48.4933 1143.69 47.1067 1142.65 45.59C1141.78 44.29 1140.94 43.185 1140.11 42.275C1139.29 41.3217 1138.4 40.585 1137.45 40.065C1136.54 39.545 1135.5 39.285 1134.33 39.285C1132.77 39.285 1131.51 39.74 1130.56 40.65C1129.65 41.5167 1129.19 42.7733 1129.19 44.42C1129.19 46.0667 1129.67 47.605 1130.62 49.035C1131.62 50.465 1133.22 51.4617 1135.43 52.025C1135.43 52.675 1135.35 53.3467 1135.17 54.04C1135.04 54.7333 1134.76 55.2967 1134.33 55.73C1133.94 56.2067 1133.35 56.445 1132.57 56.445ZM1136.15 18.55C1137.58 18.55 1138.62 18.29 1139.27 17.77C1139.96 17.2067 1140.31 16.47 1140.31 15.56C1140.31 14.7367 1139.96 14.0433 1139.27 13.48C1138.62 12.8733 1137.58 12.57 1136.15 12.57C1134.68 12.57 1133.64 12.8733 1133.03 13.48C1132.42 14.0867 1132.12 14.7583 1132.12 15.495C1132.12 16.3617 1132.42 17.0983 1133.03 17.705C1133.64 18.2683 1134.68 18.55 1136.15 18.55ZM1184.1 53.715C1182.32 53.715 1180.53 53.26 1178.71 52.35C1176.93 51.44 1175.28 50.14 1173.77 48.45C1172.29 46.7167 1171.1 44.6583 1170.19 42.275C1169.28 39.8483 1168.83 37.14 1168.83 34.15C1168.83 30.6833 1169.37 27.6283 1170.45 24.985C1171.58 22.2983 1173.12 20.2183 1175.07 18.745C1177.02 17.2283 1179.2 16.47 1181.63 16.47C1184.45 16.47 1186.48 17.38 1187.74 19.2C1189 20.9767 1189.63 23.165 1189.63 25.765C1189.63 28.4083 1189 30.575 1187.74 32.265C1186.53 33.9117 1184.66 34.735 1182.15 34.735C1179.77 34.735 1177.88 33.9333 1176.5 32.33C1175.15 30.6833 1174.48 28.625 1174.48 26.155C1174.48 25.375 1174.55 24.6817 1174.68 24.075C1174.85 23.425 1175.02 22.9267 1175.2 22.58L1176.37 23.165C1175.46 23.945 1174.68 24.855 1174.03 25.895C1173.42 26.8917 1172.94 28.0183 1172.6 29.275C1172.25 30.4883 1172.08 31.8317 1172.08 33.305C1172.08 35.905 1172.68 38.31 1173.9 40.52C1175.11 42.6867 1176.89 44.5283 1179.23 46.045C1181.57 47.5183 1184.47 48.5367 1187.94 49.1C1187.94 50.53 1187.63 51.6567 1187.03 52.48C1186.42 53.3033 1185.44 53.715 1184.1 53.715ZM1182.09 29.34C1183.43 29.34 1184.49 28.9933 1185.27 28.3C1186.09 27.6067 1186.51 26.7183 1186.51 25.635C1186.51 24.5083 1186.09 23.62 1185.27 22.97C1184.49 22.2767 1183.43 21.93 1182.09 21.93C1180.74 21.93 1179.66 22.2767 1178.84 22.97C1178.01 23.62 1177.6 24.5083 1177.6 25.635C1177.6 26.7183 1177.99 27.6067 1178.77 28.3C1179.59 28.9933 1180.7 29.34 1182.09 29.34ZM1226.98 53.715C1224.6 53.715 1222.49 53.2383 1220.67 52.285C1218.85 51.3317 1217.45 50.0533 1216.45 48.45C1215.45 46.8467 1214.95 45.0483 1214.95 43.055C1214.95 40.8883 1215.47 39.025 1216.51 37.465C1217.55 35.8617 1218.9 34.605 1220.54 33.695L1220.41 34.15C1219.42 34.2367 1218.42 34.3017 1217.42 34.345C1216.43 34.345 1215.24 34.345 1213.85 34.345H1212.03L1212.35 29.47H1224.77C1225.29 29.0367 1225.7 28.56 1226 28.04C1226.31 27.52 1226.46 26.87 1226.46 26.09C1226.46 25.4833 1226.37 24.9417 1226.2 24.465C1226.03 23.945 1225.81 23.5117 1225.55 23.165H1229.51C1229.77 23.7283 1229.97 24.2483 1230.1 24.725C1230.23 25.2017 1230.29 25.7217 1230.29 26.285C1230.29 26.8917 1230.23 27.4767 1230.1 28.04C1229.97 28.56 1229.8 29.0367 1229.58 29.47H1241.99V34.345H1240.56C1238.96 34.345 1237.66 34.345 1236.66 34.345C1235.67 34.3017 1234.65 34.2367 1233.61 34.15L1233.48 33.695C1235.21 34.605 1236.58 35.8617 1237.57 37.465C1238.61 39.025 1239.13 40.8883 1239.13 43.055C1239.13 45.0483 1238.64 46.8467 1237.64 48.45C1236.64 50.0533 1235.21 51.3317 1233.35 52.285C1231.53 53.2383 1229.41 53.715 1226.98 53.715ZM1226.98 46.955C1228.8 46.955 1230.27 46.695 1231.4 46.175C1232.53 45.6117 1233.35 44.875 1233.87 43.965C1234.39 43.0117 1234.65 41.9717 1234.65 40.845C1234.65 39.5017 1234.35 38.3317 1233.74 37.335C1233.13 36.3383 1232.24 35.58 1231.07 35.06C1229.95 34.4967 1228.6 34.215 1227.04 34.215C1225.4 34.215 1224.01 34.4967 1222.88 35.06C1221.76 35.58 1220.89 36.36 1220.28 37.4C1219.72 38.3967 1219.44 39.545 1219.44 40.845C1219.44 42.1017 1219.72 43.185 1220.28 44.095C1220.89 45.005 1221.74 45.72 1222.82 46.24C1223.95 46.7167 1225.33 46.955 1226.98 46.955ZM1211.96 23.555L1212.42 17.185H1230.1C1232.18 17.185 1233.74 17.0767 1234.78 16.86C1235.82 16.6 1236.64 16.1883 1237.25 15.625C1238.2 14.8017 1238.68 13.61 1238.68 12.05C1238.68 10.7933 1238.38 9.55833 1237.77 8.345C1237.16 7.08833 1236.3 5.83166 1235.17 4.575L1237.7 2.69C1239.22 4.33666 1240.39 6.11333 1241.21 8.02C1242.04 9.88333 1242.45 11.8117 1242.45 13.805C1242.45 15.1483 1242.28 16.405 1241.93 17.575C1241.58 18.745 1240.91 19.8067 1239.91 20.76C1239.05 21.6267 1237.88 22.32 1236.4 22.84C1234.93 23.3167 1232.72 23.555 1229.77 23.555H1211.96ZM1256.23 56.445C1255.28 56.445 1254.28 55.925 1253.24 54.885C1252.2 53.845 1251.31 52.35 1250.58 50.4C1249.88 48.45 1249.54 46.1317 1249.54 43.445C1249.54 39.935 1250.32 37.2267 1251.88 35.32C1253.44 33.37 1255.34 32.395 1257.6 32.395C1258.98 32.395 1260.18 32.6983 1261.17 33.305C1262.21 33.9117 1263.23 34.8433 1264.23 36.1C1265.27 37.3567 1266.44 38.9383 1267.74 40.845C1268.65 42.1017 1269.47 43.1633 1270.21 44.03C1270.99 44.8967 1271.81 45.5467 1272.68 45.98C1273.59 46.4133 1274.65 46.63 1275.86 46.63C1277.38 46.63 1278.59 46.3267 1279.5 45.72C1280.46 45.07 1281.15 44.1817 1281.58 43.055C1282.02 41.885 1282.23 40.585 1282.23 39.155C1282.23 36.945 1281.84 34.9083 1281.06 33.045C1280.33 31.1383 1279.22 29.4917 1277.75 28.105C1276.32 26.675 1274.61 25.57 1272.61 24.79C1270.62 23.9667 1268.41 23.555 1265.98 23.555L1267.09 21.215C1270.51 21.215 1273.46 21.8217 1275.93 23.035C1278.44 24.205 1280.52 25.7867 1282.17 27.78C1283.81 29.73 1285.03 31.875 1285.81 34.215C1286.63 36.555 1287.04 38.8517 1287.04 41.105C1287.04 42.405 1286.89 43.7917 1286.59 45.265C1286.33 46.695 1285.85 48.06 1285.16 49.36C1284.46 50.66 1283.47 51.7217 1282.17 52.545C1280.91 53.3683 1279.29 53.78 1277.29 53.78C1275.47 53.78 1273.93 53.4117 1272.68 52.675C1271.42 51.9383 1270.29 50.9633 1269.3 49.75C1268.34 48.4933 1267.35 47.1067 1266.31 45.59C1265.48 44.29 1264.64 43.185 1263.77 42.275C1262.95 41.3217 1262.06 40.585 1261.11 40.065C1260.2 39.545 1259.16 39.285 1257.99 39.285C1256.43 39.285 1255.17 39.74 1254.22 40.65C1253.31 41.5167 1252.85 42.7733 1252.85 44.42C1252.85 46.0667 1253.35 47.605 1254.35 49.035C1255.34 50.465 1256.93 51.4617 1259.09 52.025C1259.09 52.675 1259.03 53.3467 1258.9 54.04C1258.77 54.7333 1258.49 55.2967 1258.05 55.73C1257.66 56.2067 1257.06 56.445 1256.23 56.445ZM1249.67 23.555L1250.19 17.185H1274.69C1276.73 17.185 1278.27 17.0767 1279.31 16.86C1280.35 16.6 1281.17 16.1883 1281.78 15.625C1282.73 14.8883 1283.21 13.6967 1283.21 12.05C1283.21 10.7933 1282.9 9.55833 1282.3 8.345C1281.73 7.08833 1280.87 5.83166 1279.7 4.575L1282.23 2.69C1283.79 4.33666 1284.98 6.11333 1285.81 8.02C1286.63 9.88333 1287.04 11.8117 1287.04 13.805C1287.04 15.1483 1286.87 16.4267 1286.52 17.64C1286.18 18.81 1285.5 19.85 1284.51 20.76C1283.9 21.3233 1283.19 21.8217 1282.36 22.255C1281.54 22.6883 1280.48 23.0133 1279.18 23.23C1277.92 23.4467 1276.3 23.555 1274.3 23.555H1249.67ZM1300.2 79.39C1298.77 79.39 1297.47 79.0217 1296.3 78.285C1295.13 77.5483 1294.07 76.5733 1293.11 75.36C1292.12 74.19 1291.16 72.955 1290.25 71.655C1289.3 70.355 1288.33 69.0983 1287.33 67.885C1286.33 66.715 1285.27 65.7617 1284.14 65.025C1283.02 64.2883 1281.74 63.92 1280.31 63.92C1279.14 63.92 1278.23 64.18 1277.58 64.7C1276.93 65.2633 1276.6 65.9783 1276.6 66.845C1276.6 67.9717 1277.19 68.8817 1278.36 69.575C1279.49 70.3117 1281.07 70.68 1283.1 70.68C1285.49 70.68 1287.65 70.29 1289.6 69.51C1291.51 68.73 1293.01 67.5817 1294.09 66.065C1295.22 64.5483 1295.78 62.7067 1295.78 60.54C1295.78 58.7633 1295.28 57.1817 1294.28 55.795C1293.29 54.4083 1291.94 53.4333 1290.25 52.87C1290.17 52.61 1290.1 52.35 1290.06 52.09C1290.02 51.7867 1289.99 51.4617 1289.99 51.115C1289.99 50.3783 1290.17 49.7933 1290.51 49.36C1290.86 48.9267 1291.34 48.71 1291.94 48.71C1293.11 48.71 1294.22 49.3167 1295.26 50.53C1296.3 51.7 1297.14 53.2167 1297.79 55.08C1298.44 56.9867 1298.77 58.9583 1298.77 60.995C1298.77 63.855 1298.16 66.4767 1296.95 68.86C1295.78 71.2433 1294.09 73.1283 1291.88 74.515C1289.67 75.945 1287.05 76.66 1284.01 76.66C1280.85 76.66 1278.27 75.8367 1276.28 74.19C1274.24 72.5867 1273.22 70.4633 1273.22 67.82C1273.22 65.87 1273.87 64.245 1275.17 62.945C1276.47 61.6883 1278.29 61.06 1280.63 61.06C1282.54 61.06 1284.21 61.4933 1285.64 62.36C1287.03 63.27 1288.28 64.375 1289.41 65.675C1290.54 67.0183 1291.62 68.34 1292.66 69.64C1293.7 70.9833 1294.76 72.0883 1295.84 72.955C1296.97 73.865 1298.21 74.32 1299.55 74.32C1300.07 74.32 1300.55 74.2333 1300.98 74.06C1301.41 73.93 1301.82 73.7133 1302.21 73.41C1302.69 73.8 1303.04 74.2333 1303.25 74.71C1303.51 75.23 1303.64 75.7933 1303.64 76.4C1303.64 77.3533 1303.32 78.09 1302.67 78.61C1302.06 79.13 1301.24 79.39 1300.2 79.39ZM1308.64 53.78C1306.04 53.78 1303.92 53.1517 1302.27 51.895C1300.67 50.6383 1299.47 48.9917 1298.69 46.955C1297.96 44.9183 1297.59 42.8167 1297.59 40.65C1297.59 36.8367 1298.52 33.4133 1300.38 30.38C1302.29 27.3467 1304.83 25.0717 1307.99 23.555H1297.78L1298.3 17.185H1328.07C1330.11 17.185 1331.65 17.0767 1332.69 16.86C1333.77 16.6 1334.62 16.1883 1335.22 15.625C1336.18 14.845 1336.65 13.6533 1336.65 12.05C1336.65 10.7933 1336.35 9.55833 1335.74 8.345C1335.14 7.08833 1334.25 5.83166 1333.08 4.575L1335.61 2.69C1337.17 4.33666 1338.37 6.11333 1339.19 8.02C1340.01 9.88333 1340.42 11.8117 1340.42 13.805C1340.42 15.1483 1340.25 16.4267 1339.9 17.64C1339.6 18.81 1338.93 19.85 1337.89 20.76C1337.28 21.3233 1336.57 21.8217 1335.74 22.255C1334.92 22.6883 1333.88 23.0133 1332.62 23.23C1331.37 23.4467 1329.74 23.555 1327.75 23.555H1326.9L1328.53 22.385C1330.57 22.8183 1332.15 23.555 1333.27 24.595C1334.4 25.5917 1335.2 26.6967 1335.68 27.91C1336.16 29.1233 1336.39 30.2933 1336.39 31.42C1336.26 31.8967 1336.13 32.3733 1336 32.85C1335.87 33.3267 1335.74 33.8033 1335.61 34.28C1335.14 35.7533 1334.25 37.075 1332.95 38.245C1331.69 39.415 1329.89 40 1327.55 40C1325.47 40 1323.76 39.4367 1322.42 38.31C1321.08 37.1833 1320.4 35.6883 1320.4 33.825C1320.4 32.005 1321.05 30.5533 1322.35 29.47C1323.65 28.3433 1325.41 27.78 1327.62 27.78C1329.01 27.78 1330.33 27.9967 1331.58 28.43C1332.88 28.82 1333.86 29.3617 1334.51 30.055L1335.94 30.445C1337.37 31.7017 1338.45 33.2833 1339.19 35.19C1339.97 37.0533 1340.36 38.96 1340.36 40.91C1340.36 45.1567 1339.3 48.3633 1337.17 50.53C1335.05 52.6967 1332.34 53.78 1329.05 53.78C1326.88 53.78 1325.08 53.3683 1323.65 52.545C1322.27 51.6783 1321.14 50.4867 1320.27 48.97C1319.41 47.4533 1318.71 45.72 1318.19 43.77L1318.65 43.705C1318.39 45.6983 1317.8 47.4533 1316.89 48.97C1316.03 50.4867 1314.9 51.6783 1313.51 52.545C1312.13 53.3683 1310.5 53.78 1308.64 53.78ZM1309.55 46.63C1311.15 46.63 1312.43 46.3483 1313.38 45.785C1314.38 45.1783 1315.18 44.355 1315.79 43.315C1316.4 42.275 1316.89 41.0617 1317.28 39.675H1319.69C1320.12 41.1483 1320.69 42.4267 1321.38 43.51C1322.07 44.55 1322.96 45.3733 1324.04 45.98C1325.17 46.5433 1326.58 46.825 1328.27 46.825C1329.87 46.825 1331.26 46.565 1332.43 46.045C1333.64 45.4817 1334.57 44.6367 1335.22 43.51C1335.92 42.3833 1336.26 40.975 1336.26 39.285C1336.26 37.9417 1335.98 36.5983 1335.42 35.255C1334.86 33.9117 1333.97 32.8067 1332.75 31.94C1331.54 31.03 1329.96 30.575 1328.01 30.575C1326.84 30.575 1325.89 30.77 1325.15 31.16C1324.41 31.5067 1324.04 32.1567 1324.04 33.11C1324.04 33.8467 1324.35 34.4317 1324.95 34.865C1325.56 35.255 1326.45 35.45 1327.62 35.45C1329.22 35.45 1330.5 35.06 1331.45 34.28C1332.45 33.4567 1332.95 32.2217 1332.95 30.575C1332.95 28.235 1331.95 26.4583 1329.96 25.245C1327.97 24.0317 1325.17 23.425 1321.57 23.425H1318.71C1315.38 23.425 1312.5 24.1183 1310.07 25.505C1307.69 26.8917 1305.84 28.7117 1304.54 30.965C1303.29 33.2183 1302.66 35.6883 1302.66 38.375C1302.66 40.1517 1302.92 41.6467 1303.44 42.86C1304 44.0733 1304.8 45.005 1305.84 45.655C1306.88 46.305 1308.12 46.63 1309.55 46.63ZM1357.95 53.715C1355.65 53.715 1353.72 53.1733 1352.16 52.09C1350.6 50.9633 1349.41 49.5117 1348.59 47.735C1347.81 45.915 1347.42 43.965 1347.42 41.885C1347.42 39.9783 1347.76 38.2667 1348.46 36.75C1349.15 35.19 1350.15 33.955 1351.45 33.045C1352.75 32.135 1354.29 31.68 1356.06 31.68C1358.14 31.68 1359.72 32.2433 1360.81 33.37C1361.93 34.4533 1362.5 35.8617 1362.5 37.595C1362.5 39.285 1361.96 40.6067 1360.87 41.56C1359.79 42.5133 1358.29 43.1417 1356.39 43.445L1355.87 40.975C1356.56 40.8017 1357.1 40.52 1357.49 40.13C1357.88 39.74 1358.08 39.1983 1358.08 38.505C1358.08 37.7683 1357.82 37.1833 1357.3 36.75C1356.82 36.2733 1356.08 36.035 1355.09 36.035C1353.74 36.035 1352.66 36.4683 1351.84 37.335C1351.06 38.2017 1350.67 39.35 1350.67 40.78C1350.67 42.08 1350.97 43.185 1351.58 44.095C1352.18 44.9617 1353.05 45.6333 1354.18 46.11C1355.35 46.5433 1356.76 46.76 1358.4 46.76C1359.62 46.76 1360.72 46.6083 1361.72 46.305C1362.71 46.0017 1363.58 45.5467 1364.32 44.94C1365.05 44.3333 1365.68 43.5967 1366.2 42.73C1366.77 41.82 1367.22 40.78 1367.57 39.61H1370.04C1370.51 40.9967 1371.08 42.2317 1371.73 43.315C1372.38 44.355 1373.2 45.1567 1374.2 45.72C1375.24 46.2833 1376.54 46.565 1378.1 46.565C1379.27 46.565 1380.29 46.37 1381.15 45.98C1382.02 45.59 1382.71 45.0267 1383.23 44.29C1383.8 43.5533 1384.19 42.7083 1384.4 41.755C1384.66 40.7583 1384.79 39.675 1384.79 38.505C1384.79 36.425 1384.42 34.4967 1383.69 32.72C1382.95 30.9 1381.89 29.3183 1380.5 27.975C1379.12 26.5883 1377.43 25.505 1375.43 24.725C1373.44 23.945 1371.23 23.555 1368.8 23.555V21.28C1372.36 21.28 1375.43 21.8433 1378.03 22.97C1380.68 24.0533 1382.84 25.5267 1384.53 27.39C1386.22 29.21 1387.46 31.2467 1388.24 33.5C1389.06 35.71 1389.47 37.9417 1389.47 40.195C1389.47 41.755 1389.28 43.3367 1388.89 44.94C1388.54 46.5433 1387.96 48.0167 1387.13 49.36C1386.31 50.66 1385.2 51.7217 1383.82 52.545C1382.43 53.325 1380.74 53.715 1378.75 53.715C1376.8 53.715 1375.13 53.3033 1373.74 52.48C1372.4 51.6567 1371.27 50.5083 1370.36 49.035C1369.5 47.5183 1368.85 45.7633 1368.41 43.77L1368.93 43.835C1368.41 45.7417 1367.7 47.4533 1366.79 48.97C1365.88 50.4433 1364.71 51.6133 1363.28 52.48C1361.85 53.3033 1360.07 53.715 1357.95 53.715ZM1385.57 17.185V23.555H1347.87L1348.33 17.185H1385.57ZM1403.31 53.715C1401.15 53.715 1399.28 53.2817 1397.72 52.415C1396.16 51.5483 1394.97 50.3567 1394.15 48.84C1393.32 47.3233 1392.91 45.5683 1392.91 43.575C1392.91 41.6683 1393.26 40.0217 1393.95 38.635C1394.69 37.2483 1395.66 36.1867 1396.88 35.45C1398.09 34.67 1399.39 34.28 1400.78 34.28C1402.25 34.28 1403.38 34.6917 1404.16 35.515C1404.94 36.3383 1405.33 37.3783 1405.33 38.635C1405.33 39.7183 1405 40.6283 1404.35 41.365C1403.75 42.1017 1402.79 42.47 1401.49 42.47C1400.41 42.47 1399.52 42.1883 1398.83 41.625C1398.18 41.0183 1397.85 40.1083 1397.85 38.895C1397.85 38.5917 1397.85 38.3317 1397.85 38.115C1397.85 37.855 1397.87 37.5733 1397.92 37.27L1398.76 38.31C1397.94 38.6567 1397.27 39.2633 1396.75 40.13C1396.27 40.9533 1396.03 41.9067 1396.03 42.99C1396.03 44.5933 1396.62 45.8717 1397.79 46.825C1399 47.735 1400.67 48.19 1402.79 48.19C1404.66 48.19 1406.28 47.7567 1407.67 46.89C1409.05 45.98 1410.12 44.68 1410.85 42.99C1411.59 41.3 1411.96 39.2633 1411.96 36.88C1411.96 32.1567 1410.53 28.755 1407.67 26.675C1404.85 24.595 1400.65 23.555 1395.06 23.555H1377.51L1377.96 17.185H1395.25C1402.06 17.185 1407.08 18.81 1410.33 22.06C1413.63 25.2667 1415.27 30.2283 1415.27 36.945C1415.27 40.1517 1414.84 43.0333 1413.97 45.59C1413.11 48.1033 1411.78 50.0967 1410.01 51.57C1408.23 53 1406 53.715 1403.31 53.715ZM1422.39 53V45.785C1422.39 42.8383 1422.7 39.935 1423.3 37.075C1423.91 34.215 1424.86 31.6367 1426.16 29.34C1426.94 27.91 1427.83 26.6317 1428.83 25.505C1429.82 24.3783 1430.95 23.4467 1432.21 22.71H1435.85C1435.2 23.2733 1434.46 23.7067 1433.64 24.01C1432.86 24.27 1432.01 24.4 1431.1 24.4C1429.59 24.4 1428.18 24.075 1426.88 23.425C1425.62 22.775 1424.6 21.8867 1423.82 20.76C1423.04 19.59 1422.65 18.2467 1422.65 16.73C1422.65 14.2167 1423.61 12.18 1425.51 10.62C1427.46 9.01667 1430.11 8.215 1433.44 8.215C1436.56 8.215 1439.31 8.865 1441.7 10.165C1444.12 11.4217 1446.2 13.1983 1447.94 15.495C1449.71 17.7917 1451.14 20.5 1452.23 23.62C1453.35 26.74 1454.18 30.1633 1454.7 33.89C1455.26 37.6167 1455.54 41.5383 1455.54 45.655V53H1448.39V45.915C1448.39 43.575 1448.35 41.5383 1448.26 39.805C1448.18 38.0717 1448.05 36.555 1447.87 35.255C1447.7 33.9117 1447.44 32.7417 1447.09 31.745C1446.36 29.275 1445.29 27.2817 1443.91 25.765C1442.56 24.2483 1440.94 23.49 1439.03 23.49C1436.87 23.49 1435.09 24.335 1433.7 26.025C1432.32 27.715 1431.3 29.795 1430.65 32.265C1430.39 33.2617 1430.17 34.3883 1430 35.645C1429.87 36.8583 1429.74 38.2883 1429.61 39.935C1429.52 41.5383 1429.48 43.4017 1429.48 45.525V53H1422.39ZM1451.12 35.84C1451.08 33.0667 1450.71 30.2933 1450.02 27.52C1449.32 24.7467 1448.31 22.2333 1446.96 19.98C1445.62 17.7267 1443.95 15.9283 1441.96 14.585C1440.01 13.2417 1437.71 12.57 1435.07 12.57C1433.25 12.57 1431.82 12.9817 1430.78 13.805C1429.74 14.585 1429.22 15.6683 1429.22 17.055C1429.22 18.225 1429.67 19.1783 1430.58 19.915C1431.49 20.6517 1432.66 21.02 1434.09 21.02C1434.79 21.02 1435.37 20.9767 1435.85 20.89C1436.32 20.8033 1436.8 20.7383 1437.28 20.695C1437.8 20.6083 1438.4 20.565 1439.1 20.565C1441.35 20.565 1443.32 21.085 1445.01 22.125C1446.75 23.1217 1448.24 24.4867 1449.5 26.22C1450.75 27.91 1451.77 29.8167 1452.55 31.94L1451.12 35.84ZM1479.72 53.715C1476.17 53.715 1473.12 53.0217 1470.56 51.635C1468 50.2483 1466.03 48.3417 1464.64 45.915C1463.26 43.4883 1462.56 40.715 1462.56 37.595C1462.56 34.1283 1463.39 31.16 1465.03 28.69C1466.68 26.22 1468.93 24.3133 1471.79 22.97L1471.92 23.555H1462.82L1463.34 17.185H1484.53C1486.53 17.185 1488.04 17.0767 1489.08 16.86C1490.12 16.6 1490.95 16.1883 1491.55 15.625C1492.51 14.8883 1492.98 13.6967 1492.98 12.05C1492.98 10.7933 1492.68 9.55833 1492.07 8.345C1491.51 7.08833 1490.64 5.83166 1489.47 4.575L1492.01 2.69C1493.53 4.33666 1494.7 6.11333 1495.52 8.02C1496.34 9.88333 1496.75 11.8117 1496.75 13.805C1496.75 15.1483 1496.58 16.4267 1496.23 17.64C1495.89 18.81 1495.22 19.85 1494.22 20.76C1493.61 21.3233 1492.9 21.8217 1492.07 22.255C1491.29 22.6883 1490.28 23.0133 1489.02 23.23C1487.76 23.4467 1486.14 23.555 1484.14 23.555H1483.3L1487.33 22.84C1490.23 24.1833 1492.51 26.1333 1494.15 28.69C1495.8 31.2033 1496.62 34.1717 1496.62 37.595C1496.62 40.5417 1495.95 43.25 1494.61 45.72C1493.27 48.1467 1491.34 50.0967 1488.82 51.57C1486.31 53 1483.28 53.715 1479.72 53.715ZM1479.66 46.5C1482.3 46.5 1484.51 46.0017 1486.29 45.005C1488.11 43.965 1489.45 42.5783 1490.32 40.845C1491.23 39.1117 1491.68 37.1833 1491.68 35.06C1491.68 32.8933 1491.16 30.9433 1490.12 29.21C1489.13 27.4333 1487.72 26.025 1485.9 24.985C1484.12 23.945 1482.04 23.425 1479.66 23.425C1477.32 23.425 1475.24 23.9667 1473.42 25.05C1471.6 26.09 1470.17 27.4983 1469.13 29.275C1468.09 31.0083 1467.57 32.9367 1467.57 35.06C1467.57 37.14 1468.02 39.0467 1468.93 40.78C1469.89 42.5133 1471.25 43.9 1473.03 44.94C1474.81 45.98 1477.02 46.5 1479.66 46.5ZM1507.22 53.715C1505.01 53.715 1503.08 53.1733 1501.44 52.09C1499.79 50.9633 1498.29 49.4033 1496.95 47.41C1495.61 45.4167 1494.31 43.0767 1493.05 40.39L1494.48 39.48C1495.43 40.7367 1496.47 41.9067 1497.6 42.99C1498.73 44.0733 1500.03 44.94 1501.5 45.59C1502.97 46.24 1504.73 46.565 1506.77 46.565C1508.76 46.565 1510.36 46.175 1511.58 45.395C1512.83 44.615 1513.74 43.575 1514.31 42.275C1514.91 40.975 1515.22 39.5667 1515.22 38.05C1515.22 34.4967 1514.15 31.745 1512.03 29.795C1509.95 27.8017 1507.09 26.22 1503.45 25.05C1503.32 24.7467 1503.21 24.3567 1503.13 23.88C1503.04 23.4033 1503 22.905 1503 22.385C1503 21.475 1503.19 20.6733 1503.58 19.98C1503.97 19.2433 1504.58 18.875 1505.4 18.875C1506.53 18.875 1507.83 19.395 1509.3 20.435C1510.77 21.4317 1512.2 22.84 1513.59 24.66C1515.02 26.4367 1516.19 28.5167 1517.1 30.9C1518.05 33.2833 1518.53 35.8617 1518.53 38.635C1518.53 41.4083 1518.12 43.9433 1517.3 46.24C1516.52 48.5367 1515.28 50.3567 1513.59 51.7C1511.94 53.0433 1509.82 53.715 1507.22 53.715ZM1526.52 53.455C1525.35 53.455 1524.35 53.13 1523.53 52.48C1522.7 51.83 1522.29 50.6383 1522.29 48.905C1522.29 47.215 1522.7 46.045 1523.53 45.395C1524.35 44.745 1525.35 44.42 1526.52 44.42C1527.73 44.42 1528.75 44.745 1529.57 45.395C1530.39 46.045 1530.81 47.215 1530.81 48.905C1530.81 50.6383 1530.39 51.83 1529.57 52.48C1528.75 53.13 1527.73 53.455 1526.52 53.455Z" fill="black"/>
</svg>
