<svg width="1657" height="68" viewBox="0 0 1657 68" fill="none" xmlns="http://www.w3.org/2000/svg">
<path d="M41.175 32.45C41.175 36.35 40.15 39.675 38.1 42.425C35.85 45.475 32.85 47 29.1 47C26.9 47 24.975 46.4 23.325 45.2C21.475 43.85 20.55 42.125 20.55 40.025C20.55 42.075 19.55 43.775 17.55 45.125C15.75 46.375 13.8 47 11.7 47C8.6 47 5.875 45.9 3.525 43.7C1.175 41.45 0 38.775 0 35.675C0 27.525 3.4 23.45 10.2 23.45C11.5 23.45 12.625 23.925 13.575 24.875C14.525 25.825 15 26.95 15 28.25C15 29.55 14.525 30.675 13.575 31.625C12.625 32.575 11.5 33.05 10.2 33.05C8.8 33.05 7.625 32.675 6.675 31.925C5.725 31.125 5.25 30.05 5.25 28.7C5.25 27.8 5.5 26.9 6 26C4.95 27 4.425 28.275 4.425 29.825C4.425 31.675 5.2 33.15 6.75 34.25C8.1 35.2 9.75 35.675 11.7 35.675C17.75 35.675 20.525 33.2 20.025 28.25H21.075L21 29.45C20.75 33.6 23.4 35.675 28.95 35.675C34.35 35.675 37.05 33.2 37.05 28.25C37.05 24.4 35.45 21.45 32.25 19.4C29.55 17.65 26.15 16.775 22.05 16.775C17.3 16.775 13.125 17.8 9.525 19.85L11.85 9.5C14.9 9 17.7 8.75 20.25 8.75C34.2 8.75 41.175 16.65 41.175 32.45ZM85.34 29C85.34 34.55 83.24 39 79.04 42.35C75.19 45.45 70.415 47 64.715 47C58.965 47 54.165 45.325 50.315 41.975C46.215 38.475 44.165 33.9 44.165 28.25C44.165 24.4 45.09 21.05 46.94 18.2C49.09 14.9 51.99 13.25 55.64 13.25C57.99 13.25 59.965 14.05 61.565 15.65C63.165 17.25 63.965 19.225 63.965 21.575C63.965 23.975 63.215 25.925 61.715 27.425C60.215 28.875 58.265 29.6 55.865 29.6C53.365 29.6 51.44 28.85 50.09 27.35C48.79 25.85 48.215 23.825 48.365 21.275C47.915 22.525 47.69 23.7 47.69 24.8C47.69 32.05 53.365 35.675 64.715 35.675C68.465 35.675 71.865 35.1 74.915 33.95C79.165 32.35 81.29 30.025 81.29 26.975C81.29 24.375 80.515 22.625 78.965 21.725C77.865 21.075 75.94 20.75 73.19 20.75C69.84 20.75 67.815 21.45 67.115 22.85V13.25H74.99V17.225C78.39 17.375 80.965 18.525 82.715 20.675C84.465 22.775 85.34 25.55 85.34 29ZM57.365 20.75C57.365 19.75 57.015 18.9 56.315 18.2C55.615 17.5 54.765 17.15 53.765 17.15C52.765 17.15 51.915 17.5 51.215 18.2C50.515 18.9 50.165 19.75 50.165 20.75C50.165 21.75 50.515 22.6 51.215 23.3C51.915 24 52.765 24.35 53.765 24.35C54.765 24.35 55.615 24 56.315 23.3C57.015 22.6 57.365 21.75 57.365 20.75ZM114.43 30.275C114.43 41.425 110.03 47 101.23 47C97.2801 47 94.1801 46.075 91.9301 44.225C89.5301 42.175 88.3301 39.225 88.3301 35.375C88.3301 27.475 92.2051 23.525 99.9551 23.525C104.105 23.525 106.18 25.25 106.18 28.7C106.18 30.2 105.605 31.4 104.455 32.3C103.305 33.15 101.955 33.575 100.405 33.575C96.3551 33.575 94.3301 32.1 94.3301 29.15C94.3301 27.4 95.2051 26.275 96.9551 25.775C95.7051 25.875 94.5801 26.4 93.5801 27.35C92.5801 28.25 92.0801 29.3 92.0801 30.5C92.0801 32.35 93.1051 33.725 95.1551 34.625C96.7051 35.325 98.5301 35.675 100.63 35.675C107.03 35.675 110.23 33.2 110.23 28.25C110.23 25.85 108.98 23.95 106.48 22.55C104.43 21.35 102.105 20.75 99.5051 20.75H71.5301V13.25H99.1301C103.98 13.25 107.78 14.9 110.53 18.2C113.13 21.3 114.43 25.325 114.43 30.275ZM115.307 56.225C115.307 58.225 114.607 59.975 113.207 61.475C111.807 63.025 110.107 63.8 108.107 63.8H106.982C109.182 63.15 110.282 61.6 110.282 59.15C110.282 57.75 109.782 56.625 108.782 55.775C107.782 54.975 106.582 54.575 105.182 54.575C103.332 54.575 101.832 55 100.682 55.85C99.3822 56.8 98.8572 58.175 99.1072 59.975H98.2072C98.4072 56.375 96.7072 54.575 93.1072 54.575C91.7072 54.575 90.5322 54.975 89.5822 55.775C88.5822 56.625 88.0822 57.75 88.0822 59.15C88.0822 61.2 88.8322 62.75 90.3322 63.8H88.9072C87.0072 63.8 85.3822 63 84.0322 61.4C82.6822 59.85 82.0072 58.125 82.0072 56.225C82.0072 54.075 82.8572 52.25 84.5572 50.75C86.2572 49.3 88.1822 48.575 90.3322 48.575C94.6822 48.575 97.4572 50.575 98.6572 54.575C99.8572 50.575 102.632 48.575 106.982 48.575C109.132 48.575 111.057 49.325 112.757 50.825C114.457 52.325 115.307 54.125 115.307 56.225ZM158.805 10.7C158.805 13.5 157.805 15.875 155.805 17.825C154.455 19.125 152.93 19.975 151.23 20.375C156.13 23.075 158.58 27.375 158.58 33.275C158.58 37.325 157.605 40.575 155.655 43.025C153.555 45.675 150.53 47 146.58 47C144.63 47 142.855 46.525 141.255 45.575C139.505 44.525 138.43 43.1 138.03 41.3C137.43 43.05 136.305 44.45 134.655 45.5C133.005 46.5 131.23 47 129.33 47C125.43 47 122.43 45.65 120.33 42.95C118.43 40.5 117.48 37.275 117.48 33.275C117.48 27.625 119.605 23.45 123.855 20.75H119.505C118.305 20.75 117.63 21.325 117.48 22.475V13.25H148.53C150.18 13.25 151.58 12.675 152.73 11.525C153.93 10.325 154.505 8.9 154.455 7.25C154.405 5.5 153.805 4 152.655 2.75C151.505 1.5 150.055 0.874999 148.305 0.874999L148.53 0.574999C151.33 0.574999 153.73 1.575 155.73 3.575C157.78 5.525 158.805 7.9 158.805 10.7ZM151.23 29.45C151.23 26.5 149.78 24.2 146.88 22.55C144.53 21.2 141.755 20.525 138.555 20.525C134.255 20.525 130.83 21.7 128.28 24.05C126.58 25.65 125.73 27.625 125.73 29.975C125.73 31.775 126.355 33.175 127.605 34.175C128.855 35.175 130.405 35.675 132.255 35.675C136.105 35.675 138.03 33.725 138.03 29.825H138.33C138.33 33.725 140.605 35.675 145.155 35.675C149.205 35.675 151.23 33.6 151.23 29.45ZM200.647 31.925C200.647 36.975 198.722 40.85 194.872 43.55C191.522 45.85 187.197 47 181.897 47C176.647 47 172.322 45.825 168.922 43.475C165.022 40.825 163.072 36.975 163.072 31.925C163.072 29.525 163.597 27.3 164.647 25.25C165.747 23.15 167.322 21.65 169.372 20.75H163.597C162.447 20.75 161.772 21.325 161.572 22.475V13.25H190.372C192.022 13.25 193.422 12.675 194.572 11.525C195.772 10.325 196.347 8.9 196.297 7.25C196.247 5.5 195.647 4 194.497 2.75C193.347 1.5 191.897 0.874999 190.147 0.874999L190.372 0.574999C193.172 0.574999 195.572 1.575 197.572 3.575C199.622 5.525 200.647 7.9 200.647 10.7C200.647 13.5 199.647 15.875 197.647 17.825C196.697 18.725 195.672 19.4 194.572 19.85C196.572 20.85 198.122 22.575 199.222 25.025C200.172 27.225 200.647 29.525 200.647 31.925ZM193.897 28.175C193.897 25.425 192.497 23.425 189.697 22.175C187.597 21.225 184.997 20.75 181.897 20.75C178.797 20.75 176.197 21.225 174.097 22.175C171.297 23.425 169.897 25.425 169.897 28.175C169.897 30.925 171.297 32.95 174.097 34.25C176.147 35.2 178.747 35.675 181.897 35.675C185.047 35.675 187.647 35.2 189.697 34.25C192.497 32.95 193.897 30.925 193.897 28.175ZM248.913 31.25C248.913 35.9 247.913 39.6 245.913 42.35C243.613 45.5 240.213 47.075 235.713 47.075C231.813 47.075 228.738 46.125 226.488 44.225C224.038 42.175 222.813 39.25 222.813 35.45C222.813 27.55 226.688 23.6 234.438 23.6C236.188 23.6 237.638 24.075 238.788 25.025C239.988 25.925 240.588 27.225 240.588 28.925C240.588 30.425 239.938 31.625 238.638 32.525C237.388 33.375 235.988 33.8 234.438 33.8C233.038 33.8 231.788 33.45 230.688 32.75C229.438 31.95 228.813 30.875 228.813 29.525C228.813 27.475 229.763 26.175 231.663 25.625C230.363 25.775 229.188 26.325 228.138 27.275C227.088 28.225 226.563 29.325 226.563 30.575C226.563 32.425 227.588 33.8 229.638 34.7C231.188 35.4 233.013 35.75 235.113 35.75C241.463 35.75 244.663 33.275 244.713 28.325C244.763 25.025 242.588 22.6 238.188 21.05C234.988 19.9 231.338 19.325 227.238 19.325C224.538 19.325 222.088 19.625 219.888 20.225C216.688 21.075 215.088 22.475 215.088 24.425C215.088 25.225 215.613 26.15 216.663 27.2C218.163 28.7 219.138 29.875 219.588 30.725C220.588 32.525 221.013 34.75 220.863 37.4C220.713 40.3 219.613 42.65 217.563 44.45C215.513 46.2 213.013 47.075 210.063 47.075C205.413 47.075 202.213 45.8 200.463 43.25C198.963 41.15 198.238 37.675 198.288 32.825L199.938 29.9C199.888 33.8 202.613 35.75 208.113 35.75C209.613 35.75 210.938 35.525 212.088 35.075C213.688 34.475 214.488 33.55 214.488 32.3C214.488 30.8 213.413 28.8 211.263 26.3C209.113 23.8 208.038 21.7 208.038 20C208.038 16.65 210.038 14.25 214.038 12.8C216.788 11.75 220.163 11.225 224.163 11.225C231.963 11.225 237.713 12.375 241.413 14.675C246.413 17.775 248.913 23.3 248.913 31.25ZM330.564 42.275C330.564 44.125 330.414 45.55 330.114 46.55C329.864 47.3 329.239 48.575 328.239 50.375H317.739C322.539 47.375 324.864 44.3 324.714 41.15C320.664 45.05 315.614 47 309.564 47C298.614 47 293.139 43.975 293.139 37.925C293.139 34.175 295.339 31.5 299.739 29.9C302.739 28.8 306.514 28.25 311.064 28.25C316.414 28.25 321.139 29.75 325.239 32.75C325.439 31.95 325.539 31.1 325.539 30.2C325.539 27.45 324.764 25.2 323.214 23.45C321.664 21.65 319.539 20.75 316.839 20.75C312.089 20.75 309.739 22.425 309.789 25.775L309.339 25.7C309.389 22.4 307.439 20.75 303.489 20.75C299.489 20.75 297.489 22.1 297.489 24.8C297.489 25.4 297.589 26.05 297.789 26.75H289.164C289.064 26.05 289.014 25.025 289.014 23.675C289.014 19.625 290.164 16.8 292.464 15.2C294.364 13.9 297.439 13.25 301.689 13.25C303.739 13.25 305.514 13.75 307.014 14.75C308.714 15.9 309.564 17.45 309.564 19.4C309.564 17.55 310.639 16.025 312.789 14.825C314.589 13.775 316.489 13.25 318.489 13.25C326.239 13.25 330.114 18.25 330.114 28.25C330.114 31 329.564 33.55 328.464 35.9C329.864 37.85 330.564 39.975 330.564 42.275ZM322.839 36.875C320.339 34.225 316.789 32.9 312.189 32.9C305.639 32.9 302.364 34.375 302.364 37.325C302.364 39.975 305.114 41.3 310.614 41.3C316.014 41.3 320.089 39.825 322.839 36.875ZM372.62 31.925C372.62 36.975 370.695 40.85 366.845 43.55C363.495 45.85 359.17 47 353.87 47C348.62 47 344.295 45.825 340.895 43.475C336.995 40.825 335.045 36.975 335.045 31.925C335.045 29.525 335.57 27.3 336.62 25.25C337.72 23.15 339.295 21.65 341.345 20.75H335.57C334.42 20.75 333.745 21.325 333.545 22.475V13.25H362.345C363.995 13.25 365.395 12.675 366.545 11.525C367.745 10.325 368.32 8.9 368.27 7.25C368.22 5.5 367.62 4 366.47 2.75C365.32 1.5 363.87 0.874999 362.12 0.874999L362.345 0.574999C365.145 0.574999 367.545 1.575 369.545 3.575C371.595 5.525 372.62 7.9 372.62 10.7C372.62 13.5 371.62 15.875 369.62 17.825C368.67 18.725 367.645 19.4 366.545 19.85C368.545 20.85 370.095 22.575 371.195 25.025C372.145 27.225 372.62 29.525 372.62 31.925ZM365.87 28.175C365.87 25.425 364.47 23.425 361.67 22.175C359.57 21.225 356.97 20.75 353.87 20.75C350.77 20.75 348.17 21.225 346.07 22.175C343.27 23.425 341.87 25.425 341.87 28.175C341.87 30.925 343.27 32.95 346.07 34.25C348.12 35.2 350.72 35.675 353.87 35.675C357.02 35.675 359.62 35.2 361.67 34.25C364.47 32.95 365.87 30.925 365.87 28.175ZM393.361 29.3C393.411 33.95 392.636 37.85 391.036 41C388.986 45 385.836 47 381.586 47C373.486 47 369.486 42.375 369.586 33.125L371.836 29.6C371.586 33.65 374.811 35.675 381.511 35.675C387.011 35.675 389.761 33.2 389.761 28.25C389.761 22.95 386.986 20.45 381.436 20.75C379.086 20.85 377.186 21.825 375.736 23.675V14.15C377.486 13.45 379.311 13.15 381.211 13.25C389.211 13.65 393.261 19 393.361 29.3ZM474.696 32.45C474.696 36.35 473.671 39.675 471.621 42.425C469.371 45.475 466.371 47 462.621 47C460.421 47 458.496 46.4 456.846 45.2C454.996 43.85 454.071 42.125 454.071 40.025C454.071 42.075 453.071 43.775 451.071 45.125C449.271 46.375 447.321 47 445.221 47C442.121 47 439.396 45.9 437.046 43.7C434.696 41.45 433.521 38.775 433.521 35.675C433.521 27.525 436.921 23.45 443.721 23.45C445.021 23.45 446.146 23.925 447.096 24.875C448.046 25.825 448.521 26.95 448.521 28.25C448.521 29.55 448.046 30.675 447.096 31.625C446.146 32.575 445.021 33.05 443.721 33.05C442.321 33.05 441.146 32.675 440.196 31.925C439.246 31.125 438.771 30.05 438.771 28.7C438.771 27.8 439.021 26.9 439.521 26C438.471 27 437.946 28.275 437.946 29.825C437.946 31.675 438.721 33.15 440.271 34.25C441.621 35.2 443.271 35.675 445.221 35.675C451.271 35.675 454.046 33.2 453.546 28.25H454.596L454.521 29.45C454.271 33.6 456.921 35.675 462.471 35.675C467.871 35.675 470.571 33.2 470.571 28.25C470.571 24.4 468.971 21.45 465.771 19.4C463.071 17.65 459.671 16.775 455.571 16.775C450.821 16.775 446.646 17.8 443.046 19.85L445.371 9.5C448.421 9 451.221 8.75 453.771 8.75C467.721 8.75 474.696 16.65 474.696 32.45ZM511.511 30.05C511.511 34.75 509.861 38.75 506.561 42.05C503.311 45.35 499.336 47 494.636 47C489.886 47 485.861 45.375 482.561 42.125C479.311 38.825 477.686 34.8 477.686 30.05C477.686 25.35 479.336 21.375 482.636 18.125C485.936 14.825 489.936 13.175 494.636 13.175C499.336 13.175 503.311 14.825 506.561 18.125C509.861 21.375 511.511 25.35 511.511 30.05ZM503.711 26.3C503.711 23.7 502.786 21.5 500.936 19.7C499.136 17.85 496.936 16.925 494.336 16.925C491.736 16.925 489.511 17.85 487.661 19.7C485.861 21.5 484.961 23.7 484.961 26.3C484.961 28.9 485.861 31.125 487.661 32.975C489.511 34.775 491.736 35.675 494.336 35.675C496.936 35.675 499.136 34.775 500.936 32.975C502.786 31.125 503.711 28.9 503.711 26.3ZM555.626 34.85C555.626 39.4 553.176 42.7 548.276 44.75C544.726 46.25 540.326 47 535.076 47C521.376 47 514.526 42.825 514.526 34.475C514.526 30.825 516.551 27.825 520.601 25.475L520.901 25.85C520.451 26.5 520.226 27.25 520.226 28.1C520.226 33.15 525.151 35.675 535.001 35.675C537.751 35.675 540.201 35.45 542.351 35C545.901 34.25 547.676 33.025 547.676 31.325C547.676 29.125 545.651 28.025 541.601 28.025C536.201 28.025 532.776 28.25 531.326 28.7V24.8L540.026 24.95C542.976 25 544.451 24.175 544.451 22.475C544.451 21.325 543.126 20.75 540.476 20.75H516.551C515.301 20.75 514.626 21.325 514.526 22.475V13.25H545.351V17.825C549.251 18.725 551.201 20.275 551.201 22.475C551.201 23.975 550.426 24.975 548.876 25.475C551.026 26.025 552.676 27.175 553.826 28.925C555.026 30.625 555.626 32.6 555.626 34.85ZM584.718 30.275C584.718 41.425 580.318 47 571.518 47C567.568 47 564.468 46.075 562.218 44.225C559.818 42.175 558.618 39.225 558.618 35.375C558.618 27.475 562.493 23.525 570.243 23.525C574.393 23.525 576.468 25.25 576.468 28.7C576.468 30.2 575.893 31.4 574.743 32.3C573.593 33.15 572.243 33.575 570.693 33.575C566.643 33.575 564.618 32.1 564.618 29.15C564.618 27.4 565.493 26.275 567.243 25.775C565.993 25.875 564.868 26.4 563.868 27.35C562.868 28.25 562.368 29.3 562.368 30.5C562.368 32.35 563.393 33.725 565.443 34.625C566.993 35.325 568.818 35.675 570.918 35.675C577.318 35.675 580.518 33.2 580.518 28.25C580.518 25.85 579.268 23.95 576.768 22.55C574.718 21.35 572.393 20.75 569.793 20.75H541.818V13.25H569.418C574.268 13.25 578.068 14.9 580.818 18.2C583.418 21.3 584.718 25.325 584.718 30.275ZM629.02 10.7C629.02 13.5 628.02 15.875 626.02 17.825C624.67 19.125 623.145 19.975 621.445 20.375C626.345 23.075 628.795 27.375 628.795 33.275C628.795 37.325 627.82 40.575 625.87 43.025C623.77 45.675 620.745 47 616.795 47C614.845 47 613.07 46.525 611.47 45.575C609.72 44.525 608.645 43.1 608.245 41.3C607.645 43.05 606.52 44.45 604.87 45.5C603.22 46.5 601.445 47 599.545 47C595.645 47 592.645 45.65 590.545 42.95C588.645 40.5 587.695 37.275 587.695 33.275C587.695 27.625 589.82 23.45 594.07 20.75H589.72C588.52 20.75 587.845 21.325 587.695 22.475V13.25H618.745C620.395 13.25 621.795 12.675 622.945 11.525C624.145 10.325 624.72 8.9 624.67 7.25C624.62 5.5 624.02 4 622.87 2.75C621.72 1.5 620.27 0.874999 618.52 0.874999L618.745 0.574999C621.545 0.574999 623.945 1.575 625.945 3.575C627.995 5.525 629.02 7.9 629.02 10.7ZM621.445 29.45C621.445 26.5 619.995 24.2 617.095 22.55C614.745 21.2 611.97 20.525 608.77 20.525C604.47 20.525 601.045 21.7 598.495 24.05C596.795 25.65 595.945 27.625 595.945 29.975C595.945 31.775 596.57 33.175 597.82 34.175C599.07 35.175 600.62 35.675 602.47 35.675C606.32 35.675 608.245 33.725 608.245 29.825H608.545C608.545 33.725 610.82 35.675 615.37 35.675C619.42 35.675 621.445 33.6 621.445 29.45ZM670.862 31.925C670.862 36.975 668.937 40.85 665.087 43.55C661.737 45.85 657.412 47 652.112 47C646.862 47 642.537 45.825 639.137 43.475C635.237 40.825 633.287 36.975 633.287 31.925C633.287 29.525 633.812 27.3 634.862 25.25C635.962 23.15 637.537 21.65 639.587 20.75H633.812C632.662 20.75 631.987 21.325 631.787 22.475V13.25H660.587C662.237 13.25 663.637 12.675 664.787 11.525C665.987 10.325 666.562 8.9 666.512 7.25C666.462 5.5 665.862 4 664.712 2.75C663.562 1.5 662.112 0.874999 660.362 0.874999L660.587 0.574999C663.387 0.574999 665.787 1.575 667.787 3.575C669.837 5.525 670.862 7.9 670.862 10.7C670.862 13.5 669.862 15.875 667.862 17.825C666.912 18.725 665.887 19.4 664.787 19.85C666.787 20.85 668.337 22.575 669.437 25.025C670.387 27.225 670.862 29.525 670.862 31.925ZM664.112 28.175C664.112 25.425 662.712 23.425 659.912 22.175C657.812 21.225 655.212 20.75 652.112 20.75C649.012 20.75 646.412 21.225 644.312 22.175C641.512 23.425 640.112 25.425 640.112 28.175C640.112 30.925 641.512 32.95 644.312 34.25C646.362 35.2 648.962 35.675 652.112 35.675C655.262 35.675 657.862 35.2 659.912 34.25C662.712 32.95 664.112 30.925 664.112 28.175ZM691.603 29.3C691.653 33.95 690.878 37.85 689.278 41C687.228 45 684.078 47 679.828 47C671.728 47 667.728 42.375 667.828 33.125L670.078 29.6C669.828 33.65 673.053 35.675 679.753 35.675C685.253 35.675 688.003 33.2 688.003 28.25C688.003 22.95 685.228 20.45 679.678 20.75C677.328 20.85 675.428 21.825 673.978 23.675V14.15C675.728 13.45 677.553 13.15 679.453 13.25C687.453 13.65 691.503 19 691.603 29.3ZM773.313 42.275C773.313 44.125 773.163 45.55 772.863 46.55C772.613 47.3 771.988 48.575 770.988 50.375H760.488C765.288 47.375 767.613 44.3 767.463 41.15C763.413 45.05 758.363 47 752.313 47C741.363 47 735.888 43.975 735.888 37.925C735.888 34.175 738.088 31.5 742.488 29.9C745.488 28.8 749.263 28.25 753.813 28.25C759.163 28.25 763.888 29.75 767.988 32.75C768.188 31.95 768.288 31.1 768.288 30.2C768.288 27.45 767.513 25.2 765.963 23.45C764.413 21.65 762.288 20.75 759.588 20.75C754.838 20.75 752.488 22.425 752.538 25.775L752.088 25.7C752.138 22.4 750.188 20.75 746.238 20.75C742.238 20.75 740.238 22.1 740.238 24.8C740.238 25.4 740.338 26.05 740.538 26.75H731.913C731.813 26.05 731.763 25.025 731.763 23.675C731.763 19.625 732.913 16.8 735.213 15.2C737.113 13.9 740.188 13.25 744.438 13.25C746.488 13.25 748.263 13.75 749.763 14.75C751.463 15.9 752.313 17.45 752.313 19.4C752.313 17.55 753.388 16.025 755.538 14.825C757.338 13.775 759.238 13.25 761.238 13.25C768.988 13.25 772.863 18.25 772.863 28.25C772.863 31 772.313 33.55 771.213 35.9C772.613 37.85 773.313 39.975 773.313 42.275ZM765.588 36.875C763.088 34.225 759.538 32.9 754.938 32.9C748.388 32.9 745.113 34.375 745.113 37.325C745.113 39.975 747.863 41.3 753.363 41.3C758.763 41.3 762.838 39.825 765.588 36.875ZM815.369 31.925C815.369 36.975 813.444 40.85 809.594 43.55C806.244 45.85 801.919 47 796.619 47C791.369 47 787.044 45.825 783.644 43.475C779.744 40.825 777.794 36.975 777.794 31.925C777.794 29.525 778.319 27.3 779.369 25.25C780.469 23.15 782.044 21.65 784.094 20.75H778.319C777.169 20.75 776.494 21.325 776.294 22.475V13.25H805.094C806.744 13.25 808.144 12.675 809.294 11.525C810.494 10.325 811.069 8.9 811.019 7.25C810.969 5.5 810.369 4 809.219 2.75C808.069 1.5 806.619 0.874999 804.869 0.874999L805.094 0.574999C807.894 0.574999 810.294 1.575 812.294 3.575C814.344 5.525 815.369 7.9 815.369 10.7C815.369 13.5 814.369 15.875 812.369 17.825C811.419 18.725 810.394 19.4 809.294 19.85C811.294 20.85 812.844 22.575 813.944 25.025C814.894 27.225 815.369 29.525 815.369 31.925ZM808.619 28.175C808.619 25.425 807.219 23.425 804.419 22.175C802.319 21.225 799.719 20.75 796.619 20.75C793.519 20.75 790.919 21.225 788.819 22.175C786.019 23.425 784.619 25.425 784.619 28.175C784.619 30.925 786.019 32.95 788.819 34.25C790.869 35.2 793.469 35.675 796.619 35.675C799.769 35.675 802.369 35.2 804.419 34.25C807.219 32.95 808.619 30.925 808.619 28.175ZM836.11 29.3C836.16 33.95 835.385 37.85 833.785 41C831.735 45 828.585 47 824.335 47C816.235 47 812.235 42.375 812.335 33.125L814.585 29.6C814.335 33.65 817.56 35.675 824.26 35.675C829.76 35.675 832.51 33.2 832.51 28.25C832.51 22.95 829.735 20.45 824.185 20.75C821.835 20.85 819.935 21.825 818.485 23.675V14.15C820.235 13.45 822.06 13.15 823.96 13.25C831.96 13.65 836.01 19 836.11 29.3ZM917.445 32.45C917.445 36.35 916.42 39.675 914.37 42.425C912.12 45.475 909.12 47 905.37 47C903.17 47 901.245 46.4 899.595 45.2C897.745 43.85 896.82 42.125 896.82 40.025C896.82 42.075 895.82 43.775 893.82 45.125C892.02 46.375 890.07 47 887.97 47C884.87 47 882.145 45.9 879.795 43.7C877.445 41.45 876.27 38.775 876.27 35.675C876.27 27.525 879.67 23.45 886.47 23.45C887.77 23.45 888.895 23.925 889.845 24.875C890.795 25.825 891.27 26.95 891.27 28.25C891.27 29.55 890.795 30.675 889.845 31.625C888.895 32.575 887.77 33.05 886.47 33.05C885.07 33.05 883.895 32.675 882.945 31.925C881.995 31.125 881.52 30.05 881.52 28.7C881.52 27.8 881.77 26.9 882.27 26C881.22 27 880.695 28.275 880.695 29.825C880.695 31.675 881.47 33.15 883.02 34.25C884.37 35.2 886.02 35.675 887.97 35.675C894.02 35.675 896.795 33.2 896.295 28.25H897.345L897.27 29.45C897.02 33.6 899.67 35.675 905.22 35.675C910.62 35.675 913.32 33.2 913.32 28.25C913.32 24.4 911.72 21.45 908.52 19.4C905.82 17.65 902.42 16.775 898.32 16.775C893.57 16.775 889.395 17.8 885.795 19.85L888.12 9.5C891.17 9 893.97 8.75 896.52 8.75C910.47 8.75 917.445 16.65 917.445 32.45ZM954.26 30.05C954.26 34.75 952.61 38.75 949.31 42.05C946.06 45.35 942.085 47 937.385 47C932.635 47 928.61 45.375 925.31 42.125C922.06 38.825 920.435 34.8 920.435 30.05C920.435 25.35 922.085 21.375 925.385 18.125C928.685 14.825 932.685 13.175 937.385 13.175C942.085 13.175 946.06 14.825 949.31 18.125C952.61 21.375 954.26 25.35 954.26 30.05ZM946.46 26.3C946.46 23.7 945.535 21.5 943.685 19.7C941.885 17.85 939.685 16.925 937.085 16.925C934.485 16.925 932.26 17.85 930.41 19.7C928.61 21.5 927.71 23.7 927.71 26.3C927.71 28.9 928.61 31.125 930.41 32.975C932.26 34.775 934.485 35.675 937.085 35.675C939.685 35.675 941.885 34.775 943.685 32.975C945.535 31.125 946.46 28.9 946.46 26.3ZM998.375 33.275C998.375 37.325 997.4 40.575 995.45 43.025C993.35 45.675 990.325 47 986.375 47C984.425 47 982.65 46.525 981.05 45.575C979.3 44.525 978.225 43.1 977.825 41.3C977.225 43.05 976.1 44.45 974.45 45.5C972.8 46.5 971.025 47 969.125 47C965.225 47 962.225 45.65 960.125 42.95C958.225 40.5 957.275 37.275 957.275 33.275C957.275 27.625 959.4 23.45 963.65 20.75H959.3C958.1 20.75 957.425 21.325 957.275 22.475V13.25H988.1V19.1C994.95 21.55 998.375 26.275 998.375 33.275ZM991.025 29.45C991.025 26.5 989.575 24.2 986.675 22.55C984.325 21.2 981.55 20.525 978.35 20.525C974.2 20.525 970.825 21.65 968.225 23.9C966.425 25.55 965.525 27.575 965.525 29.975C965.525 31.775 966.15 33.175 967.4 34.175C968.65 35.175 970.2 35.675 972.05 35.675C975.9 35.675 977.825 33.725 977.825 29.825H978.125C978.125 33.725 980.4 35.675 984.95 35.675C989 35.675 991.025 33.6 991.025 29.45ZM998.442 10.7C998.442 13.5 997.442 15.875 995.442 17.825C993.392 19.775 990.967 20.75 988.167 20.75H984.117L984.042 13.25C987.342 13.25 989.592 13.025 990.792 12.575C993.042 11.725 994.142 9.95 994.092 7.25C994.042 4.1 992.592 2.075 989.742 1.175C991.492 2.075 992.367 3.525 992.367 5.525C992.367 6.875 991.892 8.05 990.942 9.05C989.942 10 988.767 10.475 987.417 10.475C986.067 10.475 984.917 10 983.967 9.05C982.967 8.05 982.467 6.875 982.467 5.525C982.467 3.925 983.017 2.65 984.117 1.7C985.217 0.749998 986.567 0.274998 988.167 0.274998C991.217 0.274998 993.692 1.25 995.592 3.2C997.492 5.15 998.442 7.65 998.442 10.7ZM1035.27 30.05C1035.27 34.75 1033.62 38.75 1030.32 42.05C1027.07 45.35 1023.09 47 1018.39 47C1013.64 47 1009.62 45.375 1006.32 42.125C1003.07 38.825 1001.44 34.8 1001.44 30.05C1001.44 25.35 1003.09 21.375 1006.39 18.125C1009.69 14.825 1013.69 13.175 1018.39 13.175C1023.09 13.175 1027.07 14.825 1030.32 18.125C1033.62 21.375 1035.27 25.35 1035.27 30.05ZM1027.47 26.3C1027.47 23.7 1026.54 21.5 1024.69 19.7C1022.89 17.85 1020.69 16.925 1018.09 16.925C1015.49 16.925 1013.27 17.85 1011.42 19.7C1009.62 21.5 1008.72 23.7 1008.72 26.3C1008.72 28.9 1009.62 31.125 1011.42 32.975C1013.27 34.775 1015.49 35.675 1018.09 35.675C1020.69 35.675 1022.89 34.775 1024.69 32.975C1026.54 31.125 1027.47 28.9 1027.47 26.3ZM1079.38 31.625C1079.38 41.875 1075.38 47 1067.38 47C1065.38 47 1063.61 46.525 1062.06 45.575C1060.31 44.525 1059.23 43.1 1058.83 41.3C1058.23 43.05 1057.11 44.45 1055.46 45.5C1053.81 46.5 1052.03 47 1050.13 47C1042.23 47 1038.28 42.475 1038.28 33.425C1038.28 28.075 1040.76 24.25 1045.71 21.95C1044.26 20.85 1043.53 19.1 1043.53 16.7C1043.53 14.05 1045.21 12.025 1048.56 10.625C1051.16 9.525 1054.01 8.975 1057.11 8.975C1064.06 8.975 1069.51 11.025 1073.46 15.125C1077.41 19.175 1079.38 24.675 1079.38 31.625ZM1060.48 16.925C1060.48 15.875 1060.06 15 1059.21 14.3C1058.41 13.6 1057.48 13.25 1056.43 13.25C1055.23 13.25 1054.16 13.6 1053.21 14.3C1052.26 15 1051.78 15.925 1051.78 17.075C1051.78 18.225 1052.23 19.125 1053.13 19.775C1054.03 20.425 1055.08 20.75 1056.28 20.75C1057.33 20.75 1058.28 20.375 1059.13 19.625C1060.03 18.875 1060.48 17.975 1060.48 16.925ZM1072.86 26.3C1072.86 23.35 1072.01 20.575 1070.31 17.975C1068.41 15.075 1066.06 13.5 1063.26 13.25C1064.01 14.3 1064.38 15.45 1064.38 16.7C1064.38 19.4 1063.18 21.425 1060.78 22.775C1058.88 23.875 1056.48 24.425 1053.58 24.425C1051.98 24.425 1050.31 24.075 1048.56 23.375C1046.36 25.275 1045.26 27.425 1045.26 29.825C1045.26 33.725 1047.51 35.675 1052.01 35.675C1056.51 35.675 1058.73 34.1 1058.68 30.95H1058.98C1058.98 32.95 1059.66 34.275 1061.01 34.925C1062.01 35.425 1063.66 35.675 1065.96 35.675C1070.56 35.675 1072.86 32.55 1072.86 26.3ZM1123.7 10.7C1123.7 13.5 1122.7 15.875 1120.7 17.825C1119.35 19.125 1117.82 20 1116.12 20.45C1121.02 23.05 1123.47 26.9 1123.47 32C1123.47 37 1121.95 42 1118.9 47H1108.47C1110.72 43.65 1112.15 41.325 1112.75 40.025C1113.8 37.675 1114.32 35 1114.32 32C1114.32 28.85 1113.2 26.2 1110.95 24.05C1108.75 21.85 1106.07 20.75 1102.92 20.75C1099.77 20.75 1097.07 21.85 1094.82 24.05C1092.62 26.25 1091.52 28.9 1091.52 32C1091.52 34.3 1092 36.875 1092.95 39.725C1093.25 40.475 1094.25 42.9 1095.95 47H1086.35C1083.7 42 1082.37 37 1082.37 32C1082.37 27.25 1084.67 23.5 1089.27 20.75H1084.4C1083.2 20.75 1082.52 21.325 1082.37 22.475V13.25H1113.42C1115.07 13.25 1116.47 12.675 1117.62 11.525C1118.82 10.325 1119.4 8.9 1119.35 7.25C1119.3 5.5 1118.7 4 1117.55 2.75C1116.4 1.5 1114.95 0.874999 1113.2 0.874999L1113.42 0.574999C1116.22 0.574999 1118.62 1.575 1120.62 3.575C1122.67 5.525 1123.7 7.9 1123.7 10.7ZM1171.76 31.25C1171.76 35.9 1170.76 39.6 1168.76 42.35C1166.46 45.5 1163.06 47.075 1158.56 47.075C1154.66 47.075 1151.59 46.125 1149.34 44.225C1146.89 42.175 1145.66 39.25 1145.66 35.45C1145.66 27.55 1149.54 23.6 1157.29 23.6C1159.04 23.6 1160.49 24.075 1161.64 25.025C1162.84 25.925 1163.44 27.225 1163.44 28.925C1163.44 30.425 1162.79 31.625 1161.49 32.525C1160.24 33.375 1158.84 33.8 1157.29 33.8C1155.89 33.8 1154.64 33.45 1153.54 32.75C1152.29 31.95 1151.66 30.875 1151.66 29.525C1151.66 27.475 1152.61 26.175 1154.51 25.625C1153.21 25.775 1152.04 26.325 1150.99 27.275C1149.94 28.225 1149.41 29.325 1149.41 30.575C1149.41 32.425 1150.44 33.8 1152.49 34.7C1154.04 35.4 1155.86 35.75 1157.96 35.75C1164.31 35.75 1167.51 33.275 1167.56 28.325C1167.61 25.025 1165.44 22.6 1161.04 21.05C1157.84 19.9 1154.19 19.325 1150.09 19.325C1147.39 19.325 1144.94 19.625 1142.74 20.225C1139.54 21.075 1137.94 22.475 1137.94 24.425C1137.94 25.225 1138.46 26.15 1139.51 27.2C1141.01 28.7 1141.99 29.875 1142.44 30.725C1143.44 32.525 1143.86 34.75 1143.71 37.4C1143.56 40.3 1142.46 42.65 1140.41 44.45C1138.36 46.2 1135.86 47.075 1132.91 47.075C1128.26 47.075 1125.06 45.8 1123.31 43.25C1121.81 41.15 1121.09 37.675 1121.14 32.825L1122.79 29.9C1122.74 33.8 1125.46 35.75 1130.96 35.75C1132.46 35.75 1133.79 35.525 1134.94 35.075C1136.54 34.475 1137.34 33.55 1137.34 32.3C1137.34 30.8 1136.26 28.8 1134.11 26.3C1131.96 23.8 1130.89 21.7 1130.89 20C1130.89 16.65 1132.89 14.25 1136.89 12.8C1139.64 11.75 1143.01 11.225 1147.01 11.225C1154.81 11.225 1160.56 12.375 1164.26 14.675C1169.26 17.775 1171.76 23.3 1171.76 31.25ZM1252.97 31.925C1252.97 36.375 1251.89 39.925 1249.74 42.575C1247.39 45.525 1244.04 47 1239.69 47C1236.54 47 1233.89 46.5 1231.74 45.5C1228.89 44.15 1227.47 42.075 1227.47 39.275C1227.47 38.525 1227.64 37.4 1227.99 35.9C1228.39 34.35 1228.59 33.2 1228.59 32.45C1228.59 30 1227.37 28.775 1224.92 28.775C1222.37 28.775 1221.09 31.175 1221.09 35.975C1221.09 41.175 1222.52 44.85 1225.37 47H1214.87C1212.87 45 1211.87 41.25 1211.87 35.75C1211.87 29 1215.84 25.625 1223.79 25.625C1226.69 25.625 1229.04 26.5 1230.84 28.25C1233.14 31.3 1234.37 32.925 1234.52 33.125C1236.17 34.825 1237.92 35.675 1239.77 35.675C1244.87 35.675 1247.42 32.825 1247.42 27.125C1247.42 23.575 1246.54 20.525 1244.79 17.975C1242.89 15.125 1240.24 13.55 1236.84 13.25C1237.59 14.3 1237.97 15.45 1237.97 16.7C1237.97 19.3 1236.77 21.3 1234.37 22.7C1232.37 23.85 1229.97 24.425 1227.17 24.425C1224.52 24.425 1222.24 23.825 1220.34 22.625C1218.19 21.225 1217.12 19.25 1217.12 16.7C1217.12 14 1218.79 11.95 1222.14 10.55C1224.69 9.5 1227.54 8.975 1230.69 8.975C1238.04 8.975 1243.59 10.95 1247.34 14.9C1251.09 18.85 1252.97 24.525 1252.97 31.925ZM1234.07 16.925C1234.07 15.875 1233.64 15 1232.79 14.3C1231.99 13.6 1231.07 13.25 1230.02 13.25C1228.82 13.25 1227.74 13.6 1226.79 14.3C1225.84 15 1225.37 15.925 1225.37 17.075C1225.37 18.225 1225.82 19.125 1226.72 19.775C1227.62 20.425 1228.67 20.75 1229.87 20.75C1230.92 20.75 1231.87 20.375 1232.72 19.625C1233.62 18.875 1234.07 17.975 1234.07 16.925ZM1281.46 22.85C1281.46 25.7 1280.58 27.95 1278.83 29.6C1277.08 31.2 1274.78 32 1271.93 32C1269.13 32 1266.98 31.3 1265.48 29.9C1263.83 28.4 1263.06 26.275 1263.16 23.525C1263.21 21.025 1264.08 19 1265.78 17.45C1262.68 19.2 1261.13 22.25 1261.13 26.6C1261.13 29.8 1262.51 32.2 1265.26 33.8C1267.56 35.15 1270.41 35.825 1273.81 35.825C1276.26 35.825 1278.58 35.025 1280.78 33.425V46.1C1278.08 46.7 1274.78 47 1270.88 47C1266.53 47 1262.88 45.25 1259.93 41.75C1257.08 38.45 1255.66 34.6 1255.66 30.2C1255.66 25.4 1257.13 21.375 1260.08 18.125C1263.08 14.875 1266.96 13.25 1271.71 13.25C1274.56 13.25 1276.88 14.15 1278.68 15.95C1280.53 17.7 1281.46 20 1281.46 22.85ZM1275.01 20.45C1275.01 17.8 1273.68 16.475 1271.03 16.475C1269.88 16.475 1268.93 16.85 1268.18 17.6C1267.43 18.35 1267.06 19.3 1267.06 20.45C1267.06 21.65 1267.41 22.625 1268.11 23.375C1268.86 24.075 1269.83 24.425 1271.03 24.425C1272.23 24.425 1273.18 24.075 1273.88 23.375C1274.63 22.625 1275.01 21.65 1275.01 20.45ZM1362.91 10.7C1362.91 13.5 1361.88 15.875 1359.83 17.825C1357.83 19.775 1355.43 20.75 1352.63 20.75H1347.01C1347.46 21.45 1347.68 22.075 1347.68 22.625C1347.68 23.175 1347.48 23.775 1347.08 24.425H1361.03C1361.68 24.425 1362.23 24.05 1362.68 23.3V29.75C1362.43 28.75 1361.88 28.25 1361.03 28.25H1355.56C1359.26 29.65 1361.08 32.125 1361.03 35.675C1360.88 43.225 1354.56 47 1342.06 47C1337.11 47 1333.01 46.325 1329.76 44.975C1325.26 43.075 1323.01 39.975 1323.01 35.675C1323.01 33.475 1323.61 31.775 1324.81 30.575C1325.36 30.025 1326.58 29.25 1328.48 28.25H1323.08C1322.23 28.25 1321.73 28.575 1321.58 29.225V23.375C1321.88 24.075 1322.43 24.425 1323.23 24.425H1337.48C1337.08 23.775 1336.88 23.175 1336.88 22.625C1336.88 22.075 1337.11 21.45 1337.56 20.75H1324.36C1323.91 20.75 1323.46 20.925 1323.01 21.275C1322.56 21.625 1322.33 22.025 1322.33 22.475V13.25H1352.63C1354.28 13.25 1355.68 12.675 1356.83 11.525C1358.03 10.325 1358.61 8.9 1358.56 7.25C1358.51 5.5 1357.91 4 1356.76 2.75C1355.61 1.5 1354.16 0.874999 1352.41 0.874999L1352.63 0.574999C1355.43 0.574999 1357.83 1.575 1359.83 3.575C1361.88 5.525 1362.91 7.9 1362.91 10.7ZM1352.41 31.925C1352.41 29.475 1348.98 28.25 1342.13 28.25C1335.28 28.25 1331.86 29.475 1331.86 31.925C1331.86 34.425 1335.28 35.675 1342.13 35.675C1348.98 35.675 1352.41 34.425 1352.41 31.925ZM1407 10.7C1407 13.5 1406 15.875 1404 17.825C1402.8 18.925 1401.5 19.725 1400.1 20.225C1404.55 22.875 1406.77 27.5 1406.77 34.1C1406.77 37.85 1405.5 40.95 1402.95 43.4C1400.4 45.8 1397.25 47 1393.5 47C1390.35 47 1387.7 46.5 1385.55 45.5C1382.7 44.15 1381.27 42.075 1381.27 39.275C1381.27 38.525 1381.45 37.4 1381.8 35.9C1382.2 34.35 1382.4 33.2 1382.4 32.45C1382.4 30 1381.17 28.775 1378.72 28.775C1376.17 28.775 1374.9 31.175 1374.9 35.975C1374.9 41.225 1376.32 44.9 1379.17 47H1368.67C1366.67 44.9 1365.67 41.15 1365.67 35.75C1365.67 32 1366.8 29.15 1369.05 27.2C1371.15 25.35 1374.1 24.425 1377.9 24.425C1380.9 24.425 1383.15 25.4 1384.65 27.35C1385.3 28.55 1386.3 30.35 1387.65 32.75C1388.8 34.7 1390.45 35.675 1392.6 35.675C1397.7 35.675 1400.25 33.65 1400.25 29.6C1400.25 23.7 1395.6 20.75 1386.3 20.75H1367.7C1366.55 20.75 1365.87 21.325 1365.67 22.475V13.25H1396.72C1398.37 13.25 1399.77 12.675 1400.92 11.525C1402.12 10.325 1402.7 8.9 1402.65 7.25C1402.6 5.5 1402 4 1400.85 2.75C1399.7 1.5 1398.25 0.874999 1396.5 0.874999L1396.72 0.574999C1399.52 0.574999 1401.92 1.575 1403.92 3.575C1405.97 5.525 1407 7.9 1407 10.7ZM1422.29 64.775C1420.64 66.475 1418.87 67.325 1416.97 67.325C1415.47 67.325 1414.14 66.8 1412.99 65.75C1411.84 64.7 1411.27 63.425 1411.27 61.925C1409.02 63.025 1406.74 63.575 1404.44 63.575C1401.54 63.575 1399.17 62.925 1397.32 61.625C1395.22 60.175 1394.17 58.05 1394.17 55.25C1394.17 52.75 1395.02 50.725 1396.72 49.175C1398.42 47.625 1400.54 46.85 1403.09 46.85C1409.19 46.85 1412.34 50.075 1412.54 56.525C1414.19 55.125 1415.02 52.85 1415.02 49.7C1415.02 47.3 1414.32 45.15 1412.92 43.25C1411.52 41.3 1409.67 40.175 1407.37 39.875L1411.12 32.825C1417.07 36.025 1420.04 40.75 1420.04 47C1420.04 52.3 1418.02 56.625 1413.97 59.975C1414.62 60.925 1415.59 61.4 1416.89 61.4C1419.29 61.4 1421.09 59.6 1422.29 56V64.775ZM1409.77 57.8C1409.77 54.85 1408.17 53.375 1404.97 53.375C1402.92 53.375 1401.89 54.4 1401.89 56.45C1401.89 57.1 1402.32 57.725 1403.17 58.325C1403.97 58.975 1404.72 59.3 1405.42 59.3C1406.62 59.3 1408.07 58.8 1409.77 57.8ZM1463.62 10.7C1463.62 13.05 1462.84 15.15 1461.29 17C1459.79 18.85 1457.89 20.025 1455.59 20.525C1457.44 21.575 1458.79 22.875 1459.64 24.425C1462.14 26.225 1463.39 29.175 1463.39 33.275C1463.39 37.325 1462.42 40.575 1460.47 43.025C1458.37 45.675 1455.34 47 1451.39 47C1449.44 47 1447.67 46.525 1446.07 45.575C1444.32 44.525 1443.24 43.1 1442.84 41.3C1442.24 43.05 1441.12 44.45 1439.47 45.5C1437.82 46.5 1436.04 47 1434.14 47C1430.24 47 1427.24 45.65 1425.14 42.95C1423.24 40.5 1422.29 37.275 1422.29 33.275C1422.29 27.625 1424.44 23.45 1428.74 20.75H1424.32C1423.87 20.75 1423.42 20.95 1422.97 21.35C1422.52 21.7 1422.29 22.075 1422.29 22.475V13.25H1453.34C1454.99 13.25 1456.39 12.675 1457.54 11.525C1458.74 10.325 1459.32 8.9 1459.27 7.25C1459.22 5.5 1458.62 4 1457.47 2.75C1456.32 1.5 1454.87 0.874999 1453.12 0.874999L1453.34 0.574999C1456.14 0.574999 1458.54 1.575 1460.54 3.575C1462.59 5.525 1463.62 7.9 1463.62 10.7ZM1456.12 27.65C1456.12 25.85 1455.17 24.95 1453.27 24.95C1452.52 24.95 1451.87 25.225 1451.32 25.775C1450.82 26.325 1450.57 26.975 1450.57 27.725C1450.57 28.475 1450.82 29.125 1451.32 29.675C1451.87 30.225 1452.52 30.5 1453.27 30.5C1454.07 30.5 1454.74 30.225 1455.29 29.675C1455.84 29.125 1456.12 28.45 1456.12 27.65ZM1456.42 32.975C1454.42 33.825 1452.89 34.225 1451.84 34.175C1449.89 34.125 1448.24 33.65 1446.89 32.75C1445.29 31.65 1444.49 30.175 1444.49 28.325C1444.49 26.425 1445.22 24.95 1446.67 23.9C1448.12 22.8 1449.79 22.275 1451.69 22.325C1449.14 21.125 1446.14 20.6 1442.69 20.75C1434.59 21.05 1430.54 24.125 1430.54 29.975C1430.54 31.775 1431.17 33.175 1432.42 34.175C1433.67 35.175 1435.22 35.675 1437.07 35.675C1440.77 35.675 1442.62 33.725 1442.62 29.825H1443.14C1443.14 33.725 1445.42 35.675 1449.97 35.675C1452.57 35.675 1454.72 34.775 1456.42 32.975ZM1507.48 32C1507.48 36.35 1506.61 39.825 1504.86 42.425C1502.81 45.475 1499.73 47 1495.63 47C1493.73 47 1491.98 46.5 1490.38 45.5C1488.78 44.45 1487.63 43.05 1486.93 41.3C1485.28 45.1 1482.33 47 1478.08 47C1474.38 47 1471.51 46.025 1469.46 44.075C1467.41 42.125 1466.38 39.325 1466.38 35.675C1466.38 28.175 1470.01 24.425 1477.26 24.425C1478.81 24.425 1480.11 24.85 1481.16 25.7C1482.26 26.5 1482.81 27.675 1482.81 29.225C1482.81 32.375 1481.11 33.95 1477.71 33.95C1474.06 33.95 1472.23 32.675 1472.23 30.125C1472.23 28.175 1473.16 26.9 1475.01 26.3C1472.21 27.05 1470.81 28.6 1470.81 30.95C1470.81 34.1 1473.28 35.675 1478.23 35.675C1480.48 35.675 1482.43 35.05 1484.08 33.8C1485.93 32.45 1486.81 30.675 1486.71 28.475H1487.31C1487.16 30.625 1487.86 32.375 1489.41 33.725C1490.96 35.025 1492.83 35.675 1495.03 35.675C1497.23 35.675 1498.93 35 1500.13 33.65C1501.38 32.25 1502.01 30.45 1502.01 28.25C1502.01 25.9 1501.21 24.025 1499.61 22.625C1498.11 21.375 1496.16 20.75 1493.76 20.75H1468.41C1467.16 20.75 1466.48 21.325 1466.38 22.475V13.25H1497.21V17.6C1500.31 17.6 1502.88 19.3 1504.93 22.7C1506.63 25.6 1507.48 28.7 1507.48 32ZM1536.57 30.275C1536.57 41.425 1532.17 47 1523.37 47C1519.42 47 1516.32 46.075 1514.07 44.225C1511.67 42.175 1510.47 39.225 1510.47 35.375C1510.47 27.475 1514.35 23.525 1522.1 23.525C1526.25 23.525 1528.32 25.25 1528.32 28.7C1528.32 30.2 1527.75 31.4 1526.6 32.3C1525.45 33.15 1524.1 33.575 1522.55 33.575C1518.5 33.575 1516.47 32.1 1516.47 29.15C1516.47 27.4 1517.35 26.275 1519.1 25.775C1517.85 25.875 1516.72 26.4 1515.72 27.35C1514.72 28.25 1514.22 29.3 1514.22 30.5C1514.22 32.35 1515.25 33.725 1517.3 34.625C1518.85 35.325 1520.67 35.675 1522.77 35.675C1529.17 35.675 1532.37 33.2 1532.37 28.25C1532.37 25.85 1531.12 23.95 1528.62 22.55C1526.57 21.35 1524.25 20.75 1521.65 20.75H1493.67V13.25H1521.27C1526.12 13.25 1529.92 14.9 1532.67 18.2C1535.27 21.3 1536.57 25.325 1536.57 30.275ZM1580.65 31.625C1580.65 37.675 1579.38 42.8 1576.83 47H1566.4C1568.85 42.6 1570.35 39.75 1570.9 38.45C1572.3 35.15 1573 31.975 1573 28.925C1573 25.375 1572.4 22.225 1571.2 19.475C1569.7 16.025 1567.48 13.95 1564.53 13.25C1565.28 14.3 1565.65 15.45 1565.65 16.7C1565.65 19.4 1564.45 21.425 1562.05 22.775C1560.15 23.875 1557.75 24.425 1554.85 24.425C1553.25 24.425 1551.58 24.075 1549.83 23.375C1547.98 25.025 1547.1 27.55 1547.2 30.95C1547.3 33.5 1547.9 36.25 1549 39.2C1549.45 40.55 1550.58 43.15 1552.38 47H1542.78C1540.63 42.95 1539.55 37.95 1539.55 32C1539.55 27.6 1542.03 24.25 1546.98 21.95C1545.53 20.85 1544.8 19.1 1544.8 16.7C1544.8 14.05 1546.48 12.025 1549.83 10.625C1552.43 9.525 1555.28 8.975 1558.38 8.975C1565.33 8.975 1570.78 11.025 1574.73 15.125C1578.68 19.175 1580.65 24.675 1580.65 31.625ZM1561.75 16.925C1561.75 15.875 1561.33 15 1560.48 14.3C1559.68 13.6 1558.75 13.25 1557.7 13.25C1556.5 13.25 1555.43 13.6 1554.48 14.3C1553.53 15 1553.05 15.925 1553.05 17.075C1553.05 18.225 1553.5 19.125 1554.4 19.775C1555.3 20.425 1556.35 20.75 1557.55 20.75C1558.6 20.75 1559.55 20.375 1560.4 19.625C1561.3 18.875 1561.75 17.975 1561.75 16.925ZM1622.72 31.925C1622.72 36.975 1620.79 40.85 1616.94 43.55C1613.59 45.85 1609.27 47 1603.97 47C1598.72 47 1594.39 45.825 1590.99 43.475C1587.09 40.825 1585.14 36.975 1585.14 31.925C1585.14 29.525 1585.67 27.3 1586.72 25.25C1587.82 23.15 1589.39 21.65 1591.44 20.75H1585.67C1584.52 20.75 1583.84 21.325 1583.64 22.475V13.25H1612.44C1614.09 13.25 1615.49 12.675 1616.64 11.525C1617.84 10.325 1618.42 8.9 1618.37 7.25C1618.32 5.5 1617.72 4 1616.57 2.75C1615.42 1.5 1613.97 0.874999 1612.22 0.874999L1612.44 0.574999C1615.24 0.574999 1617.64 1.575 1619.64 3.575C1621.69 5.525 1622.72 7.9 1622.72 10.7C1622.72 13.5 1621.72 15.875 1619.72 17.825C1618.77 18.725 1617.74 19.4 1616.64 19.85C1618.64 20.85 1620.19 22.575 1621.29 25.025C1622.24 27.225 1622.72 29.525 1622.72 31.925ZM1615.97 28.175C1615.97 25.425 1614.57 23.425 1611.77 22.175C1609.67 21.225 1607.07 20.75 1603.97 20.75C1600.87 20.75 1598.27 21.225 1596.17 22.175C1593.37 23.425 1591.97 25.425 1591.97 28.175C1591.97 30.925 1593.37 32.95 1596.17 34.25C1598.22 35.2 1600.82 35.675 1603.97 35.675C1607.12 35.675 1609.72 35.2 1611.77 34.25C1614.57 32.95 1615.97 30.925 1615.97 28.175ZM1643.46 29.3C1643.51 33.95 1642.73 37.85 1641.13 41C1639.08 45 1635.93 47 1631.68 47C1623.58 47 1619.58 42.375 1619.68 33.125L1621.93 29.6C1621.68 33.65 1624.91 35.675 1631.61 35.675C1637.11 35.675 1639.86 33.2 1639.86 28.25C1639.86 22.95 1637.08 20.45 1631.53 20.75C1629.18 20.85 1627.28 21.825 1625.83 23.675V14.15C1627.58 13.45 1629.41 13.15 1631.31 13.25C1639.31 13.65 1643.36 19 1643.46 29.3ZM1656.76 41.825C1656.76 43.125 1656.21 44.325 1655.11 45.425C1654.06 46.475 1652.88 47 1651.58 47C1650.23 47 1649.03 46.525 1647.98 45.575C1646.98 44.625 1646.48 43.475 1646.48 42.125C1646.48 40.775 1647.03 39.625 1648.13 38.675C1649.23 37.725 1650.46 37.25 1651.81 37.25C1653.06 37.25 1654.18 37.7 1655.18 38.6C1656.23 39.5 1656.76 40.575 1656.76 41.825Z" fill="black"/>
</svg>
