<svg width="1652" height="82" viewBox="0 0 1652 82" fill="none" xmlns="http://www.w3.org/2000/svg">
<path d="M38.775 27.4C40.375 30.3 41.175 33.55 41.175 37.15C41.175 40.55 40.275 43.75 38.475 46.75C36.425 50.25 33.775 52 30.525 52C28.225 52 26.075 50.925 24.075 48.775C22.525 46.975 21.375 44.75 20.625 42.1C19.975 44.75 18.725 47.025 16.875 48.925C14.825 50.975 12.5 52 9.9 52C6.95 52 4.5 50.65 2.55 47.95C0.85 45.4 0 42.625 0 39.625C0 37.475 0.7 35.55 2.1 33.85C3.55 32.2 5.325 31.375 7.425 31.375C9.075 31.375 10.425 31.925 11.475 33.025C12.625 34.125 13.2 35.5 13.2 37.15C13.2 38.5 12.725 39.625 11.775 40.525C10.825 41.425 9.65 41.95 8.25 42.1V40.45C9.9 40 10.725 39.175 10.725 37.975C10.825 36.725 10.45 35.75 9.6 35.05C8.8 34.25 7.8 33.85 6.6 33.85C5.25 33.85 4.1 34.325 3.15 35.275C2.15 36.275 1.65 37.45 1.65 38.8C1.65 40.9 2.475 42.675 4.125 44.125C5.825 45.525 7.75 46.225 9.9 46.225C12.7 46.225 15.1 45.1 17.1 42.85C19 40.7 20.175 38.25 20.625 35.5C21.075 38.05 22.15 40.4 23.85 42.55C25.85 45 28.05 46.225 30.45 46.225C32.95 46.225 35 45.35 36.6 43.6C38.25 41.8 39.075 39.65 39.075 37.15C39.075 31.6 36.775 27.1 32.175 23.65C27.975 20.5 23 18.925 17.25 18.925C14.2 18.925 12.7 18.175 12.75 16.675C12.85 15.475 14.35 14.875 17.25 14.875C22.5 14.875 27.45 16.525 32.1 19.825C34.95 21.775 37.175 24.3 38.775 27.4ZM86.7311 25.3C87.7811 27.3 88.3061 29.6 88.3061 32.2C88.3561 37.7 86.4561 42.375 82.6061 46.225C78.7561 50.075 74.0561 52 68.5061 52C62.9561 52 58.2561 49.975 54.4061 45.925C50.6061 41.825 48.7061 36.975 48.7061 31.375C48.7061 27.325 49.7311 23.675 51.7811 20.425C54.1311 16.725 57.2311 14.875 61.0811 14.875C63.2811 14.875 65.0561 15.7 66.4061 17.35C67.8061 18.95 68.5061 20.875 68.5061 23.125C68.5061 25.225 67.9311 27.075 66.7811 28.675C65.5811 30.475 63.9561 31.375 61.9061 31.375C60.2561 31.375 58.8561 30.675 57.7061 29.275C56.7561 27.975 56.2311 26.475 56.1311 24.775C56.1311 22.825 56.4061 21.45 56.9561 20.65C54.8561 21.4 53.2061 22.825 52.0061 24.925C50.9061 26.875 50.3561 29.025 50.3561 31.375C50.3561 35.825 52.3061 39.475 56.2061 42.325C59.8561 44.925 63.9561 46.225 68.5061 46.225C73.2061 46.225 77.3061 44.95 80.8061 42.4C84.7061 39.55 86.6561 35.875 86.6561 31.375C86.6561 28.025 85.0811 25.35 81.9311 23.35C79.2311 21.55 76.1311 20.65 72.6311 20.65V14.875H79.6061L81.7061 20.65C83.9561 21.4 85.6311 22.95 86.7311 25.3ZM64.7561 25C65.6061 24.3 66.0311 23.4 66.0311 22.3C66.0311 21.25 65.6061 20.45 64.7561 19.9C63.9561 19.3 63.0061 19 61.9061 19C60.8061 19 59.9311 19.3 59.2811 19.9C58.5311 20.5 58.1561 21.3 58.1561 22.3C58.1561 23.35 58.5061 24.225 59.2061 24.925C59.9561 25.675 60.8561 26.05 61.9061 26.05C62.9561 26.05 63.9061 25.7 64.7561 25ZM112.826 21.025C115.826 24.775 117.326 29.375 117.326 34.825C117.326 38.875 116.276 42.625 114.176 46.075C111.726 50.025 108.626 52 104.876 52C101.526 52 98.8758 50.75 96.9258 48.25C95.0758 45.85 94.1508 43 94.1508 39.7C94.1508 37.15 94.5758 34.95 95.4258 33.1C96.5258 30.6 98.1758 29.35 100.376 29.35C101.726 29.35 102.801 29.725 103.601 30.475C104.501 31.225 104.951 32.225 104.951 33.475C104.951 34.475 104.651 35.425 104.051 36.325C103.451 37.175 102.651 37.6 101.651 37.6C100.651 37.6 99.7258 37.275 98.8758 36.625C98.0258 35.875 97.6008 35.025 97.6008 34.075C97.6008 33.825 97.6258 33.575 97.6758 33.325L97.9008 32.65C96.5008 33.95 95.8008 35.9 95.8008 38.5C95.8008 40.75 96.8008 42.65 98.8008 44.2C100.601 45.55 102.701 46.225 105.101 46.225C108.451 46.225 111.101 44.825 113.051 42.025C114.801 39.625 115.676 36.675 115.676 33.175C115.676 29.125 114.001 25.975 110.651 23.725C107.801 21.675 104.251 20.65 100.001 20.65H75.8508V14.875H100.001C105.351 14.875 109.626 16.925 112.826 21.025ZM118.355 59.2C120.105 61.1 120.98 63.425 120.98 66.175C120.98 68.225 120.53 70.075 119.63 71.725C118.58 73.775 117.105 74.8 115.205 74.8C114.255 74.8 113.78 74.325 113.78 73.375C113.78 72.425 114.255 71.95 115.205 71.95C116.355 71.95 117.33 71.55 118.13 70.75C118.93 69.95 119.33 68.975 119.33 67.825C119.33 65.975 118.68 64.425 117.38 63.175C116.13 61.875 114.58 61.225 112.73 61.225C110.48 61.225 108.505 61.9 106.805 63.25C105.105 64.6 104.055 66.4 103.655 68.65C103.255 66.4 102.205 64.625 100.505 63.325C98.8047 61.925 96.8297 61.225 94.5797 61.225C92.8297 61.225 91.3047 61.875 90.0047 63.175C88.7547 64.425 88.0797 65.975 87.9797 67.825C87.9797 68.875 88.3797 69.85 89.1797 70.75C90.0797 71.55 91.0547 71.95 92.1047 71.95C93.0547 71.95 93.5297 72.425 93.5297 73.375C93.5297 74.325 93.0547 74.8 92.1047 74.8C90.3047 74.8 88.8297 73.775 87.6797 71.725C86.7797 70.075 86.3297 68.225 86.3297 66.175C86.3297 63.475 87.1797 61.175 88.8797 59.275C90.6797 57.275 92.8547 56.275 95.4047 56.275C97.6047 56.275 99.4297 57.075 100.88 58.675C102.43 60.375 103.355 62.325 103.655 64.525C104.055 62.225 104.93 60.325 106.28 58.825C107.93 57.125 109.805 56.275 111.905 56.275C114.555 56.275 116.705 57.25 118.355 59.2ZM162.221 26.575C165.021 29.575 166.421 33.1 166.421 37.15C166.421 40.8 165.546 44.05 163.796 46.9C161.746 50.3 159.046 52 155.696 52C153.346 52 151.196 51.075 149.246 49.225C147.646 47.525 146.496 45.425 145.796 42.925C145.146 45.375 143.971 47.45 142.271 49.15C140.471 51.05 138.346 52 135.896 52C132.596 52 129.896 50.3 127.796 46.9C126.046 43.95 125.171 40.7 125.171 37.15C125.171 33.2 126.571 29.675 129.371 26.575C131.971 23.675 135.246 21.7 139.196 20.65H125.171V14.875H157.796C159.496 14.875 160.946 14.425 162.146 13.525C163.396 12.575 164.021 11.275 164.021 9.625C164.021 6.875 163.046 5.05 161.096 4.15L161.921 2.95C165.171 4.35 166.721 6.975 166.571 10.825C166.471 13.525 165.671 15.8 164.171 17.65C162.571 19.65 160.446 20.65 157.796 20.65H152.396C156.446 21.7 159.721 23.675 162.221 26.575ZM160.946 43C162.396 41.1 163.121 38.875 163.121 36.325C163.121 31.675 161.346 27.875 157.796 24.925C154.496 22.075 150.496 20.65 145.796 20.65C141.196 20.65 137.196 22.075 133.796 24.925C130.246 27.925 128.471 31.725 128.471 36.325C128.471 38.775 129.196 41 130.646 43C132.346 45.15 134.371 46.225 136.721 46.225C138.921 46.225 140.871 45.375 142.571 43.675C144.121 42.125 145.196 40.225 145.796 37.975C146.346 40.125 147.421 42.025 149.021 43.675C150.821 45.375 152.771 46.225 154.871 46.225C157.321 46.225 159.346 45.15 160.946 43ZM204.397 26.35C206.197 29.05 207.097 32.1 207.097 35.5C207.097 40.1 205.497 44 202.297 47.2C199.097 50.4 195.197 52 190.597 52C186.097 52 182.197 50.4 178.897 47.2C175.697 43.9 174.097 40 174.097 35.5C174.097 32.05 174.972 29.025 176.722 26.425C178.522 23.625 180.947 21.7 183.997 20.65H174.097V14.875H198.547C200.247 14.875 201.697 14.425 202.897 13.525C204.147 12.575 204.772 11.275 204.772 9.625C204.772 6.875 203.797 5.05 201.847 4.15L202.672 2.95C205.922 4.35 207.472 6.975 207.322 10.825C207.222 13.525 206.422 15.8 204.922 17.65C203.322 19.65 201.197 20.65 198.547 20.65H197.197C200.197 21.65 202.597 23.55 204.397 26.35ZM199.972 42.475C202.522 39.925 203.797 36.775 203.797 33.025C203.797 29.375 202.497 26.425 199.897 24.175C197.347 21.825 194.247 20.65 190.597 20.65C187.047 20.65 183.972 21.8 181.372 24.1C178.722 26.5 177.397 29.475 177.397 33.025C177.397 36.825 178.622 39.975 181.072 42.475C183.672 44.975 186.822 46.225 190.522 46.225C194.322 46.225 197.472 44.975 199.972 42.475ZM251.344 20.425C254.844 24.125 256.594 28.6 256.594 33.85C256.594 38.1 255.719 41.95 253.969 45.4C251.869 49.8 248.894 52 245.044 52C241.794 52 239.169 51 237.169 49C235.269 46.95 234.319 44.25 234.319 40.9C234.319 38.75 235.019 36.9 236.419 35.35C237.819 33.8 239.594 33.025 241.744 33.025C244.544 33.025 245.944 34.3 245.944 36.85C245.944 37.95 245.669 38.925 245.119 39.775C244.519 40.775 243.669 41.275 242.569 41.275C241.619 41.275 240.769 40.85 240.019 40C239.319 39.05 238.969 38.1 238.969 37.15C238.969 36.9 238.994 36.625 239.044 36.325L239.269 35.5C237.619 36.85 236.794 38.5 236.794 40.45C236.794 42.4 237.694 43.9 239.494 44.95C241.044 45.8 242.819 46.225 244.819 46.225C247.919 46.225 250.419 44.9 252.319 42.25C254.069 39.9 254.944 37.1 254.944 33.85C254.944 29.85 253.144 26.575 249.544 24.025C246.344 21.775 242.644 20.65 238.444 20.65C235.144 20.65 232.319 21.85 229.969 24.25C227.619 26.7 226.444 29.625 226.444 33.025C226.444 34.625 226.644 36.55 227.044 38.8C227.494 41.35 227.719 43.275 227.719 44.575C227.719 46.675 226.894 48.45 225.244 49.9C223.544 51.3 221.619 52 219.469 52C216.169 52 213.119 50.45 210.319 47.35C208.019 44.7 206.394 41.575 205.444 37.975V34.675C206.794 37.575 208.419 40.075 210.319 42.175C212.819 44.875 215.319 46.225 217.819 46.225C219.669 46.225 221.319 45.725 222.769 44.725C224.419 43.575 225.244 42.15 225.244 40.45C225.244 38.8 224.969 36.75 224.419 34.3C223.869 31.4 223.594 29.325 223.594 28.075C223.644 24.225 225.194 21.025 228.244 18.475C231.194 16.075 234.594 14.875 238.444 14.875C243.644 14.875 247.944 16.725 251.344 20.425ZM332.603 42.925C335.453 46.575 336.878 50.975 336.878 56.125C336.878 57.225 336.328 57.775 335.228 57.775C334.128 57.775 333.578 57.225 333.578 56.125C333.578 51.275 332.978 47.425 331.778 44.575C328.328 49.525 323.928 52 318.578 52C315.878 52 313.353 51.325 311.003 49.975C308.353 48.375 307.028 46.3 307.028 43.75C307.028 41.05 308.503 38.95 311.453 37.45C313.853 36.15 316.503 35.5 319.403 35.5C323.303 35.5 327.153 37.425 330.953 41.275C333.203 38.625 334.303 34.775 334.253 29.725C334.253 27.075 333.278 24.925 331.328 23.275C329.428 21.525 327.103 20.65 324.353 20.65C319.203 20.65 316.178 23.25 315.278 28.45C314.828 26.05 313.503 24.125 311.303 22.675C309.353 21.325 307.103 20.65 304.553 20.65C302.453 20.65 300.603 21.225 299.003 22.375C297.203 23.575 296.303 25.2 296.303 27.25C296.303 28.8 296.853 30.15 297.953 31.3C299.203 32.45 300.578 33.025 302.078 33.025C302.928 33.025 303.353 33.45 303.353 34.3C303.353 35.1 302.928 35.5 302.078 35.5C299.878 35.5 298.053 34.525 296.603 32.575C295.303 30.725 294.653 28.675 294.653 26.425C294.653 23.475 295.528 20.85 297.278 18.55C299.228 16.1 301.653 14.875 304.553 14.875C306.953 14.875 309.153 15.775 311.153 17.575C313.103 19.125 314.478 21.1 315.278 23.5C316.328 17.75 319.353 14.875 324.353 14.875C327.953 14.875 330.828 16.525 332.978 19.825C334.928 22.675 335.903 25.975 335.903 29.725C335.903 35.425 334.803 39.825 332.603 42.925ZM319.403 46.225C324.003 46.225 327.578 45 330.128 42.55C327.228 38.95 323.653 37.15 319.403 37.15C317.603 37.15 315.878 37.525 314.228 38.275C312.178 39.175 311.153 40.45 311.153 42.1C311.153 43.55 312.228 44.65 314.378 45.4C316.128 45.95 317.803 46.225 319.403 46.225ZM373.952 26.35C375.752 29.05 376.652 32.1 376.652 35.5C376.652 40.1 375.052 44 371.852 47.2C368.652 50.4 364.752 52 360.152 52C355.652 52 351.752 50.4 348.452 47.2C345.252 43.9 343.652 40 343.652 35.5C343.652 32.05 344.527 29.025 346.277 26.425C348.077 23.625 350.502 21.7 353.552 20.65H343.652V14.875H368.102C369.802 14.875 371.252 14.425 372.452 13.525C373.702 12.575 374.327 11.275 374.327 9.625C374.327 6.875 373.352 5.05 371.402 4.15L372.227 2.95C375.477 4.35 377.027 6.975 376.877 10.825C376.777 13.525 375.977 15.8 374.477 17.65C372.877 19.65 370.752 20.65 368.102 20.65H366.752C369.752 21.65 372.152 23.55 373.952 26.35ZM369.527 42.475C372.077 39.925 373.352 36.775 373.352 33.025C373.352 29.375 372.052 26.425 369.452 24.175C366.902 21.825 363.802 20.65 360.152 20.65C356.602 20.65 353.527 21.8 350.927 24.1C348.277 26.5 346.952 29.475 346.952 33.025C346.952 36.825 348.177 39.975 350.627 42.475C353.227 44.975 356.377 46.225 360.077 46.225C363.877 46.225 367.027 44.975 369.527 42.475ZM395.25 21.925C398.05 25.975 399.45 30.5 399.45 35.5C399.45 39.4 398.6 42.95 396.9 46.15C394.8 50.05 391.95 52 388.35 52C385.2 52 382.325 50.55 379.725 47.65C377.675 45.3 376.15 42.35 375.15 38.8V34.675C376.35 37.775 378 40.375 380.1 42.475C382.7 44.975 385.45 46.225 388.35 46.225C391.2 46.225 393.525 44.975 395.325 42.475C396.975 40.225 397.8 37.625 397.8 34.675C397.8 31.225 396.25 28.125 393.15 25.375C390.3 22.775 387.125 21.175 383.625 20.575C382.775 20.425 381.95 20.025 381.15 19.375C380.35 18.575 379.95 17.825 379.95 17.125C379.95 16.425 380.4 15.85 381.3 15.4C382 15.05 382.775 14.875 383.625 14.875C388.325 14.775 392.2 17.125 395.25 21.925ZM476.251 27.4C477.851 30.3 478.651 33.55 478.651 37.15C478.651 40.55 477.751 43.75 475.951 46.75C473.901 50.25 471.251 52 468.001 52C465.701 52 463.551 50.925 461.551 48.775C460.001 46.975 458.851 44.75 458.101 42.1C457.451 44.75 456.201 47.025 454.351 48.925C452.301 50.975 449.976 52 447.376 52C444.426 52 441.976 50.65 440.026 47.95C438.326 45.4 437.476 42.625 437.476 39.625C437.476 37.475 438.176 35.55 439.576 33.85C441.026 32.2 442.801 31.375 444.901 31.375C446.551 31.375 447.901 31.925 448.951 33.025C450.101 34.125 450.676 35.5 450.676 37.15C450.676 38.5 450.201 39.625 449.251 40.525C448.301 41.425 447.126 41.95 445.726 42.1V40.45C447.376 40 448.201 39.175 448.201 37.975C448.301 36.725 447.926 35.75 447.076 35.05C446.276 34.25 445.276 33.85 444.076 33.85C442.726 33.85 441.576 34.325 440.626 35.275C439.626 36.275 439.126 37.45 439.126 38.8C439.126 40.9 439.951 42.675 441.601 44.125C443.301 45.525 445.226 46.225 447.376 46.225C450.176 46.225 452.576 45.1 454.576 42.85C456.476 40.7 457.651 38.25 458.101 35.5C458.551 38.05 459.626 40.4 461.326 42.55C463.326 45 465.526 46.225 467.926 46.225C470.426 46.225 472.476 45.35 474.076 43.6C475.726 41.8 476.551 39.65 476.551 37.15C476.551 31.6 474.251 27.1 469.651 23.65C465.451 20.5 460.476 18.925 454.726 18.925C451.676 18.925 450.176 18.175 450.226 16.675C450.326 15.475 451.826 14.875 454.726 14.875C459.976 14.875 464.926 16.525 469.576 19.825C472.426 21.775 474.651 24.3 476.251 27.4ZM513.407 20.575C516.157 24.125 517.532 28.375 517.532 33.325C517.532 38.175 516.132 42.4 513.332 46C510.332 50 506.507 52 501.857 52C497.257 52 493.407 50 490.307 46C487.557 42.25 486.182 38.025 486.182 33.325C486.182 28.575 487.557 24.325 490.307 20.575C493.357 16.575 497.207 14.575 501.857 14.575C506.607 14.575 510.457 16.575 513.407 20.575ZM511.457 42.475C514.257 39.925 515.632 36.875 515.582 33.325C515.582 29.725 514.207 26.725 511.457 24.325C508.807 21.875 505.607 20.65 501.857 20.65C498.207 20.65 495.032 21.85 492.332 24.25C489.532 26.6 488.132 29.625 488.132 33.325C488.182 36.875 489.557 39.925 492.257 42.475C495.057 44.975 498.257 46.225 501.857 46.225C505.457 46.225 508.657 44.975 511.457 42.475ZM551.4 27.25C555.25 29.3 557.175 33.15 557.175 38.8C557.175 42.7 555.5 45.925 552.15 48.475C549.1 50.825 545.55 52 541.5 52C537.4 52 533.7 50.875 530.4 48.625C526.8 46.075 525 42.8 525 38.8C525 36 525.675 34.075 527.025 33.025L528.3 33.85C527.75 34.3 527.475 35.125 527.475 36.325C527.475 39.525 529.075 42.125 532.275 44.125C535.125 45.825 538.2 46.675 541.5 46.675C544.8 46.675 547.75 45.8 550.35 44.05C553.3 42.05 554.75 39.475 554.7 36.325C554.7 33.175 553.6 30.7 551.4 28.9C550.8 31.3 549.5 33.275 547.5 34.825C545.5 36.375 543.225 37.15 540.675 37.15C539.125 37.15 537.6 36.75 536.1 35.95C534.45 34.95 533.625 33.7 533.625 32.2C533.625 29.85 534.825 27.975 537.225 26.575C539.275 25.375 541.525 24.775 543.975 24.775C546.175 24.775 547.825 25.05 548.925 25.6C548.925 24.05 548.175 22.825 546.675 21.925C545.475 21.075 544.025 20.65 542.325 20.65H525V14.875H548.7V20.65H546.45C548 20.9 549.2 21.65 550.05 22.9C550.95 24.15 551.4 25.6 551.4 27.25ZM545.4 31.525C547.15 30.475 548.325 29.05 548.925 27.25C547.975 26.65 546.325 26.375 543.975 26.425C542.375 26.425 540.825 26.775 539.325 27.475C537.475 28.375 536.55 29.55 536.55 31C536.55 32.35 537.65 33.025 539.85 33.025C542 33.025 543.85 32.525 545.4 31.525ZM581.722 21.025C584.722 24.775 586.222 29.375 586.222 34.825C586.222 38.875 585.172 42.625 583.072 46.075C580.622 50.025 577.522 52 573.772 52C570.422 52 567.772 50.75 565.822 48.25C563.972 45.85 563.047 43 563.047 39.7C563.047 37.15 563.472 34.95 564.322 33.1C565.422 30.6 567.072 29.35 569.272 29.35C570.622 29.35 571.697 29.725 572.497 30.475C573.397 31.225 573.847 32.225 573.847 33.475C573.847 34.475 573.547 35.425 572.947 36.325C572.347 37.175 571.547 37.6 570.547 37.6C569.547 37.6 568.622 37.275 567.772 36.625C566.922 35.875 566.497 35.025 566.497 34.075C566.497 33.825 566.522 33.575 566.572 33.325L566.797 32.65C565.397 33.95 564.697 35.9 564.697 38.5C564.697 40.75 565.697 42.65 567.697 44.2C569.497 45.55 571.597 46.225 573.997 46.225C577.347 46.225 579.997 44.825 581.947 42.025C583.697 39.625 584.572 36.675 584.572 33.175C584.572 29.125 582.897 25.975 579.547 23.725C576.697 21.675 573.147 20.65 568.897 20.65H544.747V14.875H568.897C574.247 14.875 578.522 16.925 581.722 21.025ZM630.751 26.575C633.551 29.575 634.951 33.1 634.951 37.15C634.951 40.8 634.076 44.05 632.326 46.9C630.276 50.3 627.576 52 624.226 52C621.876 52 619.726 51.075 617.776 49.225C616.176 47.525 615.026 45.425 614.326 42.925C613.676 45.375 612.501 47.45 610.801 49.15C609.001 51.05 606.876 52 604.426 52C601.126 52 598.426 50.3 596.326 46.9C594.576 43.95 593.701 40.7 593.701 37.15C593.701 33.2 595.101 29.675 597.901 26.575C600.501 23.675 603.776 21.7 607.726 20.65H593.701V14.875H626.326C628.026 14.875 629.476 14.425 630.676 13.525C631.926 12.575 632.551 11.275 632.551 9.625C632.551 6.875 631.576 5.05 629.626 4.15L630.451 2.95C633.701 4.35 635.251 6.975 635.101 10.825C635.001 13.525 634.201 15.8 632.701 17.65C631.101 19.65 628.976 20.65 626.326 20.65H620.926C624.976 21.7 628.251 23.675 630.751 26.575ZM629.476 43C630.926 41.1 631.651 38.875 631.651 36.325C631.651 31.675 629.876 27.875 626.326 24.925C623.026 22.075 619.026 20.65 614.326 20.65C609.726 20.65 605.726 22.075 602.326 24.925C598.776 27.925 597.001 31.725 597.001 36.325C597.001 38.775 597.726 41 599.176 43C600.876 45.15 602.901 46.225 605.251 46.225C607.451 46.225 609.401 45.375 611.101 43.675C612.651 42.125 613.726 40.225 614.326 37.975C614.876 40.125 615.951 42.025 617.551 43.675C619.351 45.375 621.301 46.225 623.401 46.225C625.851 46.225 627.876 45.15 629.476 43ZM672.927 26.35C674.727 29.05 675.627 32.1 675.627 35.5C675.627 40.1 674.027 44 670.827 47.2C667.627 50.4 663.727 52 659.127 52C654.627 52 650.727 50.4 647.427 47.2C644.227 43.9 642.627 40 642.627 35.5C642.627 32.05 643.502 29.025 645.252 26.425C647.052 23.625 649.477 21.7 652.527 20.65H642.627V14.875H667.077C668.777 14.875 670.227 14.425 671.427 13.525C672.677 12.575 673.302 11.275 673.302 9.625C673.302 6.875 672.327 5.05 670.377 4.15L671.202 2.95C674.452 4.35 676.002 6.975 675.852 10.825C675.752 13.525 674.952 15.8 673.452 17.65C671.852 19.65 669.727 20.65 667.077 20.65H665.727C668.727 21.65 671.127 23.55 672.927 26.35ZM668.502 42.475C671.052 39.925 672.327 36.775 672.327 33.025C672.327 29.375 671.027 26.425 668.427 24.175C665.877 21.825 662.777 20.65 659.127 20.65C655.577 20.65 652.502 21.8 649.902 24.1C647.252 26.5 645.927 29.475 645.927 33.025C645.927 36.825 647.152 39.975 649.602 42.475C652.202 44.975 655.352 46.225 659.052 46.225C662.852 46.225 666.002 44.975 668.502 42.475ZM694.225 21.925C697.025 25.975 698.425 30.5 698.425 35.5C698.425 39.4 697.575 42.95 695.875 46.15C693.775 50.05 690.925 52 687.325 52C684.175 52 681.3 50.55 678.7 47.65C676.65 45.3 675.125 42.35 674.125 38.8V34.675C675.325 37.775 676.975 40.375 679.075 42.475C681.675 44.975 684.425 46.225 687.325 46.225C690.175 46.225 692.5 44.975 694.3 42.475C695.95 40.225 696.775 37.625 696.775 34.675C696.775 31.225 695.225 28.125 692.125 25.375C689.275 22.775 686.1 21.175 682.6 20.575C681.75 20.425 680.925 20.025 680.125 19.375C679.325 18.575 678.925 17.825 678.925 17.125C678.925 16.425 679.375 15.85 680.275 15.4C680.975 15.05 681.75 14.875 682.6 14.875C687.3 14.775 691.175 17.125 694.225 21.925ZM774.4 42.925C777.25 46.575 778.675 50.975 778.675 56.125C778.675 57.225 778.125 57.775 777.025 57.775C775.925 57.775 775.375 57.225 775.375 56.125C775.375 51.275 774.775 47.425 773.575 44.575C770.125 49.525 765.725 52 760.375 52C757.675 52 755.15 51.325 752.8 49.975C750.15 48.375 748.825 46.3 748.825 43.75C748.825 41.05 750.3 38.95 753.25 37.45C755.65 36.15 758.3 35.5 761.2 35.5C765.1 35.5 768.95 37.425 772.75 41.275C775 38.625 776.1 34.775 776.05 29.725C776.05 27.075 775.075 24.925 773.125 23.275C771.225 21.525 768.9 20.65 766.15 20.65C761 20.65 757.975 23.25 757.075 28.45C756.625 26.05 755.3 24.125 753.1 22.675C751.15 21.325 748.9 20.65 746.35 20.65C744.25 20.65 742.4 21.225 740.8 22.375C739 23.575 738.1 25.2 738.1 27.25C738.1 28.8 738.65 30.15 739.75 31.3C741 32.45 742.375 33.025 743.875 33.025C744.725 33.025 745.15 33.45 745.15 34.3C745.15 35.1 744.725 35.5 743.875 35.5C741.675 35.5 739.85 34.525 738.4 32.575C737.1 30.725 736.45 28.675 736.45 26.425C736.45 23.475 737.325 20.85 739.075 18.55C741.025 16.1 743.45 14.875 746.35 14.875C748.75 14.875 750.95 15.775 752.95 17.575C754.9 19.125 756.275 21.1 757.075 23.5C758.125 17.75 761.15 14.875 766.15 14.875C769.75 14.875 772.625 16.525 774.775 19.825C776.725 22.675 777.7 25.975 777.7 29.725C777.7 35.425 776.6 39.825 774.4 42.925ZM761.2 46.225C765.8 46.225 769.375 45 771.925 42.55C769.025 38.95 765.45 37.15 761.2 37.15C759.4 37.15 757.675 37.525 756.025 38.275C753.975 39.175 752.95 40.45 752.95 42.1C752.95 43.55 754.025 44.65 756.175 45.4C757.925 45.95 759.6 46.225 761.2 46.225ZM815.749 26.35C817.549 29.05 818.449 32.1 818.449 35.5C818.449 40.1 816.849 44 813.649 47.2C810.449 50.4 806.549 52 801.949 52C797.449 52 793.549 50.4 790.249 47.2C787.049 43.9 785.449 40 785.449 35.5C785.449 32.05 786.324 29.025 788.074 26.425C789.874 23.625 792.299 21.7 795.349 20.65H785.449V14.875H809.899C811.599 14.875 813.049 14.425 814.249 13.525C815.499 12.575 816.124 11.275 816.124 9.625C816.124 6.875 815.149 5.05 813.199 4.15L814.024 2.95C817.274 4.35 818.824 6.975 818.674 10.825C818.574 13.525 817.774 15.8 816.274 17.65C814.674 19.65 812.549 20.65 809.899 20.65H808.549C811.549 21.65 813.949 23.55 815.749 26.35ZM811.324 42.475C813.874 39.925 815.149 36.775 815.149 33.025C815.149 29.375 813.849 26.425 811.249 24.175C808.699 21.825 805.599 20.65 801.949 20.65C798.399 20.65 795.324 21.8 792.724 24.1C790.074 26.5 788.749 29.475 788.749 33.025C788.749 36.825 789.974 39.975 792.424 42.475C795.024 44.975 798.174 46.225 801.874 46.225C805.674 46.225 808.824 44.975 811.324 42.475ZM837.047 21.925C839.847 25.975 841.247 30.5 841.247 35.5C841.247 39.4 840.397 42.95 838.697 46.15C836.597 50.05 833.747 52 830.147 52C826.997 52 824.122 50.55 821.522 47.65C819.472 45.3 817.947 42.35 816.947 38.8V34.675C818.147 37.775 819.797 40.375 821.897 42.475C824.497 44.975 827.247 46.225 830.147 46.225C832.997 46.225 835.322 44.975 837.122 42.475C838.772 40.225 839.597 37.625 839.597 34.675C839.597 31.225 838.047 28.125 834.947 25.375C832.097 22.775 828.922 21.175 825.422 20.575C824.572 20.425 823.747 20.025 822.947 19.375C822.147 18.575 821.747 17.825 821.747 17.125C821.747 16.425 822.197 15.85 823.097 15.4C823.797 15.05 824.572 14.875 825.422 14.875C830.122 14.775 833.997 17.125 837.047 21.925ZM918.047 27.4C919.647 30.3 920.447 33.55 920.447 37.15C920.447 40.55 919.547 43.75 917.747 46.75C915.697 50.25 913.047 52 909.797 52C907.497 52 905.347 50.925 903.347 48.775C901.797 46.975 900.647 44.75 899.897 42.1C899.247 44.75 897.997 47.025 896.147 48.925C894.097 50.975 891.772 52 889.172 52C886.222 52 883.772 50.65 881.822 47.95C880.122 45.4 879.272 42.625 879.272 39.625C879.272 37.475 879.972 35.55 881.372 33.85C882.822 32.2 884.597 31.375 886.697 31.375C888.347 31.375 889.697 31.925 890.747 33.025C891.897 34.125 892.472 35.5 892.472 37.15C892.472 38.5 891.997 39.625 891.047 40.525C890.097 41.425 888.922 41.95 887.522 42.1V40.45C889.172 40 889.997 39.175 889.997 37.975C890.097 36.725 889.722 35.75 888.872 35.05C888.072 34.25 887.072 33.85 885.872 33.85C884.522 33.85 883.372 34.325 882.422 35.275C881.422 36.275 880.922 37.45 880.922 38.8C880.922 40.9 881.747 42.675 883.397 44.125C885.097 45.525 887.022 46.225 889.172 46.225C891.972 46.225 894.372 45.1 896.372 42.85C898.272 40.7 899.447 38.25 899.897 35.5C900.347 38.05 901.422 40.4 903.122 42.55C905.122 45 907.322 46.225 909.722 46.225C912.222 46.225 914.272 45.35 915.872 43.6C917.522 41.8 918.347 39.65 918.347 37.15C918.347 31.6 916.047 27.1 911.447 23.65C907.247 20.5 902.272 18.925 896.522 18.925C893.472 18.925 891.972 18.175 892.022 16.675C892.122 15.475 893.622 14.875 896.522 14.875C901.772 14.875 906.722 16.525 911.372 19.825C914.222 21.775 916.447 24.3 918.047 27.4ZM955.204 20.575C957.954 24.125 959.329 28.375 959.329 33.325C959.329 38.175 957.929 42.4 955.129 46C952.129 50 948.304 52 943.654 52C939.054 52 935.204 50 932.104 46C929.354 42.25 927.979 38.025 927.979 33.325C927.979 28.575 929.354 24.325 932.104 20.575C935.154 16.575 939.004 14.575 943.654 14.575C948.404 14.575 952.254 16.575 955.204 20.575ZM953.254 42.475C956.054 39.925 957.429 36.875 957.379 33.325C957.379 29.725 956.004 26.725 953.254 24.325C950.604 21.875 947.404 20.65 943.654 20.65C940.004 20.65 936.829 21.85 934.129 24.25C931.329 26.6 929.929 29.625 929.929 33.325C929.979 36.875 931.354 39.925 934.054 42.475C936.854 44.975 940.054 46.225 943.654 46.225C947.254 46.225 950.454 44.975 953.254 42.475ZM1003.85 26.575C1006.65 29.575 1008.05 33.1 1008.05 37.15C1008.05 40.8 1007.17 44.05 1005.42 46.9C1003.37 50.3 1000.67 52 997.322 52C994.972 52 992.822 51.075 990.872 49.225C989.272 47.525 988.122 45.425 987.422 42.925C986.772 45.375 985.597 47.45 983.897 49.15C982.097 51.05 979.972 52 977.522 52C974.222 52 971.522 50.3 969.422 46.9C967.672 43.95 966.797 40.7 966.797 37.15C966.797 33.2 968.197 29.675 970.997 26.575C973.597 23.675 976.872 21.7 980.822 20.65H966.797V14.875H999.347V20.65H994.022C998.072 21.7 1001.35 23.675 1003.85 26.575ZM1002.57 43C1004.02 41.1 1004.75 38.875 1004.75 36.325C1004.75 31.675 1002.97 27.875 999.422 24.925C996.122 22.075 992.122 20.65 987.422 20.65C982.822 20.65 978.822 22.075 975.422 24.925C971.872 27.925 970.097 31.725 970.097 36.325C970.097 38.775 970.822 41 972.272 43C973.972 45.15 975.997 46.225 978.347 46.225C980.547 46.225 982.497 45.375 984.197 43.675C985.747 42.125 986.822 40.225 987.422 37.975C987.972 40.125 989.047 42.025 990.647 43.675C992.447 45.375 994.397 46.225 996.497 46.225C998.947 46.225 1000.97 45.15 1002.57 43ZM1005.68 3.55C1007.33 5.35 1008.15 7.475 1008.15 9.925C1008.15 12.625 1007.4 15.025 1005.9 17.125C1004.25 19.475 1002.13 20.65 999.526 20.65H995.551V14.875H999.901C1001.55 14.875 1003 14.325 1004.25 13.225C1005.5 12.125 1006.13 10.75 1006.13 9.1C1006.13 7.45 1005.5 6 1004.25 4.75C1003.05 3.55 1001.6 2.95 999.901 2.95C1000.75 3.6 1001.18 4.7 1001.18 6.25C1001.18 7.3 1000.83 8.25 1000.13 9.1C999.376 9.95 998.476 10.375 997.426 10.375C996.226 10.375 995.251 10 994.501 9.25C993.701 8.3 993.301 7.3 993.301 6.25C993.301 4.6 993.926 3.3 995.176 2.35C996.476 1.35 997.926 0.849997 999.526 0.849997C1001.98 0.849997 1004.03 1.75 1005.68 3.55ZM1042.95 20.575C1045.7 24.125 1047.07 28.375 1047.07 33.325C1047.07 38.175 1045.67 42.4 1042.87 46C1039.87 50 1036.05 52 1031.4 52C1026.8 52 1022.95 50 1019.85 46C1017.1 42.25 1015.72 38.025 1015.72 33.325C1015.72 28.575 1017.1 24.325 1019.85 20.575C1022.9 16.575 1026.75 14.575 1031.4 14.575C1036.15 14.575 1040 16.575 1042.95 20.575ZM1041 42.475C1043.8 39.925 1045.17 36.875 1045.12 33.325C1045.12 29.725 1043.75 26.725 1041 24.325C1038.35 21.875 1035.15 20.65 1031.4 20.65C1027.75 20.65 1024.57 21.85 1021.87 24.25C1019.07 26.6 1017.67 29.625 1017.67 33.325C1017.72 36.875 1019.1 39.925 1021.8 42.475C1024.6 44.975 1027.8 46.225 1031.4 46.225C1035 46.225 1038.2 44.975 1041 42.475ZM1089.27 16.975C1093.62 22.725 1095.79 29.45 1095.79 37.15C1095.79 40.8 1094.92 44.05 1093.17 46.9C1091.12 50.3 1088.42 52 1085.07 52C1082.72 52 1080.57 51.075 1078.62 49.225C1077.02 47.525 1075.87 45.425 1075.17 42.925C1074.52 45.375 1073.34 47.45 1071.64 49.15C1069.84 51.05 1067.72 52 1065.27 52C1061.97 52 1059.27 50.3 1057.17 46.9C1055.42 43.95 1054.54 40.7 1054.54 37.15C1054.54 33.55 1055.24 30.2 1056.64 27.1C1058.34 23.6 1060.67 21.175 1063.62 19.825C1062.42 19.825 1061.19 19.55 1059.94 19C1058.54 18.2 1057.84 17.25 1057.84 16.15C1057.89 13.35 1059.47 11.125 1062.57 9.475C1065.22 8.125 1068.04 7.45 1071.04 7.45C1078.49 7.45 1084.57 10.625 1089.27 16.975ZM1075.17 16.525C1082.32 16.575 1088.37 20.15 1093.32 27.25C1092.02 22.35 1089.52 18.425 1085.82 15.475C1082.02 12.325 1077.64 10.75 1072.69 10.75C1070.54 10.75 1068.57 11.1 1066.77 11.8C1064.22 12.7 1062.89 14 1062.79 15.7C1062.79 16.45 1063.29 17.1 1064.29 17.65C1065.24 18 1066.12 18.175 1066.92 18.175C1069.27 16.975 1072.02 16.425 1075.17 16.525ZM1090.32 43C1091.77 41.1 1092.49 38.875 1092.49 36.325C1092.49 31.325 1090.84 27.075 1087.54 23.575C1084.24 19.975 1080.12 18.175 1075.17 18.175C1070.17 18.175 1066.04 19.95 1062.79 23.5C1059.49 27.1 1057.84 31.375 1057.84 36.325C1057.84 38.775 1058.57 41 1060.02 43C1061.72 45.15 1063.74 46.225 1066.09 46.225C1068.29 46.225 1070.24 45.375 1071.94 43.675C1073.49 42.125 1074.57 40.225 1075.17 37.975C1075.72 40.125 1076.79 42.025 1078.39 43.675C1080.19 45.375 1082.14 46.225 1084.24 46.225C1086.69 46.225 1088.72 45.15 1090.32 43ZM1131.9 2.95C1134.95 4.3 1136.5 6.925 1136.55 10.825C1136.6 13.425 1135.72 15.8 1133.92 17.95C1132.37 19.75 1130.32 20.65 1127.77 20.65H1123.95C1128.2 23.1 1131.37 26.925 1133.47 32.125C1135.37 36.525 1136.32 41.5 1136.32 47.05V52H1130.55V43.75C1130.55 38.9 1129.82 34.3 1128.37 29.95C1126.42 23.75 1123.57 20.65 1119.82 20.65C1116.12 20.65 1113.27 23.75 1111.27 29.95C1109.82 34.55 1109.1 39.15 1109.1 43.75V52H1103.32V47.05C1103.32 41.65 1104.27 36.675 1106.17 32.125C1108.37 26.875 1111.55 23.05 1115.7 20.65H1103.32V14.875H1127.77C1129.47 14.875 1130.92 14.425 1132.12 13.525C1133.37 12.575 1134 11.275 1134 9.625C1134 6.875 1133.02 5.05 1131.07 4.15L1131.9 2.95ZM1180.35 20.425C1183.85 24.125 1185.6 28.6 1185.6 33.85C1185.6 38.1 1184.72 41.95 1182.97 45.4C1180.87 49.8 1177.9 52 1174.05 52C1170.8 52 1168.17 51 1166.17 49C1164.27 46.95 1163.32 44.25 1163.32 40.9C1163.32 38.75 1164.02 36.9 1165.42 35.35C1166.82 33.8 1168.6 33.025 1170.75 33.025C1173.55 33.025 1174.95 34.3 1174.95 36.85C1174.95 37.95 1174.67 38.925 1174.12 39.775C1173.52 40.775 1172.67 41.275 1171.57 41.275C1170.62 41.275 1169.77 40.85 1169.02 40C1168.32 39.05 1167.97 38.1 1167.97 37.15C1167.97 36.9 1168 36.625 1168.05 36.325L1168.27 35.5C1166.62 36.85 1165.8 38.5 1165.8 40.45C1165.8 42.4 1166.7 43.9 1168.5 44.95C1170.05 45.8 1171.82 46.225 1173.82 46.225C1176.92 46.225 1179.42 44.9 1181.32 42.25C1183.07 39.9 1183.95 37.1 1183.95 33.85C1183.95 29.85 1182.15 26.575 1178.55 24.025C1175.35 21.775 1171.65 20.65 1167.45 20.65C1164.15 20.65 1161.32 21.85 1158.97 24.25C1156.62 26.7 1155.45 29.625 1155.45 33.025C1155.45 34.625 1155.65 36.55 1156.05 38.8C1156.5 41.35 1156.72 43.275 1156.72 44.575C1156.72 46.675 1155.9 48.45 1154.25 49.9C1152.55 51.3 1150.62 52 1148.47 52C1145.17 52 1142.12 50.45 1139.32 47.35C1137.02 44.7 1135.4 41.575 1134.45 37.975V34.675C1135.8 37.575 1137.42 40.075 1139.32 42.175C1141.82 44.875 1144.32 46.225 1146.82 46.225C1148.67 46.225 1150.32 45.725 1151.77 44.725C1153.42 43.575 1154.25 42.15 1154.25 40.45C1154.25 38.8 1153.97 36.75 1153.42 34.3C1152.87 31.4 1152.6 29.325 1152.6 28.075C1152.65 24.225 1154.2 21.025 1157.25 18.475C1160.2 16.075 1163.6 14.875 1167.45 14.875C1172.65 14.875 1176.95 16.725 1180.35 20.425ZM1252.16 17.5C1256.81 23.55 1259.13 30.65 1259.13 38.8C1259.13 42.05 1258.36 44.925 1256.81 47.425C1254.96 50.475 1252.56 52 1249.61 52C1247.66 52 1245.66 50.65 1243.61 47.95C1242.16 45.85 1241.01 43.6 1240.16 41.2C1239.01 37.95 1236.53 36.325 1232.73 36.325C1230.68 36.325 1228.93 37.05 1227.48 38.5C1226.03 39.95 1225.31 41.7 1225.31 43.75C1225.31 44.95 1227.51 47.15 1231.91 50.35C1233.81 52.1 1234.76 53.325 1234.76 54.025C1234.76 55.075 1234.01 55.6 1232.51 55.6L1231.08 55.3C1228.58 54.4 1226.66 52.475 1225.31 49.525C1224.21 46.925 1223.66 44.175 1223.66 41.275C1223.66 38.575 1224.46 36.15 1226.06 34C1227.86 31.7 1230.08 30.55 1232.73 30.55C1235.48 30.55 1238.23 33.575 1240.98 39.625C1243.08 44.025 1245.83 46.225 1249.23 46.225C1251.58 46.225 1253.43 45.1 1254.78 42.85C1256.03 40.95 1256.66 38.775 1256.66 36.325C1256.66 29.825 1254.66 24.15 1250.66 19.3C1246.46 14.15 1241.16 11.575 1234.76 11.575C1235.61 12.275 1236.03 13.375 1236.03 14.875C1236.08 16.425 1235.53 17.775 1234.38 18.925C1233.23 20.075 1231.86 20.65 1230.26 20.65C1228.56 20.65 1227.03 20.125 1225.68 19.075C1224.33 17.925 1223.66 16.525 1223.66 14.875C1223.66 12.575 1224.63 10.75 1226.58 9.4C1228.33 8.1 1230.38 7.45 1232.73 7.45C1240.63 7.45 1247.11 10.8 1252.16 17.5ZM1233.03 17.8C1233.83 16.9 1234.23 15.925 1234.23 14.875C1234.28 13.725 1233.93 12.8 1233.18 12.1C1232.38 11.3 1231.41 10.9 1230.26 10.9C1229.11 10.8 1228.18 11.15 1227.48 11.95C1226.78 12.65 1226.38 13.625 1226.28 14.875C1226.28 16.025 1226.63 16.95 1227.33 17.65C1228.13 18.35 1229.11 18.75 1230.26 18.85C1231.41 18.85 1232.33 18.5 1233.03 17.8ZM1283.98 17.05C1285.33 18.55 1286 20.3 1286 22.3C1286 24.7 1285.45 26.85 1284.35 28.75C1282.95 31.05 1281.18 32.2 1279.03 32.2C1277.18 32.2 1275.65 31.525 1274.45 30.175C1273.25 28.725 1272.65 27.075 1272.65 25.225C1272.65 23.575 1273.13 22.05 1274.08 20.65C1270.23 23 1268.3 26.575 1268.3 31.375C1268.3 37.775 1273.53 44.65 1283.98 52H1275.28C1269.53 47.15 1266.65 40.275 1266.65 31.375C1266.65 27.325 1267.68 23.7 1269.73 20.5C1272.13 16.75 1275.23 14.875 1279.03 14.875C1281.03 14.875 1282.68 15.6 1283.98 17.05ZM1282.85 27.4C1283.6 26.35 1283.98 25.2 1283.98 23.95C1283.98 22.75 1283.58 21.775 1282.78 21.025C1282.03 20.225 1281.05 19.825 1279.85 19.825C1278.65 19.825 1277.53 20.2 1276.48 20.95C1275.43 21.7 1274.9 22.7 1274.9 23.95C1274.9 25.25 1275.38 26.4 1276.33 27.4C1277.43 28.4 1278.6 28.9 1279.85 28.9C1281.15 28.9 1282.15 28.4 1282.85 27.4ZM1343.35 44.05C1344.8 42.6 1345.52 40.85 1345.52 38.8C1345.52 36.55 1344.82 34.625 1343.42 33.025C1342.07 31.375 1340.3 30.55 1338.1 30.55C1336 30.55 1334.22 31.375 1332.77 33.025C1331.37 34.725 1330.67 36.65 1330.67 38.8C1330.67 40.75 1331.4 42.5 1332.85 44.05C1334.4 45.5 1336.15 46.225 1338.1 46.225C1340.15 46.225 1341.9 45.5 1343.35 44.05ZM1348 2.95C1351.25 4.35 1352.8 6.975 1352.65 10.825C1352.55 13.525 1351.75 15.8 1350.25 17.65C1348.65 19.65 1346.52 20.65 1343.87 20.65H1339.75C1340.15 21.2 1340.35 21.925 1340.35 22.825C1340.35 23.925 1340 24.85 1339.3 25.6H1351.3V30.55H1343.05C1344.95 31.4 1346.37 32.725 1347.32 34.525C1348.32 36.225 1348.82 38.2 1348.82 40.45C1348.82 43.6 1347.8 46.3 1345.75 48.55C1343.7 50.85 1341.15 52 1338.1 52C1335.15 52 1332.6 50.85 1330.45 48.55C1328.4 46.2 1327.37 43.5 1327.37 40.45C1327.37 35.65 1329.3 32.35 1333.15 30.55H1324.07V25.6H1336C1336.95 24.85 1337.42 23.875 1337.42 22.675C1337.42 21.875 1337.22 21.2 1336.82 20.65H1324.07V14.875H1343.87C1345.57 14.875 1347.02 14.425 1348.22 13.525C1349.47 12.575 1350.1 11.275 1350.1 9.625C1350.1 6.875 1349.12 5.05 1347.17 4.15L1348 2.95ZM1389.86 27.7C1392.31 30.95 1393.53 34.65 1393.53 38.8C1393.53 42.05 1392.76 44.925 1391.21 47.425C1389.36 50.475 1386.96 52 1384.01 52C1382.06 52 1380.06 50.65 1378.01 47.95C1376.56 45.85 1375.41 43.6 1374.56 41.2C1373.41 37.95 1370.93 36.325 1367.13 36.325C1365.08 36.325 1363.33 37.05 1361.88 38.5C1360.43 39.95 1359.71 41.7 1359.71 43.75C1359.71 46.55 1361.91 48.75 1366.31 50.35C1368.21 51.3 1369.16 52.525 1369.16 54.025C1369.16 55.075 1368.41 55.6 1366.91 55.6L1365.48 55.3C1362.98 54.4 1361.06 52.475 1359.71 49.525C1358.61 46.925 1358.06 44.175 1358.06 41.275C1358.06 38.575 1358.86 36.15 1360.46 34C1362.26 31.7 1364.48 30.55 1367.13 30.55C1368.93 30.55 1370.66 31.675 1372.31 33.925C1373.66 35.675 1374.68 37.575 1375.38 39.625C1376.13 41.525 1377.21 43.1 1378.61 44.35C1380.16 45.6 1381.83 46.225 1383.63 46.225C1385.78 46.225 1387.46 45.05 1388.66 42.7C1389.71 40.75 1390.23 38.625 1390.23 36.325C1390.23 32.325 1388.73 28.825 1385.73 25.825C1382.98 23.025 1379.53 21.3 1375.38 20.65H1358.06V14.875H1384.83C1386.53 14.875 1387.98 14.425 1389.18 13.525C1390.43 12.575 1391.06 11.275 1391.06 9.625C1391.06 6.875 1390.08 5.05 1388.13 4.15L1388.96 2.95C1392.21 4.35 1393.76 6.975 1393.61 10.825C1393.51 13.475 1392.76 15.7 1391.36 17.5C1389.86 19.45 1387.83 20.5 1385.28 20.65H1380.33C1384.33 22.1 1387.51 24.45 1389.86 27.7ZM1408.85 73.825C1410.35 75.325 1412.57 76.075 1415.52 76.075C1415.02 79.375 1413.92 81.025 1412.22 81.025C1409.37 81.025 1407.27 79.7 1405.92 77.05L1403.22 69.4C1400.02 72.05 1397.05 73.375 1394.3 73.375C1392.3 73.375 1390.45 72.75 1388.75 71.5C1387.1 70.2 1386.27 68.575 1386.27 66.625C1386.27 64.675 1387.3 63.25 1389.35 62.35C1391 61.6 1392.87 61.225 1394.97 61.225C1398.47 61.225 1401.45 62.725 1403.9 65.725C1405.65 64.125 1406.52 62.05 1406.52 59.5C1406.52 56.5 1405.92 54.025 1404.72 52.075C1404.12 50.925 1403 49.65 1401.35 48.25C1400.1 47 1399.47 46.075 1399.47 45.475C1399.47 44.675 1399.85 44.275 1400.6 44.275C1403.4 44.275 1405.47 46.05 1406.82 49.6C1407.82 52 1408.27 54.975 1408.17 58.525C1408.17 62.025 1407.07 65.1 1404.87 67.75L1406.45 70.225C1407 71.025 1407.4 71.65 1407.65 72.1C1408.3 73.1 1408.7 73.675 1408.85 73.825ZM1394.3 69.25C1397.6 69.25 1400.3 68.35 1402.4 66.55C1400.15 63.85 1397.67 62.5 1394.97 62.5C1390.92 62.5 1388.9 63.6 1388.9 65.8C1388.9 66.8 1389.55 67.675 1390.85 68.425C1392.05 68.975 1393.2 69.25 1394.3 69.25ZM1441.57 34.3C1443.47 34.3 1445.25 33.325 1446.9 31.375C1444.95 29.625 1443.17 28.8 1441.57 28.9C1440.77 28.9 1440.02 29.175 1439.32 29.725C1438.62 30.275 1438.27 30.975 1438.27 31.825C1438.27 32.575 1438.62 33.175 1439.32 33.625C1440.07 34.075 1440.82 34.3 1441.57 34.3ZM1449.15 43.975C1450.7 42.425 1451.47 40.4 1451.47 37.9C1451.47 36.3 1450.65 34.95 1449 33.85C1446.95 36.6 1444.47 37.975 1441.57 37.975C1440.02 37.975 1438.67 37.475 1437.52 36.475C1436.37 35.425 1435.8 34.15 1435.8 32.65C1435.8 31.1 1436.37 29.9 1437.52 29.05C1438.72 28.15 1440.07 27.7 1441.57 27.7C1443.77 27.7 1445.7 28.375 1447.35 29.725C1447.5 29.275 1447.57 28.875 1447.57 28.525C1447.57 25.975 1445.72 23.95 1442.02 22.45C1439.17 21.25 1436.27 20.65 1433.32 20.65C1428.82 20.65 1424.87 21.975 1421.47 24.625C1417.82 27.525 1416 31.15 1416 35.5C1416 37.9 1416.55 40.2 1417.65 42.4C1419 44.95 1420.8 46.225 1423.05 46.225C1425.6 46.225 1427.9 45.075 1429.95 42.775C1431.75 40.675 1432.87 38.3 1433.32 35.65C1433.92 38.4 1434.97 40.775 1436.47 42.775C1438.47 45.075 1440.7 46.225 1443.15 46.225C1445.65 46.225 1447.65 45.475 1449.15 43.975ZM1449.45 2.95C1452.7 4.35 1454.25 6.975 1454.1 10.825C1454 13.525 1453.2 15.8 1451.7 17.65C1450.1 19.65 1447.97 20.65 1445.32 20.65H1440.75C1443.35 21.1 1445.62 22.15 1447.57 23.8C1449.87 25.6 1451.02 27.725 1451.02 30.175C1451.02 30.975 1450.9 31.65 1450.65 32.2C1452.9 34 1454 36.475 1453.95 39.625C1453.95 42.975 1453 45.825 1451.1 48.175C1449.15 50.725 1446.5 52 1443.15 52C1440.8 52 1438.67 50.925 1436.77 48.775C1435.22 47.025 1434.07 44.85 1433.32 42.25C1432.72 44.75 1431.45 46.975 1429.5 48.925C1427.35 50.975 1425.05 52 1422.6 52C1419.5 52 1416.97 50.225 1415.02 46.675C1413.47 43.675 1412.7 40.5 1412.7 37.15C1412.7 33.05 1414.02 29.45 1416.67 26.35C1419.37 23.2 1422.72 21.3 1426.72 20.65H1412.7V14.875H1445.32C1447.02 14.875 1448.47 14.425 1449.67 13.525C1450.92 12.575 1451.55 11.275 1451.55 9.625C1451.55 6.875 1450.57 5.05 1448.62 4.15L1449.45 2.95ZM1498.45 26.875C1501.4 30.025 1502.87 33.725 1502.87 37.975C1502.87 41.375 1502.07 44.425 1500.47 47.125C1498.57 50.375 1496.07 52 1492.97 52C1490.27 52 1487.85 51.05 1485.7 49.15C1483.7 47.2 1482.55 44.85 1482.25 42.1C1482.1 44.85 1480.97 47.2 1478.87 49.15C1476.72 51.05 1474.27 52 1471.52 52C1468.57 52 1466.12 50.65 1464.17 47.95C1462.47 45.4 1461.62 42.625 1461.62 39.625C1461.62 37.325 1462.3 35.25 1463.65 33.4C1464.95 31.5 1466.75 30.55 1469.05 30.55C1470.7 30.55 1472.12 31.05 1473.32 32.05C1474.62 33 1475.27 34.3 1475.27 35.95C1475.27 37.4 1474.75 38.65 1473.7 39.7C1472.65 40.75 1471.37 41.275 1469.87 41.275V40.45C1471.52 39.75 1472.35 38.525 1472.35 36.775C1472.35 35.575 1471.95 34.675 1471.15 34.075C1470.4 33.375 1469.42 33.025 1468.22 33.025C1466.82 33.025 1465.65 33.6 1464.7 34.75C1463.75 36 1463.27 37.35 1463.27 38.8C1463.27 40.9 1464.1 42.675 1465.75 44.125C1467.45 45.525 1469.37 46.225 1471.52 46.225C1474.07 46.225 1476.4 45.025 1478.5 42.625C1480.2 40.675 1481.45 38.3 1482.25 35.5C1483 38.25 1484.25 40.65 1486 42.7C1488.1 45.05 1490.42 46.225 1492.97 46.225C1494.97 46.225 1496.6 45.325 1497.85 43.525C1499 41.925 1499.57 40.075 1499.57 37.975C1499.57 33.275 1497.67 29.25 1493.87 25.9C1490.47 22.85 1486.32 21.1 1481.42 20.65H1461.62V14.875H1494.17V20.65H1488.02C1492.17 21.75 1495.65 23.825 1498.45 26.875ZM1527.43 21.025C1530.43 24.775 1531.93 29.375 1531.93 34.825C1531.93 38.875 1530.88 42.625 1528.78 46.075C1526.33 50.025 1523.23 52 1519.48 52C1516.13 52 1513.48 50.75 1511.53 48.25C1509.68 45.85 1508.75 43 1508.75 39.7C1508.75 37.15 1509.18 34.95 1510.03 33.1C1511.13 30.6 1512.78 29.35 1514.98 29.35C1516.33 29.35 1517.4 29.725 1518.2 30.475C1519.1 31.225 1519.55 32.225 1519.55 33.475C1519.55 34.475 1519.25 35.425 1518.65 36.325C1518.05 37.175 1517.25 37.6 1516.25 37.6C1515.25 37.6 1514.33 37.275 1513.48 36.625C1512.63 35.875 1512.2 35.025 1512.2 34.075C1512.2 33.825 1512.23 33.575 1512.28 33.325L1512.5 32.65C1511.1 33.95 1510.4 35.9 1510.4 38.5C1510.4 40.75 1511.4 42.65 1513.4 44.2C1515.2 45.55 1517.3 46.225 1519.7 46.225C1523.05 46.225 1525.7 44.825 1527.65 42.025C1529.4 39.625 1530.28 36.675 1530.28 33.175C1530.28 29.125 1528.6 25.975 1525.25 23.725C1522.4 21.675 1518.85 20.65 1514.6 20.65H1490.45V14.875H1514.6C1519.95 14.875 1524.23 16.925 1527.43 21.025ZM1572.4 52H1566.63V43.75C1566.63 38.8 1565.93 34 1564.53 29.35C1562.58 22.75 1559.7 19.45 1555.9 19.45C1552.2 19.45 1549.33 22.75 1547.28 29.35C1545.88 34.25 1545.18 39.05 1545.18 43.75V52H1539.4V47.05C1539.4 41.4 1540.25 36.175 1541.95 31.375C1544.05 25.475 1547.18 21.35 1551.33 19C1549.43 19 1547.48 18.6 1545.48 17.8C1543.08 16.75 1541.88 15.375 1541.88 13.675C1541.88 11.775 1542.95 10.2 1545.1 8.95C1546.8 7.95 1548.75 7.45 1550.95 7.45C1558.15 7.45 1563.73 11.975 1567.68 21.025C1570.83 28.075 1572.4 35.65 1572.4 43.75V52ZM1558.53 17.95C1561.98 19.25 1564.68 21.675 1566.63 25.225C1565.88 21.375 1564.35 18.1 1562.05 15.4C1559.4 12.3 1556.25 10.75 1552.6 10.75C1551.35 10.75 1550.23 11 1549.23 11.5C1547.88 12.1 1547.2 12.95 1547.2 14.05C1547.25 15.2 1548.43 15.975 1550.73 16.375C1554.68 16.975 1557.28 17.5 1558.53 17.95ZM1610.21 26.35C1612.01 29.05 1612.91 32.1 1612.91 35.5C1612.91 40.1 1611.31 44 1608.11 47.2C1604.91 50.4 1601.01 52 1596.41 52C1591.91 52 1588.01 50.4 1584.71 47.2C1581.51 43.9 1579.91 40 1579.91 35.5C1579.91 32.05 1580.78 29.025 1582.53 26.425C1584.33 23.625 1586.76 21.7 1589.81 20.65H1579.91V14.875H1604.36C1606.06 14.875 1607.51 14.425 1608.71 13.525C1609.96 12.575 1610.58 11.275 1610.58 9.625C1610.58 6.875 1609.61 5.05 1607.66 4.15L1608.48 2.95C1611.73 4.35 1613.28 6.975 1613.13 10.825C1613.03 13.525 1612.23 15.8 1610.73 17.65C1609.13 19.65 1607.01 20.65 1604.36 20.65H1603.01C1606.01 21.65 1608.41 23.55 1610.21 26.35ZM1605.78 42.475C1608.33 39.925 1609.61 36.775 1609.61 33.025C1609.61 29.375 1608.31 26.425 1605.71 24.175C1603.16 21.825 1600.06 20.65 1596.41 20.65C1592.86 20.65 1589.78 21.8 1587.18 24.1C1584.53 26.5 1583.21 29.475 1583.21 33.025C1583.21 36.825 1584.43 39.975 1586.88 42.475C1589.48 44.975 1592.63 46.225 1596.33 46.225C1600.13 46.225 1603.28 44.975 1605.78 42.475ZM1631.5 21.925C1634.3 25.975 1635.7 30.5 1635.7 35.5C1635.7 39.4 1634.85 42.95 1633.15 46.15C1631.05 50.05 1628.2 52 1624.6 52C1621.45 52 1618.58 50.55 1615.98 47.65C1613.93 45.3 1612.4 42.35 1611.4 38.8V34.675C1612.6 37.775 1614.25 40.375 1616.35 42.475C1618.95 44.975 1621.7 46.225 1624.6 46.225C1627.45 46.225 1629.78 44.975 1631.58 42.475C1633.23 40.225 1634.05 37.625 1634.05 34.675C1634.05 31.225 1632.5 28.125 1629.4 25.375C1626.55 22.775 1623.38 21.175 1619.88 20.575C1619.03 20.425 1618.2 20.025 1617.4 19.375C1616.6 18.575 1616.2 17.825 1616.2 17.125C1616.2 16.425 1616.65 15.85 1617.55 15.4C1618.25 15.05 1619.03 14.875 1619.88 14.875C1624.58 14.775 1628.45 17.125 1631.5 21.925ZM1647.24 44.65C1650.04 44.65 1651.44 45.975 1651.44 48.625C1651.44 49.725 1651.01 50.675 1650.16 51.475C1649.26 52.275 1648.29 52.675 1647.24 52.675C1646.19 52.675 1645.24 52.3 1644.39 51.55C1643.59 50.65 1643.19 49.675 1643.19 48.625C1643.19 47.475 1643.56 46.525 1644.31 45.775C1645.16 45.025 1646.14 44.65 1647.24 44.65Z" fill="black"/>
</svg>
