<svg width="1562" height="68" viewBox="0 0 1562 68" fill="none" xmlns="http://www.w3.org/2000/svg">
<path d="M40.8 32.4C40.8 35.6 39.275 38.5 36.225 41.1C33.175 43.7 30.025 45 26.775 45C24.325 45 22.2 44.425 20.4 43.275C19.85 42.925 18.2 41.525 15.45 39.075L9.975 45C7.925 45 6.15 44.075 4.65 42.225C3.25 40.525 2.55 38.625 2.55 36.525V31.425C2.55 30.225 1.7 29.625 0 29.625L4.425 25.275C5.975 25.325 7.6 26.1 9.3 27.6C11.05 29.1 12.4 29.925 13.35 30.075L9.525 34.275C7.875 33.775 7.05 33.175 7.05 32.475C6.95 32.925 6.9 33.35 6.9 33.75C6.9 36.8 8.65 38.75 12.15 39.6C13.4 38.05 15.325 35.925 17.925 33.225C19.825 34.775 21.725 36.35 23.625 37.95C25.825 39.5 28.225 40.375 30.825 40.575C31.825 40.675 32.9 40.4 34.05 39.75C35.55 38.95 36.3 37.65 36.3 35.85C36.3 30.8 33.225 26.4 27.075 22.65C21.675 19.35 16.3 17.7 10.95 17.7L15.45 13.275C20.9 13.275 26.325 15.05 31.725 18.6C37.775 22.55 40.8 27.15 40.8 32.4ZM84.1576 32.4C84.1576 34.15 83.5076 35.675 82.2076 36.975C78.1076 41.075 74.9076 43.5 72.6076 44.25C71.0576 44.75 66.9826 45 60.3826 45C56.6326 45 53.2826 43.75 50.3326 41.25C47.3826 38.75 45.9076 35.65 45.9076 31.95V22.95C45.9076 22.45 45.7076 21.95 45.3076 21.45C44.9576 20.9 44.5326 20.625 44.0326 20.625C43.8326 20.625 43.6326 20.7 43.4326 20.85C46.3826 16.5 49.7076 14.325 53.4076 14.325C55.3576 14.325 57.0576 15.075 58.5076 16.575C60.0076 18.025 60.7576 19.725 60.7576 21.675C60.7576 23.775 59.6326 25.9 57.3826 28.05C55.1826 30.2 52.9826 31.425 50.7826 31.725C51.5826 34.225 53.4076 36.35 56.2576 38.1C58.9076 39.75 61.6326 40.575 64.4326 40.575C68.1326 40.575 70.8826 40.425 72.6826 40.125C76.7826 39.425 78.8326 37.95 78.8326 35.7C78.8326 31.85 77.5076 28.525 74.8576 25.725C73.3076 24.125 70.7576 22.275 67.2076 20.175C64.3076 18.475 62.7076 17.125 62.4076 16.125L66.8326 11.7C66.7326 13.4 67.3826 14.25 68.7826 14.25H82.2826L80.7826 18.75H75.9076C81.4076 22.85 84.1576 27.4 84.1576 32.4ZM55.5076 25.5C55.5076 21.6 53.9326 19.4 50.7826 18.9V27.6C52.5826 27.6 53.6076 27.575 53.8576 27.525C54.9576 27.275 55.5076 26.6 55.5076 25.5ZM108.842 29.925C108.842 33.475 107.592 36.825 105.092 39.975C102.442 43.325 99.392 45 95.942 45C93.692 45 91.842 44.125 90.392 42.375C88.992 40.775 88.292 38.825 88.292 36.525V31.425C88.292 30.225 87.442 29.625 85.742 29.625L90.167 25.275C91.717 25.325 93.467 26.225 95.417 27.975C97.417 29.725 98.892 30.675 99.842 30.825L96.017 35.025C95.617 34.875 94.967 34.5 94.067 33.9C93.217 33.25 92.792 32.775 92.792 32.475C92.742 34.775 93.017 36.5 93.617 37.65C94.617 39.6 96.567 40.55 99.467 40.5C101.117 40.45 102.392 39.75 103.292 38.4C104.042 37.2 104.392 35.725 104.342 33.975C104.142 29.125 102.742 25.375 100.142 22.725C97.542 20.075 93.842 18.75 89.042 18.75H68.117L73.067 14.25H94.592C98.442 14.25 101.817 15.925 104.717 19.275C107.467 22.475 108.842 26.025 108.842 29.925ZM110.425 57.6L106.975 60.675C106.975 58.025 106.225 55.75 104.725 53.85C103.075 51.75 100.975 50.7 98.4246 50.7C96.4746 50.7 94.3996 52.575 92.1996 56.325C91.1996 56.325 90.0246 55.65 88.6746 54.3C88.3246 53.95 87.8246 53.425 87.1746 52.725C86.4746 52.025 85.9496 51.5 85.5996 51.15V56.625C85.5996 57.825 86.2496 58.45 87.5496 58.5L84.0996 61.95C82.6496 61.6 81.9246 60.75 81.9246 59.4V51.975C81.9246 51.125 81.5496 50.7 80.7996 50.7L84.2496 47.25C85.3996 47.8 85.8496 48.275 85.5996 48.675C86.4496 47.825 87.1246 47.4 87.6246 47.4C88.2746 47.4 89.1996 48.025 90.3996 49.275C91.7996 50.725 92.7496 51.55 93.2496 51.75C95.4496 48.75 98.1996 47.25 101.5 47.25C104.15 47.25 106.325 48.35 108.025 50.55C109.625 52.55 110.425 54.9 110.425 57.6ZM151.298 32.4C151.298 34.8 150.573 36.725 149.123 38.175C146.023 41.275 144.273 42.95 143.873 43.2C142.173 44.4 139.973 45 137.273 45C134.823 45 132.698 44.425 130.898 43.275C130.348 42.925 128.673 41.525 125.873 39.075L120.473 45C118.423 45 116.648 44.075 115.148 42.225C113.748 40.525 113.048 38.625 113.048 36.525V28.425C113.048 26.625 112.548 25.65 111.548 25.5C112.298 23.65 114.573 21.4 118.373 18.75H116.048C114.548 18.75 113.573 18.65 113.123 18.45C112.423 18.15 111.898 17.375 111.548 16.125L115.973 11.7C116.223 13.4 117.148 14.25 118.748 14.25H147.323C149.323 14.25 150.523 15.175 150.923 17.025L146.498 21.45C146.148 19.65 145.073 18.75 143.273 18.75H140.648C147.748 22.7 151.298 27.25 151.298 32.4ZM146.798 35.85C146.798 31.5 143.748 27.475 137.648 23.775C132.148 20.425 126.898 18.75 121.898 18.75C120.998 18.75 120.048 19.325 119.048 20.475C118.048 21.625 117.548 22.675 117.548 23.625V32.475C117.548 36.425 119.248 38.8 122.648 39.6C123.898 38.05 125.823 35.925 128.423 33.225C130.323 34.775 132.223 36.35 134.123 37.95C136.323 39.5 138.723 40.375 141.323 40.575C142.323 40.675 143.398 40.4 144.548 39.75C146.048 38.95 146.798 37.65 146.798 35.85ZM194.08 17.025L189.655 21.45C189.305 19.65 188.23 18.75 186.43 18.75H183.73C189.93 22.3 193.03 26.325 193.03 30.825C193.03 34.575 191.18 37.925 187.48 40.875C183.98 43.625 180.305 45 176.455 45H168.955C166.455 45 163.805 44.225 161.005 42.675C157.805 40.925 156.205 38.875 156.205 36.525V28.425C156.205 26.725 155.455 25.75 153.955 25.5C154.705 23.6 156.955 21.35 160.705 18.75H158.455C156.955 18.75 155.98 18.65 155.53 18.45C154.83 18.15 154.305 17.375 153.955 16.125L158.38 11.7C158.63 13.4 159.555 14.25 161.155 14.25H190.48C192.48 14.25 193.68 15.175 194.08 17.025ZM188.53 34.875C188.38 30.475 185.58 26.6 180.13 23.25C175.28 20.25 170.53 18.75 165.88 18.75C164.78 18.75 163.63 19.35 162.43 20.55C161.28 21.75 160.705 22.925 160.705 24.075V32.475C160.705 34.775 162.23 36.75 165.28 38.4C167.93 39.85 170.505 40.575 173.005 40.575C177.505 40.575 180.73 40.375 182.68 39.975C186.68 39.175 188.63 37.475 188.53 34.875ZM239.43 29.925C239.43 33.475 238.18 36.825 235.68 39.975C233.03 43.325 229.98 45 226.53 45C224.28 45 222.43 44.125 220.98 42.375C219.58 40.775 218.88 38.825 218.88 36.525V31.425C218.88 30.225 218.03 29.625 216.33 29.625L220.755 25.275C222.305 25.325 224.055 26.225 226.005 27.975C228.005 29.725 229.48 30.675 230.43 30.825L226.605 35.025C226.205 34.875 225.555 34.5 224.655 33.9C223.805 33.25 223.38 32.775 223.38 32.475C223.33 34.775 223.605 36.5 224.205 37.65C225.205 39.6 227.155 40.55 230.055 40.5C231.705 40.45 232.98 39.75 233.88 38.4C234.63 37.2 234.98 35.725 234.93 33.975C234.73 29.125 233.33 25.375 230.73 22.725C228.13 20.075 224.43 18.75 219.63 18.75H207.63C209.58 20.1 211.255 21.825 212.655 23.925C214.355 26.475 215.18 29.05 215.13 31.65C215.08 34.45 214.255 36.675 212.655 38.325C208.255 42.775 203.755 45 199.155 45C196.855 45 194.555 44.175 192.255 42.525C189.805 40.725 188.58 38.7 188.58 36.45L193.005 32.025C193.055 34.375 194.08 36.325 196.08 37.875C197.88 39.275 200.03 40.075 202.53 40.275C204.48 40.425 206.155 40.1 207.555 39.3C209.205 38.35 210.08 36.95 210.18 35.1C210.58 27.9 206.88 22.5 199.08 18.9C198.08 18.45 197.455 18.125 197.205 17.925C196.955 17.675 196.68 17.075 196.38 16.125L200.805 11.7C201.055 13.4 201.98 14.25 203.58 14.25H225.18C229.03 14.25 232.405 15.925 235.305 19.275C238.055 22.475 239.43 26.025 239.43 29.925ZM312.368 42.675L307.943 47.1C304.593 47.05 301.368 45.775 298.268 43.275C295.568 44.425 292.593 45 289.343 45C286.543 45 284.143 44.525 282.143 43.575C279.543 42.375 278.243 40.525 278.243 38.025C278.243 36.775 278.743 35.65 279.743 34.65C283.043 31.35 285.018 29.475 285.668 29.025C287.268 27.925 289.518 27.375 292.418 27.375C293.218 27.375 294.193 27.425 295.343 27.525C296.193 31.825 298.343 35.375 301.793 38.175C304.693 36.175 306.143 34.025 306.143 31.725C306.143 28.275 305.168 25.3 303.218 22.8C301.118 20.1 298.393 18.75 295.043 18.75C292.493 18.75 289.793 21.2 286.943 26.1C285.643 26.1 284.118 25.2 282.368 23.4L278.393 19.35V24.975C278.393 26.525 279.218 27.35 280.868 27.45L276.443 31.875C274.543 31.425 273.593 30.325 273.593 28.575V20.475C273.593 19.375 273.118 18.8 272.168 18.75L276.593 14.325C278.043 14.975 278.643 15.575 278.393 16.125C279.493 15.025 280.368 14.475 281.018 14.475C281.918 14.475 283.118 15.275 284.618 16.875C286.368 18.725 287.593 19.825 288.293 20.175C291.193 16.275 294.768 14.325 299.018 14.325C302.468 14.325 305.293 15.725 307.493 18.525C309.543 21.075 310.568 24.125 310.568 27.675C310.568 30.175 309.918 32.525 308.618 34.725C307.318 36.925 305.593 38.575 303.443 39.675C306.193 41.575 309.168 42.575 312.368 42.675ZM295.343 40.5C293.043 37.8 291.568 34.95 290.918 31.95C290.318 31.85 289.743 31.8 289.193 31.8C287.793 31.8 286.543 32.05 285.443 32.55C284.043 33.25 283.343 34.225 283.343 35.475C283.343 37.275 284.593 38.65 287.093 39.6C288.943 40.25 290.943 40.575 293.093 40.575C293.843 40.575 294.593 40.55 295.343 40.5ZM355.14 17.025L350.715 21.45C350.365 19.65 349.29 18.75 347.49 18.75H344.79C350.99 22.3 354.09 26.325 354.09 30.825C354.09 34.575 352.24 37.925 348.54 40.875C345.04 43.625 341.365 45 337.515 45H330.015C327.515 45 324.865 44.225 322.065 42.675C318.865 40.925 317.265 38.875 317.265 36.525V28.425C317.265 26.725 316.515 25.75 315.015 25.5C315.765 23.6 318.015 21.35 321.765 18.75H319.515C318.015 18.75 317.04 18.65 316.59 18.45C315.89 18.15 315.365 17.375 315.015 16.125L319.44 11.7C319.69 13.4 320.615 14.25 322.215 14.25H351.54C353.54 14.25 354.74 15.175 355.14 17.025ZM349.59 34.875C349.44 30.475 346.64 26.6 341.19 23.25C336.34 20.25 331.59 18.75 326.94 18.75C325.84 18.75 324.69 19.35 323.49 20.55C322.34 21.75 321.765 22.925 321.765 24.075V32.475C321.765 34.775 323.29 36.75 326.34 38.4C328.99 39.85 331.565 40.575 334.065 40.575C338.565 40.575 341.79 40.375 343.74 39.975C347.74 39.175 349.69 37.475 349.59 34.875ZM374.689 31.65C374.639 34.5 373.814 36.725 372.214 38.325C369.764 40.775 368.014 42.35 366.964 43.05C365.014 44.35 362.764 45 360.214 45C357.914 45 355.614 44.175 353.314 42.525C350.864 40.725 349.639 38.7 349.639 36.45L354.064 32.025C354.114 34.425 355.139 36.375 357.139 37.875C358.939 39.275 361.089 40.075 363.589 40.275C367.489 40.625 369.539 38.9 369.739 35.1C369.939 30.65 369.114 27.15 367.264 24.6C365.564 22.3 362.564 20.3 358.264 18.6L362.614 14.325C370.764 17.475 374.789 23.25 374.689 31.65ZM448.246 32.4C448.246 35.6 446.721 38.5 443.671 41.1C440.621 43.7 437.471 45 434.221 45C431.771 45 429.646 44.425 427.846 43.275C427.296 42.925 425.646 41.525 422.896 39.075L417.421 45C415.371 45 413.596 44.075 412.096 42.225C410.696 40.525 409.996 38.625 409.996 36.525V31.425C409.996 30.225 409.146 29.625 407.446 29.625L411.871 25.275C413.421 25.325 415.046 26.1 416.746 27.6C418.496 29.1 419.846 29.925 420.796 30.075L416.971 34.275C415.321 33.775 414.496 33.175 414.496 32.475C414.396 32.925 414.346 33.35 414.346 33.75C414.346 36.8 416.096 38.75 419.596 39.6C420.846 38.05 422.771 35.925 425.371 33.225C427.271 34.775 429.171 36.35 431.071 37.95C433.271 39.5 435.671 40.375 438.271 40.575C439.271 40.675 440.346 40.4 441.496 39.75C442.996 38.95 443.746 37.65 443.746 35.85C443.746 30.8 440.671 26.4 434.521 22.65C429.121 19.35 423.746 17.7 418.396 17.7L422.896 13.275C428.346 13.275 433.771 15.05 439.171 18.6C445.221 22.55 448.246 27.15 448.246 32.4ZM486.354 30.825C486.354 40.275 479.329 45 465.279 45C462.779 45 460.129 44.225 457.329 42.675C454.129 40.925 452.529 38.875 452.529 36.525V27.75C452.529 26.55 451.979 25.7 450.879 25.2C451.229 23.55 453.279 21.325 457.029 18.525C460.829 15.725 463.629 14.325 465.429 14.325C469.979 14.325 474.479 15.875 478.929 18.975C483.879 22.425 486.354 26.375 486.354 30.825ZM481.854 34.875C481.804 30.425 479.404 26.55 474.654 23.25C470.304 20.25 465.879 18.75 461.379 18.75C460.229 18.75 459.204 19.275 458.304 20.325C457.454 21.325 457.029 22.425 457.029 23.625V32.475C457.029 34.775 458.554 36.75 461.604 38.4C464.254 39.85 466.829 40.575 469.329 40.575C473.529 40.575 476.254 40.425 477.504 40.125C480.454 39.425 481.904 37.675 481.854 34.875ZM526.615 32.4C526.615 34.35 525.99 35.95 524.74 37.2C521.14 40.8 518.19 43.025 515.89 43.875C513.84 44.625 510.165 45 504.865 45C500.115 45 496.665 43.65 494.515 40.95C493.465 39.6 492.49 37.125 491.59 33.525C490.94 30.925 490.065 29.625 488.965 29.625L493.39 25.275C494.89 25.625 495.79 26.6 496.09 28.2C496.39 29.75 496.64 31.325 496.84 32.925C497.39 35.025 498.615 36.75 500.515 38.1C502.865 39.75 505.665 40.575 508.915 40.575C512.615 40.575 515.24 40.425 516.79 40.125C520.19 39.475 521.89 38.075 521.89 35.925C521.89 32.925 520.815 30.625 518.665 29.025C516.715 27.575 514.19 26.85 511.09 26.85C508.69 26.85 507.49 27.425 507.49 28.575C507.49 29.575 508.19 30.45 509.59 31.2C510.74 31.85 511.865 32.225 512.965 32.325L508.54 36.75C507.19 36.65 505.965 36.175 504.865 35.325C503.815 34.475 503.29 33.4 503.29 32.1C503.29 30.75 504.115 29.125 505.765 27.225C507.215 25.575 508.665 24.325 510.115 23.475C510.265 20.325 507.49 18.75 501.79 18.75H494.365C492.715 18.75 491.64 18.675 491.14 18.525C490.04 18.175 489.415 17.375 489.265 16.125L493.69 11.7C493.89 13.4 494.815 14.25 496.465 14.25H522.265V18.75H514.615C514.665 20.25 514.19 21.5 513.19 22.5C516.79 22.2 519.84 22.85 522.34 24.45C525.19 26.25 526.615 28.9 526.615 32.4ZM551.298 29.925C551.298 33.475 550.048 36.825 547.548 39.975C544.898 43.325 541.848 45 538.398 45C536.148 45 534.298 44.125 532.848 42.375C531.448 40.775 530.748 38.825 530.748 36.525V31.425C530.748 30.225 529.898 29.625 528.198 29.625L532.623 25.275C534.173 25.325 535.923 26.225 537.873 27.975C539.873 29.725 541.348 30.675 542.298 30.825L538.473 35.025C538.073 34.875 537.423 34.5 536.523 33.9C535.673 33.25 535.248 32.775 535.248 32.475C535.198 34.775 535.473 36.5 536.073 37.65C537.073 39.6 539.023 40.55 541.923 40.5C543.573 40.45 544.848 39.75 545.748 38.4C546.498 37.2 546.848 35.725 546.798 33.975C546.598 29.125 545.198 25.375 542.598 22.725C539.998 20.075 536.298 18.75 531.498 18.75H510.573L515.523 14.25H537.048C540.898 14.25 544.273 15.925 547.173 19.275C549.923 22.475 551.298 26.025 551.298 29.925ZM593.681 32.4C593.681 34.8 592.956 36.725 591.506 38.175C588.406 41.275 586.656 42.95 586.256 43.2C584.556 44.4 582.356 45 579.656 45C577.206 45 575.081 44.425 573.281 43.275C572.731 42.925 571.056 41.525 568.256 39.075L562.856 45C560.806 45 559.031 44.075 557.531 42.225C556.131 40.525 555.431 38.625 555.431 36.525V28.425C555.431 26.625 554.931 25.65 553.931 25.5C554.681 23.65 556.956 21.4 560.756 18.75H558.431C556.931 18.75 555.956 18.65 555.506 18.45C554.806 18.15 554.281 17.375 553.931 16.125L558.356 11.7C558.606 13.4 559.531 14.25 561.131 14.25H589.706C591.706 14.25 592.906 15.175 593.306 17.025L588.881 21.45C588.531 19.65 587.456 18.75 585.656 18.75H583.031C590.131 22.7 593.681 27.25 593.681 32.4ZM589.181 35.85C589.181 31.5 586.131 27.475 580.031 23.775C574.531 20.425 569.281 18.75 564.281 18.75C563.381 18.75 562.431 19.325 561.431 20.475C560.431 21.625 559.931 22.675 559.931 23.625V32.475C559.931 36.425 561.631 38.8 565.031 39.6C566.281 38.05 568.206 35.925 570.806 33.225C572.706 34.775 574.606 36.35 576.506 37.95C578.706 39.5 581.106 40.375 583.706 40.575C584.706 40.675 585.781 40.4 586.931 39.75C588.431 38.95 589.181 37.65 589.181 35.85ZM636.463 17.025L632.038 21.45C631.688 19.65 630.613 18.75 628.813 18.75H626.113C632.313 22.3 635.413 26.325 635.413 30.825C635.413 34.575 633.563 37.925 629.863 40.875C626.363 43.625 622.688 45 618.838 45H611.338C608.838 45 606.188 44.225 603.388 42.675C600.188 40.925 598.588 38.875 598.588 36.525V28.425C598.588 26.725 597.838 25.75 596.338 25.5C597.088 23.6 599.338 21.35 603.088 18.75H600.838C599.338 18.75 598.363 18.65 597.913 18.45C597.213 18.15 596.688 17.375 596.338 16.125L600.763 11.7C601.013 13.4 601.938 14.25 603.538 14.25H632.863C634.863 14.25 636.063 15.175 636.463 17.025ZM630.913 34.875C630.763 30.475 627.963 26.6 622.513 23.25C617.663 20.25 612.913 18.75 608.263 18.75C607.163 18.75 606.013 19.35 604.813 20.55C603.663 21.75 603.088 22.925 603.088 24.075V32.475C603.088 34.775 604.613 36.75 607.663 38.4C610.313 39.85 612.888 40.575 615.388 40.575C619.888 40.575 623.113 40.375 625.063 39.975C629.063 39.175 631.013 37.475 630.913 34.875ZM656.013 31.65C655.963 34.5 655.138 36.725 653.538 38.325C651.088 40.775 649.338 42.35 648.288 43.05C646.338 44.35 644.088 45 641.538 45C639.238 45 636.938 44.175 634.638 42.525C632.188 40.725 630.963 38.7 630.963 36.45L635.388 32.025C635.438 34.425 636.463 36.375 638.463 37.875C640.263 39.275 642.413 40.075 644.913 40.275C648.813 40.625 650.863 38.9 651.063 35.1C651.263 30.65 650.438 27.15 648.588 24.6C646.888 22.3 643.888 20.3 639.588 18.6L643.938 14.325C652.088 17.475 656.113 23.25 656.013 31.65ZM728.97 42.675L724.545 47.1C721.195 47.05 717.97 45.775 714.87 43.275C712.17 44.425 709.195 45 705.945 45C703.145 45 700.745 44.525 698.745 43.575C696.145 42.375 694.845 40.525 694.845 38.025C694.845 36.775 695.345 35.65 696.345 34.65C699.645 31.35 701.62 29.475 702.27 29.025C703.87 27.925 706.12 27.375 709.02 27.375C709.82 27.375 710.795 27.425 711.945 27.525C712.795 31.825 714.945 35.375 718.395 38.175C721.295 36.175 722.745 34.025 722.745 31.725C722.745 28.275 721.77 25.3 719.82 22.8C717.72 20.1 714.995 18.75 711.645 18.75C709.095 18.75 706.395 21.2 703.545 26.1C702.245 26.1 700.72 25.2 698.97 23.4L694.995 19.35V24.975C694.995 26.525 695.82 27.35 697.47 27.45L693.045 31.875C691.145 31.425 690.195 30.325 690.195 28.575V20.475C690.195 19.375 689.72 18.8 688.77 18.75L693.195 14.325C694.645 14.975 695.245 15.575 694.995 16.125C696.095 15.025 696.97 14.475 697.62 14.475C698.52 14.475 699.72 15.275 701.22 16.875C702.97 18.725 704.195 19.825 704.895 20.175C707.795 16.275 711.37 14.325 715.62 14.325C719.07 14.325 721.895 15.725 724.095 18.525C726.145 21.075 727.17 24.125 727.17 27.675C727.17 30.175 726.52 32.525 725.22 34.725C723.92 36.925 722.195 38.575 720.045 39.675C722.795 41.575 725.77 42.575 728.97 42.675ZM711.945 40.5C709.645 37.8 708.17 34.95 707.52 31.95C706.92 31.85 706.345 31.8 705.795 31.8C704.395 31.8 703.145 32.05 702.045 32.55C700.645 33.25 699.945 34.225 699.945 35.475C699.945 37.275 701.195 38.65 703.695 39.6C705.545 40.25 707.545 40.575 709.695 40.575C710.445 40.575 711.195 40.55 711.945 40.5ZM771.741 17.025L767.316 21.45C766.966 19.65 765.891 18.75 764.091 18.75H761.391C767.591 22.3 770.691 26.325 770.691 30.825C770.691 34.575 768.841 37.925 765.141 40.875C761.641 43.625 757.966 45 754.116 45H746.616C744.116 45 741.466 44.225 738.666 42.675C735.466 40.925 733.866 38.875 733.866 36.525V28.425C733.866 26.725 733.116 25.75 731.616 25.5C732.366 23.6 734.616 21.35 738.366 18.75H736.116C734.616 18.75 733.641 18.65 733.191 18.45C732.491 18.15 731.966 17.375 731.616 16.125L736.041 11.7C736.291 13.4 737.216 14.25 738.816 14.25H768.141C770.141 14.25 771.341 15.175 771.741 17.025ZM766.191 34.875C766.041 30.475 763.241 26.6 757.791 23.25C752.941 20.25 748.191 18.75 743.541 18.75C742.441 18.75 741.291 19.35 740.091 20.55C738.941 21.75 738.366 22.925 738.366 24.075V32.475C738.366 34.775 739.891 36.75 742.941 38.4C745.591 39.85 748.166 40.575 750.666 40.575C755.166 40.575 758.391 40.375 760.341 39.975C764.341 39.175 766.291 37.475 766.191 34.875ZM791.291 31.65C791.241 34.5 790.416 36.725 788.816 38.325C786.366 40.775 784.616 42.35 783.566 43.05C781.616 44.35 779.366 45 776.816 45C774.516 45 772.216 44.175 769.916 42.525C767.466 40.725 766.241 38.7 766.241 36.45L770.666 32.025C770.716 34.425 771.741 36.375 773.741 37.875C775.541 39.275 777.691 40.075 780.191 40.275C784.091 40.625 786.141 38.9 786.341 35.1C786.541 30.65 785.716 27.15 783.866 24.6C782.166 22.3 779.166 20.3 774.866 18.6L779.216 14.325C787.366 17.475 791.391 23.25 791.291 31.65ZM864.848 32.4C864.848 35.6 863.323 38.5 860.273 41.1C857.223 43.7 854.073 45 850.823 45C848.373 45 846.248 44.425 844.448 43.275C843.898 42.925 842.248 41.525 839.498 39.075L834.023 45C831.973 45 830.198 44.075 828.698 42.225C827.298 40.525 826.598 38.625 826.598 36.525V31.425C826.598 30.225 825.748 29.625 824.048 29.625L828.473 25.275C830.023 25.325 831.648 26.1 833.348 27.6C835.098 29.1 836.448 29.925 837.398 30.075L833.573 34.275C831.923 33.775 831.098 33.175 831.098 32.475C830.998 32.925 830.948 33.35 830.948 33.75C830.948 36.8 832.698 38.75 836.198 39.6C837.448 38.05 839.373 35.925 841.973 33.225C843.873 34.775 845.773 36.35 847.673 37.95C849.873 39.5 852.273 40.375 854.873 40.575C855.873 40.675 856.948 40.4 858.098 39.75C859.598 38.95 860.348 37.65 860.348 35.85C860.348 30.8 857.273 26.4 851.123 22.65C845.723 19.35 840.348 17.7 834.998 17.7L839.498 13.275C844.948 13.275 850.373 15.05 855.773 18.6C861.823 22.55 864.848 27.15 864.848 32.4ZM902.955 30.825C902.955 40.275 895.93 45 881.88 45C879.38 45 876.73 44.225 873.93 42.675C870.73 40.925 869.13 38.875 869.13 36.525V27.75C869.13 26.55 868.58 25.7 867.48 25.2C867.83 23.55 869.88 21.325 873.63 18.525C877.43 15.725 880.23 14.325 882.03 14.325C886.58 14.325 891.08 15.875 895.53 18.975C900.48 22.425 902.955 26.375 902.955 30.825ZM898.455 34.875C898.405 30.425 896.005 26.55 891.255 23.25C886.905 20.25 882.48 18.75 877.98 18.75C876.83 18.75 875.805 19.275 874.905 20.325C874.055 21.325 873.63 22.425 873.63 23.625V32.475C873.63 34.775 875.155 36.75 878.205 38.4C880.855 39.85 883.43 40.575 885.93 40.575C890.13 40.575 892.855 40.425 894.105 40.125C897.055 39.425 898.505 37.675 898.455 34.875ZM945.316 32.4C945.316 34.8 944.591 36.725 943.141 38.175C940.041 41.275 938.291 42.95 937.891 43.2C936.191 44.4 933.991 45 931.291 45C928.841 45 926.716 44.425 924.916 43.275C924.366 42.925 922.691 41.525 919.891 39.075L914.491 45C912.441 45 910.666 44.075 909.166 42.225C907.766 40.525 907.066 38.625 907.066 36.525V28.425C907.066 26.625 906.566 25.65 905.566 25.5C906.316 23.65 908.591 21.4 912.391 18.75H910.066C908.566 18.75 907.591 18.65 907.141 18.45C906.441 18.15 905.916 17.375 905.566 16.125L909.991 11.7C910.241 13.4 911.166 14.25 912.766 14.25H940.816V18.75H934.666C941.766 22.7 945.316 27.25 945.316 32.4ZM940.816 35.85C940.816 31.5 937.766 27.475 931.666 23.775C926.166 20.425 920.916 18.75 915.916 18.75C915.016 18.75 914.066 19.325 913.066 20.475C912.066 21.625 911.566 22.675 911.566 23.625V32.475C911.566 36.425 913.266 38.8 916.666 39.6C917.916 38.05 919.841 35.925 922.441 33.225C924.341 34.775 926.241 36.35 928.141 37.95C930.341 39.5 932.741 40.375 935.341 40.575C936.341 40.675 937.416 40.4 938.566 39.75C940.066 38.95 940.816 37.65 940.816 35.85ZM948.049 6.975C947.999 10.025 947.224 12.75 945.724 15.15C945.124 16.1 943.724 17.775 941.524 20.175C941.024 19.225 940.074 18.75 938.674 18.75H929.674V14.25H934.549C933.999 12.7 933.249 11.6 932.299 10.95C931.999 10.75 930.624 10.175 928.174 9.225C929.024 7.175 930.724 5.175 933.274 3.225C935.774 1.275 938.074 0.299999 940.174 0.299999C942.424 0.299999 944.274 0.824998 945.724 1.875C947.274 3.075 948.049 4.775 948.049 6.975ZM943.699 11.175C943.699 6.875 941.199 4.725 936.199 4.725C935.199 4.725 934.224 4.875 933.274 5.175C935.374 6.125 936.624 6.75 937.024 7.05C937.974 7.75 938.674 8.9 939.124 10.5L935.374 14.25H943.249C943.549 13.15 943.699 12.125 943.699 11.175ZM983.522 30.825C983.522 40.275 976.497 45 962.447 45C959.947 45 957.297 44.225 954.497 42.675C951.297 40.925 949.697 38.875 949.697 36.525V27.75C949.697 26.55 949.147 25.7 948.047 25.2C948.397 23.55 950.447 21.325 954.197 18.525C957.997 15.725 960.797 14.325 962.597 14.325C967.147 14.325 971.647 15.875 976.097 18.975C981.047 22.425 983.522 26.375 983.522 30.825ZM979.022 34.875C978.972 30.425 976.572 26.55 971.822 23.25C967.472 20.25 963.047 18.75 958.547 18.75C957.397 18.75 956.372 19.275 955.472 20.325C954.622 21.325 954.197 22.425 954.197 23.625V32.475C954.197 34.775 955.722 36.75 958.772 38.4C961.422 39.85 963.997 40.575 966.497 40.575C970.697 40.575 973.422 40.425 974.672 40.125C977.622 39.425 979.072 37.675 979.022 34.875ZM1025.73 32.4C1025.73 35.55 1024.18 38.45 1021.08 41.1C1018.03 43.7 1014.91 45 1011.71 45C1009.26 45 1007.13 44.425 1005.33 43.275C1004.78 42.925 1003.11 41.525 1000.31 39.075L994.908 45C992.858 45 991.083 44.075 989.583 42.225C988.183 40.525 987.483 38.625 987.483 36.525V28.5C987.483 27.45 987.033 26.7 986.133 26.25C987.933 23.4 990.058 21.425 992.508 20.325C992.508 20.475 992.483 18.975 992.433 15.825C992.433 14.725 992.083 13.925 991.383 13.425C993.033 11.925 994.508 10.85 995.808 10.2C998.158 9.05 1001.01 8.5 1004.36 8.55C1008.96 8.65 1013.71 11.5 1018.61 17.1C1023.36 22.6 1025.73 27.7 1025.73 32.4ZM1021.23 35.85C1021.23 31.25 1018.76 26.3 1013.81 21C1008.86 15.7 1004.11 13.05 999.558 13.05C998.008 13.05 997.233 14.1 997.233 16.2C997.233 17.65 997.333 18.5 997.533 18.75C997.883 19.25 998.883 19.5 1000.53 19.5H1010.06C1007.86 22.45 1006.53 23.925 1006.08 23.925H996.483C994.983 23.925 993.908 23.525 993.258 22.725C992.408 23.275 991.983 23.825 991.983 24.375V32.475C991.983 36.425 993.683 38.8 997.083 39.6C998.333 38.05 1000.26 35.925 1002.86 33.225C1004.76 34.775 1006.66 36.35 1008.56 37.95C1010.76 39.5 1013.16 40.375 1015.76 40.575C1016.76 40.675 1017.83 40.4 1018.98 39.75C1020.48 38.95 1021.23 37.65 1021.23 35.85ZM1067.77 17.025L1063.34 21.45C1062.99 19.65 1061.92 18.75 1060.12 18.75H1057.57C1063.72 22.3 1066.82 26.325 1066.87 30.825C1066.87 34.075 1065.97 37.15 1064.17 40.05C1062.07 43.4 1059.49 45.075 1056.44 45.075C1054.44 45.075 1052.59 44.175 1050.89 42.375L1054.87 37.95C1056.22 39.25 1057.57 39.9 1058.92 39.9C1061.27 39.9 1062.39 38.225 1062.29 34.875C1062.14 30.425 1059.34 26.525 1053.89 23.175C1049.09 20.225 1044.37 18.75 1039.72 18.75C1038.62 18.75 1037.47 19.35 1036.27 20.55C1035.12 21.75 1034.54 22.925 1034.54 24.075V33.975C1034.54 37.975 1036.47 40.225 1040.32 40.725L1036.79 45C1032.29 43.5 1030.04 41.175 1030.04 38.025V28.2C1030.04 26.6 1029.49 25.7 1028.39 25.5C1029.14 23.6 1031.39 21.35 1035.14 18.75H1032.89C1031.39 18.75 1030.42 18.65 1029.97 18.45C1029.27 18.15 1028.74 17.375 1028.39 16.125L1032.82 11.7C1033.07 13.4 1033.99 14.25 1035.59 14.25H1064.17C1066.17 14.25 1067.37 15.175 1067.77 17.025ZM1113.28 29.925C1113.28 33.475 1112.03 36.825 1109.53 39.975C1106.88 43.325 1103.83 45 1100.38 45C1098.13 45 1096.28 44.125 1094.83 42.375C1093.43 40.775 1092.73 38.825 1092.73 36.525V31.425C1092.73 30.225 1091.88 29.625 1090.18 29.625L1094.61 25.275C1096.16 25.325 1097.91 26.225 1099.86 27.975C1101.86 29.725 1103.33 30.675 1104.28 30.825L1100.46 35.025C1100.06 34.875 1099.41 34.5 1098.51 33.9C1097.66 33.25 1097.23 32.775 1097.23 32.475C1097.18 34.775 1097.46 36.5 1098.06 37.65C1099.06 39.6 1101.01 40.55 1103.91 40.5C1105.56 40.45 1106.83 39.75 1107.73 38.4C1108.48 37.2 1108.83 35.725 1108.78 33.975C1108.58 29.125 1107.18 25.375 1104.58 22.725C1101.98 20.075 1098.28 18.75 1093.48 18.75H1081.48C1083.43 20.1 1085.11 21.825 1086.51 23.925C1088.21 26.475 1089.03 29.05 1088.98 31.65C1088.93 34.45 1088.11 36.675 1086.51 38.325C1082.11 42.775 1077.61 45 1073.01 45C1070.71 45 1068.41 44.175 1066.11 42.525C1063.66 40.725 1062.43 38.7 1062.43 36.45L1066.86 32.025C1066.91 34.375 1067.93 36.325 1069.93 37.875C1071.73 39.275 1073.88 40.075 1076.38 40.275C1078.33 40.425 1080.01 40.1 1081.41 39.3C1083.06 38.35 1083.93 36.95 1084.03 35.1C1084.43 27.9 1080.73 22.5 1072.93 18.9C1071.93 18.45 1071.31 18.125 1071.06 17.925C1070.81 17.675 1070.53 17.075 1070.23 16.125L1074.66 11.7C1074.91 13.4 1075.83 14.25 1077.43 14.25H1099.03C1102.88 14.25 1106.26 15.925 1109.16 19.275C1111.91 22.475 1113.28 26.025 1113.28 29.925ZM1184.57 32.4C1184.57 35.65 1183.02 38.575 1179.92 41.175C1176.87 43.725 1173.7 45 1170.4 45C1167.1 45 1163.87 43.925 1160.72 41.775C1160.37 41.525 1157.77 39.3 1152.92 35.1V41.625C1152.92 43.825 1153.6 45.6 1154.95 46.95C1156.35 48.3 1158.15 48.975 1160.35 48.975L1155.85 53.4C1154.05 53.4 1152.35 52.65 1150.75 51.15C1149.2 49.65 1148.42 48 1148.42 46.2V33.225C1148.42 32.325 1147.62 31.875 1146.02 31.875L1150.45 27.525C1152.4 27.525 1154.65 28.65 1157.2 30.9C1161.85 35 1164.3 37.1 1164.55 37.2C1167.8 39.5 1171.1 40.625 1174.45 40.575C1178.2 40.525 1180.05 38.775 1180 35.325C1179.95 31.525 1177.12 26.85 1171.52 21.3C1165.92 15.75 1161.22 12.975 1157.42 12.975C1156.52 12.975 1156.07 14.05 1156.07 16.2C1156.07 17.65 1156.17 18.5 1156.37 18.75C1156.72 19.25 1157.72 19.5 1159.37 19.5H1168.9C1166.7 22.45 1165.37 23.925 1164.92 23.925H1155.32C1153.27 23.925 1152.02 23.125 1151.57 21.525C1151.42 20.975 1151.32 19.075 1151.27 15.825C1151.27 14.725 1150.92 13.925 1150.22 13.425C1153.77 10.125 1157.22 8.475 1160.57 8.475C1165.02 8.475 1170.12 11.35 1175.87 17.1C1181.67 22.85 1184.57 27.95 1184.57 32.4ZM1210.66 35.175C1210.66 37.325 1209.36 39.5 1206.76 41.7C1204.16 43.9 1201.76 45 1199.56 45C1196.96 45 1194.73 44.6 1192.88 43.8C1190.33 42.7 1189.06 41.025 1189.06 38.775V25.875C1189.06 23.625 1188.43 22.5 1187.18 22.5C1189.43 19.9 1191.28 18.05 1192.73 16.95C1195.13 15.1 1197.51 14.175 1199.86 14.175C1202.56 14.175 1204.88 14.65 1206.83 15.6C1209.38 16.8 1210.66 18.6 1210.66 21C1210.66 22.6 1210.06 24.025 1208.86 25.275C1206.31 27.925 1204.63 29.55 1203.83 30.15C1201.93 31.5 1199.73 32.175 1197.23 32.175C1195.98 32.175 1194.76 32.025 1193.56 31.725V34.725C1193.56 38.625 1196.91 40.575 1203.61 40.575C1205.41 40.575 1206.31 40 1206.31 38.85C1206.31 38.15 1205.88 37.35 1205.03 36.45L1209.31 32.25C1210.21 33.15 1210.66 34.125 1210.66 35.175ZM1206.23 24.225C1206.23 22.175 1204.93 20.675 1202.33 19.725C1200.48 19.025 1198.31 18.675 1195.81 18.675C1194.71 18.675 1193.68 18.8 1192.73 19.05C1193.28 19.6 1193.58 20.6 1193.63 22.05C1193.58 21.25 1193.56 22.375 1193.56 25.425C1195.66 26.975 1198.11 27.75 1200.91 27.75C1202.26 27.75 1203.41 27.5 1204.36 27C1205.61 26.35 1206.23 25.425 1206.23 24.225ZM1282.88 26.025L1278.46 30.45C1278.21 29.25 1277.73 28.475 1277.03 28.125C1276.53 27.875 1275.61 27.75 1274.26 27.75C1276.61 29.75 1277.78 31.95 1277.78 34.35C1277.78 35.85 1277.26 37.125 1276.21 38.175C1272.71 41.725 1270.03 43.8 1268.18 44.4C1266.98 44.8 1263.51 45 1257.76 45C1252.66 45 1249.41 44.45 1248.01 43.35C1247.41 42.9 1246.86 41.35 1246.36 38.7C1245.86 35.85 1245.01 33.7 1243.81 32.25L1248.31 27.75C1246.86 27.75 1245.83 27.65 1245.23 27.45C1244.13 27.05 1243.51 26.275 1243.36 25.125L1247.78 20.7C1247.98 22.4 1248.83 23.25 1250.33 23.25H1260.76C1260.21 22.2 1259.63 21.175 1259.03 20.175C1258.23 19.225 1257.11 18.75 1255.66 18.75H1246.06C1245.41 18.75 1244.81 18.475 1244.26 17.925C1243.76 17.375 1243.46 16.775 1243.36 16.125L1247.78 11.7C1247.98 13.4 1248.83 14.25 1250.33 14.25H1279.13C1281.13 14.25 1282.33 15.175 1282.73 17.025L1278.31 21.45C1277.96 19.65 1276.88 18.75 1275.08 18.75H1264.96C1265.21 19.05 1265.46 19.325 1265.71 19.575C1266.01 19.975 1266.18 20.425 1266.23 20.925L1263.91 23.25H1279.28C1281.28 23.25 1282.48 24.175 1282.88 26.025ZM1273.28 37.35C1273.28 33.6 1270.76 30.925 1265.71 29.325C1262.46 28.275 1258.33 27.75 1253.33 27.75C1251.73 27.75 1250.26 28.075 1248.91 28.725C1249.56 29.325 1249.96 30.05 1250.11 30.9C1250.11 31.45 1250.11 32.675 1250.11 34.575C1250.11 36.925 1251.76 38.65 1255.06 39.75C1257.36 40.5 1259.96 40.875 1262.86 40.875C1264.86 40.875 1266.83 40.675 1268.78 40.275C1271.78 39.625 1273.28 38.65 1273.28 37.35ZM1250.18 31.425C1250.18 31.225 1250.16 31.05 1250.11 30.9C1250.11 30.65 1250.11 30.525 1250.11 30.525C1250.16 30.475 1250.18 30.525 1250.18 30.675C1250.18 30.825 1250.18 31.075 1250.18 31.425ZM1322.29 17.025L1317.86 21.45C1317.51 19.65 1316.44 18.75 1314.64 18.75H1310.66C1317.76 22.7 1321.31 27.25 1321.31 32.4C1321.31 35.65 1319.79 38.575 1316.74 41.175C1313.74 43.725 1310.59 45 1307.29 45C1303.99 45 1300.76 43.925 1297.61 41.775C1297.26 41.525 1294.66 39.3 1289.81 35.1V40.875C1289.81 43.125 1290.49 45.025 1291.84 46.575C1293.24 48.175 1295.04 48.975 1297.24 48.975L1292.74 53.4C1290.94 53.4 1289.24 52.65 1287.64 51.15C1286.09 49.65 1285.31 48 1285.31 46.2V33.225C1285.31 32.325 1284.51 31.875 1282.91 31.875L1287.34 27.525C1289.29 27.525 1291.54 28.65 1294.09 30.9C1298.74 35 1301.19 37.1 1301.44 37.2C1304.69 39.5 1307.99 40.625 1311.34 40.575C1312.99 40.575 1314.34 40.125 1315.39 39.225C1316.44 38.275 1316.94 36.975 1316.89 35.325C1316.74 29.925 1312.81 25.65 1305.11 22.5C1299.06 20 1292.61 18.75 1285.76 18.75C1284.46 18.75 1283.56 17.875 1283.06 16.125L1287.49 11.7C1287.59 12.7 1288.66 13.55 1290.71 14.25H1318.69C1320.69 14.25 1321.89 15.175 1322.29 17.025ZM1340.65 63.375L1336.68 67.35L1335.78 67.425C1333.78 67.575 1331.43 66.675 1328.73 64.725C1326.88 66.575 1324.85 67.5 1322.65 67.5C1320.3 67.5 1318.15 66.75 1316.2 65.25C1314.25 63.75 1313.25 61.85 1313.2 59.55C1313.15 55.95 1314.53 52.95 1317.33 50.55C1319.93 48.35 1322.43 47.325 1324.83 47.475L1325.88 47.55C1325.88 52.6 1327.35 56.45 1330.3 59.1C1331.4 57.7 1331.95 56.175 1331.95 54.525C1331.95 50.925 1331.33 47.975 1330.08 45.675C1328.98 43.625 1326.93 41.425 1323.93 39.075L1327.68 35.325C1330.78 37.775 1332.88 40.025 1333.98 42.075C1335.23 44.375 1335.85 47.375 1335.85 51.075C1335.85 55.075 1334.73 58.375 1332.48 60.975C1335.08 62.825 1337.8 63.625 1340.65 63.375ZM1327.08 63.3C1323.73 60.2 1322.03 56.225 1321.98 51.375C1319.23 52.425 1317.85 54.15 1317.85 56.55C1317.85 58.75 1318.58 60.45 1320.03 61.65C1321.43 62.85 1323.23 63.45 1325.43 63.45C1325.98 63.45 1326.53 63.4 1327.08 63.3ZM1376.64 32.4C1376.64 35.55 1375.09 38.45 1371.99 41.1C1368.94 43.7 1365.82 45 1362.62 45C1360.22 45 1358.12 44.425 1356.32 43.275C1355.62 42.825 1353.92 41.425 1351.22 39.075C1350.07 40.475 1348.27 42.45 1345.82 45C1343.77 45 1341.99 44.075 1340.49 42.225C1339.09 40.525 1338.39 38.625 1338.39 36.525V28.425C1338.39 26.675 1337.84 25.7 1336.74 25.5C1337.49 23.6 1339.74 21.35 1343.49 18.75H1341.24C1339.74 18.75 1338.77 18.65 1338.32 18.45C1337.62 18.15 1337.09 17.375 1336.74 16.125L1341.17 11.7C1341.42 13.4 1342.34 14.25 1343.94 14.25H1373.19C1374.79 14.45 1375.77 15.375 1376.12 17.025L1371.69 21.45C1371.34 19.65 1370.27 18.75 1368.47 18.75H1362.17C1362.82 19.8 1363.14 20.975 1363.14 22.275C1363.14 23.125 1363.02 24 1362.77 24.9C1364.42 23.25 1366.07 22.425 1367.72 22.425C1370.17 22.425 1372.27 23.475 1374.02 25.575C1375.77 27.675 1376.64 29.95 1376.64 32.4ZM1372.14 36.45C1372.14 34 1371.34 31.8 1369.74 29.85C1368.14 27.85 1366.14 26.85 1363.74 26.85C1362.59 26.85 1362.02 27.175 1362.02 27.825C1362.02 28.325 1362.44 29.025 1363.29 29.925C1363.99 30.675 1364.64 31.225 1365.24 31.575L1360.97 35.925C1358.72 34.575 1357.59 33.225 1357.59 31.875C1357.59 31.225 1357.77 30.275 1358.12 29.025C1358.47 27.725 1358.64 26.75 1358.64 26.1C1358.64 23.45 1357.44 21.5 1355.04 20.25C1353.19 19.25 1350.82 18.75 1347.92 18.75C1346.97 18.75 1345.89 19.25 1344.69 20.25C1343.49 21.2 1342.89 22.075 1342.89 22.875V32.475C1342.89 36.725 1344.54 39.25 1347.84 40.05L1353.62 33.375C1354.92 34.525 1356.87 36.175 1359.47 38.325C1361.47 39.875 1363.87 40.625 1366.67 40.575C1370.32 40.475 1372.14 39.1 1372.14 36.45ZM1420.1 32.4C1420.1 35.6 1418.57 38.5 1415.52 41.1C1412.47 43.7 1409.32 45 1406.07 45C1403.62 45 1401.5 44.425 1399.7 43.275C1399.15 42.925 1397.5 41.525 1394.75 39.075L1389.27 45C1387.22 45 1385.45 44.075 1383.95 42.225C1382.55 40.525 1381.85 38.625 1381.85 36.525V31.425C1381.85 30.225 1381 29.625 1379.3 29.625L1383.72 25.275C1385.27 25.325 1386.9 26.1 1388.6 27.6C1390.35 29.1 1391.7 29.925 1392.65 30.075L1388.82 34.275C1387.17 33.775 1386.35 33.175 1386.35 32.475C1386.25 32.925 1386.2 33.35 1386.2 33.75C1386.2 36.8 1387.95 38.75 1391.45 39.6C1392.7 38.05 1394.62 35.925 1397.22 33.225C1399.12 34.775 1401.02 36.35 1402.92 37.95C1405.12 39.5 1407.52 40.375 1410.12 40.575C1411.12 40.675 1412.2 40.4 1413.35 39.75C1414.85 38.95 1415.6 37.65 1415.6 35.85C1415.6 31.5 1412.55 27.475 1406.45 23.775C1400.95 20.425 1395.7 18.75 1390.7 18.75H1384.7C1383.05 18.75 1381.97 18.675 1381.47 18.525C1380.37 18.175 1379.75 17.375 1379.6 16.125L1384.02 11.7C1384.22 13.4 1385.15 14.25 1386.8 14.25H1415.6V18.75H1409.45C1416.55 22.7 1420.1 27.25 1420.1 32.4ZM1444.78 29.925C1444.78 33.475 1443.53 36.825 1441.03 39.975C1438.38 43.325 1435.33 45 1431.88 45C1429.63 45 1427.78 44.125 1426.33 42.375C1424.93 40.775 1424.23 38.825 1424.23 36.525V31.425C1424.23 30.225 1423.38 29.625 1421.68 29.625L1426.1 25.275C1427.65 25.325 1429.4 26.225 1431.35 27.975C1433.35 29.725 1434.83 30.675 1435.78 30.825L1431.95 35.025C1431.55 34.875 1430.9 34.5 1430 33.9C1429.15 33.25 1428.73 32.775 1428.73 32.475C1428.68 34.775 1428.95 36.5 1429.55 37.65C1430.55 39.6 1432.5 40.55 1435.4 40.5C1437.05 40.45 1438.33 39.75 1439.23 38.4C1439.98 37.2 1440.33 35.725 1440.28 33.975C1440.08 29.125 1438.68 25.375 1436.08 22.725C1433.48 20.075 1429.78 18.75 1424.98 18.75H1404.05L1409 14.25H1430.53C1434.38 14.25 1437.75 15.925 1440.65 19.275C1443.4 22.475 1444.78 26.025 1444.78 29.925ZM1485.89 30.825C1485.89 34.075 1484.99 37.15 1483.19 40.05C1481.09 43.4 1478.51 45.075 1475.46 45.075C1473.46 45.075 1471.61 44.175 1469.91 42.375L1473.89 37.95C1475.24 39.25 1476.59 39.9 1477.94 39.9C1480.24 39.9 1481.36 38.225 1481.31 34.875C1481.21 30.275 1478.91 25.5 1474.41 20.55C1469.91 15.55 1465.39 13.05 1460.84 13.05C1459.29 13.05 1458.51 14.1 1458.51 16.2C1458.51 17.65 1458.61 18.5 1458.81 18.75C1459.16 19.25 1460.16 19.5 1461.81 19.5H1471.34C1469.14 22.45 1467.81 23.925 1467.36 23.925H1457.76C1456.26 23.925 1455.19 23.525 1454.54 22.725C1453.69 23.275 1453.26 23.825 1453.26 24.375V34.125C1453.26 38.025 1455.29 40.225 1459.34 40.725L1455.81 45C1451.11 43.6 1448.76 41.325 1448.76 38.175V28.5C1448.76 27.45 1448.31 26.7 1447.41 26.25C1449.21 23.4 1451.34 21.425 1453.79 20.325C1453.79 20.475 1453.76 18.975 1453.71 15.825C1453.71 14.725 1453.36 13.925 1452.66 13.425C1454.31 11.925 1455.79 10.85 1457.09 10.2C1459.44 9.05 1462.29 8.5 1465.64 8.55C1470.19 8.65 1474.74 11.25 1479.29 16.35C1483.69 21.35 1485.89 26.175 1485.89 30.825ZM1528.63 17.025L1524.2 21.45C1523.85 19.65 1522.78 18.75 1520.98 18.75H1518.28C1524.48 22.3 1527.58 26.325 1527.58 30.825C1527.58 34.575 1525.73 37.925 1522.03 40.875C1518.53 43.625 1514.85 45 1511 45H1503.5C1501 45 1498.35 44.225 1495.55 42.675C1492.35 40.925 1490.75 38.875 1490.75 36.525V28.425C1490.75 26.725 1490 25.75 1488.5 25.5C1489.25 23.6 1491.5 21.35 1495.25 18.75H1493C1491.5 18.75 1490.53 18.65 1490.08 18.45C1489.38 18.15 1488.85 17.375 1488.5 16.125L1492.93 11.7C1493.18 13.4 1494.1 14.25 1495.7 14.25H1525.03C1527.03 14.25 1528.23 15.175 1528.63 17.025ZM1523.08 34.875C1522.93 30.475 1520.13 26.6 1514.68 23.25C1509.83 20.25 1505.08 18.75 1500.43 18.75C1499.33 18.75 1498.18 19.35 1496.98 20.55C1495.83 21.75 1495.25 22.925 1495.25 24.075V32.475C1495.25 34.775 1496.78 36.75 1499.83 38.4C1502.48 39.85 1505.05 40.575 1507.55 40.575C1512.05 40.575 1515.28 40.375 1517.23 39.975C1521.23 39.175 1523.18 37.475 1523.08 34.875ZM1548.18 31.65C1548.13 34.5 1547.3 36.725 1545.7 38.325C1543.25 40.775 1541.5 42.35 1540.45 43.05C1538.5 44.35 1536.25 45 1533.7 45C1531.4 45 1529.1 44.175 1526.8 42.525C1524.35 40.725 1523.13 38.7 1523.13 36.45L1527.55 32.025C1527.6 34.425 1528.63 36.375 1530.63 37.875C1532.43 39.275 1534.58 40.075 1537.08 40.275C1540.98 40.625 1543.03 38.9 1543.23 35.1C1543.43 30.65 1542.6 27.15 1540.75 24.6C1539.05 22.3 1536.05 20.3 1531.75 18.6L1536.1 14.325C1544.25 17.475 1548.28 23.25 1548.18 31.65ZM1561.11 39.825C1561.11 41.125 1560.56 42.325 1559.46 43.425C1558.41 44.475 1557.23 45 1555.93 45C1554.58 45 1553.38 44.525 1552.33 43.575C1551.33 42.625 1550.83 41.475 1550.83 40.125C1550.83 38.775 1551.38 37.625 1552.48 36.675C1553.58 35.725 1554.81 35.25 1556.16 35.25C1557.41 35.25 1558.53 35.7 1559.53 36.6C1560.58 37.5 1561.11 38.575 1561.11 39.825Z" fill="black"/>
</svg>
