<svg width="1714" height="72" viewBox="0 0 1714 72" fill="none" xmlns="http://www.w3.org/2000/svg">
<path d="M41.175 30.775C41.175 34.925 40 38.475 37.65 41.425C35.15 44.575 31.875 46.15 27.825 46.15C24.575 46.15 22.075 45.35 20.325 43.75C19.775 43.25 18.75 41.75 17.25 39.25C16.3 37.65 15.125 36.85 13.725 36.85C11.875 36.85 10.95 38.125 10.95 40.675C10.95 40.925 10.975 41.325 11.025 41.875V43.15C11.025 45.15 10.4 46.15 9.15 46.15C3.05 46.15 0 42.1 0 34C0 31.65 0.6 29.7 1.8 28.15C3.15 26.4 4.95 25.525 7.2 25.525C8.45 25.525 9.075 26.15 9.075 27.4C9.075 28.65 8.45 29.275 7.2 29.275C4.9 29.275 3.75 30.85 3.75 34C3.75 38.25 4.775 40.9 6.825 41.95C6.725 39.7 7.3 37.675 8.55 35.875C9.85 34.025 11.575 33.1 13.725 33.1C16.125 33.1 17.975 33.9 19.275 35.5L22.125 40C23.425 41.6 25.325 42.4 27.825 42.4C30.825 42.4 33.225 41.175 35.025 38.725C36.625 36.525 37.425 33.875 37.425 30.775C37.425 26.575 35.2 23.1 30.75 20.35C27.3 18.2 23.2 16.775 18.45 16.075C17.4 15.925 16.875 15.3 16.875 14.2C16.875 12.75 17.6 12.125 19.05 12.325C24.8 13.175 29.7 15 33.75 17.8C38.7 21.25 41.175 25.575 41.175 30.775ZM86.2225 30.325C86.2225 35.525 84.3725 39.5 80.6725 42.25C77.3225 44.75 72.9725 46 67.6225 46C61.1225 46 55.9475 44.85 52.0975 42.55C47.2975 39.7 44.8975 35.225 44.8975 29.125C44.8975 24.875 45.5475 21.275 46.8475 18.325C48.6475 14.275 51.3725 12.25 55.0225 12.25C59.9725 12.25 62.4475 15 62.4475 20.5C62.4475 22.6 61.5475 24.225 59.7475 25.375C58.1975 26.375 56.3225 26.875 54.1225 26.875C52.8225 26.875 51.5975 26.65 50.4475 26.2C49.6475 25.9 49.2475 25.35 49.2475 24.55C49.2475 23.25 49.8475 22.6 51.0475 22.6C51.3975 22.6 51.9225 22.7 52.6225 22.9C53.3725 23.1 53.9225 23.2 54.2725 23.2C55.1725 23.2 56.1225 22.95 57.1225 22.45C58.1725 21.95 58.6975 21.3 58.6975 20.5C58.6975 18.85 58.4725 17.7 58.0225 17.05C57.5725 16.35 56.5725 16 55.0225 16C52.6225 16 50.8725 17.7 49.7725 21.1C49.0225 23.45 48.6475 26.125 48.6475 29.125C48.6475 37.875 54.9725 42.25 67.6225 42.25C71.9225 42.25 75.3725 41.35 77.9725 39.55C80.9725 37.5 82.4725 34.425 82.4725 30.325C82.4725 27.775 81.8975 25.3 80.7475 22.9C79.7975 20.95 78.6975 19.6 77.4475 18.85C76.8475 18.5 75.2725 17.9 72.7225 17.05C71.1725 16.55 70.0225 16.3 69.2725 16.3C68.4725 16.3 68.0975 16.575 68.1475 17.125C68.1475 17.275 68.3225 17.75 68.6725 18.55C68.8225 18.9 68.8975 19.225 68.8975 19.525C68.8975 20.575 68.3225 21.1 67.1725 21.1C65.3225 21.1 64.3975 19.675 64.3975 16.825C64.3975 13.525 65.9725 12 69.1225 12.25C71.2725 12.75 74.5975 13.375 79.0975 14.125C80.3975 14.225 81.0475 14.925 81.0475 16.225C81.0475 16.425 81.0225 16.625 80.9725 16.825C84.4725 20.775 86.2225 25.275 86.2225 30.325ZM110.959 32.725C110.809 36.425 109.834 39.5 108.034 41.95C105.984 44.75 103.184 46.15 99.634 46.15C92.834 46.15 89.434 42.025 89.434 33.775C89.434 31.025 89.984 28.7 91.084 26.8C92.384 24.4 94.309 23.2 96.859 23.2C98.559 23.2 99.959 23.775 101.059 24.925C102.159 26.075 102.709 27.5 102.709 29.2C102.709 31.15 102.034 32.725 100.684 33.925C99.384 35.075 97.759 35.65 95.809 35.65C94.559 35.65 93.934 35.025 93.934 33.775C93.934 32.525 94.559 31.9 95.809 31.9C97.909 31.9 98.959 31 98.959 29.2C98.959 27.7 98.259 26.95 96.859 26.95C95.509 26.95 94.509 27.8 93.859 29.5C93.409 30.75 93.184 32.175 93.184 33.775C93.184 36.575 93.559 38.625 94.309 39.925C95.309 41.575 97.084 42.4 99.634 42.4C102.084 42.4 103.984 41.325 105.334 39.175C106.484 37.425 107.109 35.225 107.209 32.575C107.509 25.275 105.034 19.825 99.784 16.225C95.984 17.375 89.034 17.95 78.934 17.95C78.734 17.95 76.984 17.775 73.684 17.425L73.759 13.825C76.109 14.075 77.834 14.2 78.934 14.2C89.234 14.2 96.084 13.6 99.484 12.4C99.984 12.2 100.509 12.275 101.059 12.625C108.009 17.025 111.309 23.725 110.959 32.725ZM112.972 57.025C112.972 58.825 112.322 60.9 111.022 63.25C109.572 65.9 107.972 67.225 106.222 67.225C105.022 67.225 104.422 66.575 104.422 65.275C104.422 64.725 104.872 64.1 105.772 63.4C106.872 62.5 107.622 61.75 108.022 61.15C108.822 59.8 109.222 58.425 109.222 57.025C109.222 55.725 108.822 54.425 108.022 53.125C107.222 51.875 106.222 51.075 105.022 50.725C103.722 55.075 100.697 57.25 95.9473 57.25C94.0973 57.25 91.9473 56.175 89.4973 54.025C86.9973 51.925 84.8223 50.875 82.9723 50.875C81.2723 50.875 79.7223 51.375 78.3223 52.375C76.9223 53.375 76.1473 54.675 75.9973 56.275C75.8973 57.525 76.1473 58.975 76.7473 60.625C77.4973 62.425 78.3973 63.55 79.4473 64C80.2973 64.3 80.7223 64.875 80.7223 65.725C80.7223 67.025 80.0973 67.675 78.8473 67.675C76.8473 67.675 75.1473 66.2 73.7473 63.25C72.5473 60.7 72.0473 58.375 72.2473 56.275C72.4973 53.625 73.6723 51.425 75.7723 49.675C77.8723 47.975 80.2723 47.125 82.9723 47.125C85.3723 47.125 87.3973 47.675 89.0473 48.775C89.4973 49.075 90.6473 50.1 92.4973 51.85C93.6473 52.95 94.7973 53.5 95.9473 53.5C98.2973 53.5 99.8223 52.9 100.522 51.7C101.122 49.55 101.447 48.45 101.497 48.4C101.997 47.35 102.897 46.825 104.197 46.825C106.697 46.875 108.797 47.95 110.497 50.05C112.147 52.15 112.972 54.475 112.972 57.025ZM158.555 10.825C158.455 12.725 157.605 14.4 156.005 15.85C154.455 17.25 152.73 17.95 150.83 17.95C150.68 17.95 150.505 17.95 150.305 17.95C155.755 21.05 158.48 25.325 158.48 30.775C158.48 34.925 157.305 38.475 154.955 41.425C152.455 44.575 149.18 46.15 145.13 46.15C141.88 46.15 139.38 45.35 137.63 43.75C137.08 43.25 136.055 41.75 134.555 39.25C133.605 37.65 132.43 36.85 131.03 36.85C129.18 36.85 128.255 38.125 128.255 40.675C128.255 40.925 128.28 41.325 128.33 41.875V43.15C128.33 45.15 127.705 46.15 126.455 46.15C122.705 46.15 120.155 44.5 118.805 41.2C117.905 39 117.455 35.775 117.455 31.525C117.455 27.325 118.53 23.725 120.68 20.725C122.88 17.725 126.005 15.75 130.055 14.8C128.005 14.35 126.355 14.125 125.105 14.125C121.155 14.125 119.18 14.775 119.18 16.075C119.18 16.375 119.305 16.825 119.555 17.425C119.805 18.025 119.93 18.475 119.93 18.775C119.93 19.825 119.355 20.35 118.205 20.35C116.355 20.35 115.43 18.925 115.43 16.075C115.43 12.275 118.655 10.375 125.105 10.375C126.505 10.375 128.38 10.65 130.73 11.2C131.93 11.5 133.78 11.875 136.28 12.325C139.78 12.975 143.555 13.525 147.605 13.975C148.905 14.125 149.98 14.2 150.83 14.2C151.68 14.2 152.53 13.825 153.38 13.075C154.28 12.325 154.755 11.525 154.805 10.675C154.905 9.425 154.905 8.675 154.805 8.425C154.655 7.775 154.105 7 153.155 6.1C152.755 5.7 152.555 5.25 152.555 4.75C152.555 3.5 153.205 2.875 154.505 2.875C155.005 2.875 155.43 3.05 155.78 3.4C157.83 5.3 158.755 7.775 158.555 10.825ZM154.73 30.775C154.73 26.725 152.53 23.475 148.13 21.025C144.48 18.975 140.455 17.95 136.055 17.95C131.455 17.95 127.855 19.05 125.255 21.25C122.555 23.6 121.205 27.025 121.205 31.525C121.205 37.525 122.18 41 124.13 41.95C124.03 39.7 124.605 37.675 125.855 35.875C127.155 34.025 128.88 33.1 131.03 33.1C133.43 33.1 135.28 33.9 136.58 35.5L139.43 40C140.73 41.6 142.63 42.4 145.13 42.4C148.13 42.4 150.53 41.175 152.33 38.725C153.93 36.525 154.73 33.875 154.73 30.775ZM203.124 10.825C203.024 12.725 202.174 14.4 200.574 15.85C199.024 17.25 197.299 17.95 195.399 17.95C195.099 17.95 194.774 17.925 194.424 17.875C199.924 21.025 202.674 25.325 202.674 30.775C202.674 35.875 200.799 39.8 197.049 42.55C193.699 44.95 189.374 46.15 184.074 46.15C170.274 46.15 163.374 40.45 163.374 29.05C163.374 20.9 167.324 16.1 175.224 14.65C173.574 14.3 172.224 14.125 171.174 14.125C167.224 14.125 165.249 14.775 165.249 16.075C165.249 16.375 165.374 16.825 165.624 17.425C165.874 18.025 165.999 18.475 165.999 18.775C165.999 19.825 165.424 20.35 164.274 20.35C162.424 20.35 161.499 18.925 161.499 16.075C161.499 12.275 164.724 10.375 171.174 10.375C172.574 10.375 174.449 10.65 176.799 11.2C177.949 11.45 179.799 11.825 182.349 12.325C185.499 12.675 189.849 13.3 195.399 14.2C196.249 14.2 197.099 13.825 197.949 13.075C198.849 12.325 199.324 11.525 199.374 10.675C199.474 9.425 199.474 8.675 199.374 8.425C199.224 7.775 198.674 7 197.724 6.1C197.324 5.7 197.124 5.25 197.124 4.75C197.124 3.5 197.774 2.875 199.074 2.875C199.574 2.875 199.999 3.05 200.349 3.4C202.399 5.3 203.324 7.775 203.124 10.825ZM198.924 30.775C198.924 26.725 196.724 23.475 192.324 21.025C188.674 18.975 184.649 17.95 180.249 17.95C171.499 17.95 167.124 21.65 167.124 29.05C167.124 37.95 172.774 42.4 184.074 42.4C188.274 42.4 191.699 41.525 194.349 39.775C197.399 37.775 198.924 34.775 198.924 30.775ZM252.839 32.575C252.689 36.275 251.714 39.35 249.914 41.8C247.864 44.6 245.064 46 241.514 46C234.214 46 230.564 41.875 230.564 33.625C230.564 30.975 231.239 28.625 232.589 26.575C234.139 24.225 236.189 23.05 238.739 23.05C240.439 23.05 241.839 23.625 242.939 24.775C244.039 25.925 244.589 27.35 244.589 29.05C244.589 31 243.914 32.575 242.564 33.775C241.264 34.925 239.639 35.5 237.689 35.5C236.439 35.5 235.814 34.875 235.814 33.625C235.814 32.375 236.439 31.75 237.689 31.75C239.789 31.75 240.839 30.85 240.839 29.05C240.839 27.55 240.139 26.8 238.739 26.8C237.339 26.8 236.214 27.625 235.364 29.275C234.664 30.625 234.314 32.075 234.314 33.625C234.314 39.375 236.714 42.25 241.514 42.25C244.014 42.25 245.939 41.175 247.289 39.025C248.389 37.275 248.989 35.075 249.089 32.425C249.389 25.125 246.914 19.675 241.664 16.075C240.064 16.575 238.514 17.05 237.014 17.5C236.414 17.7 234.714 17.8 231.914 17.8C228.464 17.85 225.764 17.6 223.814 17.05C223.814 17.05 222.064 16.55 218.564 15.55C222.864 18.35 225.014 23.375 225.014 30.625C225.014 34.775 223.814 38.325 221.414 41.275C218.814 44.425 215.489 46 211.439 46C206.989 46 203.589 44.825 201.239 42.475C198.839 40.075 197.639 36.7 197.639 32.35C197.639 31.1 198.264 30.475 199.514 30.475C200.764 30.475 201.389 31.1 201.389 32.35C201.389 38.95 204.739 42.25 211.439 42.25C214.439 42.25 216.864 41.025 218.714 38.575C220.414 36.375 221.264 33.725 221.264 30.625C221.264 27.375 220.464 24.275 218.864 21.325C216.914 17.825 214.439 16.075 211.439 16.075C210.089 16.075 209.414 16.45 209.414 17.2C209.414 17.6 209.539 18.15 209.789 18.85C210.039 19.5 210.164 19.975 210.164 20.275C210.164 21.325 209.589 21.85 208.439 21.85C206.589 21.85 205.664 20.425 205.664 17.575C205.664 15.525 206.789 13.975 209.039 12.925C210.739 12.125 212.739 11.725 215.039 11.725C215.889 11.725 216.639 11.8 217.289 11.95C217.989 12.05 219.864 12.45 222.914 13.15C225.064 13.65 227.389 13.95 229.889 14.05C231.289 14.1 232.489 14.125 233.489 14.125C234.989 14.125 236.264 13.975 237.314 13.675C238.414 13.325 239.764 12.85 241.364 12.25C241.864 12.05 242.389 12.125 242.939 12.475C249.889 16.875 253.189 23.575 252.839 32.575ZM336.12 29.05C336.12 35.9 332.97 40.875 326.67 43.975C328.67 46.675 331.17 48 334.17 47.95C335.42 47.95 336.045 48.575 336.045 49.825C336.045 51.075 335.42 51.7 334.17 51.7C329.62 51.75 325.945 49.625 323.145 45.325C321.195 45.875 319.195 46.15 317.145 46.15C312.395 46.15 308.845 45.825 306.495 45.175C302.145 43.975 299.97 41.575 299.97 37.975C299.97 35.425 301.17 33.425 303.57 31.975C305.57 30.775 307.92 30.175 310.62 30.175C314.02 30.175 316.895 31.175 319.245 33.175C321.095 34.775 322.92 37.3 324.72 40.75C329.77 38.35 332.295 34.45 332.295 29.05C332.295 21.85 330.745 17.625 327.645 16.375C327.345 18.275 326.22 19.8 324.27 20.95C322.57 21.95 320.67 22.45 318.57 22.45C316.72 22.45 314.545 21.4 312.045 19.3C309.595 17.15 307.445 16.075 305.595 16.075C303.895 16.075 302.395 16.45 301.095 17.2C299.545 18.1 298.77 19.35 298.77 20.95C298.77 21.55 298.97 22.4 299.37 23.5C299.77 24.6 299.97 25.4 299.97 25.9C299.97 27.15 299.32 27.775 298.02 27.775C296.97 27.775 296.17 26.85 295.62 25C295.22 23.65 295.02 22.3 295.02 20.95C295.02 18.25 296.145 16.1 298.395 14.5C300.395 13.05 302.795 12.325 305.595 12.325C307.995 12.325 310.02 12.875 311.67 13.975C312.12 14.275 313.27 15.3 315.12 17.05C316.27 18.15 317.42 18.7 318.57 18.7C320.92 18.7 322.445 18.15 323.145 17.05C323.395 16.7 323.645 15.675 323.895 13.975C324.095 12.875 324.695 12.325 325.695 12.325C329.595 12.325 332.42 14.275 334.17 18.175C335.47 21.025 336.12 24.65 336.12 29.05ZM321.195 41.95C319.695 39.3 318.37 37.45 317.22 36.4C315.42 34.75 313.22 33.925 310.62 33.925C309.07 33.925 307.62 34.2 306.27 34.75C304.57 35.5 303.72 36.575 303.72 37.975C303.72 40.025 305.595 41.375 309.345 42.025C310.845 42.275 313.445 42.4 317.145 42.4C318.495 42.4 319.845 42.25 321.195 41.95ZM381.469 10.825C381.369 12.725 380.519 14.4 378.919 15.85C377.369 17.25 375.644 17.95 373.744 17.95C373.444 17.95 373.119 17.925 372.769 17.875C378.269 21.025 381.019 25.325 381.019 30.775C381.019 35.875 379.144 39.8 375.394 42.55C372.044 44.95 367.719 46.15 362.419 46.15C348.619 46.15 341.719 40.45 341.719 29.05C341.719 20.9 345.669 16.1 353.569 14.65C351.919 14.3 350.569 14.125 349.519 14.125C345.569 14.125 343.594 14.775 343.594 16.075C343.594 16.375 343.719 16.825 343.969 17.425C344.219 18.025 344.344 18.475 344.344 18.775C344.344 19.825 343.769 20.35 342.619 20.35C340.769 20.35 339.844 18.925 339.844 16.075C339.844 12.275 343.069 10.375 349.519 10.375C350.919 10.375 352.794 10.65 355.144 11.2C356.294 11.45 358.144 11.825 360.694 12.325C363.844 12.675 368.194 13.3 373.744 14.2C374.594 14.2 375.444 13.825 376.294 13.075C377.194 12.325 377.669 11.525 377.719 10.675C377.819 9.425 377.819 8.675 377.719 8.425C377.569 7.775 377.019 7 376.069 6.1C375.669 5.7 375.469 5.25 375.469 4.75C375.469 3.5 376.119 2.875 377.419 2.875C377.919 2.875 378.344 3.05 378.694 3.4C380.744 5.3 381.669 7.775 381.469 10.825ZM377.269 30.775C377.269 26.725 375.069 23.475 370.669 21.025C367.019 18.975 362.994 17.95 358.594 17.95C349.844 17.95 345.469 21.65 345.469 29.05C345.469 37.95 351.119 42.4 362.419 42.4C366.619 42.4 370.044 41.525 372.694 39.775C375.744 37.775 377.269 34.775 377.269 30.775ZM403.884 33.1C403.884 37.25 402.684 40.475 400.284 42.775C397.934 45.025 394.684 46.15 390.534 46.15C386.084 46.15 382.684 44.975 380.334 42.625C377.934 40.225 376.734 36.85 376.734 32.5C376.734 31.25 377.359 30.625 378.609 30.625C379.859 30.625 380.484 31.25 380.484 32.5C380.484 39.1 383.834 42.4 390.534 42.4C396.934 42.4 400.134 39.3 400.134 33.1C400.134 31.4 398.534 28.65 395.334 24.85C392.134 21 390.534 18.075 390.534 16.075C390.534 13.425 391.684 11.225 393.984 9.475C394.334 9.225 394.709 9.1 395.109 9.1C396.359 9.1 396.984 9.75 396.984 11.05C396.984 11.6 396.734 12.075 396.234 12.475C395.384 13.125 394.884 13.575 394.734 13.825C394.434 14.275 394.284 15.025 394.284 16.075C394.284 17.175 395.109 18.675 396.759 20.575C399.509 23.775 401.059 25.625 401.409 26.125C403.059 28.475 403.884 30.8 403.884 33.1ZM487.293 30.775C487.293 34.925 486.118 38.475 483.768 41.425C481.268 44.575 477.993 46.15 473.943 46.15C470.693 46.15 468.193 45.35 466.443 43.75C465.893 43.25 464.868 41.75 463.368 39.25C462.418 37.65 461.243 36.85 459.843 36.85C457.993 36.85 457.068 38.125 457.068 40.675C457.068 40.925 457.093 41.325 457.143 41.875V43.15C457.143 45.15 456.518 46.15 455.268 46.15C449.168 46.15 446.118 42.1 446.118 34C446.118 31.65 446.718 29.7 447.918 28.15C449.268 26.4 451.068 25.525 453.318 25.525C454.568 25.525 455.193 26.15 455.193 27.4C455.193 28.65 454.568 29.275 453.318 29.275C451.018 29.275 449.868 30.85 449.868 34C449.868 38.25 450.893 40.9 452.943 41.95C452.843 39.7 453.418 37.675 454.668 35.875C455.968 34.025 457.693 33.1 459.843 33.1C462.243 33.1 464.093 33.9 465.393 35.5L468.243 40C469.543 41.6 471.443 42.4 473.943 42.4C476.943 42.4 479.343 41.175 481.143 38.725C482.743 36.525 483.543 33.875 483.543 30.775C483.543 26.575 481.318 23.1 476.868 20.35C473.418 18.2 469.318 16.775 464.568 16.075C463.518 15.925 462.993 15.3 462.993 14.2C462.993 12.75 463.718 12.125 465.168 12.325C470.918 13.175 475.818 15 479.868 17.8C484.818 21.25 487.293 25.575 487.293 30.775ZM528.441 31.15C528.441 36.25 526.566 40.1 522.816 42.7C519.566 45 515.291 46.15 509.991 46.15C497.341 46.15 491.016 40.7 491.016 29.8C491.016 24.8 492.741 20.9 496.191 18.1C499.441 15.5 503.641 14.2 508.791 14.2C513.841 14.2 518.216 15.55 521.916 18.25C526.266 21.4 528.441 25.7 528.441 31.15ZM524.691 31.15C524.691 27.05 523.016 23.775 519.666 21.325C516.666 19.075 513.041 17.95 508.791 17.95C504.691 17.95 501.391 18.9 498.891 20.8C496.141 22.85 494.766 25.85 494.766 29.8C494.766 34.6 496.166 37.975 498.966 39.925C501.316 41.575 504.991 42.4 509.991 42.4C514.241 42.4 517.616 41.6 520.116 40C523.166 38.1 524.691 35.15 524.691 31.15ZM573.353 30.775C573.353 35.575 571.503 39.4 567.803 42.25C564.403 44.85 560.228 46.15 555.278 46.15C539.978 46.15 532.328 41.275 532.328 31.525C532.328 29.025 532.703 26.8 533.453 24.85C533.753 24.05 534.303 23.65 535.103 23.65C536.403 23.65 537.053 24.25 537.053 25.45C537.053 26.05 536.878 27.025 536.528 28.375C536.228 29.725 536.078 30.775 536.078 31.525C536.078 38.775 542.478 42.4 555.278 42.4C559.128 42.4 562.403 41.45 565.103 39.55C568.103 37.4 569.603 34.475 569.603 30.775C569.603 27.425 567.528 25.25 563.378 24.25C563.678 25.55 563.828 26.9 563.828 28.3C563.828 31 562.928 33.1 561.128 34.6C559.378 36.1 557.128 36.85 554.378 36.85C552.228 36.85 550.353 36.1 548.753 34.6C547.153 33.05 546.353 31.2 546.353 29.05C546.353 23.75 550.053 20.825 557.453 20.275C556.053 18.525 553.653 17.05 550.253 15.85C547.153 14.7 544.353 14.125 541.853 14.125C537.903 14.125 535.928 14.775 535.928 16.075C535.928 16.375 536.053 16.825 536.303 17.425C536.553 18.025 536.678 18.475 536.678 18.775C536.678 19.825 536.103 20.35 534.953 20.35C533.103 20.35 532.178 18.925 532.178 16.075C532.178 12.275 535.403 10.375 541.853 10.375C543.253 10.375 545.128 10.65 547.478 11.2C549.878 11.75 551.728 12.125 553.028 12.325C556.078 12.925 560.278 13.525 565.628 14.125C566.828 14.275 567.428 14.9 567.428 16C567.428 17.3 566.778 17.925 565.478 17.875C563.378 17.775 561.528 17.6 559.928 17.35C560.128 17.55 560.428 18.125 560.828 19.075C561.128 19.775 561.503 20.15 561.953 20.2C565.203 20.4 567.878 21.375 569.978 23.125C572.228 25.075 573.353 27.625 573.353 30.775ZM560.078 28.3C560.078 26.7 559.853 25.225 559.403 23.875C553.203 23.875 550.103 25.6 550.103 29.05C550.103 30.15 550.528 31.1 551.378 31.9C552.278 32.7 553.278 33.1 554.378 33.1C558.178 33.1 560.078 31.5 560.078 28.3ZM598.093 32.725C597.943 36.425 596.968 39.5 595.168 41.95C593.118 44.75 590.318 46.15 586.768 46.15C579.968 46.15 576.568 42.025 576.568 33.775C576.568 31.025 577.118 28.7 578.218 26.8C579.518 24.4 581.443 23.2 583.993 23.2C585.693 23.2 587.093 23.775 588.193 24.925C589.293 26.075 589.843 27.5 589.843 29.2C589.843 31.15 589.168 32.725 587.818 33.925C586.518 35.075 584.893 35.65 582.943 35.65C581.693 35.65 581.068 35.025 581.068 33.775C581.068 32.525 581.693 31.9 582.943 31.9C585.043 31.9 586.093 31 586.093 29.2C586.093 27.7 585.393 26.95 583.993 26.95C582.643 26.95 581.643 27.8 580.993 29.5C580.543 30.75 580.318 32.175 580.318 33.775C580.318 36.575 580.693 38.625 581.443 39.925C582.443 41.575 584.218 42.4 586.768 42.4C589.218 42.4 591.118 41.325 592.468 39.175C593.618 37.425 594.243 35.225 594.343 32.575C594.643 25.275 592.168 19.825 586.918 16.225C583.118 17.375 576.168 17.95 566.068 17.95C565.868 17.95 564.118 17.775 560.818 17.425L560.893 13.825C563.243 14.075 564.968 14.2 566.068 14.2C576.368 14.2 583.218 13.6 586.618 12.4C587.118 12.2 587.643 12.275 588.193 12.625C595.143 17.025 598.443 23.725 598.093 32.725ZM644.956 10.825C644.856 12.725 644.006 14.4 642.406 15.85C640.856 17.25 639.131 17.95 637.231 17.95C637.081 17.95 636.906 17.95 636.706 17.95C642.156 21.05 644.881 25.325 644.881 30.775C644.881 34.925 643.706 38.475 641.356 41.425C638.856 44.575 635.581 46.15 631.531 46.15C628.281 46.15 625.781 45.35 624.031 43.75C623.481 43.25 622.456 41.75 620.956 39.25C620.006 37.65 618.831 36.85 617.431 36.85C615.581 36.85 614.656 38.125 614.656 40.675C614.656 40.925 614.681 41.325 614.731 41.875V43.15C614.731 45.15 614.106 46.15 612.856 46.15C609.106 46.15 606.556 44.5 605.206 41.2C604.306 39 603.856 35.775 603.856 31.525C603.856 27.325 604.931 23.725 607.081 20.725C609.281 17.725 612.406 15.75 616.456 14.8C614.406 14.35 612.756 14.125 611.506 14.125C607.556 14.125 605.581 14.775 605.581 16.075C605.581 16.375 605.706 16.825 605.956 17.425C606.206 18.025 606.331 18.475 606.331 18.775C606.331 19.825 605.756 20.35 604.606 20.35C602.756 20.35 601.831 18.925 601.831 16.075C601.831 12.275 605.056 10.375 611.506 10.375C612.906 10.375 614.781 10.65 617.131 11.2C618.331 11.5 620.181 11.875 622.681 12.325C626.181 12.975 629.956 13.525 634.006 13.975C635.306 14.125 636.381 14.2 637.231 14.2C638.081 14.2 638.931 13.825 639.781 13.075C640.681 12.325 641.156 11.525 641.206 10.675C641.306 9.425 641.306 8.675 641.206 8.425C641.056 7.775 640.506 7 639.556 6.1C639.156 5.7 638.956 5.25 638.956 4.75C638.956 3.5 639.606 2.875 640.906 2.875C641.406 2.875 641.831 3.05 642.181 3.4C644.231 5.3 645.156 7.775 644.956 10.825ZM641.131 30.775C641.131 26.725 638.931 23.475 634.531 21.025C630.881 18.975 626.856 17.95 622.456 17.95C617.856 17.95 614.256 19.05 611.656 21.25C608.956 23.6 607.606 27.025 607.606 31.525C607.606 37.525 608.581 41 610.531 41.95C610.431 39.7 611.006 37.675 612.256 35.875C613.556 34.025 615.281 33.1 617.431 33.1C619.831 33.1 621.681 33.9 622.981 35.5L625.831 40C627.131 41.6 629.031 42.4 631.531 42.4C634.531 42.4 636.931 41.175 638.731 38.725C640.331 36.525 641.131 33.875 641.131 30.775ZM689.525 10.825C689.425 12.725 688.575 14.4 686.975 15.85C685.425 17.25 683.7 17.95 681.8 17.95C681.5 17.95 681.175 17.925 680.825 17.875C686.325 21.025 689.075 25.325 689.075 30.775C689.075 35.875 687.2 39.8 683.45 42.55C680.1 44.95 675.775 46.15 670.475 46.15C656.675 46.15 649.775 40.45 649.775 29.05C649.775 20.9 653.725 16.1 661.625 14.65C659.975 14.3 658.625 14.125 657.575 14.125C653.625 14.125 651.65 14.775 651.65 16.075C651.65 16.375 651.775 16.825 652.025 17.425C652.275 18.025 652.4 18.475 652.4 18.775C652.4 19.825 651.825 20.35 650.675 20.35C648.825 20.35 647.9 18.925 647.9 16.075C647.9 12.275 651.125 10.375 657.575 10.375C658.975 10.375 660.85 10.65 663.2 11.2C664.35 11.45 666.2 11.825 668.75 12.325C671.9 12.675 676.25 13.3 681.8 14.2C682.65 14.2 683.5 13.825 684.35 13.075C685.25 12.325 685.725 11.525 685.775 10.675C685.875 9.425 685.875 8.675 685.775 8.425C685.625 7.775 685.075 7 684.125 6.1C683.725 5.7 683.525 5.25 683.525 4.75C683.525 3.5 684.175 2.875 685.475 2.875C685.975 2.875 686.4 3.05 686.75 3.4C688.8 5.3 689.725 7.775 689.525 10.825ZM685.325 30.775C685.325 26.725 683.125 23.475 678.725 21.025C675.075 18.975 671.05 17.95 666.65 17.95C657.9 17.95 653.525 21.65 653.525 29.05C653.525 37.95 659.175 42.4 670.475 42.4C674.675 42.4 678.1 41.525 680.75 39.775C683.8 37.775 685.325 34.775 685.325 30.775ZM711.94 33.1C711.94 37.25 710.74 40.475 708.34 42.775C705.99 45.025 702.74 46.15 698.59 46.15C694.14 46.15 690.74 44.975 688.39 42.625C685.99 40.225 684.79 36.85 684.79 32.5C684.79 31.25 685.415 30.625 686.665 30.625C687.915 30.625 688.54 31.25 688.54 32.5C688.54 39.1 691.89 42.4 698.59 42.4C704.99 42.4 708.19 39.3 708.19 33.1C708.19 31.4 706.59 28.65 703.39 24.85C700.19 21 698.59 18.075 698.59 16.075C698.59 13.425 699.74 11.225 702.04 9.475C702.39 9.225 702.765 9.1 703.165 9.1C704.415 9.1 705.04 9.75 705.04 11.05C705.04 11.6 704.79 12.075 704.29 12.475C703.44 13.125 702.94 13.575 702.79 13.825C702.49 14.275 702.34 15.025 702.34 16.075C702.34 17.175 703.165 18.675 704.815 20.575C707.565 23.775 709.115 25.625 709.465 26.125C711.115 28.475 711.94 30.8 711.94 33.1ZM795.275 29.05C795.275 35.9 792.125 40.875 785.825 43.975C787.825 46.675 790.325 48 793.325 47.95C794.575 47.95 795.2 48.575 795.2 49.825C795.2 51.075 794.575 51.7 793.325 51.7C788.775 51.75 785.1 49.625 782.3 45.325C780.35 45.875 778.35 46.15 776.3 46.15C771.55 46.15 768 45.825 765.65 45.175C761.3 43.975 759.125 41.575 759.125 37.975C759.125 35.425 760.325 33.425 762.725 31.975C764.725 30.775 767.075 30.175 769.775 30.175C773.175 30.175 776.05 31.175 778.4 33.175C780.25 34.775 782.075 37.3 783.875 40.75C788.925 38.35 791.45 34.45 791.45 29.05C791.45 21.85 789.9 17.625 786.8 16.375C786.5 18.275 785.375 19.8 783.425 20.95C781.725 21.95 779.825 22.45 777.725 22.45C775.875 22.45 773.7 21.4 771.2 19.3C768.75 17.15 766.6 16.075 764.75 16.075C763.05 16.075 761.55 16.45 760.25 17.2C758.7 18.1 757.925 19.35 757.925 20.95C757.925 21.55 758.125 22.4 758.525 23.5C758.925 24.6 759.125 25.4 759.125 25.9C759.125 27.15 758.475 27.775 757.175 27.775C756.125 27.775 755.325 26.85 754.775 25C754.375 23.65 754.175 22.3 754.175 20.95C754.175 18.25 755.3 16.1 757.55 14.5C759.55 13.05 761.95 12.325 764.75 12.325C767.15 12.325 769.175 12.875 770.825 13.975C771.275 14.275 772.425 15.3 774.275 17.05C775.425 18.15 776.575 18.7 777.725 18.7C780.075 18.7 781.6 18.15 782.3 17.05C782.55 16.7 782.8 15.675 783.05 13.975C783.25 12.875 783.85 12.325 784.85 12.325C788.75 12.325 791.575 14.275 793.325 18.175C794.625 21.025 795.275 24.65 795.275 29.05ZM780.35 41.95C778.85 39.3 777.525 37.45 776.375 36.4C774.575 34.75 772.375 33.925 769.775 33.925C768.225 33.925 766.775 34.2 765.425 34.75C763.725 35.5 762.875 36.575 762.875 37.975C762.875 40.025 764.75 41.375 768.5 42.025C770 42.275 772.6 42.4 776.3 42.4C777.65 42.4 779 42.25 780.35 41.95ZM840.624 10.825C840.524 12.725 839.674 14.4 838.074 15.85C836.524 17.25 834.799 17.95 832.899 17.95C832.599 17.95 832.274 17.925 831.924 17.875C837.424 21.025 840.174 25.325 840.174 30.775C840.174 35.875 838.299 39.8 834.549 42.55C831.199 44.95 826.874 46.15 821.574 46.15C807.774 46.15 800.874 40.45 800.874 29.05C800.874 20.9 804.824 16.1 812.724 14.65C811.074 14.3 809.724 14.125 808.674 14.125C804.724 14.125 802.749 14.775 802.749 16.075C802.749 16.375 802.874 16.825 803.124 17.425C803.374 18.025 803.499 18.475 803.499 18.775C803.499 19.825 802.924 20.35 801.774 20.35C799.924 20.35 798.999 18.925 798.999 16.075C798.999 12.275 802.224 10.375 808.674 10.375C810.074 10.375 811.949 10.65 814.299 11.2C815.449 11.45 817.299 11.825 819.849 12.325C822.999 12.675 827.349 13.3 832.899 14.2C833.749 14.2 834.599 13.825 835.449 13.075C836.349 12.325 836.824 11.525 836.874 10.675C836.974 9.425 836.974 8.675 836.874 8.425C836.724 7.775 836.174 7 835.224 6.1C834.824 5.7 834.624 5.25 834.624 4.75C834.624 3.5 835.274 2.875 836.574 2.875C837.074 2.875 837.499 3.05 837.849 3.4C839.899 5.3 840.824 7.775 840.624 10.825ZM836.424 30.775C836.424 26.725 834.224 23.475 829.824 21.025C826.174 18.975 822.149 17.95 817.749 17.95C808.999 17.95 804.624 21.65 804.624 29.05C804.624 37.95 810.274 42.4 821.574 42.4C825.774 42.4 829.199 41.525 831.849 39.775C834.899 37.775 836.424 34.775 836.424 30.775ZM863.039 33.1C863.039 37.25 861.839 40.475 859.439 42.775C857.089 45.025 853.839 46.15 849.689 46.15C845.239 46.15 841.839 44.975 839.489 42.625C837.089 40.225 835.889 36.85 835.889 32.5C835.889 31.25 836.514 30.625 837.764 30.625C839.014 30.625 839.639 31.25 839.639 32.5C839.639 39.1 842.989 42.4 849.689 42.4C856.089 42.4 859.289 39.3 859.289 33.1C859.289 31.4 857.689 28.65 854.489 24.85C851.289 21 849.689 18.075 849.689 16.075C849.689 13.425 850.839 11.225 853.139 9.475C853.489 9.225 853.864 9.1 854.264 9.1C855.514 9.1 856.139 9.75 856.139 11.05C856.139 11.6 855.889 12.075 855.389 12.475C854.539 13.125 854.039 13.575 853.889 13.825C853.589 14.275 853.439 15.025 853.439 16.075C853.439 17.175 854.264 18.675 855.914 20.575C858.664 23.775 860.214 25.625 860.564 26.125C862.214 28.475 863.039 30.8 863.039 33.1ZM946.448 30.775C946.448 34.925 945.273 38.475 942.923 41.425C940.423 44.575 937.148 46.15 933.098 46.15C929.848 46.15 927.348 45.35 925.598 43.75C925.048 43.25 924.023 41.75 922.523 39.25C921.573 37.65 920.398 36.85 918.998 36.85C917.148 36.85 916.223 38.125 916.223 40.675C916.223 40.925 916.248 41.325 916.298 41.875V43.15C916.298 45.15 915.673 46.15 914.423 46.15C908.323 46.15 905.273 42.1 905.273 34C905.273 31.65 905.873 29.7 907.073 28.15C908.423 26.4 910.223 25.525 912.473 25.525C913.723 25.525 914.348 26.15 914.348 27.4C914.348 28.65 913.723 29.275 912.473 29.275C910.173 29.275 909.023 30.85 909.023 34C909.023 38.25 910.048 40.9 912.098 41.95C911.998 39.7 912.573 37.675 913.823 35.875C915.123 34.025 916.848 33.1 918.998 33.1C921.398 33.1 923.248 33.9 924.548 35.5L927.398 40C928.698 41.6 930.598 42.4 933.098 42.4C936.098 42.4 938.498 41.175 940.298 38.725C941.898 36.525 942.698 33.875 942.698 30.775C942.698 26.575 940.473 23.1 936.023 20.35C932.573 18.2 928.473 16.775 923.723 16.075C922.673 15.925 922.148 15.3 922.148 14.2C922.148 12.75 922.873 12.125 924.323 12.325C930.073 13.175 934.973 15 939.023 17.8C943.973 21.25 946.448 25.575 946.448 30.775ZM987.596 31.15C987.596 36.25 985.721 40.1 981.971 42.7C978.721 45 974.446 46.15 969.146 46.15C956.496 46.15 950.171 40.7 950.171 29.8C950.171 24.8 951.896 20.9 955.346 18.1C958.596 15.5 962.796 14.2 967.946 14.2C972.996 14.2 977.371 15.55 981.071 18.25C985.421 21.4 987.596 25.7 987.596 31.15ZM983.846 31.15C983.846 27.05 982.171 23.775 978.821 21.325C975.821 19.075 972.196 17.95 967.946 17.95C963.846 17.95 960.546 18.9 958.046 20.8C955.296 22.85 953.921 25.85 953.921 29.8C953.921 34.6 955.321 37.975 958.121 39.925C960.471 41.575 964.146 42.4 969.146 42.4C973.396 42.4 976.771 41.6 979.271 40C982.321 38.1 983.846 35.15 983.846 31.15ZM1034.38 30.775C1034.38 34.925 1033.21 38.475 1030.86 41.425C1028.36 44.575 1025.08 46.15 1021.03 46.15C1017.78 46.15 1015.28 45.35 1013.53 43.75C1012.98 43.25 1011.96 41.75 1010.46 39.25C1009.51 37.65 1008.33 36.85 1006.93 36.85C1005.08 36.85 1004.16 38.125 1004.16 40.675C1004.16 40.925 1004.18 41.325 1004.23 41.875V43.15C1004.23 45.15 1003.61 46.15 1002.36 46.15C998.608 46.15 996.058 44.5 994.708 41.2C993.808 39 993.358 35.775 993.358 31.525C993.358 27.325 994.433 23.725 996.583 20.725C998.783 17.725 1001.91 15.75 1005.96 14.8C1003.91 14.35 1002.26 14.125 1001.01 14.125C997.058 14.125 995.083 14.775 995.083 16.075C995.083 16.375 995.208 16.825 995.458 17.425C995.708 18.025 995.833 18.475 995.833 18.775C995.833 19.825 995.258 20.35 994.108 20.35C992.258 20.35 991.333 18.925 991.333 16.075C991.333 12.275 994.558 10.375 1001.01 10.375C1002.41 10.375 1004.28 10.65 1006.63 11.2C1009.03 11.75 1010.88 12.125 1012.18 12.325C1015.23 12.925 1019.43 13.525 1024.78 14.125C1025.98 14.275 1026.58 14.9 1026.58 16C1026.58 16.75 1026.28 17.3 1025.68 17.65C1031.48 20.8 1034.38 25.175 1034.38 30.775ZM1030.63 30.775C1030.63 26.725 1028.43 23.475 1024.03 21.025C1020.38 18.975 1016.36 17.95 1011.96 17.95C1007.36 17.95 1003.76 19.05 1001.16 21.25C998.458 23.6 997.108 27.025 997.108 31.525C997.108 37.525 998.083 41 1000.03 41.95C999.933 39.7 1000.51 37.675 1001.76 35.875C1003.06 34.025 1004.78 33.1 1006.93 33.1C1009.33 33.1 1011.18 33.9 1012.48 35.5L1015.33 40C1016.63 41.6 1018.53 42.4 1021.03 42.4C1024.03 42.4 1026.43 41.175 1028.23 38.725C1029.83 36.525 1030.63 33.875 1030.63 30.775ZM1035.23 9.25C1035.23 12.05 1034.2 14.3 1032.15 16C1030.55 17.3 1028.95 17.95 1027.35 17.95C1026.4 17.95 1024.83 17.8 1022.63 17.5L1023.08 13.825C1024.88 14.075 1026.3 14.2 1027.35 14.2C1028.2 14.2 1029.05 13.825 1029.9 13.075C1030.7 12.325 1031.18 11.525 1031.33 10.675C1031.43 9.975 1031.48 9.525 1031.48 9.325C1031.48 6.075 1030.15 4.45 1027.5 4.45C1026.65 4.45 1025.93 4.725 1025.33 5.275C1024.68 5.825 1024.35 6.5 1024.35 7.3C1024.35 8.3 1024.9 8.8 1026 8.8C1026.2 8.8 1026.5 8.775 1026.9 8.725C1027.25 8.625 1027.53 8.575 1027.73 8.575C1028.93 8.575 1029.53 9.225 1029.53 10.525C1029.53 11.875 1028.38 12.55 1026.08 12.55C1024.48 12.55 1023.15 12 1022.1 10.9C1021.05 9.8 1020.53 8.45 1020.53 6.85C1020.53 4.85 1021.25 3.3 1022.7 2.2C1024.15 1.05 1025.9 0.499997 1027.95 0.55C1030.3 0.599999 1032.13 1.5 1033.43 3.25C1034.63 4.8 1035.23 6.8 1035.23 9.25ZM1075.56 31.15C1075.56 36.25 1073.68 40.1 1069.93 42.7C1066.68 45 1062.41 46.15 1057.11 46.15C1044.46 46.15 1038.13 40.7 1038.13 29.8C1038.13 24.8 1039.86 20.9 1043.31 18.1C1046.56 15.5 1050.76 14.2 1055.91 14.2C1060.96 14.2 1065.33 15.55 1069.03 18.25C1073.38 21.4 1075.56 25.7 1075.56 31.15ZM1071.81 31.15C1071.81 27.05 1070.13 23.775 1066.78 21.325C1063.78 19.075 1060.16 17.95 1055.91 17.95C1051.81 17.95 1048.51 18.9 1046.01 20.8C1043.26 22.85 1041.88 25.85 1041.88 29.8C1041.88 34.6 1043.28 37.975 1046.08 39.925C1048.43 41.575 1052.11 42.4 1057.11 42.4C1061.36 42.4 1064.73 41.6 1067.23 40C1070.28 38.1 1071.81 35.15 1071.81 31.15ZM1120.47 30.775C1120.47 34.925 1119.3 38.475 1116.95 41.425C1114.45 44.575 1111.17 46.15 1107.12 46.15C1103.87 46.15 1101.37 45.35 1099.62 43.75C1099.07 43.25 1098.05 41.75 1096.55 39.25C1095.6 37.65 1094.42 36.85 1093.02 36.85C1091.17 36.85 1090.25 38.125 1090.25 40.675C1090.25 40.925 1090.27 41.325 1090.32 41.875V43.15C1090.32 45.15 1089.7 46.15 1088.45 46.15C1082.35 46.15 1079.3 42.175 1079.3 34.225C1079.3 28.125 1081.52 23.925 1085.97 21.625C1085.57 20.625 1085.37 19.5 1085.37 18.25C1085.37 15.65 1086.75 13.625 1089.5 12.175C1091.7 10.975 1094.22 10.375 1097.07 10.375C1112.67 10.375 1120.47 17.175 1120.47 30.775ZM1116.72 30.775C1116.72 19.675 1110.17 14.125 1097.07 14.125C1095.52 14.125 1093.92 14.425 1092.27 15.025C1090.17 15.775 1089.12 16.85 1089.12 18.25C1089.12 20.85 1090.5 22.15 1093.25 22.15C1094.35 22.15 1095.45 21.775 1096.55 21.025C1097.65 20.225 1098.05 19.3 1097.75 18.25C1097.7 18.05 1097.67 17.85 1097.67 17.65C1097.67 16.45 1098.32 15.85 1099.62 15.85C1100.92 15.85 1101.57 16.825 1101.57 18.775C1101.57 20.825 1100.7 22.525 1098.95 23.875C1097.25 25.225 1095.35 25.9 1093.25 25.9C1091.3 25.9 1089.67 25.475 1088.37 24.625C1084.82 26.125 1083.05 29.325 1083.05 34.225C1083.05 38.325 1084.07 40.9 1086.12 41.95C1086.02 39.7 1086.6 37.675 1087.85 35.875C1089.15 34.025 1090.87 33.1 1093.02 33.1C1095.42 33.1 1097.27 33.9 1098.57 35.5L1101.42 40C1102.72 41.6 1104.62 42.4 1107.12 42.4C1110.12 42.4 1112.52 41.175 1114.32 38.725C1115.92 36.525 1116.72 33.875 1116.72 30.775ZM1167.32 10.825C1167.22 12.725 1166.37 14.4 1164.77 15.85C1163.22 17.25 1161.49 17.95 1159.59 17.95H1159.07C1164.52 21.1 1167.24 25.375 1167.24 30.775C1167.24 34.125 1166.49 37.175 1164.99 39.925C1163.34 43.025 1161.07 45.075 1158.17 46.075C1157.92 46.125 1157.69 46.15 1157.49 46.15C1156.29 46.15 1155.69 45.5 1155.69 44.2C1155.69 43.35 1156.12 42.775 1156.97 42.475C1159.12 41.725 1160.77 40.125 1161.92 37.675C1162.97 35.575 1163.49 33.275 1163.49 30.775C1163.49 26.675 1161.32 23.4 1156.97 20.95C1153.32 18.95 1149.27 17.95 1144.82 17.95C1136.07 17.95 1131.69 21.65 1131.69 29.05C1131.69 32.25 1132.07 34.75 1132.82 36.55C1133.92 39.25 1135.92 41.25 1138.82 42.55C1139.57 42.9 1139.94 43.45 1139.94 44.2C1139.94 45.5 1139.34 46.15 1138.14 46.15C1137.79 46.15 1137.52 46.1 1137.32 46C1131.07 43.2 1127.94 37.55 1127.94 29.05C1127.94 21.3 1131.59 16.575 1138.89 14.875C1136.79 14.375 1135.12 14.125 1133.87 14.125C1129.92 14.125 1127.94 14.775 1127.94 16.075C1127.94 16.375 1128.07 16.825 1128.32 17.425C1128.57 18.025 1128.69 18.475 1128.69 18.775C1128.69 19.825 1128.12 20.35 1126.97 20.35C1125.12 20.35 1124.19 18.925 1124.19 16.075C1124.19 12.275 1127.42 10.375 1133.87 10.375C1135.27 10.375 1137.14 10.65 1139.49 11.2C1142.04 11.8 1143.89 12.175 1145.04 12.325C1145.94 12.475 1148.34 12.875 1152.24 13.525L1153.14 13.675V13.6C1156.19 14 1158.34 14.2 1159.59 14.2C1160.44 14.2 1161.29 13.825 1162.14 13.075C1163.04 12.325 1163.52 11.525 1163.57 10.675C1163.67 9.425 1163.67 8.675 1163.57 8.425C1163.42 7.775 1162.87 7 1161.92 6.1C1161.52 5.7 1161.32 5.25 1161.32 4.75C1161.32 3.5 1161.97 2.875 1163.27 2.875C1163.77 2.875 1164.19 3.05 1164.54 3.4C1166.59 5.3 1167.52 7.775 1167.32 10.825ZM1217.44 32.575C1217.29 36.275 1216.31 39.35 1214.51 41.8C1212.46 44.6 1209.66 46 1206.11 46C1198.81 46 1195.16 41.875 1195.16 33.625C1195.16 30.975 1195.84 28.625 1197.19 26.575C1198.74 24.225 1200.79 23.05 1203.34 23.05C1205.04 23.05 1206.44 23.625 1207.54 24.775C1208.64 25.925 1209.19 27.35 1209.19 29.05C1209.19 31 1208.51 32.575 1207.16 33.775C1205.86 34.925 1204.24 35.5 1202.29 35.5C1201.04 35.5 1200.41 34.875 1200.41 33.625C1200.41 32.375 1201.04 31.75 1202.29 31.75C1204.39 31.75 1205.44 30.85 1205.44 29.05C1205.44 27.55 1204.74 26.8 1203.34 26.8C1201.94 26.8 1200.81 27.625 1199.96 29.275C1199.26 30.625 1198.91 32.075 1198.91 33.625C1198.91 39.375 1201.31 42.25 1206.11 42.25C1208.61 42.25 1210.54 41.175 1211.89 39.025C1212.99 37.275 1213.59 35.075 1213.69 32.425C1213.99 25.125 1211.51 19.675 1206.26 16.075C1204.66 16.575 1203.11 17.05 1201.61 17.5C1201.01 17.7 1199.31 17.8 1196.51 17.8C1193.06 17.85 1190.36 17.6 1188.41 17.05C1188.41 17.05 1186.66 16.55 1183.16 15.55C1187.46 18.35 1189.61 23.375 1189.61 30.625C1189.61 34.775 1188.41 38.325 1186.01 41.275C1183.41 44.425 1180.09 46 1176.04 46C1171.59 46 1168.19 44.825 1165.84 42.475C1163.44 40.075 1162.24 36.7 1162.24 32.35C1162.24 31.1 1162.86 30.475 1164.11 30.475C1165.36 30.475 1165.99 31.1 1165.99 32.35C1165.99 38.95 1169.34 42.25 1176.04 42.25C1179.04 42.25 1181.46 41.025 1183.31 38.575C1185.01 36.375 1185.86 33.725 1185.86 30.625C1185.86 27.375 1185.06 24.275 1183.46 21.325C1181.51 17.825 1179.04 16.075 1176.04 16.075C1174.69 16.075 1174.01 16.45 1174.01 17.2C1174.01 17.6 1174.14 18.15 1174.39 18.85C1174.64 19.5 1174.76 19.975 1174.76 20.275C1174.76 21.325 1174.19 21.85 1173.04 21.85C1171.19 21.85 1170.26 20.425 1170.26 17.575C1170.26 15.525 1171.39 13.975 1173.64 12.925C1175.34 12.125 1177.34 11.725 1179.64 11.725C1180.49 11.725 1181.24 11.8 1181.89 11.95C1182.59 12.05 1184.46 12.45 1187.51 13.15C1189.66 13.65 1191.99 13.95 1194.49 14.05C1195.89 14.1 1197.09 14.125 1198.09 14.125C1199.59 14.125 1200.86 13.975 1201.91 13.675C1203.01 13.325 1204.36 12.85 1205.96 12.25C1206.46 12.05 1206.99 12.125 1207.54 12.475C1214.49 16.875 1217.79 23.575 1217.44 32.575ZM1300.57 30.775C1300.57 34.925 1299.39 38.475 1297.04 41.425C1294.54 44.575 1291.27 46.15 1287.22 46.15C1283.97 46.15 1281.14 45.025 1278.74 42.775C1278.19 42.225 1276.54 40.1 1273.79 36.4C1272.14 34.15 1270.57 33.025 1269.07 33.025C1265.27 33.025 1263.37 35.3 1263.37 39.85C1263.37 43.75 1264.44 46.175 1266.59 47.125C1267.34 47.475 1267.72 48.025 1267.72 48.775C1267.72 50.075 1267.12 50.725 1265.92 50.725C1264.12 50.725 1262.49 49.275 1261.04 46.375C1260.09 44.475 1259.62 42.375 1259.62 40.075C1259.62 36.975 1260.39 34.45 1261.94 32.5C1263.69 30.35 1266.07 29.275 1269.07 29.275C1271.62 29.275 1273.79 30.4 1275.59 32.65C1276.59 34.1 1278.17 36.225 1280.32 39.025C1282.17 41.275 1284.47 42.4 1287.22 42.4C1290.22 42.4 1292.62 41.175 1294.42 38.725C1296.02 36.525 1296.82 33.875 1296.82 30.775C1296.82 19.675 1290.84 14.125 1278.89 14.125C1277.29 14.125 1275.79 14.425 1274.39 15.025C1272.59 15.825 1271.69 16.9 1271.69 18.25C1271.69 20.85 1273.07 22.15 1275.82 22.15C1276.92 22.15 1278.02 21.775 1279.12 21.025C1280.22 20.225 1280.62 19.3 1280.32 18.25C1280.27 18.05 1280.24 17.85 1280.24 17.65C1280.24 16.45 1280.89 15.85 1282.19 15.85C1283.49 15.85 1284.14 16.825 1284.14 18.775C1284.14 20.825 1283.27 22.525 1281.52 23.875C1279.82 25.225 1277.92 25.9 1275.82 25.9C1270.57 25.9 1267.94 23.35 1267.94 18.25C1267.94 15.65 1269.17 13.625 1271.62 12.175C1273.67 10.975 1276.09 10.375 1278.89 10.375C1285.69 10.375 1290.97 12.075 1294.72 15.475C1298.62 19.025 1300.57 24.125 1300.57 30.775ZM1328.45 36.25C1328.05 39.3 1326.8 41.725 1324.7 43.525C1322.65 45.275 1320.07 46.15 1316.97 46.15C1308.52 46.15 1304.3 40 1304.3 27.7C1304.3 23.5 1305.27 20 1307.22 17.2C1309.47 13.95 1312.6 12.325 1316.6 12.325C1319.05 12.325 1321.02 13.05 1322.52 14.5C1324.07 15.95 1324.85 17.9 1324.85 20.35C1324.85 23.05 1323.97 25.25 1322.22 26.95C1320.47 28.6 1318.22 29.425 1315.47 29.425C1314.02 29.425 1312.57 28.9 1311.12 27.85C1309.52 26.7 1308.72 25.425 1308.72 24.025C1308.72 22.825 1309.37 22.225 1310.67 22.225C1311.52 22.225 1312.1 22.65 1312.4 23.5C1312.9 24.95 1313.92 25.675 1315.47 25.675C1317.07 25.675 1318.42 25.175 1319.52 24.175C1320.62 23.175 1321.17 21.9 1321.17 20.35C1321.17 19.05 1320.75 18.025 1319.9 17.275C1319.05 16.475 1317.95 16.075 1316.6 16.075C1313.7 16.075 1311.5 17.35 1310 19.9C1308.7 22 1308.05 24.6 1308.05 27.7C1308.05 37.5 1311.02 42.4 1316.97 42.4C1319.17 42.4 1321.02 41.75 1322.52 40.45C1324.02 39.15 1324.77 37.425 1324.77 35.275C1324.77 34.425 1324.62 33.25 1324.32 31.75C1324.22 30.4 1324.85 29.725 1326.2 29.725C1327.35 29.725 1327.97 30.3 1328.07 31.45C1328.32 34.4 1328.45 36 1328.45 36.25ZM1415.65 22C1415.65 25.45 1413.18 27.325 1408.23 27.625C1410.33 29.525 1411.38 31.775 1411.38 34.375C1411.38 42.225 1405.35 46.15 1393.3 46.15C1389.05 46.15 1385.15 45.25 1381.6 43.45C1377.3 41.25 1375.15 38.225 1375.15 34.375C1375.15 29.275 1377.65 25.8 1382.65 23.95L1380.33 23.875C1376.38 23.725 1374.4 24.375 1374.4 25.825C1374.4 26.125 1374.5 26.575 1374.7 27.175C1374.95 27.775 1375.08 28.225 1375.08 28.525C1375.08 29.625 1374.43 30.175 1373.13 30.175C1372.33 30.175 1371.7 29.625 1371.25 28.525C1370.85 27.625 1370.65 26.725 1370.65 25.825C1370.65 22.025 1373.88 20.125 1380.33 20.125C1383.08 20.125 1388 20.9 1395.1 22.45L1395.4 21.1C1395.4 18.8 1393.53 16.975 1389.78 15.625C1386.98 14.625 1384.08 14.125 1381.08 14.125C1377.88 14.125 1376.28 14.775 1376.28 16.075C1376.28 16.425 1376.4 16.925 1376.65 17.575C1376.9 18.175 1377.03 18.65 1377.03 19C1377.03 19.9 1376.45 20.35 1375.3 20.35C1373.45 20.35 1372.53 18.925 1372.53 16.075C1372.53 12.275 1375.75 10.375 1382.2 10.375C1384.4 10.375 1388.28 10.975 1393.83 12.175C1399.43 13.375 1403.48 14.025 1405.98 14.125V14.2H1406.05C1406.9 14.2 1407.75 13.825 1408.6 13.075C1409.5 12.325 1409.98 11.525 1410.03 10.675C1410.13 9.425 1410.13 8.675 1410.03 8.425C1409.88 7.775 1409.33 7 1408.38 6.1C1407.98 5.7 1407.78 5.25 1407.78 4.75C1407.78 3.5 1408.43 2.875 1409.73 2.875C1410.23 2.875 1410.65 3.05 1411 3.4C1413.05 5.3 1413.98 7.775 1413.78 10.825C1413.68 12.725 1412.83 14.4 1411.23 15.85C1409.68 17.25 1407.95 17.95 1406.05 17.95H1405.98C1404.43 17.95 1401.83 17.65 1398.18 17.05C1398.83 18.2 1399.15 19.475 1399.15 20.875C1399.15 21.625 1399.05 22.425 1398.85 23.275C1401.5 23.725 1404.1 23.95 1406.65 23.95C1410.15 23.95 1411.9 23.3 1411.9 22C1411.9 21.7 1411.78 21.275 1411.53 20.725C1411.28 20.125 1411.15 19.675 1411.15 19.375C1411.15 18.275 1411.73 17.725 1412.88 17.725C1414.73 17.725 1415.65 19.15 1415.65 22ZM1407.63 34.375C1407.63 31.825 1405.8 29.775 1402.15 28.225C1399.3 27.025 1396.35 26.425 1393.3 26.425C1389 26.425 1385.88 26.775 1383.93 27.475C1380.58 28.675 1378.9 30.975 1378.9 34.375C1378.9 36.975 1380.73 39.05 1384.38 40.6C1387.23 41.8 1390.2 42.4 1393.3 42.4C1402.85 42.4 1407.63 39.725 1407.63 34.375ZM1459.65 30.775C1459.65 34.925 1458.48 38.475 1456.13 41.425C1453.63 44.575 1450.35 46.15 1446.3 46.15C1443.05 46.15 1440.23 45.025 1437.83 42.775C1437.28 42.225 1435.63 40.1 1432.88 36.4C1431.23 34.15 1429.65 33.025 1428.15 33.025C1424.35 33.025 1422.45 35.3 1422.45 39.85C1422.45 43.75 1423.53 46.175 1425.68 47.125C1426.43 47.475 1426.8 48.025 1426.8 48.775C1426.8 50.075 1426.2 50.725 1425 50.725C1423.2 50.725 1421.58 49.275 1420.13 46.375C1419.18 44.475 1418.7 42.375 1418.7 40.075C1418.7 36.975 1419.48 34.45 1421.03 32.5C1422.78 30.35 1425.15 29.275 1428.15 29.275C1430.7 29.275 1432.88 30.4 1434.68 32.65C1435.68 34.1 1437.25 36.225 1439.4 39.025C1441.25 41.275 1443.55 42.4 1446.3 42.4C1449.3 42.4 1451.7 41.175 1453.5 38.725C1455.1 36.525 1455.9 33.875 1455.9 30.775C1455.9 27.475 1454.58 24.55 1451.93 22C1449.73 19.9 1446.88 18.3 1443.38 17.2C1442.38 17.05 1439.85 16.45 1435.8 15.4C1432.6 14.55 1430.1 14.125 1428.3 14.125C1424.35 14.125 1422.38 14.775 1422.38 16.075C1422.38 16.375 1422.5 16.825 1422.75 17.425C1423 18.025 1423.13 18.475 1423.13 18.775C1423.13 19.825 1422.55 20.35 1421.4 20.35C1419.55 20.35 1418.63 18.925 1418.63 16.075C1418.63 12.275 1421.85 10.375 1428.3 10.375C1429.9 10.375 1431.8 10.675 1434 11.275C1436.7 12.025 1438.63 12.5 1439.78 12.7C1442.73 13.25 1446.1 13.725 1449.9 14.125C1450.45 14.175 1451.08 14.2 1451.78 14.2C1452.63 14.2 1453.48 13.825 1454.33 13.075C1455.23 12.325 1455.7 11.525 1455.75 10.675C1455.85 9.425 1455.85 8.675 1455.75 8.425C1455.6 7.775 1455.05 7 1454.1 6.1C1453.7 5.7 1453.5 5.25 1453.5 4.75C1453.5 3.5 1454.15 2.875 1455.45 2.875C1455.95 2.875 1456.38 3.05 1456.73 3.4C1458.78 5.3 1459.7 7.775 1459.5 10.825C1459.4 12.525 1458.7 14.05 1457.4 15.4C1456.1 16.75 1454.6 17.575 1452.9 17.875C1457.4 21.275 1459.65 25.575 1459.65 30.775ZM1473.97 69.475C1473.97 70.725 1473.35 71.35 1472.1 71.35C1469.4 71.4 1467.22 70.825 1465.57 69.625C1464.47 68.825 1463.2 67.325 1461.75 65.125C1460.45 65.825 1458.27 66.175 1455.22 66.175C1452.67 66.175 1450.65 65.275 1449.15 63.475C1447.65 61.675 1446.9 59.475 1446.9 56.875C1446.9 54.425 1447.62 52.375 1449.07 50.725C1450.47 49.075 1452.4 48.25 1454.85 48.25C1456.95 48.25 1458.57 49 1459.72 50.5C1460.47 51.5 1461.17 53.15 1461.82 55.45C1462.57 57.95 1463.17 59.6 1463.62 60.4C1465.82 59.35 1467.3 57.825 1468.05 55.825C1468.55 54.475 1468.8 52.35 1468.8 49.45C1468.8 47.25 1467.65 44.075 1465.35 39.925C1463.05 35.775 1461.9 32.6 1461.9 30.4C1461.9 28.3 1462.57 26.275 1463.92 24.325C1464.32 23.775 1464.82 23.5 1465.42 23.5C1466.72 23.5 1467.37 24.125 1467.37 25.375C1467.37 25.725 1467.25 26.075 1467 26.425C1466.2 27.625 1465.8 28.925 1465.8 30.325C1465.8 32.125 1466.92 35.25 1469.17 39.7C1471.42 44.1 1472.55 47.35 1472.55 49.45C1472.55 56.6 1470.12 61.375 1465.27 63.775C1467.17 66.375 1469.42 67.65 1472.02 67.6C1473.32 67.6 1473.97 68.225 1473.97 69.475ZM1460.25 61.975C1459.2 59.825 1458.3 57.475 1457.55 54.925C1456.95 52.975 1456.05 52 1454.85 52C1452.15 52 1450.8 53.55 1450.8 56.65C1450.8 58.15 1451.22 59.5 1452.07 60.7C1452.92 61.9 1454.07 62.5 1455.52 62.5C1457.77 62.5 1459.35 62.325 1460.25 61.975ZM1518.88 30.775C1518.88 34.925 1517.71 38.475 1515.36 41.425C1512.86 44.575 1509.58 46.15 1505.53 46.15C1502.28 46.15 1499.78 45.35 1498.03 43.75C1497.48 43.25 1496.46 41.75 1494.96 39.25C1494.01 37.65 1492.83 36.85 1491.43 36.85C1489.58 36.85 1488.66 38.125 1488.66 40.675C1488.66 40.925 1488.68 41.325 1488.73 41.875V43.15C1488.73 45.15 1488.11 46.15 1486.86 46.15C1483.11 46.15 1480.56 44.5 1479.21 41.2C1478.31 39 1477.86 35.775 1477.86 31.525C1477.86 27.325 1478.93 23.725 1481.08 20.725C1483.28 17.725 1486.41 15.75 1490.46 14.8C1488.41 14.35 1486.76 14.125 1485.51 14.125C1481.56 14.125 1479.58 14.775 1479.58 16.075C1479.58 16.375 1479.71 16.825 1479.96 17.425C1480.21 18.025 1480.33 18.475 1480.33 18.775C1480.33 19.825 1479.76 20.35 1478.61 20.35C1476.76 20.35 1475.83 18.925 1475.83 16.075C1475.83 12.275 1479.06 10.375 1485.51 10.375C1486.91 10.375 1488.78 10.65 1491.13 11.2C1492.28 11.45 1494.13 11.825 1496.68 12.325C1499.58 12.675 1503.88 13.3 1509.58 14.2C1509.93 14.2 1510.23 14.2 1510.48 14.2C1511.33 14.2 1512.18 13.825 1513.03 13.075C1513.93 12.325 1514.41 11.525 1514.46 10.675C1514.56 9.425 1514.56 8.675 1514.46 8.425C1514.31 7.775 1513.76 7 1512.81 6.1C1512.41 5.7 1512.21 5.25 1512.21 4.75C1512.21 3.5 1512.86 2.875 1514.16 2.875C1514.66 2.875 1515.08 3.05 1515.43 3.4C1517.48 5.3 1518.41 7.775 1518.21 10.825C1518.11 12.725 1517.26 14.4 1515.66 15.85C1514.11 17.25 1512.38 17.95 1510.48 17.95C1510.08 17.95 1509.61 17.925 1509.06 17.875C1510.51 19.075 1511.58 20.475 1512.28 22.075C1516.68 23.575 1518.88 26.475 1518.88 30.775ZM1509.51 26.875C1509.51 26.325 1509.46 25.8 1509.36 25.3C1508.81 25.25 1508.26 25.225 1507.71 25.225C1504.06 25.225 1502.23 26.15 1502.23 28C1502.23 30.45 1503.18 31.675 1505.08 31.675C1506.28 31.675 1507.31 31.175 1508.16 30.175C1509.06 29.175 1509.51 28.075 1509.51 26.875ZM1515.13 30.925C1515.13 29.275 1514.51 27.925 1513.26 26.875C1513.26 29.125 1512.46 31.125 1510.86 32.875C1509.26 34.575 1507.33 35.425 1505.08 35.425C1503.08 35.425 1501.48 34.7 1500.28 33.25C1499.08 31.75 1498.48 30 1498.48 28C1498.48 25.9 1499.43 24.25 1501.33 23.05C1502.93 22.05 1504.88 21.5 1507.18 21.4C1504.78 19.1 1501.21 17.95 1496.46 17.95C1491.86 17.95 1488.26 19.05 1485.66 21.25C1482.96 23.6 1481.61 27.025 1481.61 31.525C1481.61 37.525 1482.58 41 1484.53 41.95C1484.43 39.7 1485.01 37.675 1486.26 35.875C1487.56 34.025 1489.28 33.1 1491.43 33.1C1493.83 33.1 1495.68 33.9 1496.98 35.5L1499.83 40C1501.13 41.6 1503.03 42.4 1505.53 42.4C1508.53 42.4 1510.93 41.2 1512.73 38.8C1514.33 36.65 1515.13 34.025 1515.13 30.925ZM1563.07 30.775C1563.07 34.925 1561.9 38.475 1559.55 41.425C1557.05 44.575 1553.77 46.15 1549.72 46.15C1546.47 46.15 1543.97 45.35 1542.22 43.75C1541.67 43.25 1540.65 41.75 1539.15 39.25C1538.2 37.65 1537.02 36.85 1535.62 36.85C1533.77 36.85 1532.85 38.125 1532.85 40.675C1532.85 40.925 1532.87 41.325 1532.92 41.875V43.15C1532.92 45.15 1532.3 46.15 1531.05 46.15C1525.05 46.15 1522.05 41.875 1522.05 33.325C1522.05 30.975 1522.65 29.025 1523.85 27.475C1525.2 25.725 1527 24.85 1529.25 24.85C1530.5 24.85 1531.12 25.475 1531.12 26.725C1531.12 27.975 1530.5 28.6 1529.25 28.6C1526.95 28.6 1525.8 30.175 1525.8 33.325C1525.8 38.075 1526.77 40.95 1528.72 41.95C1528.62 39.7 1529.2 37.675 1530.45 35.875C1531.75 34.025 1533.47 33.1 1535.62 33.1C1538.02 33.1 1539.87 33.9 1541.17 35.5L1544.02 40C1545.32 41.6 1547.22 42.4 1549.72 42.4C1552.72 42.4 1555.12 41.175 1556.92 38.725C1558.52 36.525 1559.32 33.875 1559.32 30.775C1559.32 25.975 1555.82 21.875 1548.82 18.475C1542.87 15.575 1537.12 14.125 1531.57 14.125C1527.62 14.125 1525.65 14.775 1525.65 16.075C1525.65 16.375 1525.77 16.825 1526.02 17.425C1526.27 18.025 1526.4 18.475 1526.4 18.775C1526.4 19.825 1525.82 20.35 1524.67 20.35C1522.82 20.35 1521.9 18.925 1521.9 16.075C1521.9 12.275 1525.12 10.375 1531.57 10.375C1532.97 10.375 1534.85 10.65 1537.2 11.2C1539.6 11.75 1541.45 12.125 1542.75 12.325C1545.8 12.925 1550 13.525 1555.35 14.125C1556.55 14.275 1557.15 14.9 1557.15 16C1557.15 17.05 1556.67 17.675 1555.72 17.875C1560.62 21.375 1563.07 25.675 1563.07 30.775ZM1587.81 32.725C1587.66 36.425 1586.69 39.5 1584.89 41.95C1582.84 44.75 1580.04 46.15 1576.49 46.15C1569.69 46.15 1566.29 42.025 1566.29 33.775C1566.29 31.025 1566.84 28.7 1567.94 26.8C1569.24 24.4 1571.16 23.2 1573.71 23.2C1575.41 23.2 1576.81 23.775 1577.91 24.925C1579.01 26.075 1579.56 27.5 1579.56 29.2C1579.56 31.15 1578.89 32.725 1577.54 33.925C1576.24 35.075 1574.61 35.65 1572.66 35.65C1571.41 35.65 1570.79 35.025 1570.79 33.775C1570.79 32.525 1571.41 31.9 1572.66 31.9C1574.76 31.9 1575.81 31 1575.81 29.2C1575.81 27.7 1575.11 26.95 1573.71 26.95C1572.36 26.95 1571.36 27.8 1570.71 29.5C1570.26 30.75 1570.04 32.175 1570.04 33.775C1570.04 36.575 1570.41 38.625 1571.16 39.925C1572.16 41.575 1573.94 42.4 1576.49 42.4C1578.94 42.4 1580.84 41.325 1582.19 39.175C1583.34 37.425 1583.96 35.225 1584.06 32.575C1584.36 25.275 1581.89 19.825 1576.64 16.225C1572.84 17.375 1565.89 17.95 1555.79 17.95C1555.59 17.95 1553.84 17.775 1550.54 17.425L1550.61 13.825C1552.96 14.075 1554.69 14.2 1555.79 14.2C1566.09 14.2 1572.94 13.6 1576.34 12.4C1576.84 12.2 1577.36 12.275 1577.91 12.625C1584.86 17.025 1588.16 23.725 1587.81 32.725ZM1630.85 30.775C1630.85 34.125 1630.1 37.175 1628.6 39.925C1626.95 43.025 1624.68 45.075 1621.78 46.075C1621.53 46.125 1621.3 46.15 1621.1 46.15C1619.9 46.15 1619.3 45.5 1619.3 44.2C1619.3 43.35 1619.73 42.775 1620.58 42.475C1622.73 41.725 1624.38 40.125 1625.53 37.675C1626.58 35.575 1627.1 33.275 1627.1 30.775C1627.1 19.675 1620.8 14.125 1608.2 14.125C1606.5 14.125 1604.88 14.425 1603.33 15.025C1601.28 15.775 1600.25 16.85 1600.25 18.25C1600.25 20.85 1601.63 22.15 1604.38 22.15C1606.93 22.15 1608.2 21.025 1608.2 18.775C1608.2 17.725 1608.28 17.025 1608.43 16.675C1608.73 16.125 1609.4 15.85 1610.45 15.85C1611.95 15.85 1612.7 16.825 1612.7 18.775C1612.7 20.775 1611.83 22.475 1610.08 23.875C1608.33 25.225 1606.43 25.9 1604.38 25.9C1602.58 25.9 1601.05 25.525 1599.8 24.775C1598.5 25.025 1597.43 25.725 1596.58 26.875C1595.73 27.975 1595.3 29.2 1595.3 30.55C1595.3 33.55 1595.68 35.8 1596.43 37.3C1597.48 39.45 1599.48 41.2 1602.43 42.55C1603.18 42.9 1603.55 43.45 1603.55 44.2C1603.55 45.5 1602.95 46.15 1601.75 46.15C1601.4 46.15 1601.13 46.1 1600.93 46C1597.08 44.3 1594.43 41.875 1592.98 38.725C1592.03 36.675 1591.55 33.95 1591.55 30.55C1591.55 28.7 1592.05 26.95 1593.05 25.3C1594.1 23.6 1595.45 22.35 1597.1 21.55C1596.7 20.55 1596.5 19.45 1596.5 18.25C1596.5 15.65 1597.88 13.625 1600.63 12.175C1602.83 10.975 1605.35 10.375 1608.2 10.375C1623.3 10.375 1630.85 17.175 1630.85 30.775ZM1676.24 10.825C1676.14 12.725 1675.29 14.4 1673.69 15.85C1672.14 17.25 1670.42 17.95 1668.52 17.95C1668.22 17.95 1667.89 17.925 1667.54 17.875C1673.04 21.025 1675.79 25.325 1675.79 30.775C1675.79 35.875 1673.92 39.8 1670.17 42.55C1666.82 44.95 1662.49 46.15 1657.19 46.15C1643.39 46.15 1636.49 40.45 1636.49 29.05C1636.49 20.9 1640.44 16.1 1648.34 14.65C1646.69 14.3 1645.34 14.125 1644.29 14.125C1640.34 14.125 1638.37 14.775 1638.37 16.075C1638.37 16.375 1638.49 16.825 1638.74 17.425C1638.99 18.025 1639.12 18.475 1639.12 18.775C1639.12 19.825 1638.54 20.35 1637.39 20.35C1635.54 20.35 1634.62 18.925 1634.62 16.075C1634.62 12.275 1637.84 10.375 1644.29 10.375C1645.69 10.375 1647.57 10.65 1649.92 11.2C1651.07 11.45 1652.92 11.825 1655.47 12.325C1658.62 12.675 1662.97 13.3 1668.52 14.2C1669.37 14.2 1670.22 13.825 1671.07 13.075C1671.97 12.325 1672.44 11.525 1672.49 10.675C1672.59 9.425 1672.59 8.675 1672.49 8.425C1672.34 7.775 1671.79 7 1670.84 6.1C1670.44 5.7 1670.24 5.25 1670.24 4.75C1670.24 3.5 1670.89 2.875 1672.19 2.875C1672.69 2.875 1673.12 3.05 1673.47 3.4C1675.52 5.3 1676.44 7.775 1676.24 10.825ZM1672.04 30.775C1672.04 26.725 1669.84 23.475 1665.44 21.025C1661.79 18.975 1657.77 17.95 1653.37 17.95C1644.62 17.95 1640.24 21.65 1640.24 29.05C1640.24 37.95 1645.89 42.4 1657.19 42.4C1661.39 42.4 1664.82 41.525 1667.47 39.775C1670.52 37.775 1672.04 34.775 1672.04 30.775ZM1698.66 33.1C1698.66 37.25 1697.46 40.475 1695.06 42.775C1692.71 45.025 1689.46 46.15 1685.31 46.15C1680.86 46.15 1677.46 44.975 1675.11 42.625C1672.71 40.225 1671.51 36.85 1671.51 32.5C1671.51 31.25 1672.13 30.625 1673.38 30.625C1674.63 30.625 1675.26 31.25 1675.26 32.5C1675.26 39.1 1678.61 42.4 1685.31 42.4C1691.71 42.4 1694.91 39.3 1694.91 33.1C1694.91 31.4 1693.31 28.65 1690.11 24.85C1686.91 21 1685.31 18.075 1685.31 16.075C1685.31 13.425 1686.46 11.225 1688.76 9.475C1689.11 9.225 1689.48 9.1 1689.88 9.1C1691.13 9.1 1691.76 9.75 1691.76 11.05C1691.76 11.6 1691.51 12.075 1691.01 12.475C1690.16 13.125 1689.66 13.575 1689.51 13.825C1689.21 14.275 1689.06 15.025 1689.06 16.075C1689.06 17.175 1689.88 18.675 1691.53 20.575C1694.28 23.775 1695.83 25.625 1696.18 26.125C1697.83 28.475 1698.66 30.8 1698.66 33.1ZM1713.54 42.625C1713.54 43.525 1713.12 44.375 1712.27 45.175C1711.47 45.925 1710.62 46.3 1709.72 46.3C1708.72 46.3 1707.84 45.95 1707.09 45.25C1706.39 44.5 1706.04 43.625 1706.04 42.625C1706.04 41.575 1706.39 40.725 1707.09 40.075C1707.79 39.375 1708.67 39.025 1709.72 39.025C1710.72 39.025 1711.62 39.35 1712.42 40C1713.17 40.9 1713.54 41.775 1713.54 42.625Z" fill="black"/>
</svg>
