<svg width="1615" height="82" viewBox="0 0 1615 82" fill="none" xmlns="http://www.w3.org/2000/svg">
<path d="M41.55 37.15C41.55 41.2 40.45 44.7 38.25 47.65C36.1 50.55 33.65 52 30.9 52C28.75 52 26.75 51.1 24.9 49.3C23.1 47.45 21.8 45.05 21 42.1C20.25 45 18.875 47.375 16.875 49.225C14.875 51.075 12.675 52 10.275 52C7.575 52 5.25 50.8 3.3 48.4C1.35 46 0.375 43.075 0.375 39.625C0.375 37.375 1.1 35.45 2.55 33.85C4 32.2 5.75 31.375 7.8 31.375C9.4 31.375 10.75 31.95 11.85 33.1C13 34.2 13.575 35.55 13.575 37.15C13.575 38.45 13.1 39.575 12.15 40.525C11.2 41.475 10.025 42 8.625 42.1V40.45C10.225 40.05 11.05 39.225 11.1 37.975C11.15 36.825 10.75 35.85 9.9 35.05C9.1 34.25 8.125 33.85 6.975 33.85C5.625 33.85 4.45 34.35 3.45 35.35C2.5 36.3 2.025 37.45 2.025 38.8C2.025 40.85 2.825 42.6 4.425 44.05C6.075 45.5 8.025 46.225 10.275 46.225C12.825 46.225 15.1 45.225 17.1 43.225C19.15 41.175 20.45 38.6 21 35.5C21.55 38.55 22.8 41.1 24.75 43.15C26.7 45.2 28.725 46.225 30.825 46.225C33.225 46.225 35.275 45.35 36.975 43.6C38.675 41.8 39.5 39.65 39.45 37.15C39.45 31.95 37.325 27.625 33.075 24.175C28.875 20.675 23.725 18.925 17.625 18.925C14.525 18.925 13.025 18.175 13.125 16.675C13.175 15.475 14.675 14.875 17.625 14.875C22.825 14.875 27.775 16.525 32.475 19.825C35.325 21.825 37.55 24.375 39.15 27.475C40.75 30.525 41.55 33.75 41.55 37.15ZM66.4148 22.3C66.4148 21.4 66.0148 20.625 65.2148 19.975C64.4148 19.325 63.4398 19 62.2898 19C61.2398 19 60.3398 19.325 59.5898 19.975C58.8898 20.625 58.5398 21.4 58.5398 22.3C58.5398 23.35 58.8898 24.25 59.5898 25C60.3398 25.7 61.2398 26.05 62.2898 26.05C63.4398 26.05 64.4148 25.7 65.2148 25C66.0148 24.25 66.4148 23.35 66.4148 22.3ZM82.0898 20.65C84.0898 21.35 85.6898 22.775 86.8898 24.925C88.0898 27.025 88.6898 29.45 88.6898 32.2C88.7398 37.7 86.8148 42.375 82.9148 46.225C79.0648 50.075 74.3898 52 68.8898 52C63.3898 52 58.7148 50 54.8648 46C51.0148 41.95 49.0898 37.075 49.0898 31.375C49.0898 26.825 50.2898 22.95 52.6898 19.75C55.1398 16.5 58.0648 14.875 61.4648 14.875C63.5148 14.875 65.2648 15.7 66.7148 17.35C68.1648 18.95 68.8898 20.875 68.8898 23.125C68.8898 25.375 68.2398 27.325 66.9398 28.975C65.6398 30.575 64.0898 31.375 62.2898 31.375C60.6898 31.375 59.3398 30.75 58.2398 29.5C57.1398 28.2 56.5648 26.625 56.5148 24.775C56.4648 22.925 56.7398 21.55 57.3398 20.65C55.3398 21.35 53.7398 22.7 52.5398 24.7C51.3398 26.65 50.7398 28.875 50.7398 31.375C50.6898 35.475 52.4398 38.975 55.9898 41.875C59.5898 44.775 63.8898 46.225 68.8898 46.225C73.9398 46.225 78.2148 44.775 81.7148 41.875C85.2648 38.975 87.0398 35.475 87.0398 31.375C87.0398 28.425 85.6648 25.9 82.9148 23.8C80.2148 21.7 76.9148 20.65 73.0148 20.65V14.875H99.1898C104.44 14.875 108.74 16.925 112.09 21.025C115.09 24.825 116.59 29.425 116.59 34.825C116.59 38.875 115.54 42.625 113.44 46.075C110.99 50.025 107.89 52 104.14 52C100.74 52 98.0398 50.725 96.0398 48.175C94.2898 45.825 93.4148 43 93.4148 39.7C93.4148 36.9 93.8898 34.575 94.8398 32.725C95.9898 30.475 97.5898 29.35 99.6398 29.35C100.89 29.35 101.965 29.75 102.865 30.55C103.765 31.3 104.215 32.275 104.215 33.475C104.215 34.525 103.89 35.475 103.24 36.325C102.64 37.175 101.865 37.6 100.915 37.6C99.8648 37.6 98.9148 37.275 98.0648 36.625C97.2648 35.925 96.8648 35.075 96.8648 34.075C96.8648 33.575 96.9648 33.1 97.1648 32.65C95.7648 33.95 95.0648 35.9 95.0648 38.5C95.0648 40.65 95.9398 42.475 97.6898 43.975C99.4398 45.475 101.665 46.225 104.365 46.225C107.665 46.225 110.315 44.825 112.315 42.025C114.015 39.575 114.865 36.625 114.865 33.175C114.865 29.175 113.19 26.025 109.84 23.725C106.94 21.675 103.39 20.65 99.1898 20.65H82.0898ZM113.658 66.175C113.658 68.575 113.108 70.6 112.008 72.25C110.858 73.95 109.483 74.8 107.883 74.8C106.983 74.8 106.533 74.325 106.533 73.375C106.533 72.425 106.983 71.95 107.883 71.95C109.083 71.95 110.083 71.55 110.883 70.75C111.633 69.95 112.008 68.975 112.008 67.825C112.008 66.025 111.358 64.475 110.058 63.175C108.758 61.875 107.208 61.225 105.408 61.225C103.158 61.225 101.183 61.925 99.4834 63.325C97.7334 64.725 96.6834 66.5 96.3334 68.65C95.9334 66.5 94.8834 64.725 93.1834 63.325C91.4334 61.925 89.4584 61.225 87.2584 61.225C85.5084 61.225 83.9834 61.875 82.6834 63.175C81.3834 64.475 80.7084 66.025 80.6584 67.825C80.6584 68.975 81.0834 69.95 81.9334 70.75C82.7334 71.55 83.6834 71.95 84.7834 71.95C85.7334 71.95 86.2084 72.425 86.2084 73.375C86.2084 74.325 85.7334 74.8 84.7834 74.8C83.1834 74.8 81.8334 73.95 80.7334 72.25C79.5834 70.6 79.0084 68.575 79.0084 66.175C79.0084 63.425 79.9084 61.075 81.7084 59.125C83.4584 57.225 85.5834 56.275 88.0834 56.275C90.0834 56.275 91.8584 57.05 93.4084 58.6C94.9584 60.15 95.9334 62.125 96.3334 64.525C96.6834 62.125 97.6584 60.15 99.2584 58.6C100.808 57.05 102.583 56.275 104.583 56.275C107.083 56.275 109.233 57.225 111.033 59.125C112.783 61.075 113.658 63.425 113.658 66.175ZM159.401 36.325C159.401 31.975 157.701 28.275 154.301 25.225C150.951 22.175 146.876 20.65 142.076 20.65C137.326 20.65 133.251 22.175 129.851 25.225C126.451 28.275 124.751 31.975 124.751 36.325C124.751 39.025 125.551 41.35 127.151 43.3C128.801 45.25 130.751 46.225 133.001 46.225C135.001 46.225 136.851 45.475 138.551 43.975C140.301 42.425 141.476 40.425 142.076 37.975C142.726 40.425 143.901 42.425 145.601 43.975C147.301 45.475 149.151 46.225 151.151 46.225C153.401 46.225 155.326 45.25 156.926 43.3C158.576 41.35 159.401 39.025 159.401 36.325ZM148.676 20.65C152.826 21.75 156.201 23.85 158.801 26.95C161.401 30 162.701 33.4 162.701 37.15C162.701 41.25 161.651 44.75 159.551 47.65C157.451 50.55 154.951 52 152.051 52C149.751 52 147.676 51.175 145.826 49.525C144.026 47.825 142.776 45.625 142.076 42.925C141.326 45.625 140.026 47.825 138.176 49.525C136.376 51.175 134.376 52 132.176 52C129.226 52 126.701 50.55 124.601 47.65C122.501 44.75 121.451 41.25 121.451 37.15C121.451 33.4 122.751 30 125.351 26.95C128.001 23.85 131.376 21.75 135.476 20.65H121.451V14.875H154.001C156.051 14.875 157.651 14.275 158.801 13.075C159.751 12.125 160.226 10.975 160.226 9.625C160.226 6.925 159.251 5.1 157.301 4.15L158.126 2.95C161.376 4.4 162.926 7.025 162.776 10.825C162.626 13.775 161.751 16.15 160.151 17.95C158.551 19.75 156.501 20.65 154.001 20.65H148.676ZM199.781 33.025C199.781 29.625 198.481 26.725 195.881 24.325C193.331 21.875 190.256 20.65 186.656 20.65C182.956 20.65 179.806 21.875 177.206 24.325C174.656 26.725 173.381 29.625 173.381 33.025C173.381 36.825 174.656 39.975 177.206 42.475C179.806 44.975 182.981 46.225 186.731 46.225C190.381 46.225 193.456 44.975 195.956 42.475C198.506 39.975 199.781 36.825 199.781 33.025ZM193.181 20.65C196.231 21.7 198.631 23.6 200.381 26.35C202.181 29.05 203.081 32.1 203.081 35.5C203.081 40.05 201.456 43.95 198.206 47.2C195.006 50.4 191.156 52 186.656 52C182.056 52 178.131 50.4 174.881 47.2C171.681 43.95 170.081 40.05 170.081 35.5C170.081 32.1 171.006 29.05 172.856 26.35C174.706 23.6 177.081 21.7 179.981 20.65H170.081V14.875H194.681C196.731 14.875 198.331 14.275 199.481 13.075C200.431 12.125 200.906 10.975 200.906 9.625C200.906 6.925 199.931 5.1 197.981 4.15L198.806 2.95C202.056 4.4 203.606 7.025 203.456 10.825C203.306 13.775 202.431 16.15 200.831 17.95C199.231 19.75 197.181 20.65 194.681 20.65H193.181ZM251.694 33.85C251.694 38.9 250.569 43.2 248.319 46.75C246.069 50.25 243.344 52 240.144 52C236.994 52 234.469 51.1 232.569 49.3C230.469 47.35 229.419 44.55 229.419 40.9C229.419 38.7 230.144 36.85 231.594 35.35C233.044 33.8 234.794 33.025 236.844 33.025C239.644 33.025 241.044 34.3 241.044 36.85C241.044 38 240.769 38.975 240.219 39.775C239.619 40.775 238.769 41.275 237.669 41.275C236.669 41.275 235.819 40.875 235.119 40.075C234.419 39.225 234.069 38.25 234.069 37.15C234.069 36.6 234.169 36.05 234.369 35.5C232.719 36.9 231.894 38.55 231.894 40.45C231.894 42.25 232.644 43.675 234.144 44.725C235.694 45.725 237.619 46.225 239.919 46.225C242.719 46.225 245.094 45.05 247.044 42.7C249.044 40.35 250.044 37.4 250.044 33.85C250.044 30.2 248.419 27.1 245.169 24.55C241.969 21.95 238.094 20.65 233.544 20.65C230.244 20.65 227.419 21.875 225.069 24.325C222.719 26.725 221.544 29.625 221.544 33.025C221.544 34.325 221.744 36.25 222.144 38.8C222.594 41.35 222.819 43.275 222.819 44.575C222.819 46.625 221.994 48.375 220.344 49.825C218.744 51.275 216.819 52 214.569 52C211.569 52 208.994 50.825 206.844 48.475C204.694 46.075 203.069 42.825 201.969 38.725V35.425C203.619 38.925 205.319 41.6 207.069 43.45C208.819 45.3 210.769 46.225 212.919 46.225C214.969 46.225 216.719 45.675 218.169 44.575C219.619 43.425 220.344 42.05 220.344 40.45C220.344 39.1 220.069 37.05 219.519 34.3C218.969 31.55 218.694 29.475 218.694 28.075C218.744 24.425 220.194 21.325 223.044 18.775C225.944 16.175 229.444 14.875 233.544 14.875C238.594 14.875 242.869 16.725 246.369 20.425C249.919 24.125 251.694 28.6 251.694 33.85ZM331.083 56.125C331.083 57.225 330.533 57.775 329.433 57.775C328.333 57.775 327.783 57.225 327.783 56.125C327.783 51.325 327.183 47.475 325.983 44.575C322.533 49.525 318.133 52 312.783 52C309.583 52 306.858 51.2 304.608 49.6C302.358 47.95 301.233 46 301.233 43.75C301.233 41.5 302.433 39.575 304.833 37.975C307.283 36.325 310.208 35.5 313.608 35.5C317.458 35.5 321.308 37.425 325.158 41.275C327.408 38.675 328.508 34.825 328.458 29.725C328.458 27.225 327.483 25.1 325.533 23.35C323.583 21.55 321.258 20.65 318.558 20.65C313.408 20.65 310.383 23.25 309.483 28.45C309.033 26.15 307.758 24.275 305.658 22.825C303.608 21.375 301.308 20.65 298.758 20.65C296.508 20.65 294.558 21.3 292.908 22.6C291.308 23.9 290.508 25.45 290.508 27.25C290.508 28.85 291.058 30.225 292.158 31.375C293.308 32.475 294.683 33.025 296.283 33.025C297.133 33.025 297.558 33.45 297.558 34.3C297.558 35.1 297.133 35.5 296.283 35.5C294.233 35.5 292.483 34.625 291.033 32.875C289.583 31.075 288.858 28.925 288.858 26.425C288.858 23.225 289.833 20.5 291.783 18.25C293.733 16 296.058 14.875 298.758 14.875C300.858 14.875 302.883 15.625 304.833 17.125C306.983 18.775 308.533 20.9 309.483 23.5C309.983 20.8 311.033 18.7 312.633 17.2C314.233 15.65 316.208 14.875 318.558 14.875C321.758 14.875 324.483 16.325 326.733 19.225C328.983 22.125 330.108 25.625 330.108 29.725C330.108 35.375 329.008 39.775 326.808 42.925C329.658 46.625 331.083 51.025 331.083 56.125ZM324.333 42.55C321.383 38.95 317.808 37.15 313.608 37.15C311.358 37.15 309.408 37.65 307.758 38.65C306.158 39.6 305.358 40.75 305.358 42.1C305.358 43.25 306.158 44.225 307.758 45.025C309.358 45.825 311.308 46.225 313.608 46.225C318.258 46.225 321.833 45 324.333 42.55ZM367.579 33.025C367.579 29.625 366.279 26.725 363.679 24.325C361.129 21.875 358.054 20.65 354.454 20.65C350.754 20.65 347.604 21.875 345.004 24.325C342.454 26.725 341.179 29.625 341.179 33.025C341.179 36.825 342.454 39.975 345.004 42.475C347.604 44.975 350.779 46.225 354.529 46.225C358.179 46.225 361.254 44.975 363.754 42.475C366.304 39.975 367.579 36.825 367.579 33.025ZM360.979 20.65C364.029 21.7 366.429 23.6 368.179 26.35C369.979 29.05 370.879 32.1 370.879 35.5C370.879 40.05 369.254 43.95 366.004 47.2C362.804 50.4 358.954 52 354.454 52C349.854 52 345.929 50.4 342.679 47.2C339.479 43.95 337.879 40.05 337.879 35.5C337.879 32.1 338.804 29.05 340.654 26.35C342.504 23.6 344.879 21.7 347.779 20.65H337.879V14.875H362.479C364.529 14.875 366.129 14.275 367.279 13.075C368.229 12.125 368.704 10.975 368.704 9.625C368.704 6.925 367.729 5.1 365.779 4.15L366.604 2.95C369.854 4.4 371.404 7.025 371.254 10.825C371.104 13.775 370.229 16.15 368.629 17.95C367.029 19.75 364.979 20.65 362.479 20.65H360.979ZM393.617 35.5C393.667 40.05 392.592 43.95 390.392 47.2C388.192 50.4 385.542 52 382.442 52C379.592 52 376.942 50.775 374.492 48.325C372.042 45.875 370.292 42.7 369.242 38.8V34.675C370.592 38.175 372.467 40.975 374.867 43.075C377.267 45.175 379.792 46.225 382.442 46.225C385.092 46.225 387.317 45.1 389.117 42.85C390.967 40.6 391.892 37.875 391.892 34.675C391.892 31.675 390.567 28.8 387.917 26.05C385.117 23.1 381.717 21.275 377.717 20.575C376.717 20.375 375.842 19.925 375.092 19.225C374.392 18.525 374.042 17.825 374.042 17.125C374.042 16.525 374.392 16 375.092 15.55C375.842 15.1 376.717 14.875 377.717 14.875C382.067 14.825 385.842 17 389.042 21.4C392.092 25.6 393.617 30.3 393.617 35.5ZM472.141 37.15C472.141 41.2 471.041 44.7 468.841 47.65C466.691 50.55 464.241 52 461.491 52C459.341 52 457.341 51.1 455.491 49.3C453.691 47.45 452.391 45.05 451.591 42.1C450.841 45 449.466 47.375 447.466 49.225C445.466 51.075 443.266 52 440.866 52C438.166 52 435.841 50.8 433.891 48.4C431.941 46 430.966 43.075 430.966 39.625C430.966 37.375 431.691 35.45 433.141 33.85C434.591 32.2 436.341 31.375 438.391 31.375C439.991 31.375 441.341 31.95 442.441 33.1C443.591 34.2 444.166 35.55 444.166 37.15C444.166 38.45 443.691 39.575 442.741 40.525C441.791 41.475 440.616 42 439.216 42.1V40.45C440.816 40.05 441.641 39.225 441.691 37.975C441.741 36.825 441.341 35.85 440.491 35.05C439.691 34.25 438.716 33.85 437.566 33.85C436.216 33.85 435.041 34.35 434.041 35.35C433.091 36.3 432.616 37.45 432.616 38.8C432.616 40.85 433.416 42.6 435.016 44.05C436.666 45.5 438.616 46.225 440.866 46.225C443.416 46.225 445.691 45.225 447.691 43.225C449.741 41.175 451.041 38.6 451.591 35.5C452.141 38.55 453.391 41.1 455.341 43.15C457.291 45.2 459.316 46.225 461.416 46.225C463.816 46.225 465.866 45.35 467.566 43.6C469.266 41.8 470.091 39.65 470.041 37.15C470.041 31.95 467.916 27.625 463.666 24.175C459.466 20.675 454.316 18.925 448.216 18.925C445.116 18.925 443.616 18.175 443.716 16.675C443.766 15.475 445.266 14.875 448.216 14.875C453.416 14.875 458.366 16.525 463.066 19.825C465.916 21.825 468.141 24.375 469.741 27.475C471.341 30.525 472.141 33.75 472.141 37.15ZM508.596 33.325C508.596 38.475 507.046 42.875 503.946 46.525C500.896 50.175 497.221 52 492.921 52C488.621 52 484.921 50.175 481.821 46.525C478.771 42.875 477.246 38.475 477.246 33.325C477.246 28.125 478.771 23.7 481.821 20.05C484.921 16.4 488.621 14.575 492.921 14.575C497.271 14.575 500.971 16.4 504.021 20.05C507.121 23.7 508.646 28.125 508.596 33.325ZM506.646 33.325C506.646 29.875 505.296 26.9 502.596 24.4C499.896 21.9 496.671 20.65 492.921 20.65C489.171 20.65 485.946 21.9 483.246 24.4C480.546 26.9 479.196 29.875 479.196 33.325C479.246 36.775 480.596 39.8 483.246 42.4C485.946 44.95 489.171 46.225 492.921 46.225C496.671 46.225 499.896 44.95 502.596 42.4C505.346 39.8 506.696 36.775 506.646 33.325ZM538.396 27.25C537.496 26.65 535.846 26.375 533.446 26.425C531.396 26.475 529.646 26.95 528.196 27.85C526.746 28.7 526.021 29.75 526.021 31C526.021 32.35 527.121 33.025 529.321 33.025C531.421 33.025 533.296 32.5 534.946 31.45C536.646 30.4 537.796 29 538.396 27.25ZM535.921 20.65C537.371 20.9 538.546 21.65 539.446 22.9C540.396 24.15 540.871 25.6 540.871 27.25C544.721 29.4 546.646 33.25 546.646 38.8C546.646 42.45 545.096 45.575 541.996 48.175C538.946 50.725 535.271 52 530.971 52C526.421 52 522.521 50.725 519.271 48.175C516.071 45.575 514.471 42.45 514.471 38.8C514.471 36.05 515.146 34.125 516.496 33.025L517.771 33.85C517.221 34.3 516.946 35.125 516.946 36.325C516.946 39.175 518.296 41.625 520.996 43.675C523.746 45.675 527.071 46.675 530.971 46.675C534.621 46.675 537.746 45.675 540.346 43.675C542.946 41.625 544.221 39.175 544.171 36.325C544.121 33.175 543.021 30.7 540.871 28.9C540.221 31.35 538.896 33.35 536.896 34.9C534.896 36.4 532.646 37.15 530.146 37.15C528.196 37.15 526.521 36.675 525.121 35.725C523.771 34.725 523.096 33.55 523.096 32.2C523.096 30.15 524.096 28.425 526.096 27.025C528.146 25.575 530.596 24.825 533.446 24.775C535.596 24.775 537.246 25.05 538.396 25.6C538.396 24.25 537.746 23.1 536.446 22.15C535.146 21.15 533.596 20.65 531.796 20.65H514.471V14.875H557.896C563.146 14.875 567.446 16.925 570.796 21.025C573.796 24.825 575.296 29.425 575.296 34.825C575.296 38.875 574.246 42.625 572.146 46.075C569.696 50.025 566.596 52 562.846 52C559.446 52 556.746 50.725 554.746 48.175C552.996 45.825 552.121 43 552.121 39.7C552.121 36.9 552.596 34.575 553.546 32.725C554.696 30.475 556.296 29.35 558.346 29.35C559.596 29.35 560.671 29.75 561.571 30.55C562.471 31.3 562.921 32.275 562.921 33.475C562.921 34.525 562.596 35.475 561.946 36.325C561.346 37.175 560.571 37.6 559.621 37.6C558.571 37.6 557.621 37.275 556.771 36.625C555.971 35.925 555.571 35.075 555.571 34.075C555.571 33.575 555.671 33.1 555.871 32.65C554.471 33.95 553.771 35.9 553.771 38.5C553.771 40.65 554.646 42.475 556.396 43.975C558.146 45.475 560.371 46.225 563.071 46.225C566.371 46.225 569.021 44.825 571.021 42.025C572.721 39.575 573.571 36.625 573.571 33.175C573.571 29.175 571.896 26.025 568.546 23.725C565.646 21.675 562.096 20.65 557.896 20.65H535.921ZM617.312 36.325C617.312 31.975 615.612 28.275 612.212 25.225C608.862 22.175 604.787 20.65 599.987 20.65C595.237 20.65 591.162 22.175 587.762 25.225C584.362 28.275 582.662 31.975 582.662 36.325C582.662 39.025 583.462 41.35 585.062 43.3C586.712 45.25 588.662 46.225 590.912 46.225C592.912 46.225 594.762 45.475 596.462 43.975C598.212 42.425 599.387 40.425 599.987 37.975C600.637 40.425 601.812 42.425 603.512 43.975C605.212 45.475 607.062 46.225 609.062 46.225C611.312 46.225 613.237 45.25 614.837 43.3C616.487 41.35 617.312 39.025 617.312 36.325ZM606.587 20.65C610.737 21.75 614.112 23.85 616.712 26.95C619.312 30 620.612 33.4 620.612 37.15C620.612 41.25 619.562 44.75 617.462 47.65C615.362 50.55 612.862 52 609.962 52C607.662 52 605.587 51.175 603.737 49.525C601.937 47.825 600.687 45.625 599.987 42.925C599.237 45.625 597.937 47.825 596.087 49.525C594.287 51.175 592.287 52 590.087 52C587.137 52 584.612 50.55 582.512 47.65C580.412 44.75 579.362 41.25 579.362 37.15C579.362 33.4 580.662 30 583.262 26.95C585.912 23.85 589.287 21.75 593.387 20.65H579.362V14.875H611.912C613.962 14.875 615.562 14.275 616.712 13.075C617.662 12.125 618.137 10.975 618.137 9.625C618.137 6.925 617.162 5.1 615.212 4.15L616.037 2.95C619.287 4.4 620.837 7.025 620.687 10.825C620.537 13.775 619.662 16.15 618.062 17.95C616.462 19.75 614.412 20.65 611.912 20.65H606.587ZM657.691 33.025C657.691 29.625 656.391 26.725 653.791 24.325C651.241 21.875 648.166 20.65 644.566 20.65C640.866 20.65 637.716 21.875 635.116 24.325C632.566 26.725 631.291 29.625 631.291 33.025C631.291 36.825 632.566 39.975 635.116 42.475C637.716 44.975 640.891 46.225 644.641 46.225C648.291 46.225 651.366 44.975 653.866 42.475C656.416 39.975 657.691 36.825 657.691 33.025ZM651.091 20.65C654.141 21.7 656.541 23.6 658.291 26.35C660.091 29.05 660.991 32.1 660.991 35.5C660.991 40.05 659.366 43.95 656.116 47.2C652.916 50.4 649.066 52 644.566 52C639.966 52 636.041 50.4 632.791 47.2C629.591 43.95 627.991 40.05 627.991 35.5C627.991 32.1 628.916 29.05 630.766 26.35C632.616 23.6 634.991 21.7 637.891 20.65H627.991V14.875H652.591C654.641 14.875 656.241 14.275 657.391 13.075C658.341 12.125 658.816 10.975 658.816 9.625C658.816 6.925 657.841 5.1 655.891 4.15L656.716 2.95C659.966 4.4 661.516 7.025 661.366 10.825C661.216 13.775 660.341 16.15 658.741 17.95C657.141 19.75 655.091 20.65 652.591 20.65H651.091ZM683.729 35.5C683.779 40.05 682.704 43.95 680.504 47.2C678.304 50.4 675.654 52 672.554 52C669.704 52 667.054 50.775 664.604 48.325C662.154 45.875 660.404 42.7 659.354 38.8V34.675C660.704 38.175 662.579 40.975 664.979 43.075C667.379 45.175 669.904 46.225 672.554 46.225C675.204 46.225 677.429 45.1 679.229 42.85C681.079 40.6 682.004 37.875 682.004 34.675C682.004 31.675 680.679 28.8 678.029 26.05C675.229 23.1 671.829 21.275 667.829 20.575C666.829 20.375 665.954 19.925 665.204 19.225C664.504 18.525 664.154 17.825 664.154 17.125C664.154 16.525 664.504 16 665.204 15.55C665.954 15.1 666.829 14.875 667.829 14.875C672.179 14.825 675.954 17 679.154 21.4C682.204 25.6 683.729 30.3 683.729 35.5ZM762.553 56.125C762.553 57.225 762.003 57.775 760.903 57.775C759.803 57.775 759.253 57.225 759.253 56.125C759.253 51.325 758.653 47.475 757.453 44.575C754.003 49.525 749.603 52 744.253 52C741.053 52 738.328 51.2 736.078 49.6C733.828 47.95 732.703 46 732.703 43.75C732.703 41.5 733.903 39.575 736.303 37.975C738.753 36.325 741.678 35.5 745.078 35.5C748.928 35.5 752.778 37.425 756.628 41.275C758.878 38.675 759.978 34.825 759.928 29.725C759.928 27.225 758.953 25.1 757.003 23.35C755.053 21.55 752.728 20.65 750.028 20.65C744.878 20.65 741.853 23.25 740.953 28.45C740.503 26.15 739.228 24.275 737.128 22.825C735.078 21.375 732.778 20.65 730.228 20.65C727.978 20.65 726.028 21.3 724.378 22.6C722.778 23.9 721.978 25.45 721.978 27.25C721.978 28.85 722.528 30.225 723.628 31.375C724.778 32.475 726.153 33.025 727.753 33.025C728.603 33.025 729.028 33.45 729.028 34.3C729.028 35.1 728.603 35.5 727.753 35.5C725.703 35.5 723.953 34.625 722.503 32.875C721.053 31.075 720.328 28.925 720.328 26.425C720.328 23.225 721.303 20.5 723.253 18.25C725.203 16 727.528 14.875 730.228 14.875C732.328 14.875 734.353 15.625 736.303 17.125C738.453 18.775 740.003 20.9 740.953 23.5C741.453 20.8 742.503 18.7 744.103 17.2C745.703 15.65 747.678 14.875 750.028 14.875C753.228 14.875 755.953 16.325 758.203 19.225C760.453 22.125 761.578 25.625 761.578 29.725C761.578 35.375 760.478 39.775 758.278 42.925C761.128 46.625 762.553 51.025 762.553 56.125ZM755.803 42.55C752.853 38.95 749.278 37.15 745.078 37.15C742.828 37.15 740.878 37.65 739.228 38.65C737.628 39.6 736.828 40.75 736.828 42.1C736.828 43.25 737.628 44.225 739.228 45.025C740.828 45.825 742.778 46.225 745.078 46.225C749.728 46.225 753.303 45 755.803 42.55ZM799.048 33.025C799.048 29.625 797.748 26.725 795.148 24.325C792.598 21.875 789.523 20.65 785.923 20.65C782.223 20.65 779.073 21.875 776.473 24.325C773.923 26.725 772.648 29.625 772.648 33.025C772.648 36.825 773.923 39.975 776.473 42.475C779.073 44.975 782.248 46.225 785.998 46.225C789.648 46.225 792.723 44.975 795.223 42.475C797.773 39.975 799.048 36.825 799.048 33.025ZM792.448 20.65C795.498 21.7 797.898 23.6 799.648 26.35C801.448 29.05 802.348 32.1 802.348 35.5C802.348 40.05 800.723 43.95 797.473 47.2C794.273 50.4 790.423 52 785.923 52C781.323 52 777.398 50.4 774.148 47.2C770.948 43.95 769.348 40.05 769.348 35.5C769.348 32.1 770.273 29.05 772.123 26.35C773.973 23.6 776.348 21.7 779.248 20.65H769.348V14.875H793.948C795.998 14.875 797.598 14.275 798.748 13.075C799.698 12.125 800.173 10.975 800.173 9.625C800.173 6.925 799.198 5.1 797.248 4.15L798.073 2.95C801.323 4.4 802.873 7.025 802.723 10.825C802.573 13.775 801.698 16.15 800.098 17.95C798.498 19.75 796.448 20.65 793.948 20.65H792.448ZM825.087 35.5C825.137 40.05 824.062 43.95 821.862 47.2C819.662 50.4 817.012 52 813.912 52C811.062 52 808.412 50.775 805.962 48.325C803.512 45.875 801.762 42.7 800.712 38.8V34.675C802.062 38.175 803.937 40.975 806.337 43.075C808.737 45.175 811.262 46.225 813.912 46.225C816.562 46.225 818.787 45.1 820.587 42.85C822.437 40.6 823.362 37.875 823.362 34.675C823.362 31.675 822.037 28.8 819.387 26.05C816.587 23.1 813.187 21.275 809.187 20.575C808.187 20.375 807.312 19.925 806.562 19.225C805.862 18.525 805.512 17.825 805.512 17.125C805.512 16.525 805.862 16 806.562 15.55C807.312 15.1 808.187 14.875 809.187 14.875C813.537 14.825 817.312 17 820.512 21.4C823.562 25.6 825.087 30.3 825.087 35.5ZM903.611 37.15C903.611 41.2 902.511 44.7 900.311 47.65C898.161 50.55 895.711 52 892.961 52C890.811 52 888.811 51.1 886.961 49.3C885.161 47.45 883.861 45.05 883.061 42.1C882.311 45 880.936 47.375 878.936 49.225C876.936 51.075 874.736 52 872.336 52C869.636 52 867.311 50.8 865.361 48.4C863.411 46 862.436 43.075 862.436 39.625C862.436 37.375 863.161 35.45 864.611 33.85C866.061 32.2 867.811 31.375 869.861 31.375C871.461 31.375 872.811 31.95 873.911 33.1C875.061 34.2 875.636 35.55 875.636 37.15C875.636 38.45 875.161 39.575 874.211 40.525C873.261 41.475 872.086 42 870.686 42.1V40.45C872.286 40.05 873.111 39.225 873.161 37.975C873.211 36.825 872.811 35.85 871.961 35.05C871.161 34.25 870.186 33.85 869.036 33.85C867.686 33.85 866.511 34.35 865.511 35.35C864.561 36.3 864.086 37.45 864.086 38.8C864.086 40.85 864.886 42.6 866.486 44.05C868.136 45.5 870.086 46.225 872.336 46.225C874.886 46.225 877.161 45.225 879.161 43.225C881.211 41.175 882.511 38.6 883.061 35.5C883.611 38.55 884.861 41.1 886.811 43.15C888.761 45.2 890.786 46.225 892.886 46.225C895.286 46.225 897.336 45.35 899.036 43.6C900.736 41.8 901.561 39.65 901.511 37.15C901.511 31.95 899.386 27.625 895.136 24.175C890.936 20.675 885.786 18.925 879.686 18.925C876.586 18.925 875.086 18.175 875.186 16.675C875.236 15.475 876.736 14.875 879.686 14.875C884.886 14.875 889.836 16.525 894.536 19.825C897.386 21.825 899.611 24.375 901.211 27.475C902.811 30.525 903.611 33.75 903.611 37.15ZM940.066 33.325C940.066 38.475 938.516 42.875 935.416 46.525C932.366 50.175 928.691 52 924.391 52C920.091 52 916.391 50.175 913.291 46.525C910.241 42.875 908.716 38.475 908.716 33.325C908.716 28.125 910.241 23.7 913.291 20.05C916.391 16.4 920.091 14.575 924.391 14.575C928.741 14.575 932.441 16.4 935.491 20.05C938.591 23.7 940.116 28.125 940.066 33.325ZM938.116 33.325C938.116 29.875 936.766 26.9 934.066 24.4C931.366 21.9 928.141 20.65 924.391 20.65C920.641 20.65 917.416 21.9 914.716 24.4C912.016 26.9 910.666 29.875 910.666 33.325C910.716 36.775 912.066 39.8 914.716 42.4C917.416 44.95 920.641 46.225 924.391 46.225C928.141 46.225 931.366 44.95 934.066 42.4C936.816 39.8 938.166 36.775 938.116 33.325ZM983.89 36.325C983.89 31.975 982.19 28.275 978.79 25.225C975.44 22.175 971.365 20.65 966.565 20.65C961.765 20.65 957.665 22.175 954.265 25.225C950.915 28.275 949.24 31.975 949.24 36.325C949.24 39.025 950.04 41.35 951.64 43.3C953.29 45.25 955.24 46.225 957.49 46.225C959.49 46.225 961.34 45.475 963.04 43.975C964.74 42.425 965.915 40.425 966.565 37.975C967.215 40.425 968.39 42.425 970.09 43.975C971.79 45.475 973.64 46.225 975.64 46.225C977.89 46.225 979.815 45.25 981.415 43.3C983.065 41.35 983.89 39.025 983.89 36.325ZM973.165 20.65C977.315 21.75 980.69 23.85 983.29 26.95C985.89 30 987.19 33.4 987.19 37.15C987.19 41.25 986.14 44.75 984.04 47.65C981.94 50.55 979.415 52 976.465 52C974.215 52 972.165 51.175 970.315 49.525C968.515 47.825 967.265 45.625 966.565 42.925C965.815 45.625 964.515 47.825 962.665 49.525C960.865 51.175 958.865 52 956.665 52C953.715 52 951.19 50.55 949.09 47.65C946.99 44.75 945.94 41.25 945.94 37.15C945.94 33.4 947.24 30 949.84 26.95C952.49 23.85 955.865 21.75 959.965 20.65H945.94V14.875H979.54C981.24 14.875 982.69 14.325 983.89 13.225C985.14 12.075 985.765 10.7 985.765 9.1C985.715 7.4 985.09 5.95 983.89 4.75C982.69 3.55 981.24 2.95 979.54 2.95C980.39 3.65 980.815 4.75 980.815 6.25C980.815 7.35 980.44 8.3 979.69 9.1C978.99 9.9 978.115 10.325 977.065 10.375C975.915 10.375 974.94 9.975 974.14 9.175C973.34 8.375 972.94 7.4 972.94 6.25C972.94 4.75 973.54 3.475 974.74 2.425C975.99 1.375 977.465 0.849997 979.165 0.849997C981.515 0.849997 983.54 1.75 985.24 3.55C986.94 5.3 987.79 7.425 987.79 9.925C987.79 12.875 986.94 15.4 985.24 17.5C983.54 19.6 981.515 20.65 979.165 20.65H973.165ZM1025.25 33.325C1025.25 38.475 1023.7 42.875 1020.6 46.525C1017.55 50.175 1013.87 52 1009.57 52C1005.27 52 1001.57 50.175 998.471 46.525C995.421 42.875 993.896 38.475 993.896 33.325C993.896 28.125 995.421 23.7 998.471 20.05C1001.57 16.4 1005.27 14.575 1009.57 14.575C1013.92 14.575 1017.62 16.4 1020.67 20.05C1023.77 23.7 1025.3 28.125 1025.25 33.325ZM1023.3 33.325C1023.3 29.875 1021.95 26.9 1019.25 24.4C1016.55 21.9 1013.32 20.65 1009.57 20.65C1005.82 20.65 1002.6 21.9 999.896 24.4C997.196 26.9 995.846 29.875 995.846 33.325C995.896 36.775 997.246 39.8 999.896 42.4C1002.6 44.95 1005.82 46.225 1009.57 46.225C1013.32 46.225 1016.55 44.95 1019.25 42.4C1022 39.8 1023.35 36.775 1023.3 33.325ZM1072.37 37.15C1072.37 41.25 1071.32 44.75 1069.22 47.65C1067.12 50.55 1064.6 52 1061.65 52C1059.4 52 1057.35 51.175 1055.5 49.525C1053.7 47.825 1052.45 45.625 1051.75 42.925C1051 45.625 1049.7 47.825 1047.85 49.525C1046.05 51.175 1044.05 52 1041.85 52C1038.9 52 1036.37 50.55 1034.27 47.65C1032.17 44.75 1031.12 41.25 1031.12 37.15C1031.12 33.15 1031.95 29.6 1033.6 26.5C1035.25 23.35 1037.45 21.125 1040.2 19.825C1038.6 19.825 1037.22 19.475 1036.07 18.775C1034.97 18.025 1034.42 17.15 1034.42 16.15C1034.47 13.75 1035.77 11.7 1038.32 10C1040.87 8.3 1043.97 7.45 1047.62 7.45C1054.47 7.45 1060.3 10.35 1065.1 16.15C1069.95 21.95 1072.37 28.95 1072.37 37.15ZM1069.9 27.25C1068.6 22.4 1066.02 18.45 1062.17 15.4C1058.37 12.3 1054.07 10.75 1049.27 10.75C1046.57 10.75 1044.25 11.25 1042.3 12.25C1040.4 13.2 1039.42 14.35 1039.37 15.7C1039.37 16.4 1039.77 17 1040.57 17.5C1041.37 17.95 1042.35 18.175 1043.5 18.175C1045.85 17.025 1048.6 16.475 1051.75 16.525C1055.1 16.575 1058.37 17.55 1061.57 19.45C1064.77 21.3 1067.55 23.9 1069.9 27.25ZM1069.07 36.325C1069.07 31.325 1067.37 27.05 1063.97 23.5C1060.62 19.95 1056.55 18.175 1051.75 18.175C1046.95 18.175 1042.85 19.95 1039.45 23.5C1036.1 27 1034.42 31.275 1034.42 36.325C1034.42 39.025 1035.22 41.35 1036.82 43.3C1038.47 45.25 1040.42 46.225 1042.67 46.225C1044.67 46.225 1046.52 45.475 1048.22 43.975C1049.92 42.425 1051.1 40.425 1051.75 37.975C1052.4 40.425 1053.57 42.425 1055.27 43.975C1056.97 45.475 1058.82 46.225 1060.82 46.225C1063.07 46.225 1065 45.25 1066.6 43.3C1068.25 41.35 1069.07 39.025 1069.07 36.325ZM1100.01 20.65C1103.86 22.9 1106.89 26.375 1109.09 31.075C1111.29 35.775 1112.39 41.1 1112.39 47.05V52H1106.61V43.75C1106.61 37.35 1105.56 31.9 1103.46 27.4C1101.36 22.9 1098.84 20.65 1095.89 20.65C1092.94 20.65 1090.41 22.9 1088.31 27.4C1086.21 31.9 1085.16 37.35 1085.16 43.75V52H1079.39V47.05C1079.39 41.1 1080.49 35.775 1082.69 31.075C1084.89 26.375 1087.91 22.9 1091.76 20.65H1079.39V14.875H1103.46C1105.51 14.875 1107.11 14.275 1108.26 13.075C1109.21 12.125 1109.69 10.975 1109.69 9.625C1109.69 6.925 1108.71 5.1 1106.76 4.15L1107.59 2.95C1110.84 4.4 1112.39 7.025 1112.24 10.825C1112.09 13.775 1111.24 16.15 1109.69 17.95C1108.09 19.7 1106.09 20.6 1103.69 20.65H1100.01ZM1161.14 33.85C1161.14 38.9 1160.02 43.2 1157.77 46.75C1155.52 50.25 1152.79 52 1149.59 52C1146.44 52 1143.92 51.1 1142.02 49.3C1139.92 47.35 1138.87 44.55 1138.87 40.9C1138.87 38.7 1139.59 36.85 1141.04 35.35C1142.49 33.8 1144.24 33.025 1146.29 33.025C1149.09 33.025 1150.49 34.3 1150.49 36.85C1150.49 38 1150.22 38.975 1149.67 39.775C1149.07 40.775 1148.22 41.275 1147.12 41.275C1146.12 41.275 1145.27 40.875 1144.57 40.075C1143.87 39.225 1143.52 38.25 1143.52 37.15C1143.52 36.6 1143.62 36.05 1143.82 35.5C1142.17 36.9 1141.34 38.55 1141.34 40.45C1141.34 42.25 1142.09 43.675 1143.59 44.725C1145.14 45.725 1147.07 46.225 1149.37 46.225C1152.17 46.225 1154.54 45.05 1156.49 42.7C1158.49 40.35 1159.49 37.4 1159.49 33.85C1159.49 30.2 1157.87 27.1 1154.62 24.55C1151.42 21.95 1147.54 20.65 1142.99 20.65C1139.69 20.65 1136.87 21.875 1134.52 24.325C1132.17 26.725 1130.99 29.625 1130.99 33.025C1130.99 34.325 1131.19 36.25 1131.59 38.8C1132.04 41.35 1132.27 43.275 1132.27 44.575C1132.27 46.625 1131.44 48.375 1129.79 49.825C1128.19 51.275 1126.27 52 1124.02 52C1121.02 52 1118.44 50.825 1116.29 48.475C1114.14 46.075 1112.52 42.825 1111.42 38.725V35.425C1113.07 38.925 1114.77 41.6 1116.52 43.45C1118.27 45.3 1120.22 46.225 1122.37 46.225C1124.42 46.225 1126.17 45.675 1127.62 44.575C1129.07 43.425 1129.79 42.05 1129.79 40.45C1129.79 39.1 1129.52 37.05 1128.97 34.3C1128.42 31.55 1128.14 29.475 1128.14 28.075C1128.19 24.425 1129.64 21.325 1132.49 18.775C1135.39 16.175 1138.89 14.875 1142.99 14.875C1148.04 14.875 1152.32 16.725 1155.82 20.425C1159.37 24.125 1161.14 28.6 1161.14 33.85ZM1234.91 38.8C1234.91 42.45 1233.98 45.575 1232.13 48.175C1230.28 50.725 1228.03 52 1225.38 52C1223.73 52 1222.03 51.025 1220.28 49.075C1218.53 47.075 1217.08 44.475 1215.93 41.275C1214.78 38.025 1212.31 36.375 1208.51 36.325C1206.46 36.325 1204.71 37.05 1203.26 38.5C1201.81 39.95 1201.08 41.7 1201.08 43.75C1201.08 45.05 1203.28 47.25 1207.68 50.35C1209.58 52.2 1210.53 53.425 1210.53 54.025C1210.53 55.075 1209.78 55.6 1208.28 55.6C1207.83 55.6 1207.36 55.5 1206.86 55.3C1204.61 54.5 1202.81 52.825 1201.46 50.275C1200.11 47.675 1199.43 44.675 1199.43 41.275C1199.43 38.325 1200.31 35.8 1202.06 33.7C1203.86 31.6 1206.01 30.55 1208.51 30.55C1211.21 30.55 1213.96 33.575 1216.76 39.625C1218.81 44.075 1221.56 46.275 1225.01 46.225C1227.06 46.225 1228.81 45.25 1230.26 43.3C1231.71 41.35 1232.43 39.025 1232.43 36.325C1232.38 29.475 1230.23 23.65 1225.98 18.85C1221.73 14 1216.58 11.575 1210.53 11.575C1211.33 12.275 1211.76 13.375 1211.81 14.875C1211.86 16.475 1211.31 17.85 1210.16 19C1209.01 20.1 1207.63 20.65 1206.03 20.65C1204.23 20.65 1202.68 20.1 1201.38 19C1200.08 17.85 1199.43 16.475 1199.43 14.875C1199.43 12.825 1200.31 11.075 1202.06 9.625C1203.86 8.175 1206.01 7.45 1208.51 7.45C1215.81 7.45 1222.03 10.525 1227.18 16.675C1232.33 22.775 1234.91 30.15 1234.91 38.8ZM1210.01 14.875C1210.06 13.775 1209.68 12.85 1208.88 12.1C1208.13 11.3 1207.18 10.9 1206.03 10.9C1204.93 10.85 1203.98 11.225 1203.18 12.025C1202.43 12.775 1202.06 13.725 1202.06 14.875C1202.01 15.975 1202.36 16.925 1203.11 17.725C1203.91 18.475 1204.88 18.85 1206.03 18.85C1207.13 18.9 1208.06 18.55 1208.81 17.8C1209.61 17 1210.01 16.025 1210.01 14.875ZM1260.14 22.3C1260.14 25.05 1259.47 27.4 1258.12 29.35C1256.77 31.25 1255.12 32.2 1253.17 32.2C1251.32 32.2 1249.79 31.525 1248.59 30.175C1247.39 28.775 1246.79 27.125 1246.79 25.225C1246.79 23.575 1247.27 22.05 1248.22 20.65C1244.37 23 1242.44 26.575 1242.44 31.375C1242.44 34.425 1243.82 37.775 1246.57 41.425C1249.37 45.025 1253.22 48.55 1258.12 52H1249.42C1243.67 47.25 1240.79 40.375 1240.79 31.375C1240.79 26.825 1241.99 22.95 1244.39 19.75C1246.84 16.55 1249.77 14.925 1253.17 14.875C1255.12 14.875 1256.77 15.6 1258.12 17.05C1259.47 18.5 1260.14 20.25 1260.14 22.3ZM1258.12 23.95C1258.12 22.8 1257.72 21.825 1256.92 21.025C1256.12 20.225 1255.14 19.825 1253.99 19.825C1252.64 19.825 1251.47 20.225 1250.47 21.025C1249.52 21.825 1249.04 22.8 1249.04 23.95C1249.04 25.3 1249.52 26.475 1250.47 27.475C1251.47 28.425 1252.64 28.9 1253.99 28.9C1255.14 28.9 1256.12 28.425 1256.92 27.475C1257.72 26.475 1258.12 25.3 1258.12 23.95ZM1317.63 38.8C1317.63 36.55 1316.9 34.625 1315.45 33.025C1314 31.375 1312.25 30.55 1310.2 30.55C1308.15 30.55 1306.4 31.35 1304.95 32.95C1303.5 34.55 1302.78 36.5 1302.78 38.8C1302.78 40.85 1303.5 42.6 1304.95 44.05C1306.4 45.5 1308.15 46.225 1310.2 46.225C1312.25 46.225 1314 45.5 1315.45 44.05C1316.9 42.6 1317.63 40.85 1317.63 38.8ZM1311.85 20.65C1312.25 21.3 1312.45 22.025 1312.45 22.825C1312.45 23.875 1312.1 24.8 1311.4 25.6H1323.4V30.55H1315.15C1316.9 31.35 1318.3 32.65 1319.35 34.45C1320.4 36.25 1320.93 38.25 1320.93 40.45C1320.93 43.65 1319.88 46.375 1317.78 48.625C1315.68 50.875 1313.15 52 1310.2 52C1307.25 52 1304.73 50.875 1302.63 48.625C1300.53 46.375 1299.48 43.65 1299.48 40.45C1299.48 38.25 1300 36.275 1301.05 34.525C1302.1 32.725 1303.5 31.4 1305.25 30.55H1296.18V25.6H1308.1C1309.05 24.85 1309.53 23.875 1309.53 22.675C1309.53 21.975 1309.33 21.3 1308.93 20.65H1296.18V14.875H1313.8C1315.85 14.875 1317.45 14.275 1318.6 13.075C1319.55 12.125 1320.03 10.975 1320.03 9.625C1320.03 6.925 1319.05 5.1 1317.1 4.15L1317.93 2.95C1321.18 4.4 1322.73 7.025 1322.58 10.825C1322.48 13.775 1321.63 16.15 1320.03 17.95C1318.63 19.5 1316.93 20.375 1314.93 20.575V20.65H1311.85ZM1352.66 20.65C1356.61 22.1 1359.79 24.5 1362.19 27.85C1364.64 31.15 1365.86 34.8 1365.86 38.8C1365.86 42.45 1364.94 45.575 1363.09 48.175C1361.24 50.725 1358.99 52 1356.34 52C1354.69 52 1352.99 51.025 1351.24 49.075C1349.49 47.075 1348.04 44.475 1346.89 41.275C1345.74 38.025 1343.26 36.375 1339.46 36.325C1337.41 36.325 1335.66 37.05 1334.21 38.5C1332.76 39.95 1332.04 41.7 1332.04 43.75C1332.04 46.6 1334.24 48.8 1338.64 50.35C1340.54 51.35 1341.49 52.575 1341.49 54.025C1341.49 55.075 1340.74 55.6 1339.24 55.6C1338.79 55.6 1338.31 55.5 1337.81 55.3C1335.56 54.5 1333.76 52.825 1332.41 50.275C1331.06 47.675 1330.39 44.675 1330.39 41.275C1330.39 38.325 1331.26 35.8 1333.01 33.7C1334.81 31.6 1336.96 30.55 1339.46 30.55C1340.96 30.55 1342.46 31.4 1343.96 33.1C1345.46 34.75 1346.71 36.925 1347.71 39.625C1348.41 41.625 1349.51 43.225 1351.01 44.425C1352.56 45.625 1354.21 46.225 1355.96 46.225C1357.76 46.225 1359.31 45.25 1360.61 43.3C1361.91 41.35 1362.56 39.025 1362.56 36.325C1362.56 32.525 1361.16 29.15 1358.36 26.2C1355.56 23.25 1352.01 21.4 1347.71 20.65H1330.39V14.875H1357.24C1359.29 14.875 1360.89 14.275 1362.04 13.075C1362.99 12.125 1363.46 10.975 1363.46 9.625C1363.46 6.925 1362.49 5.1 1360.54 4.15L1361.36 2.95C1364.61 4.4 1366.16 7.025 1366.01 10.825C1365.86 13.775 1364.99 16.15 1363.39 17.95C1361.84 19.65 1359.91 20.55 1357.61 20.65H1352.66ZM1384.03 76.075C1383.48 79.375 1382.38 81.025 1380.73 81.025C1377.88 81.025 1375.78 79.7 1374.43 77.05C1373.53 74.5 1372.63 71.95 1371.73 69.4C1368.53 72.05 1365.56 73.375 1362.81 73.375C1360.76 73.375 1358.91 72.75 1357.26 71.5C1355.61 70.25 1354.78 68.625 1354.78 66.625C1354.78 64.675 1355.81 63.25 1357.86 62.35C1359.41 61.6 1361.28 61.225 1363.48 61.225C1366.93 61.225 1369.91 62.725 1372.41 65.725C1374.16 64.125 1375.03 62.05 1375.03 59.5C1375.03 56.6 1374.43 54.125 1373.23 52.075C1372.58 51.025 1371.46 49.75 1369.86 48.25C1368.61 47.15 1367.98 46.225 1367.98 45.475C1367.98 44.675 1368.36 44.275 1369.11 44.275C1371.91 44.275 1373.98 46.05 1375.33 49.6C1376.28 52.2 1376.73 55.175 1376.68 58.525C1376.68 62.025 1375.58 65.1 1373.38 67.75C1375.63 71.35 1376.96 73.375 1377.36 73.825C1378.91 75.325 1381.13 76.075 1384.03 76.075ZM1370.91 66.55C1368.66 63.85 1366.18 62.5 1363.48 62.5C1359.43 62.5 1357.41 63.6 1357.41 65.8C1357.41 66.85 1358.08 67.725 1359.43 68.425C1360.53 68.975 1361.66 69.25 1362.81 69.25C1366.11 69.25 1368.81 68.35 1370.91 66.55ZM1415.78 31.375C1413.78 29.675 1412.01 28.85 1410.46 28.9C1409.61 28.9 1408.83 29.2 1408.13 29.8C1407.48 30.35 1407.16 31.025 1407.16 31.825C1407.16 32.475 1407.48 33.05 1408.13 33.55C1408.83 34.05 1409.61 34.3 1410.46 34.3C1412.36 34.3 1414.13 33.325 1415.78 31.375ZM1420.36 37.9C1420.36 36.35 1419.53 35 1417.88 33.85C1415.83 36.6 1413.36 37.975 1410.46 37.975C1408.86 37.975 1407.48 37.45 1406.33 36.4C1405.23 35.35 1404.68 34.1 1404.68 32.65C1404.68 31.25 1405.23 30.075 1406.33 29.125C1407.48 28.175 1408.86 27.7 1410.46 27.7C1412.71 27.7 1414.63 28.375 1416.23 29.725C1416.38 29.325 1416.46 28.925 1416.46 28.525C1416.46 26.475 1415.01 24.65 1412.11 23.05C1409.26 21.45 1405.96 20.65 1402.21 20.65C1397.46 20.65 1393.38 22.1 1389.98 25C1386.58 27.9 1384.88 31.4 1384.88 35.5C1384.88 38.45 1385.56 40.975 1386.91 43.075C1388.31 45.175 1390.01 46.225 1392.01 46.225C1394.21 46.225 1396.33 45.225 1398.38 43.225C1400.43 41.175 1401.71 38.65 1402.21 35.65C1402.81 38.75 1404.01 41.3 1405.81 43.3C1407.66 45.25 1409.73 46.225 1412.03 46.225C1414.53 46.225 1416.53 45.475 1418.03 43.975C1419.58 42.425 1420.36 40.4 1420.36 37.9ZM1409.63 20.65C1412.53 21.2 1414.98 22.4 1416.98 24.25C1418.98 26.05 1419.98 28.025 1419.98 30.175C1419.98 30.875 1419.83 31.55 1419.53 32.2C1421.78 34.05 1422.88 36.525 1422.83 39.625C1422.78 43.125 1421.76 46.075 1419.76 48.475C1417.81 50.825 1415.23 52 1412.03 52C1409.88 52 1407.91 51.1 1406.11 49.3C1404.31 47.5 1403.01 45.15 1402.21 42.25C1401.46 45.1 1400.03 47.45 1397.93 49.3C1395.83 51.1 1393.68 52 1391.48 52C1388.73 52 1386.38 50.55 1384.43 47.65C1382.53 44.7 1381.58 41.2 1381.58 37.15C1381.58 33.05 1382.91 29.45 1385.56 26.35C1388.21 23.25 1391.56 21.35 1395.61 20.65H1381.58V14.875H1414.13C1416.18 14.875 1417.78 14.275 1418.93 13.075C1419.88 12.125 1420.36 10.975 1420.36 9.625C1420.36 6.925 1419.38 5.1 1417.43 4.15L1418.26 2.95C1421.51 4.4 1423.06 7.025 1422.91 10.825C1422.76 13.775 1421.88 16.15 1420.28 17.95C1418.68 19.75 1416.63 20.65 1414.13 20.65H1409.63ZM1456.03 20.65C1460.43 21.85 1464.01 24.075 1466.76 27.325C1469.51 30.525 1470.88 34.075 1470.88 37.975C1470.88 41.875 1469.91 45.2 1467.96 47.95C1466.01 50.65 1463.68 52 1460.98 52C1458.18 52 1455.76 51.05 1453.71 49.15C1451.66 47.25 1450.51 44.9 1450.26 42.1C1450.06 44.9 1448.91 47.25 1446.81 49.15C1444.76 51.05 1442.33 52 1439.53 52C1436.83 52 1434.51 50.8 1432.56 48.4C1430.61 46 1429.63 43.075 1429.63 39.625C1429.63 37.125 1430.36 35 1431.81 33.25C1433.26 31.45 1435.01 30.55 1437.06 30.55C1438.76 30.55 1440.21 31.075 1441.41 32.125C1442.66 33.175 1443.28 34.45 1443.28 35.95C1443.28 37.4 1442.76 38.65 1441.71 39.7C1440.66 40.75 1439.38 41.275 1437.88 41.275V40.45C1439.48 39.8 1440.31 38.575 1440.36 36.775C1440.36 35.725 1439.96 34.85 1439.16 34.15C1438.36 33.4 1437.38 33.025 1436.23 33.025C1434.88 33.025 1433.71 33.6 1432.71 34.75C1431.76 35.85 1431.28 37.2 1431.28 38.8C1431.28 40.85 1432.08 42.6 1433.68 44.05C1435.28 45.5 1437.23 46.225 1439.53 46.225C1441.78 46.225 1443.91 45.225 1445.91 43.225C1447.96 41.225 1449.41 38.65 1450.26 35.5C1451.11 38.7 1452.53 41.3 1454.53 43.3C1456.53 45.25 1458.68 46.225 1460.98 46.225C1462.78 46.225 1464.33 45.425 1465.63 43.825C1466.93 42.175 1467.58 40.225 1467.58 37.975C1467.53 33.525 1465.76 29.65 1462.26 26.35C1458.81 23 1454.53 21.1 1449.43 20.65H1429.63V14.875H1481.38C1486.63 14.875 1490.93 16.925 1494.28 21.025C1497.28 24.825 1498.78 29.425 1498.78 34.825C1498.78 38.875 1497.73 42.625 1495.63 46.075C1493.18 50.025 1490.08 52 1486.33 52C1482.93 52 1480.23 50.725 1478.23 48.175C1476.48 45.825 1475.61 43 1475.61 39.7C1475.61 36.9 1476.08 34.575 1477.03 32.725C1478.18 30.475 1479.78 29.35 1481.83 29.35C1483.08 29.35 1484.16 29.75 1485.06 30.55C1485.96 31.3 1486.41 32.275 1486.41 33.475C1486.41 34.525 1486.08 35.475 1485.43 36.325C1484.83 37.175 1484.06 37.6 1483.11 37.6C1482.06 37.6 1481.11 37.275 1480.26 36.625C1479.46 35.925 1479.06 35.075 1479.06 34.075C1479.06 33.575 1479.16 33.1 1479.36 32.65C1477.96 33.95 1477.26 35.9 1477.26 38.5C1477.26 40.65 1478.13 42.475 1479.88 43.975C1481.63 45.475 1483.86 46.225 1486.56 46.225C1489.86 46.225 1492.51 44.825 1494.51 42.025C1496.21 39.575 1497.06 36.625 1497.06 33.175C1497.06 29.175 1495.38 26.025 1492.03 23.725C1489.13 21.675 1485.58 20.65 1481.38 20.65H1456.03ZM1536.09 52H1530.32V43.75C1530.32 37 1529.27 31.275 1527.17 26.575C1525.07 21.825 1522.54 19.45 1519.59 19.45C1516.64 19.45 1514.12 21.825 1512.02 26.575C1509.92 31.275 1508.87 37 1508.87 43.75V52H1503.09V47.05C1503.09 40.5 1504.14 34.725 1506.24 29.725C1508.39 24.725 1511.32 21.15 1515.02 19C1512.42 19 1510.19 18.475 1508.34 17.425C1506.49 16.375 1505.57 15.125 1505.57 13.675C1505.57 11.975 1506.44 10.525 1508.19 9.325C1509.99 8.075 1512.14 7.45 1514.64 7.45C1520.59 7.45 1525.64 11 1529.79 18.1C1533.99 25.15 1536.09 33.7 1536.09 43.75V52ZM1530.32 25.225C1529.52 21.025 1527.79 17.575 1525.14 14.875C1522.54 12.125 1519.59 10.75 1516.29 10.75C1514.79 10.75 1513.52 11.075 1512.47 11.725C1511.42 12.375 1510.89 13.15 1510.89 14.05C1510.94 15.25 1512.12 16.025 1514.42 16.375C1518.27 16.925 1520.87 17.45 1522.22 17.95C1525.62 19.3 1528.32 21.725 1530.32 25.225ZM1573.44 33.025C1573.44 29.625 1572.14 26.725 1569.54 24.325C1566.99 21.875 1563.91 20.65 1560.31 20.65C1556.61 20.65 1553.46 21.875 1550.86 24.325C1548.31 26.725 1547.04 29.625 1547.04 33.025C1547.04 36.825 1548.31 39.975 1550.86 42.475C1553.46 44.975 1556.64 46.225 1560.39 46.225C1564.04 46.225 1567.11 44.975 1569.61 42.475C1572.16 39.975 1573.44 36.825 1573.44 33.025ZM1566.84 20.65C1569.89 21.7 1572.29 23.6 1574.04 26.35C1575.84 29.05 1576.74 32.1 1576.74 35.5C1576.74 40.05 1575.11 43.95 1571.86 47.2C1568.66 50.4 1564.81 52 1560.31 52C1555.71 52 1551.79 50.4 1548.54 47.2C1545.34 43.95 1543.74 40.05 1543.74 35.5C1543.74 32.1 1544.66 29.05 1546.51 26.35C1548.36 23.6 1550.74 21.7 1553.64 20.65H1543.74V14.875H1568.34C1570.39 14.875 1571.99 14.275 1573.14 13.075C1574.09 12.125 1574.56 10.975 1574.56 9.625C1574.56 6.925 1573.59 5.1 1571.64 4.15L1572.46 2.95C1575.71 4.4 1577.26 7.025 1577.11 10.825C1576.96 13.775 1576.09 16.15 1574.49 17.95C1572.89 19.75 1570.84 20.65 1568.34 20.65H1566.84ZM1599.48 35.5C1599.53 40.05 1598.45 43.95 1596.25 47.2C1594.05 50.4 1591.4 52 1588.3 52C1585.45 52 1582.8 50.775 1580.35 48.325C1577.9 45.875 1576.15 42.7 1575.1 38.8V34.675C1576.45 38.175 1578.33 40.975 1580.73 43.075C1583.13 45.175 1585.65 46.225 1588.3 46.225C1590.95 46.225 1593.18 45.1 1594.98 42.85C1596.83 40.6 1597.75 37.875 1597.75 34.675C1597.75 31.675 1596.43 28.8 1593.78 26.05C1590.98 23.1 1587.58 21.275 1583.58 20.575C1582.58 20.375 1581.7 19.925 1580.95 19.225C1580.25 18.525 1579.9 17.825 1579.9 17.125C1579.9 16.525 1580.25 16 1580.95 15.55C1581.7 15.1 1582.58 14.875 1583.58 14.875C1587.93 14.825 1591.7 17 1594.9 21.4C1597.95 25.6 1599.48 30.3 1599.48 35.5ZM1614.62 48.625C1614.62 49.725 1614.19 50.675 1613.34 51.475C1612.49 52.275 1611.52 52.675 1610.42 52.675C1609.27 52.675 1608.29 52.3 1607.49 51.55C1606.74 50.75 1606.37 49.775 1606.37 48.625C1606.37 47.475 1606.74 46.525 1607.49 45.775C1608.29 45.025 1609.27 44.65 1610.42 44.65C1613.22 44.65 1614.62 45.975 1614.62 48.625Z" fill="black"/>
</svg>
