<svg width="1587" height="72" viewBox="0 0 1587 72" fill="none" xmlns="http://www.w3.org/2000/svg">
<path d="M42.825 36.6C42.825 40.05 41.625 43.275 39.225 46.275C36.675 49.425 33.725 51 30.375 51C28.925 51 27.025 50 24.675 48C22.325 46 20.575 45 19.425 45C18.875 45 17.875 46 16.425 48C15.025 50 13.5 51 11.85 51C9 51 6.625 49.325 4.725 45.975C4.275 46.375 3.95 46.925 3.75 47.625C3.95 47.825 4.875 48.575 6.525 49.875C7.675 50.775 8.4 51.65 8.7 52.5C8.4 53.8 7.975 54.7 7.425 55.2C6.925 55.7 6.025 55.95 4.725 55.95C3.725 55.95 2.625 55.175 1.425 53.625C0.475 52.325 0 51.275 0 50.475C0 49.525 0.6 48.475 1.8 47.325C2.6 46.525 3.425 45.75 4.275 45C3.575 43.3 3.225 41.05 3.225 38.25C3.225 32.75 5.55 30 10.2 30C11.7 30 13.075 30.35 14.325 31.05C15.825 31.9 16.575 33.025 16.575 34.425C16.575 36.125 15.75 37.875 14.1 39.675C12.45 41.475 10.775 42.675 9.075 43.275C9.925 44.625 11.7 45.7 14.4 46.5C17 42.25 19.675 40.125 22.425 40.125C23.775 40.125 25.8 41.325 28.5 43.725C31.25 46.125 33.025 47.325 33.825 47.325C35.125 47.325 36.275 46.525 37.275 44.925C38.225 43.475 38.7 42.075 38.7 40.725C38.7 36.475 36.5 32.375 32.1 28.425C29.85 26.425 25.775 23.65 19.875 20.1C15.525 17.5 13.35 15.55 13.35 14.25C13.35 13.45 13.675 12.8 14.325 12.3C15.025 11.8 15.8 11.55 16.65 11.55C19.45 11.55 23.2 13.25 27.9 16.65C31.8 19.45 34.975 22.275 37.425 25.125C41.025 29.325 42.825 33.15 42.825 36.6ZM12.75 37.725C12.75 36.875 12.3 36.125 11.4 35.475C10.5 34.775 9.6 34.4 8.7 34.35C8.2 36 7.95 37.5 7.95 38.85C7.95 39.9 8.2 40.9 8.7 41.85C11.4 40.35 12.75 38.975 12.75 37.725ZM91.7496 32.325C91.7496 36.975 89.2496 41.3 84.2496 45.3C79.5496 49.1 74.7996 51 69.9996 51C65.5996 51 61.6496 49.725 58.1496 47.175C54.3496 44.325 52.3996 40.775 52.2996 36.525C50.8996 37.425 50.1996 38.725 50.1996 40.425C50.1996 42.125 50.8996 43.625 52.2996 44.925C53.7496 46.225 54.4746 47.25 54.4746 48C54.4746 49.8 53.5746 50.7 51.7746 50.7C50.3246 50.7 48.9746 49.925 47.7246 48.375C46.4746 46.775 45.8496 45.225 45.8496 43.725C45.8496 42.175 46.6246 40.475 48.1746 38.625C49.4746 37.025 50.9246 35.725 52.5246 34.725V21.75L56.6496 17.625C64.1996 17.625 67.9746 19.225 67.9746 22.425C67.9746 25.125 66.6746 27.575 64.0746 29.775C62.6246 31.025 60.1496 32.525 56.6496 34.275C56.6496 37.525 58.8496 40.4 63.2496 42.9C67.1496 45.1 70.8496 46.2 74.3496 46.2C77.6996 46.2 80.6496 45.2 83.1996 43.2C85.9496 41.05 87.3246 38.35 87.3246 35.1C87.3246 30.85 85.9246 27.55 83.1246 25.2C80.5246 22.95 77.0746 21.825 72.7746 21.825C72.2746 21.975 71.8246 22.05 71.4246 22.05C70.3246 22.05 69.8496 21.475 69.9996 20.325C70.6496 18.825 71.6746 17.875 73.0746 17.475C73.7746 17.275 75.1996 17.175 77.3496 17.175C81.4496 17.175 84.8746 18.675 87.6246 21.675C90.3746 24.675 91.7496 28.225 91.7496 32.325ZM63.6996 25.8C63.6996 23.15 61.3496 21.825 56.6496 21.825V32.475C61.3496 30.375 63.6996 28.15 63.6996 25.8ZM120.125 32.775C120.125 36.725 118.7 40.675 115.85 44.625C112.7 48.975 109.25 51.15 105.5 51.15C102.8 51.15 101.025 50.9 100.175 50.4C99.3254 49.9 98.2004 48.475 96.8004 46.125L96.2004 47.85C96.6004 49.35 97.5004 50.55 98.9004 51.45C100.35 52.4 101.175 53.075 101.375 53.475C100.525 55.225 99.0004 56.1 96.8004 56.1C95.9004 56.1 94.8754 55.375 93.7254 53.925C92.5754 52.475 92.0004 51.3 92.0004 50.4C92.0004 49.1 93.2754 47.35 95.8254 45.15C95.2254 42.3 94.9254 39.95 94.9254 38.1C94.9254 35.05 95.5004 32.95 96.6504 31.8C97.8504 30.65 100 30.075 103.1 30.075C104.7 30.075 106.15 30.375 107.45 30.975C109.1 31.725 109.925 32.8 109.925 34.2C109.925 35.9 108.975 37.725 107.075 39.675C105.225 41.575 103.4 42.775 101.6 43.275C103.1 45.625 105.375 46.8 108.425 46.8C110.875 46.8 112.8 45.65 114.2 43.35C115.35 41.45 115.925 39.2 115.925 36.6C115.925 32.4 114.975 28.975 113.075 26.325C110.925 23.325 107.825 21.825 103.775 21.825H74.5254L78.6504 17.175H107.9C112.05 17.175 115.2 18.8 117.35 22.05C119.2 24.85 120.125 28.425 120.125 32.775ZM104.975 37.05C104.975 36.25 104.45 35.6 103.4 35.1C102.55 34.7 101.675 34.5 100.775 34.5C100.275 36.6 100.025 37.9 100.025 38.4C100.025 39 100.275 40 100.775 41.4C103.575 40 104.975 38.55 104.975 37.05ZM119.97 60.075C119.97 62.175 119.445 64.05 118.395 65.7C117.895 66.5 116.595 68 114.495 70.2L113.97 70.275C114.27 68.625 114.42 66.975 114.42 65.325C114.42 63.475 113.97 61.9 113.07 60.6C112.07 59.1 110.695 58.35 108.945 58.35C105.995 58.35 102.295 60.125 97.8451 63.675C95.4951 59.575 92.9201 57.525 90.1201 57.525C88.8201 57.525 87.6201 57.975 86.5201 58.875C85.4201 59.825 84.8701 60.925 84.8701 62.175C84.8701 63.075 85.3201 63.95 86.2201 64.8C87.0701 65.65 87.4951 66.325 87.4951 66.825C87.4951 67.775 87.0451 68.575 86.1451 69.225C85.1951 69.875 84.2451 70.2 83.2951 70.2C82.3451 70.2 81.6201 69.75 81.1201 68.85C80.5701 67.95 80.2951 67 80.2951 66C80.2951 62.9 81.8451 60.025 84.9451 57.375C88.0451 54.725 91.1951 53.4 94.3951 53.4C97.5451 53.4 100.045 54.8 101.895 57.6C104.845 54.7 108.52 53.25 112.92 53.25C115.07 53.25 116.795 53.85 118.095 55.05C119.345 56.25 119.97 57.925 119.97 60.075ZM163.093 10.05C163.093 12.5 161.968 15.075 159.718 17.775C158.668 19.075 157.593 20.05 156.493 20.7C160.693 24.6 162.793 29.9 162.793 36.6C162.793 40.05 161.593 43.275 159.193 46.275C156.643 49.425 153.693 51 150.343 51C148.793 51 146.743 49.975 144.193 47.925C141.643 45.825 139.768 44.775 138.568 44.775C138.068 45.625 137.293 46.875 136.243 48.525C135.243 50.175 134.243 51 133.243 51C130.343 51 127.968 49.75 126.118 47.25C124.418 44.95 123.568 42.3 123.568 39.3C123.568 32.1 126.468 26.275 132.268 21.825H123.793C123.243 21.825 123.043 21.575 123.193 21.075C123.243 20.025 123.743 19.125 124.693 18.375C125.643 17.575 126.668 17.175 127.768 17.175H151.768C154.818 17.175 156.693 17.05 157.393 16.8C158.743 16.3 159.443 15.075 159.493 13.125C159.493 11.475 159.018 10 158.068 8.7L156.568 6.675C156.568 5.875 156.968 5.15 157.768 4.5C158.618 3.85 159.468 3.525 160.318 3.525C162.168 3.525 163.093 5.7 163.093 10.05ZM158.668 40.725C158.668 35.125 157.193 30.625 154.243 27.225C151.143 23.625 146.818 21.825 141.268 21.825C137.218 21.825 133.868 22.95 131.218 25.2C128.418 27.55 127.018 30.725 127.018 34.725C127.018 37.275 127.743 39.6 129.193 41.7C130.693 43.75 132.643 45.175 135.043 45.975C136.593 43.625 137.568 42.275 137.968 41.925C139.218 40.725 140.718 40.125 142.468 40.125C143.568 40.125 145.493 41.275 148.243 43.575C150.993 45.825 153.093 46.95 154.543 46.95C155.943 46.95 157.018 46.225 157.768 44.775C158.368 43.625 158.668 42.275 158.668 40.725ZM205.72 10.05C205.72 12.5 204.595 15.075 202.345 17.775C201.345 18.975 200.345 19.9 199.345 20.55C200.045 21.25 200.77 22.075 201.52 23.025C203.92 26.175 205.12 29.125 205.12 31.875C205.12 36.575 202.645 40.975 197.695 45.075C192.945 49.025 188.17 51 183.37 51C178.72 51 174.72 49.7 171.37 47.1C167.67 44.25 165.82 40.575 165.82 36.075C165.82 33.775 166.97 31.125 169.27 28.125C171.22 25.575 173.37 23.475 175.72 21.825H166.57L165.97 21.075C166.02 20.025 166.52 19.125 167.47 18.375C168.47 17.575 169.52 17.175 170.62 17.175H194.395C197.445 17.175 199.32 17.05 200.02 16.8C201.37 16.3 202.07 15.075 202.12 13.125C202.12 11.475 201.645 10 200.695 8.7L199.195 6.675C199.195 5.875 199.595 5.15 200.395 4.5C201.245 3.85 202.095 3.525 202.945 3.525C204.795 3.525 205.72 5.7 205.72 10.05ZM199.72 37.2C199.72 33.55 197.92 30.075 194.32 26.775C190.72 23.475 187.095 21.825 183.445 21.825C179.995 21.825 177.045 22.825 174.595 24.825C171.995 26.925 170.695 29.675 170.695 33.075C170.695 36.625 172.645 39.875 176.545 42.825C180.145 45.525 183.795 46.875 187.495 46.875C190.645 46.875 193.395 46.075 195.745 44.475C198.395 42.625 199.72 40.2 199.72 37.2ZM248.654 35.55C248.654 39.65 247.779 43.125 246.029 45.975C243.979 49.425 241.029 51.15 237.179 51.15C233.979 51.15 231.354 49.425 229.304 45.975C228.754 46.525 228.354 47.275 228.104 48.225C228.354 48.625 229.154 49.45 230.504 50.7C231.704 51.85 232.304 52.6 232.304 52.95C232.304 53.75 232.079 54.55 231.629 55.35C230.779 55.75 229.829 55.95 228.779 55.95C227.979 55.95 227.029 55.225 225.929 53.775C224.879 52.325 224.354 51.175 224.354 50.325C224.354 48.775 225.829 46.925 228.779 44.775C227.829 41.775 227.354 39.3 227.354 37.35C227.354 34.8 227.879 32.95 228.929 31.8C230.029 30.6 231.854 30 234.404 30C236.004 30 237.504 30.45 238.904 31.35C240.454 32.4 241.229 33.675 241.229 35.175C241.229 36.325 240.254 37.9 238.304 39.9C236.454 41.7 234.904 42.825 233.654 43.275C234.304 44.425 235.179 45.5 236.279 46.5C237.629 47.7 238.854 48.3 239.954 48.3C241.704 48.3 242.954 46.65 243.704 43.35C244.154 41.35 244.379 39.05 244.379 36.45C244.379 31.95 242.229 28.275 237.929 25.425C234.179 22.925 229.954 21.675 225.254 21.675C219.554 21.675 216.704 23.025 216.704 25.725C216.704 26.625 218.004 28.775 220.604 32.175C223.204 35.525 224.504 37.9 224.504 39.3C224.504 42.7 223.079 45.55 220.229 47.85C217.579 49.95 214.504 51 211.004 51C207.304 51 204.529 49.425 202.679 46.275C201.179 43.675 200.429 40.4 200.429 36.45L204.554 32.25C204.554 35.55 205.479 38.925 207.329 42.375C209.479 46.375 212.054 48.375 215.054 48.375C216.304 48.375 217.429 47.925 218.429 47.025C219.479 46.075 220.004 44.975 220.004 43.725C220.004 42.525 218.604 40.025 215.804 36.225C213.004 32.425 211.604 29.75 211.604 28.2C211.604 25.45 213.954 22.85 218.654 20.4C222.804 18.25 226.454 17.175 229.604 17.175C235.254 17.175 239.829 18.85 243.329 22.2C246.879 25.5 248.654 29.95 248.654 35.55ZM237.254 37.275C237.254 36.475 236.804 35.8 235.904 35.25C235.054 34.7 234.179 34.4 233.279 34.35C232.879 35.55 232.679 36.75 232.679 37.95C232.679 38.9 233.004 40.05 233.654 41.4C234.404 41.05 235.179 40.45 235.979 39.6C236.829 38.75 237.254 37.975 237.254 37.275ZM322.392 46.875C322.442 48.025 321.667 49.075 320.067 50.025C318.517 50.925 317.117 51.375 315.867 51.375C314.217 51.375 311.992 50.4 309.192 48.45C306.092 50.15 303.117 51 300.267 51C293.117 51 289.542 48.15 289.542 42.45C289.542 40.2 291.042 37.575 294.042 34.575C297.092 31.525 299.742 30 301.992 30C303.192 30 304.317 31.475 305.367 34.425C305.917 36.475 306.492 38.525 307.092 40.575C308.092 43.025 309.567 44.25 311.517 44.25C313.017 44.25 314.517 43.275 316.017 41.325C317.517 39.375 318.267 37.625 318.267 36.075C318.267 26.925 315.117 22.35 308.817 22.35C307.417 22.35 305.392 23.2 302.742 24.9C300.142 26.6 298.242 27.45 297.042 27.45C295.292 27.45 293.767 26.875 292.467 25.725C291.217 24.525 290.467 23.05 290.217 21.3C287.967 22.9 286.842 24.8 286.842 27C286.842 28.15 287.492 29.225 288.792 30.225C290.142 31.175 290.817 32 290.817 32.7C290.817 34.5 289.592 35.4 287.142 35.4L285.867 35.25C283.717 33.8 282.642 31.825 282.642 29.325C282.642 27.425 283.892 24.8 286.392 21.45C288.942 18.1 291.117 16.425 292.917 16.425C293.467 16.425 293.967 16.65 294.417 17.1C294.467 18.7 295.092 20.025 296.292 21.075C297.542 22.125 298.992 22.65 300.642 22.65C301.692 22.65 303.567 21.725 306.267 19.875C309.017 18.025 311.092 17.1 312.492 17.1C315.942 17.1 318.542 18.8 320.292 22.2C321.692 24.85 322.392 28.075 322.392 31.875C322.392 37.675 319.392 42.45 313.392 46.2C314.342 46.75 315.267 47.025 316.167 47.025C316.467 47.025 317.892 46.6 320.442 45.75C321.292 46 321.942 46.375 322.392 46.875ZM304.767 46.875C303.717 45.725 302.667 43.2 301.617 39.3C300.767 36.15 299.742 34.575 298.542 34.575C297.192 34.575 295.942 35.25 294.792 36.6C293.642 37.95 293.067 39.3 293.067 40.65C293.067 44.65 296.967 46.725 304.767 46.875ZM365.315 10.05C365.315 12.5 364.19 15.075 361.94 17.775C360.94 18.975 359.94 19.9 358.94 20.55C359.64 21.25 360.365 22.075 361.115 23.025C363.515 26.175 364.715 29.125 364.715 31.875C364.715 36.575 362.24 40.975 357.29 45.075C352.54 49.025 347.765 51 342.965 51C338.315 51 334.315 49.7 330.965 47.1C327.265 44.25 325.415 40.575 325.415 36.075C325.415 33.775 326.565 31.125 328.865 28.125C330.815 25.575 332.965 23.475 335.315 21.825H326.165L325.565 21.075C325.615 20.025 326.115 19.125 327.065 18.375C328.065 17.575 329.115 17.175 330.215 17.175H353.99C357.04 17.175 358.915 17.05 359.615 16.8C360.965 16.3 361.665 15.075 361.715 13.125C361.715 11.475 361.24 10 360.29 8.7L358.79 6.675C358.79 5.875 359.19 5.15 359.99 4.5C360.84 3.85 361.69 3.525 362.54 3.525C364.39 3.525 365.315 5.7 365.315 10.05ZM359.315 37.2C359.315 33.55 357.515 30.075 353.915 26.775C350.315 23.475 346.69 21.825 343.04 21.825C339.59 21.825 336.64 22.825 334.19 24.825C331.59 26.925 330.29 29.675 330.29 33.075C330.29 36.625 332.24 39.875 336.14 42.825C339.74 45.525 343.39 46.875 347.09 46.875C350.24 46.875 352.99 46.075 355.34 44.475C357.99 42.625 359.315 40.2 359.315 37.2ZM387.999 34.35C387.999 38.5 386.674 42.25 384.024 45.6C381.174 49.2 377.724 51 373.674 51C365.074 51 360.724 46.15 360.624 36.45L364.749 32.25C364.749 37 365.399 40.55 366.699 42.9C368.449 46 371.524 47.55 375.924 47.55C378.174 47.55 380.149 46.65 381.849 44.85C383.549 43.05 384.399 41.025 384.399 38.775C384.399 36.025 383.224 33.15 380.874 30.15C379.324 28.2 377.199 26.1 374.499 23.85C372.149 21.9 370.974 20.725 370.974 20.325C370.974 19.575 371.424 18.9 372.324 18.3C373.224 17.65 374.074 17.325 374.874 17.325C377.774 17.325 380.724 19.45 383.724 23.7C386.574 27.75 387.999 31.3 387.999 34.35ZM464.773 36.6C464.773 40.05 463.573 43.275 461.173 46.275C458.623 49.425 455.673 51 452.323 51C450.873 51 448.973 50 446.623 48C444.273 46 442.523 45 441.373 45C440.823 45 439.823 46 438.373 48C436.973 50 435.448 51 433.798 51C430.948 51 428.573 49.325 426.673 45.975C426.223 46.375 425.898 46.925 425.698 47.625C425.898 47.825 426.823 48.575 428.473 49.875C429.623 50.775 430.348 51.65 430.648 52.5C430.348 53.8 429.923 54.7 429.373 55.2C428.873 55.7 427.973 55.95 426.673 55.95C425.673 55.95 424.573 55.175 423.373 53.625C422.423 52.325 421.948 51.275 421.948 50.475C421.948 49.525 422.548 48.475 423.748 47.325C424.548 46.525 425.373 45.75 426.223 45C425.523 43.3 425.173 41.05 425.173 38.25C425.173 32.75 427.498 30 432.148 30C433.648 30 435.023 30.35 436.273 31.05C437.773 31.9 438.523 33.025 438.523 34.425C438.523 36.125 437.698 37.875 436.048 39.675C434.398 41.475 432.723 42.675 431.023 43.275C431.873 44.625 433.648 45.7 436.348 46.5C438.948 42.25 441.623 40.125 444.373 40.125C445.723 40.125 447.748 41.325 450.448 43.725C453.198 46.125 454.973 47.325 455.773 47.325C457.073 47.325 458.223 46.525 459.223 44.925C460.173 43.475 460.648 42.075 460.648 40.725C460.648 36.475 458.448 32.375 454.048 28.425C451.798 26.425 447.723 23.65 441.823 20.1C437.473 17.5 435.298 15.55 435.298 14.25C435.298 13.45 435.623 12.8 436.273 12.3C436.973 11.8 437.748 11.55 438.598 11.55C441.398 11.55 445.148 13.25 449.848 16.65C453.748 19.45 456.923 22.275 459.373 25.125C462.973 29.325 464.773 33.15 464.773 36.6ZM434.698 37.725C434.698 36.875 434.248 36.125 433.348 35.475C432.448 34.775 431.548 34.4 430.648 34.35C430.148 36 429.898 37.5 429.898 38.85C429.898 39.9 430.148 40.9 430.648 41.85C433.348 40.35 434.698 38.975 434.698 37.725ZM499.223 31.95C499.223 36.3 497.423 40.525 493.823 44.625C490.073 48.875 486.073 51 481.823 51C477.723 51 474.348 49.55 471.698 46.65C469.098 43.75 467.798 40.25 467.798 36.15C467.798 31.8 469.623 27.55 473.273 23.4C476.923 19.2 480.873 17.1 485.123 17.1C489.123 17.1 492.473 18.575 495.173 21.525C497.873 24.425 499.223 27.9 499.223 31.95ZM494.948 37.275C494.948 33.975 493.598 30.55 490.898 27C487.998 23.2 484.973 21.3 481.823 21.3C478.673 21.3 476.148 22.6 474.248 25.2C472.548 27.5 471.698 30.3 471.698 33.6C471.698 36.75 473.148 39.75 476.048 42.6C478.948 45.45 481.973 46.875 485.123 46.875C487.773 46.875 490.073 45.95 492.023 44.1C493.973 42.2 494.948 39.925 494.948 37.275ZM542.197 33.225C542.197 38.325 539.772 42.65 534.922 46.2C530.522 49.4 525.672 51 520.372 51C516.172 51 512.197 49.625 508.447 46.875C504.347 43.825 502.297 40.275 502.297 36.225C502.297 33.875 503.197 32.7 504.997 32.7C505.997 32.7 507.022 33.675 508.072 35.625C508.672 37.075 509.297 38.525 509.947 39.975C512.747 44.625 517.722 46.95 524.872 46.95C528.422 46.95 531.422 46.1 533.872 44.4C536.622 42.45 537.997 39.775 537.997 36.375C537.997 34.575 537.247 33.15 535.747 32.1C534.447 31.15 532.847 30.675 530.947 30.675C529.597 30.675 528.372 31.025 527.272 31.725C526.072 32.575 525.472 33.65 525.472 34.95C525.472 35.75 526.047 36.775 527.197 38.025C528.347 39.225 528.922 40.225 528.922 41.025C528.922 41.675 528.622 42.25 528.022 42.75C527.472 43.25 526.872 43.5 526.222 43.5C525.022 43.5 523.997 43 523.147 42C522.297 40.95 521.872 39.8 521.872 38.55C521.872 37.35 522.422 35.725 523.522 33.675C524.622 31.625 525.172 30.025 525.172 28.875C525.172 24.175 521.722 21.825 514.822 21.825H502.822C502.372 21.825 502.172 21.575 502.222 21.075C502.372 19.975 502.922 19.05 503.872 18.3C504.822 17.55 505.847 17.175 506.947 17.175H530.047V21.825H528.322C529.072 23.175 529.447 24.325 529.447 25.275C529.447 26.525 528.947 27.875 527.947 29.325C529.747 27.825 531.922 27.075 534.472 27.075C536.572 27.075 538.322 27.55 539.722 28.5C541.372 29.65 542.197 31.225 542.197 33.225ZM570.565 32.775C570.565 36.725 569.14 40.675 566.29 44.625C563.14 48.975 559.69 51.15 555.94 51.15C553.24 51.15 551.465 50.9 550.615 50.4C549.765 49.9 548.64 48.475 547.24 46.125L546.64 47.85C547.04 49.35 547.94 50.55 549.34 51.45C550.79 52.4 551.615 53.075 551.815 53.475C550.965 55.225 549.44 56.1 547.24 56.1C546.34 56.1 545.315 55.375 544.165 53.925C543.015 52.475 542.44 51.3 542.44 50.4C542.44 49.1 543.715 47.35 546.265 45.15C545.665 42.3 545.365 39.95 545.365 38.1C545.365 35.05 545.94 32.95 547.09 31.8C548.29 30.65 550.44 30.075 553.54 30.075C555.14 30.075 556.59 30.375 557.89 30.975C559.54 31.725 560.365 32.8 560.365 34.2C560.365 35.9 559.415 37.725 557.515 39.675C555.665 41.575 553.84 42.775 552.04 43.275C553.54 45.625 555.815 46.8 558.865 46.8C561.315 46.8 563.24 45.65 564.64 43.35C565.79 41.45 566.365 39.2 566.365 36.6C566.365 32.4 565.415 28.975 563.515 26.325C561.365 23.325 558.265 21.825 554.215 21.825H524.965L529.09 17.175H558.34C562.49 17.175 565.64 18.8 567.79 22.05C569.64 24.85 570.565 28.425 570.565 32.775ZM555.415 37.05C555.415 36.25 554.89 35.6 553.84 35.1C552.99 34.7 552.115 34.5 551.215 34.5C550.715 36.6 550.465 37.9 550.465 38.4C550.465 39 550.715 40 551.215 41.4C554.015 40 555.415 38.55 555.415 37.05ZM613.46 10.05C613.46 12.5 612.335 15.075 610.085 17.775C609.035 19.075 607.96 20.05 606.86 20.7C611.06 24.6 613.16 29.9 613.16 36.6C613.16 40.05 611.96 43.275 609.56 46.275C607.01 49.425 604.06 51 600.71 51C599.16 51 597.11 49.975 594.56 47.925C592.01 45.825 590.135 44.775 588.935 44.775C588.435 45.625 587.66 46.875 586.61 48.525C585.61 50.175 584.61 51 583.61 51C580.71 51 578.335 49.75 576.485 47.25C574.785 44.95 573.935 42.3 573.935 39.3C573.935 32.1 576.835 26.275 582.635 21.825H574.16C573.61 21.825 573.41 21.575 573.56 21.075C573.61 20.025 574.11 19.125 575.06 18.375C576.01 17.575 577.035 17.175 578.135 17.175H602.135C605.185 17.175 607.06 17.05 607.76 16.8C609.11 16.3 609.81 15.075 609.86 13.125C609.86 11.475 609.385 10 608.435 8.7L606.935 6.675C606.935 5.875 607.335 5.15 608.135 4.5C608.985 3.85 609.835 3.525 610.685 3.525C612.535 3.525 613.46 5.7 613.46 10.05ZM609.035 40.725C609.035 35.125 607.56 30.625 604.61 27.225C601.51 23.625 597.185 21.825 591.635 21.825C587.585 21.825 584.235 22.95 581.585 25.2C578.785 27.55 577.385 30.725 577.385 34.725C577.385 37.275 578.11 39.6 579.56 41.7C581.06 43.75 583.01 45.175 585.41 45.975C586.96 43.625 587.935 42.275 588.335 41.925C589.585 40.725 591.085 40.125 592.835 40.125C593.935 40.125 595.86 41.275 598.61 43.575C601.36 45.825 603.46 46.95 604.91 46.95C606.31 46.95 607.385 46.225 608.135 44.775C608.735 43.625 609.035 42.275 609.035 40.725ZM656.087 10.05C656.087 12.5 654.962 15.075 652.712 17.775C651.712 18.975 650.712 19.9 649.712 20.55C650.412 21.25 651.137 22.075 651.887 23.025C654.287 26.175 655.487 29.125 655.487 31.875C655.487 36.575 653.012 40.975 648.062 45.075C643.312 49.025 638.537 51 633.737 51C629.087 51 625.087 49.7 621.737 47.1C618.037 44.25 616.187 40.575 616.187 36.075C616.187 33.775 617.337 31.125 619.637 28.125C621.587 25.575 623.737 23.475 626.087 21.825H616.937L616.337 21.075C616.387 20.025 616.887 19.125 617.837 18.375C618.837 17.575 619.887 17.175 620.987 17.175H644.762C647.812 17.175 649.687 17.05 650.387 16.8C651.737 16.3 652.437 15.075 652.487 13.125C652.487 11.475 652.012 10 651.062 8.7L649.562 6.675C649.562 5.875 649.962 5.15 650.762 4.5C651.612 3.85 652.462 3.525 653.312 3.525C655.162 3.525 656.087 5.7 656.087 10.05ZM650.087 37.2C650.087 33.55 648.287 30.075 644.687 26.775C641.087 23.475 637.462 21.825 633.812 21.825C630.362 21.825 627.412 22.825 624.962 24.825C622.362 26.925 621.062 29.675 621.062 33.075C621.062 36.625 623.012 39.875 626.912 42.825C630.512 45.525 634.162 46.875 637.862 46.875C641.012 46.875 643.762 46.075 646.112 44.475C648.762 42.625 650.087 40.2 650.087 37.2ZM678.771 34.35C678.771 38.5 677.446 42.25 674.796 45.6C671.946 49.2 668.496 51 664.446 51C655.846 51 651.496 46.15 651.396 36.45L655.521 32.25C655.521 37 656.171 40.55 657.471 42.9C659.221 46 662.296 47.55 666.696 47.55C668.946 47.55 670.921 46.65 672.621 44.85C674.321 43.05 675.171 41.025 675.171 38.775C675.171 36.025 673.996 33.15 671.646 30.15C670.096 28.2 667.971 26.1 665.271 23.85C662.921 21.9 661.746 20.725 661.746 20.325C661.746 19.575 662.196 18.9 663.096 18.3C663.996 17.65 664.846 17.325 665.646 17.325C668.546 17.325 671.496 19.45 674.496 23.7C677.346 27.75 678.771 31.3 678.771 34.35ZM752.47 46.875C752.52 48.025 751.745 49.075 750.145 50.025C748.595 50.925 747.195 51.375 745.945 51.375C744.295 51.375 742.07 50.4 739.27 48.45C736.17 50.15 733.195 51 730.345 51C723.195 51 719.62 48.15 719.62 42.45C719.62 40.2 721.12 37.575 724.12 34.575C727.17 31.525 729.82 30 732.07 30C733.27 30 734.395 31.475 735.445 34.425C735.995 36.475 736.57 38.525 737.17 40.575C738.17 43.025 739.645 44.25 741.595 44.25C743.095 44.25 744.595 43.275 746.095 41.325C747.595 39.375 748.345 37.625 748.345 36.075C748.345 26.925 745.195 22.35 738.895 22.35C737.495 22.35 735.47 23.2 732.82 24.9C730.22 26.6 728.32 27.45 727.12 27.45C725.37 27.45 723.845 26.875 722.545 25.725C721.295 24.525 720.545 23.05 720.295 21.3C718.045 22.9 716.92 24.8 716.92 27C716.92 28.15 717.57 29.225 718.87 30.225C720.22 31.175 720.895 32 720.895 32.7C720.895 34.5 719.67 35.4 717.22 35.4L715.945 35.25C713.795 33.8 712.72 31.825 712.72 29.325C712.72 27.425 713.97 24.8 716.47 21.45C719.02 18.1 721.195 16.425 722.995 16.425C723.545 16.425 724.045 16.65 724.495 17.1C724.545 18.7 725.17 20.025 726.37 21.075C727.62 22.125 729.07 22.65 730.72 22.65C731.77 22.65 733.645 21.725 736.345 19.875C739.095 18.025 741.17 17.1 742.57 17.1C746.02 17.1 748.62 18.8 750.37 22.2C751.77 24.85 752.47 28.075 752.47 31.875C752.47 37.675 749.47 42.45 743.47 46.2C744.42 46.75 745.345 47.025 746.245 47.025C746.545 47.025 747.97 46.6 750.52 45.75C751.37 46 752.02 46.375 752.47 46.875ZM734.845 46.875C733.795 45.725 732.745 43.2 731.695 39.3C730.845 36.15 729.82 34.575 728.62 34.575C727.27 34.575 726.02 35.25 724.87 36.6C723.72 37.95 723.145 39.3 723.145 40.65C723.145 44.65 727.045 46.725 734.845 46.875ZM795.393 10.05C795.393 12.5 794.268 15.075 792.018 17.775C791.018 18.975 790.018 19.9 789.018 20.55C789.718 21.25 790.443 22.075 791.193 23.025C793.593 26.175 794.793 29.125 794.793 31.875C794.793 36.575 792.318 40.975 787.368 45.075C782.618 49.025 777.843 51 773.043 51C768.393 51 764.393 49.7 761.043 47.1C757.343 44.25 755.493 40.575 755.493 36.075C755.493 33.775 756.643 31.125 758.943 28.125C760.893 25.575 763.043 23.475 765.393 21.825H756.243L755.643 21.075C755.693 20.025 756.193 19.125 757.143 18.375C758.143 17.575 759.193 17.175 760.293 17.175H784.068C787.118 17.175 788.993 17.05 789.693 16.8C791.043 16.3 791.743 15.075 791.793 13.125C791.793 11.475 791.318 10 790.368 8.7L788.868 6.675C788.868 5.875 789.268 5.15 790.068 4.5C790.918 3.85 791.768 3.525 792.618 3.525C794.468 3.525 795.393 5.7 795.393 10.05ZM789.393 37.2C789.393 33.55 787.593 30.075 783.993 26.775C780.393 23.475 776.768 21.825 773.118 21.825C769.668 21.825 766.718 22.825 764.268 24.825C761.668 26.925 760.368 29.675 760.368 33.075C760.368 36.625 762.318 39.875 766.218 42.825C769.818 45.525 773.468 46.875 777.168 46.875C780.318 46.875 783.068 46.075 785.418 44.475C788.068 42.625 789.393 40.2 789.393 37.2ZM818.077 34.35C818.077 38.5 816.752 42.25 814.102 45.6C811.252 49.2 807.802 51 803.752 51C795.152 51 790.802 46.15 790.702 36.45L794.827 32.25C794.827 37 795.477 40.55 796.777 42.9C798.527 46 801.602 47.55 806.002 47.55C808.252 47.55 810.227 46.65 811.927 44.85C813.627 43.05 814.477 41.025 814.477 38.775C814.477 36.025 813.302 33.15 810.952 30.15C809.402 28.2 807.277 26.1 804.577 23.85C802.227 21.9 801.052 20.725 801.052 20.325C801.052 19.575 801.502 18.9 802.402 18.3C803.302 17.65 804.152 17.325 804.952 17.325C807.852 17.325 810.802 19.45 813.802 23.7C816.652 27.75 818.077 31.3 818.077 34.35ZM894.851 36.6C894.851 40.05 893.651 43.275 891.251 46.275C888.701 49.425 885.751 51 882.401 51C880.951 51 879.051 50 876.701 48C874.351 46 872.601 45 871.451 45C870.901 45 869.901 46 868.451 48C867.051 50 865.526 51 863.876 51C861.026 51 858.651 49.325 856.751 45.975C856.301 46.375 855.976 46.925 855.776 47.625C855.976 47.825 856.901 48.575 858.551 49.875C859.701 50.775 860.426 51.65 860.726 52.5C860.426 53.8 860.001 54.7 859.451 55.2C858.951 55.7 858.051 55.95 856.751 55.95C855.751 55.95 854.651 55.175 853.451 53.625C852.501 52.325 852.026 51.275 852.026 50.475C852.026 49.525 852.626 48.475 853.826 47.325C854.626 46.525 855.451 45.75 856.301 45C855.601 43.3 855.251 41.05 855.251 38.25C855.251 32.75 857.576 30 862.226 30C863.726 30 865.101 30.35 866.351 31.05C867.851 31.9 868.601 33.025 868.601 34.425C868.601 36.125 867.776 37.875 866.126 39.675C864.476 41.475 862.801 42.675 861.101 43.275C861.951 44.625 863.726 45.7 866.426 46.5C869.026 42.25 871.701 40.125 874.451 40.125C875.801 40.125 877.826 41.325 880.526 43.725C883.276 46.125 885.051 47.325 885.851 47.325C887.151 47.325 888.301 46.525 889.301 44.925C890.251 43.475 890.726 42.075 890.726 40.725C890.726 36.475 888.526 32.375 884.126 28.425C881.876 26.425 877.801 23.65 871.901 20.1C867.551 17.5 865.376 15.55 865.376 14.25C865.376 13.45 865.701 12.8 866.351 12.3C867.051 11.8 867.826 11.55 868.676 11.55C871.476 11.55 875.226 13.25 879.926 16.65C883.826 19.45 887.001 22.275 889.451 25.125C893.051 29.325 894.851 33.15 894.851 36.6ZM864.776 37.725C864.776 36.875 864.326 36.125 863.426 35.475C862.526 34.775 861.626 34.4 860.726 34.35C860.226 36 859.976 37.5 859.976 38.85C859.976 39.9 860.226 40.9 860.726 41.85C863.426 40.35 864.776 38.975 864.776 37.725ZM929.301 31.95C929.301 36.3 927.501 40.525 923.901 44.625C920.151 48.875 916.151 51 911.901 51C907.801 51 904.426 49.55 901.776 46.65C899.176 43.75 897.876 40.25 897.876 36.15C897.876 31.8 899.701 27.55 903.351 23.4C907.001 19.2 910.951 17.1 915.201 17.1C919.201 17.1 922.551 18.575 925.251 21.525C927.951 24.425 929.301 27.9 929.301 31.95ZM925.026 37.275C925.026 33.975 923.676 30.55 920.976 27C918.076 23.2 915.051 21.3 911.901 21.3C908.751 21.3 906.226 22.6 904.326 25.2C902.626 27.5 901.776 30.3 901.776 33.6C901.776 36.75 903.226 39.75 906.126 42.6C909.026 45.45 912.051 46.875 915.201 46.875C917.851 46.875 920.151 45.95 922.101 44.1C924.051 42.2 925.026 39.925 925.026 37.275ZM971.9 36.6C971.9 40.05 970.7 43.275 968.3 46.275C965.75 49.425 962.8 51 959.45 51C957.9 51 955.85 49.975 953.3 47.925C950.75 45.825 948.875 44.775 947.675 44.775C947.175 45.625 946.4 46.875 945.35 48.525C944.35 50.175 943.35 51 942.35 51C939.45 51 937.075 49.75 935.225 47.25C933.525 44.95 932.675 42.3 932.675 39.3C932.675 32.1 935.575 26.275 941.375 21.825H932.9C932.35 21.825 932.15 21.575 932.3 21.075C932.35 20.025 932.85 19.125 933.8 18.375C934.75 17.575 935.775 17.175 936.875 17.175H956.6C961.35 17.175 965.175 19.3 968.075 23.55C970.625 27.3 971.9 31.65 971.9 36.6ZM967.775 40.725C967.775 35.125 966.3 30.625 963.35 27.225C960.25 23.625 955.925 21.825 950.375 21.825C946.325 21.825 942.975 22.95 940.325 25.2C937.525 27.55 936.125 30.725 936.125 34.725C936.125 37.275 936.85 39.6 938.3 41.7C939.8 43.75 941.75 45.175 944.15 45.975C945.7 43.625 946.675 42.275 947.075 41.925C948.325 40.725 949.825 40.125 951.575 40.125C952.675 40.125 954.6 41.275 957.35 43.575C960.1 45.825 962.2 46.95 963.65 46.95C965.05 46.95 966.125 46.225 966.875 44.775C967.475 43.625 967.775 42.275 967.775 40.725ZM973.727 9.45C973.727 12.25 972.102 15.025 968.852 17.775C965.552 20.475 962.477 21.825 959.627 21.825H954.827L957.002 17.175H963.602C967.802 17.175 969.902 15.375 969.902 11.775C969.902 9.825 969.127 8.075 967.577 6.525C965.977 4.975 964.202 4.2 962.252 4.2C960.102 4.2 959.027 4.925 959.027 6.375C959.027 8.725 961.302 9.9 965.852 9.9C966.902 9.9 967.427 10.325 967.427 11.175C967.427 12.375 966.752 13.4 965.402 14.25C964.252 14.95 963.027 15.3 961.727 15.3C959.877 15.3 958.177 14.8 956.627 13.8C954.877 12.7 954.002 11.25 954.002 9.45C954.002 7.3 955.402 5.175 958.202 3.075C960.852 1.025 963.277 -5.36442e-07 965.477 -5.36442e-07C970.977 -5.36442e-07 973.727 3.15 973.727 9.45ZM1006.43 31.95C1006.43 36.3 1004.63 40.525 1001.03 44.625C997.275 48.875 993.275 51 989.025 51C984.925 51 981.55 49.55 978.9 46.65C976.3 43.75 975 40.25 975 36.15C975 31.8 976.825 27.55 980.475 23.4C984.125 19.2 988.075 17.1 992.325 17.1C996.325 17.1 999.675 18.575 1002.38 21.525C1005.08 24.425 1006.43 27.9 1006.43 31.95ZM1002.15 37.275C1002.15 33.975 1000.8 30.55 998.1 27C995.2 23.2 992.175 21.3 989.025 21.3C985.875 21.3 983.35 22.6 981.45 25.2C979.75 27.5 978.9 30.3 978.9 33.6C978.9 36.75 980.35 39.75 983.25 42.6C986.15 45.45 989.175 46.875 992.325 46.875C994.975 46.875 997.275 45.95 999.225 44.1C1001.18 42.2 1002.15 39.925 1002.15 37.275ZM1048.8 33.15C1048.8 37.65 1047.85 41.575 1045.95 44.925C1043.6 48.975 1040.35 51 1036.2 51C1034.65 51 1032.6 49.975 1030.05 47.925C1027.55 45.825 1025.65 44.775 1024.35 44.775C1021.85 48.925 1020.1 51 1019.1 51C1016 51 1013.55 49.7 1011.75 47.1C1010.2 44.8 1009.42 42.025 1009.42 38.775C1009.42 33.725 1010.8 29.35 1013.55 25.65C1012.4 25.4 1011.47 24.475 1010.77 22.875C1010.17 21.525 1009.87 20.15 1009.87 18.75C1009.87 15.1 1011.57 12.05 1014.97 9.6C1018.12 7.35 1021.57 6.225 1025.32 6.225C1029.47 6.225 1033.65 7.7 1037.85 10.65C1042.4 13.85 1044.67 17.425 1044.67 21.375C1044.67 21.875 1044.62 22.375 1044.52 22.875C1047.37 26.375 1048.8 29.8 1048.8 33.15ZM1037.32 19.575C1036.17 16.975 1034.07 14.8 1031.02 13.05C1027.97 11.3 1025 10.425 1022.1 10.425C1017.55 10.425 1015.27 12.225 1015.27 15.825C1015.27 18.225 1016.35 20.15 1018.5 21.6C1021.85 19.05 1025.37 17.775 1029.07 17.775C1032.02 17.775 1034.77 18.375 1037.32 19.575ZM1044.52 40.725C1044.52 35.075 1043.02 30.525 1040.02 27.075C1036.82 23.475 1032.45 21.675 1026.9 21.675C1022.85 21.675 1019.5 22.85 1016.85 25.2C1014.2 27.55 1012.87 30.725 1012.87 34.725C1012.87 37.275 1013.6 39.6 1015.05 41.7C1016.5 43.75 1018.42 45.175 1020.82 45.975C1022.42 43.675 1023.42 42.325 1023.82 41.925C1025.02 40.725 1026.5 40.125 1028.25 40.125C1029.35 40.125 1031.27 41.275 1034.02 43.575C1036.82 45.825 1038.92 46.95 1040.32 46.95C1041.72 46.95 1042.8 46.225 1043.55 44.775C1044.2 43.575 1044.52 42.225 1044.52 40.725ZM1091.73 10.05C1091.73 12.5 1090.61 15.075 1088.36 17.775C1087.31 19.025 1086.26 19.975 1085.21 20.625C1085.96 21.375 1086.71 22.275 1087.46 23.325C1089.96 26.725 1091.21 29.725 1091.21 32.325C1091.21 36.575 1089.76 40.675 1086.86 44.625C1083.76 48.875 1080.16 51 1076.06 51C1075.41 51 1074.93 50.7 1074.63 50.1C1075.03 48.9 1076.36 47.975 1078.61 47.325C1081.31 46.525 1083.18 45.675 1084.23 44.775C1086.18 43.075 1087.16 40.325 1087.16 36.525C1087.16 32.125 1085.28 28.5 1081.53 25.65C1078.08 23.05 1074.08 21.75 1069.53 21.75C1066.23 21.75 1063.23 22.675 1060.53 24.525C1057.48 26.575 1055.96 29.175 1055.96 32.325C1055.96 35.925 1056.88 39.025 1058.73 41.625C1060.63 44.225 1063.28 45.975 1066.68 46.875L1067.58 47.85C1066.78 49.95 1065.11 51 1062.56 51C1059.11 51 1056.38 49.375 1054.38 46.125C1052.68 43.375 1051.83 40.175 1051.83 36.525C1051.83 31.225 1055.16 26.3 1061.81 21.75H1052.66L1052.06 21C1052.11 19.95 1052.63 19.05 1053.63 18.3C1054.68 17.55 1055.76 17.175 1056.86 17.175H1080.41C1083.46 17.175 1085.33 17.05 1086.03 16.8C1087.38 16.3 1088.08 15.075 1088.13 13.125C1088.13 11.475 1087.66 10 1086.71 8.7L1085.21 6.675C1085.21 5.875 1085.61 5.15 1086.41 4.5C1087.26 3.85 1088.11 3.525 1088.96 3.525C1090.81 3.525 1091.73 5.7 1091.73 10.05ZM1134.74 35.55C1134.74 39.65 1133.86 43.125 1132.11 45.975C1130.06 49.425 1127.11 51.15 1123.26 51.15C1120.06 51.15 1117.44 49.425 1115.39 45.975C1114.84 46.525 1114.44 47.275 1114.19 48.225C1114.44 48.625 1115.24 49.45 1116.59 50.7C1117.79 51.85 1118.39 52.6 1118.39 52.95C1118.39 53.75 1118.16 54.55 1117.71 55.35C1116.86 55.75 1115.91 55.95 1114.86 55.95C1114.06 55.95 1113.11 55.225 1112.01 53.775C1110.96 52.325 1110.44 51.175 1110.44 50.325C1110.44 48.775 1111.91 46.925 1114.86 44.775C1113.91 41.775 1113.44 39.3 1113.44 37.35C1113.44 34.8 1113.96 32.95 1115.01 31.8C1116.11 30.6 1117.94 30 1120.49 30C1122.09 30 1123.59 30.45 1124.99 31.35C1126.54 32.4 1127.31 33.675 1127.31 35.175C1127.31 36.325 1126.34 37.9 1124.39 39.9C1122.54 41.7 1120.99 42.825 1119.74 43.275C1120.39 44.425 1121.26 45.5 1122.36 46.5C1123.71 47.7 1124.94 48.3 1126.04 48.3C1127.79 48.3 1129.04 46.65 1129.79 43.35C1130.24 41.35 1130.46 39.05 1130.46 36.45C1130.46 31.95 1128.31 28.275 1124.01 25.425C1120.26 22.925 1116.04 21.675 1111.34 21.675C1105.64 21.675 1102.79 23.025 1102.79 25.725C1102.79 26.625 1104.09 28.775 1106.69 32.175C1109.29 35.525 1110.59 37.9 1110.59 39.3C1110.59 42.7 1109.16 45.55 1106.31 47.85C1103.66 49.95 1100.59 51 1097.09 51C1093.39 51 1090.61 49.425 1088.76 46.275C1087.26 43.675 1086.51 40.4 1086.51 36.45L1090.64 32.25C1090.64 35.55 1091.56 38.925 1093.41 42.375C1095.56 46.375 1098.14 48.375 1101.14 48.375C1102.39 48.375 1103.51 47.925 1104.51 47.025C1105.56 46.075 1106.09 44.975 1106.09 43.725C1106.09 42.525 1104.69 40.025 1101.89 36.225C1099.09 32.425 1097.69 29.75 1097.69 28.2C1097.69 25.45 1100.04 22.85 1104.74 20.4C1108.89 18.25 1112.54 17.175 1115.69 17.175C1121.34 17.175 1125.91 18.85 1129.41 22.2C1132.96 25.5 1134.74 29.95 1134.74 35.55ZM1123.34 37.275C1123.34 36.475 1122.89 35.8 1121.99 35.25C1121.14 34.7 1120.26 34.4 1119.36 34.35C1118.96 35.55 1118.76 36.75 1118.76 37.95C1118.76 38.9 1119.09 40.05 1119.74 41.4C1120.49 41.05 1121.26 40.45 1122.06 39.6C1122.91 38.75 1123.34 37.975 1123.34 37.275ZM1208.03 36.675C1208.03 40.125 1206.83 43.35 1204.43 46.35C1201.88 49.5 1198.93 51.075 1195.58 51.075C1187.78 51.075 1180.23 47.95 1172.93 41.7V47.625C1172.93 49.675 1173.8 51.525 1175.55 53.175C1177.9 55.375 1179.23 56.8 1179.53 57.45C1178.83 59.55 1177.5 60.6 1175.55 60.6C1174.2 60.6 1172.73 59.5 1171.13 57.3C1169.53 55.1 1168.73 53.275 1168.73 51.825V33.45C1169.88 31.3 1170.98 30 1172.03 29.55C1172.38 29.6 1173.95 31.6 1176.75 35.55C1178.35 37.8 1180.58 39.85 1183.43 41.7C1188.78 45.2 1193.55 46.95 1197.75 46.95C1199.85 46.95 1201.5 46.15 1202.7 44.55C1203.8 43.1 1204.35 41.275 1204.35 39.075C1204.35 33.275 1201.8 27.85 1196.7 22.8C1191.65 17.75 1186.23 15.225 1180.43 15.225C1179.23 15.225 1177.88 15.45 1176.38 15.9C1174.48 16.45 1173.53 17.2 1173.53 18.15C1173.53 20.45 1176.53 22.1 1182.53 23.1C1186.13 23.7 1190.05 24 1194.3 24C1195.55 24 1196.18 24.7 1196.18 26.1C1196.18 27.65 1195.35 28.825 1193.7 29.625C1192.45 30.225 1190.95 30.525 1189.2 30.525C1184.5 30.525 1180.43 30.05 1176.98 29.1C1171.63 27.65 1168.95 25.225 1168.95 21.825C1168.95 18.325 1170.98 15.475 1175.03 13.275C1178.43 11.425 1181.98 10.5 1185.68 10.5C1191.43 10.5 1196.65 13.475 1201.35 19.425C1205.8 25.025 1208.03 30.775 1208.03 36.675ZM1225.91 47.85C1225.91 48.7 1225.48 49.45 1224.63 50.1C1223.83 50.7 1222.98 51 1222.08 51C1219.28 51 1216.78 50.075 1214.58 48.225C1212.23 46.275 1211.06 43.95 1211.06 41.25V21.75C1211.06 20.35 1211.93 19.2 1213.68 18.3C1215.13 17.55 1216.63 17.175 1218.18 17.175C1220.48 17.175 1222.31 17.95 1223.66 19.5C1225.01 21 1225.68 22.925 1225.68 25.275C1225.68 27.325 1224.36 29.55 1221.71 31.95C1219.71 33.75 1217.53 35.25 1215.18 36.45C1215.33 38.6 1215.43 39.9 1215.48 40.35C1215.78 41.85 1216.33 43 1217.13 43.8C1217.68 44.4 1219.43 44.975 1222.38 45.525C1224.73 45.975 1225.91 46.75 1225.91 47.85ZM1220.73 27.6C1220.73 26.15 1220.16 24.875 1219.01 23.775C1217.91 22.675 1216.63 22.025 1215.18 21.825V32.325H1216.01C1217.11 32.325 1217.86 32.225 1218.26 32.025C1218.96 31.725 1219.53 31.125 1219.98 30.225C1220.48 29.275 1220.73 28.4 1220.73 27.6ZM1305.06 10.05C1305.06 12.5 1303.94 15.075 1301.69 17.775C1299.49 20.475 1297.19 21.825 1294.79 21.825H1286.09C1285.94 21.825 1285.84 21.8 1285.79 21.75H1284.29V26.1C1285.49 26.1 1287.31 26.05 1289.76 25.95C1292.21 25.85 1294.06 25.8 1295.31 25.8C1300.81 25.8 1303.99 26.25 1304.84 27.15C1303.99 28.6 1302.54 29.525 1300.49 29.925C1299.54 30.125 1297.79 30.225 1295.24 30.225C1298.29 32.175 1299.81 34.375 1299.81 36.825C1299.81 41.375 1297.56 44.975 1293.06 47.625C1289.26 49.875 1284.96 51 1280.16 51C1276.21 51 1272.69 50.1 1269.59 48.3C1265.89 46.15 1264.04 43.275 1264.04 39.675C1264.04 37.925 1264.91 36.125 1266.66 34.275C1267.46 33.425 1269.06 32.075 1271.46 30.225L1269.29 30.3C1267.84 30.4 1266.61 30.45 1265.61 30.45C1261.81 30.45 1259.91 30 1259.91 29.1C1259.91 27.05 1263.86 26.025 1271.76 26.025C1274.56 26.025 1275.96 26.025 1275.96 26.025C1276.56 26.025 1277.39 26.05 1278.44 26.1C1279.29 26.1 1279.86 26.1 1280.16 26.1V21.825H1266.44C1262.19 21.825 1260.06 21.4 1260.06 20.55C1260.06 19.55 1260.96 18.7 1262.76 18C1264.16 17.45 1265.46 17.175 1266.66 17.175H1293.74C1296.79 17.175 1298.66 17.05 1299.36 16.8C1300.71 16.3 1301.41 15.075 1301.46 13.125C1301.46 11.475 1300.99 10 1300.04 8.7L1298.54 6.675C1298.54 5.875 1298.94 5.15 1299.74 4.5C1300.59 3.85 1301.44 3.525 1302.29 3.525C1304.14 3.525 1305.06 5.7 1305.06 10.05ZM1295.54 40.8C1295.54 38.1 1293.61 35.6 1289.76 33.3C1286.31 31.25 1283.11 30.225 1280.16 30.225C1277.46 30.225 1275.01 30.8 1272.81 31.95C1270.11 33.35 1268.76 35.275 1268.76 37.725C1268.76 41.125 1271.19 43.65 1276.04 45.3C1279.34 46.4 1283.16 46.95 1287.51 46.95C1289.66 46.95 1291.46 46.475 1292.91 45.525C1294.66 44.425 1295.54 42.85 1295.54 40.8ZM1346.25 10.05C1346.25 12.5 1345.12 15.075 1342.87 17.775C1340.67 20.475 1338.37 21.825 1335.97 21.825H1334.17C1342.12 26.425 1346.1 31.35 1346.1 36.6C1346.1 40.1 1344.92 43.325 1342.57 46.275C1340.02 49.425 1337.05 51 1333.65 51C1325.9 51 1318.35 47.875 1311 41.625V47.55C1311 49.4 1312.1 51.5 1314.3 53.85C1316.5 56.25 1317.6 57.4 1317.6 57.3C1317.6 58.05 1317.15 58.775 1316.25 59.475C1315.35 60.175 1314.5 60.525 1313.7 60.525C1312.35 60.525 1310.77 59.325 1308.97 56.925C1307.22 54.525 1306.35 52.6 1306.35 51.15V34.2C1306.35 33.2 1306.72 32.275 1307.47 31.425C1308.27 30.525 1309.17 29.875 1310.17 29.475C1310.47 29.475 1312.02 31.45 1314.82 35.4C1317.77 39.6 1322.45 42.8 1328.85 45C1332 46.1 1334.6 46.65 1336.65 46.65C1338.15 46.65 1339.4 46.05 1340.4 44.85C1341.45 43.65 1341.97 42.275 1341.97 40.725C1341.97 36.775 1339.35 32.6 1334.1 28.2C1329.05 23.95 1324.47 21.825 1320.37 21.825H1306.95L1306.35 21.075C1306.4 20.025 1306.9 19.125 1307.85 18.375C1308.8 17.575 1309.82 17.175 1310.92 17.175H1334.92C1337.97 17.175 1339.85 17.05 1340.55 16.8C1341.9 16.3 1342.6 15.075 1342.65 13.125C1342.65 11.475 1342.17 10 1341.22 8.7L1339.72 6.675C1339.72 5.875 1340.12 5.15 1340.92 4.5C1341.77 3.85 1342.62 3.525 1343.47 3.525C1345.32 3.525 1346.25 5.7 1346.25 10.05ZM1355.2 68.25C1355.2 69.15 1354.35 70.025 1352.65 70.875C1351.2 71.625 1349.95 72 1348.9 72C1347.75 72 1345.85 71.1 1343.2 69.3C1340.15 70.85 1337.57 71.625 1335.47 71.625C1328.82 71.625 1325.5 69.1 1325.5 64.05C1325.5 62 1326.87 59.6 1329.62 56.85C1332.32 54.1 1334.7 52.725 1336.75 52.725C1337.85 52.725 1338.85 54.05 1339.75 56.7C1340.25 58.55 1340.75 60.4 1341.25 62.25C1342.15 64.5 1343.5 65.625 1345.3 65.625C1346.7 65.625 1348.07 64.825 1349.42 63.225C1350.82 61.625 1351.52 60.1 1351.52 58.65C1351.52 57.45 1351.1 55.6 1350.25 53.1C1349.45 50.6 1349.05 48.7 1349.05 47.4C1349.05 44.3 1349.75 42.75 1351.15 42.75C1352.65 42.75 1353.75 44.4 1354.45 47.7C1354.85 49.65 1355.05 51.9 1355.05 54.45C1355.05 59.6 1352.35 63.9 1346.95 67.35C1347.8 67.8 1348.62 68.025 1349.42 68.025C1349.87 68.025 1350.55 67.825 1351.45 67.425C1352.35 67.025 1352.97 66.825 1353.32 66.825C1353.67 66.825 1354.07 66.975 1354.52 67.275C1354.97 67.625 1355.2 67.95 1355.2 68.25ZM1339.22 67.95C1338.32 66.9 1337.4 64.6 1336.45 61.05C1335.7 58.2 1334.75 56.775 1333.6 56.775C1332.45 56.775 1331.35 57.375 1330.3 58.575C1329.2 59.825 1328.65 61.05 1328.65 62.25C1328.65 64.2 1330 65.7 1332.7 66.75C1334.7 67.5 1336.87 67.9 1339.22 67.95ZM1394.35 36.6C1394.35 40 1393.15 43.2 1390.75 46.2C1388.15 49.4 1385.2 51 1381.9 51C1380.35 51 1378.3 49.975 1375.75 47.925C1373.2 45.825 1371.3 44.775 1370.05 44.775C1367.55 48.925 1365.8 51 1364.8 51C1361.8 51 1359.4 49.75 1357.6 47.25C1355.95 45.05 1355.13 42.4 1355.13 39.3C1355.13 31.95 1357.93 26.125 1363.53 21.825H1355.8L1355.2 21.075C1355.25 20.025 1355.78 19.125 1356.78 18.375C1357.83 17.575 1358.9 17.175 1360 17.175H1382.95C1386 17.175 1387.88 17.05 1388.58 16.8C1389.93 16.3 1390.63 15.075 1390.68 13.125C1390.68 11.475 1390.2 10 1389.25 8.7L1387.75 6.675C1387.75 5.875 1388.15 5.15 1388.95 4.5C1389.8 3.85 1390.65 3.525 1391.5 3.525C1393.35 3.525 1394.28 5.7 1394.28 10.05C1394.28 12.5 1393.15 15.075 1390.9 17.775C1389.95 18.925 1388.98 19.85 1387.98 20.55C1388.53 21.15 1389.1 21.875 1389.7 22.725C1392.8 27.025 1394.35 31.65 1394.35 36.6ZM1388.28 32.7C1388.28 31.3 1387.63 29.875 1386.33 28.425C1385.08 26.975 1383.75 26.25 1382.35 26.25C1380.6 26.25 1379.73 27.225 1379.73 29.175C1379.73 30.425 1380.38 31.825 1381.68 33.375C1383.03 34.925 1384.3 35.7 1385.5 35.7C1387.35 35.7 1388.28 34.7 1388.28 32.7ZM1390.3 38.25C1390.3 37.15 1390.1 35.85 1389.7 34.35C1389.7 36.25 1389.28 37.875 1388.43 39.225C1387.43 40.775 1386.03 41.55 1384.23 41.55C1381.73 41.55 1379.38 40.25 1377.18 37.65C1375.08 35.2 1374.03 32.7 1374.03 30.15C1374.03 28.35 1374.63 26.9 1375.83 25.8C1377.08 24.7 1378.63 24.15 1380.48 24.15C1381.83 24.15 1383.13 24.45 1384.38 25.05C1382.13 22.9 1378.18 21.825 1372.53 21.825C1368.43 21.825 1365.08 23.025 1362.48 25.425C1359.88 27.825 1358.58 31.05 1358.58 35.1C1358.58 37.5 1359.33 39.725 1360.83 41.775C1362.33 43.775 1364.23 45.175 1366.53 45.975C1368.18 43.625 1369.18 42.275 1369.53 41.925C1370.73 40.725 1372.2 40.125 1373.95 40.125C1375.05 40.125 1376.98 41.275 1379.73 43.575C1382.53 45.825 1384.63 46.95 1386.03 46.95C1387.48 46.95 1388.6 45.8 1389.4 43.5C1390 41.8 1390.3 40.05 1390.3 38.25ZM1439.16 36.6C1439.16 40.05 1437.96 43.275 1435.56 46.275C1433.01 49.425 1430.04 51 1426.64 51C1425.24 51 1423.34 50 1420.94 48C1418.59 46 1416.86 45 1415.76 45C1415.21 45 1414.24 45.95 1412.84 47.85C1411.49 49.75 1409.96 50.7 1408.26 50.7C1405.21 50.7 1402.79 49.125 1400.99 45.975C1400.54 46.375 1400.21 46.925 1400.01 47.625C1400.31 47.925 1401.24 48.675 1402.79 49.875C1403.99 50.825 1404.74 51.7 1405.04 52.5C1404.74 53.85 1404.31 54.75 1403.76 55.2C1403.26 55.7 1402.34 55.95 1400.99 55.95C1400.09 55.95 1399.24 55.25 1398.44 53.85C1397.74 52.6 1397.39 51.475 1397.39 50.475C1397.39 50.225 1397.41 50 1397.46 49.8C1398.11 47.95 1399.14 46.35 1400.54 45C1399.89 43.3 1399.56 41.05 1399.56 38.25C1399.56 32.75 1401.86 30 1406.46 30C1408.01 30 1409.41 30.35 1410.66 31.05C1412.16 31.9 1412.91 33.025 1412.91 34.425C1412.91 36.075 1412.06 37.825 1410.36 39.675C1408.71 41.475 1407.06 42.675 1405.41 43.275C1406.21 44.625 1407.99 45.7 1410.74 46.5C1411.64 44.95 1412.76 43.575 1414.11 42.375C1415.76 40.875 1417.31 40.125 1418.76 40.125C1420.11 40.125 1422.14 41.325 1424.84 43.725C1427.59 46.125 1429.34 47.325 1430.09 47.325C1431.39 47.325 1432.56 46.525 1433.61 44.925C1434.56 43.525 1435.04 42.125 1435.04 40.725C1435.04 36.775 1432.39 32.6 1427.09 28.2C1421.94 23.95 1417.34 21.825 1413.29 21.825H1399.86L1399.26 21.075C1399.31 20.025 1399.81 19.125 1400.76 18.375C1401.76 17.575 1402.81 17.175 1403.91 17.175H1428.81C1428.66 18.725 1428.44 20.275 1428.14 21.825H1427.09C1435.14 26.475 1439.16 31.4 1439.16 36.6ZM1409.01 37.725C1409.01 36.875 1408.56 36.125 1407.66 35.475C1406.81 34.775 1405.94 34.4 1405.04 34.35C1404.54 36 1404.29 37.5 1404.29 38.85C1404.29 39.9 1404.54 40.9 1405.04 41.85C1407.69 40.35 1409.01 38.975 1409.01 37.725ZM1467.49 32.775C1467.49 36.725 1466.06 40.675 1463.21 44.625C1460.06 48.975 1456.61 51.15 1452.86 51.15C1450.16 51.15 1448.39 50.9 1447.54 50.4C1446.69 49.9 1445.56 48.475 1444.16 46.125L1443.56 47.85C1443.96 49.35 1444.86 50.55 1446.26 51.45C1447.71 52.4 1448.54 53.075 1448.74 53.475C1447.89 55.225 1446.36 56.1 1444.16 56.1C1443.26 56.1 1442.24 55.375 1441.09 53.925C1439.94 52.475 1439.36 51.3 1439.36 50.4C1439.36 49.1 1440.64 47.35 1443.19 45.15C1442.59 42.3 1442.29 39.95 1442.29 38.1C1442.29 35.05 1442.86 32.95 1444.01 31.8C1445.21 30.65 1447.36 30.075 1450.46 30.075C1452.06 30.075 1453.51 30.375 1454.81 30.975C1456.46 31.725 1457.29 32.8 1457.29 34.2C1457.29 35.9 1456.34 37.725 1454.44 39.675C1452.59 41.575 1450.76 42.775 1448.96 43.275C1450.46 45.625 1452.74 46.8 1455.79 46.8C1458.24 46.8 1460.16 45.65 1461.56 43.35C1462.71 41.45 1463.29 39.2 1463.29 36.6C1463.29 32.4 1462.34 28.975 1460.44 26.325C1458.29 23.325 1455.19 21.825 1451.14 21.825H1421.89L1426.01 17.175H1455.26C1459.41 17.175 1462.56 18.8 1464.71 22.05C1466.56 24.85 1467.49 28.425 1467.49 32.775ZM1452.34 37.05C1452.34 36.25 1451.81 35.6 1450.76 35.1C1449.91 34.7 1449.04 34.5 1448.14 34.5C1447.64 36.6 1447.39 37.9 1447.39 38.4C1447.39 39 1447.64 40 1448.14 41.4C1450.94 40 1452.34 38.55 1452.34 37.05ZM1509.86 32.325C1509.86 36.275 1508.51 40.275 1505.81 44.325C1502.81 48.775 1499.41 51 1495.61 51L1493.88 50.625L1493.28 49.5C1493.68 48.55 1495.01 47.8 1497.26 47.25C1499.96 46.55 1501.86 45.725 1502.96 44.775C1504.86 43.125 1505.81 40.375 1505.81 36.525C1505.81 32.125 1503.93 28.5 1500.18 25.65C1496.73 23.05 1492.73 21.75 1488.18 21.75C1484.88 21.75 1481.88 22.675 1479.18 24.525C1476.13 26.575 1474.61 29.175 1474.61 32.325C1474.61 35.925 1475.53 39.025 1477.38 41.625C1479.28 44.225 1481.93 45.975 1485.33 46.875L1486.23 47.85C1485.43 49.95 1483.76 51 1481.21 51C1477.76 51 1475.03 49.375 1473.03 46.125C1471.33 43.375 1470.48 40.175 1470.48 36.525C1470.48 34.075 1470.78 32.125 1471.38 30.675C1471.93 29.375 1473.06 27.725 1474.76 25.725C1473.56 25.425 1472.63 24.475 1471.98 22.875C1471.43 21.575 1471.16 20.2 1471.16 18.75C1471.16 15.1 1472.86 12.05 1476.26 9.6C1479.36 7.4 1482.78 6.3 1486.53 6.3C1490.83 6.3 1494.96 7.725 1498.91 10.575C1503.21 13.675 1505.36 17.275 1505.36 21.375C1505.36 21.925 1505.33 22.45 1505.28 22.95C1508.33 25.4 1509.86 28.525 1509.86 32.325ZM1498.53 19.65C1497.38 17.05 1495.26 14.85 1492.16 13.05C1489.26 11.35 1486.31 10.5 1483.31 10.5C1478.81 10.5 1476.56 12.3 1476.56 15.9C1476.56 18.3 1477.63 20.225 1479.78 21.675C1483.13 19.125 1486.63 17.85 1490.28 17.85C1493.28 17.85 1496.03 18.45 1498.53 19.65ZM1552.79 10.05C1552.79 12.5 1551.67 15.075 1549.42 17.775C1548.42 18.975 1547.42 19.9 1546.42 20.55C1547.12 21.25 1547.84 22.075 1548.59 23.025C1550.99 26.175 1552.19 29.125 1552.19 31.875C1552.19 36.575 1549.72 40.975 1544.77 45.075C1540.02 49.025 1535.24 51 1530.44 51C1525.79 51 1521.79 49.7 1518.44 47.1C1514.74 44.25 1512.89 40.575 1512.89 36.075C1512.89 33.775 1514.04 31.125 1516.34 28.125C1518.29 25.575 1520.44 23.475 1522.79 21.825H1513.64L1513.04 21.075C1513.09 20.025 1513.59 19.125 1514.54 18.375C1515.54 17.575 1516.59 17.175 1517.69 17.175H1541.47C1544.52 17.175 1546.39 17.05 1547.09 16.8C1548.44 16.3 1549.14 15.075 1549.19 13.125C1549.19 11.475 1548.72 10 1547.77 8.7L1546.27 6.675C1546.27 5.875 1546.67 5.15 1547.47 4.5C1548.32 3.85 1549.17 3.525 1550.02 3.525C1551.87 3.525 1552.79 5.7 1552.79 10.05ZM1546.79 37.2C1546.79 33.55 1544.99 30.075 1541.39 26.775C1537.79 23.475 1534.17 21.825 1530.52 21.825C1527.07 21.825 1524.12 22.825 1521.67 24.825C1519.07 26.925 1517.77 29.675 1517.77 33.075C1517.77 36.625 1519.72 39.875 1523.62 42.825C1527.22 45.525 1530.87 46.875 1534.57 46.875C1537.72 46.875 1540.47 46.075 1542.82 44.475C1545.47 42.625 1546.79 40.2 1546.79 37.2ZM1575.47 34.35C1575.47 38.5 1574.15 42.25 1571.5 45.6C1568.65 49.2 1565.2 51 1561.15 51C1552.55 51 1548.2 46.15 1548.1 36.45L1552.22 32.25C1552.22 37 1552.87 40.55 1554.17 42.9C1555.92 46 1559 47.55 1563.4 47.55C1565.65 47.55 1567.62 46.65 1569.32 44.85C1571.02 43.05 1571.87 41.025 1571.87 38.775C1571.87 36.025 1570.7 33.15 1568.35 30.15C1566.8 28.2 1564.67 26.1 1561.97 23.85C1559.62 21.9 1558.45 20.725 1558.45 20.325C1558.45 19.575 1558.9 18.9 1559.8 18.3C1560.7 17.65 1561.55 17.325 1562.35 17.325C1565.25 17.325 1568.2 19.45 1571.2 23.7C1574.05 27.75 1575.47 31.3 1575.47 34.35ZM1586.09 47.25C1586.09 48.3 1585.72 49.2 1584.97 49.95C1584.22 50.7 1583.32 51.075 1582.27 51.075C1581.22 51.075 1580.32 50.7 1579.57 49.95C1578.82 49.2 1578.44 48.3 1578.44 47.25C1578.44 46.2 1578.82 45.3 1579.57 44.55C1580.32 43.8 1581.22 43.425 1582.27 43.425C1583.37 43.425 1584.27 43.8 1584.97 44.55C1585.72 45.25 1586.09 46.15 1586.09 47.25Z" fill="black"/>
</svg>
