<svg width="1523" height="68" viewBox="0 0 1523 68" fill="none" xmlns="http://www.w3.org/2000/svg">
<path d="M39.75 33.875C39.75 36.825 38.325 39.75 35.475 42.65C32.625 45.55 29.725 47 26.775 47C25.225 47 23.025 45.875 20.175 43.625C17.375 41.325 15.225 40.2 13.725 40.25C12.825 40.25 12.375 40.55 12.375 41.15C12.375 41.6 12.725 42.05 13.425 42.5L8.925 47C6.575 47 4.575 46.5 2.925 45.5C0.975 44.3 0 42.6 0 40.4C0 39.8 0.15 38.9 0.45 37.7C0.75 36.5 0.9 35.6 0.9 35C0.9 34 0.6 32.95 0 31.85C1.1 30.8 3.025 28.925 5.775 26.225C6.025 25.975 6.35 25.85 6.75 25.85C7.7 25.85 8.175 26.3 8.175 27.2C8.175 28.15 7.7 28.625 6.75 28.625C6 28.625 5.55 28.25 5.4 27.5L4.95 28.025C5.35 28.975 5.55 29.875 5.55 30.725C5.55 31.325 5.4 32.225 5.1 33.425C4.85 34.575 4.725 35.45 4.725 36.05C4.725 38.95 6.225 40.85 9.225 41.75C11.375 39.4 12.65 38.05 13.05 37.7C14.7 36.3 16.35 35.6 18 35.6C19.55 35.6 21.725 36.725 24.525 38.975C27.325 41.175 29.525 42.275 31.125 42.275C32.825 42.275 33.9 42.05 34.35 41.6C34.8 41.1 35.025 39.975 35.025 38.225C35.025 33.475 32.45 28.975 27.3 24.725C22.5 20.725 17.65 18.575 12.75 18.275L12.15 18.8C12.9 18.95 13.275 19.425 13.275 20.225C13.275 21.125 12.8 21.575 11.85 21.575C10.95 21.575 10.5 21.125 10.5 20.225C10.5 19.825 10.625 19.475 10.875 19.175L16.5 13.55C21.45 13.55 26.5 15.675 31.65 19.925C37.05 24.425 39.75 29.075 39.75 33.875ZM78.8016 32.375C78.8016 35.075 77.9016 37.325 76.1016 39.125C72.6016 42.625 70.1516 44.75 68.7516 45.5C66.8016 46.5 63.6516 47 59.3016 47C55.5516 47 51.9516 46.4 48.5016 45.2C43.9016 43.6 41.6016 41.25 41.6016 38.15C41.6016 37.45 41.8016 36.4 42.2016 35C42.6516 33.6 42.8766 32.55 42.8766 31.85C42.8766 29.2 42.4516 27.25 41.6016 26C42.6016 23.95 44.0516 21.975 45.9516 20.075C48.2516 17.875 50.3516 16.775 52.2516 16.775C54.3016 16.775 56.0766 17.475 57.5766 18.875C59.1266 20.275 59.9016 21.975 59.9016 23.975C59.9016 25.525 58.9516 27.4 57.0516 29.6C56.7516 29.95 55.1766 31.55 52.3266 34.4C52.0766 34.65 51.7516 34.775 51.3516 34.775C50.4516 34.775 50.0016 34.325 50.0016 33.425C50.0016 32.475 50.4516 32 51.3516 32C52.1016 32 52.5766 32.375 52.7766 33.125C54.3766 31.175 55.1766 29.55 55.1766 28.25C55.1766 26.3 54.4516 24.7 53.0016 23.45C51.6016 22.15 49.9016 21.5 47.9016 21.5L46.3266 21.65C47.1766 22.95 47.6016 24.925 47.6016 27.575C47.6016 28.275 47.3766 29.325 46.9266 30.725C46.5266 32.075 46.3266 33.1 46.3266 33.8C46.3266 36.9 48.5766 39.2 53.0766 40.7C56.2266 41.75 59.7516 42.275 63.6516 42.275C70.5016 42.275 73.9766 40.4 74.0766 36.65C74.3266 28.55 71.3016 23.5 65.0016 21.5H63.8766C62.9766 21.5 62.1766 21.15 61.4766 20.45C60.7766 19.7 60.4266 18.875 60.4266 17.975C60.5766 17.825 61.5766 16.775 63.4266 14.825C65.2766 12.875 66.5016 11.925 67.1016 11.975C68.0516 12.075 68.5266 12.55 68.5266 13.4C68.5266 14.35 68.0516 14.825 67.1016 14.825C66.3516 14.825 65.9016 14.45 65.7516 13.7L65.2266 14.225C65.5266 15.975 66.5516 16.85 68.3016 16.85H77.3766L77.4516 21.5H74.3766C77.3266 24.9 78.8016 28.525 78.8016 32.375ZM104.563 31.775C104.563 35.325 102.963 38.75 99.7629 42.05C96.6129 45.35 93.2879 47 89.7879 47C87.6379 47 85.7129 46.5 84.0129 45.5C81.9629 44.35 80.9379 42.775 80.9379 40.775C80.9379 39.975 81.0379 38.775 81.2379 37.175C81.4879 35.575 81.6129 34.375 81.6129 33.575C81.6129 32.725 81.5379 31.925 81.3879 31.175C82.4879 30.025 83.5879 28.85 84.6879 27.65C86.1379 26.4 87.5879 25.775 89.0379 25.775C92.4379 25.775 94.9629 28.55 96.6129 34.1C92.6629 38.1 90.4879 40.1 90.0879 40.1C89.1379 40.1 88.6629 39.625 88.6629 38.675C88.6629 37.825 89.1379 37.375 90.0879 37.325C90.7879 37.325 91.2129 37.625 91.3629 38.225L91.8129 37.925C91.5129 36.525 90.9379 35.15 90.0879 33.8C89.0879 32.25 88.0129 31.275 86.8629 30.875C86.8629 31.575 86.7379 32.625 86.4879 34.025C86.2379 35.425 86.1129 36.475 86.1129 37.175C86.1129 38.875 87.0629 40.2 88.9629 41.15C90.4629 41.9 92.1629 42.275 94.0629 42.275C97.9129 42.275 99.8379 40.225 99.8379 36.125C99.8379 31.775 98.5379 28.25 95.9379 25.55C93.3879 22.85 89.9629 21.5 85.6629 21.5H67.2129L67.4379 16.85H90.0129C94.3129 16.85 97.8129 18.25 100.513 21.05C103.213 23.85 104.563 27.425 104.563 31.775ZM102.521 54.05C102.521 55.4 101.971 56.7 100.871 57.95L97.7209 60.95C97.5209 61.2 97.2459 61.325 96.8959 61.325C96.0959 61.325 95.6959 60.925 95.6959 60.125C95.6959 59.325 96.0959 58.925 96.8959 58.925C97.5459 58.925 97.9459 59.25 98.0959 59.9L98.2459 59.675C98.4459 58.975 98.5459 58.3 98.5459 57.65C98.5459 54.3 96.4709 52.65 92.3209 52.7C90.8209 52.7 89.3709 53.3 87.9709 54.5C86.7709 55.55 85.8209 56.825 85.1209 58.325C84.6209 56.575 83.7209 55.175 82.4209 54.125C81.0709 53.075 79.4959 52.55 77.6959 52.55C75.9959 52.55 75.1459 53.05 75.1459 54.05C75.1459 54.85 75.7959 56.1 77.0959 57.8L77.5459 57.275L76.5709 56.15C76.5709 55.35 76.9709 54.95 77.7709 54.95C78.5709 54.95 78.9709 55.35 78.9709 56.15C78.9709 56.5 77.1709 58.475 73.5709 62.075C72.0709 60.325 71.3209 58.7 71.3209 57.2C71.3209 55.4 72.5709 53.5 75.0709 51.5C77.4209 49.55 79.5209 48.575 81.3709 48.575C84.7709 48.575 86.8959 49.85 87.7459 52.4C90.2459 49.85 93.0209 48.575 96.0709 48.575C100.371 48.575 102.521 50.4 102.521 54.05ZM155.919 5.6C155.919 6.15 155.644 6.55 155.094 6.8C154.794 6.95 154.444 6.9 154.044 6.65C153.694 6.4 153.519 6.1 153.519 5.75C153.519 5.3 153.869 4.975 154.569 4.775L154.269 4.4C152.269 5.2 150.294 7.125 148.344 10.175C145.994 13.825 144.494 18.075 143.844 22.925C143.294 21.975 142.519 21.5 141.519 21.5H138.444C144.244 25.1 147.144 29.225 147.144 33.875C147.144 36.825 145.719 39.75 142.869 42.65C140.019 45.55 137.119 47 134.169 47C132.619 47 130.419 45.85 127.569 43.55C124.769 41.25 122.569 40.15 120.969 40.25C120.269 40.3 119.919 40.65 119.919 41.3C119.919 41.8 120.219 42.2 120.819 42.5L116.319 47C110.369 47 107.394 43.825 107.394 37.475C107.394 36.725 107.594 35.625 107.994 34.175C108.444 32.675 108.669 31.55 108.669 30.8C108.669 29.75 108.244 28.45 107.394 26.9C108.544 24.95 110.069 23.15 111.969 21.5H109.944C109.044 21.5 108.244 21.15 107.544 20.45C106.844 19.7 106.494 18.875 106.494 17.975L109.569 14.75C111.419 12.85 112.619 11.925 113.169 11.975C114.069 12.075 114.519 12.55 114.519 13.4C114.519 14.35 114.069 14.825 113.169 14.825C112.369 14.825 111.894 14.45 111.744 13.7L111.219 14.225C111.519 15.975 112.519 16.85 114.219 16.85H142.719C142.869 11.95 143.094 8.85 143.394 7.55C143.794 5.8 144.669 4.325 146.019 3.125C147.369 1.925 148.919 1.325 150.669 1.325C152.569 1.325 154.044 2.075 155.094 3.575C155.644 4.375 155.919 5.05 155.919 5.6ZM142.419 38.225C142.419 33.575 139.644 29.525 134.094 26.075C129.194 23.025 124.269 21.5 119.319 21.5C116.969 21.5 114.644 22.025 112.344 23.075C112.994 24.375 113.319 25.525 113.319 26.525C113.319 27.275 113.094 28.375 112.644 29.825C112.244 31.275 112.044 32.375 112.044 33.125C112.044 37.625 113.594 40.475 116.694 41.675C117.544 40.775 118.819 39.45 120.519 37.7C122.019 36.3 123.644 35.6 125.394 35.6C126.894 35.6 129.069 36.725 131.919 38.975C134.769 41.175 136.944 42.275 138.444 42.275C140.194 42.275 141.294 42.05 141.744 41.6C142.194 41.1 142.419 39.975 142.419 38.225ZM194.796 5.6C194.796 6.15 194.521 6.55 193.971 6.8C193.671 6.95 193.321 6.9 192.921 6.65C192.571 6.4 192.396 6.1 192.396 5.75C192.396 5.3 192.746 4.975 193.446 4.775L193.146 4.4C191.146 5.2 189.171 7.125 187.221 10.175C184.871 13.825 183.371 18.075 182.721 22.925C182.171 21.975 181.396 21.5 180.396 21.5H177.246C181.996 24.7 184.371 28.2 184.371 32C184.371 34.6 183.521 36.75 181.821 38.45C178.221 42.05 175.646 44.275 174.096 45.125C171.796 46.375 168.496 47 164.196 47C160.546 47 157.371 46.275 154.671 44.825C151.321 43.025 149.646 40.475 149.646 37.175C149.646 36.325 149.846 35.1 150.246 33.5C150.696 31.85 150.921 30.6 150.921 29.75C150.921 29.15 150.546 28.2 149.796 26.9C150.096 25.2 151.321 23.4 153.471 21.5H152.571C151.671 21.5 150.871 21.15 150.171 20.45C149.471 19.7 149.121 18.875 149.121 17.975C149.921 17.125 150.946 16.05 152.196 14.75C154.046 12.85 155.246 11.925 155.796 11.975C156.696 12.075 157.146 12.55 157.146 13.4C157.146 14.3 156.696 14.75 155.796 14.75C154.996 14.75 154.521 14.4 154.371 13.7L153.846 14.15C154.146 15.95 155.146 16.85 156.846 16.85H181.596C181.746 11.95 181.971 8.85 182.271 7.55C182.671 5.8 183.546 4.325 184.896 3.125C186.246 1.925 187.796 1.325 189.546 1.325C191.446 1.325 192.921 2.075 193.971 3.575C194.521 4.375 194.796 5.05 194.796 5.6ZM179.646 36.275C179.646 32.175 177.221 28.625 172.371 25.625C168.071 22.975 163.746 21.65 159.396 21.65C158.746 21.65 157.871 21.725 156.771 21.875C155.321 22.075 154.571 22.325 154.521 22.625C155.221 23.875 155.571 24.8 155.571 25.4C155.571 26.25 155.346 27.5 154.896 29.15C154.496 30.75 154.296 31.975 154.296 32.825C154.296 36.075 155.946 38.525 159.246 40.175C161.796 41.475 164.896 42.175 168.546 42.275C175.946 42.525 179.646 40.525 179.646 36.275ZM233.055 31.775C233.055 35.375 231.48 38.825 228.33 42.125C225.18 45.375 221.83 47 218.28 47C216.13 47 214.205 46.5 212.505 45.5C210.455 44.35 209.43 42.775 209.43 40.775C209.43 39.975 209.53 38.75 209.73 37.1C209.98 35.45 210.105 34.225 210.105 33.425C210.105 32.675 210.03 31.925 209.88 31.175C210.63 30.375 211.755 29.2 213.255 27.65C214.555 26.4 215.98 25.775 217.53 25.775C220.93 25.775 223.48 28.55 225.18 34.1C224.48 34.85 223.405 35.975 221.955 37.475C220.305 39.125 219.18 40 218.58 40.1L217.155 38.675L218.58 37.325C219.33 37.175 219.755 37.475 219.855 38.225L220.305 37.925C219.455 34.075 217.805 31.725 215.355 30.875C215.355 31.575 215.23 32.625 214.98 34.025C214.73 35.425 214.605 36.475 214.605 37.175C214.605 38.875 215.555 40.2 217.455 41.15C218.955 41.9 220.655 42.275 222.555 42.275C226.405 42.275 228.33 40.225 228.33 36.125C228.33 31.775 227.03 28.25 224.43 25.55C221.88 22.85 218.455 21.5 214.155 21.5H204.33C206.43 24.1 207.48 27.775 207.48 32.525C207.48 36.025 205.78 39.325 202.38 42.425C198.98 45.475 195.505 47 191.955 47C188.955 47 186.305 45.925 184.005 43.775C181.655 41.575 180.48 39 180.48 36.05C180.93 35.6 182.08 34.45 183.93 32.6C185.73 30.7 186.88 29.725 187.38 29.675C188.38 29.725 188.855 30.2 188.805 31.1C188.755 31.95 188.28 32.425 187.38 32.525C186.68 32.575 186.23 32.2 186.03 31.4L185.205 32.225C185.405 35.125 186.58 37.525 188.73 39.425C190.88 41.325 193.405 42.275 196.305 42.275C200.655 42.275 202.83 40.475 202.83 36.875C202.83 33.375 202.28 30.3 201.18 27.65C199.73 24.15 197.555 22.1 194.655 21.5C192.355 21 191.205 19.825 191.205 17.975C194.655 13.975 196.88 11.975 197.88 11.975C198.63 12.475 199.105 12.95 199.305 13.4L197.88 14.825L196.53 13.7L196.005 14.225C196.305 16.075 198.605 17 202.905 17C204.155 17 206.03 16.95 208.53 16.85C211.03 16.7 212.905 16.625 214.155 16.625C220.155 16.625 224.63 17.6 227.58 19.55C231.23 21.95 233.055 26.025 233.055 31.775ZM303.861 29.675C303.861 32.625 302.836 35.15 300.786 37.25C301.486 38.95 301.811 40.575 301.761 42.125C301.661 44.475 300.836 47.075 299.286 49.925C297.486 53.175 295.511 54.8 293.361 54.8C292.411 54.8 291.936 54.325 291.936 53.375C291.936 52.425 292.411 51.95 293.361 51.95L294.711 53.075C296.261 51.525 297.036 49.275 297.036 46.325C297.036 44.825 296.761 43.325 296.211 41.825C292.761 45.275 287.411 47 280.161 47C272.911 47 269.286 45.35 269.286 42.05C269.286 41.45 269.461 40.6 269.811 39.5C270.211 38.4 270.411 37.575 270.411 37.025C270.411 36.275 270.186 35.475 269.736 34.625C271.986 32.225 274.086 30.6 276.036 29.75C277.986 28.9 280.586 28.475 283.836 28.475C290.786 28.475 295.886 30.5 299.136 34.55V33.95C299.136 30.65 298.286 27.8 296.586 25.4C294.686 22.7 292.136 21.35 288.936 21.35C286.986 21.35 285.136 22.075 283.386 23.525L279.111 27.8C279.111 25.7 278.386 24.1 276.936 23C275.536 21.9 273.761 21.35 271.611 21.35C269.611 21.35 268.611 21.925 268.611 23.075C268.611 24.025 269.361 25.5 270.861 27.5L271.386 26.975L270.336 25.55C270.336 24.65 270.786 24.2 271.686 24.2C272.636 24.2 273.111 24.65 273.111 25.55C273.111 26 271.011 28.325 266.811 32.525C265.011 30.475 264.111 28.575 264.111 26.825C264.111 24.725 265.586 22.5 268.536 20.15C271.336 17.85 273.811 16.7 275.961 16.7C279.961 16.7 282.461 18.175 283.461 21.125C286.411 18.175 289.661 16.7 293.211 16.7C296.411 16.7 299.036 18.1 301.086 20.9C302.936 23.4 303.861 26.325 303.861 29.675ZM295.536 40.4C294.236 38.05 291.911 36.2 288.561 34.85C285.661 33.7 282.661 33.125 279.561 33.125C278.111 33.125 276.611 33.275 275.061 33.575C274.361 36.125 273.986 37.525 273.936 37.775C273.936 40.825 277.411 42.35 284.361 42.35C288.761 42.35 292.486 41.7 295.536 40.4ZM351.388 5.6C351.388 6.15 351.113 6.55 350.563 6.8C350.263 6.95 349.913 6.9 349.513 6.65C349.163 6.4 348.988 6.1 348.988 5.75C348.988 5.3 349.338 4.975 350.038 4.775L349.738 4.4C347.738 5.2 345.763 7.125 343.813 10.175C341.463 13.825 339.963 18.075 339.313 22.925C338.763 21.975 337.988 21.5 336.988 21.5H333.838C338.588 24.7 340.963 28.2 340.963 32C340.963 34.6 340.113 36.75 338.413 38.45C334.813 42.05 332.238 44.275 330.688 45.125C328.388 46.375 325.088 47 320.788 47C317.138 47 313.963 46.275 311.263 44.825C307.913 43.025 306.238 40.475 306.238 37.175C306.238 36.325 306.438 35.1 306.838 33.5C307.288 31.85 307.513 30.6 307.513 29.75C307.513 29.15 307.138 28.2 306.388 26.9C306.688 25.2 307.913 23.4 310.063 21.5H309.163C308.263 21.5 307.463 21.15 306.763 20.45C306.063 19.7 305.713 18.875 305.713 17.975C306.513 17.125 307.538 16.05 308.788 14.75C310.638 12.85 311.838 11.925 312.388 11.975C313.288 12.075 313.738 12.55 313.738 13.4C313.738 14.3 313.288 14.75 312.388 14.75C311.588 14.75 311.113 14.4 310.963 13.7L310.438 14.15C310.738 15.95 311.738 16.85 313.438 16.85H338.188C338.338 11.95 338.563 8.85 338.863 7.55C339.263 5.8 340.138 4.325 341.488 3.125C342.838 1.925 344.388 1.325 346.138 1.325C348.038 1.325 349.513 2.075 350.563 3.575C351.113 4.375 351.388 5.05 351.388 5.6ZM336.238 36.275C336.238 32.175 333.813 28.625 328.963 25.625C324.663 22.975 320.338 21.65 315.988 21.65C315.338 21.65 314.463 21.725 313.363 21.875C311.913 22.075 311.163 22.325 311.113 22.625C311.813 23.875 312.163 24.8 312.163 25.4C312.163 26.25 311.938 27.5 311.488 29.15C311.088 30.75 310.888 31.975 310.888 32.825C310.888 36.075 312.538 38.525 315.838 40.175C318.388 41.475 321.488 42.175 325.138 42.275C332.538 42.525 336.238 40.525 336.238 36.275ZM363.322 32.675C363.322 36.175 361.622 39.475 358.222 42.575C354.822 45.625 351.347 47.15 347.797 47.15C344.847 47.15 342.197 46.075 339.847 43.925C337.497 41.725 336.322 39.15 336.322 36.2C340.472 32.05 342.722 29.975 343.072 29.975C344.022 29.975 344.497 30.45 344.497 31.4C344.497 32.3 344.022 32.75 343.072 32.75C342.372 32.75 341.922 32.375 341.722 31.625L341.047 32.375C341.247 35.275 342.422 37.7 344.572 39.65C346.722 41.6 349.247 42.525 352.147 42.425C353.747 42.375 355.222 41.85 356.572 40.85C357.972 39.85 358.672 38.575 358.672 37.025C358.822 29.075 355.672 24.1 349.222 22.1L348.847 22.55C349.597 22.7 349.972 23.15 349.972 23.9C349.972 24.85 349.497 25.325 348.547 25.325C347.597 25.325 347.122 24.85 347.122 23.9C347.122 23.45 349.122 21.25 353.122 17.3C359.922 19.25 363.322 24.375 363.322 32.675ZM434.086 33.875C434.086 36.825 432.661 39.75 429.811 42.65C426.961 45.55 424.061 47 421.111 47C419.561 47 417.361 45.875 414.511 43.625C411.711 41.325 409.561 40.2 408.061 40.25C407.161 40.25 406.711 40.55 406.711 41.15C406.711 41.6 407.061 42.05 407.761 42.5L403.261 47C400.911 47 398.911 46.5 397.261 45.5C395.311 44.3 394.336 42.6 394.336 40.4C394.336 39.8 394.486 38.9 394.786 37.7C395.086 36.5 395.236 35.6 395.236 35C395.236 34 394.936 32.95 394.336 31.85C395.436 30.8 397.361 28.925 400.111 26.225C400.361 25.975 400.686 25.85 401.086 25.85C402.036 25.85 402.511 26.3 402.511 27.2C402.511 28.15 402.036 28.625 401.086 28.625C400.336 28.625 399.886 28.25 399.736 27.5L399.286 28.025C399.686 28.975 399.886 29.875 399.886 30.725C399.886 31.325 399.736 32.225 399.436 33.425C399.186 34.575 399.061 35.45 399.061 36.05C399.061 38.95 400.561 40.85 403.561 41.75C405.711 39.4 406.986 38.05 407.386 37.7C409.036 36.3 410.686 35.6 412.336 35.6C413.886 35.6 416.061 36.725 418.861 38.975C421.661 41.175 423.861 42.275 425.461 42.275C427.161 42.275 428.236 42.05 428.686 41.6C429.136 41.1 429.361 39.975 429.361 38.225C429.361 33.475 426.786 28.975 421.636 24.725C416.836 20.725 411.986 18.575 407.086 18.275L406.486 18.8C407.236 18.95 407.611 19.425 407.611 20.225C407.611 21.125 407.136 21.575 406.186 21.575C405.286 21.575 404.836 21.125 404.836 20.225C404.836 19.825 404.961 19.475 405.211 19.175L410.836 13.55C415.786 13.55 420.836 15.675 425.986 19.925C431.386 24.425 434.086 29.075 434.086 33.875ZM468.938 30.8C468.938 35.1 466.913 38.925 462.863 42.275C459.013 45.425 454.888 47 450.488 47C446.888 47 443.738 46.275 441.038 44.825C437.638 42.975 435.938 40.425 435.938 37.175C435.938 36.325 436.238 35.125 436.838 33.575C437.438 32.025 437.738 30.85 437.738 30.05C437.738 29.5 437.188 28.45 436.088 26.9C440.638 20.15 445.813 16.775 451.613 16.775C455.963 16.775 459.838 18 463.238 20.45C467.038 23.15 468.938 26.6 468.938 30.8ZM464.213 35.15C464.213 30.95 462.388 27.55 458.738 24.95C455.488 22.6 451.663 21.425 447.263 21.425C445.113 21.425 443.038 21.95 441.038 23C441.938 24.35 442.388 25.25 442.388 25.7C442.388 26.55 442.088 27.75 441.488 29.3C440.938 30.85 440.663 32.025 440.663 32.825C440.663 36.125 442.288 38.6 445.538 40.25C448.138 41.6 451.238 42.275 454.838 42.275C458.138 42.275 460.388 41.95 461.588 41.3C463.338 40.35 464.213 38.3 464.213 35.15ZM509.778 31.7C509.778 34.15 508.928 36.225 507.228 37.925C503.678 41.475 500.978 43.775 499.128 44.825C496.478 46.275 493.078 47 488.928 47C484.578 47 480.928 46.3 477.978 44.9C474.028 43.05 472.053 40.25 472.053 36.5C472.053 34.8 473.003 32.925 474.903 30.875C475.953 29.825 477.503 28.25 479.553 26.15C479.853 25.9 480.203 25.775 480.603 25.775C481.503 25.775 481.953 26.25 481.953 27.2C481.953 28.1 481.503 28.55 480.603 28.55C479.853 28.55 479.378 28.175 479.178 27.425C477.528 29.125 476.703 30.7 476.703 32.15C476.703 35.85 478.653 38.575 482.553 40.325C485.403 41.625 488.953 42.275 493.203 42.275C496.753 42.275 499.353 42 501.003 41.45C503.753 40.5 505.128 38.7 505.128 36.05C505.128 33.65 504.153 31.675 502.203 30.125C500.353 28.725 498.203 28.025 495.753 28.025C492.353 28.025 490.653 28.75 490.653 30.2C490.653 31.05 491.153 31.925 492.153 32.825C493.003 33.575 493.903 34.1 494.853 34.4L495.678 33.65C494.928 33.5 494.553 33.025 494.553 32.225C494.553 31.325 495.028 30.875 495.978 30.875C496.878 30.875 497.328 31.325 497.328 32.225C497.328 32.625 497.203 32.975 496.953 33.275L490.953 39.2C487.753 38.85 486.153 36.875 486.153 33.275C486.153 32.225 486.878 30.95 488.328 29.45C488.778 29 489.878 27.975 491.628 26.375C491.078 24.375 489.728 23.025 487.578 22.325C486.178 21.875 483.978 21.65 480.978 21.65H479.328C477.028 21.65 475.428 21.525 474.528 21.275C472.678 20.775 471.753 19.675 471.753 17.975C472.953 16.625 474.028 15.475 474.978 14.525C476.628 12.825 477.778 11.975 478.428 11.975C479.328 11.975 479.778 12.45 479.778 13.4C479.778 14.3 479.328 14.775 478.428 14.825L477.003 13.7L476.478 14.225C476.778 15.525 477.628 16.325 479.028 16.625C479.678 16.775 481.003 16.85 483.003 16.85H507.828L507.753 21.5H496.128C496.428 22.3 496.553 23.05 496.503 23.75C497.703 23.5 498.878 23.375 500.028 23.375C502.528 23.375 504.728 24.125 506.628 25.625C508.728 27.225 509.778 29.25 509.778 31.7ZM535.52 31.775C535.52 35.325 533.92 38.75 530.72 42.05C527.57 45.35 524.245 47 520.745 47C518.595 47 516.67 46.5 514.97 45.5C512.92 44.35 511.895 42.775 511.895 40.775C511.895 39.975 511.995 38.775 512.195 37.175C512.445 35.575 512.57 34.375 512.57 33.575C512.57 32.725 512.495 31.925 512.345 31.175C513.445 30.025 514.545 28.85 515.645 27.65C517.095 26.4 518.545 25.775 519.995 25.775C523.395 25.775 525.92 28.55 527.57 34.1C523.62 38.1 521.445 40.1 521.045 40.1C520.095 40.1 519.62 39.625 519.62 38.675C519.62 37.825 520.095 37.375 521.045 37.325C521.745 37.325 522.17 37.625 522.32 38.225L522.77 37.925C522.47 36.525 521.895 35.15 521.045 33.8C520.045 32.25 518.97 31.275 517.82 30.875C517.82 31.575 517.695 32.625 517.445 34.025C517.195 35.425 517.07 36.475 517.07 37.175C517.07 38.875 518.02 40.2 519.92 41.15C521.42 41.9 523.12 42.275 525.02 42.275C528.87 42.275 530.795 40.225 530.795 36.125C530.795 31.775 529.495 28.25 526.895 25.55C524.345 22.85 520.92 21.5 516.62 21.5H498.17L498.395 16.85H520.97C525.27 16.85 528.77 18.25 531.47 21.05C534.17 23.85 535.52 27.425 535.52 31.775ZM586.803 5.6C586.803 6.15 586.528 6.55 585.978 6.8C585.678 6.95 585.328 6.9 584.928 6.65C584.578 6.4 584.403 6.1 584.403 5.75C584.403 5.3 584.753 4.975 585.453 4.775L585.153 4.4C583.153 5.2 581.178 7.125 579.228 10.175C576.878 13.825 575.378 18.075 574.728 22.925C574.178 21.975 573.403 21.5 572.403 21.5H569.328C575.128 25.1 578.028 29.225 578.028 33.875C578.028 36.825 576.603 39.75 573.753 42.65C570.903 45.55 568.003 47 565.053 47C563.503 47 561.303 45.85 558.453 43.55C555.653 41.25 553.453 40.15 551.853 40.25C551.153 40.3 550.803 40.65 550.803 41.3C550.803 41.8 551.103 42.2 551.703 42.5L547.203 47C541.253 47 538.278 43.825 538.278 37.475C538.278 36.725 538.478 35.625 538.878 34.175C539.328 32.675 539.553 31.55 539.553 30.8C539.553 29.75 539.128 28.45 538.278 26.9C539.428 24.95 540.953 23.15 542.853 21.5H540.828C539.928 21.5 539.128 21.15 538.428 20.45C537.728 19.7 537.378 18.875 537.378 17.975L540.453 14.75C542.303 12.85 543.503 11.925 544.053 11.975C544.953 12.075 545.403 12.55 545.403 13.4C545.403 14.35 544.953 14.825 544.053 14.825C543.253 14.825 542.778 14.45 542.628 13.7L542.103 14.225C542.403 15.975 543.403 16.85 545.103 16.85H573.603C573.753 11.95 573.978 8.85 574.278 7.55C574.678 5.8 575.553 4.325 576.903 3.125C578.253 1.925 579.803 1.325 581.553 1.325C583.453 1.325 584.928 2.075 585.978 3.575C586.528 4.375 586.803 5.05 586.803 5.6ZM573.303 38.225C573.303 33.575 570.528 29.525 564.978 26.075C560.078 23.025 555.153 21.5 550.203 21.5C547.853 21.5 545.528 22.025 543.228 23.075C543.878 24.375 544.203 25.525 544.203 26.525C544.203 27.275 543.978 28.375 543.528 29.825C543.128 31.275 542.928 32.375 542.928 33.125C542.928 37.625 544.478 40.475 547.578 41.675C548.428 40.775 549.703 39.45 551.403 37.7C552.903 36.3 554.528 35.6 556.278 35.6C557.778 35.6 559.953 36.725 562.803 38.975C565.653 41.175 567.828 42.275 569.328 42.275C571.078 42.275 572.178 42.05 572.628 41.6C573.078 41.1 573.303 39.975 573.303 38.225ZM625.68 5.6C625.68 6.15 625.405 6.55 624.855 6.8C624.555 6.95 624.205 6.9 623.805 6.65C623.455 6.4 623.28 6.1 623.28 5.75C623.28 5.3 623.63 4.975 624.33 4.775L624.03 4.4C622.03 5.2 620.055 7.125 618.105 10.175C615.755 13.825 614.255 18.075 613.605 22.925C613.055 21.975 612.28 21.5 611.28 21.5H608.13C612.88 24.7 615.255 28.2 615.255 32C615.255 34.6 614.405 36.75 612.705 38.45C609.105 42.05 606.53 44.275 604.98 45.125C602.68 46.375 599.38 47 595.08 47C591.43 47 588.255 46.275 585.555 44.825C582.205 43.025 580.53 40.475 580.53 37.175C580.53 36.325 580.73 35.1 581.13 33.5C581.58 31.85 581.805 30.6 581.805 29.75C581.805 29.15 581.43 28.2 580.68 26.9C580.98 25.2 582.205 23.4 584.355 21.5H583.455C582.555 21.5 581.755 21.15 581.055 20.45C580.355 19.7 580.005 18.875 580.005 17.975C580.805 17.125 581.83 16.05 583.08 14.75C584.93 12.85 586.13 11.925 586.68 11.975C587.58 12.075 588.03 12.55 588.03 13.4C588.03 14.3 587.58 14.75 586.68 14.75C585.88 14.75 585.405 14.4 585.255 13.7L584.73 14.15C585.03 15.95 586.03 16.85 587.73 16.85H612.48C612.63 11.95 612.855 8.85 613.155 7.55C613.555 5.8 614.43 4.325 615.78 3.125C617.13 1.925 618.68 1.325 620.43 1.325C622.33 1.325 623.805 2.075 624.855 3.575C625.405 4.375 625.68 5.05 625.68 5.6ZM610.53 36.275C610.53 32.175 608.105 28.625 603.255 25.625C598.955 22.975 594.63 21.65 590.28 21.65C589.63 21.65 588.755 21.725 587.655 21.875C586.205 22.075 585.455 22.325 585.405 22.625C586.105 23.875 586.455 24.8 586.455 25.4C586.455 26.25 586.23 27.5 585.78 29.15C585.38 30.75 585.18 31.975 585.18 32.825C585.18 36.075 586.83 38.525 590.13 40.175C592.68 41.475 595.78 42.175 599.43 42.275C606.83 42.525 610.53 40.525 610.53 36.275ZM637.614 32.675C637.614 36.175 635.914 39.475 632.514 42.575C629.114 45.625 625.639 47.15 622.089 47.15C619.139 47.15 616.489 46.075 614.139 43.925C611.789 41.725 610.614 39.15 610.614 36.2C614.764 32.05 617.014 29.975 617.364 29.975C618.314 29.975 618.789 30.45 618.789 31.4C618.789 32.3 618.314 32.75 617.364 32.75C616.664 32.75 616.214 32.375 616.014 31.625L615.339 32.375C615.539 35.275 616.714 37.7 618.864 39.65C621.014 41.6 623.539 42.525 626.439 42.425C628.039 42.375 629.514 41.85 630.864 40.85C632.264 39.85 632.964 38.575 632.964 37.025C633.114 29.075 629.964 24.1 623.514 22.1L623.139 22.55C623.889 22.7 624.264 23.15 624.264 23.9C624.264 24.85 623.789 25.325 622.839 25.325C621.889 25.325 621.414 24.85 621.414 23.9C621.414 23.45 623.414 21.25 627.414 17.3C634.214 19.25 637.614 24.375 637.614 32.675ZM708.378 29.675C708.378 32.625 707.353 35.15 705.303 37.25C706.003 38.95 706.328 40.575 706.278 42.125C706.178 44.475 705.353 47.075 703.803 49.925C702.003 53.175 700.028 54.8 697.878 54.8C696.928 54.8 696.453 54.325 696.453 53.375C696.453 52.425 696.928 51.95 697.878 51.95L699.228 53.075C700.778 51.525 701.553 49.275 701.553 46.325C701.553 44.825 701.278 43.325 700.728 41.825C697.278 45.275 691.928 47 684.678 47C677.428 47 673.803 45.35 673.803 42.05C673.803 41.45 673.978 40.6 674.328 39.5C674.728 38.4 674.928 37.575 674.928 37.025C674.928 36.275 674.703 35.475 674.253 34.625C676.503 32.225 678.603 30.6 680.553 29.75C682.503 28.9 685.103 28.475 688.353 28.475C695.303 28.475 700.403 30.5 703.653 34.55V33.95C703.653 30.65 702.803 27.8 701.103 25.4C699.203 22.7 696.653 21.35 693.453 21.35C691.503 21.35 689.653 22.075 687.903 23.525L683.628 27.8C683.628 25.7 682.903 24.1 681.453 23C680.053 21.9 678.278 21.35 676.128 21.35C674.128 21.35 673.128 21.925 673.128 23.075C673.128 24.025 673.878 25.5 675.378 27.5L675.903 26.975L674.853 25.55C674.853 24.65 675.303 24.2 676.203 24.2C677.153 24.2 677.628 24.65 677.628 25.55C677.628 26 675.528 28.325 671.328 32.525C669.528 30.475 668.628 28.575 668.628 26.825C668.628 24.725 670.103 22.5 673.053 20.15C675.853 17.85 678.328 16.7 680.478 16.7C684.478 16.7 686.978 18.175 687.978 21.125C690.928 18.175 694.178 16.7 697.728 16.7C700.928 16.7 703.553 18.1 705.603 20.9C707.453 23.4 708.378 26.325 708.378 29.675ZM700.053 40.4C698.753 38.05 696.428 36.2 693.078 34.85C690.178 33.7 687.178 33.125 684.078 33.125C682.628 33.125 681.128 33.275 679.578 33.575C678.878 36.125 678.503 37.525 678.453 37.775C678.453 40.825 681.928 42.35 688.878 42.35C693.278 42.35 697.003 41.7 700.053 40.4ZM755.904 5.6C755.904 6.15 755.629 6.55 755.079 6.8C754.779 6.95 754.429 6.9 754.029 6.65C753.679 6.4 753.504 6.1 753.504 5.75C753.504 5.3 753.854 4.975 754.554 4.775L754.254 4.4C752.254 5.2 750.279 7.125 748.329 10.175C745.979 13.825 744.479 18.075 743.829 22.925C743.279 21.975 742.504 21.5 741.504 21.5H738.354C743.104 24.7 745.479 28.2 745.479 32C745.479 34.6 744.629 36.75 742.929 38.45C739.329 42.05 736.754 44.275 735.204 45.125C732.904 46.375 729.604 47 725.304 47C721.654 47 718.479 46.275 715.779 44.825C712.429 43.025 710.754 40.475 710.754 37.175C710.754 36.325 710.954 35.1 711.354 33.5C711.804 31.85 712.029 30.6 712.029 29.75C712.029 29.15 711.654 28.2 710.904 26.9C711.204 25.2 712.429 23.4 714.579 21.5H713.679C712.779 21.5 711.979 21.15 711.279 20.45C710.579 19.7 710.229 18.875 710.229 17.975C711.029 17.125 712.054 16.05 713.304 14.75C715.154 12.85 716.354 11.925 716.904 11.975C717.804 12.075 718.254 12.55 718.254 13.4C718.254 14.3 717.804 14.75 716.904 14.75C716.104 14.75 715.629 14.4 715.479 13.7L714.954 14.15C715.254 15.95 716.254 16.85 717.954 16.85H742.704C742.854 11.95 743.079 8.85 743.379 7.55C743.779 5.8 744.654 4.325 746.004 3.125C747.354 1.925 748.904 1.325 750.654 1.325C752.554 1.325 754.029 2.075 755.079 3.575C755.629 4.375 755.904 5.05 755.904 5.6ZM740.754 36.275C740.754 32.175 738.329 28.625 733.479 25.625C729.179 22.975 724.854 21.65 720.504 21.65C719.854 21.65 718.979 21.725 717.879 21.875C716.429 22.075 715.679 22.325 715.629 22.625C716.329 23.875 716.679 24.8 716.679 25.4C716.679 26.25 716.454 27.5 716.004 29.15C715.604 30.75 715.404 31.975 715.404 32.825C715.404 36.075 717.054 38.525 720.354 40.175C722.904 41.475 726.004 42.175 729.654 42.275C737.054 42.525 740.754 40.525 740.754 36.275ZM767.838 32.675C767.838 36.175 766.138 39.475 762.738 42.575C759.338 45.625 755.863 47.15 752.313 47.15C749.363 47.15 746.713 46.075 744.363 43.925C742.013 41.725 740.838 39.15 740.838 36.2C744.988 32.05 747.238 29.975 747.588 29.975C748.538 29.975 749.013 30.45 749.013 31.4C749.013 32.3 748.538 32.75 747.588 32.75C746.888 32.75 746.438 32.375 746.238 31.625L745.563 32.375C745.763 35.275 746.938 37.7 749.088 39.65C751.238 41.6 753.763 42.525 756.663 42.425C758.263 42.375 759.738 41.85 761.088 40.85C762.488 39.85 763.188 38.575 763.188 37.025C763.338 29.075 760.188 24.1 753.738 22.1L753.363 22.55C754.113 22.7 754.488 23.15 754.488 23.9C754.488 24.85 754.013 25.325 753.063 25.325C752.113 25.325 751.638 24.85 751.638 23.9C751.638 23.45 753.638 21.25 757.638 17.3C764.438 19.25 767.838 24.375 767.838 32.675ZM838.603 33.875C838.603 36.825 837.178 39.75 834.328 42.65C831.478 45.55 828.578 47 825.628 47C824.078 47 821.878 45.875 819.028 43.625C816.228 41.325 814.078 40.2 812.578 40.25C811.678 40.25 811.228 40.55 811.228 41.15C811.228 41.6 811.578 42.05 812.278 42.5L807.778 47C805.428 47 803.428 46.5 801.778 45.5C799.828 44.3 798.853 42.6 798.853 40.4C798.853 39.8 799.003 38.9 799.303 37.7C799.603 36.5 799.753 35.6 799.753 35C799.753 34 799.453 32.95 798.853 31.85C799.953 30.8 801.878 28.925 804.628 26.225C804.878 25.975 805.203 25.85 805.603 25.85C806.553 25.85 807.028 26.3 807.028 27.2C807.028 28.15 806.553 28.625 805.603 28.625C804.853 28.625 804.403 28.25 804.253 27.5L803.803 28.025C804.203 28.975 804.403 29.875 804.403 30.725C804.403 31.325 804.253 32.225 803.953 33.425C803.703 34.575 803.578 35.45 803.578 36.05C803.578 38.95 805.078 40.85 808.078 41.75C810.228 39.4 811.503 38.05 811.903 37.7C813.553 36.3 815.203 35.6 816.853 35.6C818.403 35.6 820.578 36.725 823.378 38.975C826.178 41.175 828.378 42.275 829.978 42.275C831.678 42.275 832.753 42.05 833.203 41.6C833.653 41.1 833.878 39.975 833.878 38.225C833.878 33.475 831.303 28.975 826.153 24.725C821.353 20.725 816.503 18.575 811.603 18.275L811.003 18.8C811.753 18.95 812.128 19.425 812.128 20.225C812.128 21.125 811.653 21.575 810.703 21.575C809.803 21.575 809.353 21.125 809.353 20.225C809.353 19.825 809.478 19.475 809.728 19.175L815.353 13.55C820.303 13.55 825.353 15.675 830.503 19.925C835.903 24.425 838.603 29.075 838.603 33.875ZM873.454 30.8C873.454 35.1 871.429 38.925 867.379 42.275C863.529 45.425 859.404 47 855.004 47C851.404 47 848.254 46.275 845.554 44.825C842.154 42.975 840.454 40.425 840.454 37.175C840.454 36.325 840.754 35.125 841.354 33.575C841.954 32.025 842.254 30.85 842.254 30.05C842.254 29.5 841.704 28.45 840.604 26.9C845.154 20.15 850.329 16.775 856.129 16.775C860.479 16.775 864.354 18 867.754 20.45C871.554 23.15 873.454 26.6 873.454 30.8ZM868.729 35.15C868.729 30.95 866.904 27.55 863.254 24.95C860.004 22.6 856.179 21.425 851.779 21.425C849.629 21.425 847.554 21.95 845.554 23C846.454 24.35 846.904 25.25 846.904 25.7C846.904 26.55 846.604 27.75 846.004 29.3C845.454 30.85 845.179 32.025 845.179 32.825C845.179 36.125 846.804 38.6 850.054 40.25C852.654 41.6 855.754 42.275 859.354 42.275C862.654 42.275 864.904 41.95 866.104 41.3C867.854 40.35 868.729 38.3 868.729 35.15ZM916.92 33.875C916.92 36.825 915.495 39.75 912.645 42.65C909.795 45.55 906.895 47 903.945 47C902.395 47 900.195 45.85 897.345 43.55C894.545 41.25 892.345 40.15 890.745 40.25C890.045 40.3 889.695 40.65 889.695 41.3C889.695 41.8 889.995 42.2 890.595 42.5L886.095 47C880.145 47 877.17 43.825 877.17 37.475C877.17 36.725 877.37 35.625 877.77 34.175C878.22 32.675 878.445 31.55 878.445 30.8C878.445 29.75 878.02 28.45 877.17 26.9C878.32 24.95 879.845 23.15 881.745 21.5H879.72C878.82 21.5 878.02 21.15 877.32 20.45C876.62 19.7 876.27 18.875 876.27 17.975L879.345 14.75C881.195 12.85 882.395 11.925 882.945 11.975C883.845 12.075 884.295 12.55 884.295 13.4C884.295 14.35 883.845 14.825 882.945 14.825C882.145 14.825 881.67 14.45 881.52 13.7L880.995 14.225C881.295 15.975 882.295 16.85 883.995 16.85H914.82L914.97 21.5H908.22C914.02 25.1 916.92 29.225 916.92 33.875ZM912.195 38.225C912.195 33.575 909.42 29.525 903.87 26.075C898.97 23.025 894.045 21.5 889.095 21.5C886.745 21.5 884.42 22.025 882.12 23.075C882.77 24.375 883.095 25.525 883.095 26.525C883.095 27.275 882.87 28.375 882.42 29.825C882.02 31.275 881.82 32.375 881.82 33.125C881.82 37.625 883.37 40.475 886.47 41.675C887.32 40.775 888.595 39.45 890.295 37.7C891.795 36.3 893.42 35.6 895.17 35.6C896.67 35.6 898.845 36.725 901.695 38.975C904.545 41.175 906.72 42.275 908.22 42.275C909.97 42.275 911.07 42.05 911.52 41.6C911.97 41.1 912.195 39.975 912.195 38.225ZM923.246 9.425C923.196 10.875 922.371 13.175 920.771 16.325C918.621 20.475 917.371 23.1 917.021 24.2C916.621 22.4 915.546 21.5 913.796 21.5H906.596L906.521 16.85H914.246C917.496 16.85 919.121 15.7 919.121 13.4C919.121 8.55 917.346 5.825 913.796 5.225C912.446 5.025 911.771 5.525 911.771 6.725C911.771 8.275 913.021 9.75 915.521 11.15L916.046 10.625C915.296 10.375 914.921 9.925 914.921 9.275C914.921 8.325 915.396 7.85 916.346 7.85C917.196 7.85 917.671 8.325 917.771 9.275C917.821 9.825 916.846 11.075 914.846 13.025C913.646 14.125 912.546 15.15 911.546 16.1C910.596 15.6 909.646 14.9 908.696 14C907.646 12.9 907.121 11.9 907.121 11C907.121 8.55 907.996 6.225 909.746 4.025C911.646 1.625 913.771 0.524996 916.121 0.724997C918.471 0.924997 920.296 1.85 921.596 3.5C922.746 5.05 923.296 7.025 923.246 9.425ZM953.361 30.8C953.361 35.1 951.336 38.925 947.286 42.275C943.436 45.425 939.311 47 934.911 47C931.311 47 928.161 46.275 925.461 44.825C922.061 42.975 920.361 40.425 920.361 37.175C920.361 36.325 920.661 35.125 921.261 33.575C921.861 32.025 922.161 30.85 922.161 30.05C922.161 29.5 921.611 28.45 920.511 26.9C925.061 20.15 930.236 16.775 936.036 16.775C940.386 16.775 944.261 18 947.661 20.45C951.461 23.15 953.361 26.6 953.361 30.8ZM948.636 35.15C948.636 30.95 946.811 27.55 943.161 24.95C939.911 22.6 936.086 21.425 931.686 21.425C929.536 21.425 927.461 21.95 925.461 23C926.361 24.35 926.811 25.25 926.811 25.7C926.811 26.55 926.511 27.75 925.911 29.3C925.361 30.85 925.086 32.025 925.086 32.825C925.086 36.125 926.711 38.6 929.961 40.25C932.561 41.6 935.661 42.275 939.261 42.275C942.561 42.275 944.811 41.95 946.011 41.3C947.761 40.35 948.636 38.3 948.636 35.15ZM995.927 32.525C995.927 36.175 994.677 39.45 992.177 42.35C989.577 45.45 986.502 47 982.952 47C981.402 47 979.177 45.9 976.277 43.7C973.427 41.45 971.027 40.325 969.077 40.325C968.477 40.575 968.177 40.9 968.177 41.3C968.177 41.75 968.652 42.15 969.602 42.5L965.102 47C959.152 47 956.177 43.825 956.177 37.475C956.177 36.825 956.327 35.85 956.627 34.55C956.927 33.2 957.077 32.2 957.077 31.55C957.077 30.9 956.777 30.05 956.177 29C956.527 28.4 957.852 26.925 960.152 24.575C958.902 23.125 958.277 21.625 958.277 20.075C958.277 17.025 959.927 14.3 963.227 11.9C966.327 9.7 969.452 8.6 972.602 8.6C979.602 8.6 985.227 10.85 989.477 15.35C993.777 19.8 995.927 25.525 995.927 32.525ZM991.202 36.875C991.352 29.925 989.302 24.25 985.052 19.85C980.852 15.45 975.277 13.25 968.327 13.25C964.577 13.25 962.702 14.225 962.702 16.175C962.702 18.025 963.977 19.8 966.527 21.5C968.877 23.05 971.027 23.825 972.977 23.825C974.577 23.825 975.727 23.6 976.427 23.15L978.677 20.9C977.927 20.75 977.552 20.275 977.552 19.475C977.552 18.575 978.027 18.125 978.977 18.125C979.877 18.125 980.327 18.575 980.327 19.475C980.327 19.875 980.202 20.225 979.952 20.525C978.902 21.675 977.302 23.4 975.152 25.7C973.202 27.65 971.077 28.625 968.777 28.625C966.177 28.625 963.752 27.7 961.502 25.85C961.702 26.35 961.802 26.825 961.802 27.275C961.802 27.925 961.652 28.9 961.352 30.2C961.052 31.5 960.902 32.475 960.902 33.125C960.902 37.625 962.427 40.475 965.477 41.675C966.327 40.775 967.602 39.45 969.302 37.7C970.802 36.3 972.427 35.6 974.177 35.6C975.177 35.6 977.452 36.675 981.002 38.825C984.552 40.925 986.952 41.975 988.202 41.975C990.152 41.975 991.152 40.275 991.202 36.875ZM1047.95 5.6C1047.95 6.15 1047.68 6.55 1047.13 6.8C1046.83 6.95 1046.48 6.9 1046.08 6.65C1045.73 6.4 1045.55 6.1 1045.55 5.75C1045.55 5.3 1045.9 4.975 1046.6 4.775L1046.3 4.4C1044.3 5.2 1042.33 7.125 1040.38 10.175C1038.03 13.825 1036.53 18.075 1035.88 22.925C1035.33 21.975 1034.55 21.5 1033.55 21.5H1029.8C1033.55 24.65 1035.43 28.675 1035.43 33.575C1035.43 35.975 1034.55 38.45 1032.8 41C1031.8 42.45 1030.03 44.45 1027.48 47C1027.23 47.25 1026.85 47.375 1026.35 47.375C1025.5 47.375 1025.08 46.925 1025.08 46.025C1025.08 45.075 1025.55 44.6 1026.5 44.6C1027.25 44.6 1027.7 44.975 1027.85 45.725C1029.8 43.775 1030.78 41.175 1030.78 37.925C1030.78 33.075 1029.05 29.125 1025.6 26.075C1022.2 23.025 1018.05 21.5 1013.15 21.5H1009.7C1007.6 21.5 1005.38 22.125 1003.03 23.375C1003.63 25.025 1003.93 26.575 1003.93 28.025C1003.93 28.875 1003.73 30.125 1003.33 31.775C1002.93 33.375 1002.73 34.6 1002.73 35.45C1002.73 37.55 1003.43 39.125 1004.83 40.175C1005.83 40.925 1007.45 41.6 1009.7 42.2L1010.23 41.75C1009.48 41.6 1009.1 41.125 1009.1 40.325C1009.1 39.425 1009.58 38.975 1010.53 38.975C1011.43 38.975 1011.88 39.425 1011.88 40.325C1011.88 40.725 1011.75 41.075 1011.5 41.375C1010.25 42.575 1008.35 44.45 1005.8 47C1003.25 46.35 1001.45 45.625 1000.4 44.825C998.853 43.625 998.078 41.925 998.078 39.725C998.078 38.875 998.253 37.65 998.603 36.05C999.003 34.45 999.203 33.225 999.203 32.375C999.203 30.775 998.828 28.95 998.078 26.9C999.278 25.65 1001.1 23.85 1003.55 21.5H1001.23C1000.33 21.5 999.528 21.15 998.828 20.45C998.128 19.7 997.778 18.875 997.778 17.975L1000.85 14.75C1002.7 12.85 1003.9 11.925 1004.45 11.975C1005.35 12.075 1005.8 12.55 1005.8 13.4C1005.8 14.35 1005.35 14.825 1004.45 14.825C1003.65 14.825 1003.18 14.45 1003.03 13.7L1002.5 14.225C1002.8 15.975 1003.83 16.85 1005.58 16.85H1034.75C1034.9 11.95 1035.13 8.85 1035.43 7.55C1035.83 5.8 1036.7 4.325 1038.05 3.125C1039.4 1.925 1040.95 1.325 1042.7 1.325C1044.6 1.325 1046.08 2.075 1047.13 3.575C1047.68 4.375 1047.95 5.05 1047.95 5.6ZM1084.13 31.775C1084.13 35.375 1082.55 38.825 1079.4 42.125C1076.25 45.375 1072.9 47 1069.35 47C1067.2 47 1065.28 46.5 1063.58 45.5C1061.53 44.35 1060.5 42.775 1060.5 40.775C1060.5 39.975 1060.6 38.75 1060.8 37.1C1061.05 35.45 1061.18 34.225 1061.18 33.425C1061.18 32.675 1061.1 31.925 1060.95 31.175C1061.7 30.375 1062.83 29.2 1064.33 27.65C1065.63 26.4 1067.05 25.775 1068.6 25.775C1072 25.775 1074.55 28.55 1076.25 34.1C1075.55 34.85 1074.48 35.975 1073.03 37.475C1071.38 39.125 1070.25 40 1069.65 40.1L1068.23 38.675L1069.65 37.325C1070.4 37.175 1070.83 37.475 1070.93 38.225L1071.38 37.925C1070.53 34.075 1068.88 31.725 1066.43 30.875C1066.43 31.575 1066.3 32.625 1066.05 34.025C1065.8 35.425 1065.68 36.475 1065.68 37.175C1065.68 38.875 1066.63 40.2 1068.53 41.15C1070.03 41.9 1071.73 42.275 1073.63 42.275C1077.48 42.275 1079.4 40.225 1079.4 36.125C1079.4 31.775 1078.1 28.25 1075.5 25.55C1072.95 22.85 1069.53 21.5 1065.23 21.5H1055.4C1057.5 24.1 1058.55 27.775 1058.55 32.525C1058.55 36.025 1056.85 39.325 1053.45 42.425C1050.05 45.475 1046.58 47 1043.03 47C1040.03 47 1037.38 45.925 1035.08 43.775C1032.73 41.575 1031.55 39 1031.55 36.05C1032 35.6 1033.15 34.45 1035 32.6C1036.8 30.7 1037.95 29.725 1038.45 29.675C1039.45 29.725 1039.93 30.2 1039.88 31.1C1039.83 31.95 1039.35 32.425 1038.45 32.525C1037.75 32.575 1037.3 32.2 1037.1 31.4L1036.28 32.225C1036.48 35.125 1037.65 37.525 1039.8 39.425C1041.95 41.325 1044.48 42.275 1047.38 42.275C1051.73 42.275 1053.9 40.475 1053.9 36.875C1053.9 33.375 1053.35 30.3 1052.25 27.65C1050.8 24.15 1048.63 22.1 1045.73 21.5C1043.43 21 1042.28 19.825 1042.28 17.975C1045.73 13.975 1047.95 11.975 1048.95 11.975C1049.7 12.475 1050.18 12.95 1050.38 13.4L1048.95 14.825L1047.6 13.7L1047.08 14.225C1047.38 16.075 1049.68 17 1053.98 17C1055.23 17 1057.1 16.95 1059.6 16.85C1062.1 16.7 1063.98 16.625 1065.23 16.625C1071.23 16.625 1075.7 17.6 1078.65 19.55C1082.3 21.95 1084.13 26.025 1084.13 31.775ZM1155.16 31.475C1155.16 34.925 1153.46 38.375 1150.06 41.825C1146.66 45.275 1143.24 47 1139.79 47C1136.74 47 1134.14 45.775 1131.99 43.325C1130.94 41.825 1129.34 39.575 1127.19 36.575C1125.39 34.175 1123.26 33.025 1120.81 33.125L1120.89 34.325C1120.94 35.175 1120.79 36.425 1120.44 38.075C1120.09 39.725 1119.91 40.925 1119.91 41.675C1119.91 43.925 1120.59 45.7 1121.94 47C1122.84 47.85 1124.51 48.775 1126.96 49.775L1127.56 49.175C1126.81 49.025 1126.44 48.55 1126.44 47.75C1126.44 46.85 1126.91 46.4 1127.86 46.4C1128.81 46.4 1129.29 46.85 1129.29 47.75C1129.29 48.15 1129.14 48.5 1128.84 48.8C1127.79 49.9 1125.84 51.85 1122.99 54.65C1117.79 52.55 1115.19 49.675 1115.19 46.025C1115.19 45.175 1115.36 43.95 1115.71 42.35C1116.06 40.75 1116.24 39.525 1116.24 38.675C1116.24 37.325 1115.96 36.15 1115.41 35.15C1117.36 32.85 1118.86 31.3 1119.91 30.5C1121.71 29.1 1123.64 28.4 1125.69 28.4C1127.84 28.4 1129.79 29.6 1131.54 32C1132.59 33.5 1134.19 35.725 1136.34 38.675C1138.54 41.075 1141.14 42.275 1144.14 42.275C1146.54 42.275 1148.19 41.8 1149.09 40.85C1149.99 39.9 1150.44 38.225 1150.44 35.825C1150.44 30.275 1148.39 25.3 1144.29 20.9C1140.19 16.45 1135.36 14.225 1129.81 14.225C1127.81 14.225 1126.81 14.85 1126.81 16.1C1126.81 17.85 1128.04 19.575 1130.49 21.275C1132.74 22.825 1134.79 23.6 1136.64 23.6C1137.34 23.6 1138.04 23.525 1138.74 23.375L1140.01 22.1C1139.26 21.95 1138.89 21.5 1138.89 20.75C1138.89 19.8 1139.36 19.325 1140.31 19.325C1141.26 19.325 1141.74 19.8 1141.74 20.75C1141.74 21.05 1141.59 21.375 1141.29 21.725C1140.49 22.675 1139.24 24.075 1137.54 25.925C1135.94 27.575 1134.24 28.4 1132.44 28.4C1130.09 28.4 1127.84 27.5 1125.69 25.7C1123.54 23.9 1122.46 21.825 1122.46 19.475C1122.46 17.275 1123.84 15.075 1126.59 12.875C1129.34 10.625 1131.84 9.5 1134.09 9.5C1139.64 9.5 1144.54 11.775 1148.79 16.325C1153.04 20.825 1155.16 25.875 1155.16 31.475ZM1178.08 37.925C1178.08 39.525 1176.38 41.425 1172.98 43.625C1169.63 45.825 1167.06 46.925 1165.26 46.925C1162.96 46.925 1161.01 46.225 1159.41 44.825C1157.81 43.375 1157.01 41.525 1157.01 39.275C1157.01 38.375 1157.31 37.075 1157.91 35.375C1158.56 33.625 1158.88 32.3 1158.88 31.4C1158.88 30.25 1158.26 28.8 1157.01 27.05C1158.16 24.6 1159.81 22.4 1161.96 20.45C1164.46 18.1 1166.86 16.925 1169.16 16.925C1171.51 16.925 1173.51 17.825 1175.16 19.625C1176.86 21.425 1177.71 23.5 1177.71 25.85C1177.71 28 1176.51 30.225 1174.11 32.525C1171.76 34.825 1169.51 35.975 1167.36 35.975C1165.16 35.975 1163.48 35.025 1162.33 33.125L1166.01 29.45C1167.66 27.7 1168.71 26.825 1169.16 26.825C1170.06 26.825 1170.51 27.3 1170.51 28.25C1170.51 29.2 1170.06 29.675 1169.16 29.675C1168.41 29.675 1167.93 29.3 1167.73 28.55L1167.21 29.075C1168.61 30.675 1170.08 31.475 1171.63 31.475C1172.58 31.475 1173.06 30.875 1173.06 29.675C1173.06 27.475 1172.23 25.575 1170.58 23.975C1168.93 22.375 1167.01 21.575 1164.81 21.575C1163.11 21.575 1162.08 21.95 1161.73 22.7C1162.93 24.45 1163.53 25.9 1163.53 27.05C1163.53 27.95 1163.23 29.275 1162.63 31.025C1162.03 32.725 1161.73 34.025 1161.73 34.925C1161.73 37.175 1162.46 38.975 1163.91 40.325C1165.41 41.625 1167.28 42.275 1169.53 42.275C1171.13 42.275 1172.38 42.075 1173.28 41.675C1174.23 41.275 1175.28 40.5 1176.43 39.35C1175.68 39.15 1175.31 38.675 1175.31 37.925C1175.31 37.025 1175.78 36.575 1176.73 36.575C1177.63 36.575 1178.08 37.025 1178.08 37.925ZM1259.26 5.6C1259.26 6.15 1258.98 6.55 1258.43 6.8C1258.13 6.95 1257.78 6.9 1257.38 6.65C1257.03 6.4 1256.86 6.1 1256.86 5.75C1256.86 5.3 1257.21 4.975 1257.91 4.775L1257.61 4.4C1255.61 5.2 1253.63 7.125 1251.68 10.175C1249.33 13.825 1247.83 18.075 1247.18 22.925C1246.63 21.975 1245.86 21.5 1244.86 21.5H1231.13C1233.03 22.3 1234.06 23.425 1234.21 24.875C1233.96 25.125 1233.43 25.675 1232.63 26.525H1250.63C1251.58 26.525 1252.48 26.875 1253.33 27.575C1254.18 28.275 1254.61 29.1 1254.61 30.05C1254.01 30.75 1253.08 31.75 1251.83 33.05C1250.18 34.75 1248.98 35.625 1248.23 35.675C1247.28 35.725 1246.81 35.25 1246.81 34.25C1246.81 33.3 1247.28 32.825 1248.23 32.825C1248.98 32.825 1249.43 33.2 1249.58 33.95L1249.81 33.875C1249.46 32.125 1248.31 31.25 1246.36 31.25H1243.51C1245.31 32.35 1246.21 33.575 1246.21 34.925C1246.21 36.375 1245.36 37.925 1243.66 39.575C1242.76 40.325 1241.46 41.5 1239.76 43.1C1238.36 44.45 1236.46 45.475 1234.06 46.175C1231.51 46.975 1228.86 47.375 1226.11 47.375C1222.96 47.375 1220.26 46.825 1218.01 45.725C1215.11 44.325 1213.66 42.2 1213.66 39.35C1213.66 38.05 1213.91 36.575 1214.41 34.925C1214.96 33.275 1215.63 32.025 1216.43 31.175H1212.53C1211.63 31.175 1210.83 30.825 1210.13 30.125C1209.43 29.425 1209.08 28.625 1209.08 27.725C1212.73 24.075 1214.98 22.3 1215.83 22.4C1216.78 22.5 1217.26 22.975 1217.26 23.825C1217.26 24.725 1216.78 25.175 1215.83 25.175C1215.08 25.175 1214.63 24.825 1214.48 24.125L1213.96 24.65C1214.16 25.9 1215.11 26.525 1216.81 26.525H1227.68C1226.13 25.875 1225.23 25.475 1224.98 25.325C1223.98 24.675 1223.51 23.875 1223.56 22.925C1223.81 22.675 1224.26 22.2 1224.91 21.5H1212.53C1211.63 21.5 1210.83 21.15 1210.13 20.45C1209.43 19.7 1209.08 18.875 1209.08 17.975C1209.23 17.825 1210.23 16.775 1212.08 14.825C1213.93 12.875 1215.16 11.925 1215.76 11.975C1216.71 12.075 1217.18 12.55 1217.18 13.4C1217.18 14.35 1216.71 14.825 1215.76 14.825C1215.01 14.825 1214.56 14.45 1214.41 13.7L1213.88 14.225C1214.18 15.975 1215.16 16.85 1216.81 16.85H1246.06C1246.21 11.95 1246.43 8.85 1246.73 7.55C1247.13 5.8 1248.01 4.325 1249.36 3.125C1250.71 1.925 1252.26 1.325 1254.01 1.325C1255.91 1.325 1257.38 2.075 1258.43 3.575C1258.98 4.375 1259.26 5.05 1259.26 5.6ZM1240.58 36.95C1238.93 35.3 1235.58 33.925 1230.53 32.825C1226.23 31.875 1222.36 31.4 1218.91 31.4C1218.51 32.45 1218.31 33.55 1218.31 34.7C1218.31 37.95 1219.76 40.175 1222.66 41.375C1224.56 42.175 1227.43 42.575 1231.28 42.575C1233.33 42.575 1235.31 42.375 1237.21 41.975C1240.21 41.375 1241.71 40.4 1241.71 39.05C1241.71 38.4 1241.33 37.7 1240.58 36.95ZM1302.89 5.6C1302.89 6.15 1302.62 6.55 1302.07 6.8C1301.77 6.95 1301.42 6.9 1301.02 6.65C1300.67 6.4 1300.49 6.1 1300.49 5.75C1300.49 5.3 1300.84 4.975 1301.54 4.775L1301.24 4.4C1298.94 5.35 1296.67 7.8 1294.42 11.75C1292.22 15.65 1291.09 18.9 1291.04 21.5C1290.94 22.05 1290.87 22.525 1290.82 22.925C1290.27 21.975 1289.49 21.5 1288.49 21.5H1286.77C1290.57 24.4 1292.47 28.2 1292.47 32.9C1292.47 36 1290.84 39.125 1287.59 42.275C1284.39 45.425 1281.22 47 1278.07 47C1275.02 47 1272.39 45.775 1270.19 43.325C1268.69 41.225 1267.19 39.1 1265.69 36.95C1263.54 34.35 1261.52 33.05 1259.62 33.05L1259.17 33.125C1259.12 33.175 1259.12 33.575 1259.17 34.325C1259.22 35.175 1259.07 36.425 1258.72 38.075C1258.37 39.725 1258.19 40.925 1258.19 41.675C1258.19 43.925 1258.89 45.7 1260.29 47C1261.24 47.9 1262.92 48.85 1265.32 49.85L1265.92 49.25C1265.17 49.1 1264.79 48.65 1264.79 47.9C1264.79 46.95 1265.27 46.475 1266.22 46.475C1267.17 46.475 1267.64 46.95 1267.64 47.9C1267.64 48.25 1267.49 48.575 1267.19 48.875C1265.99 50.075 1264.02 52 1261.27 54.65C1258.72 53.6 1256.92 52.6 1255.87 51.65C1254.27 50.2 1253.47 48.325 1253.47 46.025C1253.47 45.175 1253.64 43.95 1253.99 42.35C1254.34 40.75 1254.52 39.525 1254.52 38.675C1254.52 37.275 1254.24 36.1 1253.69 35.15C1255.74 32.75 1257.22 31.2 1258.12 30.5C1259.92 29.1 1261.87 28.4 1263.97 28.4C1265.87 28.4 1267.89 29.7 1270.04 32.3C1271.54 34.5 1273.04 36.675 1274.54 38.825C1276.69 41.175 1279.32 42.325 1282.42 42.275C1285.97 42.175 1287.74 40.475 1287.74 37.175C1287.74 31.925 1285.47 27.9 1280.92 25.1C1277.07 22.7 1272.37 21.5 1266.82 21.5H1256.92C1256.02 21.5 1255.22 21.15 1254.52 20.45C1253.87 19.7 1253.54 18.875 1253.54 17.975C1254.19 17.275 1255.19 16.2 1256.54 14.75C1258.34 12.85 1259.54 11.925 1260.14 11.975C1261.09 12.075 1261.57 12.55 1261.57 13.4C1261.57 14.35 1261.09 14.825 1260.14 14.825C1259.39 14.825 1258.94 14.45 1258.79 13.7L1258.27 14.225C1258.57 15.975 1259.59 16.85 1261.34 16.85H1289.69C1289.84 11.95 1290.07 8.85 1290.37 7.55C1290.77 5.8 1291.64 4.325 1292.99 3.125C1294.34 1.925 1295.89 1.325 1297.64 1.325C1299.54 1.325 1301.02 2.075 1302.07 3.575C1302.62 4.375 1302.89 5.05 1302.89 5.6ZM1306.19 62.225C1306.19 62.575 1306.06 62.85 1305.81 63.05C1305.01 63.95 1303.46 65.525 1301.16 67.775C1298.21 67.175 1296.36 65.6 1295.61 63.05C1293.96 63.95 1292.34 64.4 1290.74 64.4C1289.09 64.4 1287.69 63.825 1286.54 62.675C1285.34 61.575 1284.74 60.2 1284.74 58.55C1284.74 56.95 1285.81 55.05 1287.96 52.85C1290.11 50.7 1291.99 49.625 1293.59 49.625C1296.04 49.625 1297.59 50.75 1298.24 53L1299.14 59.225C1300.79 58.225 1301.61 55.775 1301.61 51.875C1301.61 49.275 1300.96 46.85 1299.66 44.6C1298.21 42 1296.31 40.475 1293.96 40.025L1293.29 40.7C1293.89 40.85 1294.19 41.25 1294.19 41.9C1294.19 42.7 1293.81 43.1 1293.06 43.1C1292.26 43.1 1291.86 42.7 1291.86 41.9C1291.86 41.55 1291.96 41.25 1292.16 41C1293.01 40.15 1294.59 38.6 1296.89 36.35C1299.29 36.55 1301.34 38.075 1303.04 40.925C1304.54 43.475 1305.29 46.05 1305.29 48.65C1305.29 51.3 1304.79 53.45 1303.79 55.1C1303.24 56 1301.76 57.675 1299.36 60.125C1300.01 62.125 1301.59 63.45 1304.09 64.1L1304.76 63.425C1304.11 63.275 1303.79 62.875 1303.79 62.225C1303.79 61.425 1304.19 61.025 1304.99 61.025C1305.79 61.025 1306.19 61.425 1306.19 62.225ZM1295.24 60.65C1295.19 59.9 1295.06 58.775 1294.86 57.275C1294.71 55.825 1294.26 54.85 1293.51 54.35C1292.41 53.6 1291.34 53.225 1290.29 53.225C1289.04 53.225 1288.41 53.925 1288.41 55.325C1288.41 56.925 1288.94 58.225 1289.99 59.225C1291.04 60.275 1292.36 60.8 1293.96 60.8C1294.36 60.8 1294.79 60.75 1295.24 60.65ZM1354.04 5.6C1354.04 6.15 1353.76 6.55 1353.21 6.8C1352.91 6.95 1352.56 6.9 1352.16 6.65C1351.81 6.4 1351.64 6.1 1351.64 5.75C1351.64 5.3 1351.99 4.975 1352.69 4.775L1352.39 4.4C1350.39 5.2 1348.41 7.125 1346.46 10.175C1344.11 13.825 1342.61 18.075 1341.96 22.925C1341.41 21.975 1340.64 21.5 1339.64 21.5H1337.61C1338.01 22.15 1338.19 22.85 1338.14 23.6C1341.04 23.65 1343.26 24.675 1344.81 26.675C1346.21 28.475 1346.91 30.875 1346.91 33.875C1346.91 36.875 1345.49 39.825 1342.64 42.725C1339.79 45.575 1336.86 47 1333.86 47C1332.36 47 1330.19 45.85 1327.34 43.55C1324.49 41.2 1322.21 40.1 1320.51 40.25C1319.86 40.3 1319.54 40.675 1319.54 41.375C1319.54 41.875 1319.89 42.25 1320.59 42.5L1316.01 47C1310.11 47 1307.16 43.825 1307.16 37.475C1307.16 36.725 1307.36 35.625 1307.76 34.175C1308.21 32.675 1308.44 31.55 1308.44 30.8C1308.44 29.75 1308.01 28.45 1307.16 26.9C1308.26 24.95 1309.79 23.15 1311.74 21.5H1310.31C1309.41 21.5 1308.61 21.15 1307.91 20.45C1307.21 19.7 1306.86 18.875 1306.86 17.975L1309.94 14.75C1311.79 12.85 1312.99 11.925 1313.54 11.975C1314.44 12.075 1314.89 12.55 1314.89 13.4C1314.89 14.35 1314.44 14.825 1313.54 14.825C1312.74 14.825 1312.26 14.45 1312.11 13.7L1311.59 14.225C1311.89 15.975 1312.81 16.85 1314.36 16.85H1340.84C1340.99 11.95 1341.21 8.85 1341.51 7.55C1341.91 5.8 1342.79 4.325 1344.14 3.125C1345.49 1.925 1347.04 1.325 1348.79 1.325C1350.69 1.325 1352.16 2.075 1353.21 3.575C1353.76 4.375 1354.04 5.05 1354.04 5.6ZM1342.19 38.225C1342.29 35.575 1341.69 33.25 1340.39 31.25C1338.99 29.05 1337.01 27.85 1334.46 27.65C1333.81 27.6 1333.49 27.875 1333.49 28.475C1333.49 29.425 1334.04 30.6 1335.14 32C1336.24 33.35 1337.26 34.2 1338.21 34.55L1338.51 34.325C1337.76 34.125 1337.39 33.65 1337.39 32.9C1337.39 32 1337.86 31.55 1338.81 31.55C1339.76 31.55 1340.24 32 1340.24 32.9C1340.24 33.3 1340.09 33.65 1339.79 33.95L1334.24 39.5C1333.04 39 1331.81 38.025 1330.56 36.575C1329.31 35.075 1328.69 33.725 1328.69 32.525C1328.69 31.025 1329.06 29.775 1329.81 28.775C1330.81 27.825 1331.81 26.85 1332.81 25.85C1330.41 22.95 1325.81 21.5 1319.01 21.5C1316.66 21.5 1314.36 22.025 1312.11 23.075C1312.76 24.375 1313.09 25.525 1313.09 26.525C1313.09 27.275 1312.86 28.375 1312.41 29.825C1312.01 31.275 1311.81 32.375 1311.81 33.125C1311.81 37.625 1313.36 40.475 1316.46 41.675C1317.31 40.775 1318.59 39.45 1320.29 37.7C1321.79 36.3 1323.39 35.6 1325.09 35.6C1326.64 35.6 1328.81 36.725 1331.61 38.975C1334.46 41.175 1336.66 42.275 1338.21 42.275C1339.76 42.275 1340.79 42 1341.29 41.45C1341.84 40.85 1342.14 39.775 1342.19 38.225ZM1388.65 33.875C1388.65 36.875 1387.23 39.825 1384.38 42.725C1381.58 45.575 1378.68 47 1375.68 47C1374.13 47 1371.93 45.875 1369.08 43.625C1366.28 41.375 1364.13 40.25 1362.63 40.25C1361.73 40.25 1361.28 40.525 1361.28 41.075C1361.28 41.425 1361.63 41.9 1362.33 42.5L1357.83 47C1355.48 47 1353.48 46.5 1351.83 45.5C1349.88 44.3 1348.9 42.6 1348.9 40.4C1348.9 39.8 1349.05 38.9 1349.35 37.7C1349.65 36.5 1349.8 35.6 1349.8 35C1349.8 34 1349.5 32.95 1348.9 31.85C1353 27.75 1355.28 25.7 1355.73 25.7C1356.68 25.7 1357.15 26.175 1357.15 27.125C1357.15 28.025 1356.68 28.475 1355.73 28.475L1354.38 27.35L1353.78 27.95C1354.23 28.9 1354.45 29.825 1354.45 30.725C1354.45 31.325 1354.3 32.225 1354 33.425C1353.7 34.575 1353.55 35.45 1353.55 36.05C1353.55 37.7 1353.95 38.9 1354.75 39.65C1355.25 40.1 1356.43 40.75 1358.28 41.6C1359.08 40.7 1360.33 39.4 1362.03 37.7C1363.53 36.3 1365.15 35.6 1366.9 35.6C1368 35.6 1370.28 36.775 1373.73 39.125C1377.23 41.425 1379.73 42.575 1381.23 42.575C1383.03 42.575 1383.93 41.125 1383.93 38.225C1383.93 33.575 1381.15 29.525 1375.6 26.075C1370.7 23.025 1365.8 21.5 1360.9 21.5H1352.2C1351.3 21.5 1350.5 21.15 1349.8 20.45C1349.1 19.7 1348.75 18.875 1348.75 17.975C1349.95 16.625 1351.03 15.475 1351.98 14.525C1353.63 12.825 1354.78 11.975 1355.43 11.975C1356.33 11.975 1356.78 12.45 1356.78 13.4C1356.78 14.3 1356.33 14.775 1355.43 14.825L1354 13.7L1353.48 14.225C1353.78 15.975 1354.78 16.85 1356.48 16.85H1386.33V21.5H1380.03C1385.78 25.3 1388.65 29.425 1388.65 33.875ZM1414.35 31.775C1414.35 35.325 1412.75 38.75 1409.55 42.05C1406.4 45.35 1403.08 47 1399.58 47C1397.43 47 1395.5 46.5 1393.8 45.5C1391.75 44.35 1390.73 42.775 1390.73 40.775C1390.73 39.975 1390.83 38.775 1391.03 37.175C1391.28 35.575 1391.4 34.375 1391.4 33.575C1391.4 32.725 1391.33 31.925 1391.18 31.175C1392.28 30.025 1393.38 28.85 1394.48 27.65C1395.93 26.4 1397.38 25.775 1398.83 25.775C1402.23 25.775 1404.75 28.55 1406.4 34.1C1402.45 38.1 1400.28 40.1 1399.88 40.1C1398.93 40.1 1398.45 39.625 1398.45 38.675C1398.45 37.825 1398.93 37.375 1399.88 37.325C1400.58 37.325 1401 37.625 1401.15 38.225L1401.6 37.925C1401.3 36.525 1400.73 35.15 1399.88 33.8C1398.88 32.25 1397.8 31.275 1396.65 30.875C1396.65 31.575 1396.53 32.625 1396.28 34.025C1396.03 35.425 1395.9 36.475 1395.9 37.175C1395.9 38.875 1396.85 40.2 1398.75 41.15C1400.25 41.9 1401.95 42.275 1403.85 42.275C1407.7 42.275 1409.63 40.225 1409.63 36.125C1409.63 31.775 1408.33 28.25 1405.73 25.55C1403.18 22.85 1399.75 21.5 1395.45 21.5H1377L1377.23 16.85H1399.8C1404.1 16.85 1407.6 18.25 1410.3 21.05C1413 23.85 1414.35 27.425 1414.35 31.775ZM1450.94 31.325C1450.74 35.075 1449.79 38.2 1448.09 40.7C1447.59 41.45 1445.86 43.3 1442.91 46.25C1442.66 46.5 1442.29 46.625 1441.79 46.625C1440.94 46.625 1440.51 46.175 1440.51 45.275C1440.51 44.325 1440.99 43.85 1441.94 43.85C1442.69 43.85 1443.14 44.225 1443.29 44.975C1444.94 43.325 1445.76 40.975 1445.76 37.925C1445.76 30.425 1444.64 24.725 1442.39 20.825C1439.54 15.775 1434.64 13.25 1427.69 13.25C1423.84 13.25 1421.91 14.2 1421.91 16.1C1421.91 17.85 1423.11 19.45 1425.51 20.9C1427.71 22.25 1429.74 22.925 1431.59 22.925C1433.59 22.925 1434.86 22.85 1435.41 22.7C1436.16 22.5 1437.04 21.9 1438.04 20.9C1437.29 20.75 1436.91 20.275 1436.91 19.475C1436.91 18.575 1437.39 18.125 1438.34 18.125C1439.29 18.125 1439.76 18.575 1439.76 19.475C1439.76 19.875 1439.61 20.225 1439.31 20.525C1436.96 22.875 1435.24 24.45 1434.14 25.25C1431.94 26.85 1429.69 27.65 1427.39 27.65C1424.79 27.65 1422.54 26.875 1420.64 25.325C1420.99 26.175 1421.16 26.825 1421.16 27.275C1421.16 31.525 1421.09 34.25 1420.94 35.45C1420.69 37.55 1421.29 39.125 1422.74 40.175C1423.69 40.875 1425.41 41.55 1427.91 42.2L1428.36 41.75C1427.61 41.6 1427.24 41.125 1427.24 40.325C1427.24 39.425 1427.71 38.975 1428.66 38.975C1429.61 38.975 1430.09 39.425 1430.09 40.325C1430.09 40.725 1429.94 41.075 1429.64 41.375L1424.01 47C1421.51 46.35 1419.71 45.625 1418.61 44.825C1417.01 43.625 1416.21 41.925 1416.21 39.725C1416.21 38.825 1416.36 37.475 1416.66 35.675C1416.96 33.825 1417.11 32.45 1417.11 31.55C1417.11 30.9 1416.81 30.05 1416.21 29C1416.56 28.4 1417.89 26.925 1420.19 24.575C1418.94 23.125 1418.31 21.625 1418.31 20.075C1418.31 17.025 1419.96 14.3 1423.26 11.9C1426.36 9.7 1429.49 8.6 1432.64 8.6C1439.04 8.6 1443.91 11.225 1447.26 16.475C1450.01 20.775 1451.24 25.725 1450.94 31.325ZM1498.58 5.6C1498.58 6.15 1498.31 6.55 1497.76 6.8C1497.46 6.95 1497.11 6.9 1496.71 6.65C1496.36 6.4 1496.18 6.1 1496.18 5.75C1496.18 5.3 1496.53 4.975 1497.23 4.775L1496.93 4.4C1494.93 5.2 1492.96 7.125 1491.01 10.175C1488.66 13.825 1487.16 18.075 1486.51 22.925C1485.96 21.975 1485.18 21.5 1484.18 21.5H1481.03C1485.78 24.7 1488.16 28.2 1488.16 32C1488.16 34.6 1487.31 36.75 1485.61 38.45C1482.01 42.05 1479.43 44.275 1477.88 45.125C1475.58 46.375 1472.28 47 1467.98 47C1464.33 47 1461.16 46.275 1458.46 44.825C1455.11 43.025 1453.43 40.475 1453.43 37.175C1453.43 36.325 1453.63 35.1 1454.03 33.5C1454.48 31.85 1454.71 30.6 1454.71 29.75C1454.71 29.15 1454.33 28.2 1453.58 26.9C1453.88 25.2 1455.11 23.4 1457.26 21.5H1456.36C1455.46 21.5 1454.66 21.15 1453.96 20.45C1453.26 19.7 1452.91 18.875 1452.91 17.975C1453.71 17.125 1454.73 16.05 1455.98 14.75C1457.83 12.85 1459.03 11.925 1459.58 11.975C1460.48 12.075 1460.93 12.55 1460.93 13.4C1460.93 14.3 1460.48 14.75 1459.58 14.75C1458.78 14.75 1458.31 14.4 1458.16 13.7L1457.63 14.15C1457.93 15.95 1458.93 16.85 1460.63 16.85H1485.38C1485.53 11.95 1485.76 8.85 1486.06 7.55C1486.46 5.8 1487.33 4.325 1488.68 3.125C1490.03 1.925 1491.58 1.325 1493.33 1.325C1495.23 1.325 1496.71 2.075 1497.76 3.575C1498.31 4.375 1498.58 5.05 1498.58 5.6ZM1483.43 36.275C1483.43 32.175 1481.01 28.625 1476.16 25.625C1471.86 22.975 1467.53 21.65 1463.18 21.65C1462.53 21.65 1461.66 21.725 1460.56 21.875C1459.11 22.075 1458.36 22.325 1458.31 22.625C1459.01 23.875 1459.36 24.8 1459.36 25.4C1459.36 26.25 1459.13 27.5 1458.68 29.15C1458.28 30.75 1458.08 31.975 1458.08 32.825C1458.08 36.075 1459.73 38.525 1463.03 40.175C1465.58 41.475 1468.68 42.175 1472.33 42.275C1479.73 42.525 1483.43 40.525 1483.43 36.275ZM1510.51 32.675C1510.51 36.175 1508.81 39.475 1505.41 42.575C1502.01 45.625 1498.54 47.15 1494.99 47.15C1492.04 47.15 1489.39 46.075 1487.04 43.925C1484.69 41.725 1483.51 39.15 1483.51 36.2C1487.66 32.05 1489.91 29.975 1490.26 29.975C1491.21 29.975 1491.69 30.45 1491.69 31.4C1491.69 32.3 1491.21 32.75 1490.26 32.75C1489.56 32.75 1489.11 32.375 1488.91 31.625L1488.24 32.375C1488.44 35.275 1489.61 37.7 1491.76 39.65C1493.91 41.6 1496.44 42.525 1499.34 42.425C1500.94 42.375 1502.41 41.85 1503.76 40.85C1505.16 39.85 1505.86 38.575 1505.86 37.025C1506.01 29.075 1502.86 24.1 1496.41 22.1L1496.04 22.55C1496.79 22.7 1497.16 23.15 1497.16 23.9C1497.16 24.85 1496.69 25.325 1495.74 25.325C1494.79 25.325 1494.31 24.85 1494.31 23.9C1494.31 23.45 1496.31 21.25 1500.31 17.3C1507.11 19.25 1510.51 24.375 1510.51 32.675ZM1522.65 42.575C1522.65 44.025 1522.15 45.25 1521.15 46.25C1520.2 47.25 1519 47.75 1517.55 47.75C1516.1 47.75 1514.88 47.25 1513.88 46.25C1512.88 45.25 1512.38 44.025 1512.38 42.575C1512.38 41.125 1512.88 39.925 1513.88 38.975C1514.88 37.975 1516.1 37.475 1517.55 37.475C1518.95 37.475 1520.15 37.975 1521.15 38.975C1522.15 39.975 1522.65 41.175 1522.65 42.575Z" fill="black"/>
</svg>
