<svg width="1544" height="74" viewBox="0 0 1544 74" fill="none" xmlns="http://www.w3.org/2000/svg">
<path d="M38.25 37.425C38.25 41.175 37.45 44.275 35.85 46.725C34 49.575 31.3 51 27.75 51C24.05 51 21.175 49.575 19.125 46.725C17.025 49.575 14.15 51 10.5 51C7.6 51 5.125 49.875 3.075 47.625C1.025 45.375 0 42.8 0 39.9C0 37.1 1.1 34.725 3.3 32.775C5.55 30.775 8.075 29.775 10.875 29.775C12.025 29.775 13 30.2 13.8 31.05C14.65 31.9 15.075 32.9 15.075 34.05C15.075 35.2 14.65 36.2 13.8 37.05C13 37.85 12.025 38.25 10.875 38.25C8.525 38.25 7.125 37.125 6.675 34.875C4.725 36.175 3.75 37.85 3.75 39.9C3.75 41.8 4.4 43.5 5.7 45C7.05 46.5 8.65 47.25 10.5 47.25C12.75 47.25 14.45 46.525 15.6 45.075C16.1 44.425 16.675 43.1 17.325 41.1C17.775 39.7 18.375 39 19.125 39C19.875 39 20.475 39.7 20.925 41.1C21.525 43 22.1 44.325 22.65 45.075C23.75 46.525 25.45 47.25 27.75 47.25C32.25 47.25 34.5 43.975 34.5 37.425C34.5 32.825 33.075 28.95 30.225 25.8C27.375 22.6 23.675 21 19.125 21C17.875 21 17.25 20.375 17.25 19.125C17.25 17.875 17.875 17.25 19.125 17.25C24.675 17.25 29.25 19.225 32.85 23.175C36.45 27.075 38.25 31.825 38.25 37.425ZM79.4678 26.025C80.0678 28.125 80.3678 30.175 80.3678 32.175C80.3678 35.625 79.4428 38.975 77.5928 42.225C74.1928 48.075 68.7178 51 61.1678 51C55.4178 51 50.7678 49.275 47.2178 45.825C43.7178 42.325 41.9678 37.7 41.9678 31.95C41.9678 28.3 42.7928 25.075 44.4428 22.275C46.4428 18.925 49.1428 17.25 52.5428 17.25C55.0928 17.25 57.0928 18.175 58.5428 20.025C60.0428 21.825 60.7928 24.025 60.7928 26.625C60.7928 29.225 60.0678 31.4 58.6178 33.15C57.2178 34.85 55.2428 35.8 52.6928 36C50.0428 36.2 47.7178 35.125 45.7178 32.775C45.8678 37.275 47.3428 40.825 50.1428 43.425C52.9428 45.975 56.6178 47.25 61.1678 47.25C65.7678 47.25 69.4928 45.85 72.3428 43.05C75.1928 40.25 76.6178 36.575 76.6178 32.025C76.6178 29.425 76.0678 27.075 74.9678 24.975C73.6178 22.375 71.7678 21.075 69.4178 21.075H63.5678C62.3178 21.075 61.6928 20.45 61.6928 19.2C61.6928 17.95 62.3178 17.325 63.5678 17.325H69.7928C74.5428 17.325 77.7678 20.225 79.4678 26.025ZM57.1178 26.55C57.1178 25.1 56.6928 23.825 55.8428 22.725C55.0428 21.575 53.9428 21 52.5428 21C51.1428 21 49.8678 21.6 48.7178 22.8C47.5678 23.95 46.9678 25.225 46.9178 26.625C46.8678 28.175 47.3928 29.475 48.4928 30.525C49.5928 31.575 50.9178 32.1 52.4678 32.1C55.6178 32.1 57.1678 30.25 57.1178 26.55ZM103.372 34.275C103.372 38.625 102.372 42.375 100.372 45.525C98.0217 49.225 94.7967 51.075 90.6967 51.075C87.6467 51.075 85.1217 49.975 83.1217 47.775C81.1217 45.525 80.1217 42.85 80.1217 39.75C80.1217 36.4 81.2717 33.775 83.5717 31.875C85.7217 30.075 88.4967 29.175 91.8967 29.175C92.7967 29.175 93.6717 29.7 94.5217 30.75C95.3717 31.75 95.7967 32.725 95.7967 33.675C95.7967 34.875 95.3717 35.9 94.5217 36.75C93.7217 37.55 92.7217 37.95 91.5217 37.95C90.4217 37.95 89.4467 37.55 88.5967 36.75C87.7967 35.95 87.3717 35 87.3217 33.9C84.9717 35.1 83.7967 37.05 83.7967 39.75C83.7967 41.75 84.4467 43.525 85.7467 45.075C87.0967 46.575 88.7467 47.325 90.6967 47.325C93.6967 47.325 95.9967 45.825 97.5967 42.825C98.9467 40.375 99.6217 37.525 99.6217 34.275C99.6217 31.025 98.9467 28.15 97.5967 25.65C95.9967 22.6 93.6967 21.075 90.6967 21.075H64.7467C63.2467 20.875 62.4967 20.25 62.4967 19.2C62.4967 17.95 63.1217 17.325 64.3717 17.325H90.8467C94.9467 17.325 98.1467 19.2 100.447 22.95C102.397 26.1 103.372 29.875 103.372 34.275ZM104.378 60.675C104.378 61.975 103.728 63.5 102.428 65.25C101.128 67 99.8533 67.875 98.6033 67.875C97.3533 67.875 96.7283 67.225 96.7283 65.925C96.7283 65.475 97.3783 64.7 98.6783 63.6C99.9283 62.55 100.553 61.575 100.553 60.675C100.553 59.575 100.128 58.725 99.2783 58.125C98.4283 57.525 97.4533 57.225 96.3533 57.225C94.6533 57.225 93.4783 57.7 92.8283 58.65C92.6783 58.9 92.3783 59.75 91.9283 61.2C91.6283 62.15 91.0533 62.625 90.2033 62.625C89.3533 62.625 88.7783 62.15 88.4783 61.2C87.9783 59.65 87.6783 58.775 87.5783 58.575C86.9283 57.675 85.7783 57.225 84.1283 57.225C82.9783 57.225 81.9783 57.525 81.1283 58.125C80.2783 58.775 79.8533 59.65 79.8533 60.75C79.8533 61.55 80.3783 62.5 81.4283 63.6C82.4783 64.75 83.0033 65.55 83.0033 66C83.0033 67.25 82.3533 67.875 81.0533 67.875C80.0033 67.875 78.9033 66.975 77.7533 65.175C76.6533 63.525 76.1033 62.125 76.1033 60.975C76.1033 58.775 76.8783 56.975 78.4283 55.575C79.9783 54.175 81.8783 53.475 84.1283 53.475C86.6283 53.475 88.6783 54.3 90.2783 55.95C91.9283 54.25 93.8783 53.4 96.1283 53.4C98.2283 53.4 100.128 54.075 101.828 55.425C103.528 56.825 104.378 58.575 104.378 60.675ZM146.227 11.55C146.227 13.75 145.477 15.775 143.977 17.625C142.527 19.425 140.702 20.525 138.502 20.925C143.152 24.225 145.477 29 145.477 35.25C145.477 39.35 144.752 42.8 143.302 45.6C141.452 49.2 138.677 51 134.977 51C131.077 51 128.202 49.7 126.352 47.1C124.602 49.7 121.727 51 117.727 51C110.727 51 107.227 45.875 107.227 35.625C107.227 29.575 109.727 24.725 114.727 21.075C113.877 21.175 113.002 21.225 112.102 21.225C108.952 21.225 107.377 20.55 107.377 19.2C107.377 17.95 108.002 17.325 109.252 17.325H136.777C138.277 17.325 139.602 16.75 140.752 15.6C141.902 14.4 142.477 13.05 142.477 11.55C142.477 10.05 142.302 8.95 141.952 8.25C141.602 7.5 140.852 6.65 139.702 5.7C139.202 5.3 138.952 4.825 138.952 4.275C138.952 2.975 139.577 2.325 140.827 2.325C141.227 2.325 141.602 2.45 141.952 2.7C143.602 3.95 144.727 5.225 145.327 6.525C145.927 7.775 146.227 9.45 146.227 11.55ZM141.727 35.25C141.727 31.15 140.452 27.775 137.902 25.125C135.402 22.425 132.127 21.075 128.077 21.075H124.852C121.202 21.075 117.977 22.575 115.177 25.575C112.377 28.575 110.977 31.925 110.977 35.625C110.977 43.375 113.227 47.25 117.727 47.25C120.477 47.25 122.352 46.475 123.352 44.925C123.752 44.325 124.127 42.925 124.477 40.725C124.727 39.175 125.352 38.4 126.352 38.4C127.302 38.4 127.927 39.175 128.227 40.725C128.627 42.925 129.027 44.325 129.427 44.925C130.427 46.475 132.277 47.25 134.977 47.25C137.477 47.25 139.302 45.775 140.452 42.825C141.302 40.725 141.727 38.2 141.727 35.25ZM188.194 11.55C188.194 13.8 187.419 15.85 185.869 17.7C184.369 19.5 182.519 20.575 180.319 20.925C185.069 24.275 187.444 28.65 187.444 34.05C187.444 39 185.444 43.1 181.444 46.35C177.744 49.45 173.369 51 168.319 51C163.269 51 158.894 49.45 155.194 46.35C151.194 43.1 149.194 39 149.194 34.05C149.194 28.75 151.519 24.425 156.169 21.075C155.369 21.175 154.569 21.225 153.769 21.225C150.819 21.225 149.344 20.55 149.344 19.2C149.344 17.95 149.969 17.325 151.219 17.325H178.744C180.244 17.325 181.569 16.75 182.719 15.6C183.869 14.4 184.444 13.05 184.444 11.55C184.444 10.05 184.269 8.95 183.919 8.25C183.569 7.5 182.819 6.65 181.669 5.7C181.169 5.3 180.919 4.825 180.919 4.275C180.919 2.975 181.544 2.325 182.794 2.325C183.194 2.325 183.569 2.45 183.919 2.7C185.569 3.95 186.694 5.225 187.294 6.525C187.894 7.775 188.194 9.45 188.194 11.55ZM183.694 34.05C183.694 30.6 182.269 27.575 179.419 24.975C176.569 22.375 173.419 21.075 169.969 21.075H166.669C163.169 21.075 159.994 22.375 157.144 24.975C154.344 27.575 152.944 30.6 152.944 34.05C152.944 37.95 154.569 41.175 157.819 43.725C160.769 46.075 164.269 47.25 168.319 47.25C172.369 47.25 175.869 46.075 178.819 43.725C182.069 41.175 183.694 37.95 183.694 34.05ZM226.787 35.4C226.787 39.7 226.012 43.2 224.462 45.9C222.562 49.3 219.612 51 215.612 51C212.662 51 210.262 49.8 208.412 47.4C206.662 45.15 205.787 42.525 205.787 39.525C205.787 36.325 206.762 33.8 208.712 31.95C210.662 30.05 213.237 29.1 216.437 29.1C217.487 29.1 218.437 29.575 219.287 30.525C220.187 31.425 220.637 32.4 220.637 33.45C220.637 34.65 220.212 35.675 219.362 36.525C218.562 37.325 217.562 37.725 216.362 37.725C215.312 37.725 214.362 37.375 213.512 36.675C212.712 35.925 212.262 35.025 212.162 33.975C210.362 35.175 209.462 37 209.462 39.45C209.462 41.4 209.987 43.125 211.037 44.625C212.237 46.375 213.762 47.25 215.612 47.25C220.562 47.25 223.037 43.35 223.037 35.55C223.037 25.85 218.937 21 210.737 21C202.737 21 198.737 23.45 198.737 28.35C198.737 29.7 199.362 31.7 200.612 34.35C201.912 36.95 202.562 39.125 202.562 40.875C202.562 43.925 201.787 46.375 200.237 48.225C198.687 50.075 196.412 51 193.412 51C186.912 51 183.662 46.325 183.662 36.975C183.662 35.725 184.287 35.1 185.537 35.1C186.587 35.1 187.237 36.15 187.487 38.25C187.887 41.35 188.237 43.3 188.537 44.1C189.337 46.2 190.962 47.25 193.412 47.25C197.012 47.25 198.812 45.125 198.812 40.875C198.812 39.525 198.162 37.575 196.862 35.025C195.612 32.475 194.987 30.225 194.987 28.275C194.987 24.325 196.712 21.4 200.162 19.5C202.912 18 206.437 17.25 210.737 17.25C216.037 17.25 220.087 19 222.887 22.5C225.487 25.7 226.787 30 226.787 35.4ZM299.358 34.05C299.358 36.75 298.858 39.175 297.858 41.325C298.758 43.125 299.208 45.05 299.208 47.1C299.208 48.45 298.933 50.05 298.383 51.9C297.733 54.15 296.883 55.275 295.833 55.275C294.533 55.275 293.883 54.675 293.883 53.475C293.883 52.925 294.133 51.925 294.633 50.475C295.183 49.025 295.458 47.925 295.458 47.175C295.458 46.475 295.383 45.825 295.233 45.225C291.683 49.075 286.683 51 280.233 51C270.683 51 265.908 47.875 265.908 41.625C265.908 35.325 270.683 32.175 280.233 32.175C286.383 32.175 291.358 34.025 295.158 37.725C295.458 36.575 295.608 35.35 295.608 34.05C295.608 25.35 293.358 21 288.858 21C286.208 21 284.358 21.65 283.308 22.95C282.858 23.5 282.433 24.725 282.033 26.625C281.733 27.925 281.133 28.575 280.233 28.575C279.433 28.575 278.833 27.925 278.433 26.625C277.883 24.775 277.358 23.55 276.858 22.95C275.758 21.65 274.008 21 271.608 21C269.858 21 268.333 21.475 267.033 22.425C265.583 23.475 264.858 24.85 264.858 26.55C264.858 27.05 265.033 27.725 265.383 28.575C265.783 29.425 265.983 30.1 265.983 30.6C265.983 31.5 265.508 31.95 264.558 31.95C263.408 31.95 262.508 31.325 261.858 30.075C261.358 29.125 261.108 28 261.108 26.7C261.108 23.9 262.183 21.6 264.333 19.8C266.333 18.1 268.758 17.25 271.608 17.25C275.208 17.25 278.033 18.5 280.083 21C281.983 18.5 284.908 17.25 288.858 17.25C295.858 17.25 299.358 22.85 299.358 34.05ZM293.508 41.4C292.108 39.65 290.108 38.275 287.508 37.275C285.158 36.375 282.733 35.925 280.233 35.925C273.183 35.925 269.658 37.825 269.658 41.625C269.658 45.375 273.183 47.25 280.233 47.25C286.383 47.25 290.808 45.3 293.508 41.4ZM342.076 11.55C342.076 13.8 341.301 15.85 339.751 17.7C338.251 19.5 336.401 20.575 334.201 20.925C338.951 24.275 341.326 28.65 341.326 34.05C341.326 39 339.326 43.1 335.326 46.35C331.626 49.45 327.251 51 322.201 51C317.151 51 312.776 49.45 309.076 46.35C305.076 43.1 303.076 39 303.076 34.05C303.076 28.75 305.401 24.425 310.051 21.075C309.251 21.175 308.451 21.225 307.651 21.225C304.701 21.225 303.226 20.55 303.226 19.2C303.226 17.95 303.851 17.325 305.101 17.325H332.626C334.126 17.325 335.451 16.75 336.601 15.6C337.751 14.4 338.326 13.05 338.326 11.55C338.326 10.05 338.151 8.95 337.801 8.25C337.451 7.5 336.701 6.65 335.551 5.7C335.051 5.3 334.801 4.825 334.801 4.275C334.801 2.975 335.426 2.325 336.676 2.325C337.076 2.325 337.451 2.45 337.801 2.7C339.451 3.95 340.576 5.225 341.176 6.525C341.776 7.775 342.076 9.45 342.076 11.55ZM337.576 34.05C337.576 30.6 336.151 27.575 333.301 24.975C330.451 22.375 327.301 21.075 323.851 21.075H320.551C317.051 21.075 313.876 22.375 311.026 24.975C308.226 27.575 306.826 30.6 306.826 34.05C306.826 37.95 308.451 41.175 311.701 43.725C314.651 46.075 318.151 47.25 322.201 47.25C326.251 47.25 329.751 46.075 332.701 43.725C335.951 41.175 337.576 37.95 337.576 34.05ZM361.019 34.05C361.019 38.6 360.169 42.375 358.469 45.375C356.369 49.125 353.219 51 349.019 51C344.669 51 341.594 49.6 339.794 46.8C338.294 44.5 337.544 41.075 337.544 36.525C337.544 35.275 338.169 34.65 339.419 34.65C340.669 34.65 341.294 35.275 341.294 36.525C341.294 39.975 341.719 42.475 342.569 44.025C343.719 46.175 345.869 47.25 349.019 47.25C352.019 47.25 354.244 45.7 355.694 42.6C356.744 40.3 357.269 37.45 357.269 34.05C357.269 31 356.744 28.25 355.694 25.8C354.294 22.6 352.244 21 349.544 21C348.294 21 347.669 20.375 347.669 19.125C347.669 17.875 348.294 17.25 349.544 17.25C353.444 17.25 356.444 19.175 358.544 23.025C360.194 26.125 361.019 29.8 361.019 34.05ZM433.538 37.425C433.538 41.175 432.738 44.275 431.138 46.725C429.288 49.575 426.588 51 423.038 51C419.338 51 416.463 49.575 414.413 46.725C412.313 49.575 409.438 51 405.788 51C402.888 51 400.413 49.875 398.363 47.625C396.313 45.375 395.288 42.8 395.288 39.9C395.288 37.1 396.388 34.725 398.588 32.775C400.838 30.775 403.363 29.775 406.163 29.775C407.313 29.775 408.288 30.2 409.088 31.05C409.938 31.9 410.363 32.9 410.363 34.05C410.363 35.2 409.938 36.2 409.088 37.05C408.288 37.85 407.313 38.25 406.163 38.25C403.813 38.25 402.413 37.125 401.963 34.875C400.013 36.175 399.038 37.85 399.038 39.9C399.038 41.8 399.688 43.5 400.988 45C402.338 46.5 403.938 47.25 405.788 47.25C408.038 47.25 409.738 46.525 410.888 45.075C411.388 44.425 411.963 43.1 412.613 41.1C413.063 39.7 413.663 39 414.413 39C415.163 39 415.763 39.7 416.213 41.1C416.813 43 417.388 44.325 417.938 45.075C419.038 46.525 420.738 47.25 423.038 47.25C427.538 47.25 429.788 43.975 429.788 37.425C429.788 32.825 428.363 28.95 425.513 25.8C422.663 22.6 418.963 21 414.413 21C413.163 21 412.538 20.375 412.538 19.125C412.538 17.875 413.163 17.25 414.413 17.25C419.963 17.25 424.538 19.225 428.138 23.175C431.738 27.075 433.538 31.825 433.538 37.425ZM471.006 34.125C471.006 38.825 469.356 42.825 466.056 46.125C462.806 49.375 458.831 51 454.131 51C449.431 51 445.431 49.375 442.131 46.125C438.881 42.825 437.256 38.825 437.256 34.125C437.256 29.425 438.881 25.45 442.131 22.2C445.431 18.9 449.431 17.25 454.131 17.25C458.831 17.25 462.806 18.9 466.056 22.2C469.356 25.45 471.006 29.425 471.006 34.125ZM467.256 34.125C467.256 30.525 465.956 27.45 463.356 24.9C460.806 22.3 457.731 21 454.131 21C450.531 21 447.431 22.3 444.831 24.9C442.281 27.45 441.006 30.525 441.006 34.125C441.006 37.725 442.281 40.825 444.831 43.425C447.431 45.975 450.531 47.25 454.131 47.25C457.731 47.25 460.806 45.975 463.356 43.425C465.956 40.825 467.256 37.725 467.256 34.125ZM513.006 38.7C513.006 42.85 510.731 46.05 506.181 48.3C502.581 50.1 498.481 51 493.881 51C481.081 51 474.681 45.375 474.681 34.125C474.681 32.875 475.306 32.25 476.556 32.25C477.806 32.25 478.431 32.875 478.431 34.125C478.431 38.975 479.856 42.45 482.706 44.55C485.156 46.35 488.881 47.25 493.881 47.25C497.331 47.25 500.506 46.65 503.406 45.45C507.306 43.9 509.256 41.65 509.256 38.7C509.256 36.35 508.156 34.475 505.956 33.075C504.906 35.225 503.256 36.925 501.006 38.175C498.756 39.425 496.381 40.05 493.881 40.05C491.281 40.05 488.981 39.575 486.981 38.625C484.481 37.375 483.231 35.575 483.231 33.225C483.231 30.975 484.506 29.25 487.056 28.05C489.056 27.1 491.331 26.625 493.881 26.625C497.181 26.625 500.206 27.025 502.956 27.825C502.656 25.925 501.781 24.4 500.331 23.25C498.931 22.05 497.256 21.325 495.306 21.075H476.781C475.531 21.075 474.906 20.45 474.906 19.2C474.906 17.95 475.531 17.325 476.781 17.325H502.506V20.325C505.656 22.775 507.131 25.775 506.931 29.325C510.981 31.425 513.006 34.55 513.006 38.7ZM502.506 31.575C499.956 30.775 497.081 30.375 493.881 30.375C489.431 30.375 487.181 31.325 487.131 33.225C487.081 35.275 489.331 36.3 493.881 36.3C498.331 36.3 501.206 34.725 502.506 31.575ZM539.749 34.275C539.749 38.625 538.749 42.375 536.749 45.525C534.399 49.225 531.174 51.075 527.074 51.075C524.024 51.075 521.499 49.975 519.499 47.775C517.499 45.525 516.499 42.85 516.499 39.75C516.499 36.4 517.649 33.775 519.949 31.875C522.099 30.075 524.874 29.175 528.274 29.175C529.174 29.175 530.049 29.7 530.899 30.75C531.749 31.75 532.174 32.725 532.174 33.675C532.174 34.875 531.749 35.9 530.899 36.75C530.099 37.55 529.099 37.95 527.899 37.95C526.799 37.95 525.824 37.55 524.974 36.75C524.174 35.95 523.749 35 523.699 33.9C521.349 35.1 520.174 37.05 520.174 39.75C520.174 41.75 520.824 43.525 522.124 45.075C523.474 46.575 525.124 47.325 527.074 47.325C530.074 47.325 532.374 45.825 533.974 42.825C535.324 40.375 535.999 37.525 535.999 34.275C535.999 31.025 535.324 28.15 533.974 25.65C532.374 22.6 530.074 21.075 527.074 21.075H501.124C499.624 20.875 498.874 20.25 498.874 19.2C498.874 17.95 499.499 17.325 500.749 17.325H527.224C531.324 17.325 534.524 19.2 536.824 22.95C538.774 26.1 539.749 29.875 539.749 34.275ZM582.53 11.55C582.53 13.75 581.78 15.775 580.28 17.625C578.83 19.425 577.005 20.525 574.805 20.925C579.455 24.225 581.78 29 581.78 35.25C581.78 39.35 581.055 42.8 579.605 45.6C577.755 49.2 574.98 51 571.28 51C567.38 51 564.505 49.7 562.655 47.1C560.905 49.7 558.03 51 554.03 51C547.03 51 543.53 45.875 543.53 35.625C543.53 29.575 546.03 24.725 551.03 21.075C550.18 21.175 549.305 21.225 548.405 21.225C545.255 21.225 543.68 20.55 543.68 19.2C543.68 17.95 544.305 17.325 545.555 17.325H573.08C574.58 17.325 575.905 16.75 577.055 15.6C578.205 14.4 578.78 13.05 578.78 11.55C578.78 10.05 578.605 8.95 578.255 8.25C577.905 7.5 577.155 6.65 576.005 5.7C575.505 5.3 575.255 4.825 575.255 4.275C575.255 2.975 575.88 2.325 577.13 2.325C577.53 2.325 577.905 2.45 578.255 2.7C579.905 3.95 581.03 5.225 581.63 6.525C582.23 7.775 582.53 9.45 582.53 11.55ZM578.03 35.25C578.03 31.15 576.755 27.775 574.205 25.125C571.705 22.425 568.43 21.075 564.38 21.075H561.155C557.505 21.075 554.28 22.575 551.48 25.575C548.68 28.575 547.28 31.925 547.28 35.625C547.28 43.375 549.53 47.25 554.03 47.25C556.78 47.25 558.655 46.475 559.655 44.925C560.055 44.325 560.43 42.925 560.78 40.725C561.03 39.175 561.655 38.4 562.655 38.4C563.605 38.4 564.23 39.175 564.53 40.725C564.93 42.925 565.33 44.325 565.73 44.925C566.73 46.475 568.58 47.25 571.28 47.25C573.78 47.25 575.605 45.775 576.755 42.825C577.605 40.725 578.03 38.2 578.03 35.25ZM624.498 11.55C624.498 13.8 623.723 15.85 622.173 17.7C620.673 19.5 618.823 20.575 616.623 20.925C621.373 24.275 623.748 28.65 623.748 34.05C623.748 39 621.748 43.1 617.748 46.35C614.048 49.45 609.673 51 604.623 51C599.573 51 595.198 49.45 591.498 46.35C587.498 43.1 585.498 39 585.498 34.05C585.498 28.75 587.823 24.425 592.473 21.075C591.673 21.175 590.873 21.225 590.073 21.225C587.123 21.225 585.648 20.55 585.648 19.2C585.648 17.95 586.273 17.325 587.523 17.325H615.048C616.548 17.325 617.873 16.75 619.023 15.6C620.173 14.4 620.748 13.05 620.748 11.55C620.748 10.05 620.573 8.95 620.223 8.25C619.873 7.5 619.123 6.65 617.973 5.7C617.473 5.3 617.223 4.825 617.223 4.275C617.223 2.975 617.848 2.325 619.098 2.325C619.498 2.325 619.873 2.45 620.223 2.7C621.873 3.95 622.998 5.225 623.598 6.525C624.198 7.775 624.498 9.45 624.498 11.55ZM619.998 34.05C619.998 30.6 618.573 27.575 615.723 24.975C612.873 22.375 609.723 21.075 606.273 21.075H602.973C599.473 21.075 596.298 22.375 593.448 24.975C590.648 27.575 589.248 30.6 589.248 34.05C589.248 37.95 590.873 41.175 594.123 43.725C597.073 46.075 600.573 47.25 604.623 47.25C608.673 47.25 612.173 46.075 615.123 43.725C618.373 41.175 619.998 37.95 619.998 34.05ZM643.441 34.05C643.441 38.6 642.591 42.375 640.891 45.375C638.791 49.125 635.641 51 631.441 51C627.091 51 624.016 49.6 622.216 46.8C620.716 44.5 619.966 41.075 619.966 36.525C619.966 35.275 620.591 34.65 621.841 34.65C623.091 34.65 623.716 35.275 623.716 36.525C623.716 39.975 624.141 42.475 624.991 44.025C626.141 46.175 628.291 47.25 631.441 47.25C634.441 47.25 636.666 45.7 638.116 42.6C639.166 40.3 639.691 37.45 639.691 34.05C639.691 31 639.166 28.25 638.116 25.8C636.716 22.6 634.666 21 631.966 21C630.716 21 630.091 20.375 630.091 19.125C630.091 17.875 630.716 17.25 631.966 17.25C635.866 17.25 638.866 19.175 640.966 23.025C642.616 26.125 643.441 29.8 643.441 34.05ZM715.96 34.05C715.96 36.75 715.46 39.175 714.46 41.325C715.36 43.125 715.81 45.05 715.81 47.1C715.81 48.45 715.535 50.05 714.985 51.9C714.335 54.15 713.485 55.275 712.435 55.275C711.135 55.275 710.485 54.675 710.485 53.475C710.485 52.925 710.735 51.925 711.235 50.475C711.785 49.025 712.06 47.925 712.06 47.175C712.06 46.475 711.985 45.825 711.835 45.225C708.285 49.075 703.285 51 696.835 51C687.285 51 682.51 47.875 682.51 41.625C682.51 35.325 687.285 32.175 696.835 32.175C702.985 32.175 707.96 34.025 711.76 37.725C712.06 36.575 712.21 35.35 712.21 34.05C712.21 25.35 709.96 21 705.46 21C702.81 21 700.96 21.65 699.91 22.95C699.46 23.5 699.035 24.725 698.635 26.625C698.335 27.925 697.735 28.575 696.835 28.575C696.035 28.575 695.435 27.925 695.035 26.625C694.485 24.775 693.96 23.55 693.46 22.95C692.36 21.65 690.61 21 688.21 21C686.46 21 684.935 21.475 683.635 22.425C682.185 23.475 681.46 24.85 681.46 26.55C681.46 27.05 681.635 27.725 681.985 28.575C682.385 29.425 682.585 30.1 682.585 30.6C682.585 31.5 682.11 31.95 681.16 31.95C680.01 31.95 679.11 31.325 678.46 30.075C677.96 29.125 677.71 28 677.71 26.7C677.71 23.9 678.785 21.6 680.935 19.8C682.935 18.1 685.36 17.25 688.21 17.25C691.81 17.25 694.635 18.5 696.685 21C698.585 18.5 701.51 17.25 705.46 17.25C712.46 17.25 715.96 22.85 715.96 34.05ZM710.11 41.4C708.71 39.65 706.71 38.275 704.11 37.275C701.76 36.375 699.335 35.925 696.835 35.925C689.785 35.925 686.26 37.825 686.26 41.625C686.26 45.375 689.785 47.25 696.835 47.25C702.985 47.25 707.41 45.3 710.11 41.4ZM758.678 11.55C758.678 13.8 757.903 15.85 756.353 17.7C754.853 19.5 753.003 20.575 750.803 20.925C755.553 24.275 757.928 28.65 757.928 34.05C757.928 39 755.928 43.1 751.928 46.35C748.228 49.45 743.853 51 738.803 51C733.753 51 729.378 49.45 725.678 46.35C721.678 43.1 719.678 39 719.678 34.05C719.678 28.75 722.003 24.425 726.653 21.075C725.853 21.175 725.053 21.225 724.253 21.225C721.303 21.225 719.828 20.55 719.828 19.2C719.828 17.95 720.453 17.325 721.703 17.325H749.228C750.728 17.325 752.053 16.75 753.203 15.6C754.353 14.4 754.928 13.05 754.928 11.55C754.928 10.05 754.753 8.95 754.403 8.25C754.053 7.5 753.303 6.65 752.153 5.7C751.653 5.3 751.403 4.825 751.403 4.275C751.403 2.975 752.028 2.325 753.278 2.325C753.678 2.325 754.053 2.45 754.403 2.7C756.053 3.95 757.178 5.225 757.778 6.525C758.378 7.775 758.678 9.45 758.678 11.55ZM754.178 34.05C754.178 30.6 752.753 27.575 749.903 24.975C747.053 22.375 743.903 21.075 740.453 21.075H737.153C733.653 21.075 730.478 22.375 727.628 24.975C724.828 27.575 723.428 30.6 723.428 34.05C723.428 37.95 725.053 41.175 728.303 43.725C731.253 46.075 734.753 47.25 738.803 47.25C742.853 47.25 746.353 46.075 749.303 43.725C752.553 41.175 754.178 37.95 754.178 34.05ZM777.621 34.05C777.621 38.6 776.771 42.375 775.071 45.375C772.971 49.125 769.821 51 765.621 51C761.271 51 758.196 49.6 756.396 46.8C754.896 44.5 754.146 41.075 754.146 36.525C754.146 35.275 754.771 34.65 756.021 34.65C757.271 34.65 757.896 35.275 757.896 36.525C757.896 39.975 758.321 42.475 759.171 44.025C760.321 46.175 762.471 47.25 765.621 47.25C768.621 47.25 770.846 45.7 772.296 42.6C773.346 40.3 773.871 37.45 773.871 34.05C773.871 31 773.346 28.25 772.296 25.8C770.896 22.6 768.846 21 766.146 21C764.896 21 764.271 20.375 764.271 19.125C764.271 17.875 764.896 17.25 766.146 17.25C770.046 17.25 773.046 19.175 775.146 23.025C776.796 26.125 777.621 29.8 777.621 34.05ZM850.14 37.425C850.14 41.175 849.34 44.275 847.74 46.725C845.89 49.575 843.19 51 839.64 51C835.94 51 833.065 49.575 831.015 46.725C828.915 49.575 826.04 51 822.39 51C819.49 51 817.015 49.875 814.965 47.625C812.915 45.375 811.89 42.8 811.89 39.9C811.89 37.1 812.99 34.725 815.19 32.775C817.44 30.775 819.965 29.775 822.765 29.775C823.915 29.775 824.89 30.2 825.69 31.05C826.54 31.9 826.965 32.9 826.965 34.05C826.965 35.2 826.54 36.2 825.69 37.05C824.89 37.85 823.915 38.25 822.765 38.25C820.415 38.25 819.015 37.125 818.565 34.875C816.615 36.175 815.64 37.85 815.64 39.9C815.64 41.8 816.29 43.5 817.59 45C818.94 46.5 820.54 47.25 822.39 47.25C824.64 47.25 826.34 46.525 827.49 45.075C827.99 44.425 828.565 43.1 829.215 41.1C829.665 39.7 830.265 39 831.015 39C831.765 39 832.365 39.7 832.815 41.1C833.415 43 833.99 44.325 834.54 45.075C835.64 46.525 837.34 47.25 839.64 47.25C844.14 47.25 846.39 43.975 846.39 37.425C846.39 32.825 844.965 28.95 842.115 25.8C839.265 22.6 835.565 21 831.015 21C829.765 21 829.14 20.375 829.14 19.125C829.14 17.875 829.765 17.25 831.015 17.25C836.565 17.25 841.14 19.225 844.74 23.175C848.34 27.075 850.14 31.825 850.14 37.425ZM887.607 34.125C887.607 38.825 885.957 42.825 882.657 46.125C879.407 49.375 875.432 51 870.732 51C866.032 51 862.032 49.375 858.732 46.125C855.482 42.825 853.857 38.825 853.857 34.125C853.857 29.425 855.482 25.45 858.732 22.2C862.032 18.9 866.032 17.25 870.732 17.25C875.432 17.25 879.407 18.9 882.657 22.2C885.957 25.45 887.607 29.425 887.607 34.125ZM883.857 34.125C883.857 30.525 882.557 27.45 879.957 24.9C877.407 22.3 874.332 21 870.732 21C867.132 21 864.032 22.3 861.432 24.9C858.882 27.45 857.607 30.525 857.607 34.125C857.607 37.725 858.882 40.825 861.432 43.425C864.032 45.975 867.132 47.25 870.732 47.25C874.332 47.25 877.407 45.975 879.957 43.425C882.557 40.825 883.857 37.725 883.857 34.125ZM929.607 35.25C929.607 39.35 928.882 42.8 927.432 45.6C925.582 49.2 922.807 51 919.107 51C915.207 51 912.332 49.7 910.482 47.1C908.732 49.7 905.857 51 901.857 51C894.857 51 891.357 45.875 891.357 35.625C891.357 29.575 893.857 24.725 898.857 21.075C898.007 21.175 897.132 21.225 896.232 21.225C893.082 21.225 891.507 20.55 891.507 19.2C891.507 17.95 892.132 17.325 893.382 17.325H919.107V18.975C922.457 20.375 925.032 22.525 926.832 25.425C928.682 28.275 929.607 31.55 929.607 35.25ZM925.857 35.25C925.857 31.15 924.582 27.775 922.032 25.125C919.532 22.425 916.257 21.075 912.207 21.075H908.982C905.332 21.075 902.107 22.575 899.307 25.575C896.507 28.575 895.107 31.925 895.107 35.625C895.107 43.375 897.357 47.25 901.857 47.25C904.607 47.25 906.482 46.475 907.482 44.925C907.882 44.325 908.257 42.925 908.607 40.725C908.857 39.175 909.482 38.4 910.482 38.4C911.432 38.4 912.057 39.175 912.357 40.725C912.757 42.925 913.157 44.325 913.557 44.925C914.557 46.475 916.407 47.25 919.107 47.25C921.607 47.25 923.432 45.775 924.582 42.825C925.432 40.725 925.857 38.2 925.857 35.25ZM929.575 11.475C929.575 13.975 928.625 16.2 926.725 18.15C924.825 20.05 922.625 21 920.125 21H915.475C914.225 21 913.6 20.375 913.6 19.125C913.6 18.075 914.65 17.45 916.75 17.25C920 17 921.975 16.725 922.675 16.425C924.775 15.625 925.825 13.975 925.825 11.475C925.825 6.675 924 4.275 920.35 4.275C919.35 4.275 918.45 4.55 917.65 5.1C916.7 5.7 916.25 6.475 916.3 7.425C916.3 7.675 916.35 7.8 916.45 7.8C915.85 7.8 916.125 7.525 917.275 6.975C918.375 6.425 919.175 6.15 919.675 6.15C920.775 6.15 921.725 6.55 922.525 7.35C923.325 8.15 923.725 9.1 923.725 10.2C923.725 11.3 923.325 12.25 922.525 13.05C921.725 13.85 920.775 14.25 919.675 14.25C914.875 14.25 912.5 11.975 912.55 7.425C912.6 5.375 913.475 3.7 915.175 2.4C916.875 1.1 918.8 0.449998 920.95 0.449998C926.7 0.449998 929.575 4.125 929.575 11.475ZM967.148 34.125C967.148 38.825 965.498 42.825 962.198 46.125C958.948 49.375 954.973 51 950.273 51C945.573 51 941.573 49.375 938.273 46.125C935.023 42.825 933.398 38.825 933.398 34.125C933.398 29.425 935.023 25.45 938.273 22.2C941.573 18.9 945.573 17.25 950.273 17.25C954.973 17.25 958.948 18.9 962.198 22.2C965.498 25.45 967.148 29.425 967.148 34.125ZM963.398 34.125C963.398 30.525 962.098 27.45 959.498 24.9C956.948 22.3 953.873 21 950.273 21C946.673 21 943.573 22.3 940.973 24.9C938.423 27.45 937.148 30.525 937.148 34.125C937.148 37.725 938.423 40.825 940.973 43.425C943.573 45.975 946.673 47.25 950.273 47.25C953.873 47.25 956.948 45.975 959.498 43.425C962.098 40.825 963.398 37.725 963.398 34.125ZM1009.15 35.55C1009.15 45.85 1005.65 51 998.648 51C994.948 51 992.098 49.725 990.098 47.175C988.198 49.725 985.298 51 981.398 51C974.398 51 970.898 46.375 970.898 37.125C970.898 35.325 971.223 33.4 971.873 31.35C972.573 29.05 973.498 27.4 974.648 26.4C974.398 25.6 974.273 24.75 974.273 23.85C974.273 17.75 978.948 14.7 988.298 14.7C994.648 14.7 999.698 16.6 1003.45 20.4C1007.25 24.15 1009.15 29.2 1009.15 35.55ZM991.298 23.475C991.298 20.175 989.598 18.525 986.198 18.525C980.748 18.525 978.023 20.3 978.023 23.85C978.023 26.85 980.273 28.35 984.773 28.35C989.123 28.35 991.298 26.725 991.298 23.475ZM1005.4 35.55C1005.4 31.45 1004.5 27.925 1002.7 24.975C1000.6 21.625 997.648 19.6 993.848 18.9C994.648 20.15 995.048 21.675 995.048 23.475C995.048 26.275 993.998 28.45 991.898 30C990.048 31.4 987.673 32.1 984.773 32.1C981.523 32.1 978.898 31.325 976.898 29.775C975.398 30.975 974.648 33.425 974.648 37.125C974.648 40.225 974.998 42.525 975.698 44.025C976.748 46.175 978.648 47.25 981.398 47.25C983.948 47.25 985.748 46.6 986.798 45.3C987.248 44.75 987.723 43.525 988.223 41.625C988.573 40.325 989.173 39.675 990.023 39.675C990.823 39.675 991.423 40.325 991.823 41.625C992.373 43.475 992.898 44.7 993.398 45.3C994.498 46.6 996.248 47.25 998.648 47.25C1003.15 47.25 1005.4 43.35 1005.4 35.55ZM1051.87 11.55C1051.87 13.75 1051.12 15.775 1049.62 17.625C1048.17 19.425 1046.37 20.525 1044.22 20.925C1048.82 24.075 1051.12 28.45 1051.12 34.05C1051.12 41.55 1047.57 47.125 1040.47 50.775C1040.17 50.925 1039.87 51 1039.57 51C1038.37 51 1037.77 50.35 1037.77 49.05C1037.77 48.35 1038.12 47.825 1038.82 47.475C1044.52 44.525 1047.37 40.05 1047.37 34.05C1047.37 30.3 1046.04 27.2 1043.39 24.75C1040.74 22.3 1037.52 21.075 1033.72 21.075H1030.27C1026.57 21.425 1023.42 22.725 1020.82 24.975C1018.02 27.425 1016.62 30.45 1016.62 34.05C1016.62 40.45 1019.42 44.9 1025.02 47.4C1025.77 47.75 1026.14 48.3 1026.14 49.05C1026.14 50.35 1025.54 51 1024.34 51C1023.99 51 1023.72 50.95 1023.52 50.85C1016.42 47.65 1012.87 42.05 1012.87 34.05C1012.87 28.65 1015.14 24.325 1019.69 21.075H1014.89C1013.64 21.075 1013.02 20.45 1013.02 19.2C1013.02 17.95 1013.64 17.325 1014.89 17.325H1042.42C1043.92 17.325 1045.24 16.75 1046.39 15.6C1047.54 14.4 1048.12 13.05 1048.12 11.55C1048.12 10.05 1047.94 8.95 1047.59 8.25C1047.24 7.5 1046.49 6.65 1045.34 5.7C1044.84 5.3 1044.59 4.825 1044.59 4.275C1044.59 2.975 1045.22 2.325 1046.47 2.325C1046.87 2.325 1047.24 2.45 1047.59 2.7C1049.24 3.95 1050.37 5.225 1050.97 6.525C1051.57 7.775 1051.87 9.45 1051.87 11.55ZM1090.46 35.4C1090.46 39.7 1089.68 43.2 1088.13 45.9C1086.23 49.3 1083.28 51 1079.28 51C1076.33 51 1073.93 49.8 1072.08 47.4C1070.33 45.15 1069.46 42.525 1069.46 39.525C1069.46 36.325 1070.43 33.8 1072.38 31.95C1074.33 30.05 1076.91 29.1 1080.11 29.1C1081.16 29.1 1082.11 29.575 1082.96 30.525C1083.86 31.425 1084.31 32.4 1084.31 33.45C1084.31 34.65 1083.88 35.675 1083.03 36.525C1082.23 37.325 1081.23 37.725 1080.03 37.725C1078.98 37.725 1078.03 37.375 1077.18 36.675C1076.38 35.925 1075.93 35.025 1075.83 33.975C1074.03 35.175 1073.13 37 1073.13 39.45C1073.13 41.4 1073.66 43.125 1074.71 44.625C1075.91 46.375 1077.43 47.25 1079.28 47.25C1084.23 47.25 1086.71 43.35 1086.71 35.55C1086.71 25.85 1082.61 21 1074.41 21C1066.41 21 1062.41 23.45 1062.41 28.35C1062.41 29.7 1063.03 31.7 1064.28 34.35C1065.58 36.95 1066.23 39.125 1066.23 40.875C1066.23 43.925 1065.46 46.375 1063.91 48.225C1062.36 50.075 1060.08 51 1057.08 51C1050.58 51 1047.33 46.325 1047.33 36.975C1047.33 35.725 1047.96 35.1 1049.21 35.1C1050.26 35.1 1050.91 36.15 1051.16 38.25C1051.56 41.35 1051.91 43.3 1052.21 44.1C1053.01 46.2 1054.63 47.25 1057.08 47.25C1060.68 47.25 1062.48 45.125 1062.48 40.875C1062.48 39.525 1061.83 37.575 1060.53 35.025C1059.28 32.475 1058.66 30.225 1058.66 28.275C1058.66 24.325 1060.38 21.4 1063.83 19.5C1066.58 18 1070.11 17.25 1074.41 17.25C1079.71 17.25 1083.76 19 1086.56 22.5C1089.16 25.7 1090.46 30 1090.46 35.4ZM1163.03 35.925C1163.03 39.975 1162.31 43.325 1160.86 45.975C1159.06 49.325 1156.28 51 1152.53 51C1148.58 51 1145.78 49.7 1144.13 47.1C1143.53 45.5 1142.58 43.075 1141.28 39.825C1140.18 37.225 1138.18 35.925 1135.28 35.925C1130.78 35.925 1128.53 37.825 1128.53 41.625C1128.53 43.075 1129.03 44.3 1130.03 45.3C1130.33 45.6 1131.26 46.25 1132.81 47.25C1133.81 47.9 1134.31 48.5 1134.31 49.05C1134.31 50.35 1133.78 51 1132.73 51C1130.73 51 1128.88 49.925 1127.18 47.775C1125.58 45.775 1124.78 43.725 1124.78 41.625C1124.78 38.625 1125.81 36.275 1127.86 34.575C1129.76 32.975 1132.23 32.175 1135.28 32.175C1139.23 32.175 1142.01 33.475 1143.61 36.075C1144.21 37.675 1145.13 40.1 1146.38 43.35C1147.48 45.95 1149.53 47.25 1152.53 47.25C1157.03 47.25 1159.28 43.475 1159.28 35.925C1159.28 27.875 1156.63 22.65 1151.33 20.25C1151.58 20.9 1151.71 21.6 1151.71 22.35C1151.71 24.8 1150.43 26.75 1147.88 28.2C1145.78 29.4 1143.41 30 1140.76 30C1138.11 30 1135.73 29.4 1133.63 28.2C1131.08 26.75 1129.81 24.8 1129.81 22.35C1129.81 19.9 1131.08 17.95 1133.63 16.5C1135.73 15.3 1138.11 14.7 1140.76 14.7C1147.86 14.7 1153.33 16.475 1157.18 20.025C1161.08 23.575 1163.03 28.875 1163.03 35.925ZM1147.96 22.35C1147.96 21.1 1147.03 20.1 1145.18 19.35C1143.73 18.75 1142.26 18.45 1140.76 18.45C1139.26 18.45 1137.78 18.75 1136.33 19.35C1134.48 20.1 1133.56 21.1 1133.56 22.35C1133.56 23.6 1134.48 24.6 1136.33 25.35C1137.78 25.95 1139.26 26.25 1140.76 26.25C1142.26 26.25 1143.73 25.95 1145.18 25.35C1147.03 24.6 1147.96 23.6 1147.96 22.35ZM1189.77 27.975C1189.77 31.075 1188.75 33.625 1186.7 35.625C1184.7 37.575 1182.15 38.55 1179.05 38.55C1175.55 38.55 1172.77 37.35 1170.72 34.95C1170.87 38 1171.57 40.675 1172.82 42.975C1174.42 45.825 1176.6 47.25 1179.35 47.25C1181.15 47.25 1183.02 46.75 1184.97 45.75C1186.92 44.75 1187.87 44.25 1187.82 44.25C1189.07 44.25 1189.7 44.75 1189.7 45.75C1189.7 47.5 1188.32 48.875 1185.57 49.875C1183.57 50.625 1181.5 51 1179.35 51C1174.9 51 1171.6 49.15 1169.45 45.45C1167.65 42.35 1166.8 38.45 1166.9 33.75C1167.1 22.75 1171.2 17.25 1179.2 17.25C1182.05 17.25 1184.52 18.325 1186.62 20.475C1188.72 22.575 1189.77 25.075 1189.77 27.975ZM1186.02 27.975C1186.02 26.125 1185.35 24.5 1184 23.1C1182.65 21.7 1181.05 21 1179.2 21C1177.3 21 1175.62 21.675 1174.17 23.025C1172.77 24.325 1172.07 25.925 1172.07 27.825C1172.07 29.875 1172.7 31.575 1173.95 32.925C1175.25 34.225 1176.92 34.875 1178.97 34.875C1181.02 34.875 1182.7 34.25 1184 33C1185.35 31.7 1186.02 30.025 1186.02 27.975ZM1263.1 11.55C1263.1 14.1 1262.15 16.325 1260.25 18.225C1258.4 20.125 1256.2 21.075 1253.65 21.075H1245.17C1246.77 21.825 1247.57 23.1 1247.57 24.9C1247.57 25.95 1247.22 26.875 1246.52 27.675C1245.82 28.475 1244.95 28.95 1243.9 29.1H1260.47C1261.72 29.1 1262.35 29.725 1262.35 30.975C1262.35 32.225 1261.72 32.85 1260.47 32.85H1257.1C1259.6 34.75 1260.85 37.15 1260.85 40.05C1260.85 43.9 1258.75 46.8 1254.55 48.75C1251.35 50.25 1247.57 51 1243.22 51C1238.87 51 1235.1 50.25 1231.9 48.75C1227.7 46.8 1225.6 43.9 1225.6 40.05C1225.6 37.15 1226.85 34.75 1229.35 32.85H1225.97C1224.72 32.85 1224.1 32.225 1224.1 30.975C1224.1 29.725 1224.72 29.1 1225.97 29.1H1242.77C1241.72 28.95 1240.85 28.475 1240.15 27.675C1239.45 26.875 1239.1 25.95 1239.1 24.9C1239.1 23.1 1239.9 21.825 1241.5 21.075H1226.05C1224.8 21.075 1224.17 20.45 1224.17 19.2C1224.17 17.95 1224.8 17.325 1226.05 17.325H1253.65C1255.15 17.325 1256.47 16.75 1257.62 15.6C1258.77 14.4 1259.35 13.05 1259.35 11.55C1259.35 10.05 1259.17 8.95 1258.82 8.25C1258.47 7.5 1257.72 6.65 1256.57 5.7C1256.07 5.3 1255.82 4.825 1255.82 4.275C1255.82 2.975 1256.45 2.325 1257.7 2.325C1258.1 2.325 1258.47 2.45 1258.82 2.7C1260.47 3.95 1261.6 5.225 1262.2 6.525C1262.8 7.775 1263.1 9.45 1263.1 11.55ZM1257.1 40.05C1257.1 37.4 1255.32 35.45 1251.77 34.2C1249.27 33.3 1246.42 32.85 1243.22 32.85C1240.02 32.85 1237.17 33.3 1234.67 34.2C1231.12 35.45 1229.35 37.4 1229.35 40.05C1229.35 42.7 1231.12 44.65 1234.67 45.9C1237.17 46.8 1240.02 47.25 1243.22 47.25C1246.42 47.25 1249.27 46.8 1251.77 45.9C1255.32 44.65 1257.1 42.7 1257.1 40.05ZM1305.06 11.55C1305.06 14.05 1304.14 16.25 1302.29 18.15C1301.04 19.5 1299.61 20.375 1298.01 20.775C1302.16 23.775 1304.24 28.55 1304.24 35.1C1304.24 45.7 1300.74 51 1293.74 51C1286.74 51 1283.24 47.375 1283.24 40.125C1283.24 35.675 1280.99 33.45 1276.49 33.45C1274.59 33.45 1272.99 34.125 1271.69 35.475C1270.44 36.775 1269.81 38.375 1269.81 40.275C1269.81 43.775 1271.84 46.125 1275.89 47.325C1276.79 47.575 1277.24 48.15 1277.24 49.05C1277.24 50.35 1276.64 51 1275.44 51C1274.34 51 1273.04 50.525 1271.54 49.575C1270.04 48.575 1268.91 47.575 1268.16 46.575C1266.76 44.725 1266.06 42.625 1266.06 40.275C1266.06 37.325 1267.06 34.825 1269.06 32.775C1271.06 30.725 1273.54 29.7 1276.49 29.7C1283.49 29.7 1286.99 33.175 1286.99 40.125C1286.99 44.875 1289.24 47.25 1293.74 47.25C1298.24 47.25 1300.49 43.2 1300.49 35.1C1300.49 30.7 1299.36 27.275 1297.11 24.825C1294.91 22.325 1291.64 21.075 1287.29 21.075H1268.01C1266.76 21.075 1266.14 20.45 1266.14 19.2C1266.14 17.95 1266.76 17.325 1268.01 17.325H1295.61C1297.11 17.325 1298.44 16.75 1299.59 15.6C1300.74 14.4 1301.31 13.05 1301.31 11.55C1301.31 10.05 1301.14 8.95 1300.79 8.25C1300.44 7.5 1299.69 6.65 1298.54 5.7C1298.04 5.3 1297.79 4.825 1297.79 4.275C1297.79 2.975 1298.41 2.325 1299.66 2.325C1300.06 2.325 1300.44 2.45 1300.79 2.7C1302.44 3.95 1303.56 5.225 1304.16 6.525C1304.76 7.775 1305.06 9.45 1305.06 11.55ZM1321.76 71.25C1321.76 72.55 1320.81 73.2 1318.91 73.2C1315.31 73.2 1312.56 71.075 1310.66 66.825C1308.26 69.075 1305.63 70.2 1302.78 70.2C1295.83 70.2 1292.36 67.325 1292.36 61.575C1292.36 55.575 1295.96 52.575 1303.16 52.575C1306.81 52.575 1309.61 54.8 1311.56 59.25C1312.51 57.25 1312.98 53.45 1312.98 47.85C1312.98 43.9 1311.63 40.2 1308.93 36.75C1307.98 35.55 1307.51 34.825 1307.51 34.575C1307.51 33.325 1308.13 32.7 1309.38 32.7C1311.63 32.7 1313.56 35.025 1315.16 39.675C1316.41 43.325 1317.03 46.575 1317.03 49.425C1317.03 55.325 1315.81 60.075 1313.36 63.675C1314.11 65.625 1314.83 66.975 1315.53 67.725C1316.53 68.825 1317.91 69.375 1319.66 69.375C1321.06 69.375 1321.76 70 1321.76 71.25ZM1309.08 63.075C1308.28 60.925 1307.61 59.45 1307.06 58.65C1306.01 57.1 1304.71 56.325 1303.16 56.325C1298.41 56.325 1296.06 58.075 1296.11 61.575C1296.16 63.625 1296.81 65 1298.06 65.7C1299.01 66.2 1300.58 66.45 1302.78 66.45C1305.08 66.45 1307.18 65.325 1309.08 63.075ZM1357.43 11.55C1357.43 13.85 1356.66 15.925 1355.11 17.775C1353.56 19.575 1351.63 20.65 1349.33 21C1351.63 23 1352.96 25.775 1353.31 29.325C1355.56 31.425 1356.68 33.825 1356.68 36.525C1356.68 40.575 1355.96 43.85 1354.51 46.35C1352.71 49.45 1349.93 51 1346.18 51C1342.28 51 1339.41 49.7 1337.56 47.1C1335.81 49.7 1332.93 51 1328.93 51C1321.93 51 1318.43 45.875 1318.43 35.625C1318.43 29.125 1320.46 24.275 1324.51 21.075H1320.46C1319.16 21.075 1318.51 20.45 1318.51 19.2C1318.51 17.95 1319.16 17.325 1320.46 17.325H1347.98C1349.48 17.325 1350.81 16.75 1351.96 15.6C1353.11 14.4 1353.68 13.05 1353.68 11.55C1353.68 10.05 1353.51 8.95 1353.16 8.25C1352.81 7.5 1352.06 6.65 1350.91 5.7C1350.41 5.3 1350.16 4.825 1350.16 4.275C1350.16 2.975 1350.78 2.325 1352.03 2.325C1352.43 2.325 1352.81 2.45 1353.16 2.7C1354.81 3.95 1355.93 5.225 1356.53 6.525C1357.13 7.775 1357.43 9.45 1357.43 11.55ZM1349.71 31.275C1348.76 30.575 1347.71 30.225 1346.56 30.225C1345.61 30.225 1344.73 30.575 1343.93 31.275C1343.13 31.925 1342.73 32.725 1342.73 33.675C1342.73 34.525 1343.03 35.225 1343.63 35.775C1344.28 36.325 1345.03 36.6 1345.88 36.6C1348.28 36.6 1349.56 34.825 1349.71 31.275ZM1352.93 36.525C1352.93 35.925 1352.81 35.3 1352.56 34.65C1352.16 38.45 1349.93 40.35 1345.88 40.35C1344.03 40.35 1342.41 39.7 1341.01 38.4C1339.66 37.1 1338.98 35.525 1338.98 33.675C1338.98 29.075 1341.26 26.775 1345.81 26.775C1347.31 26.775 1348.58 27.05 1349.63 27.6C1348.98 25.5 1347.66 23.85 1345.66 22.65C1343.81 21.6 1341.71 21.075 1339.36 21.075H1335.46C1331.06 21.075 1327.71 22.425 1325.41 25.125C1323.26 27.625 1322.18 31.125 1322.18 35.625C1322.18 43.375 1324.43 47.25 1328.93 47.25C1331.68 47.25 1333.56 46.475 1334.56 44.925C1334.96 44.325 1335.33 42.925 1335.68 40.725C1335.93 39.175 1336.56 38.4 1337.56 38.4C1338.51 38.4 1339.13 39.175 1339.43 40.725C1339.83 42.925 1340.23 44.325 1340.63 44.925C1341.63 46.475 1343.48 47.25 1346.18 47.25C1350.68 47.25 1352.93 43.675 1352.93 36.525ZM1398.65 37.05C1398.65 40.8 1397.85 43.95 1396.25 46.5C1394.4 49.5 1391.7 51 1388.15 51C1384.5 51 1381.63 49.5 1379.53 46.5C1377.43 49.5 1374.55 51 1370.9 51C1367.9 51 1365.4 49.875 1363.4 47.625C1361.4 45.325 1360.4 42.65 1360.4 39.6C1360.4 36.7 1361.4 34.325 1363.4 32.475C1365.45 30.575 1367.95 29.625 1370.9 29.625C1372.05 29.625 1373.05 30.05 1373.9 30.9C1374.75 31.7 1375.18 32.675 1375.18 33.825C1375.18 35.025 1374.75 36.05 1373.9 36.9C1373.1 37.7 1372.1 38.1 1370.9 38.1C1368.55 38.1 1367.15 36.95 1366.7 34.65C1365 35.6 1364.15 37.25 1364.15 39.6C1364.15 41.6 1364.78 43.375 1366.03 44.925C1367.33 46.475 1368.95 47.25 1370.9 47.25C1373.1 47.25 1374.75 46.525 1375.85 45.075C1376.4 44.325 1377.03 43 1377.73 41.1C1378.28 39.65 1378.88 38.925 1379.53 38.925C1380.18 38.925 1380.78 39.65 1381.33 41.1C1382.03 43 1382.65 44.325 1383.2 45.075C1384.3 46.525 1385.95 47.25 1388.15 47.25C1390.55 47.25 1392.35 46.075 1393.55 43.725C1394.45 41.925 1394.9 39.7 1394.9 37.05C1394.9 26.4 1390.53 21.075 1381.78 21.075H1362.43C1361.18 21.075 1360.55 20.45 1360.55 19.2C1360.55 17.95 1361.18 17.325 1362.43 17.325H1388.15V18.525C1395.15 20.975 1398.65 27.15 1398.65 37.05ZM1425.39 34.275C1425.39 38.625 1424.39 42.375 1422.39 45.525C1420.04 49.225 1416.82 51.075 1412.72 51.075C1409.67 51.075 1407.14 49.975 1405.14 47.775C1403.14 45.525 1402.14 42.85 1402.14 39.75C1402.14 36.4 1403.29 33.775 1405.59 31.875C1407.74 30.075 1410.52 29.175 1413.92 29.175C1414.82 29.175 1415.69 29.7 1416.54 30.75C1417.39 31.75 1417.82 32.725 1417.82 33.675C1417.82 34.875 1417.39 35.9 1416.54 36.75C1415.74 37.55 1414.74 37.95 1413.54 37.95C1412.44 37.95 1411.47 37.55 1410.62 36.75C1409.82 35.95 1409.39 35 1409.34 33.9C1406.99 35.1 1405.82 37.05 1405.82 39.75C1405.82 41.75 1406.47 43.525 1407.77 45.075C1409.12 46.575 1410.77 47.325 1412.72 47.325C1415.72 47.325 1418.02 45.825 1419.62 42.825C1420.97 40.375 1421.64 37.525 1421.64 34.275C1421.64 31.025 1420.97 28.15 1419.62 25.65C1418.02 22.6 1415.72 21.075 1412.72 21.075H1386.77C1385.27 20.875 1384.52 20.25 1384.52 19.2C1384.52 17.95 1385.14 17.325 1386.39 17.325H1412.87C1416.97 17.325 1420.17 19.2 1422.47 22.95C1424.42 26.1 1425.39 29.875 1425.39 34.275ZM1467.42 34.05C1467.42 41.55 1463.87 47.125 1456.77 50.775C1456.47 50.925 1456.17 51 1455.87 51C1454.67 51 1454.07 50.35 1454.07 49.05C1454.07 48.35 1454.42 47.825 1455.12 47.475C1460.82 44.525 1463.67 40.05 1463.67 34.05C1463.67 25.4 1459.82 20.35 1452.12 18.9C1452.92 20.15 1453.32 21.675 1453.32 23.475C1453.32 26.275 1452.27 28.45 1450.17 30C1448.32 31.4 1445.95 32.1 1443.05 32.1C1439.7 32.1 1437.07 31.325 1435.17 29.775C1433.67 30.975 1432.92 32.925 1432.92 35.625C1432.92 38.625 1433.65 41.075 1435.1 42.975C1436.4 44.625 1438.47 46.1 1441.32 47.4C1442.07 47.75 1442.45 48.3 1442.45 49.05C1442.45 50.35 1441.85 51 1440.65 51C1440.3 51 1440.02 50.95 1439.82 50.85C1432.72 47.65 1429.17 42.575 1429.17 35.625C1429.17 34.125 1429.52 32.45 1430.22 30.6C1430.97 28.7 1431.87 27.3 1432.92 26.4C1432.67 25.6 1432.55 24.75 1432.55 23.85C1432.55 17.75 1437.22 14.7 1446.57 14.7C1452.92 14.7 1457.95 16.3 1461.65 19.5C1465.5 22.9 1467.42 27.75 1467.42 34.05ZM1449.57 23.475C1449.57 20.175 1447.87 18.525 1444.47 18.525C1439.02 18.525 1436.3 20.3 1436.3 23.85C1436.3 26.85 1438.55 28.35 1443.05 28.35C1447.4 28.35 1449.57 26.725 1449.57 23.475ZM1510.14 11.55C1510.14 13.8 1509.37 15.85 1507.82 17.7C1506.32 19.5 1504.47 20.575 1502.27 20.925C1507.02 24.275 1509.39 28.65 1509.39 34.05C1509.39 39 1507.39 43.1 1503.39 46.35C1499.69 49.45 1495.32 51 1490.27 51C1485.22 51 1480.84 49.45 1477.14 46.35C1473.14 43.1 1471.14 39 1471.14 34.05C1471.14 28.75 1473.47 24.425 1478.12 21.075C1477.32 21.175 1476.52 21.225 1475.72 21.225C1472.77 21.225 1471.29 20.55 1471.29 19.2C1471.29 17.95 1471.92 17.325 1473.17 17.325H1500.69C1502.19 17.325 1503.52 16.75 1504.67 15.6C1505.82 14.4 1506.39 13.05 1506.39 11.55C1506.39 10.05 1506.22 8.95 1505.87 8.25C1505.52 7.5 1504.77 6.65 1503.62 5.7C1503.12 5.3 1502.87 4.825 1502.87 4.275C1502.87 2.975 1503.49 2.325 1504.74 2.325C1505.14 2.325 1505.52 2.45 1505.87 2.7C1507.52 3.95 1508.64 5.225 1509.24 6.525C1509.84 7.775 1510.14 9.45 1510.14 11.55ZM1505.64 34.05C1505.64 30.6 1504.22 27.575 1501.37 24.975C1498.52 22.375 1495.37 21.075 1491.92 21.075H1488.62C1485.12 21.075 1481.94 22.375 1479.09 24.975C1476.29 27.575 1474.89 30.6 1474.89 34.05C1474.89 37.95 1476.52 41.175 1479.77 43.725C1482.72 46.075 1486.22 47.25 1490.27 47.25C1494.32 47.25 1497.82 46.075 1500.77 43.725C1504.02 41.175 1505.64 37.95 1505.64 34.05ZM1529.09 34.05C1529.09 38.6 1528.24 42.375 1526.54 45.375C1524.44 49.125 1521.29 51 1517.09 51C1512.74 51 1509.66 49.6 1507.86 46.8C1506.36 44.5 1505.61 41.075 1505.61 36.525C1505.61 35.275 1506.24 34.65 1507.49 34.65C1508.74 34.65 1509.36 35.275 1509.36 36.525C1509.36 39.975 1509.79 42.475 1510.64 44.025C1511.79 46.175 1513.94 47.25 1517.09 47.25C1520.09 47.25 1522.31 45.7 1523.76 42.6C1524.81 40.3 1525.34 37.45 1525.34 34.05C1525.34 31 1524.81 28.25 1523.76 25.8C1522.36 22.6 1520.31 21 1517.61 21C1516.36 21 1515.74 20.375 1515.74 19.125C1515.74 17.875 1516.36 17.25 1517.61 17.25C1521.51 17.25 1524.51 19.175 1526.61 23.025C1528.26 26.125 1529.09 29.8 1529.09 34.05ZM1543.31 47.85C1543.31 48.9 1542.96 49.775 1542.26 50.475C1541.56 51.125 1540.69 51.45 1539.64 51.45C1538.64 51.45 1537.76 51.1 1537.01 50.4C1536.31 49.7 1535.96 48.85 1535.96 47.85C1535.96 47.05 1536.36 46.25 1537.16 45.45C1538.01 44.6 1538.84 44.175 1539.64 44.175C1540.69 44.175 1541.56 44.525 1542.26 45.225C1542.96 45.925 1543.31 46.8 1543.31 47.85Z" fill="black"/>
</svg>
