<svg width="1463" height="68" viewBox="0 0 1463 68" fill="none" xmlns="http://www.w3.org/2000/svg">
<path d="M43.6 32.075C43.6 33.625 43.05 35.375 41.95 37.325C39.5 41.675 36.1 43.85 31.75 43.85C28.1 43.85 25.225 42.575 23.125 40.025C22.925 39.675 22.675 39.2 22.375 38.6L21.85 37.475C19.55 41.825 16.275 44 12.025 44C8.875 44 6.225 42.925 4.075 40.775C1.925 38.625 0.85 35.975 0.85 32.825C0.85 30.375 1.725 28.225 3.475 26.375C5.275 24.525 7.4 23.6 9.85 23.6C13.2 23.6 15.6 24.75 17.05 27.05C17.45 27.85 17.725 28.9 17.875 30.2C17.875 31.55 17.6 32.6 17.05 33.35C15.75 35.15 14.025 36.05 11.875 36.05C8.475 36.05 6.775 34.7 6.775 32C6.775 30.65 7.45 29.975 8.8 29.975C8.8 32.375 9.725 33.575 11.575 33.575C12.125 33.575 12.775 33.425 13.525 33.125C14.275 32.825 14.675 32.45 14.725 32L14.8 30.8L14.65 29.6C14.65 28.9 13.875 28.225 12.325 27.575C11.725 27.325 10.975 27.2 10.075 27.2C8.975 27.2 7.775 27.65 6.475 28.55C5.025 29.5 4.3 30.5 4.3 31.55L4.15 33.05L4.3 34.475C4.3 35.775 5.25 36.9 7.15 37.85C8.75 38.65 10.275 39.05 11.725 39.05C13.325 39.05 14.875 38.625 16.375 37.775C17.925 36.925 18.925 35.8 19.375 34.4V34.025L19.225 33.5C19.225 32.3 20.175 31.7 22.075 31.7C22.725 31.7 23.35 31.85 23.95 32.15L24.925 34.925C25.825 37.525 28.025 38.825 31.525 38.825C33.775 38.825 35.6 38.05 37 36.5C38.45 34.95 39.175 33.05 39.175 30.8C39.175 26.3 37 22.55 32.65 19.55C28.8 16.85 24.525 15.5 19.825 15.5L9.625 16.55L9.175 16.475H8.725C8.025 15.925 7.675 15.25 7.675 14.45C7.675 12.45 9.7 11.45 13.75 11.45H14.35C21.5 11.45 27.875 13.1 33.475 16.4C40.225 20.4 43.6 25.625 43.6 32.075ZM87.5729 29L87.3479 31.4C86.5979 34.35 85.3479 36.7 83.5979 38.45C79.9479 42.15 74.8229 44 68.2229 44C64.5729 44 60.3229 42.75 55.4729 40.25C54.3729 39.4 53.2729 38.45 52.1729 37.4C49.0729 34.45 47.5229 30.775 47.5229 26.375C47.5229 22.875 48.6479 19.75 50.8979 17C53.1479 14.2 55.9979 12.8 59.4479 12.8C64.1979 12.8 66.5729 15.05 66.5729 19.55C66.5729 21.8 65.8479 23.725 64.3979 25.325C62.9479 26.925 61.0979 27.725 58.8479 27.725C57.3479 27.725 55.9979 27.25 54.7979 26.3C53.6479 25.3 53.0729 24.075 53.0729 22.625C53.0729 21.425 53.4479 20.825 54.1979 20.825C54.5979 20.825 54.9479 21.2 55.2479 21.95C56.0979 23.9 57.2479 24.875 58.6979 24.875C60.0979 24.875 61.2979 24.45 62.2979 23.6C63.3479 22.75 63.8729 21.65 63.8729 20.3C63.8729 17.9 62.4229 16.7 59.5229 16.7C56.9229 16.7 54.8229 17.675 53.2229 19.625C51.6729 21.575 50.8979 23.875 50.8979 26.525C50.8979 30.725 52.8729 34.025 56.8229 36.425C60.1729 38.425 64.0979 39.425 68.5979 39.425C70.2479 39.425 71.9979 39.2 73.8479 38.75C80.8479 37.05 84.3479 33.6 84.3479 28.4C84.3479 25.7 83.0229 23.3 80.3729 21.2L76.8479 17.6H72.4979V13.1H76.3979L76.6229 14.3C78.3729 16 79.7479 17.125 80.7479 17.675L81.5729 18.35C85.5729 21.6 87.5729 25.15 87.5729 29ZM112.543 28.85C112.543 32.9 111.593 36.3 109.693 39.05C107.543 42.2 104.518 43.775 100.618 43.775C97.4682 43.775 94.9682 42.55 93.1182 40.1C91.4682 37.9 90.6432 35.175 90.6432 31.925C90.6432 29.275 91.2182 27.05 92.3682 25.25C93.7182 23.2 95.6682 22.175 98.2182 22.175C99.6182 22.175 100.793 22.475 101.743 23.075C102.893 23.825 103.468 24.85 103.468 26.15C103.468 28.75 102.118 30.05 99.4182 30.05C97.0682 30.05 95.8932 28.575 95.8932 25.625C94.4432 25.925 93.7182 28.025 93.7182 31.925C93.7182 36.425 96.2932 38.675 101.443 38.675C106.693 38.675 109.318 35.15 109.318 28.1C109.318 23.95 107.818 20.95 104.818 19.1L105.268 19.25C104.868 19.15 104.368 18.925 103.768 18.575L98.3682 17.6H70.6182V13.1L99.4182 13.25C105.568 14.3 109.543 17.375 111.343 22.475C112.143 24.725 112.543 26.85 112.543 28.85ZM115.315 56.225L114.94 58.325C114.94 59.975 114.34 61.5 113.14 62.9C111.89 64.35 110.465 65.075 108.865 65.075H107.74C107.09 64.625 106.765 64.025 106.765 63.275C106.765 62.625 107.34 62.05 108.49 61.55C110.09 60.9 110.99 60.5 111.19 60.35C111.99 59.5 112.39 58.175 112.39 56.375C112.39 54.675 112.015 53.275 111.265 52.175C110.415 50.875 109.19 50.225 107.59 50.225C105.64 50.225 104.19 51.275 103.24 53.375C102.69 54.675 102.015 55.325 101.215 55.325H100.315C100.065 54.925 99.9402 54.575 99.9402 54.275L99.7902 53.75C99.0902 51.35 97.5152 50.15 95.0652 50.15C91.9152 50.15 90.3402 52.125 90.3402 56.075C90.3402 58.525 91.2652 60.15 93.1152 60.95C94.3152 61.5 94.9152 62.15 94.9152 62.9C94.9152 64.05 94.1902 64.625 92.7402 64.625C91.3902 64.625 90.2152 64 89.2152 62.75C88.1652 61.5 87.6402 60.175 87.6402 58.775C87.3402 57.875 87.1902 56.95 87.1902 56C87.1902 54.15 87.6652 52.375 88.6152 50.675C90.2152 47.775 92.4652 46.325 95.3652 46.325C98.5152 46.325 100.49 47.775 101.29 50.675L101.515 50.45L101.815 50.075L103.84 47.825C104.84 47.025 106.265 46.625 108.115 46.625C109.665 46.625 111.19 47.375 112.69 48.875C114.19 50.425 114.94 51.975 114.94 53.525C115.19 54.575 115.315 55.475 115.315 56.225ZM156.938 30.8C156.938 38.1 154.113 42.425 148.463 43.775L146.063 44.075L143.813 43.925C143.013 43.875 142.388 43.75 141.938 43.55C139.888 42.65 138.313 41.375 137.213 39.725L136.313 38.375L136.163 38.3C135.863 38.55 135.638 38.95 135.488 39.5L135.188 39.95L134.963 40.325C132.813 42.775 130.213 44 127.163 44C122.913 44 119.738 42.25 117.638 38.75C116.638 37.05 116.088 34.825 115.988 32.075L115.913 29.75C116.513 25.45 119.113 21.75 123.713 18.65L125.363 17.825L125.513 17.6H116.138V13.1H146.738C151.038 13.1 153.188 11.55 153.188 8.45C153.188 7.15 152.588 5.9 151.388 4.7C151.038 4.35 150.713 3.975 150.413 3.575C150.363 3.475 150.263 3.35 150.113 3.2C150.113 2.6 150.413 2.25 151.013 2.15C152.213 2.15 153.388 3 154.538 4.7C155.738 6.35 156.338 7.825 156.338 9.125C156.338 12.375 155.413 14.625 153.563 15.875C152.013 16.925 149.563 17.5 146.213 17.6C153.363 21.1 156.938 25.5 156.938 30.8ZM153.563 30.2C153.563 26.5 151.613 23.425 147.713 20.975C144.713 19.075 141.038 18.125 136.688 18.125C130.838 18.125 126.263 19.9 122.963 23.45C120.863 25.7 119.813 28.125 119.813 30.725C119.813 34.725 121.263 37.375 124.163 38.675C124.113 38.725 124.088 38.775 124.088 38.825C124.238 38.875 124.413 38.9 124.613 38.9L126.263 39.05C128.363 39.05 129.813 38.825 130.613 38.375C132.613 37.225 133.688 35.925 133.838 34.475C133.888 33.975 133.913 33.225 133.913 32.225L136.013 32.15H137.138C137.638 32.15 138.088 32.2 138.488 32.3V32.825C139.138 37.025 141.538 39.125 145.688 39.125C147.938 39.125 149.838 38.175 151.388 36.275C152.838 34.525 153.563 32.5 153.563 30.2ZM190.241 9.125C190.241 14.025 187.791 16.775 182.891 17.375C184.941 18.875 186.516 20.85 187.616 23.3C188.666 24.75 189.191 26.775 189.191 29.375C189.191 33.525 187.916 37 185.366 39.8C182.816 42.6 179.466 44 175.316 44C171.166 44 167.616 42.925 164.666 40.775C161.316 38.425 159.641 35.25 159.641 31.25C159.641 26.5 160.566 22.975 162.416 20.675L165.641 17.6H160.166L160.241 13.1H180.641C184.941 13.1 187.091 11.55 187.091 8.45C187.091 7.15 186.491 5.9 185.291 4.7C184.941 4.35 184.616 3.975 184.316 3.575C184.266 3.475 184.166 3.35 184.016 3.2C184.016 2.6 184.316 2.25 184.916 2.15C186.116 2.15 187.291 3 188.441 4.7C189.641 6.35 190.241 7.825 190.241 9.125ZM185.216 27.8C185.216 25.75 184.541 23.8 183.191 21.95C181.841 20.05 180.191 18.8 178.241 18.2C176.941 17.8 175.491 17.6 173.891 17.6C170.341 17.6 167.616 18.85 165.716 21.35C164.016 23.6 163.166 26.55 163.166 30.2C163.166 33.1 164.391 35.4 166.841 37.1C168.991 38.6 171.566 39.35 174.566 39.35C177.916 39.35 180.566 38.25 182.516 36.05C184.316 33.95 185.216 31.2 185.216 27.8ZM232.413 30.575C232.413 32.475 232.088 34.8 231.438 37.55C230.538 39.65 229.013 41.45 226.863 42.95C224.813 43.95 222.913 44.45 221.163 44.45C218.263 44.45 215.938 43.625 214.188 41.975C212.438 40.275 211.563 37.975 211.563 35.075C211.563 33.625 211.688 32.45 211.938 31.55C213.038 27.6 215.513 25.625 219.363 25.625C223.213 25.625 225.138 27.15 225.138 30.2C225.138 32.9 223.963 34.25 221.613 34.25C219.013 34.25 217.713 32.975 217.713 30.425C217.813 29.425 217.938 28.675 218.088 28.175C216.238 28.775 214.938 30.425 214.188 33.125V34.4L214.413 36.2C214.513 36.5 214.813 37 215.313 37.7C216.463 39.3 217.913 40.175 219.663 40.325L220.638 40.4H221.688C226.988 39.45 229.638 36.1 229.638 30.35C229.638 21.9 224.888 17.675 215.388 17.675C213.038 17.675 211.013 18.325 209.313 19.625C207.613 20.925 206.663 22.725 206.463 25.025C206.463 25.275 206.413 25.725 206.313 26.375V27.65C206.313 28.75 206.338 29.525 206.388 29.975L206.913 34.85C207.113 36.95 206.138 39.225 203.988 41.675C202.338 43.525 200.238 44.45 197.688 44.45C194.838 44.45 192.387 43.5 190.337 41.6C188.237 39.7 187.112 37.325 186.962 34.475L186.662 28.775C186.662 28.475 186.837 28.175 187.187 27.875C187.537 27.575 187.862 27.425 188.162 27.425C188.662 27.425 188.987 27.7 189.137 28.25L189.212 29.825C189.362 33.075 189.987 35.425 191.087 36.875C192.387 38.625 194.588 39.5 197.688 39.5C201.888 39.5 203.988 36.775 203.988 31.325L203.613 28.025L203.463 25.55C203.263 22.2 204.363 19.35 206.763 17C209.163 14.65 212.063 13.475 215.463 13.475C223.113 13.475 228.038 15.925 230.238 20.825C231.688 24.075 232.413 27.325 232.413 30.575ZM307.696 27.5C307.696 29.45 307.321 31.45 306.571 33.5L305.821 35.075C305.421 35.625 305.221 36.2 305.221 36.8L305.746 37.925C306.346 39.225 306.646 40.475 306.646 41.675C306.646 43.475 306.221 45.075 305.371 46.475C304.371 48.125 303.046 48.95 301.396 48.95C299.996 48.95 299.296 48.35 299.296 47.15C299.396 46.5 299.971 45.55 301.021 44.3C302.121 43.1 302.671 42.075 302.671 41.225C302.671 40.125 302.471 39.5 302.071 39.35C297.921 42.35 293.221 43.85 287.971 43.85C284.971 43.85 282.071 43.25 279.271 42.05C275.671 40.5 273.871 38.325 273.871 35.525C273.871 34.025 274.296 32.8 275.146 31.85C277.396 29.3 280.946 28.025 285.796 28.025C290.696 28.025 294.821 28.95 298.171 30.8L298.846 31.175L299.971 31.775L301.771 32.975L302.821 33.725C303.171 33.575 303.471 33.15 303.721 32.45L304.096 30.875C304.396 29.625 304.546 28.5 304.546 27.5C304.546 24.9 303.696 22.7 301.996 20.9C300.346 19.1 298.246 18.2 295.696 18.2C294.146 18.2 292.646 18.65 291.196 19.55C289.496 20.55 288.646 21.775 288.646 23.225V23.675L288.796 24.125L288.871 24.65H284.371C284.371 22.65 283.471 21.025 281.671 19.775C280.071 18.625 278.246 18.05 276.196 18.05C274.446 18.05 272.946 18.425 271.696 19.175C270.146 20.025 269.371 21.275 269.371 22.925C269.471 23.625 269.596 24.125 269.746 24.425L270.871 26C271.371 26.7 271.621 27.25 271.621 27.65C271.621 28.45 271.196 28.85 270.346 28.85H269.671C267.271 26.75 266.071 24.6 266.071 22.4C266.071 19.7 267.196 17.475 269.446 15.725C271.496 14.075 273.896 13.25 276.646 13.25C279.946 13.25 282.571 14.1 284.521 15.8L287.071 18.575L288.946 16.4C290.846 14.7 293.371 13.85 296.521 13.85C300.221 13.85 303.071 15.25 305.071 18.05C306.821 20.5 307.696 23.65 307.696 27.5ZM300.121 36.05L298.021 34.4C294.471 32.25 290.446 31.175 285.946 31.175C283.746 31.175 282.146 31.325 281.146 31.625C279.046 32.275 277.996 33.275 277.996 34.625C277.996 35.275 278.221 35.825 278.671 36.275C280.071 37.975 281.871 38.825 284.071 38.825C284.421 38.875 284.996 38.975 285.796 39.125H288.121L292.096 38.825C293.746 38.675 295.346 38.325 296.896 37.775L298.696 37.1C299.296 36.85 299.771 36.5 300.121 36.05ZM341.999 9.125C341.999 14.025 339.549 16.775 334.649 17.375C336.699 18.875 338.274 20.85 339.374 23.3C340.424 24.75 340.949 26.775 340.949 29.375C340.949 33.525 339.674 37 337.124 39.8C334.574 42.6 331.224 44 327.074 44C322.924 44 319.374 42.925 316.424 40.775C313.074 38.425 311.399 35.25 311.399 31.25C311.399 26.5 312.324 22.975 314.174 20.675L317.399 17.6H311.924L311.999 13.1H332.399C336.699 13.1 338.849 11.55 338.849 8.45C338.849 7.15 338.249 5.9 337.049 4.7C336.699 4.35 336.374 3.975 336.074 3.575C336.024 3.475 335.924 3.35 335.774 3.2C335.774 2.6 336.074 2.25 336.674 2.15C337.874 2.15 339.049 3 340.199 4.7C341.399 6.35 341.999 7.825 341.999 9.125ZM336.974 27.8C336.974 25.75 336.299 23.8 334.949 21.95C333.599 20.05 331.949 18.8 329.999 18.2C328.699 17.8 327.249 17.6 325.649 17.6C322.099 17.6 319.374 18.85 317.474 21.35C315.774 23.6 314.924 26.55 314.924 30.2C314.924 33.1 316.149 35.4 318.599 37.1C320.749 38.6 323.324 39.35 326.324 39.35C329.674 39.35 332.324 38.25 334.274 36.05C336.074 33.95 336.974 31.2 336.974 27.8ZM361.52 27.425C361.52 33.075 360.17 37.475 357.47 40.625C355.47 42.975 352.995 44.15 350.045 44.15C344.245 44.15 340.52 40.9 338.87 34.4C338.32 32.25 338.045 30.4 338.045 28.85L338.27 28.025C338.82 27.575 339.445 27.35 340.145 27.35C340.395 27.4 340.57 27.55 340.67 27.8C340.67 29.05 340.845 30.4 341.195 31.85C342.495 37.25 345.095 39.95 348.995 39.95C355.445 39.95 358.67 35.975 358.67 28.025C358.67 22.775 357.145 19.55 354.095 18.35C353.095 17.95 352.445 17.75 352.145 17.75C351.895 17.75 351.42 17.9 350.72 18.2C350.02 18.45 349.47 18.575 349.07 18.575C347.52 18.575 346.745 17.775 346.745 16.175C346.745 14.625 348.22 13.7 351.17 13.4C354.37 13.4 356.945 15 358.895 18.2C360.645 20.95 361.52 24.025 361.52 27.425ZM438.595 32.075C438.595 33.625 438.045 35.375 436.945 37.325C434.495 41.675 431.095 43.85 426.745 43.85C423.095 43.85 420.22 42.575 418.12 40.025C417.92 39.675 417.67 39.2 417.37 38.6L416.845 37.475C414.545 41.825 411.27 44 407.02 44C403.87 44 401.22 42.925 399.07 40.775C396.92 38.625 395.845 35.975 395.845 32.825C395.845 30.375 396.72 28.225 398.47 26.375C400.27 24.525 402.395 23.6 404.845 23.6C408.195 23.6 410.595 24.75 412.045 27.05C412.445 27.85 412.72 28.9 412.87 30.2C412.87 31.55 412.595 32.6 412.045 33.35C410.745 35.15 409.02 36.05 406.87 36.05C403.47 36.05 401.77 34.7 401.77 32C401.77 30.65 402.445 29.975 403.795 29.975C403.795 32.375 404.72 33.575 406.57 33.575C407.12 33.575 407.77 33.425 408.52 33.125C409.27 32.825 409.67 32.45 409.72 32L409.795 30.8L409.645 29.6C409.645 28.9 408.87 28.225 407.32 27.575C406.72 27.325 405.97 27.2 405.07 27.2C403.97 27.2 402.77 27.65 401.47 28.55C400.02 29.5 399.295 30.5 399.295 31.55L399.145 33.05L399.295 34.475C399.295 35.775 400.245 36.9 402.145 37.85C403.745 38.65 405.27 39.05 406.72 39.05C408.32 39.05 409.87 38.625 411.37 37.775C412.92 36.925 413.92 35.8 414.37 34.4V34.025L414.22 33.5C414.22 32.3 415.17 31.7 417.07 31.7C417.72 31.7 418.345 31.85 418.945 32.15L419.92 34.925C420.82 37.525 423.02 38.825 426.52 38.825C428.77 38.825 430.595 38.05 431.995 36.5C433.445 34.95 434.17 33.05 434.17 30.8C434.17 26.3 431.995 22.55 427.645 19.55C423.795 16.85 419.52 15.5 414.82 15.5L404.62 16.55L404.17 16.475H403.72C403.02 15.925 402.67 15.25 402.67 14.45C402.67 12.45 404.695 11.45 408.745 11.45H409.345C416.495 11.45 422.87 13.1 428.47 16.4C435.22 20.4 438.595 25.625 438.595 32.075ZM466.143 27.95C466.143 29.75 465.918 31.575 465.468 33.425C464.718 36.475 463.468 38.925 461.718 40.775C459.718 42.875 457.268 43.925 454.368 43.925C452.268 43.925 450.343 43.2 448.593 41.75C445.393 39.1 443.518 35.425 442.968 30.725C442.968 30.425 442.918 29.975 442.818 29.375V28.1C442.818 26.75 442.918 25.575 443.118 24.575C443.118 21.875 444.918 18.725 448.518 15.125L451.593 13.85C452.693 13.4 453.743 13.175 454.743 13.175C458.293 13.175 461.143 14.8 463.293 18.05C465.193 20.9 466.143 24.2 466.143 27.95ZM462.543 28.1C462.543 25.35 461.818 22.975 460.368 20.975C458.768 18.725 456.643 17.6 453.993 17.6C451.443 17.6 449.443 18.825 447.993 21.275C446.743 23.375 446.118 25.775 446.118 28.475C446.118 31.225 446.843 33.6 448.293 35.6C449.893 37.85 452.043 38.975 454.743 38.975C457.343 38.975 459.343 37.75 460.743 35.3C461.943 33.25 462.543 30.85 462.543 28.1ZM501.515 31.7C501.515 34 501.065 35.85 500.165 37.25C497.265 41.75 492.365 44 485.465 44C483.065 44 481.04 43.7 479.39 43.1C476.29 42 473.79 40.25 471.89 37.85C469.84 35.3 468.815 32.45 468.815 29.3C468.815 27.7 469.265 26.9 470.165 26.9L470.915 26.825C471.415 27.625 471.715 28.325 471.815 28.925L472.265 31.85C473.465 35.55 475.84 37.85 479.39 38.75L482.09 39.425L489.14 39.05L492.215 38.075C495.965 36.875 497.84 34.7 497.84 31.55C497.84 30.5 497.515 29.525 496.865 28.625C495.715 27.475 494.74 26.675 493.94 26.225L493.34 26L493.415 26.375C493.315 26.575 493.265 26.85 493.265 27.2L493.19 27.95C491.79 32.15 488.815 34.25 484.265 34.25C482.115 34.25 480.34 33.75 478.94 32.75C477.34 31.65 476.54 30.075 476.54 28.025C476.54 24.075 478.24 21.8 481.64 21.2L486.59 20.975L487.415 21.05L488.39 20.975L488.465 20.9C486.465 19.25 484.84 18.25 483.59 17.9L483.74 17.6L482.765 17.525L468.665 17.6V13.175L487.715 13.1L487.94 17.15L489.44 18.425L490.79 20.075C491.44 20.875 492.04 21.575 492.59 22.175C492.89 22.475 493.415 22.7 494.165 22.85C496.065 23.55 497.715 24.7 499.115 26.3C500.715 28.05 501.515 29.85 501.515 31.7ZM490.64 25.175C490.54 24.425 488.715 24.05 485.165 24.05H483.59C481.04 24.05 479.765 25.05 479.765 27.05C479.765 29 481.39 29.975 484.64 29.975C486.14 29.975 487.515 29.55 488.765 28.7C490.015 27.8 490.64 26.625 490.64 25.175ZM526.654 28.85C526.654 32.9 525.704 36.3 523.804 39.05C521.654 42.2 518.629 43.775 514.729 43.775C511.579 43.775 509.079 42.55 507.229 40.1C505.579 37.9 504.754 35.175 504.754 31.925C504.754 29.275 505.329 27.05 506.479 25.25C507.829 23.2 509.779 22.175 512.329 22.175C513.729 22.175 514.904 22.475 515.854 23.075C517.004 23.825 517.579 24.85 517.579 26.15C517.579 28.75 516.229 30.05 513.529 30.05C511.179 30.05 510.004 28.575 510.004 25.625C508.554 25.925 507.829 28.025 507.829 31.925C507.829 36.425 510.404 38.675 515.554 38.675C520.804 38.675 523.429 35.15 523.429 28.1C523.429 23.95 521.929 20.95 518.929 19.1L519.379 19.25C518.979 19.15 518.479 18.925 517.879 18.575L512.479 17.6H484.729V13.1L513.529 13.25C519.679 14.3 523.654 17.375 525.454 22.475C526.254 24.725 526.654 26.85 526.654 28.85ZM570.977 30.8C570.977 38.1 568.152 42.425 562.502 43.775L560.102 44.075L557.852 43.925C557.052 43.875 556.427 43.75 555.977 43.55C553.927 42.65 552.352 41.375 551.252 39.725L550.352 38.375L550.202 38.3C549.902 38.55 549.677 38.95 549.527 39.5L549.227 39.95L549.002 40.325C546.852 42.775 544.252 44 541.202 44C536.952 44 533.777 42.25 531.677 38.75C530.677 37.05 530.127 34.825 530.027 32.075L529.952 29.75C530.552 25.45 533.152 21.75 537.752 18.65L539.402 17.825L539.552 17.6H530.177V13.1H560.777C565.077 13.1 567.227 11.55 567.227 8.45C567.227 7.15 566.627 5.9 565.427 4.7C565.077 4.35 564.752 3.975 564.452 3.575C564.402 3.475 564.302 3.35 564.152 3.2C564.152 2.6 564.452 2.25 565.052 2.15C566.252 2.15 567.427 3 568.577 4.7C569.777 6.35 570.377 7.825 570.377 9.125C570.377 12.375 569.452 14.625 567.602 15.875C566.052 16.925 563.602 17.5 560.252 17.6C567.402 21.1 570.977 25.5 570.977 30.8ZM567.602 30.2C567.602 26.5 565.652 23.425 561.752 20.975C558.752 19.075 555.077 18.125 550.727 18.125C544.877 18.125 540.302 19.9 537.002 23.45C534.902 25.7 533.852 28.125 533.852 30.725C533.852 34.725 535.302 37.375 538.202 38.675C538.152 38.725 538.127 38.775 538.127 38.825C538.277 38.875 538.452 38.9 538.652 38.9L540.302 39.05C542.402 39.05 543.852 38.825 544.652 38.375C546.652 37.225 547.727 35.925 547.877 34.475C547.927 33.975 547.952 33.225 547.952 32.225L550.052 32.15H551.177C551.677 32.15 552.127 32.2 552.527 32.3V32.825C553.177 37.025 555.577 39.125 559.727 39.125C561.977 39.125 563.877 38.175 565.427 36.275C566.877 34.525 567.602 32.5 567.602 30.2ZM604.279 9.125C604.279 14.025 601.829 16.775 596.929 17.375C598.979 18.875 600.554 20.85 601.654 23.3C602.704 24.75 603.229 26.775 603.229 29.375C603.229 33.525 601.954 37 599.404 39.8C596.854 42.6 593.504 44 589.354 44C585.204 44 581.654 42.925 578.704 40.775C575.354 38.425 573.679 35.25 573.679 31.25C573.679 26.5 574.604 22.975 576.454 20.675L579.679 17.6H574.204L574.279 13.1H594.679C598.979 13.1 601.129 11.55 601.129 8.45C601.129 7.15 600.529 5.9 599.329 4.7C598.979 4.35 598.654 3.975 598.354 3.575C598.304 3.475 598.204 3.35 598.054 3.2C598.054 2.6 598.354 2.25 598.954 2.15C600.154 2.15 601.329 3 602.479 4.7C603.679 6.35 604.279 7.825 604.279 9.125ZM599.254 27.8C599.254 25.75 598.579 23.8 597.229 21.95C595.879 20.05 594.229 18.8 592.279 18.2C590.979 17.8 589.529 17.6 587.929 17.6C584.379 17.6 581.654 18.85 579.754 21.35C578.054 23.6 577.204 26.55 577.204 30.2C577.204 33.1 578.429 35.4 580.879 37.1C583.029 38.6 585.604 39.35 588.604 39.35C591.954 39.35 594.604 38.25 596.554 36.05C598.354 33.95 599.254 31.2 599.254 27.8ZM623.801 27.425C623.801 33.075 622.451 37.475 619.751 40.625C617.751 42.975 615.276 44.15 612.326 44.15C606.526 44.15 602.801 40.9 601.151 34.4C600.601 32.25 600.326 30.4 600.326 28.85L600.551 28.025C601.101 27.575 601.726 27.35 602.426 27.35C602.676 27.4 602.851 27.55 602.951 27.8C602.951 29.05 603.126 30.4 603.476 31.85C604.776 37.25 607.376 39.95 611.276 39.95C617.726 39.95 620.951 35.975 620.951 28.025C620.951 22.775 619.426 19.55 616.376 18.35C615.376 17.95 614.726 17.75 614.426 17.75C614.176 17.75 613.701 17.9 613.001 18.2C612.301 18.45 611.751 18.575 611.351 18.575C609.801 18.575 609.026 17.775 609.026 16.175C609.026 14.625 610.501 13.7 613.451 13.4C616.651 13.4 619.226 15 621.176 18.2C622.926 20.95 623.801 24.025 623.801 27.425ZM700.2 27.5C700.2 29.45 699.825 31.45 699.075 33.5L698.325 35.075C697.925 35.625 697.725 36.2 697.725 36.8L698.25 37.925C698.85 39.225 699.15 40.475 699.15 41.675C699.15 43.475 698.725 45.075 697.875 46.475C696.875 48.125 695.55 48.95 693.9 48.95C692.5 48.95 691.8 48.35 691.8 47.15C691.9 46.5 692.475 45.55 693.525 44.3C694.625 43.1 695.175 42.075 695.175 41.225C695.175 40.125 694.975 39.5 694.575 39.35C690.425 42.35 685.725 43.85 680.475 43.85C677.475 43.85 674.575 43.25 671.775 42.05C668.175 40.5 666.375 38.325 666.375 35.525C666.375 34.025 666.8 32.8 667.65 31.85C669.9 29.3 673.45 28.025 678.3 28.025C683.2 28.025 687.325 28.95 690.675 30.8L691.35 31.175L692.475 31.775L694.275 32.975L695.325 33.725C695.675 33.575 695.975 33.15 696.225 32.45L696.6 30.875C696.9 29.625 697.05 28.5 697.05 27.5C697.05 24.9 696.2 22.7 694.5 20.9C692.85 19.1 690.75 18.2 688.2 18.2C686.65 18.2 685.15 18.65 683.7 19.55C682 20.55 681.15 21.775 681.15 23.225V23.675L681.3 24.125L681.375 24.65H676.875C676.875 22.65 675.975 21.025 674.175 19.775C672.575 18.625 670.75 18.05 668.7 18.05C666.95 18.05 665.45 18.425 664.2 19.175C662.65 20.025 661.875 21.275 661.875 22.925C661.975 23.625 662.1 24.125 662.25 24.425L663.375 26C663.875 26.7 664.125 27.25 664.125 27.65C664.125 28.45 663.7 28.85 662.85 28.85H662.175C659.775 26.75 658.575 24.6 658.575 22.4C658.575 19.7 659.7 17.475 661.95 15.725C664 14.075 666.4 13.25 669.15 13.25C672.45 13.25 675.075 14.1 677.025 15.8L679.575 18.575L681.45 16.4C683.35 14.7 685.875 13.85 689.025 13.85C692.725 13.85 695.575 15.25 697.575 18.05C699.325 20.5 700.2 23.65 700.2 27.5ZM692.625 36.05L690.525 34.4C686.975 32.25 682.95 31.175 678.45 31.175C676.25 31.175 674.65 31.325 673.65 31.625C671.55 32.275 670.5 33.275 670.5 34.625C670.5 35.275 670.725 35.825 671.175 36.275C672.575 37.975 674.375 38.825 676.575 38.825C676.925 38.875 677.5 38.975 678.3 39.125H680.625L684.6 38.825C686.25 38.675 687.85 38.325 689.4 37.775L691.2 37.1C691.8 36.85 692.275 36.5 692.625 36.05ZM734.504 9.125C734.504 14.025 732.054 16.775 727.154 17.375C729.204 18.875 730.779 20.85 731.879 23.3C732.929 24.75 733.454 26.775 733.454 29.375C733.454 33.525 732.179 37 729.629 39.8C727.079 42.6 723.729 44 719.579 44C715.429 44 711.879 42.925 708.929 40.775C705.579 38.425 703.904 35.25 703.904 31.25C703.904 26.5 704.829 22.975 706.679 20.675L709.904 17.6H704.429L704.504 13.1H724.904C729.204 13.1 731.354 11.55 731.354 8.45C731.354 7.15 730.754 5.9 729.554 4.7C729.204 4.35 728.879 3.975 728.579 3.575C728.529 3.475 728.429 3.35 728.279 3.2C728.279 2.6 728.579 2.25 729.179 2.15C730.379 2.15 731.554 3 732.704 4.7C733.904 6.35 734.504 7.825 734.504 9.125ZM729.479 27.8C729.479 25.75 728.804 23.8 727.454 21.95C726.104 20.05 724.454 18.8 722.504 18.2C721.204 17.8 719.754 17.6 718.154 17.6C714.604 17.6 711.879 18.85 709.979 21.35C708.279 23.6 707.429 26.55 707.429 30.2C707.429 33.1 708.654 35.4 711.104 37.1C713.254 38.6 715.829 39.35 718.829 39.35C722.179 39.35 724.829 38.25 726.779 36.05C728.579 33.95 729.479 31.2 729.479 27.8ZM754.025 27.425C754.025 33.075 752.675 37.475 749.975 40.625C747.975 42.975 745.5 44.15 742.55 44.15C736.75 44.15 733.025 40.9 731.375 34.4C730.825 32.25 730.55 30.4 730.55 28.85L730.775 28.025C731.325 27.575 731.95 27.35 732.65 27.35C732.9 27.4 733.075 27.55 733.175 27.8C733.175 29.05 733.35 30.4 733.7 31.85C735 37.25 737.6 39.95 741.5 39.95C747.95 39.95 751.175 35.975 751.175 28.025C751.175 22.775 749.65 19.55 746.6 18.35C745.6 17.95 744.95 17.75 744.65 17.75C744.4 17.75 743.925 17.9 743.225 18.2C742.525 18.45 741.975 18.575 741.575 18.575C740.025 18.575 739.25 17.775 739.25 16.175C739.25 14.625 740.725 13.7 743.675 13.4C746.875 13.4 749.45 15 751.4 18.2C753.15 20.95 754.025 24.025 754.025 27.425ZM831.1 32.075C831.1 33.625 830.55 35.375 829.45 37.325C827 41.675 823.6 43.85 819.25 43.85C815.6 43.85 812.725 42.575 810.625 40.025C810.425 39.675 810.175 39.2 809.875 38.6L809.35 37.475C807.05 41.825 803.775 44 799.525 44C796.375 44 793.725 42.925 791.575 40.775C789.425 38.625 788.35 35.975 788.35 32.825C788.35 30.375 789.225 28.225 790.975 26.375C792.775 24.525 794.9 23.6 797.35 23.6C800.7 23.6 803.1 24.75 804.55 27.05C804.95 27.85 805.225 28.9 805.375 30.2C805.375 31.55 805.1 32.6 804.55 33.35C803.25 35.15 801.525 36.05 799.375 36.05C795.975 36.05 794.275 34.7 794.275 32C794.275 30.65 794.95 29.975 796.3 29.975C796.3 32.375 797.225 33.575 799.075 33.575C799.625 33.575 800.275 33.425 801.025 33.125C801.775 32.825 802.175 32.45 802.225 32L802.3 30.8L802.15 29.6C802.15 28.9 801.375 28.225 799.825 27.575C799.225 27.325 798.475 27.2 797.575 27.2C796.475 27.2 795.275 27.65 793.975 28.55C792.525 29.5 791.8 30.5 791.8 31.55L791.65 33.05L791.8 34.475C791.8 35.775 792.75 36.9 794.65 37.85C796.25 38.65 797.775 39.05 799.225 39.05C800.825 39.05 802.375 38.625 803.875 37.775C805.425 36.925 806.425 35.8 806.875 34.4V34.025L806.725 33.5C806.725 32.3 807.675 31.7 809.575 31.7C810.225 31.7 810.85 31.85 811.45 32.15L812.425 34.925C813.325 37.525 815.525 38.825 819.025 38.825C821.275 38.825 823.1 38.05 824.5 36.5C825.95 34.95 826.675 33.05 826.675 30.8C826.675 26.3 824.5 22.55 820.15 19.55C816.3 16.85 812.025 15.5 807.325 15.5L797.125 16.55L796.675 16.475H796.225C795.525 15.925 795.175 15.25 795.175 14.45C795.175 12.45 797.2 11.45 801.25 11.45H801.85C809 11.45 815.375 13.1 820.975 16.4C827.725 20.4 831.1 25.625 831.1 32.075ZM858.648 27.95C858.648 29.75 858.423 31.575 857.973 33.425C857.223 36.475 855.973 38.925 854.223 40.775C852.223 42.875 849.773 43.925 846.873 43.925C844.773 43.925 842.848 43.2 841.098 41.75C837.898 39.1 836.023 35.425 835.473 30.725C835.473 30.425 835.423 29.975 835.323 29.375V28.1C835.323 26.75 835.423 25.575 835.623 24.575C835.623 21.875 837.423 18.725 841.023 15.125L844.098 13.85C845.198 13.4 846.248 13.175 847.248 13.175C850.798 13.175 853.648 14.8 855.798 18.05C857.698 20.9 858.648 24.2 858.648 27.95ZM855.048 28.1C855.048 25.35 854.323 22.975 852.873 20.975C851.273 18.725 849.148 17.6 846.498 17.6C843.948 17.6 841.948 18.825 840.498 21.275C839.248 23.375 838.623 25.775 838.623 28.475C838.623 31.225 839.348 33.6 840.798 35.6C842.398 37.85 844.548 38.975 847.248 38.975C849.848 38.975 851.848 37.75 853.248 35.3C854.448 33.25 855.048 30.85 855.048 28.1ZM901.445 30.8C901.445 38.1 898.62 42.425 892.97 43.775L890.57 44.075L888.32 43.925C887.52 43.875 886.895 43.75 886.445 43.55C884.395 42.65 882.82 41.375 881.72 39.725L880.82 38.375L880.67 38.3C880.37 38.55 880.145 38.95 879.995 39.5L879.695 39.95L879.47 40.325C877.32 42.775 874.72 44 871.67 44C867.42 44 864.245 42.25 862.145 38.75C861.145 37.05 860.595 34.825 860.495 32.075L860.42 29.75C861.02 25.45 863.62 21.75 868.22 18.65L869.87 17.825L870.02 17.6H860.645V13.1H890.72V17.6C897.87 21.1 901.445 25.5 901.445 30.8ZM898.07 30.2C898.07 26.5 896.12 23.425 892.22 20.975C889.22 19.075 885.545 18.125 881.195 18.125C875.345 18.125 870.77 19.9 867.47 23.45C865.37 25.7 864.32 28.125 864.32 30.725C864.32 34.725 865.77 37.375 868.67 38.675C868.62 38.725 868.595 38.775 868.595 38.825C868.745 38.875 868.92 38.9 869.12 38.9L870.77 39.05C872.87 39.05 874.32 38.825 875.12 38.375C877.12 37.225 878.195 35.925 878.345 34.475C878.395 33.975 878.42 33.225 878.42 32.225L880.52 32.15H881.645C882.145 32.15 882.595 32.2 882.995 32.3V32.825C883.645 37.025 886.045 39.125 890.195 39.125C892.445 39.125 894.345 38.175 895.895 36.275C897.345 34.525 898.07 32.5 898.07 30.2ZM901.148 8.825C901.148 11.075 900.348 13.1 898.748 14.9C897.098 16.7 895.173 17.6 892.973 17.6H880.823V13.1H892.898C894.148 13.1 895.173 12.475 895.973 11.225C896.673 10.175 897.023 8.975 897.023 7.625C897.023 4.975 895.548 3.65 892.598 3.65C891.398 3.65 890.723 3.925 890.573 4.475H891.023C893.223 4.475 894.323 5.475 894.323 7.475C894.323 9.475 893.223 10.475 891.023 10.475C889.873 10.475 888.898 10.05 888.098 9.2C887.248 8.35 886.823 7.35 886.823 6.2C886.823 2.45 888.973 0.574996 893.273 0.574996C895.523 0.574996 897.398 1.4 898.898 3.05C900.398 4.65 901.148 6.575 901.148 8.825ZM928.521 27.95C928.521 29.75 928.296 31.575 927.846 33.425C927.096 36.475 925.846 38.925 924.096 40.775C922.096 42.875 919.646 43.925 916.746 43.925C914.646 43.925 912.721 43.2 910.971 41.75C907.771 39.1 905.896 35.425 905.346 30.725C905.346 30.425 905.296 29.975 905.196 29.375V28.1C905.196 26.75 905.296 25.575 905.496 24.575C905.496 21.875 907.296 18.725 910.896 15.125L913.971 13.85C915.071 13.4 916.121 13.175 917.121 13.175C920.671 13.175 923.521 14.8 925.671 18.05C927.571 20.9 928.521 24.2 928.521 27.95ZM924.921 28.1C924.921 25.35 924.196 22.975 922.746 20.975C921.146 18.725 919.021 17.6 916.371 17.6C913.821 17.6 911.821 18.825 910.371 21.275C909.121 23.375 908.496 25.775 908.496 28.475C908.496 31.225 909.221 33.6 910.671 35.6C912.271 37.85 914.421 38.975 917.121 38.975C919.721 38.975 921.721 37.75 923.121 35.3C924.321 33.25 924.921 30.85 924.921 28.1ZM973.118 32.75C973.118 36 972.043 38.8 969.893 41.15C967.793 43.45 965.143 44.6 961.943 44.6C958.543 44.6 956.093 43.95 954.593 42.65L952.943 40.7L951.518 38.9C950.168 40.25 949.168 41.375 948.518 42.275C946.318 43.525 944.843 44.15 944.093 44.15C943.393 44.4 942.718 44.525 942.068 44.525L940.118 44.225C938.118 43.925 936.668 43.375 935.768 42.575C932.118 39.375 930.293 35.75 930.293 31.7V31.4L930.593 28.625C931.343 26.025 933.318 23.1 936.518 19.85L938.168 18.575L938.318 18.425C935.668 17.175 934.343 15.225 934.343 12.575C934.343 9.625 935.718 7.375 938.468 5.825C940.668 4.575 943.368 3.95 946.568 3.95C956.518 3.95 963.343 7.9 967.043 15.8L968.168 18.2L968.468 19.4C968.518 19.5 968.568 19.725 968.618 20.075C969.868 22.875 970.818 24.8 971.468 25.85C972.568 28.1 973.118 30.4 973.118 32.75ZM965.093 18.875L964.643 17.45C961.993 12.7 958.418 9.825 953.918 8.825L953.243 8.675L950.993 8.225L944.768 8.375C944.068 8.375 943.368 8.5 942.668 8.75C939.868 9.7 938.468 11.275 938.468 13.475C938.468 15.625 939.618 16.7 941.918 16.7L943.568 16.475L945.068 16.1C946.468 15.75 947.593 15.575 948.443 15.575C948.843 15.475 949.568 15.425 950.618 15.425C956.318 15.425 961.143 16.575 965.093 18.875ZM968.543 31.25C968.543 27.05 966.468 23.8 962.318 21.5C958.918 19.7 954.918 18.8 950.318 18.8C948.818 18.8 947.068 19.05 945.068 19.55C938.118 21.3 934.643 24.9 934.643 30.35C934.643 32.8 935.418 34.875 936.968 36.575C938.568 38.275 940.593 39.125 943.043 39.125C944.643 39.125 946.118 38.65 947.468 37.7C948.868 36.75 949.568 35.5 949.568 33.95L949.418 33.35L949.343 32.75C950.443 32.8 952.093 32.925 954.293 33.125L954.068 34.4C954.068 35.35 954.493 36.375 955.343 37.475C956.243 38.525 957.168 39.2 958.118 39.5C958.668 39.75 959.168 39.875 959.618 39.875H961.043C963.343 39.875 965.193 38.975 966.593 37.175C967.893 35.575 968.543 33.6 968.543 31.25ZM1011.24 34.4C1011.24 35.7 1010.91 37.525 1010.26 39.875C1009.46 42.775 1008.54 44.225 1007.49 44.225H1006.66L1002.99 44V43.325C1005.89 39.375 1007.34 35.925 1007.34 32.975C1007.34 29.475 1005.96 26.175 1003.21 23.075C1000.46 19.975 997.364 18.425 993.914 18.425C990.364 18.425 987.214 19.8 984.464 22.55C981.714 25.3 980.339 28.45 980.339 32C980.339 35.05 981.014 37.75 982.364 40.1L983.189 41.525L984.089 42.65V42.95L984.164 44H979.064C977.214 40.9 976.289 37.6 976.289 34.1C976.289 29.45 977.789 25.425 980.789 22.025C982.439 20.175 984.389 18.775 986.639 17.825C986.789 17.725 986.964 17.675 987.164 17.675L976.514 17.6V13.1H1001.11C1005.41 13.1 1007.56 11.55 1007.56 8.45C1007.56 7.15 1006.96 5.9 1005.76 4.7C1005.41 4.35 1005.09 3.975 1004.79 3.575C1004.74 3.475 1004.64 3.35 1004.49 3.2C1004.49 2.6 1004.79 2.25 1005.39 2.15C1006.59 2.15 1007.76 3 1008.91 4.7C1010.11 6.35 1010.71 7.825 1010.71 9.125C1010.71 12.325 1009.79 14.575 1007.94 15.875C1006.44 16.925 1003.99 17.5 1000.59 17.6C1000.74 17.7 1000.91 17.8 1001.11 17.9C1007.86 22.1 1011.24 27.6 1011.24 34.4ZM1054.19 30.575C1054.19 32.475 1053.86 34.8 1053.21 37.55C1052.31 39.65 1050.79 41.45 1048.64 42.95C1046.59 43.95 1044.69 44.45 1042.94 44.45C1040.04 44.45 1037.71 43.625 1035.96 41.975C1034.21 40.275 1033.34 37.975 1033.34 35.075C1033.34 33.625 1033.46 32.45 1033.71 31.55C1034.81 27.6 1037.29 25.625 1041.14 25.625C1044.99 25.625 1046.91 27.15 1046.91 30.2C1046.91 32.9 1045.74 34.25 1043.39 34.25C1040.79 34.25 1039.49 32.975 1039.49 30.425C1039.59 29.425 1039.71 28.675 1039.86 28.175C1038.01 28.775 1036.71 30.425 1035.96 33.125V34.4L1036.19 36.2C1036.29 36.5 1036.59 37 1037.09 37.7C1038.24 39.3 1039.69 40.175 1041.44 40.325L1042.41 40.4H1043.46C1048.76 39.45 1051.41 36.1 1051.41 30.35C1051.41 21.9 1046.66 17.675 1037.16 17.675C1034.81 17.675 1032.79 18.325 1031.09 19.625C1029.39 20.925 1028.44 22.725 1028.24 25.025C1028.24 25.275 1028.19 25.725 1028.09 26.375V27.65C1028.09 28.75 1028.11 29.525 1028.16 29.975L1028.69 34.85C1028.89 36.95 1027.91 39.225 1025.76 41.675C1024.11 43.525 1022.01 44.45 1019.46 44.45C1016.61 44.45 1014.16 43.5 1012.11 41.6C1010.01 39.7 1008.89 37.325 1008.74 34.475L1008.44 28.775C1008.44 28.475 1008.61 28.175 1008.96 27.875C1009.31 27.575 1009.64 27.425 1009.94 27.425C1010.44 27.425 1010.76 27.7 1010.91 28.25L1010.99 29.825C1011.14 33.075 1011.76 35.425 1012.86 36.875C1014.16 38.625 1016.36 39.5 1019.46 39.5C1023.66 39.5 1025.76 36.775 1025.76 31.325L1025.39 28.025L1025.24 25.55C1025.04 22.2 1026.14 19.35 1028.54 17C1030.94 14.65 1033.84 13.475 1037.24 13.475C1044.89 13.475 1049.81 15.925 1052.01 20.825C1053.46 24.075 1054.19 27.325 1054.19 30.575ZM1122.27 28.55C1122.27 33.75 1120.5 38.025 1116.95 41.375C1115.25 42.975 1113.85 43.775 1112.75 43.775C1112.5 43.775 1112.15 43.8 1111.7 43.85C1107.65 43.85 1104.85 42.175 1103.3 38.825C1102.95 38.025 1102.45 36.525 1101.8 34.325C1101.2 32.275 1100.62 30.875 1100.07 30.125C1098.97 28.675 1097.55 28.075 1095.8 28.325C1092.95 28.775 1091.52 30.55 1091.52 33.65V34.4C1091.52 37.4 1092.32 39.25 1093.92 39.95C1096.42 41.05 1097.67 42.05 1097.67 42.95L1097.75 43.55C1097.75 44.2 1097.45 44.75 1096.85 45.2L1095.87 45.35C1094.02 45.65 1092.25 44.475 1090.55 41.825C1089.05 39.525 1088.3 37.375 1088.3 35.375V32.6C1088.3 30.6 1088.97 28.6 1090.32 26.6C1091.72 24.55 1093.4 23.525 1095.35 23.525C1099.7 23.525 1102.52 25.75 1103.82 30.2L1104.42 32.225C1105.22 34.975 1105.95 36.725 1106.6 37.475C1107.5 38.575 1108.8 39.125 1110.5 39.125C1110.8 39.125 1111.35 39.075 1112.15 38.975C1113.55 38.325 1114.45 37.825 1114.85 37.475C1117.65 34.475 1119.05 30.5 1119.05 25.55C1119.05 23.95 1118.97 22.7 1118.82 21.8C1118.47 19.85 1117.82 17.8 1116.87 15.65C1115.02 11.5 1112.02 8.45 1107.87 6.5C1107.12 6.15 1106.6 5.95 1106.3 5.9C1107.75 7.35 1108.6 9.15 1108.85 11.3C1108.85 12.5 1108.65 13.65 1108.25 14.75C1107.75 16.2 1107.02 16.925 1106.07 16.925L1102.77 17.3L1101.27 16.775C1097.82 15.575 1095.92 13.125 1095.57 9.425C1095.57 4.625 1097.82 2.025 1102.32 1.625C1102.52 1.625 1102.85 1.6 1103.3 1.55C1107.85 1.55 1112.22 4.25 1116.42 9.65C1119.57 13.65 1121.42 17.85 1121.97 22.25C1122.17 23.8 1122.27 25.9 1122.27 28.55ZM1104.95 10.4L1104.57 8.9C1103.67 7.05 1102.55 6.125 1101.2 6.125C1099.4 6.125 1098.62 7.325 1098.87 9.725C1099.02 10.825 1099.47 11.8 1100.22 12.65C1100.97 13.5 1101.87 13.825 1102.92 13.625C1104.47 13.375 1105.15 12.3 1104.95 10.4ZM1142.58 20.225C1142.58 22.375 1142.03 24.225 1140.93 25.775C1139.68 27.575 1138.03 28.475 1135.98 28.475C1132.13 28.475 1130.2 26.35 1130.2 22.1C1130.2 20.05 1130.58 18.475 1131.33 17.375C1130.78 17.925 1130.18 18.875 1129.53 20.225C1128.93 21.525 1128.63 22.525 1128.63 23.225C1128.28 24.775 1128.1 26.225 1128.1 27.575C1128.1 29.875 1128.75 32.075 1130.05 34.175C1131.4 36.425 1133.13 37.875 1135.23 38.525L1137.55 39.575C1138.3 40.125 1138.68 40.825 1138.68 41.675C1138.68 43.175 1137.9 43.925 1136.35 43.925C1135.15 43.925 1133.83 43.4 1132.38 42.35C1127.93 39.15 1125.7 33.925 1125.7 26.675C1125.7 25.375 1125.9 23.825 1126.3 22.025C1126.9 19.325 1127.95 17.15 1129.45 15.5C1131.2 13.55 1133.35 12.575 1135.9 12.575C1138.05 12.575 1139.98 13.875 1141.68 16.475C1142.28 17.975 1142.58 19.225 1142.58 20.225ZM1139.88 20.825C1139.88 18.025 1138.78 16.625 1136.58 16.625C1134.43 16.625 1133.35 17.975 1133.35 20.675V21.95C1133.95 23.35 1135.08 24.05 1136.73 24.05C1138.83 24.05 1139.88 22.975 1139.88 20.825ZM1202.2 9.125C1202.2 12.475 1201.17 14.8 1199.12 16.1C1197.52 17.1 1194.95 17.6 1191.4 17.6H1188.92C1189.67 18.65 1190.05 19.925 1190.05 21.425V22.4L1194.7 22.55L1198.22 22.475H1201.82V27.275H1195.22L1196.57 28.85C1197.57 30.4 1198.07 32.275 1198.07 34.475C1198.07 37.075 1197.25 39.275 1195.6 41.075C1194 42.875 1191.92 43.775 1189.37 43.775C1186.52 43.775 1184.07 42.9 1182.02 41.15C1180.02 39.35 1179.02 37.05 1179.02 34.25C1179.02 31.2 1180.12 28.725 1182.32 26.825L1181.8 26.9H1176.1V22.4H1186.45C1186.75 22.4 1186.9 21.95 1186.9 21.05C1186.9 19.75 1186.45 18.6 1185.55 17.6H1184.95L1183.9 17.525H1178.57L1176.1 17.6V13.1H1192.6C1196.9 13.1 1199.05 11.55 1199.05 8.45C1199.05 7.15 1198.45 5.9 1197.25 4.7C1196.9 4.35 1196.57 3.975 1196.27 3.575C1196.22 3.475 1196.12 3.35 1195.97 3.2C1195.97 2.6 1196.27 2.25 1196.87 2.15C1198.07 2.15 1199.25 3 1200.4 4.7C1201.6 6.35 1202.2 7.825 1202.2 9.125ZM1194.62 33.2C1194.62 31.6 1194.02 30.175 1192.82 28.925C1191.67 27.675 1190.3 27.05 1188.7 27.05C1186.95 27.05 1185.47 27.625 1184.27 28.775C1183.12 29.875 1182.55 31.3 1182.55 33.05C1182.55 34.85 1183.12 36.3 1184.27 37.4C1185.42 38.45 1186.92 38.975 1188.77 38.975C1190.42 38.975 1191.8 38.425 1192.9 37.325C1194.05 36.225 1194.62 34.85 1194.62 33.2ZM1238.04 9.125C1238.04 11.925 1237.34 14 1235.94 15.35C1234.69 16.5 1232.67 17.2 1229.87 17.45C1232.27 19.55 1233.94 21.175 1234.89 22.325C1236.94 24.825 1237.97 27.375 1237.97 29.975C1237.97 32.125 1237.79 33.775 1237.44 34.925C1235.69 40.625 1232.17 43.475 1226.87 43.475C1225.12 43.475 1223.82 43.275 1222.97 42.875C1221.27 42.075 1219.97 40.85 1219.07 39.2C1218.62 38.4 1217.94 36.7 1217.04 34.1C1216.24 31.85 1215.57 30.325 1215.02 29.525C1214.12 28.275 1213.02 27.65 1211.72 27.65C1210.22 27.85 1209.07 28.625 1208.27 29.975C1207.52 31.125 1207.14 32.5 1207.14 34.1C1207.14 36.25 1207.62 37.85 1208.57 38.9C1209.22 39.5 1209.84 39.925 1210.44 40.175C1212.24 41.225 1213.14 42.125 1213.14 42.875C1213.19 44.175 1212.54 44.825 1211.19 44.825C1210.94 44.825 1210.07 44.525 1208.57 43.925C1206.12 41.675 1204.74 38.85 1204.44 35.45V34.55C1204.44 33.25 1204.49 32.275 1204.59 31.625C1205.44 25.975 1207.77 23.15 1211.57 23.15C1213.37 23.15 1214.57 23.3 1215.17 23.6C1216.72 24.4 1217.77 25.5 1218.32 26.9C1218.57 27.45 1218.99 28.825 1219.59 31.025C1220.19 33.225 1220.77 34.85 1221.32 35.9C1222.17 37.5 1223.52 38.525 1225.37 38.975L1226.87 38.825C1228.17 38.675 1229.22 38.425 1230.02 38.075C1232.57 36.875 1234.02 34.8 1234.37 31.85L1234.29 29.9C1234.14 25.9 1231.87 22.375 1227.47 19.325L1225.52 17.975L1225.07 17.6H1205.19L1205.12 13.1H1228.44C1232.74 13.1 1234.89 11.55 1234.89 8.45C1234.89 7.15 1234.29 5.9 1233.09 4.7C1232.74 4.35 1232.42 3.975 1232.12 3.575C1232.07 3.475 1231.97 3.35 1231.82 3.2C1231.82 2.6 1232.12 2.25 1232.72 2.15C1233.92 2.15 1235.09 3 1236.24 4.7C1237.44 6.35 1238.04 7.825 1238.04 9.125ZM1249.44 64.7C1249.44 66.25 1248.39 67.025 1246.29 67.025C1244.79 67.025 1243.57 66.475 1242.62 65.375C1241.22 62.925 1240.29 61.075 1239.84 59.825C1239.49 59.975 1238.94 60.175 1238.19 60.425L1238.12 60.575L1235.87 61.025H1234.97C1232.72 61.025 1230.77 60.525 1229.12 59.525C1227.17 58.325 1226.19 56.675 1226.19 54.575C1226.19 52.825 1226.92 51.375 1228.37 50.225C1229.72 49.225 1231.29 48.725 1233.09 48.725C1235.89 48.725 1238.27 50 1240.22 52.55C1240.37 52.95 1240.62 53.65 1240.97 54.65C1240.97 54.7 1240.99 54.775 1241.04 54.875C1241.49 54.875 1241.94 54.35 1242.39 53.3C1242.84 52.25 1243.07 51.45 1243.07 50.9L1243.52 47.375C1243.52 45.025 1242.72 42.575 1241.12 40.025C1240.22 38.625 1239.77 37.575 1239.77 36.875C1239.77 35.625 1240.27 35 1241.27 35C1242.92 35 1244.24 36.65 1245.24 39.95C1246.04 42.55 1246.44 44.8 1246.44 46.7C1246.44 51.05 1244.97 54.85 1242.02 58.1C1242.12 58.55 1242.24 58.85 1242.39 59C1242.74 59.75 1243.24 60.675 1243.89 61.775C1244.59 62.525 1245.54 62.9 1246.74 62.9H1247.42L1248.09 62.825C1248.99 63.075 1249.44 63.7 1249.44 64.7ZM1238.64 56.75L1238.42 55.7C1237.57 54.1 1236.92 53.1 1236.47 52.7C1235.72 52 1234.59 51.65 1233.09 51.65C1231.04 51.65 1229.82 52.3 1229.42 53.6V53.975C1229.42 56.175 1231.37 57.275 1235.27 57.275C1237.17 57.275 1238.29 57.1 1238.64 56.75ZM1288.28 33.425C1288.28 36.425 1287.26 38.975 1285.21 41.075C1283.21 43.175 1280.71 44.225 1277.71 44.225C1274.06 44.225 1271.26 42.65 1269.31 39.5L1268.56 37.85L1268.11 38.825C1266.51 42.275 1263.46 44 1258.96 44C1255.81 44 1253.33 42.525 1251.53 39.575C1249.98 37.075 1249.21 34.125 1249.21 30.725C1249.21 26.425 1250.81 22.975 1254.01 20.375L1256.71 18.65C1256.66 18 1256.46 17.65 1256.11 17.6H1249.81V13.1L1278.76 13.175C1282.96 13.175 1285.06 11.625 1285.06 8.525C1285.06 7.225 1284.46 5.975 1283.26 4.775C1282.91 4.425 1282.58 4.05 1282.28 3.65C1282.23 3.55 1282.13 3.425 1281.98 3.275C1281.98 2.675 1282.28 2.325 1282.88 2.225C1284.08 2.225 1285.26 3.075 1286.41 4.775C1287.61 6.425 1288.21 7.9 1288.21 9.2C1288.21 12.4 1287.31 14.65 1285.51 15.95C1284.01 17 1281.61 17.575 1278.31 17.675C1279.06 18.175 1279.98 18.8 1281.08 19.55C1282.53 20.8 1283.53 22.025 1284.08 23.225L1284.46 24.05C1284.66 24.85 1284.88 25.325 1285.13 25.475L1285.66 26.075L1285.88 26.225L1286.41 27.125C1287.66 29.275 1288.28 31.375 1288.28 33.425ZM1281.68 26.675C1281.68 25.625 1280.43 25.1 1277.93 25.1C1275.93 25.1 1274.93 25.95 1274.93 27.65V28.4C1275.68 29.45 1276.51 29.975 1277.41 29.975C1278.51 29.975 1279.48 29.7 1280.33 29.15C1281.23 28.55 1281.68 27.725 1281.68 26.675ZM1285.21 32.975L1284.91 30.8C1284.61 29.7 1284.36 29.075 1284.16 28.925L1283.48 30.05C1283.33 30.25 1283.13 30.625 1282.88 31.175C1281.53 33.275 1279.81 34.325 1277.71 34.325C1275.81 34.325 1274.26 33.775 1273.06 32.675C1271.91 31.575 1271.33 30.075 1271.33 28.175C1271.33 26.275 1271.93 24.8 1273.13 23.75C1274.38 22.7 1275.98 22.175 1277.93 22.175L1279.51 22.55L1280.93 22.85C1280.38 21.75 1279.03 20.7 1276.88 19.7C1274.78 18.65 1273.06 18.125 1271.71 18.125H1262.93C1262.28 18.125 1261.31 18.5 1260.01 19.25C1256.26 21.45 1253.96 23.625 1253.11 25.775C1252.56 26.825 1252.28 27.575 1252.28 28.025L1252.06 30.05L1252.28 32.075L1252.88 33.725C1254.13 37.175 1256.61 38.9 1260.31 38.9C1262.26 38.9 1263.96 37.9 1265.41 35.9C1266.11 34.95 1266.46 34.2 1266.46 33.65L1266.31 33.05V32.3H1268.63L1270.43 32.45L1270.73 32.825C1270.73 37.125 1273.08 39.275 1277.78 39.275C1279.68 39.275 1281.38 38.7 1282.88 37.55C1284.43 36.35 1285.21 34.825 1285.21 32.975ZM1332.26 34.55C1331.81 37.2 1330.59 39.425 1328.59 41.225C1326.59 43.025 1324.26 43.925 1321.61 43.925C1318.91 43.925 1316.81 43.45 1315.31 42.5C1313.86 41.55 1312.51 39.85 1311.26 37.4C1311.11 37.55 1310.76 38 1310.21 38.75L1308.71 40.775C1307.11 42.925 1304.61 44 1301.21 44C1296.76 44 1293.79 42.275 1292.29 38.825L1291.99 38.3L1291.54 37.025C1291.24 36.175 1291.09 35.275 1291.09 34.325V33.2C1291.09 32.25 1291.39 31.025 1291.99 29.525C1292.59 28.025 1293.21 26.875 1293.86 26.075C1295.36 24.225 1297.24 23.3 1299.49 23.3C1301.64 23.3 1303.41 24 1304.81 25.4C1306.26 26.8 1306.99 28.575 1306.99 30.725C1306.99 32.325 1306.46 33.625 1305.41 34.625C1304.36 35.575 1303.04 36.1 1301.44 36.2L1300.09 36.275C1297.69 35.575 1296.49 34.35 1296.49 32.6C1296.49 31.6 1296.84 30.875 1297.54 30.425C1297.79 30.625 1298.06 30.975 1298.36 31.475C1299.11 33.125 1300.16 33.95 1301.51 33.95C1303.11 33.8 1303.91 32.8 1303.91 30.95C1303.61 28.7 1302.04 27.575 1299.19 27.575C1295.94 27.875 1294.31 29.725 1294.31 33.125C1294.31 35.075 1295.09 36.6 1296.64 37.7C1298.04 38.7 1299.76 39.2 1301.81 39.2C1303.76 39.2 1305.46 38.55 1306.91 37.25C1308.36 35.95 1309.09 34.325 1309.09 32.375L1310.51 32.3H1311.64C1313.09 32.3 1313.81 32.475 1313.81 32.825L1313.59 33.575C1313.74 34.925 1314.34 36.15 1315.39 37.25C1316.44 38.3 1317.64 38.975 1318.99 39.275L1320.56 39.2C1325.46 38.95 1327.91 36.325 1327.91 31.325C1327.91 28.775 1326.94 26.2 1324.99 23.6C1323.09 20.95 1320.94 19.175 1318.54 18.275C1317.39 17.875 1316.01 17.65 1314.41 17.6L1310.29 17.525L1291.31 17.6L1291.39 13.1H1318.91L1320.71 15.725L1321.24 16.1L1321.39 16.25V16.325C1326.79 20.675 1330.11 24.475 1331.36 27.725C1331.76 28.725 1332.04 30.325 1332.19 32.525L1332.26 33.5V34.55ZM1357.59 28.85C1357.59 32.9 1356.64 36.3 1354.74 39.05C1352.59 42.2 1349.56 43.775 1345.66 43.775C1342.51 43.775 1340.01 42.55 1338.16 40.1C1336.51 37.9 1335.69 35.175 1335.69 31.925C1335.69 29.275 1336.26 27.05 1337.41 25.25C1338.76 23.2 1340.71 22.175 1343.26 22.175C1344.66 22.175 1345.84 22.475 1346.79 23.075C1347.94 23.825 1348.51 24.85 1348.51 26.15C1348.51 28.75 1347.16 30.05 1344.46 30.05C1342.11 30.05 1340.94 28.575 1340.94 25.625C1339.49 25.925 1338.76 28.025 1338.76 31.925C1338.76 36.425 1341.34 38.675 1346.49 38.675C1351.74 38.675 1354.36 35.15 1354.36 28.1C1354.36 23.95 1352.86 20.95 1349.86 19.1L1350.31 19.25C1349.91 19.15 1349.41 18.925 1348.81 18.575L1343.41 17.6H1315.66V13.1L1344.46 13.25C1350.61 14.3 1354.59 17.375 1356.39 22.475C1357.19 24.725 1357.59 26.85 1357.59 28.85ZM1395.68 34.25C1395.68 37.5 1394.98 40.575 1393.58 43.475L1393.13 44L1392.98 44.225L1391.41 44.3H1389.83C1388.53 44.3 1387.78 44.125 1387.58 43.775L1387.96 43.475C1390.51 39.175 1391.78 35.8 1391.78 33.35C1391.78 29.1 1390.58 25.625 1388.18 22.925C1385.63 20.025 1382.28 18.575 1378.13 18.575C1374.58 18.575 1371.58 20.025 1369.13 22.925C1366.88 25.625 1365.76 28.8 1365.76 32.45C1365.76 34.8 1366.26 37.075 1367.26 39.275L1367.63 40.1C1368.73 41.85 1369.28 42.875 1369.28 43.175V43.625H1368.76L1364.56 43.85C1363.66 43.25 1362.91 41.725 1362.31 39.275C1361.81 37.275 1361.56 35.525 1361.56 34.025C1361.56 29.175 1363.26 24.825 1366.66 20.975L1369.73 18.275L1369.58 18.125L1369.13 17.9C1366.83 15.95 1365.68 14.1 1365.68 12.35C1365.68 10.1 1366.61 8.275 1368.46 6.875C1370.11 5.625 1372.11 5 1374.46 5C1377.86 5 1381.11 5.925 1384.21 7.775C1387.31 9.625 1389.48 12.075 1390.73 15.125C1391.03 15.875 1391.41 17.525 1391.86 20.075C1392.21 22.325 1392.63 23.85 1393.13 24.65L1393.43 25.25C1394.93 28.25 1395.68 31.25 1395.68 34.25ZM1388.71 19.25C1388.41 16.15 1386.78 13.575 1383.83 11.525C1381.08 9.625 1378.11 8.725 1374.91 8.825L1372.96 8.9C1370.26 9.3 1368.91 10.4 1368.91 12.2C1368.91 13.2 1369.26 14.15 1369.96 15.05C1370.66 15.9 1371.48 16.325 1372.43 16.325L1375.66 15.95L1379.11 15.5C1382.01 15.5 1385.21 16.75 1388.71 19.25ZM1430.74 9.125C1430.74 14.025 1428.29 16.775 1423.39 17.375C1425.44 18.875 1427.02 20.85 1428.12 23.3C1429.17 24.75 1429.69 26.775 1429.69 29.375C1429.69 33.525 1428.42 37 1425.87 39.8C1423.32 42.6 1419.97 44 1415.82 44C1411.67 44 1408.12 42.925 1405.17 40.775C1401.82 38.425 1400.14 35.25 1400.14 31.25C1400.14 26.5 1401.07 22.975 1402.92 20.675L1406.14 17.6H1400.67L1400.74 13.1H1421.14C1425.44 13.1 1427.59 11.55 1427.59 8.45C1427.59 7.15 1426.99 5.9 1425.79 4.7C1425.44 4.35 1425.12 3.975 1424.82 3.575C1424.77 3.475 1424.67 3.35 1424.52 3.2C1424.52 2.6 1424.82 2.25 1425.42 2.15C1426.62 2.15 1427.79 3 1428.94 4.7C1430.14 6.35 1430.74 7.825 1430.74 9.125ZM1425.72 27.8C1425.72 25.75 1425.04 23.8 1423.69 21.95C1422.34 20.05 1420.69 18.8 1418.74 18.2C1417.44 17.8 1415.99 17.6 1414.39 17.6C1410.84 17.6 1408.12 18.85 1406.22 21.35C1404.52 23.6 1403.67 26.55 1403.67 30.2C1403.67 33.1 1404.89 35.4 1407.34 37.1C1409.49 38.6 1412.07 39.35 1415.07 39.35C1418.42 39.35 1421.07 38.25 1423.02 36.05C1424.82 33.95 1425.72 31.2 1425.72 27.8ZM1450.27 27.425C1450.27 33.075 1448.92 37.475 1446.22 40.625C1444.22 42.975 1441.74 44.15 1438.79 44.15C1432.99 44.15 1429.27 40.9 1427.62 34.4C1427.07 32.25 1426.79 30.4 1426.79 28.85L1427.02 28.025C1427.57 27.575 1428.19 27.35 1428.89 27.35C1429.14 27.4 1429.32 27.55 1429.42 27.8C1429.42 29.05 1429.59 30.4 1429.94 31.85C1431.24 37.25 1433.84 39.95 1437.74 39.95C1444.19 39.95 1447.42 35.975 1447.42 28.025C1447.42 22.775 1445.89 19.55 1442.84 18.35C1441.84 17.95 1441.19 17.75 1440.89 17.75C1440.64 17.75 1440.17 17.9 1439.47 18.2C1438.77 18.45 1438.22 18.575 1437.82 18.575C1436.27 18.575 1435.49 17.775 1435.49 16.175C1435.49 14.625 1436.97 13.7 1439.92 13.4C1443.12 13.4 1445.69 15 1447.64 18.2C1449.39 20.95 1450.27 24.025 1450.27 27.425ZM1462.45 40.625C1462.45 41.725 1462.02 42.675 1461.17 43.475C1460.32 44.275 1459.35 44.675 1458.25 44.675C1457.2 44.675 1456.25 44.275 1455.4 43.475C1454.6 42.625 1454.2 41.675 1454.2 40.625C1454.2 39.425 1454.57 38.475 1455.32 37.775C1456.07 37.025 1457.05 36.65 1458.25 36.65C1461.05 36.65 1462.45 37.975 1462.45 40.625Z" fill="black"/>
</svg>
