<svg width="1502" height="68" viewBox="0 0 1502 68" fill="none" xmlns="http://www.w3.org/2000/svg">
<path d="M38.175 35.4C38.175 38 37.175 40.25 35.175 42.15C33.225 44.05 30.925 45 28.275 45C26.325 45 24.15 43.9 21.75 41.7C19.4 39.5 17.5 38.4 16.05 38.4C14.65 38.4 13.15 39.525 11.55 41.775C10 43.975 8.8 45.075 7.95 45.075C6.8 45.075 5.175 44.05 3.075 42C1.025 39.9 0 38.275 0 37.125C0 35.275 0.95 32.025 2.85 27.375L7.125 31.725C6.225 33.975 5.675 35.4 5.475 36C4.875 37.7 4.55 39.2 4.5 40.5C5.25 40.05 6.525 38.625 8.325 36.225C9.875 34.175 11.35 33.15 12.75 33.15C14.2 33.15 16.1 34.275 18.45 36.525C20.85 38.725 23.025 39.825 24.975 39.825C27.625 39.825 29.75 39.075 31.35 37.575C33 36.025 33.8 33.95 33.75 31.35C33.7 27.4 31 24.225 25.65 21.825C21.65 20.025 17.35 19 12.75 18.75L8.175 14.25C14.325 14.9 19.125 16.025 22.575 17.625C26.225 19.275 30.175 22.225 34.425 26.475C36.925 28.975 38.175 31.95 38.175 35.4ZM79.0459 32.85C79.0459 37.1 77.3959 40.275 74.0959 42.375C71.3459 44.125 67.7209 45 63.2209 45C57.8709 45 52.8959 43.325 48.2959 39.975C43.2959 36.325 40.7959 31.9 40.7959 26.7C40.7959 23.55 41.3459 20.875 42.4459 18.675C43.8459 15.775 45.9459 14.325 48.7459 14.325C50.3959 14.325 52.2209 15.475 54.2209 17.775C56.2209 20.025 57.2209 21.975 57.2209 23.625C57.2209 25.875 56.5709 27.9 55.2709 29.7C53.8709 31.7 52.0709 32.7 49.8709 32.7C48.3209 32.7 46.7709 31.9 45.2209 30.3C45.2209 34.3 46.6459 37.1 49.4959 38.7C51.6459 39.95 54.8709 40.575 59.1709 40.575C69.4209 40.575 74.5459 36.65 74.5459 28.8C74.5459 22.1 70.3709 18.75 62.0209 18.75L57.7459 14.25H66.4459L70.7209 18.75H70.1959C72.3959 20.7 74.2959 22.825 75.8959 25.125C77.9959 28.125 79.0459 30.7 79.0459 32.85ZM52.7959 19.575C52.7959 19.325 52.7709 19.05 52.7209 18.75C48.4709 18.8 46.0209 21.975 45.3709 28.275H46.1959C48.1959 28.275 49.8209 27.325 51.0709 25.425C52.2209 23.675 52.7959 21.725 52.7959 19.575ZM101.615 32.4C101.615 35.8 100.715 38.675 98.915 41.025C96.915 43.675 94.29 45 91.04 45C88.89 45 86.79 43.725 84.74 41.175C82.79 38.775 81.815 36.45 81.815 34.2C81.815 32.55 82.44 30.625 83.69 28.425C85.09 26.025 86.54 24.825 88.04 24.825C88.59 24.825 89.14 25.075 89.69 25.575L92.54 28.125C92.84 28.375 92.99 28.85 92.99 29.55C92.99 31.05 92.265 32.725 90.815 34.575C89.215 36.625 87.715 37.475 86.315 37.125C86.265 37.475 86.24 37.85 86.24 38.25C86.24 40.15 86.965 41.1 88.415 41.1C90.765 41.1 92.865 39.5 94.715 36.3C96.365 33.5 97.19 30.85 97.19 28.35C97.19 24.35 95.015 21.6 90.665 20.1C88.015 19.2 84.065 18.75 78.815 18.75H63.065L58.49 14.25H74.69C81.04 14.25 86.84 15.675 92.09 18.525C98.44 21.975 101.615 26.6 101.615 32.4ZM101.524 57.15C101.524 60.35 99.7236 63.25 96.1236 65.85L91.0986 61.5C93.4486 59.75 94.6986 58.8 94.8486 58.65C96.2986 57.2 97.1236 55.425 97.3236 53.325C97.4736 51.625 96.1736 50.775 93.4236 50.775C92.1736 50.775 90.4986 51.775 88.3986 53.775C86.2486 55.775 84.6486 56.775 83.5986 56.775C82.7486 56.775 81.4736 56 79.7736 54.45C78.2736 53.1 77.2486 51.925 76.6986 50.925C75.3486 51.925 74.2236 53.75 73.3236 56.4C72.8736 57.75 72.1986 59.8 71.2986 62.55L67.1736 58.425C67.6736 56.825 68.5236 54.45 69.7236 51.3C70.8736 48.15 72.4486 46.575 74.4486 46.575C75.2986 46.575 77.3736 48.55 80.6736 52.5C81.6736 52.45 83.0986 51.45 84.9486 49.5C86.7986 47.55 88.3486 46.575 89.5986 46.575C93.1986 46.575 96.0486 47.425 98.1486 49.125C100.399 50.975 101.524 53.65 101.524 57.15ZM142.997 16.5C139.397 18 135.997 18.75 132.797 18.75H129.497C138.297 23.9 142.697 29.45 142.697 35.4C142.697 38 141.697 40.25 139.697 42.15C137.697 44.05 135.372 45 132.722 45C130.872 45 128.722 43.9 126.272 41.7C123.872 39.5 121.997 38.4 120.647 38.4C119.197 38.4 117.672 39.525 116.072 41.775C114.522 43.975 113.322 45.075 112.472 45.075C111.272 45.075 109.647 44.05 107.597 42C105.547 39.95 104.522 38.325 104.522 37.125C104.522 35.675 105.347 32.625 106.997 27.975C108.347 24.125 109.547 21.05 110.597 18.75H108.722L104.222 14.25H129.047C132.447 14.25 135.647 13.55 138.647 12.15L142.997 16.5ZM138.272 31.35C138.272 24.45 131.297 20.25 117.347 18.75C111.747 29.15 108.922 36.425 108.872 40.575C109.672 40.525 110.897 39.275 112.547 36.825C114.197 34.375 115.797 33.15 117.347 33.15C118.697 33.15 120.572 34.275 122.972 36.525C125.372 38.725 127.547 39.825 129.497 39.825C132.097 39.825 134.197 39.075 135.797 37.575C137.447 36.025 138.272 33.95 138.272 31.35ZM184.013 16.5C180.413 18 177.013 18.75 173.813 18.75H170.813C174.163 20.45 177.038 22.725 179.438 25.575C182.288 28.875 183.713 32.15 183.713 35.4C183.713 38 182.263 40.3 179.363 42.3C176.713 44.1 174.038 45 171.338 45C165.938 45 161.913 44.475 159.263 43.425C156.663 42.375 153.488 39.975 149.738 36.225C148.238 34.725 147.488 32.875 147.488 30.675C147.488 27.975 148.888 24 151.688 18.75H149.738L145.162 14.25H170.063C173.463 14.25 176.663 13.55 179.663 12.15L184.013 16.5ZM179.288 31.35C179.288 26.8 176.813 23.5 171.863 21.45C169.213 20.35 164.713 19.45 158.363 18.75C156.263 22.6 154.913 25.175 154.313 26.475C152.763 29.875 151.988 32.625 151.988 34.725C151.988 37.475 153.963 39.25 157.913 40.05C159.613 40.4 162.763 40.575 167.362 40.575C170.063 40.575 172.663 39.725 175.163 38.025C177.913 36.125 179.288 33.9 179.288 31.35ZM220.828 34.425C220.828 37.375 219.828 39.875 217.828 41.925C215.878 43.975 213.428 45 210.478 45C208.428 45 206.378 43.75 204.328 41.25C202.328 38.75 201.328 36.45 201.328 34.35C201.328 32.35 201.828 30.45 202.828 28.65C204.028 26.55 205.553 25.5 207.403 25.5C208.203 25.5 208.953 25.8 209.653 26.4L212.053 28.5C212.453 28.85 212.653 29.4 212.653 30.15C212.653 31.5 212.178 32.75 211.228 33.9C208.978 36.6 207.178 37.875 205.828 37.725V38.325C205.828 40.175 206.503 41.1 207.853 41.1C209.903 41.1 211.853 39.8 213.703 37.2C215.453 34.8 216.328 32.525 216.328 30.375C216.328 25.675 214.503 22.425 210.853 20.625C208.303 19.375 204.353 18.75 199.003 18.75C198.953 20.9 198.803 24.125 198.553 28.425C198.203 32.875 197.403 36.6 196.153 39.6C194.603 43.2 192.428 45 189.628 45C188.478 45 187.528 44.625 186.778 43.875C183.278 40.375 181.278 38.175 180.778 37.275C179.928 35.725 179.503 32.925 179.503 28.875L183.928 33.3C183.928 36.35 184.403 38.775 185.353 40.575C188.253 40.625 190.453 38.825 191.953 35.175C193.203 32.125 193.953 28.35 194.203 23.85C194.253 21.75 194.378 18.575 194.578 14.325C199.978 14.325 204.053 14.9 206.803 16.05C209.553 17.15 212.803 19.575 216.553 23.325C219.403 26.175 220.828 29.875 220.828 34.425ZM291.814 48.825C289.914 50.425 287.764 51.225 285.364 51.225C283.364 51.225 281.489 50.55 279.739 49.2C279.339 48.9 277.889 47.5 275.389 45C271.539 44.9 268.814 44.475 267.214 43.725C265.664 42.975 263.564 41.175 260.914 38.325C259.964 37.275 259.489 36.075 259.489 34.725C259.489 32.225 260.689 30.3 263.089 28.95C265.339 27.7 267.664 27.2 270.064 27.45L270.739 27.525L274.939 31.725C274.689 32.875 274.564 34.15 274.564 35.55C274.564 37.1 274.739 38.675 275.089 40.275C278.489 39.675 281.314 38.3 283.564 36.15C286.064 33.8 287.314 30.975 287.314 27.675C287.314 21.725 284.939 18.75 280.189 18.75C278.889 18.75 277.114 19.8 274.864 21.9C272.664 24 270.989 25.05 269.839 25.05C268.889 25.05 267.539 24.225 265.789 22.575C264.239 21.125 263.164 19.875 262.564 18.825C261.364 19.725 260.364 21.25 259.564 23.4C259.014 25.2 258.464 27 257.914 28.8L253.564 24.45C254.264 22.35 254.939 20.25 255.589 18.15C256.739 15.6 258.289 14.325 260.239 14.325C261.139 14.325 263.314 16.4 266.764 20.55C267.864 20.5 269.364 19.45 271.264 17.4C273.214 15.3 274.839 14.25 276.139 14.25C279.939 14.25 283.489 16.2 286.789 20.1C290.089 24 291.739 27.875 291.739 31.725C291.739 35.525 290.289 38.675 287.389 41.175C284.689 43.525 281.389 44.8 277.489 45C278.389 46.2 279.689 46.8 281.389 46.8C283.739 46.8 285.789 46.075 287.539 44.625L291.814 48.825ZM272.089 40.575C270.889 38.025 270.214 35.275 270.064 32.325C265.964 33.475 263.914 35.575 263.914 38.625C263.914 39.925 265.839 40.575 269.689 40.575H272.089ZM333.134 16.5C329.534 18 326.134 18.75 322.934 18.75H319.934C323.284 20.45 326.159 22.725 328.559 25.575C331.409 28.875 332.834 32.15 332.834 35.4C332.834 38 331.384 40.3 328.484 42.3C325.834 44.1 323.159 45 320.459 45C315.059 45 311.034 44.475 308.384 43.425C305.784 42.375 302.609 39.975 298.859 36.225C297.359 34.725 296.609 32.875 296.609 30.675C296.609 27.975 298.009 24 300.809 18.75H298.859L294.284 14.25H319.184C322.584 14.25 325.784 13.55 328.784 12.15L333.134 16.5ZM328.409 31.35C328.409 26.8 325.934 23.5 320.984 21.45C318.334 20.35 313.834 19.45 307.484 18.75C305.384 22.6 304.034 25.175 303.434 26.475C301.884 29.875 301.109 32.625 301.109 34.725C301.109 37.475 303.084 39.25 307.034 40.05C308.734 40.4 311.884 40.575 316.484 40.575C319.184 40.575 321.784 39.725 324.284 38.025C327.034 36.125 328.409 33.9 328.409 31.35ZM355.324 29.325C355.324 33.375 354.274 36.9 352.174 39.9C349.824 43.3 346.724 45 342.874 45C339.624 45 336.449 43.4 333.349 40.2C330.249 36.95 328.699 33.7 328.699 30.45L333.124 34.875C333.124 36.975 333.549 38.45 334.399 39.3C335.249 40.15 336.724 40.575 338.824 40.575C342.674 40.575 345.699 38.925 347.899 35.625C349.849 32.775 350.824 29.325 350.824 25.275C350.824 20.775 349.549 18.525 346.999 18.525C345.549 18.525 343.824 19.325 341.824 20.925L337.549 16.65L339.649 14.85C340.299 14.5 341.249 14.325 342.499 14.325C345.749 14.325 348.724 16.05 351.424 19.5C354.024 22.7 355.324 25.975 355.324 29.325ZM426.212 35.4C426.212 38 425.212 40.25 423.212 42.15C421.262 44.05 418.962 45 416.312 45C414.362 45 412.187 43.9 409.787 41.7C407.437 39.5 405.537 38.4 404.087 38.4C402.687 38.4 401.187 39.525 399.587 41.775C398.037 43.975 396.837 45.075 395.987 45.075C394.837 45.075 393.212 44.05 391.112 42C389.062 39.9 388.037 38.275 388.037 37.125C388.037 35.275 388.987 32.025 390.887 27.375L395.162 31.725C394.262 33.975 393.712 35.4 393.512 36C392.912 37.7 392.587 39.2 392.537 40.5C393.287 40.05 394.562 38.625 396.362 36.225C397.912 34.175 399.387 33.15 400.787 33.15C402.237 33.15 404.137 34.275 406.487 36.525C408.887 38.725 411.062 39.825 413.012 39.825C415.662 39.825 417.787 39.075 419.387 37.575C421.037 36.025 421.837 33.95 421.787 31.35C421.737 27.4 419.037 24.225 413.687 21.825C409.687 20.025 405.387 19 400.787 18.75L396.212 14.25C402.362 14.9 407.162 16.025 410.612 17.625C414.262 19.275 418.212 22.225 422.462 26.475C424.962 28.975 426.212 31.95 426.212 35.4ZM462.058 35.4C462.058 38 460.608 40.3 457.708 42.3C455.108 44.1 452.433 45 449.683 45C444.683 45 441.158 44.475 439.108 43.425C437.408 42.575 434.733 40.175 431.083 36.225C429.583 34.625 428.833 32.775 428.833 30.675C428.833 29.175 429.683 26.35 431.383 22.2C433.083 18.05 434.458 15.425 435.508 14.325C453.208 16.675 462.058 23.7 462.058 35.4ZM457.633 31.35C457.633 27.15 455.558 24 451.408 21.9C448.808 20.6 444.883 19.55 439.633 18.75L435.508 26.475C434.008 29.575 433.258 32.325 433.258 34.725C433.258 38.625 437.383 40.575 445.633 40.575C448.333 40.575 450.933 39.725 453.433 38.025C456.233 36.175 457.633 33.95 457.633 31.35ZM501.548 33.075C501.548 41.025 496.823 45 487.373 45C482.023 45 478.398 44.65 476.498 43.95C474.298 43.15 471.423 40.975 467.873 37.425C466.173 35.725 465.323 33.925 465.323 32.025C465.323 30.275 466.373 28.025 468.473 25.275L472.748 29.55C471.248 31.5 470.498 33.675 470.498 36.075C470.498 38.375 472.173 39.8 475.523 40.35C476.423 40.5 479.048 40.575 483.398 40.575C486.648 40.575 489.723 39.775 492.623 38.175C496.073 36.275 497.798 33.825 497.798 30.825C497.798 28.875 496.873 27.9 495.023 27.9C492.023 27.9 489.448 29.05 487.298 31.35C486.548 32.15 485.698 33.25 484.748 34.65L484.598 34.95L484.523 34.875L480.323 30.6C483.723 27.85 485.373 25.125 485.273 22.425C485.223 20.525 482.598 19.35 477.398 18.9C476.298 18.8 473.523 18.75 469.073 18.75L464.573 14.25H485.573L490.073 18.75H484.823C485.623 19.5 486.398 20.25 487.148 21C488.048 21.9 488.673 22.775 489.023 23.625C489.673 23.475 490.348 23.4 491.048 23.4C493.098 23.4 495.348 24.525 497.798 26.775C500.298 28.975 501.548 31.075 501.548 33.075ZM524.149 32.4C524.149 35.8 523.249 38.675 521.449 41.025C519.449 43.675 516.824 45 513.574 45C511.424 45 509.324 43.725 507.274 41.175C505.324 38.775 504.349 36.45 504.349 34.2C504.349 32.55 504.974 30.625 506.224 28.425C507.624 26.025 509.074 24.825 510.574 24.825C511.124 24.825 511.674 25.075 512.224 25.575L515.074 28.125C515.374 28.375 515.524 28.85 515.524 29.55C515.524 31.05 514.799 32.725 513.349 34.575C511.749 36.625 510.249 37.475 508.849 37.125C508.799 37.475 508.774 37.85 508.774 38.25C508.774 40.15 509.499 41.1 510.949 41.1C513.299 41.1 515.399 39.5 517.249 36.3C518.899 33.5 519.724 30.85 519.724 28.35C519.724 24.35 517.549 21.6 513.199 20.1C510.549 19.2 506.599 18.75 501.349 18.75H485.599L481.024 14.25H497.224C503.574 14.25 509.374 15.675 514.624 18.525C520.974 21.975 524.149 26.6 524.149 32.4ZM565.458 16.5C561.858 18 558.458 18.75 555.258 18.75H551.958C560.758 23.9 565.158 29.45 565.158 35.4C565.158 38 564.158 40.25 562.158 42.15C560.158 44.05 557.833 45 555.183 45C553.333 45 551.183 43.9 548.733 41.7C546.333 39.5 544.458 38.4 543.108 38.4C541.658 38.4 540.133 39.525 538.533 41.775C536.983 43.975 535.783 45.075 534.933 45.075C533.733 45.075 532.108 44.05 530.058 42C528.008 39.95 526.983 38.325 526.983 37.125C526.983 35.675 527.808 32.625 529.458 27.975C530.808 24.125 532.008 21.05 533.058 18.75H531.183L526.683 14.25H551.508C554.908 14.25 558.108 13.55 561.108 12.15L565.458 16.5ZM560.733 31.35C560.733 24.45 553.758 20.25 539.808 18.75C534.208 29.15 531.383 36.425 531.333 40.575C532.133 40.525 533.358 39.275 535.008 36.825C536.658 34.375 538.258 33.15 539.808 33.15C541.158 33.15 543.033 34.275 545.433 36.525C547.833 38.725 550.008 39.825 551.958 39.825C554.558 39.825 556.658 39.075 558.258 37.575C559.908 36.025 560.733 33.95 560.733 31.35ZM606.473 16.5C602.873 18 599.473 18.75 596.273 18.75H593.273C596.623 20.45 599.498 22.725 601.898 25.575C604.748 28.875 606.173 32.15 606.173 35.4C606.173 38 604.723 40.3 601.823 42.3C599.173 44.1 596.498 45 593.798 45C588.398 45 584.373 44.475 581.723 43.425C579.123 42.375 575.948 39.975 572.198 36.225C570.698 34.725 569.948 32.875 569.948 30.675C569.948 27.975 571.348 24 574.148 18.75H572.198L567.623 14.25H592.523C595.923 14.25 599.123 13.55 602.123 12.15L606.473 16.5ZM601.748 31.35C601.748 26.8 599.273 23.5 594.323 21.45C591.673 20.35 587.173 19.45 580.823 18.75C578.723 22.6 577.373 25.175 576.773 26.475C575.223 29.875 574.448 32.625 574.448 34.725C574.448 37.475 576.423 39.25 580.373 40.05C582.073 40.4 585.223 40.575 589.823 40.575C592.523 40.575 595.123 39.725 597.623 38.025C600.373 36.125 601.748 33.9 601.748 31.35ZM628.664 29.325C628.664 33.375 627.614 36.9 625.514 39.9C623.164 43.3 620.064 45 616.214 45C612.964 45 609.789 43.4 606.689 40.2C603.589 36.95 602.039 33.7 602.039 30.45L606.464 34.875C606.464 36.975 606.889 38.45 607.739 39.3C608.589 40.15 610.064 40.575 612.164 40.575C616.014 40.575 619.039 38.925 621.239 35.625C623.189 32.775 624.164 29.325 624.164 25.275C624.164 20.775 622.889 18.525 620.339 18.525C618.889 18.525 617.164 19.325 615.164 20.925L610.889 16.65L612.989 14.85C613.639 14.5 614.589 14.325 615.839 14.325C619.089 14.325 622.064 16.05 624.764 19.5C627.364 22.7 628.664 25.975 628.664 29.325ZM699.627 48.825C697.727 50.425 695.577 51.225 693.177 51.225C691.177 51.225 689.302 50.55 687.552 49.2C687.152 48.9 685.702 47.5 683.202 45C679.352 44.9 676.627 44.475 675.027 43.725C673.477 42.975 671.377 41.175 668.727 38.325C667.777 37.275 667.302 36.075 667.302 34.725C667.302 32.225 668.502 30.3 670.902 28.95C673.152 27.7 675.477 27.2 677.877 27.45L678.552 27.525L682.752 31.725C682.502 32.875 682.377 34.15 682.377 35.55C682.377 37.1 682.552 38.675 682.902 40.275C686.302 39.675 689.127 38.3 691.377 36.15C693.877 33.8 695.127 30.975 695.127 27.675C695.127 21.725 692.752 18.75 688.002 18.75C686.702 18.75 684.927 19.8 682.677 21.9C680.477 24 678.802 25.05 677.652 25.05C676.702 25.05 675.352 24.225 673.602 22.575C672.052 21.125 670.977 19.875 670.377 18.825C669.177 19.725 668.177 21.25 667.377 23.4C666.827 25.2 666.277 27 665.727 28.8L661.377 24.45C662.077 22.35 662.752 20.25 663.402 18.15C664.552 15.6 666.102 14.325 668.052 14.325C668.952 14.325 671.127 16.4 674.577 20.55C675.677 20.5 677.177 19.45 679.077 17.4C681.027 15.3 682.652 14.25 683.952 14.25C687.752 14.25 691.302 16.2 694.602 20.1C697.902 24 699.552 27.875 699.552 31.725C699.552 35.525 698.102 38.675 695.202 41.175C692.502 43.525 689.202 44.8 685.302 45C686.202 46.2 687.502 46.8 689.202 46.8C691.552 46.8 693.602 46.075 695.352 44.625L699.627 48.825ZM679.902 40.575C678.702 38.025 678.027 35.275 677.877 32.325C673.777 33.475 671.727 35.575 671.727 38.625C671.727 39.925 673.652 40.575 677.502 40.575H679.902ZM740.946 16.5C737.346 18 733.946 18.75 730.746 18.75H727.746C731.096 20.45 733.971 22.725 736.371 25.575C739.221 28.875 740.646 32.15 740.646 35.4C740.646 38 739.196 40.3 736.296 42.3C733.646 44.1 730.971 45 728.271 45C722.871 45 718.846 44.475 716.196 43.425C713.596 42.375 710.421 39.975 706.671 36.225C705.171 34.725 704.421 32.875 704.421 30.675C704.421 27.975 705.821 24 708.621 18.75H706.671L702.096 14.25H726.996C730.396 14.25 733.596 13.55 736.596 12.15L740.946 16.5ZM736.221 31.35C736.221 26.8 733.746 23.5 728.796 21.45C726.146 20.35 721.646 19.45 715.296 18.75C713.196 22.6 711.846 25.175 711.246 26.475C709.696 29.875 708.921 32.625 708.921 34.725C708.921 37.475 710.896 39.25 714.846 40.05C716.546 40.4 719.696 40.575 724.296 40.575C726.996 40.575 729.596 39.725 732.096 38.025C734.846 36.125 736.221 33.9 736.221 31.35ZM763.137 29.325C763.137 33.375 762.087 36.9 759.987 39.9C757.637 43.3 754.537 45 750.687 45C747.437 45 744.262 43.4 741.162 40.2C738.062 36.95 736.512 33.7 736.512 30.45L740.937 34.875C740.937 36.975 741.362 38.45 742.212 39.3C743.062 40.15 744.537 40.575 746.637 40.575C750.487 40.575 753.512 38.925 755.712 35.625C757.662 32.775 758.637 29.325 758.637 25.275C758.637 20.775 757.362 18.525 754.812 18.525C753.362 18.525 751.637 19.325 749.637 20.925L745.362 16.65L747.462 14.85C748.112 14.5 749.062 14.325 750.312 14.325C753.562 14.325 756.537 16.05 759.237 19.5C761.837 22.7 763.137 25.975 763.137 29.325ZM834.025 35.4C834.025 38 833.025 40.25 831.025 42.15C829.075 44.05 826.775 45 824.125 45C822.175 45 820 43.9 817.6 41.7C815.25 39.5 813.35 38.4 811.9 38.4C810.5 38.4 809 39.525 807.4 41.775C805.85 43.975 804.65 45.075 803.8 45.075C802.65 45.075 801.025 44.05 798.925 42C796.875 39.9 795.85 38.275 795.85 37.125C795.85 35.275 796.8 32.025 798.7 27.375L802.975 31.725C802.075 33.975 801.525 35.4 801.325 36C800.725 37.7 800.4 39.2 800.35 40.5C801.1 40.05 802.375 38.625 804.175 36.225C805.725 34.175 807.2 33.15 808.6 33.15C810.05 33.15 811.95 34.275 814.3 36.525C816.7 38.725 818.875 39.825 820.825 39.825C823.475 39.825 825.6 39.075 827.2 37.575C828.85 36.025 829.65 33.95 829.6 31.35C829.55 27.4 826.85 24.225 821.5 21.825C817.5 20.025 813.2 19 808.6 18.75L804.025 14.25C810.175 14.9 814.975 16.025 818.425 17.625C822.075 19.275 826.025 22.225 830.275 26.475C832.775 28.975 834.025 31.95 834.025 35.4ZM869.871 35.4C869.871 38 868.421 40.3 865.521 42.3C862.921 44.1 860.246 45 857.496 45C852.496 45 848.971 44.475 846.921 43.425C845.221 42.575 842.546 40.175 838.896 36.225C837.396 34.625 836.646 32.775 836.646 30.675C836.646 29.175 837.496 26.35 839.196 22.2C840.896 18.05 842.271 15.425 843.321 14.325C861.021 16.675 869.871 23.7 869.871 35.4ZM865.446 31.35C865.446 27.15 863.371 24 859.221 21.9C856.621 20.6 852.696 19.55 847.446 18.75L843.321 26.475C841.821 29.575 841.071 32.325 841.071 34.725C841.071 38.625 845.196 40.575 853.446 40.575C856.146 40.575 858.746 39.725 861.246 38.025C864.046 36.175 865.446 33.95 865.446 31.35ZM910.861 35.4C910.861 38 909.861 40.25 907.861 42.15C905.861 44.05 903.536 45 900.886 45C899.036 45 896.886 43.9 894.436 41.7C892.036 39.5 890.161 38.4 888.811 38.4C887.361 38.4 885.836 39.525 884.236 41.775C882.686 43.975 881.486 45.075 880.636 45.075C879.436 45.075 877.811 44.05 875.761 42C873.711 39.95 872.686 38.325 872.686 37.125C872.686 35.675 873.511 32.625 875.161 27.975C876.511 24.125 877.711 21.05 878.761 18.75H876.886L872.386 14.25H895.261L899.761 18.75H897.661C906.461 23.9 910.861 29.45 910.861 35.4ZM906.436 31.35C906.436 24.45 899.461 20.25 885.511 18.75C879.911 29.15 877.086 36.425 877.036 40.575C877.836 40.525 879.061 39.275 880.711 36.825C882.361 34.375 883.961 33.15 885.511 33.15C886.861 33.15 888.736 34.275 891.136 36.525C893.536 38.725 895.711 39.825 897.661 39.825C900.261 39.825 902.361 39.075 903.961 37.575C905.611 36.025 906.436 33.95 906.436 31.35ZM913.927 10.5C913.927 12.35 913.252 14.025 911.902 15.525C910.552 16.975 908.952 17.925 907.102 18.375C906.102 18.625 904.352 18.75 901.852 18.75H894.427L889.852 14.25H897.727C900.227 14.25 901.852 14.175 902.602 14.025C901.502 13.425 899.777 11.75 897.427 9C896.777 8.25 896.452 7.375 896.452 6.375C896.452 4.675 897.202 3.2 898.702 1.95C900.202 0.699998 901.802 0.0749972 903.502 0.0749972C905.202 0.0749972 906.652 0.674997 907.852 1.875L912.127 6.15C913.327 7.35 913.927 8.8 913.927 10.5ZM909.577 7.35C909.577 6.55 909.302 5.875 908.752 5.325C908.202 4.775 907.527 4.5 906.727 4.5C905.227 4.5 903.827 5.175 902.527 6.525C901.627 7.475 901.177 8.425 901.177 9.375C901.177 10.525 901.727 11.1 902.827 11.1C903.477 11.1 904.202 10.825 905.002 10.275L906.802 12C908.652 10.5 909.577 8.95 909.577 7.35ZM946.775 35.4C946.775 38 945.325 40.3 942.425 42.3C939.825 44.1 937.15 45 934.4 45C929.4 45 925.875 44.475 923.825 43.425C922.125 42.575 919.45 40.175 915.8 36.225C914.3 34.625 913.55 32.775 913.55 30.675C913.55 29.175 914.4 26.35 916.1 22.2C917.8 18.05 919.175 15.425 920.225 14.325C937.925 16.675 946.775 23.7 946.775 35.4ZM942.35 31.35C942.35 27.15 940.275 24 936.125 21.9C933.525 20.6 929.6 19.55 924.35 18.75L920.225 26.475C918.725 29.575 917.975 32.325 917.975 34.725C917.975 38.625 922.1 40.575 930.35 40.575C933.05 40.575 935.65 39.725 938.15 38.025C940.95 36.175 942.35 33.95 942.35 31.35ZM987.54 35.4C987.54 38 986.54 40.25 984.54 42.15C982.59 44.05 980.29 45 977.64 45C975.69 45 973.515 43.9 971.115 41.7C968.765 39.5 966.865 38.4 965.415 38.4C964.015 38.4 962.54 39.525 960.99 41.775C959.44 43.975 958.09 45.075 956.94 45.075C955.94 45.075 954.415 44 952.365 41.85C950.365 39.7 949.365 38.125 949.365 37.125C949.365 34.525 950.565 30.425 952.965 24.825C951.215 23.125 950.29 22.2 950.19 22.05C949.64 21.25 949.365 20.05 949.365 18.45C949.365 15.35 951.015 13.025 954.315 11.475C956.865 10.275 959.89 9.675 963.39 9.675C970.09 9.675 975.815 12.325 980.565 17.625C985.215 22.725 987.54 28.65 987.54 35.4ZM983.115 31.35C983.115 26.05 981.765 21.85 979.065 18.75C976.365 15.65 972.365 14.1 967.065 14.1H966.315L970.74 18.525L970.89 19.8C971.19 22.15 970.165 24.3 967.815 26.25C965.665 28.05 963.39 28.95 960.99 28.95C959.74 28.95 958.64 28.725 957.69 28.275C956.34 31.475 955.515 33.475 955.215 34.275C954.365 36.575 953.915 38.65 953.865 40.5C954.665 40.2 955.89 38.825 957.54 36.375C958.99 34.225 960.49 33.15 962.04 33.15C963.49 33.15 965.415 34.275 967.815 36.525C970.215 38.725 972.39 39.825 974.34 39.825C976.94 39.825 979.04 39.075 980.64 37.575C982.29 36.025 983.115 33.95 983.115 31.35ZM966.39 15.675C966.39 15.175 966.34 14.65 966.24 14.1C957.94 14.45 953.79 17.25 953.79 22.5V22.875L954.465 21.525L957.465 24.525C959.865 24.375 961.94 23.45 963.69 21.75C965.49 20.05 966.39 18.025 966.39 15.675ZM1028.56 35.4C1028.56 37.6 1027.94 39.55 1026.69 41.25C1025.44 42.95 1023.76 44.2 1021.66 45L1017.39 40.65C1021.94 38.9 1024.19 35.8 1024.14 31.35C1024.04 24.45 1017.06 20.25 1003.21 18.75C998.011 28.4 995.236 35.675 994.886 40.575C997.036 40.525 998.961 39.575 1000.66 37.725L1004.86 42C1003.01 44 1000.99 45 998.786 45C997.536 45 995.811 44 993.611 42C991.461 39.95 990.386 38.325 990.386 37.125C990.386 33.525 992.486 27.4 996.686 18.75H994.586L990.011 14.25H1014.16C1017.56 14.25 1020.76 13.55 1023.76 12.15L1028.11 16.5C1024.91 17.85 1021.86 18.6 1018.96 18.75H1015.66C1019.01 20.45 1021.89 22.725 1024.29 25.575C1027.14 28.875 1028.56 32.15 1028.56 35.4ZM1065.68 34.425C1065.68 37.375 1064.68 39.875 1062.68 41.925C1060.73 43.975 1058.28 45 1055.33 45C1053.28 45 1051.23 43.75 1049.18 41.25C1047.18 38.75 1046.18 36.45 1046.18 34.35C1046.18 32.35 1046.68 30.45 1047.68 28.65C1048.88 26.55 1050.4 25.5 1052.25 25.5C1053.05 25.5 1053.8 25.8 1054.5 26.4L1056.9 28.5C1057.3 28.85 1057.5 29.4 1057.5 30.15C1057.5 31.5 1057.03 32.75 1056.08 33.9C1053.83 36.6 1052.03 37.875 1050.68 37.725V38.325C1050.68 40.175 1051.35 41.1 1052.7 41.1C1054.75 41.1 1056.7 39.8 1058.55 37.2C1060.3 34.8 1061.18 32.525 1061.18 30.375C1061.18 25.675 1059.35 22.425 1055.7 20.625C1053.15 19.375 1049.2 18.75 1043.85 18.75C1043.8 20.9 1043.65 24.125 1043.4 28.425C1043.05 32.875 1042.25 36.6 1041 39.6C1039.45 43.2 1037.28 45 1034.48 45C1033.33 45 1032.38 44.625 1031.63 43.875C1028.13 40.375 1026.13 38.175 1025.63 37.275C1024.78 35.725 1024.35 32.925 1024.35 28.875L1028.78 33.3C1028.78 36.35 1029.25 38.775 1030.2 40.575C1033.1 40.625 1035.3 38.825 1036.8 35.175C1038.05 32.125 1038.8 28.35 1039.05 23.85C1039.1 21.75 1039.23 18.575 1039.43 14.325C1044.83 14.325 1048.9 14.9 1051.65 16.05C1054.4 17.15 1057.65 19.575 1061.4 23.325C1064.25 26.175 1065.68 29.875 1065.68 34.425ZM1135.54 32.025C1135.54 35.975 1134.56 39.075 1132.61 41.325C1130.51 43.775 1127.54 45 1123.69 45C1119.44 45 1115.89 44.175 1113.04 42.525C1110.94 41.325 1108.16 38.925 1104.71 35.325C1103.46 40.625 1102.84 44.425 1102.84 46.725C1102.84 48.975 1103.89 50.1 1105.99 50.1C1107.74 50.1 1109.44 49.475 1111.09 48.225L1115.36 52.5C1113.71 53.75 1111.86 54.375 1109.81 54.375C1107.41 54.375 1104.91 53.025 1102.31 50.325C1099.71 47.675 1098.41 45.15 1098.41 42.75C1098.41 39.05 1099.34 33.425 1101.19 25.875L1105.61 30.225C1106.06 33.675 1107.66 36.325 1110.41 38.175C1112.91 39.775 1115.99 40.575 1119.64 40.575C1123.44 40.575 1126.36 39.45 1128.41 37.2C1130.46 34.9 1131.36 31.825 1131.11 27.975C1130.81 23.775 1129.36 20.425 1126.76 17.925C1124.16 15.375 1120.76 14.1 1116.56 14.1C1114.11 14.1 1111.74 14.675 1109.44 15.825C1106.59 17.175 1105.16 18.95 1105.16 21.15C1105.16 23.25 1106.71 24.3 1109.81 24.3C1114.81 24.3 1117.31 21.85 1117.31 16.95C1117.31 16.45 1117.29 15.95 1117.24 15.45L1121.74 20.025C1121.99 22.575 1121.36 24.675 1119.86 26.325C1118.36 27.925 1116.34 28.725 1113.79 28.725C1111.14 28.725 1108.34 27.5 1105.39 25.05C1102.49 22.6 1101.04 20.075 1101.04 17.475C1101.04 14.725 1102.36 12.675 1105.01 11.325C1107.11 10.225 1109.66 9.675 1112.66 9.675C1118.06 9.675 1123.21 12.075 1128.11 16.875C1133.06 21.625 1135.54 26.675 1135.54 32.025ZM1161.36 39C1158.46 43 1155.18 45 1151.53 45C1148.23 45 1145.13 43.075 1142.23 39.225C1139.53 35.625 1138.18 32.125 1138.18 28.725C1138.18 25.375 1139.06 22.25 1140.81 19.35C1142.86 16 1145.46 14.325 1148.61 14.325C1151.16 14.325 1153.61 15.375 1155.96 17.475C1158.36 19.575 1159.56 21.875 1159.56 24.375C1159.56 26.925 1158.46 29.2 1156.26 31.2C1154.06 33.2 1151.68 34.2 1149.13 34.2C1147.03 34.2 1144.91 32.975 1142.76 30.525C1142.66 31.325 1142.61 32.075 1142.61 32.775C1142.61 35.225 1142.86 37.025 1143.36 38.175C1144.06 39.775 1145.43 40.575 1147.48 40.575C1151.08 40.575 1154.28 38.625 1157.08 34.725L1161.36 39ZM1154.98 21C1154.98 19.4 1154.01 18.6 1152.06 18.6C1150.06 18.6 1148.11 19.6 1146.21 21.6C1144.31 23.55 1143.36 25.525 1143.36 27.525C1143.36 28.975 1144.08 29.725 1145.53 29.775C1147.53 29.875 1149.61 28.95 1151.76 27C1153.91 25 1154.98 23 1154.98 21ZM1229.77 16.5C1226.17 18 1222.77 18.75 1219.57 18.75H1211.02L1209.29 22.8H1214.69C1217.39 22.8 1220.67 22.275 1224.52 21.225L1228.87 25.65C1227.22 26.05 1224.77 26.55 1221.52 27.15C1223.02 28 1224.37 29.35 1225.57 31.2C1226.82 33.05 1227.44 34.775 1227.44 36.375C1227.44 39.125 1226.09 41.3 1223.39 42.9C1221.09 44.3 1218.49 45 1215.59 45C1211.99 45 1209.09 44.35 1206.89 43.05C1205.54 42.25 1203.27 40.275 1200.07 37.125C1199.07 36.125 1198.57 35 1198.57 33.75C1198.57 33.25 1199.07 32.2 1200.07 30.6C1201.17 28.8 1201.79 27.675 1201.94 27.225L1198.49 27.15L1194.07 22.65C1194.47 22.65 1197.74 22.675 1203.89 22.725L1205.62 18.75H1198.49L1194.07 14.25H1215.82C1219.22 14.25 1222.42 13.55 1225.42 12.15L1229.77 16.5ZM1223.02 32.325C1223.02 30.275 1217.79 28.7 1207.34 27.6C1207.19 28.3 1206.54 29.825 1205.39 32.175C1204.34 34.325 1203.82 35.7 1203.82 36.3C1203.82 37.35 1204.89 38.35 1207.04 39.3C1208.94 40.15 1210.47 40.575 1211.62 40.575C1214.47 40.575 1216.97 39.925 1219.12 38.625C1221.72 37.075 1223.02 34.975 1223.02 32.325ZM1267.64 34.125C1267.64 37.175 1266.59 39.75 1264.49 41.85C1262.39 43.95 1259.82 45 1256.77 45C1250.72 45 1244.97 41.375 1239.52 34.125C1237.57 39.875 1236.59 44 1236.59 46.5C1236.59 48.7 1237.64 49.8 1239.74 49.8C1241.34 49.8 1242.84 49.275 1244.24 48.225L1248.52 52.5C1246.77 53.8 1244.89 54.45 1242.89 54.45C1240.59 54.45 1238.22 53.15 1235.77 50.55C1233.37 48 1232.17 45.575 1232.17 43.275C1232.17 40.775 1232.79 37.425 1234.04 33.225C1234.49 31.675 1235.59 28.425 1237.34 23.475L1241.69 27.825C1241.44 28.775 1241.32 29.675 1241.32 30.525C1241.32 33.425 1242.49 35.825 1244.84 37.725C1247.19 39.625 1249.84 40.575 1252.79 40.575C1255.84 40.575 1258.34 39.6 1260.29 37.65C1262.29 35.65 1263.27 33.125 1263.22 30.075C1263.12 24.675 1259.77 21.225 1253.17 19.725C1250.32 19.075 1244.57 18.75 1235.92 18.75L1231.42 14.25H1253.24C1256.64 14.25 1259.84 13.55 1262.84 12.15L1267.19 16.5C1263.59 18 1260.54 18.75 1258.04 18.75C1261.34 21.9 1263.49 24.15 1264.49 25.5C1266.59 28.35 1267.64 31.225 1267.64 34.125ZM1286.89 64.275C1285.29 66.675 1283.34 67.875 1281.04 67.875C1278.29 67.875 1275.76 66.725 1273.46 64.425C1272.46 64.725 1271.39 64.875 1270.24 64.875C1267.84 64.875 1265.39 63.875 1262.89 61.875C1260.19 59.775 1258.84 57.575 1258.84 55.275C1258.84 52.125 1259.66 49.625 1261.31 47.775C1262.96 45.975 1265.36 45.075 1268.51 45.075L1272.19 48.75C1271.54 50.65 1271.21 52.475 1271.21 54.225C1271.21 56.275 1271.41 58.125 1271.81 59.775C1275.86 57.525 1277.89 52.8 1277.89 45.6C1277.89 39.9 1276.34 36.675 1273.24 35.925L1269.19 31.875C1272.89 32.725 1275.91 34.825 1278.26 38.175C1280.61 41.525 1281.79 45.15 1281.79 49.05C1281.79 56.45 1279.56 61.35 1275.11 63.75C1275.86 63.9 1276.66 63.975 1277.51 63.975C1279.71 63.975 1281.59 62.825 1283.14 60.525L1286.89 64.275ZM1269.79 60.6C1267.84 57.9 1267.01 54.325 1267.31 49.875C1264.26 51.275 1262.74 54.25 1262.74 58.8C1262.74 59.8 1263.16 60.45 1264.01 60.75C1264.41 60.9 1265.31 60.975 1266.71 60.975C1267.81 60.975 1268.84 60.85 1269.79 60.6ZM1321.83 16.5C1318.83 17.75 1315.95 18.475 1313.2 18.675L1313.28 18.75H1305.1C1305.85 19.45 1306.6 20.15 1307.35 20.85C1308.25 21.75 1308.85 22.55 1309.15 23.25C1309.95 22.95 1310.7 22.8 1311.4 22.8C1313.75 22.8 1316.03 24.3 1318.23 27.3C1320.43 30.25 1321.53 32.95 1321.53 35.4C1321.53 38 1320.53 40.25 1318.53 42.15C1316.53 44.05 1314.2 45 1311.55 45C1309.65 45 1307.5 43.9 1305.1 41.7C1302.75 39.5 1300.8 38.4 1299.25 38.4C1297.95 38.4 1296.5 39.525 1294.9 41.775C1293.35 44.025 1292.08 45.15 1291.08 45.15C1289.98 45.15 1288.4 44.1 1286.35 42C1284.35 39.85 1283.35 38.225 1283.35 37.125C1283.35 33.975 1285.58 27.85 1290.03 18.75H1287.55L1283.05 14.25H1307.88C1311.28 14.25 1314.48 13.55 1317.48 12.15L1321.83 16.5ZM1317.1 31.35C1317.1 28.85 1316.03 27.5 1313.88 27.3C1312.38 27.3 1310.9 28 1309.45 29.4C1308.35 30.7 1307.25 32.025 1306.15 33.375L1301.88 29.1C1304.43 26.05 1305.7 23.975 1305.7 22.875C1305.7 21.725 1305.08 20.775 1303.83 20.025C1302.83 19.425 1301.7 19.075 1300.45 18.975C1299.6 18.925 1298.3 18.85 1296.55 18.75C1291.2 28.65 1288.3 35.9 1287.85 40.5C1288.65 40.2 1289.88 38.825 1291.53 36.375C1292.98 34.225 1294.5 33.15 1296.1 33.15C1297.5 33.15 1299.38 34.275 1301.73 36.525C1304.13 38.725 1306.33 39.825 1308.33 39.825C1310.93 39.825 1313.03 39.075 1314.63 37.575C1316.28 36.025 1317.1 33.95 1317.1 31.35ZM1362.55 35.4C1362.55 38 1361.55 40.25 1359.55 42.15C1357.55 44.05 1355.22 45 1352.57 45C1350.67 45 1348.52 43.9 1346.12 41.7C1343.77 39.5 1341.87 38.4 1340.42 38.4C1339.02 38.4 1337.52 39.525 1335.92 41.775C1334.37 43.975 1333.05 45.075 1331.95 45.075C1330.95 45.075 1329.42 44 1327.37 41.85C1325.37 39.7 1324.37 38.125 1324.37 37.125C1324.37 35.275 1324.75 33.35 1325.5 31.35C1326 30.1 1326.75 28.25 1327.75 25.8L1332.1 30.15L1330 35.25C1329.25 37.15 1328.85 38.9 1328.8 40.5C1329.45 40.15 1330.72 38.725 1332.62 36.225C1334.17 34.175 1335.67 33.15 1337.12 33.15C1338.57 33.15 1340.47 34.275 1342.82 36.525C1345.22 38.725 1347.4 39.825 1349.35 39.825C1351.95 39.825 1354.07 39.075 1355.72 37.575C1357.37 36.025 1358.17 33.95 1358.12 31.35C1357.92 22.95 1348.07 18.75 1328.57 18.75L1324.15 14.25H1347.02L1351.45 18.75H1349.65C1353 20.45 1355.87 22.725 1358.27 25.575C1361.12 28.875 1362.55 32.15 1362.55 35.4ZM1385.11 32.4C1385.11 35.8 1384.21 38.675 1382.41 41.025C1380.41 43.675 1377.79 45 1374.54 45C1372.39 45 1370.29 43.725 1368.24 41.175C1366.29 38.775 1365.31 36.45 1365.31 34.2C1365.31 32.55 1365.94 30.625 1367.19 28.425C1368.59 26.025 1370.04 24.825 1371.54 24.825C1372.09 24.825 1372.64 25.075 1373.19 25.575L1376.04 28.125C1376.34 28.375 1376.49 28.85 1376.49 29.55C1376.49 31.05 1375.76 32.725 1374.31 34.575C1372.71 36.625 1371.21 37.475 1369.81 37.125C1369.76 37.475 1369.74 37.85 1369.74 38.25C1369.74 40.15 1370.46 41.1 1371.91 41.1C1374.26 41.1 1376.36 39.5 1378.21 36.3C1379.86 33.5 1380.69 30.85 1380.69 28.35C1380.69 24.35 1378.51 21.6 1374.16 20.1C1371.51 19.2 1367.56 18.75 1362.31 18.75H1346.56L1341.99 14.25H1358.19C1364.54 14.25 1370.34 15.675 1375.59 18.525C1381.94 21.975 1385.11 26.6 1385.11 32.4ZM1425.29 31.725C1425.29 35.275 1424.84 37.85 1423.94 39.45C1423.24 40.7 1421.47 42.55 1418.62 45L1414.34 40.725C1417.14 38.375 1418.87 36.55 1419.52 35.25C1420.22 33.9 1420.64 31.375 1420.79 27.675C1420.94 23.775 1419.39 20.525 1416.14 17.925C1413.14 15.475 1409.67 14.25 1405.72 14.25H1404.97L1409.32 18.525L1409.39 19.8C1409.54 22.25 1408.54 24.4 1406.39 26.25C1404.29 28.05 1401.99 28.95 1399.49 28.95C1398.24 28.95 1397.14 28.725 1396.19 28.275C1394.69 31.325 1393.77 33.3 1393.42 34.2C1392.52 36.45 1392.12 38.55 1392.22 40.5C1394.12 40.15 1396.24 38.8 1398.59 36.45L1402.87 40.65C1400.02 43.55 1397.54 45 1395.44 45C1393.84 45 1392.14 43.925 1390.34 41.775C1388.59 39.575 1387.72 37.65 1387.72 36C1387.72 33.95 1388.12 32 1388.92 30.15C1389.12 29.7 1389.97 27.925 1391.47 24.825C1389.72 23.125 1388.79 22.2 1388.69 22.05C1388.14 21.25 1387.87 20.05 1387.87 18.45C1387.87 15.25 1389.49 12.9 1392.74 11.4C1395.14 10.3 1398.17 9.75 1401.82 9.75C1406.87 9.75 1412.04 12.175 1417.34 17.025C1422.64 21.825 1425.29 26.725 1425.29 31.725ZM1404.89 15.675C1404.89 15.175 1404.87 14.7 1404.82 14.25C1396.52 14.45 1392.37 17.2 1392.37 22.5V22.875L1392.97 21.525L1396.04 24.525C1398.44 24.375 1400.52 23.45 1402.27 21.75C1404.02 20.05 1404.89 18.025 1404.89 15.675ZM1466.63 16.5C1463.03 18 1459.63 18.75 1456.43 18.75H1453.43C1456.78 20.45 1459.65 22.725 1462.05 25.575C1464.9 28.875 1466.33 32.15 1466.33 35.4C1466.33 38 1464.88 40.3 1461.98 42.3C1459.33 44.1 1456.65 45 1453.95 45C1448.55 45 1444.53 44.475 1441.88 43.425C1439.28 42.375 1436.1 39.975 1432.35 36.225C1430.85 34.725 1430.1 32.875 1430.1 30.675C1430.1 27.975 1431.5 24 1434.3 18.75H1432.35L1427.78 14.25H1452.68C1456.08 14.25 1459.28 13.55 1462.28 12.15L1466.63 16.5ZM1461.9 31.35C1461.9 26.8 1459.43 23.5 1454.48 21.45C1451.83 20.35 1447.33 19.45 1440.98 18.75C1438.88 22.6 1437.53 25.175 1436.93 26.475C1435.38 29.875 1434.6 32.625 1434.6 34.725C1434.6 37.475 1436.58 39.25 1440.53 40.05C1442.23 40.4 1445.38 40.575 1449.98 40.575C1452.68 40.575 1455.28 39.725 1457.78 38.025C1460.53 36.125 1461.9 33.9 1461.9 31.35ZM1488.82 29.325C1488.82 33.375 1487.77 36.9 1485.67 39.9C1483.32 43.3 1480.22 45 1476.37 45C1473.12 45 1469.95 43.4 1466.85 40.2C1463.75 36.95 1462.2 33.7 1462.2 30.45L1466.62 34.875C1466.62 36.975 1467.05 38.45 1467.9 39.3C1468.75 40.15 1470.22 40.575 1472.32 40.575C1476.17 40.575 1479.2 38.925 1481.4 35.625C1483.35 32.775 1484.32 29.325 1484.32 25.275C1484.32 20.775 1483.05 18.525 1480.5 18.525C1479.05 18.525 1477.32 19.325 1475.32 20.925L1471.05 16.65L1473.15 14.85C1473.8 14.5 1474.75 14.325 1476 14.325C1479.25 14.325 1482.22 16.05 1484.92 19.5C1487.52 22.7 1488.82 25.975 1488.82 29.325ZM1501.71 39.825C1501.71 41.125 1501.16 42.325 1500.06 43.425C1499.01 44.475 1497.83 45 1496.53 45C1495.18 45 1493.98 44.525 1492.93 43.575C1491.93 42.625 1491.43 41.475 1491.43 40.125C1491.43 38.775 1491.98 37.625 1493.08 36.675C1494.18 35.725 1495.41 35.25 1496.76 35.25C1498.01 35.25 1499.13 35.7 1500.13 36.6C1501.18 37.5 1501.71 38.575 1501.71 39.825Z" fill="black"/>
</svg>
