<svg width="1659" height="74" viewBox="0 0 1659 74" fill="none" xmlns="http://www.w3.org/2000/svg">
<path d="M43.725 34.15C43.725 39.15 42.725 42.825 40.725 45.175C38.525 47.725 34.975 49 30.075 49C26.175 49 23.05 48.125 20.7 46.375C18.1 44.375 16.8 41.5 16.8 37.75C15.15 37.8 13.675 38.425 12.375 39.625C11.125 40.825 10.5 42.225 10.5 43.825C10.5 45.575 11.55 46.425 13.65 46.375V49C10.55 49 7.95 48.25 5.85 46.75C3.45 45.05 2.25 42.725 2.25 39.775C2.25 39.175 2.3 38.275 2.4 37.075C2.5 35.825 2.55 34.9 2.55 34.3C2.55 30.85 1.7 29.25 0 29.5V29.2C3.1 26.65 6.6 25.375 10.5 25.375H16.125L16.2 25.525C18.8 25.775 20.1 27.075 20.1 29.425C20.1 30.525 19.725 31.475 18.975 32.275C18.225 33.025 17.3 33.4 16.2 33.4C15.1 33.4 14.15 33.025 13.35 32.275C12.6 31.475 12.225 30.525 12.225 29.425C12.225 28.275 12.65 27.325 13.5 26.575C11.5 27.175 10.5 29.125 10.5 32.425V38.95C10.5 35.75 13.75 34.15 20.25 34.15H27.6V35.425C26.05 35.725 25.275 36.725 25.275 38.425C25.275 43.725 26.9 46.375 30.15 46.375C32.15 46.375 33.575 44.525 34.425 40.825C34.925 38.625 35.175 35.95 35.175 32.8C35.175 26.15 33.775 21.375 30.975 18.475C28.175 15.525 23.475 14.05 16.875 14.05C15.775 14.05 14.85 14.4 14.1 15.1C13.4 15.8 13.05 16.7 13.05 17.8H12.6V8.575H13.05C13.1 10.475 14.375 11.425 16.875 11.425C26.125 11.425 32.725 12.85 36.675 15.7C41.375 19.1 43.725 25.25 43.725 34.15ZM88.183 32.65C88.183 38.8 86.458 43.15 83.008 45.7C80.008 47.9 75.333 49 68.983 49C62.683 49 57.883 48.4 54.583 47.2C49.333 45.3 46.708 41.775 46.708 36.625V19.45C46.708 18.55 46.308 18.1 45.508 18.1C45.208 18.1 44.858 18.15 44.458 18.25V17.875C46.608 16.125 50.108 15.25 54.958 15.25C63.058 15.25 67.108 18.375 67.108 24.625C67.108 30.725 63.958 33.775 57.658 33.775C56.758 33.775 55.858 33.525 54.958 33.025C54.958 38.225 55.983 41.75 58.033 43.6C60.083 45.45 63.733 46.375 68.983 46.375C73.133 46.375 76.033 45.05 77.683 42.4C78.983 40.3 79.633 37.05 79.633 32.65C79.633 22.8 76.883 17.875 71.383 17.875C70.583 17.875 69.958 18.45 69.508 19.6C69.108 20.55 68.908 21.475 68.908 22.375H68.458V12.4H68.908C68.858 13.85 69.508 14.75 70.858 15.1C71.258 15.2 72.508 15.25 74.608 15.25C79.808 15.25 83.483 16.95 85.633 20.35C87.333 23 88.183 27.1 88.183 32.65ZM59.083 26.275C59.083 22.875 57.708 20.075 54.958 17.875V29.425C54.958 30.425 55.408 30.925 56.308 30.925C57.258 30.925 57.983 30.35 58.483 29.2C58.883 28.3 59.083 27.325 59.083 26.275ZM118.991 34.15C118.991 39.2 117.966 42.9 115.916 45.25C113.766 47.75 110.241 49 105.341 49C95.791 49 91.016 45.925 91.016 39.775V30.775C91.016 29.875 90.541 29.425 89.591 29.425C89.341 29.425 89.066 29.45 88.766 29.5V29.2C91.866 26.65 95.366 25.375 99.266 25.375C105.666 25.375 108.866 26.975 108.866 30.175C108.866 31.275 108.491 32.225 107.741 33.025C106.991 33.775 106.066 34.15 104.966 34.15C103.866 34.15 102.916 33.775 102.116 33.025C101.366 32.225 100.991 31.275 100.991 30.175C100.991 29.025 101.416 28.075 102.266 27.325C101.266 27.625 100.591 28 100.241 28.45C99.591 29.25 99.266 30.525 99.266 32.275V40.675C99.266 44.475 100.891 46.375 104.141 46.375C108.291 46.375 110.366 42.1 110.366 33.55C110.366 29.5 109.741 26.1 108.491 23.35C106.791 19.7 104.141 17.875 100.541 17.875H75.266V15.25H103.241C113.741 15.25 118.991 21.55 118.991 34.15ZM122.282 64.45H110.732V63.925C112.732 63.925 113.732 63.35 113.732 62.2V56.575C113.732 53.175 112.432 51.475 109.832 51.475C107.782 51.475 106.782 53.525 106.832 57.625H101.057C101.057 56.275 100.832 55.025 100.382 53.875C99.7816 52.325 98.9316 51.55 97.8316 51.55C96.9316 51.55 96.4816 52.125 96.4816 53.275V61.3C96.4816 62 96.7816 62.675 97.3816 63.325C97.9816 63.975 98.6066 64.2 99.2566 64V64.525H87.7816V64C89.7316 64 90.7066 63.1 90.7066 61.3V52.975C90.7066 51.975 90.4316 51.475 89.8816 51.475C89.6816 51.475 89.4316 51.55 89.1316 51.7V51.475C91.0816 50.225 93.5316 49.6 96.4816 49.6C100.732 49.6 103.232 50.7 103.982 52.9C104.782 51.6 105.557 50.725 106.307 50.275C107.057 49.825 108.157 49.6 109.607 49.6C112.557 49.6 114.732 49.85 116.132 50.35C118.532 51.15 119.732 52.725 119.732 55.075V61.3C119.732 62 119.982 62.675 120.482 63.325C120.982 63.975 121.582 64.2 122.282 64V64.45ZM167.28 0.924998C165.53 1.075 164.655 2.25 164.655 4.45C164.655 8.5 164.155 11.5 163.155 13.45C161.855 16.1 159.405 17.55 155.805 17.8V17.875C158.455 19.425 160.53 21.775 162.03 24.925C163.38 27.775 164.055 30.85 164.055 34.15C164.055 38 162.805 41.4 160.305 44.35C157.705 47.45 154.505 49 150.705 49C146.805 49 143.68 48.125 141.33 46.375C138.73 44.375 137.43 41.5 137.43 37.75C135.78 37.8 134.305 38.425 133.005 39.625C131.755 40.825 131.13 42.225 131.13 43.825C131.13 45.575 132.18 46.425 134.28 46.375V49C129.83 49 126.705 47.775 124.905 45.325C123.355 43.225 122.58 39.875 122.58 35.275C122.58 34.125 122.63 32.45 122.73 30.25C122.83 28 122.88 26.3 122.88 25.15C122.88 24.8 122.58 24.5 121.98 24.25C121.43 24 120.98 23.9 120.63 23.95V23.5C122.93 20.15 125.955 18.275 129.705 17.875H124.98C123.88 17.875 122.955 18.35 122.205 19.3C121.455 20.2 121.08 21.225 121.08 22.375H120.63V12.4H121.08C121.13 13.85 121.73 14.75 122.88 15.1C123.23 15.2 124.43 15.25 126.48 15.25H148.455C153.555 15.25 156.105 12.275 156.105 6.325C156.105 4.175 155.28 3.175 153.63 3.325V2.875L167.28 0.324996V0.924998ZM155.805 34.15C155.805 29.45 154.705 25.65 152.505 22.75C150.055 19.5 146.53 17.875 141.93 17.875C134.73 17.875 131.13 20.425 131.13 25.525V38.95C131.13 35.75 134.38 34.15 140.88 34.15H148.23V35.425C146.68 35.725 145.905 36.725 145.905 38.425C145.905 43.725 147.53 46.375 150.78 46.375C154.13 46.375 155.805 42.3 155.805 34.15ZM211.738 0.924998C209.988 1.075 209.113 2.25 209.113 4.45C209.113 8.5 208.613 11.5 207.613 13.45C206.313 16.1 203.863 17.55 200.263 17.8V17.875H199.813C203.363 18.925 205.838 21.025 207.238 24.175C208.288 26.575 208.813 29.9 208.813 34.15C208.813 44.05 202.663 49 190.363 49C184.013 49 179.238 48.55 176.038 47.65C170.238 46 167.338 42.875 167.338 38.275C167.338 37.425 167.388 36.125 167.488 34.375C167.638 32.625 167.713 31.325 167.713 30.475C167.713 25.725 166.838 23.4 165.088 23.5V23.2L170.338 20.35C172.438 19.2 174.238 18.375 175.738 17.875H169.438C168.338 17.875 167.413 18.35 166.663 19.3C165.913 20.2 165.538 21.225 165.538 22.375H165.088V12.4H165.538C165.538 13.8 166.138 14.675 167.338 15.025C167.838 15.175 169.038 15.25 170.938 15.25H192.913C198.013 15.25 200.563 12.275 200.563 6.325C200.563 4.175 199.738 3.175 198.088 3.325V2.875L211.738 0.324996V0.924998ZM199.363 32.275C199.363 22.675 194.663 17.875 185.263 17.875C182.963 17.875 180.963 18.475 179.263 19.675C177.313 21.025 176.338 22.8 176.338 25V37.525C176.338 43.425 180.188 46.375 187.888 46.375C195.538 46.375 199.363 41.675 199.363 32.275ZM256.646 34.15C256.646 39.2 255.621 42.9 253.571 45.25C251.421 47.75 247.896 49 242.996 49C233.446 49 228.671 45.925 228.671 39.775V30.775C228.671 29.875 228.196 29.425 227.246 29.425C226.996 29.425 226.721 29.45 226.421 29.5V29.2C229.521 26.65 233.021 25.375 236.921 25.375C243.321 25.375 246.521 26.975 246.521 30.175C246.521 31.275 246.146 32.225 245.396 33.025C244.646 33.775 243.721 34.15 242.621 34.15C241.521 34.15 240.571 33.775 239.771 33.025C239.021 32.225 238.646 31.275 238.646 30.175C238.646 29.025 239.071 28.075 239.921 27.325C238.921 27.625 238.246 28 237.896 28.45C237.246 29.25 236.921 30.525 236.921 32.275V40.675C236.921 44.475 238.546 46.375 241.796 46.375C245.946 46.375 248.021 42.1 248.021 33.55C248.021 29.5 247.396 26.1 246.146 23.35C244.446 19.7 241.796 17.875 238.196 17.875H232.421C231.021 17.875 229.196 18.325 226.946 19.225C223.896 20.475 222.371 22.075 222.371 24.025C222.371 24.275 222.421 24.625 222.521 25.075C222.971 27.025 223.971 30.8 225.521 36.4C225.921 37.8 226.121 39.125 226.121 40.375C226.121 46.125 221.621 49 212.621 49C209.671 49 207.271 48.125 205.421 46.375C203.521 44.625 202.571 42.3 202.571 39.4C202.571 38.45 202.746 37.525 203.096 36.625H209.321C208.771 37.575 208.496 38.6 208.496 39.7C208.496 44.15 209.846 46.375 212.546 46.375C215.846 46.375 217.496 44.525 217.496 40.825C217.496 39.675 217.321 38.475 216.971 37.225C216.121 34.225 215.096 30.15 213.896 25C213.646 23.9 213.521 22.95 213.521 22.15C213.521 18.7 216.021 16.575 221.021 15.775C223.271 15.425 229.896 15.25 240.896 15.25C251.396 15.25 256.646 21.55 256.646 34.15ZM330.688 58.45H330.238C330.238 56.5 328.938 55.525 326.338 55.525C325.788 55.525 324.963 55.575 323.863 55.675C322.813 55.825 322.013 55.9 321.463 55.9C311.763 55.9 306.913 53.6 306.913 49C304.913 49.05 302.088 48.925 298.438 48.625C295.988 48.175 294.388 46.7 293.638 44.2C293.238 42.85 293.038 40.525 293.038 37.225C293.038 36.275 292.513 35.8 291.463 35.8C291.163 35.8 290.788 35.85 290.338 35.95V35.65C291.988 34.3 294.138 33.425 296.788 33.025C298.388 32.775 300.738 32.65 303.838 32.65C307.388 32.65 309.663 32.775 310.663 33.025C313.313 33.625 314.738 35.075 314.938 37.375C315.038 38.425 315.163 41.25 315.313 45.85C318.163 45 320.088 43.125 321.088 40.225C321.738 38.325 322.063 35.55 322.063 31.9V26.425C322.063 20.725 320.238 17.875 316.588 17.875C313.638 17.875 312.188 20.825 312.238 26.725H303.988C303.988 24.825 303.663 23.05 303.013 21.4C302.213 19.15 301.013 18.025 299.413 18.025C298.113 18.025 297.463 18.825 297.463 20.425V25.675C297.463 28.575 298.138 30.025 299.488 30.025L299.413 31.15L296.113 31.225C292.563 31.325 290.413 30.225 289.663 27.925C289.413 27.175 289.288 24.55 289.288 20.05C289.288 18.6 288.888 17.875 288.088 17.875C287.738 17.875 287.363 18 286.963 18.25V17.875C289.713 16.125 293.213 15.25 297.463 15.25C303.513 15.25 307.088 16.825 308.188 19.975C309.338 18.125 310.438 16.875 311.488 16.225C312.588 15.575 314.163 15.25 316.213 15.25C322.313 15.25 326.363 16.775 328.363 19.825C329.913 22.175 330.688 26.575 330.688 33.025C330.688 42.825 325.763 48.1 315.913 48.85C316.813 51.6 319.613 52.975 324.313 52.975C328.263 52.975 330.238 51.475 330.238 48.475H330.688V58.45ZM306.313 45.925C306.213 45.175 306.163 42.55 306.163 38.05C306.163 36.1 305.388 35.125 303.838 35.125C302.238 35.125 301.438 36.15 301.438 38.2V42.25C301.438 44 303.063 45.225 306.313 45.925ZM378.071 0.924998C376.321 1.075 375.446 2.25 375.446 4.45C375.446 8.5 374.946 11.5 373.946 13.45C372.646 16.1 370.196 17.55 366.596 17.8V17.875H366.146C369.696 18.925 372.171 21.025 373.571 24.175C374.621 26.575 375.146 29.9 375.146 34.15C375.146 44.05 368.996 49 356.696 49C350.346 49 345.571 48.55 342.371 47.65C336.571 46 333.671 42.875 333.671 38.275C333.671 37.425 333.721 36.125 333.821 34.375C333.971 32.625 334.046 31.325 334.046 30.475C334.046 25.725 333.171 23.4 331.421 23.5V23.2L336.671 20.35C338.771 19.2 340.571 18.375 342.071 17.875H335.771C334.671 17.875 333.746 18.35 332.996 19.3C332.246 20.2 331.871 21.225 331.871 22.375H331.421V12.4H331.871C331.871 13.8 332.471 14.675 333.671 15.025C334.171 15.175 335.371 15.25 337.271 15.25H359.246C364.346 15.25 366.896 12.275 366.896 6.325C366.896 4.175 366.071 3.175 364.421 3.325V2.875L378.071 0.324996V0.924998ZM365.696 32.275C365.696 22.675 360.996 17.875 351.596 17.875C349.296 17.875 347.296 18.475 345.596 19.675C343.646 21.025 342.671 22.8 342.671 25V37.525C342.671 43.425 346.521 46.375 354.221 46.375C361.871 46.375 365.696 41.675 365.696 32.275ZM394.554 34.15C394.554 38.6 393.404 42.15 391.104 44.8C388.704 47.6 385.304 49 380.904 49C377.954 49 375.354 48.15 373.104 46.45C370.604 44.6 369.354 42.25 369.354 39.4C369.354 38.45 369.529 37.525 369.879 36.625H376.104C375.554 37.575 375.279 38.6 375.279 39.7C375.279 41.3 375.804 42.775 376.854 44.125C377.954 45.625 379.279 46.375 380.829 46.375C384.279 46.375 386.004 41.825 386.004 32.725C386.004 22.875 384.254 17.95 380.754 17.95C379.754 17.95 378.879 18.425 378.129 19.375C377.429 20.325 377.079 21.325 377.079 22.375H376.329V12.7H377.004C376.954 13.95 377.154 14.725 377.604 15.025C377.904 15.175 378.679 15.25 379.929 15.25H383.979C391.029 15.25 394.554 21.55 394.554 34.15ZM468.603 34.15C468.603 39.15 467.603 42.825 465.603 45.175C463.403 47.725 459.853 49 454.953 49C451.053 49 447.928 48.125 445.578 46.375C442.978 44.375 441.678 41.5 441.678 37.75C440.028 37.8 438.553 38.425 437.253 39.625C436.003 40.825 435.378 42.225 435.378 43.825C435.378 45.575 436.428 46.425 438.528 46.375V49C435.428 49 432.828 48.25 430.728 46.75C428.328 45.05 427.128 42.725 427.128 39.775C427.128 39.175 427.178 38.275 427.278 37.075C427.378 35.825 427.428 34.9 427.428 34.3C427.428 30.85 426.578 29.25 424.878 29.5V29.2C427.978 26.65 431.478 25.375 435.378 25.375H441.003L441.078 25.525C443.678 25.775 444.978 27.075 444.978 29.425C444.978 30.525 444.603 31.475 443.853 32.275C443.103 33.025 442.178 33.4 441.078 33.4C439.978 33.4 439.028 33.025 438.228 32.275C437.478 31.475 437.103 30.525 437.103 29.425C437.103 28.275 437.528 27.325 438.378 26.575C436.378 27.175 435.378 29.125 435.378 32.425V38.95C435.378 35.75 438.628 34.15 445.128 34.15H452.478V35.425C450.928 35.725 450.153 36.725 450.153 38.425C450.153 43.725 451.778 46.375 455.028 46.375C457.028 46.375 458.453 44.525 459.303 40.825C459.803 38.625 460.053 35.95 460.053 32.8C460.053 26.15 458.653 21.375 455.853 18.475C453.053 15.525 448.353 14.05 441.753 14.05C440.653 14.05 439.728 14.4 438.978 15.1C438.278 15.8 437.928 16.7 437.928 17.8H437.478V8.575H437.928C437.978 10.475 439.253 11.425 441.753 11.425C451.003 11.425 457.603 12.85 461.553 15.7C466.253 19.1 468.603 25.25 468.603 34.15ZM513.061 34.15C513.061 44.05 506.911 49 494.611 49C488.261 49 483.486 48.55 480.286 47.65C474.486 46 471.586 42.875 471.586 38.275C471.586 37.275 471.636 35.8 471.736 33.85C471.886 31.85 471.961 30.35 471.961 29.35C471.961 24 471.086 21.475 469.336 21.775V21.1C474.886 18.45 478.011 17 478.711 16.75C481.511 15.75 485.011 15.25 489.211 15.25C497.661 15.25 503.511 16.275 506.761 18.325C510.961 20.975 513.061 26.25 513.061 34.15ZM503.611 32.275C503.611 22.675 498.911 17.875 489.511 17.875C487.211 17.875 485.311 18.475 483.811 19.675C482.161 20.975 481.336 22.75 481.336 25V37.525C481.336 43.425 484.936 46.375 492.136 46.375C499.786 46.375 503.611 41.675 503.611 32.275ZM557.519 37.075C557.519 41.175 555.094 44.3 550.244 46.45C546.444 48.15 542.244 49 537.644 49C530.094 49 524.794 47.95 521.744 45.85C517.944 43.25 516.044 38.35 516.044 31.15C516.044 30 515.569 29.425 514.619 29.425C514.369 29.425 514.094 29.45 513.794 29.5V29.2C515.994 27.75 518.194 26.825 520.394 26.425C521.694 26.175 524.019 26 527.369 25.9V26.35C526.269 26.25 525.444 27 524.894 28.6C524.494 29.75 524.294 31.025 524.294 32.425C524.294 37.775 525.144 41.4 526.844 43.3C528.694 45.35 532.269 46.375 537.569 46.375C540.469 46.375 543.019 45.625 545.219 44.125C547.719 42.425 548.969 40.2 548.969 37.45C548.969 33.65 546.969 31.275 542.969 30.325C541.519 29.975 537.994 29.8 532.394 29.8V26.5H533.819C539.419 26.5 542.219 24.975 542.219 21.925C542.219 20.275 541.719 19.15 540.719 18.55C539.969 18.1 538.694 17.875 536.894 17.875H518.144C517.044 17.875 516.119 18.35 515.369 19.3C514.619 20.2 514.244 21.225 514.244 22.375H513.794V12.4H514.244C514.294 13.85 514.894 14.725 516.044 15.025C516.444 15.175 517.644 15.25 519.644 15.25H548.969V17.875C549.869 18.775 550.444 19.45 550.694 19.9C551.044 20.55 551.219 21.45 551.219 22.6C551.219 23.8 550.844 24.75 550.094 25.45C549.744 25.8 548.844 26.35 547.394 27.1C550.344 27.35 552.769 28.35 554.669 30.1C556.569 31.85 557.519 34.175 557.519 37.075ZM588.327 34.15C588.327 39.2 587.302 42.9 585.252 45.25C583.102 47.75 579.577 49 574.677 49C565.127 49 560.352 45.925 560.352 39.775V30.775C560.352 29.875 559.877 29.425 558.927 29.425C558.677 29.425 558.402 29.45 558.102 29.5V29.2C561.202 26.65 564.702 25.375 568.602 25.375C575.002 25.375 578.202 26.975 578.202 30.175C578.202 31.275 577.827 32.225 577.077 33.025C576.327 33.775 575.402 34.15 574.302 34.15C573.202 34.15 572.252 33.775 571.452 33.025C570.702 32.225 570.327 31.275 570.327 30.175C570.327 29.025 570.752 28.075 571.602 27.325C570.602 27.625 569.927 28 569.577 28.45C568.927 29.25 568.602 30.525 568.602 32.275V40.675C568.602 44.475 570.227 46.375 573.477 46.375C577.627 46.375 579.702 42.1 579.702 33.55C579.702 29.5 579.077 26.1 577.827 23.35C576.127 19.7 573.477 17.875 569.877 17.875H544.602V15.25H572.577C583.077 15.25 588.327 21.55 588.327 34.15ZM636.543 0.924998C634.793 1.075 633.918 2.25 633.918 4.45C633.918 8.5 633.418 11.5 632.418 13.45C631.118 16.1 628.668 17.55 625.068 17.8V17.875C627.718 19.425 629.793 21.775 631.293 24.925C632.643 27.775 633.318 30.85 633.318 34.15C633.318 38 632.068 41.4 629.568 44.35C626.968 47.45 623.768 49 619.968 49C616.068 49 612.943 48.125 610.593 46.375C607.993 44.375 606.693 41.5 606.693 37.75C605.043 37.8 603.568 38.425 602.268 39.625C601.018 40.825 600.393 42.225 600.393 43.825C600.393 45.575 601.443 46.425 603.543 46.375V49C599.093 49 595.968 47.775 594.168 45.325C592.618 43.225 591.843 39.875 591.843 35.275C591.843 34.125 591.893 32.45 591.993 30.25C592.093 28 592.143 26.3 592.143 25.15C592.143 24.8 591.843 24.5 591.243 24.25C590.693 24 590.243 23.9 589.893 23.95V23.5C592.193 20.15 595.218 18.275 598.968 17.875H594.243C593.143 17.875 592.218 18.35 591.468 19.3C590.718 20.2 590.343 21.225 590.343 22.375H589.893V12.4H590.343C590.393 13.85 590.993 14.75 592.143 15.1C592.493 15.2 593.693 15.25 595.743 15.25H617.718C622.818 15.25 625.368 12.275 625.368 6.325C625.368 4.175 624.543 3.175 622.893 3.325V2.875L636.543 0.324996V0.924998ZM625.068 34.15C625.068 29.45 623.968 25.65 621.768 22.75C619.318 19.5 615.793 17.875 611.193 17.875C603.993 17.875 600.393 20.425 600.393 25.525V38.95C600.393 35.75 603.643 34.15 610.143 34.15H617.493V35.425C615.943 35.725 615.168 36.725 615.168 38.425C615.168 43.725 616.793 46.375 620.043 46.375C623.393 46.375 625.068 42.3 625.068 34.15ZM681.001 0.924998C679.251 1.075 678.376 2.25 678.376 4.45C678.376 8.5 677.876 11.5 676.876 13.45C675.576 16.1 673.126 17.55 669.526 17.8V17.875H669.076C672.626 18.925 675.101 21.025 676.501 24.175C677.551 26.575 678.076 29.9 678.076 34.15C678.076 44.05 671.926 49 659.626 49C653.276 49 648.501 48.55 645.301 47.65C639.501 46 636.601 42.875 636.601 38.275C636.601 37.425 636.651 36.125 636.751 34.375C636.901 32.625 636.976 31.325 636.976 30.475C636.976 25.725 636.101 23.4 634.351 23.5V23.2L639.601 20.35C641.701 19.2 643.501 18.375 645.001 17.875H638.701C637.601 17.875 636.676 18.35 635.926 19.3C635.176 20.2 634.801 21.225 634.801 22.375H634.351V12.4H634.801C634.801 13.8 635.401 14.675 636.601 15.025C637.101 15.175 638.301 15.25 640.201 15.25H662.176C667.276 15.25 669.826 12.275 669.826 6.325C669.826 4.175 669.001 3.175 667.351 3.325V2.875L681.001 0.324996V0.924998ZM668.626 32.275C668.626 22.675 663.926 17.875 654.526 17.875C652.226 17.875 650.226 18.475 648.526 19.675C646.576 21.025 645.601 22.8 645.601 25V37.525C645.601 43.425 649.451 46.375 657.151 46.375C664.801 46.375 668.626 41.675 668.626 32.275ZM697.484 34.15C697.484 38.6 696.334 42.15 694.034 44.8C691.634 47.6 688.234 49 683.834 49C680.884 49 678.284 48.15 676.034 46.45C673.534 44.6 672.284 42.25 672.284 39.4C672.284 38.45 672.459 37.525 672.809 36.625H679.034C678.484 37.575 678.209 38.6 678.209 39.7C678.209 41.3 678.734 42.775 679.784 44.125C680.884 45.625 682.209 46.375 683.759 46.375C687.209 46.375 688.934 41.825 688.934 32.725C688.934 22.875 687.184 17.95 683.684 17.95C682.684 17.95 681.809 18.425 681.059 19.375C680.359 20.325 680.009 21.325 680.009 22.375H679.259V12.7H679.934C679.884 13.95 680.084 14.725 680.534 15.025C680.834 15.175 681.609 15.25 682.859 15.25H686.909C693.959 15.25 697.484 21.55 697.484 34.15ZM771.533 58.45H771.083C771.083 56.5 769.783 55.525 767.183 55.525C766.633 55.525 765.808 55.575 764.708 55.675C763.658 55.825 762.858 55.9 762.308 55.9C752.608 55.9 747.758 53.6 747.758 49C745.758 49.05 742.933 48.925 739.283 48.625C736.833 48.175 735.233 46.7 734.483 44.2C734.083 42.85 733.883 40.525 733.883 37.225C733.883 36.275 733.358 35.8 732.308 35.8C732.008 35.8 731.633 35.85 731.183 35.95V35.65C732.833 34.3 734.983 33.425 737.633 33.025C739.233 32.775 741.583 32.65 744.683 32.65C748.233 32.65 750.508 32.775 751.508 33.025C754.158 33.625 755.583 35.075 755.783 37.375C755.883 38.425 756.008 41.25 756.158 45.85C759.008 45 760.933 43.125 761.933 40.225C762.583 38.325 762.908 35.55 762.908 31.9V26.425C762.908 20.725 761.083 17.875 757.433 17.875C754.483 17.875 753.033 20.825 753.083 26.725H744.833C744.833 24.825 744.508 23.05 743.858 21.4C743.058 19.15 741.858 18.025 740.258 18.025C738.958 18.025 738.308 18.825 738.308 20.425V25.675C738.308 28.575 738.983 30.025 740.333 30.025L740.258 31.15L736.958 31.225C733.408 31.325 731.258 30.225 730.508 27.925C730.258 27.175 730.133 24.55 730.133 20.05C730.133 18.6 729.733 17.875 728.933 17.875C728.583 17.875 728.208 18 727.808 18.25V17.875C730.558 16.125 734.058 15.25 738.308 15.25C744.358 15.25 747.933 16.825 749.033 19.975C750.183 18.125 751.283 16.875 752.333 16.225C753.433 15.575 755.008 15.25 757.058 15.25C763.158 15.25 767.208 16.775 769.208 19.825C770.758 22.175 771.533 26.575 771.533 33.025C771.533 42.825 766.608 48.1 756.758 48.85C757.658 51.6 760.458 52.975 765.158 52.975C769.108 52.975 771.083 51.475 771.083 48.475H771.533V58.45ZM747.158 45.925C747.058 45.175 747.008 42.55 747.008 38.05C747.008 36.1 746.233 35.125 744.683 35.125C743.083 35.125 742.283 36.15 742.283 38.2V42.25C742.283 44 743.908 45.225 747.158 45.925ZM818.916 0.924998C817.166 1.075 816.291 2.25 816.291 4.45C816.291 8.5 815.791 11.5 814.791 13.45C813.491 16.1 811.041 17.55 807.441 17.8V17.875H806.991C810.541 18.925 813.016 21.025 814.416 24.175C815.466 26.575 815.991 29.9 815.991 34.15C815.991 44.05 809.841 49 797.541 49C791.191 49 786.416 48.55 783.216 47.65C777.416 46 774.516 42.875 774.516 38.275C774.516 37.425 774.566 36.125 774.666 34.375C774.816 32.625 774.891 31.325 774.891 30.475C774.891 25.725 774.016 23.4 772.266 23.5V23.2L777.516 20.35C779.616 19.2 781.416 18.375 782.916 17.875H776.616C775.516 17.875 774.591 18.35 773.841 19.3C773.091 20.2 772.716 21.225 772.716 22.375H772.266V12.4H772.716C772.716 13.8 773.316 14.675 774.516 15.025C775.016 15.175 776.216 15.25 778.116 15.25H800.091C805.191 15.25 807.741 12.275 807.741 6.325C807.741 4.175 806.916 3.175 805.266 3.325V2.875L818.916 0.324996V0.924998ZM806.541 32.275C806.541 22.675 801.841 17.875 792.441 17.875C790.141 17.875 788.141 18.475 786.441 19.675C784.491 21.025 783.516 22.8 783.516 25V37.525C783.516 43.425 787.366 46.375 795.066 46.375C802.716 46.375 806.541 41.675 806.541 32.275ZM835.399 34.15C835.399 38.6 834.249 42.15 831.949 44.8C829.549 47.6 826.149 49 821.749 49C818.799 49 816.199 48.15 813.949 46.45C811.449 44.6 810.199 42.25 810.199 39.4C810.199 38.45 810.374 37.525 810.724 36.625H816.949C816.399 37.575 816.124 38.6 816.124 39.7C816.124 41.3 816.649 42.775 817.699 44.125C818.799 45.625 820.124 46.375 821.674 46.375C825.124 46.375 826.849 41.825 826.849 32.725C826.849 22.875 825.099 17.95 821.599 17.95C820.599 17.95 819.724 18.425 818.974 19.375C818.274 20.325 817.924 21.325 817.924 22.375H817.174V12.7H817.849C817.799 13.95 817.999 14.725 818.449 15.025C818.749 15.175 819.524 15.25 820.774 15.25H824.824C831.874 15.25 835.399 21.55 835.399 34.15ZM909.448 34.15C909.448 39.15 908.448 42.825 906.448 45.175C904.248 47.725 900.698 49 895.798 49C891.898 49 888.773 48.125 886.423 46.375C883.823 44.375 882.523 41.5 882.523 37.75C880.873 37.8 879.398 38.425 878.098 39.625C876.848 40.825 876.223 42.225 876.223 43.825C876.223 45.575 877.273 46.425 879.373 46.375V49C876.273 49 873.673 48.25 871.573 46.75C869.173 45.05 867.973 42.725 867.973 39.775C867.973 39.175 868.023 38.275 868.123 37.075C868.223 35.825 868.273 34.9 868.273 34.3C868.273 30.85 867.423 29.25 865.723 29.5V29.2C868.823 26.65 872.323 25.375 876.223 25.375H881.848L881.923 25.525C884.523 25.775 885.823 27.075 885.823 29.425C885.823 30.525 885.448 31.475 884.698 32.275C883.948 33.025 883.023 33.4 881.923 33.4C880.823 33.4 879.873 33.025 879.073 32.275C878.323 31.475 877.948 30.525 877.948 29.425C877.948 28.275 878.373 27.325 879.223 26.575C877.223 27.175 876.223 29.125 876.223 32.425V38.95C876.223 35.75 879.473 34.15 885.973 34.15H893.323V35.425C891.773 35.725 890.998 36.725 890.998 38.425C890.998 43.725 892.623 46.375 895.873 46.375C897.873 46.375 899.298 44.525 900.148 40.825C900.648 38.625 900.898 35.95 900.898 32.8C900.898 26.15 899.498 21.375 896.698 18.475C893.898 15.525 889.198 14.05 882.598 14.05C881.498 14.05 880.573 14.4 879.823 15.1C879.123 15.8 878.773 16.7 878.773 17.8H878.323V8.575H878.773C878.823 10.475 880.098 11.425 882.598 11.425C891.848 11.425 898.448 12.85 902.398 15.7C907.098 19.1 909.448 25.25 909.448 34.15ZM953.906 34.15C953.906 44.05 947.756 49 935.456 49C929.106 49 924.331 48.55 921.131 47.65C915.331 46 912.431 42.875 912.431 38.275C912.431 37.275 912.481 35.8 912.581 33.85C912.731 31.85 912.806 30.35 912.806 29.35C912.806 24 911.931 21.475 910.181 21.775V21.1C915.731 18.45 918.856 17 919.556 16.75C922.356 15.75 925.856 15.25 930.056 15.25C938.506 15.25 944.356 16.275 947.606 18.325C951.806 20.975 953.906 26.25 953.906 34.15ZM944.456 32.275C944.456 22.675 939.756 17.875 930.356 17.875C928.056 17.875 926.156 18.475 924.656 19.675C923.006 20.975 922.181 22.75 922.181 25V37.525C922.181 43.425 925.781 46.375 932.981 46.375C940.631 46.375 944.456 41.675 944.456 32.275ZM998.064 34.15C998.064 38 996.814 41.4 994.314 44.35C991.714 47.45 988.514 49 984.714 49C980.814 49 977.689 48.125 975.339 46.375C972.739 44.375 971.439 41.5 971.439 37.75C969.789 37.8 968.314 38.425 967.014 39.625C965.764 40.825 965.139 42.225 965.139 43.825C965.139 45.575 966.189 46.425 968.289 46.375V49C963.839 49 960.714 47.775 958.914 45.325C957.364 43.225 956.589 39.875 956.589 35.275C956.589 34.125 956.639 32.45 956.739 30.25C956.839 28 956.889 26.3 956.889 25.15C956.889 24.8 956.589 24.5 955.989 24.25C955.439 24 954.989 23.9 954.639 23.95V23.5C956.939 20.15 959.964 18.275 963.714 17.875H958.989C957.889 17.875 956.964 18.35 956.214 19.3C955.464 20.2 955.089 21.225 955.089 22.375H954.639V12.4H955.089C955.139 13.85 955.739 14.75 956.889 15.1C957.239 15.2 958.439 15.25 960.489 15.25H989.814V17.875C992.464 19.425 994.539 21.775 996.039 24.925C997.389 27.775 998.064 30.85 998.064 34.15ZM989.814 34.15C989.814 29.45 988.714 25.65 986.514 22.75C984.064 19.5 980.539 17.875 975.939 17.875C968.739 17.875 965.139 20.425 965.139 25.525V38.95C965.139 35.75 968.389 34.15 974.889 34.15H982.239V35.425C980.689 35.725 979.914 36.725 979.914 38.425C979.914 43.725 981.539 46.375 984.789 46.375C988.139 46.375 989.814 42.3 989.814 34.15ZM998.497 11.2C998.497 15.65 995.122 17.875 988.372 17.875H977.797V15.25H982.297C987.797 15.25 990.547 13.325 990.547 9.475C990.547 8.375 990.172 7.325 989.422 6.325C988.672 5.325 987.772 4.675 986.722 4.375C987.822 5.475 988.372 6.85 988.372 8.5C988.372 9.85 987.897 11 986.947 11.95C985.947 12.85 984.772 13.3 983.422 13.3C982.072 13.3 980.847 12.875 979.747 12.025C978.597 11.125 978.022 10 978.022 8.65C978.022 8.35 978.097 7.875 978.247 7.225C978.397 6.575 978.472 6.1 978.472 5.8C978.472 5.15 978.222 4.875 977.722 4.975L977.797 4.675C980.297 3.275 982.997 2.575 985.897 2.575C990.497 2.575 993.647 3.05 995.347 4C997.447 5.15 998.497 7.55 998.497 11.2ZM1042.89 34.15C1042.89 44.05 1036.74 49 1024.44 49C1018.09 49 1013.32 48.55 1010.12 47.65C1004.32 46 1001.42 42.875 1001.42 38.275C1001.42 37.275 1001.47 35.8 1001.57 33.85C1001.72 31.85 1001.79 30.35 1001.79 29.35C1001.79 24 1000.92 21.475 999.17 21.775V21.1C1004.72 18.45 1007.84 17 1008.54 16.75C1011.34 15.75 1014.84 15.25 1019.04 15.25C1027.49 15.25 1033.34 16.275 1036.59 18.325C1040.79 20.975 1042.89 26.25 1042.89 34.15ZM1033.44 32.275C1033.44 22.675 1028.74 17.875 1019.34 17.875C1017.04 17.875 1015.14 18.475 1013.64 19.675C1011.99 20.975 1011.17 22.75 1011.17 25V37.525C1011.17 43.425 1014.77 46.375 1021.97 46.375C1029.62 46.375 1033.44 41.675 1033.44 32.275ZM1087.35 34.15C1087.35 38 1086.05 41.4 1083.45 44.35C1080.75 47.45 1077.5 49 1073.7 49C1069.4 49 1066.3 48.375 1064.4 47.125C1061.8 45.425 1060.48 42.3 1060.43 37.75C1058.83 37.8 1057.38 38.425 1056.08 39.625C1054.78 40.825 1054.13 42.225 1054.13 43.825C1054.13 45.525 1055.18 46.375 1057.28 46.375V49C1054.18 49 1051.58 48.25 1049.48 46.75C1047.08 45.1 1045.88 42.775 1045.88 39.775L1045.8 27.4C1045.8 26.05 1045.08 25.5 1043.63 25.75V25.45C1044.63 23.95 1046.9 22.8 1050.45 22V17.725C1050.45 16.725 1049.95 16.225 1048.95 16.225C1048.65 16.225 1048.33 16.275 1047.98 16.375C1047.88 16.225 1047.78 16 1047.68 15.7C1051.98 12.85 1057.18 11.425 1063.28 11.425C1071.78 11.425 1077.85 13.075 1081.5 16.375C1085.4 19.825 1087.35 25.75 1087.35 34.15ZM1064.25 17.05C1064.25 16 1064 15.175 1063.5 14.575C1063 13.975 1062.25 13.675 1061.25 13.675C1059.65 13.675 1058.78 14.025 1058.63 14.725C1058.48 15.425 1058.38 16.15 1058.33 16.9C1058.28 17.1 1058.25 17.425 1058.25 17.875C1058.25 19.925 1059.3 20.9 1061.4 20.8C1063.3 20.75 1064.25 19.5 1064.25 17.05ZM1078.8 34.15C1078.8 20.75 1075.78 14.05 1069.73 14.05C1071.58 15.35 1072.5 16.725 1072.5 18.175C1072.5 19.975 1071.28 21.325 1068.83 22.225C1067.08 22.875 1065.1 23.2 1062.9 23.2C1060.2 23.2 1058.23 23.475 1056.98 24.025C1055.08 24.875 1054.13 26.475 1054.13 28.825V39.025C1054.13 35.775 1057.38 34.15 1063.88 34.15H1071.23V35.425C1070.28 35.625 1069.65 35.925 1069.35 36.325C1069.05 36.725 1068.9 37.425 1068.9 38.425C1068.9 43.725 1070.53 46.375 1073.78 46.375C1077.13 46.375 1078.8 42.3 1078.8 34.15ZM1135.56 49H1119.14V48.25C1120.24 48.25 1121.21 47.9 1122.06 47.2C1122.91 46.45 1123.34 45.525 1123.34 44.425V33.4C1123.34 28.55 1122.01 24.75 1119.36 22C1116.76 19.25 1113.06 17.875 1108.26 17.875C1105.91 17.875 1103.79 18.45 1101.89 19.6C1099.69 20.9 1098.59 22.65 1098.59 24.85V44.425C1098.59 45.625 1098.94 46.625 1099.64 47.425C1100.39 48.175 1101.36 48.45 1102.56 48.25V49H1086.14V48.25C1087.24 48.25 1088.21 47.9 1089.06 47.2C1089.91 46.45 1090.34 45.525 1090.34 44.425V24.625C1090.34 23.325 1089.84 22.675 1088.84 22.675C1088.59 22.675 1088.34 22.7 1088.09 22.75V22.45C1090.74 21.05 1092.34 20.225 1092.89 19.975C1094.79 19.025 1096.44 18.325 1097.84 17.875H1092.44C1091.34 17.875 1090.41 18.225 1089.66 18.925C1088.91 19.625 1088.54 20.525 1088.54 21.625H1088.09V12.4H1088.54C1088.59 13.85 1089.19 14.75 1090.34 15.1C1090.69 15.2 1091.89 15.25 1093.94 15.25H1115.39C1120.49 15.25 1123.04 12.275 1123.04 6.325C1123.04 4.175 1122.21 3.175 1120.56 3.325V2.875L1134.21 0.324996V0.924998C1132.46 1.075 1131.59 2.25 1131.59 4.45C1131.59 8.35 1131.14 11.25 1130.24 13.15C1128.99 15.85 1126.66 17.4 1123.26 17.8V17.875H1122.74C1128.84 19.625 1131.89 25.175 1131.89 34.525C1131.89 35.375 1131.86 36.625 1131.81 38.275C1131.76 39.875 1131.74 41.1 1131.74 41.95C1131.74 44 1131.89 45.475 1132.19 46.375C1132.74 47.975 1133.86 48.6 1135.56 48.25V49ZM1179.64 34.15C1179.64 39.2 1178.62 42.9 1176.57 45.25C1174.42 47.75 1170.89 49 1165.99 49C1156.44 49 1151.67 45.925 1151.67 39.775V30.775C1151.67 29.875 1151.19 29.425 1150.24 29.425C1149.99 29.425 1149.72 29.45 1149.42 29.5V29.2C1152.52 26.65 1156.02 25.375 1159.92 25.375C1166.32 25.375 1169.52 26.975 1169.52 30.175C1169.52 31.275 1169.14 32.225 1168.39 33.025C1167.64 33.775 1166.72 34.15 1165.62 34.15C1164.52 34.15 1163.57 33.775 1162.77 33.025C1162.02 32.225 1161.64 31.275 1161.64 30.175C1161.64 29.025 1162.07 28.075 1162.92 27.325C1161.92 27.625 1161.24 28 1160.89 28.45C1160.24 29.25 1159.92 30.525 1159.92 32.275V40.675C1159.92 44.475 1161.54 46.375 1164.79 46.375C1168.94 46.375 1171.02 42.1 1171.02 33.55C1171.02 29.5 1170.39 26.1 1169.14 23.35C1167.44 19.7 1164.79 17.875 1161.19 17.875H1155.42C1154.02 17.875 1152.19 18.325 1149.94 19.225C1146.89 20.475 1145.37 22.075 1145.37 24.025C1145.37 24.275 1145.42 24.625 1145.52 25.075C1145.97 27.025 1146.97 30.8 1148.52 36.4C1148.92 37.8 1149.12 39.125 1149.12 40.375C1149.12 46.125 1144.62 49 1135.62 49C1132.67 49 1130.27 48.125 1128.42 46.375C1126.52 44.625 1125.57 42.3 1125.57 39.4C1125.57 38.45 1125.74 37.525 1126.09 36.625H1132.32C1131.77 37.575 1131.49 38.6 1131.49 39.7C1131.49 44.15 1132.84 46.375 1135.54 46.375C1138.84 46.375 1140.49 44.525 1140.49 40.825C1140.49 39.675 1140.32 38.475 1139.97 37.225C1139.12 34.225 1138.09 30.15 1136.89 25C1136.64 23.9 1136.52 22.95 1136.52 22.15C1136.52 18.7 1139.02 16.575 1144.02 15.775C1146.27 15.425 1152.89 15.25 1163.89 15.25C1174.39 15.25 1179.64 21.55 1179.64 34.15ZM1253.69 34.15C1253.69 38.65 1252.54 42.225 1250.24 44.875C1247.79 47.625 1244.34 49 1239.89 49C1230.84 49 1226.31 46.125 1226.31 40.375C1226.31 39.475 1226.51 38.125 1226.91 36.325C1227.31 34.525 1227.51 33.175 1227.51 32.275C1227.51 29.875 1226.19 28.675 1223.54 28.675C1221.94 28.675 1220.96 29.325 1220.61 30.625C1220.51 30.975 1220.46 32.15 1220.46 34.15V44.425C1220.46 46.275 1221.09 47.475 1222.34 48.025C1223.14 48.375 1223.84 48.45 1224.44 48.25V49H1208.01V48.25C1209.16 48.25 1210.14 47.9 1210.94 47.2C1211.79 46.5 1212.21 45.575 1212.21 44.425V33.4C1212.21 31.8 1211.71 31 1210.71 31C1210.51 31 1210.26 31.025 1209.96 31.075V30.4C1213.16 27.5 1218.29 25.975 1225.34 25.825C1232.39 25.675 1235.91 27.975 1235.91 32.725C1235.91 33.725 1235.64 35.175 1235.09 37.075C1234.59 38.925 1234.34 40.35 1234.34 41.35C1234.34 44.7 1236.04 46.375 1239.44 46.375C1243.24 46.375 1245.14 42.3 1245.14 34.15C1245.14 20.75 1242.11 14.05 1236.06 14.05C1237.91 15.35 1238.84 16.875 1238.84 18.625C1238.84 20.675 1237.66 22.25 1235.31 23.35C1233.51 24.2 1231.46 24.625 1229.16 24.625C1224.66 24.625 1220.69 24.05 1217.24 22.9L1216.79 22.75V17.725C1216.79 16.575 1216.39 16 1215.59 16C1215.59 15.9 1215.56 15.775 1215.51 15.625C1218.11 13.875 1220.09 12.775 1221.44 12.325C1223.24 11.725 1225.96 11.425 1229.61 11.425C1238.11 11.425 1244.19 13.075 1247.84 16.375C1251.74 19.825 1253.69 25.75 1253.69 34.15ZM1230.59 17.2C1230.59 16.05 1230.34 15.175 1229.84 14.575C1229.34 13.975 1228.59 13.675 1227.59 13.675C1226.04 13.675 1225.14 13.975 1224.89 14.575C1224.84 15.475 1224.76 16.375 1224.66 17.275C1224.61 17.725 1224.59 18.175 1224.59 18.625C1224.59 20.675 1225.64 21.65 1227.74 21.55C1229.64 21.45 1230.59 20 1230.59 17.2ZM1279.69 50.575L1278.94 50.5C1279.19 48.3 1278.57 47.2 1277.07 47.2C1276.52 47.2 1275.52 47.5 1274.07 48.1C1272.67 48.7 1271.59 49 1270.84 49C1267.24 49 1264.19 48.45 1261.69 47.35C1258.34 45.8 1256.67 43.45 1256.67 40.3V20.65C1256.67 18.9 1255.92 18.175 1254.42 18.475V17.875C1259.07 16.125 1263.57 15.25 1267.92 15.25C1275.77 15.25 1279.69 19 1279.69 26.5C1279.69 29.75 1279.07 32.125 1277.82 33.625C1276.57 35.125 1274.39 36.125 1271.29 36.625C1269.04 36.975 1266.92 36.575 1264.92 35.425V41.2C1264.92 42.75 1265.62 44.025 1267.02 45.025C1268.22 45.875 1269.64 46.325 1271.29 46.375C1273.29 46.475 1275.02 45.85 1276.47 44.5C1277.92 43.1 1278.64 41.425 1278.64 39.475H1279.69V50.575ZM1271.29 28.9C1271.29 25.75 1270.94 23.425 1270.24 21.925C1269.34 19.875 1267.57 18.525 1264.92 17.875V30.1C1264.92 32.65 1265.94 34 1267.99 34.15C1269.14 34.2 1270.02 33.575 1270.62 32.275C1271.07 31.325 1271.29 30.2 1271.29 28.9ZM1356.06 0.924998C1354.31 1.075 1353.44 2.25 1353.44 4.45C1353.44 8.35 1352.99 11.25 1352.09 13.15C1350.84 15.85 1348.51 17.4 1345.11 17.8V17.875H1335.36C1336.16 18.775 1336.56 19.825 1336.56 21.025C1336.56 23.375 1335.44 24.95 1333.19 25.75H1349.46C1351.86 25.75 1353.11 24.8 1353.21 22.9H1353.66V32.125H1353.21C1353.21 29.625 1351.59 28.375 1348.34 28.375C1351.89 30.175 1353.66 33.325 1353.66 37.825C1353.66 42.025 1351.14 45.075 1346.09 46.975C1342.54 48.325 1338.26 49 1333.26 49C1319.21 49 1312.19 46.1 1312.19 40.3C1312.19 39.85 1312.24 39.2 1312.34 38.35C1312.44 37.5 1312.49 36.85 1312.49 36.4C1312.49 34.05 1311.64 33 1309.94 33.25V33.1C1311.74 31.95 1314.46 30.375 1318.11 28.375H1315.79C1312.19 28.375 1310.39 29.625 1310.39 32.125H1309.94V22.9H1310.39C1310.49 24.8 1311.74 25.75 1314.14 25.75H1329.89C1327.69 24.95 1326.59 23.375 1326.59 21.025C1326.59 19.825 1326.96 18.775 1327.71 17.875H1314.29C1311.69 17.875 1310.39 19.125 1310.39 21.625H1309.94V12.4H1310.39C1310.44 13.85 1311.04 14.75 1312.19 15.1C1312.54 15.2 1313.74 15.25 1315.79 15.25H1337.24C1342.34 15.25 1344.89 12.275 1344.89 6.325C1344.89 4.175 1344.06 3.175 1342.41 3.325V2.875L1356.06 0.324996V0.924998ZM1344.21 37.45C1344.21 31.4 1340.39 28.375 1332.74 28.375H1328.99C1327.44 28.375 1325.81 28.9 1324.11 29.95C1322.16 31.1 1321.19 32.4 1321.19 33.85V39.85C1321.19 42.1 1322.64 43.825 1325.54 45.025C1327.74 45.925 1330.14 46.375 1332.74 46.375C1340.39 46.375 1344.21 43.4 1344.21 37.45ZM1401.04 0.924998C1399.29 1.075 1398.42 2.25 1398.42 4.45C1398.42 8.15 1398.02 10.95 1397.22 12.85C1396.07 15.55 1393.94 17.15 1390.84 17.65C1395.69 21.05 1398.12 26.55 1398.12 34.15C1398.12 38.65 1396.97 42.225 1394.67 44.875C1392.22 47.625 1388.77 49 1384.32 49C1375.27 49 1370.74 46.125 1370.74 40.375C1370.74 39.475 1370.94 38.125 1371.34 36.325C1371.74 34.525 1371.94 33.175 1371.94 32.275C1371.94 29.875 1370.62 28.675 1367.97 28.675C1366.37 28.675 1365.39 29.325 1365.04 30.625C1364.94 30.975 1364.89 32.15 1364.89 34.15V44.425C1364.89 46.275 1365.52 47.475 1366.77 48.025C1367.57 48.375 1368.27 48.45 1368.87 48.25V49H1352.44V48.25C1353.59 48.25 1354.57 47.9 1355.37 47.2C1356.22 46.5 1356.64 45.575 1356.64 44.425V33.4C1356.64 31.8 1356.14 31 1355.14 31C1354.94 31 1354.69 31.025 1354.39 31.075V30.4C1357.59 27.5 1362.72 25.975 1369.77 25.825C1376.82 25.675 1380.34 27.975 1380.34 32.725C1380.34 33.725 1380.07 35.175 1379.52 37.075C1379.02 38.925 1378.77 40.35 1378.77 41.35C1378.77 44.7 1380.47 46.375 1383.87 46.375C1387.67 46.375 1389.57 42.3 1389.57 34.15C1389.57 27.35 1388.19 22.725 1385.44 20.275C1383.64 18.675 1380.92 17.875 1377.27 17.875H1358.89C1357.79 17.875 1356.89 18.35 1356.19 19.3C1355.49 20.2 1355.14 21.225 1355.14 22.375H1354.39V12.7H1355.14C1355.04 13.3 1355.07 13.75 1355.22 14.05C1355.62 14.85 1356.49 15.25 1357.84 15.25H1382.22C1387.32 15.25 1389.87 12.275 1389.87 6.325C1389.87 4.175 1389.04 3.175 1387.39 3.325V2.875L1401.04 0.324996V0.924998ZM1417.83 51.1C1417.83 55.75 1417.25 59.15 1416.1 61.3C1414.55 64.3 1411.68 65.95 1407.48 66.25C1408.03 68.1 1409.2 69.025 1411 69.025C1415.35 69.025 1417.48 67.75 1417.38 65.2H1417.75V73.675H1417.38C1417.48 72.025 1415.98 71.2 1412.88 71.2C1412.23 71.2 1411.28 71.25 1410.03 71.35C1408.83 71.5 1407.93 71.575 1407.33 71.575C1402.28 71.575 1399.78 69.85 1399.83 66.4C1395.13 66.4 1392 65.55 1390.45 63.85C1388.85 62.15 1388.05 58.925 1388.05 54.175L1386.78 52.9L1385.73 53.05V52.825C1388.83 50.275 1392.6 49 1397.05 49C1399.95 49 1402.13 49.375 1403.58 50.125C1405.43 51.125 1406.45 52.925 1406.65 55.525C1406.65 55.575 1406.75 58.05 1406.95 62.95C1408.05 63 1408.73 61 1408.98 56.95C1409.03 56.15 1409.05 53.6 1409.05 49.3C1409.05 38.35 1407.3 32.875 1403.8 32.875C1400.7 32.875 1399.18 34.15 1399.23 36.7H1398.85V28.225H1399.23C1399.18 29.475 1399.75 30.225 1400.95 30.475C1401.4 30.575 1402.48 30.625 1404.18 30.625C1410.43 30.625 1414.45 32.625 1416.25 36.625C1417.3 38.925 1417.83 43.75 1417.83 51.1ZM1399.3 63.025C1399.2 62.375 1399.15 59.65 1399.15 54.85C1399.15 53.2 1398.5 52.375 1397.2 52.375C1396.3 52.375 1395.85 52.875 1395.85 53.875L1395.93 59.95C1395.93 61.55 1397.05 62.575 1399.3 63.025ZM1465.86 0.924998C1464.11 1.075 1463.24 2.25 1463.24 4.45C1463.24 8.5 1462.74 11.5 1461.74 13.45C1460.44 16.1 1457.99 17.55 1454.39 17.8V17.875C1455.94 18.175 1457.26 18.85 1458.36 19.9C1459.51 21.1 1460.09 22.45 1460.09 23.95C1460.09 26.5 1458.89 28.25 1456.49 29.2C1460.79 30 1462.94 33.075 1462.94 38.425C1462.94 41.925 1461.49 44.625 1458.59 46.525C1456.09 48.175 1452.99 49 1449.29 49C1445.44 49 1442.34 48.1 1439.99 46.3C1437.34 44.3 1436.01 41.45 1436.01 37.75C1434.36 37.8 1432.89 38.425 1431.59 39.625C1430.34 40.825 1429.71 42.225 1429.71 43.825C1429.71 45.525 1430.76 46.375 1432.86 46.375V49C1428.46 49 1425.36 47.9 1423.56 45.7C1421.96 43.75 1421.16 40.525 1421.16 36.025C1421.16 34.875 1421.21 33.175 1421.31 30.925C1421.41 28.675 1421.46 26.975 1421.46 25.825C1421.46 24.225 1420.96 23.425 1419.96 23.425C1419.71 23.425 1419.46 23.45 1419.21 23.5V23.125C1422.61 20.475 1425.64 18.725 1428.29 17.875H1423.56C1422.46 17.875 1421.54 18.35 1420.79 19.3C1420.04 20.2 1419.66 21.225 1419.66 22.375H1419.21V12.4H1419.66C1419.71 13.85 1420.31 14.75 1421.46 15.1C1421.81 15.2 1423.01 15.25 1425.06 15.25H1447.04C1452.14 15.25 1454.69 12.275 1454.69 6.325C1454.69 4.175 1453.86 3.175 1452.21 3.325V2.875L1465.86 0.324996V0.924998ZM1454.39 38.575C1454.39 35.525 1453.44 33.45 1451.54 32.35C1450.19 31.55 1447.84 31.125 1444.49 31.075V28.3C1448.99 28.15 1451.24 26.475 1451.24 23.275C1451.24 19.675 1447.66 17.875 1440.51 17.875C1433.31 17.875 1429.71 20.425 1429.71 25.525V38.95C1429.71 35.75 1432.96 34.15 1439.46 34.15H1446.81V35.425C1445.26 35.625 1444.49 36.625 1444.49 38.425C1444.49 43.725 1446.11 46.375 1449.36 46.375C1452.71 46.375 1454.39 43.775 1454.39 38.575ZM1507.4 34.15C1507.4 39.15 1506.4 42.825 1504.4 45.175C1502.2 47.725 1498.65 49 1493.75 49C1489.85 49 1486.72 48.125 1484.37 46.375C1481.77 44.375 1480.47 41.5 1480.47 37.75C1478.82 37.8 1477.35 38.425 1476.05 39.625C1474.8 40.825 1474.17 42.225 1474.17 43.825C1474.17 45.575 1475.22 46.425 1477.32 46.375V49C1474.22 49 1471.62 48.25 1469.52 46.75C1467.12 45.05 1465.92 42.725 1465.92 39.775C1465.92 39.175 1465.97 38.275 1466.07 37.075C1466.17 35.825 1466.22 34.9 1466.22 34.3C1466.22 30.85 1465.37 29.25 1463.67 29.5V29.2C1466.77 26.65 1470.27 25.375 1474.17 25.375C1477.62 25.375 1479.6 25.425 1480.1 25.525C1482.55 26.025 1483.77 27.325 1483.77 29.425C1483.77 30.525 1483.4 31.475 1482.65 32.275C1481.9 33.025 1480.97 33.4 1479.87 33.4C1478.77 33.4 1477.82 33.025 1477.02 32.275C1476.27 31.475 1475.9 30.525 1475.9 29.425C1475.9 28.275 1476.32 27.325 1477.17 26.575C1475.17 27.175 1474.17 29.125 1474.17 32.425V38.95C1474.17 35.75 1477.42 34.15 1483.92 34.15H1491.27V35.425C1489.72 35.725 1488.95 36.725 1488.95 38.425C1488.95 43.725 1490.57 46.375 1493.82 46.375C1495.82 46.375 1497.25 44.525 1498.1 40.825C1498.6 38.625 1498.85 35.95 1498.85 32.8C1498.85 29.2 1498.1 25.975 1496.6 23.125C1494.75 19.625 1492.2 17.875 1488.95 17.875H1468.02C1466.92 17.875 1466 18.35 1465.25 19.3C1464.5 20.2 1464.12 21.225 1464.12 22.375H1463.67V12.4H1464.12C1464.17 13.85 1464.77 14.75 1465.92 15.1C1466.27 15.2 1467.47 15.25 1469.52 15.25H1498.85V17.425C1504.55 20.425 1507.4 26 1507.4 34.15ZM1538.2 34.15C1538.2 39.2 1537.18 42.9 1535.13 45.25C1532.98 47.75 1529.45 49 1524.55 49C1515 49 1510.23 45.925 1510.23 39.775V30.775C1510.23 29.875 1509.75 29.425 1508.8 29.425C1508.55 29.425 1508.28 29.45 1507.98 29.5V29.2C1511.08 26.65 1514.58 25.375 1518.48 25.375C1524.88 25.375 1528.08 26.975 1528.08 30.175C1528.08 31.275 1527.7 32.225 1526.95 33.025C1526.2 33.775 1525.28 34.15 1524.18 34.15C1523.08 34.15 1522.13 33.775 1521.33 33.025C1520.58 32.225 1520.2 31.275 1520.2 30.175C1520.2 29.025 1520.63 28.075 1521.48 27.325C1520.48 27.625 1519.8 28 1519.45 28.45C1518.8 29.25 1518.48 30.525 1518.48 32.275V40.675C1518.48 44.475 1520.1 46.375 1523.35 46.375C1527.5 46.375 1529.58 42.1 1529.58 33.55C1529.58 29.5 1528.95 26.1 1527.7 23.35C1526 19.7 1523.35 17.875 1519.75 17.875H1494.48V15.25H1522.45C1532.95 15.25 1538.2 21.55 1538.2 34.15ZM1587.25 49H1570.82V48.25C1573.57 48.25 1574.95 46.85 1574.95 44.05V32.125C1574.95 26.225 1574.42 21.95 1573.37 19.3C1571.97 15.8 1569.47 14.05 1565.87 14.05C1567.72 15.35 1568.65 16.8 1568.65 18.4C1568.65 20.4 1567.47 21.875 1565.12 22.825C1563.37 23.575 1561.35 23.95 1559.05 23.95C1556.35 23.95 1554.37 24.225 1553.12 24.775C1551.22 25.625 1550.27 27.225 1550.27 29.575V44.425C1550.27 46.275 1550.9 47.475 1552.15 48.025C1552.95 48.375 1553.65 48.45 1554.25 48.25V49H1537.82V48.25C1538.97 48.25 1539.95 47.9 1540.75 47.2C1541.6 46.5 1542.02 45.575 1542.02 44.425V27.925C1542.02 26.175 1541.27 25.45 1539.77 25.75V25.45C1540.77 23.95 1543.05 22.8 1546.6 22V17.725C1546.6 16.725 1546.1 16.225 1545.1 16.225C1544.8 16.225 1544.47 16.275 1544.12 16.375C1544.02 16.225 1543.92 16 1543.82 15.7C1548.12 12.85 1553.32 11.425 1559.42 11.425C1567.92 11.425 1574 13.075 1577.65 16.375C1581.55 19.825 1583.5 25.75 1583.5 34.15V44.725C1583.5 47.175 1584.45 48.4 1586.35 48.4C1586.7 48.4 1587 48.35 1587.25 48.25V49ZM1560.4 17.05C1560.4 16 1560.15 15.175 1559.65 14.575C1559.15 13.975 1558.4 13.675 1557.4 13.675C1555.8 13.675 1554.92 14.025 1554.77 14.725C1554.62 15.425 1554.52 16.15 1554.47 16.9C1554.42 17.1 1554.4 17.425 1554.4 17.875C1554.4 19.925 1555.45 20.9 1557.55 20.8C1559.45 20.75 1560.4 19.5 1560.4 17.05ZM1630.88 0.924998C1629.13 1.075 1628.25 2.25 1628.25 4.45C1628.25 8.5 1627.75 11.5 1626.75 13.45C1625.45 16.1 1623 17.55 1619.4 17.8V17.875H1618.95C1622.5 18.925 1624.98 21.025 1626.38 24.175C1627.43 26.575 1627.95 29.9 1627.95 34.15C1627.95 44.05 1621.8 49 1609.5 49C1603.15 49 1598.38 48.55 1595.18 47.65C1589.38 46 1586.48 42.875 1586.48 38.275C1586.48 37.425 1586.53 36.125 1586.63 34.375C1586.78 32.625 1586.85 31.325 1586.85 30.475C1586.85 25.725 1585.98 23.4 1584.23 23.5V23.2L1589.48 20.35C1591.58 19.2 1593.38 18.375 1594.88 17.875H1588.58C1587.48 17.875 1586.55 18.35 1585.8 19.3C1585.05 20.2 1584.68 21.225 1584.68 22.375H1584.23V12.4H1584.68C1584.68 13.8 1585.28 14.675 1586.48 15.025C1586.98 15.175 1588.18 15.25 1590.08 15.25H1612.05C1617.15 15.25 1619.7 12.275 1619.7 6.325C1619.7 4.175 1618.88 3.175 1617.23 3.325V2.875L1630.88 0.324996V0.924998ZM1618.5 32.275C1618.5 22.675 1613.8 17.875 1604.4 17.875C1602.1 17.875 1600.1 18.475 1598.4 19.675C1596.45 21.025 1595.48 22.8 1595.48 25V37.525C1595.48 43.425 1599.33 46.375 1607.03 46.375C1614.68 46.375 1618.5 41.675 1618.5 32.275ZM1647.36 34.15C1647.36 38.6 1646.21 42.15 1643.91 44.8C1641.51 47.6 1638.11 49 1633.71 49C1630.76 49 1628.16 48.15 1625.91 46.45C1623.41 44.6 1622.16 42.25 1622.16 39.4C1622.16 38.45 1622.34 37.525 1622.69 36.625H1628.91C1628.36 37.575 1628.09 38.6 1628.09 39.7C1628.09 41.3 1628.61 42.775 1629.66 44.125C1630.76 45.625 1632.09 46.375 1633.64 46.375C1637.09 46.375 1638.81 41.825 1638.81 32.725C1638.81 22.875 1637.06 17.95 1633.56 17.95C1632.56 17.95 1631.69 18.425 1630.94 19.375C1630.24 20.325 1629.89 21.325 1629.89 22.375H1629.14V12.7H1629.81C1629.76 13.95 1629.96 14.725 1630.41 15.025C1630.71 15.175 1631.49 15.25 1632.74 15.25H1636.79C1643.84 15.25 1647.36 21.55 1647.36 34.15ZM1658.37 43.825C1658.37 45.125 1657.82 46.325 1656.72 47.425C1655.67 48.475 1654.5 49 1653.2 49C1651.85 49 1650.65 48.525 1649.6 47.575C1648.6 46.625 1648.1 45.475 1648.1 44.125C1648.1 42.775 1648.65 41.625 1649.75 40.675C1650.85 39.725 1652.07 39.25 1653.42 39.25C1654.67 39.25 1655.8 39.7 1656.8 40.6C1657.85 41.5 1658.37 42.575 1658.37 43.825Z" fill="black"/>
</svg>
