<svg width="1675" height="72" viewBox="0 0 1675 72" fill="none" xmlns="http://www.w3.org/2000/svg">
<path d="M41.175 34.45C41.175 41.35 38.4 46.2 32.85 49C32.1 46.35 30.25 45.025 27.3 45.025C25.55 45.025 23.075 45.7 19.875 47.05C16.675 48.35 14.2 49 12.45 49C8.85 49 5.875 47.775 3.525 45.325C1.175 42.825 0 39.775 0 36.175C0 29.025 3.4 25.45 10.2 25.45C11.45 25.45 12.55 25.95 13.5 26.95C14.5 27.9 15 29 15 30.25C15 31.55 14.525 32.675 13.575 33.625C12.625 34.575 11.5 35.05 10.2 35.05C8.85 35.05 7.675 34.65 6.675 33.85C5.725 33.05 5.25 32 5.25 30.7C5.25 29.75 5.5 28.85 6 28C4.95 29 4.425 30.275 4.425 31.825C4.425 33.675 5.2 35.15 6.75 36.25C8.1 37.2 9.75 37.675 11.7 37.675C17.65 37.675 20.45 35.525 20.1 31.225L20.025 30.25H21.075C20.875 33 21.475 34.975 22.875 36.175C24.075 37.175 26.1 37.675 28.95 37.675C34.35 37.675 37.05 35.2 37.05 30.25C37.05 26.5 35.425 23.575 32.175 21.475C29.425 19.675 26.05 18.775 22.05 18.775C14.2 18.775 10.275 19.575 10.275 21.175C10.275 21.625 10.425 22.1 10.725 22.6L10.5 22.825C9.55 21.725 9.075 20.375 9.075 18.775C9.075 18.075 9.325 17.1 9.825 15.85C10.325 14.6 10.575 13.625 10.575 12.925C10.575 12.025 10.175 11.025 9.375 9.925L9.6 9.625C10.55 11.025 11.625 11.725 12.825 11.725C13.675 11.725 14.95 11.675 16.65 11.575C18.4 11.475 19.7 11.425 20.55 11.425C34.3 11.425 41.175 19.1 41.175 34.45ZM85.34 31C85.34 35.8 84.94 39.3 84.14 41.5C82.99 44.7 80.615 47.2 77.015 49C76.265 46.35 74.315 45.025 71.165 45.025C69.465 45.025 67.04 45.7 63.89 47.05C60.74 48.35 58.315 49 56.615 49C52.565 49 49.39 47.15 47.09 43.45C45.14 40.35 44.165 36.625 44.165 32.275C44.165 20.925 47.99 15.25 55.64 15.25C57.99 15.25 59.965 16.05 61.565 17.65C63.165 19.25 63.965 21.225 63.965 23.575C63.965 25.925 63.19 27.85 61.64 29.35C60.14 30.85 58.215 31.6 55.865 31.6C50.665 31.6 48.165 28.825 48.365 23.275C47.915 24.475 47.69 25.65 47.69 26.8C47.69 34.05 53.365 37.675 64.715 37.675C68.515 37.675 71.94 37.1 74.99 35.95C79.19 34.4 81.29 32.075 81.29 28.975C81.29 26.525 80.515 24.825 78.965 23.875C77.765 23.125 75.84 22.75 73.19 22.75C69.69 22.75 67.94 23.625 67.94 25.375C67.94 25.825 68.09 26.35 68.39 26.95L68.165 27.175C67.215 26.025 66.74 24.425 66.74 22.375C66.74 21.675 66.99 20.675 67.49 19.375C67.99 18.075 68.24 17.075 68.24 16.375C68.24 15.575 67.84 14.625 67.04 13.525L67.265 13.225C68.265 14.675 69.69 15.4 71.54 15.4C71.94 15.4 72.515 15.375 73.265 15.325C74.015 15.275 74.59 15.25 74.99 15.25V19.225C78.34 19.375 80.94 20.55 82.79 22.75C84.49 24.85 85.34 27.6 85.34 31ZM57.365 22.75C57.365 21.75 57.015 20.9 56.315 20.2C55.615 19.5 54.765 19.15 53.765 19.15C52.765 19.15 51.915 19.5 51.215 20.2C50.515 20.9 50.165 21.75 50.165 22.75C50.165 23.75 50.515 24.6 51.215 25.3C51.915 26 52.765 26.35 53.765 26.35C54.765 26.35 55.615 26 56.315 25.3C57.015 24.6 57.365 23.75 57.365 22.75ZM114.43 32.275C114.68 39.875 112.755 45.45 108.655 49C108.405 47.1 107.03 46.15 104.53 46.15C103.63 46.15 102.405 46.625 100.855 47.575C99.3551 48.525 98.1301 49 97.1801 49C91.2801 49 88.3301 44.55 88.3301 35.65C88.3301 31.8 89.3301 29.1 91.3301 27.55C93.1301 26.2 96.0051 25.525 99.9551 25.525C104.105 25.525 106.18 27.25 106.18 30.7C106.18 32.2 105.605 33.4 104.455 34.3C103.305 35.15 101.955 35.575 100.405 35.575C96.3551 35.575 94.3301 34.1 94.3301 31.15C94.3301 29.4 95.2051 28.275 96.9551 27.775C95.7051 27.875 94.5801 28.4 93.5801 29.35C92.5801 30.25 92.0801 31.3 92.0801 32.5C92.0801 34.35 93.1051 35.725 95.1551 36.625C96.7051 37.325 98.5301 37.675 100.63 37.675C107.03 37.675 110.23 35.2 110.23 30.25C110.23 27.7 109.03 25.75 106.63 24.4C104.63 23.3 102.255 22.75 99.5051 22.75H71.5301V15.25H99.1301C103.98 15.25 107.78 16.9 110.53 20.2C112.98 23.25 114.28 27.275 114.43 32.275ZM115.307 58.225C115.307 60.425 114.632 62.35 113.282 64C111.882 65.7 110.157 66.55 108.107 66.55H106.982C109.182 65.8 110.282 64.1 110.282 61.45C110.282 59.95 109.807 58.725 108.857 57.775C107.907 56.875 106.682 56.425 105.182 56.425C103.282 56.425 101.732 56.925 100.532 57.925C99.3322 58.975 98.8572 60.45 99.1072 62.35H98.2072C98.4072 58.4 96.7072 56.425 93.1072 56.425C91.6072 56.425 90.4072 56.875 89.5072 57.775C88.5572 58.725 88.0822 59.95 88.0822 61.45C88.0822 63.7 88.8322 65.4 90.3322 66.55H88.9072C86.9572 66.55 85.2822 65.625 83.8822 63.775C82.6322 62.075 82.0072 60.225 82.0072 58.225C82.0072 55.975 82.8322 54 84.4822 52.3C86.1322 50.65 88.0822 49.825 90.3322 49.825C94.6822 49.825 97.4572 52.025 98.6572 56.425C99.8572 52.025 102.632 49.825 106.982 49.825C109.182 49.825 111.132 50.675 112.832 52.375C114.482 54.075 115.307 56.025 115.307 58.225ZM159.105 4.9C158.505 4.15 157.83 3.775 157.08 3.775C155.73 3.775 155.055 4.6 155.055 6.25C155.055 7.1 155.505 8.525 156.405 10.525C157.355 12.525 157.855 14 157.905 14.95C158.005 17 157.48 18.725 156.33 20.125C155.23 21.475 153.68 22.3 151.68 22.6C156.28 25.3 158.58 29.525 158.58 35.275C158.58 41.675 155.83 46.25 150.33 49C149.58 46.35 147.68 45.025 144.63 45.025C142.93 45.025 140.48 45.7 137.28 47.05C134.13 48.35 131.68 49 129.93 49C126.33 49 123.33 47.6 120.93 44.8C118.63 42.15 117.48 38.975 117.48 35.275C117.48 29.625 119.605 25.45 123.855 22.75H121.155C119.055 22.75 118.005 23.425 118.005 24.775C118.005 25.175 118.155 25.65 118.455 26.2L118.23 26.425C117.33 25.375 116.855 24.025 116.805 22.375C116.755 21.675 116.98 20.8 117.48 19.75C117.93 18.65 118.18 17.825 118.23 17.275C118.33 16.075 117.955 14.825 117.105 13.525L117.33 13.225C118.03 14.175 118.58 14.75 118.98 14.95C119.38 15.15 120.205 15.25 121.455 15.25H149.955C152.355 15.25 153.555 14.375 153.555 12.625C153.555 11.975 152.805 10.7 151.305 8.8C149.805 6.9 149.18 5.25 149.43 3.85C149.63 2.7 150.23 1.85 151.23 1.3C152.23 0.749998 153.33 0.524998 154.53 0.624997C157.18 0.824997 158.705 2.25 159.105 4.9ZM151.23 31.45C151.23 28.5 149.78 26.2 146.88 24.55C144.53 23.2 141.755 22.525 138.555 22.525C134.255 22.525 130.83 23.7 128.28 26.05C126.58 27.65 125.73 29.625 125.73 31.975C125.73 33.775 126.355 35.175 127.605 36.175C128.855 37.175 130.405 37.675 132.255 37.675C136.105 37.675 138.03 35.975 138.03 32.575H138.33C138.33 34.625 139.005 36.05 140.355 36.85C141.305 37.4 142.905 37.675 145.155 37.675C149.205 37.675 151.23 35.6 151.23 31.45ZM201.397 4.9C200.797 4.15 200.122 3.775 199.372 3.775C198.022 3.775 197.347 4.6 197.347 6.25C197.347 7.1 197.797 8.525 198.697 10.525C199.647 12.525 200.147 14 200.197 14.95C200.347 18.7 198.722 21.15 195.322 22.3C196.522 23.05 197.572 24.175 198.472 25.675C199.922 28.125 200.647 30.875 200.647 33.925C200.647 41.175 198.172 46.2 193.222 49C192.522 46.35 190.772 45.025 187.972 45.025C186.422 45.025 184.222 45.7 181.372 47.05C178.572 48.35 176.397 49 174.847 49C170.847 49 167.822 47.425 165.772 44.275C163.972 41.575 163.072 38.125 163.072 33.925C163.072 31.525 163.597 29.3 164.647 27.25C165.747 25.15 167.322 23.65 169.372 22.75H165.247C163.147 22.75 162.097 23.425 162.097 24.775C162.097 25.225 162.247 25.7 162.547 26.2L162.322 26.425C161.372 25.325 160.897 23.975 160.897 22.375C160.897 21.725 161.147 20.775 161.647 19.525C162.147 18.225 162.397 17.25 162.397 16.6C162.397 15.65 161.997 14.625 161.197 13.525L161.422 13.225C162.372 14.575 163.522 15.25 164.872 15.25H192.247C194.647 15.25 195.847 14.375 195.847 12.625C195.847 11.975 195.097 10.7 193.597 8.8C192.097 6.9 191.472 5.25 191.722 3.85C191.922 2.7 192.522 1.85 193.522 1.3C194.522 0.749998 195.622 0.524998 196.822 0.624997C199.472 0.824997 200.997 2.25 201.397 4.9ZM193.222 30.25C193.222 27.55 191.922 25.55 189.322 24.25C187.372 23.25 184.897 22.75 181.897 22.75C174.447 22.75 170.722 25.25 170.722 30.25C170.722 35.2 174.447 37.675 181.897 37.675C189.447 37.675 193.222 35.2 193.222 30.25ZM248.913 34.15C248.913 40.85 247.088 45.8 243.438 49C243.188 47.1 241.813 46.15 239.313 46.15C238.413 46.15 237.188 46.625 235.638 47.575C234.088 48.525 232.863 49 231.963 49C228.563 49 226.188 47.65 224.838 44.95C223.888 43.05 223.413 40.2 223.413 36.4C223.413 32.6 224.288 29.85 226.038 28.15C227.838 26.45 230.638 25.6 234.438 25.6C236.138 25.6 237.588 26.075 238.788 27.025C239.988 27.975 240.588 29.275 240.588 30.925C240.588 32.425 239.938 33.625 238.638 34.525C237.388 35.375 235.988 35.8 234.438 35.8C232.988 35.8 231.738 35.45 230.688 34.75C229.438 33.95 228.813 32.875 228.813 31.525C228.813 29.525 229.763 28.225 231.663 27.625C230.363 27.775 229.188 28.325 228.138 29.275C227.088 30.225 226.563 31.325 226.563 32.575C226.563 34.425 227.588 35.8 229.638 36.7C231.188 37.4 233.013 37.75 235.113 37.75C241.513 37.75 244.713 35.275 244.713 30.325C244.713 26.975 242.513 24.525 238.113 22.975C235.013 21.875 231.388 21.325 227.238 21.325C224.538 21.325 222.088 21.625 219.888 22.225C216.688 23.075 215.088 24.475 215.088 26.425C215.088 27.125 215.588 28.025 216.588 29.125C217.938 30.625 218.863 31.825 219.363 32.725C220.363 34.575 220.863 36.8 220.863 39.4C220.863 41.7 220.563 43.5 219.963 44.8C219.413 45.9 218.238 47.3 216.438 49C216.238 47.1 215.013 46.15 212.763 46.15C211.963 46.15 210.838 46.625 209.388 47.575C207.988 48.525 206.913 49 206.163 49C200.913 49 198.288 44.275 198.288 34.825L199.938 31.9C199.838 35.8 202.563 37.75 208.113 37.75C209.613 37.75 210.938 37.525 212.088 37.075C213.688 36.475 214.488 35.55 214.488 34.3C214.488 32.8 213.413 30.8 211.263 28.3C209.113 25.75 208.038 23.65 208.038 22C208.038 18.65 210.013 16.25 213.963 14.8C216.763 13.75 220.163 13.225 224.163 13.225C232.413 13.225 238.438 14.6 242.238 17.35C246.688 20.6 248.913 26.2 248.913 34.15ZM331.882 44.275C331.882 48.425 331.007 52.025 329.257 55.075C328.757 53.825 328.032 53.2 327.082 53.2C326.432 53.2 325.457 53.4 324.157 53.8C322.857 54.25 321.882 54.475 321.232 54.475C320.082 54.475 319.282 54.05 318.832 53.2C320.932 53.55 322.707 52.525 324.157 50.125C325.407 48.025 326.032 45.875 326.032 43.675V43.15C325.082 46.2 323.032 48.15 319.882 49C319.582 47.1 317.907 46.15 314.857 46.15C313.657 46.15 311.957 46.625 309.757 47.575C307.607 48.525 305.932 49 304.732 49C297.882 49 294.457 45.975 294.457 39.925C294.457 33.475 300.432 30.25 312.382 30.25C317.732 30.25 322.457 31.75 326.557 34.75C326.757 33.95 326.857 33.1 326.857 32.2C326.857 29.45 326.082 27.2 324.532 25.45C322.982 23.65 320.857 22.75 318.157 22.75C313.407 22.75 311.057 24.425 311.107 27.775L310.657 27.7C310.707 24.4 308.632 22.75 304.432 22.75C302.482 22.75 301.132 22.9 300.382 23.2C299.132 23.7 298.507 24.725 298.507 26.275C298.507 27.725 299.382 28.45 301.132 28.45C301.682 28.45 302.207 28.35 302.707 28.15C302.307 29.35 301.232 29.95 299.482 29.95C299.032 29.95 298.357 29.875 297.457 29.725C296.607 29.575 295.957 29.5 295.507 29.5C294.007 29.5 293.082 30.275 292.732 31.825C291.132 30.225 290.332 28.175 290.332 25.675C290.332 21.725 291.507 18.925 293.857 17.275C295.807 15.925 298.857 15.25 303.007 15.25C305.057 15.25 306.832 15.75 308.332 16.75C310.032 17.9 310.882 19.45 310.882 21.4C310.882 19.55 311.957 18.025 314.107 16.825C315.907 15.775 317.807 15.25 319.807 15.25C327.557 15.25 331.432 20.25 331.432 30.25C331.432 33 330.882 35.55 329.782 37.9C331.182 39.85 331.882 41.975 331.882 44.275ZM324.157 38.125C321.657 35.475 318.107 34.15 313.507 34.15C306.957 34.15 303.682 35.625 303.682 38.575C303.682 41.225 306.432 42.55 311.932 42.55C317.332 42.55 321.407 41.075 324.157 38.125ZM374.688 4.9C374.088 4.15 373.413 3.775 372.663 3.775C371.313 3.775 370.638 4.6 370.638 6.25C370.638 7.1 371.088 8.525 371.988 10.525C372.938 12.525 373.438 14 373.488 14.95C373.638 18.7 372.013 21.15 368.613 22.3C369.813 23.05 370.863 24.175 371.763 25.675C373.213 28.125 373.938 30.875 373.938 33.925C373.938 41.175 371.463 46.2 366.513 49C365.813 46.35 364.063 45.025 361.263 45.025C359.713 45.025 357.513 45.7 354.663 47.05C351.863 48.35 349.688 49 348.138 49C344.138 49 341.113 47.425 339.063 44.275C337.263 41.575 336.363 38.125 336.363 33.925C336.363 31.525 336.888 29.3 337.938 27.25C339.038 25.15 340.613 23.65 342.663 22.75H338.538C336.438 22.75 335.388 23.425 335.388 24.775C335.388 25.225 335.538 25.7 335.838 26.2L335.613 26.425C334.663 25.325 334.188 23.975 334.188 22.375C334.188 21.725 334.438 20.775 334.938 19.525C335.438 18.225 335.688 17.25 335.688 16.6C335.688 15.65 335.288 14.625 334.488 13.525L334.713 13.225C335.663 14.575 336.813 15.25 338.163 15.25H365.538C367.938 15.25 369.138 14.375 369.138 12.625C369.138 11.975 368.388 10.7 366.888 8.8C365.388 6.9 364.763 5.25 365.013 3.85C365.213 2.7 365.813 1.85 366.813 1.3C367.813 0.749998 368.913 0.524998 370.113 0.624997C372.763 0.824997 374.288 2.25 374.688 4.9ZM366.513 30.25C366.513 27.55 365.213 25.55 362.613 24.25C360.663 23.25 358.188 22.75 355.188 22.75C347.738 22.75 344.013 25.25 344.013 30.25C344.013 35.2 347.738 37.675 355.188 37.675C362.738 37.675 366.513 35.2 366.513 30.25ZM394.679 32.425C394.679 40.275 393.029 45.8 389.729 49C389.529 47.1 388.304 46.15 386.054 46.15C385.304 46.15 384.204 46.625 382.754 47.575C381.304 48.525 380.204 49 379.454 49C376.304 49 374.004 47.375 372.554 44.125C371.454 41.725 370.904 38.725 370.904 35.125L373.154 31.6C373.004 35.65 376.229 37.675 382.829 37.675C385.329 37.675 387.379 37.075 388.979 35.875C390.779 34.525 391.679 32.65 391.679 30.25C391.679 25.2 388.529 22.675 382.229 22.675C379.529 22.675 378.179 23.35 378.179 24.7L378.554 26.2L378.329 26.425C377.379 25.275 376.904 23.925 376.904 22.375C376.904 21.725 377.154 20.775 377.654 19.525C378.154 18.225 378.404 17.25 378.404 16.6C378.404 15.65 378.004 14.625 377.204 13.525L377.429 13.225C378.829 15.175 380.629 16.15 382.829 16.15C383.279 16.15 383.954 16.025 384.854 15.775C385.804 15.475 386.504 15.325 386.954 15.325C389.954 15.325 392.104 17.6 393.404 22.15C394.254 25.1 394.679 28.525 394.679 32.425ZM477.332 34.45C477.332 41.35 474.557 46.2 469.007 49C468.257 46.35 466.407 45.025 463.457 45.025C461.707 45.025 459.232 45.7 456.032 47.05C452.832 48.35 450.357 49 448.607 49C445.007 49 442.032 47.775 439.682 45.325C437.332 42.825 436.157 39.775 436.157 36.175C436.157 29.025 439.557 25.45 446.357 25.45C447.607 25.45 448.707 25.95 449.657 26.95C450.657 27.9 451.157 29 451.157 30.25C451.157 31.55 450.682 32.675 449.732 33.625C448.782 34.575 447.657 35.05 446.357 35.05C445.007 35.05 443.832 34.65 442.832 33.85C441.882 33.05 441.407 32 441.407 30.7C441.407 29.75 441.657 28.85 442.157 28C441.107 29 440.582 30.275 440.582 31.825C440.582 33.675 441.357 35.15 442.907 36.25C444.257 37.2 445.907 37.675 447.857 37.675C453.807 37.675 456.607 35.525 456.257 31.225L456.182 30.25H457.232C457.032 33 457.632 34.975 459.032 36.175C460.232 37.175 462.257 37.675 465.107 37.675C470.507 37.675 473.207 35.2 473.207 30.25C473.207 26.5 471.582 23.575 468.332 21.475C465.582 19.675 462.207 18.775 458.207 18.775C450.357 18.775 446.432 19.575 446.432 21.175C446.432 21.625 446.582 22.1 446.882 22.6L446.657 22.825C445.707 21.725 445.232 20.375 445.232 18.775C445.232 18.075 445.482 17.1 445.982 15.85C446.482 14.6 446.732 13.625 446.732 12.925C446.732 12.025 446.332 11.025 445.532 9.925L445.757 9.625C446.707 11.025 447.782 11.725 448.982 11.725C449.832 11.725 451.107 11.675 452.807 11.575C454.557 11.475 455.857 11.425 456.707 11.425C470.457 11.425 477.332 19.1 477.332 34.45ZM517.897 32.125C517.897 36.375 517.422 39.65 516.472 41.95C515.272 44.85 513.022 47.2 509.722 49C509.072 46.35 507.372 45.025 504.622 45.025C503.122 45.025 501.022 45.7 498.322 47.05C495.672 48.35 493.597 49 492.097 49C487.947 49 484.847 47.125 482.797 43.375C481.147 40.375 480.322 36.625 480.322 32.125C480.322 26.825 482.172 22.65 485.872 19.6C489.322 16.7 493.747 15.25 499.147 15.25C504.597 15.25 509.022 16.675 512.422 19.525C516.072 22.575 517.897 26.775 517.897 32.125ZM509.872 28.525C509.872 25.775 508.847 23.575 506.797 21.925C504.797 20.225 502.397 19.375 499.597 19.375C496.797 19.375 494.397 20.175 492.397 21.775C490.297 23.525 489.247 25.775 489.247 28.525C489.247 31.275 490.272 33.5 492.322 35.2C494.372 36.85 496.797 37.675 499.597 37.675C502.397 37.675 504.797 36.85 506.797 35.2C508.847 33.5 509.872 31.275 509.872 28.525ZM561.998 36.85C561.998 39.4 561.223 41.775 559.673 43.975C558.123 46.125 556.148 47.8 553.748 49C552.998 46.35 551.098 45.025 548.048 45.025C546.348 45.025 543.898 45.7 540.698 47.05C537.498 48.35 535.048 49 533.348 49C529.798 49 526.823 47.8 524.423 45.4C522.073 43 520.898 40.025 520.898 36.475C520.898 32.825 522.923 29.825 526.973 27.475L527.273 27.85C526.823 28.5 526.598 29.25 526.598 30.1C526.598 35.15 531.523 37.675 541.373 37.675C549.823 37.675 554.048 36.225 554.048 33.325C554.048 31.225 551.848 30.175 547.448 30.175C544.898 30.175 543.298 30.225 542.648 30.325C540.498 30.675 539.423 31.5 539.423 32.8C539.423 32.9 539.498 33.2 539.648 33.7V34.225C538.948 33.425 538.598 32.475 538.598 31.375C538.598 30.875 538.773 30.2 539.123 29.35C539.473 28.45 539.648 27.75 539.648 27.25C539.648 26.65 539.373 25.95 538.823 25.15L538.973 24.925C539.623 25.875 540.623 26.4 541.973 26.5H545.723C549.123 26.5 550.823 25.825 550.823 24.475C550.823 23.325 549.498 22.75 546.848 22.75H524.573C522.473 22.75 521.423 23.425 521.423 24.775L521.873 26.2L521.648 26.425C520.698 25.325 520.223 23.975 520.223 22.375C520.223 21.725 520.473 20.775 520.973 19.525C521.473 18.275 521.723 17.325 521.723 16.675C521.723 15.675 521.323 14.625 520.523 13.525L520.748 13.225C521.648 14.575 522.673 15.25 523.823 15.25H551.723V19.825C555.623 20.725 557.573 22.275 557.573 24.475C557.573 25.975 556.798 26.975 555.248 27.475C557.298 28.025 558.923 29.2 560.123 31C561.373 32.75 561.998 34.7 561.998 36.85ZM591.09 32.275C591.34 39.875 589.415 45.45 585.315 49C585.065 47.1 583.69 46.15 581.19 46.15C580.29 46.15 579.065 46.625 577.515 47.575C576.015 48.525 574.79 49 573.84 49C567.94 49 564.99 44.55 564.99 35.65C564.99 31.8 565.99 29.1 567.99 27.55C569.79 26.2 572.665 25.525 576.615 25.525C580.765 25.525 582.84 27.25 582.84 30.7C582.84 32.2 582.265 33.4 581.115 34.3C579.965 35.15 578.615 35.575 577.065 35.575C573.015 35.575 570.99 34.1 570.99 31.15C570.99 29.4 571.865 28.275 573.615 27.775C572.365 27.875 571.24 28.4 570.24 29.35C569.24 30.25 568.74 31.3 568.74 32.5C568.74 34.35 569.765 35.725 571.815 36.625C573.365 37.325 575.19 37.675 577.29 37.675C583.69 37.675 586.89 35.2 586.89 30.25C586.89 27.7 585.69 25.75 583.29 24.4C581.29 23.3 578.915 22.75 576.165 22.75H548.19V15.25H575.79C580.64 15.25 584.44 16.9 587.19 20.2C589.64 23.25 590.94 27.275 591.09 32.275ZM635.692 4.9C635.092 4.15 634.417 3.775 633.667 3.775C632.317 3.775 631.642 4.6 631.642 6.25C631.642 7.1 632.092 8.525 632.992 10.525C633.942 12.525 634.442 14 634.492 14.95C634.592 17 634.067 18.725 632.917 20.125C631.817 21.475 630.267 22.3 628.267 22.6C632.867 25.3 635.167 29.525 635.167 35.275C635.167 41.675 632.417 46.25 626.917 49C626.167 46.35 624.267 45.025 621.217 45.025C619.517 45.025 617.067 45.7 613.867 47.05C610.717 48.35 608.267 49 606.517 49C602.917 49 599.917 47.6 597.517 44.8C595.217 42.15 594.067 38.975 594.067 35.275C594.067 29.625 596.192 25.45 600.442 22.75H597.742C595.642 22.75 594.592 23.425 594.592 24.775C594.592 25.175 594.742 25.65 595.042 26.2L594.817 26.425C593.917 25.375 593.442 24.025 593.392 22.375C593.342 21.675 593.567 20.8 594.067 19.75C594.517 18.65 594.767 17.825 594.817 17.275C594.917 16.075 594.542 14.825 593.692 13.525L593.917 13.225C594.617 14.175 595.167 14.75 595.567 14.95C595.967 15.15 596.792 15.25 598.042 15.25H626.542C628.942 15.25 630.142 14.375 630.142 12.625C630.142 11.975 629.392 10.7 627.892 8.8C626.392 6.9 625.767 5.25 626.017 3.85C626.217 2.7 626.817 1.85 627.817 1.3C628.817 0.749998 629.917 0.524998 631.117 0.624997C633.767 0.824997 635.292 2.25 635.692 4.9ZM627.817 31.45C627.817 28.5 626.367 26.2 623.467 24.55C621.117 23.2 618.342 22.525 615.142 22.525C610.842 22.525 607.417 23.7 604.867 26.05C603.167 27.65 602.317 29.625 602.317 31.975C602.317 33.775 602.942 35.175 604.192 36.175C605.442 37.175 606.992 37.675 608.842 37.675C612.692 37.675 614.617 35.975 614.617 32.575H614.917C614.917 34.625 615.592 36.05 616.942 36.85C617.892 37.4 619.492 37.675 621.742 37.675C625.792 37.675 627.817 35.6 627.817 31.45ZM677.984 4.9C677.384 4.15 676.709 3.775 675.959 3.775C674.609 3.775 673.934 4.6 673.934 6.25C673.934 7.1 674.384 8.525 675.284 10.525C676.234 12.525 676.734 14 676.784 14.95C676.934 18.7 675.309 21.15 671.909 22.3C673.109 23.05 674.159 24.175 675.059 25.675C676.509 28.125 677.234 30.875 677.234 33.925C677.234 41.175 674.759 46.2 669.809 49C669.109 46.35 667.359 45.025 664.559 45.025C663.009 45.025 660.809 45.7 657.959 47.05C655.159 48.35 652.984 49 651.434 49C647.434 49 644.409 47.425 642.359 44.275C640.559 41.575 639.659 38.125 639.659 33.925C639.659 31.525 640.184 29.3 641.234 27.25C642.334 25.15 643.909 23.65 645.959 22.75H641.834C639.734 22.75 638.684 23.425 638.684 24.775C638.684 25.225 638.834 25.7 639.134 26.2L638.909 26.425C637.959 25.325 637.484 23.975 637.484 22.375C637.484 21.725 637.734 20.775 638.234 19.525C638.734 18.225 638.984 17.25 638.984 16.6C638.984 15.65 638.584 14.625 637.784 13.525L638.009 13.225C638.959 14.575 640.109 15.25 641.459 15.25H668.834C671.234 15.25 672.434 14.375 672.434 12.625C672.434 11.975 671.684 10.7 670.184 8.8C668.684 6.9 668.059 5.25 668.309 3.85C668.509 2.7 669.109 1.85 670.109 1.3C671.109 0.749998 672.209 0.524998 673.409 0.624997C676.059 0.824997 677.584 2.25 677.984 4.9ZM669.809 30.25C669.809 27.55 668.509 25.55 665.909 24.25C663.959 23.25 661.484 22.75 658.484 22.75C651.034 22.75 647.309 25.25 647.309 30.25C647.309 35.2 651.034 37.675 658.484 37.675C666.034 37.675 669.809 35.2 669.809 30.25ZM697.975 32.425C697.975 40.275 696.325 45.8 693.025 49C692.825 47.1 691.6 46.15 689.35 46.15C688.6 46.15 687.5 46.625 686.05 47.575C684.6 48.525 683.5 49 682.75 49C679.6 49 677.3 47.375 675.85 44.125C674.75 41.725 674.2 38.725 674.2 35.125L676.45 31.6C676.3 35.65 679.525 37.675 686.125 37.675C688.625 37.675 690.675 37.075 692.275 35.875C694.075 34.525 694.975 32.65 694.975 30.25C694.975 25.2 691.825 22.675 685.525 22.675C682.825 22.675 681.475 23.35 681.475 24.7L681.85 26.2L681.625 26.425C680.675 25.275 680.2 23.925 680.2 22.375C680.2 21.725 680.45 20.775 680.95 19.525C681.45 18.225 681.7 17.25 681.7 16.6C681.7 15.65 681.3 14.625 680.5 13.525L680.725 13.225C682.125 15.175 683.925 16.15 686.125 16.15C686.575 16.15 687.25 16.025 688.15 15.775C689.1 15.475 689.8 15.325 690.25 15.325C693.25 15.325 695.4 17.6 696.7 22.15C697.55 25.1 697.975 28.525 697.975 32.425ZM781.003 44.275C781.003 48.425 780.128 52.025 778.378 55.075C777.878 53.825 777.153 53.2 776.203 53.2C775.553 53.2 774.578 53.4 773.278 53.8C771.978 54.25 771.003 54.475 770.353 54.475C769.203 54.475 768.403 54.05 767.953 53.2C770.053 53.55 771.828 52.525 773.278 50.125C774.528 48.025 775.153 45.875 775.153 43.675V43.15C774.203 46.2 772.153 48.15 769.003 49C768.703 47.1 767.028 46.15 763.978 46.15C762.778 46.15 761.078 46.625 758.878 47.575C756.728 48.525 755.053 49 753.853 49C747.003 49 743.578 45.975 743.578 39.925C743.578 33.475 749.553 30.25 761.503 30.25C766.853 30.25 771.578 31.75 775.678 34.75C775.878 33.95 775.978 33.1 775.978 32.2C775.978 29.45 775.203 27.2 773.653 25.45C772.103 23.65 769.978 22.75 767.278 22.75C762.528 22.75 760.178 24.425 760.228 27.775L759.778 27.7C759.828 24.4 757.753 22.75 753.553 22.75C751.603 22.75 750.253 22.9 749.503 23.2C748.253 23.7 747.628 24.725 747.628 26.275C747.628 27.725 748.503 28.45 750.253 28.45C750.803 28.45 751.328 28.35 751.828 28.15C751.428 29.35 750.353 29.95 748.603 29.95C748.153 29.95 747.478 29.875 746.578 29.725C745.728 29.575 745.078 29.5 744.628 29.5C743.128 29.5 742.203 30.275 741.853 31.825C740.253 30.225 739.453 28.175 739.453 25.675C739.453 21.725 740.628 18.925 742.978 17.275C744.928 15.925 747.978 15.25 752.128 15.25C754.178 15.25 755.953 15.75 757.453 16.75C759.153 17.9 760.003 19.45 760.003 21.4C760.003 19.55 761.078 18.025 763.228 16.825C765.028 15.775 766.928 15.25 768.928 15.25C776.678 15.25 780.553 20.25 780.553 30.25C780.553 33 780.003 35.55 778.903 37.9C780.303 39.85 781.003 41.975 781.003 44.275ZM773.278 38.125C770.778 35.475 767.228 34.15 762.628 34.15C756.078 34.15 752.803 35.625 752.803 38.575C752.803 41.225 755.553 42.55 761.053 42.55C766.453 42.55 770.528 41.075 773.278 38.125ZM823.809 4.9C823.209 4.15 822.534 3.775 821.784 3.775C820.434 3.775 819.759 4.6 819.759 6.25C819.759 7.1 820.209 8.525 821.109 10.525C822.059 12.525 822.559 14 822.609 14.95C822.759 18.7 821.134 21.15 817.734 22.3C818.934 23.05 819.984 24.175 820.884 25.675C822.334 28.125 823.059 30.875 823.059 33.925C823.059 41.175 820.584 46.2 815.634 49C814.934 46.35 813.184 45.025 810.384 45.025C808.834 45.025 806.634 45.7 803.784 47.05C800.984 48.35 798.809 49 797.259 49C793.259 49 790.234 47.425 788.184 44.275C786.384 41.575 785.484 38.125 785.484 33.925C785.484 31.525 786.009 29.3 787.059 27.25C788.159 25.15 789.734 23.65 791.784 22.75H787.659C785.559 22.75 784.509 23.425 784.509 24.775C784.509 25.225 784.659 25.7 784.959 26.2L784.734 26.425C783.784 25.325 783.309 23.975 783.309 22.375C783.309 21.725 783.559 20.775 784.059 19.525C784.559 18.225 784.809 17.25 784.809 16.6C784.809 15.65 784.409 14.625 783.609 13.525L783.834 13.225C784.784 14.575 785.934 15.25 787.284 15.25H814.659C817.059 15.25 818.259 14.375 818.259 12.625C818.259 11.975 817.509 10.7 816.009 8.8C814.509 6.9 813.884 5.25 814.134 3.85C814.334 2.7 814.934 1.85 815.934 1.3C816.934 0.749998 818.034 0.524998 819.234 0.624997C821.884 0.824997 823.409 2.25 823.809 4.9ZM815.634 30.25C815.634 27.55 814.334 25.55 811.734 24.25C809.784 23.25 807.309 22.75 804.309 22.75C796.859 22.75 793.134 25.25 793.134 30.25C793.134 35.2 796.859 37.675 804.309 37.675C811.859 37.675 815.634 35.2 815.634 30.25ZM843.8 32.425C843.8 40.275 842.15 45.8 838.85 49C838.65 47.1 837.425 46.15 835.175 46.15C834.425 46.15 833.325 46.625 831.875 47.575C830.425 48.525 829.325 49 828.575 49C825.425 49 823.125 47.375 821.675 44.125C820.575 41.725 820.025 38.725 820.025 35.125L822.275 31.6C822.125 35.65 825.35 37.675 831.95 37.675C834.45 37.675 836.5 37.075 838.1 35.875C839.9 34.525 840.8 32.65 840.8 30.25C840.8 25.2 837.65 22.675 831.35 22.675C828.65 22.675 827.3 23.35 827.3 24.7L827.675 26.2L827.45 26.425C826.5 25.275 826.025 23.925 826.025 22.375C826.025 21.725 826.275 20.775 826.775 19.525C827.275 18.225 827.525 17.25 827.525 16.6C827.525 15.65 827.125 14.625 826.325 13.525L826.55 13.225C827.95 15.175 829.75 16.15 831.95 16.15C832.4 16.15 833.075 16.025 833.975 15.775C834.925 15.475 835.625 15.325 836.075 15.325C839.075 15.325 841.225 17.6 842.525 22.15C843.375 25.1 843.8 28.525 843.8 32.425ZM926.453 34.45C926.453 41.35 923.678 46.2 918.128 49C917.378 46.35 915.528 45.025 912.578 45.025C910.828 45.025 908.353 45.7 905.153 47.05C901.953 48.35 899.478 49 897.728 49C894.128 49 891.153 47.775 888.803 45.325C886.453 42.825 885.278 39.775 885.278 36.175C885.278 29.025 888.678 25.45 895.478 25.45C896.728 25.45 897.828 25.95 898.778 26.95C899.778 27.9 900.278 29 900.278 30.25C900.278 31.55 899.803 32.675 898.853 33.625C897.903 34.575 896.778 35.05 895.478 35.05C894.128 35.05 892.953 34.65 891.953 33.85C891.003 33.05 890.528 32 890.528 30.7C890.528 29.75 890.778 28.85 891.278 28C890.228 29 889.703 30.275 889.703 31.825C889.703 33.675 890.478 35.15 892.028 36.25C893.378 37.2 895.028 37.675 896.978 37.675C902.928 37.675 905.728 35.525 905.378 31.225L905.303 30.25H906.353C906.153 33 906.753 34.975 908.153 36.175C909.353 37.175 911.378 37.675 914.228 37.675C919.628 37.675 922.328 35.2 922.328 30.25C922.328 26.5 920.703 23.575 917.453 21.475C914.703 19.675 911.328 18.775 907.328 18.775C899.478 18.775 895.553 19.575 895.553 21.175C895.553 21.625 895.703 22.1 896.003 22.6L895.778 22.825C894.828 21.725 894.353 20.375 894.353 18.775C894.353 18.075 894.603 17.1 895.103 15.85C895.603 14.6 895.853 13.625 895.853 12.925C895.853 12.025 895.453 11.025 894.653 9.925L894.878 9.625C895.828 11.025 896.903 11.725 898.103 11.725C898.953 11.725 900.228 11.675 901.928 11.575C903.678 11.475 904.978 11.425 905.828 11.425C919.578 11.425 926.453 19.1 926.453 34.45ZM967.018 32.125C967.018 36.375 966.543 39.65 965.593 41.95C964.393 44.85 962.143 47.2 958.843 49C958.193 46.35 956.493 45.025 953.743 45.025C952.243 45.025 950.143 45.7 947.443 47.05C944.793 48.35 942.718 49 941.218 49C937.068 49 933.968 47.125 931.918 43.375C930.268 40.375 929.443 36.625 929.443 32.125C929.443 26.825 931.293 22.65 934.993 19.6C938.443 16.7 942.868 15.25 948.268 15.25C953.718 15.25 958.143 16.675 961.543 19.525C965.193 22.575 967.018 26.775 967.018 32.125ZM958.993 28.525C958.993 25.775 957.968 23.575 955.918 21.925C953.918 20.225 951.518 19.375 948.718 19.375C945.918 19.375 943.518 20.175 941.518 21.775C939.418 23.525 938.368 25.775 938.368 28.525C938.368 31.275 939.393 33.5 941.443 35.2C943.493 36.85 945.918 37.675 948.718 37.675C951.518 37.675 953.918 36.85 955.918 35.2C957.968 33.5 958.993 31.275 958.993 28.525ZM1011.12 35.275C1011.12 41.675 1008.37 46.25 1002.87 49C1002.12 46.35 1000.22 45.025 997.17 45.025C995.47 45.025 993.02 45.7 989.82 47.05C986.67 48.35 984.22 49 982.47 49C978.87 49 975.87 47.6 973.47 44.8C971.17 42.15 970.02 38.975 970.02 35.275C970.02 29.625 972.145 25.45 976.395 22.75H973.695C971.595 22.75 970.545 23.425 970.545 24.775C970.545 25.175 970.695 25.65 970.995 26.2L970.77 26.425C969.87 25.375 969.395 24.025 969.345 22.375C969.295 21.675 969.52 20.8 970.02 19.75C970.47 18.65 970.72 17.825 970.77 17.275C970.87 16.075 970.495 14.825 969.645 13.525L969.87 13.225C970.57 14.175 971.12 14.75 971.52 14.95C971.92 15.15 972.745 15.25 973.995 15.25H1000.84V21.1C1007.69 23.55 1011.12 28.275 1011.12 35.275ZM1003.77 31.45C1003.77 28.5 1002.32 26.2 999.42 24.55C997.07 23.2 994.295 22.525 991.095 22.525C986.945 22.525 983.57 23.65 980.97 25.9C979.17 27.55 978.27 29.575 978.27 31.975C978.27 33.775 978.895 35.175 980.145 36.175C981.395 37.175 982.945 37.675 984.795 37.675C988.645 37.675 990.57 35.975 990.57 32.575H990.87C990.87 34.625 991.545 36.05 992.895 36.85C993.845 37.4 995.445 37.675 997.695 37.675C1001.74 37.675 1003.77 35.6 1003.77 31.45ZM1012.09 12.25C1012.09 14.95 1011.44 17.3 1010.14 19.3C1008.59 21.6 1006.54 22.75 1003.99 22.75H996.711V15.25H1003.84C1007.04 15.25 1008.64 13.625 1008.64 10.375C1008.64 7.375 1007.31 5.575 1004.66 4.975C1006.06 5.825 1006.76 6.975 1006.76 8.425C1006.76 9.675 1006.26 10.7 1005.26 11.5C1004.26 12.3 1003.14 12.7 1001.89 12.7C998.836 12.7 997.261 11.125 997.161 7.975C997.111 6.375 997.711 5.1 998.961 4.15C1000.06 3.3 1001.44 2.875 1003.09 2.875C1005.94 2.875 1008.16 3.725 1009.76 5.425C1011.31 7.125 1012.09 9.4 1012.09 12.25ZM1051.76 32.125C1051.76 36.375 1051.28 39.65 1050.33 41.95C1049.13 44.85 1046.88 47.2 1043.58 49C1042.93 46.35 1041.23 45.025 1038.48 45.025C1036.98 45.025 1034.88 45.7 1032.18 47.05C1029.53 48.35 1027.46 49 1025.96 49C1021.81 49 1018.71 47.125 1016.66 43.375C1015.01 40.375 1014.18 36.625 1014.18 32.125C1014.18 26.825 1016.03 22.65 1019.73 19.6C1023.18 16.7 1027.61 15.25 1033.01 15.25C1038.46 15.25 1042.88 16.675 1046.28 19.525C1049.93 22.575 1051.76 26.775 1051.76 32.125ZM1043.73 28.525C1043.73 25.775 1042.71 23.575 1040.66 21.925C1038.66 20.225 1036.26 19.375 1033.46 19.375C1030.66 19.375 1028.26 20.175 1026.26 21.775C1024.16 23.525 1023.11 25.775 1023.11 28.525C1023.11 31.275 1024.13 33.5 1026.18 35.2C1028.23 36.85 1030.66 37.675 1033.46 37.675C1036.26 37.675 1038.66 36.85 1040.66 35.2C1042.71 33.5 1043.73 31.275 1043.73 28.525ZM1095.86 33.625C1095.86 37.475 1095.34 40.5 1094.29 42.7C1093.04 45.3 1090.81 47.4 1087.61 49C1086.86 46.35 1085.06 45.025 1082.21 45.025C1080.46 45.025 1077.96 45.7 1074.71 47.05C1071.46 48.35 1068.96 49 1067.21 49C1063.61 49 1060.61 47.625 1058.21 44.875C1055.91 42.275 1054.76 39.125 1054.76 35.425C1054.76 30.075 1057.24 26.25 1062.19 23.95C1060.74 22.85 1060.01 21.1 1060.01 18.7C1060.01 16 1061.69 13.95 1065.04 12.55C1067.54 11.5 1070.39 10.975 1073.59 10.975C1080.49 10.975 1085.91 13.025 1089.86 17.125C1093.86 21.225 1095.86 26.725 1095.86 33.625ZM1076.96 18.925C1076.96 17.875 1076.54 17 1075.69 16.3C1074.89 15.6 1073.96 15.25 1072.91 15.25C1071.71 15.25 1070.64 15.6 1069.69 16.3C1068.74 17 1068.26 17.925 1068.26 19.075C1068.26 20.225 1068.71 21.125 1069.61 21.775C1070.51 22.425 1071.56 22.75 1072.76 22.75C1073.81 22.75 1074.76 22.375 1075.61 21.625C1076.51 20.875 1076.96 19.975 1076.96 18.925ZM1089.34 28.3C1089.34 25.3 1088.49 22.5 1086.79 19.9C1084.89 17.05 1082.54 15.5 1079.74 15.25C1080.49 16.3 1080.86 17.45 1080.86 18.7C1080.86 21.35 1079.66 23.35 1077.26 24.7C1075.26 25.85 1072.86 26.425 1070.06 26.425C1068.46 26.425 1066.79 26.075 1065.04 25.375C1062.84 27.275 1061.74 29.425 1061.74 31.825C1061.74 35.725 1063.99 37.675 1068.49 37.675C1072.99 37.675 1075.21 36.1 1075.16 32.95H1075.46C1075.41 34.95 1076.11 36.3 1077.56 37C1078.51 37.45 1080.14 37.675 1082.44 37.675C1087.04 37.675 1089.34 34.55 1089.34 28.3ZM1140.48 4.9C1139.88 4.15 1139.2 3.775 1138.45 3.775C1137.1 3.775 1136.43 4.6 1136.43 6.25C1136.43 7.1 1136.88 8.525 1137.78 10.525C1138.73 12.525 1139.23 14 1139.28 14.95C1139.38 17.05 1138.85 18.8 1137.7 20.2C1136.55 21.55 1134.95 22.375 1132.9 22.675C1137.6 25.475 1139.95 29.25 1139.95 34C1139.95 40.85 1138.38 45.85 1135.23 49C1135.08 47.35 1134.03 46.525 1132.08 46.525C1131.33 46.525 1130.25 46.95 1128.85 47.8C1127.5 48.6 1126.45 49 1125.7 49C1124.25 49 1123.1 48.25 1122.25 46.75C1121.55 45.45 1121.2 44.025 1121.2 42.475C1121.2 40.075 1122.25 38.65 1124.35 38.2C1125.65 37.95 1127.6 37.6 1130.2 37.15C1132.3 36.4 1133.35 34.725 1133.35 32.125C1133.35 29.025 1131.73 26.625 1128.48 24.925C1125.78 23.475 1122.75 22.75 1119.4 22.75C1116.05 22.75 1113.08 23.45 1110.48 24.85C1107.28 26.55 1105.68 28.95 1105.68 32.05C1105.68 34.95 1106.75 36.7 1108.9 37.3C1110.85 37.5 1112.83 37.675 1114.83 37.825C1116.98 38.325 1118.05 39.9 1118.05 42.55C1118.05 43.95 1117.7 45.15 1117 46.15C1116.9 46.3 1116.05 47.25 1114.45 49C1114.25 47.35 1113.33 46.525 1111.68 46.525C1110.98 46.525 1110.03 46.95 1108.83 47.8C1107.63 48.6 1106.68 49 1105.98 49C1103.23 49 1101.25 47.2 1100.05 43.6C1099.25 41.25 1098.85 38.3 1098.85 34.75C1098.85 32 1099.53 29.55 1100.88 27.4C1102.28 25.2 1104.25 23.65 1106.8 22.75H1102.23C1100.33 22.75 1099.38 23.375 1099.38 24.625C1099.38 25.075 1099.53 25.6 1099.83 26.2L1099.6 26.425C1098.7 25.375 1098.23 24.025 1098.18 22.375C1098.13 21.675 1098.35 20.8 1098.85 19.75C1099.3 18.65 1099.55 17.825 1099.6 17.275C1099.7 16.075 1099.33 14.825 1098.48 13.525L1098.7 13.225C1099.4 14.225 1099.95 14.825 1100.35 15.025C1100.75 15.175 1101.58 15.25 1102.83 15.25H1131.33C1133.73 15.25 1134.93 14.375 1134.93 12.625C1134.93 11.975 1134.18 10.7 1132.68 8.8C1131.18 6.9 1130.55 5.25 1130.8 3.85C1131 2.7 1131.6 1.85 1132.6 1.3C1133.6 0.749998 1134.7 0.524998 1135.9 0.624997C1138.55 0.824997 1140.08 2.25 1140.48 4.9ZM1188.24 34.15C1188.24 40.85 1186.42 45.8 1182.77 49C1182.52 47.1 1181.14 46.15 1178.64 46.15C1177.74 46.15 1176.52 46.625 1174.97 47.575C1173.42 48.525 1172.19 49 1171.29 49C1167.89 49 1165.52 47.65 1164.17 44.95C1163.22 43.05 1162.74 40.2 1162.74 36.4C1162.74 32.6 1163.62 29.85 1165.37 28.15C1167.17 26.45 1169.97 25.6 1173.77 25.6C1175.47 25.6 1176.92 26.075 1178.12 27.025C1179.32 27.975 1179.92 29.275 1179.92 30.925C1179.92 32.425 1179.27 33.625 1177.97 34.525C1176.72 35.375 1175.32 35.8 1173.77 35.8C1172.32 35.8 1171.07 35.45 1170.02 34.75C1168.77 33.95 1168.14 32.875 1168.14 31.525C1168.14 29.525 1169.09 28.225 1170.99 27.625C1169.69 27.775 1168.52 28.325 1167.47 29.275C1166.42 30.225 1165.89 31.325 1165.89 32.575C1165.89 34.425 1166.92 35.8 1168.97 36.7C1170.52 37.4 1172.34 37.75 1174.44 37.75C1180.84 37.75 1184.04 35.275 1184.04 30.325C1184.04 26.975 1181.84 24.525 1177.44 22.975C1174.34 21.875 1170.72 21.325 1166.57 21.325C1163.87 21.325 1161.42 21.625 1159.22 22.225C1156.02 23.075 1154.42 24.475 1154.42 26.425C1154.42 27.125 1154.92 28.025 1155.92 29.125C1157.27 30.625 1158.19 31.825 1158.69 32.725C1159.69 34.575 1160.19 36.8 1160.19 39.4C1160.19 41.7 1159.89 43.5 1159.29 44.8C1158.74 45.9 1157.57 47.3 1155.77 49C1155.57 47.1 1154.34 46.15 1152.09 46.15C1151.29 46.15 1150.17 46.625 1148.72 47.575C1147.32 48.525 1146.24 49 1145.49 49C1140.24 49 1137.62 44.275 1137.62 34.825L1139.27 31.9C1139.17 35.8 1141.89 37.75 1147.44 37.75C1148.94 37.75 1150.27 37.525 1151.42 37.075C1153.02 36.475 1153.82 35.55 1153.82 34.3C1153.82 32.8 1152.74 30.8 1150.59 28.3C1148.44 25.75 1147.37 23.65 1147.37 22C1147.37 18.65 1149.34 16.25 1153.29 14.8C1156.09 13.75 1159.49 13.225 1163.49 13.225C1171.74 13.225 1177.77 14.6 1181.57 17.35C1186.02 20.6 1188.24 26.2 1188.24 34.15ZM1270.76 34C1270.76 41.25 1269.11 46.25 1265.81 49C1265.51 46.85 1264.16 45.775 1261.76 45.775C1260.96 45.775 1259.56 46.325 1257.56 47.425C1255.61 48.475 1253.96 49 1252.61 49C1250.36 49 1248.46 48.3 1246.91 46.9C1245.36 45.45 1244.59 43.6 1244.59 41.35C1244.59 40.55 1244.89 39.4 1245.49 37.9C1246.09 36.4 1246.39 35.25 1246.39 34.45C1246.39 32 1245.16 30.775 1242.71 30.775C1240.16 30.775 1238.89 33.175 1238.89 37.975C1238.89 45.025 1241.09 48.375 1245.49 48.025C1244.94 48.775 1244.04 49.15 1242.79 49.15C1241.79 49.15 1240.34 48.85 1238.44 48.25C1236.54 47.6 1235.26 47.275 1234.61 47.275C1233.81 47.275 1233.06 47.85 1232.36 49C1230.56 46.2 1229.66 42.45 1229.66 37.75C1229.66 31 1233.64 27.625 1241.59 27.625C1244.44 27.625 1246.76 28.5 1248.56 30.25C1249.41 31.3 1250.66 32.9 1252.31 35.05C1253.71 36.8 1255.46 37.675 1257.56 37.675C1262.66 37.675 1265.21 34.825 1265.21 29.125C1265.21 25.575 1264.34 22.525 1262.59 19.975C1260.69 17.125 1258.04 15.55 1254.64 15.25C1255.39 16.3 1255.76 17.45 1255.76 18.7C1255.76 21.3 1254.56 23.3 1252.16 24.7C1250.16 25.85 1247.76 26.425 1244.96 26.425C1242.36 26.425 1240.11 25.8 1238.21 24.55C1236.01 23.15 1234.91 21.2 1234.91 18.7C1234.91 15.9 1236.56 13.825 1239.86 12.475C1242.26 11.475 1245.14 10.975 1248.49 10.975C1255.79 10.975 1261.31 12.975 1265.06 16.975C1268.86 20.975 1270.76 26.65 1270.76 34ZM1251.86 18.925C1251.86 17.875 1251.44 17 1250.59 16.3C1249.79 15.6 1248.86 15.25 1247.81 15.25C1246.61 15.25 1245.54 15.6 1244.59 16.3C1243.64 17 1243.16 17.925 1243.16 19.075C1243.16 20.225 1243.61 21.125 1244.51 21.775C1245.41 22.425 1246.46 22.75 1247.66 22.75C1248.71 22.75 1249.66 22.375 1250.51 21.625C1251.41 20.875 1251.86 19.975 1251.86 18.925ZM1299.4 38.35C1299.4 42.8 1297.88 46.35 1294.83 49C1294.58 47.1 1293.2 46.15 1290.7 46.15C1289.8 46.15 1288.58 46.625 1287.03 47.575C1285.53 48.525 1284.3 49 1283.35 49C1279.9 49 1277.33 46.9 1275.63 42.7C1274.38 39.65 1273.75 36.125 1273.75 32.125C1273.75 27.075 1275.13 23 1277.88 19.9C1280.63 16.8 1284.5 15.25 1289.5 15.25C1292.3 15.25 1294.63 16.15 1296.48 17.95C1298.33 19.75 1299.25 22.05 1299.25 24.85C1299.25 27.7 1298.38 29.95 1296.63 31.6C1294.88 33.2 1292.58 34 1289.73 34C1283.88 34 1280.95 31.175 1280.95 25.525C1280.95 23.075 1281.83 21.05 1283.58 19.45C1280.48 21.2 1278.93 24.25 1278.93 28.6C1278.93 31.55 1280.1 33.85 1282.45 35.5C1284.5 36.95 1287.08 37.675 1290.18 37.675C1292.63 37.675 1294.38 37.525 1295.43 37.225C1297.18 36.725 1298.43 35.65 1299.18 34C1299.33 35.8 1299.4 37.25 1299.4 38.35ZM1292.8 22.45C1292.8 19.8 1291.48 18.475 1288.83 18.475C1287.68 18.475 1286.73 18.85 1285.98 19.6C1285.23 20.35 1284.85 21.3 1284.85 22.45C1284.85 23.65 1285.2 24.625 1285.9 25.375C1286.65 26.075 1287.63 26.425 1288.83 26.425C1290.03 26.425 1290.98 26.075 1291.68 25.375C1292.43 24.625 1292.8 23.65 1292.8 22.45ZM1382.47 4.9C1381.87 4.15 1381.19 3.775 1380.44 3.775C1379.09 3.775 1378.42 4.6 1378.42 6.25C1378.42 7.1 1378.87 8.525 1379.77 10.525C1380.72 12.525 1381.22 14 1381.27 14.95C1381.37 17.35 1380.69 19.25 1379.24 20.65C1377.79 22.05 1375.87 22.75 1373.47 22.75H1366.27L1366.94 24.625L1366.34 26.425H1379.84C1380.74 26.425 1381.42 26.075 1381.87 25.375L1382.02 25.525C1381.57 26.175 1381.37 26.8 1381.42 27.4C1381.42 27.65 1381.52 28.05 1381.72 28.6C1381.97 29.15 1382.07 29.6 1382.02 29.95C1382.02 30.65 1381.79 31.25 1381.34 31.75L1381.19 31.675C1381.39 31.375 1381.49 31.125 1381.49 30.925C1381.49 30.475 1381.02 30.25 1380.07 30.25H1374.82C1378.47 31.6 1380.29 34.075 1380.29 37.675C1380.29 42.325 1377.69 46.1 1372.49 49C1371.79 46.35 1370.04 45.025 1367.24 45.025C1365.69 45.025 1363.52 45.7 1360.72 47.05C1357.92 48.35 1355.72 49 1354.12 49C1350.57 49 1347.69 48 1345.49 46C1343.34 43.95 1342.27 41.175 1342.27 37.675C1342.27 35.725 1342.74 34.175 1343.69 33.025C1344.39 32.225 1345.74 31.3 1347.74 30.25H1341.22C1340.27 30.25 1339.79 30.475 1339.79 30.925C1339.79 31.125 1339.89 31.375 1340.09 31.675L1339.94 31.75C1339.49 31.25 1339.27 30.65 1339.27 29.95C1339.22 29.6 1339.32 29.15 1339.57 28.6C1339.77 28.05 1339.87 27.65 1339.87 27.4C1339.92 26.8 1339.72 26.175 1339.27 25.525L1339.42 25.375C1339.87 26.075 1340.54 26.425 1341.44 26.425H1356.74L1356.14 24.625L1356.82 22.75H1344.52C1342.57 22.75 1341.59 23.25 1341.59 24.25C1341.59 24.7 1341.74 25.2 1342.04 25.75L1341.82 25.975C1340.92 24.925 1340.44 23.7 1340.39 22.3C1340.34 21.55 1340.52 20.65 1340.92 19.6C1341.32 18.55 1341.54 17.775 1341.59 17.275C1341.69 16.075 1341.32 14.825 1340.47 13.525L1340.69 13.225C1341.39 14.225 1341.94 14.825 1342.34 15.025C1342.74 15.175 1343.57 15.25 1344.82 15.25H1373.32C1375.72 15.25 1376.92 14.375 1376.92 12.625C1376.92 11.975 1376.17 10.7 1374.67 8.8C1373.17 6.9 1372.54 5.25 1372.79 3.85C1372.99 2.7 1373.59 1.85 1374.59 1.3C1375.59 0.749998 1376.69 0.524998 1377.89 0.624997C1380.54 0.824997 1382.07 2.25 1382.47 4.9ZM1371.67 33.925C1371.67 32.675 1370.24 31.7 1367.39 31C1365.39 30.5 1363.39 30.25 1361.39 30.25C1359.39 30.25 1357.39 30.5 1355.39 31C1352.54 31.7 1351.12 32.675 1351.12 33.925C1351.12 35.225 1352.54 36.225 1355.39 36.925C1357.39 37.425 1359.39 37.675 1361.39 37.675C1363.39 37.675 1365.39 37.425 1367.39 36.925C1370.24 36.225 1371.67 35.225 1371.67 33.925ZM1426.63 4.9C1426.03 4.15 1425.36 3.775 1424.61 3.775C1423.26 3.775 1422.58 4.6 1422.58 6.25C1422.58 7.1 1423.03 8.525 1423.93 10.525C1424.88 12.525 1425.38 14 1425.43 14.95C1425.63 19.05 1423.78 21.575 1419.88 22.525C1424.03 25.125 1426.11 29.375 1426.11 35.275C1426.11 41.625 1424.46 46.2 1421.16 49C1420.86 46.85 1419.51 45.775 1417.11 45.775C1416.31 45.775 1414.93 46.325 1412.98 47.425C1411.08 48.475 1409.41 49 1407.96 49C1405.66 49 1403.73 48.3 1402.18 46.9C1400.68 45.5 1399.93 43.65 1399.93 41.35C1399.93 40.45 1400.18 39.175 1400.68 37.525C1401.23 35.825 1401.51 34.525 1401.51 33.625C1401.51 31.725 1400.36 30.775 1398.06 30.775C1395.51 30.775 1394.23 33.175 1394.23 37.975C1394.23 45.025 1396.43 48.375 1400.83 48.025C1400.28 48.775 1399.38 49.15 1398.13 49.15C1397.13 49.15 1395.68 48.85 1393.78 48.25C1391.88 47.6 1390.61 47.275 1389.96 47.275C1389.16 47.275 1388.41 47.85 1387.71 49C1385.91 46.2 1385.01 42.45 1385.01 37.75C1385.01 34.05 1386.13 31.2 1388.38 29.2C1390.53 27.35 1393.48 26.425 1397.23 26.425C1400.13 26.425 1402.36 27.4 1403.91 29.35L1407.06 34.75C1408.21 36.7 1409.83 37.675 1411.93 37.675C1417.03 37.675 1419.58 35.65 1419.58 31.6C1419.58 28.4 1417.96 26.025 1414.71 24.475C1412.31 23.325 1409.28 22.75 1405.63 22.75H1388.68C1386.58 22.75 1385.53 23.425 1385.53 24.775C1385.53 25.175 1385.68 25.65 1385.98 26.2L1385.76 26.425C1384.86 25.375 1384.38 24.025 1384.33 22.375C1384.28 21.675 1384.51 20.8 1385.01 19.75C1385.46 18.65 1385.71 17.825 1385.76 17.275C1385.86 16.075 1385.48 14.825 1384.63 13.525L1384.86 13.225C1385.56 14.225 1386.11 14.825 1386.51 15.025C1386.91 15.175 1387.73 15.25 1388.98 15.25H1417.48C1419.88 15.25 1421.08 14.375 1421.08 12.625C1421.08 11.975 1420.33 10.7 1418.83 8.8C1417.33 6.9 1416.71 5.25 1416.96 3.85C1417.16 2.7 1417.76 1.85 1418.76 1.3C1419.76 0.749998 1420.86 0.524998 1422.06 0.624997C1424.71 0.824997 1426.23 2.25 1426.63 4.9ZM1444.4 68.35C1442.15 70.65 1439.9 71.8 1437.65 71.8C1433.9 71.8 1431.55 69.175 1430.6 63.925C1428.35 65.025 1426.08 65.575 1423.78 65.575C1420.88 65.575 1418.5 64.925 1416.65 63.625C1414.55 62.175 1413.5 60.05 1413.5 57.25C1413.5 54.75 1414.38 52.725 1416.13 51.175C1417.83 49.625 1419.93 48.85 1422.43 48.85C1428.53 48.85 1431.68 52.075 1431.88 58.525C1433.53 57.125 1434.35 54.85 1434.35 51.7C1434.35 46.7 1432.9 44.2 1430 44.2C1428.75 44.2 1427.95 45.125 1427.6 46.975L1427.23 43.975C1427.23 43.075 1427.93 41.875 1429.33 40.375C1430.73 38.875 1431.43 37.75 1431.43 37C1431.43 36.35 1431.1 35.725 1430.45 35.125C1436.5 35.125 1439.53 39.825 1439.53 49.225C1439.53 54.325 1437.45 58.575 1433.3 61.975C1433.4 62.725 1433.8 63.425 1434.5 64.075C1435.25 64.725 1436 65.05 1436.75 65.05C1437.6 65.05 1438.3 64.675 1438.85 63.925C1439.4 63.175 1439.68 62.35 1439.68 61.45C1439.68 60.65 1439.48 59.9 1439.08 59.2C1440.58 59.45 1441.4 61.2 1441.55 64.45C1441.65 66.55 1442.18 67.8 1443.13 68.2C1443.48 68.3 1443.9 68.35 1444.4 68.35ZM1429.1 59.8C1429.1 58.45 1428.65 57.375 1427.75 56.575C1426.85 55.775 1425.7 55.375 1424.3 55.375C1422.25 55.375 1421.23 56.4 1421.23 58.45C1421.23 59.1 1421.65 59.725 1422.5 60.325C1423.3 60.975 1424.05 61.3 1424.75 61.3C1425.95 61.3 1427.4 60.8 1429.1 59.8ZM1482.08 4.9C1481.48 4.15 1480.8 3.775 1480.05 3.775C1478.7 3.775 1478.03 4.6 1478.03 6.25C1478.03 7.1 1478.48 8.525 1479.38 10.525C1480.33 12.525 1480.83 14 1480.88 14.95C1480.98 17.15 1480.38 18.95 1479.08 20.35C1477.83 21.75 1476.1 22.55 1473.9 22.75C1475 23.55 1475.93 24.55 1476.68 25.75C1479.93 27.9 1481.55 31.075 1481.55 35.275C1481.55 41.675 1478.8 46.25 1473.3 49C1472.55 46.35 1470.65 45.025 1467.6 45.025C1465.9 45.025 1463.45 45.7 1460.25 47.05C1457.1 48.35 1454.65 49 1452.9 49C1449.3 49 1446.3 47.6 1443.9 44.8C1441.6 42.15 1440.45 38.975 1440.45 35.275C1440.45 29.625 1442.6 25.45 1446.9 22.75H1444.13C1442.03 22.75 1440.98 23.425 1440.98 24.775C1440.98 25.175 1441.13 25.65 1441.43 26.2L1441.2 26.425C1440.3 25.375 1439.83 24.025 1439.78 22.375C1439.73 21.675 1439.95 20.8 1440.45 19.75C1440.9 18.65 1441.15 17.825 1441.2 17.275C1441.3 16.075 1440.93 14.825 1440.08 13.525L1440.3 13.225C1441 14.225 1441.55 14.825 1441.95 15.025C1442.35 15.175 1443.18 15.25 1444.43 15.25H1472.93C1475.33 15.25 1476.53 14.375 1476.53 12.625C1476.53 11.975 1475.78 10.7 1474.28 8.8C1472.78 6.9 1472.15 5.25 1472.4 3.85C1472.6 2.7 1473.2 1.85 1474.2 1.3C1475.2 0.749998 1476.3 0.524998 1477.5 0.624997C1480.15 0.824997 1481.68 2.25 1482.08 4.9ZM1474.28 29.65C1474.28 27.85 1473.33 26.95 1471.43 26.95C1470.68 26.95 1470.03 27.225 1469.48 27.775C1468.98 28.325 1468.73 28.975 1468.73 29.725C1468.73 30.475 1468.98 31.125 1469.48 31.675C1470.03 32.225 1470.68 32.5 1471.43 32.5C1472.23 32.5 1472.9 32.225 1473.45 31.675C1474 31.125 1474.28 30.45 1474.28 29.65ZM1474.58 34.975C1472.58 35.825 1471.05 36.225 1470 36.175C1468.05 36.125 1466.4 35.65 1465.05 34.75C1463.45 33.65 1462.65 32.175 1462.65 30.325C1462.65 28.425 1463.38 26.95 1464.83 25.9C1466.28 24.8 1467.95 24.275 1469.85 24.325C1467.3 23.125 1464.3 22.6 1460.85 22.75C1452.75 23.05 1448.7 26.125 1448.7 31.975C1448.7 33.775 1449.33 35.175 1450.58 36.175C1451.83 37.175 1453.38 37.675 1455.23 37.675C1458.93 37.675 1460.78 35.725 1460.78 31.825H1461.3C1461.3 35.725 1463.58 37.675 1468.13 37.675C1470.73 37.675 1472.88 36.775 1474.58 34.975ZM1525.65 34C1525.65 41.2 1522.9 46.2 1517.4 49C1516.65 46.35 1514.7 45.025 1511.55 45.025C1509.85 45.025 1507.42 45.7 1504.27 47.05C1501.12 48.35 1498.7 49 1497 49C1493.4 49 1490.42 47.85 1488.07 45.55C1485.72 43.2 1484.55 40.225 1484.55 36.625C1484.55 29.825 1488.17 26.425 1495.42 26.425C1496.97 26.425 1498.27 26.85 1499.32 27.7C1500.42 28.55 1500.97 29.725 1500.97 31.225C1500.97 32.675 1500.5 33.825 1499.55 34.675C1498.6 35.525 1497.37 35.95 1495.87 35.95C1492.22 35.95 1490.4 34.675 1490.4 32.125C1490.4 30.125 1491.32 28.85 1493.17 28.3C1490.37 29 1488.97 30.55 1488.97 32.95C1488.97 36.1 1491.45 37.675 1496.4 37.675C1498.65 37.675 1500.6 37.05 1502.25 35.8C1504.1 34.45 1504.97 32.675 1504.87 30.475H1505.47C1505.32 32.625 1506.02 34.375 1507.57 35.725C1509.12 37.025 1511 37.675 1513.2 37.675C1515.35 37.675 1517.05 36.975 1518.3 35.575C1519.55 34.175 1520.17 32.4 1520.17 30.25C1520.17 27.95 1519.37 26.125 1517.77 24.775C1516.22 23.425 1514.27 22.75 1511.92 22.75H1488.22C1486.12 22.75 1485.07 23.425 1485.07 24.775C1485.07 25.225 1485.22 25.7 1485.52 26.2L1485.3 26.425C1484.35 25.325 1483.87 23.975 1483.87 22.375C1483.87 21.675 1484.12 20.7 1484.62 19.45C1485.12 18.2 1485.37 17.225 1485.37 16.525C1485.37 15.625 1484.97 14.625 1484.17 13.525L1484.4 13.225C1485.3 14.575 1486.45 15.25 1487.85 15.25H1515.37V19.6C1518.72 19.85 1521.32 21.525 1523.17 24.625C1524.82 27.325 1525.65 30.45 1525.65 34ZM1554.74 32.275C1554.99 39.875 1553.06 45.45 1548.96 49C1548.71 47.1 1547.34 46.15 1544.84 46.15C1543.94 46.15 1542.71 46.625 1541.16 47.575C1539.66 48.525 1538.44 49 1537.49 49C1531.59 49 1528.64 44.55 1528.64 35.65C1528.64 31.8 1529.64 29.1 1531.64 27.55C1533.44 26.2 1536.31 25.525 1540.26 25.525C1544.41 25.525 1546.49 27.25 1546.49 30.7C1546.49 32.2 1545.91 33.4 1544.76 34.3C1543.61 35.15 1542.26 35.575 1540.71 35.575C1536.66 35.575 1534.64 34.1 1534.64 31.15C1534.64 29.4 1535.51 28.275 1537.26 27.775C1536.01 27.875 1534.89 28.4 1533.89 29.35C1532.89 30.25 1532.39 31.3 1532.39 32.5C1532.39 34.35 1533.41 35.725 1535.46 36.625C1537.01 37.325 1538.84 37.675 1540.94 37.675C1547.34 37.675 1550.54 35.2 1550.54 30.25C1550.54 27.7 1549.34 25.75 1546.94 24.4C1544.94 23.3 1542.56 22.75 1539.81 22.75H1511.84V15.25H1539.44C1544.29 15.25 1548.09 16.9 1550.84 20.2C1553.29 23.25 1554.59 27.275 1554.74 32.275ZM1598.81 33.625C1598.81 40.675 1597.24 45.8 1594.09 49C1593.94 47.35 1592.89 46.525 1590.94 46.525C1590.19 46.525 1589.11 46.95 1587.71 47.8C1586.36 48.6 1585.31 49 1584.56 49C1583.16 49 1582.04 48.225 1581.19 46.675C1580.44 45.375 1580.06 43.975 1580.06 42.475C1580.06 39.675 1581.16 37.9 1583.36 37.15L1589.59 35.65C1591.79 34.65 1592.89 32.4 1592.89 28.9C1592.89 21.35 1589.49 16.8 1582.69 15.25C1583.44 16.3 1583.81 17.45 1583.81 18.7C1583.81 21.35 1582.61 23.35 1580.21 24.7C1578.26 25.85 1575.86 26.425 1573.01 26.425C1571.41 26.425 1569.74 26.075 1567.99 25.375C1565.74 27.325 1564.61 29.225 1564.61 31.075C1564.61 33.875 1565.59 35.7 1567.54 36.55C1568.79 36.8 1570.64 37.225 1573.09 37.825C1575.09 38.375 1576.09 39.8 1576.09 42.1C1576.09 44.2 1575.99 45.475 1575.79 45.925C1575.64 46.375 1574.81 47.4 1573.31 49C1573.11 47.35 1572.19 46.525 1570.54 46.525C1569.84 46.525 1568.89 46.95 1567.69 47.8C1566.49 48.6 1565.54 49 1564.84 49C1562.09 49 1560.11 47.2 1558.91 43.6C1558.11 41.2 1557.71 38.25 1557.71 34.75C1557.71 32.4 1558.39 30.275 1559.74 28.375C1561.14 26.425 1562.94 24.95 1565.14 23.95C1563.69 22.85 1562.96 21.1 1562.96 18.7C1562.96 16 1564.64 13.95 1567.99 12.55C1570.54 11.5 1573.39 10.975 1576.54 10.975C1583.39 10.975 1588.81 13.05 1592.81 17.2C1596.81 21.3 1598.81 26.775 1598.81 33.625ZM1579.91 18.925C1579.91 17.875 1579.49 17 1578.64 16.3C1577.84 15.6 1576.91 15.25 1575.86 15.25C1574.66 15.25 1573.59 15.6 1572.64 16.3C1571.69 17 1571.21 17.925 1571.21 19.075C1571.21 20.225 1571.66 21.125 1572.56 21.775C1573.46 22.425 1574.51 22.75 1575.71 22.75C1576.76 22.75 1577.71 22.375 1578.56 21.625C1579.46 20.875 1579.91 19.975 1579.91 18.925ZM1641.63 4.9C1641.03 4.15 1640.36 3.775 1639.61 3.775C1638.26 3.775 1637.58 4.6 1637.58 6.25C1637.58 7.1 1638.03 8.525 1638.93 10.525C1639.88 12.525 1640.38 14 1640.43 14.95C1640.58 18.7 1638.96 21.15 1635.56 22.3C1636.76 23.05 1637.81 24.175 1638.71 25.675C1640.16 28.125 1640.88 30.875 1640.88 33.925C1640.88 41.175 1638.41 46.2 1633.46 49C1632.76 46.35 1631.01 45.025 1628.21 45.025C1626.66 45.025 1624.46 45.7 1621.61 47.05C1618.81 48.35 1616.63 49 1615.08 49C1611.08 49 1608.06 47.425 1606.01 44.275C1604.21 41.575 1603.31 38.125 1603.31 33.925C1603.31 31.525 1603.83 29.3 1604.88 27.25C1605.98 25.15 1607.56 23.65 1609.61 22.75H1605.48C1603.38 22.75 1602.33 23.425 1602.33 24.775C1602.33 25.225 1602.48 25.7 1602.78 26.2L1602.56 26.425C1601.61 25.325 1601.13 23.975 1601.13 22.375C1601.13 21.725 1601.38 20.775 1601.88 19.525C1602.38 18.225 1602.63 17.25 1602.63 16.6C1602.63 15.65 1602.23 14.625 1601.43 13.525L1601.66 13.225C1602.61 14.575 1603.76 15.25 1605.11 15.25H1632.48C1634.88 15.25 1636.08 14.375 1636.08 12.625C1636.08 11.975 1635.33 10.7 1633.83 8.8C1632.33 6.9 1631.71 5.25 1631.96 3.85C1632.16 2.7 1632.76 1.85 1633.76 1.3C1634.76 0.749998 1635.86 0.524998 1637.06 0.624997C1639.71 0.824997 1641.23 2.25 1641.63 4.9ZM1633.46 30.25C1633.46 27.55 1632.16 25.55 1629.56 24.25C1627.61 23.25 1625.13 22.75 1622.13 22.75C1614.68 22.75 1610.96 25.25 1610.96 30.25C1610.96 35.2 1614.68 37.675 1622.13 37.675C1629.68 37.675 1633.46 35.2 1633.46 30.25ZM1661.62 32.425C1661.62 40.275 1659.97 45.8 1656.67 49C1656.47 47.1 1655.25 46.15 1653 46.15C1652.25 46.15 1651.15 46.625 1649.7 47.575C1648.25 48.525 1647.15 49 1646.4 49C1643.25 49 1640.95 47.375 1639.5 44.125C1638.4 41.725 1637.85 38.725 1637.85 35.125L1640.1 31.6C1639.95 35.65 1643.17 37.675 1649.77 37.675C1652.27 37.675 1654.32 37.075 1655.92 35.875C1657.72 34.525 1658.62 32.65 1658.62 30.25C1658.62 25.2 1655.47 22.675 1649.17 22.675C1646.47 22.675 1645.12 23.35 1645.12 24.7L1645.5 26.2L1645.27 26.425C1644.32 25.275 1643.85 23.925 1643.85 22.375C1643.85 21.725 1644.1 20.775 1644.6 19.525C1645.1 18.225 1645.35 17.25 1645.35 16.6C1645.35 15.65 1644.95 14.625 1644.15 13.525L1644.37 13.225C1645.77 15.175 1647.57 16.15 1649.77 16.15C1650.22 16.15 1650.9 16.025 1651.8 15.775C1652.75 15.475 1653.45 15.325 1653.9 15.325C1656.9 15.325 1659.05 17.6 1660.35 22.15C1661.2 25.1 1661.62 28.525 1661.62 32.425ZM1674.92 43.825C1674.92 45.125 1674.37 46.325 1673.27 47.425C1672.22 48.475 1671.05 49 1669.75 49C1668.4 49 1667.2 48.525 1666.15 47.575C1665.15 46.625 1664.65 45.475 1664.65 44.125C1664.65 42.775 1665.2 41.625 1666.3 40.675C1667.4 39.725 1668.62 39.25 1669.97 39.25C1671.22 39.25 1672.35 39.7 1673.35 40.6C1674.4 41.5 1674.92 42.575 1674.92 43.825Z" fill="black"/>
</svg>
