<svg width="1462" height="72" viewBox="0 0 1462 72" fill="none" xmlns="http://www.w3.org/2000/svg">
<path d="M35.175 30.825C35.175 35.175 34.075 39 31.875 42.3C29.375 46.1 26.05 48 21.9 48C16.95 48 13.425 45.5 11.325 40.5C10.475 41.45 9.175 42.85 7.425 44.7C5.425 46.8 3.975 47.9 3.075 48L1.725 47.4C1.375 46.6 1.175 45.25 1.125 43.35C1.075 42.3 1.1 40.4 1.2 37.65L1.35 33.225C0.45 31.775 0 30.45 0 29.25C0 26.55 1.175 25.2 3.525 25.2C4.675 25.2 5.625 25.6 6.375 26.4C7.175 27.15 7.575 28.1 7.575 29.25C7.575 30.15 6.975 31.475 5.775 33.225V39.825C6.525 39.025 7.625 37.85 9.075 36.3C10.775 34.55 12 33.675 12.75 33.675C13.5 33.675 14.125 34.525 14.625 36.225C15.325 38.675 15.95 40.275 16.5 41.025C17.7 42.725 19.5 43.575 21.9 43.575C24.85 43.575 27.15 42.125 28.8 39.225C30.15 36.875 30.825 34.075 30.825 30.825C30.825 27.325 29.15 24.025 25.8 20.925C22.5 17.825 19.075 16.275 15.525 16.275C15.075 16.275 14.275 16.6 13.125 17.25C11.975 17.9 11.3 18.225 11.1 18.225C9.9 18.225 8.875 17.75 8.025 16.8C7.225 15.85 6.825 14.775 6.825 13.575C6.825 11.125 8.175 9.9 10.875 9.9C11.475 9.9 12.25 10.1 13.2 10.5C14.35 10.95 15.125 11.225 15.525 11.325C20.825 12.325 25.3 14.45 28.95 17.7C33.1 21.4 35.175 25.775 35.175 30.825ZM73.4092 31.125C73.4092 35.825 71.7842 39.825 68.5342 43.125C65.2842 46.375 61.3092 48 56.6092 48C46.5092 48 40.9592 41.975 39.9592 29.925C39.8592 28.675 39.8092 23.975 39.8092 15.825C38.7092 14.325 38.1592 13.025 38.1592 11.925C38.1592 10.975 38.6092 10.225 39.5092 9.675C40.2592 9.175 41.1342 8.925 42.1342 8.925C43.1342 8.925 44.0842 9.2 44.9842 9.75C45.8842 10.25 46.3342 10.975 46.3342 11.925C46.3342 13.025 45.6342 14.325 44.2342 15.825V31.125C44.2342 34.625 45.4092 37.6 47.7592 40.05C50.1592 42.45 53.1092 43.65 56.6092 43.65C60.1092 43.65 63.0592 42.45 65.4592 40.05C67.8592 37.6 69.0592 34.625 69.0592 31.125C69.0592 22.975 64.9092 18.825 56.6092 18.675C55.3592 19.775 54.2092 20.325 53.1592 20.325C51.1592 20.325 50.1592 18.9 50.1592 16.05C50.1592 13.5 51.0342 12.225 52.7842 12.225C53.7842 12.225 55.0092 12.875 56.4592 14.175H64.4092V15.675C70.4092 18.075 73.4092 23.225 73.4092 31.125ZM97.6916 30.45C97.6916 42.15 94.0166 48 86.6666 48C83.4666 48 80.8916 46.35 78.9416 43.05C77.2916 40.3 76.4666 37.2 76.4666 33.75C76.4666 31.2 76.9916 29.05 78.0416 27.3C79.2916 25.2 81.0916 24.15 83.4416 24.15C85.3916 24.15 87.0916 24.875 88.5416 26.325C89.9916 27.775 90.7166 29.475 90.7166 31.425C90.7166 32.725 90.3916 33.975 89.7416 35.175L89.9666 36.825L89.4416 38.175L88.0166 38.7C87.0666 38.7 86.0416 38.35 84.9416 37.65C83.8416 36.9 83.2916 36.1 83.2916 35.25C83.2916 34.3 84.1666 33.475 85.9166 32.775L86.3666 31.35C86.3666 30.6 86.0666 29.95 85.4666 29.4C84.8666 28.85 84.1916 28.575 83.4416 28.575C81.5916 28.575 80.6666 29.925 80.6666 32.625C80.6666 35.025 81.0916 37.275 81.9416 39.375C83.0916 42.175 84.6666 43.575 86.6666 43.575C91.1166 43.575 93.3416 39.25 93.3416 30.6C93.3416 27.5 92.7416 24.85 91.5416 22.65C90.0916 19.9 87.9416 18.525 85.0916 18.525H62.2166C60.7166 18.525 59.9666 17.8 59.9666 16.35C59.9666 15.8 60.1916 15.3 60.6416 14.85C61.0916 14.4 61.5916 14.175 62.1416 14.175H85.0166C88.9666 14.175 92.1416 15.95 94.5416 19.5C96.6416 22.65 97.6916 26.3 97.6916 30.45ZM98.233 59.1C98.233 60.9 97.833 62.55 97.033 64.05C97.233 64.7 97.333 65.175 97.333 65.475C97.333 67.025 96.283 67.8 94.183 67.8C93.333 67.8 92.483 67.55 91.633 67.05C90.783 66.6 90.358 65.975 90.358 65.175C90.358 64.275 91.283 63.275 93.133 62.175C93.533 61.275 93.733 60.4 93.733 59.55C93.733 58.3 93.333 57.225 92.533 56.325C91.683 55.425 90.633 54.975 89.383 54.975C87.633 54.975 85.833 56.025 83.983 58.125C82.083 60.275 81.008 61.35 80.758 61.35C80.208 61.35 79.583 60.875 78.883 59.925C77.883 58.575 77.108 57.675 76.558 57.225C75.358 56.225 74.008 55.725 72.508 55.725C71.258 55.725 70.208 56.1 69.358 56.85C68.458 57.6 68.008 58.575 68.008 59.775C68.008 60.275 68.133 60.925 68.383 61.725C69.833 62.825 70.558 63.9 70.558 64.95C70.558 65.85 70.133 66.55 69.283 67.05C68.383 67.6 67.458 67.875 66.508 67.875C64.708 67.875 63.808 67 63.808 65.25C63.808 64.75 63.958 64.125 64.258 63.375C63.808 61.725 63.583 60.5 63.583 59.7C63.583 57.2 64.458 55.1 66.208 53.4C67.958 51.75 70.083 50.925 72.583 50.925C75.633 50.925 78.333 52.3 80.683 55.05C83.583 51.35 86.683 49.5 89.983 49.5C92.433 49.5 94.458 50.5 96.058 52.5C97.508 54.4 98.233 56.6 98.233 59.1ZM136.556 16.05C136.556 17.1 136.331 18.025 135.881 18.825C135.331 19.825 134.581 20.325 133.631 20.325C132.631 20.325 131.606 19.725 130.556 18.525H124.181C131.881 22.975 135.731 28.875 135.731 36.225C135.731 39.775 134.431 42.625 131.831 44.775C129.281 46.925 126.181 48 122.531 48C117.981 48 114.781 45.325 112.931 39.975C111.981 40.975 110.581 42.475 108.731 44.475C106.531 46.775 104.956 47.925 104.006 47.925C102.806 47.925 102.206 47.175 102.206 45.675C102.206 45.375 104.231 36.325 108.281 18.525H105.806C105.106 19.475 104.281 19.95 103.331 19.95C102.481 19.95 101.831 19.5 101.381 18.6C100.981 17.85 100.781 17.025 100.781 16.125C100.781 14.175 101.531 13.2 103.031 13.2C103.381 13.2 103.906 13.375 104.606 13.725C105.356 14.025 105.756 14.175 105.806 14.175H130.556C131.806 13.275 132.981 12.825 134.081 12.825C135.731 12.825 136.556 13.9 136.556 16.05ZM131.381 36.225C131.381 31.475 129.381 27.425 125.381 24.075C121.781 21.025 117.506 19.225 112.556 18.675L108.281 38.4C109.031 37.6 110.056 36.525 111.356 35.175C112.906 33.575 114.056 32.775 114.806 32.775C115.656 32.775 116.256 33.675 116.606 35.475C117.106 38.075 117.581 39.75 118.031 40.5C119.031 42.3 120.731 43.2 123.131 43.2C125.481 43.2 127.431 42.6 128.981 41.4C130.581 40.2 131.381 38.475 131.381 36.225ZM175.246 16.05C175.246 17.1 175.021 18.025 174.571 18.825C174.021 19.825 173.271 20.325 172.321 20.325C171.321 20.325 170.296 19.725 169.246 18.525H167.296C171.196 21.375 173.146 25.525 173.146 30.975C173.146 35.675 171.521 39.725 168.271 43.125C165.021 46.475 161.046 48.15 156.346 48.15C151.596 48.15 147.596 46.5 144.346 43.2C141.096 39.85 139.471 35.775 139.471 30.975C139.471 25.875 141.696 21.725 146.146 18.525H143.671C142.421 19.075 141.546 19.35 141.046 19.35C139.496 19.35 138.721 18.475 138.721 16.725C138.721 15.825 138.971 15.025 139.471 14.325C139.971 13.625 140.646 13.275 141.496 13.275C142.146 13.275 142.871 13.575 143.671 14.175H169.246C170.496 13.275 171.671 12.825 172.771 12.825C174.421 12.825 175.246 13.9 175.246 16.05ZM168.796 30.975C168.796 27.525 167.571 24.6 165.121 22.2C162.721 19.75 159.796 18.525 156.346 18.525C152.846 18.525 149.871 19.725 147.421 22.125C145.021 24.525 143.821 27.475 143.821 30.975C143.821 34.625 144.996 37.675 147.346 40.125C149.746 42.525 152.746 43.725 156.346 43.725C159.846 43.725 162.796 42.5 165.196 40.05C167.596 37.55 168.796 34.525 168.796 30.975ZM208.772 31.2C208.772 35.6 207.597 39.4 205.247 42.6C202.647 46.2 199.222 48 194.972 48C191.972 48 189.547 46.7 187.697 44.1C185.997 41.8 185.147 39.1 185.147 36C185.147 33.55 185.947 31.275 187.547 29.175C189.247 26.875 191.297 25.725 193.697 25.725C195.647 25.725 197.297 26.5 198.647 28.05C199.997 29.55 200.672 31.275 200.672 33.225C200.672 33.875 200.597 34.5 200.447 35.1C200.747 35.9 200.897 36.5 200.897 36.9C200.897 38.45 199.822 39.225 197.672 39.225C195.322 39.225 194.147 38.475 194.147 36.975C194.147 36.025 194.847 35 196.247 33.9L196.322 33.45C196.322 32.5 195.922 31.725 195.122 31.125C194.322 30.475 193.447 30.15 192.497 30.15C191.447 30.15 190.647 30.95 190.097 32.55C189.647 33.8 189.422 35.05 189.422 36.3C189.422 38.15 189.872 39.775 190.772 41.175C191.822 42.775 193.222 43.575 194.972 43.575C197.972 43.575 200.347 42.2 202.097 39.45C203.597 37.1 204.347 34.35 204.347 31.2C204.347 27.9 203.622 25.075 202.172 22.725C200.472 19.975 198.072 18.6 194.972 18.6C190.422 18.6 186.897 21.175 184.397 26.325C183.097 29.025 181.772 33.8 180.422 40.65C179.422 45.8 178.372 48.375 177.272 48.375C176.272 48.375 174.547 46.3 172.097 42.15C169.797 38.3 168.647 35.975 168.647 35.175C168.647 34.025 169.447 33.275 171.047 32.925C172.047 33.175 173.047 34.175 174.047 35.925C174.497 36.775 175.197 38.075 176.147 39.825C177.847 32.475 179.697 26.975 181.697 23.325C185.047 17.225 189.472 14.175 194.972 14.175C199.422 14.175 202.922 15.95 205.472 19.5C207.672 22.65 208.772 26.55 208.772 31.2ZM277.483 50.475C277.483 51.625 277.133 52.55 276.433 53.25C275.733 54 274.808 54.375 273.658 54.375C271.358 54.375 270.208 53.325 270.208 51.225C270.208 50.675 270.458 49.875 270.958 48.825C271.508 47.775 271.783 47 271.783 46.5C271.783 45.7 271.408 44.6 270.658 43.2C267.758 46.4 263.808 48 258.808 48C255.658 48 252.908 47.475 250.558 46.425C247.458 45.025 245.908 42.95 245.908 40.2C245.908 37.35 247.508 35.2 250.708 33.75C253.108 32.7 255.958 32.175 259.258 32.175C263.758 32.175 267.408 33.475 270.208 36.075C271.258 34.175 271.783 32.35 271.783 30.6C271.783 27.55 271.058 24.875 269.608 22.575C267.908 19.825 265.633 18.45 262.783 18.45C260.333 18.45 258.408 19.275 257.008 20.925C256.208 21.875 255.433 23.4 254.683 25.5C254.083 27.15 253.483 27.975 252.883 27.975C252.133 27.975 251.033 27.15 249.583 25.5C249.433 25.35 248.558 24.275 246.958 22.275V25.2C246.958 25.6 247.083 26.275 247.333 27.225C247.633 28.125 247.783 28.8 247.783 29.25C247.783 29.8 247.408 30.25 246.658 30.6C245.958 30.9 245.283 31.05 244.633 31.05C242.433 31.05 241.333 29.95 241.333 27.75C241.333 26.8 241.733 25.675 242.533 24.375C242.533 23.775 242.458 22.9 242.308 21.75C242.208 20.55 242.158 19.65 242.158 19.05C242.158 15.6 242.883 13.875 244.333 13.875C245.183 13.875 246.508 14.925 248.308 17.025C248.508 17.225 249.633 18.6 251.683 21.15C253.983 16.5 257.583 14.175 262.483 14.175C266.683 14.175 270.083 15.975 272.683 19.575C274.983 22.825 276.133 26.625 276.133 30.975C276.133 34.525 275.333 37.45 273.733 39.75C274.183 40.4 274.908 42.2 275.908 45.15C276.958 48.05 277.483 49.825 277.483 50.475ZM268.258 39.75C266.258 37.65 263.258 36.6 259.258 36.6C253.708 36.6 250.933 37.675 250.933 39.825C250.933 42.325 253.858 43.575 259.708 43.575C263.558 43.575 266.408 42.3 268.258 39.75ZM317.043 16.05C317.043 17.1 316.818 18.025 316.368 18.825C315.818 19.825 315.068 20.325 314.118 20.325C313.118 20.325 312.093 19.725 311.043 18.525H309.093C312.993 21.375 314.943 25.525 314.943 30.975C314.943 35.675 313.318 39.725 310.068 43.125C306.818 46.475 302.843 48.15 298.143 48.15C293.393 48.15 289.393 46.5 286.143 43.2C282.893 39.85 281.268 35.775 281.268 30.975C281.268 25.875 283.493 21.725 287.943 18.525H285.468C284.218 19.075 283.343 19.35 282.843 19.35C281.293 19.35 280.518 18.475 280.518 16.725C280.518 15.825 280.768 15.025 281.268 14.325C281.768 13.625 282.443 13.275 283.293 13.275C283.943 13.275 284.668 13.575 285.468 14.175H311.043C312.293 13.275 313.468 12.825 314.568 12.825C316.218 12.825 317.043 13.9 317.043 16.05ZM310.593 30.975C310.593 27.525 309.368 24.6 306.918 22.2C304.518 19.75 301.593 18.525 298.143 18.525C294.643 18.525 291.668 19.725 289.218 22.125C286.818 24.525 285.618 27.475 285.618 30.975C285.618 34.625 286.793 37.675 289.143 40.125C291.543 42.525 294.543 43.725 298.143 43.725C301.643 43.725 304.593 42.5 306.993 40.05C309.393 37.55 310.593 34.525 310.593 30.975ZM342.094 31.05C342.094 35.9 340.594 39.95 337.594 43.2C334.594 46.4 330.694 48 325.894 48C321.744 48 318.144 46.175 315.094 42.525C312.144 39.075 310.669 35.25 310.669 31.05C310.669 29.6 311.394 28.875 312.844 28.875C314.344 28.875 315.094 29.6 315.094 31.05C315.094 34.2 316.169 37.05 318.319 39.6C320.569 42.3 323.219 43.65 326.269 43.65C329.769 43.65 332.569 42.4 334.669 39.9C336.669 37.55 337.669 34.6 337.669 31.05C337.669 27.65 336.869 24.8 335.269 22.5C333.469 19.85 330.944 18.525 327.694 18.525C326.294 19.825 325.094 20.475 324.094 20.475C322.494 20.475 321.694 19.225 321.694 16.725C321.694 13.875 322.594 12.45 324.394 12.45C325.494 12.45 326.594 13.025 327.694 14.175C332.094 14.175 335.644 15.925 338.344 19.425C340.844 22.625 342.094 26.5 342.094 31.05ZM409.882 30.825C409.882 35.175 408.782 39 406.582 42.3C404.082 46.1 400.757 48 396.607 48C391.657 48 388.132 45.5 386.032 40.5C385.182 41.45 383.882 42.85 382.132 44.7C380.132 46.8 378.682 47.9 377.782 48L376.432 47.4C376.082 46.6 375.882 45.25 375.832 43.35C375.782 42.3 375.807 40.4 375.907 37.65L376.057 33.225C375.157 31.775 374.707 30.45 374.707 29.25C374.707 26.55 375.882 25.2 378.232 25.2C379.382 25.2 380.332 25.6 381.082 26.4C381.882 27.15 382.282 28.1 382.282 29.25C382.282 30.15 381.682 31.475 380.482 33.225V39.825C381.232 39.025 382.332 37.85 383.782 36.3C385.482 34.55 386.707 33.675 387.457 33.675C388.207 33.675 388.832 34.525 389.332 36.225C390.032 38.675 390.657 40.275 391.207 41.025C392.407 42.725 394.207 43.575 396.607 43.575C399.557 43.575 401.857 42.125 403.507 39.225C404.857 36.875 405.532 34.075 405.532 30.825C405.532 27.325 403.857 24.025 400.507 20.925C397.207 17.825 393.782 16.275 390.232 16.275C389.782 16.275 388.982 16.6 387.832 17.25C386.682 17.9 386.007 18.225 385.807 18.225C384.607 18.225 383.582 17.75 382.732 16.8C381.932 15.85 381.532 14.775 381.532 13.575C381.532 11.125 382.882 9.9 385.582 9.9C386.182 9.9 386.957 10.1 387.907 10.5C389.057 10.95 389.832 11.225 390.232 11.325C395.532 12.325 400.007 14.45 403.657 17.7C407.807 21.4 409.882 25.775 409.882 30.825ZM446.541 30.825C446.541 35.575 444.916 39.625 441.666 42.975C438.416 46.325 434.416 48 429.666 48C424.916 48 420.916 46.325 417.666 42.975C414.466 39.625 412.866 35.575 412.866 30.825C412.866 26.925 413.841 23.45 415.791 20.4C417.441 17.9 420.016 15.325 423.516 12.675C424.316 10.475 425.616 9.375 427.416 9.375C428.216 9.375 428.891 9.65 429.441 10.2C430.041 10.75 430.341 11.425 430.341 12.225C430.341 12.825 429.191 13.95 426.891 15.6C424.041 17.65 421.941 19.525 420.591 21.225C418.341 24.075 417.216 27.275 417.216 30.825C417.216 34.425 418.391 37.45 420.741 39.9C423.141 42.35 426.116 43.575 429.666 43.575C433.166 43.575 436.116 42.35 438.516 39.9C440.966 37.4 442.191 34.375 442.191 30.825C442.191 27.575 441.466 24.8 440.016 22.5C438.316 19.75 435.941 18.375 432.891 18.375C431.141 18.375 429.491 18.95 427.941 20.1C426.241 21.35 425.391 22.825 425.391 24.525C425.391 24.875 425.716 25.5 426.366 26.4C427.016 27.3 427.341 27.975 427.341 28.425C427.341 29.275 426.966 29.975 426.216 30.525C425.466 31.025 424.641 31.275 423.741 31.275C421.691 31.275 420.666 30.375 420.666 28.575C420.666 28.125 420.741 27.5 420.891 26.7C421.091 25.85 421.191 25.2 421.191 24.75C421.191 21.85 422.416 19.325 424.866 17.175C427.316 15.025 429.991 13.95 432.891 13.95C437.141 13.95 440.541 15.75 443.091 19.35C445.391 22.55 446.541 26.375 446.541 30.825ZM487.961 24.825C487.961 26.325 487.236 27.075 485.786 27.075C485.236 27.075 484.586 26.95 483.836 26.7L481.136 27.9C483.436 31.35 484.586 34.275 484.586 36.675C484.586 44.125 478.986 47.85 467.786 47.85C463.286 47.85 459.336 46.175 455.936 42.825C452.586 39.475 450.886 35.55 450.836 31.05C450.086 29.85 449.711 28.7 449.711 27.6C449.711 26.55 450.111 25.7 450.911 25.05C451.761 24.4 452.736 24.075 453.836 24.075C456.036 24.075 457.136 24.975 457.136 26.775C457.136 27.975 456.486 29.4 455.186 31.05C455.186 34.6 456.561 37.575 459.311 39.975C461.911 42.275 465.011 43.425 468.611 43.425C472.261 43.425 474.836 43.15 476.336 42.6C478.936 41.65 480.236 39.675 480.236 36.675C480.236 34.975 479.136 32.575 476.936 29.475L470.711 31.575C469.611 33.525 468.511 34.5 467.411 34.5C466.511 34.5 465.811 34 465.311 33C464.861 32.15 464.636 31.225 464.636 30.225C464.636 28.725 465.061 27.85 465.911 27.6C466.061 27.55 467.086 27.525 468.986 27.525C469.786 27.525 471.686 26.975 474.686 25.875C470.336 20.975 466.136 18.525 462.086 18.525H454.211C453.511 19.475 452.811 19.95 452.111 19.95C451.311 19.95 450.661 19.45 450.161 18.45C449.761 17.65 449.561 16.775 449.561 15.825C449.561 14.075 450.236 13.2 451.586 13.2C452.636 13.2 453.636 13.525 454.586 14.175H478.436L478.511 18.525H473.186C474.036 19.075 475.886 21.05 478.736 24.45C478.986 24.35 480.036 23.675 481.886 22.425C483.586 21.275 484.611 20.7 484.961 20.7C485.861 20.7 486.586 21.15 487.136 22.05C487.686 22.95 487.961 23.875 487.961 24.825ZM512.242 30.45C512.242 42.15 508.567 48 501.217 48C498.017 48 495.442 46.35 493.492 43.05C491.842 40.3 491.017 37.2 491.017 33.75C491.017 31.2 491.542 29.05 492.592 27.3C493.842 25.2 495.642 24.15 497.992 24.15C499.942 24.15 501.642 24.875 503.092 26.325C504.542 27.775 505.267 29.475 505.267 31.425C505.267 32.725 504.942 33.975 504.292 35.175L504.517 36.825L503.992 38.175L502.567 38.7C501.617 38.7 500.592 38.35 499.492 37.65C498.392 36.9 497.842 36.1 497.842 35.25C497.842 34.3 498.717 33.475 500.467 32.775L500.917 31.35C500.917 30.6 500.617 29.95 500.017 29.4C499.417 28.85 498.742 28.575 497.992 28.575C496.142 28.575 495.217 29.925 495.217 32.625C495.217 35.025 495.642 37.275 496.492 39.375C497.642 42.175 499.217 43.575 501.217 43.575C505.667 43.575 507.892 39.25 507.892 30.6C507.892 27.5 507.292 24.85 506.092 22.65C504.642 19.9 502.492 18.525 499.642 18.525H476.767C475.267 18.525 474.517 17.8 474.517 16.35C474.517 15.8 474.742 15.3 475.192 14.85C475.642 14.4 476.142 14.175 476.692 14.175H499.567C503.517 14.175 506.692 15.95 509.092 19.5C511.192 22.65 512.242 26.3 512.242 30.45ZM551.034 16.05C551.034 17.1 550.809 18.025 550.359 18.825C549.809 19.825 549.059 20.325 548.109 20.325C547.109 20.325 546.084 19.725 545.034 18.525H538.659C546.359 22.975 550.209 28.875 550.209 36.225C550.209 39.775 548.909 42.625 546.309 44.775C543.759 46.925 540.659 48 537.009 48C532.459 48 529.259 45.325 527.409 39.975C526.459 40.975 525.059 42.475 523.209 44.475C521.009 46.775 519.434 47.925 518.484 47.925C517.284 47.925 516.684 47.175 516.684 45.675C516.684 45.375 518.709 36.325 522.759 18.525H520.284C519.584 19.475 518.759 19.95 517.809 19.95C516.959 19.95 516.309 19.5 515.859 18.6C515.459 17.85 515.259 17.025 515.259 16.125C515.259 14.175 516.009 13.2 517.509 13.2C517.859 13.2 518.384 13.375 519.084 13.725C519.834 14.025 520.234 14.175 520.284 14.175H545.034C546.284 13.275 547.459 12.825 548.559 12.825C550.209 12.825 551.034 13.9 551.034 16.05ZM545.859 36.225C545.859 31.475 543.859 27.425 539.859 24.075C536.259 21.025 531.984 19.225 527.034 18.675L522.759 38.4C523.509 37.6 524.534 36.525 525.834 35.175C527.384 33.575 528.534 32.775 529.284 32.775C530.134 32.775 530.734 33.675 531.084 35.475C531.584 38.075 532.059 39.75 532.509 40.5C533.509 42.3 535.209 43.2 537.609 43.2C539.959 43.2 541.909 42.6 543.459 41.4C545.059 40.2 545.859 38.475 545.859 36.225ZM589.723 16.05C589.723 17.1 589.498 18.025 589.048 18.825C588.498 19.825 587.748 20.325 586.798 20.325C585.798 20.325 584.773 19.725 583.723 18.525H581.773C585.673 21.375 587.623 25.525 587.623 30.975C587.623 35.675 585.998 39.725 582.748 43.125C579.498 46.475 575.523 48.15 570.823 48.15C566.073 48.15 562.073 46.5 558.823 43.2C555.573 39.85 553.948 35.775 553.948 30.975C553.948 25.875 556.173 21.725 560.623 18.525H558.148C556.898 19.075 556.023 19.35 555.523 19.35C553.973 19.35 553.198 18.475 553.198 16.725C553.198 15.825 553.448 15.025 553.948 14.325C554.448 13.625 555.123 13.275 555.973 13.275C556.623 13.275 557.348 13.575 558.148 14.175H583.723C584.973 13.275 586.148 12.825 587.248 12.825C588.898 12.825 589.723 13.9 589.723 16.05ZM583.273 30.975C583.273 27.525 582.048 24.6 579.598 22.2C577.198 19.75 574.273 18.525 570.823 18.525C567.323 18.525 564.348 19.725 561.898 22.125C559.498 24.525 558.298 27.475 558.298 30.975C558.298 34.625 559.473 37.675 561.823 40.125C564.223 42.525 567.223 43.725 570.823 43.725C574.323 43.725 577.273 42.5 579.673 40.05C582.073 37.55 583.273 34.525 583.273 30.975ZM614.775 31.05C614.775 35.9 613.275 39.95 610.275 43.2C607.275 46.4 603.375 48 598.575 48C594.425 48 590.825 46.175 587.775 42.525C584.825 39.075 583.35 35.25 583.35 31.05C583.35 29.6 584.075 28.875 585.525 28.875C587.025 28.875 587.775 29.6 587.775 31.05C587.775 34.2 588.85 37.05 591 39.6C593.25 42.3 595.9 43.65 598.95 43.65C602.45 43.65 605.25 42.4 607.35 39.9C609.35 37.55 610.35 34.6 610.35 31.05C610.35 27.65 609.55 24.8 607.95 22.5C606.15 19.85 603.625 18.525 600.375 18.525C598.975 19.825 597.775 20.475 596.775 20.475C595.175 20.475 594.375 19.225 594.375 16.725C594.375 13.875 595.275 12.45 597.075 12.45C598.175 12.45 599.275 13.025 600.375 14.175C604.775 14.175 608.325 15.925 611.025 19.425C613.525 22.625 614.775 26.5 614.775 31.05ZM683.538 50.475C683.538 51.625 683.188 52.55 682.488 53.25C681.788 54 680.863 54.375 679.713 54.375C677.413 54.375 676.263 53.325 676.263 51.225C676.263 50.675 676.513 49.875 677.013 48.825C677.563 47.775 677.838 47 677.838 46.5C677.838 45.7 677.463 44.6 676.713 43.2C673.813 46.4 669.863 48 664.863 48C661.713 48 658.963 47.475 656.613 46.425C653.513 45.025 651.963 42.95 651.963 40.2C651.963 37.35 653.563 35.2 656.763 33.75C659.163 32.7 662.013 32.175 665.313 32.175C669.813 32.175 673.463 33.475 676.263 36.075C677.313 34.175 677.838 32.35 677.838 30.6C677.838 27.55 677.113 24.875 675.663 22.575C673.963 19.825 671.688 18.45 668.838 18.45C666.388 18.45 664.463 19.275 663.063 20.925C662.263 21.875 661.488 23.4 660.738 25.5C660.138 27.15 659.538 27.975 658.938 27.975C658.188 27.975 657.088 27.15 655.638 25.5C655.488 25.35 654.613 24.275 653.013 22.275V25.2C653.013 25.6 653.138 26.275 653.388 27.225C653.688 28.125 653.838 28.8 653.838 29.25C653.838 29.8 653.463 30.25 652.713 30.6C652.013 30.9 651.338 31.05 650.688 31.05C648.488 31.05 647.388 29.95 647.388 27.75C647.388 26.8 647.788 25.675 648.588 24.375C648.588 23.775 648.513 22.9 648.363 21.75C648.263 20.55 648.213 19.65 648.213 19.05C648.213 15.6 648.938 13.875 650.388 13.875C651.238 13.875 652.563 14.925 654.363 17.025C654.563 17.225 655.688 18.6 657.738 21.15C660.038 16.5 663.638 14.175 668.538 14.175C672.738 14.175 676.138 15.975 678.738 19.575C681.038 22.825 682.188 26.625 682.188 30.975C682.188 34.525 681.388 37.45 679.788 39.75C680.238 40.4 680.963 42.2 681.963 45.15C683.013 48.05 683.538 49.825 683.538 50.475ZM674.313 39.75C672.313 37.65 669.313 36.6 665.313 36.6C659.763 36.6 656.988 37.675 656.988 39.825C656.988 42.325 659.913 43.575 665.763 43.575C669.613 43.575 672.463 42.3 674.313 39.75ZM723.097 16.05C723.097 17.1 722.872 18.025 722.422 18.825C721.872 19.825 721.122 20.325 720.172 20.325C719.172 20.325 718.147 19.725 717.097 18.525H715.147C719.047 21.375 720.997 25.525 720.997 30.975C720.997 35.675 719.372 39.725 716.122 43.125C712.872 46.475 708.897 48.15 704.197 48.15C699.447 48.15 695.447 46.5 692.197 43.2C688.947 39.85 687.322 35.775 687.322 30.975C687.322 25.875 689.547 21.725 693.997 18.525H691.522C690.272 19.075 689.397 19.35 688.897 19.35C687.347 19.35 686.572 18.475 686.572 16.725C686.572 15.825 686.822 15.025 687.322 14.325C687.822 13.625 688.497 13.275 689.347 13.275C689.997 13.275 690.722 13.575 691.522 14.175H717.097C718.347 13.275 719.522 12.825 720.622 12.825C722.272 12.825 723.097 13.9 723.097 16.05ZM716.647 30.975C716.647 27.525 715.422 24.6 712.972 22.2C710.572 19.75 707.647 18.525 704.197 18.525C700.697 18.525 697.722 19.725 695.272 22.125C692.872 24.525 691.672 27.475 691.672 30.975C691.672 34.625 692.847 37.675 695.197 40.125C697.597 42.525 700.597 43.725 704.197 43.725C707.697 43.725 710.647 42.5 713.047 40.05C715.447 37.55 716.647 34.525 716.647 30.975ZM748.149 31.05C748.149 35.9 746.649 39.95 743.649 43.2C740.649 46.4 736.749 48 731.949 48C727.799 48 724.199 46.175 721.149 42.525C718.199 39.075 716.724 35.25 716.724 31.05C716.724 29.6 717.449 28.875 718.899 28.875C720.399 28.875 721.149 29.6 721.149 31.05C721.149 34.2 722.224 37.05 724.374 39.6C726.624 42.3 729.274 43.65 732.324 43.65C735.824 43.65 738.624 42.4 740.724 39.9C742.724 37.55 743.724 34.6 743.724 31.05C743.724 27.65 742.924 24.8 741.324 22.5C739.524 19.85 736.999 18.525 733.749 18.525C732.349 19.825 731.149 20.475 730.149 20.475C728.549 20.475 727.749 19.225 727.749 16.725C727.749 13.875 728.649 12.45 730.449 12.45C731.549 12.45 732.649 13.025 733.749 14.175C738.149 14.175 741.699 15.925 744.399 19.425C746.899 22.625 748.149 26.5 748.149 31.05ZM815.937 30.825C815.937 35.175 814.837 39 812.637 42.3C810.137 46.1 806.812 48 802.662 48C797.712 48 794.187 45.5 792.087 40.5C791.237 41.45 789.937 42.85 788.187 44.7C786.187 46.8 784.737 47.9 783.837 48L782.487 47.4C782.137 46.6 781.937 45.25 781.887 43.35C781.837 42.3 781.862 40.4 781.962 37.65L782.112 33.225C781.212 31.775 780.762 30.45 780.762 29.25C780.762 26.55 781.937 25.2 784.287 25.2C785.437 25.2 786.387 25.6 787.137 26.4C787.937 27.15 788.337 28.1 788.337 29.25C788.337 30.15 787.737 31.475 786.537 33.225V39.825C787.287 39.025 788.387 37.85 789.837 36.3C791.537 34.55 792.762 33.675 793.512 33.675C794.262 33.675 794.887 34.525 795.387 36.225C796.087 38.675 796.712 40.275 797.262 41.025C798.462 42.725 800.262 43.575 802.662 43.575C805.612 43.575 807.912 42.125 809.562 39.225C810.912 36.875 811.587 34.075 811.587 30.825C811.587 27.325 809.912 24.025 806.562 20.925C803.262 17.825 799.837 16.275 796.287 16.275C795.837 16.275 795.037 16.6 793.887 17.25C792.737 17.9 792.062 18.225 791.862 18.225C790.662 18.225 789.637 17.75 788.787 16.8C787.987 15.85 787.587 14.775 787.587 13.575C787.587 11.125 788.937 9.9 791.637 9.9C792.237 9.9 793.012 10.1 793.962 10.5C795.112 10.95 795.887 11.225 796.287 11.325C801.587 12.325 806.062 14.45 809.712 17.7C813.862 21.4 815.937 25.775 815.937 30.825ZM852.596 30.825C852.596 35.575 850.971 39.625 847.721 42.975C844.471 46.325 840.471 48 835.721 48C830.971 48 826.971 46.325 823.721 42.975C820.521 39.625 818.921 35.575 818.921 30.825C818.921 26.925 819.896 23.45 821.846 20.4C823.496 17.9 826.071 15.325 829.571 12.675C830.371 10.475 831.671 9.375 833.471 9.375C834.271 9.375 834.946 9.65 835.496 10.2C836.096 10.75 836.396 11.425 836.396 12.225C836.396 12.825 835.246 13.95 832.946 15.6C830.096 17.65 827.996 19.525 826.646 21.225C824.396 24.075 823.271 27.275 823.271 30.825C823.271 34.425 824.446 37.45 826.796 39.9C829.196 42.35 832.171 43.575 835.721 43.575C839.221 43.575 842.171 42.35 844.571 39.9C847.021 37.4 848.246 34.375 848.246 30.825C848.246 27.575 847.521 24.8 846.071 22.5C844.371 19.75 841.996 18.375 838.946 18.375C837.196 18.375 835.546 18.95 833.996 20.1C832.296 21.35 831.446 22.825 831.446 24.525C831.446 24.875 831.771 25.5 832.421 26.4C833.071 27.3 833.396 27.975 833.396 28.425C833.396 29.275 833.021 29.975 832.271 30.525C831.521 31.025 830.696 31.275 829.796 31.275C827.746 31.275 826.721 30.375 826.721 28.575C826.721 28.125 826.796 27.5 826.946 26.7C827.146 25.85 827.246 25.2 827.246 24.75C827.246 21.85 828.471 19.325 830.921 17.175C833.371 15.025 836.046 13.95 838.946 13.95C843.196 13.95 846.596 15.75 849.146 19.35C851.446 22.55 852.596 26.375 852.596 30.825ZM890.565 36.225C890.565 39.775 889.265 42.625 886.665 44.775C884.115 46.925 881.015 48 877.365 48C872.815 48 869.615 45.325 867.765 39.975C866.815 40.975 865.415 42.475 863.565 44.475C861.365 46.775 859.79 47.925 858.84 47.925C857.64 47.925 857.04 47.175 857.04 45.675C857.04 45.375 859.065 36.325 863.115 18.525H860.64C859.94 19.475 859.115 19.95 858.165 19.95C857.315 19.95 856.665 19.5 856.215 18.6C855.815 17.85 855.615 17.025 855.615 16.125C855.615 14.175 856.365 13.2 857.865 13.2C858.215 13.2 858.74 13.375 859.44 13.725C860.19 14.025 860.59 14.175 860.64 14.175H881.49C882.49 14.175 883.215 14.9 883.665 16.35C883.515 17.5 882.965 18.2 882.015 18.45C881.815 18.5 880.815 18.525 879.015 18.525C886.715 22.975 890.565 28.875 890.565 36.225ZM886.215 36.225C886.215 31.475 884.215 27.425 880.215 24.075C876.615 21.025 872.34 19.225 867.39 18.675L863.115 38.4C863.865 37.6 864.89 36.525 866.19 35.175C867.74 33.575 868.89 32.775 869.64 32.775C870.49 32.775 871.09 33.675 871.44 35.475C871.94 38.075 872.415 39.75 872.865 40.5C873.865 42.3 875.565 43.2 877.965 43.2C880.315 43.2 882.265 42.6 883.815 41.4C885.415 40.2 886.215 38.475 886.215 36.225ZM891.905 9C891.905 11.15 891.305 13.2 890.105 15.15C888.705 17.4 887.005 18.525 885.005 18.525H876.38C875.63 16.425 875.255 14.975 875.255 14.175H883.805C885.005 14.175 885.955 13.55 886.655 12.3C887.255 11.3 887.555 10.15 887.555 8.85C887.555 7.7 887.18 6.7 886.43 5.85C885.68 5 884.755 4.575 883.655 4.575C881.755 4.575 880.73 5.425 880.58 7.125C880.73 7.375 880.905 7.5 881.105 7.5C881.455 7.5 881.93 7.4 882.53 7.2C883.13 6.95 883.605 6.825 883.955 6.825C885.605 6.825 886.43 7.775 886.43 9.675C886.43 11.225 885.83 12 884.63 12C884.33 12 883.905 11.85 883.355 11.55C882.705 11.75 882.08 11.85 881.48 11.85C877.93 11.85 876.155 10.275 876.155 7.125C876.155 5.075 877.005 3.375 878.705 2.025C880.305 0.824998 882.155 0.224998 884.255 0.224998C886.555 0.224998 888.405 1.1 889.805 2.85C891.205 4.6 891.905 6.65 891.905 9ZM927.303 30.825C927.303 35.575 925.678 39.625 922.428 42.975C919.178 46.325 915.178 48 910.428 48C905.678 48 901.678 46.325 898.428 42.975C895.228 39.625 893.628 35.575 893.628 30.825C893.628 26.925 894.603 23.45 896.553 20.4C898.203 17.9 900.778 15.325 904.278 12.675C905.078 10.475 906.378 9.375 908.178 9.375C908.978 9.375 909.653 9.65 910.203 10.2C910.803 10.75 911.103 11.425 911.103 12.225C911.103 12.825 909.953 13.95 907.653 15.6C904.803 17.65 902.703 19.525 901.353 21.225C899.103 24.075 897.978 27.275 897.978 30.825C897.978 34.425 899.153 37.45 901.503 39.9C903.903 42.35 906.878 43.575 910.428 43.575C913.928 43.575 916.878 42.35 919.278 39.9C921.728 37.4 922.953 34.375 922.953 30.825C922.953 27.575 922.228 24.8 920.778 22.5C919.078 19.75 916.703 18.375 913.653 18.375C911.903 18.375 910.253 18.95 908.703 20.1C907.003 21.35 906.153 22.825 906.153 24.525C906.153 24.875 906.478 25.5 907.128 26.4C907.778 27.3 908.103 27.975 908.103 28.425C908.103 29.275 907.728 29.975 906.978 30.525C906.228 31.025 905.403 31.275 904.503 31.275C902.453 31.275 901.428 30.375 901.428 28.575C901.428 28.125 901.503 27.5 901.653 26.7C901.853 25.85 901.953 25.2 901.953 24.75C901.953 21.85 903.178 19.325 905.628 17.175C908.078 15.025 910.753 13.95 913.653 13.95C917.903 13.95 921.303 15.75 923.853 19.35C926.153 22.55 927.303 26.375 927.303 30.825ZM964.972 30.15C964.972 31.1 964.922 32.275 964.822 33.675C964.572 37.325 963.172 40.575 960.622 43.425C957.922 46.475 954.797 48 951.247 48C946.147 48 942.747 45.45 941.047 40.35C940.097 41.35 938.647 42.875 936.697 44.925C934.547 47.175 933.022 48.3 932.122 48.3C930.922 48.3 930.322 47.55 930.322 46.05C930.322 43.45 931.022 39.675 932.422 34.725C932.422 34.725 933.522 30.925 935.722 23.325C933.872 22.525 932.947 20.35 932.947 16.8C932.947 13.7 934.597 11.25 937.897 9.45C940.647 7.9 943.697 7.125 947.047 7.125C953.297 7.125 957.972 9.5 961.072 14.25C963.672 18.25 964.972 23.55 964.972 30.15ZM960.472 30.45C960.472 25.6 959.472 21.425 957.472 17.925C955.022 13.675 951.547 11.55 947.047 11.55C944.697 11.55 942.672 11.875 940.972 12.525C938.572 13.425 937.372 14.85 937.372 16.8C937.372 20.5 939.472 22.35 943.672 22.35C944.372 22.35 944.947 22.1 945.397 21.6C945.847 21.1 946.072 20.5 946.072 19.8C946.072 18.95 945.572 18.35 944.572 18C943.822 18.15 943.147 18.225 942.547 18.225C940.947 18.225 940.147 17.625 940.147 16.425C940.147 15.475 940.522 14.575 941.272 13.725C942.022 12.875 942.872 12.45 943.822 12.45C944.722 12.45 945.422 12.9 945.922 13.8C949.022 14.9 950.572 16.75 950.572 19.35C950.572 21.25 949.872 22.95 948.472 24.45C947.122 25.95 945.522 26.7 943.672 26.7C941.722 26.7 940.372 26.175 939.622 25.125L936.397 38.775C937.047 38.025 938.072 36.9 939.472 35.4C940.922 33.9 942.047 33.15 942.847 33.15C943.747 33.15 944.372 34.05 944.722 35.85C945.272 38.45 945.747 40.125 946.147 40.875C947.147 42.675 948.847 43.575 951.247 43.575C953.647 43.575 955.722 42.5 957.472 40.35C959.022 38.45 959.947 36.225 960.247 33.675C960.397 32.425 960.472 31.35 960.472 30.45ZM1004.57 45.675C1004.57 47.375 1003.37 48.225 1000.97 48.225C998.419 48.225 997.144 47.35 997.144 45.6C997.144 44.55 997.619 43.525 998.569 42.525C998.569 37.925 997.544 33.075 995.494 27.975C992.944 21.625 989.744 18.45 985.894 18.45C977.994 18.45 973.944 26.7 973.744 43.2C974.794 44.35 975.319 45.4 975.319 46.35C975.319 47.9 974.169 48.675 971.869 48.675C969.269 48.675 967.969 47.775 967.969 45.975C967.969 45.175 968.369 44.25 969.169 43.2C969.169 31.25 971.444 23 975.994 18.45H974.194C973.194 19.95 972.119 20.7 970.969 20.7C969.419 20.7 968.644 19.325 968.644 16.575C968.644 14.025 969.469 12.75 971.119 12.75C971.919 12.75 972.944 13.225 974.194 14.175H998.494C999.744 13.275 1000.92 12.825 1002.02 12.825C1003.67 12.825 1004.49 13.9 1004.49 16.05C1004.49 17.1 1004.27 18.025 1003.82 18.825C1003.27 19.825 1002.52 20.325 1001.57 20.325C1000.57 20.325 999.544 19.725 998.494 18.525H994.819C997.619 21.225 999.744 24.95 1001.19 29.7C1002.44 33.7 1003.09 37.975 1003.14 42.525C1004.09 43.625 1004.57 44.675 1004.57 45.675ZM1040.22 31.2C1040.22 35.6 1039.04 39.4 1036.69 42.6C1034.09 46.2 1030.67 48 1026.42 48C1023.42 48 1020.99 46.7 1019.14 44.1C1017.44 41.8 1016.59 39.1 1016.59 36C1016.59 33.55 1017.39 31.275 1018.99 29.175C1020.69 26.875 1022.74 25.725 1025.14 25.725C1027.09 25.725 1028.74 26.5 1030.09 28.05C1031.44 29.55 1032.12 31.275 1032.12 33.225C1032.12 33.875 1032.04 34.5 1031.89 35.1C1032.19 35.9 1032.34 36.5 1032.34 36.9C1032.34 38.45 1031.27 39.225 1029.12 39.225C1026.77 39.225 1025.59 38.475 1025.59 36.975C1025.59 36.025 1026.29 35 1027.69 33.9L1027.77 33.45C1027.77 32.5 1027.37 31.725 1026.57 31.125C1025.77 30.475 1024.89 30.15 1023.94 30.15C1022.89 30.15 1022.09 30.95 1021.54 32.55C1021.09 33.8 1020.87 35.05 1020.87 36.3C1020.87 38.15 1021.32 39.775 1022.22 41.175C1023.27 42.775 1024.67 43.575 1026.42 43.575C1029.42 43.575 1031.79 42.2 1033.54 39.45C1035.04 37.1 1035.79 34.35 1035.79 31.2C1035.79 27.9 1035.07 25.075 1033.62 22.725C1031.92 19.975 1029.52 18.6 1026.42 18.6C1021.87 18.6 1018.34 21.175 1015.84 26.325C1014.54 29.025 1013.22 33.8 1011.87 40.65C1010.87 45.8 1009.82 48.375 1008.72 48.375C1007.72 48.375 1005.99 46.3 1003.54 42.15C1001.24 38.3 1000.09 35.975 1000.09 35.175C1000.09 34.025 1000.89 33.275 1002.49 32.925C1003.49 33.175 1004.49 34.175 1005.49 35.925C1005.94 36.775 1006.64 38.075 1007.59 39.825C1009.29 32.475 1011.14 26.975 1013.14 23.325C1016.49 17.225 1020.92 14.175 1026.42 14.175C1030.87 14.175 1034.37 15.95 1036.92 19.5C1039.12 22.65 1040.22 26.55 1040.22 31.2ZM1107.35 31.125C1107.35 35.825 1105.73 39.825 1102.48 43.125C1099.23 46.375 1095.25 48 1090.55 48C1085.7 48 1081.58 46.15 1078.18 42.45L1078.4 50.25C1079.7 51 1080.35 52.125 1080.35 53.625C1080.35 54.625 1079.98 55.5 1079.23 56.25C1078.48 57 1077.6 57.375 1076.6 57.375C1075.55 57.375 1074.65 57 1073.9 56.25C1073.15 55.55 1072.78 54.675 1072.78 53.625C1072.78 51.975 1073.05 50.85 1073.6 50.25L1073.75 31.8L1072.93 29.625L1073.6 28.425L1075.33 27.975C1077.03 27.975 1078.15 28.75 1078.7 30.3L1078.18 31.8C1078.18 35 1079.43 37.775 1081.93 40.125C1084.43 42.475 1087.3 43.65 1090.55 43.65C1094 43.65 1096.95 42.425 1099.4 39.975C1101.85 37.525 1103.08 34.575 1103.08 31.125C1103.08 27.675 1101.88 24.4 1099.48 21.3C1096.88 18 1093.9 16.35 1090.55 16.35C1082.9 16.35 1079.08 17.675 1079.08 20.325C1079.08 22.825 1080.78 24.075 1084.18 24.075C1086.98 24.075 1088.38 22.825 1088.38 20.325C1088.38 20.175 1088.2 19.85 1087.85 19.35C1087.5 18.85 1087.33 18.525 1087.33 18.375C1087.33 17.175 1088.4 16.575 1090.55 16.575C1092.05 16.575 1093.05 17.2 1093.55 18.45C1093 19.45 1092.4 21.1 1091.75 23.4C1091.15 25.5 1090.2 26.9 1088.9 27.6C1087.8 28.2 1086.03 28.5 1083.58 28.5C1081.08 28.5 1079 27.75 1077.35 26.25C1075.7 24.75 1074.88 22.775 1074.88 20.325C1074.88 16.725 1076.75 14.3 1080.5 13.05C1082.6 12.35 1085.95 12 1090.55 12C1095.05 12 1099.03 14.1 1102.48 18.3C1105.73 22.25 1107.35 26.525 1107.35 31.125ZM1128.95 22.8C1128.95 26.15 1127.35 28.85 1124.15 30.9C1121.35 32.75 1118.2 33.675 1114.7 33.675C1114.7 38.775 1115.7 42.3 1117.7 44.25C1118.4 44.95 1120.25 45.85 1123.25 46.95C1125.3 47.7 1126.33 49.15 1126.33 51.3C1126.33 53.65 1125.23 54.825 1123.03 54.825C1121.73 54.825 1120.53 54.25 1119.43 53.1C1118.63 52 1117.8 50.9 1116.95 49.8C1114.3 47.15 1112.53 44.75 1111.63 42.6C1110.78 40.4 1110.35 37.425 1110.35 33.675C1110.35 29.075 1110.88 25.1 1111.93 21.75C1113.53 16.75 1116.15 14.25 1119.8 14.25C1122 14.25 1124.08 15.15 1126.03 16.95C1127.98 18.7 1128.95 20.65 1128.95 22.8ZM1124.6 24.075C1124.6 22.775 1124.28 21.575 1123.63 20.475C1122.83 19.175 1121.83 18.525 1120.63 18.525C1119.38 18.525 1118.28 19.125 1117.33 20.325C1116.43 21.475 1115.88 22.725 1115.68 24.075C1115.38 26.025 1115.2 27.95 1115.15 29.85C1116.8 29.85 1118.7 29.3 1120.85 28.2C1123.35 26.9 1124.6 25.525 1124.6 24.075ZM1198.3 25.65C1198.3 26.5 1198.05 27.275 1197.55 27.975C1197.05 28.675 1196.4 29.025 1195.6 29.025C1195.05 29.025 1194.35 28.75 1193.5 28.2H1188.17C1190.57 29.5 1192.6 31.05 1194.25 32.85C1196.3 35.15 1197.32 37.4 1197.32 39.6C1197.32 42.8 1195.17 45.1 1190.87 46.5C1188.02 47.4 1184.55 47.85 1180.45 47.85C1176.05 47.85 1172.97 47 1171.22 45.3C1169.52 43.6 1168.67 40.575 1168.67 36.225C1168.67 34.275 1169.05 31.6 1169.8 28.2L1166.27 28.125C1165.12 28.875 1164.17 29.25 1163.42 29.25C1162.17 29.25 1161.55 28.425 1161.55 26.775C1161.55 25.825 1161.8 24.975 1162.3 24.225C1162.8 23.475 1163.5 23.1 1164.4 23.1C1164.95 23.1 1165.57 23.325 1166.27 23.775H1170.25C1170.55 22.325 1171.27 20.575 1172.42 18.525H1167.62C1166.72 19.125 1165.92 19.425 1165.22 19.425C1163.62 19.425 1162.82 18.375 1162.82 16.275C1162.82 14.225 1163.62 13.2 1165.22 13.2C1165.92 13.2 1166.72 13.525 1167.62 14.175H1192.07C1193.32 13.275 1194.5 12.825 1195.6 12.825C1197.25 12.825 1198.07 13.9 1198.07 16.05C1198.07 17.1 1197.85 18.025 1197.4 18.825C1196.85 19.825 1196.1 20.325 1195.15 20.325C1194.15 20.325 1193.12 19.725 1192.07 18.525H1176.85C1176.3 19.675 1175.52 21.425 1174.52 23.775H1193.5C1193.75 23.775 1194.15 23.675 1194.7 23.475C1195.25 23.275 1195.67 23.175 1195.97 23.175C1197.52 23.175 1198.3 24 1198.3 25.65ZM1191.85 38.85C1191.85 36.2 1189.6 33.675 1185.1 31.275C1181.15 29.175 1177.62 28.125 1174.52 28.125C1173.57 32.475 1173.1 35.35 1173.1 36.75C1173.1 39.35 1173.7 41.15 1174.9 42.15C1175.95 43.05 1177.8 43.5 1180.45 43.5C1188.05 43.5 1191.85 41.95 1191.85 38.85ZM1237.84 16.05C1237.84 17.1 1237.62 18.025 1237.17 18.825C1236.62 19.825 1235.87 20.325 1234.92 20.325C1233.92 20.325 1232.89 19.725 1231.84 18.525H1230.64C1232.29 19.575 1233.72 21.425 1234.92 24.075C1236.17 26.725 1236.79 29.075 1236.79 31.125C1236.79 35.825 1235.14 39.825 1231.84 43.125C1228.59 46.375 1224.62 48 1219.92 48C1215.12 48 1211.02 46.15 1207.62 42.45V53.025C1208.72 54.525 1209.27 55.875 1209.27 57.075C1209.27 57.975 1208.92 58.675 1208.22 59.175C1207.52 59.725 1206.72 60 1205.82 60C1204.77 60 1203.84 59.675 1203.04 59.025C1202.29 58.425 1201.92 57.625 1201.92 56.625C1201.92 55.525 1202.34 54.325 1203.19 53.025V31.125C1203.19 29.675 1203.92 28.95 1205.37 28.95L1206.94 29.475C1207.74 32.075 1208.52 34.65 1209.27 37.2C1211.22 41.5 1214.77 43.65 1219.92 43.65C1223.42 43.65 1226.37 42.45 1228.77 40.05C1231.22 37.6 1232.44 34.625 1232.44 31.125C1232.44 27.775 1231.19 24.85 1228.69 22.35C1226.19 19.8 1223.27 18.525 1219.92 18.525H1207.32C1206.12 19.825 1205.07 20.475 1204.17 20.475C1203.27 20.475 1202.57 20.025 1202.07 19.125C1201.57 18.225 1201.32 17.3 1201.32 16.35C1201.32 14.1 1202.17 12.975 1203.87 12.975C1204.97 12.975 1206.12 13.375 1207.32 14.175H1231.84C1233.09 13.275 1234.27 12.825 1235.37 12.825C1237.02 12.825 1237.84 13.9 1237.84 16.05ZM1258.75 67.425C1258.75 68.475 1258.52 69.425 1258.07 70.275C1257.52 71.325 1256.77 71.85 1255.82 71.85C1255.17 71.85 1254.37 71.45 1253.42 70.65C1251.82 71.35 1250.32 71.7 1248.92 71.7C1247.12 71.7 1245.5 70.675 1244.05 68.625C1243.5 67.875 1242.3 66.1 1240.45 63.3C1238.75 65.05 1237.32 66.3 1236.17 67.05C1234.57 68.05 1232.8 68.55 1230.85 68.55C1225.75 68.55 1223.2 65.525 1223.2 59.475C1223.2 56.875 1223.72 54.725 1224.77 53.025C1226.02 50.975 1227.9 49.95 1230.4 49.95C1233.6 49.95 1236.95 52.525 1240.45 57.675C1242.85 53.475 1244.05 49.55 1244.05 45.9C1244.05 44.05 1243.57 42.25 1242.62 40.5C1242.07 39.5 1241.2 38.3 1240 36.9C1239.05 35.8 1238.57 35.025 1238.57 34.575C1238.57 33.675 1239.1 32.925 1240.15 32.325C1241.05 31.775 1241.97 31.5 1242.92 31.5L1244.72 32.025C1245.12 32.575 1245.32 33.2 1245.32 33.9C1245.32 34.5 1245.17 35.175 1244.87 35.925C1247.02 39.375 1248.1 42.875 1248.1 46.425C1248.1 49.075 1247.6 51.575 1246.6 53.925C1245.85 55.775 1244.55 58 1242.7 60.6C1243.25 61.6 1244.1 63.075 1245.25 65.025C1246.45 67.025 1247.7 68.025 1249 68.025C1250.1 68.025 1251.42 67.4 1252.97 66.15C1254.52 64.9 1255.72 64.275 1256.57 64.275C1258.02 64.275 1258.75 65.325 1258.75 67.425ZM1238.35 60.6C1237.5 59.35 1236.35 58.025 1234.9 56.625C1233.05 54.775 1231.62 53.85 1230.62 53.85C1228.22 53.85 1227.02 55.875 1227.02 59.925C1227.02 63.375 1228.67 65.1 1231.97 65.1C1233.97 65.1 1236.1 63.6 1238.35 60.6ZM1289.23 25.575C1289.23 27.475 1288.4 28.425 1286.75 28.425C1286.45 28.425 1286 28.325 1285.4 28.125C1284.85 27.875 1284.45 27.75 1284.2 27.75C1284 27.75 1283.58 27.825 1282.93 27.975C1284.73 31.575 1285.63 34.4 1285.63 36.45C1285.63 40 1284.43 42.8 1282.03 44.85C1279.63 46.85 1276.63 47.85 1273.03 47.85C1267.93 47.85 1264.5 45.3 1262.75 40.2C1261.85 41.2 1260.5 42.675 1258.7 44.625C1256.45 46.975 1254.85 48.15 1253.9 48.15C1252.7 48.15 1252.1 47.4 1252.1 45.9C1252.1 45.55 1254.13 36.425 1258.18 18.525H1255.7C1254.55 19.575 1253.65 20.1 1253 20.1C1251.65 20.1 1250.98 18.95 1250.98 16.65C1250.98 14.5 1251.78 13.425 1253.38 13.425C1254.43 13.425 1255.25 13.675 1255.85 14.175H1281.5C1282.75 13.275 1283.93 12.825 1285.03 12.825C1286.68 12.825 1287.5 13.9 1287.5 16.05C1287.5 17.1 1287.28 18.025 1286.83 18.825C1286.28 19.825 1285.53 20.325 1284.58 20.325C1283.58 20.325 1282.55 19.725 1281.5 18.525H1274.53C1277.08 19.975 1279.33 22 1281.28 24.6C1281.63 24.5 1282.58 24 1284.13 23.1C1285.43 22.4 1286.33 22.05 1286.83 22.05C1288.43 22.05 1289.23 23.225 1289.23 25.575ZM1281.28 36.45C1281.28 33.7 1280.53 31.225 1279.03 29.025L1271.83 30.375C1270.78 31.975 1269.73 32.775 1268.68 32.775C1267.08 32.775 1266.28 31.475 1266.28 28.875C1266.28 26.675 1267.08 25.575 1268.68 25.575C1269.33 25.575 1269.98 25.75 1270.63 26.1L1276.33 25.425C1272.53 21.675 1267.9 19.5 1262.45 18.9L1258.18 38.625C1259.33 37.275 1260.3 36.2 1261.1 35.4C1262.65 33.8 1263.83 33 1264.63 33C1265.53 33 1266.15 33.9 1266.5 35.7C1267 38.35 1267.45 40.025 1267.85 40.725C1268.85 42.525 1270.58 43.425 1273.03 43.425C1275.33 43.425 1277.23 42.85 1278.73 41.7C1280.43 40.45 1281.28 38.7 1281.28 36.45ZM1323.8 30.975C1323.8 35.325 1322.7 39.125 1320.5 42.375C1317.95 46.025 1314.6 47.85 1310.45 47.85C1308.1 47.85 1305.92 47.25 1303.92 46.05C1301.92 44.8 1300.4 43.125 1299.35 41.025C1298.6 41.925 1297.5 43.275 1296.05 45.075C1294.35 47.125 1293.05 48.15 1292.15 48.15C1290.55 48.15 1289.75 45.675 1289.75 40.725C1289.75 39.625 1289.82 38 1289.97 35.85C1290.17 33.65 1290.27 32.025 1290.27 30.975C1289.17 29.725 1288.62 28.625 1288.62 27.675C1288.62 26.125 1289.87 25.35 1292.37 25.35C1295.22 25.35 1296.65 26.2 1296.65 27.9C1296.65 28.8 1296 29.825 1294.7 30.975V39.675C1295.3 38.925 1296.25 37.775 1297.55 36.225C1298.9 34.625 1300 33.825 1300.85 33.825C1301.6 33.825 1302.2 34.675 1302.65 36.375C1303.3 38.625 1303.92 40.175 1304.52 41.025C1305.72 42.675 1307.7 43.5 1310.45 43.5C1313.45 43.5 1315.77 42.1 1317.42 39.3C1318.82 36.95 1319.52 34.175 1319.52 30.975C1319.52 27.625 1318.27 24.725 1315.77 22.275C1313.32 19.775 1310.42 18.525 1307.07 18.525H1295.07C1294.02 19.725 1292.97 20.325 1291.92 20.325C1291.02 20.325 1290.3 19.85 1289.75 18.9C1289.3 18.1 1289.07 17.2 1289.07 16.2C1289.07 13.95 1289.92 12.825 1291.62 12.825C1292.57 12.825 1293.72 13.275 1295.07 14.175H1317.72C1318.72 14.175 1319.47 14.9 1319.97 16.35C1319.67 17.75 1318.92 18.475 1317.72 18.525C1321.77 21.725 1323.8 25.875 1323.8 30.975ZM1348.08 30.45C1348.08 42.15 1344.41 48 1337.06 48C1333.86 48 1331.28 46.35 1329.33 43.05C1327.68 40.3 1326.86 37.2 1326.86 33.75C1326.86 31.2 1327.38 29.05 1328.43 27.3C1329.68 25.2 1331.48 24.15 1333.83 24.15C1335.78 24.15 1337.48 24.875 1338.93 26.325C1340.38 27.775 1341.11 29.475 1341.11 31.425C1341.11 32.725 1340.78 33.975 1340.13 35.175L1340.36 36.825L1339.83 38.175L1338.41 38.7C1337.46 38.7 1336.43 38.35 1335.33 37.65C1334.23 36.9 1333.68 36.1 1333.68 35.25C1333.68 34.3 1334.56 33.475 1336.31 32.775L1336.76 31.35C1336.76 30.6 1336.46 29.95 1335.86 29.4C1335.26 28.85 1334.58 28.575 1333.83 28.575C1331.98 28.575 1331.06 29.925 1331.06 32.625C1331.06 35.025 1331.48 37.275 1332.33 39.375C1333.48 42.175 1335.06 43.575 1337.06 43.575C1341.51 43.575 1343.73 39.25 1343.73 30.6C1343.73 27.5 1343.13 24.85 1341.93 22.65C1340.48 19.9 1338.33 18.525 1335.48 18.525H1312.61C1311.11 18.525 1310.36 17.8 1310.36 16.35C1310.36 15.8 1310.58 15.3 1311.03 14.85C1311.48 14.4 1311.98 14.175 1312.53 14.175H1335.41C1339.36 14.175 1342.53 15.95 1344.93 19.5C1347.03 22.65 1348.08 26.3 1348.08 30.45ZM1386.72 45.45C1386.72 47.15 1385.6 48 1383.35 48C1380.75 48 1379.45 47.15 1379.45 45.45C1379.45 44.6 1380.07 43.625 1381.32 42.525C1381.32 37.325 1380.32 31.275 1378.32 24.375C1375.77 15.625 1372.6 11.25 1368.8 11.25C1366.45 11.25 1364.45 11.575 1362.8 12.225C1360.4 13.125 1359.2 14.55 1359.2 16.5C1359.2 20.15 1361.3 21.975 1365.5 21.975C1366.15 21.975 1366.7 21.725 1367.15 21.225C1367.65 20.675 1367.9 20.075 1367.9 19.425C1367.9 18.625 1367.37 18.025 1366.32 17.625C1365.52 17.775 1364.87 17.85 1364.37 17.85C1362.72 17.85 1361.9 17.25 1361.9 16.05C1361.9 15.1 1362.27 14.225 1363.02 13.425C1363.82 12.575 1364.7 12.15 1365.65 12.15C1366.5 12.15 1367.2 12.575 1367.75 13.425C1370.85 14.575 1372.4 16.45 1372.4 19.05C1372.4 20.9 1371.7 22.575 1370.3 24.075C1368.95 25.575 1367.35 26.325 1365.5 26.325C1364.05 26.325 1363.07 26.275 1362.57 26.175C1361.72 26.025 1360.87 25.575 1360.02 24.825C1357.57 29.175 1356.35 35.325 1356.35 43.275C1357.2 44.175 1357.62 45 1357.62 45.75C1357.62 46.45 1357.22 47 1356.42 47.4C1355.67 47.8 1354.92 48 1354.17 48C1353.42 48 1352.72 47.75 1352.07 47.25C1351.42 46.7 1351.1 46.05 1351.1 45.3C1351.1 44.75 1351.4 44.075 1352 43.275C1352 33.825 1353.45 26.725 1356.35 21.975C1355.3 20.225 1354.77 18.4 1354.77 16.5C1354.77 13.45 1356.42 11 1359.72 9.15C1362.47 7.6 1365.5 6.825 1368.8 6.825C1374.6 6.825 1379.05 11.55 1382.15 21C1384.35 27.75 1385.52 34.925 1385.67 42.525C1386.37 43.575 1386.72 44.55 1386.72 45.45ZM1426.22 16.05C1426.22 17.1 1426 18.025 1425.55 18.825C1425 19.825 1424.25 20.325 1423.3 20.325C1422.3 20.325 1421.27 19.725 1420.22 18.525H1418.27C1422.17 21.375 1424.12 25.525 1424.12 30.975C1424.12 35.675 1422.5 39.725 1419.25 43.125C1416 46.475 1412.02 48.15 1407.32 48.15C1402.57 48.15 1398.57 46.5 1395.32 43.2C1392.07 39.85 1390.45 35.775 1390.45 30.975C1390.45 25.875 1392.67 21.725 1397.12 18.525H1394.65C1393.4 19.075 1392.52 19.35 1392.02 19.35C1390.47 19.35 1389.7 18.475 1389.7 16.725C1389.7 15.825 1389.95 15.025 1390.45 14.325C1390.95 13.625 1391.62 13.275 1392.47 13.275C1393.12 13.275 1393.85 13.575 1394.65 14.175H1420.22C1421.47 13.275 1422.65 12.825 1423.75 12.825C1425.4 12.825 1426.22 13.9 1426.22 16.05ZM1419.77 30.975C1419.77 27.525 1418.55 24.6 1416.1 22.2C1413.7 19.75 1410.77 18.525 1407.32 18.525C1403.82 18.525 1400.85 19.725 1398.4 22.125C1396 24.525 1394.8 27.475 1394.8 30.975C1394.8 34.625 1395.97 37.675 1398.32 40.125C1400.72 42.525 1403.72 43.725 1407.32 43.725C1410.82 43.725 1413.77 42.5 1416.17 40.05C1418.57 37.55 1419.77 34.525 1419.77 30.975ZM1451.27 31.05C1451.27 35.9 1449.77 39.95 1446.77 43.2C1443.77 46.4 1439.87 48 1435.07 48C1430.92 48 1427.32 46.175 1424.27 42.525C1421.32 39.075 1419.85 35.25 1419.85 31.05C1419.85 29.6 1420.57 28.875 1422.02 28.875C1423.52 28.875 1424.27 29.6 1424.27 31.05C1424.27 34.2 1425.35 37.05 1427.5 39.6C1429.75 42.3 1432.4 43.65 1435.45 43.65C1438.95 43.65 1441.75 42.4 1443.85 39.9C1445.85 37.55 1446.85 34.6 1446.85 31.05C1446.85 27.65 1446.05 24.8 1444.45 22.5C1442.65 19.85 1440.12 18.525 1436.87 18.525C1435.47 19.825 1434.27 20.475 1433.27 20.475C1431.67 20.475 1430.87 19.225 1430.87 16.725C1430.87 13.875 1431.77 12.45 1433.57 12.45C1434.67 12.45 1435.77 13.025 1436.87 14.175C1441.27 14.175 1444.82 15.925 1447.52 19.425C1450.02 22.625 1451.27 26.5 1451.27 31.05ZM1461.95 45.3C1461.95 46.35 1461.57 47.25 1460.82 48C1460.07 48.75 1459.17 49.125 1458.12 49.125C1457.07 49.125 1456.17 48.75 1455.42 48C1454.67 47.25 1454.3 46.35 1454.3 45.3C1454.3 44.25 1454.67 43.35 1455.42 42.6C1456.17 41.85 1457.07 41.475 1458.12 41.475C1459.22 41.475 1460.12 41.85 1460.82 42.6C1461.57 43.3 1461.95 44.2 1461.95 45.3Z" fill="black"/>
</svg>
