<svg width="1583" height="67" viewBox="0 0 1583 67" fill="none" xmlns="http://www.w3.org/2000/svg">
<path d="M41.25 30C41.25 34.8 40.5 38.35 39 40.65C37.15 43.55 33.95 45 29.4 45C27.05 45 25.375 44.825 24.375 44.475C22.975 43.975 21.75 42.9 20.7 41.25C18.95 43.75 15.975 45 11.775 45C8.225 45 5.375 44 3.225 42C1.075 40 0 37.25 0 33.75C0 26.1 3.325 22.275 9.975 22.275C10.925 22.275 11.925 22.35 12.975 22.5V26.25C10.725 26.2 9.2 26.925 8.4 28.425C7.85 29.475 7.575 31.25 7.575 33.75C7.575 38.75 9.1 41.25 12.15 41.25C14.5 41.25 15.975 39.825 16.575 36.975C16.775 35.975 16.85 33.65 16.8 30H24.6L24.525 34.05C24.425 38.85 26 41.25 29.25 41.25C31.3 41.25 32.625 39.775 33.225 36.825C33.475 35.625 33.6 33.35 33.6 30C33.6 23.7 31.65 19.475 27.75 17.325C24.95 15.775 20.2 15 13.5 15V11.25H20.85C34.45 11.25 41.25 17.5 41.25 30ZM84.7559 28.125C84.7559 33.625 82.6309 37.9 78.3809 40.95C74.6309 43.65 69.9059 45 64.2059 45C58.6059 45 53.8809 43.575 50.0309 40.725C45.6809 37.575 43.5059 33.3 43.5059 27.9C43.5059 16.8 47.8309 11.25 56.4809 11.25C64.2309 11.25 68.1059 14.35 68.1059 20.55C68.1059 24.95 66.4559 27.8 63.1559 29.1C61.3559 29.8 57.7809 30.15 52.4309 30.15V26.25C55.4309 26.3 57.4309 25.975 58.4309 25.275C59.6809 24.375 60.3059 22.5 60.3059 19.65C60.3059 16.55 59.0309 15 56.4809 15C52.8809 15 51.0809 19.175 51.0809 27.525C51.0809 31.825 52.2059 35.2 54.4559 37.65C56.7059 40.05 59.9559 41.25 64.2059 41.25C69.2559 41.25 72.6559 40.3 74.4059 38.4C76.2059 36.5 77.1059 33 77.1059 27.9C77.1059 19.25 74.1059 14.95 68.1059 15V11.25H77.1059V12.9C82.2059 15.3 84.7559 20.375 84.7559 28.125ZM110.037 28.5C109.937 32.95 109.112 36.625 107.562 39.525C105.512 43.175 102.462 45 98.4117 45C90.8117 45 87.0117 41.25 87.0117 33.75C87.0117 30.35 87.9617 27.6 89.8617 25.5C91.7617 23.4 94.3867 22.35 97.7367 22.35C98.4867 22.35 99.2367 22.4 99.9867 22.5V26.25C97.5867 26.25 96.0117 27.125 95.2617 28.875C94.7617 29.975 94.5367 31.825 94.5867 34.425C94.5867 35.925 94.8367 37.325 95.3367 38.625C95.9867 40.375 96.9367 41.25 98.1867 41.25C99.6367 41.25 100.762 39.4 101.562 35.7C102.112 33.1 102.387 30.7 102.387 28.5C102.387 24.4 102.037 21.425 101.337 19.575C100.187 16.525 97.9367 15 94.5867 15H73.3617L73.0617 11.25H98.1867C102.137 11.25 105.212 13.225 107.412 17.175C109.262 20.475 110.137 24.25 110.037 28.5ZM110.03 54.75C110.03 58.15 108.83 60.4 106.43 61.5C104.83 62.25 102.155 62.625 98.4053 62.625V60C100.855 60 102.455 59.75 103.205 59.25C104.205 58.55 104.705 57.05 104.705 54.75C104.705 51.25 103.68 49.5 101.63 49.5C99.9803 49.5 98.9553 50.225 98.5553 51.675C98.4553 52.075 98.4053 53.425 98.4053 55.725H92.9303C92.9303 53.625 92.8303 52.25 92.6303 51.6C92.2303 50.2 91.2053 49.5 89.5553 49.5C87.5053 49.5 86.4803 51.25 86.4803 54.75C86.4803 57.05 87.0053 58.55 88.0553 59.25C88.8053 59.75 90.4303 60 92.9303 60V62.625C89.9803 62.625 88.2053 62.6 87.6053 62.55C85.2053 62.35 83.6053 61.825 82.8053 60.975C81.7053 59.825 81.1553 57.95 81.1553 55.35C81.1553 49.7 83.8303 46.875 89.1803 46.875C91.8803 46.875 94.0303 47.75 95.6303 49.5C97.2303 47.75 99.6053 46.875 102.755 46.875C105.055 46.875 106.855 47.6 108.155 49.05C109.405 50.5 110.03 52.4 110.03 54.75ZM153.679 4.425C153.679 9.075 152.179 12.15 149.179 13.65C148.529 14 147.654 14.275 146.554 14.475C151.254 17.525 153.604 22.75 153.604 30.15C153.604 40.05 149.779 45 142.129 45C138.379 45 135.354 43.75 133.054 41.25C130.754 43.75 127.779 45 124.129 45C116.279 45 112.354 40.05 112.354 30.15C112.354 23.15 114.454 18.1 118.654 15H112.354V11.25H140.554C142.404 11.25 143.654 10.975 144.304 10.425C145.404 9.475 145.954 7.475 145.954 4.425H153.679ZM145.954 30.975C145.954 20.325 141.654 15 133.054 15C124.304 15 119.929 19.825 119.929 29.475C119.929 37.325 121.529 41.25 124.729 41.25C126.729 41.25 128.054 39.8 128.704 36.9C129.054 35.35 129.204 33.1 129.154 30.15H136.954V31.425C136.954 37.975 138.504 41.25 141.604 41.25C144.504 41.25 145.954 37.825 145.954 30.975ZM193.284 28.125C193.284 33.575 191.509 37.8 187.959 40.8C184.609 43.6 180.159 45 174.609 45C168.859 45 164.359 43.65 161.109 40.95C157.609 38.05 155.859 33.775 155.859 28.125C155.859 22.175 157.609 17.8 161.109 15H155.859V11.25H179.559C181.409 11.25 182.659 10.975 183.309 10.425C184.409 9.475 184.959 7.475 184.959 4.425H192.684C192.684 9.075 191.184 12.15 188.184 13.65C187.734 13.9 187.184 14.1 186.534 14.25C191.034 17.05 193.284 21.675 193.284 28.125ZM186.159 28.125C186.159 24.225 185.259 21.125 183.459 18.825C181.509 16.275 178.634 15 174.834 15C167.234 15 163.434 19.375 163.434 28.125C163.434 32.025 164.334 35.125 166.134 37.425C168.134 39.975 171.034 41.25 174.834 41.25C182.384 41.25 186.159 36.875 186.159 28.125ZM232.082 28.5C232.082 32.9 231.257 36.575 229.607 39.525C227.557 43.175 224.507 45 220.457 45C216.857 45 214.057 44.025 212.057 42.075C210.057 40.125 209.057 37.35 209.057 33.75C209.057 30.35 210.007 27.6 211.907 25.5C213.807 23.4 216.432 22.35 219.782 22.35C220.182 22.35 220.932 22.4 222.032 22.5V26.25C218.432 26.2 216.632 28.625 216.632 33.525C216.632 38.675 217.832 41.25 220.232 41.25C221.632 41.25 222.732 39.425 223.532 35.775C224.132 33.075 224.432 30.65 224.432 28.5C224.432 24.95 223.857 22 222.707 19.65C221.207 16.55 218.857 15 215.657 15C208.607 15 205.082 17.375 205.082 22.125C205.082 23.375 205.307 25.275 205.757 27.825C206.207 30.325 206.432 32.2 206.432 33.45C206.432 41.15 202.932 45 195.932 45C188.832 45 185.307 40.25 185.357 30.75H193.157V33.075C193.157 38.525 194.207 41.25 196.307 41.25C198.307 41.25 199.307 39.525 199.307 36.075C199.307 34.525 198.982 32.2 198.332 29.1C197.682 26 197.357 23.675 197.357 22.125C197.357 18.025 199.532 15.05 203.882 13.2C206.932 11.9 210.857 11.25 215.657 11.25C220.657 11.25 224.682 12.875 227.732 16.125C230.632 19.325 232.082 23.45 232.082 28.5ZM314.004 27.9C314.004 32.45 312.629 36.2 309.879 39.15C307.129 42.05 303.454 43.875 298.854 44.625C300.154 46.675 302.704 47.65 306.504 47.55V51.375H304.779C297.279 51.375 292.654 49.25 290.904 45C280.454 44.8 275.229 41.425 275.229 34.875C275.229 29.125 278.904 26.25 286.254 26.25C289.404 26.25 291.729 26.675 293.229 27.525C295.129 28.625 296.279 30.575 296.679 33.375C297.029 35.825 297.329 38.325 297.579 40.875C301.079 40.175 303.504 38.325 304.854 35.325C305.854 33.075 306.354 29.925 306.354 25.875C306.354 22.825 306.179 20.575 305.829 19.125C305.179 16.375 303.779 15 301.629 15C299.779 15 298.529 15.85 297.879 17.55C297.479 18.65 297.304 20.3 297.354 22.5H289.554C289.604 17.5 288.029 15 284.829 15C281.779 15 280.279 17.5 280.329 22.5H272.754C272.754 18.2 273.754 15.2 275.754 13.5C277.604 11.95 280.704 11.175 285.054 11.175C288.304 11.175 291.104 12.45 293.454 15C295.854 12.5 298.754 11.25 302.154 11.25C306.854 11.25 310.129 12.95 311.979 16.35C313.329 18.85 314.004 22.7 314.004 27.9ZM289.854 40.95C289.804 39.55 289.679 37.45 289.479 34.65C289.179 31.65 288.254 30.15 286.704 30.15C284.454 30.15 283.329 31.7 283.329 34.8C283.329 38.05 285.504 40.1 289.854 40.95ZM353.685 28.125C353.685 33.575 351.91 37.8 348.36 40.8C345.01 43.6 340.56 45 335.01 45C329.26 45 324.76 43.65 321.51 40.95C318.01 38.05 316.26 33.775 316.26 28.125C316.26 22.175 318.01 17.8 321.51 15H316.26V11.25H339.96C341.81 11.25 343.06 10.975 343.71 10.425C344.81 9.475 345.36 7.475 345.36 4.425H353.085C353.085 9.075 351.585 12.15 348.585 13.65C348.135 13.9 347.585 14.1 346.935 14.25C351.435 17.05 353.685 21.675 353.685 28.125ZM346.56 28.125C346.56 24.225 345.66 21.125 343.86 18.825C341.91 16.275 339.035 15 335.235 15C327.635 15 323.835 19.375 323.835 28.125C323.835 32.025 324.735 35.125 326.535 37.425C328.535 39.975 331.435 41.25 335.235 41.25C342.785 41.25 346.56 36.875 346.56 28.125ZM370.807 27.75C370.807 32.55 369.882 36.475 368.032 39.525C365.832 43.175 362.457 45 357.907 45C354.107 45 351.107 43.675 348.907 41.025C346.857 38.575 345.832 35.4 345.832 31.5H353.782C353.782 34.55 353.932 36.625 354.232 37.725C354.882 40.075 356.232 41.25 358.282 41.25C360.132 41.25 361.457 39.425 362.257 35.775C362.757 33.525 363.007 30.975 363.007 28.125C363.007 19.375 360.932 15 356.782 15H354.232V11.25H357.382C361.632 11.25 365.007 12.975 367.507 16.425C369.707 19.525 370.807 23.3 370.807 27.75ZM452.725 30C452.725 34.8 451.975 38.35 450.475 40.65C448.625 43.55 445.425 45 440.875 45C438.525 45 436.85 44.825 435.85 44.475C434.45 43.975 433.225 42.9 432.175 41.25C430.425 43.75 427.45 45 423.25 45C419.7 45 416.85 44 414.7 42C412.55 40 411.475 37.25 411.475 33.75C411.475 26.1 414.8 22.275 421.45 22.275C422.4 22.275 423.4 22.35 424.45 22.5V26.25C422.2 26.2 420.675 26.925 419.875 28.425C419.325 29.475 419.05 31.25 419.05 33.75C419.05 38.75 420.575 41.25 423.625 41.25C425.975 41.25 427.45 39.825 428.05 36.975C428.25 35.975 428.325 33.65 428.275 30H436.075L436 34.05C435.9 38.85 437.475 41.25 440.725 41.25C442.775 41.25 444.1 39.775 444.7 36.825C444.95 35.625 445.075 33.35 445.075 30C445.075 23.7 443.125 19.475 439.225 17.325C436.425 15.775 431.675 15 424.975 15V11.25H432.325C445.925 11.25 452.725 17.5 452.725 30ZM488.73 28.125C488.73 33.325 487.23 37.45 484.23 40.5C481.23 43.5 477.105 45 471.855 45C466.505 45 462.355 43.525 459.405 40.575C456.455 37.575 454.98 33.425 454.98 28.125C454.98 22.875 456.455 18.75 459.405 15.75C462.405 12.75 466.555 11.25 471.855 11.25C477.105 11.25 481.23 12.775 484.23 15.825C487.23 18.825 488.73 22.925 488.73 28.125ZM480.78 28.125C480.78 24.575 480.155 21.65 478.905 19.35C477.355 16.45 474.955 15 471.705 15C465.605 15 462.555 19.375 462.555 28.125C462.555 36.875 465.605 41.25 471.705 41.25C474.955 41.25 477.355 39.8 478.905 36.9C480.155 34.6 480.78 31.675 480.78 28.125ZM530.766 33C530.766 37.05 528.491 40.175 523.941 42.375C520.341 44.125 516.266 45 511.716 45C504.816 45 499.716 43.625 496.416 40.875C492.816 37.875 491.016 33 491.016 26.25H498.591C498.591 31.4 499.466 35.1 501.216 37.35C503.166 39.95 506.666 41.25 511.716 41.25C514.716 41.25 517.266 40.65 519.366 39.45C521.866 37.95 523.116 35.8 523.116 33C523.116 28.45 519.916 26.175 513.516 26.175C512.716 26.175 511.541 26.225 509.991 26.325C508.441 26.375 507.266 26.4 506.466 26.4V22.5H507.966C513.566 22.5 516.366 21.3 516.366 18.9C516.366 17.25 515.841 16.15 514.791 15.6C514.041 15.2 512.766 15 510.966 15H491.016V11.25H523.866V15H523.491C524.191 16.1 524.541 17.475 524.541 19.125C524.541 21.425 523.566 23.1 521.616 24.15C527.716 25.05 530.766 28 530.766 33ZM556.008 28.5C555.908 32.95 555.083 36.625 553.533 39.525C551.483 43.175 548.433 45 544.383 45C536.783 45 532.983 41.25 532.983 33.75C532.983 30.35 533.933 27.6 535.833 25.5C537.733 23.4 540.358 22.35 543.708 22.35C544.458 22.35 545.208 22.4 545.958 22.5V26.25C543.558 26.25 541.983 27.125 541.233 28.875C540.733 29.975 540.508 31.825 540.558 34.425C540.558 35.925 540.808 37.325 541.308 38.625C541.958 40.375 542.908 41.25 544.158 41.25C545.608 41.25 546.733 39.4 547.533 35.7C548.083 33.1 548.358 30.7 548.358 28.5C548.358 24.4 548.008 21.425 547.308 19.575C546.158 16.525 543.908 15 540.558 15H519.333L519.033 11.25H544.158C548.108 11.25 551.183 13.225 553.383 17.175C555.233 20.475 556.108 24.25 556.008 28.5ZM599.577 4.425C599.577 9.075 598.077 12.15 595.077 13.65C594.427 14 593.552 14.275 592.452 14.475C597.152 17.525 599.502 22.75 599.502 30.15C599.502 40.05 595.677 45 588.027 45C584.277 45 581.252 43.75 578.952 41.25C576.652 43.75 573.677 45 570.027 45C562.177 45 558.252 40.05 558.252 30.15C558.252 23.15 560.352 18.1 564.552 15H558.252V11.25H586.452C588.302 11.25 589.552 10.975 590.202 10.425C591.302 9.475 591.852 7.475 591.852 4.425H599.577ZM591.852 30.975C591.852 20.325 587.552 15 578.952 15C570.202 15 565.827 19.825 565.827 29.475C565.827 37.325 567.427 41.25 570.627 41.25C572.627 41.25 573.952 39.8 574.602 36.9C574.952 35.35 575.102 33.1 575.052 30.15H582.852V31.425C582.852 37.975 584.402 41.25 587.502 41.25C590.402 41.25 591.852 37.825 591.852 30.975ZM639.183 28.125C639.183 33.575 637.408 37.8 633.858 40.8C630.508 43.6 626.058 45 620.508 45C614.758 45 610.258 43.65 607.008 40.95C603.508 38.05 601.758 33.775 601.758 28.125C601.758 22.175 603.508 17.8 607.008 15H601.758V11.25H625.458C627.308 11.25 628.558 10.975 629.208 10.425C630.308 9.475 630.858 7.475 630.858 4.425H638.583C638.583 9.075 637.083 12.15 634.083 13.65C633.633 13.9 633.083 14.1 632.433 14.25C636.933 17.05 639.183 21.675 639.183 28.125ZM632.058 28.125C632.058 24.225 631.158 21.125 629.358 18.825C627.408 16.275 624.533 15 620.733 15C613.133 15 609.333 19.375 609.333 28.125C609.333 32.025 610.233 35.125 612.033 37.425C614.033 39.975 616.933 41.25 620.733 41.25C628.283 41.25 632.058 36.875 632.058 28.125ZM656.305 27.75C656.305 32.55 655.38 36.475 653.53 39.525C651.33 43.175 647.955 45 643.405 45C639.605 45 636.605 43.675 634.405 41.025C632.355 38.575 631.33 35.4 631.33 31.5H639.28C639.28 34.55 639.43 36.625 639.73 37.725C640.38 40.075 641.73 41.25 643.78 41.25C645.63 41.25 646.955 39.425 647.755 35.775C648.255 33.525 648.505 30.975 648.505 28.125C648.505 19.375 646.43 15 642.28 15H639.73V11.25H642.88C647.13 11.25 650.505 12.975 653.005 16.425C655.205 19.525 656.305 23.3 656.305 27.75ZM738.223 27.9C738.223 32.45 736.848 36.2 734.098 39.15C731.348 42.05 727.673 43.875 723.073 44.625C724.373 46.675 726.923 47.65 730.723 47.55V51.375H728.998C721.498 51.375 716.873 49.25 715.123 45C704.673 44.8 699.448 41.425 699.448 34.875C699.448 29.125 703.123 26.25 710.473 26.25C713.623 26.25 715.948 26.675 717.448 27.525C719.348 28.625 720.498 30.575 720.898 33.375C721.248 35.825 721.548 38.325 721.798 40.875C725.298 40.175 727.723 38.325 729.073 35.325C730.073 33.075 730.573 29.925 730.573 25.875C730.573 22.825 730.398 20.575 730.048 19.125C729.398 16.375 727.998 15 725.848 15C723.998 15 722.748 15.85 722.098 17.55C721.698 18.65 721.523 20.3 721.573 22.5H713.773C713.823 17.5 712.248 15 709.048 15C705.998 15 704.498 17.5 704.548 22.5H696.973C696.973 18.2 697.973 15.2 699.973 13.5C701.823 11.95 704.923 11.175 709.273 11.175C712.523 11.175 715.323 12.45 717.673 15C720.073 12.5 722.973 11.25 726.373 11.25C731.073 11.25 734.348 12.95 736.198 16.35C737.548 18.85 738.223 22.7 738.223 27.9ZM714.073 40.95C714.023 39.55 713.898 37.45 713.698 34.65C713.398 31.65 712.473 30.15 710.923 30.15C708.673 30.15 707.548 31.7 707.548 34.8C707.548 38.05 709.723 40.1 714.073 40.95ZM777.904 28.125C777.904 33.575 776.129 37.8 772.579 40.8C769.229 43.6 764.779 45 759.229 45C753.479 45 748.979 43.65 745.729 40.95C742.229 38.05 740.479 33.775 740.479 28.125C740.479 22.175 742.229 17.8 745.729 15H740.479V11.25H764.179C766.029 11.25 767.279 10.975 767.929 10.425C769.029 9.475 769.579 7.475 769.579 4.425H777.304C777.304 9.075 775.804 12.15 772.804 13.65C772.354 13.9 771.804 14.1 771.154 14.25C775.654 17.05 777.904 21.675 777.904 28.125ZM770.779 28.125C770.779 24.225 769.879 21.125 768.079 18.825C766.129 16.275 763.254 15 759.454 15C751.854 15 748.054 19.375 748.054 28.125C748.054 32.025 748.954 35.125 750.754 37.425C752.754 39.975 755.654 41.25 759.454 41.25C767.004 41.25 770.779 36.875 770.779 28.125ZM795.026 27.75C795.026 32.55 794.101 36.475 792.251 39.525C790.051 43.175 786.676 45 782.126 45C778.326 45 775.326 43.675 773.126 41.025C771.076 38.575 770.051 35.4 770.051 31.5H778.001C778.001 34.55 778.151 36.625 778.451 37.725C779.101 40.075 780.451 41.25 782.501 41.25C784.351 41.25 785.676 39.425 786.476 35.775C786.976 33.525 787.226 30.975 787.226 28.125C787.226 19.375 785.151 15 781.001 15H778.451V11.25H781.601C785.851 11.25 789.226 12.975 791.726 16.425C793.926 19.525 795.026 23.3 795.026 27.75ZM876.943 30C876.943 34.8 876.193 38.35 874.693 40.65C872.843 43.55 869.643 45 865.093 45C862.743 45 861.068 44.825 860.068 44.475C858.668 43.975 857.443 42.9 856.393 41.25C854.643 43.75 851.668 45 847.468 45C843.918 45 841.068 44 838.918 42C836.768 40 835.693 37.25 835.693 33.75C835.693 26.1 839.018 22.275 845.668 22.275C846.618 22.275 847.618 22.35 848.668 22.5V26.25C846.418 26.2 844.893 26.925 844.093 28.425C843.543 29.475 843.268 31.25 843.268 33.75C843.268 38.75 844.793 41.25 847.843 41.25C850.193 41.25 851.668 39.825 852.268 36.975C852.468 35.975 852.543 33.65 852.493 30H860.293L860.218 34.05C860.118 38.85 861.693 41.25 864.943 41.25C866.993 41.25 868.318 39.775 868.918 36.825C869.168 35.625 869.293 33.35 869.293 30C869.293 23.7 867.343 19.475 863.443 17.325C860.643 15.775 855.893 15 849.193 15V11.25H856.543C870.143 11.25 876.943 17.5 876.943 30ZM912.949 28.125C912.949 33.325 911.449 37.45 908.449 40.5C905.449 43.5 901.324 45 896.074 45C890.724 45 886.574 43.525 883.624 40.575C880.674 37.575 879.199 33.425 879.199 28.125C879.199 22.875 880.674 18.75 883.624 15.75C886.624 12.75 890.774 11.25 896.074 11.25C901.324 11.25 905.449 12.775 908.449 15.825C911.449 18.825 912.949 22.925 912.949 28.125ZM904.999 28.125C904.999 24.575 904.374 21.65 903.124 19.35C901.574 16.45 899.174 15 895.924 15C889.824 15 886.774 19.375 886.774 28.125C886.774 36.875 889.824 41.25 895.924 41.25C899.174 41.25 901.574 39.8 903.124 36.9C904.374 34.6 904.999 31.675 904.999 28.125ZM956.484 30.15C956.484 40.05 952.659 45 945.009 45C941.259 45 938.234 43.75 935.934 41.25C933.634 43.75 930.659 45 927.009 45C919.159 45 915.234 40.05 915.234 30.15C915.234 23.15 917.334 18.1 921.534 15H915.234V11.25H948.834V14.1C953.934 17.1 956.484 22.45 956.484 30.15ZM948.834 30.975C948.834 20.325 944.534 15 935.934 15C927.184 15 922.809 19.825 922.809 29.475C922.809 37.325 924.409 41.25 927.609 41.25C929.609 41.25 930.934 39.8 931.584 36.9C931.934 35.35 932.084 33.1 932.034 30.15H939.834V31.425C939.834 37.975 941.384 41.25 944.484 41.25C947.384 41.25 948.834 37.825 948.834 30.975ZM956.49 7.875C956.49 11.425 954.665 13.6 951.015 14.4C949.215 14.8 944.14 15 935.79 15L935.865 11.25C940.615 11.25 943.715 11.075 945.165 10.725C947.615 10.125 948.865 8.85 948.915 6.9C949.015 4.5 948.165 3.25 946.365 3.15C944.365 3.05 943.365 4.8 943.365 8.4H935.79C935.79 5 936.865 2.675 939.015 1.425C940.515 0.574997 943.015 0.149996 946.515 0.149996C949.915 0.149996 952.315 0.574997 953.715 1.425C955.565 2.575 956.49 4.725 956.49 7.875ZM992.563 28.125C992.563 33.325 991.063 37.45 988.063 40.5C985.063 43.5 980.938 45 975.688 45C970.338 45 966.188 43.525 963.238 40.575C960.288 37.575 958.813 33.425 958.813 28.125C958.813 22.875 960.288 18.75 963.238 15.75C966.238 12.75 970.388 11.25 975.688 11.25C980.938 11.25 985.063 12.775 988.063 15.825C991.063 18.825 992.563 22.925 992.563 28.125ZM984.613 28.125C984.613 24.575 983.988 21.65 982.738 19.35C981.188 16.45 978.788 15 975.538 15C969.438 15 966.388 19.375 966.388 28.125C966.388 36.875 969.438 41.25 975.538 41.25C978.788 41.25 981.188 39.8 982.738 36.9C983.988 34.6 984.613 31.675 984.613 28.125ZM1036.1 30.15C1036.1 34.45 1035.27 37.875 1033.62 40.425C1031.67 43.475 1028.67 45 1024.62 45C1020.87 45 1017.85 43.75 1015.55 41.25C1013.25 43.75 1010.27 45 1006.62 45C1002.57 45 999.549 43.625 997.549 40.875C995.749 38.425 994.849 35.1 994.849 30.9C994.849 25.4 996.699 21.675 1000.4 19.725C999.699 18.675 999.349 17.35 999.349 15.75C999.349 10.35 1004.75 7.65 1015.55 7.65C1022.9 7.65 1028.22 9.6 1031.52 13.5C1034.57 17.1 1036.1 22.65 1036.1 30.15ZM1028.45 29.175C1028.45 22.425 1027.82 18 1026.57 15.9C1024.72 12.8 1020.67 11.25 1014.42 11.25C1010.02 11.25 1007.82 12.5 1007.82 15C1007.82 17.6 1009.1 18.9 1011.65 18.9C1014.35 18.9 1015.65 16.975 1015.55 13.125L1023.2 13.275C1023.25 17.375 1021.77 20.075 1018.77 21.375C1016.92 22.175 1013.65 22.55 1008.95 22.5C1006.2 22.5 1004.32 23.575 1003.32 25.725C1002.67 27.175 1002.35 29.425 1002.35 32.475C1002.35 38.325 1003.97 41.25 1007.22 41.25C1009.27 41.25 1010.6 40.45 1011.2 38.85C1011.55 37.9 1011.7 36.25 1011.65 33.9H1019.45V35.625C1019.45 37.575 1019.72 38.95 1020.27 39.75C1020.97 40.75 1022.25 41.25 1024.1 41.25C1026.15 41.25 1027.47 39.625 1028.07 36.375C1028.32 35.075 1028.45 32.675 1028.45 29.175ZM1076.3 28.125C1076.3 33.775 1075.23 37.925 1073.08 40.575C1070.68 43.575 1066.73 45.05 1061.23 45V41.25C1066.38 41.3 1068.95 36.925 1068.95 28.125C1068.95 24.275 1068.03 21.175 1066.18 18.825C1064.13 16.275 1061.23 15 1057.48 15C1049.78 15 1045.93 19.375 1045.93 28.125C1045.93 36.925 1048.4 41.3 1053.35 41.25V45C1047.8 45.05 1043.85 43.6 1041.5 40.65C1039.4 38 1038.35 33.825 1038.35 28.125C1038.35 22.325 1040.3 17.95 1044.2 15H1038.35V11.25H1062.8C1064.65 11.25 1065.9 10.975 1066.55 10.425C1067.65 9.475 1068.2 7.475 1068.2 4.425H1075.93C1075.93 9.075 1074.43 12.15 1071.43 13.65C1070.88 13.9 1070.2 14.125 1069.4 14.325L1070.23 15C1074.28 18.25 1076.3 22.625 1076.3 28.125ZM1115.09 28.5C1115.09 32.9 1114.26 36.575 1112.61 39.525C1110.56 43.175 1107.51 45 1103.46 45C1099.86 45 1097.06 44.025 1095.06 42.075C1093.06 40.125 1092.06 37.35 1092.06 33.75C1092.06 30.35 1093.01 27.6 1094.91 25.5C1096.81 23.4 1099.44 22.35 1102.79 22.35C1103.19 22.35 1103.94 22.4 1105.04 22.5V26.25C1101.44 26.2 1099.64 28.625 1099.64 33.525C1099.64 38.675 1100.84 41.25 1103.24 41.25C1104.64 41.25 1105.74 39.425 1106.54 35.775C1107.14 33.075 1107.44 30.65 1107.44 28.5C1107.44 24.95 1106.86 22 1105.71 19.65C1104.21 16.55 1101.86 15 1098.66 15C1091.61 15 1088.09 17.375 1088.09 22.125C1088.09 23.375 1088.31 25.275 1088.76 27.825C1089.21 30.325 1089.44 32.2 1089.44 33.45C1089.44 41.15 1085.94 45 1078.94 45C1071.84 45 1068.31 40.25 1068.36 30.75H1076.16V33.075C1076.16 38.525 1077.21 41.25 1079.31 41.25C1081.31 41.25 1082.31 39.525 1082.31 36.075C1082.31 34.525 1081.99 32.2 1081.34 29.1C1080.69 26 1080.36 23.675 1080.36 22.125C1080.36 18.025 1082.54 15.05 1086.89 13.2C1089.94 11.9 1093.86 11.25 1098.66 11.25C1103.66 11.25 1107.69 12.875 1110.74 16.125C1113.64 19.325 1115.09 23.45 1115.09 28.5ZM1197.01 28.5C1197.01 33.2 1196.06 37 1194.16 39.9C1191.91 43.3 1188.56 45 1184.11 45C1178.61 45 1175.11 43.525 1173.61 40.575C1173.21 39.825 1172.74 37.075 1172.19 32.325C1171.84 29.375 1170.39 27.9 1167.84 27.9C1164.84 27.9 1163.34 30 1163.34 34.2C1163.34 35.85 1163.81 37.4 1164.76 38.85C1165.86 40.45 1167.19 41.25 1168.74 41.25V45L1167.09 45.075C1163.94 45.225 1161.26 44.25 1159.06 42.15C1156.86 40 1155.76 37.325 1155.76 34.125C1155.76 30.275 1157.04 27.55 1159.59 25.95C1161.64 24.65 1164.69 24 1168.74 24C1174.04 24 1177.49 25.5 1179.09 28.5C1179.49 29.25 1180.01 32 1180.66 36.75C1181.06 39.75 1182.51 41.25 1185.01 41.25C1187.91 41.25 1189.36 37 1189.36 28.5C1189.36 23 1188.61 18.95 1187.11 16.35C1185.11 12.95 1181.56 11.25 1176.46 11.25C1174.31 11.25 1172.69 11.4 1171.59 11.7C1169.69 12.2 1168.74 13.3 1168.74 15C1168.74 16.45 1169.01 17.475 1169.56 18.075C1170.11 18.625 1171.11 18.9 1172.56 18.9C1175.16 18.9 1176.46 17.3 1176.46 14.1V13.125L1184.11 13.275C1184.16 19.425 1180.31 22.5 1172.56 22.5C1163.91 22.5 1159.59 20 1159.59 15C1159.59 10.1 1165.01 7.65 1175.86 7.65C1189.96 7.65 1197.01 14.6 1197.01 28.5ZM1222.14 21C1222.14 24.5 1221.09 26.95 1218.99 28.35C1217.29 29.45 1214.59 30 1210.89 30H1208.42V26.25C1212.52 26.25 1214.57 24.275 1214.57 20.325C1214.57 19.025 1214.29 17.875 1213.74 16.875C1213.09 15.625 1212.17 15 1210.97 15C1208.82 15 1207.47 17.25 1206.92 21.75C1206.77 23 1206.69 26.125 1206.69 31.125C1206.69 37.875 1207.97 41.25 1210.52 41.25C1212.97 41.25 1214.19 38.425 1214.19 32.775V31.5H1221.69C1221.69 35.85 1221.07 39.05 1219.82 41.1C1218.22 43.7 1215.37 45 1211.27 45C1207.07 45 1203.89 43.25 1201.74 39.75C1199.99 36.8 1199.12 33.1 1199.12 28.65C1199.12 24 1199.89 20.15 1201.44 17.1C1203.44 13.2 1206.54 11.25 1210.74 11.25C1218.34 11.25 1222.14 14.5 1222.14 21ZM1301.17 4.425C1301.17 9.075 1299.67 12.15 1296.67 13.65C1295.12 14.45 1292.54 14.9 1288.94 15H1286.92C1287.27 15.75 1287.44 16.55 1287.44 17.4C1287.44 19.7 1286.44 21.4 1284.44 22.5H1300.94V26.25H1297.04C1299.59 28.1 1300.87 30.6 1300.87 33.75C1300.87 37.85 1298.59 40.875 1294.04 42.825C1290.64 44.275 1286.59 45 1281.89 45C1269.19 45 1262.84 41.25 1262.84 33.75C1262.84 30.6 1264.04 28.1 1266.44 26.25H1262.84V22.5H1278.82C1276.82 21.4 1275.82 19.7 1275.82 17.4C1275.82 16.55 1275.99 15.75 1276.34 15H1262.84V11.25H1288.04C1289.89 11.25 1291.14 10.975 1291.79 10.425C1292.89 9.475 1293.44 7.475 1293.44 4.425H1301.17ZM1293.37 33.75C1293.37 28.75 1289.54 26.25 1281.89 26.25C1274.24 26.25 1270.42 28.75 1270.42 33.75C1270.42 38.75 1274.24 41.25 1281.89 41.25C1284.89 41.25 1287.39 40.75 1289.39 39.75C1292.04 38.45 1293.37 36.45 1293.37 33.75ZM1344.52 4.425C1344.52 9.075 1343.02 12.15 1340.02 13.65C1339.57 13.85 1339.05 14.05 1338.45 14.25C1342.45 17.4 1344.45 22.15 1344.45 28.5C1344.45 33.15 1343.5 36.925 1341.6 39.825C1339.3 43.275 1335.95 45 1331.55 45C1326.1 45 1322.6 43.4 1321.05 40.2C1320.65 39.4 1320.17 36.4 1319.62 31.2C1319.27 28 1317.82 26.4 1315.27 26.4C1312.27 26.4 1310.77 28.75 1310.77 33.45C1310.77 35.15 1311.25 36.8 1312.2 38.4C1313.3 40.3 1314.62 41.25 1316.17 41.25V45L1314.52 45.075C1311.32 45.225 1308.62 44.125 1306.42 41.775C1304.27 39.425 1303.2 36.625 1303.2 33.375C1303.2 26.125 1307.52 22.5 1316.17 22.5C1321.47 22.5 1324.92 24.125 1326.52 27.375C1326.87 28.125 1327.4 31.125 1328.1 36.375C1328.55 39.625 1330 41.25 1332.45 41.25C1335.35 41.25 1336.8 37 1336.8 28.5C1336.8 20.25 1334.4 15.775 1329.6 15.075C1329.25 15.025 1327.32 15 1323.82 15H1303.2V11.25H1331.4C1333.25 11.25 1334.5 10.975 1335.15 10.425C1336.25 9.475 1336.8 7.475 1336.8 4.425H1344.52ZM1362.3 66.45H1356.23C1348.38 66.45 1344.45 64.6 1344.45 60.9C1341.1 60.85 1338.83 60.25 1337.63 59.1C1336.38 57.95 1335.75 55.725 1335.75 52.425C1335.75 47.525 1338.63 45.075 1344.38 45.075C1346.88 45.075 1348.63 45.9 1349.63 47.55C1350.38 48.85 1350.75 50.825 1350.75 53.475C1350.75 54.875 1350.75 55.575 1350.75 55.575C1350.75 55.925 1350.73 56.35 1350.68 56.85C1350.68 57.25 1350.68 57.5 1350.68 57.6C1352.23 56.3 1353 52.1 1353 45C1353 42.2 1352.6 39.825 1351.8 37.875C1350.7 35.125 1349 33.75 1346.7 33.75V30.15C1355.35 30.15 1359.68 35.1 1359.68 45C1359.68 49.35 1359.23 52.625 1358.33 54.825C1356.98 58.125 1354.5 60.075 1350.9 60.675C1351.05 62.425 1353.7 63.3 1358.85 63.3C1359.2 63.3 1360.35 63.275 1362.3 63.225V66.45ZM1344.53 55.95C1344.53 51.05 1344 48.6 1342.95 48.6C1342.05 48.6 1341.6 49.45 1341.6 51.15C1341.6 53.65 1341.63 55 1341.68 55.2C1341.98 56.45 1342.9 57.225 1344.45 57.525C1344.5 57.125 1344.53 56.6 1344.53 55.95ZM1400.99 4.425C1400.99 9.075 1399.49 12.15 1396.49 13.65C1395.94 13.9 1395.29 14.125 1394.54 14.325C1396.59 15.675 1397.62 17.375 1397.62 19.425C1397.62 22.475 1396.17 24.3 1393.27 24.9C1398.37 25.7 1400.92 28.7 1400.92 33.9C1400.92 37.45 1399.89 40.2 1397.84 42.15C1395.84 44.05 1393.04 45 1389.44 45C1385.69 45 1382.67 43.75 1380.37 41.25C1378.07 43.75 1375.09 45 1371.44 45C1367.39 45 1364.34 43.475 1362.29 40.425C1360.54 37.825 1359.67 34.4 1359.67 30.15C1359.67 23.15 1361.79 18.1 1366.04 15H1359.67V11.25H1387.87C1389.72 11.25 1390.97 10.975 1391.62 10.425C1392.72 9.475 1393.27 7.475 1393.27 4.425H1400.99ZM1393.27 34.725C1393.27 31.725 1392.92 29.775 1392.22 28.875C1391.27 27.625 1389.12 27 1385.77 27V23.25C1388.77 23.3 1390.27 22.025 1390.27 19.425C1390.27 17.425 1389.02 16.1 1386.52 15.45C1385.32 15.15 1383.27 15 1380.37 15C1371.62 15 1367.24 19.825 1367.24 29.475C1367.24 37.325 1368.84 41.25 1372.04 41.25C1375.09 41.25 1376.57 37.55 1376.47 30.15H1384.27V31.425C1384.27 37.975 1385.82 41.25 1388.92 41.25C1391.82 41.25 1393.27 39.075 1393.27 34.725ZM1444.42 28.5C1444.42 39.5 1440.47 45 1432.57 45C1430.52 45 1428.9 44.75 1427.7 44.25C1426.55 43.75 1425.27 42.75 1423.87 41.25C1422.47 42.75 1421.17 43.75 1419.97 44.25C1418.77 44.75 1417.1 45 1414.95 45C1411.4 45 1408.55 44 1406.4 42C1404.25 40 1403.17 37.25 1403.17 33.75C1403.17 26.1 1406.5 22.275 1413.15 22.275C1414.1 22.275 1415.1 22.35 1416.15 22.5V26.25C1413.9 26.25 1412.37 26.975 1411.57 28.425C1411.02 29.475 1410.75 31.25 1410.75 33.75C1410.75 38.75 1412.27 41.25 1415.32 41.25C1417.67 41.25 1419.15 39.825 1419.75 36.975C1419.95 36.025 1420.02 33.7 1419.97 30H1427.77L1427.7 34.05C1427.6 38.85 1429.17 41.25 1432.42 41.25C1433.97 41.25 1435.15 39.5 1435.95 36C1436.5 33.6 1436.77 31.1 1436.77 28.5C1436.77 24.1 1436.27 20.95 1435.27 19.05C1433.82 16.35 1431.12 15 1427.17 15H1403.17V11.25H1436.77V12.075C1441.87 13.975 1444.42 19.45 1444.42 28.5ZM1469.7 28.5C1469.6 32.95 1468.78 36.625 1467.23 39.525C1465.18 43.175 1462.13 45 1458.08 45C1450.48 45 1446.68 41.25 1446.68 33.75C1446.68 30.35 1447.63 27.6 1449.53 25.5C1451.43 23.4 1454.05 22.35 1457.4 22.35C1458.15 22.35 1458.9 22.4 1459.65 22.5V26.25C1457.25 26.25 1455.68 27.125 1454.93 28.875C1454.43 29.975 1454.2 31.825 1454.25 34.425C1454.25 35.925 1454.5 37.325 1455 38.625C1455.65 40.375 1456.6 41.25 1457.85 41.25C1459.3 41.25 1460.43 39.4 1461.23 35.7C1461.78 33.1 1462.05 30.7 1462.05 28.5C1462.05 24.4 1461.7 21.425 1461 19.575C1459.85 16.525 1457.6 15 1454.25 15H1433.03L1432.73 11.25H1457.85C1461.8 11.25 1464.88 13.225 1467.08 17.175C1468.93 20.475 1469.8 24.25 1469.7 28.5ZM1513.2 28.2C1513.2 39.45 1507.82 45.05 1497.07 45V41.25C1500.07 41.3 1502.32 39.95 1503.82 37.2C1504.97 35 1505.55 32.275 1505.55 29.025C1505.55 22.525 1505 18.225 1503.9 16.125C1502.2 12.875 1498.45 11.25 1492.65 11.25C1487.5 11.25 1484.92 12.5 1484.92 15C1484.92 16.45 1485.2 17.475 1485.75 18.075C1486.3 18.625 1487.3 18.9 1488.75 18.9C1491.35 18.9 1492.65 17.3 1492.65 14.1V13.125L1500.3 13.275C1500.35 19.425 1496.5 22.5 1488.75 22.5C1485.2 22.5 1483 22.725 1482.15 23.175C1480.4 24.125 1479.52 26.45 1479.52 30.15C1479.52 37.6 1482 41.3 1486.95 41.25V45C1481.4 45.05 1477.5 43.9 1475.25 41.55C1473.05 39.2 1471.95 35.2 1471.95 29.55C1471.95 24.35 1473.8 21 1477.5 19.5C1476.35 18.3 1475.77 16.8 1475.77 15C1475.77 10.1 1481.4 7.65 1492.65 7.65C1499.75 7.65 1504.95 9.3 1508.25 12.6C1511.55 15.9 1513.2 21.1 1513.2 28.2ZM1552.88 28.125C1552.88 33.575 1551.1 37.8 1547.55 40.8C1544.2 43.6 1539.75 45 1534.2 45C1528.45 45 1523.95 43.65 1520.7 40.95C1517.2 38.05 1515.45 33.775 1515.45 28.125C1515.45 22.175 1517.2 17.8 1520.7 15H1515.45V11.25H1539.15C1541 11.25 1542.25 10.975 1542.9 10.425C1544 9.475 1544.55 7.475 1544.55 4.425H1552.28C1552.28 9.075 1550.78 12.15 1547.78 13.65C1547.33 13.9 1546.78 14.1 1546.13 14.25C1550.63 17.05 1552.88 21.675 1552.88 28.125ZM1545.75 28.125C1545.75 24.225 1544.85 21.125 1543.05 18.825C1541.1 16.275 1538.23 15 1534.43 15C1526.83 15 1523.03 19.375 1523.03 28.125C1523.03 32.025 1523.93 35.125 1525.73 37.425C1527.73 39.975 1530.63 41.25 1534.43 41.25C1541.98 41.25 1545.75 36.875 1545.75 28.125ZM1570 27.75C1570 32.55 1569.08 36.475 1567.23 39.525C1565.03 43.175 1561.65 45 1557.1 45C1553.3 45 1550.3 43.675 1548.1 41.025C1546.05 38.575 1545.03 35.4 1545.03 31.5H1552.98C1552.98 34.55 1553.13 36.625 1553.43 37.725C1554.08 40.075 1555.43 41.25 1557.48 41.25C1559.33 41.25 1560.65 39.425 1561.45 35.775C1561.95 33.525 1562.2 30.975 1562.2 28.125C1562.2 19.375 1560.13 15 1555.98 15H1553.43V11.25H1556.58C1560.83 11.25 1564.2 12.975 1566.7 16.425C1568.9 19.525 1570 23.3 1570 27.75ZM1582.49 39.825C1582.49 41.125 1581.94 42.325 1580.84 43.425C1579.79 44.475 1578.62 45 1577.32 45C1575.97 45 1574.77 44.525 1573.72 43.575C1572.72 42.625 1572.22 41.475 1572.22 40.125C1572.22 38.775 1572.77 37.625 1573.87 36.675C1574.97 35.725 1576.19 35.25 1577.54 35.25C1578.79 35.25 1579.92 35.7 1580.92 36.6C1581.97 37.5 1582.49 38.575 1582.49 39.825Z" fill="black"/>
</svg>
