<svg width="1669" height="75" viewBox="0 0 1669 75" fill="none" xmlns="http://www.w3.org/2000/svg">
<path d="M41.325 35.4C41.325 39.15 40.2 42.2 37.95 44.55C35.75 46.85 32.8 48 29.1 48C27.3 48 25.6 47.2 24 45.6L20.325 41.1C19.025 39.55 17.825 38.775 16.725 38.775C16.225 38.775 15.8 39.575 15.45 41.175C15 43.375 14.6 44.85 14.25 45.6C13.5 47.2 12.45 48 11.1 48C7.55 48 4.8 46.95 2.85 44.85C0.95 42.7 2.12342e-07 39.85 2.12342e-07 36.3C2.12342e-07 34.25 0.775 32.35 2.325 30.6C3.925 28.85 5.725 28.1 7.725 28.35C8.875 28.35 9.825 28.75 10.575 29.55C11.375 30.35 11.775 31.325 11.775 32.475C11.775 33.575 11.375 34.525 10.575 35.325C9.775 36.125 8.825 36.525 7.725 36.525C6.125 36.525 4.925 35.85 4.125 34.5C3.875 35.05 3.75 35.65 3.75 36.3C3.75 41.5 6.125 44.15 10.875 44.25C11.575 41.1 12.1 39.15 12.45 38.4C13.45 36.15 14.875 35.025 16.725 35.025C18.575 35.025 20.325 35.825 21.975 37.425C22.175 37.575 23.4 39.05 25.65 41.85C26.95 43.45 28.1 44.25 29.1 44.25C31.75 44.25 33.825 43.45 35.325 41.85C36.825 40.2 37.575 38.05 37.575 35.4C37.575 30.4 35.9 26.25 32.55 22.95C29.25 19.65 25.075 18 20.025 18C18.775 18 18.15 17.375 18.15 16.125C18.15 14.875 18.775 14.25 20.025 14.25C26.125 14.25 31.2 16.25 35.25 20.25C39.3 24.25 41.325 29.3 41.325 35.4ZM88.6395 32.325C88.6395 37.475 86.7895 41.45 83.0895 44.25C79.7395 46.75 75.3895 48 70.0395 48C63.5895 48 58.4145 46.85 54.5145 44.55C49.7145 41.65 47.3145 37.175 47.3145 31.125C47.3145 26.925 47.9645 23.325 49.2645 20.325C51.0645 16.275 53.7895 14.25 57.4395 14.25C62.3895 14.25 64.8645 17 64.8645 22.5C64.8645 24.55 63.9645 26.175 62.1645 27.375C60.5645 28.375 58.6895 28.875 56.5395 28.875C55.2395 28.875 54.0145 28.65 52.8645 28.2C52.0645 27.9 51.6645 27.35 51.6645 26.55C51.6645 25.25 52.2645 24.6 53.4645 24.6C53.8145 24.6 54.3395 24.7 55.0395 24.9C55.7895 25.1 56.3395 25.2 56.6895 25.2C57.5895 25.2 58.4895 24.975 59.3895 24.525C60.5395 23.975 61.1145 23.3 61.1145 22.5C61.1145 20.85 60.9145 19.725 60.5145 19.125C59.9645 18.375 58.9395 18 57.4395 18C55.0395 18 53.2895 19.7 52.1895 23.1C51.4395 25.45 51.0645 28.125 51.0645 31.125C51.0645 39.875 57.3895 44.25 70.0395 44.25C74.2895 44.25 77.7395 43.35 80.3895 41.55C83.3895 39.45 84.8895 36.375 84.8895 32.325C84.8895 29.325 83.9395 26.3 82.0395 23.25C79.9395 19.75 77.4895 18 74.6895 18H72.5895C71.3395 18 70.7145 17.375 70.7145 16.125C70.7145 14.875 71.3395 14.25 72.5895 14.25H79.0395V18H82.6395C84.4395 19.8 85.8895 22 86.9895 24.6C88.0895 27.2 88.6395 29.775 88.6395 32.325ZM115.404 33.075C115.404 36.725 114.229 40.075 111.879 43.125C109.379 46.375 106.329 48 102.729 48C99.3289 48 96.6289 46.975 94.6289 44.925C92.6789 42.825 91.7039 40.075 91.7039 36.675C91.7039 33.825 92.6539 31.5 94.5539 29.7C96.5039 27.85 98.9039 26.925 101.754 26.925C103.404 26.925 104.779 27.35 105.879 28.2C107.029 29 107.604 30.2 107.604 31.8C107.604 33.1 107.154 34.225 106.254 35.175C105.354 36.075 104.254 36.525 102.954 36.525C101.654 36.525 100.529 36.075 99.5789 35.175C98.6789 34.225 98.2289 33.1 98.2289 31.8L98.3039 31.65C96.4039 33.05 95.4539 34.725 95.4539 36.675C95.4539 41.725 97.8789 44.25 102.729 44.25C105.229 44.25 107.379 42.975 109.179 40.425C110.829 38.125 111.654 35.675 111.654 33.075C111.654 23.025 107.929 18 100.479 18H68.8289V14.25H100.479C105.579 14.25 109.429 16.2 112.029 20.1C114.279 23.4 115.404 27.725 115.404 33.075ZM119.636 63.075C119.636 66.425 118.236 69.375 115.436 71.925C115.036 72.275 114.611 72.45 114.161 72.45C112.911 72.45 112.286 71.8 112.286 70.5C112.286 69.95 112.486 69.5 112.886 69.15C114.886 67.3 115.886 65.275 115.886 63.075C115.886 60.425 115.136 58.275 113.636 56.625C112.086 55.025 110.011 54.225 107.411 54.225C106.411 54.225 105.261 55.025 103.961 56.625C101.761 59.375 100.536 60.875 100.286 61.125C98.6855 62.675 96.9355 63.45 95.0355 63.45C93.1355 63.45 91.7105 62.35 90.7605 60.15C90.5105 59.6 89.9855 57.625 89.1855 54.225C86.9855 54.325 85.2355 55.225 83.9355 56.925C82.6355 58.675 81.9855 60.7 81.9855 63C81.9855 65.9 82.9355 68.025 84.8355 69.375C85.3855 69.775 85.6605 70.275 85.6605 70.875C85.6605 72.175 85.0105 72.825 83.7105 72.825C83.3105 72.825 82.9355 72.7 82.5855 72.45C79.6855 70.35 78.2355 67.2 78.2355 63C78.2355 59.55 79.2355 56.65 81.2355 54.3C83.3355 51.75 86.0605 50.475 89.4105 50.475C90.8105 50.475 91.8855 51.275 92.6355 52.875C92.8855 53.375 93.2605 54.875 93.7605 57.375C94.0605 58.925 94.4855 59.7 95.0355 59.7C96.0855 59.7 97.4355 58.8 99.0855 57C100.136 55.6 101.211 54.225 102.311 52.875C103.861 51.275 105.561 50.475 107.411 50.475C111.111 50.475 114.086 51.65 116.336 54C118.536 56.35 119.636 59.375 119.636 63.075ZM164.009 35.4C164.009 39.15 162.884 42.2 160.634 44.55C158.434 46.85 155.484 48 151.784 48C149.984 48 148.284 47.2 146.684 45.6L143.009 41.1C141.709 39.55 140.509 38.775 139.409 38.775C138.909 38.775 138.484 39.575 138.134 41.175C137.684 43.375 137.284 44.85 136.934 45.6C136.184 47.2 135.134 48 133.784 48C129.934 48 127.034 46.2 125.084 42.6C123.484 39.7 122.684 36.175 122.684 32.025C122.684 26.175 125.284 21.5 130.484 18H124.409C123.159 18 122.534 17.375 122.534 16.125C122.534 14.875 123.159 14.25 124.409 14.25H153.884C155.634 14.25 157.134 13.7 158.384 12.6C159.634 11.5 160.259 10.075 160.259 8.325C160.259 6.675 159.709 5.275 158.609 4.125C158.259 3.775 158.084 3.35 158.084 2.85C158.084 1.6 158.709 0.974997 159.959 0.974997C160.459 0.974997 160.909 1.175 161.309 1.575C163.109 3.425 164.009 5.675 164.009 8.325C164.009 10.875 163.134 13.05 161.384 14.85C159.684 16.65 157.559 17.675 155.009 17.925C161.009 21.975 164.009 27.8 164.009 35.4ZM160.259 35.4C160.259 30.35 158.584 26.2 155.234 22.95C151.934 19.65 147.759 18 142.709 18C138.509 18 134.809 19.25 131.609 21.75C128.159 24.5 126.434 27.925 126.434 32.025C126.434 34.975 126.909 37.55 127.859 39.75C129.109 42.65 131.009 44.15 133.559 44.25C134.209 41.2 134.734 39.25 135.134 38.4C136.084 36.15 137.509 35.025 139.409 35.025C141.259 35.025 143.009 35.825 144.659 37.425C144.859 37.575 146.084 39.05 148.334 41.85C149.634 43.45 150.784 44.25 151.784 44.25C154.434 44.25 156.509 43.45 158.009 41.85C159.509 40.2 160.259 38.05 160.259 35.4ZM206.22 8.325C206.22 11.125 205.22 13.425 203.22 15.225C202.02 16.375 200.195 17.3 197.745 18C202.745 21.5 205.245 25.875 205.245 31.125C205.245 35.825 203.795 39.775 200.895 42.975C197.895 46.325 194.07 48 189.42 48C184.72 48 180.545 46.35 176.895 43.05C173.295 39.75 171.495 35.775 171.495 31.125C171.495 25.575 173.17 21.2 176.52 18H171.87C170.62 18 169.995 17.375 169.995 16.125C169.995 14.875 170.62 14.25 171.87 14.25H196.095C197.845 14.25 199.345 13.7 200.595 12.6C201.845 11.5 202.47 10.075 202.47 8.325C202.47 6.675 201.92 5.275 200.82 4.125C200.47 3.775 200.295 3.35 200.295 2.85C200.295 1.6 200.92 0.974997 202.17 0.974997C202.67 0.974997 203.12 1.175 203.52 1.575C205.32 3.425 206.22 5.675 206.22 8.325ZM201.495 31.125C201.495 27.475 199.845 24.35 196.545 21.75C193.445 19.25 190.045 18 186.345 18C182.745 18 179.945 19.325 177.945 21.975C176.145 24.375 175.245 27.425 175.245 31.125C175.245 34.775 176.695 37.875 179.595 40.425C182.495 42.975 185.77 44.25 189.42 44.25C193.02 44.25 195.97 42.95 198.27 40.35C200.42 37.85 201.495 34.775 201.495 31.125ZM248.505 33.075C248.505 36.725 247.33 40.075 244.98 43.125C242.48 46.375 239.43 48 235.83 48C232.43 48 229.73 46.975 227.73 44.925C225.78 42.825 224.805 40.075 224.805 36.675C224.805 33.825 225.755 31.5 227.655 29.7C229.605 27.85 232.005 26.925 234.855 26.925C236.505 26.925 237.88 27.35 238.98 28.2C240.13 29 240.705 30.2 240.705 31.8C240.705 33.1 240.255 34.225 239.355 35.175C238.455 36.075 237.355 36.525 236.055 36.525C234.755 36.525 233.63 36.075 232.68 35.175C231.78 34.225 231.33 33.1 231.33 31.8L231.405 31.65C229.505 33.05 228.555 34.725 228.555 36.675C228.555 41.725 230.98 44.25 235.83 44.25C238.33 44.25 240.48 42.975 242.28 40.425C243.93 38.125 244.755 35.675 244.755 33.075C244.755 28.975 243.155 25.45 239.955 22.5C236.755 19.5 233.105 18 229.005 18H224.58C222.73 18 221.18 24.35 219.93 37.05C219.68 39.5 218.98 41.8 217.83 43.95C216.38 46.65 214.58 48 212.43 48C208.58 48 205.655 46.125 203.655 42.375C202.105 39.475 201.33 36.025 201.33 32.025C201.33 30.775 201.955 30.15 203.205 30.15C204.455 30.15 205.08 30.775 205.08 32.025C205.08 35.025 205.555 37.625 206.505 39.825C207.805 42.775 209.78 44.25 212.43 44.25C213.33 44.25 214.205 43.175 215.055 41.025C215.705 39.425 216.08 38 216.18 36.75C216.83 29.9 217.355 25.6 217.755 23.85C219.155 17.45 221.43 14.25 224.58 14.25H229.005C234.105 14.25 238.63 16.125 242.58 19.875C246.53 23.625 248.505 28.025 248.505 33.075ZM325.944 49.125C325.944 49.675 325.669 50.15 325.119 50.55C321.319 53.25 317.944 54.6 314.994 54.6C309.994 54.6 306.944 52.375 305.844 47.925C304.994 47.975 304.144 48 303.294 48C294.794 48 290.544 45.375 290.544 40.125C290.544 37.275 292.144 35.025 295.344 33.375C297.844 32.075 300.669 31.425 303.819 31.425C307.619 31.425 309.519 33.575 309.519 37.875C309.519 38.525 309.444 39.525 309.294 40.875C309.194 42.225 309.144 43.225 309.144 43.875C317.844 42.675 322.194 38.425 322.194 31.125C322.194 28.025 321.544 25.225 320.244 22.725C318.694 19.575 316.519 18 313.719 18C312.669 18 311.494 18.725 310.194 20.175L306.594 24.3C304.944 25.75 303.194 26.475 301.344 26.475C299.294 26.475 297.844 25.475 296.994 23.475C296.494 21.625 295.994 19.8 295.494 18C292.894 18.1 290.994 19.6 289.794 22.5C288.844 24.65 288.369 27.225 288.369 30.225C288.369 31.475 287.744 32.1 286.494 32.1C285.244 32.1 284.619 31.475 284.619 30.225C284.619 26.325 285.319 22.975 286.719 20.175C288.669 16.225 291.669 14.25 295.719 14.25C297.119 14.25 298.169 14.975 298.869 16.425C299.169 17.025 299.569 18.4 300.069 20.55C300.419 22 300.844 22.725 301.344 22.725C302.494 22.725 303.694 22 304.944 20.55L308.619 16.425C310.219 14.975 311.919 14.25 313.719 14.25C317.869 14.25 321.069 16.3 323.319 20.4C325.069 23.6 325.944 27.175 325.944 31.125C325.944 40.575 320.494 46.075 309.594 47.625C310.294 49.775 312.094 50.85 314.994 50.85C317.194 50.85 319.869 49.725 323.019 47.475C323.369 47.225 323.719 47.1 324.069 47.1C325.319 47.1 325.944 47.775 325.944 49.125ZM305.844 38.625C305.844 36.325 305.169 35.175 303.819 35.175C301.819 35.175 299.894 35.525 298.044 36.225C295.544 37.175 294.294 38.475 294.294 40.125C294.294 42.875 297.294 44.25 303.294 44.25C303.994 44.25 304.694 44.225 305.394 44.175V44.1C305.394 43.5 305.469 42.6 305.619 41.4C305.769 40.15 305.844 39.225 305.844 38.625ZM368.159 8.325C368.159 11.125 367.159 13.425 365.159 15.225C363.959 16.375 362.134 17.3 359.684 18C364.684 21.5 367.184 25.875 367.184 31.125C367.184 35.825 365.734 39.775 362.834 42.975C359.834 46.325 356.009 48 351.359 48C346.659 48 342.484 46.35 338.834 43.05C335.234 39.75 333.434 35.775 333.434 31.125C333.434 25.575 335.109 21.2 338.459 18H333.809C332.559 18 331.934 17.375 331.934 16.125C331.934 14.875 332.559 14.25 333.809 14.25H358.034C359.784 14.25 361.284 13.7 362.534 12.6C363.784 11.5 364.409 10.075 364.409 8.325C364.409 6.675 363.859 5.275 362.759 4.125C362.409 3.775 362.234 3.35 362.234 2.85C362.234 1.6 362.859 0.974997 364.109 0.974997C364.609 0.974997 365.059 1.175 365.459 1.575C367.259 3.425 368.159 5.675 368.159 8.325ZM363.434 31.125C363.434 27.475 361.784 24.35 358.484 21.75C355.384 19.25 351.984 18 348.284 18C344.684 18 341.884 19.325 339.884 21.975C338.084 24.375 337.184 27.425 337.184 31.125C337.184 34.775 338.634 37.875 341.534 40.425C344.434 42.975 347.709 44.25 351.359 44.25C354.959 44.25 357.909 42.95 360.209 40.35C362.359 37.85 363.434 34.775 363.434 31.125ZM391.394 31.125C391.394 35.775 390.094 39.675 387.494 42.825C384.694 46.275 381.019 48 376.469 48C372.869 48 369.819 46.75 367.319 44.25C364.769 41.75 363.494 38.725 363.494 35.175C363.494 33.925 364.119 33.3 365.369 33.3C366.619 33.3 367.244 33.925 367.244 35.175C367.244 37.675 368.169 39.825 370.019 41.625C371.819 43.375 373.969 44.25 376.469 44.25C379.969 44.25 382.744 42.9 384.794 40.2C386.694 37.75 387.644 34.725 387.644 31.125C387.644 28.375 387.144 25.7 386.144 23.1C384.844 19.7 383.044 18 380.744 18C379.944 18 379.219 18.225 378.569 18.675C377.969 19.075 377.494 19.275 377.144 19.275C375.994 19.275 375.419 18.65 375.419 17.4C375.419 16.3 376.069 15.475 377.369 14.925C378.369 14.475 379.494 14.25 380.744 14.25C384.244 14.25 386.994 16.25 388.994 20.25C390.594 23.45 391.394 27.075 391.394 31.125ZM468.84 35.4C468.84 39.15 467.715 42.2 465.465 44.55C463.265 46.85 460.315 48 456.615 48C454.815 48 453.115 47.2 451.515 45.6L447.84 41.1C446.54 39.55 445.34 38.775 444.24 38.775C443.74 38.775 443.315 39.575 442.965 41.175C442.515 43.375 442.115 44.85 441.765 45.6C441.015 47.2 439.965 48 438.615 48C435.065 48 432.315 46.95 430.365 44.85C428.465 42.7 427.515 39.85 427.515 36.3C427.515 34.25 428.29 32.35 429.84 30.6C431.44 28.85 433.24 28.1 435.24 28.35C436.39 28.35 437.34 28.75 438.09 29.55C438.89 30.35 439.29 31.325 439.29 32.475C439.29 33.575 438.89 34.525 438.09 35.325C437.29 36.125 436.34 36.525 435.24 36.525C433.64 36.525 432.44 35.85 431.64 34.5C431.39 35.05 431.265 35.65 431.265 36.3C431.265 41.5 433.64 44.15 438.39 44.25C439.09 41.1 439.615 39.15 439.965 38.4C440.965 36.15 442.39 35.025 444.24 35.025C446.09 35.025 447.84 35.825 449.49 37.425C449.69 37.575 450.915 39.05 453.165 41.85C454.465 43.45 455.615 44.25 456.615 44.25C459.265 44.25 461.34 43.45 462.84 41.85C464.34 40.2 465.09 38.05 465.09 35.4C465.09 30.4 463.415 26.25 460.065 22.95C456.765 19.65 452.59 18 447.54 18C446.29 18 445.665 17.375 445.665 16.125C445.665 14.875 446.29 14.25 447.54 14.25C453.64 14.25 458.715 16.25 462.765 20.25C466.815 24.25 468.84 29.3 468.84 35.4ZM508.579 31.125C508.579 35.825 507.129 39.775 504.229 42.975C501.229 46.325 497.404 48 492.754 48C488.054 48 483.879 46.35 480.229 43.05C476.629 39.75 474.829 35.775 474.829 31.125C474.829 26.425 476.104 22.5 478.654 19.35C481.404 15.95 485.079 14.25 489.679 14.25C494.479 14.25 498.779 15.85 502.579 19.05C506.579 22.4 508.579 26.425 508.579 31.125ZM504.829 31.125C504.829 27.475 503.179 24.35 499.879 21.75C496.779 19.25 493.379 18 489.679 18C486.079 18 483.279 19.325 481.279 21.975C479.479 24.375 478.579 27.425 478.579 31.125C478.579 34.775 480.029 37.875 482.929 40.425C485.829 42.975 489.104 44.25 492.754 44.25C496.354 44.25 499.304 42.95 501.604 40.35C503.754 37.85 504.829 34.775 504.829 31.125ZM554.8 32.925C554.8 42.975 547.9 48 534.1 48C529.1 48 524.875 47.15 521.425 45.45C516.975 43.2 514.75 39.825 514.75 35.325C514.75 33.775 515.025 32.175 515.575 30.525C515.875 29.675 516.45 29.25 517.3 29.25C518.6 29.25 519.25 29.85 519.25 31.05C519.25 31.5 519.125 32.175 518.875 33.075C518.675 33.975 518.575 34.65 518.575 35.1C518.575 38.55 520.425 41.05 524.125 42.6C526.775 43.7 530.1 44.25 534.1 44.25C545.4 44.25 551.05 40.475 551.05 32.925C551.05 29.525 549.15 27.825 545.35 27.825C543.75 27.825 542.175 28.2 540.625 28.95C538.775 29.85 537.85 31.025 537.85 32.475C537.85 33.075 538.075 33.7 538.525 34.35C538.975 34.95 539.2 35.45 539.2 35.85C539.2 37.1 538.575 37.725 537.325 37.725C536.775 37.725 536.3 37.5 535.9 37.05C534.75 35.7 534.175 34.275 534.175 32.775C534.175 30.475 535.525 28.075 538.225 25.575C539.175 24.675 539.65 23.625 539.65 22.425C539.65 20.325 538.425 18.975 535.975 18.375C534.925 18.125 533.45 18 531.55 18H516.475C515.225 18 514.6 17.375 514.6 16.125C514.6 14.875 515.225 14.25 516.475 14.25H543.325V18H541.975C542.975 19.5 543.475 20.875 543.475 22.125C543.475 22.725 543.35 23.3 543.1 23.85C546.1 23.65 548.725 24.325 550.975 25.875C553.525 27.625 554.8 29.975 554.8 32.925ZM581.59 33.075C581.59 36.725 580.415 40.075 578.065 43.125C575.565 46.375 572.515 48 568.915 48C565.515 48 562.815 46.975 560.815 44.925C558.865 42.825 557.89 40.075 557.89 36.675C557.89 33.825 558.84 31.5 560.74 29.7C562.69 27.85 565.09 26.925 567.94 26.925C569.59 26.925 570.965 27.35 572.065 28.2C573.215 29 573.79 30.2 573.79 31.8C573.79 33.1 573.34 34.225 572.44 35.175C571.54 36.075 570.44 36.525 569.14 36.525C567.84 36.525 566.715 36.075 565.765 35.175C564.865 34.225 564.415 33.1 564.415 31.8L564.49 31.65C562.59 33.05 561.64 34.725 561.64 36.675C561.64 41.725 564.065 44.25 568.915 44.25C571.415 44.25 573.565 42.975 575.365 40.425C577.015 38.125 577.84 35.675 577.84 33.075C577.84 23.025 574.115 18 566.665 18H535.015V14.25H566.665C571.765 14.25 575.615 16.2 578.215 20.1C580.465 23.4 581.59 27.725 581.59 33.075ZM629.097 35.4C629.097 39.15 627.972 42.2 625.722 44.55C623.522 46.85 620.572 48 616.872 48C615.072 48 613.372 47.2 611.772 45.6L608.097 41.1C606.797 39.55 605.597 38.775 604.497 38.775C603.997 38.775 603.572 39.575 603.222 41.175C602.772 43.375 602.372 44.85 602.022 45.6C601.272 47.2 600.222 48 598.872 48C595.022 48 592.122 46.2 590.172 42.6C588.572 39.7 587.772 36.175 587.772 32.025C587.772 26.175 590.372 21.5 595.572 18H589.497C588.247 18 587.622 17.375 587.622 16.125C587.622 14.875 588.247 14.25 589.497 14.25H618.972C620.722 14.25 622.222 13.7 623.472 12.6C624.722 11.5 625.347 10.075 625.347 8.325C625.347 6.675 624.797 5.275 623.697 4.125C623.347 3.775 623.172 3.35 623.172 2.85C623.172 1.6 623.797 0.974997 625.047 0.974997C625.547 0.974997 625.997 1.175 626.397 1.575C628.197 3.425 629.097 5.675 629.097 8.325C629.097 10.875 628.222 13.05 626.472 14.85C624.772 16.65 622.647 17.675 620.097 17.925C626.097 21.975 629.097 27.8 629.097 35.4ZM625.347 35.4C625.347 30.35 623.672 26.2 620.322 22.95C617.022 19.65 612.847 18 607.797 18C603.597 18 599.897 19.25 596.697 21.75C593.247 24.5 591.522 27.925 591.522 32.025C591.522 34.975 591.997 37.55 592.947 39.75C594.197 42.65 596.097 44.15 598.647 44.25C599.297 41.2 599.822 39.25 600.222 38.4C601.172 36.15 602.597 35.025 604.497 35.025C606.347 35.025 608.097 35.825 609.747 37.425C609.947 37.575 611.172 39.05 613.422 41.85C614.722 43.45 615.872 44.25 616.872 44.25C619.522 44.25 621.597 43.45 623.097 41.85C624.597 40.2 625.347 38.05 625.347 35.4ZM671.308 8.325C671.308 11.125 670.308 13.425 668.308 15.225C667.108 16.375 665.283 17.3 662.833 18C667.833 21.5 670.333 25.875 670.333 31.125C670.333 35.825 668.883 39.775 665.983 42.975C662.983 46.325 659.158 48 654.508 48C649.808 48 645.633 46.35 641.983 43.05C638.383 39.75 636.583 35.775 636.583 31.125C636.583 25.575 638.258 21.2 641.608 18H636.958C635.708 18 635.083 17.375 635.083 16.125C635.083 14.875 635.708 14.25 636.958 14.25H661.183C662.933 14.25 664.433 13.7 665.683 12.6C666.933 11.5 667.558 10.075 667.558 8.325C667.558 6.675 667.008 5.275 665.908 4.125C665.558 3.775 665.383 3.35 665.383 2.85C665.383 1.6 666.008 0.974997 667.258 0.974997C667.758 0.974997 668.208 1.175 668.608 1.575C670.408 3.425 671.308 5.675 671.308 8.325ZM666.583 31.125C666.583 27.475 664.933 24.35 661.633 21.75C658.533 19.25 655.133 18 651.433 18C647.833 18 645.033 19.325 643.033 21.975C641.233 24.375 640.333 27.425 640.333 31.125C640.333 34.775 641.783 37.875 644.683 40.425C647.583 42.975 650.858 44.25 654.508 44.25C658.108 44.25 661.058 42.95 663.358 40.35C665.508 37.85 666.583 34.775 666.583 31.125ZM694.543 31.125C694.543 35.775 693.243 39.675 690.643 42.825C687.843 46.275 684.168 48 679.618 48C676.018 48 672.968 46.75 670.468 44.25C667.918 41.75 666.643 38.725 666.643 35.175C666.643 33.925 667.268 33.3 668.518 33.3C669.768 33.3 670.393 33.925 670.393 35.175C670.393 37.675 671.318 39.825 673.168 41.625C674.968 43.375 677.118 44.25 679.618 44.25C683.118 44.25 685.893 42.9 687.943 40.2C689.843 37.75 690.793 34.725 690.793 31.125C690.793 28.375 690.293 25.7 689.293 23.1C687.993 19.7 686.193 18 683.893 18C683.093 18 682.368 18.225 681.718 18.675C681.118 19.075 680.643 19.275 680.293 19.275C679.143 19.275 678.568 18.65 678.568 17.4C678.568 16.3 679.218 15.475 680.518 14.925C681.518 14.475 682.643 14.25 683.893 14.25C687.393 14.25 690.143 16.25 692.143 20.25C693.743 23.45 694.543 27.075 694.543 31.125ZM771.989 49.125C771.989 49.675 771.714 50.15 771.164 50.55C767.364 53.25 763.989 54.6 761.039 54.6C756.039 54.6 752.989 52.375 751.889 47.925C751.039 47.975 750.189 48 749.339 48C740.839 48 736.589 45.375 736.589 40.125C736.589 37.275 738.189 35.025 741.389 33.375C743.889 32.075 746.714 31.425 749.864 31.425C753.664 31.425 755.564 33.575 755.564 37.875C755.564 38.525 755.489 39.525 755.339 40.875C755.239 42.225 755.189 43.225 755.189 43.875C763.889 42.675 768.239 38.425 768.239 31.125C768.239 28.025 767.589 25.225 766.289 22.725C764.739 19.575 762.564 18 759.764 18C758.714 18 757.539 18.725 756.239 20.175L752.639 24.3C750.989 25.75 749.239 26.475 747.389 26.475C745.339 26.475 743.889 25.475 743.039 23.475C742.539 21.625 742.039 19.8 741.539 18C738.939 18.1 737.039 19.6 735.839 22.5C734.889 24.65 734.414 27.225 734.414 30.225C734.414 31.475 733.789 32.1 732.539 32.1C731.289 32.1 730.664 31.475 730.664 30.225C730.664 26.325 731.364 22.975 732.764 20.175C734.714 16.225 737.714 14.25 741.764 14.25C743.164 14.25 744.214 14.975 744.914 16.425C745.214 17.025 745.614 18.4 746.114 20.55C746.464 22 746.889 22.725 747.389 22.725C748.539 22.725 749.739 22 750.989 20.55L754.664 16.425C756.264 14.975 757.964 14.25 759.764 14.25C763.914 14.25 767.114 16.3 769.364 20.4C771.114 23.6 771.989 27.175 771.989 31.125C771.989 40.575 766.539 46.075 755.639 47.625C756.339 49.775 758.139 50.85 761.039 50.85C763.239 50.85 765.914 49.725 769.064 47.475C769.414 47.225 769.764 47.1 770.114 47.1C771.364 47.1 771.989 47.775 771.989 49.125ZM751.889 38.625C751.889 36.325 751.214 35.175 749.864 35.175C747.864 35.175 745.939 35.525 744.089 36.225C741.589 37.175 740.339 38.475 740.339 40.125C740.339 42.875 743.339 44.25 749.339 44.25C750.039 44.25 750.739 44.225 751.439 44.175V44.1C751.439 43.5 751.514 42.6 751.664 41.4C751.814 40.15 751.889 39.225 751.889 38.625ZM814.204 8.325C814.204 11.125 813.204 13.425 811.204 15.225C810.004 16.375 808.179 17.3 805.729 18C810.729 21.5 813.229 25.875 813.229 31.125C813.229 35.825 811.779 39.775 808.879 42.975C805.879 46.325 802.054 48 797.404 48C792.704 48 788.529 46.35 784.879 43.05C781.279 39.75 779.479 35.775 779.479 31.125C779.479 25.575 781.154 21.2 784.504 18H779.854C778.604 18 777.979 17.375 777.979 16.125C777.979 14.875 778.604 14.25 779.854 14.25H804.079C805.829 14.25 807.329 13.7 808.579 12.6C809.829 11.5 810.454 10.075 810.454 8.325C810.454 6.675 809.904 5.275 808.804 4.125C808.454 3.775 808.279 3.35 808.279 2.85C808.279 1.6 808.904 0.974997 810.154 0.974997C810.654 0.974997 811.104 1.175 811.504 1.575C813.304 3.425 814.204 5.675 814.204 8.325ZM809.479 31.125C809.479 27.475 807.829 24.35 804.529 21.75C801.429 19.25 798.029 18 794.329 18C790.729 18 787.929 19.325 785.929 21.975C784.129 24.375 783.229 27.425 783.229 31.125C783.229 34.775 784.679 37.875 787.579 40.425C790.479 42.975 793.754 44.25 797.404 44.25C801.004 44.25 803.954 42.95 806.254 40.35C808.404 37.85 809.479 34.775 809.479 31.125ZM837.439 31.125C837.439 35.775 836.139 39.675 833.539 42.825C830.739 46.275 827.064 48 822.514 48C818.914 48 815.864 46.75 813.364 44.25C810.814 41.75 809.539 38.725 809.539 35.175C809.539 33.925 810.164 33.3 811.414 33.3C812.664 33.3 813.289 33.925 813.289 35.175C813.289 37.675 814.214 39.825 816.064 41.625C817.864 43.375 820.014 44.25 822.514 44.25C826.014 44.25 828.789 42.9 830.839 40.2C832.739 37.75 833.689 34.725 833.689 31.125C833.689 28.375 833.189 25.7 832.189 23.1C830.889 19.7 829.089 18 826.789 18C825.989 18 825.264 18.225 824.614 18.675C824.014 19.075 823.539 19.275 823.189 19.275C822.039 19.275 821.464 18.65 821.464 17.4C821.464 16.3 822.114 15.475 823.414 14.925C824.414 14.475 825.539 14.25 826.789 14.25C830.289 14.25 833.039 16.25 835.039 20.25C836.639 23.45 837.439 27.075 837.439 31.125ZM914.885 35.4C914.885 39.15 913.76 42.2 911.51 44.55C909.31 46.85 906.36 48 902.66 48C900.86 48 899.16 47.2 897.56 45.6L893.885 41.1C892.585 39.55 891.385 38.775 890.285 38.775C889.785 38.775 889.36 39.575 889.01 41.175C888.56 43.375 888.16 44.85 887.81 45.6C887.06 47.2 886.01 48 884.66 48C881.11 48 878.36 46.95 876.41 44.85C874.51 42.7 873.56 39.85 873.56 36.3C873.56 34.25 874.335 32.35 875.885 30.6C877.485 28.85 879.285 28.1 881.285 28.35C882.435 28.35 883.385 28.75 884.135 29.55C884.935 30.35 885.335 31.325 885.335 32.475C885.335 33.575 884.935 34.525 884.135 35.325C883.335 36.125 882.385 36.525 881.285 36.525C879.685 36.525 878.485 35.85 877.685 34.5C877.435 35.05 877.31 35.65 877.31 36.3C877.31 41.5 879.685 44.15 884.435 44.25C885.135 41.1 885.66 39.15 886.01 38.4C887.01 36.15 888.435 35.025 890.285 35.025C892.135 35.025 893.885 35.825 895.535 37.425C895.735 37.575 896.96 39.05 899.21 41.85C900.51 43.45 901.66 44.25 902.66 44.25C905.31 44.25 907.385 43.45 908.885 41.85C910.385 40.2 911.135 38.05 911.135 35.4C911.135 30.4 909.46 26.25 906.11 22.95C902.81 19.65 898.635 18 893.585 18C892.335 18 891.71 17.375 891.71 16.125C891.71 14.875 892.335 14.25 893.585 14.25C899.685 14.25 904.76 16.25 908.81 20.25C912.86 24.25 914.885 29.3 914.885 35.4ZM954.624 31.125C954.624 35.825 953.174 39.775 950.274 42.975C947.274 46.325 943.449 48 938.799 48C934.099 48 929.924 46.35 926.274 43.05C922.674 39.75 920.874 35.775 920.874 31.125C920.874 26.425 922.149 22.5 924.699 19.35C927.449 15.95 931.124 14.25 935.724 14.25C940.524 14.25 944.824 15.85 948.624 19.05C952.624 22.4 954.624 26.425 954.624 31.125ZM950.874 31.125C950.874 27.475 949.224 24.35 945.924 21.75C942.824 19.25 939.424 18 935.724 18C932.124 18 929.324 19.325 927.324 21.975C925.524 24.375 924.624 27.425 924.624 31.125C924.624 34.775 926.074 37.875 928.974 40.425C931.874 42.975 935.149 44.25 938.799 44.25C942.399 44.25 945.349 42.95 947.649 40.35C949.799 37.85 950.874 34.775 950.874 31.125ZM1002.12 35.4C1002.12 39.15 1000.99 42.2 998.745 44.55C996.545 46.85 993.595 48 989.895 48C988.095 48 986.395 47.2 984.795 45.6L981.12 41.1C979.82 39.55 978.62 38.775 977.52 38.775C977.02 38.775 976.595 39.575 976.245 41.175C975.795 43.375 975.395 44.85 975.045 45.6C974.295 47.2 973.245 48 971.895 48C968.045 48 965.145 46.2 963.195 42.6C961.595 39.7 960.795 36.175 960.795 32.025C960.795 26.175 963.395 21.5 968.595 18H962.52C961.27 18 960.645 17.375 960.645 16.125C960.645 14.875 961.27 14.25 962.52 14.25H992.97V17.85C999.07 21.9 1002.12 27.75 1002.12 35.4ZM998.37 35.4C998.37 30.35 996.695 26.2 993.345 22.95C990.045 19.65 985.87 18 980.82 18C976.62 18 972.92 19.25 969.72 21.75C966.27 24.5 964.545 27.925 964.545 32.025C964.545 34.975 965.02 37.55 965.97 39.75C967.22 42.65 969.12 44.15 971.67 44.25C972.32 41.2 972.845 39.25 973.245 38.4C974.245 36.15 975.67 35.025 977.52 35.025C979.37 35.025 981.12 35.825 982.77 37.425C982.97 37.575 984.195 39.05 986.445 41.85C987.745 43.45 988.895 44.25 989.895 44.25C992.545 44.25 994.62 43.45 996.12 41.85C997.62 40.2 998.37 38.05 998.37 35.4ZM1001.96 8.325C1001.96 11.125 1000.98 13.45 999.03 15.3C997.08 17.1 994.68 18 991.83 18H980.355V14.25H991.83C993.58 14.25 995.08 13.7 996.33 12.6C997.58 11.5 998.205 10.075 998.205 8.325C998.205 5.325 996.955 3.825 994.455 3.825C994.005 3.825 993.58 3.9 993.18 4.05C994.03 4.8 994.455 5.725 994.455 6.825C994.455 7.825 994.105 8.7 993.405 9.45C992.655 10.15 991.78 10.5 990.78 10.5C989.68 10.5 988.805 10.1 988.155 9.3C987.505 8.5 987.18 7.55 987.18 6.45C987.18 4.5 987.93 2.95 989.43 1.8C990.78 0.749997 992.455 0.224998 994.455 0.224998C996.805 0.224998 998.655 0.974997 1000.01 2.475C1001.31 3.975 1001.96 5.925 1001.96 8.325ZM1041.93 31.125C1041.93 35.825 1040.48 39.775 1037.58 42.975C1034.58 46.325 1030.75 48 1026.1 48C1021.4 48 1017.23 46.35 1013.58 43.05C1009.98 39.75 1008.18 35.775 1008.18 31.125C1008.18 26.425 1009.45 22.5 1012 19.35C1014.75 15.95 1018.43 14.25 1023.03 14.25C1027.83 14.25 1032.13 15.85 1035.93 19.05C1039.93 22.4 1041.93 26.425 1041.93 31.125ZM1038.18 31.125C1038.18 27.475 1036.53 24.35 1033.23 21.75C1030.13 19.25 1026.73 18 1023.03 18C1019.43 18 1016.63 19.325 1014.63 21.975C1012.83 24.375 1011.93 27.425 1011.93 31.125C1011.93 34.775 1013.38 37.875 1016.28 40.425C1019.18 42.975 1022.45 44.25 1026.1 44.25C1029.7 44.25 1032.65 42.95 1034.95 40.35C1037.1 37.85 1038.18 34.775 1038.18 31.125ZM1089.27 35.4C1089.27 39.15 1088.15 42.2 1085.9 44.55C1083.7 46.85 1080.75 48 1077.05 48C1075.25 48 1073.55 47.2 1071.95 45.6L1068.27 41.1C1066.97 39.55 1065.77 38.775 1064.67 38.775C1064.17 38.775 1063.75 39.575 1063.4 41.175C1062.95 43.375 1062.55 44.85 1062.2 45.6C1061.45 47.2 1060.4 48 1059.05 48C1055.25 48 1052.37 46.475 1050.42 43.425C1048.77 40.875 1047.95 37.575 1047.95 33.525C1047.95 29.775 1049.72 26.275 1053.27 23.025C1052.12 21.475 1051.55 19.8 1051.55 18C1051.55 15.55 1052.67 13.375 1054.92 11.475C1057.72 9.125 1061.35 7.95 1065.8 7.95C1071.95 7.95 1077.2 10.075 1081.55 14.325C1086.7 19.375 1089.27 26.4 1089.27 35.4ZM1085.52 35.4C1085.52 27.45 1083.32 21.325 1078.92 17.025C1075.32 13.475 1070.95 11.7 1065.8 11.7C1062.2 11.7 1059.37 12.575 1057.32 14.325C1056.12 15.325 1055.52 16.6 1055.52 18.15C1055.52 19.6 1056.02 20.8 1057.02 21.75C1058.02 22.65 1059.25 23.1 1060.7 23.1C1062.15 23.1 1063.37 22.7 1064.37 21.9C1065.37 21.05 1065.87 19.9 1065.87 18.45C1065.87 18.05 1065.77 17.525 1065.57 16.875C1065.37 16.225 1065.27 15.75 1065.27 15.45C1065.27 14.25 1065.92 13.65 1067.22 13.65C1068.02 13.65 1068.57 14.05 1068.87 14.85C1069.37 16.1 1069.62 17.3 1069.62 18.45C1069.62 20.9 1068.8 22.925 1067.15 24.525C1065.5 26.075 1063.45 26.85 1061 26.85C1059.15 26.85 1057.45 26.35 1055.9 25.35C1053.1 27.9 1051.7 30.625 1051.7 33.525C1051.7 40.525 1054.07 44.1 1058.82 44.25C1059.47 41.2 1060 39.25 1060.4 38.4C1061.4 36.15 1062.82 35.025 1064.67 35.025C1066.52 35.025 1068.27 35.825 1069.92 37.425C1070.12 37.575 1071.35 39.05 1073.6 41.85C1074.9 43.45 1076.05 44.25 1077.05 44.25C1079.7 44.25 1081.77 43.45 1083.27 41.85C1084.77 40.2 1085.52 38.05 1085.52 35.4ZM1136.81 35.4C1136.81 38.25 1136.31 40.575 1135.31 42.375C1134.56 43.775 1133.06 45.5 1130.81 47.55C1130.41 47.85 1129.99 48 1129.54 48C1128.29 48 1127.66 47.375 1127.66 46.125C1127.66 45.525 1127.86 45.05 1128.26 44.7C1130.16 43 1131.36 41.7 1131.86 40.8C1132.66 39.45 1133.06 37.65 1133.06 35.4C1133.06 31.05 1131.24 27.075 1127.59 23.475C1123.94 19.825 1119.91 18 1115.51 18C1112.16 18 1108.69 19.55 1105.09 22.65C1101.19 26 1099.24 29.6 1099.24 33.45C1099.24 40.65 1102.11 44.25 1107.86 44.25C1109.11 44.25 1109.74 44.875 1109.74 46.125C1109.74 47.375 1109.11 48 1107.86 48C1103.66 48 1100.49 46.6 1098.34 43.8C1096.44 41.25 1095.49 37.8 1095.49 33.45C1095.49 27.45 1098.69 22.3 1105.09 18H1097.14C1095.89 18 1095.26 17.375 1095.26 16.125C1095.26 14.875 1095.89 14.25 1097.14 14.25H1126.61C1128.36 14.25 1129.86 13.7 1131.11 12.6C1132.36 11.5 1132.99 10.075 1132.99 8.325C1132.99 6.675 1132.44 5.275 1131.34 4.125C1130.99 3.775 1130.81 3.35 1130.81 2.85C1130.81 1.6 1131.44 0.974997 1132.69 0.974997C1133.19 0.974997 1133.64 1.175 1134.04 1.575C1135.84 3.425 1136.74 5.675 1136.74 8.325C1136.74 11.075 1135.76 13.375 1133.81 15.225C1131.86 17.075 1129.49 18 1126.69 18C1133.44 22.5 1136.81 28.3 1136.81 35.4ZM1180.07 33.075C1180.07 36.725 1178.9 40.075 1176.55 43.125C1174.05 46.375 1171 48 1167.4 48C1164 48 1161.3 46.975 1159.3 44.925C1157.35 42.825 1156.37 40.075 1156.37 36.675C1156.37 33.825 1157.32 31.5 1159.22 29.7C1161.17 27.85 1163.57 26.925 1166.42 26.925C1168.07 26.925 1169.45 27.35 1170.55 28.2C1171.7 29 1172.27 30.2 1172.27 31.8C1172.27 33.1 1171.82 34.225 1170.92 35.175C1170.02 36.075 1168.92 36.525 1167.62 36.525C1166.32 36.525 1165.2 36.075 1164.25 35.175C1163.35 34.225 1162.9 33.1 1162.9 31.8L1162.97 31.65C1161.07 33.05 1160.12 34.725 1160.12 36.675C1160.12 41.725 1162.55 44.25 1167.4 44.25C1169.9 44.25 1172.05 42.975 1173.85 40.425C1175.5 38.125 1176.32 35.675 1176.32 33.075C1176.32 28.975 1174.72 25.45 1171.52 22.5C1168.32 19.5 1164.67 18 1160.57 18H1156.15C1154.3 18 1152.75 24.35 1151.5 37.05C1151.25 39.5 1150.55 41.8 1149.4 43.95C1147.95 46.65 1146.15 48 1144 48C1140.15 48 1137.22 46.125 1135.22 42.375C1133.67 39.475 1132.9 36.025 1132.9 32.025C1132.9 30.775 1133.52 30.15 1134.77 30.15C1136.02 30.15 1136.65 30.775 1136.65 32.025C1136.65 35.025 1137.12 37.625 1138.07 39.825C1139.37 42.775 1141.35 44.25 1144 44.25C1144.9 44.25 1145.77 43.175 1146.62 41.025C1147.27 39.425 1147.65 38 1147.75 36.75C1148.4 29.9 1148.92 25.6 1149.32 23.85C1150.72 17.45 1153 14.25 1156.15 14.25H1160.57C1165.67 14.25 1170.2 16.125 1174.15 19.875C1178.1 23.625 1180.07 28.025 1180.07 33.075ZM1257.44 33.825C1257.44 37.575 1256.36 40.825 1254.21 43.575C1251.86 46.525 1248.86 48 1245.21 48C1239.66 48 1235.26 46.625 1232.01 43.875C1230.21 42.375 1227.71 39.125 1224.51 34.125C1221.41 34.675 1219.86 36.925 1219.86 40.875C1219.86 44.475 1221.36 48.65 1224.36 53.4C1224.56 53.7 1224.66 54.025 1224.66 54.375C1224.66 55.625 1224.01 56.25 1222.71 56.25C1222.11 56.25 1221.61 55.95 1221.21 55.35C1217.86 50.05 1216.19 45.025 1216.19 40.275C1216.19 34.325 1218.94 31 1224.44 30.3C1225.74 30.15 1227.21 31.25 1228.86 33.6C1231.36 37.2 1233.21 39.5 1234.41 40.5C1237.31 43 1240.91 44.25 1245.21 44.25C1247.81 44.25 1249.91 43.125 1251.51 40.875C1252.96 38.875 1253.69 36.525 1253.69 33.825C1253.69 26.475 1251.41 20.75 1246.86 16.65C1243.06 13.2 1238.46 11.475 1233.06 11.475C1229.16 11.475 1226.04 12.425 1223.69 14.325C1222.29 15.475 1221.59 16.725 1221.59 18.075C1221.59 20.325 1222.99 21.45 1225.79 21.45C1226.24 21.45 1226.84 21.375 1227.59 21.225C1230.14 20.725 1231.41 19.45 1231.41 17.4C1231.41 16.7 1231.14 16.075 1230.59 15.525C1230.09 14.925 1229.84 14.45 1229.84 14.1C1229.84 12.8 1230.46 12.15 1231.71 12.15C1232.16 12.15 1232.56 12.275 1232.91 12.525C1234.71 13.925 1235.61 15.55 1235.61 17.4C1235.61 19.2 1234.84 20.875 1233.29 22.425C1231.79 23.925 1230.14 24.775 1228.34 24.975C1227.94 25.025 1227.29 25.05 1226.39 25.05C1224.09 25.05 1222.09 24.475 1220.39 23.325C1218.39 22.025 1217.39 20.3 1217.39 18.15C1217.39 15.85 1218.69 13.625 1221.29 11.475C1224.39 8.925 1228.31 7.65 1233.06 7.65C1239.41 7.65 1244.89 9.75 1249.49 13.95C1254.79 18.8 1257.44 25.425 1257.44 33.825ZM1286.23 37.125C1286.23 37.425 1286.15 37.725 1286 38.025C1284.45 41.175 1283.03 43.425 1281.73 44.775C1279.68 46.925 1277.3 48 1274.6 48C1270.2 48 1266.68 46.25 1264.03 42.75C1261.63 39.55 1260.43 35.675 1260.43 31.125C1260.43 26.825 1261.18 23.175 1262.68 20.175C1264.63 16.225 1267.6 14.25 1271.6 14.25C1274.55 14.25 1276.98 15.125 1278.88 16.875C1280.78 18.575 1281.73 20.875 1281.73 23.775C1281.73 24.825 1281.6 25.875 1281.35 26.925C1280.8 29.225 1279.53 31.125 1277.53 32.625C1275.53 34.125 1273.33 34.875 1270.93 34.875C1268.93 34.875 1267.13 34.3 1265.53 33.15C1264.98 32.75 1264.7 32.275 1264.7 31.725C1264.7 30.425 1265.33 29.775 1266.58 29.775C1266.88 29.775 1267.23 29.9 1267.63 30.15C1268.78 30.9 1269.95 31.275 1271.15 31.275C1273.05 31.275 1274.7 30.4 1276.1 28.65C1277.4 27.05 1278.05 25.275 1278.05 23.325C1278.05 19.775 1275.9 18 1271.6 18C1268.9 18 1266.9 19.625 1265.6 22.875C1264.65 25.225 1264.18 27.975 1264.18 31.125C1264.18 34.625 1265.03 37.6 1266.73 40.05C1268.63 42.85 1271.25 44.25 1274.6 44.25C1276.45 44.25 1278.13 43.325 1279.63 41.475C1280.48 40.425 1281.5 38.725 1282.7 36.375C1283.05 35.675 1283.58 35.325 1284.28 35.325C1285.58 35.325 1286.23 35.925 1286.23 37.125ZM1360.79 8.325C1360.79 11.125 1359.79 13.45 1357.79 15.3C1355.84 17.1 1353.46 18 1350.66 18H1342.04C1343.74 18.7 1344.59 19.975 1344.59 21.825C1344.59 23.525 1343.79 24.75 1342.19 25.5H1358.76C1360.01 25.5 1360.64 26.125 1360.64 27.375C1360.64 28.625 1360.01 29.25 1358.76 29.25H1352.91C1356.26 31.35 1357.94 33.875 1357.94 36.825C1357.94 40.475 1356.24 43.325 1352.84 45.375C1349.99 47.125 1346.61 48 1342.71 48C1338.66 48 1334.81 47.15 1331.16 45.45C1326.66 43.3 1324.41 40.425 1324.41 36.825C1324.41 33.825 1325.69 31.3 1328.24 29.25H1324.34C1323.09 29.25 1322.46 28.625 1322.46 27.375C1322.46 26.125 1323.09 25.5 1324.34 25.5H1338.81C1337.21 24.75 1336.41 23.525 1336.41 21.825C1336.41 19.975 1337.26 18.7 1338.96 18H1324.19C1322.94 18 1322.31 17.375 1322.31 16.125C1322.31 14.875 1322.94 14.25 1324.19 14.25H1350.66C1352.41 14.25 1353.91 13.7 1355.16 12.6C1356.41 11.5 1357.04 10.075 1357.04 8.325C1357.04 6.675 1356.49 5.275 1355.39 4.125C1355.04 3.775 1354.86 3.35 1354.86 2.85C1354.86 1.6 1355.49 0.974997 1356.74 0.974997C1357.24 0.974997 1357.69 1.175 1358.09 1.575C1359.89 3.425 1360.79 5.675 1360.79 8.325ZM1354.19 36.825C1354.19 34.525 1352.24 32.65 1348.34 31.2C1345.34 30.05 1342.46 29.475 1339.71 29.475C1336.91 29.475 1334.44 30 1332.29 31.05C1329.54 32.4 1328.16 34.325 1328.16 36.825C1328.16 39.175 1330.11 41.075 1334.01 42.525C1337.01 43.675 1339.91 44.25 1342.71 44.25C1345.56 44.25 1348.04 43.725 1350.14 42.675C1352.84 41.375 1354.19 39.425 1354.19 36.825ZM1408.18 35.4C1408.18 39.15 1407.05 42.2 1404.8 44.55C1402.6 46.85 1399.65 48 1395.95 48C1392.5 48 1389.65 47.525 1387.4 46.575C1384.95 45.525 1382.73 43.7 1380.73 41.1C1378.88 38.8 1377.05 36.475 1375.25 34.125C1372.2 34.675 1370.68 36.925 1370.68 40.875C1370.68 44.475 1372.15 48.65 1375.1 53.4C1375.3 53.7 1375.4 54.025 1375.4 54.375C1375.4 55.625 1374.75 56.25 1373.45 56.25C1372.85 56.25 1372.35 55.95 1371.95 55.35C1368.6 50.05 1366.93 45.025 1366.93 40.275C1366.93 34.325 1369.68 31 1375.18 30.3C1376.53 30.15 1378.03 31.25 1379.68 33.6C1382.18 37.2 1384.03 39.5 1385.23 40.5C1388.13 43 1391.7 44.25 1395.95 44.25C1398.6 44.25 1400.68 43.45 1402.18 41.85C1403.68 40.2 1404.43 38.05 1404.43 35.4C1404.43 30.35 1402.75 26.2 1399.4 22.95C1396.1 19.65 1391.93 18 1386.88 18H1368.5C1367.25 18 1366.63 17.375 1366.63 16.125C1366.63 14.875 1367.25 14.25 1368.5 14.25H1397.98C1399.73 14.25 1401.23 13.7 1402.48 12.6C1403.73 11.5 1404.35 10.075 1404.35 8.325C1404.35 6.675 1403.8 5.275 1402.7 4.125C1402.35 3.775 1402.18 3.35 1402.18 2.85C1402.18 1.6 1402.8 0.974997 1404.05 0.974997C1404.55 0.974997 1405 1.175 1405.4 1.575C1407.2 3.425 1408.1 5.675 1408.1 8.325C1408.1 11.125 1407.1 13.45 1405.1 15.3C1403.15 17.1 1400.78 18 1397.98 18H1399.33C1405.23 22.05 1408.18 27.85 1408.18 35.4ZM1426.91 71.55C1426.91 72.35 1426.51 72.9 1425.71 73.2C1423.96 73.9 1422.44 74.25 1421.14 74.25C1418.19 74.25 1416.04 72.375 1414.69 68.625C1412.19 70.025 1409.66 70.725 1407.11 70.725C1401.61 70.725 1398.51 67.85 1397.81 62.1C1397.46 59.15 1398.44 56.525 1400.74 54.225C1403.04 51.925 1405.69 50.775 1408.69 50.775C1411.29 50.775 1413.24 51.95 1414.54 54.3C1415.34 55.75 1416.06 58.275 1416.71 61.875C1418.61 59.375 1419.54 56.725 1419.49 53.925C1419.39 50.425 1418.69 47.15 1417.39 44.1C1415.89 40.75 1413.79 38.2 1411.09 36.45C1410.49 36.05 1410.19 35.55 1410.19 34.95C1410.19 33.65 1410.81 33 1412.06 33C1412.46 33 1412.81 33.1 1413.11 33.3C1416.31 35.35 1418.84 38.35 1420.69 42.3C1422.34 45.95 1423.19 49.825 1423.24 53.925C1423.34 58.775 1421.49 62.925 1417.69 66.375C1418.54 69.025 1419.86 70.35 1421.66 70.35C1422.16 70.35 1422.76 70.225 1423.46 69.975C1424.21 69.725 1424.76 69.6 1425.11 69.6C1426.31 69.6 1426.91 70.25 1426.91 71.55ZM1413.64 64.875C1412.64 60.625 1412.06 58.275 1411.91 57.825C1411.11 55.625 1410.04 54.525 1408.69 54.525C1406.74 54.525 1405.06 55.2 1403.66 56.55C1402.26 57.95 1401.56 59.625 1401.56 61.575C1401.56 64.275 1402.94 66.05 1405.69 66.9C1406.34 67.1 1406.94 67.2 1407.49 67.2C1409.54 67.2 1411.59 66.425 1413.64 64.875ZM1467.94 8.325C1467.94 11.125 1466.94 13.45 1464.94 15.3C1462.99 17.1 1460.61 18 1457.81 18H1457.06C1458.86 19.6 1460.24 21.575 1461.19 23.925C1465.64 25.875 1467.86 29.7 1467.86 35.4C1467.86 39.15 1466.74 42.2 1464.49 44.55C1462.29 46.85 1459.34 48 1455.64 48C1453.84 48 1452.14 47.2 1450.54 45.6L1446.86 41.1C1445.56 39.55 1444.36 38.775 1443.26 38.775C1442.76 38.775 1442.34 39.575 1441.99 41.175C1441.54 43.375 1441.14 44.85 1440.79 45.6C1440.04 47.2 1438.99 48 1437.64 48C1433.79 48 1430.89 46.2 1428.94 42.6C1427.34 39.7 1426.54 36.175 1426.54 32.025C1426.54 26.125 1428.84 21.45 1433.44 18H1428.34C1427.09 18 1426.46 17.375 1426.46 16.125C1426.46 14.875 1427.09 14.25 1428.34 14.25H1457.81C1459.56 14.25 1461.06 13.7 1462.31 12.6C1463.56 11.5 1464.19 10.075 1464.19 8.325C1464.19 6.675 1463.64 5.275 1462.54 4.125C1462.19 3.775 1462.01 3.35 1462.01 2.85C1462.01 1.6 1462.64 0.974997 1463.89 0.974997C1464.39 0.974997 1464.84 1.175 1465.24 1.575C1467.04 3.425 1467.94 5.675 1467.94 8.325ZM1458.64 30.375C1458.64 29.125 1458.49 27.95 1458.19 26.85C1457.64 26.7 1457.09 26.625 1456.54 26.625C1455.29 26.625 1454.24 26.9 1453.39 27.45C1452.39 28.15 1451.89 29.075 1451.89 30.225C1451.89 32.575 1452.99 33.75 1455.19 33.75C1455.99 33.75 1456.76 33.4 1457.51 32.7C1458.26 31.95 1458.64 31.175 1458.64 30.375ZM1464.11 35.4C1464.11 33.05 1463.54 31.1 1462.39 29.55V30.375C1462.39 32.225 1461.64 33.875 1460.14 35.325C1458.69 36.775 1457.04 37.5 1455.19 37.5C1453.09 37.5 1451.39 36.825 1450.09 35.475C1448.79 34.075 1448.14 32.325 1448.14 30.225C1448.14 28.025 1448.99 26.25 1450.69 24.9C1452.24 23.65 1454.16 23 1456.46 22.95C1454.16 19.65 1450.54 18 1445.59 18C1441.34 18 1437.76 19.25 1434.86 21.75C1431.81 24.4 1430.29 27.825 1430.29 32.025C1430.29 34.975 1430.76 37.55 1431.71 39.75C1432.96 42.65 1434.86 44.15 1437.41 44.25C1438.06 41.2 1438.59 39.25 1438.99 38.4C1439.94 36.15 1441.36 35.025 1443.26 35.025C1445.11 35.025 1446.86 35.825 1448.51 37.425C1448.71 37.575 1449.94 39.05 1452.19 41.85C1453.49 43.45 1454.64 44.25 1455.64 44.25C1458.29 44.25 1460.36 43.45 1461.86 41.85C1463.36 40.2 1464.11 38.05 1464.11 35.4ZM1515.25 35.4C1515.25 39.15 1514.13 42.2 1511.88 44.55C1509.68 46.85 1506.73 48 1503.03 48C1501.23 48 1499.53 47.2 1497.93 45.6L1494.25 41.1C1492.95 39.55 1491.75 38.775 1490.65 38.775C1490.15 38.775 1489.73 39.575 1489.38 41.175C1488.93 43.375 1488.53 44.85 1488.18 45.6C1487.43 47.2 1486.38 48 1485.03 48C1481.48 48 1478.73 46.95 1476.78 44.85C1474.88 42.7 1473.93 39.85 1473.93 36.3C1473.93 34.25 1474.7 32.35 1476.25 30.6C1477.85 28.85 1479.65 28.1 1481.65 28.35C1482.8 28.35 1483.75 28.75 1484.5 29.55C1485.3 30.35 1485.7 31.325 1485.7 32.475C1485.7 33.575 1485.3 34.525 1484.5 35.325C1483.7 36.125 1482.75 36.525 1481.65 36.525C1480.05 36.525 1478.85 35.85 1478.05 34.5C1477.8 35.05 1477.68 35.65 1477.68 36.3C1477.68 41.5 1480.05 44.15 1484.8 44.25C1485.5 41.1 1486.03 39.15 1486.38 38.4C1487.38 36.15 1488.8 35.025 1490.65 35.025C1492.5 35.025 1494.25 35.825 1495.9 37.425C1496.1 37.575 1497.33 39.05 1499.58 41.85C1500.88 43.45 1502.03 44.25 1503.03 44.25C1505.68 44.25 1507.75 43.45 1509.25 41.85C1510.75 40.2 1511.5 38.05 1511.5 35.4C1511.5 30.4 1509.83 26.25 1506.48 22.95C1503.18 19.65 1499 18 1493.95 18H1475.73C1474.48 18 1473.85 17.375 1473.85 16.125C1473.85 14.875 1474.48 14.25 1475.73 14.25H1506.18V17.85C1512.23 21.9 1515.25 27.75 1515.25 35.4ZM1542.02 33.075C1542.02 36.725 1540.84 40.075 1538.49 43.125C1535.99 46.375 1532.94 48 1529.34 48C1525.94 48 1523.24 46.975 1521.24 44.925C1519.29 42.825 1518.32 40.075 1518.32 36.675C1518.32 33.825 1519.27 31.5 1521.17 29.7C1523.12 27.85 1525.52 26.925 1528.37 26.925C1530.02 26.925 1531.39 27.35 1532.49 28.2C1533.64 29 1534.22 30.2 1534.22 31.8C1534.22 33.1 1533.77 34.225 1532.87 35.175C1531.97 36.075 1530.87 36.525 1529.57 36.525C1528.27 36.525 1527.14 36.075 1526.19 35.175C1525.29 34.225 1524.84 33.1 1524.84 31.8L1524.92 31.65C1523.02 33.05 1522.07 34.725 1522.07 36.675C1522.07 41.725 1524.49 44.25 1529.34 44.25C1531.84 44.25 1533.99 42.975 1535.79 40.425C1537.44 38.125 1538.27 35.675 1538.27 33.075C1538.27 23.025 1534.54 18 1527.09 18H1495.44V14.25H1527.09C1532.19 14.25 1536.04 16.2 1538.64 20.1C1540.89 23.4 1542.02 27.725 1542.02 33.075ZM1589.37 35.4C1589.37 40.2 1587.37 44.25 1583.37 47.55C1583.02 47.85 1582.57 48 1582.02 48C1580.82 48 1580.22 47.375 1580.22 46.125C1580.22 45.525 1580.67 44.825 1581.57 44.025C1582.82 42.875 1583.7 41.9 1584.2 41.1C1585.15 39.55 1585.62 37.65 1585.62 35.4C1585.62 28.9 1584 23.45 1580.75 19.05C1577.15 14.15 1572.2 11.7 1565.9 11.7C1563.45 11.7 1561.25 12.175 1559.3 13.125C1556.85 14.275 1555.62 15.95 1555.62 18.15C1555.62 19.6 1556.12 20.8 1557.12 21.75C1558.12 22.65 1559.35 23.1 1560.8 23.1C1562.25 23.1 1563.47 22.7 1564.47 21.9C1565.47 21.05 1565.97 19.9 1565.97 18.45C1565.97 18.1 1565.87 17.6 1565.67 16.95C1565.47 16.3 1565.37 15.8 1565.37 15.45C1565.37 14.25 1566.02 13.65 1567.32 13.65C1568.92 13.65 1569.72 15.25 1569.72 18.45C1569.72 20.85 1568.87 22.85 1567.17 24.45C1565.52 26.05 1563.5 26.85 1561.1 26.85C1559.25 26.85 1557.55 26.35 1556 25.35C1553.2 27.9 1551.8 30.625 1551.8 33.525C1551.8 40.675 1554.67 44.25 1560.42 44.25C1561.67 44.25 1562.3 44.875 1562.3 46.125C1562.3 47.375 1561.67 48 1560.42 48C1556.17 48 1553 46.6 1550.9 43.8C1549 41.3 1548.05 37.875 1548.05 33.525C1548.05 29.775 1549.82 26.275 1553.37 23.025C1552.22 21.475 1551.65 19.8 1551.65 18C1551.65 14.8 1553.3 12.25 1556.6 10.35C1559.35 8.75 1562.45 7.95 1565.9 7.95C1573.3 7.95 1579.15 10.75 1583.45 16.35C1587.4 21.45 1589.37 27.8 1589.37 35.4ZM1631.59 8.325C1631.59 11.125 1630.59 13.425 1628.59 15.225C1627.39 16.375 1625.56 17.3 1623.11 18C1628.11 21.5 1630.61 25.875 1630.61 31.125C1630.61 35.825 1629.16 39.775 1626.26 42.975C1623.26 46.325 1619.44 48 1614.79 48C1610.09 48 1605.91 46.35 1602.26 43.05C1598.66 39.75 1596.86 35.775 1596.86 31.125C1596.86 25.575 1598.54 21.2 1601.89 18H1597.24C1595.99 18 1595.36 17.375 1595.36 16.125C1595.36 14.875 1595.99 14.25 1597.24 14.25H1621.46C1623.21 14.25 1624.71 13.7 1625.96 12.6C1627.21 11.5 1627.84 10.075 1627.84 8.325C1627.84 6.675 1627.29 5.275 1626.19 4.125C1625.84 3.775 1625.66 3.35 1625.66 2.85C1625.66 1.6 1626.29 0.974997 1627.54 0.974997C1628.04 0.974997 1628.49 1.175 1628.89 1.575C1630.69 3.425 1631.59 5.675 1631.59 8.325ZM1626.86 31.125C1626.86 27.475 1625.21 24.35 1621.91 21.75C1618.81 19.25 1615.41 18 1611.71 18C1608.11 18 1605.31 19.325 1603.31 21.975C1601.51 24.375 1600.61 27.425 1600.61 31.125C1600.61 34.775 1602.06 37.875 1604.96 40.425C1607.86 42.975 1611.14 44.25 1614.79 44.25C1618.39 44.25 1621.34 42.95 1623.64 40.35C1625.79 37.85 1626.86 34.775 1626.86 31.125ZM1654.82 31.125C1654.82 35.775 1653.52 39.675 1650.92 42.825C1648.12 46.275 1644.45 48 1639.9 48C1636.3 48 1633.25 46.75 1630.75 44.25C1628.2 41.75 1626.92 38.725 1626.92 35.175C1626.92 33.925 1627.55 33.3 1628.8 33.3C1630.05 33.3 1630.67 33.925 1630.67 35.175C1630.67 37.675 1631.6 39.825 1633.45 41.625C1635.25 43.375 1637.4 44.25 1639.9 44.25C1643.4 44.25 1646.17 42.9 1648.22 40.2C1650.12 37.75 1651.07 34.725 1651.07 31.125C1651.07 28.375 1650.57 25.7 1649.57 23.1C1648.27 19.7 1646.47 18 1644.17 18C1643.37 18 1642.65 18.225 1642 18.675C1641.4 19.075 1640.92 19.275 1640.57 19.275C1639.42 19.275 1638.85 18.65 1638.85 17.4C1638.85 16.3 1639.5 15.475 1640.8 14.925C1641.8 14.475 1642.92 14.25 1644.17 14.25C1647.67 14.25 1650.42 16.25 1652.42 20.25C1654.02 23.45 1654.82 27.075 1654.82 31.125ZM1668.94 44.625C1668.94 45.525 1668.51 46.375 1667.66 47.175C1666.86 47.925 1666.01 48.3 1665.11 48.3C1664.11 48.3 1663.24 47.95 1662.49 47.25C1661.79 46.5 1661.44 45.625 1661.44 44.625C1661.44 43.575 1661.79 42.725 1662.49 42.075C1663.19 41.375 1664.06 41.025 1665.11 41.025C1666.11 41.025 1667.01 41.35 1667.81 42C1668.56 42.9 1668.94 43.775 1668.94 44.625Z" fill="black"/>
</svg>
