<svg width="1676" height="72" viewBox="0 0 1676 72" fill="none" xmlns="http://www.w3.org/2000/svg">
<path d="M41.325 39.5C41.325 41.55 40.575 43.325 39.075 44.825C37.625 46.275 35.875 47 33.825 47H27.375C22.875 47 20.625 46 20.625 44C20.625 46 18.375 47 13.875 47H7.5C5.45 47 3.675 46.275 2.175 44.825C0.725 43.325 0 41.55 0 39.5V31.625C0 29.275 1.25 28.1 3.75 28.1H9.675C10.725 28.1 11.6 28.475 12.3 29.225C13.05 29.925 13.425 30.8 13.425 31.85V35.45C13.425 36.45 13.05 37.325 12.3 38.075C11.6 38.825 10.75 39.2 9.75 39.2V39.5C9.75 41 9.9 42.05 10.2 42.65C10.65 43.55 11.525 44 12.825 44C14.825 44 15.825 42.5 15.825 39.5V33.125H25.575V39.5C25.575 42.5 26.575 44 28.575 44C30.575 44 31.575 42.5 31.575 39.5V22.25C31.575 18.25 29.575 16.25 25.575 16.25H9.75V13.325H33.825C35.875 13.325 37.675 14.3 39.225 16.25C40.625 18.1 41.325 20.075 41.325 22.175V39.5ZM85.6365 39.5C85.6365 41.55 84.8865 43.325 83.3865 44.825C81.9365 46.275 80.1865 47 78.1365 47H51.8115C49.7615 47 47.9865 46.275 46.4865 44.825C45.0365 43.325 44.3115 41.55 44.3115 39.5V20.3C44.3115 18.25 45.0365 16.575 46.4865 15.275C47.9365 13.975 49.7115 13.325 51.8115 13.325H60.4365C64.4365 13.325 66.4365 15.325 66.4365 19.325V25.625C66.4365 29.625 64.4365 31.625 60.4365 31.625H54.0615V36.5C54.0615 38.55 54.7865 40.325 56.2365 41.825C57.7365 43.275 59.5115 44 61.5615 44H68.3865C70.4365 44 72.1865 43.275 73.6365 41.825C75.1365 40.325 75.8865 38.55 75.8865 36.5V21.2C75.8865 17.9 74.1365 16.25 70.6365 16.25H68.6865V13.325H75.8865V14.825H78.1365C80.1865 14.825 81.9365 15.575 83.3865 17.075C84.8865 18.525 85.6365 20.275 85.6365 22.325V39.5ZM57.8115 27.5V17.375C57.8115 16.575 57.1865 16.175 55.9365 16.175C54.6865 16.175 54.0615 16.575 54.0615 17.375V27.5C54.0615 28.3 54.6865 28.7 55.9365 28.7C57.1865 28.7 57.8115 28.3 57.8115 27.5ZM114.198 39.5C114.198 41.55 113.448 43.325 111.948 44.825C110.498 46.275 108.748 47 106.698 47H96.123C94.073 47 92.298 46.275 90.798 44.825C89.348 43.325 88.623 41.55 88.623 39.5V28.625C88.623 27.625 88.998 26.8 89.748 26.15C90.498 25.45 91.373 25.1 92.373 25.1H98.298C99.348 25.1 100.223 25.475 100.923 26.225C101.673 26.925 102.048 27.8 102.048 28.85V33.95C102.048 34.95 101.673 35.825 100.923 36.575C100.223 37.325 99.373 37.7 98.373 37.7V39.5C98.373 41 98.523 42.05 98.823 42.65C99.273 43.55 100.148 44 101.448 44C103.448 44 104.448 42.5 104.448 39.5V21.5C104.448 19.4 103.973 18 103.023 17.3C102.123 16.6 100.573 16.25 98.373 16.25H73.623V13.325H106.698C108.748 13.325 110.498 14.075 111.948 15.575C113.448 17.025 114.198 18.775 114.198 20.825V39.5ZM115.537 57.95C115.537 58.85 115.087 59.825 114.187 60.875C113.287 61.975 112.387 62.525 111.487 62.525H105.112V60.2C107.062 60.2 108.037 59.225 108.037 57.275V53.6C108.037 51.65 107.262 50.675 105.712 50.675C105.012 50.675 104.437 50.975 103.987 51.575C103.537 52.175 103.312 52.85 103.312 53.6V57.35H95.9625V53.6C95.9625 51.65 95.1875 50.675 93.6375 50.675C92.0875 50.675 91.3125 51.65 91.3125 53.6V58.475C91.3125 59.625 92.3625 60.2 94.4625 60.2V62.525H87.1875C84.8875 62.525 83.7375 61 83.7375 57.95V54.2C83.7375 52.6 84.3125 51.225 85.4625 50.075C86.5625 48.975 87.9125 48.425 89.5125 48.425H95.0625C96.7625 48.425 97.8375 48.5 98.2875 48.65C98.8875 48.95 99.3375 49.625 99.6375 50.675C100.087 49.575 100.587 48.9 101.137 48.65C101.487 48.5 102.537 48.425 104.287 48.425H109.762C111.362 48.425 112.737 48.975 113.887 50.075C114.987 51.225 115.537 52.6 115.537 54.2V57.95ZM158.586 39.5C158.586 41.55 157.836 43.325 156.336 44.825C154.886 46.275 153.136 47 151.086 47H144.636C142.186 47 140.586 46.875 139.836 46.625C138.686 46.225 138.036 45.35 137.886 44C137.736 45.35 137.086 46.225 135.936 46.625C135.186 46.875 133.586 47 131.136 47H124.761C122.711 47 120.936 46.275 119.436 44.825C117.986 43.325 117.261 41.55 117.261 39.5V22.4C117.261 21.15 117.586 19.925 118.236 18.725C118.886 17.525 119.761 16.7 120.861 16.25H117.261V13.325H143.511C145.611 13.325 147.011 12.975 147.711 12.275C148.411 11.575 148.761 10.175 148.761 8.075V3.35H158.511V8.75C158.511 12.4 157.336 14.7 154.986 15.65C157.386 17.15 158.586 19.325 158.586 22.175V39.5ZM148.836 39.5V22.25C148.836 18.25 146.836 16.25 142.836 16.25H133.086C129.036 16.25 127.011 18.25 127.011 22.25V39.5C127.011 41 127.161 42.05 127.461 42.65C127.911 43.55 128.786 44 130.086 44C132.086 44 133.086 42.5 133.086 39.5V34.625H142.836V39.5C142.836 42.5 143.836 44 145.836 44C147.836 44 148.836 42.5 148.836 39.5ZM202.897 39.5C202.897 41.55 202.147 43.325 200.647 44.825C199.197 46.275 197.447 47 195.397 47H169.072C167.022 47 165.247 46.275 163.747 44.825C162.297 43.325 161.572 41.55 161.572 39.5V22.175C161.572 19.725 162.547 17.75 164.497 16.25H161.572V13.325H187.822C189.922 13.325 191.322 12.975 192.022 12.275C192.722 11.575 193.072 10.175 193.072 8.075V3.35H202.822V8.75C202.822 12.45 201.597 14.75 199.147 15.65C201.647 17.15 202.897 19.325 202.897 22.175V39.5ZM193.147 36.5V23.75C193.147 21.7 192.397 19.95 190.897 18.5C189.447 17 187.697 16.25 185.647 16.25H178.822C176.772 16.25 174.997 17 173.497 18.5C172.047 19.95 171.322 21.7 171.322 23.75V36.5C171.322 38.55 172.047 40.325 173.497 41.825C174.997 43.275 176.772 44 178.822 44H185.647C187.697 44 189.447 43.275 190.897 41.825C192.397 40.325 193.147 38.55 193.147 36.5ZM247.209 39.5C247.209 41.55 246.459 43.325 244.959 44.825C243.509 46.275 241.759 47 239.709 47H229.134C227.084 47 225.309 46.275 223.809 44.825C222.359 43.325 221.634 41.55 221.634 39.5V28.625C221.634 27.625 222.009 26.8 222.759 26.15C223.509 25.45 224.384 25.1 225.384 25.1H231.309C232.359 25.1 233.234 25.475 233.934 26.225C234.684 26.925 235.059 27.8 235.059 28.85V33.95C235.059 34.95 234.684 35.825 233.934 36.575C233.234 37.325 232.384 37.7 231.384 37.7V39.5C231.384 41 231.534 42.05 231.834 42.65C232.284 43.55 233.159 44 234.459 44C236.459 44 237.459 42.5 237.459 39.5V21.5C237.459 19.4 236.984 18 236.034 17.3C235.134 16.6 233.584 16.25 231.384 16.25H218.784C217.834 16.25 217.084 16.65 216.534 17.45C215.984 18.2 215.709 19.05 215.709 20V27.125L218.709 33.875V39.5C218.709 41.55 217.959 43.325 216.459 44.825C215.009 46.275 213.259 47 211.209 47H204.384C202.334 47 200.709 46.275 199.509 44.825C198.259 43.375 197.634 41.6 197.634 39.5V33.125H202.884V40.25C202.884 41.2 203.159 42.075 203.709 42.875C204.259 43.625 205.009 44 205.959 44C206.859 44 207.559 43.6 208.059 42.8C208.559 42 208.809 41.125 208.809 40.175L208.884 33.875L205.959 27.125V20.825C205.959 18.775 206.684 17.025 208.134 15.575C209.634 14.075 211.409 13.325 213.459 13.325H239.709C241.759 13.325 243.509 14.075 244.959 15.575C246.459 17.025 247.209 18.775 247.209 20.825V39.5ZM329.535 55.4H311.835C309.635 55.4 307.76 54.55 306.21 52.85C304.71 51.2 303.96 49.25 303.96 47H295.635C293.585 47 291.81 46.275 290.31 44.825C288.86 43.325 288.135 41.55 288.135 39.5V35.675C288.135 33.625 288.86 31.875 290.31 30.425C291.81 28.925 293.585 28.175 295.635 28.175H306.51C308.56 28.175 310.235 28.625 311.535 29.525C312.985 30.575 313.71 32.1 313.71 34.1V44H315.96C318.46 44 319.71 42.5 319.71 39.5V20.675C319.71 17.675 318.71 16.175 316.71 16.175C314.71 16.175 313.71 17.675 313.71 20.675V25.55H303.96V20.675C303.96 17.675 302.96 16.175 300.96 16.175C299.66 16.175 298.785 16.625 298.335 17.525C298.035 18.125 297.885 19.175 297.885 20.675V25.55H288.135V20.675C288.135 18.625 288.86 16.875 290.31 15.425C291.81 13.925 293.585 13.175 295.635 13.175H302.01C306.51 13.175 308.76 15.05 308.76 18.8C308.76 15.05 311.01 13.175 315.51 13.175H321.96C324.01 13.175 325.76 13.925 327.21 15.425C328.71 16.875 329.46 18.625 329.46 20.675V39.5C329.46 41.55 328.71 43.325 327.21 44.825C325.76 46.275 324.01 47 321.96 47H313.71C313.71 50.25 315.46 51.875 318.96 51.875L329.535 51.8V55.4ZM303.96 44V35.675C303.96 32.675 302.96 31.175 300.96 31.175C299.66 31.175 298.785 31.625 298.335 32.525C298.035 33.125 297.885 34.175 297.885 35.675V39.5C297.885 42.5 299.16 44 301.71 44H303.96ZM373.845 39.5C373.845 41.55 373.095 43.325 371.595 44.825C370.145 46.275 368.395 47 366.345 47H340.02C337.97 47 336.195 46.275 334.695 44.825C333.245 43.325 332.52 41.55 332.52 39.5V22.175C332.52 19.725 333.495 17.75 335.445 16.25H332.52V13.325H358.77C360.87 13.325 362.27 12.975 362.97 12.275C363.67 11.575 364.02 10.175 364.02 8.075V3.35H373.77V8.75C373.77 12.45 372.545 14.75 370.095 15.65C372.595 17.15 373.845 19.325 373.845 22.175V39.5ZM364.095 36.5V23.75C364.095 21.7 363.345 19.95 361.845 18.5C360.395 17 358.645 16.25 356.595 16.25H349.77C347.72 16.25 345.945 17 344.445 18.5C342.995 19.95 342.27 21.7 342.27 23.75V36.5C342.27 38.55 342.995 40.325 344.445 41.825C345.945 43.275 347.72 44 349.77 44H356.595C358.645 44 360.395 43.275 361.845 41.825C363.345 40.325 364.095 38.55 364.095 36.5ZM391.156 39.5C391.156 41.55 390.406 43.325 388.906 44.825C387.456 46.275 385.706 47 383.656 47H374.581C372.531 47 370.906 46.275 369.706 44.825C368.456 43.375 367.831 41.6 367.831 39.5V33.125H373.831V40.25C373.831 41.2 374.231 42.075 375.031 42.875C375.831 43.625 376.706 44 377.656 44C378.606 44 379.456 43.625 380.206 42.875C381.006 42.075 381.406 41.2 381.406 40.25V20C381.406 19.05 381.131 18.2 380.581 17.45C380.031 16.65 379.306 16.25 378.406 16.25H374.581V13.325H383.656C385.706 13.325 387.456 14.075 388.906 15.575C390.406 17.025 391.156 18.775 391.156 20.825V39.5ZM473.454 39.5C473.454 41.55 472.704 43.325 471.204 44.825C469.754 46.275 468.004 47 465.954 47H459.504C455.004 47 452.754 46 452.754 44C452.754 46 450.504 47 446.004 47H439.629C437.579 47 435.804 46.275 434.304 44.825C432.854 43.325 432.129 41.55 432.129 39.5V31.625C432.129 29.275 433.379 28.1 435.879 28.1H441.804C442.854 28.1 443.729 28.475 444.429 29.225C445.179 29.925 445.554 30.8 445.554 31.85V35.45C445.554 36.45 445.179 37.325 444.429 38.075C443.729 38.825 442.879 39.2 441.879 39.2V39.5C441.879 41 442.029 42.05 442.329 42.65C442.779 43.55 443.654 44 444.954 44C446.954 44 447.954 42.5 447.954 39.5V33.125H457.704V39.5C457.704 42.5 458.704 44 460.704 44C462.704 44 463.704 42.5 463.704 39.5V22.25C463.704 18.25 461.704 16.25 457.704 16.25H441.879V13.325H465.954C468.004 13.325 469.804 14.3 471.354 16.25C472.754 18.1 473.454 20.075 473.454 22.175V39.5ZM513.19 39.5C513.19 41.6 512.34 43.375 510.64 44.825C508.94 46.275 507.04 47 504.94 47H483.94C481.89 47 480.115 46.275 478.615 44.825C477.165 43.325 476.44 41.55 476.44 39.5V20.825C476.44 18.775 477.165 17.025 478.615 15.575C480.115 14.075 481.89 13.325 483.94 13.325H504.94C507.04 13.325 508.94 14.05 510.64 15.5C512.34 16.95 513.19 18.725 513.19 20.825V39.5ZM503.515 36.5V23.75C503.515 21.7 502.765 19.95 501.265 18.5C499.815 17 498.065 16.25 496.015 16.25H493.69C491.64 16.25 489.865 17 488.365 18.5C486.915 19.95 486.19 21.7 486.19 23.75V36.5C486.19 38.55 486.915 40.325 488.365 41.825C489.865 43.275 491.64 44 493.69 44H496.015C498.065 44 499.815 43.275 501.265 41.825C502.765 40.325 503.515 38.55 503.515 36.5ZM557.536 39.5C557.536 41.55 556.786 43.325 555.286 44.825C553.836 46.275 552.086 47 550.036 47H523.711C521.661 47 519.886 46.275 518.386 44.825C516.936 43.325 516.211 41.55 516.211 39.5V28.625H525.961V38.375C525.961 39.925 526.511 41.25 527.611 42.35C528.711 43.45 530.036 44 531.586 44H542.161C543.711 44 545.036 43.45 546.136 42.35C547.236 41.25 547.786 39.925 547.786 38.375V36.425C547.786 34.875 547.236 33.55 546.136 32.45C545.036 31.35 543.711 30.8 542.161 30.8H531.586V26.75H542.161C545.911 26.75 547.786 25.425 547.786 22.775V20.6C547.786 17.7 545.786 16.25 541.786 16.25H516.211V13.325H547.786V15.275H550.036C555.036 15.325 557.536 17.125 557.536 20.675V23.075C557.536 25.475 556.636 27.4 554.836 28.85C555.786 29.7 556.436 30.4 556.786 30.95C557.286 31.85 557.536 33.075 557.536 34.625V39.5ZM586.097 39.5C586.097 41.55 585.347 43.325 583.847 44.825C582.397 46.275 580.647 47 578.597 47H568.022C565.972 47 564.197 46.275 562.697 44.825C561.247 43.325 560.522 41.55 560.522 39.5V28.625C560.522 27.625 560.897 26.8 561.647 26.15C562.397 25.45 563.272 25.1 564.272 25.1H570.197C571.247 25.1 572.122 25.475 572.822 26.225C573.572 26.925 573.947 27.8 573.947 28.85V33.95C573.947 34.95 573.572 35.825 572.822 36.575C572.122 37.325 571.272 37.7 570.272 37.7V39.5C570.272 41 570.422 42.05 570.722 42.65C571.172 43.55 572.047 44 573.347 44C575.347 44 576.347 42.5 576.347 39.5V21.5C576.347 19.4 575.872 18 574.922 17.3C574.022 16.6 572.472 16.25 570.272 16.25H545.522V13.325H578.597C580.647 13.325 582.397 14.075 583.847 15.575C585.347 17.025 586.097 18.775 586.097 20.825V39.5ZM630.412 39.5C630.412 41.55 629.662 43.325 628.162 44.825C626.712 46.275 624.962 47 622.912 47H616.462C614.012 47 612.412 46.875 611.662 46.625C610.512 46.225 609.862 45.35 609.712 44C609.562 45.35 608.912 46.225 607.762 46.625C607.012 46.875 605.412 47 602.962 47H596.587C594.537 47 592.762 46.275 591.262 44.825C589.812 43.325 589.087 41.55 589.087 39.5V22.4C589.087 21.15 589.412 19.925 590.062 18.725C590.712 17.525 591.587 16.7 592.687 16.25H589.087V13.325H615.337C617.437 13.325 618.837 12.975 619.537 12.275C620.237 11.575 620.587 10.175 620.587 8.075V3.35H630.337V8.75C630.337 12.4 629.162 14.7 626.812 15.65C629.212 17.15 630.412 19.325 630.412 22.175V39.5ZM620.662 39.5V22.25C620.662 18.25 618.662 16.25 614.662 16.25H604.912C600.862 16.25 598.837 18.25 598.837 22.25V39.5C598.837 41 598.987 42.05 599.287 42.65C599.737 43.55 600.612 44 601.912 44C603.912 44 604.912 42.5 604.912 39.5V34.625H614.662V39.5C614.662 42.5 615.662 44 617.662 44C619.662 44 620.662 42.5 620.662 39.5ZM674.723 39.5C674.723 41.55 673.973 43.325 672.473 44.825C671.023 46.275 669.273 47 667.223 47H640.898C638.848 47 637.073 46.275 635.573 44.825C634.123 43.325 633.398 41.55 633.398 39.5V22.175C633.398 19.725 634.373 17.75 636.323 16.25H633.398V13.325H659.648C661.748 13.325 663.148 12.975 663.848 12.275C664.548 11.575 664.898 10.175 664.898 8.075V3.35H674.648V8.75C674.648 12.45 673.423 14.75 670.973 15.65C673.473 17.15 674.723 19.325 674.723 22.175V39.5ZM664.973 36.5V23.75C664.973 21.7 664.223 19.95 662.723 18.5C661.273 17 659.523 16.25 657.473 16.25H650.648C648.598 16.25 646.823 17 645.323 18.5C643.873 19.95 643.148 21.7 643.148 23.75V36.5C643.148 38.55 643.873 40.325 645.323 41.825C646.823 43.275 648.598 44 650.648 44H657.473C659.523 44 661.273 43.275 662.723 41.825C664.223 40.325 664.973 38.55 664.973 36.5ZM692.035 39.5C692.035 41.55 691.285 43.325 689.785 44.825C688.335 46.275 686.585 47 684.535 47H675.46C673.41 47 671.785 46.275 670.585 44.825C669.335 43.375 668.71 41.6 668.71 39.5V33.125H674.71V40.25C674.71 41.2 675.11 42.075 675.91 42.875C676.71 43.625 677.585 44 678.535 44C679.485 44 680.335 43.625 681.085 42.875C681.885 42.075 682.285 41.2 682.285 40.25V20C682.285 19.05 682.01 18.2 681.46 17.45C680.91 16.65 680.185 16.25 679.285 16.25H675.46V13.325H684.535C686.585 13.325 688.335 14.075 689.785 15.575C691.285 17.025 692.035 18.775 692.035 20.825V39.5ZM774.408 55.4H756.708C754.508 55.4 752.633 54.55 751.083 52.85C749.583 51.2 748.833 49.25 748.833 47H740.508C738.458 47 736.683 46.275 735.183 44.825C733.733 43.325 733.008 41.55 733.008 39.5V35.675C733.008 33.625 733.733 31.875 735.183 30.425C736.683 28.925 738.458 28.175 740.508 28.175H751.383C753.433 28.175 755.108 28.625 756.408 29.525C757.858 30.575 758.583 32.1 758.583 34.1V44H760.833C763.333 44 764.583 42.5 764.583 39.5V20.675C764.583 17.675 763.583 16.175 761.583 16.175C759.583 16.175 758.583 17.675 758.583 20.675V25.55H748.833V20.675C748.833 17.675 747.833 16.175 745.833 16.175C744.533 16.175 743.658 16.625 743.208 17.525C742.908 18.125 742.758 19.175 742.758 20.675V25.55H733.008V20.675C733.008 18.625 733.733 16.875 735.183 15.425C736.683 13.925 738.458 13.175 740.508 13.175H746.883C751.383 13.175 753.633 15.05 753.633 18.8C753.633 15.05 755.883 13.175 760.383 13.175H766.833C768.883 13.175 770.633 13.925 772.083 15.425C773.583 16.875 774.333 18.625 774.333 20.675V39.5C774.333 41.55 773.583 43.325 772.083 44.825C770.633 46.275 768.883 47 766.833 47H758.583C758.583 50.25 760.333 51.875 763.833 51.875L774.408 51.8V55.4ZM748.833 44V35.675C748.833 32.675 747.833 31.175 745.833 31.175C744.533 31.175 743.658 31.625 743.208 32.525C742.908 33.125 742.758 34.175 742.758 35.675V39.5C742.758 42.5 744.033 44 746.583 44H748.833ZM818.718 39.5C818.718 41.55 817.968 43.325 816.468 44.825C815.018 46.275 813.268 47 811.218 47H784.893C782.843 47 781.068 46.275 779.568 44.825C778.118 43.325 777.393 41.55 777.393 39.5V22.175C777.393 19.725 778.368 17.75 780.318 16.25H777.393V13.325H803.643C805.743 13.325 807.143 12.975 807.843 12.275C808.543 11.575 808.893 10.175 808.893 8.075V3.35H818.643V8.75C818.643 12.45 817.418 14.75 814.968 15.65C817.468 17.15 818.718 19.325 818.718 22.175V39.5ZM808.968 36.5V23.75C808.968 21.7 808.218 19.95 806.718 18.5C805.268 17 803.518 16.25 801.468 16.25H794.643C792.593 16.25 790.818 17 789.318 18.5C787.868 19.95 787.143 21.7 787.143 23.75V36.5C787.143 38.55 787.868 40.325 789.318 41.825C790.818 43.275 792.593 44 794.643 44H801.468C803.518 44 805.268 43.275 806.718 41.825C808.218 40.325 808.968 38.55 808.968 36.5ZM836.029 39.5C836.029 41.55 835.279 43.325 833.779 44.825C832.329 46.275 830.579 47 828.529 47H819.454C817.404 47 815.779 46.275 814.579 44.825C813.329 43.375 812.704 41.6 812.704 39.5V33.125H818.704V40.25C818.704 41.2 819.104 42.075 819.904 42.875C820.704 43.625 821.579 44 822.529 44C823.479 44 824.329 43.625 825.079 42.875C825.879 42.075 826.279 41.2 826.279 40.25V20C826.279 19.05 826.004 18.2 825.454 17.45C824.904 16.65 824.179 16.25 823.279 16.25H819.454V13.325H828.529C830.579 13.325 832.329 14.075 833.779 15.575C835.279 17.025 836.029 18.775 836.029 20.825V39.5ZM918.327 39.5C918.327 41.55 917.577 43.325 916.077 44.825C914.627 46.275 912.877 47 910.827 47H904.377C899.877 47 897.627 46 897.627 44C897.627 46 895.377 47 890.877 47H884.502C882.452 47 880.677 46.275 879.177 44.825C877.727 43.325 877.002 41.55 877.002 39.5V31.625C877.002 29.275 878.252 28.1 880.752 28.1H886.677C887.727 28.1 888.602 28.475 889.302 29.225C890.052 29.925 890.427 30.8 890.427 31.85V35.45C890.427 36.45 890.052 37.325 889.302 38.075C888.602 38.825 887.752 39.2 886.752 39.2V39.5C886.752 41 886.902 42.05 887.202 42.65C887.652 43.55 888.527 44 889.827 44C891.827 44 892.827 42.5 892.827 39.5V33.125H902.577V39.5C902.577 42.5 903.577 44 905.577 44C907.577 44 908.577 42.5 908.577 39.5V22.25C908.577 18.25 906.577 16.25 902.577 16.25H886.752V13.325H910.827C912.877 13.325 914.677 14.3 916.227 16.25C917.627 18.1 918.327 20.075 918.327 22.175V39.5ZM958.063 39.5C958.063 41.6 957.213 43.375 955.513 44.825C953.813 46.275 951.913 47 949.813 47H928.813C926.763 47 924.988 46.275 923.488 44.825C922.038 43.325 921.313 41.55 921.313 39.5V20.825C921.313 18.775 922.038 17.025 923.488 15.575C924.988 14.075 926.763 13.325 928.813 13.325H949.813C951.913 13.325 953.813 14.05 955.513 15.5C957.213 16.95 958.063 18.725 958.063 20.825V39.5ZM948.388 36.5V23.75C948.388 21.7 947.638 19.95 946.138 18.5C944.688 17 942.938 16.25 940.888 16.25H938.563C936.513 16.25 934.738 17 933.238 18.5C931.788 19.95 931.063 21.7 931.063 23.75V36.5C931.063 38.55 931.788 40.325 933.238 41.825C934.738 43.275 936.513 44 938.563 44H940.888C942.938 44 944.688 43.275 946.138 41.825C947.638 40.325 948.388 38.55 948.388 36.5ZM1002.41 39.5C1002.41 41.55 1001.66 43.325 1000.16 44.825C998.709 46.275 996.959 47 994.909 47H988.459C986.009 47 984.409 46.875 983.659 46.625C982.509 46.225 981.859 45.35 981.709 44C981.559 45.35 980.909 46.225 979.759 46.625C979.009 46.875 977.409 47 974.959 47H968.584C966.534 47 964.759 46.275 963.259 44.825C961.809 43.325 961.084 41.55 961.084 39.5V22.4C961.084 21.15 961.409 19.925 962.059 18.725C962.709 17.525 963.584 16.7 964.684 16.25H961.084V13.325H992.659V14.525H994.909C997.009 14.525 998.784 15.275 1000.23 16.775C1001.68 18.275 1002.41 20.075 1002.41 22.175V39.5ZM992.659 39.5V22.25C992.659 18.25 990.659 16.25 986.659 16.25H976.909C972.859 16.25 970.834 18.25 970.834 22.25V39.5C970.834 41 970.984 42.05 971.284 42.65C971.734 43.55 972.609 44 973.909 44C975.909 44 976.909 42.5 976.909 39.5V34.625H986.659V39.5C986.659 42.5 987.659 44 989.659 44C991.659 44 992.659 42.5 992.659 39.5ZM1002.47 9.8C1002.47 11.85 1001.75 13.45 1000.3 14.6C998.846 15.7 997.071 16.25 994.971 16.25H985.146V13.325H986.721C989.371 13.325 991.171 13.15 992.121 12.8C993.521 12.25 994.221 11.1 994.221 9.35V5.675H993.396C993.396 8.675 992.421 10.175 990.471 10.175H984.771C982.771 10.175 981.771 8.925 981.771 6.425V4.1C981.771 3.05 982.146 2.175 982.896 1.475C983.596 0.724997 984.471 0.349997 985.521 0.349997H996.471C998.271 0.349997 999.721 0.949997 1000.82 2.15C1001.92 3.3 1002.47 4.775 1002.47 6.575V9.8ZM1042.22 39.5C1042.22 41.6 1041.37 43.375 1039.67 44.825C1037.97 46.275 1036.07 47 1033.97 47H1012.97C1010.92 47 1009.14 46.275 1007.64 44.825C1006.19 43.325 1005.47 41.55 1005.47 39.5V20.825C1005.47 18.775 1006.19 17.025 1007.64 15.575C1009.14 14.075 1010.92 13.325 1012.97 13.325H1033.97C1036.07 13.325 1037.97 14.05 1039.67 15.5C1041.37 16.95 1042.22 18.725 1042.22 20.825V39.5ZM1032.54 36.5V23.75C1032.54 21.7 1031.79 19.95 1030.29 18.5C1028.84 17 1027.09 16.25 1025.04 16.25H1022.72C1020.67 16.25 1018.89 17 1017.39 18.5C1015.94 19.95 1015.22 21.7 1015.22 23.75V36.5C1015.22 38.55 1015.94 40.325 1017.39 41.825C1018.89 43.275 1020.67 44 1022.72 44H1025.04C1027.09 44 1028.84 43.275 1030.29 41.825C1031.79 40.325 1032.54 38.55 1032.54 36.5ZM1086.56 39.5C1086.56 41.55 1085.81 43.325 1084.31 44.825C1082.86 46.275 1081.11 47 1079.06 47H1072.61C1070.16 47 1068.59 46.875 1067.89 46.625C1066.74 46.225 1066.06 45.3 1065.86 43.85C1065.71 45.3 1065.06 46.225 1063.91 46.625C1063.16 46.875 1061.56 47 1059.11 47H1052.74C1050.69 47 1048.91 46.275 1047.41 44.825C1045.96 43.325 1045.24 41.55 1045.24 39.5V29.15C1045.24 26.65 1046.19 24.6 1048.09 23C1046.19 21.9 1045.24 20.275 1045.24 18.125V16.475C1045.24 14.925 1045.79 13.6 1046.89 12.5C1047.99 11.4 1049.31 10.85 1050.86 10.85L1079.06 10.775C1081.16 10.775 1082.94 11.525 1084.39 13.025C1085.84 14.525 1086.56 16.325 1086.56 18.425V39.5ZM1061.06 19.25V15.2C1061.06 13.85 1060.04 13.175 1057.99 13.175C1055.99 13.175 1054.99 13.85 1054.99 15.2V19.25C1054.99 20.6 1056.01 21.275 1058.06 21.275C1060.06 21.275 1061.06 20.6 1061.06 19.25ZM1076.81 39.5V19.25C1076.81 15.25 1074.81 13.25 1070.81 13.25V18.125C1070.81 19.725 1070.26 21.2 1069.16 22.55C1068.06 23.85 1066.74 24.5 1065.19 24.5H1061.06C1058.91 24.5 1057.39 24.825 1056.49 25.475C1055.49 26.275 1054.99 27.7 1054.99 29.75V39.5C1054.99 41 1055.14 42.05 1055.44 42.65C1055.89 43.55 1056.76 44 1058.06 44C1060.06 44 1061.06 42.5 1061.06 39.5V36.125H1070.81V39.5C1070.81 42.5 1071.81 44 1073.81 44C1075.81 44 1076.81 42.5 1076.81 39.5ZM1130.88 39.5C1130.88 44.5 1129.13 47 1125.63 47H1119.03V44C1119.98 44 1120.6 43.275 1120.9 41.825C1121.05 41.025 1121.13 39.25 1121.13 36.5V23.75C1121.13 21.7 1120.38 19.95 1118.88 18.5C1117.43 17 1115.68 16.25 1113.63 16.25H1106.8C1104.75 16.25 1102.98 17 1101.48 18.5C1100.03 19.95 1099.3 21.7 1099.3 23.75V36.5C1099.3 39.1 1099.4 40.875 1099.6 41.825C1099.9 43.275 1100.58 44 1101.63 44V47H1094.8C1091.3 47 1089.55 44.5 1089.55 39.5V22.175C1089.55 19.725 1090.53 17.75 1092.48 16.25H1089.55V13.325H1115.8C1117.9 13.325 1119.3 12.975 1120 12.275C1120.7 11.575 1121.05 10.175 1121.05 8.075V3.35H1130.8V8.75C1130.8 12.45 1129.58 14.75 1127.13 15.65C1129.63 17.15 1130.88 19.325 1130.88 22.175V39.5ZM1175.19 39.5C1175.19 41.55 1174.44 43.325 1172.94 44.825C1171.49 46.275 1169.74 47 1167.69 47H1157.11C1155.06 47 1153.29 46.275 1151.79 44.825C1150.34 43.325 1149.61 41.55 1149.61 39.5V28.625C1149.61 27.625 1149.99 26.8 1150.74 26.15C1151.49 25.45 1152.36 25.1 1153.36 25.1H1159.29C1160.34 25.1 1161.21 25.475 1161.91 26.225C1162.66 26.925 1163.04 27.8 1163.04 28.85V33.95C1163.04 34.95 1162.66 35.825 1161.91 36.575C1161.21 37.325 1160.36 37.7 1159.36 37.7V39.5C1159.36 41 1159.51 42.05 1159.81 42.65C1160.26 43.55 1161.14 44 1162.44 44C1164.44 44 1165.44 42.5 1165.44 39.5V21.5C1165.44 19.4 1164.96 18 1164.01 17.3C1163.11 16.6 1161.56 16.25 1159.36 16.25H1146.76C1145.81 16.25 1145.06 16.65 1144.51 17.45C1143.96 18.2 1143.69 19.05 1143.69 20V27.125L1146.69 33.875V39.5C1146.69 41.55 1145.94 43.325 1144.44 44.825C1142.99 46.275 1141.24 47 1139.19 47H1132.36C1130.31 47 1128.69 46.275 1127.49 44.825C1126.24 43.375 1125.61 41.6 1125.61 39.5V33.125H1130.86V40.25C1130.86 41.2 1131.14 42.075 1131.69 42.875C1132.24 43.625 1132.99 44 1133.94 44C1134.84 44 1135.54 43.6 1136.04 42.8C1136.54 42 1136.79 41.125 1136.79 40.175L1136.86 33.875L1133.94 27.125V20.825C1133.94 18.775 1134.66 17.025 1136.11 15.575C1137.61 14.075 1139.39 13.325 1141.44 13.325H1167.69C1169.74 13.325 1171.49 14.075 1172.94 15.575C1174.44 17.025 1175.19 18.775 1175.19 20.825V39.5ZM1257.44 39.5C1257.44 41.55 1256.69 43.325 1255.19 44.825C1253.74 46.275 1251.99 47 1249.94 47H1239.44C1237.39 47 1235.61 46.275 1234.11 44.825C1232.66 43.325 1231.94 41.55 1231.94 39.5V33.875C1231.94 32.925 1231.66 32.075 1231.11 31.325C1230.56 30.525 1229.84 30.125 1228.94 30.125C1227.99 30.125 1227.24 30.525 1226.69 31.325C1226.14 32.075 1225.86 32.925 1225.86 33.875V47H1216.11V33.875C1216.11 31.825 1216.84 30.075 1218.29 28.625C1219.79 27.125 1221.56 26.375 1223.61 26.375H1234.19C1236.24 26.375 1237.99 27.125 1239.44 28.625C1240.94 30.075 1241.69 31.825 1241.69 33.875V40.25C1241.69 41.2 1241.94 42.075 1242.44 42.875C1242.99 43.625 1243.74 44 1244.69 44C1245.64 44 1246.36 43.625 1246.86 42.875C1247.41 42.075 1247.69 41.2 1247.69 40.25V19.25C1247.69 15.25 1245.69 13.25 1241.69 13.25V18.125C1241.69 19.675 1241.14 21 1240.04 22.1C1238.94 23.2 1237.61 23.75 1236.06 23.75H1221.74C1220.29 23.75 1218.99 23.3 1217.84 22.4C1216.69 21.45 1216.11 20.275 1216.11 18.875V16.475C1216.11 14.925 1216.61 13.6 1217.61 12.5C1218.66 11.35 1219.96 10.775 1221.51 10.775H1249.94C1252.04 10.775 1253.81 11.525 1255.26 13.025C1256.71 14.525 1257.44 16.325 1257.44 18.425V39.5ZM1231.94 19.25V15.2C1231.94 13.95 1231.31 13.325 1230.06 13.325H1227.74C1226.49 13.325 1225.86 13.95 1225.86 15.2V19.25C1225.86 20.5 1226.49 21.125 1227.74 21.125H1230.06C1231.31 21.125 1231.94 20.5 1231.94 19.25ZM1286 39.5C1286 41.55 1285.25 43.325 1283.75 44.825C1282.3 46.275 1280.55 47 1278.5 47H1267.92C1265.87 47 1264.1 46.275 1262.6 44.825C1261.15 43.325 1260.42 41.55 1260.42 39.5V20.825C1260.42 18.775 1261.15 17.025 1262.6 15.575C1264.1 14.075 1265.87 13.325 1267.92 13.325H1278.5C1280.6 13.325 1282.37 13.95 1283.82 15.2C1285.27 16.4 1286 18.025 1286 20.075V24.875C1286 26.925 1285.27 28.575 1283.82 29.825C1282.37 31.025 1280.6 31.625 1278.5 31.625H1270.17V40.25C1270.17 41.2 1270.45 42.075 1271 42.875C1271.55 43.625 1272.3 44 1273.25 44C1274.15 44 1274.9 43.575 1275.5 42.725C1276 42.025 1276.25 41.2 1276.25 40.25V34.7H1286V39.5ZM1276.25 24.875V20C1276.25 19.05 1275.97 18.2 1275.42 17.45C1274.87 16.65 1274.15 16.25 1273.25 16.25C1272.3 16.25 1271.55 16.65 1271 17.45C1270.45 18.2 1270.17 19.05 1270.17 20V24.875C1270.17 25.825 1270.45 26.7 1271 27.5C1271.55 28.25 1272.3 28.625 1273.25 28.625C1274.15 28.625 1274.9 28.2 1275.5 27.35C1276 26.65 1276.25 25.825 1276.25 24.875ZM1369.75 26.375H1365.48C1367.33 27.875 1368.25 29.825 1368.25 32.225V39.5C1368.25 41.55 1367.5 43.325 1366 44.825C1364.55 46.275 1362.8 47 1360.75 47H1334.43C1332.38 47 1330.6 46.275 1329.1 44.825C1327.65 43.325 1326.93 41.55 1326.93 39.5V32.225C1326.93 29.825 1327.85 27.875 1329.7 26.375H1325.43V23.45H1342.6C1342.35 23 1342.23 22.5 1342.23 21.95V17.825C1342.23 17.275 1342.38 16.75 1342.68 16.25H1326.93V13.325H1353.18C1355.28 13.325 1356.68 12.975 1357.38 12.275C1358.08 11.575 1358.43 10.175 1358.43 8.075V3.35H1368.18V8.75C1368.18 11.4 1367.6 13.325 1366.45 14.525C1365.3 15.675 1363.38 16.25 1360.68 16.25H1352.65C1352.95 16.75 1353.1 17.275 1353.1 17.825V21.95C1353.1 22.5 1352.98 23 1352.73 23.45H1369.75V26.375ZM1358.5 38V32.375C1358.5 30.725 1357.9 29.325 1356.7 28.175C1355.55 26.975 1354.15 26.375 1352.5 26.375H1342.68C1341.03 26.375 1339.6 26.975 1338.4 28.175C1337.25 29.325 1336.68 30.725 1336.68 32.375V38C1336.68 39.65 1337.25 41.075 1338.4 42.275C1339.6 43.425 1341.03 44 1342.68 44H1352.5C1354.15 44 1355.55 43.425 1356.7 42.275C1357.9 41.075 1358.5 39.65 1358.5 38ZM1412.49 39.5C1412.49 41.55 1411.74 43.325 1410.24 44.825C1408.79 46.275 1407.04 47 1404.99 47H1394.49C1392.44 47 1390.67 46.275 1389.17 44.825C1387.72 43.325 1386.99 41.55 1386.99 39.5V32.375C1386.99 31.425 1386.72 30.575 1386.17 29.825C1385.62 29.025 1384.89 28.625 1383.99 28.625C1383.04 28.625 1382.29 29.025 1381.74 29.825C1381.19 30.575 1380.92 31.425 1380.92 32.375V47H1371.17V32.375C1371.17 30.325 1371.89 28.575 1373.34 27.125C1374.84 25.625 1376.62 24.875 1378.67 24.875H1389.24C1391.29 24.875 1393.04 25.625 1394.49 27.125C1395.99 28.575 1396.74 30.325 1396.74 32.375V40.25C1396.74 41.2 1396.99 42.075 1397.49 42.875C1398.04 43.625 1398.79 44 1399.74 44C1400.69 44 1401.42 43.625 1401.92 42.875C1402.47 42.075 1402.74 41.2 1402.74 40.25V22.7C1402.74 18.4 1400.09 16.25 1394.79 16.25H1371.17V13.325H1397.42C1399.52 13.325 1400.92 12.975 1401.62 12.275C1402.32 11.575 1402.67 10.175 1402.67 8.075V3.35H1412.42V8.75C1412.42 12.45 1411.19 14.75 1408.74 15.65C1411.24 17.15 1412.49 19.325 1412.49 22.175V39.5ZM1434.3 71.75H1422.23C1420.38 71.75 1418.8 71.025 1417.5 69.575C1416.2 68.175 1415.55 66.525 1415.55 64.625H1410.68C1408.93 64.625 1407.43 64 1406.18 62.75C1404.93 61.5 1404.3 60 1404.3 58.25V54.95C1404.3 53.2 1404.93 51.7 1406.18 50.45C1407.43 49.2 1408.93 48.575 1410.68 48.575H1417.73C1420.78 48.575 1422.3 50.275 1422.3 53.675V62.075C1423.9 62.075 1424.8 61.85 1425 61.4C1425.1 61.25 1425.15 60.2 1425.15 58.25V42.95C1425.15 40.45 1424.15 39.2 1422.15 39.2H1415.25V35.975H1427.4C1429.15 35.975 1430.6 36.575 1431.75 37.775C1432.9 38.975 1433.48 40.45 1433.48 42.2V58.25C1433.48 60 1432.85 61.5 1431.6 62.75C1430.35 64 1428.85 64.625 1427.1 64.625H1422.3C1422.3 67.425 1423.8 68.8 1426.8 68.75L1434.3 68.675V71.75ZM1415.55 62.075V54.2C1415.55 52.4 1415.03 51.5 1413.98 51.5C1413.08 51.5 1412.63 52.4 1412.63 54.2V59C1412.63 60.25 1412.83 61.075 1413.23 61.475C1413.58 61.925 1414.35 62.125 1415.55 62.075ZM1478.63 39.5C1478.63 41.55 1477.88 43.325 1476.38 44.825C1474.93 46.275 1473.18 47 1471.13 47H1464.68C1462.33 47 1460.75 46.85 1459.95 46.55C1458.85 46.15 1458.18 45.3 1457.93 44C1457.68 45.35 1457 46.225 1455.9 46.625C1455.2 46.875 1453.63 47 1451.18 47H1444.8C1442.75 47 1440.98 46.275 1439.48 44.825C1438.03 43.325 1437.3 41.55 1437.3 39.5V22.4C1437.3 19.9 1438.25 17.85 1440.15 16.25H1437.3V13.325H1463.55C1465.65 13.325 1467.05 12.975 1467.75 12.275C1468.45 11.575 1468.8 10.175 1468.8 8.075V3.35H1478.55V8.75C1478.55 12.2 1477.53 14.425 1475.48 15.425C1477.58 16.475 1478.63 18.225 1478.63 20.675V24.65C1478.63 27.25 1477.48 28.55 1475.18 28.55C1477.48 28.55 1478.63 30.05 1478.63 33.05V39.5ZM1468.88 39.5V32.6C1468.88 30.95 1468.05 30.125 1466.4 30.125H1462.88V27.125H1466.48C1468.08 27.125 1468.88 26.075 1468.88 23.975V20.75C1468.88 17.75 1466.88 16.25 1462.88 16.25H1453.13C1449.08 16.25 1447.05 18.25 1447.05 22.25V39.5C1447.05 41 1447.2 42.05 1447.5 42.65C1447.95 43.55 1448.83 44 1450.13 44C1452.13 44 1453.13 42.5 1453.13 39.5V33.125H1462.88V39.5C1462.88 42.5 1463.88 44 1465.88 44C1467.88 44 1468.88 42.5 1468.88 39.5ZM1522.94 39.5C1522.94 41.55 1522.19 43.325 1520.69 44.825C1519.24 46.275 1517.49 47 1515.44 47H1508.99C1506.54 47 1504.94 46.875 1504.19 46.625C1503.04 46.225 1502.39 45.35 1502.24 44C1501.99 45.35 1501.32 46.225 1500.22 46.625C1499.52 46.875 1497.94 47 1495.49 47H1489.12C1487.07 47 1485.29 46.275 1483.79 44.825C1482.34 43.325 1481.62 41.55 1481.62 39.5V29.375C1481.62 27.025 1482.87 25.85 1485.37 25.85H1491.29C1492.34 25.85 1493.22 26.225 1493.92 26.975C1494.67 27.675 1495.04 28.55 1495.04 29.6V34.7C1495.04 35.7 1494.67 36.575 1493.92 37.325C1493.22 38.075 1492.37 38.45 1491.37 38.45V39.5C1491.37 41 1491.52 42.05 1491.82 42.65C1492.27 43.55 1493.14 44 1494.44 44C1496.44 44 1497.44 42.5 1497.44 39.5V33.125H1507.19V39.5C1507.19 42.5 1508.19 44 1510.19 44C1512.19 44 1513.19 42.5 1513.19 39.5V22.25C1513.19 18.25 1511.19 16.25 1507.19 16.25H1481.62V13.325H1513.19V14.525H1515.44C1517.54 14.525 1519.32 15.275 1520.77 16.775C1522.22 18.275 1522.94 20.075 1522.94 22.175V39.5ZM1551.5 39.5C1551.5 41.55 1550.75 43.325 1549.25 44.825C1547.8 46.275 1546.05 47 1544 47H1533.43C1531.38 47 1529.6 46.275 1528.1 44.825C1526.65 43.325 1525.93 41.55 1525.93 39.5V28.625C1525.93 27.625 1526.3 26.8 1527.05 26.15C1527.8 25.45 1528.68 25.1 1529.68 25.1H1535.6C1536.65 25.1 1537.53 25.475 1538.23 26.225C1538.98 26.925 1539.35 27.8 1539.35 28.85V33.95C1539.35 34.95 1538.98 35.825 1538.23 36.575C1537.53 37.325 1536.68 37.7 1535.68 37.7V39.5C1535.68 41 1535.83 42.05 1536.13 42.65C1536.58 43.55 1537.45 44 1538.75 44C1540.75 44 1541.75 42.5 1541.75 39.5V21.5C1541.75 19.4 1541.28 18 1540.33 17.3C1539.43 16.6 1537.88 16.25 1535.68 16.25H1510.93V13.325H1544C1546.05 13.325 1547.8 14.075 1549.25 15.575C1550.75 17.025 1551.5 18.775 1551.5 20.825V39.5ZM1595.82 39.5C1595.82 44.5 1594.07 47 1590.57 47H1583.97V44C1584.97 44 1585.59 43.525 1585.84 42.575C1585.99 42.025 1586.07 40.5 1586.07 38V19.25C1586.07 17.3 1585.59 16.025 1584.64 15.425C1583.94 14.975 1582.42 14.75 1580.07 14.75V21.125C1580.07 22.675 1579.52 23.875 1578.42 24.725C1577.37 25.575 1576.04 26 1574.44 26H1568.82C1567.02 26 1565.79 26.425 1565.14 27.275C1564.54 28.075 1564.24 29.4 1564.24 31.25V38C1564.24 40.4 1564.34 41.925 1564.54 42.575C1564.84 43.525 1565.52 44 1566.57 44V47H1559.74C1556.24 47 1554.49 44.5 1554.49 39.5V30.65C1554.49 28.15 1555.44 26.1 1557.34 24.5C1555.44 23.4 1554.49 21.775 1554.49 19.625V16.475C1554.49 14.925 1555.04 13.6 1556.14 12.5C1557.24 11.4 1558.57 10.85 1560.12 10.85L1588.32 10.775C1590.42 10.775 1592.19 11.525 1593.64 13.025C1595.09 14.525 1595.82 16.325 1595.82 18.425V39.5ZM1570.32 20V15.95C1570.32 14.6 1569.29 13.925 1567.24 13.925C1565.24 13.925 1564.24 14.6 1564.24 15.95V20C1564.24 21.35 1565.27 22.025 1567.32 22.025C1569.32 22.025 1570.32 21.35 1570.32 20ZM1640.13 39.5C1640.13 41.55 1639.38 43.325 1637.88 44.825C1636.43 46.275 1634.68 47 1632.63 47H1606.3C1604.25 47 1602.48 46.275 1600.98 44.825C1599.53 43.325 1598.8 41.55 1598.8 39.5V22.175C1598.8 19.725 1599.78 17.75 1601.73 16.25H1598.8V13.325H1625.05C1627.15 13.325 1628.55 12.975 1629.25 12.275C1629.95 11.575 1630.3 10.175 1630.3 8.075V3.35H1640.05V8.75C1640.05 12.45 1638.83 14.75 1636.38 15.65C1638.88 17.15 1640.13 19.325 1640.13 22.175V39.5ZM1630.38 36.5V23.75C1630.38 21.7 1629.63 19.95 1628.13 18.5C1626.68 17 1624.93 16.25 1622.88 16.25H1616.05C1614 16.25 1612.23 17 1610.73 18.5C1609.28 19.95 1608.55 21.7 1608.55 23.75V36.5C1608.55 38.55 1609.28 40.325 1610.73 41.825C1612.23 43.275 1614 44 1616.05 44H1622.88C1624.93 44 1626.68 43.275 1628.13 41.825C1629.63 40.325 1630.38 38.55 1630.38 36.5ZM1657.44 39.5C1657.44 41.55 1656.69 43.325 1655.19 44.825C1653.74 46.275 1651.99 47 1649.94 47H1640.87C1638.82 47 1637.19 46.275 1635.99 44.825C1634.74 43.375 1634.12 41.6 1634.12 39.5V33.125H1640.12V40.25C1640.12 41.2 1640.52 42.075 1641.32 42.875C1642.12 43.625 1642.99 44 1643.94 44C1644.89 44 1645.74 43.625 1646.49 42.875C1647.29 42.075 1647.69 41.2 1647.69 40.25V20C1647.69 19.05 1647.42 18.2 1646.87 17.45C1646.32 16.65 1645.59 16.25 1644.69 16.25H1640.87V13.325H1649.94C1651.99 13.325 1653.74 14.075 1655.19 15.575C1656.69 17.025 1657.44 18.775 1657.44 20.825V39.5ZM1675.1 43.625C1675.1 44.675 1674.72 45.575 1673.97 46.325C1673.27 47.025 1672.4 47.375 1671.35 47.375H1664.22C1663.17 47.375 1662.27 47.025 1661.52 46.325C1660.82 45.575 1660.47 44.675 1660.47 43.625V38.825C1660.47 37.775 1660.82 36.9 1661.52 36.2C1662.27 35.45 1663.17 35.075 1664.22 35.075H1671.35C1672.4 35.075 1673.27 35.45 1673.97 36.2C1674.72 36.9 1675.1 37.775 1675.1 38.825V43.625Z" fill="black"/>
</svg>
