<svg width="1571" height="69" viewBox="0 0 1571 69" fill="none" xmlns="http://www.w3.org/2000/svg">
<path d="M41.25 30C41.25 34.8 40.5 38.35 39 40.65C37.15 43.55 33.95 45 29.4 45C27.05 45 25.375 44.825 24.375 44.475C22.975 43.975 21.75 42.9 20.7 41.25C18.95 43.75 15.975 45 11.775 45C8.225 45 5.375 44 3.225 42C1.075 40 0 37.25 0 33.75C0 26.1 3.325 22.275 9.975 22.275C10.725 22.275 11.525 22.325 12.375 22.425C12.625 21.725 12.95 21.375 13.35 21.375C14.15 21.375 14.55 22.375 14.55 24.375C14.55 26.375 14.15 27.375 13.35 27.375C12.95 27.375 12.625 27 12.375 26.25C10.375 26.35 9.025 27.15 8.325 28.65C7.825 29.7 7.575 31.4 7.575 33.75C7.575 38.75 9.1 41.25 12.15 41.25C14.35 41.25 15.775 40.025 16.425 37.575C16.775 36.275 16.9 34.1 16.8 31.05C16.1 30.8 15.75 30.525 15.75 30.225C15.75 29.425 17.475 29.025 20.925 29.025C24.375 29.025 26.1 29.425 26.1 30.225C26.1 30.575 25.6 30.875 24.6 31.125L24.525 34.05C24.425 38.85 26 41.25 29.25 41.25C31.3 41.25 32.625 39.775 33.225 36.825C33.475 35.625 33.6 33.35 33.6 30C33.6 23.95 31.8 19.8 28.2 17.55C25.55 15.9 21.075 15.05 14.775 15C14.625 16.1 14.35 16.65 13.95 16.65C13.3 16.65 12.975 15.55 12.975 13.35C12.975 11.2 13.3 10.125 13.95 10.125C14.25 10.125 14.5 10.5 14.7 11.25H20.85C34.45 11.25 41.25 17.5 41.25 30ZM84.7559 28.125C84.7559 33.625 82.6309 37.9 78.3809 40.95C74.6309 43.65 69.9059 45 64.2059 45C58.6059 45 53.8809 43.575 50.0309 40.725C45.6809 37.575 43.5059 33.3 43.5059 27.9C43.5059 16.8 47.8309 11.25 56.4809 11.25C64.2309 11.25 68.1059 14.35 68.1059 20.55C68.1059 24.75 66.6059 27.525 63.6059 28.875C61.7559 29.725 58.4559 30.15 53.7059 30.15C53.5059 30.75 53.2559 31.05 52.9559 31.05C52.3059 31.05 51.9809 30.125 51.9809 28.275C51.9809 26.475 52.3059 25.575 52.9559 25.575C53.2059 25.575 53.4309 25.8 53.6309 26.25C56.2309 26.2 57.9809 25.75 58.8809 24.9C59.8309 24 60.3059 22.25 60.3059 19.65C60.3059 16.55 59.0309 15 56.4809 15C52.8809 15 51.0809 19.175 51.0809 27.525C51.0809 31.825 52.2059 35.2 54.4559 37.65C56.7059 40.05 59.9559 41.25 64.2059 41.25C69.2559 41.25 72.6559 40.3 74.4059 38.4C76.2059 36.5 77.1059 33 77.1059 27.9C77.1059 20 74.5809 15.725 69.5309 15.075C69.3309 15.425 69.1059 15.6 68.8559 15.6C68.0559 15.6 67.6559 14.75 67.6559 13.05C67.6559 11.4 68.0559 10.575 68.8559 10.575C69.1559 10.575 69.4059 10.8 69.6059 11.25C70.1059 11.3 71.2809 11.3 73.1309 11.25C73.1309 11.25 74.4559 11.25 77.1059 11.25V12.9C82.2059 15.3 84.7559 20.375 84.7559 28.125ZM110.037 28.5C109.937 32.95 109.112 36.625 107.562 39.525C105.512 43.175 102.462 45 98.4117 45C90.8117 45 87.0117 41.25 87.0117 33.75C87.0117 30.35 87.9617 27.6 89.8617 25.5C91.7617 23.4 94.3867 22.35 97.7367 22.35C98.2867 22.35 98.8617 22.375 99.4617 22.425C99.6617 21.825 99.8867 21.525 100.137 21.525C100.787 21.525 101.112 22.575 101.112 24.675C101.112 26.775 100.787 27.825 100.137 27.825C99.7867 27.825 99.5117 27.3 99.3117 26.25C97.2617 26.45 95.8867 27.4 95.1867 29.1C94.7367 30.15 94.5367 31.925 94.5867 34.425C94.5867 35.975 94.8367 37.375 95.3367 38.625C95.9867 40.375 96.9367 41.25 98.1867 41.25C99.6367 41.25 100.762 39.4 101.562 35.7C102.112 33.1 102.387 30.7 102.387 28.5C102.387 24.4 102.037 21.425 101.337 19.575C100.187 16.525 97.9367 15 94.5867 15H73.3617L73.0617 11.25H98.1867C102.137 11.25 105.212 13.225 107.412 17.175C109.262 20.475 110.137 24.25 110.037 28.5ZM110.03 54.75C110.03 57.9 108.98 60.075 106.88 61.275C105.48 62.075 103.105 62.525 99.7553 62.625C99.5553 63.425 99.2553 63.825 98.8553 63.825C98.1553 63.825 97.8053 63.075 97.8053 61.575C97.8053 60.025 98.1553 59.25 98.8553 59.25C99.1553 59.25 99.4053 59.5 99.6053 60C101.605 59.95 102.955 59.55 103.655 58.8C104.355 58.1 104.705 56.75 104.705 54.75C104.705 51.25 103.68 49.5 101.63 49.5C99.7303 49.5 98.6803 50.375 98.4803 52.125C98.3803 52.775 98.3303 53.725 98.3303 54.975C99.1303 55.125 99.5303 55.325 99.5303 55.575C99.5303 56.075 98.2803 56.325 95.7803 56.325C93.3303 56.325 92.1053 56.075 92.1053 55.575C92.1053 55.375 92.3803 55.2 92.9303 55.05C92.9303 53.25 92.8053 52 92.5553 51.3C92.1053 50.1 91.1053 49.5 89.5553 49.5C87.5053 49.5 86.4803 51.25 86.4803 54.75C86.4803 56.85 86.9053 58.25 87.7553 58.95C88.6053 59.65 90.1053 60 92.2553 60C92.4553 59.55 92.7053 59.325 93.0053 59.325C93.6553 59.325 93.9803 60.025 93.9803 61.425C93.9803 62.825 93.6553 63.525 93.0053 63.525C92.6553 63.525 92.3803 63.225 92.1803 62.625C87.8803 62.575 85.2803 62.375 84.3803 62.025C82.2303 61.175 81.1553 58.95 81.1553 55.35C81.1553 49.7 83.8303 46.875 89.1803 46.875C91.8803 46.875 94.0303 47.75 95.6303 49.5C97.2303 47.75 99.6053 46.875 102.755 46.875C105.055 46.875 106.855 47.6 108.155 49.05C109.405 50.5 110.03 52.4 110.03 54.75ZM154.429 4.65C154.429 4.9 153.929 5.125 152.929 5.325C152.979 5.925 153.004 6.5 153.004 7.05C153.004 10.6 151.679 12.925 149.029 14.025C148.479 14.275 147.729 14.475 146.779 14.625C151.329 17.675 153.604 22.85 153.604 30.15C153.604 40.05 149.779 45 142.129 45C138.379 45 135.354 43.75 133.054 41.25C130.754 43.75 127.779 45 124.129 45C116.279 45 112.354 40.05 112.354 30.15C112.354 23.15 114.454 18.1 118.654 15H113.704C113.504 15.95 113.229 16.425 112.879 16.425C112.179 16.425 111.829 15.325 111.829 13.125C111.829 10.975 112.179 9.9 112.879 9.9C113.229 9.9 113.504 10.35 113.704 11.25H139.804C143.554 11.25 145.429 9.925 145.429 7.275C145.429 6.675 145.354 5.975 145.204 5.175C144.504 5.025 144.154 4.85 144.154 4.65C144.154 4.05 145.854 3.75 149.254 3.75C152.704 3.75 154.429 4.05 154.429 4.65ZM145.954 30.975C145.954 20.325 141.654 15 133.054 15C124.304 15 119.929 19.825 119.929 29.475C119.929 37.325 121.529 41.25 124.729 41.25C127.729 41.25 129.204 38.125 129.154 31.875C128.354 31.675 127.954 31.45 127.954 31.2C127.954 30.5 129.704 30.15 133.204 30.15C136.704 30.15 138.454 30.5 138.454 31.2C138.454 31.5 137.954 31.75 136.954 31.95C136.954 38.15 138.504 41.25 141.604 41.25C144.504 41.25 145.954 37.825 145.954 30.975ZM194.934 4.65C194.934 4.9 194.434 5.125 193.434 5.325C193.484 5.925 193.509 6.5 193.509 7.05C193.509 10.6 192.184 12.925 189.534 14.025C188.934 14.275 188.109 14.475 187.059 14.625C191.209 17.475 193.284 21.975 193.284 28.125C193.284 33.575 191.509 37.8 187.959 40.8C184.609 43.6 180.159 45 174.609 45C168.859 45 164.359 43.65 161.109 40.95C157.609 38.05 155.859 33.775 155.859 28.125C155.859 22.175 157.609 17.8 161.109 15H157.434C157.234 16.1 156.909 16.65 156.459 16.65C155.709 16.65 155.334 15.55 155.334 13.35C155.334 11.15 155.709 10.05 156.459 10.05C156.809 10.05 157.109 10.45 157.359 11.25H180.309C184.059 11.25 185.934 9.925 185.934 7.275C185.934 6.675 185.859 5.975 185.709 5.175C185.009 5.025 184.659 4.85 184.659 4.65C184.659 4.05 186.359 3.75 189.759 3.75C193.209 3.75 194.934 4.05 194.934 4.65ZM186.159 28.125C186.159 24.225 185.259 21.125 183.459 18.825C181.509 16.275 178.634 15 174.834 15C167.234 15 163.434 19.375 163.434 28.125C163.434 32.025 164.334 35.125 166.134 37.425C168.134 39.975 171.034 41.25 174.834 41.25C182.384 41.25 186.159 36.875 186.159 28.125ZM232.155 28.5C232.155 32.9 231.33 36.575 229.68 39.525C227.63 43.175 224.58 45 220.53 45C216.93 45 214.13 44.025 212.13 42.075C210.13 40.125 209.13 37.35 209.13 33.75C209.13 30.35 210.08 27.6 211.98 25.5C213.88 23.4 216.505 22.35 219.855 22.35C220.305 22.35 220.93 22.375 221.73 22.425C221.83 22.025 221.98 21.825 222.18 21.825C222.68 21.825 222.93 22.75 222.93 24.6C222.93 26.45 222.68 27.375 222.18 27.375C221.93 27.375 221.73 27 221.58 26.25C218.33 26.4 216.705 28.825 216.705 33.525C216.705 38.675 217.905 41.25 220.305 41.25C221.705 41.25 222.805 39.425 223.605 35.775C224.205 33.075 224.505 30.65 224.505 28.5C224.505 24.95 223.93 22 222.78 19.65C221.28 16.55 218.93 15 215.73 15C208.68 15 205.155 17.375 205.155 22.125C205.155 23.375 205.38 25.275 205.83 27.825C206.28 30.325 206.505 32.2 206.505 33.45C206.505 41.15 203.005 45 196.005 45C188.905 45 185.38 40.25 185.43 30.75H193.23V33.075C193.23 38.525 194.28 41.25 196.38 41.25C198.38 41.25 199.38 39.525 199.38 36.075C199.38 34.525 199.055 32.2 198.405 29.1C197.755 26 197.43 23.675 197.43 22.125C197.43 18.025 199.605 15.05 203.955 13.2C207.005 11.9 210.93 11.25 215.73 11.25C220.73 11.25 224.755 12.875 227.805 16.125C230.705 19.325 232.155 23.45 232.155 28.5ZM311.88 27.9C311.88 32.45 310.505 36.2 307.755 39.15C305.005 42.05 301.33 43.875 296.73 44.625C297.88 46.475 300.08 47.45 303.33 47.55C303.58 46.8 303.88 46.425 304.23 46.425C305.03 46.425 305.43 47.45 305.43 49.5C305.43 51.55 305.03 52.575 304.23 52.575C303.83 52.575 303.53 52.175 303.33 51.375H302.655C295.155 51.375 290.53 49.25 288.78 45C278.33 44.8 273.105 41.425 273.105 34.875C273.105 29.125 276.78 26.25 284.13 26.25C287.28 26.25 289.605 26.675 291.105 27.525C293.005 28.625 294.155 30.575 294.555 33.375C294.905 35.825 295.205 38.325 295.455 40.875C298.955 40.175 301.38 38.325 302.73 35.325C303.73 33.075 304.23 29.925 304.23 25.875C304.23 22.825 304.055 20.575 303.705 19.125C303.055 16.375 301.655 15 299.505 15C296.655 15 295.23 17.25 295.23 21.75C295.98 22 296.355 22.25 296.355 22.5C296.355 23.35 294.63 23.775 291.18 23.775C287.78 23.775 286.08 23.35 286.08 22.5C286.08 22.2 286.53 21.925 287.43 21.675C287.33 17.225 285.755 15 282.705 15C279.755 15 278.255 17.225 278.205 21.675C279.305 21.875 279.855 22.15 279.855 22.5C279.855 23.35 278.13 23.775 274.68 23.775C271.23 23.775 269.505 23.35 269.505 22.5C269.505 22.25 269.88 22 270.63 21.75C270.73 17.7 271.83 14.875 273.93 13.275C275.73 11.875 278.73 11.175 282.93 11.175C286.18 11.175 288.98 12.45 291.33 15C293.73 12.5 296.63 11.25 300.03 11.25C304.73 11.25 308.005 12.95 309.855 16.35C311.205 18.85 311.88 22.7 311.88 27.9ZM287.73 40.95C287.68 39.55 287.555 37.45 287.355 34.65C287.055 31.65 286.13 30.15 284.58 30.15C282.33 30.15 281.205 31.7 281.205 34.8C281.205 38.05 283.38 40.1 287.73 40.95ZM353.211 4.65C353.211 4.9 352.711 5.125 351.711 5.325C351.761 5.925 351.786 6.5 351.786 7.05C351.786 10.6 350.461 12.925 347.811 14.025C347.211 14.275 346.386 14.475 345.336 14.625C349.486 17.475 351.561 21.975 351.561 28.125C351.561 33.575 349.786 37.8 346.236 40.8C342.886 43.6 338.436 45 332.886 45C327.136 45 322.636 43.65 319.386 40.95C315.886 38.05 314.136 33.775 314.136 28.125C314.136 22.175 315.886 17.8 319.386 15H315.711C315.511 16.1 315.186 16.65 314.736 16.65C313.986 16.65 313.611 15.55 313.611 13.35C313.611 11.15 313.986 10.05 314.736 10.05C315.086 10.05 315.386 10.45 315.636 11.25H338.586C342.336 11.25 344.211 9.925 344.211 7.275C344.211 6.675 344.136 5.975 343.986 5.175C343.286 5.025 342.936 4.85 342.936 4.65C342.936 4.05 344.636 3.75 348.036 3.75C351.486 3.75 353.211 4.05 353.211 4.65ZM344.436 28.125C344.436 24.225 343.536 21.125 341.736 18.825C339.786 16.275 336.911 15 333.111 15C325.511 15 321.711 19.375 321.711 28.125C321.711 32.025 322.611 35.125 324.411 37.425C326.411 39.975 329.311 41.25 333.111 41.25C340.661 41.25 344.436 36.875 344.436 28.125ZM368.756 27.75C368.756 32.55 367.831 36.475 365.981 39.525C363.781 43.175 360.406 45 355.856 45C352.056 45 349.056 43.675 346.856 41.025C344.806 38.575 343.781 35.4 343.781 31.5H351.731C351.731 34.55 351.881 36.625 352.181 37.725C352.831 40.075 354.181 41.25 356.231 41.25C358.081 41.25 359.406 39.425 360.206 35.775C360.706 33.525 360.956 30.975 360.956 28.125C360.956 19.375 358.881 15 354.731 15H353.231C353.031 15.8 352.781 16.2 352.481 16.2C351.931 16.2 351.656 15.25 351.656 13.35C351.656 11.5 351.931 10.575 352.481 10.575C352.731 10.575 352.931 10.8 353.081 11.25H355.331C359.581 11.25 362.956 12.975 365.456 16.425C367.656 19.525 368.756 23.3 368.756 27.75ZM448.477 30C448.477 34.8 447.727 38.35 446.227 40.65C444.377 43.55 441.177 45 436.627 45C434.277 45 432.602 44.825 431.602 44.475C430.202 43.975 428.977 42.9 427.927 41.25C426.177 43.75 423.202 45 419.002 45C415.452 45 412.602 44 410.452 42C408.302 40 407.227 37.25 407.227 33.75C407.227 26.1 410.552 22.275 417.202 22.275C417.952 22.275 418.752 22.325 419.602 22.425C419.852 21.725 420.177 21.375 420.577 21.375C421.377 21.375 421.777 22.375 421.777 24.375C421.777 26.375 421.377 27.375 420.577 27.375C420.177 27.375 419.852 27 419.602 26.25C417.602 26.35 416.252 27.15 415.552 28.65C415.052 29.7 414.802 31.4 414.802 33.75C414.802 38.75 416.327 41.25 419.377 41.25C421.577 41.25 423.002 40.025 423.652 37.575C424.002 36.275 424.127 34.1 424.027 31.05C423.327 30.8 422.977 30.525 422.977 30.225C422.977 29.425 424.702 29.025 428.152 29.025C431.602 29.025 433.327 29.425 433.327 30.225C433.327 30.575 432.827 30.875 431.827 31.125L431.752 34.05C431.652 38.85 433.227 41.25 436.477 41.25C438.527 41.25 439.852 39.775 440.452 36.825C440.702 35.625 440.827 33.35 440.827 30C440.827 23.95 439.027 19.8 435.427 17.55C432.777 15.9 428.302 15.05 422.002 15C421.852 16.1 421.577 16.65 421.177 16.65C420.527 16.65 420.202 15.55 420.202 13.35C420.202 11.2 420.527 10.125 421.177 10.125C421.477 10.125 421.727 10.5 421.927 11.25H428.077C441.677 11.25 448.477 17.5 448.477 30ZM484.482 28.125C484.482 33.325 482.982 37.45 479.982 40.5C476.982 43.5 472.857 45 467.607 45C462.257 45 458.107 43.525 455.157 40.575C452.207 37.575 450.732 33.425 450.732 28.125C450.732 22.875 452.207 18.75 455.157 15.75C458.157 12.75 462.307 11.25 467.607 11.25C472.857 11.25 476.982 12.775 479.982 15.825C482.982 18.825 484.482 22.925 484.482 28.125ZM476.532 28.125C476.532 24.575 475.907 21.65 474.657 19.35C473.107 16.45 470.707 15 467.457 15C461.357 15 458.307 19.375 458.307 28.125C458.307 36.875 461.357 41.25 467.457 41.25C470.707 41.25 473.107 39.8 474.657 36.9C475.907 34.6 476.532 31.675 476.532 28.125ZM526.518 33C526.518 37.05 524.243 40.175 519.693 42.375C516.093 44.125 512.018 45 507.468 45C500.818 45 495.818 43.7 492.468 41.1C488.768 38.15 486.868 33.45 486.768 27C486.118 26.75 485.793 26.475 485.793 26.175C485.793 25.325 487.568 24.9 491.118 24.9C494.618 24.9 496.368 25.325 496.368 26.175C496.368 26.625 495.693 26.975 494.343 27.225C494.443 32.125 495.393 35.625 497.193 37.725C499.193 40.075 502.618 41.25 507.468 41.25C510.468 41.25 513.018 40.65 515.118 39.45C517.618 37.95 518.868 35.8 518.868 33C518.868 28.45 515.668 26.175 509.268 26.175C509.768 26.175 507.818 26.25 503.418 26.4C503.218 27.25 502.943 27.675 502.593 27.675C501.893 27.675 501.543 26.6 501.543 24.45C501.543 22.25 501.893 21.15 502.593 21.15C502.943 21.15 503.218 21.6 503.418 22.5C509.218 22.6 512.118 21.4 512.118 18.9C512.118 17.25 511.593 16.15 510.543 15.6C509.793 15.2 508.518 15 506.718 15H488.118C487.918 15.95 487.643 16.425 487.293 16.425C486.593 16.425 486.243 15.325 486.243 13.125C486.243 10.975 486.593 9.9 487.293 9.9C487.643 9.9 487.918 10.35 488.118 11.25H518.868V15H519.243C519.943 16.1 520.293 17.475 520.293 19.125C520.293 21.425 519.318 23.1 517.368 24.15C523.468 25.05 526.518 28 526.518 33ZM551.76 28.5C551.66 32.95 550.835 36.625 549.285 39.525C547.235 43.175 544.185 45 540.135 45C532.535 45 528.735 41.25 528.735 33.75C528.735 30.35 529.685 27.6 531.585 25.5C533.485 23.4 536.11 22.35 539.46 22.35C540.01 22.35 540.585 22.375 541.185 22.425C541.385 21.825 541.61 21.525 541.86 21.525C542.51 21.525 542.835 22.575 542.835 24.675C542.835 26.775 542.51 27.825 541.86 27.825C541.51 27.825 541.235 27.3 541.035 26.25C538.985 26.45 537.61 27.4 536.91 29.1C536.46 30.15 536.26 31.925 536.31 34.425C536.31 35.975 536.56 37.375 537.06 38.625C537.71 40.375 538.66 41.25 539.91 41.25C541.36 41.25 542.485 39.4 543.285 35.7C543.835 33.1 544.11 30.7 544.11 28.5C544.11 24.4 543.76 21.425 543.06 19.575C541.91 16.525 539.66 15 536.31 15H515.085L514.785 11.25H539.91C543.86 11.25 546.935 13.225 549.135 17.175C550.985 20.475 551.86 24.25 551.76 28.5ZM596.079 4.65C596.079 4.9 595.579 5.125 594.579 5.325C594.629 5.925 594.654 6.5 594.654 7.05C594.654 10.6 593.329 12.925 590.679 14.025C590.129 14.275 589.379 14.475 588.429 14.625C592.979 17.675 595.254 22.85 595.254 30.15C595.254 40.05 591.429 45 583.779 45C580.029 45 577.004 43.75 574.704 41.25C572.404 43.75 569.429 45 565.779 45C557.929 45 554.004 40.05 554.004 30.15C554.004 23.15 556.104 18.1 560.304 15H555.354C555.154 15.95 554.879 16.425 554.529 16.425C553.829 16.425 553.479 15.325 553.479 13.125C553.479 10.975 553.829 9.9 554.529 9.9C554.879 9.9 555.154 10.35 555.354 11.25H581.454C585.204 11.25 587.079 9.925 587.079 7.275C587.079 6.675 587.004 5.975 586.854 5.175C586.154 5.025 585.804 4.85 585.804 4.65C585.804 4.05 587.504 3.75 590.904 3.75C594.354 3.75 596.079 4.05 596.079 4.65ZM587.604 30.975C587.604 20.325 583.304 15 574.704 15C565.954 15 561.579 19.825 561.579 29.475C561.579 37.325 563.179 41.25 566.379 41.25C569.379 41.25 570.854 38.125 570.804 31.875C570.004 31.675 569.604 31.45 569.604 31.2C569.604 30.5 571.354 30.15 574.854 30.15C578.354 30.15 580.104 30.5 580.104 31.2C580.104 31.5 579.604 31.75 578.604 31.95C578.604 38.15 580.154 41.25 583.254 41.25C586.154 41.25 587.604 37.825 587.604 30.975ZM636.585 4.65C636.585 4.9 636.085 5.125 635.085 5.325C635.135 5.925 635.16 6.5 635.16 7.05C635.16 10.6 633.835 12.925 631.185 14.025C630.585 14.275 629.76 14.475 628.71 14.625C632.86 17.475 634.935 21.975 634.935 28.125C634.935 33.575 633.16 37.8 629.61 40.8C626.26 43.6 621.81 45 616.26 45C610.51 45 606.01 43.65 602.76 40.95C599.26 38.05 597.51 33.775 597.51 28.125C597.51 22.175 599.26 17.8 602.76 15H599.085C598.885 16.1 598.56 16.65 598.11 16.65C597.36 16.65 596.985 15.55 596.985 13.35C596.985 11.15 597.36 10.05 598.11 10.05C598.46 10.05 598.76 10.45 599.01 11.25H621.96C625.71 11.25 627.585 9.925 627.585 7.275C627.585 6.675 627.51 5.975 627.36 5.175C626.66 5.025 626.31 4.85 626.31 4.65C626.31 4.05 628.01 3.75 631.41 3.75C634.86 3.75 636.585 4.05 636.585 4.65ZM627.81 28.125C627.81 24.225 626.91 21.125 625.11 18.825C623.16 16.275 620.285 15 616.485 15C608.885 15 605.085 19.375 605.085 28.125C605.085 32.025 605.985 35.125 607.785 37.425C609.785 39.975 612.685 41.25 616.485 41.25C624.035 41.25 627.81 36.875 627.81 28.125ZM652.13 27.75C652.13 32.55 651.205 36.475 649.355 39.525C647.155 43.175 643.78 45 639.23 45C635.43 45 632.43 43.675 630.23 41.025C628.18 38.575 627.155 35.4 627.155 31.5H635.105C635.105 34.55 635.255 36.625 635.555 37.725C636.205 40.075 637.555 41.25 639.605 41.25C641.455 41.25 642.78 39.425 643.58 35.775C644.08 33.525 644.33 30.975 644.33 28.125C644.33 19.375 642.255 15 638.105 15H636.605C636.405 15.8 636.155 16.2 635.855 16.2C635.305 16.2 635.03 15.25 635.03 13.35C635.03 11.5 635.305 10.575 635.855 10.575C636.105 10.575 636.305 10.8 636.455 11.25H638.705C642.955 11.25 646.33 12.975 648.83 16.425C651.03 19.525 652.13 23.3 652.13 27.75ZM731.851 27.9C731.851 32.45 730.476 36.2 727.726 39.15C724.976 42.05 721.301 43.875 716.701 44.625C717.851 46.475 720.051 47.45 723.301 47.55C723.551 46.8 723.851 46.425 724.201 46.425C725.001 46.425 725.401 47.45 725.401 49.5C725.401 51.55 725.001 52.575 724.201 52.575C723.801 52.575 723.501 52.175 723.301 51.375H722.626C715.126 51.375 710.501 49.25 708.751 45C698.301 44.8 693.076 41.425 693.076 34.875C693.076 29.125 696.751 26.25 704.101 26.25C707.251 26.25 709.576 26.675 711.076 27.525C712.976 28.625 714.126 30.575 714.526 33.375C714.876 35.825 715.176 38.325 715.426 40.875C718.926 40.175 721.351 38.325 722.701 35.325C723.701 33.075 724.201 29.925 724.201 25.875C724.201 22.825 724.026 20.575 723.676 19.125C723.026 16.375 721.626 15 719.476 15C716.626 15 715.201 17.25 715.201 21.75C715.951 22 716.326 22.25 716.326 22.5C716.326 23.35 714.601 23.775 711.151 23.775C707.751 23.775 706.051 23.35 706.051 22.5C706.051 22.2 706.501 21.925 707.401 21.675C707.301 17.225 705.726 15 702.676 15C699.726 15 698.226 17.225 698.176 21.675C699.276 21.875 699.826 22.15 699.826 22.5C699.826 23.35 698.101 23.775 694.651 23.775C691.201 23.775 689.476 23.35 689.476 22.5C689.476 22.25 689.851 22 690.601 21.75C690.701 17.7 691.801 14.875 693.901 13.275C695.701 11.875 698.701 11.175 702.901 11.175C706.151 11.175 708.951 12.45 711.301 15C713.701 12.5 716.601 11.25 720.001 11.25C724.701 11.25 727.976 12.95 729.826 16.35C731.176 18.85 731.851 22.7 731.851 27.9ZM707.701 40.95C707.651 39.55 707.526 37.45 707.326 34.65C707.026 31.65 706.101 30.15 704.551 30.15C702.301 30.15 701.176 31.7 701.176 34.8C701.176 38.05 703.351 40.1 707.701 40.95ZM773.181 4.65C773.181 4.9 772.681 5.125 771.681 5.325C771.731 5.925 771.756 6.5 771.756 7.05C771.756 10.6 770.431 12.925 767.781 14.025C767.181 14.275 766.356 14.475 765.306 14.625C769.456 17.475 771.531 21.975 771.531 28.125C771.531 33.575 769.756 37.8 766.206 40.8C762.856 43.6 758.406 45 752.856 45C747.106 45 742.606 43.65 739.356 40.95C735.856 38.05 734.106 33.775 734.106 28.125C734.106 22.175 735.856 17.8 739.356 15H735.681C735.481 16.1 735.156 16.65 734.706 16.65C733.956 16.65 733.581 15.55 733.581 13.35C733.581 11.15 733.956 10.05 734.706 10.05C735.056 10.05 735.356 10.45 735.606 11.25H758.556C762.306 11.25 764.181 9.925 764.181 7.275C764.181 6.675 764.106 5.975 763.956 5.175C763.256 5.025 762.906 4.85 762.906 4.65C762.906 4.05 764.606 3.75 768.006 3.75C771.456 3.75 773.181 4.05 773.181 4.65ZM764.406 28.125C764.406 24.225 763.506 21.125 761.706 18.825C759.756 16.275 756.881 15 753.081 15C745.481 15 741.681 19.375 741.681 28.125C741.681 32.025 742.581 35.125 744.381 37.425C746.381 39.975 749.281 41.25 753.081 41.25C760.631 41.25 764.406 36.875 764.406 28.125ZM788.727 27.75C788.727 32.55 787.802 36.475 785.952 39.525C783.752 43.175 780.377 45 775.827 45C772.027 45 769.027 43.675 766.827 41.025C764.777 38.575 763.752 35.4 763.752 31.5H771.702C771.702 34.55 771.852 36.625 772.152 37.725C772.802 40.075 774.152 41.25 776.202 41.25C778.052 41.25 779.377 39.425 780.177 35.775C780.677 33.525 780.927 30.975 780.927 28.125C780.927 19.375 778.852 15 774.702 15H773.202C773.002 15.8 772.752 16.2 772.452 16.2C771.902 16.2 771.627 15.25 771.627 13.35C771.627 11.5 771.902 10.575 772.452 10.575C772.702 10.575 772.902 10.8 773.052 11.25H775.302C779.552 11.25 782.927 12.975 785.427 16.425C787.627 19.525 788.727 23.3 788.727 27.75ZM868.447 30C868.447 34.8 867.697 38.35 866.197 40.65C864.347 43.55 861.147 45 856.597 45C854.247 45 852.572 44.825 851.572 44.475C850.172 43.975 848.947 42.9 847.897 41.25C846.147 43.75 843.172 45 838.972 45C835.422 45 832.572 44 830.422 42C828.272 40 827.197 37.25 827.197 33.75C827.197 26.1 830.522 22.275 837.172 22.275C837.922 22.275 838.722 22.325 839.572 22.425C839.822 21.725 840.147 21.375 840.547 21.375C841.347 21.375 841.747 22.375 841.747 24.375C841.747 26.375 841.347 27.375 840.547 27.375C840.147 27.375 839.822 27 839.572 26.25C837.572 26.35 836.222 27.15 835.522 28.65C835.022 29.7 834.772 31.4 834.772 33.75C834.772 38.75 836.297 41.25 839.347 41.25C841.547 41.25 842.972 40.025 843.622 37.575C843.972 36.275 844.097 34.1 843.997 31.05C843.297 30.8 842.947 30.525 842.947 30.225C842.947 29.425 844.672 29.025 848.122 29.025C851.572 29.025 853.297 29.425 853.297 30.225C853.297 30.575 852.797 30.875 851.797 31.125L851.722 34.05C851.622 38.85 853.197 41.25 856.447 41.25C858.497 41.25 859.822 39.775 860.422 36.825C860.672 35.625 860.797 33.35 860.797 30C860.797 23.95 858.997 19.8 855.397 17.55C852.747 15.9 848.272 15.05 841.972 15C841.822 16.1 841.547 16.65 841.147 16.65C840.497 16.65 840.172 15.55 840.172 13.35C840.172 11.2 840.497 10.125 841.147 10.125C841.447 10.125 841.697 10.5 841.897 11.25H848.047C861.647 11.25 868.447 17.5 868.447 30ZM904.453 28.125C904.453 33.325 902.953 37.45 899.953 40.5C896.953 43.5 892.828 45 887.578 45C882.228 45 878.078 43.525 875.128 40.575C872.178 37.575 870.703 33.425 870.703 28.125C870.703 22.875 872.178 18.75 875.128 15.75C878.128 12.75 882.278 11.25 887.578 11.25C892.828 11.25 896.953 12.775 899.953 15.825C902.953 18.825 904.453 22.925 904.453 28.125ZM896.503 28.125C896.503 24.575 895.878 21.65 894.628 19.35C893.078 16.45 890.678 15 887.428 15C881.328 15 878.278 19.375 878.278 28.125C878.278 36.875 881.328 41.25 887.428 41.25C890.678 41.25 893.078 39.8 894.628 36.9C895.878 34.6 896.503 31.675 896.503 28.125ZM947.988 30.15C947.988 40.05 944.163 45 936.513 45C932.763 45 929.738 43.75 927.438 41.25C925.138 43.75 922.163 45 918.513 45C910.663 45 906.738 40.05 906.738 30.15C906.738 23.15 908.838 18.1 913.038 15H908.088C907.888 15.95 907.613 16.425 907.263 16.425C906.563 16.425 906.213 15.325 906.213 13.125C906.213 10.975 906.563 9.9 907.263 9.9C907.613 9.9 907.888 10.35 908.088 11.25H940.338V14.1C945.438 17.1 947.988 22.45 947.988 30.15ZM940.338 30.975C940.338 20.325 936.038 15 927.438 15C918.688 15 914.313 19.825 914.313 29.475C914.313 37.325 915.913 41.25 919.113 41.25C922.113 41.25 923.588 38.125 923.538 31.875C922.738 31.675 922.338 31.45 922.338 31.2C922.338 30.5 924.088 30.15 927.588 30.15C931.088 30.15 932.838 30.5 932.838 31.2C932.838 31.5 932.338 31.75 931.338 31.95C931.338 38.15 932.888 41.25 935.988 41.25C938.888 41.25 940.338 37.825 940.338 30.975ZM947.994 7.875C947.994 11.275 946.269 13.45 942.819 14.4C941.369 14.8 938.519 15 934.269 15L934.344 11.25C936.844 11.25 938.394 11.075 938.994 10.725C939.894 10.225 940.369 8.95 940.419 6.9C940.519 4.5 939.669 3.25 937.869 3.15C936.019 3.05 935.019 4.475 934.869 7.425C936.019 7.675 936.594 8 936.594 8.4C936.594 9.25 934.894 9.675 931.494 9.675C928.144 9.675 926.469 9.25 926.469 8.4C926.469 8.15 926.744 7.925 927.294 7.725C927.444 4.625 928.569 2.5 930.669 1.35C932.169 0.549997 934.619 0.149996 938.019 0.149996C941.419 0.149996 943.819 0.574997 945.219 1.425C947.069 2.575 947.994 4.725 947.994 7.875ZM984.067 28.125C984.067 33.325 982.567 37.45 979.567 40.5C976.567 43.5 972.442 45 967.192 45C961.842 45 957.692 43.525 954.742 40.575C951.792 37.575 950.317 33.425 950.317 28.125C950.317 22.875 951.792 18.75 954.742 15.75C957.742 12.75 961.892 11.25 967.192 11.25C972.442 11.25 976.567 12.775 979.567 15.825C982.567 18.825 984.067 22.925 984.067 28.125ZM976.117 28.125C976.117 24.575 975.492 21.65 974.242 19.35C972.692 16.45 970.292 15 967.042 15C960.942 15 957.892 19.375 957.892 28.125C957.892 36.875 960.942 41.25 967.042 41.25C970.292 41.25 972.692 39.8 974.242 36.9C975.492 34.6 976.117 31.675 976.117 28.125ZM1027.6 30.15C1027.6 34.45 1026.78 37.875 1025.13 40.425C1023.18 43.475 1020.18 45 1016.13 45C1012.38 45 1009.35 43.75 1007.05 41.25C1004.75 43.75 1001.78 45 998.128 45C994.078 45 991.053 43.625 989.053 40.875C987.253 38.425 986.353 35.1 986.353 30.9C986.353 25.4 988.203 21.675 991.903 19.725C991.203 18.675 990.853 17.35 990.853 15.75C990.853 10.35 996.253 7.65 1007.05 7.65C1014.4 7.65 1019.73 9.6 1023.03 13.5C1026.08 17.1 1027.6 22.65 1027.6 30.15ZM1019.95 29.175C1019.95 22.425 1019.33 18 1018.08 15.9C1016.23 12.8 1012.18 11.25 1005.93 11.25C1001.53 11.25 999.328 12.5 999.328 15C999.328 17.6 1000.6 18.9 1003.15 18.9C1005.5 18.9 1006.58 17.45 1006.38 14.55C1005.63 14.35 1005.25 14.125 1005.25 13.875C1005.25 13.125 1006.95 12.75 1010.35 12.75C1013.75 12.75 1015.45 13.125 1015.45 13.875C1015.45 14.175 1014.95 14.45 1013.95 14.7C1013.8 17.95 1012.38 20.15 1009.68 21.3C1007.78 22.15 1004.7 22.55 1000.45 22.5C997.703 22.5 995.828 23.575 994.828 25.725C994.178 27.175 993.853 29.425 993.853 32.475C993.853 38.325 995.478 41.25 998.728 41.25C1001.73 41.25 1003.2 39.35 1003.15 35.55C1002.3 35.35 1001.88 35.1 1001.88 34.8C1001.88 34.05 1003.58 33.675 1006.98 33.675C1010.38 33.675 1012.08 34.05 1012.08 34.8C1012.08 35.05 1011.7 35.275 1010.95 35.475V35.625C1010.95 37.575 1011.23 38.95 1011.78 39.75C1012.48 40.75 1013.75 41.25 1015.6 41.25C1017.65 41.25 1018.98 39.625 1019.58 36.375C1019.83 35.075 1019.95 32.675 1019.95 29.175ZM1070.43 4.65C1070.43 4.9 1069.93 5.125 1068.93 5.325C1068.98 5.925 1069.01 6.5 1069.01 7.05C1069.01 10.6 1067.68 12.925 1065.03 14.025C1064.63 14.175 1064.11 14.325 1063.46 14.475V15H1061.73C1065.78 18 1067.81 22.375 1067.81 28.125V43.575C1068.51 43.825 1068.86 44.125 1068.86 44.475C1068.86 44.775 1068.13 45.05 1066.68 45.3C1065.48 45.5 1064.56 45.6 1063.91 45.6C1063.31 45.6 1062.46 45.475 1061.36 45.225C1060.01 44.925 1059.33 44.6 1059.33 44.25C1059.33 43.9 1059.63 43.625 1060.23 43.425V28.125C1060.23 24.275 1059.33 21.175 1057.53 18.825C1055.58 16.275 1052.73 15 1048.98 15C1041.28 15 1037.43 19.375 1037.43 28.125V43.575C1038.13 43.825 1038.48 44.125 1038.48 44.475C1038.48 44.775 1037.76 45.05 1036.31 45.3C1035.11 45.5 1034.18 45.6 1033.53 45.6C1032.93 45.6 1032.08 45.475 1030.98 45.225C1029.63 44.925 1028.96 44.6 1028.96 44.25C1028.96 43.9 1029.26 43.625 1029.86 43.425V28.125C1029.86 22.325 1031.81 17.95 1035.71 15H1031.43C1031.18 15.95 1030.83 16.425 1030.38 16.425C1029.48 16.425 1029.03 15.375 1029.03 13.275C1029.03 11.175 1029.48 10.125 1030.38 10.125C1030.78 10.125 1031.11 10.5 1031.36 11.25H1055.81C1059.56 11.25 1061.43 9.925 1061.43 7.275C1061.43 6.675 1061.36 5.975 1061.21 5.175C1060.51 5.025 1060.16 4.85 1060.16 4.65C1060.16 4.05 1061.86 3.75 1065.26 3.75C1068.71 3.75 1070.43 4.05 1070.43 4.65ZM1106.59 28.5C1106.59 32.9 1105.77 36.575 1104.12 39.525C1102.07 43.175 1099.02 45 1094.97 45C1091.37 45 1088.57 44.025 1086.57 42.075C1084.57 40.125 1083.57 37.35 1083.57 33.75C1083.57 30.35 1084.52 27.6 1086.42 25.5C1088.32 23.4 1090.94 22.35 1094.29 22.35C1094.74 22.35 1095.37 22.375 1096.17 22.425C1096.27 22.025 1096.42 21.825 1096.62 21.825C1097.12 21.825 1097.37 22.75 1097.37 24.6C1097.37 26.45 1097.12 27.375 1096.62 27.375C1096.37 27.375 1096.17 27 1096.02 26.25C1092.77 26.4 1091.14 28.825 1091.14 33.525C1091.14 38.675 1092.34 41.25 1094.74 41.25C1096.14 41.25 1097.24 39.425 1098.04 35.775C1098.64 33.075 1098.94 30.65 1098.94 28.5C1098.94 24.95 1098.37 22 1097.22 19.65C1095.72 16.55 1093.37 15 1090.17 15C1083.12 15 1079.59 17.375 1079.59 22.125C1079.59 23.375 1079.82 25.275 1080.27 27.825C1080.72 30.325 1080.94 32.2 1080.94 33.45C1080.94 41.15 1077.44 45 1070.44 45C1063.34 45 1059.82 40.25 1059.87 30.75H1067.67V33.075C1067.67 38.525 1068.72 41.25 1070.82 41.25C1072.82 41.25 1073.82 39.525 1073.82 36.075C1073.82 34.525 1073.49 32.2 1072.84 29.1C1072.19 26 1071.87 23.675 1071.87 22.125C1071.87 18.025 1074.04 15.05 1078.39 13.2C1081.44 11.9 1085.37 11.25 1090.17 11.25C1095.17 11.25 1099.19 12.875 1102.24 16.125C1105.14 19.325 1106.59 23.45 1106.59 28.5ZM1186.32 28.5C1186.32 33.2 1185.37 37 1183.47 39.9C1181.22 43.3 1177.87 45 1173.42 45C1167.92 45 1164.42 43.525 1162.92 40.575C1162.52 39.825 1162.04 37.075 1161.49 32.325C1161.14 29.375 1159.69 27.9 1157.14 27.9C1154.14 27.9 1152.64 30 1152.64 34.2C1152.64 35.65 1153.07 37.1 1153.92 38.55C1154.77 40 1155.87 40.875 1157.22 41.175C1157.42 40.575 1157.69 40.275 1158.04 40.275C1158.84 40.275 1159.24 41.275 1159.24 43.275C1159.24 45.275 1158.84 46.275 1158.04 46.275C1157.64 46.275 1157.32 45.85 1157.07 45L1156.39 45.075C1153.54 45.375 1150.89 44.375 1148.44 42.075C1146.19 40.025 1145.07 37.375 1145.07 34.125C1145.07 30.275 1146.34 27.55 1148.89 25.95C1150.94 24.65 1153.99 24 1158.04 24C1163.34 24 1166.79 25.5 1168.39 28.5C1168.79 29.25 1169.32 32 1169.97 36.75C1170.37 39.75 1171.82 41.25 1174.32 41.25C1177.22 41.25 1178.67 37 1178.67 28.5C1178.67 22.75 1178.02 18.7 1176.72 16.35C1174.82 12.95 1171.17 11.25 1165.77 11.25C1163.62 11.25 1161.99 11.4 1160.89 11.7C1158.99 12.2 1158.04 13.3 1158.04 15C1158.04 16.45 1158.32 17.475 1158.87 18.075C1159.42 18.625 1160.42 18.9 1161.87 18.9C1163.97 18.9 1165.02 17.5 1165.02 14.7C1164.12 14.5 1163.67 14.275 1163.67 14.025C1163.67 13.425 1165.42 13.125 1168.92 13.125C1172.37 13.125 1174.09 13.425 1174.09 14.025C1174.09 14.325 1173.62 14.55 1172.67 14.7C1172.42 19.9 1168.82 22.5 1161.87 22.5C1153.22 22.5 1148.89 20 1148.89 15C1148.89 10.1 1154.32 7.65 1165.17 7.65C1179.27 7.65 1186.32 14.6 1186.32 28.5ZM1212.27 31.425C1212.27 31.625 1211.9 31.825 1211.15 32.025C1211.1 36.275 1210.42 39.375 1209.12 41.325C1207.52 43.775 1204.72 45 1200.72 45C1196.52 45 1193.35 43.25 1191.2 39.75C1189.45 36.8 1188.57 33.1 1188.57 28.65C1188.57 24 1189.35 20.15 1190.9 17.1C1192.9 13.2 1196 11.25 1200.2 11.25C1207.8 11.25 1211.6 14.5 1211.6 21C1211.6 24.85 1210.35 27.425 1207.85 28.725C1206.1 29.625 1203.15 30.05 1199 30C1198.8 30.65 1198.55 30.975 1198.25 30.975C1197.55 30.975 1197.2 30.025 1197.2 28.125C1197.2 26.225 1197.55 25.275 1198.25 25.275C1198.55 25.275 1198.8 25.6 1199 26.25C1202.35 25.95 1204.02 23.975 1204.02 20.325C1204.02 19.025 1203.75 17.875 1203.2 16.875C1202.55 15.625 1201.62 15 1200.42 15C1198.27 15 1196.92 17.25 1196.37 21.75C1196.22 23 1196.15 26.125 1196.15 31.125C1196.15 37.875 1197.42 41.25 1199.97 41.25C1202.52 41.25 1203.75 38.15 1203.65 31.95C1203 31.8 1202.67 31.625 1202.67 31.425C1202.67 30.825 1204.27 30.525 1207.47 30.525C1210.67 30.525 1212.27 30.825 1212.27 31.425ZM1291.33 4.65C1291.33 4.9 1290.83 5.125 1289.83 5.325C1289.88 5.925 1289.91 6.5 1289.91 7.05C1289.91 10.6 1288.58 12.925 1285.93 14.025C1284.53 14.575 1282.01 14.9 1278.36 15H1274.83C1275.18 15.75 1275.36 16.55 1275.36 17.4C1275.36 19.7 1274.36 21.4 1272.36 22.5H1288.18C1288.38 21.6 1288.66 21.15 1289.01 21.15C1289.71 21.15 1290.06 22.225 1290.06 24.375C1290.06 26.525 1289.71 27.6 1289.01 27.6C1288.66 27.6 1288.38 27.15 1288.18 26.25H1284.96C1287.51 28.1 1288.78 30.6 1288.78 33.75C1288.78 37.85 1286.51 40.875 1281.96 42.825C1278.56 44.275 1274.51 45 1269.81 45C1257.11 45 1250.76 41.25 1250.76 33.75C1250.76 30.6 1251.96 28.1 1254.36 26.25H1252.11C1251.91 27.05 1251.63 27.45 1251.28 27.45C1250.53 27.45 1250.16 26.45 1250.16 24.45C1250.16 22.45 1250.53 21.45 1251.28 21.45C1251.58 21.45 1251.86 21.8 1252.11 22.5H1266.73C1264.73 21.4 1263.73 19.7 1263.73 17.4C1263.73 16.55 1263.91 15.75 1264.26 15H1252.33C1252.08 16.05 1251.76 16.575 1251.36 16.575C1250.56 16.575 1250.16 15.475 1250.16 13.275C1250.16 11.125 1250.56 10.05 1251.36 10.05C1251.71 10.05 1252.01 10.45 1252.26 11.25H1276.71C1280.46 11.25 1282.33 9.925 1282.33 7.275C1282.33 6.675 1282.26 5.975 1282.11 5.175C1281.41 5.025 1281.06 4.85 1281.06 4.65C1281.06 4.05 1282.76 3.75 1286.16 3.75C1289.61 3.75 1291.33 4.05 1291.33 4.65ZM1281.28 33.75C1281.28 28.75 1277.46 26.25 1269.81 26.25C1262.16 26.25 1258.33 28.75 1258.33 33.75C1258.33 38.75 1262.16 41.25 1269.81 41.25C1272.81 41.25 1275.31 40.75 1277.31 39.75C1279.96 38.45 1281.28 36.45 1281.28 33.75ZM1333.12 4.65C1333.12 4.9 1332.62 5.125 1331.62 5.325C1331.67 5.925 1331.69 6.5 1331.69 7.05C1331.69 10.6 1330.37 12.925 1327.72 14.025C1327.37 14.175 1326.97 14.3 1326.52 14.4C1330.37 17.55 1332.29 22.25 1332.29 28.5C1332.29 33.15 1331.34 36.925 1329.44 39.825C1327.14 43.275 1323.79 45 1319.39 45C1313.94 45 1310.44 43.4 1308.89 40.2C1308.49 39.4 1308.02 36.4 1307.47 31.2C1307.12 28 1305.67 26.4 1303.12 26.4C1300.12 26.4 1298.62 28.75 1298.62 33.45C1298.62 34.95 1299.02 36.475 1299.82 38.025C1300.72 39.725 1301.82 40.75 1303.12 41.1C1303.37 40.45 1303.67 40.125 1304.02 40.125C1304.82 40.125 1305.22 41.125 1305.22 43.125C1305.22 45.125 1304.82 46.125 1304.02 46.125C1303.62 46.125 1303.32 45.75 1303.12 45L1302.37 45.075C1299.37 45.375 1296.69 44.25 1294.34 41.7C1292.14 39.4 1291.04 36.625 1291.04 33.375C1291.04 26.125 1295.37 22.5 1304.02 22.5C1309.27 22.5 1312.69 24.125 1314.29 27.375C1314.74 28.275 1315.29 31.275 1315.94 36.375C1316.39 39.625 1317.84 41.25 1320.29 41.25C1323.19 41.25 1324.64 37 1324.64 28.5C1324.64 20.25 1322.24 15.775 1317.44 15.075C1317.09 15.025 1315.17 15 1311.67 15H1292.47C1292.22 15.7 1291.92 16.05 1291.57 16.05C1290.77 16.05 1290.37 15.05 1290.37 13.05C1290.37 11.05 1290.77 10.05 1291.57 10.05C1291.97 10.05 1292.29 10.45 1292.54 11.25H1318.49C1322.24 11.25 1324.12 9.925 1324.12 7.275C1324.12 6.675 1324.04 5.975 1323.89 5.175C1323.19 5.025 1322.84 4.85 1322.84 4.65C1322.84 4.05 1324.54 3.75 1327.94 3.75C1331.39 3.75 1333.12 4.05 1333.12 4.65ZM1352.7 64.95C1352.7 67.1 1351.97 68.175 1350.52 68.175C1349.67 68.175 1349.02 67.6 1348.57 66.45H1344.07C1336.22 66.45 1332.3 64.6 1332.3 60.9C1328.95 60.85 1326.67 60.25 1325.47 59.1C1324.22 57.95 1323.6 55.725 1323.6 52.425C1323.6 47.525 1326.47 45.075 1332.22 45.075C1334.72 45.075 1336.47 45.9 1337.47 47.55C1338.22 48.85 1338.6 50.825 1338.6 53.475C1338.6 54.875 1338.6 55.575 1338.6 55.575C1338.6 55.925 1338.57 56.35 1338.52 56.85C1338.52 57.25 1338.52 57.5 1338.52 57.6C1340.07 56.3 1340.85 52.1 1340.85 45C1340.85 38.85 1339.3 35.2 1336.2 34.05C1335.9 34.95 1335.47 35.4 1334.92 35.4C1333.87 35.4 1333.35 34.275 1333.35 32.025C1333.35 29.825 1333.87 28.725 1334.92 28.725C1335.47 28.725 1335.92 29.225 1336.27 30.225C1343.77 30.875 1347.52 35.8 1347.52 45C1347.52 49.35 1347.07 52.625 1346.17 54.825C1344.82 58.125 1342.35 60.075 1338.75 60.675C1338.95 62.625 1342.25 63.475 1348.65 63.225C1349.05 62.175 1349.67 61.65 1350.52 61.65C1351.97 61.65 1352.7 62.75 1352.7 64.95ZM1332.37 55.95C1332.37 51.05 1331.85 48.6 1330.8 48.6C1329.9 48.6 1329.45 49.45 1329.45 51.15C1329.45 53.65 1329.47 55 1329.52 55.2C1329.82 56.45 1330.75 57.225 1332.3 57.525C1332.35 57.125 1332.37 56.6 1332.37 55.95ZM1389.13 4.65C1389.13 4.9 1388.63 5.125 1387.63 5.325C1387.68 5.925 1387.71 6.5 1387.71 7.05C1387.71 10.6 1386.38 12.925 1383.73 14.025C1383.38 14.175 1382.96 14.3 1382.46 14.4C1384.46 15.7 1385.46 17.375 1385.46 19.425C1385.46 22.475 1384.01 24.3 1381.11 24.9C1386.21 25.7 1388.76 28.7 1388.76 33.9C1388.76 37.45 1387.73 40.2 1385.68 42.15C1383.68 44.05 1380.88 45 1377.28 45C1373.53 45 1370.51 43.75 1368.21 41.25C1365.91 43.75 1362.93 45 1359.28 45C1355.23 45 1352.18 43.475 1350.13 40.425C1348.38 37.825 1347.51 34.4 1347.51 30.15C1347.51 23.15 1349.63 18.1 1353.88 15H1348.86C1348.66 15.95 1348.38 16.425 1348.03 16.425C1347.33 16.425 1346.98 15.325 1346.98 13.125C1346.98 10.975 1347.33 9.9 1348.03 9.9C1348.38 9.9 1348.66 10.35 1348.86 11.25H1374.51C1378.26 11.25 1380.13 9.925 1380.13 7.275C1380.13 6.675 1380.06 5.975 1379.91 5.175C1379.21 5.025 1378.86 4.85 1378.86 4.65C1378.86 4.05 1380.56 3.75 1383.96 3.75C1387.41 3.75 1389.13 4.05 1389.13 4.65ZM1381.11 34.725C1381.11 31.825 1380.81 29.925 1380.21 29.025C1379.36 27.775 1377.43 27.1 1374.43 27C1374.23 27.75 1373.98 28.125 1373.68 28.125C1372.98 28.125 1372.63 27.05 1372.63 24.9C1372.63 22.7 1372.98 21.6 1373.68 21.6C1374.03 21.6 1374.31 22.125 1374.51 23.175C1376.91 22.925 1378.11 21.675 1378.11 19.425C1378.11 17.425 1376.86 16.1 1374.36 15.45C1373.16 15.15 1371.11 15 1368.21 15C1359.46 15 1355.08 19.825 1355.08 29.475C1355.08 37.325 1356.68 41.25 1359.88 41.25C1362.93 41.25 1364.41 37.75 1364.31 30.75C1363.46 30.55 1363.03 30.3 1363.03 30C1363.03 29.25 1364.83 28.875 1368.43 28.875C1371.98 28.875 1373.76 29.25 1373.76 30C1373.76 30.3 1373.21 30.575 1372.11 30.825V31.425C1372.11 37.975 1373.66 41.25 1376.76 41.25C1379.66 41.25 1381.11 39.075 1381.11 34.725ZM1432.27 28.5C1432.27 39.5 1428.32 45 1420.42 45C1418.37 45 1416.74 44.75 1415.54 44.25C1414.39 43.75 1413.12 42.75 1411.72 41.25C1410.32 42.75 1409.02 43.75 1407.82 44.25C1406.62 44.75 1404.94 45 1402.79 45C1399.24 45 1396.39 44 1394.24 42C1392.09 40 1391.02 37.25 1391.02 33.75C1391.02 26.1 1394.34 22.275 1400.99 22.275C1401.74 22.275 1402.57 22.325 1403.47 22.425C1403.62 21.775 1403.84 21.45 1404.14 21.45C1404.69 21.45 1404.97 22.425 1404.97 24.375C1404.97 26.325 1404.69 27.3 1404.14 27.3C1403.84 27.3 1403.62 26.95 1403.47 26.25C1401.42 26.35 1400.04 27.15 1399.34 28.65C1398.84 29.7 1398.59 31.4 1398.59 33.75C1398.59 38.75 1400.12 41.25 1403.17 41.25C1405.37 41.25 1406.79 39.975 1407.44 37.425C1407.79 36.025 1407.92 33.775 1407.82 30.675C1407.07 30.475 1406.69 30.25 1406.69 30C1406.69 29.35 1408.42 29.025 1411.87 29.025C1415.32 29.025 1417.04 29.35 1417.04 30C1417.04 30.3 1416.57 30.55 1415.62 30.75C1415.62 30.8 1415.62 30.975 1415.62 31.275C1415.57 31.625 1415.54 31.975 1415.54 32.325C1415.54 32.325 1415.54 32.9 1415.54 34.05C1415.54 38.85 1417.12 41.25 1420.27 41.25C1421.82 41.25 1422.99 39.5 1423.79 36C1424.34 33.6 1424.62 31.1 1424.62 28.5C1424.62 24.1 1424.12 20.95 1423.12 19.05C1421.67 16.35 1418.97 15 1415.02 15H1391.92C1391.72 15.65 1391.49 15.975 1391.24 15.975C1390.59 15.975 1390.27 15.05 1390.27 13.2C1390.27 11.35 1390.59 10.425 1391.24 10.425C1391.49 10.425 1391.69 10.7 1391.84 11.25H1424.62V12.075C1429.72 13.975 1432.27 19.45 1432.27 28.5ZM1457.55 28.5C1457.45 32.95 1456.62 36.625 1455.07 39.525C1453.02 43.175 1449.97 45 1445.92 45C1438.32 45 1434.52 41.25 1434.52 33.75C1434.52 30.35 1435.47 27.6 1437.37 25.5C1439.27 23.4 1441.9 22.35 1445.25 22.35C1445.8 22.35 1446.37 22.375 1446.97 22.425C1447.17 21.825 1447.4 21.525 1447.65 21.525C1448.3 21.525 1448.62 22.575 1448.62 24.675C1448.62 26.775 1448.3 27.825 1447.65 27.825C1447.3 27.825 1447.02 27.3 1446.82 26.25C1444.77 26.45 1443.4 27.4 1442.7 29.1C1442.25 30.15 1442.05 31.925 1442.1 34.425C1442.1 35.975 1442.35 37.375 1442.85 38.625C1443.5 40.375 1444.45 41.25 1445.7 41.25C1447.15 41.25 1448.27 39.4 1449.07 35.7C1449.62 33.1 1449.9 30.7 1449.9 28.5C1449.9 24.4 1449.55 21.425 1448.85 19.575C1447.7 16.525 1445.45 15 1442.1 15H1420.87L1420.57 11.25H1445.7C1449.65 11.25 1452.72 13.225 1454.92 17.175C1456.77 20.475 1457.65 24.25 1457.55 28.5ZM1502.02 44.625C1502.02 44.925 1501.29 45.2 1499.84 45.45C1498.64 45.65 1497.72 45.75 1497.07 45.75C1496.47 45.75 1495.62 45.625 1494.52 45.375C1493.17 45.075 1492.49 44.75 1492.49 44.4C1492.49 44.05 1492.79 43.775 1493.39 43.575V29.025C1493.39 22.525 1492.84 18.225 1491.74 16.125C1490.04 12.875 1486.29 11.25 1480.49 11.25C1475.34 11.25 1472.77 12.5 1472.77 15C1472.77 16.45 1473.04 17.475 1473.59 18.075C1474.14 18.625 1475.14 18.9 1476.59 18.9C1477.99 18.9 1478.92 18.425 1479.37 17.475C1479.62 16.925 1479.74 16.05 1479.74 14.85V14.7C1478.59 14.55 1478.02 14.325 1478.02 14.025C1478.02 13.375 1479.84 13.05 1483.49 13.05C1487.14 13.05 1488.97 13.375 1488.97 14.025C1488.97 14.275 1488.44 14.5 1487.39 14.7C1487.29 17.9 1486.19 20.075 1484.09 21.225C1482.54 22.075 1480.02 22.5 1476.52 22.5C1473.02 22.5 1470.84 22.725 1469.99 23.175C1468.24 24.125 1467.37 26.45 1467.37 30.15V43.575C1468.07 43.825 1468.42 44.125 1468.42 44.475C1468.42 44.775 1467.69 45.05 1466.24 45.3C1465.04 45.5 1464.12 45.6 1463.47 45.6C1462.87 45.6 1462.02 45.475 1460.92 45.225C1459.57 44.925 1458.89 44.6 1458.89 44.25C1458.89 43.9 1459.19 43.625 1459.79 43.425V29.55C1459.79 24.35 1461.64 21 1465.34 19.5C1464.19 18.3 1463.62 16.8 1463.62 15C1463.62 10.1 1469.24 7.65 1480.49 7.65C1494.14 7.65 1500.97 14.775 1500.97 29.025V43.725C1501.67 43.975 1502.02 44.275 1502.02 44.625ZM1542.37 4.65C1542.37 4.9 1541.87 5.125 1540.87 5.325C1540.92 5.925 1540.95 6.5 1540.95 7.05C1540.95 10.6 1539.62 12.925 1536.97 14.025C1536.37 14.275 1535.55 14.475 1534.5 14.625C1538.65 17.475 1540.72 21.975 1540.72 28.125C1540.72 33.575 1538.95 37.8 1535.4 40.8C1532.05 43.6 1527.6 45 1522.05 45C1516.3 45 1511.8 43.65 1508.55 40.95C1505.05 38.05 1503.3 33.775 1503.3 28.125C1503.3 22.175 1505.05 17.8 1508.55 15H1504.87C1504.67 16.1 1504.35 16.65 1503.9 16.65C1503.15 16.65 1502.77 15.55 1502.77 13.35C1502.77 11.15 1503.15 10.05 1503.9 10.05C1504.25 10.05 1504.55 10.45 1504.8 11.25H1527.75C1531.5 11.25 1533.37 9.925 1533.37 7.275C1533.37 6.675 1533.3 5.975 1533.15 5.175C1532.45 5.025 1532.1 4.85 1532.1 4.65C1532.1 4.05 1533.8 3.75 1537.2 3.75C1540.65 3.75 1542.37 4.05 1542.37 4.65ZM1533.6 28.125C1533.6 24.225 1532.7 21.125 1530.9 18.825C1528.95 16.275 1526.07 15 1522.27 15C1514.67 15 1510.87 19.375 1510.87 28.125C1510.87 32.025 1511.77 35.125 1513.57 37.425C1515.57 39.975 1518.47 41.25 1522.27 41.25C1529.82 41.25 1533.6 36.875 1533.6 28.125ZM1557.92 27.75C1557.92 32.55 1556.99 36.475 1555.14 39.525C1552.94 43.175 1549.57 45 1545.02 45C1541.22 45 1538.22 43.675 1536.02 41.025C1533.97 38.575 1532.94 35.4 1532.94 31.5H1540.89C1540.89 34.55 1541.04 36.625 1541.34 37.725C1541.99 40.075 1543.34 41.25 1545.39 41.25C1547.24 41.25 1548.57 39.425 1549.37 35.775C1549.87 33.525 1550.12 30.975 1550.12 28.125C1550.12 19.375 1548.04 15 1543.89 15H1542.39C1542.19 15.8 1541.94 16.2 1541.64 16.2C1541.09 16.2 1540.82 15.25 1540.82 13.35C1540.82 11.5 1541.09 10.575 1541.64 10.575C1541.89 10.575 1542.09 10.8 1542.24 11.25H1544.49C1548.74 11.25 1552.12 12.975 1554.62 16.425C1556.82 19.525 1557.92 23.3 1557.92 27.75ZM1570.41 39.825C1570.41 41.125 1569.86 42.325 1568.76 43.425C1567.71 44.475 1566.53 45 1565.23 45C1563.88 45 1562.68 44.525 1561.63 43.575C1560.63 42.625 1560.13 41.475 1560.13 40.125C1560.13 38.775 1560.68 37.625 1561.78 36.675C1562.88 35.725 1564.11 35.25 1565.46 35.25C1566.71 35.25 1567.83 35.7 1568.83 36.6C1569.88 37.5 1570.41 38.575 1570.41 39.825Z" fill="black"/>
</svg>
