<svg width="1562" height="72" viewBox="0 0 1562 72" fill="none" xmlns="http://www.w3.org/2000/svg">
<path d="M41.325 41.75L36.075 47H25.575L20.7 42.125L15.75 47.075H5.325L0 41.75V31.325L3.9 27.425H10.125L14.025 31.325V36.275L9.975 40.325H9.825V41.75H15.75V32.825H25.575V41.75H31.575V18.575H9.75V13.175H36.825L41.325 17.675V41.75ZM85.6365 41.75L80.3865 47H49.5615L44.3115 41.75V18.575L49.7115 13.175H64.1115L69.6615 18.575V27.425L64.2615 32.825H54.1365V41.75H75.8865V18.575H70.1865V13.175H80.2365L85.6365 18.575V41.75ZM59.8365 27.425V18.575H54.1365V27.425H59.8365ZM114.198 41.525L108.723 47H94.098L88.623 41.525V28.025L92.523 24.125H98.748L102.648 28.025V32.975L98.598 37.025H98.448V41.75H104.373V18.575H73.098V13.175H108.798L114.198 18.575V41.525ZM114.037 60.65L110.287 64.4H103.762V60.5H107.212V52.625H103.012V58.625H96.1875V52.625H91.9875V60.5H95.3625V64.4H88.8375L85.0875 60.65V52.625L88.8375 48.95H96.1875L99.5625 52.4L103.012 48.95H110.362L114.037 52.625V60.65ZM158.586 41.75L153.336 47H142.836L137.961 42.125L133.011 47.075H122.586L117.261 41.75V23.225L121.911 18.575H117.261V13.175H148.611V2.6H158.361V14.6L154.386 18.575H154.086L158.586 23.075V41.75ZM148.836 41.75V18.575H127.086V41.75H133.011V34.775H142.836V41.75H148.836ZM196.897 41.75L191.647 47H166.822L161.572 41.75V21.8L164.797 18.575H161.572V13.175H186.922V2.6H196.672V14.6L192.922 18.35L196.897 22.325V41.75ZM187.147 41.75V18.575H171.397V41.75H187.147ZM239.778 41.525L234.303 47H219.678L214.203 41.525V28.025L218.103 24.125H224.328L228.228 28.025V32.975L224.178 37.025H224.028V41.75H229.953V18.575H209.778V27.425L212.778 30.575V41.825L207.603 47H197.703L192.453 41.75V37.325H196.278V41.75H202.953V32.825L199.953 29.675V18.575L205.278 13.175H234.378L239.778 18.575V41.525ZM315.104 55.7H294.479L289.529 50.75V47H279.029L273.779 41.75V35.825L279.479 30.2H293.654L299.354 35.9V41.75H305.354V18.575H299.354V27.5H289.529V18.575H283.604V27.35H273.779V18.575L279.179 13.175H289.529L294.479 18.125L299.429 13.175H309.704L315.104 18.575V41.75L309.854 47H299.354V50.75H315.104V55.7ZM289.529 41.75V35.825H283.604V41.75H289.529ZM353.416 41.75L348.166 47H323.341L318.091 41.75V21.8L321.316 18.575H318.091V13.175H343.441V2.6H353.191V14.6L349.441 18.35L353.416 22.325V41.75ZM343.666 41.75V18.575H327.916V41.75H343.666ZM370.346 41.825L365.171 47H354.521L349.271 41.75V38.075H353.096V41.75H360.521V18.575H356.846V13.175H364.946L370.346 18.575V41.825ZM445.622 41.75L440.372 47H429.872L424.997 42.125L420.047 47.075H409.622L404.297 41.75V31.325L408.197 27.425H414.422L418.322 31.325V36.275L414.272 40.325H414.122V41.75H420.047V32.825H429.872V41.75H435.872V18.575H414.047V13.175H441.122L445.622 17.675V41.75ZM483.933 41.6L478.533 47H453.858L448.608 41.75V18.575L454.008 13.175H478.533L483.933 18.575V41.6ZM474.183 41.75V18.575H458.433V41.75H474.183ZM522.239 41.75L516.989 47H492.014L486.914 41.75V27.425H496.739V41.75H512.489V32.825H501.614V27.425H512.489V18.575H486.914V13.175H512.489V17.525H518.189L522.239 21.575V26.675L518.714 30.2L522.239 33.575V41.75ZM550.795 41.525L545.32 47H530.695L525.22 41.525V28.025L529.12 24.125H535.345L539.245 28.025V32.975L535.195 37.025H535.045V41.75H540.97V18.575H509.695V13.175H545.395L550.795 18.575V41.525ZM595.109 41.75L589.859 47H579.359L574.484 42.125L569.534 47.075H559.109L553.784 41.75V23.225L558.434 18.575H553.784V13.175H585.134V2.6H594.884V14.6L590.909 18.575H590.609L595.109 23.075V41.75ZM585.359 41.75V18.575H563.609V41.75H569.534V34.775H579.359V41.75H585.359ZM633.421 41.75L628.171 47H603.346L598.096 41.75V21.8L601.321 18.575H598.096V13.175H623.446V2.6H633.196V14.6L629.446 18.35L633.421 22.325V41.75ZM623.671 41.75V18.575H607.921V41.75H623.671ZM650.351 41.825L645.176 47H634.526L629.276 41.75V38.075H633.101V41.75H640.526V18.575H636.851V13.175H644.951L650.351 18.575V41.825ZM725.627 55.7H705.002L700.052 50.75V47H689.552L684.302 41.75V35.825L690.002 30.2H704.177L709.877 35.9V41.75H715.877V18.575H709.877V27.5H700.052V18.575H694.127V27.35H684.302V18.575L689.702 13.175H700.052L705.002 18.125L709.952 13.175H720.227L725.627 18.575V41.75L720.377 47H709.877V50.75H725.627V55.7ZM700.052 41.75V35.825H694.127V41.75H700.052ZM763.938 41.75L758.688 47H733.863L728.613 41.75V21.8L731.838 18.575H728.613V13.175H753.963V2.6H763.713V14.6L759.963 18.35L763.938 22.325V41.75ZM754.188 41.75V18.575H738.438V41.75H754.188ZM780.869 41.825L775.694 47H765.044L759.794 41.75V38.075H763.619V41.75H771.044V18.575H767.369V13.175H775.469L780.869 18.575V41.825ZM856.144 41.75L850.894 47H840.394L835.519 42.125L830.569 47.075H820.144L814.819 41.75V31.325L818.719 27.425H824.944L828.844 31.325V36.275L824.794 40.325H824.644V41.75H830.569V32.825H840.394V41.75H846.394V18.575H824.569V13.175H851.644L856.144 17.675V41.75ZM894.456 41.6L889.056 47H864.381L859.131 41.75V18.575L864.531 13.175H889.056L894.456 18.575V41.6ZM884.706 41.75V18.575H868.956V41.75H884.706ZM938.762 41.75L933.512 47H923.012L918.137 42.125L913.187 47.075H902.762L897.437 41.75V23.225L902.087 18.575H897.437V13.175H929.012V17.525H933.212L938.762 23.075V41.75ZM929.012 41.75V18.575H907.262V41.75H913.187V34.775H923.012V41.75H929.012ZM938.673 14.375L934.623 18.575H925.773V13.175H928.848V6.125L927.873 6.2V8.45L924.723 11.6H919.548L916.548 8.6V4.175L920.448 0.274998H934.023L938.673 4.925V14.375ZM977.146 41.6L971.746 47H947.071L941.821 41.75V18.575L947.221 13.175H971.746L977.146 18.575V41.6ZM967.396 41.75V18.575H951.646V41.75H967.396ZM1021.45 41.75L1016.2 47H1005.7L1000.83 42.125L995.877 47.075H985.452L980.127 41.75V27.575L983.577 24.125L980.127 20.675V15.725L985.827 10.025H1015.9L1021.45 15.575V41.75ZM995.877 20.9V15.275H989.952V20.9H995.877ZM1011.7 41.75V15.5H1005.7V20.6L1000.23 26.075H989.952V41.75H995.877V35.45H1005.7V41.75H1011.7ZM1060.29 14.6L1056.31 18.575H1056.01L1059.76 22.325V41.75L1054.51 47H1048.51V41.75H1050.01V18.575H1034.26V41.75H1035.69V47H1029.69L1024.44 41.75V21.8L1027.66 18.575H1024.44V13.175H1050.54V2.6H1060.29V14.6ZM1102.64 41.525L1097.17 47H1082.54L1077.07 41.525V28.025L1080.97 24.125H1087.19L1091.09 28.025V32.975L1087.04 37.025H1086.89V41.75H1092.82V18.575H1072.64V27.425L1075.64 30.575V41.825L1070.47 47H1060.57L1055.32 41.75V37.325H1059.14V41.75H1065.82V32.825L1062.82 29.675V18.575L1068.14 13.175H1097.24L1102.64 18.575V41.525ZM1177.97 41.825L1172.8 47H1157.65L1152.4 41.75V32.825H1146.47V47H1136.65V32.825L1141.97 27.425H1156.82L1162.22 32.825V41.75H1168.22V15.5H1162.22V20.6L1156.75 26.075H1142.05L1136.65 20.675V15.725L1142.35 10.025H1173.02L1177.97 14.975V41.825ZM1152.4 20.9V15.275H1146.47V20.9H1152.4ZM1206.53 41.75L1201.28 47H1186.21L1180.96 41.75V18.575L1186.36 13.175H1201.21L1206.53 18.5V27.425L1200.98 32.825H1190.78V41.75H1196.71V34.775H1206.53V41.75ZM1196.71 27.425V18.575H1190.78V27.425H1196.71ZM1276.35 14.6L1272.38 18.575H1262.33V24.875H1276.2V30.2H1272.15L1275.83 33.875V41.6L1270.43 47H1245.75L1240.5 41.75V33.875L1244.18 30.2H1240.5V24.875H1254V18.575H1240.5V13.175H1266.6V2.6H1276.35V14.6ZM1266.08 41.75V30.2H1250.33V41.75H1266.08ZM1320.5 41.825L1315.32 47H1300.17L1294.92 41.75V32.825H1289V47H1279.17V32.825L1284.5 27.425H1299.35L1304.75 32.825V41.75H1310.75V18.575H1279.17V13.175H1310.52V2.6H1320.27V14.6L1316.45 18.425L1320.5 22.475V41.825ZM1336.16 71.9H1321.61L1317.41 67.7V64.475H1311.49L1306.99 60.05V54.35L1311.86 49.625H1320.19L1324.99 54.425V60.05H1327.84V40.325H1323.34V35.75H1331.59L1336.16 40.325V60.05L1331.66 64.475H1324.99V67.7H1336.16V71.9ZM1317.41 60.05V54.35H1313.89V60.05H1317.41ZM1381.01 14.6L1377.26 18.35L1380.49 21.575V26.675L1376.96 30.2L1380.49 33.575V41.75L1375.24 47H1364.74L1359.86 42.125L1354.91 47.075H1344.49L1339.16 41.75V23.225L1343.81 18.575H1339.16V13.175H1371.26V2.6H1381.01V14.6ZM1370.74 41.75V32.825H1364.74V27.425H1370.74V18.575H1348.99V41.75H1354.91V34.775H1364.74V41.75H1370.74ZM1424.8 41.75L1419.55 47H1409.05L1404.17 42.125L1399.22 47.075H1388.8L1383.47 41.75V31.325L1387.37 27.425H1393.6L1397.5 31.325V36.275L1393.45 40.325H1393.3V41.75H1399.22V32.825H1409.05V41.75H1415.05V18.575H1383.47V13.175H1416.55V17.825H1420.3L1424.8 22.325V41.75ZM1453.36 41.525L1447.88 47H1433.26L1427.78 41.525V28.025L1431.68 24.125H1437.91L1441.81 28.025V32.975L1437.76 37.025H1437.61V41.75H1443.53V18.575H1412.26V13.175H1447.96L1453.36 18.575V41.525ZM1491.67 41.75L1486.42 47H1480.42V41.75H1481.92V15.5H1479.67V20.6L1474.2 26.075H1466.17V41.75H1467.6V47H1461.6L1456.35 41.75V27.575L1459.8 24.125L1456.35 20.675V15.725L1462.05 10.025H1486.12L1491.67 15.575V41.75ZM1469.85 20.9V15.275H1466.17V20.9H1469.85ZM1529.98 41.75L1524.73 47H1499.9L1494.65 41.75V21.8L1497.88 18.575H1494.65V13.175H1520V2.6H1529.75V14.6L1526 18.35L1529.98 22.325V41.75ZM1520.23 41.75V18.575H1504.48V41.75H1520.23ZM1546.91 41.825L1541.73 47H1531.08L1525.83 41.75V38.075H1529.66V41.75H1537.08V18.575H1533.41V13.175H1541.51L1546.91 18.575V41.825ZM1561.35 43.25L1557.6 47H1553.48L1549.88 43.4V38.675L1553.63 34.925H1557.6L1561.35 38.675V43.25Z" fill="black"/>
</svg>
