<svg width="1608" height="74" viewBox="0 0 1608 74" fill="none" xmlns="http://www.w3.org/2000/svg">
<path d="M40.5 33.625C40.5 37.925 39.6 41.425 37.8 44.125C35.7 47.275 32.6 48.85 28.5 48.85C25.2 48.85 22.4 47.8 20.1 45.7C17.85 47.8 15.15 48.85 12 48.85C8.7 48.85 5.875 47.675 3.525 45.325C1.175 42.975 0 40.15 0 36.85C0 29.45 3.15 25.75 9.45 25.75C13.95 25.75 16.2 27.65 16.2 31.45C16.2 33.1 15.625 34.575 14.475 35.875C13.375 37.175 12.025 37.825 10.425 37.825C9.375 37.825 8.4 37.55 7.5 37C7.55 38.2 8 39.225 8.85 40.075C9.75 40.925 10.8 41.35 12 41.35C15 41.35 16.5 39.1 16.5 34.6H24C24 36.85 24.2 38.4 24.6 39.25C25.25 40.65 26.55 41.35 28.5 41.35C31.5 41.35 33 38.775 33 33.625C33 28.725 31.35 25.425 28.05 23.725C25.8 22.575 21.95 22 16.5 22V14.5H20.25C26.45 14.5 31.325 16.125 34.875 19.375C38.625 22.775 40.5 27.525 40.5 33.625ZM83.3484 30.4C83.3484 36.1 81.3984 40.65 77.4984 44.05C73.7484 47.25 68.9734 48.85 63.1734 48.85C57.2234 48.85 52.3234 47.025 48.4734 43.375C44.6734 39.675 42.7734 34.875 42.7734 28.975C42.7734 25.175 43.6734 21.925 45.4734 19.225C47.5234 16.075 50.3484 14.5 53.9484 14.5C56.7984 14.5 59.2734 15.55 61.3734 17.65C63.4734 19.7 64.5234 22.15 64.5234 25C64.5234 28.05 63.5234 30.55 61.5234 32.5C59.5234 34.45 56.9984 35.425 53.9484 35.425C53.1984 35.425 52.4484 35.35 51.6984 35.2C53.8484 39.3 57.6734 41.35 63.1734 41.35C66.8734 41.35 69.8484 40.475 72.0984 38.725C74.5984 36.825 75.8484 34.075 75.8484 30.475C75.8484 27.125 75.0484 24.825 73.4484 23.575C72.0484 22.525 69.6234 22 66.1734 22V14.5H69.9234C73.9734 14.5 77.2734 16.175 79.8234 19.525C82.1734 22.575 83.3484 26.2 83.3484 30.4ZM57.0234 25C57.0234 24.15 56.7234 23.45 56.1234 22.9C55.5234 22.3 54.7984 22 53.9484 22C53.1984 22 52.5484 22.35 51.9984 23.05C51.4484 23.7 51.1734 24.4 51.1734 25.15C51.1734 27 52.1734 27.925 54.1734 27.925C56.0734 27.925 57.0234 26.95 57.0234 25ZM111.645 31.75C111.645 36.3 110.47 40.2 108.12 43.45C105.52 47.05 102.02 48.85 97.6201 48.85C94.2201 48.85 91.3451 47.725 88.9951 45.475C86.6451 43.225 85.4701 40.425 85.4701 37.075C85.4701 33.725 86.4951 30.875 88.5451 28.525C90.5951 26.175 93.2701 25 96.5701 25C98.1701 25 99.4701 25.75 100.47 27.25C101.37 28.55 101.82 30.05 101.82 31.75C101.82 33.45 101.37 34.95 100.47 36.25C99.4701 37.75 98.1701 38.5 96.5701 38.5C95.1701 38.5 93.9701 37.9 92.9701 36.7C92.9701 38.1 93.3951 39.225 94.2451 40.075C95.0951 40.925 96.2201 41.35 97.6201 41.35C99.6701 41.35 101.32 40.2 102.57 37.9C103.62 36 104.145 33.95 104.145 31.75C104.145 29.45 103.62 27.35 102.57 25.45C101.32 23.15 99.6201 22 97.4701 22H67.9201V14.5H97.4701C101.92 14.5 105.47 16.3 108.12 19.9C110.47 23.15 111.645 27.1 111.645 31.75ZM111.642 58.45C111.642 61.7 110.842 63.975 109.242 65.275C107.592 66.575 105.117 67.225 101.817 67.225L101.292 61.75C103.042 61.75 104.167 61.65 104.667 61.45C105.667 61.05 106.167 60.05 106.167 58.45C106.167 57.55 105.867 56.775 105.267 56.125C104.617 55.475 103.842 55.15 102.942 55.15C101.542 55.15 100.592 55.7 100.092 56.8C99.8416 57.35 99.7166 58.425 99.7166 60.025L99.6416 60.1H94.1666V57.925C94.1666 57.175 93.8166 56.525 93.1166 55.975C92.4166 55.425 91.6916 55.15 90.9416 55.15C90.0416 55.15 89.2666 55.45 88.6166 56.05C87.9666 56.7 87.6416 57.475 87.6416 58.375C87.6416 59.975 88.1416 60.975 89.1416 61.375C89.6416 61.575 90.7916 61.675 92.5916 61.675L91.9916 67.15H90.9416C88.4916 67.15 86.4166 66.3 84.7166 64.6C83.0166 62.9 82.1666 60.825 82.1666 58.375C82.1666 55.975 83.0416 53.925 84.7916 52.225C86.4916 50.525 88.5416 49.675 90.9416 49.675C93.2416 49.675 95.2416 50.475 96.9416 52.075C98.6416 50.475 100.642 49.675 102.942 49.675C105.342 49.675 107.392 50.525 109.092 52.225C110.792 53.975 111.642 56.05 111.642 58.45ZM154.54 11.575C154.54 14.425 153.515 16.875 151.465 18.925C150.815 19.575 150.14 20.125 149.44 20.575C152.79 24.175 154.465 28.625 154.465 33.925C154.465 38.325 153.59 41.8 151.84 44.35C149.79 47.35 146.665 48.85 142.465 48.85C139.365 48.85 136.69 47.95 134.44 46.15C132.19 47.95 129.365 48.85 125.965 48.85C121.865 48.85 118.79 47.4 116.74 44.5C114.89 41.95 113.965 38.55 113.965 34.3C113.965 29.5 115.24 25.4 117.79 22H113.965V14.5H144.565C145.215 14.5 145.79 14.175 146.29 13.525C146.79 12.875 147.04 12.225 147.04 11.575C147.04 9.425 145.665 8.325 142.915 8.275L145.84 1.3C148.34 1.7 150.415 2.875 152.065 4.825C153.715 6.775 154.54 9.025 154.54 11.575ZM146.965 33.925C146.965 30.175 145.79 27.25 143.44 25.15C141.09 23.05 138.015 22 134.215 22C130.315 22 127.215 23.1 124.915 25.3C122.615 27.45 121.465 30.45 121.465 34.3C121.465 39 122.965 41.35 125.965 41.35C128.315 41.35 129.74 40.75 130.24 39.55C130.39 39.2 130.465 37.6 130.465 34.75H138.19V37C138.19 38.65 138.49 39.8 139.09 40.45C139.69 41.05 140.815 41.35 142.465 41.35C144.415 41.35 145.715 40.525 146.365 38.875C146.765 37.875 146.965 36.225 146.965 33.925ZM197.313 11.575C197.313 14.425 196.288 16.875 194.238 18.925C193.638 19.525 193.013 20.05 192.363 20.5C195.613 23.75 197.238 27.475 197.238 31.675C197.238 36.775 195.088 40.975 190.788 44.275C186.838 47.325 182.238 48.85 176.988 48.85C171.738 48.85 167.138 47.325 163.188 44.275C158.888 40.975 156.738 36.775 156.738 31.675C156.738 28.075 157.888 24.85 160.188 22H156.738V14.5H187.338C187.988 14.5 188.563 14.175 189.063 13.525C189.563 12.875 189.813 12.225 189.813 11.575C189.813 9.425 188.438 8.325 185.688 8.275L188.613 1.3C191.113 1.7 193.188 2.875 194.838 4.825C196.488 6.775 197.313 9.025 197.313 11.575ZM189.738 31.675C189.738 28.725 188.288 26.325 185.388 24.475C182.888 22.825 180.088 22 176.988 22C173.888 22 171.088 22.825 168.588 24.475C165.688 26.325 164.238 28.725 164.238 31.675C164.238 34.625 165.688 37.025 168.588 38.875C171.088 40.525 173.888 41.35 176.988 41.35C180.088 41.35 182.888 40.525 185.388 38.875C188.288 37.025 189.738 34.625 189.738 31.675ZM242.262 31.975C242.262 36.475 241.187 40.325 239.037 43.525C236.587 47.225 233.237 49.075 228.987 49.075C225.687 49.075 222.837 47.95 220.437 45.7C218.037 43.4 216.837 40.6 216.837 37.3C216.837 33.3 217.437 30.375 218.637 28.525C220.137 26.175 222.762 25 226.512 25C228.362 25 229.937 25.7 231.237 27.1C232.537 28.5 233.187 30.125 233.187 31.975C233.187 33.675 232.737 35.175 231.837 36.475C230.837 37.975 229.537 38.725 227.937 38.725C226.537 38.725 225.337 38.125 224.337 36.925C224.337 38.175 224.787 39.275 225.687 40.225C226.637 41.125 227.737 41.575 228.987 41.575C231.037 41.575 232.562 40.425 233.562 38.125C234.362 36.375 234.762 34.325 234.762 31.975C234.762 28.275 233.787 25.625 231.837 24.025C230.037 22.575 227.262 21.85 223.512 21.85C216.112 21.85 212.412 23.825 212.412 27.775C212.412 28.925 212.762 30.6 213.462 32.8C214.212 35 214.587 36.675 214.587 37.825C214.587 41.125 213.337 43.8 210.837 45.85C208.387 47.85 205.462 48.85 202.062 48.85C198.262 48.85 195.212 47.25 192.912 44.05C190.812 41.2 189.762 37.8 189.762 33.85L197.262 33.55C197.362 36 197.612 37.725 198.012 38.725C198.712 40.475 200.062 41.35 202.062 41.35C205.462 41.35 207.162 40.175 207.162 37.825C207.162 36.425 206.737 34.4 205.887 31.75C205.037 29.1 204.612 27.075 204.612 25.675C204.612 18.225 210.312 14.5 221.712 14.5C228.612 14.5 233.637 15.65 236.787 17.95C240.437 20.65 242.262 25.325 242.262 31.975ZM321.677 31.75C321.677 34.7 321.152 37.3 320.102 39.55C320.752 41.25 321.077 43.1 321.077 45.1C321.077 47.45 320.227 51.05 318.527 55.9L311.402 53.425C312.002 51.875 312.677 49.525 313.427 46.375C310.177 48.025 306.177 48.85 301.427 48.85C291.177 48.85 286.052 45.65 286.052 39.25C286.052 35.15 287.727 32.325 291.077 30.775C293.427 29.675 296.877 29.125 301.427 29.125C306.477 29.125 310.727 30.225 314.177 32.425V30.25C314.177 24.75 312.677 22 309.677 22C307.427 22 306.052 22.5 305.552 23.5C305.302 24 305.177 25.475 305.177 27.925H297.752C297.752 25.725 297.552 24.275 297.152 23.575C296.552 22.525 295.202 22 293.102 22C290.852 22 289.477 22.65 288.977 23.95C288.777 24.45 288.677 26.05 288.677 28.75H281.177V25C281.177 21.8 282.377 19.225 284.777 17.275C286.977 15.475 289.727 14.575 293.027 14.575C296.227 14.575 298.977 15.45 301.277 17.2C303.377 15.4 306.177 14.5 309.677 14.5C317.677 14.5 321.677 20.25 321.677 31.75ZM310.877 39.175C308.777 37.425 304.927 36.55 299.327 36.55C295.477 36.55 293.552 37.4 293.552 39.1C293.552 40.65 295.477 41.425 299.327 41.425C304.977 41.425 308.827 40.675 310.877 39.175ZM364.525 11.575C364.525 14.425 363.5 16.875 361.45 18.925C360.85 19.525 360.225 20.05 359.575 20.5C362.825 23.75 364.45 27.475 364.45 31.675C364.45 36.775 362.3 40.975 358 44.275C354.05 47.325 349.45 48.85 344.2 48.85C338.95 48.85 334.35 47.325 330.4 44.275C326.1 40.975 323.95 36.775 323.95 31.675C323.95 28.075 325.1 24.85 327.4 22H323.95V14.5H354.55C355.2 14.5 355.775 14.175 356.275 13.525C356.775 12.875 357.025 12.225 357.025 11.575C357.025 9.425 355.65 8.325 352.9 8.275L355.825 1.3C358.325 1.7 360.4 2.875 362.05 4.825C363.7 6.775 364.525 9.025 364.525 11.575ZM356.95 31.675C356.95 28.725 355.5 26.325 352.6 24.475C350.1 22.825 347.3 22 344.2 22C341.1 22 338.3 22.825 335.8 24.475C332.9 26.325 331.45 28.725 331.45 31.675C331.45 34.625 332.9 37.025 335.8 38.875C338.3 40.525 341.1 41.35 344.2 41.35C347.3 41.35 350.1 40.525 352.6 38.875C355.5 37.025 356.95 34.625 356.95 31.675ZM381.274 31.75C381.274 36.05 380.374 39.8 378.574 43C376.374 46.9 373.249 48.85 369.199 48.85C365.299 48.85 362.174 47 359.824 43.3C357.974 40.35 357.049 37.275 357.049 34.075H364.549C364.549 35.825 364.899 37.375 365.599 38.725C366.449 40.475 367.649 41.35 369.199 41.35C370.849 41.35 372.074 40.075 372.874 37.525C373.474 35.675 373.774 33.75 373.774 31.75C373.774 30 373.424 28.1 372.724 26.05C371.824 23.35 370.649 22 369.199 22H366.199V14.5H369.199C373.249 14.5 376.399 16.625 378.649 20.875C380.399 24.225 381.274 27.85 381.274 31.75ZM460.69 33.625C460.69 37.925 459.79 41.425 457.99 44.125C455.89 47.275 452.79 48.85 448.69 48.85C445.39 48.85 442.59 47.8 440.29 45.7C438.04 47.8 435.34 48.85 432.19 48.85C428.89 48.85 426.065 47.675 423.715 45.325C421.365 42.975 420.19 40.15 420.19 36.85C420.19 29.45 423.34 25.75 429.64 25.75C434.14 25.75 436.39 27.65 436.39 31.45C436.39 33.1 435.815 34.575 434.665 35.875C433.565 37.175 432.215 37.825 430.615 37.825C429.565 37.825 428.59 37.55 427.69 37C427.74 38.2 428.19 39.225 429.04 40.075C429.94 40.925 430.99 41.35 432.19 41.35C435.19 41.35 436.69 39.1 436.69 34.6H444.19C444.19 36.85 444.39 38.4 444.79 39.25C445.44 40.65 446.74 41.35 448.69 41.35C451.69 41.35 453.19 38.775 453.19 33.625C453.19 28.725 451.54 25.425 448.24 23.725C445.99 22.575 442.14 22 436.69 22V14.5H440.44C446.64 14.5 451.515 16.125 455.065 19.375C458.815 22.775 460.69 27.525 460.69 33.625ZM497.389 31.6C497.389 36.45 495.739 40.55 492.439 43.9C489.139 47.2 485.064 48.85 480.214 48.85C475.314 48.85 471.214 47.2 467.914 43.9C464.614 40.6 462.964 36.5 462.964 31.6C462.964 26.75 464.614 22.675 467.914 19.375C471.264 16.075 475.364 14.425 480.214 14.425C485.064 14.425 489.139 16.075 492.439 19.375C495.739 22.675 497.389 26.75 497.389 31.6ZM489.889 31.6C489.889 28.95 488.939 26.675 487.039 24.775C485.139 22.875 482.864 21.925 480.214 21.925C477.514 21.925 475.214 22.875 473.314 24.775C471.414 26.625 470.464 28.9 470.464 31.6C470.464 34.3 471.414 36.6 473.314 38.5C475.214 40.4 477.514 41.35 480.214 41.35C482.914 41.35 485.189 40.4 487.039 38.5C488.939 36.6 489.889 34.3 489.889 31.6ZM540.158 37.9C540.158 45.2 533.408 48.85 519.908 48.85C514.558 48.85 510.083 47.875 506.483 45.925C501.933 43.475 499.658 39.8 499.658 34.9V31.15H507.158C506.908 35.5 507.933 38.375 510.233 39.775C511.783 40.725 515.008 41.25 519.908 41.35C522.208 41.4 524.608 41.15 527.108 40.6C530.708 39.8 532.558 38.65 532.658 37.15C532.808 34.75 529.483 33.55 522.683 33.55C521.483 33.55 519.658 33.625 517.208 33.775C514.758 33.925 512.933 34 511.733 34V27.25C511.583 27.25 512.833 27.325 515.483 27.475C516.383 27.525 517.608 27.55 519.158 27.55H525.233C528.233 27.25 529.733 26.4 529.733 25C529.733 23.5 528.633 22.55 526.433 22.15C525.883 22.05 524.233 22 521.483 22H499.658V14.5H528.158V14.8C530.708 15.4 532.833 16.575 534.533 18.325C536.333 20.275 537.233 22.5 537.233 25C537.233 26.4 536.708 27.875 535.658 29.425C538.658 31.375 540.158 34.2 540.158 37.9ZM568.457 31.75C568.457 36.3 567.282 40.2 564.932 43.45C562.332 47.05 558.832 48.85 554.432 48.85C551.032 48.85 548.157 47.725 545.807 45.475C543.457 43.225 542.282 40.425 542.282 37.075C542.282 33.725 543.307 30.875 545.357 28.525C547.407 26.175 550.082 25 553.382 25C554.982 25 556.282 25.75 557.282 27.25C558.182 28.55 558.632 30.05 558.632 31.75C558.632 33.45 558.182 34.95 557.282 36.25C556.282 37.75 554.982 38.5 553.382 38.5C551.982 38.5 550.782 37.9 549.782 36.7C549.782 38.1 550.207 39.225 551.057 40.075C551.907 40.925 553.032 41.35 554.432 41.35C556.482 41.35 558.132 40.2 559.382 37.9C560.432 36 560.957 33.95 560.957 31.75C560.957 29.45 560.432 27.35 559.382 25.45C558.132 23.15 556.432 22 554.282 22H524.732V14.5H554.282C558.732 14.5 562.282 16.3 564.932 19.9C567.282 23.15 568.457 27.1 568.457 31.75ZM611.278 11.575C611.278 14.425 610.253 16.875 608.203 18.925C607.553 19.575 606.878 20.125 606.178 20.575C609.528 24.175 611.203 28.625 611.203 33.925C611.203 38.325 610.328 41.8 608.578 44.35C606.528 47.35 603.403 48.85 599.203 48.85C596.103 48.85 593.428 47.95 591.178 46.15C588.928 47.95 586.103 48.85 582.703 48.85C578.603 48.85 575.528 47.4 573.478 44.5C571.628 41.95 570.703 38.55 570.703 34.3C570.703 29.5 571.978 25.4 574.528 22H570.703V14.5H601.303C601.953 14.5 602.528 14.175 603.028 13.525C603.528 12.875 603.778 12.225 603.778 11.575C603.778 9.425 602.403 8.325 599.653 8.275L602.578 1.3C605.078 1.7 607.153 2.875 608.803 4.825C610.453 6.775 611.278 9.025 611.278 11.575ZM603.703 33.925C603.703 30.175 602.528 27.25 600.178 25.15C597.828 23.05 594.753 22 590.953 22C587.053 22 583.953 23.1 581.653 25.3C579.353 27.45 578.203 30.45 578.203 34.3C578.203 39 579.703 41.35 582.703 41.35C585.053 41.35 586.478 40.75 586.978 39.55C587.128 39.2 587.203 37.6 587.203 34.75H594.928V37C594.928 38.65 595.228 39.8 595.828 40.45C596.428 41.05 597.553 41.35 599.203 41.35C601.153 41.35 602.453 40.525 603.103 38.875C603.503 37.875 603.703 36.225 603.703 33.925ZM654.052 11.575C654.052 14.425 653.027 16.875 650.977 18.925C650.377 19.525 649.752 20.05 649.102 20.5C652.352 23.75 653.977 27.475 653.977 31.675C653.977 36.775 651.827 40.975 647.527 44.275C643.577 47.325 638.977 48.85 633.727 48.85C628.477 48.85 623.877 47.325 619.927 44.275C615.627 40.975 613.477 36.775 613.477 31.675C613.477 28.075 614.627 24.85 616.927 22H613.477V14.5H644.077C644.727 14.5 645.302 14.175 645.802 13.525C646.302 12.875 646.552 12.225 646.552 11.575C646.552 9.425 645.177 8.325 642.427 8.275L645.352 1.3C647.852 1.7 649.927 2.875 651.577 4.825C653.227 6.775 654.052 9.025 654.052 11.575ZM646.477 31.675C646.477 28.725 645.027 26.325 642.127 24.475C639.627 22.825 636.827 22 633.727 22C630.627 22 627.827 22.825 625.327 24.475C622.427 26.325 620.977 28.725 620.977 31.675C620.977 34.625 622.427 37.025 625.327 38.875C627.827 40.525 630.627 41.35 633.727 41.35C636.827 41.35 639.627 40.525 642.127 38.875C645.027 37.025 646.477 34.625 646.477 31.675ZM670.8 31.75C670.8 36.05 669.9 39.8 668.1 43C665.9 46.9 662.775 48.85 658.725 48.85C654.825 48.85 651.7 47 649.35 43.3C647.5 40.35 646.575 37.275 646.575 34.075H654.075C654.075 35.825 654.425 37.375 655.125 38.725C655.975 40.475 657.175 41.35 658.725 41.35C660.375 41.35 661.6 40.075 662.4 37.525C663 35.675 663.3 33.75 663.3 31.75C663.3 30 662.95 28.1 662.25 26.05C661.35 23.35 660.175 22 658.725 22H655.725V14.5H658.725C662.775 14.5 665.925 16.625 668.175 20.875C669.925 24.225 670.8 27.85 670.8 31.75ZM750.217 31.75C750.217 34.7 749.692 37.3 748.642 39.55C749.292 41.25 749.617 43.1 749.617 45.1C749.617 47.45 748.767 51.05 747.067 55.9L739.942 53.425C740.542 51.875 741.217 49.525 741.967 46.375C738.717 48.025 734.717 48.85 729.967 48.85C719.717 48.85 714.592 45.65 714.592 39.25C714.592 35.15 716.267 32.325 719.617 30.775C721.967 29.675 725.417 29.125 729.967 29.125C735.017 29.125 739.267 30.225 742.717 32.425V30.25C742.717 24.75 741.217 22 738.217 22C735.967 22 734.592 22.5 734.092 23.5C733.842 24 733.717 25.475 733.717 27.925H726.292C726.292 25.725 726.092 24.275 725.692 23.575C725.092 22.525 723.742 22 721.642 22C719.392 22 718.017 22.65 717.517 23.95C717.317 24.45 717.217 26.05 717.217 28.75H709.717V25C709.717 21.8 710.917 19.225 713.317 17.275C715.517 15.475 718.267 14.575 721.567 14.575C724.767 14.575 727.517 15.45 729.817 17.2C731.917 15.4 734.717 14.5 738.217 14.5C746.217 14.5 750.217 20.25 750.217 31.75ZM739.417 39.175C737.317 37.425 733.467 36.55 727.867 36.55C724.017 36.55 722.092 37.4 722.092 39.1C722.092 40.65 724.017 41.425 727.867 41.425C733.517 41.425 737.367 40.675 739.417 39.175ZM793.065 11.575C793.065 14.425 792.04 16.875 789.99 18.925C789.39 19.525 788.765 20.05 788.115 20.5C791.365 23.75 792.99 27.475 792.99 31.675C792.99 36.775 790.84 40.975 786.54 44.275C782.59 47.325 777.99 48.85 772.74 48.85C767.49 48.85 762.89 47.325 758.94 44.275C754.64 40.975 752.49 36.775 752.49 31.675C752.49 28.075 753.64 24.85 755.94 22H752.49V14.5H783.09C783.74 14.5 784.315 14.175 784.815 13.525C785.315 12.875 785.565 12.225 785.565 11.575C785.565 9.425 784.19 8.325 781.44 8.275L784.365 1.3C786.865 1.7 788.94 2.875 790.59 4.825C792.24 6.775 793.065 9.025 793.065 11.575ZM785.49 31.675C785.49 28.725 784.04 26.325 781.14 24.475C778.64 22.825 775.84 22 772.74 22C769.64 22 766.84 22.825 764.34 24.475C761.44 26.325 759.99 28.725 759.99 31.675C759.99 34.625 761.44 37.025 764.34 38.875C766.84 40.525 769.64 41.35 772.74 41.35C775.84 41.35 778.64 40.525 781.14 38.875C784.04 37.025 785.49 34.625 785.49 31.675ZM809.814 31.75C809.814 36.05 808.914 39.8 807.114 43C804.914 46.9 801.789 48.85 797.739 48.85C793.839 48.85 790.714 47 788.364 43.3C786.514 40.35 785.589 37.275 785.589 34.075H793.089C793.089 35.825 793.439 37.375 794.139 38.725C794.989 40.475 796.189 41.35 797.739 41.35C799.389 41.35 800.614 40.075 801.414 37.525C802.014 35.675 802.314 33.75 802.314 31.75C802.314 30 801.964 28.1 801.264 26.05C800.364 23.35 799.189 22 797.739 22H794.739V14.5H797.739C801.789 14.5 804.939 16.625 807.189 20.875C808.939 24.225 809.814 27.85 809.814 31.75ZM889.23 33.625C889.23 37.925 888.33 41.425 886.53 44.125C884.43 47.275 881.33 48.85 877.23 48.85C873.93 48.85 871.13 47.8 868.83 45.7C866.58 47.8 863.88 48.85 860.73 48.85C857.43 48.85 854.605 47.675 852.255 45.325C849.905 42.975 848.73 40.15 848.73 36.85C848.73 29.45 851.88 25.75 858.18 25.75C862.68 25.75 864.93 27.65 864.93 31.45C864.93 33.1 864.355 34.575 863.205 35.875C862.105 37.175 860.755 37.825 859.155 37.825C858.105 37.825 857.13 37.55 856.23 37C856.28 38.2 856.73 39.225 857.58 40.075C858.48 40.925 859.53 41.35 860.73 41.35C863.73 41.35 865.23 39.1 865.23 34.6H872.73C872.73 36.85 872.93 38.4 873.33 39.25C873.98 40.65 875.28 41.35 877.23 41.35C880.23 41.35 881.73 38.775 881.73 33.625C881.73 28.725 880.08 25.425 876.78 23.725C874.53 22.575 870.68 22 865.23 22V14.5H868.98C875.18 14.5 880.055 16.125 883.605 19.375C887.355 22.775 889.23 27.525 889.23 33.625ZM925.929 31.6C925.929 36.45 924.279 40.55 920.979 43.9C917.679 47.2 913.604 48.85 908.754 48.85C903.854 48.85 899.754 47.2 896.454 43.9C893.154 40.6 891.504 36.5 891.504 31.6C891.504 26.75 893.154 22.675 896.454 19.375C899.804 16.075 903.904 14.425 908.754 14.425C913.604 14.425 917.679 16.075 920.979 19.375C924.279 22.675 925.929 26.75 925.929 31.6ZM918.429 31.6C918.429 28.95 917.479 26.675 915.579 24.775C913.679 22.875 911.404 21.925 908.754 21.925C906.054 21.925 903.754 22.875 901.854 24.775C899.954 26.625 899.004 28.9 899.004 31.6C899.004 34.3 899.954 36.6 901.854 38.5C903.754 40.4 906.054 41.35 908.754 41.35C911.454 41.35 913.729 40.4 915.579 38.5C917.479 36.6 918.429 34.3 918.429 31.6ZM968.698 33.925C968.698 38.325 967.823 41.8 966.073 44.35C964.023 47.35 960.898 48.85 956.698 48.85C953.598 48.85 950.923 47.95 948.673 46.15C946.423 47.95 943.598 48.85 940.198 48.85C936.098 48.85 933.023 47.4 930.973 44.5C929.123 41.95 928.198 38.55 928.198 34.3C928.198 29.5 929.473 25.4 932.023 22H928.198V14.5H956.698V15.925C960.498 17.375 963.448 19.725 965.548 22.975C967.648 26.175 968.698 29.825 968.698 33.925ZM961.198 33.925C961.198 30.175 960.023 27.25 957.673 25.15C955.323 23.05 952.248 22 948.448 22C944.548 22 941.448 23.1 939.148 25.3C936.848 27.45 935.698 30.45 935.698 34.3C935.698 39 937.198 41.35 940.198 41.35C942.548 41.35 943.973 40.75 944.473 39.55C944.623 39.2 944.698 37.6 944.698 34.75H952.423V37C952.423 38.65 952.723 39.8 953.323 40.45C953.923 41.05 955.048 41.35 956.698 41.35C958.648 41.35 959.948 40.525 960.598 38.875C960.998 37.875 961.198 36.225 961.198 33.925ZM968.722 11.575C968.722 14.425 967.697 16.875 965.647 18.925C963.597 20.975 961.147 22 958.297 22H953.722V14.5H958.297C959.097 14.5 959.797 14.225 960.397 13.675C960.947 13.075 961.222 12.375 961.222 11.575C961.222 10.425 960.822 9.625 960.022 9.175C959.022 11.725 957.147 13 954.397 13C952.747 13 951.347 12.425 950.197 11.275C949.047 10.075 948.472 8.65 948.472 7C948.472 4.9 949.347 3.3 951.097 2.2C952.597 1.3 954.472 0.849999 956.722 0.849999C964.722 0.849999 968.722 4.425 968.722 11.575ZM1005.47 31.6C1005.47 36.45 1003.82 40.55 1000.52 43.9C997.22 47.2 993.145 48.85 988.295 48.85C983.395 48.85 979.295 47.2 975.995 43.9C972.695 40.6 971.045 36.5 971.045 31.6C971.045 26.75 972.695 22.675 975.995 19.375C979.345 16.075 983.445 14.425 988.295 14.425C993.145 14.425 997.22 16.075 1000.52 19.375C1003.82 22.675 1005.47 26.75 1005.47 31.6ZM997.97 31.6C997.97 28.95 997.02 26.675 995.12 24.775C993.22 22.875 990.945 21.925 988.295 21.925C985.595 21.925 983.295 22.875 981.395 24.775C979.495 26.625 978.545 28.9 978.545 31.6C978.545 34.3 979.495 36.6 981.395 38.5C983.295 40.4 985.595 41.35 988.295 41.35C990.995 41.35 993.27 40.4 995.12 38.5C997.02 36.6 997.97 34.3 997.97 31.6ZM1048.24 31.75C1048.24 43.15 1044.24 48.85 1036.24 48.85C1033.09 48.85 1030.41 47.95 1028.21 46.15C1026.01 47.95 1023.19 48.85 1019.74 48.85C1015.54 48.85 1012.39 47.075 1010.29 43.525C1008.59 40.675 1007.74 37 1007.74 32.5C1007.74 26.9 1009.31 22.825 1012.46 20.275C1011.91 19.175 1011.64 17.9 1011.64 16.45C1011.64 13.3 1013.34 10.9 1016.74 9.25C1019.34 8 1022.41 7.375 1025.96 7.375C1033.46 7.375 1039.11 9.6 1042.91 14.05C1046.46 18.2 1048.24 24.1 1048.24 31.75ZM1031.96 16.75C1031.96 15.95 1031.09 15.35 1029.34 14.95C1028.14 14.65 1026.99 14.5 1025.89 14.5C1024.74 14.5 1023.56 14.65 1022.36 14.95C1020.61 15.35 1019.74 15.95 1019.74 16.75C1019.74 17.55 1020.61 18.15 1022.36 18.55C1023.56 18.85 1024.74 19 1025.89 19C1026.99 19 1028.14 18.85 1029.34 18.55C1031.09 18.15 1031.96 17.55 1031.96 16.75ZM1041.49 31.75C1041.49 27.05 1040.21 22.975 1037.66 19.525C1035.91 23.775 1031.66 25.9 1024.91 25.9C1022.71 25.9 1020.66 25.6 1018.76 25C1016.36 26.65 1015.11 29.15 1015.01 32.5C1014.96 34.55 1015.24 36.4 1015.84 38.05C1016.69 40.25 1017.99 41.35 1019.74 41.35C1022.09 41.35 1023.51 40.775 1024.01 39.625C1024.16 39.275 1024.24 37.65 1024.24 34.75H1031.96C1031.96 37.35 1032.06 38.9 1032.26 39.4C1032.76 40.7 1034.09 41.35 1036.24 41.35C1039.74 41.35 1041.49 38.15 1041.49 31.75ZM1091.09 11.575C1091.09 15.175 1089.54 18.075 1086.44 20.275C1089.49 23.325 1091.01 27.15 1091.01 31.75C1091.01 35.75 1090.21 39.1 1088.61 41.8C1087.01 44.5 1084.46 46.925 1080.96 49.075L1077.06 42.775C1079.46 41.275 1081.14 39.75 1082.09 38.2C1083.04 36.6 1083.51 34.45 1083.51 31.75C1083.51 28.5 1082.14 26 1079.39 24.25C1077.09 22.75 1074.21 22 1070.76 22C1067.36 22 1064.49 22.75 1062.14 24.25C1059.39 26 1058.01 28.5 1058.01 31.75C1058.01 36.55 1060.14 40.2 1064.39 42.7L1060.64 49.15C1053.89 45.2 1050.51 39.4 1050.51 31.75C1050.51 28 1051.54 24.75 1053.59 22H1050.51V14.5H1081.11C1081.76 14.5 1082.34 14.175 1082.84 13.525C1083.34 12.875 1083.59 12.225 1083.59 11.575C1083.59 9.425 1082.21 8.325 1079.46 8.275L1082.39 1.3C1084.89 1.7 1086.96 2.875 1088.61 4.825C1090.26 6.775 1091.09 9.025 1091.09 11.575ZM1136.04 31.975C1136.04 36.475 1134.96 40.325 1132.81 43.525C1130.36 47.225 1127.01 49.075 1122.76 49.075C1119.46 49.075 1116.61 47.95 1114.21 45.7C1111.81 43.4 1110.61 40.6 1110.61 37.3C1110.61 33.3 1111.21 30.375 1112.41 28.525C1113.91 26.175 1116.54 25 1120.29 25C1122.14 25 1123.71 25.7 1125.01 27.1C1126.31 28.5 1126.96 30.125 1126.96 31.975C1126.96 33.675 1126.51 35.175 1125.61 36.475C1124.61 37.975 1123.31 38.725 1121.71 38.725C1120.31 38.725 1119.11 38.125 1118.11 36.925C1118.11 38.175 1118.56 39.275 1119.46 40.225C1120.41 41.125 1121.51 41.575 1122.76 41.575C1124.81 41.575 1126.34 40.425 1127.34 38.125C1128.14 36.375 1128.54 34.325 1128.54 31.975C1128.54 28.275 1127.56 25.625 1125.61 24.025C1123.81 22.575 1121.04 21.85 1117.29 21.85C1109.89 21.85 1106.19 23.825 1106.19 27.775C1106.19 28.925 1106.54 30.6 1107.24 32.8C1107.99 35 1108.36 36.675 1108.36 37.825C1108.36 41.125 1107.11 43.8 1104.61 45.85C1102.16 47.85 1099.24 48.85 1095.84 48.85C1092.04 48.85 1088.99 47.25 1086.69 44.05C1084.59 41.2 1083.54 37.8 1083.54 33.85L1091.04 33.55C1091.14 36 1091.39 37.725 1091.79 38.725C1092.49 40.475 1093.84 41.35 1095.84 41.35C1099.24 41.35 1100.94 40.175 1100.94 37.825C1100.94 36.425 1100.51 34.4 1099.66 31.75C1098.81 29.1 1098.39 27.075 1098.39 25.675C1098.39 18.225 1104.09 14.5 1115.49 14.5C1122.39 14.5 1127.41 15.65 1130.56 17.95C1134.21 20.65 1136.04 25.325 1136.04 31.975ZM1215.45 30.85C1215.45 36.75 1214.93 40.875 1213.88 43.225C1212.18 46.975 1208.7 48.85 1203.45 48.85C1199.05 48.85 1195.95 47.575 1194.15 45.025C1193.7 44.425 1192.78 42.075 1191.38 37.975C1190.48 35.425 1189 34.15 1186.95 34.15C1185.85 34.15 1184.88 34.375 1184.03 34.825C1182.98 35.375 1182.45 36.175 1182.45 37.225C1182.45 39.225 1183.58 42.425 1185.83 46.825L1178.1 49C1176 44.7 1174.95 40.775 1174.95 37.225C1174.95 34.175 1176.2 31.6 1178.7 29.5C1181.05 27.6 1183.8 26.65 1186.95 26.65C1191.15 26.65 1194.2 27.925 1196.1 30.475C1196.6 31.125 1197.6 33.475 1199.1 37.525C1200.05 40.075 1201.5 41.35 1203.45 41.35C1206.45 41.35 1207.95 38.625 1207.95 33.175C1207.95 29.625 1207.8 27.05 1207.5 25.45C1206.95 22.6 1205.8 20.35 1204.05 18.7C1203.3 21.1 1201.63 22.925 1199.03 24.175C1196.83 25.275 1194.33 25.825 1191.53 25.825C1188.33 25.825 1185.58 25.1 1183.28 23.65C1180.58 21.95 1179.23 19.6 1179.23 16.6C1179.23 13.55 1180.68 11.225 1183.58 9.625C1185.93 8.325 1188.78 7.675 1192.13 7.675C1199.73 7.675 1205.5 9.65 1209.45 13.6C1213.45 17.5 1215.45 23.25 1215.45 30.85ZM1198.35 16.75C1198.35 15.95 1197.55 15.35 1195.95 14.95C1194.8 14.65 1193.7 14.5 1192.65 14.5C1191.6 14.5 1190.5 14.65 1189.35 14.95C1187.75 15.35 1186.95 15.95 1186.95 16.75C1186.95 17.55 1187.75 18.15 1189.35 18.55C1190.5 18.85 1191.6 19 1192.65 19C1193.7 19 1194.8 18.85 1195.95 18.55C1197.55 18.15 1198.35 17.55 1198.35 16.75ZM1242.4 47.425C1237.35 48.375 1233.47 48.85 1230.77 48.85C1226.47 48.85 1223.15 47 1220.8 43.3C1218.75 40.15 1217.72 36.3 1217.72 31.75C1217.72 26.9 1218.57 23 1220.27 20.05C1222.42 16.35 1225.75 14.5 1230.25 14.5C1233.55 14.5 1236.27 15.6 1238.42 17.8C1240.62 19.95 1241.72 22.675 1241.72 25.975C1241.72 29.175 1240.6 31.9 1238.35 34.15C1236.15 36.4 1233.45 37.525 1230.25 37.525C1228.7 37.525 1227.22 37.25 1225.82 36.7C1226.77 39.8 1228.42 41.35 1230.77 41.35C1233.02 41.35 1236.42 40.9 1240.97 40L1242.4 47.425ZM1234.22 25.975C1234.22 24.875 1233.85 23.95 1233.1 23.2C1232.35 22.4 1231.42 22 1230.32 22C1229.17 22 1228.2 22.375 1227.4 23.125C1226.6 23.875 1226.2 24.825 1226.2 25.975C1226.2 27.125 1226.57 28.1 1227.32 28.9C1228.12 29.65 1229.1 30.025 1230.25 30.025C1231.4 30.025 1232.35 29.65 1233.1 28.9C1233.85 28.1 1234.22 27.125 1234.22 25.975ZM1323.45 11.575C1323.45 14.175 1322.52 16.525 1320.67 18.625C1318.87 20.675 1316.67 21.8 1314.07 22H1306.5C1306.6 22.3 1306.65 22.625 1306.65 22.975C1306.65 23.475 1306.55 24.025 1306.35 24.625H1322.85V32.125H1320C1320.8 33.525 1321.2 35.05 1321.2 36.7C1321.2 40.9 1318.97 44.075 1314.52 46.225C1310.92 47.975 1306.85 48.85 1302.3 48.85C1297.7 48.85 1293.6 47.975 1290 46.225C1285.55 44.075 1283.32 40.9 1283.32 36.7C1283.32 35.05 1283.72 33.525 1284.52 32.125H1281.37V24.625H1297.95C1297.75 24.025 1297.65 23.475 1297.65 22.975C1297.65 22.625 1297.7 22.3 1297.8 22H1281.82V14.5H1313.47C1314.12 14.5 1314.7 14.175 1315.2 13.525C1315.7 12.875 1315.95 12.225 1315.95 11.575C1315.95 9.425 1314.57 8.325 1311.82 8.275L1314.75 1.3C1317.25 1.7 1319.32 2.875 1320.97 4.825C1322.62 6.775 1323.45 9.025 1323.45 11.575ZM1313.7 36.7C1313.7 35.15 1312.07 33.95 1308.82 33.1C1306.37 32.45 1304.2 32.125 1302.3 32.125C1300.35 32.125 1298.15 32.45 1295.7 33.1C1292.45 33.95 1290.82 35.15 1290.82 36.7C1290.82 38.3 1292.45 39.525 1295.7 40.375C1298.15 41.025 1300.35 41.35 1302.3 41.35C1304.2 41.35 1306.37 41.025 1308.82 40.375C1312.07 39.525 1313.7 38.3 1313.7 36.7ZM1365.67 11.575C1365.67 15.075 1364.17 17.925 1361.17 20.125C1364.12 23.475 1365.6 28.3 1365.6 34.6C1365.6 38.5 1364.6 41.775 1362.6 44.425C1360.4 47.375 1357.4 48.85 1353.6 48.85C1349.15 48.85 1346.02 47.575 1344.22 45.025C1343.87 44.475 1343 42.125 1341.6 37.975C1340.75 35.425 1339.25 34.15 1337.1 34.15C1336.05 34.15 1335.07 34.4 1334.17 34.9C1333.12 35.45 1332.6 36.225 1332.6 37.225C1332.6 38.675 1332.97 40.325 1333.72 42.175C1333.92 42.725 1334.67 44.275 1335.97 46.825L1328.1 49C1326.1 44.9 1325.1 40.975 1325.1 37.225C1325.1 34.075 1326.35 31.5 1328.85 29.5C1331.15 27.6 1333.9 26.65 1337.1 26.65C1341.4 26.65 1344.47 27.925 1346.32 30.475C1346.87 31.225 1347.85 33.575 1349.25 37.525C1350.15 40.075 1351.6 41.35 1353.6 41.35C1356.6 41.35 1358.1 39.1 1358.1 34.6C1358.1 28.95 1356.65 25.3 1353.75 23.65C1351.8 22.55 1347.75 22 1341.6 22H1325.1V14.5H1355.7C1356.35 14.5 1356.92 14.175 1357.42 13.525C1357.92 12.875 1358.17 12.225 1358.17 11.575C1358.17 9.425 1356.8 8.325 1354.05 8.275L1356.97 1.3C1359.47 1.7 1361.55 2.875 1363.2 4.825C1364.85 6.775 1365.67 9.025 1365.67 11.575ZM1380.77 64.675C1380.77 66.375 1380.1 69.475 1378.75 73.975L1372.6 72.325C1373.05 71.025 1373.6 69.025 1374.25 66.325C1371.45 68.225 1368.25 69.175 1364.65 69.175C1361.3 69.175 1358.52 68.375 1356.32 66.775C1353.87 64.925 1352.65 62.4 1352.65 59.2C1352.65 56.15 1353.97 53.7 1356.62 51.85C1358.92 50.2 1361.67 49.375 1364.87 49.375C1368.47 49.375 1371.65 50.375 1374.4 52.375C1374.35 46.775 1371.92 42.375 1367.12 39.175L1370.65 33.85C1374.35 36.3 1376.95 38.925 1378.45 41.725C1380 44.525 1380.77 48.15 1380.77 52.6C1380.77 54.95 1380.4 57.15 1379.65 59.2C1380.4 61.1 1380.77 62.925 1380.77 64.675ZM1372.37 59.2C1370.52 56.9 1368.07 55.75 1365.02 55.75C1363.67 55.75 1362.4 56.05 1361.2 56.65C1359.7 57.35 1358.95 58.3 1358.95 59.5C1358.95 60.55 1359.72 61.425 1361.27 62.125C1362.52 62.725 1363.75 63.025 1364.95 63.025C1368.05 63.025 1370.52 61.75 1372.37 59.2ZM1421.34 11.575C1421.34 15.175 1419.79 18.075 1416.69 20.275C1417.99 22.075 1418.76 24.3 1419.01 26.95C1420.51 28.45 1421.26 30.35 1421.26 32.65C1421.26 43.45 1417.26 48.85 1409.26 48.85C1406.11 48.85 1403.44 47.95 1401.24 46.15C1399.04 47.95 1396.21 48.85 1392.76 48.85C1388.66 48.85 1385.56 47.125 1383.46 43.675C1381.66 40.775 1380.76 37.15 1380.76 32.8C1380.76 28.6 1381.84 25 1383.99 22H1380.76V14.5H1411.36C1412.01 14.5 1412.59 14.175 1413.09 13.525C1413.59 12.875 1413.84 12.225 1413.84 11.575C1413.84 9.425 1412.46 8.325 1409.71 8.275L1412.64 1.3C1415.14 1.7 1417.21 2.875 1418.86 4.825C1420.51 6.775 1421.34 9.025 1421.34 11.575ZM1413.99 30.7C1413.99 29.5 1413.26 28.9 1411.81 28.9C1410.41 28.9 1409.71 29.5 1409.71 30.7C1409.71 31.95 1410.41 32.575 1411.81 32.575C1413.26 32.575 1413.99 31.95 1413.99 30.7ZM1413.09 38.65C1412.59 38.75 1412.09 38.8 1411.59 38.8C1408.54 38.8 1406.34 37.775 1404.99 35.725C1404.99 39.575 1406.41 41.45 1409.26 41.35C1411.26 41.3 1412.54 40.4 1413.09 38.65ZM1410.61 23.725C1408.61 22.575 1405.49 22 1401.24 22C1392.59 22 1388.26 25.6 1388.26 32.8C1388.26 38.5 1389.76 41.35 1392.76 41.35C1394.61 41.35 1395.86 40.85 1396.51 39.85C1397.06 39.05 1397.31 37.65 1397.26 35.65H1404.91C1404.16 34.45 1403.79 32.95 1403.79 31.15C1403.79 26.6 1406.06 24.125 1410.61 23.725ZM1464.04 33.625C1464.04 37.925 1463.14 41.425 1461.34 44.125C1459.24 47.275 1456.14 48.85 1452.04 48.85C1448.74 48.85 1445.94 47.8 1443.64 45.7C1441.39 47.8 1438.69 48.85 1435.54 48.85C1432.24 48.85 1429.41 47.675 1427.06 45.325C1424.71 42.975 1423.54 40.15 1423.54 36.85C1423.54 29.45 1426.66 25.75 1432.91 25.75C1437.46 25.75 1439.74 27.65 1439.74 31.45C1439.74 33.1 1439.16 34.575 1438.01 35.875C1436.91 37.175 1435.56 37.825 1433.96 37.825C1432.91 37.825 1431.94 37.55 1431.04 37C1431.09 38.2 1431.54 39.225 1432.39 40.075C1433.29 40.925 1434.34 41.35 1435.54 41.35C1438.59 41.35 1440.09 39.1 1440.04 34.6H1447.54C1447.54 36.8 1447.74 38.35 1448.14 39.25C1448.74 40.65 1450.04 41.35 1452.04 41.35C1455.04 41.35 1456.54 38.775 1456.54 33.625C1456.54 28.675 1454.89 25.35 1451.59 23.65C1449.44 22.55 1445.59 22 1440.04 22H1423.54V14.5H1452.04V15.7C1460.04 18.35 1464.04 24.325 1464.04 33.625ZM1492.33 31.75C1492.33 36.3 1491.16 40.2 1488.81 43.45C1486.21 47.05 1482.71 48.85 1478.31 48.85C1474.91 48.85 1472.03 47.725 1469.68 45.475C1467.33 43.225 1466.16 40.425 1466.16 37.075C1466.16 33.725 1467.18 30.875 1469.23 28.525C1471.28 26.175 1473.96 25 1477.26 25C1478.86 25 1480.16 25.75 1481.16 27.25C1482.06 28.55 1482.51 30.05 1482.51 31.75C1482.51 33.45 1482.06 34.95 1481.16 36.25C1480.16 37.75 1478.86 38.5 1477.26 38.5C1475.86 38.5 1474.66 37.9 1473.66 36.7C1473.66 38.1 1474.08 39.225 1474.93 40.075C1475.78 40.925 1476.91 41.35 1478.31 41.35C1480.36 41.35 1482.01 40.2 1483.26 37.9C1484.31 36 1484.83 33.95 1484.83 31.75C1484.83 29.45 1484.31 27.35 1483.26 25.45C1482.01 23.15 1480.31 22 1478.16 22H1448.61V14.5H1478.16C1482.61 14.5 1486.16 16.3 1488.81 19.9C1491.16 23.15 1492.33 27.1 1492.33 31.75ZM1535.08 31.75C1535.08 35.75 1534.28 39.1 1532.68 41.8C1531.08 44.5 1528.53 46.925 1525.03 49.075L1521.13 42.775C1523.53 41.275 1525.18 39.75 1526.08 38.2C1527.03 36.65 1527.53 34.5 1527.58 31.75C1527.63 26.45 1526.61 22.375 1524.51 19.525C1522.76 23.775 1518.51 25.9 1511.76 25.9C1509.56 25.9 1507.51 25.6 1505.61 25C1504.11 26 1503.13 26.925 1502.68 27.775C1502.28 28.575 1502.08 29.9 1502.08 31.75C1502.08 36.55 1504.21 40.2 1508.46 42.7L1504.71 49.15C1497.96 45.2 1494.58 39.4 1494.58 31.75C1494.58 26.7 1496.18 22.9 1499.38 20.35C1498.78 19.25 1498.48 17.95 1498.48 16.45C1498.48 13.45 1500.06 11.175 1503.21 9.625C1505.71 8.375 1508.61 7.75 1511.91 7.75C1519.51 7.75 1525.26 9.825 1529.16 13.975C1533.11 18.125 1535.08 24.05 1535.08 31.75ZM1518.58 16.375C1518.53 14.625 1516.53 13.75 1512.58 13.75C1508.58 13.75 1506.58 14.625 1506.58 16.375C1506.58 18.125 1508.58 19 1512.58 19C1516.63 19 1518.63 18.125 1518.58 16.375ZM1577.93 11.575C1577.93 14.425 1576.9 16.875 1574.85 18.925C1574.25 19.525 1573.63 20.05 1572.98 20.5C1576.23 23.75 1577.85 27.475 1577.85 31.675C1577.85 36.775 1575.7 40.975 1571.4 44.275C1567.45 47.325 1562.85 48.85 1557.6 48.85C1552.35 48.85 1547.75 47.325 1543.8 44.275C1539.5 40.975 1537.35 36.775 1537.35 31.675C1537.35 28.075 1538.5 24.85 1540.8 22H1537.35V14.5H1567.95C1568.6 14.5 1569.18 14.175 1569.68 13.525C1570.18 12.875 1570.43 12.225 1570.43 11.575C1570.43 9.425 1569.05 8.325 1566.3 8.275L1569.23 1.3C1571.73 1.7 1573.8 2.875 1575.45 4.825C1577.1 6.775 1577.93 9.025 1577.93 11.575ZM1570.35 31.675C1570.35 28.725 1568.9 26.325 1566 24.475C1563.5 22.825 1560.7 22 1557.6 22C1554.5 22 1551.7 22.825 1549.2 24.475C1546.3 26.325 1544.85 28.725 1544.85 31.675C1544.85 34.625 1546.3 37.025 1549.2 38.875C1551.7 40.525 1554.5 41.35 1557.6 41.35C1560.7 41.35 1563.5 40.525 1566 38.875C1568.9 37.025 1570.35 34.625 1570.35 31.675ZM1594.68 31.75C1594.68 36.05 1593.78 39.8 1591.98 43C1589.78 46.9 1586.65 48.85 1582.6 48.85C1578.7 48.85 1575.58 47 1573.23 43.3C1571.38 40.35 1570.45 37.275 1570.45 34.075H1577.95C1577.95 35.825 1578.3 37.375 1579 38.725C1579.85 40.475 1581.05 41.35 1582.6 41.35C1584.25 41.35 1585.48 40.075 1586.28 37.525C1586.88 35.675 1587.18 33.75 1587.18 31.75C1587.18 30 1586.83 28.1 1586.13 26.05C1585.23 23.35 1584.05 22 1582.6 22H1579.6V14.5H1582.6C1586.65 14.5 1589.8 16.625 1592.05 20.875C1593.8 24.225 1594.68 27.85 1594.68 31.75ZM1607.4 45.85C1607.4 46.9 1607.05 47.775 1606.35 48.475C1605.65 49.125 1604.77 49.45 1603.72 49.45C1602.72 49.45 1601.85 49.1 1601.1 48.4C1600.4 47.7 1600.05 46.85 1600.05 45.85C1600.05 45.05 1600.45 44.25 1601.25 43.45C1602.1 42.6 1602.92 42.175 1603.72 42.175C1604.77 42.175 1605.65 42.525 1606.35 43.225C1607.05 43.925 1607.4 44.8 1607.4 45.85Z" fill="black"/>
</svg>
