<svg width="1749" height="79" viewBox="0 0 1749 79" fill="none" xmlns="http://www.w3.org/2000/svg">
<path d="M40.15 32.15C40.15 36.25 39.425 40 37.975 43.4C36.075 47.8 33.35 50 29.8 50C27.2 50 25 49.225 23.2 47.675C21.4 46.125 20.3 44.075 19.9 41.525C18.4 47.175 15.325 50 10.675 50C7.775 50 5.425 49.175 3.625 47.525C1.825 45.825 0.925 43.55 0.925 40.7C0.925 37.2 1.425 34.25 2.425 31.85C3.775 28.55 5.95 26.9 8.95 26.9C10.45 26.9 11.75 27.425 12.85 28.475C13.95 29.525 14.5 30.8 14.5 32.3C14.5 34.95 13.975 37.2 12.925 39.05C11.625 41.3 9.725 42.425 7.225 42.425C6.575 42.425 5.85 42.225 5.05 41.825C6.75 43.625 9 44.525 11.8 44.525C15.05 44.525 17.4 43.275 18.85 40.775C19.45 39.775 20.3 37.125 21.4 32.825C21.4 36.075 22.15 38.775 23.65 40.925C25.4 43.275 27.85 44.45 31 44.45C32.95 44.45 34.475 43.725 35.575 42.275C36.525 41.025 37 39.375 37 37.325C37 32.275 35.425 28.05 32.275 24.65C29.125 21.25 25.025 19.55 19.975 19.55C18.925 19.55 17.775 19.7 16.525 20L13.15 20.825C13.7 18.425 14.35 16.8 15.1 15.95C16.25 14.65 18.275 14 21.175 14C26.325 14 30.775 15.75 34.525 19.25C38.275 22.75 40.15 27.05 40.15 32.15ZM12.4 35.6C12.5 34.55 11.925 33.725 10.675 33.125C9.775 32.675 8.725 32.45 7.525 32.45C5.225 32.45 4.05 32.775 4 33.425C3.9 34.475 4.425 35.325 5.575 35.975C6.575 36.575 7.625 36.875 8.725 36.875C11.125 36.875 12.35 36.45 12.4 35.6ZM84.608 29.975C84.608 36.175 82.783 41.075 79.133 44.675C75.533 48.225 70.633 50 64.433 50C59.133 50 54.783 48.9 51.383 46.7C47.383 44.15 45.383 40.35 45.383 35.3C45.383 30.8 46.033 26.7 47.333 23C49.133 17.85 51.833 15.275 55.433 15.275C57.133 15.275 58.633 15.85 59.933 17C61.233 18.15 61.883 19.575 61.883 21.275C61.883 24.275 61.308 26.875 60.158 29.075C58.708 31.875 56.633 33.275 53.933 33.275C52.183 33.275 50.633 32.65 49.283 31.4C47.933 30.15 47.258 28.65 47.258 26.9C47.258 26.55 47.233 26.9 47.183 27.95C47.133 28.95 47.108 29.625 47.108 29.975C47.108 34.925 49.033 38.675 52.883 41.225C56.183 43.425 60.433 44.525 65.633 44.525C69.983 44.525 73.633 43.675 76.583 41.975C80.233 39.875 82.058 36.825 82.058 32.825C82.058 29.525 80.858 26.7 78.458 24.35C76.058 21.95 73.183 20.75 69.833 20.75C68.383 20.75 67.308 20.9 66.608 21.2C66.158 21.4 65.308 22 64.058 23C65.008 19.4 65.608 17.425 65.858 17.075C66.658 15.875 68.383 15.275 71.033 15.275C71.883 15.275 73.133 15.6 74.783 16.25C76.433 16.85 77.683 17.15 78.533 17.15C79.283 17.75 80.383 19 81.833 20.9C83.683 23.35 84.608 26.375 84.608 29.975ZM59.858 25.1C59.858 23.85 59.233 22.825 57.983 22.025C56.783 21.175 55.533 20.75 54.233 20.75C51.083 20.75 49.508 21.6 49.508 23.3C49.508 24.5 50.133 25.55 51.383 26.45C52.633 27.35 53.883 27.8 55.133 27.8C58.283 27.8 59.858 26.9 59.858 25.1ZM112.118 30.05C112.118 35 111.193 39.325 109.343 43.025C106.993 47.725 103.618 50.075 99.2178 50.075C96.3178 50.075 93.9928 48.95 92.2428 46.7C90.6428 44.65 89.8428 42.125 89.8428 39.125C89.8428 35.725 90.5428 32.5 91.9428 29.45C93.6928 25.6 96.0678 23.675 99.0678 23.675C100.668 23.675 101.943 24.375 102.893 25.775C103.743 26.975 104.168 28.4 104.168 30.05C104.168 32.5 103.593 34.875 102.443 37.175C101.043 39.925 99.2178 41.3 96.9678 41.3C95.2178 41.3 93.7178 40.45 92.4678 38.75C94.0678 42.65 96.7178 44.6 100.418 44.6C103.218 44.6 105.443 43.725 107.093 41.975C108.743 40.225 109.568 37.95 109.568 35.15C109.568 30.6 108.268 26.9 105.668 24.05C103.118 21.2 99.5928 19.775 95.0928 19.775C93.0428 19.775 89.9928 20.275 85.9428 21.275C81.8928 22.225 78.8428 22.7 76.7928 22.7V17.15C77.2428 17.2 77.6928 17.225 78.1428 17.225C80.1928 17.225 83.2178 16.725 87.2178 15.725C91.1678 14.725 94.1678 14.225 96.2178 14.225C100.868 14.225 104.668 15.7 107.618 18.65C110.618 21.6 112.118 25.4 112.118 30.05ZM102.293 33.875C102.493 32.725 102.093 31.65 101.093 30.65C100.093 29.65 99.0178 29.15 97.8678 29.15C94.8178 29.15 93.2178 29.825 93.0678 31.175C92.9178 32.375 93.4178 33.45 94.5678 34.4C95.7178 35.35 96.9178 35.825 98.1678 35.825C100.668 35.825 102.043 35.175 102.293 33.875ZM130.346 63.35C130.346 65.15 129.971 67.025 129.221 68.975C128.721 70.175 127.996 71.975 127.046 74.375L126.746 74.3L128.021 69.575C128.321 68.475 128.471 67.45 128.471 66.5C128.471 64 127.596 62.1 125.846 60.8C124.296 59.65 122.221 59.075 119.621 59.075C116.071 59.075 113.646 59.95 112.346 61.7C111.696 62.6 110.796 65.075 109.646 69.125C109.546 62.675 106.621 59.45 100.871 59.45C95.8707 59.45 93.3707 61.175 93.3707 64.625C93.3707 66.325 93.9207 68.125 95.0207 70.025L93.5957 75.2C93.5457 75.1 93.0957 74.05 92.2457 72.05C91.6457 70.65 91.3457 69.6 91.3457 68.9C91.3457 59.4 94.8207 54.65 101.771 54.65C106.971 54.65 110.046 56.925 110.996 61.475C112.246 56.675 115.446 54.275 120.596 54.275C123.596 54.275 125.971 55.05 127.721 56.6C129.471 58.15 130.346 60.4 130.346 63.35ZM171.283 14.225C170.533 18.225 168.958 20.8 166.558 21.95C168.908 24.85 170.083 28.225 170.083 32.075C170.083 36.225 169.358 39.975 167.908 43.325C166.008 47.725 163.283 49.925 159.733 49.925C157.183 49.925 154.983 49.15 153.133 47.6C151.333 46 150.208 43.95 149.758 41.45C148.308 47.1 145.283 49.925 140.683 49.925C137.383 49.925 134.883 48.8 133.183 46.55C131.633 44.55 130.858 41.85 130.858 38.45C130.858 30.4 133.283 24.2 138.133 19.85C135.433 20.5 132.958 21.925 130.708 24.125C131.758 20.125 133.208 17.4 135.058 15.95C136.908 14.5 139.883 13.775 143.983 13.775C146.233 13.775 149.558 14.325 153.958 15.425C158.358 16.475 161.683 17 163.933 17L164.158 17.15H164.308C165.508 17.15 166.733 16.825 167.983 16.175C169.083 15.525 170.183 14.875 171.283 14.225ZM167.683 36.65C167.683 32.05 165.833 28.2 162.133 25.1C158.683 22.15 154.608 20.675 149.908 20.675C145.208 20.675 141.258 21.775 138.058 23.975C134.408 26.525 132.583 30.025 132.583 34.475C132.583 37.225 133.433 39.575 135.133 41.525C136.833 43.425 139.058 44.375 141.808 44.375C145.008 44.375 147.308 43.15 148.708 40.7C149.308 39.65 150.183 37 151.333 32.75C151.333 36.05 152.083 38.75 153.583 40.85C155.233 43.2 157.658 44.375 160.858 44.375C163.058 44.375 164.783 43.625 166.033 42.125C167.133 40.725 167.683 38.9 167.683 36.65ZM215.89 14.225C215.19 18.025 213.715 20.55 211.465 21.8C213.565 24.25 214.615 26.975 214.615 29.975C214.615 35.925 212.74 40.75 208.99 44.45C205.29 48.15 200.44 50 194.44 50C189.69 50 185.465 48.75 181.765 46.25C177.515 43.45 175.39 39.8 175.39 35.3C175.39 32.65 175.915 29.95 176.965 27.2C178.115 24.2 179.615 21.9 181.465 20.3C179.265 21.05 177.19 22.35 175.24 24.2C176.34 20.25 177.765 17.55 179.515 16.1C181.315 14.6 184.24 13.85 188.29 13.85C190.49 13.85 193.765 14.4 198.115 15.5C201.865 16.45 204.815 17 206.965 17.15V17.075C207.615 17.125 208.265 17.15 208.915 17.15C210.115 17.15 211.34 16.825 212.59 16.175C213.69 15.525 214.79 14.875 215.89 14.225ZM212.29 33.35C212.29 29.25 210.24 26.025 206.14 23.675C202.74 21.725 198.84 20.75 194.44 20.75C190.29 20.75 186.69 21.575 183.64 23.225C179.89 25.275 178.015 28.225 178.015 32.075C178.015 36.125 180.04 39.3 184.09 41.6C187.44 43.55 191.29 44.525 195.64 44.525C199.84 44.525 203.465 43.725 206.515 42.125C210.365 40.125 212.29 37.2 212.29 33.35ZM267.769 30.575C267.769 35.425 266.844 39.65 264.994 43.25C262.694 47.75 259.344 50 254.944 50C252.194 50 249.919 48.9 248.119 46.7C246.369 44.65 245.494 42.225 245.494 39.425C245.494 35.825 246.169 32.5 247.519 29.45C249.269 25.55 251.669 23.6 254.719 23.6C256.319 23.6 257.569 24.25 258.469 25.55C259.369 26.8 259.819 28.275 259.819 29.975C259.819 32.525 259.269 34.9 258.169 37.1C256.819 39.85 254.994 41.225 252.694 41.225C250.894 41.225 249.394 40.375 248.194 38.675C248.894 40.375 249.944 41.775 251.344 42.875C252.744 43.975 254.319 44.525 256.069 44.525C258.619 44.525 260.794 43.75 262.594 42.2C264.444 40.6 265.369 38.55 265.369 36.05C265.369 31.6 264.394 28.025 262.444 25.325C260.244 22.275 257.019 20.75 252.769 20.75C251.069 20.75 248.644 20.975 245.494 21.425C242.194 21.875 239.794 22.125 238.294 22.175C239.444 24.525 240.019 27.125 240.019 29.975C240.019 35.025 238.869 39.45 236.569 43.25C233.869 47.75 230.144 50 225.394 50C221.944 50 218.819 48.95 216.019 46.85C212.969 44.6 211.444 41.8 211.444 38.45L213.169 31.925C213.169 35.525 214.494 38.525 217.144 40.925C219.744 43.325 222.869 44.525 226.519 44.525C229.119 44.525 231.594 43.65 233.944 41.9C236.494 40 237.769 37.75 237.769 35.15C237.769 31.4 236.894 28.175 235.144 25.475C233.144 22.325 230.369 20.75 226.819 20.75C224.669 20.75 222.844 21.5 221.344 23C221.844 20.1 222.394 18.2 222.994 17.3C223.894 15.95 225.544 15.275 227.944 15.275C229.094 15.275 230.769 15.525 232.969 16.025C235.219 16.475 236.919 16.7 238.069 16.7C239.819 16.7 242.444 16.475 245.944 16.025C249.494 15.525 252.144 15.275 253.894 15.275C258.344 15.275 261.819 16.725 264.319 19.625C266.619 22.375 267.769 26.025 267.769 30.575ZM258.019 33.8C258.219 32.7 257.819 31.65 256.819 30.65C255.819 29.6 254.744 29.075 253.594 29.075C250.294 29.075 248.644 29.925 248.644 31.625C248.644 32.725 249.219 33.7 250.369 34.55C251.519 35.35 252.669 35.75 253.819 35.75C256.369 35.75 257.769 35.1 258.019 33.8ZM352.019 28.775C352.019 31.675 351.219 35.375 349.619 39.875C349.869 40.725 349.994 41.625 349.994 42.575C349.994 49.325 348.094 54.025 344.294 56.675C344.044 55.925 343.919 55.275 343.919 54.725C343.919 53.025 344.569 51.75 345.869 50.9C347.469 49.85 348.269 48.625 348.269 47.225C348.269 46.375 347.969 45.275 347.369 43.925C344.219 47.975 339.694 50 333.794 50C330.394 50 327.494 49.625 325.094 48.875C321.394 47.775 319.544 45.925 319.544 43.325C319.544 35.025 324.019 30.875 332.969 30.875C336.169 30.875 339.169 31.4 341.969 32.45C345.269 33.75 347.569 35.6 348.869 38C349.269 36.75 349.469 35.325 349.469 33.725C349.469 30.475 348.744 27.625 347.294 25.175C345.594 22.175 343.244 20.675 340.244 20.675C337.444 20.675 335.369 21.575 334.019 23.375C333.119 24.575 332.269 26.8 331.469 30.05C331.469 27.45 330.594 25.25 328.844 23.45C327.094 21.6 324.919 20.675 322.319 20.675C317.119 20.675 314.519 22.125 314.519 25.025C314.519 25.925 314.719 26.45 315.119 26.6C315.169 27.35 315.194 27.975 315.194 28.475C315.194 30.075 314.619 31.5 313.469 32.75C313.419 32.4 313.269 31.65 313.019 30.5C312.819 29.55 312.719 28.8 312.719 28.25C312.719 24.65 313.594 21.65 315.344 19.25C317.344 16.5 320.069 15.125 323.519 15.125C325.669 15.125 327.669 15.775 329.519 17.075C331.369 18.325 332.544 19.95 333.044 21.95C334.194 17.4 336.994 15.125 341.444 15.125C344.794 15.125 347.444 16.625 349.394 19.625C351.144 22.225 352.019 25.275 352.019 28.775ZM345.569 41.225C342.569 38.025 337.969 36.425 331.769 36.425C326.969 36.425 323.544 37.425 321.494 39.425C322.444 42.825 326.944 44.525 334.994 44.525C339.044 44.525 342.569 43.425 345.569 41.225ZM396.871 14.225C396.171 18.025 394.696 20.55 392.446 21.8C394.546 24.25 395.596 26.975 395.596 29.975C395.596 35.925 393.721 40.75 389.971 44.45C386.271 48.15 381.421 50 375.421 50C370.671 50 366.446 48.75 362.746 46.25C358.496 43.45 356.371 39.8 356.371 35.3C356.371 32.65 356.896 29.95 357.946 27.2C359.096 24.2 360.596 21.9 362.446 20.3C360.246 21.05 358.171 22.35 356.221 24.2C357.321 20.25 358.746 17.55 360.496 16.1C362.296 14.6 365.221 13.85 369.271 13.85C371.471 13.85 374.746 14.4 379.096 15.5C382.846 16.45 385.796 17 387.946 17.15V17.075C388.596 17.125 389.246 17.15 389.896 17.15C391.096 17.15 392.321 16.825 393.571 16.175C394.671 15.525 395.771 14.875 396.871 14.225ZM393.271 33.35C393.271 29.25 391.221 26.025 387.121 23.675C383.721 21.725 379.821 20.75 375.421 20.75C371.271 20.75 367.671 21.575 364.621 23.225C360.871 25.275 358.996 28.225 358.996 32.075C358.996 36.125 361.021 39.3 365.071 41.6C368.421 43.55 372.271 44.525 376.621 44.525C380.821 44.525 384.446 43.725 387.496 42.125C391.346 40.125 393.271 37.2 393.271 33.35ZM420.551 29.975C420.551 35.075 419.426 39.525 417.176 43.325C414.476 47.775 410.726 50 405.926 50C402.476 50 399.351 48.95 396.551 46.85C393.501 44.6 391.976 41.8 391.976 38.45L393.701 31.925C393.701 35.575 395.001 38.6 397.601 41C400.201 43.35 403.351 44.525 407.051 44.525C409.701 44.525 412.176 43.6 414.476 41.75C416.826 39.85 418.001 37.6 418.001 35C418.001 31.25 417.176 28.05 415.526 25.4C413.626 22.3 410.901 20.75 407.351 20.75C405.201 20.75 403.376 21.5 401.876 23C402.426 20.35 402.901 18.675 403.301 17.975C404.301 16.175 406.026 15.275 408.476 15.275C412.226 15.275 415.226 16.825 417.476 19.925C419.526 22.725 420.551 26.075 420.551 29.975ZM504.213 32.15C504.213 36.25 503.488 40 502.038 43.4C500.138 47.8 497.413 50 493.863 50C491.263 50 489.063 49.225 487.263 47.675C485.463 46.125 484.363 44.075 483.963 41.525C482.463 47.175 479.388 50 474.738 50C471.838 50 469.488 49.175 467.688 47.525C465.888 45.825 464.987 43.55 464.987 40.7C464.987 37.2 465.488 34.25 466.488 31.85C467.838 28.55 470.013 26.9 473.013 26.9C474.513 26.9 475.813 27.425 476.913 28.475C478.013 29.525 478.563 30.8 478.563 32.3C478.563 34.95 478.038 37.2 476.988 39.05C475.688 41.3 473.788 42.425 471.288 42.425C470.638 42.425 469.913 42.225 469.113 41.825C470.813 43.625 473.063 44.525 475.863 44.525C479.113 44.525 481.463 43.275 482.913 40.775C483.513 39.775 484.363 37.125 485.463 32.825C485.463 36.075 486.213 38.775 487.713 40.925C489.463 43.275 491.913 44.45 495.063 44.45C497.013 44.45 498.538 43.725 499.638 42.275C500.588 41.025 501.063 39.375 501.063 37.325C501.063 32.275 499.488 28.05 496.338 24.65C493.188 21.25 489.088 19.55 484.038 19.55C482.988 19.55 481.838 19.7 480.588 20L477.213 20.825C477.763 18.425 478.413 16.8 479.163 15.95C480.313 14.65 482.338 14 485.238 14C490.388 14 494.838 15.75 498.588 19.25C502.338 22.75 504.213 27.05 504.213 32.15ZM476.463 35.6C476.563 34.55 475.988 33.725 474.738 33.125C473.838 32.675 472.788 32.45 471.588 32.45C469.288 32.45 468.113 32.775 468.063 33.425C467.963 34.475 468.488 35.325 469.638 35.975C470.638 36.575 471.688 36.875 472.788 36.875C475.188 36.875 476.413 36.45 476.463 35.6ZM540.496 29.975C540.496 35.175 539.171 39.7 536.521 43.55C533.471 47.85 529.446 50 524.446 50C520.346 50 516.846 48.575 513.946 45.725C511.046 42.875 509.596 39.4 509.596 35.3C509.596 30.05 510.921 25.525 513.571 21.725C516.571 17.475 520.596 15.35 525.646 15.35C529.746 15.35 533.246 16.775 536.146 19.625C539.046 22.475 540.496 25.925 540.496 29.975ZM537.346 35.375C537.346 31.375 536.221 28 533.971 25.25C531.571 22.3 528.396 20.825 524.446 20.825C521.896 20.825 519.346 21.675 516.796 23.375C514.046 25.225 512.671 27.375 512.671 29.825C512.671 33.825 513.821 37.225 516.121 40.025C518.571 43.025 521.746 44.525 525.646 44.525C528.196 44.525 530.721 43.65 533.221 41.9C535.971 39.95 537.346 37.775 537.346 35.375ZM584.927 34.175C584.927 44.725 578.202 50 564.752 50C560.202 50 556.127 49.125 552.527 47.375C547.977 45.175 545.702 42.05 545.702 38C545.702 34.4 546.802 31.175 549.002 28.325C548.002 31.325 547.502 33.15 547.502 33.8C547.502 37.15 549.827 39.875 554.477 41.975C558.277 43.675 562.102 44.525 565.952 44.525C577.152 44.525 582.752 42.05 582.752 37.1C582.752 34.05 580.527 31.725 576.077 30.125C574.577 36.075 571.777 39.05 567.677 39.05C565.777 39.05 564.177 38.65 562.877 37.85C561.327 36.9 560.552 35.55 560.552 33.8C560.552 29.6 561.602 26.75 563.702 25.25C565.552 23.95 568.627 23.425 572.927 23.675C569.727 20.825 564.602 19.4 557.552 19.4C552.902 19.4 548.902 21 545.552 24.2C546.652 20.2 548.102 17.475 549.902 16.025C551.752 14.575 554.702 13.85 558.752 13.85C560.952 13.85 564.177 14.4 568.427 15.5C572.677 16.6 575.902 17.15 578.102 17.15L583.502 19.85L580.502 21.65C579.302 22.35 578.177 22.675 577.127 22.625L577.277 24.575C582.377 26.225 584.927 29.425 584.927 34.175ZM574.652 29.825C572.952 29.325 571.327 29.075 569.777 29.075C565.077 29.075 562.727 29.675 562.727 30.875C562.727 31.675 563.577 32.35 565.277 32.9C566.727 33.35 567.927 33.575 568.877 33.575C571.127 33.575 573.052 32.325 574.652 29.825ZM612.435 30.05C612.435 35 611.51 39.325 609.66 43.025C607.31 47.725 603.935 50.075 599.535 50.075C596.635 50.075 594.31 48.95 592.56 46.7C590.96 44.65 590.16 42.125 590.16 39.125C590.16 35.725 590.86 32.5 592.26 29.45C594.01 25.6 596.385 23.675 599.385 23.675C600.985 23.675 602.26 24.375 603.21 25.775C604.06 26.975 604.485 28.4 604.485 30.05C604.485 32.5 603.91 34.875 602.76 37.175C601.36 39.925 599.535 41.3 597.285 41.3C595.535 41.3 594.035 40.45 592.785 38.75C594.385 42.65 597.035 44.6 600.735 44.6C603.535 44.6 605.76 43.725 607.41 41.975C609.06 40.225 609.885 37.95 609.885 35.15C609.885 30.6 608.585 26.9 605.985 24.05C603.435 21.2 599.91 19.775 595.41 19.775C593.36 19.775 590.31 20.275 586.26 21.275C582.21 22.225 579.16 22.7 577.11 22.7V17.15C577.56 17.2 578.01 17.225 578.46 17.225C580.51 17.225 583.535 16.725 587.535 15.725C591.485 14.725 594.485 14.225 596.535 14.225C601.185 14.225 604.985 15.7 607.935 18.65C610.935 21.6 612.435 25.4 612.435 30.05ZM602.61 33.875C602.81 32.725 602.41 31.65 601.41 30.65C600.41 29.65 599.335 29.15 598.185 29.15C595.135 29.15 593.535 29.825 593.385 31.175C593.235 32.375 593.735 33.45 594.885 34.4C596.035 35.35 597.235 35.825 598.485 35.825C600.985 35.825 602.36 35.175 602.61 33.875ZM671.088 14.225C670.338 18.225 668.763 20.8 666.363 21.95C668.713 24.85 669.888 28.225 669.888 32.075C669.888 36.225 669.163 39.975 667.713 43.325C665.813 47.725 663.088 49.925 659.538 49.925C656.988 49.925 654.788 49.15 652.938 47.6C651.138 46 650.013 43.95 649.563 41.45C648.113 47.1 645.088 49.925 640.488 49.925C637.188 49.925 634.688 48.8 632.988 46.55C631.438 44.55 630.663 41.85 630.663 38.45C630.663 30.4 633.088 24.2 637.938 19.85C635.238 20.5 632.763 21.925 630.513 24.125C631.563 20.125 633.013 17.4 634.863 15.95C636.713 14.5 639.688 13.775 643.788 13.775C646.038 13.775 649.363 14.325 653.763 15.425C658.163 16.475 661.488 17 663.738 17L663.963 17.15H664.113C665.313 17.15 666.538 16.825 667.788 16.175C668.888 15.525 669.988 14.875 671.088 14.225ZM667.488 36.65C667.488 32.05 665.638 28.2 661.938 25.1C658.488 22.15 654.413 20.675 649.713 20.675C645.013 20.675 641.063 21.775 637.863 23.975C634.213 26.525 632.388 30.025 632.388 34.475C632.388 37.225 633.238 39.575 634.938 41.525C636.638 43.425 638.863 44.375 641.613 44.375C644.813 44.375 647.113 43.15 648.513 40.7C649.113 39.65 649.988 37 651.138 32.75C651.138 36.05 651.888 38.75 653.388 40.85C655.038 43.2 657.463 44.375 660.663 44.375C662.863 44.375 664.588 43.625 665.838 42.125C666.938 40.725 667.488 38.9 667.488 36.65ZM715.694 14.225C714.994 18.025 713.519 20.55 711.269 21.8C713.369 24.25 714.419 26.975 714.419 29.975C714.419 35.925 712.544 40.75 708.794 44.45C705.094 48.15 700.244 50 694.244 50C689.494 50 685.269 48.75 681.569 46.25C677.319 43.45 675.194 39.8 675.194 35.3C675.194 32.65 675.719 29.95 676.769 27.2C677.919 24.2 679.419 21.9 681.269 20.3C679.069 21.05 676.994 22.35 675.044 24.2C676.144 20.25 677.569 17.55 679.319 16.1C681.119 14.6 684.044 13.85 688.094 13.85C690.294 13.85 693.569 14.4 697.919 15.5C701.669 16.45 704.619 17 706.769 17.15V17.075C707.419 17.125 708.069 17.15 708.719 17.15C709.919 17.15 711.144 16.825 712.394 16.175C713.494 15.525 714.594 14.875 715.694 14.225ZM712.094 33.35C712.094 29.25 710.044 26.025 705.944 23.675C702.544 21.725 698.644 20.75 694.244 20.75C690.094 20.75 686.494 21.575 683.444 23.225C679.694 25.275 677.819 28.225 677.819 32.075C677.819 36.125 679.844 39.3 683.894 41.6C687.244 43.55 691.094 44.525 695.444 44.525C699.644 44.525 703.269 43.725 706.319 42.125C710.169 40.125 712.094 37.2 712.094 33.35ZM739.374 29.975C739.374 35.075 738.249 39.525 735.999 43.325C733.299 47.775 729.549 50 724.749 50C721.299 50 718.174 48.95 715.374 46.85C712.324 44.6 710.799 41.8 710.799 38.45L712.524 31.925C712.524 35.575 713.824 38.6 716.424 41C719.024 43.35 722.174 44.525 725.874 44.525C728.524 44.525 730.999 43.6 733.299 41.75C735.649 39.85 736.824 37.6 736.824 35C736.824 31.25 735.999 28.05 734.349 25.4C732.449 22.3 729.724 20.75 726.174 20.75C724.024 20.75 722.199 21.5 720.699 23C721.249 20.35 721.724 18.675 722.124 17.975C723.124 16.175 724.849 15.275 727.299 15.275C731.049 15.275 734.049 16.825 736.299 19.925C738.349 22.725 739.374 26.075 739.374 29.975ZM823.186 28.775C823.186 31.675 822.386 35.375 820.786 39.875C821.036 40.725 821.161 41.625 821.161 42.575C821.161 49.325 819.261 54.025 815.461 56.675C815.211 55.925 815.086 55.275 815.086 54.725C815.086 53.025 815.736 51.75 817.036 50.9C818.636 49.85 819.436 48.625 819.436 47.225C819.436 46.375 819.136 45.275 818.536 43.925C815.386 47.975 810.861 50 804.961 50C801.561 50 798.661 49.625 796.261 48.875C792.561 47.775 790.711 45.925 790.711 43.325C790.711 35.025 795.186 30.875 804.136 30.875C807.336 30.875 810.336 31.4 813.136 32.45C816.436 33.75 818.736 35.6 820.036 38C820.436 36.75 820.636 35.325 820.636 33.725C820.636 30.475 819.911 27.625 818.461 25.175C816.761 22.175 814.411 20.675 811.411 20.675C808.611 20.675 806.536 21.575 805.186 23.375C804.286 24.575 803.436 26.8 802.636 30.05C802.636 27.45 801.761 25.25 800.011 23.45C798.261 21.6 796.086 20.675 793.486 20.675C788.286 20.675 785.686 22.125 785.686 25.025C785.686 25.925 785.886 26.45 786.286 26.6C786.336 27.35 786.361 27.975 786.361 28.475C786.361 30.075 785.786 31.5 784.636 32.75C784.586 32.4 784.436 31.65 784.186 30.5C783.986 29.55 783.886 28.8 783.886 28.25C783.886 24.65 784.761 21.65 786.511 19.25C788.511 16.5 791.236 15.125 794.686 15.125C796.836 15.125 798.836 15.775 800.686 17.075C802.536 18.325 803.711 19.95 804.211 21.95C805.361 17.4 808.161 15.125 812.611 15.125C815.961 15.125 818.611 16.625 820.561 19.625C822.311 22.225 823.186 25.275 823.186 28.775ZM816.736 41.225C813.736 38.025 809.136 36.425 802.936 36.425C798.136 36.425 794.711 37.425 792.661 39.425C793.611 42.825 798.111 44.525 806.161 44.525C810.211 44.525 813.736 43.425 816.736 41.225ZM868.038 14.225C867.338 18.025 865.863 20.55 863.613 21.8C865.713 24.25 866.763 26.975 866.763 29.975C866.763 35.925 864.888 40.75 861.138 44.45C857.438 48.15 852.588 50 846.588 50C841.838 50 837.613 48.75 833.913 46.25C829.663 43.45 827.538 39.8 827.538 35.3C827.538 32.65 828.063 29.95 829.113 27.2C830.263 24.2 831.763 21.9 833.613 20.3C831.413 21.05 829.338 22.35 827.388 24.2C828.488 20.25 829.913 17.55 831.663 16.1C833.463 14.6 836.388 13.85 840.438 13.85C842.638 13.85 845.913 14.4 850.263 15.5C854.013 16.45 856.963 17 859.113 17.15V17.075C859.763 17.125 860.413 17.15 861.063 17.15C862.263 17.15 863.488 16.825 864.738 16.175C865.838 15.525 866.938 14.875 868.038 14.225ZM864.438 33.35C864.438 29.25 862.388 26.025 858.288 23.675C854.888 21.725 850.988 20.75 846.588 20.75C842.438 20.75 838.838 21.575 835.788 23.225C832.038 25.275 830.163 28.225 830.163 32.075C830.163 36.125 832.188 39.3 836.238 41.6C839.588 43.55 843.438 44.525 847.788 44.525C851.988 44.525 855.613 43.725 858.663 42.125C862.513 40.125 864.438 37.2 864.438 33.35ZM891.718 29.975C891.718 35.075 890.593 39.525 888.343 43.325C885.643 47.775 881.893 50 877.093 50C873.643 50 870.518 48.95 867.718 46.85C864.668 44.6 863.143 41.8 863.143 38.45L864.868 31.925C864.868 35.575 866.168 38.6 868.768 41C871.368 43.35 874.518 44.525 878.218 44.525C880.868 44.525 883.343 43.6 885.643 41.75C887.993 39.85 889.168 37.6 889.168 35C889.168 31.25 888.343 28.05 886.693 25.4C884.793 22.3 882.068 20.75 878.518 20.75C876.368 20.75 874.543 21.5 873.043 23C873.593 20.35 874.068 18.675 874.468 17.975C875.468 16.175 877.193 15.275 879.643 15.275C883.393 15.275 886.393 16.825 888.643 19.925C890.693 22.725 891.718 26.075 891.718 29.975ZM975.379 32.15C975.379 36.25 974.654 40 973.204 43.4C971.304 47.8 968.579 50 965.029 50C962.429 50 960.229 49.225 958.429 47.675C956.629 46.125 955.529 44.075 955.129 41.525C953.629 47.175 950.554 50 945.904 50C943.004 50 940.654 49.175 938.854 47.525C937.054 45.825 936.154 43.55 936.154 40.7C936.154 37.2 936.654 34.25 937.654 31.85C939.004 28.55 941.179 26.9 944.179 26.9C945.679 26.9 946.979 27.425 948.079 28.475C949.179 29.525 949.729 30.8 949.729 32.3C949.729 34.95 949.204 37.2 948.154 39.05C946.854 41.3 944.954 42.425 942.454 42.425C941.804 42.425 941.079 42.225 940.279 41.825C941.979 43.625 944.229 44.525 947.029 44.525C950.279 44.525 952.629 43.275 954.079 40.775C954.679 39.775 955.529 37.125 956.629 32.825C956.629 36.075 957.379 38.775 958.879 40.925C960.629 43.275 963.079 44.45 966.229 44.45C968.179 44.45 969.704 43.725 970.804 42.275C971.754 41.025 972.229 39.375 972.229 37.325C972.229 32.275 970.654 28.05 967.504 24.65C964.354 21.25 960.254 19.55 955.204 19.55C954.154 19.55 953.004 19.7 951.754 20L948.379 20.825C948.929 18.425 949.579 16.8 950.329 15.95C951.479 14.65 953.504 14 956.404 14C961.554 14 966.004 15.75 969.754 19.25C973.504 22.75 975.379 27.05 975.379 32.15ZM947.629 35.6C947.729 34.55 947.154 33.725 945.904 33.125C945.004 32.675 943.954 32.45 942.754 32.45C940.454 32.45 939.279 32.775 939.229 33.425C939.129 34.475 939.654 35.325 940.804 35.975C941.804 36.575 942.854 36.875 943.954 36.875C946.354 36.875 947.579 36.45 947.629 35.6ZM1011.66 29.975C1011.66 35.175 1010.34 39.7 1007.69 43.55C1004.64 47.85 1000.61 50 995.613 50C991.513 50 988.013 48.575 985.113 45.725C982.213 42.875 980.763 39.4 980.763 35.3C980.763 30.05 982.088 25.525 984.738 21.725C987.738 17.475 991.763 15.35 996.813 15.35C1000.91 15.35 1004.41 16.775 1007.31 19.625C1010.21 22.475 1011.66 25.925 1011.66 29.975ZM1008.51 35.375C1008.51 31.375 1007.39 28 1005.14 25.25C1002.74 22.3 999.563 20.825 995.613 20.825C993.063 20.825 990.513 21.675 987.963 23.375C985.213 25.225 983.838 27.375 983.838 29.825C983.838 33.825 984.988 37.225 987.288 40.025C989.738 43.025 992.913 44.525 996.813 44.525C999.363 44.525 1001.89 43.65 1004.39 41.9C1007.14 39.95 1008.51 37.775 1008.51 35.375ZM1056.09 32.075C1056.09 36.225 1055.37 39.975 1053.92 43.325C1052.02 47.725 1049.29 49.925 1045.74 49.925C1043.19 49.925 1040.99 49.15 1039.14 47.6C1037.34 46 1036.22 43.95 1035.77 41.45C1034.32 47.1 1031.29 49.925 1026.69 49.925C1023.39 49.925 1020.89 48.8 1019.19 46.55C1017.64 44.55 1016.87 41.85 1016.87 38.45C1016.87 30.4 1019.29 24.2 1024.14 19.85C1021.44 20.5 1018.97 21.925 1016.72 24.125C1017.77 20.125 1019.22 17.4 1021.07 15.95C1022.92 14.5 1025.89 13.775 1029.99 13.775C1032.24 13.775 1035.57 14.325 1039.97 15.425C1044.37 16.475 1047.69 17 1049.94 17L1054.67 19.775C1054.12 20.025 1053.24 20.55 1052.04 21.35C1054.74 24.35 1056.09 27.925 1056.09 32.075ZM1053.69 36.65C1053.69 32.05 1051.84 28.2 1048.14 25.1C1044.69 22.15 1040.62 20.675 1035.92 20.675C1031.22 20.675 1027.27 21.775 1024.07 23.975C1020.42 26.525 1018.59 30.025 1018.59 34.475C1018.59 37.225 1019.44 39.575 1021.14 41.525C1022.84 43.425 1025.07 44.375 1027.82 44.375C1031.02 44.375 1033.32 43.15 1034.72 40.7C1035.32 39.65 1036.19 37 1037.34 32.75C1037.34 36.05 1038.09 38.75 1039.59 40.85C1041.24 43.2 1043.67 44.375 1046.87 44.375C1049.07 44.375 1050.79 43.625 1052.04 42.125C1053.14 40.725 1053.69 38.9 1053.69 36.65ZM1058.93 7.4C1058.93 11.2 1058.1 14.575 1056.45 17.525C1054.4 21.025 1051.63 22.775 1048.13 22.775H1047.08V17.15C1047.83 17.2 1048.55 17.225 1049.25 17.225C1051 17.225 1052.68 16.775 1054.28 15.875C1056.13 14.825 1057.05 13.475 1057.05 11.825C1057.05 11.325 1056.95 10.825 1056.75 10.325C1055.9 13.825 1053.83 15.575 1050.53 15.575C1049.08 15.575 1047.78 15.2 1046.63 14.45C1045.28 13.6 1044.6 12.5 1044.6 11.15C1044.6 8.4 1045.15 6.1 1046.25 4.25C1047.6 2.05 1049.55 0.949997 1052.1 0.949997C1054.05 0.949997 1055.68 1.55 1056.98 2.75C1058.28 3.95 1058.93 5.5 1058.93 7.4ZM1055.85 8.675C1055.85 7.225 1054.23 6.5 1050.98 6.5H1048.5C1047.5 6.65 1046.98 7.025 1046.93 7.625C1046.78 9.225 1048.35 10.025 1051.65 10.025C1054.45 10.025 1055.85 9.575 1055.85 8.675ZM1092.45 29.975C1092.45 35.175 1091.12 39.7 1088.47 43.55C1085.42 47.85 1081.4 50 1076.4 50C1072.3 50 1068.8 48.575 1065.9 45.725C1063 42.875 1061.55 39.4 1061.55 35.3C1061.55 30.05 1062.87 25.525 1065.52 21.725C1068.52 17.475 1072.55 15.35 1077.6 15.35C1081.7 15.35 1085.2 16.775 1088.1 19.625C1091 22.475 1092.45 25.925 1092.45 29.975ZM1089.3 35.375C1089.3 31.375 1088.17 28 1085.92 25.25C1083.52 22.3 1080.35 20.825 1076.4 20.825C1073.85 20.825 1071.3 21.675 1068.75 23.375C1066 25.225 1064.62 27.375 1064.62 29.825C1064.62 33.825 1065.77 37.225 1068.07 40.025C1070.52 43.025 1073.7 44.525 1077.6 44.525C1080.15 44.525 1082.67 43.65 1085.17 41.9C1087.92 39.95 1089.3 37.775 1089.3 35.375ZM1136.88 32.15C1136.88 36.2 1136.13 39.95 1134.63 43.4C1132.73 47.8 1130.01 50 1126.46 50C1123.91 50 1121.73 49.225 1119.93 47.675C1118.13 46.125 1117.01 44.075 1116.56 41.525C1115.11 47.175 1112.06 50 1107.41 50C1100.86 50 1097.58 46.075 1097.58 38.225C1097.58 36.075 1098.01 33.6 1098.86 30.8C1099.76 27.8 1100.83 25.575 1102.08 24.125C1101.78 22.875 1101.63 21.725 1101.63 20.675C1101.63 14.025 1106.58 10.7 1116.48 10.7C1122.53 10.7 1127.48 12.775 1131.33 16.925C1135.03 20.975 1136.88 26.05 1136.88 32.15ZM1117.46 20.975C1117.81 19.725 1117.03 18.65 1115.13 17.75C1113.58 17 1112.11 16.625 1110.71 16.625C1109.56 16.625 1108.26 16.85 1106.81 17.3C1105.01 17.9 1104.06 18.625 1103.96 19.475C1103.76 20.875 1104.43 21.925 1105.98 22.625C1107.08 23.175 1108.43 23.45 1110.03 23.45C1114.53 23.45 1117.01 22.625 1117.46 20.975ZM1134.48 36.05C1134.48 31.9 1133.18 27.95 1130.58 24.2C1127.68 20 1123.93 17.45 1119.33 16.55C1119.58 17.6 1119.71 18.625 1119.71 19.625C1119.71 22.675 1118.63 25.025 1116.48 26.675C1114.53 28.225 1111.98 29 1108.83 29C1106.53 29 1104.78 28.4 1103.58 27.2C1101.08 29 1099.83 31.625 1099.83 35.075C1099.83 37.775 1100.61 40.025 1102.16 41.825C1103.71 43.625 1105.81 44.525 1108.46 44.525C1111.76 44.525 1113.98 43.6 1115.13 41.75C1115.43 41.25 1116.13 38.9 1117.23 34.7C1117.23 37.85 1118.16 40.275 1120.01 41.975C1121.91 43.625 1124.46 44.45 1127.66 44.45C1132.21 44.45 1134.48 41.65 1134.48 36.05ZM1182.09 14.225C1181.44 17.775 1180.11 20.225 1178.11 21.575C1180.26 24.425 1181.34 27.45 1181.34 30.65C1181.34 40 1178.76 46.525 1173.61 50.225C1172.96 50.075 1172.64 49.6 1172.64 48.8C1172.64 47.1 1173.49 45.65 1175.19 44.45C1177.89 42.5 1179.24 39.825 1179.24 36.425C1179.24 31.925 1177.29 28.125 1173.39 25.025C1169.79 22.125 1165.69 20.675 1161.09 20.675C1156.84 20.675 1153.04 21.95 1149.69 24.5C1146.09 27.25 1144.29 30.7 1144.29 34.85C1144.29 39.05 1146.44 42.275 1150.74 44.525C1151.09 45.425 1151.26 46.175 1151.26 46.775C1151.26 47.925 1150.59 49 1149.24 50C1144.44 47.5 1142.04 42.575 1142.04 35.225C1142.04 32.775 1142.54 30.125 1143.54 27.275C1144.64 24.175 1146.01 21.875 1147.66 20.375C1145.66 21.175 1143.76 22.45 1141.96 24.2C1143.01 20.25 1144.44 17.525 1146.24 16.025C1148.04 14.525 1150.94 13.775 1154.94 13.775C1157.19 13.775 1160.46 14.325 1164.76 15.425C1169.11 16.525 1172.39 17.075 1174.59 17.075L1174.66 17.15H1175.11C1176.31 17.15 1177.54 16.825 1178.79 16.175C1179.89 15.525 1180.99 14.875 1182.09 14.225ZM1233.83 30.575C1233.83 35.425 1232.91 39.65 1231.06 43.25C1228.76 47.75 1225.41 50 1221.01 50C1218.26 50 1215.98 48.9 1214.18 46.7C1212.43 44.65 1211.56 42.225 1211.56 39.425C1211.56 35.825 1212.23 32.5 1213.58 29.45C1215.33 25.55 1217.73 23.6 1220.78 23.6C1222.38 23.6 1223.63 24.25 1224.53 25.55C1225.43 26.8 1225.88 28.275 1225.88 29.975C1225.88 32.525 1225.33 34.9 1224.23 37.1C1222.88 39.85 1221.06 41.225 1218.76 41.225C1216.96 41.225 1215.46 40.375 1214.26 38.675C1214.96 40.375 1216.01 41.775 1217.41 42.875C1218.81 43.975 1220.38 44.525 1222.13 44.525C1224.68 44.525 1226.86 43.75 1228.66 42.2C1230.51 40.6 1231.43 38.55 1231.43 36.05C1231.43 31.6 1230.46 28.025 1228.51 25.325C1226.31 22.275 1223.08 20.75 1218.83 20.75C1217.13 20.75 1214.71 20.975 1211.56 21.425C1208.26 21.875 1205.86 22.125 1204.36 22.175C1205.51 24.525 1206.08 27.125 1206.08 29.975C1206.08 35.025 1204.93 39.45 1202.63 43.25C1199.93 47.75 1196.21 50 1191.46 50C1188.01 50 1184.88 48.95 1182.08 46.85C1179.03 44.6 1177.51 41.8 1177.51 38.45L1179.23 31.925C1179.23 35.525 1180.56 38.525 1183.21 40.925C1185.81 43.325 1188.93 44.525 1192.58 44.525C1195.18 44.525 1197.66 43.65 1200.01 41.9C1202.56 40 1203.83 37.75 1203.83 35.15C1203.83 31.4 1202.96 28.175 1201.21 25.475C1199.21 22.325 1196.43 20.75 1192.88 20.75C1190.73 20.75 1188.91 21.5 1187.41 23C1187.91 20.1 1188.46 18.2 1189.06 17.3C1189.96 15.95 1191.61 15.275 1194.01 15.275C1195.16 15.275 1196.83 15.525 1199.03 16.025C1201.28 16.475 1202.98 16.7 1204.13 16.7C1205.88 16.7 1208.51 16.475 1212.01 16.025C1215.56 15.525 1218.21 15.275 1219.96 15.275C1224.41 15.275 1227.88 16.725 1230.38 19.625C1232.68 22.375 1233.83 26.025 1233.83 30.575ZM1224.08 33.8C1224.28 32.7 1223.88 31.65 1222.88 30.65C1221.88 29.6 1220.81 29.075 1219.66 29.075C1216.36 29.075 1214.71 29.925 1214.71 31.625C1214.71 32.725 1215.28 33.7 1216.43 34.55C1217.58 35.35 1218.73 35.75 1219.88 35.75C1222.43 35.75 1223.83 35.1 1224.08 33.8ZM1317.93 32.225C1317.93 36.325 1317.21 40.05 1315.76 43.4C1313.86 47.8 1311.13 50 1307.58 50C1303.18 50 1300.06 48.575 1298.21 45.725C1297.46 43.925 1296.31 41.25 1294.76 37.7C1293.41 34.85 1290.96 33.425 1287.41 33.425C1283.01 33.425 1280.81 34.85 1280.81 37.7C1280.81 39.45 1281.56 41 1283.06 42.35C1284.61 43.7 1286.28 44.425 1288.08 44.525C1288.33 45.375 1288.46 46.075 1288.46 46.625C1288.46 47.875 1287.83 49 1286.58 50C1284.23 49.85 1282.33 48.95 1280.88 47.3C1279.43 45.65 1278.71 43.625 1278.71 41.225C1278.71 32.375 1282.01 27.95 1288.61 27.95C1292.21 27.95 1294.78 29.375 1296.33 32.225C1297.48 34.875 1298.63 37.55 1299.78 40.25C1301.53 43.1 1304.53 44.525 1308.78 44.525C1311.23 44.525 1313.06 43.45 1314.26 41.3C1315.26 39.55 1315.76 37.375 1315.76 34.775C1315.76 30.525 1314.66 26.475 1312.46 22.625C1309.96 18.375 1306.78 15.775 1302.93 14.825C1302.58 22.575 1299.61 26.45 1294.01 26.45C1292.06 26.45 1290.33 25.875 1288.83 24.725C1287.18 23.525 1286.36 21.975 1286.36 20.075C1286.36 15.925 1287.28 13 1289.13 11.3C1291.03 9.55 1294.06 8.675 1298.21 8.675C1305.11 8.675 1310.21 10.95 1313.51 15.5C1316.46 19.55 1317.93 25.125 1317.93 32.225ZM1301.06 18.725C1301.16 17.125 1300.31 15.875 1298.51 14.975C1297.06 14.225 1295.46 13.85 1293.71 13.85C1292.46 13.85 1291.28 14.075 1290.18 14.525C1288.83 15.125 1288.16 15.975 1288.16 17.075C1288.16 18.275 1289.06 19.275 1290.86 20.075C1292.36 20.675 1293.81 20.975 1295.21 20.975C1299.06 20.975 1301.01 20.225 1301.06 18.725ZM1346.64 40.25C1345.69 43.75 1344.57 46.175 1343.27 47.525C1341.67 49.175 1339.19 50 1335.84 50C1332.09 50 1329.02 48.45 1326.62 45.35C1324.37 42.5 1323.24 39.15 1323.24 35.3C1323.24 30.5 1324.27 26.175 1326.32 22.325C1328.82 17.625 1332.24 15.275 1336.59 15.275C1339.14 15.275 1341.37 16.05 1343.27 17.6C1345.17 19.15 1346.12 21.175 1346.12 23.675C1346.12 27.375 1345.24 30.625 1343.49 33.425C1341.44 36.775 1338.69 38.45 1335.24 38.45C1332.74 38.45 1330.42 37.5 1328.27 35.6C1326.17 33.7 1325.12 31.5 1325.12 29C1325.02 29.4 1324.97 30.075 1324.97 31.025C1324.97 34.425 1326.12 37.475 1328.42 40.175C1330.82 43.075 1333.67 44.525 1336.97 44.525C1339.87 44.525 1343.09 43.1 1346.64 40.25ZM1344.47 27.5C1344.47 25.5 1343.44 23.825 1341.39 22.475C1339.54 21.325 1337.57 20.75 1335.47 20.75C1329.87 20.75 1327.07 22.35 1327.07 25.55C1327.07 27.6 1328.14 29.375 1330.29 30.875C1332.24 32.275 1334.27 32.975 1336.37 32.975C1338.42 32.975 1340.19 32.575 1341.69 31.775C1343.54 30.825 1344.47 29.4 1344.47 27.5ZM1430.31 14.225C1429.86 16.575 1429.13 18.45 1428.13 19.85H1428.06C1426.66 21.75 1424.71 22.7 1422.21 22.7H1421.38V22.625C1419.23 22.625 1416.31 22.15 1412.61 21.2L1411.86 24.125C1417.16 25.475 1420.81 26.15 1422.81 26.15C1424.11 26.15 1426.38 25.15 1429.63 23.15C1429.28 25.25 1428.98 26.625 1428.73 27.275C1428.18 28.675 1427.26 29.65 1425.96 30.2C1427.11 31.55 1427.68 33 1427.68 34.55C1427.68 39.75 1425.83 43.7 1422.13 46.4C1418.88 48.8 1414.56 50 1409.16 50C1405.31 50 1401.68 49.25 1398.28 47.75C1393.98 45.85 1391.83 43.225 1391.83 39.875C1391.83 38.325 1392.18 36.5 1392.88 34.4C1393.58 32.25 1394.41 30.675 1395.36 29.675C1393.56 30.425 1391.83 31.6 1390.18 33.2C1391.28 29.15 1392.76 26.425 1394.61 25.025C1396.51 23.575 1399.56 22.85 1403.76 22.85C1405.16 22.85 1407.23 23.175 1409.98 23.825C1410.28 23.475 1410.43 23.125 1410.43 22.775C1410.43 21.725 1409.23 20.85 1406.83 20.15C1405.08 19.65 1403.56 19.4 1402.26 19.4C1397.51 19.4 1393.48 21 1390.18 24.2C1391.28 20.2 1392.76 17.45 1394.61 15.95C1396.51 14.4 1399.48 13.7 1403.53 13.85C1405.58 13.95 1408.76 14.525 1413.06 15.575C1416.56 16.425 1419.33 16.925 1421.38 17.075C1422.03 17.125 1422.68 17.15 1423.33 17.15C1424.53 17.15 1425.76 16.825 1427.01 16.175C1428.11 15.525 1429.21 14.875 1430.31 14.225ZM1425.13 37.775C1425.13 35.075 1423.03 33 1418.83 31.55C1415.78 30.5 1412.56 29.975 1409.16 29.975C1399.26 29.975 1394.31 32.225 1394.31 36.725C1394.31 39.375 1396.43 41.425 1400.68 42.875C1403.83 43.975 1407.06 44.525 1410.36 44.525C1420.21 44.525 1425.13 42.275 1425.13 37.775ZM1474.78 14.225C1474.03 18.275 1472.43 20.875 1469.98 22.025C1472.28 24.925 1473.43 28.325 1473.43 32.225C1473.43 36.625 1472.7 40.425 1471.25 43.625C1469.3 47.875 1466.38 50 1462.48 50C1458.43 50 1455.7 48.375 1454.3 45.125L1451.6 35.975C1450.25 32.725 1447.68 31.1 1443.88 31.1C1438.93 31.1 1436.45 33 1436.45 36.8C1436.45 38.75 1437.15 40.525 1438.55 42.125C1440 43.675 1441.68 44.475 1443.58 44.525C1444.03 44.725 1444.25 45.25 1444.25 46.1C1444.25 46.85 1444.08 47.625 1443.73 48.425C1443.28 49.425 1442.73 49.95 1442.08 50C1439.68 49.75 1437.75 48.65 1436.3 46.7C1434.9 44.9 1434.2 42.75 1434.2 40.25C1434.2 36.45 1435.03 33.175 1436.68 30.425C1438.68 27.225 1441.48 25.625 1445.08 25.625C1449.08 25.625 1451.8 27.25 1453.25 30.5L1455.95 39.575C1457.3 42.875 1459.88 44.525 1463.68 44.525C1467.93 44.525 1470.4 42.35 1471.1 38C1471.2 37.35 1471.25 36.7 1471.25 36.05C1471.25 32.4 1469.6 29.025 1466.3 25.925C1461.7 21.575 1455.08 19.4 1446.43 19.4C1441.48 19.4 1437.35 21 1434.05 24.2C1435.1 20.3 1436.53 17.6 1438.33 16.1C1440.13 14.6 1443.03 13.85 1447.03 13.85C1449.28 13.85 1452.58 14.4 1456.93 15.5C1460.68 16.45 1463.65 17 1465.85 17.15V17.075C1466.5 17.125 1467.15 17.15 1467.8 17.15C1469 17.15 1470.23 16.825 1471.48 16.175C1472.58 15.525 1473.68 14.875 1474.78 14.225ZM1492.68 70.85C1491.93 73.75 1491.23 75.575 1490.58 76.325C1489.58 77.525 1487.81 78.125 1485.26 78.125C1483.06 78.125 1481.26 77.4 1479.86 75.95C1478.51 74.55 1477.96 72.75 1478.21 70.55C1476.76 71.05 1475.38 71.3 1474.08 71.3C1471.78 71.3 1469.96 70.575 1468.61 69.125C1467.26 67.675 1466.58 65.775 1466.58 63.425C1466.58 56.075 1469.38 52.4 1474.98 52.4C1476.83 52.4 1478.38 52.825 1479.63 53.675C1481.08 54.625 1481.81 55.975 1481.81 57.725C1481.81 58.825 1481.21 61.4 1480.01 65.45C1485.61 63.1 1488.41 59.45 1488.41 54.5C1488.41 50.85 1487.71 47.85 1486.31 45.5C1484.61 42.65 1482.06 41.2 1478.66 41.15C1479.61 37.6 1480.86 35.825 1482.41 35.825C1484.06 35.825 1485.76 37.65 1487.51 41.3C1489.11 44.65 1489.91 47.525 1489.91 49.925C1489.91 59.825 1486.66 66.425 1480.16 69.725C1481.76 72.175 1483.81 73.4 1486.31 73.4C1487.91 73.4 1490.03 72.55 1492.68 70.85ZM1479.48 62.375C1479.48 58.875 1477.66 57.125 1474.01 57.125C1470.11 57.125 1468.16 58.3 1468.16 60.65C1468.16 62.2 1468.96 63.575 1470.56 64.775C1472.01 65.925 1473.53 66.5 1475.13 66.5C1475.98 66.5 1477.18 66.225 1478.73 65.675C1479.23 63.675 1479.48 62.575 1479.48 62.375ZM1532.49 14.225C1531.59 19.125 1529.44 21.9 1526.04 22.55L1526.71 23.975C1528.21 24.575 1529.46 25.675 1530.46 27.275C1531.46 28.875 1531.96 30.5 1531.96 32.15C1531.96 36.4 1531.29 40.1 1529.94 43.25C1527.99 47.75 1525.06 50 1521.16 50C1518.61 50 1516.41 49.225 1514.56 47.675C1512.76 46.075 1511.64 44.025 1511.19 41.525C1509.74 47.175 1506.69 50 1502.04 50C1498.84 50 1496.36 48.85 1494.61 46.55C1493.06 44.5 1492.29 41.825 1492.29 38.525C1492.29 35.175 1492.86 31.85 1494.01 28.55C1495.31 24.8 1497.06 21.95 1499.26 20C1496.71 20.7 1494.34 22.1 1492.14 24.2C1493.19 20.25 1494.64 17.55 1496.49 16.1C1498.34 14.6 1501.29 13.85 1505.34 13.85C1507.54 13.85 1510.76 14.4 1515.01 15.5C1519.26 16.55 1522.49 17.075 1524.69 17.075L1524.84 17.15C1525.04 17.15 1525.26 17.15 1525.51 17.15C1526.71 17.15 1527.94 16.825 1529.19 16.175C1530.29 15.525 1531.39 14.875 1532.49 14.225ZM1525.59 31.7C1525.59 31.2 1525.36 30.4 1524.91 29.3C1524.31 29.05 1523.69 28.925 1523.04 28.925C1519.94 28.925 1518.39 29.525 1518.39 30.725C1518.39 31.475 1518.84 32.1 1519.74 32.6C1520.64 33.1 1521.49 33.35 1522.29 33.35C1524.49 33.35 1525.59 32.8 1525.59 31.7ZM1529.79 37.025C1529.79 34.625 1528.89 32.525 1527.09 30.725L1525.66 36.05C1524.76 37.95 1523.34 38.9 1521.39 38.9C1519.94 38.9 1518.69 38.4 1517.64 37.4C1516.59 36.4 1516.06 35.175 1516.06 33.725C1516.06 28.525 1517.66 25.275 1520.86 23.975C1518.01 21.825 1514.84 20.75 1511.34 20.75C1506.74 20.75 1502.91 21.9 1499.86 24.2C1496.46 26.75 1494.76 30.25 1494.76 34.7C1494.76 37.35 1495.46 39.6 1496.86 41.45C1498.41 43.5 1500.46 44.525 1503.01 44.525C1506.31 44.525 1508.69 43.3 1510.14 40.85C1510.74 39.85 1511.61 37.175 1512.76 32.825C1512.76 35.875 1513.49 38.5 1514.94 40.7C1516.59 43.2 1518.86 44.45 1521.76 44.45C1524.06 44.45 1525.96 43.8 1527.46 42.5C1529.01 41.15 1529.79 39.325 1529.79 37.025ZM1575.97 32.225C1575.97 36.325 1575.25 40.05 1573.8 43.4C1571.9 47.8 1569.17 50 1565.62 50C1563.07 50 1560.87 49.225 1559.02 47.675C1557.22 46.125 1556.1 44.075 1555.65 41.525C1554.2 47.175 1551.12 50 1546.42 50C1543.57 50 1541.25 49.175 1539.45 47.525C1537.65 45.825 1536.75 43.55 1536.75 40.7C1536.75 37.25 1537.25 34.325 1538.25 31.925C1539.6 28.625 1541.75 26.975 1544.7 26.975C1546.25 26.975 1547.57 27.5 1548.67 28.55C1549.77 29.55 1550.32 30.825 1550.32 32.375C1550.32 34.725 1549.8 36.9 1548.75 38.9C1547.45 41.25 1545.72 42.425 1543.57 42.425C1542.57 42.425 1541.65 42.225 1540.8 41.825C1542.5 43.625 1544.75 44.525 1547.55 44.525C1550.85 44.525 1553.2 43.3 1554.6 40.85C1555.2 39.8 1556.07 37.125 1557.22 32.825C1557.22 35.875 1557.95 38.5 1559.4 40.7C1561.05 43.25 1563.32 44.525 1566.22 44.525C1570.47 44.525 1572.95 42.35 1573.65 38C1573.75 37.35 1573.8 36.7 1573.8 36.05C1573.8 32.4 1572.15 29.025 1568.85 25.925C1564.25 21.575 1557.62 19.4 1548.97 19.4C1544.02 19.4 1539.9 21 1536.6 24.2C1537.65 20.3 1539.07 17.6 1540.87 16.1C1542.67 14.6 1545.57 13.85 1549.57 13.85C1551.82 13.85 1555.1 14.4 1559.4 15.5C1563.75 16.6 1567.02 17.15 1569.22 17.15C1569.67 17.95 1570.57 19.4 1571.92 21.5C1574.62 24.5 1575.97 28.075 1575.97 32.225ZM1548.22 35.675C1548.32 34.575 1547.77 33.725 1546.57 33.125C1545.62 32.675 1544.55 32.45 1543.35 32.45C1541.05 32.45 1539.85 32.775 1539.75 33.425C1539.6 34.475 1540.12 35.35 1541.32 36.05C1542.32 36.65 1543.37 36.95 1544.47 36.95C1546.92 36.95 1548.17 36.525 1548.22 35.675ZM1603.48 30.05C1603.48 35 1602.55 39.325 1600.7 43.025C1598.35 47.725 1594.98 50.075 1590.58 50.075C1587.68 50.075 1585.35 48.95 1583.6 46.7C1582 44.65 1581.2 42.125 1581.2 39.125C1581.2 35.725 1581.9 32.5 1583.3 29.45C1585.05 25.6 1587.43 23.675 1590.43 23.675C1592.03 23.675 1593.3 24.375 1594.25 25.775C1595.1 26.975 1595.53 28.4 1595.53 30.05C1595.53 32.5 1594.95 34.875 1593.8 37.175C1592.4 39.925 1590.58 41.3 1588.33 41.3C1586.58 41.3 1585.08 40.45 1583.83 38.75C1585.43 42.65 1588.08 44.6 1591.78 44.6C1594.58 44.6 1596.8 43.725 1598.45 41.975C1600.1 40.225 1600.93 37.95 1600.93 35.15C1600.93 30.6 1599.63 26.9 1597.03 24.05C1594.48 21.2 1590.95 19.775 1586.45 19.775C1584.4 19.775 1581.35 20.275 1577.3 21.275C1573.25 22.225 1570.2 22.7 1568.15 22.7V17.15C1568.6 17.2 1569.05 17.225 1569.5 17.225C1571.55 17.225 1574.58 16.725 1578.58 15.725C1582.53 14.725 1585.53 14.225 1587.58 14.225C1592.23 14.225 1596.03 15.7 1598.98 18.65C1601.98 21.6 1603.48 25.4 1603.48 30.05ZM1593.65 33.875C1593.85 32.725 1593.45 31.65 1592.45 30.65C1591.45 29.65 1590.38 29.15 1589.23 29.15C1586.18 29.15 1584.58 29.825 1584.43 31.175C1584.28 32.375 1584.78 33.45 1585.93 34.4C1587.08 35.35 1588.28 35.825 1589.53 35.825C1592.03 35.825 1593.4 35.175 1593.65 33.875ZM1660.93 30.65C1660.93 40 1658.35 46.525 1653.2 50.225L1653.13 49.55C1652.93 47.75 1653.75 45.65 1655.6 43.25C1657.45 40.8 1658.38 38.375 1658.38 35.975C1658.38 30.775 1657.13 26.425 1654.63 22.925C1651.93 19.125 1648.08 16.95 1643.08 16.4L1643.15 17.9C1643.3 21.3 1642.43 24 1640.53 26C1638.63 28 1636 29 1632.65 29C1630.4 29 1628.6 28.375 1627.25 27.125C1625.25 28.875 1624.25 31.4 1624.25 34.7C1624.25 39.1 1626.28 42.375 1630.33 44.525C1630.53 45.025 1630.63 45.55 1630.63 46.1C1630.63 47.45 1630.03 48.75 1628.83 50C1624.03 47.5 1621.63 42.925 1621.63 36.275C1621.63 34.225 1621.98 32.1 1622.68 29.9C1623.43 27.45 1624.43 25.55 1625.68 24.2L1625.45 22.1C1625.45 17.55 1627.13 14.4 1630.48 12.65C1632.88 11.4 1636.6 10.775 1641.65 10.775C1647.45 10.775 1652.1 12.625 1655.6 16.325C1659.15 20.025 1660.93 24.8 1660.93 30.65ZM1640.98 20.6C1640.98 19.45 1640.2 18.475 1638.65 17.675C1637.35 16.975 1636.05 16.625 1634.75 16.625C1630.2 16.625 1627.93 17.75 1627.93 20C1627.93 21.2 1628.65 22.125 1630.1 22.775C1631.2 23.275 1632.45 23.525 1633.85 23.525C1638.6 23.525 1640.98 22.55 1640.98 20.6ZM1706.66 14.225C1705.96 18.025 1704.49 20.55 1702.24 21.8C1704.34 24.25 1705.39 26.975 1705.39 29.975C1705.39 35.925 1703.51 40.75 1699.76 44.45C1696.06 48.15 1691.21 50 1685.21 50C1680.46 50 1676.24 48.75 1672.54 46.25C1668.29 43.45 1666.16 39.8 1666.16 35.3C1666.16 32.65 1666.69 29.95 1667.74 27.2C1668.89 24.2 1670.39 21.9 1672.24 20.3C1670.04 21.05 1667.96 22.35 1666.01 24.2C1667.11 20.25 1668.54 17.55 1670.29 16.1C1672.09 14.6 1675.01 13.85 1679.06 13.85C1681.26 13.85 1684.54 14.4 1688.89 15.5C1692.64 16.45 1695.59 17 1697.74 17.15V17.075C1698.39 17.125 1699.04 17.15 1699.69 17.15C1700.89 17.15 1702.11 16.825 1703.36 16.175C1704.46 15.525 1705.56 14.875 1706.66 14.225ZM1703.06 33.35C1703.06 29.25 1701.01 26.025 1696.91 23.675C1693.51 21.725 1689.61 20.75 1685.21 20.75C1681.06 20.75 1677.46 21.575 1674.41 23.225C1670.66 25.275 1668.79 28.225 1668.79 32.075C1668.79 36.125 1670.81 39.3 1674.86 41.6C1678.21 43.55 1682.06 44.525 1686.41 44.525C1690.61 44.525 1694.24 43.725 1697.29 42.125C1701.14 40.125 1703.06 37.2 1703.06 33.35ZM1730.34 29.975C1730.34 35.075 1729.22 39.525 1726.97 43.325C1724.27 47.775 1720.52 50 1715.72 50C1712.27 50 1709.14 48.95 1706.34 46.85C1703.29 44.6 1701.77 41.8 1701.77 38.45L1703.49 31.925C1703.49 35.575 1704.79 38.6 1707.39 41C1709.99 43.35 1713.14 44.525 1716.84 44.525C1719.49 44.525 1721.97 43.6 1724.27 41.75C1726.62 39.85 1727.79 37.6 1727.79 35C1727.79 31.25 1726.97 28.05 1725.32 25.4C1723.42 22.3 1720.69 20.75 1717.14 20.75C1714.99 20.75 1713.17 21.5 1711.67 23C1712.22 20.35 1712.69 18.675 1713.09 17.975C1714.09 16.175 1715.82 15.275 1718.27 15.275C1722.02 15.275 1725.02 16.825 1727.27 19.925C1729.32 22.725 1730.34 26.075 1730.34 29.975ZM1748.18 46.625C1748.18 47.525 1747.75 48.375 1746.9 49.175C1746.1 49.925 1745.25 50.3 1744.35 50.3C1743.35 50.3 1742.48 49.95 1741.73 49.25C1741.03 48.5 1740.68 47.625 1740.68 46.625C1740.68 45.575 1741.03 44.725 1741.73 44.075C1742.43 43.375 1743.3 43.025 1744.35 43.025C1745.35 43.025 1746.25 43.35 1747.05 44C1747.8 44.9 1748.18 45.775 1748.18 46.625Z" fill="black"/>
</svg>
