<svg width="1699" height="77" viewBox="0 0 1699 77" fill="none" xmlns="http://www.w3.org/2000/svg">
<path d="M42.375 34.375C42.375 38.275 41.4 41.625 39.45 44.425C37.25 47.525 34.275 49.075 30.525 49.075C26.725 49.075 23.675 47.35 21.375 43.9C19.075 47.35 15.875 49.075 11.775 49.075C8.275 49.075 5.475 47.875 3.375 45.475C1.375 43.225 0.375 40.325 0.375 36.775C0.375 33.175 1.775 30.525 4.575 28.825C6.725 27.525 8.875 27 11.025 27.25C12.125 27.4 13.05 27.875 13.8 28.675C14.6 29.425 15 30.35 15 31.45C15 32.55 14.6 33.5 13.8 34.3C13 35.1 12.05 35.5 10.95 35.5C8.9 35.5 7.6 34.525 7.05 32.575C5.6 33.475 4.875 34.875 4.875 36.775C4.875 38.975 5.45 40.825 6.6 42.325C7.8 43.825 9.45 44.575 11.55 44.575C13.85 44.575 15.675 43.75 17.025 42.1C18.425 40.45 19.125 38.475 19.125 36.175C19.125 34.625 19.875 33.85 21.375 33.85C22.875 33.85 23.625 34.625 23.625 36.175C23.625 38.375 24.275 40.325 25.575 42.025C26.925 43.725 28.675 44.575 30.825 44.575C33.275 44.575 35.125 43.425 36.375 41.125C37.375 39.325 37.875 37.075 37.875 34.375C37.875 29.175 35.925 25.325 32.025 22.825C28.775 20.775 24.375 19.75 18.825 19.75C17.325 19.75 16.575 19 16.575 17.5C16.575 16 17.325 15.25 18.825 15.25C25.625 15.25 31.1 16.7 35.25 19.6C40 22.95 42.375 27.875 42.375 34.375ZM91.1543 32.125C91.1543 37.875 89.0043 42.225 84.7043 45.175C81.0043 47.725 76.1543 49 70.1543 49C64.2543 49 59.4293 47.7 55.6793 45.1C51.3293 42.1 49.1543 37.775 49.1543 32.125C49.1543 20.875 52.5543 15.25 59.3543 15.25C61.9043 15.25 63.9293 16 65.4293 17.5C66.9293 19 67.6793 21.025 67.6793 23.575C67.6793 25.825 66.8293 27.775 65.1293 29.425C63.4793 31.025 61.5293 31.825 59.2793 31.825C57.0793 31.825 55.2043 31.2 53.6543 29.95V32.125C53.6543 36.475 55.4043 39.725 58.9043 41.875C61.7543 43.625 65.5043 44.5 70.1543 44.5C74.8543 44.5 78.6293 43.625 81.4793 41.875C84.9293 39.775 86.6543 36.525 86.6543 32.125C86.6543 29.175 85.9043 26.475 84.4043 24.025C82.7043 21.175 80.4543 19.75 77.6543 19.75H74.3543C72.8543 19.75 72.1043 19 72.1043 17.5C72.1043 16 72.8543 15.25 74.3543 15.25H84.4043L85.4543 18.25L86.9543 19.75C89.7543 23.2 91.1543 27.325 91.1543 32.125ZM63.1793 23.125C63.1793 20.875 61.9043 19.75 59.3543 19.75C56.5543 19.75 55.1543 20.975 55.1543 23.425C55.1543 24.575 55.5543 25.525 56.3543 26.275C57.1543 26.975 58.1293 27.325 59.2793 27.325C60.4293 27.325 61.3543 26.925 62.0543 26.125C62.8043 25.275 63.1793 24.275 63.1793 23.125ZM122.084 33.025C122.084 37.325 121.009 40.975 118.859 43.975C116.459 47.325 113.184 49 109.034 49C105.584 49 102.759 47.95 100.559 45.85C98.4086 43.7 97.3336 40.9 97.3336 37.45C97.3336 34.65 98.1836 32.175 99.8836 30.025C101.784 27.725 104.084 26.625 106.784 26.725C108.084 26.775 109.184 27.175 110.084 27.925C111.034 28.675 111.509 29.675 111.509 30.925C111.509 32.025 111.109 32.975 110.309 33.775C109.509 34.575 108.559 34.975 107.459 34.975C105.709 34.975 104.484 34.175 103.784 32.575C102.484 33.875 101.834 35.5 101.834 37.45C101.834 39.65 102.484 41.375 103.784 42.625C105.084 43.875 106.834 44.5 109.034 44.5C111.834 44.5 114.034 43.225 115.634 40.675C116.984 38.475 117.659 35.9 117.659 32.95C117.659 29.25 116.584 26.125 114.434 23.575C112.284 21.025 109.384 19.75 105.734 19.75H74.9836V15.25H105.734C110.734 15.25 114.759 16.975 117.809 20.425C120.659 23.725 122.084 27.925 122.084 33.025ZM120.442 61.525C120.592 64.775 119.392 67.525 116.842 69.775C116.442 70.125 115.992 70.3 115.492 70.3C114.142 70.3 113.467 69.625 113.467 68.275C113.467 67.725 113.692 67.25 114.142 66.85C115.742 65.4 116.542 63.775 116.542 61.975C116.542 60.175 115.842 58.7 114.442 57.55C113.042 56.4 111.417 55.775 109.567 55.675C107.617 55.575 105.942 56.075 104.542 57.175C103.142 58.325 102.442 59.85 102.442 61.75C102.442 63.15 101.792 63.85 100.492 63.85C99.1418 63.85 98.4668 63.15 98.4668 61.75C98.4668 59.9 97.7418 58.425 96.2918 57.325C94.8418 56.225 93.1668 55.675 91.2668 55.675C89.0168 55.675 87.2918 56.4 86.0918 57.85C84.8418 59.35 84.3168 61.225 84.5168 63.475C84.6168 64.525 85.3668 65.625 86.7668 66.775C87.2668 67.175 87.5168 67.675 87.5168 68.275C87.5168 68.825 87.3168 69.3 86.9168 69.7C86.5168 70.1 86.0418 70.3 85.4918 70.3C85.0418 70.3 84.6168 70.15 84.2168 69.85C81.5168 67.7 80.1668 65.025 80.1668 61.825C80.1668 58.875 81.2668 56.425 83.4668 54.475C85.5168 52.625 88.0418 51.7 91.0418 51.7C94.9918 51.65 98.1418 53.1 100.492 56.05C102.742 53.2 105.817 51.775 109.717 51.775C112.717 51.775 115.242 52.65 117.292 54.4C119.292 56.2 120.342 58.575 120.442 61.525ZM171.94 34.375C171.94 38.275 170.965 41.6 169.015 44.35C166.865 47.5 163.915 49.075 160.165 49.075C156.315 49.075 153.24 47.325 150.94 43.825C148.59 47.325 145.44 49.075 141.49 49.075C137.89 49.075 135.015 47.65 132.865 44.8C130.915 42.25 129.94 39.1 129.94 35.35C129.94 28.7 132.365 23.5 137.215 19.75H132.19C130.69 19.75 129.94 19 129.94 17.5C129.94 16 130.69 15.25 132.19 15.25H163.015C164.365 15.25 165.44 14.8 166.24 13.9C167.04 13 167.44 11.85 167.44 10.45C167.44 7.9 166.44 5.9 164.44 4.45C163.84 4 163.54 3.475 163.54 2.875C163.54 2.275 163.79 1.75 164.29 1.3C164.79 0.799998 165.34 0.549998 165.94 0.549998C166.44 0.549998 166.94 0.749998 167.44 1.15C170.39 3.55 171.865 6.625 171.865 10.375C171.865 12.725 171.24 14.725 169.99 16.375C168.69 18.175 166.94 19.25 164.74 19.6C169.54 23.1 171.94 28.025 171.94 34.375ZM167.44 34.375C167.44 29.925 165.79 26.325 162.49 23.575C159.39 21.025 155.565 19.75 151.015 19.75C146.165 19.75 142.19 21.15 139.09 23.95C135.99 26.75 134.44 30.55 134.44 35.35C134.44 37.8 134.94 39.85 135.94 41.5C137.19 43.5 138.965 44.5 141.265 44.5C143.465 44.5 145.24 43.675 146.59 42.025C147.99 40.375 148.69 38.425 148.69 36.175C148.69 34.625 149.44 33.85 150.94 33.85C152.44 33.85 153.19 34.625 153.19 36.175C153.19 38.375 153.84 40.325 155.14 42.025C156.49 43.725 158.24 44.575 160.39 44.575C162.84 44.575 164.69 43.425 165.94 41.125C166.94 39.325 167.44 37.075 167.44 34.375ZM212.545 32.125C212.545 36.825 210.895 40.825 207.595 44.125C204.345 47.375 200.37 49 195.67 49C190.97 49 186.97 47.375 183.67 44.125C180.42 40.825 178.795 36.825 178.795 32.125C178.795 27.225 180.595 23.1 184.195 19.75H180.97C179.47 19.75 178.72 19 178.72 17.5C178.72 16 179.47 15.25 180.97 15.25H203.545C204.895 15.25 205.97 14.8 206.77 13.9C207.57 13 207.97 11.85 207.97 10.45C207.97 7.9 206.97 5.9 204.97 4.45C204.37 4 204.07 3.475 204.07 2.875C204.07 2.275 204.32 1.75 204.82 1.3C205.32 0.799998 205.87 0.549998 206.47 0.549998C206.97 0.549998 207.47 0.749998 207.97 1.15C210.92 3.55 212.395 6.625 212.395 10.375C212.395 14.925 210.52 17.875 206.77 19.225L207.145 19.75C210.745 23.1 212.545 27.225 212.545 32.125ZM208.045 32.125C208.045 28.725 206.82 25.825 204.37 23.425C201.97 20.975 199.07 19.75 195.67 19.75C192.27 19.75 189.345 20.975 186.895 23.425C184.495 25.825 183.295 28.725 183.295 32.125C183.295 35.525 184.495 38.45 186.895 40.9C189.345 43.3 192.27 44.5 195.67 44.5C199.07 44.5 201.97 43.3 204.37 40.9C206.82 38.45 208.045 35.525 208.045 32.125ZM261.596 34.45C261.596 38.45 260.596 41.8 258.596 44.5C256.396 47.5 253.371 49 249.521 49C246.071 49 243.246 47.95 241.046 45.85C238.896 43.7 237.821 40.9 237.821 37.45C237.821 34.65 238.671 32.175 240.371 30.025C242.271 27.725 244.571 26.625 247.271 26.725C248.421 26.775 249.421 27.2 250.271 28C251.121 28.8 251.546 29.775 251.546 30.925C251.546 32.025 251.146 32.975 250.346 33.775C249.546 34.575 248.596 34.975 247.496 34.975C245.896 34.975 244.721 34.275 243.971 32.875C242.871 34.175 242.321 35.7 242.321 37.45C242.321 39.65 242.971 41.375 244.271 42.625C245.571 43.875 247.321 44.5 249.521 44.5C252.021 44.5 253.971 43.425 255.371 41.275C256.571 39.425 257.171 37.175 257.171 34.525C257.171 30.475 255.996 27.05 253.646 24.25C251.146 21.25 247.921 19.75 243.971 19.75C239.871 19.75 237.121 20 235.721 20.5C232.921 21.5 231.621 23.75 231.821 27.25C231.871 28.25 232.071 30.075 232.421 32.725C232.721 35.025 232.871 36.85 232.871 38.2C232.871 41.45 231.771 44.075 229.571 46.075C227.421 48.025 224.696 49 221.396 49C217.446 49 214.196 47.675 211.646 45.025C209.096 42.325 207.821 38.975 207.821 34.975C207.821 33.475 208.571 32.725 210.071 32.725C211.571 32.725 212.321 33.475 212.321 34.975C212.321 37.725 213.146 40 214.796 41.8C216.446 43.6 218.646 44.5 221.396 44.5C223.396 44.5 225.046 43.95 226.346 42.85C227.696 41.75 228.371 40.2 228.371 38.2C228.371 36.95 228.196 35.125 227.846 32.725C227.496 30.325 227.321 28.5 227.321 27.25C227.321 22.15 229.021 18.725 232.421 16.975C234.671 15.825 238.521 15.25 243.971 15.25C249.221 15.25 253.521 17.15 256.871 20.95C260.021 24.6 261.596 29.1 261.596 34.45ZM339.883 31.3C339.883 35.35 338.733 38.825 336.433 41.725C337.283 43.475 337.708 45.375 337.708 47.425C337.708 49.975 337.083 52.625 335.833 55.375C335.433 56.275 334.758 56.725 333.808 56.725C332.258 56.725 331.483 56 331.483 54.55C331.483 54.25 331.558 53.925 331.708 53.575C332.708 51.425 333.208 49.4 333.208 47.5C333.208 46.65 333.108 45.825 332.908 45.025C329.108 47.675 324.433 49 318.883 49C314.933 49 311.883 48.675 309.733 48.025C305.983 46.875 304.108 44.7 304.108 41.5C304.108 38.35 305.883 36 309.433 34.45C312.083 33.35 315.233 32.8 318.883 32.8C325.233 32.8 330.158 34.5 333.658 37.9C334.808 36 335.383 33.8 335.383 31.3C335.383 23.6 332.758 19.75 327.508 19.75C325.708 19.75 324.183 20.325 322.933 21.475C321.733 22.575 321.133 24.025 321.133 25.825C321.133 27.375 320.383 28.15 318.883 28.15C317.683 28.15 316.933 27.425 316.633 25.975C316.283 24.025 315.583 22.575 314.533 21.625C313.133 20.375 311.458 19.75 309.508 19.75C307.708 19.75 306.133 20.2 304.783 21.1C303.283 22.1 302.533 23.475 302.533 25.225C302.533 26.125 302.758 27 303.208 27.85C303.408 28.25 303.508 28.6 303.508 28.9C303.508 30.35 302.708 31.075 301.108 31.075C300.208 31.075 299.558 30.65 299.158 29.8C298.358 28.2 297.958 26.6 297.958 25C297.958 22.15 299.208 19.775 301.708 17.875C303.958 16.125 306.558 15.25 309.508 15.25C313.258 15.25 316.333 16.65 318.733 19.45C320.833 16.65 323.758 15.25 327.508 15.25C331.758 15.25 334.958 16.95 337.108 20.35C338.958 23.2 339.883 26.85 339.883 31.3ZM330.583 41.2C327.983 38.6 324.083 37.3 318.883 37.3C316.683 37.3 314.633 37.55 312.733 38.05C309.933 38.8 308.558 39.9 308.608 41.35C308.608 42.45 310.058 43.3 312.958 43.9C314.858 44.3 316.833 44.5 318.883 44.5C323.683 44.5 327.583 43.4 330.583 41.2ZM380.489 32.125C380.489 36.825 378.839 40.825 375.539 44.125C372.289 47.375 368.314 49 363.614 49C358.914 49 354.914 47.375 351.614 44.125C348.364 40.825 346.739 36.825 346.739 32.125C346.739 27.225 348.539 23.1 352.139 19.75H348.914C347.414 19.75 346.664 19 346.664 17.5C346.664 16 347.414 15.25 348.914 15.25H371.489C372.839 15.25 373.914 14.8 374.714 13.9C375.514 13 375.914 11.85 375.914 10.45C375.914 7.9 374.914 5.9 372.914 4.45C372.314 4 372.014 3.475 372.014 2.875C372.014 2.275 372.264 1.75 372.764 1.3C373.264 0.799998 373.814 0.549998 374.414 0.549998C374.914 0.549998 375.414 0.749998 375.914 1.15C378.864 3.55 380.339 6.625 380.339 10.375C380.339 14.925 378.464 17.875 374.714 19.225L375.089 19.75C378.689 23.1 380.489 27.225 380.489 32.125ZM375.989 32.125C375.989 28.725 374.764 25.825 372.314 23.425C369.914 20.975 367.014 19.75 363.614 19.75C360.214 19.75 357.289 20.975 354.839 23.425C352.439 25.825 351.239 28.725 351.239 32.125C351.239 35.525 352.439 38.45 354.839 40.9C357.289 43.3 360.214 44.5 363.614 44.5C367.014 44.5 369.914 43.3 372.314 40.9C374.764 38.45 375.989 35.525 375.989 32.125ZM403.965 32.125C403.965 36.675 402.84 40.525 400.59 43.675C398.04 47.225 394.565 49 390.165 49C386.165 49 382.79 47.675 380.04 45.025C377.24 42.325 375.84 38.975 375.84 34.975C375.84 33.475 376.59 32.725 378.09 32.725C379.59 32.725 380.34 33.475 380.34 34.975C380.34 37.725 381.29 40 383.19 41.8C385.09 43.6 387.415 44.5 390.165 44.5C393.215 44.5 395.59 43.15 397.29 40.45C398.79 38.1 399.54 35.325 399.54 32.125C399.54 28.825 398.74 26 397.14 23.65C395.29 21.05 392.765 19.75 389.565 19.75C388.065 19.75 387.315 19 387.315 17.5C387.315 16 388.065 15.25 389.565 15.25C394.165 15.25 397.765 16.975 400.365 20.425C402.765 23.525 403.965 27.425 403.965 32.125ZM483 34.375C483 38.275 482.025 41.625 480.075 44.425C477.875 47.525 474.9 49.075 471.15 49.075C467.35 49.075 464.3 47.35 462 43.9C459.7 47.35 456.5 49.075 452.4 49.075C448.9 49.075 446.1 47.875 444 45.475C442 43.225 441 40.325 441 36.775C441 33.175 442.4 30.525 445.2 28.825C447.35 27.525 449.5 27 451.65 27.25C452.75 27.4 453.675 27.875 454.425 28.675C455.225 29.425 455.625 30.35 455.625 31.45C455.625 32.55 455.225 33.5 454.425 34.3C453.625 35.1 452.675 35.5 451.575 35.5C449.525 35.5 448.225 34.525 447.675 32.575C446.225 33.475 445.5 34.875 445.5 36.775C445.5 38.975 446.075 40.825 447.225 42.325C448.425 43.825 450.075 44.575 452.175 44.575C454.475 44.575 456.3 43.75 457.65 42.1C459.05 40.45 459.75 38.475 459.75 36.175C459.75 34.625 460.5 33.85 462 33.85C463.5 33.85 464.25 34.625 464.25 36.175C464.25 38.375 464.9 40.325 466.2 42.025C467.55 43.725 469.3 44.575 471.45 44.575C473.9 44.575 475.75 43.425 477 41.125C478 39.325 478.5 37.075 478.5 34.375C478.5 29.175 476.55 25.325 472.65 22.825C469.4 20.775 465 19.75 459.45 19.75C457.95 19.75 457.2 19 457.2 17.5C457.2 16 457.95 15.25 459.45 15.25C466.25 15.25 471.725 16.7 475.875 19.6C480.625 22.95 483 27.875 483 34.375ZM523.529 32.125C523.529 36.825 521.879 40.825 518.579 44.125C515.329 47.375 511.354 49 506.654 49C501.954 49 497.954 47.375 494.654 44.125C491.404 40.825 489.779 36.825 489.779 32.125C489.779 27.425 491.404 23.45 494.654 20.2C497.954 16.9 501.954 15.25 506.654 15.25C511.354 15.25 515.329 16.9 518.579 20.2C521.879 23.45 523.529 27.425 523.529 32.125ZM519.029 32.125C519.029 28.725 517.804 25.825 515.354 23.425C512.954 20.975 510.054 19.75 506.654 19.75C503.254 19.75 500.329 20.975 497.879 23.425C495.479 25.825 494.279 28.725 494.279 32.125C494.279 35.525 495.479 38.45 497.879 40.9C500.329 43.3 503.254 44.5 506.654 44.5C510.054 44.5 512.954 43.3 515.354 40.9C517.804 38.45 519.029 35.525 519.029 32.125ZM569.132 35.875C569.132 40.575 567.007 44.075 562.757 46.375C559.557 48.125 555.732 49 551.282 49C545.432 49 540.557 47.475 536.657 44.425C532.407 41.125 530.282 36.6 530.282 30.85C530.282 29.35 531.032 28.6 532.532 28.6C534.032 28.6 534.782 29.35 534.782 30.85C534.782 35.35 536.457 38.825 539.807 41.275C542.807 43.425 546.632 44.5 551.282 44.5C554.732 44.5 557.632 43.925 559.982 42.775C563.082 41.275 564.632 38.975 564.632 35.875C564.632 33.125 563.757 31.025 562.007 29.575C561.357 31.725 560.157 33.475 558.407 34.825C556.657 36.125 554.682 36.775 552.482 36.775C550.132 36.775 548.057 36.15 546.257 34.9C544.207 33.55 543.182 31.75 543.182 29.5C543.182 25.05 546.707 22.825 553.757 22.825C554.807 22.825 555.882 22.9 556.982 23.05C555.582 20.85 553.682 19.75 551.282 19.75H532.532C531.032 19.75 530.282 19 530.282 17.5C530.282 16 531.032 15.25 532.532 15.25H560.357C560.107 16.3 559.982 17.25 559.982 18.1C559.982 18.7 560.032 19.25 560.132 19.75C561.232 21.2 561.957 22.775 562.307 24.475C566.857 26.675 569.132 30.475 569.132 35.875ZM557.807 27.7C556.807 27.5 555.457 27.4 553.757 27.4C549.707 27.4 547.682 28.1 547.682 29.5C547.682 30.35 548.307 31.05 549.557 31.6C550.507 32.05 551.482 32.275 552.482 32.275C553.832 32.275 554.982 31.85 555.932 31C556.932 30.15 557.557 29.05 557.807 27.7ZM600.062 33.025C600.062 37.325 598.987 40.975 596.837 43.975C594.437 47.325 591.162 49 587.012 49C583.562 49 580.737 47.95 578.537 45.85C576.387 43.7 575.312 40.9 575.312 37.45C575.312 34.65 576.162 32.175 577.862 30.025C579.762 27.725 582.062 26.625 584.762 26.725C586.062 26.775 587.162 27.175 588.062 27.925C589.012 28.675 589.487 29.675 589.487 30.925C589.487 32.025 589.087 32.975 588.287 33.775C587.487 34.575 586.537 34.975 585.437 34.975C583.687 34.975 582.462 34.175 581.762 32.575C580.462 33.875 579.812 35.5 579.812 37.45C579.812 39.65 580.462 41.375 581.762 42.625C583.062 43.875 584.812 44.5 587.012 44.5C589.812 44.5 592.012 43.225 593.612 40.675C594.962 38.475 595.637 35.9 595.637 32.95C595.637 29.25 594.562 26.125 592.412 23.575C590.262 21.025 587.362 19.75 583.712 19.75H552.962V15.25H583.712C588.712 15.25 592.737 16.975 595.787 20.425C598.637 23.725 600.062 27.925 600.062 33.025ZM648.82 34.375C648.82 38.275 647.845 41.6 645.895 44.35C643.745 47.5 640.795 49.075 637.045 49.075C633.195 49.075 630.12 47.325 627.82 43.825C625.47 47.325 622.32 49.075 618.37 49.075C614.77 49.075 611.895 47.65 609.745 44.8C607.795 42.25 606.82 39.1 606.82 35.35C606.82 28.7 609.245 23.5 614.095 19.75H609.07C607.57 19.75 606.82 19 606.82 17.5C606.82 16 607.57 15.25 609.07 15.25H639.895C641.245 15.25 642.32 14.8 643.12 13.9C643.92 13 644.32 11.85 644.32 10.45C644.32 7.9 643.32 5.9 641.32 4.45C640.72 4 640.42 3.475 640.42 2.875C640.42 2.275 640.67 1.75 641.17 1.3C641.67 0.799998 642.22 0.549998 642.82 0.549998C643.32 0.549998 643.82 0.749998 644.32 1.15C647.27 3.55 648.745 6.625 648.745 10.375C648.745 12.725 648.12 14.725 646.87 16.375C645.57 18.175 643.82 19.25 641.62 19.6C646.42 23.1 648.82 28.025 648.82 34.375ZM644.32 34.375C644.32 29.925 642.67 26.325 639.37 23.575C636.27 21.025 632.445 19.75 627.895 19.75C623.045 19.75 619.07 21.15 615.97 23.95C612.87 26.75 611.32 30.55 611.32 35.35C611.32 37.8 611.82 39.85 612.82 41.5C614.07 43.5 615.845 44.5 618.145 44.5C620.345 44.5 622.12 43.675 623.47 42.025C624.87 40.375 625.57 38.425 625.57 36.175C625.57 34.625 626.32 33.85 627.82 33.85C629.32 33.85 630.07 34.625 630.07 36.175C630.07 38.375 630.72 40.325 632.02 42.025C633.37 43.725 635.12 44.575 637.27 44.575C639.72 44.575 641.57 43.425 642.82 41.125C643.82 39.325 644.32 37.075 644.32 34.375ZM689.425 32.125C689.425 36.825 687.775 40.825 684.475 44.125C681.225 47.375 677.25 49 672.55 49C667.85 49 663.85 47.375 660.55 44.125C657.3 40.825 655.675 36.825 655.675 32.125C655.675 27.225 657.475 23.1 661.075 19.75H657.85C656.35 19.75 655.6 19 655.6 17.5C655.6 16 656.35 15.25 657.85 15.25H680.425C681.775 15.25 682.85 14.8 683.65 13.9C684.45 13 684.85 11.85 684.85 10.45C684.85 7.9 683.85 5.9 681.85 4.45C681.25 4 680.95 3.475 680.95 2.875C680.95 2.275 681.2 1.75 681.7 1.3C682.2 0.799998 682.75 0.549998 683.35 0.549998C683.85 0.549998 684.35 0.749998 684.85 1.15C687.8 3.55 689.275 6.625 689.275 10.375C689.275 14.925 687.4 17.875 683.65 19.225L684.025 19.75C687.625 23.1 689.425 27.225 689.425 32.125ZM684.925 32.125C684.925 28.725 683.7 25.825 681.25 23.425C678.85 20.975 675.95 19.75 672.55 19.75C669.15 19.75 666.225 20.975 663.775 23.425C661.375 25.825 660.175 28.725 660.175 32.125C660.175 35.525 661.375 38.45 663.775 40.9C666.225 43.3 669.15 44.5 672.55 44.5C675.95 44.5 678.85 43.3 681.25 40.9C683.7 38.45 684.925 35.525 684.925 32.125ZM712.901 32.125C712.901 36.675 711.776 40.525 709.526 43.675C706.976 47.225 703.501 49 699.101 49C695.101 49 691.726 47.675 688.976 45.025C686.176 42.325 684.776 38.975 684.776 34.975C684.776 33.475 685.526 32.725 687.026 32.725C688.526 32.725 689.276 33.475 689.276 34.975C689.276 37.725 690.226 40 692.126 41.8C694.026 43.6 696.351 44.5 699.101 44.5C702.151 44.5 704.526 43.15 706.226 40.45C707.726 38.1 708.476 35.325 708.476 32.125C708.476 28.825 707.676 26 706.076 23.65C704.226 21.05 701.701 19.75 698.501 19.75C697.001 19.75 696.251 19 696.251 17.5C696.251 16 697.001 15.25 698.501 15.25C703.101 15.25 706.701 16.975 709.301 20.425C711.701 23.525 712.901 27.425 712.901 32.125ZM791.861 31.3C791.861 35.35 790.711 38.825 788.411 41.725C789.261 43.475 789.686 45.375 789.686 47.425C789.686 49.975 789.061 52.625 787.811 55.375C787.411 56.275 786.736 56.725 785.786 56.725C784.236 56.725 783.461 56 783.461 54.55C783.461 54.25 783.536 53.925 783.686 53.575C784.686 51.425 785.186 49.4 785.186 47.5C785.186 46.65 785.086 45.825 784.886 45.025C781.086 47.675 776.411 49 770.861 49C766.911 49 763.861 48.675 761.711 48.025C757.961 46.875 756.086 44.7 756.086 41.5C756.086 38.35 757.861 36 761.411 34.45C764.061 33.35 767.211 32.8 770.861 32.8C777.211 32.8 782.136 34.5 785.636 37.9C786.786 36 787.361 33.8 787.361 31.3C787.361 23.6 784.736 19.75 779.486 19.75C777.686 19.75 776.161 20.325 774.911 21.475C773.711 22.575 773.111 24.025 773.111 25.825C773.111 27.375 772.361 28.15 770.861 28.15C769.661 28.15 768.911 27.425 768.611 25.975C768.261 24.025 767.561 22.575 766.511 21.625C765.111 20.375 763.436 19.75 761.486 19.75C759.686 19.75 758.111 20.2 756.761 21.1C755.261 22.1 754.511 23.475 754.511 25.225C754.511 26.125 754.736 27 755.186 27.85C755.386 28.25 755.486 28.6 755.486 28.9C755.486 30.35 754.686 31.075 753.086 31.075C752.186 31.075 751.536 30.65 751.136 29.8C750.336 28.2 749.936 26.6 749.936 25C749.936 22.15 751.186 19.775 753.686 17.875C755.936 16.125 758.536 15.25 761.486 15.25C765.236 15.25 768.311 16.65 770.711 19.45C772.811 16.65 775.736 15.25 779.486 15.25C783.736 15.25 786.936 16.95 789.086 20.35C790.936 23.2 791.861 26.85 791.861 31.3ZM782.561 41.2C779.961 38.6 776.061 37.3 770.861 37.3C768.661 37.3 766.611 37.55 764.711 38.05C761.911 38.8 760.536 39.9 760.586 41.35C760.586 42.45 762.036 43.3 764.936 43.9C766.836 44.3 768.811 44.5 770.861 44.5C775.661 44.5 779.561 43.4 782.561 41.2ZM832.467 32.125C832.467 36.825 830.817 40.825 827.517 44.125C824.267 47.375 820.292 49 815.592 49C810.892 49 806.892 47.375 803.592 44.125C800.342 40.825 798.717 36.825 798.717 32.125C798.717 27.225 800.517 23.1 804.117 19.75H800.892C799.392 19.75 798.642 19 798.642 17.5C798.642 16 799.392 15.25 800.892 15.25H823.467C824.817 15.25 825.892 14.8 826.692 13.9C827.492 13 827.892 11.85 827.892 10.45C827.892 7.9 826.892 5.9 824.892 4.45C824.292 4 823.992 3.475 823.992 2.875C823.992 2.275 824.242 1.75 824.742 1.3C825.242 0.799998 825.792 0.549998 826.392 0.549998C826.892 0.549998 827.392 0.749998 827.892 1.15C830.842 3.55 832.317 6.625 832.317 10.375C832.317 14.925 830.442 17.875 826.692 19.225L827.067 19.75C830.667 23.1 832.467 27.225 832.467 32.125ZM827.967 32.125C827.967 28.725 826.742 25.825 824.292 23.425C821.892 20.975 818.992 19.75 815.592 19.75C812.192 19.75 809.267 20.975 806.817 23.425C804.417 25.825 803.217 28.725 803.217 32.125C803.217 35.525 804.417 38.45 806.817 40.9C809.267 43.3 812.192 44.5 815.592 44.5C818.992 44.5 821.892 43.3 824.292 40.9C826.742 38.45 827.967 35.525 827.967 32.125ZM855.943 32.125C855.943 36.675 854.818 40.525 852.568 43.675C850.018 47.225 846.543 49 842.143 49C838.143 49 834.768 47.675 832.018 45.025C829.218 42.325 827.818 38.975 827.818 34.975C827.818 33.475 828.568 32.725 830.068 32.725C831.568 32.725 832.318 33.475 832.318 34.975C832.318 37.725 833.268 40 835.168 41.8C837.068 43.6 839.393 44.5 842.143 44.5C845.193 44.5 847.568 43.15 849.268 40.45C850.768 38.1 851.518 35.325 851.518 32.125C851.518 28.825 850.718 26 849.118 23.65C847.268 21.05 844.743 19.75 841.543 19.75C840.043 19.75 839.293 19 839.293 17.5C839.293 16 840.043 15.25 841.543 15.25C846.143 15.25 849.743 16.975 852.343 20.425C854.743 23.525 855.943 27.425 855.943 32.125ZM934.978 34.375C934.978 38.275 934.003 41.625 932.053 44.425C929.853 47.525 926.878 49.075 923.128 49.075C919.328 49.075 916.278 47.35 913.978 43.9C911.678 47.35 908.478 49.075 904.378 49.075C900.878 49.075 898.078 47.875 895.978 45.475C893.978 43.225 892.978 40.325 892.978 36.775C892.978 33.175 894.378 30.525 897.178 28.825C899.328 27.525 901.478 27 903.628 27.25C904.728 27.4 905.653 27.875 906.403 28.675C907.203 29.425 907.603 30.35 907.603 31.45C907.603 32.55 907.203 33.5 906.403 34.3C905.603 35.1 904.653 35.5 903.553 35.5C901.503 35.5 900.203 34.525 899.653 32.575C898.203 33.475 897.478 34.875 897.478 36.775C897.478 38.975 898.053 40.825 899.203 42.325C900.403 43.825 902.053 44.575 904.153 44.575C906.453 44.575 908.278 43.75 909.628 42.1C911.028 40.45 911.728 38.475 911.728 36.175C911.728 34.625 912.478 33.85 913.978 33.85C915.478 33.85 916.228 34.625 916.228 36.175C916.228 38.375 916.878 40.325 918.178 42.025C919.528 43.725 921.278 44.575 923.428 44.575C925.878 44.575 927.728 43.425 928.978 41.125C929.978 39.325 930.478 37.075 930.478 34.375C930.478 29.175 928.528 25.325 924.628 22.825C921.378 20.775 916.978 19.75 911.428 19.75C909.928 19.75 909.178 19 909.178 17.5C909.178 16 909.928 15.25 911.428 15.25C918.228 15.25 923.703 16.7 927.853 19.6C932.603 22.95 934.978 27.875 934.978 34.375ZM975.507 32.125C975.507 36.825 973.857 40.825 970.557 44.125C967.307 47.375 963.332 49 958.632 49C953.932 49 949.932 47.375 946.632 44.125C943.382 40.825 941.757 36.825 941.757 32.125C941.757 27.425 943.382 23.45 946.632 20.2C949.932 16.9 953.932 15.25 958.632 15.25C963.332 15.25 967.307 16.9 970.557 20.2C973.857 23.45 975.507 27.425 975.507 32.125ZM971.007 32.125C971.007 28.725 969.782 25.825 967.332 23.425C964.932 20.975 962.032 19.75 958.632 19.75C955.232 19.75 952.307 20.975 949.857 23.425C947.457 25.825 946.257 28.725 946.257 32.125C946.257 35.525 947.457 38.45 949.857 40.9C952.307 43.3 955.232 44.5 958.632 44.5C962.032 44.5 964.932 43.3 967.332 40.9C969.782 38.45 971.007 35.525 971.007 32.125ZM1024.26 34.375C1024.26 38.275 1023.28 41.6 1021.33 44.35C1019.18 47.5 1016.23 49.075 1012.48 49.075C1008.63 49.075 1005.56 47.325 1003.26 43.825C1000.91 47.325 997.76 49.075 993.81 49.075C990.21 49.075 987.335 47.65 985.185 44.8C983.235 42.25 982.26 39.1 982.26 35.35C982.26 28.7 984.685 23.5 989.535 19.75H984.51C983.01 19.75 982.26 19 982.26 17.5C982.26 16 983.01 15.25 984.51 15.25H1013.91V17.725C1020.81 21.225 1024.26 26.775 1024.26 34.375ZM1019.76 34.375C1019.76 29.925 1018.11 26.325 1014.81 23.575C1011.71 21.025 1007.88 19.75 1003.33 19.75C998.485 19.75 994.51 21.15 991.41 23.95C988.31 26.75 986.76 30.55 986.76 35.35C986.76 37.8 987.26 39.85 988.26 41.5C989.51 43.5 991.285 44.5 993.585 44.5C995.785 44.5 997.56 43.675 998.91 42.025C1000.31 40.375 1001.01 38.425 1001.01 36.175C1001.01 34.625 1001.76 33.85 1003.26 33.85C1004.76 33.85 1005.51 34.625 1005.51 36.175C1005.51 38.375 1006.16 40.325 1007.46 42.025C1008.81 43.725 1010.56 44.575 1012.71 44.575C1015.16 44.575 1017.01 43.425 1018.26 41.125C1019.26 39.325 1019.76 37.075 1019.76 34.375ZM1024.29 10.225C1024.29 12.925 1023.49 15.15 1021.89 16.9C1020.24 18.8 1018.09 19.75 1015.44 19.75H1007.04V15.25H1015.44C1018.34 15.25 1019.79 13.575 1019.79 10.225C1019.79 8.675 1019.34 7.4 1018.44 6.4C1017.49 5.35 1016.26 4.95 1014.76 5.2C1015.46 5.95 1015.81 6.85 1015.81 7.9C1015.81 9 1015.41 9.95 1014.61 10.75C1013.81 11.55 1012.86 11.95 1011.76 11.95C1010.66 11.95 1009.71 11.55 1008.91 10.75C1008.11 9.95 1007.71 9 1007.71 7.9C1007.71 5.75 1008.49 4 1010.04 2.65C1011.54 1.3 1013.36 0.624997 1015.51 0.624997C1018.16 0.624997 1020.29 1.575 1021.89 3.475C1023.49 5.325 1024.29 7.575 1024.29 10.225ZM1064.86 32.125C1064.86 36.825 1063.21 40.825 1059.91 44.125C1056.66 47.375 1052.69 49 1047.99 49C1043.29 49 1039.29 47.375 1035.99 44.125C1032.74 40.825 1031.11 36.825 1031.11 32.125C1031.11 27.425 1032.74 23.45 1035.99 20.2C1039.29 16.9 1043.29 15.25 1047.99 15.25C1052.69 15.25 1056.66 16.9 1059.91 20.2C1063.21 23.45 1064.86 27.425 1064.86 32.125ZM1060.36 32.125C1060.36 28.725 1059.14 25.825 1056.69 23.425C1054.29 20.975 1051.39 19.75 1047.99 19.75C1044.59 19.75 1041.66 20.975 1039.21 23.425C1036.81 25.825 1035.61 28.725 1035.61 32.125C1035.61 35.525 1036.81 38.45 1039.21 40.9C1041.66 43.3 1044.59 44.5 1047.99 44.5C1051.39 44.5 1054.29 43.3 1056.69 40.9C1059.14 38.45 1060.36 35.525 1060.36 32.125ZM1113.62 34.375C1113.62 38.275 1112.64 41.625 1110.69 44.425C1108.49 47.525 1105.52 49.075 1101.77 49.075C1097.97 49.075 1094.92 47.35 1092.62 43.9C1090.32 47.35 1087.19 49.075 1083.24 49.075C1079.59 49.075 1076.69 47.675 1074.54 44.875C1072.59 42.275 1071.62 39.1 1071.62 35.35C1071.62 29.1 1073.79 24.1 1078.14 20.35C1076.79 18.75 1076.12 17.025 1076.12 15.175C1076.12 14.175 1076.32 13.175 1076.72 12.175C1078.72 7.125 1082.67 4.6 1088.57 4.6C1093.57 4.6 1098.02 6.3 1101.92 9.7C1105.82 13.1 1108.22 17.275 1109.12 22.225C1112.12 25.575 1113.62 29.625 1113.62 34.375ZM1102.59 17.425C1101.14 14.975 1099.14 12.975 1096.59 11.425C1094.04 9.875 1091.39 9.1 1088.64 9.1C1084.74 9.1 1082.17 10.675 1080.92 13.825C1080.72 14.325 1080.62 14.75 1080.62 15.1C1080.62 16.05 1081.04 16.95 1081.89 17.8C1085.14 16.1 1088.72 15.25 1092.62 15.25C1096.17 15.25 1099.49 15.975 1102.59 17.425ZM1109.12 34.375C1109.12 29.925 1107.44 26.325 1104.09 23.575C1100.99 21.025 1097.17 19.75 1092.62 19.75C1087.82 19.75 1083.89 21.125 1080.84 23.875C1077.69 26.775 1076.12 30.6 1076.12 35.35C1076.12 37.8 1076.67 39.875 1077.77 41.575C1079.02 43.575 1080.79 44.575 1083.09 44.575C1085.29 44.575 1087.07 43.7 1088.42 41.95C1089.72 40.35 1090.37 38.425 1090.37 36.175C1090.37 34.625 1091.12 33.85 1092.62 33.85C1094.12 33.85 1094.87 34.625 1094.87 36.175C1094.87 38.375 1095.52 40.325 1096.82 42.025C1098.17 43.725 1099.92 44.575 1102.07 44.575C1104.52 44.575 1106.37 43.425 1107.62 41.125C1108.62 39.325 1109.12 37.075 1109.12 34.375ZM1159.24 32.125C1159.24 37.325 1158.07 42.5 1155.72 47.65C1155.32 48.55 1154.67 49 1153.77 49C1152.22 49 1151.44 48.275 1151.44 46.825C1151.44 46.525 1151.52 46.2 1151.67 45.85C1153.72 41.35 1154.74 36.775 1154.74 32.125C1154.74 27.825 1153.22 24.625 1150.17 22.525C1147.52 20.675 1143.97 19.75 1139.52 19.75C1129.77 19.75 1124.89 23.875 1124.89 32.125C1124.89 34.775 1125.17 37.15 1125.72 39.25C1125.82 39.55 1126.27 40.85 1127.07 43.15C1127.67 44.85 1127.97 46.075 1127.97 46.825C1127.97 48.275 1127.19 49 1125.64 49C1124.59 49 1123.89 48.475 1123.54 47.425C1122.14 43.025 1121.37 40.55 1121.22 40C1120.67 37.8 1120.39 35.175 1120.39 32.125C1120.39 26.775 1122.04 22.65 1125.34 19.75H1122.64C1121.14 19.75 1120.39 19 1120.39 17.5C1120.39 16 1121.14 15.25 1122.64 15.25H1149.72C1151.07 15.25 1152.14 14.8 1152.94 13.9C1153.74 13 1154.14 11.85 1154.14 10.45C1154.14 7.9 1153.14 5.9 1151.14 4.45C1150.54 4 1150.24 3.475 1150.24 2.875C1150.24 2.275 1150.49 1.75 1150.99 1.3C1151.49 0.799998 1152.04 0.549998 1152.64 0.549998C1153.14 0.549998 1153.64 0.749998 1154.14 1.15C1157.09 3.55 1158.57 6.625 1158.57 10.375C1158.57 14.675 1156.84 17.575 1153.39 19.075V19.3C1157.29 22.3 1159.24 26.575 1159.24 32.125ZM1208.32 34.45C1208.32 38.45 1207.32 41.8 1205.32 44.5C1203.12 47.5 1200.1 49 1196.25 49C1192.8 49 1189.97 47.95 1187.77 45.85C1185.62 43.7 1184.55 40.9 1184.55 37.45C1184.55 34.65 1185.4 32.175 1187.1 30.025C1189 27.725 1191.3 26.625 1194 26.725C1195.15 26.775 1196.15 27.2 1197 28C1197.85 28.8 1198.27 29.775 1198.27 30.925C1198.27 32.025 1197.87 32.975 1197.07 33.775C1196.27 34.575 1195.32 34.975 1194.22 34.975C1192.62 34.975 1191.45 34.275 1190.7 32.875C1189.6 34.175 1189.05 35.7 1189.05 37.45C1189.05 39.65 1189.7 41.375 1191 42.625C1192.3 43.875 1194.05 44.5 1196.25 44.5C1198.75 44.5 1200.7 43.425 1202.1 41.275C1203.3 39.425 1203.9 37.175 1203.9 34.525C1203.9 30.475 1202.72 27.05 1200.37 24.25C1197.87 21.25 1194.65 19.75 1190.7 19.75C1186.6 19.75 1183.85 20 1182.45 20.5C1179.65 21.5 1178.35 23.75 1178.55 27.25C1178.6 28.25 1178.8 30.075 1179.15 32.725C1179.45 35.025 1179.6 36.85 1179.6 38.2C1179.6 41.45 1178.5 44.075 1176.3 46.075C1174.15 48.025 1171.42 49 1168.12 49C1164.17 49 1160.92 47.675 1158.37 45.025C1155.82 42.325 1154.55 38.975 1154.55 34.975C1154.55 33.475 1155.3 32.725 1156.8 32.725C1158.3 32.725 1159.05 33.475 1159.05 34.975C1159.05 37.725 1159.87 40 1161.52 41.8C1163.17 43.6 1165.37 44.5 1168.12 44.5C1170.12 44.5 1171.77 43.95 1173.07 42.85C1174.42 41.75 1175.1 40.2 1175.1 38.2C1175.1 36.95 1174.92 35.125 1174.57 32.725C1174.22 30.325 1174.05 28.5 1174.05 27.25C1174.05 22.15 1175.75 18.725 1179.15 16.975C1181.4 15.825 1185.25 15.25 1190.7 15.25C1195.95 15.25 1200.25 17.15 1203.6 20.95C1206.75 24.6 1208.32 29.1 1208.32 34.45ZM1283.39 33.775C1283.39 37.525 1282.71 40.725 1281.36 43.375C1279.46 47.125 1276.46 49 1272.36 49C1268.91 49 1266.24 47.55 1264.34 44.65C1263.54 42.85 1262.31 40.2 1260.66 36.7C1259.26 33.8 1257.26 32.35 1254.66 32.35C1250.96 32.35 1249.11 34.175 1249.11 37.825C1249.11 39.025 1249.39 40.3 1249.94 41.65C1250.54 43.15 1251.31 44.175 1252.26 44.725C1253.06 45.225 1253.46 45.875 1253.46 46.675C1253.46 47.275 1253.24 47.825 1252.79 48.325C1252.34 48.775 1251.81 49 1251.21 49C1250.81 49 1250.44 48.9 1250.09 48.7C1248.34 47.7 1246.99 46.15 1246.04 44.05C1245.14 42.1 1244.69 40.05 1244.69 37.9C1244.69 34.8 1245.56 32.35 1247.31 30.55C1249.11 28.75 1251.56 27.85 1254.66 27.85C1258.36 27.85 1261.21 29.3 1263.21 32.2C1264.36 34.7 1265.51 37.2 1266.66 39.7C1268.51 42.9 1270.41 44.5 1272.36 44.5C1274.76 44.5 1276.54 43.225 1277.69 40.675C1278.49 38.825 1278.89 36.525 1278.89 33.775C1278.89 24.975 1275.91 18.875 1269.96 15.475C1270.11 18.325 1269.14 20.525 1267.04 22.075C1265.19 23.475 1262.79 24.175 1259.84 24.175C1257.34 24.175 1255.16 23.475 1253.31 22.075C1251.26 20.525 1250.24 18.55 1250.24 16.15C1250.24 13.65 1251.36 11.725 1253.61 10.375C1255.46 9.225 1257.71 8.65 1260.36 8.65C1267.61 8.65 1273.31 11.075 1277.46 15.925C1281.41 20.475 1283.39 26.425 1283.39 33.775ZM1265.61 16.075C1265.61 14.125 1263.86 13.15 1260.36 13.15C1259.11 13.15 1257.96 13.35 1256.91 13.75C1255.46 14.3 1254.74 15.1 1254.74 16.15C1254.74 17.25 1255.34 18.15 1256.54 18.85C1257.54 19.4 1258.64 19.675 1259.84 19.675C1261.19 19.675 1262.41 19.425 1263.51 18.925C1264.91 18.225 1265.61 17.275 1265.61 16.075ZM1313.42 44.575C1313.42 45.325 1313.07 45.925 1312.37 46.375C1309.67 48.125 1306.77 49 1303.67 49C1299.52 49 1296.17 47.175 1293.62 43.525C1291.32 40.225 1290.17 36.425 1290.17 32.125C1290.17 20.875 1294.24 15.25 1302.39 15.25C1305.59 15.25 1308.19 16.025 1310.19 17.575C1312.34 19.275 1313.42 21.7 1313.42 24.85C1313.42 27.85 1312.27 30.225 1309.97 31.975C1307.87 33.575 1305.27 34.375 1302.17 34.375C1299.17 34.375 1296.67 33.375 1294.67 31.375V32.125C1294.67 35.125 1295.39 37.825 1296.84 40.225C1298.59 43.075 1300.87 44.5 1303.67 44.5C1305.97 44.5 1308.07 43.875 1309.97 42.625C1310.42 42.325 1310.84 42.175 1311.24 42.175C1311.84 42.175 1312.34 42.425 1312.74 42.925C1313.19 43.425 1313.42 43.975 1313.42 44.575ZM1309.07 24.625C1309.07 22.975 1308.32 21.725 1306.82 20.875C1305.62 20.125 1304.14 19.75 1302.39 19.75C1300.74 19.75 1299.37 20.125 1298.27 20.875C1296.97 21.675 1296.32 22.875 1296.32 24.475C1296.32 26.025 1296.89 27.325 1298.04 28.375C1299.19 29.375 1300.57 29.875 1302.17 29.875C1303.97 29.875 1305.52 29.45 1306.82 28.6C1308.32 27.65 1309.07 26.325 1309.07 24.625ZM1384.06 27.325C1384.06 28.825 1383.31 29.575 1381.81 29.575H1376.56C1378.81 31.725 1379.94 34.3 1379.94 37.3C1379.94 40.7 1378.56 43.5 1375.81 45.7C1373.11 47.85 1370.01 48.925 1366.51 48.925C1363.01 48.925 1359.94 47.875 1357.29 45.775C1354.49 43.525 1353.09 40.7 1353.09 37.3C1353.09 34.3 1354.21 31.725 1356.46 29.575H1351.81C1350.31 29.575 1349.56 28.825 1349.56 27.325C1349.56 25.825 1350.31 25.075 1351.81 25.075H1364.34C1363.54 24.325 1363.14 23.4 1363.14 22.3C1363.14 21.3 1363.49 20.45 1364.19 19.75H1351.66C1350.16 19.75 1349.41 19 1349.41 17.5C1349.41 16 1350.16 15.25 1351.66 15.25H1375.14C1376.49 15.25 1377.56 14.8 1378.36 13.9C1379.16 13 1379.56 11.85 1379.56 10.45C1379.56 7.9 1378.56 5.9 1376.56 4.45C1375.96 4 1375.66 3.475 1375.66 2.875C1375.66 2.275 1375.91 1.75 1376.41 1.3C1376.91 0.799998 1377.46 0.549998 1378.06 0.549998C1378.56 0.549998 1379.06 0.749998 1379.56 1.15C1382.51 3.55 1383.99 6.625 1383.99 10.375C1383.99 13.075 1383.19 15.325 1381.59 17.125C1379.99 18.875 1377.84 19.75 1375.14 19.75H1369.44C1370.19 20.45 1370.56 21.3 1370.56 22.3C1370.56 23.4 1370.14 24.325 1369.29 25.075H1381.81C1383.31 25.075 1384.06 25.825 1384.06 27.325ZM1375.44 37.3C1375.44 35.15 1374.49 33.425 1372.59 32.125C1370.74 30.825 1368.71 30.175 1366.51 30.175C1364.31 30.175 1362.31 30.8 1360.51 32.05C1358.56 33.4 1357.59 35.15 1357.59 37.3C1357.59 39.45 1358.56 41.2 1360.51 42.55C1362.31 43.8 1364.31 44.425 1366.51 44.425C1368.71 44.425 1370.74 43.775 1372.59 42.475C1374.49 41.175 1375.44 39.45 1375.44 37.3ZM1429.44 33.775C1429.44 37.425 1428.74 40.625 1427.34 43.375C1425.44 47.125 1422.46 49 1418.41 49C1414.91 49 1412.26 47.5 1410.46 44.5C1409.76 42.6 1408.64 39.775 1407.09 36.025C1405.79 33.025 1403.89 31.525 1401.39 31.525C1399.64 31.525 1398.16 31.95 1396.96 32.8C1395.61 33.7 1394.94 35 1394.94 36.7C1394.94 38.85 1395.11 40.375 1395.46 41.275C1395.96 42.475 1396.99 43.65 1398.54 44.8C1399.14 45.25 1399.44 45.825 1399.44 46.525C1399.44 47.225 1399.19 47.825 1398.69 48.325C1398.19 48.825 1397.59 49.075 1396.89 49.075C1396.44 49.075 1396.01 48.95 1395.61 48.7C1393.26 47.3 1391.76 45.625 1391.11 43.675C1390.66 42.325 1390.44 40 1390.44 36.7C1390.44 33.7 1391.54 31.3 1393.74 29.5C1395.79 27.85 1398.34 27.025 1401.39 27.025C1405.09 27.025 1407.89 28.525 1409.79 31.525C1410.04 32.225 1411.21 35.05 1413.31 40C1414.56 43 1416.26 44.5 1418.41 44.5C1420.76 44.5 1422.51 43.225 1423.66 40.675C1424.51 38.775 1424.94 36.475 1424.94 33.775C1424.94 29.975 1423.56 26.7 1420.81 23.95C1418.11 21.15 1414.86 19.75 1411.06 19.75H1392.69C1391.19 19.75 1390.44 19 1390.44 17.5C1390.44 16 1391.19 15.25 1392.69 15.25H1420.51C1421.86 15.25 1422.94 14.8 1423.74 13.9C1424.54 13 1424.94 11.85 1424.94 10.45C1424.94 7.9 1423.94 5.9 1421.94 4.45C1421.34 4 1421.04 3.475 1421.04 2.875C1421.04 2.275 1421.29 1.75 1421.79 1.3C1422.29 0.799998 1422.84 0.549998 1423.44 0.549998C1423.94 0.549998 1424.44 0.749998 1424.94 1.15C1427.89 3.55 1429.36 6.625 1429.36 10.375C1429.36 12.575 1428.79 14.525 1427.64 16.225C1426.49 17.925 1424.89 19.025 1422.84 19.525C1427.24 23.175 1429.44 27.925 1429.44 33.775ZM1451.21 74.125C1451.21 75.525 1450.54 76.225 1449.19 76.225C1448.94 76.225 1448.64 76.15 1448.29 76C1444.09 74.1 1441.11 71.925 1439.36 69.475C1437.36 70.675 1435.16 71.275 1432.76 71.275C1429.56 71.275 1426.81 70.55 1424.51 69.1C1421.91 67.35 1420.61 64.95 1420.61 61.9C1420.61 59.2 1421.51 56.95 1423.31 55.15C1425.06 53.35 1427.26 52.45 1429.91 52.45C1433.11 52.45 1435.59 53.725 1437.34 56.275C1438.34 57.725 1439.41 59.875 1440.56 62.725C1442.41 60.075 1443.34 57.05 1443.34 53.65C1443.34 50.9 1442.51 48.425 1440.86 46.225C1439.26 43.975 1437.16 42.575 1434.56 42.025C1433.46 41.775 1432.91 41.125 1432.91 40.075C1432.91 39.375 1433.14 38.825 1433.59 38.425C1434.09 38.025 1434.69 37.9 1435.39 38.05C1439.04 38.9 1441.96 40.775 1444.16 43.675C1446.36 46.525 1447.46 49.85 1447.46 53.65C1447.46 58.8 1445.86 63.15 1442.66 66.7C1444.11 68.85 1446.56 70.725 1450.01 72.325C1450.81 72.675 1451.21 73.275 1451.21 74.125ZM1437.49 65.725C1436.89 64.225 1435.71 61.875 1433.96 58.675C1433.01 57.275 1431.66 56.575 1429.91 56.575C1428.36 56.575 1427.11 57.075 1426.16 58.075C1425.21 59.075 1424.74 60.35 1424.74 61.9C1424.74 63.75 1425.66 65.15 1427.51 66.1C1428.96 66.8 1430.71 67.15 1432.76 67.15C1434.46 67.15 1436.04 66.675 1437.49 65.725ZM1492.79 34.15C1492.89 38.05 1491.97 41.45 1490.02 44.35C1487.82 47.55 1484.82 49.15 1481.02 49.15C1477.22 49.15 1474.14 47.4 1471.79 43.9C1469.49 47.35 1466.37 49.075 1462.42 49.075C1458.77 49.075 1455.87 47.675 1453.72 44.875C1451.77 42.275 1450.79 39.1 1450.79 35.35C1450.79 28.7 1453.22 23.5 1458.07 19.75H1452.89C1451.39 19.75 1450.64 19 1450.64 17.5C1450.64 16 1451.39 15.25 1452.89 15.25H1483.72C1485.07 15.25 1486.14 14.8 1486.94 13.9C1487.74 13 1488.14 11.85 1488.14 10.45C1488.14 7.9 1487.14 5.9 1485.14 4.45C1484.54 4 1484.24 3.475 1484.24 2.875C1484.24 2.275 1484.49 1.75 1484.99 1.3C1485.49 0.799998 1486.04 0.549998 1486.64 0.549998C1487.14 0.549998 1487.64 0.749998 1488.14 1.15C1491.09 3.55 1492.57 6.625 1492.57 10.375C1492.57 12.825 1491.87 14.925 1490.47 16.675C1489.12 18.425 1487.27 19.425 1484.92 19.675C1486.17 20.925 1487.19 22.375 1487.99 24.025C1491.04 25.675 1492.64 29.05 1492.79 34.15ZM1484.62 29.8C1484.62 29.1 1484.49 28.275 1484.24 27.325C1483.94 27.275 1483.64 27.25 1483.34 27.25C1480.99 27.25 1479.77 28.525 1479.67 31.075C1479.62 32.175 1480.42 32.725 1482.07 32.725C1483.77 32.725 1484.62 31.75 1484.62 29.8ZM1488.29 33.175C1487.19 35.975 1485.14 37.375 1482.14 37.375C1480.24 37.375 1478.59 36.775 1477.19 35.575C1475.79 34.375 1475.12 32.825 1475.17 30.925C1475.27 28.825 1475.89 27.025 1477.04 25.525C1478.24 24.025 1479.87 23.125 1481.92 22.825C1479.77 20.775 1476.39 19.75 1471.79 19.75C1466.99 19.75 1463.04 21.175 1459.94 24.025C1456.84 26.825 1455.29 30.6 1455.29 35.35C1455.29 37.75 1455.82 39.825 1456.87 41.575C1458.12 43.575 1459.89 44.575 1462.19 44.575C1464.39 44.575 1466.19 43.7 1467.59 41.95C1468.89 40.35 1469.54 38.425 1469.54 36.175C1469.54 34.625 1470.29 33.85 1471.79 33.85C1473.29 33.85 1474.04 34.625 1474.04 36.175C1474.04 38.425 1474.62 40.325 1475.77 41.875C1477.07 43.625 1478.79 44.5 1480.94 44.5C1483.64 44.5 1485.64 43.2 1486.94 40.6C1488.04 38.5 1488.49 36.025 1488.29 33.175ZM1541.57 34.375C1541.57 38.275 1540.59 41.625 1538.64 44.425C1536.44 47.525 1533.47 49.075 1529.72 49.075C1525.92 49.075 1522.87 47.35 1520.57 43.9C1518.27 47.35 1515.07 49.075 1510.97 49.075C1507.47 49.075 1504.67 47.875 1502.57 45.475C1500.57 43.225 1499.57 40.325 1499.57 36.775C1499.57 33.175 1500.97 30.525 1503.77 28.825C1505.92 27.525 1508.07 27 1510.22 27.25C1511.32 27.4 1512.24 27.875 1512.99 28.675C1513.74 29.475 1514.12 30.4 1514.12 31.45C1514.12 32.55 1513.72 33.5 1512.92 34.3C1512.12 35.1 1511.17 35.5 1510.07 35.5C1508.07 35.5 1506.77 34.525 1506.17 32.575C1504.77 33.525 1504.07 34.925 1504.07 36.775C1504.07 38.975 1504.64 40.825 1505.79 42.325C1506.99 43.825 1508.64 44.575 1510.74 44.575C1513.04 44.575 1514.87 43.75 1516.22 42.1C1517.62 40.45 1518.32 38.475 1518.32 36.175C1518.32 34.625 1519.07 33.85 1520.57 33.85C1522.07 33.85 1522.82 34.625 1522.82 36.175C1522.82 38.375 1523.47 40.325 1524.77 42.025C1526.12 43.725 1527.87 44.575 1530.02 44.575C1532.47 44.575 1534.32 43.425 1535.57 41.125C1536.57 39.325 1537.07 37.075 1537.07 34.375C1537.07 29.925 1535.77 26.375 1533.17 23.725C1530.57 21.075 1527.04 19.75 1522.59 19.75H1501.82C1500.32 19.75 1499.57 19 1499.57 17.5C1499.57 16 1500.32 15.25 1501.82 15.25H1533.47V18.25C1538.87 21.7 1541.57 27.075 1541.57 34.375ZM1572.5 33.025C1572.5 37.325 1571.42 40.975 1569.27 43.975C1566.87 47.325 1563.6 49 1559.45 49C1556 49 1553.17 47.95 1550.97 45.85C1548.82 43.7 1547.75 40.9 1547.75 37.45C1547.75 34.65 1548.6 32.175 1550.3 30.025C1552.2 27.725 1554.5 26.625 1557.2 26.725C1558.5 26.775 1559.6 27.175 1560.5 27.925C1561.45 28.675 1561.92 29.675 1561.92 30.925C1561.92 32.025 1561.52 32.975 1560.72 33.775C1559.92 34.575 1558.97 34.975 1557.87 34.975C1556.12 34.975 1554.9 34.175 1554.2 32.575C1552.9 33.875 1552.25 35.5 1552.25 37.45C1552.25 39.65 1552.9 41.375 1554.2 42.625C1555.5 43.875 1557.25 44.5 1559.45 44.5C1562.25 44.5 1564.45 43.225 1566.05 40.675C1567.4 38.475 1568.07 35.9 1568.07 32.95C1568.07 29.25 1567 26.125 1564.85 23.575C1562.7 21.025 1559.8 19.75 1556.15 19.75H1525.4V15.25H1556.15C1561.15 15.25 1565.17 16.975 1568.22 20.425C1571.07 23.725 1572.5 27.925 1572.5 33.025ZM1618.11 32.125C1618.11 37.325 1616.93 42.5 1614.58 47.65C1614.18 48.55 1613.53 49 1612.63 49C1611.08 49 1610.31 48.275 1610.31 46.825C1610.31 46.525 1610.38 46.2 1610.53 45.85C1612.58 41.35 1613.61 36.775 1613.61 32.125C1613.61 28.075 1612.11 24.95 1609.11 22.75C1606.41 20.75 1602.96 19.75 1598.76 19.75C1594.31 19.75 1590.78 20.675 1588.18 22.525C1585.23 24.625 1583.76 27.825 1583.76 32.125C1583.76 34.775 1584.03 37.15 1584.58 39.25C1584.68 39.55 1585.13 40.85 1585.93 43.15C1586.53 44.85 1586.83 46.075 1586.83 46.825C1586.83 48.275 1586.06 49 1584.51 49C1583.46 49 1582.76 48.475 1582.41 47.425C1581.01 43.025 1580.23 40.55 1580.08 40C1579.53 37.8 1579.26 35.175 1579.26 32.125C1579.26 27.225 1580.63 23.35 1583.38 20.5C1582.13 18.9 1581.51 17.2 1581.51 15.4C1581.51 14.45 1581.71 13.475 1582.11 12.475C1584.11 7.375 1588.13 4.825 1594.18 4.825C1598.98 4.825 1603.36 6.475 1607.31 9.775C1611.26 13.025 1613.73 17 1614.73 21.7C1616.98 24.5 1618.11 27.975 1618.11 32.125ZM1607.83 16.9C1606.28 14.65 1604.28 12.825 1601.83 11.425C1599.38 10.025 1596.83 9.325 1594.18 9.325C1590.23 9.325 1587.61 10.925 1586.31 14.125C1585.76 15.425 1585.98 16.65 1586.98 17.8C1590.18 16.1 1594.11 15.25 1598.76 15.25C1602.11 15.25 1605.13 15.8 1607.83 16.9ZM1658.71 32.125C1658.71 36.825 1657.06 40.825 1653.76 44.125C1650.51 47.375 1646.54 49 1641.84 49C1637.14 49 1633.14 47.375 1629.84 44.125C1626.59 40.825 1624.96 36.825 1624.96 32.125C1624.96 27.225 1626.76 23.1 1630.36 19.75H1627.14C1625.64 19.75 1624.89 19 1624.89 17.5C1624.89 16 1625.64 15.25 1627.14 15.25H1649.71C1651.06 15.25 1652.14 14.8 1652.94 13.9C1653.74 13 1654.14 11.85 1654.14 10.45C1654.14 7.9 1653.14 5.9 1651.14 4.45C1650.54 4 1650.24 3.475 1650.24 2.875C1650.24 2.275 1650.49 1.75 1650.99 1.3C1651.49 0.799998 1652.04 0.549998 1652.64 0.549998C1653.14 0.549998 1653.64 0.749998 1654.14 1.15C1657.09 3.55 1658.56 6.625 1658.56 10.375C1658.56 14.925 1656.69 17.875 1652.94 19.225L1653.31 19.75C1656.91 23.1 1658.71 27.225 1658.71 32.125ZM1654.21 32.125C1654.21 28.725 1652.99 25.825 1650.54 23.425C1648.14 20.975 1645.24 19.75 1641.84 19.75C1638.44 19.75 1635.51 20.975 1633.06 23.425C1630.66 25.825 1629.46 28.725 1629.46 32.125C1629.46 35.525 1630.66 38.45 1633.06 40.9C1635.51 43.3 1638.44 44.5 1641.84 44.5C1645.24 44.5 1648.14 43.3 1650.54 40.9C1652.99 38.45 1654.21 35.525 1654.21 32.125ZM1682.19 32.125C1682.19 36.675 1681.06 40.525 1678.81 43.675C1676.26 47.225 1672.79 49 1668.39 49C1664.39 49 1661.01 47.675 1658.26 45.025C1655.46 42.325 1654.06 38.975 1654.06 34.975C1654.06 33.475 1654.81 32.725 1656.31 32.725C1657.81 32.725 1658.56 33.475 1658.56 34.975C1658.56 37.725 1659.51 40 1661.41 41.8C1663.31 43.6 1665.64 44.5 1668.39 44.5C1671.44 44.5 1673.81 43.15 1675.51 40.45C1677.01 38.1 1677.76 35.325 1677.76 32.125C1677.76 28.825 1676.96 26 1675.36 23.65C1673.51 21.05 1670.99 19.75 1667.79 19.75C1666.29 19.75 1665.54 19 1665.54 17.5C1665.54 16 1666.29 15.25 1667.79 15.25C1672.39 15.25 1675.99 16.975 1678.59 20.425C1680.99 23.525 1682.19 27.425 1682.19 32.125ZM1698.03 45.625C1698.03 46.525 1697.61 47.375 1696.76 48.175C1695.96 48.925 1695.11 49.3 1694.21 49.3C1693.21 49.3 1692.33 48.95 1691.58 48.25C1690.88 47.5 1690.53 46.625 1690.53 45.625C1690.53 44.575 1690.88 43.725 1691.58 43.075C1692.28 42.375 1693.16 42.025 1694.21 42.025C1695.21 42.025 1696.11 42.35 1696.91 43C1697.66 43.9 1698.03 44.775 1698.03 45.625Z" fill="black"/>
</svg>
