<svg width="2293" height="72" viewBox="0 0 2293 72" fill="none" xmlns="http://www.w3.org/2000/svg">
<path d="M49.925 44.575C45.925 44.575 42.4 43.775 39.35 42.175C36.3 40.575 33.9 38.025 32.15 34.525C30.5 37.875 28.225 40.4 25.325 42.1C22.475 43.75 18.9 44.575 14.6 44.575C10.5 44.575 7.175 43.8 4.625 42.25C2.125 40.7 0.875 38.325 0.875 35.125C0.875 31.975 2.05 29.65 4.4 28.15C6.8 26.65 9.825 25.9 13.475 25.9C15.075 25.9 16.525 26.025 17.825 26.275C19.125 26.475 20.175 26.75 20.975 27.1L20.6 28.675C18.5 27.925 16.125 27.55 13.475 27.55C10.275 27.55 7.65 28.15 5.6 29.35C3.55 30.55 2.525 32.4 2.525 34.9C2.525 37.6 3.675 39.575 5.975 40.825C8.275 42.075 11.175 42.7 14.675 42.7C18.975 42.7 22.45 41.825 25.1 40.075C27.75 38.325 29.8 35.8 31.25 32.5H33.05C34.55 35.7 36.65 38.2 39.35 40C42.1 41.8 45.625 42.7 49.925 42.7C54.075 42.7 57.375 41.825 59.825 40.075C62.325 38.325 63.575 35.7 63.575 32.2C63.575 28.95 62.475 26.2 60.275 23.95C58.075 21.65 54.925 19.8 50.825 18.4C46.775 17 41.95 16 36.35 15.4C30.75 14.75 24.525 14.425 17.675 14.425L17.825 12.925C33.425 12.925 45.225 14.45 53.225 17.5C61.225 20.5 65.225 25.4 65.225 32.2C65.225 36.25 63.85 39.325 61.1 41.425C58.4 43.525 54.675 44.575 49.925 44.575ZM151.972 12.625C156.872 12.625 160.947 13.1 164.197 14.05C167.497 14.95 170.122 16.2 172.072 17.8C174.022 19.4 175.422 21.25 176.272 23.35C177.122 25.45 177.547 27.675 177.547 30.025C177.597 34.425 176.297 37.95 173.647 40.6C171.047 43.25 167.347 44.575 162.547 44.575C158.497 44.575 155.297 43.725 152.947 42.025C150.647 40.325 149.497 38.075 149.497 35.275C149.497 32.475 150.522 30.3 152.572 28.75C154.672 27.2 157.522 26.425 161.122 26.425C162.972 26.425 164.197 26.675 164.797 27.175C165.397 27.675 165.697 28.3 165.697 29.05C165.697 30.65 164.497 31.45 162.097 31.45C160.997 31.45 160.147 31.25 159.547 30.85C158.947 30.4 158.647 29.85 158.647 29.2C158.647 28.8 158.747 28.425 158.947 28.075C156.147 28.325 154.147 29.125 152.947 30.475C151.747 31.775 151.147 33.375 151.147 35.275C151.147 37.375 152.097 39.15 153.997 40.6C155.897 42 158.747 42.7 162.547 42.7C166.847 42.7 170.147 41.575 172.447 39.325C174.797 37.025 175.947 33.925 175.897 30.025C175.897 26.875 175.097 24.125 173.497 21.775C171.947 19.375 169.472 17.525 166.072 16.225C162.672 14.925 158.197 14.275 152.647 14.275H131.872C135.322 15.475 138.047 17.225 140.047 19.525C142.097 21.825 143.122 24.525 143.122 27.625C143.122 31.125 141.772 34.15 139.072 36.7C136.422 39.25 132.647 41.2 127.747 42.55C122.847 43.9 117.072 44.575 110.422 44.575C104.122 44.575 98.4719 43.9 93.4719 42.55C88.5219 41.2 84.5969 39.175 81.6969 36.475C78.8469 33.775 77.4219 30.425 77.4219 26.425C77.4219 23.475 78.1969 20.9 79.7469 18.7C81.2969 16.5 83.3969 14.8 86.0469 13.6C88.6969 12.35 91.6719 11.725 94.9719 11.725C98.0719 11.725 100.647 12.325 102.697 13.525C104.797 14.675 105.847 16.425 105.847 18.775C105.847 21.075 104.772 22.85 102.622 24.1C100.522 25.35 97.7469 25.975 94.2969 25.975C92.0969 25.975 89.7219 25.675 87.1719 25.075C84.6219 24.475 82.1969 23.425 79.8969 21.925C79.3469 23.325 79.0719 24.8 79.0719 26.35C79.0719 29.85 80.3969 32.825 83.0469 35.275C85.7469 37.675 89.4719 39.525 94.2219 40.825C98.9719 42.075 104.422 42.7 110.572 42.7C116.872 42.7 122.322 42.1 126.922 40.9C131.572 39.65 135.147 37.9 137.647 35.65C140.197 33.35 141.472 30.625 141.472 27.475C141.472 24.975 140.722 22.825 139.222 21.025C137.772 19.175 135.772 17.7 133.222 16.6C130.672 15.45 127.772 14.675 124.522 14.275H122.347V12.625H151.972ZM95.0469 13.525C91.3969 13.525 88.3469 14.2 85.8969 15.55C83.4469 16.85 81.6469 18.525 80.4969 20.575C82.4469 21.825 84.6719 22.725 87.1719 23.275C89.6719 23.825 92.0969 24.1 94.4469 24.1C96.1969 24.1 97.7969 23.95 99.2469 23.65C100.747 23.3 101.947 22.75 102.847 22C103.747 21.2 104.197 20.125 104.197 18.775C104.197 16.975 103.347 15.65 101.647 14.8C99.9969 13.95 97.7969 13.525 95.0469 13.525ZM184.314 49.75C186.814 49.75 188.964 50.4 190.764 51.7C192.564 53.05 193.464 55.125 193.464 57.925C193.464 58.775 193.364 59.625 193.164 60.475C193.014 61.325 192.714 62.25 192.264 63.25L190.764 62.65C191.064 62.1 191.314 61.425 191.514 60.625C191.764 59.825 191.889 58.975 191.889 58.075C191.889 55.975 191.189 54.35 189.789 53.2C188.439 52.05 186.614 51.475 184.314 51.475C181.864 51.475 179.864 51.975 178.314 52.975C176.714 54.025 175.339 55.675 174.189 57.925H172.464C171.314 55.675 169.964 54.025 168.414 52.975C166.864 51.975 164.839 51.475 162.339 51.475C160.039 51.475 158.214 52.05 156.864 53.2C155.464 54.35 154.764 55.975 154.764 58.075C154.764 58.975 154.889 59.825 155.139 60.625C155.339 61.425 155.589 62.1 155.889 62.65L154.389 63.25C153.939 62.25 153.639 61.325 153.489 60.475C153.289 59.625 153.189 58.775 153.189 57.925C153.189 55.125 154.114 53.05 155.964 51.7C157.764 50.4 159.889 49.75 162.339 49.75C167.289 49.75 170.939 51.85 173.289 56.05C175.739 51.85 179.414 49.75 184.314 49.75ZM206.139 44.575C203.439 44.575 200.939 44.125 198.639 43.225C196.339 42.375 194.489 41.025 193.089 39.175C191.689 37.325 190.989 34.875 190.989 31.825C190.989 28.325 191.814 25.425 193.464 23.125C195.114 20.775 197.239 18.9 199.839 17.5C202.439 16.05 205.189 14.975 208.089 14.275H190.089V12.625H252.264C254.464 12.625 256.039 12.125 256.989 11.125C257.989 10.075 258.489 8.9 258.489 7.6C258.489 6.5 258.314 5.525 257.964 4.675C257.664 3.825 257.189 2.975 256.539 2.125L258.039 1.375C258.639 2.275 259.139 3.25 259.539 4.3C259.939 5.3 260.139 6.425 260.139 7.675C260.139 9.675 259.439 11.275 258.039 12.475C256.689 13.675 254.714 14.275 252.114 14.275H242.139C245.039 14.975 247.789 16.05 250.389 17.5C252.989 18.9 255.114 20.775 256.764 23.125C258.414 25.425 259.239 28.325 259.239 31.825C259.239 34.825 258.539 37.275 257.139 39.175C255.739 41.025 253.889 42.375 251.589 43.225C249.339 44.125 246.839 44.575 244.089 44.575C239.539 44.575 235.689 43.775 232.539 42.175C229.389 40.575 226.914 38.025 225.114 34.525C223.314 38.025 220.839 40.575 217.689 42.175C214.539 43.775 210.689 44.575 206.139 44.575ZM226.014 32.5C227.614 35.75 229.789 38.275 232.539 40.075C235.289 41.825 239.014 42.7 243.714 42.7C247.714 42.7 251.014 41.8 253.614 40C256.264 38.15 257.589 35.325 257.589 31.525C257.589 28.875 256.989 26.6 255.789 24.7C254.589 22.75 253.014 21.1 251.064 19.75C249.114 18.4 246.964 17.325 244.614 16.525C242.264 15.725 239.914 15.15 237.564 14.8C235.214 14.45 233.089 14.275 231.189 14.275H219.039C217.139 14.275 215.014 14.45 212.664 14.8C210.314 15.15 207.964 15.725 205.614 16.525C203.264 17.325 201.114 18.4 199.164 19.75C197.214 21.1 195.639 22.75 194.439 24.7C193.239 26.6 192.639 28.875 192.639 31.525C192.639 35.325 193.964 38.15 196.614 40C199.264 41.8 202.564 42.7 206.514 42.7C211.264 42.7 214.989 41.825 217.689 40.075C220.439 38.275 222.614 35.75 224.214 32.5H226.014ZM272.264 14.275V12.625H313.964C316.164 12.625 317.739 12.125 318.689 11.125C319.689 10.075 320.189 8.9 320.189 7.6C320.189 6.5 320.014 5.525 319.664 4.675C319.364 3.825 318.889 2.975 318.239 2.125L319.739 1.375C320.339 2.275 320.839 3.25 321.239 4.3C321.639 5.3 321.839 6.425 321.839 7.675C321.839 9.675 321.139 11.275 319.739 12.475C318.389 13.675 316.414 14.275 313.814 14.275H306.914C311.064 15.325 314.439 17.1 317.039 19.6C319.689 22.05 321.014 25.225 321.014 29.125C321.014 31.875 320.239 34.325 318.689 36.475C319.789 38.775 321.164 40.4 322.814 41.35C324.464 42.25 326.314 42.7 328.364 42.7C330.664 42.7 332.464 42.2 333.764 41.2C335.064 40.15 335.714 38.5 335.714 36.25C335.714 34.5 335.439 32.6 334.889 30.55C334.339 28.45 334.064 26.4 334.064 24.4C334.064 21.75 334.739 19.475 336.089 17.575C337.489 15.675 339.389 14.225 341.789 13.225C344.239 12.225 347.014 11.725 350.114 11.725C354.264 11.725 357.839 12.55 360.839 14.2C363.889 15.85 366.214 18.075 367.814 20.875C369.464 23.675 370.289 26.8 370.289 30.25C370.289 32.9 369.764 35.325 368.714 37.525C367.664 39.675 366.089 41.4 363.989 42.7C361.889 43.95 359.239 44.575 356.039 44.575C352.539 44.575 349.764 43.775 347.714 42.175C345.664 40.525 344.639 38.3 344.639 35.5C344.639 32.85 345.539 30.725 347.339 29.125C349.139 27.525 351.589 26.725 354.689 26.725C356.439 26.725 357.614 26.975 358.214 27.475C358.814 27.975 359.114 28.575 359.114 29.275C359.114 30.925 357.964 31.75 355.664 31.75C354.464 31.75 353.564 31.55 352.964 31.15C352.364 30.7 352.064 30.15 352.064 29.5C352.064 29.15 352.164 28.8 352.364 28.45C350.514 28.75 349.039 29.575 347.939 30.925C346.839 32.225 346.289 33.775 346.289 35.575C346.289 37.875 347.164 39.65 348.914 40.9C350.664 42.1 353.064 42.7 356.114 42.7C359.364 42.7 361.889 42.075 363.689 40.825C365.539 39.525 366.814 37.9 367.514 35.95C368.264 34 368.639 32.05 368.639 30.1C368.639 26.95 367.889 24.125 366.389 21.625C364.939 19.125 362.814 17.15 360.014 15.7C357.264 14.25 353.939 13.525 350.039 13.525C345.789 13.525 342.339 14.475 339.689 16.375C337.039 18.225 335.714 21.05 335.714 24.85C335.714 26.85 335.989 28.75 336.539 30.55C337.089 32.35 337.364 34.2 337.364 36.1C337.364 38.75 336.564 40.825 334.964 42.325C333.414 43.825 331.189 44.575 328.289 44.575C323.339 44.575 319.789 42.275 317.639 37.675C315.689 39.875 312.939 41.575 309.389 42.775C305.839 43.975 301.739 44.575 297.089 44.575C292.339 44.575 288.164 43.95 284.564 42.7C280.964 41.45 278.164 39.675 276.164 37.375C274.164 35.025 273.164 32.275 273.164 29.125C273.164 25.225 274.464 22.05 277.064 19.6C279.714 17.1 283.114 15.325 287.264 14.275H272.264ZM297.089 42.7C304.039 42.7 309.464 41.45 313.364 38.95C317.314 36.4 319.289 33.025 319.289 28.825C319.289 25.775 318.289 23.175 316.289 21.025C314.289 18.875 311.614 17.225 308.264 16.075C304.914 14.875 301.189 14.275 297.089 14.275C292.989 14.275 289.264 14.875 285.914 16.075C282.564 17.225 279.889 18.875 277.889 21.025C275.889 23.175 274.889 25.775 274.889 28.825C274.889 33.025 276.839 36.4 280.739 38.95C284.689 41.45 290.139 42.7 297.089 42.7ZM468.258 25.225C468.258 28.225 467.583 30.875 466.233 33.175C464.883 35.475 463.058 37.425 460.758 39.025C458.458 40.575 455.908 41.825 453.108 42.775C453.358 43.775 453.533 44.825 453.633 45.925C453.783 47.075 453.858 48.3 453.858 49.6V50.35L452.058 50.5V49.75C452.058 47.3 451.833 45.175 451.383 43.375C449.033 44.075 446.583 44.6 444.033 44.95C441.483 45.3 439.033 45.475 436.683 45.475C431.783 45.475 428.008 44.875 425.358 43.675C422.758 42.475 421.458 40.575 421.458 37.975C421.458 35.425 422.658 33.6 425.058 32.5C427.458 31.35 430.633 30.775 434.583 30.775C439.033 30.775 442.808 31.6 445.908 33.25C449.058 34.85 451.283 37.5 452.583 41.2C455.233 40.3 457.608 39.125 459.708 37.675C461.858 36.225 463.533 34.475 464.733 32.425C465.983 30.375 466.608 28 466.608 25.3C466.608 21.55 465.408 18.675 463.008 16.675C460.658 14.625 457.258 13.6 452.808 13.6C448.508 13.6 445.033 14.475 442.383 16.225C439.733 17.975 437.608 20.5 436.008 23.8H434.208C432.658 20.55 430.558 18.05 427.908 16.3C425.308 14.5 421.858 13.6 417.558 13.6C413.458 13.6 410.108 14.475 407.508 16.225C404.908 17.975 403.608 20.85 403.608 24.85C403.608 27 404.183 29.275 405.333 31.675L403.758 32.2C402.558 29.85 401.958 27.3 401.958 24.55C401.958 21.45 402.683 18.975 404.133 17.125C405.583 15.225 407.483 13.85 409.833 13C412.233 12.15 414.758 11.725 417.408 11.725C421.408 11.725 424.883 12.55 427.833 14.2C430.833 15.8 433.258 18.325 435.108 21.775C437.008 18.275 439.433 15.725 442.383 14.125C445.383 12.525 448.883 11.725 452.883 11.725C455.733 11.725 458.308 12.225 460.608 13.225C462.958 14.175 464.808 15.65 466.158 17.65C467.558 19.6 468.258 22.125 468.258 25.225ZM436.308 43.675C438.758 43.675 441.233 43.5 443.733 43.15C446.233 42.85 448.633 42.375 450.933 41.725C449.833 38.375 447.883 36 445.083 34.6C442.283 33.15 438.683 32.425 434.283 32.425C430.783 32.425 428.033 32.875 426.033 33.775C424.083 34.625 423.108 36 423.108 37.9C423.108 39.4 423.683 40.575 424.833 41.425C426.033 42.225 427.633 42.8 429.633 43.15C431.633 43.5 433.858 43.675 436.308 43.675ZM480.271 14.275V12.625H521.971C524.171 12.625 525.746 12.125 526.696 11.125C527.696 10.075 528.196 8.9 528.196 7.6C528.196 6.5 528.021 5.525 527.671 4.675C527.371 3.825 526.896 2.975 526.246 2.125L527.746 1.375C528.346 2.275 528.846 3.25 529.246 4.3C529.646 5.3 529.846 6.425 529.846 7.675C529.846 9.675 529.146 11.275 527.746 12.475C526.396 13.675 524.421 14.275 521.821 14.275H514.921C519.071 15.325 522.446 17.1 525.046 19.6C527.696 22.05 529.021 25.225 529.021 29.125C529.021 31.775 528.271 34.175 526.771 36.325C530.271 40.575 535.096 42.7 541.246 42.7C546.096 42.7 549.796 41.5 552.346 39.1C554.896 36.65 556.171 33.375 556.171 29.275C556.171 25.925 555.271 23.05 553.471 20.65C551.671 18.25 548.896 16.325 545.146 14.875L546.046 13.375C553.896 16.675 557.821 22 557.821 29.35C557.821 33.95 556.371 37.65 553.471 40.45C550.621 43.2 546.596 44.575 541.396 44.575C537.846 44.575 534.771 43.95 532.171 42.7C529.571 41.4 527.421 39.725 525.721 37.675C523.721 39.875 520.946 41.575 517.396 42.775C513.846 43.975 509.746 44.575 505.096 44.575C500.346 44.575 496.171 43.95 492.571 42.7C488.971 41.45 486.171 39.675 484.171 37.375C482.171 35.025 481.171 32.275 481.171 29.125C481.171 25.225 482.471 22.05 485.071 19.6C487.721 17.1 491.121 15.325 495.271 14.275H480.271ZM505.096 42.7C512.046 42.7 517.471 41.45 521.371 38.95C525.321 36.4 527.296 33.025 527.296 28.825C527.296 25.775 526.296 23.175 524.296 21.025C522.296 18.875 519.621 17.225 516.271 16.075C512.921 14.875 509.196 14.275 505.096 14.275C500.996 14.275 497.271 14.875 493.921 16.075C490.571 17.225 487.896 18.875 485.896 21.025C483.896 23.175 482.896 25.775 482.896 28.825C482.896 33.025 484.846 36.4 488.746 38.95C492.696 41.45 498.146 42.7 505.096 42.7ZM638.426 44.575C634.426 44.575 630.901 43.775 627.851 42.175C624.801 40.575 622.401 38.025 620.651 34.525C619.001 37.875 616.726 40.4 613.826 42.1C610.976 43.75 607.401 44.575 603.101 44.575C599.001 44.575 595.676 43.8 593.126 42.25C590.626 40.7 589.376 38.325 589.376 35.125C589.376 31.975 590.551 29.65 592.901 28.15C595.301 26.65 598.326 25.9 601.976 25.9C603.576 25.9 605.026 26.025 606.326 26.275C607.626 26.475 608.676 26.75 609.476 27.1L609.101 28.675C607.001 27.925 604.626 27.55 601.976 27.55C598.776 27.55 596.151 28.15 594.101 29.35C592.051 30.55 591.026 32.4 591.026 34.9C591.026 37.6 592.176 39.575 594.476 40.825C596.776 42.075 599.676 42.7 603.176 42.7C607.476 42.7 610.951 41.825 613.601 40.075C616.251 38.325 618.301 35.8 619.751 32.5H621.551C623.051 35.7 625.151 38.2 627.851 40C630.601 41.8 634.126 42.7 638.426 42.7C642.576 42.7 645.876 41.825 648.326 40.075C650.826 38.325 652.076 35.7 652.076 32.2C652.076 28.95 650.976 26.2 648.776 23.95C646.576 21.65 643.426 19.8 639.326 18.4C635.276 17 630.451 16 624.851 15.4C619.251 14.75 613.026 14.425 606.176 14.425L606.326 12.925C621.926 12.925 633.726 14.45 641.726 17.5C649.726 20.5 653.726 25.4 653.726 32.2C653.726 36.25 652.351 39.325 649.601 41.425C646.901 43.525 643.176 44.575 638.426 44.575ZM689.698 11.725C693.898 11.725 697.748 12.325 701.248 13.525C704.798 14.725 707.623 16.55 709.723 19C711.823 21.4 712.873 24.45 712.873 28.15C712.873 31.85 711.823 34.925 709.723 37.375C707.623 39.775 704.798 41.575 701.248 42.775C697.748 43.975 693.898 44.575 689.698 44.575C685.498 44.575 681.648 43.975 678.148 42.775C674.648 41.575 671.823 39.775 669.673 37.375C667.573 34.925 666.523 31.85 666.523 28.15C666.523 24.45 667.573 21.4 669.673 19C671.823 16.55 674.648 14.725 678.148 13.525C681.648 12.325 685.498 11.725 689.698 11.725ZM689.698 13.45C685.648 13.45 681.998 14 678.748 15.1C675.498 16.2 672.923 17.825 671.023 19.975C669.123 22.125 668.173 24.825 668.173 28.075C668.173 31.275 669.123 33.975 671.023 36.175C672.923 38.325 675.498 39.95 678.748 41.05C681.998 42.15 685.648 42.7 689.698 42.7C693.748 42.7 697.398 42.15 700.648 41.05C703.898 39.95 706.473 38.325 708.373 36.175C710.273 33.975 711.223 31.275 711.223 28.075C711.223 24.825 710.273 22.125 708.373 19.975C706.473 17.825 703.898 16.2 700.648 15.1C697.398 14 693.748 13.45 689.698 13.45ZM722.054 14.275V12.625H764.579V14.275H759.404C760.804 15.075 761.979 16.025 762.929 17.125C763.929 18.225 764.579 19.475 764.879 20.875C768.829 21.625 771.804 22.975 773.804 24.925C775.854 26.875 776.879 29.275 776.879 32.125C776.879 36.175 774.829 39.275 770.729 41.425C766.629 43.525 760.579 44.575 752.579 44.575C745.979 44.575 740.129 43.825 735.029 42.325C729.979 40.825 725.229 38.7 720.779 35.95L721.304 34.525C724.604 36.275 727.804 37.775 730.904 39.025C734.004 40.225 737.279 41.15 740.729 41.8C744.229 42.4 748.129 42.7 752.429 42.7C759.879 42.7 765.529 41.825 769.379 40.075C773.279 38.275 775.229 35.6 775.229 32.05C775.229 29.8 774.379 27.875 772.679 26.275C771.029 24.625 768.479 23.425 765.029 22.675C765.029 24.375 764.854 25.85 764.504 27.1C764.154 28.3 763.454 29.4 762.404 30.4C761.304 31.45 759.854 32.3 758.054 32.95C756.254 33.55 753.954 33.85 751.154 33.85C748.004 33.85 745.504 33.375 743.654 32.425C741.804 31.425 740.879 29.8 740.879 27.55C740.879 24.9 742.204 23 744.854 21.85C747.554 20.7 751.479 20.125 756.629 20.125C759.029 20.125 761.229 20.275 763.229 20.575C762.779 18.925 761.929 17.625 760.679 16.675C759.479 15.675 758.079 14.875 756.479 14.275H722.054ZM742.529 27.4C742.529 29.25 743.379 30.5 745.079 31.15C746.829 31.75 748.854 32.05 751.154 32.05C753.704 32.05 755.779 31.8 757.379 31.3C759.029 30.75 760.304 30.05 761.204 29.2C761.904 28.5 762.454 27.7 762.854 26.8C763.254 25.85 763.454 24.4 763.454 22.45C761.354 22.1 759.004 21.925 756.404 21.925C751.554 21.925 748.029 22.375 745.829 23.275C743.629 24.125 742.529 25.5 742.529 27.4ZM785.729 12.625C790.629 12.625 794.704 13.1 797.954 14.05C801.254 14.95 803.879 16.2 805.829 17.8C807.779 19.4 809.179 21.25 810.029 23.35C810.879 25.45 811.304 27.675 811.304 30.025C811.354 34.425 810.054 37.95 807.404 40.6C804.804 43.25 801.104 44.575 796.304 44.575C792.254 44.575 789.054 43.725 786.704 42.025C784.404 40.325 783.254 38.075 783.254 35.275C783.254 32.475 784.279 30.3 786.329 28.75C788.429 27.2 791.279 26.425 794.879 26.425C796.729 26.425 797.954 26.675 798.554 27.175C799.154 27.675 799.454 28.3 799.454 29.05C799.454 30.65 798.254 31.45 795.854 31.45C794.754 31.45 793.904 31.25 793.304 30.85C792.704 30.4 792.404 29.85 792.404 29.2C792.404 28.8 792.504 28.425 792.704 28.075C789.904 28.325 787.904 29.125 786.704 30.475C785.504 31.775 784.904 33.375 784.904 35.275C784.904 37.375 785.854 39.15 787.754 40.6C789.654 42 792.504 42.7 796.304 42.7C800.604 42.7 803.904 41.575 806.204 39.325C808.554 37.025 809.704 33.925 809.654 30.025C809.654 26.875 808.854 24.125 807.254 21.775C805.704 19.375 803.229 17.525 799.829 16.225C796.429 14.925 791.954 14.275 786.404 14.275H757.379V12.625H785.729ZM839.904 44.575C837.204 44.575 834.704 44.125 832.404 43.225C830.104 42.375 828.254 41.025 826.854 39.175C825.454 37.325 824.754 34.875 824.754 31.825C824.754 28.325 825.579 25.425 827.229 23.125C828.879 20.775 831.004 18.9 833.604 17.5C836.204 16.05 838.954 14.975 841.854 14.275H823.854V12.625H886.029C888.229 12.625 889.804 12.125 890.754 11.125C891.754 10.075 892.254 8.9 892.254 7.6C892.254 6.5 892.079 5.525 891.729 4.675C891.429 3.825 890.954 2.975 890.304 2.125L891.804 1.375C892.404 2.275 892.904 3.25 893.304 4.3C893.704 5.3 893.904 6.425 893.904 7.675C893.904 9.675 893.204 11.275 891.804 12.475C890.454 13.675 888.479 14.275 885.879 14.275H875.904C878.804 14.975 881.554 16.05 884.154 17.5C886.754 18.9 888.879 20.775 890.529 23.125C892.179 25.425 893.004 28.325 893.004 31.825C893.004 34.825 892.304 37.275 890.904 39.175C889.504 41.025 887.654 42.375 885.354 43.225C883.104 44.125 880.604 44.575 877.854 44.575C873.304 44.575 869.454 43.775 866.304 42.175C863.154 40.575 860.679 38.025 858.879 34.525C857.079 38.025 854.604 40.575 851.454 42.175C848.304 43.775 844.454 44.575 839.904 44.575ZM859.779 32.5C861.379 35.75 863.554 38.275 866.304 40.075C869.054 41.825 872.779 42.7 877.479 42.7C881.479 42.7 884.779 41.8 887.379 40C890.029 38.15 891.354 35.325 891.354 31.525C891.354 28.875 890.754 26.6 889.554 24.7C888.354 22.75 886.779 21.1 884.829 19.75C882.879 18.4 880.729 17.325 878.379 16.525C876.029 15.725 873.679 15.15 871.329 14.8C868.979 14.45 866.854 14.275 864.954 14.275H852.804C850.904 14.275 848.779 14.45 846.429 14.8C844.079 15.15 841.729 15.725 839.379 16.525C837.029 17.325 834.879 18.4 832.929 19.75C830.979 21.1 829.404 22.75 828.204 24.7C827.004 26.6 826.404 28.875 826.404 31.525C826.404 35.325 827.729 38.15 830.379 40C833.029 41.8 836.329 42.7 840.279 42.7C845.029 42.7 848.754 41.825 851.454 40.075C854.204 38.275 856.379 35.75 857.979 32.5H859.779ZM906.028 14.275V12.625H947.728C949.928 12.625 951.503 12.125 952.453 11.125C953.453 10.075 953.953 8.9 953.953 7.6C953.953 6.5 953.778 5.525 953.428 4.675C953.128 3.825 952.653 2.975 952.003 2.125L953.503 1.375C954.103 2.275 954.603 3.25 955.003 4.3C955.403 5.3 955.603 6.425 955.603 7.675C955.603 9.675 954.903 11.275 953.503 12.475C952.153 13.675 950.178 14.275 947.578 14.275H940.678C944.828 15.325 948.203 17.1 950.803 19.6C953.453 22.05 954.778 25.225 954.778 29.125C954.778 31.775 954.028 34.175 952.528 36.325C956.028 40.575 960.853 42.7 967.003 42.7C971.853 42.7 975.553 41.5 978.103 39.1C980.653 36.65 981.928 33.375 981.928 29.275C981.928 25.925 981.028 23.05 979.228 20.65C977.428 18.25 974.653 16.325 970.903 14.875L971.803 13.375C979.653 16.675 983.578 22 983.578 29.35C983.578 33.95 982.128 37.65 979.228 40.45C976.378 43.2 972.353 44.575 967.153 44.575C963.603 44.575 960.528 43.95 957.928 42.7C955.328 41.4 953.178 39.725 951.478 37.675C949.478 39.875 946.703 41.575 943.153 42.775C939.603 43.975 935.503 44.575 930.853 44.575C926.103 44.575 921.928 43.95 918.328 42.7C914.728 41.45 911.928 39.675 909.928 37.375C907.928 35.025 906.928 32.275 906.928 29.125C906.928 25.225 908.228 22.05 910.828 19.6C913.478 17.1 916.878 15.325 921.028 14.275H906.028ZM930.853 42.7C937.803 42.7 943.228 41.45 947.128 38.95C951.078 36.4 953.053 33.025 953.053 28.825C953.053 25.775 952.053 23.175 950.053 21.025C948.053 18.875 945.378 17.225 942.028 16.075C938.678 14.875 934.953 14.275 930.853 14.275C926.753 14.275 923.028 14.875 919.678 16.075C916.328 17.225 913.653 18.875 911.653 21.025C909.653 23.175 908.653 25.775 908.653 28.825C908.653 33.025 910.603 36.4 914.503 38.95C918.453 41.45 923.903 42.7 930.853 42.7ZM1081.81 25.225C1081.81 28.225 1081.13 30.875 1079.78 33.175C1078.43 35.475 1076.61 37.425 1074.31 39.025C1072.01 40.575 1069.46 41.825 1066.66 42.775C1066.91 43.775 1067.08 44.825 1067.18 45.925C1067.33 47.075 1067.41 48.3 1067.41 49.6V50.35L1065.61 50.5V49.75C1065.61 47.3 1065.38 45.175 1064.93 43.375C1062.58 44.075 1060.13 44.6 1057.58 44.95C1055.03 45.3 1052.58 45.475 1050.23 45.475C1045.33 45.475 1041.56 44.875 1038.91 43.675C1036.31 42.475 1035.01 40.575 1035.01 37.975C1035.01 35.425 1036.21 33.6 1038.61 32.5C1041.01 31.35 1044.18 30.775 1048.13 30.775C1052.58 30.775 1056.36 31.6 1059.46 33.25C1062.61 34.85 1064.83 37.5 1066.13 41.2C1068.78 40.3 1071.16 39.125 1073.26 37.675C1075.41 36.225 1077.08 34.475 1078.28 32.425C1079.53 30.375 1080.16 28 1080.16 25.3C1080.16 21.55 1078.96 18.675 1076.56 16.675C1074.21 14.625 1070.81 13.6 1066.36 13.6C1062.06 13.6 1058.58 14.475 1055.93 16.225C1053.28 17.975 1051.16 20.5 1049.56 23.8H1047.76C1046.21 20.55 1044.11 18.05 1041.46 16.3C1038.86 14.5 1035.41 13.6 1031.11 13.6C1027.01 13.6 1023.66 14.475 1021.06 16.225C1018.46 17.975 1017.16 20.85 1017.16 24.85C1017.16 27 1017.73 29.275 1018.88 31.675L1017.31 32.2C1016.11 29.85 1015.51 27.3 1015.51 24.55C1015.51 21.45 1016.23 18.975 1017.68 17.125C1019.13 15.225 1021.03 13.85 1023.38 13C1025.78 12.15 1028.31 11.725 1030.96 11.725C1034.96 11.725 1038.43 12.55 1041.38 14.2C1044.38 15.8 1046.81 18.325 1048.66 21.775C1050.56 18.275 1052.98 15.725 1055.93 14.125C1058.93 12.525 1062.43 11.725 1066.43 11.725C1069.28 11.725 1071.86 12.225 1074.16 13.225C1076.51 14.175 1078.36 15.65 1079.71 17.65C1081.11 19.6 1081.81 22.125 1081.81 25.225ZM1049.86 43.675C1052.31 43.675 1054.78 43.5 1057.28 43.15C1059.78 42.85 1062.18 42.375 1064.48 41.725C1063.38 38.375 1061.43 36 1058.63 34.6C1055.83 33.15 1052.23 32.425 1047.83 32.425C1044.33 32.425 1041.58 32.875 1039.58 33.775C1037.63 34.625 1036.66 36 1036.66 37.9C1036.66 39.4 1037.23 40.575 1038.38 41.425C1039.58 42.225 1041.18 42.8 1043.18 43.15C1045.18 43.5 1047.41 43.675 1049.86 43.675ZM1093.82 14.275V12.625H1135.52C1137.72 12.625 1139.3 12.125 1140.25 11.125C1141.25 10.075 1141.75 8.9 1141.75 7.6C1141.75 6.5 1141.57 5.525 1141.22 4.675C1140.92 3.825 1140.45 2.975 1139.8 2.125L1141.3 1.375C1141.9 2.275 1142.4 3.25 1142.8 4.3C1143.2 5.3 1143.4 6.425 1143.4 7.675C1143.4 9.675 1142.7 11.275 1141.3 12.475C1139.95 13.675 1137.97 14.275 1135.37 14.275H1128.47C1132.62 15.325 1136 17.1 1138.6 19.6C1141.25 22.05 1142.57 25.225 1142.57 29.125C1142.57 31.775 1141.82 34.175 1140.32 36.325C1143.82 40.575 1148.65 42.7 1154.8 42.7C1159.65 42.7 1163.35 41.5 1165.9 39.1C1168.45 36.65 1169.72 33.375 1169.72 29.275C1169.72 25.925 1168.82 23.05 1167.02 20.65C1165.22 18.25 1162.45 16.325 1158.7 14.875L1159.6 13.375C1167.45 16.675 1171.37 22 1171.37 29.35C1171.37 33.95 1169.92 37.65 1167.02 40.45C1164.17 43.2 1160.15 44.575 1154.95 44.575C1151.4 44.575 1148.32 43.95 1145.72 42.7C1143.12 41.4 1140.97 39.725 1139.27 37.675C1137.27 39.875 1134.5 41.575 1130.95 42.775C1127.4 43.975 1123.3 44.575 1118.65 44.575C1113.9 44.575 1109.72 43.95 1106.12 42.7C1102.52 41.45 1099.72 39.675 1097.72 37.375C1095.72 35.025 1094.72 32.275 1094.72 29.125C1094.72 25.225 1096.02 22.05 1098.62 19.6C1101.27 17.1 1104.67 15.325 1108.82 14.275H1093.82ZM1118.65 42.7C1125.6 42.7 1131.02 41.45 1134.92 38.95C1138.87 36.4 1140.85 33.025 1140.85 28.825C1140.85 25.775 1139.85 23.175 1137.85 21.025C1135.85 18.875 1133.17 17.225 1129.82 16.075C1126.47 14.875 1122.75 14.275 1118.65 14.275C1114.55 14.275 1110.82 14.875 1107.47 16.075C1104.12 17.225 1101.45 18.875 1099.45 21.025C1097.45 23.175 1096.45 25.775 1096.45 28.825C1096.45 33.025 1098.4 36.4 1102.3 38.95C1106.25 41.45 1111.7 42.7 1118.65 42.7ZM1251.98 44.575C1247.98 44.575 1244.45 43.775 1241.4 42.175C1238.35 40.575 1235.95 38.025 1234.2 34.525C1232.55 37.875 1230.28 40.4 1227.38 42.1C1224.53 43.75 1220.95 44.575 1216.65 44.575C1212.55 44.575 1209.23 43.8 1206.68 42.25C1204.18 40.7 1202.93 38.325 1202.93 35.125C1202.93 31.975 1204.1 29.65 1206.45 28.15C1208.85 26.65 1211.88 25.9 1215.53 25.9C1217.13 25.9 1218.58 26.025 1219.88 26.275C1221.18 26.475 1222.23 26.75 1223.03 27.1L1222.65 28.675C1220.55 27.925 1218.18 27.55 1215.53 27.55C1212.33 27.55 1209.7 28.15 1207.65 29.35C1205.6 30.55 1204.58 32.4 1204.58 34.9C1204.58 37.6 1205.73 39.575 1208.03 40.825C1210.33 42.075 1213.23 42.7 1216.73 42.7C1221.03 42.7 1224.5 41.825 1227.15 40.075C1229.8 38.325 1231.85 35.8 1233.3 32.5H1235.1C1236.6 35.7 1238.7 38.2 1241.4 40C1244.15 41.8 1247.68 42.7 1251.98 42.7C1256.13 42.7 1259.43 41.825 1261.88 40.075C1264.38 38.325 1265.63 35.7 1265.63 32.2C1265.63 28.95 1264.53 26.2 1262.33 23.95C1260.13 21.65 1256.98 19.8 1252.88 18.4C1248.83 17 1244 16 1238.4 15.4C1232.8 14.75 1226.58 14.425 1219.73 14.425L1219.88 12.925C1235.48 12.925 1247.28 14.45 1255.28 17.5C1263.28 20.5 1267.28 25.4 1267.28 32.2C1267.28 36.25 1265.9 39.325 1263.15 41.425C1260.45 43.525 1256.73 44.575 1251.98 44.575ZM1303.25 11.725C1307.45 11.725 1311.3 12.325 1314.8 13.525C1318.35 14.725 1321.17 16.55 1323.27 19C1325.37 21.4 1326.42 24.45 1326.42 28.15C1326.42 31.85 1325.37 34.925 1323.27 37.375C1321.17 39.775 1318.35 41.575 1314.8 42.775C1311.3 43.975 1307.45 44.575 1303.25 44.575C1299.05 44.575 1295.2 43.975 1291.7 42.775C1288.2 41.575 1285.37 39.775 1283.22 37.375C1281.12 34.925 1280.07 31.85 1280.07 28.15C1280.07 24.45 1281.12 21.4 1283.22 19C1285.37 16.55 1288.2 14.725 1291.7 13.525C1295.2 12.325 1299.05 11.725 1303.25 11.725ZM1303.25 13.45C1299.2 13.45 1295.55 14 1292.3 15.1C1289.05 16.2 1286.47 17.825 1284.57 19.975C1282.67 22.125 1281.72 24.825 1281.72 28.075C1281.72 31.275 1282.67 33.975 1284.57 36.175C1286.47 38.325 1289.05 39.95 1292.3 41.05C1295.55 42.15 1299.2 42.7 1303.25 42.7C1307.3 42.7 1310.95 42.15 1314.2 41.05C1317.45 39.95 1320.02 38.325 1321.92 36.175C1323.82 33.975 1324.77 31.275 1324.77 28.075C1324.77 24.825 1323.82 22.125 1321.92 19.975C1320.02 17.825 1317.45 16.2 1314.2 15.1C1310.95 14 1307.3 13.45 1303.25 13.45ZM1354.5 44.575C1351.8 44.575 1349.3 44.125 1347 43.225C1344.7 42.375 1342.85 41.025 1341.45 39.175C1340.05 37.325 1339.35 34.875 1339.35 31.825C1339.35 28.325 1340.18 25.425 1341.83 23.125C1343.48 20.775 1345.6 18.9 1348.2 17.5C1350.8 16.05 1353.55 14.975 1356.45 14.275H1338.45V12.625H1400.33C1404.68 12.625 1406.85 11 1406.85 7.75C1406.85 6 1406.25 4.65 1405.05 3.7C1403.85 2.75 1402.08 2.275 1399.73 2.275C1398.38 2.275 1397.2 2.425 1396.2 2.725C1396.8 3.225 1397.1 3.825 1397.1 4.525C1397.1 6.125 1395.98 6.925 1393.73 6.925C1391.58 6.925 1390.5 6.125 1390.5 4.525C1390.5 3.325 1391.28 2.45 1392.83 1.9C1393.53 1.65 1394.53 1.4 1395.83 1.15C1397.18 0.899998 1398.48 0.774998 1399.73 0.774998C1402.53 0.774998 1404.68 1.4 1406.18 2.65C1407.73 3.85 1408.5 5.575 1408.5 7.825C1408.5 12.125 1405.78 14.275 1400.33 14.275H1390.5C1393.4 14.975 1396.15 16.05 1398.75 17.5C1401.35 18.9 1403.48 20.775 1405.13 23.125C1406.78 25.425 1407.6 28.325 1407.6 31.825C1407.6 34.825 1406.9 37.275 1405.5 39.175C1404.1 41.025 1402.25 42.375 1399.95 43.225C1397.7 44.125 1395.2 44.575 1392.45 44.575C1387.9 44.575 1384.05 43.775 1380.9 42.175C1377.75 40.575 1375.28 38.025 1373.48 34.525C1371.68 38.025 1369.2 40.575 1366.05 42.175C1362.9 43.775 1359.05 44.575 1354.5 44.575ZM1374.38 32.5C1375.98 35.75 1378.15 38.275 1380.9 40.075C1383.65 41.825 1387.38 42.7 1392.08 42.7C1396.08 42.7 1399.38 41.8 1401.98 40C1404.63 38.15 1405.95 35.325 1405.95 31.525C1405.95 28.875 1405.35 26.6 1404.15 24.7C1402.95 22.75 1401.38 21.1 1399.43 19.75C1397.48 18.4 1395.33 17.325 1392.98 16.525C1390.63 15.725 1388.28 15.15 1385.93 14.8C1383.58 14.45 1381.45 14.275 1379.55 14.275H1367.4C1365.5 14.275 1363.38 14.45 1361.03 14.8C1358.68 15.15 1356.33 15.725 1353.98 16.525C1351.63 17.325 1349.48 18.4 1347.53 19.75C1345.58 21.1 1344 22.75 1342.8 24.7C1341.6 26.6 1341 28.875 1341 31.525C1341 35.325 1342.33 38.15 1344.98 40C1347.63 41.8 1350.93 42.7 1354.88 42.7C1359.63 42.7 1363.35 41.825 1366.05 40.075C1368.8 38.275 1370.98 35.75 1372.58 32.5H1374.38ZM1443.65 11.725C1447.85 11.725 1451.7 12.325 1455.2 13.525C1458.75 14.725 1461.58 16.55 1463.68 19C1465.78 21.4 1466.83 24.45 1466.83 28.15C1466.83 31.85 1465.78 34.925 1463.68 37.375C1461.58 39.775 1458.75 41.575 1455.2 42.775C1451.7 43.975 1447.85 44.575 1443.65 44.575C1439.45 44.575 1435.6 43.975 1432.1 42.775C1428.6 41.575 1425.78 39.775 1423.63 37.375C1421.53 34.925 1420.48 31.85 1420.48 28.15C1420.48 24.45 1421.53 21.4 1423.63 19C1425.78 16.55 1428.6 14.725 1432.1 13.525C1435.6 12.325 1439.45 11.725 1443.65 11.725ZM1443.65 13.45C1439.6 13.45 1435.95 14 1432.7 15.1C1429.45 16.2 1426.88 17.825 1424.98 19.975C1423.08 22.125 1422.13 24.825 1422.13 28.075C1422.13 31.275 1423.08 33.975 1424.98 36.175C1426.88 38.325 1429.45 39.95 1432.7 41.05C1435.95 42.15 1439.6 42.7 1443.65 42.7C1447.7 42.7 1451.35 42.15 1454.6 41.05C1457.85 39.95 1460.43 38.325 1462.33 36.175C1464.23 33.975 1465.18 31.275 1465.18 28.075C1465.18 24.825 1464.23 22.125 1462.33 19.975C1460.43 17.825 1457.85 16.2 1454.6 15.1C1451.35 14 1447.7 13.45 1443.65 13.45ZM1495.28 44.575C1492.58 44.575 1490.06 44.15 1487.71 43.3C1485.36 42.45 1483.46 41.1 1482.01 39.25C1480.56 37.35 1479.83 34.875 1479.83 31.825C1479.83 29.325 1480.33 27.1 1481.33 25.15C1482.33 23.2 1483.71 21.5 1485.46 20.05C1484.76 19.4 1484.13 18.55 1483.58 17.5C1483.08 16.4 1482.83 15.075 1482.83 13.525C1482.83 9.525 1484.81 6.625 1488.76 4.825C1492.76 3.025 1498.11 2.125 1504.81 2.125C1510.76 2.125 1516.33 2.75 1521.53 4C1526.78 5.25 1531.38 7.125 1535.33 9.625C1539.33 12.125 1542.46 15.225 1544.71 18.925C1546.96 22.625 1548.08 26.925 1548.08 31.825C1548.08 34.875 1547.36 37.35 1545.91 39.25C1544.46 41.1 1542.56 42.45 1540.21 43.3C1537.91 44.15 1535.38 44.575 1532.63 44.575C1528.23 44.575 1524.46 43.775 1521.31 42.175C1518.21 40.575 1515.76 38.025 1513.96 34.525C1512.16 38.025 1509.68 40.575 1506.53 42.175C1503.43 43.775 1499.68 44.575 1495.28 44.575ZM1513.96 12.625C1518.36 12.625 1522.61 12.975 1526.71 13.675C1530.81 14.375 1534.46 15.5 1537.66 17.05C1540.86 18.55 1543.31 20.525 1545.01 22.975C1543.26 18.725 1540.38 15.2 1536.38 12.4C1532.43 9.55 1527.78 7.45 1522.43 6.1C1517.08 4.7 1511.43 4 1505.48 4C1498.08 4 1492.73 4.925 1489.43 6.775C1486.13 8.625 1484.48 11 1484.48 13.9C1484.48 15 1484.71 16 1485.16 16.9C1485.61 17.75 1486.13 18.475 1486.73 19.075C1489.98 16.775 1494.03 15.125 1498.88 14.125C1503.73 13.125 1508.76 12.625 1513.96 12.625ZM1495.58 42.7C1500.18 42.7 1503.83 41.825 1506.53 40.075C1509.28 38.275 1511.46 35.75 1513.06 32.5H1514.86C1516.46 35.75 1518.61 38.275 1521.31 40.075C1524.06 41.825 1527.73 42.7 1532.33 42.7C1534.93 42.7 1537.28 42.3 1539.38 41.5C1541.53 40.7 1543.23 39.475 1544.48 37.825C1545.78 36.175 1546.43 34.05 1546.43 31.45C1546.43 27.9 1545.13 24.85 1542.53 22.3C1539.93 19.7 1536.21 17.725 1531.36 16.375C1526.56 14.975 1520.76 14.275 1513.96 14.275C1507.21 14.275 1501.41 14.975 1496.56 16.375C1491.71 17.725 1487.98 19.7 1485.38 22.3C1482.78 24.85 1481.48 27.9 1481.48 31.45C1481.48 34.05 1482.11 36.175 1483.36 37.825C1484.66 39.475 1486.38 40.7 1488.53 41.5C1490.68 42.3 1493.03 42.7 1495.58 42.7ZM1561.03 14.275V12.625H1603.56C1605.76 12.625 1607.33 12.125 1608.28 11.125C1609.28 10.075 1609.78 8.9 1609.78 7.6C1609.78 6.5 1609.61 5.525 1609.26 4.675C1608.96 3.825 1608.48 2.975 1607.83 2.125L1609.33 1.375C1609.93 2.275 1610.43 3.25 1610.83 4.3C1611.23 5.3 1611.43 6.425 1611.43 7.675C1611.43 9.675 1610.73 11.275 1609.33 12.475C1607.98 13.675 1606.01 14.275 1603.41 14.275H1593.28C1595.58 15.175 1597.93 16.575 1600.33 18.475C1602.78 20.325 1604.91 22.75 1606.71 25.75C1608.51 28.7 1609.71 32.3 1610.31 36.55C1611.41 38.85 1612.76 40.45 1614.36 41.35C1616.01 42.25 1617.86 42.7 1619.91 42.7C1622.21 42.7 1624.01 42.2 1625.31 41.2C1626.61 40.15 1627.26 38.5 1627.26 36.25C1627.26 34.5 1626.98 32.6 1626.43 30.55C1625.88 28.45 1625.61 26.4 1625.61 24.4C1625.61 21.75 1626.28 19.475 1627.63 17.575C1629.03 15.675 1630.93 14.225 1633.33 13.225C1635.78 12.225 1638.56 11.725 1641.66 11.725C1645.81 11.725 1649.38 12.55 1652.38 14.2C1655.43 15.85 1657.76 18.075 1659.36 20.875C1661.01 23.675 1661.83 26.8 1661.83 30.25C1661.83 32.9 1661.31 35.325 1660.26 37.525C1659.21 39.675 1657.63 41.4 1655.53 42.7C1653.43 43.95 1650.78 44.575 1647.58 44.575C1644.08 44.575 1641.31 43.775 1639.26 42.175C1637.21 40.525 1636.18 38.3 1636.18 35.5C1636.18 32.85 1637.08 30.725 1638.88 29.125C1640.68 27.525 1643.13 26.725 1646.23 26.725C1647.98 26.725 1649.16 26.975 1649.76 27.475C1650.36 27.975 1650.66 28.575 1650.66 29.275C1650.66 30.925 1649.51 31.75 1647.21 31.75C1646.01 31.75 1645.11 31.55 1644.51 31.15C1643.91 30.7 1643.61 30.15 1643.61 29.5C1643.61 29.15 1643.71 28.8 1643.91 28.45C1642.06 28.75 1640.58 29.575 1639.48 30.925C1638.38 32.225 1637.83 33.775 1637.83 35.575C1637.83 37.875 1638.71 39.65 1640.46 40.9C1642.21 42.1 1644.61 42.7 1647.66 42.7C1650.91 42.7 1653.43 42.075 1655.23 40.825C1657.08 39.525 1658.36 37.9 1659.06 35.95C1659.81 34 1660.18 32.05 1660.18 30.1C1660.18 26.95 1659.43 24.125 1657.93 21.625C1656.48 19.125 1654.36 17.15 1651.56 15.7C1648.81 14.25 1645.48 13.525 1641.58 13.525C1637.33 13.525 1633.88 14.475 1631.23 16.375C1628.58 18.225 1627.26 21.05 1627.26 24.85C1627.26 26.85 1627.53 28.75 1628.08 30.55C1628.63 32.35 1628.91 34.2 1628.91 36.1C1628.91 38.75 1628.11 40.825 1626.51 42.325C1624.96 43.825 1622.73 44.575 1619.83 44.575C1615.83 44.575 1612.76 43.075 1610.61 40.075C1610.61 40.525 1610.61 41 1610.61 41.5V43H1608.88V41.125C1608.88 37.125 1608.31 33.65 1607.16 30.7C1606.06 27.7 1604.61 25.15 1602.81 23.05C1601.01 20.95 1599.06 19.275 1596.96 18.025C1594.91 16.725 1592.91 15.775 1590.96 15.175C1589.01 14.575 1587.36 14.275 1586.01 14.275C1584.66 14.275 1583.01 14.575 1581.06 15.175C1579.11 15.775 1577.08 16.725 1574.98 18.025C1572.93 19.275 1571.01 20.95 1569.21 23.05C1567.41 25.15 1565.93 27.7 1564.78 30.7C1563.68 33.65 1563.13 37.125 1563.13 41.125V43H1561.41V41.5C1561.41 37.5 1561.93 33.975 1562.98 30.925C1564.03 27.825 1565.41 25.2 1567.11 23.05C1568.86 20.85 1570.73 19.025 1572.73 17.575C1574.78 16.125 1576.78 15.025 1578.73 14.275H1561.03ZM1734.24 44.575C1731.24 44.575 1728.76 44.1 1726.81 43.15C1724.86 42.2 1723.21 41.025 1721.86 39.625C1720.51 38.175 1719.24 36.7 1718.04 35.2C1716.99 33.85 1715.86 32.55 1714.66 31.3C1713.51 30.05 1712.14 29.05 1710.54 28.3C1708.94 27.5 1706.96 27.1 1704.61 27.1C1701.51 27.1 1699.11 27.85 1697.41 29.35C1695.71 30.85 1694.86 32.8 1694.86 35.2C1694.86 37.35 1695.61 39.15 1697.11 40.6C1698.61 42 1700.81 42.7 1703.71 42.7L1703.56 44.5C1700.56 44.5 1698.06 43.725 1696.06 42.175C1694.11 40.575 1693.14 38.25 1693.14 35.2C1693.14 32.1 1694.16 29.675 1696.21 27.925C1698.31 26.175 1701.16 25.3 1704.76 25.3C1707.26 25.3 1709.39 25.725 1711.14 26.575C1712.89 27.425 1714.41 28.5 1715.71 29.8C1717.01 31.1 1718.21 32.45 1719.31 33.85C1720.46 35.25 1721.64 36.65 1722.84 38.05C1724.04 39.4 1725.54 40.525 1727.34 41.425C1729.14 42.275 1731.44 42.7 1734.24 42.7C1736.74 42.7 1738.99 42.275 1740.99 41.425C1743.04 40.525 1744.64 39.125 1745.79 37.225C1746.99 35.275 1747.59 32.675 1747.59 29.425C1747.59 25.475 1746.86 21.9 1745.41 18.7C1744.01 15.45 1742.11 12.625 1739.71 10.225C1737.36 7.825 1734.76 5.95 1731.91 4.6C1730.76 7.3 1729.14 9.3 1727.04 10.6C1724.94 11.85 1722.59 12.475 1719.99 12.475C1717.49 12.475 1715.51 11.9 1714.06 10.75C1712.66 9.6 1711.96 8.15 1711.96 6.4C1711.96 4.45 1712.71 2.925 1714.21 1.825C1715.76 0.724997 1718.06 0.174997 1721.11 0.174997C1722.86 0.174997 1724.64 0.399997 1726.44 0.849997C1728.24 1.25 1729.99 1.85 1731.69 2.65C1734.84 4.1 1737.74 6.1 1740.39 8.65C1743.04 11.15 1745.16 14.15 1746.76 17.65C1748.41 21.15 1749.24 25.1 1749.24 29.5C1749.24 34.55 1747.86 38.325 1745.11 40.825C1742.36 43.325 1738.74 44.575 1734.24 44.575ZM1713.61 6.175C1713.61 7.675 1714.24 8.8 1715.49 9.55C1716.79 10.3 1718.29 10.675 1719.99 10.675C1722.39 10.675 1724.54 10.075 1726.44 8.875C1728.34 7.675 1729.64 6.025 1730.34 3.925C1727.19 2.625 1724.04 1.975 1720.89 1.975C1718.59 1.975 1716.79 2.325 1715.49 3.025C1714.24 3.725 1713.61 4.775 1713.61 6.175ZM1758.64 25.225C1758.74 29.775 1760.17 33.4 1762.92 36.1C1765.67 38.75 1769.42 40.575 1774.17 41.575L1773.57 43.375C1770.37 42.675 1767.52 41.575 1765.02 40.075C1762.57 38.525 1760.64 36.525 1759.24 34.075C1757.84 31.575 1757.14 28.6 1757.14 25.15C1757.14 21.75 1757.79 19.075 1759.09 17.125C1760.39 15.175 1761.99 13.8 1763.89 13C1765.84 12.15 1767.74 11.725 1769.59 11.725C1772.24 11.725 1774.47 12.325 1776.27 13.525C1778.07 14.725 1778.97 16.425 1778.97 18.625C1778.97 20.975 1777.97 22.8 1775.97 24.1C1774.02 25.4 1771.57 26.05 1768.62 26.05C1767.07 26.05 1765.39 25.875 1763.59 25.525C1761.79 25.175 1760.17 24.6 1758.72 23.8C1758.67 24.25 1758.64 24.725 1758.64 25.225ZM1769.52 13.525C1768.02 13.525 1766.52 13.8 1765.02 14.35C1763.52 14.85 1762.22 15.725 1761.12 16.975C1760.02 18.225 1759.27 19.95 1758.87 22.15C1760.17 22.8 1761.69 23.325 1763.44 23.725C1765.19 24.075 1766.92 24.25 1768.62 24.25C1771.17 24.25 1773.24 23.775 1774.84 22.825C1776.49 21.875 1777.32 20.475 1777.32 18.625C1777.32 16.875 1776.57 15.6 1775.07 14.8C1773.57 13.95 1771.72 13.525 1769.52 13.525ZM1807.69 24.325V22.675H1833.41C1833.81 22.025 1834.11 21.35 1834.31 20.65C1834.51 19.9 1834.61 19.225 1834.61 18.625C1834.61 16.925 1834.16 15.475 1833.26 14.275H1807.69V12.625H1854.64C1856.84 12.625 1858.41 12.125 1859.36 11.125C1860.36 10.075 1860.86 8.9 1860.86 7.6C1860.86 6.5 1860.69 5.525 1860.34 4.675C1860.04 3.825 1859.56 2.975 1858.91 2.125L1860.41 1.375C1861.01 2.275 1861.51 3.25 1861.91 4.3C1862.31 5.3 1862.51 6.425 1862.51 7.675C1862.51 9.675 1861.81 11.275 1860.41 12.475C1859.06 13.675 1857.09 14.275 1854.49 14.275H1835.06C1835.86 15.425 1836.26 16.875 1836.26 18.625C1836.26 19.225 1836.16 19.9 1835.96 20.65C1835.81 21.4 1835.56 22.075 1835.21 22.675H1861.69V24.325H1844.59C1847.04 25.175 1848.99 26.4 1850.44 28C1851.94 29.6 1852.69 31.55 1852.69 33.85C1852.69 36.05 1851.94 37.95 1850.44 39.55C1848.94 41.15 1846.84 42.375 1844.14 43.225C1841.44 44.125 1838.29 44.575 1834.69 44.575C1831.14 44.575 1827.99 44.125 1825.24 43.225C1822.54 42.375 1820.44 41.15 1818.94 39.55C1817.44 37.95 1816.69 36.05 1816.69 33.85C1816.69 31.55 1817.41 29.6 1818.86 28C1820.36 26.4 1822.34 25.175 1824.79 24.325H1807.69ZM1834.69 42.7C1839.74 42.7 1843.71 41.875 1846.61 40.225C1849.51 38.575 1850.96 36.375 1850.96 33.625C1850.96 31.725 1850.26 30.075 1848.86 28.675C1847.51 27.275 1845.61 26.175 1843.16 25.375C1840.76 24.575 1837.94 24.175 1834.69 24.175C1831.49 24.175 1828.66 24.575 1826.21 25.375C1823.76 26.175 1821.84 27.275 1820.44 28.675C1819.09 30.075 1818.41 31.725 1818.41 33.625C1818.41 36.375 1819.86 38.575 1822.76 40.225C1825.66 41.875 1829.64 42.7 1834.69 42.7ZM1872.68 35.125C1872.68 32.025 1873.71 29.625 1875.76 27.925C1877.86 26.175 1880.76 25.3 1884.46 25.3C1887.16 25.3 1889.41 25.725 1891.21 26.575C1893.06 27.425 1894.66 28.5 1896.01 29.8C1897.41 31.1 1898.71 32.5 1899.91 34C1901.11 35.5 1902.41 36.9 1903.81 38.2C1905.21 39.5 1906.83 40.575 1908.68 41.425C1910.58 42.275 1912.91 42.7 1915.66 42.7C1919.41 42.7 1922.23 41.75 1924.13 39.85C1926.08 37.95 1927.06 35.25 1927.06 31.75C1927.06 26.65 1924.63 22.525 1919.78 19.375C1914.98 16.175 1908.11 14.475 1899.16 14.275H1871.93V12.625H1921.73C1923.93 12.625 1925.51 12.125 1926.46 11.125C1927.46 10.075 1927.96 8.9 1927.96 7.6C1927.96 6.5 1927.78 5.525 1927.43 4.675C1927.13 3.825 1926.66 2.975 1926.01 2.125L1927.51 1.375C1928.11 2.275 1928.61 3.25 1929.01 4.3C1929.41 5.3 1929.61 6.425 1929.61 7.675C1929.61 9.675 1928.91 11.275 1927.51 12.475C1926.16 13.675 1924.18 14.275 1921.58 14.275H1911.23C1916.88 15.575 1921.21 17.75 1924.21 20.8C1927.26 23.8 1928.78 27.45 1928.78 31.75C1928.78 35.85 1927.63 39.025 1925.33 41.275C1923.03 43.475 1919.73 44.575 1915.43 44.575C1912.58 44.575 1910.16 44.15 1908.16 43.3C1906.21 42.45 1904.51 41.375 1903.06 40.075C1901.61 38.725 1900.28 37.325 1899.08 35.875C1897.88 34.375 1896.61 32.975 1895.26 31.675C1893.96 30.325 1892.43 29.225 1890.68 28.375C1888.98 27.525 1886.88 27.1 1884.38 27.1C1881.13 27.1 1878.66 27.85 1876.96 29.35C1875.26 30.85 1874.41 32.775 1874.41 35.125C1874.41 37.325 1875.13 39.15 1876.58 40.6C1878.08 42.05 1880.31 42.775 1883.26 42.775L1883.11 44.575C1880.11 44.575 1877.61 43.775 1875.61 42.175C1873.66 40.575 1872.68 38.225 1872.68 35.125ZM1941.14 56.8C1941.14 53.95 1940.49 51.25 1939.19 48.7C1937.89 46.15 1936.14 43.85 1933.94 41.8L1935.14 40.675C1937.54 42.975 1939.39 45.5 1940.69 48.25C1941.99 51 1942.64 53.85 1942.64 56.8C1942.64 58.35 1942.49 59.775 1942.19 61.075C1941.89 62.375 1941.47 63.525 1940.92 64.525C1942.02 65.875 1943.19 67.075 1944.44 68.125C1945.69 69.225 1947.37 69.775 1949.47 69.775C1951.12 69.775 1952.52 69.35 1953.67 68.5C1954.82 67.7 1955.59 66.4 1955.99 64.6L1957.49 65.2C1956.99 67.35 1956.04 68.925 1954.64 69.925C1953.24 70.975 1951.52 71.5 1949.47 71.5C1947.07 71.5 1945.19 70.925 1943.84 69.775C1942.49 68.625 1941.24 67.325 1940.09 65.875C1938.94 67.475 1937.52 68.65 1935.82 69.4C1934.07 70.2 1932.24 70.6 1930.34 70.6C1927.79 70.6 1925.79 70 1924.34 68.8C1922.84 67.65 1922.09 66.1 1922.09 64.15C1922.09 62.25 1922.82 60.7 1924.27 59.5C1925.67 58.35 1927.54 57.775 1929.89 57.775C1932.44 57.775 1934.44 58.325 1935.89 59.425C1937.39 60.575 1938.72 61.85 1939.87 63.25C1940.72 61.45 1941.14 59.3 1941.14 56.8ZM1923.67 64.15C1923.67 65.55 1924.22 66.675 1925.32 67.525C1926.37 68.425 1928.02 68.875 1930.27 68.875C1932.12 68.875 1933.82 68.525 1935.37 67.825C1936.92 67.125 1938.17 66.05 1939.12 64.6C1938.07 63.2 1936.87 61.975 1935.52 60.925C1934.12 59.875 1932.24 59.35 1929.89 59.35C1927.94 59.35 1926.42 59.775 1925.32 60.625C1924.22 61.525 1923.67 62.7 1923.67 64.15ZM2001.44 20.575C2004.29 21.525 2006.62 23.05 2008.42 25.15C2010.27 27.25 2011.19 29.85 2011.19 32.95C2011.19 36.65 2009.84 39.525 2007.14 41.575C2004.44 43.575 2000.64 44.575 1995.74 44.575C1991.44 44.575 1987.69 43.775 1984.49 42.175C1981.29 40.575 1978.82 38.025 1977.07 34.525C1975.27 38.025 1972.79 40.575 1969.64 42.175C1966.49 43.775 1962.64 44.575 1958.09 44.575C1955.39 44.575 1952.89 44.125 1950.59 43.225C1948.29 42.375 1946.44 41.025 1945.04 39.175C1943.64 37.275 1942.94 34.825 1942.94 31.825C1942.94 28.325 1943.77 25.425 1945.42 23.125C1947.07 20.775 1949.19 18.9 1951.79 17.5C1954.44 16.05 1957.19 14.975 1960.04 14.275H1942.04V12.625H2004.14C2006.34 12.625 2007.92 12.125 2008.87 11.125C2009.87 10.075 2010.37 8.9 2010.37 7.6C2010.37 6.5 2010.19 5.525 2009.84 4.675C2009.54 3.825 2009.07 2.975 2008.42 2.125L2009.92 1.375C2010.52 2.275 2011.02 3.25 2011.42 4.3C2011.82 5.3 2012.02 6.425 2012.02 7.675C2012.02 9.675 2011.32 11.275 2009.92 12.475C2008.57 13.675 2006.59 14.275 2003.99 14.275H1991.77C1996.57 15.675 1999.79 17.775 2001.44 20.575ZM1995.44 42.7C1999.99 42.7 2003.47 41.8 2005.87 40C2008.32 38.2 2009.54 35.725 2009.54 32.575C2009.54 30.075 2008.84 28.025 2007.44 26.425C2006.09 24.775 2004.37 23.5 2002.27 22.6C2002.42 23.2 2002.49 23.875 2002.49 24.625C2002.49 27.225 2001.49 29.175 1999.49 30.475C1997.49 31.725 1995.17 32.35 1992.52 32.35C1990.12 32.35 1988.07 31.825 1986.37 30.775C1984.67 29.725 1983.82 28.125 1983.82 25.975C1983.82 23.625 1984.79 21.95 1986.74 20.95C1988.69 19.9 1990.99 19.375 1993.64 19.375C1994.64 19.375 1995.59 19.425 1996.49 19.525C1997.44 19.625 1998.37 19.775 1999.27 19.975C1998.12 18.725 1996.57 17.7 1994.62 16.9C1992.72 16.1 1990.67 15.5 1988.47 15.1C1986.27 14.65 1984.17 14.375 1982.17 14.275H1970.99C1969.09 14.275 1966.97 14.45 1964.62 14.8C1962.27 15.15 1959.92 15.725 1957.57 16.525C1955.22 17.325 1953.07 18.4 1951.12 19.75C1949.17 21.1 1947.59 22.75 1946.39 24.7C1945.19 26.6 1944.59 28.875 1944.59 31.525C1944.59 35.325 1945.92 38.15 1948.57 40C1951.22 41.8 1954.52 42.7 1958.47 42.7C1963.22 42.7 1966.94 41.825 1969.64 40.075C1972.39 38.275 1974.57 35.75 1976.17 32.5H1977.97C1979.52 35.7 1981.67 38.2 1984.42 40C1987.17 41.8 1990.84 42.7 1995.44 42.7ZM2000.99 24.25C2000.99 23.45 2000.84 22.675 2000.54 21.925C1998.19 21.225 1995.84 20.875 1993.49 20.875C1991.19 20.875 1989.27 21.275 1987.72 22.075C1986.22 22.825 1985.47 24.125 1985.47 25.975C1985.47 27.575 1986.12 28.75 1987.42 29.5C1988.72 30.2 1990.29 30.55 1992.14 30.55C1994.49 30.55 1996.54 30.05 1998.29 29.05C2000.09 28 2000.99 26.4 2000.99 24.25ZM2037.42 44.575C2033.27 44.575 2029.9 43.8 2027.3 42.25C2024.75 40.7 2023.47 38.325 2023.47 35.125C2023.47 31.975 2024.67 29.65 2027.07 28.15C2029.47 26.65 2032.5 25.9 2036.15 25.9C2037.75 25.9 2039.22 26.025 2040.57 26.275C2041.92 26.475 2042.95 26.75 2043.65 27.1L2043.35 28.675C2041.25 27.925 2038.85 27.55 2036.15 27.55C2032.9 27.55 2030.25 28.15 2028.2 29.35C2026.15 30.55 2025.12 32.4 2025.12 34.9C2025.12 37.6 2026.27 39.575 2028.57 40.825C2030.87 42.075 2033.82 42.7 2037.42 42.7C2041.82 42.7 2045.35 41.825 2048 40.075C2050.7 38.325 2052.77 35.8 2054.22 32.5H2056.02C2057.47 35.7 2059.57 38.2 2062.32 40C2065.07 41.8 2068.52 42.7 2072.67 42.7C2075.37 42.7 2077.77 42.3 2079.87 41.5C2081.97 40.7 2083.62 39.45 2084.82 37.75C2086.07 36 2086.7 33.75 2086.7 31C2086.7 26.25 2084.85 22.525 2081.15 19.825C2077.5 17.075 2072.17 15.225 2065.17 14.275H2022.57V12.625H2097.2C2102.1 12.625 2106.17 13.1 2109.42 14.05C2112.72 14.95 2115.35 16.2 2117.3 17.8C2119.25 19.4 2120.65 21.25 2121.5 23.35C2122.35 25.45 2122.77 27.675 2122.77 30.025C2122.82 34.425 2121.52 37.95 2118.87 40.6C2116.27 43.25 2112.57 44.575 2107.77 44.575C2103.72 44.575 2100.52 43.725 2098.17 42.025C2095.87 40.325 2094.72 38.075 2094.72 35.275C2094.72 32.475 2095.75 30.3 2097.8 28.75C2099.9 27.2 2102.75 26.425 2106.35 26.425C2108.2 26.425 2109.42 26.675 2110.02 27.175C2110.62 27.675 2110.92 28.3 2110.92 29.05C2110.92 30.65 2109.72 31.45 2107.32 31.45C2106.22 31.45 2105.37 31.25 2104.77 30.85C2104.17 30.4 2103.87 29.85 2103.87 29.2C2103.87 28.8 2103.97 28.425 2104.17 28.075C2101.37 28.325 2099.37 29.125 2098.17 30.475C2096.97 31.775 2096.37 33.375 2096.37 35.275C2096.37 37.375 2097.32 39.15 2099.22 40.6C2101.12 42 2103.97 42.7 2107.77 42.7C2112.07 42.7 2115.37 41.575 2117.67 39.325C2120.02 37.025 2121.17 33.925 2121.12 30.025C2121.12 26.875 2120.32 24.125 2118.72 21.775C2117.17 19.375 2114.7 17.525 2111.3 16.225C2107.9 14.925 2103.42 14.275 2097.87 14.275H2072.75C2077.8 15.675 2081.65 17.775 2084.3 20.575C2087 23.325 2088.35 26.85 2088.35 31.15C2088.35 35.6 2086.95 38.95 2084.15 41.2C2081.35 43.45 2077.57 44.575 2072.82 44.575C2069.17 44.575 2065.75 43.825 2062.55 42.325C2059.35 40.775 2056.87 38.175 2055.12 34.525C2051.82 41.225 2045.92 44.575 2037.42 44.575ZM2136.9 41.125V43H2135.18V41.5C2135.18 36.5 2135.98 32.25 2137.58 28.75C2139.18 25.25 2141.13 22.375 2143.43 20.125C2142.08 19.075 2141 17.85 2140.2 16.45C2139.45 15 2139.08 13.45 2139.08 11.8C2139.08 9.65 2139.73 7.875 2141.03 6.475C2142.33 5.025 2144.1 3.95 2146.35 3.25C2148.6 2.5 2151.13 2.125 2153.93 2.125C2156.68 2.125 2159.48 2.525 2162.33 3.325C2165.23 4.125 2167.98 5.425 2170.58 7.225C2173.23 9.025 2175.58 11.475 2177.63 14.575C2179.73 17.675 2181.38 21.5 2182.58 26.05C2183.78 30.6 2184.38 36 2184.38 42.25V43H2182.65V41.125C2182.65 37.525 2182.08 34.1 2180.93 30.85C2179.83 27.6 2178.08 24.675 2175.68 22.075C2173.98 20.225 2172.13 18.75 2170.13 17.65C2168.18 16.5 2166.3 15.65 2164.5 15.1C2162.7 14.55 2161.13 14.275 2159.78 14.275C2158.43 14.275 2156.78 14.575 2154.83 15.175C2152.88 15.775 2150.85 16.725 2148.75 18.025C2146.7 19.275 2144.78 20.95 2142.98 23.05C2141.18 25.15 2139.7 27.7 2138.55 30.7C2137.45 33.65 2136.9 37.125 2136.9 41.125ZM2182.05 30.025H2182.13C2181.68 27.925 2181.03 25.725 2180.18 23.425C2179.33 21.075 2178.28 18.825 2177.03 16.675C2175.78 14.525 2174.35 12.675 2172.75 11.125C2167.8 6.325 2161.53 3.925 2153.93 3.925C2149.98 3.925 2146.78 4.625 2144.33 6.025C2141.93 7.425 2140.73 9.425 2140.73 12.025C2140.73 14.775 2142.03 17.125 2144.63 19.075C2147.28 16.775 2150 15.15 2152.8 14.2C2155.65 13.2 2157.98 12.7 2159.78 12.7C2161.63 12.7 2163.58 13.05 2165.63 13.75C2167.73 14.45 2169.75 15.425 2171.7 16.675C2173.7 17.925 2175.43 19.375 2176.88 21.025C2178.08 22.375 2179.1 23.85 2179.95 25.45C2180.85 27.05 2181.55 28.575 2182.05 30.025ZM2197.51 14.275V12.625H2239.21C2241.41 12.625 2242.98 12.125 2243.93 11.125C2244.93 10.075 2245.43 8.9 2245.43 7.6C2245.43 6.5 2245.26 5.525 2244.91 4.675C2244.61 3.825 2244.13 2.975 2243.48 2.125L2244.98 1.375C2245.58 2.275 2246.08 3.25 2246.48 4.3C2246.88 5.3 2247.08 6.425 2247.08 7.675C2247.08 9.675 2246.38 11.275 2244.98 12.475C2243.63 13.675 2241.66 14.275 2239.06 14.275H2232.16C2236.31 15.325 2239.68 17.1 2242.28 19.6C2244.93 22.05 2246.26 25.225 2246.26 29.125C2246.26 31.775 2245.51 34.175 2244.01 36.325C2247.51 40.575 2252.33 42.7 2258.48 42.7C2263.33 42.7 2267.03 41.5 2269.58 39.1C2272.13 36.65 2273.41 33.375 2273.41 29.275C2273.41 25.925 2272.51 23.05 2270.71 20.65C2268.91 18.25 2266.13 16.325 2262.38 14.875L2263.28 13.375C2271.13 16.675 2275.06 22 2275.06 29.35C2275.06 33.95 2273.61 37.65 2270.71 40.45C2267.86 43.2 2263.83 44.575 2258.63 44.575C2255.08 44.575 2252.01 43.95 2249.41 42.7C2246.81 41.4 2244.66 39.725 2242.96 37.675C2240.96 39.875 2238.18 41.575 2234.63 42.775C2231.08 43.975 2226.98 44.575 2222.33 44.575C2217.58 44.575 2213.41 43.95 2209.81 42.7C2206.21 41.45 2203.41 39.675 2201.41 37.375C2199.41 35.025 2198.41 32.275 2198.41 29.125C2198.41 25.225 2199.71 22.05 2202.31 19.6C2204.96 17.1 2208.36 15.325 2212.51 14.275H2197.51ZM2222.33 42.7C2229.28 42.7 2234.71 41.45 2238.61 38.95C2242.56 36.4 2244.53 33.025 2244.53 28.825C2244.53 25.775 2243.53 23.175 2241.53 21.025C2239.53 18.875 2236.86 17.225 2233.51 16.075C2230.16 14.875 2226.43 14.275 2222.33 14.275C2218.23 14.275 2214.51 14.875 2211.16 16.075C2207.81 17.225 2205.13 18.875 2203.13 21.025C2201.13 23.175 2200.13 25.775 2200.13 28.825C2200.13 33.025 2202.08 36.4 2205.98 38.95C2209.93 41.45 2215.38 42.7 2222.33 42.7ZM2288.7 43.75C2287.5 43.75 2286.57 43.5 2285.92 43C2285.27 42.55 2284.95 42 2284.95 41.35C2284.95 40.65 2285.27 40.075 2285.92 39.625C2286.57 39.125 2287.5 38.875 2288.7 38.875C2289.85 38.875 2290.72 39.125 2291.32 39.625C2291.97 40.075 2292.3 40.65 2292.3 41.35C2292.3 42 2291.97 42.55 2291.32 43C2290.72 43.5 2289.85 43.75 2288.7 43.75Z" fill="black"/>
</svg>
