<svg width="1730" height="82" viewBox="0 0 1730 82" fill="none" xmlns="http://www.w3.org/2000/svg">
<path d="M43.35 37.275C42.95 48.925 38.825 54.75 30.975 54.75C25.925 54.75 22.85 52.85 21.75 49.05C20.65 52.85 17.6 54.75 12.6 54.75C8.75 54.6 5.8 53.25 3.75 50.7C1.75 48.15 0.75 44.875 0.75 40.875C0.75 39.075 0.975 37.45 1.425 36C1.925 34.55 2.55 33.325 3.3 32.325C4.1 31.325 5 30.55 6 30C7.05 29.45 8.125 29.175 9.225 29.175C10.775 29.175 12.025 29.7 12.975 30.75C13.975 31.8 14.475 33.125 14.475 34.725C14.475 36.175 14 37.45 13.05 38.55C12.1 39.6 11 40.125 9.75 40.125C9.1 40.125 8.45 39.975 7.8 39.675C7.2 39.325 6.7 38.85 6.3 38.25C5.75 39.65 5.475 40.775 5.475 41.625C5.475 42.775 5.625 43.85 5.925 44.85C6.275 45.85 6.75 46.75 7.35 47.55C8 48.3 8.775 48.9 9.675 49.35C10.575 49.8 11.6 50.025 12.75 50.025C17.05 49.625 19.35 46.825 19.65 41.625H24.45C24.45 44.225 24.95 46.175 25.95 47.475C26.95 48.775 28.55 49.425 30.75 49.425C35.7 49.425 38.3 45.475 38.55 37.575C38.4 31.225 36.75 26.675 33.6 23.925C30.45 21.125 25.8 19.725 19.65 19.725V14.85C20.1 14.8 20.55 14.775 21 14.775C21.45 14.775 21.875 14.775 22.275 14.775C36.125 14.775 43.15 22.275 43.35 37.275ZM90.7477 20.625H90.1477C91.2477 22.125 92.0977 23.9 92.6977 25.95C93.2977 27.95 93.5977 30.225 93.5977 32.775C93.5977 36.575 93.0477 39.85 91.9477 42.6C90.8477 45.35 89.3477 47.625 87.4477 49.425C85.5477 51.225 83.3227 52.55 80.7727 53.4C78.2727 54.25 75.6227 54.675 72.8227 54.675C70.0727 54.675 67.3727 54.3 64.7227 53.55C62.1227 52.8 59.7727 51.6 57.6727 49.95C55.6227 48.25 53.9727 46.1 52.7227 43.5C51.4727 40.85 50.8477 37.65 50.8477 33.9C50.8477 31.2 51.1477 28.7 51.7477 26.4C52.3977 24.1 53.3227 22.1 54.5227 20.4C55.7227 18.65 57.1477 17.3 58.7977 16.35C60.4977 15.35 62.3977 14.85 64.4977 14.85C67.4977 14.85 69.7977 15.775 71.3977 17.625C73.0477 19.475 73.8727 21.975 73.8727 25.125C73.8727 26.825 73.5727 28.325 72.9727 29.625C72.4227 30.925 71.6727 32.025 70.7227 32.925C69.8227 33.825 68.7977 34.5 67.6477 34.95C66.5477 35.4 65.4727 35.625 64.4227 35.625C62.5227 35.625 60.8227 35.075 59.3227 33.975C57.8227 32.825 56.7727 31.275 56.1727 29.325C56.0727 29.925 55.9727 30.5 55.8727 31.05C55.8227 31.6 55.7977 32.2 55.7977 32.85C55.7977 35.45 56.2227 37.75 57.0727 39.75C57.9727 41.75 59.1727 43.45 60.6727 44.85C62.1727 46.2 63.9477 47.225 65.9977 47.925C68.0477 48.625 70.2477 48.975 72.5977 48.975C74.3977 48.975 76.2477 48.675 78.1477 48.075C80.0977 47.475 81.8727 46.525 83.4727 45.225C85.0727 43.925 86.3977 42.225 87.4477 40.125C88.4977 37.975 89.0227 35.35 89.0227 32.25C89.0227 29.4 88.3727 26.95 87.0727 24.9C85.8227 22.85 84.2477 21.425 82.3477 20.625H76.6477V14.85H90.7477V20.625ZM68.9227 24.975C68.9227 23.525 68.5227 22.35 67.7227 21.45C66.9727 20.55 65.8727 20.1 64.4227 20.1C63.0227 20.1 61.8977 20.575 61.0477 21.525C60.2477 22.425 59.8477 23.6 59.8477 25.05C59.8477 26.45 60.2477 27.65 61.0477 28.65C61.8477 29.65 62.9727 30.15 64.4227 30.15C65.7727 30.15 66.8477 29.65 67.6477 28.65C68.4977 27.65 68.9227 26.425 68.9227 24.975ZM123.39 35.7C123.39 38.65 123.04 41.3 122.34 43.65C121.64 46 120.69 48 119.49 49.65C118.29 51.25 116.89 52.475 115.29 53.325C113.69 54.175 111.99 54.6 110.19 54.6C108.09 54.6 106.29 54.175 104.79 53.325C103.29 52.475 102.065 51.375 101.115 50.025C100.215 48.675 99.5402 47.125 99.0902 45.375C98.6902 43.625 98.4902 41.85 98.4902 40.05C98.4902 35.65 99.3652 32.3 101.115 30C102.865 27.65 105.115 26.475 107.865 26.475C109.365 26.475 110.565 27.075 111.465 28.275C112.415 29.475 112.89 31 112.89 32.85C112.89 34.6 112.39 36.025 111.39 37.125C110.44 38.175 109.24 38.7 107.79 38.7C107.09 38.7 106.415 38.525 105.765 38.175C105.115 37.775 104.54 37.3 104.04 36.75C103.79 37.3 103.615 37.825 103.515 38.325C103.465 38.775 103.44 39.35 103.44 40.05C103.44 41.3 103.59 42.475 103.89 43.575C104.24 44.675 104.715 45.65 105.315 46.5C105.915 47.35 106.64 48.025 107.49 48.525C108.34 49.025 109.315 49.275 110.415 49.275C111.115 49.275 111.94 49.05 112.89 48.6C113.89 48.15 114.815 47.35 115.665 46.2C116.565 45 117.315 43.425 117.915 41.475C118.515 39.475 118.815 36.95 118.815 33.9C118.815 32.65 118.615 31.25 118.215 29.7C117.815 28.15 117.14 26.7 116.19 25.35C115.29 24 114.09 22.875 112.59 21.975C111.09 21.025 109.265 20.55 107.115 20.55H78.2402V14.775H108.54C110.59 14.775 112.515 15.225 114.315 16.125C116.115 16.975 117.69 18.275 119.04 20.025C120.39 21.725 121.44 23.9 122.19 26.55C122.99 29.15 123.39 32.2 123.39 35.7ZM99.8514 69.675C99.8514 66.825 100.701 64.475 102.401 62.625C104.051 60.775 106.376 59.85 109.376 59.85C111.076 59.85 112.651 60.2 114.101 60.9C115.501 61.65 116.551 62.875 117.251 64.575C118.001 62.875 119.101 61.65 120.551 60.9C121.951 60.2 123.501 59.85 125.201 59.85C128.201 59.85 130.526 60.775 132.176 62.625C133.876 64.475 134.726 66.825 134.726 69.675C134.726 72.525 133.901 74.85 132.251 76.65C130.601 78.5 128.501 79.675 125.951 80.175L124.601 76.2C126.551 75.9 128.076 75.275 129.176 74.325C130.276 73.425 130.826 72.075 130.826 70.275C130.826 68.325 130.276 66.8 129.176 65.7C128.076 64.65 126.751 64.125 125.201 64.125C123.451 64.125 122.026 64.575 120.926 65.475C119.826 66.375 119.226 67.725 119.126 69.525H115.451C115.301 67.725 114.701 66.375 113.651 65.475C112.601 64.575 111.176 64.125 109.376 64.125C107.826 64.125 106.501 64.65 105.401 65.7C104.251 66.8 103.676 68.325 103.676 70.275C103.676 72.075 104.251 73.425 105.401 74.325C106.501 75.275 108.026 75.9 109.976 76.2L108.626 80.175C106.026 79.675 103.926 78.5 102.326 76.65C100.676 74.85 99.8514 72.525 99.8514 69.675ZM177.598 9.375C177.598 12.375 177.073 14.725 176.023 16.425C174.973 18.125 173.573 19.35 171.823 20.1C174.073 21.95 175.598 24.275 176.398 27.075C177.198 29.825 177.598 32.925 177.598 36.375C177.598 38.725 177.323 41 176.773 43.2C176.273 45.4 175.523 47.35 174.523 49.05C173.573 50.75 172.348 52.125 170.848 53.175C169.398 54.175 167.748 54.675 165.898 54.675C165.048 54.675 164.198 54.55 163.348 54.3C162.498 54.05 161.673 53.7 160.873 53.25C160.073 52.75 159.348 52.15 158.698 51.45C158.098 50.7 157.623 49.85 157.273 48.9C156.273 50.8 154.973 52.25 153.373 53.25C151.823 54.2 150.098 54.675 148.198 54.675C146.248 54.675 144.473 54.275 142.873 53.475C141.273 52.675 139.898 51.55 138.748 50.1C137.648 48.65 136.773 46.875 136.123 44.775C135.523 42.675 135.223 40.35 135.223 37.8C135.223 33.9 135.823 30.55 137.023 27.75C138.273 24.9 140.048 22.525 142.348 20.625H135.298V14.85H169.723C170.573 14.6 171.298 14.075 171.898 13.275C172.548 12.475 172.873 11.25 172.873 9.6C172.873 8.75 172.723 7.85 172.423 6.9C172.123 5.9 171.598 5.225 170.848 4.875L174.973 1.65C175.823 2.25 176.473 3.275 176.923 4.725C177.373 6.175 177.598 7.725 177.598 9.375ZM172.873 36.225C172.873 34.025 172.598 31.975 172.048 30.075C171.498 28.175 170.598 26.525 169.348 25.125C168.098 23.725 166.448 22.625 164.398 21.825C162.398 21.025 159.923 20.625 156.973 20.625C154.073 20.625 151.548 21.05 149.398 21.9C147.298 22.75 145.548 23.925 144.148 25.425C142.748 26.875 141.698 28.625 140.998 30.675C140.348 32.675 140.023 34.85 140.023 37.2C140.023 40.8 140.648 43.65 141.898 45.75C143.198 47.85 145.123 48.9 147.673 48.9C149.173 48.9 150.348 48.6 151.198 48C152.098 47.35 152.773 46.575 153.223 45.675C153.673 44.725 153.973 43.725 154.123 42.675C154.273 41.625 154.348 40.675 154.348 39.825C154.348 39.275 154.323 38.8 154.273 38.4C154.273 38 154.273 37.7 154.273 37.5H159.223C159.223 39.7 159.348 41.525 159.598 42.975C159.898 44.425 160.323 45.6 160.873 46.5C161.423 47.35 162.098 47.975 162.898 48.375C163.748 48.725 164.748 48.9 165.898 48.9C166.748 48.9 167.598 48.65 168.448 48.15C169.298 47.65 170.048 46.875 170.698 45.825C171.348 44.775 171.873 43.475 172.273 41.925C172.673 40.325 172.873 38.425 172.873 36.225ZM219.601 9.15C219.601 12 219.076 14.3 218.026 16.05C217.026 17.75 215.676 18.975 213.976 19.725C217.726 22.875 219.601 27.65 219.601 34.05C219.601 36.75 219.301 39.35 218.701 41.85C218.101 44.3 217.126 46.475 215.776 48.375C214.426 50.275 212.626 51.8 210.376 52.95C208.176 54.1 205.476 54.675 202.276 54.675C199.276 54.675 196.701 54.15 194.551 53.1C192.401 52.05 190.626 50.6 189.226 48.75C187.876 46.9 186.851 44.725 186.151 42.225C185.501 39.725 185.176 37.05 185.176 34.2C185.176 31.05 185.651 28.375 186.601 26.175C187.601 23.975 188.876 22.125 190.426 20.625H185.101V14.775C185.151 14.825 187.126 14.85 191.026 14.85C194.976 14.85 201.326 14.85 210.076 14.85C210.726 14.8 211.326 14.7 211.876 14.55C212.476 14.35 213.001 14.05 213.451 13.65C213.901 13.25 214.251 12.7 214.501 12C214.751 11.3 214.876 10.425 214.876 9.375C214.876 8.525 214.726 7.625 214.426 6.675C214.126 5.675 213.601 5 212.851 4.65L216.976 1.425C217.826 2.025 218.476 3.05 218.926 4.5C219.376 5.95 219.601 7.5 219.601 9.15ZM215.101 34.35C215.101 33.85 215.076 33.175 215.026 32.325C214.976 31.425 214.826 30.475 214.576 29.475C214.376 28.425 214.026 27.375 213.526 26.325C213.026 25.275 212.326 24.325 211.426 23.475C210.526 22.625 209.401 21.95 208.051 21.45C206.701 20.9 205.051 20.625 203.101 20.625C200.801 20.625 198.826 21.025 197.176 21.825C195.526 22.625 194.151 23.675 193.051 24.975C192.001 26.225 191.226 27.675 190.726 29.325C190.226 30.975 189.976 32.65 189.976 34.35C189.976 36.4 190.251 38.325 190.801 40.125C191.351 41.925 192.151 43.475 193.201 44.775C194.251 46.075 195.551 47.1 197.101 47.85C198.651 48.6 200.401 48.975 202.351 48.975C203.901 48.975 205.426 48.7 206.926 48.15C208.476 47.6 209.851 46.75 211.051 45.6C212.251 44.45 213.226 42.95 213.976 41.1C214.726 39.25 215.101 37 215.101 34.35ZM230.293 49.65C232.593 49.65 234.243 49.1 235.243 48C236.293 46.9 236.818 45.475 236.818 43.725C236.818 42.575 236.543 41.525 235.993 40.575C235.493 39.625 234.918 38.625 234.268 37.575C233.668 36.475 233.093 35.25 232.543 33.9C232.043 32.55 231.793 30.9 231.793 28.95C231.793 26.4 232.293 24.25 233.293 22.5C234.343 20.7 235.693 19.25 237.343 18.15C239.043 17.05 240.993 16.25 243.193 15.75C245.443 15.25 247.768 15 250.168 15C253.018 15 255.593 15.55 257.893 16.65C260.243 17.7 262.218 19.175 263.818 21.075C265.418 22.925 266.643 25.125 267.493 27.675C268.393 30.225 268.843 32.975 268.843 35.925C268.843 37.975 268.543 40.125 267.943 42.375C267.393 44.575 266.543 46.6 265.393 48.45C264.293 50.3 262.893 51.825 261.193 53.025C259.543 54.175 257.618 54.75 255.418 54.75C253.868 54.75 252.518 54.5 251.368 54C250.218 53.45 249.243 52.7 248.443 51.75C247.693 50.8 247.118 49.7 246.718 48.45C246.368 47.2 246.193 45.825 246.193 44.325C246.193 42.525 246.468 40.975 247.018 39.675C247.568 38.325 248.293 37.225 249.193 36.375C250.093 35.475 251.143 34.8 252.343 34.35C253.543 33.9 254.793 33.675 256.093 33.675C256.993 33.675 257.843 33.85 258.643 34.2C259.443 34.5 260.168 34.95 260.818 35.55C261.468 36.1 262.018 36.75 262.468 37.5C262.918 38.25 263.218 39.05 263.368 39.9C263.568 38.95 263.718 38.075 263.818 37.275C263.918 36.425 263.968 35.6 263.968 34.8C263.968 32.05 263.468 29.725 262.468 27.825C261.468 25.925 260.243 24.425 258.793 23.325C257.343 22.175 255.818 21.35 254.218 20.85C252.668 20.35 251.293 20.1 250.093 20.1C248.843 20.1 247.443 20.175 245.893 20.325C244.343 20.475 242.893 20.875 241.543 21.525C240.193 22.125 239.043 23.05 238.093 24.3C237.193 25.5 236.743 27.175 236.743 29.325C236.743 30.925 237.018 32.35 237.568 33.6C238.168 34.8 238.793 35.975 239.443 37.125C240.143 38.275 240.768 39.45 241.318 40.65C241.918 41.85 242.218 43.225 242.218 44.775C242.218 48.025 241.118 50.475 238.918 52.125C236.768 53.775 233.968 54.6 230.518 54.6C226.768 54.6 223.643 53.625 221.143 51.675C218.643 49.675 216.768 46.75 215.518 42.9L216.943 38.025C218.793 41.975 220.818 44.9 223.018 46.8C225.218 48.7 227.643 49.65 230.293 49.65ZM259.993 44.1C259.993 42.5 259.618 41.225 258.868 40.275C258.118 39.275 256.993 38.775 255.493 38.775C254.493 38.775 253.518 39.225 252.568 40.125C251.618 40.975 251.143 42.45 251.143 44.55C251.143 46.4 251.618 47.775 252.568 48.675C253.518 49.575 254.568 50.025 255.718 50.025C256.768 50.025 257.743 49.6 258.643 48.75C259.543 47.85 259.993 46.3 259.993 44.1ZM355.922 50.7C355.922 52 355.797 53.175 355.547 54.225C355.297 55.225 355.022 56.15 354.722 57H349.697C350.247 55.85 350.647 54.75 350.897 53.7C351.147 52.6 351.272 51.4 351.272 50.1C350.972 48.1 350.547 46.475 349.997 45.225C349.347 46.425 348.497 47.6 347.447 48.75C346.397 49.9 345.097 50.925 343.547 51.825C341.997 52.675 340.172 53.375 338.072 53.925C336.022 54.425 333.647 54.675 330.947 54.675C328.697 54.675 326.572 54.425 324.572 53.925C322.622 53.425 320.922 52.7 319.472 51.75C318.022 50.75 316.872 49.55 316.022 48.15C315.222 46.7 314.822 45.075 314.822 43.275C314.822 40.975 315.422 39.125 316.622 37.725C317.872 36.325 319.372 35.25 321.122 34.5C322.922 33.75 324.797 33.25 326.747 33C328.747 32.75 330.472 32.625 331.922 32.625C339.172 32.925 344.672 34.5 348.422 37.35C348.822 36.3 349.097 35.25 349.247 34.2C349.397 33.15 349.472 32.05 349.472 30.9C349.472 27.3 348.697 24.575 347.147 22.725C345.647 20.825 343.497 19.825 340.697 19.725C339.297 19.725 338.122 19.975 337.172 20.475C336.272 20.975 335.522 21.65 334.922 22.5C334.372 23.35 333.972 24.35 333.722 25.5C333.472 26.65 333.347 27.85 333.347 29.1H327.872C327.922 28.85 327.947 28.6 327.947 28.35C327.947 28.1 327.947 27.85 327.947 27.6C327.947 26.75 327.847 25.875 327.647 24.975C327.497 24.025 327.197 23.15 326.747 22.35C326.297 21.55 325.672 20.9 324.872 20.4C324.072 19.9 323.072 19.65 321.872 19.65C321.172 19.65 320.472 19.8 319.772 20.1C319.122 20.35 318.497 20.775 317.897 21.375C317.347 21.925 316.897 22.65 316.547 23.55C316.197 24.4 316.022 25.425 316.022 26.625C316.022 27.475 316.072 28.175 316.172 28.725C316.272 29.275 316.447 29.875 316.697 30.525L312.497 32.925C312.147 32.025 311.847 30.95 311.597 29.7C311.397 28.45 311.297 27.325 311.297 26.325C311.297 24.375 311.647 22.675 312.347 21.225C313.047 19.775 313.947 18.6 315.047 17.7C316.147 16.75 317.372 16.05 318.722 15.6C320.122 15.15 321.522 14.925 322.922 14.925C326.872 14.925 329.572 16.5 331.022 19.65C331.472 18.7 332.047 17.925 332.747 17.325C333.497 16.725 334.297 16.25 335.147 15.9C335.997 15.55 336.897 15.3 337.847 15.15C338.847 15 339.822 14.925 340.772 14.925C345.022 14.925 348.297 16.25 350.597 18.9C352.897 21.55 354.047 25.525 354.047 30.825C354.047 33.975 353.522 37.125 352.472 40.275C353.122 41.025 353.672 41.85 354.122 42.75C354.572 43.65 354.922 44.575 355.172 45.525C355.422 46.475 355.597 47.4 355.697 48.3C355.847 49.15 355.922 49.95 355.922 50.7ZM346.472 41.775C344.372 40.175 341.997 39.05 339.347 38.4C336.697 37.7 334.172 37.35 331.772 37.35C330.572 37.35 329.297 37.4 327.947 37.5C326.597 37.6 325.347 37.875 324.197 38.325C323.097 38.725 322.172 39.325 321.422 40.125C320.672 40.925 320.297 42 320.297 43.35C320.297 44.65 320.647 45.725 321.347 46.575C322.097 47.425 323.022 48.125 324.122 48.675C325.222 49.175 326.447 49.55 327.797 49.8C329.147 50 330.472 50.1 331.772 50.1C334.022 50.1 335.947 49.8 337.547 49.2C339.197 48.6 340.597 47.875 341.747 47.025C342.897 46.175 343.847 45.275 344.597 44.325C345.347 43.325 345.972 42.475 346.472 41.775ZM397.945 9.15C397.945 12 397.42 14.3 396.37 16.05C395.37 17.75 394.02 18.975 392.32 19.725C396.07 22.875 397.945 27.65 397.945 34.05C397.945 36.75 397.645 39.35 397.045 41.85C396.445 44.3 395.47 46.475 394.12 48.375C392.77 50.275 390.97 51.8 388.72 52.95C386.52 54.1 383.82 54.675 380.62 54.675C377.62 54.675 375.045 54.15 372.895 53.1C370.745 52.05 368.97 50.6 367.57 48.75C366.22 46.9 365.195 44.725 364.495 42.225C363.845 39.725 363.52 37.05 363.52 34.2C363.52 31.05 363.995 28.375 364.945 26.175C365.945 23.975 367.22 22.125 368.77 20.625H363.445V14.775C363.495 14.825 365.47 14.85 369.37 14.85C373.32 14.85 379.67 14.85 388.42 14.85C389.07 14.8 389.67 14.7 390.22 14.55C390.82 14.35 391.345 14.05 391.795 13.65C392.245 13.25 392.595 12.7 392.845 12C393.095 11.3 393.22 10.425 393.22 9.375C393.22 8.525 393.07 7.625 392.77 6.675C392.47 5.675 391.945 5 391.195 4.65L395.32 1.425C396.17 2.025 396.82 3.05 397.27 4.5C397.72 5.95 397.945 7.5 397.945 9.15ZM393.445 34.35C393.445 33.85 393.42 33.175 393.37 32.325C393.32 31.425 393.17 30.475 392.92 29.475C392.72 28.425 392.37 27.375 391.87 26.325C391.37 25.275 390.67 24.325 389.77 23.475C388.87 22.625 387.745 21.95 386.395 21.45C385.045 20.9 383.395 20.625 381.445 20.625C379.145 20.625 377.17 21.025 375.52 21.825C373.87 22.625 372.495 23.675 371.395 24.975C370.345 26.225 369.57 27.675 369.07 29.325C368.57 30.975 368.32 32.65 368.32 34.35C368.32 36.4 368.595 38.325 369.145 40.125C369.695 41.925 370.495 43.475 371.545 44.775C372.595 46.075 373.895 47.1 375.445 47.85C376.995 48.6 378.745 48.975 380.695 48.975C382.245 48.975 383.77 48.7 385.27 48.15C386.82 47.6 388.195 46.75 389.395 45.6C390.595 44.45 391.57 42.95 392.32 41.1C393.07 39.25 393.445 37 393.445 34.35ZM407.513 49.5C410.963 49.5 413.513 48.25 415.163 45.75C416.813 43.25 417.638 39.45 417.638 34.35C417.188 25.2 412.563 20.625 403.763 20.625V14.85C416.113 15.2 422.488 21.825 422.888 34.725C422.888 48.025 417.763 54.675 407.513 54.675C402.363 54.675 397.863 51.95 394.013 46.5L395.213 40.575C399.063 46.525 403.163 49.5 407.513 49.5ZM507.779 37.275C507.379 48.925 503.254 54.75 495.404 54.75C490.354 54.75 487.279 52.85 486.179 49.05C485.079 52.85 482.029 54.75 477.029 54.75C473.179 54.6 470.229 53.25 468.179 50.7C466.179 48.15 465.179 44.875 465.179 40.875C465.179 39.075 465.404 37.45 465.854 36C466.354 34.55 466.979 33.325 467.729 32.325C468.529 31.325 469.429 30.55 470.429 30C471.479 29.45 472.554 29.175 473.654 29.175C475.204 29.175 476.454 29.7 477.404 30.75C478.404 31.8 478.904 33.125 478.904 34.725C478.904 36.175 478.429 37.45 477.479 38.55C476.529 39.6 475.429 40.125 474.179 40.125C473.529 40.125 472.879 39.975 472.229 39.675C471.629 39.325 471.129 38.85 470.729 38.25C470.179 39.65 469.904 40.775 469.904 41.625C469.904 42.775 470.054 43.85 470.354 44.85C470.704 45.85 471.179 46.75 471.779 47.55C472.429 48.3 473.204 48.9 474.104 49.35C475.004 49.8 476.029 50.025 477.179 50.025C481.479 49.625 483.779 46.825 484.079 41.625H488.879C488.879 44.225 489.379 46.175 490.379 47.475C491.379 48.775 492.979 49.425 495.179 49.425C500.129 49.425 502.729 45.475 502.979 37.575C502.829 31.225 501.179 26.675 498.029 23.925C494.879 21.125 490.229 19.725 484.079 19.725V14.85C484.529 14.8 484.979 14.775 485.429 14.775C485.879 14.775 486.304 14.775 486.704 14.775C500.554 14.775 507.579 22.275 507.779 37.275ZM515.276 34.8C515.276 32.05 515.651 29.475 516.401 27.075C517.201 24.625 518.276 22.5 519.626 20.7C520.976 18.9 522.551 17.475 524.351 16.425C526.151 15.375 528.076 14.85 530.126 14.85C532.176 14.85 534.101 15.375 535.901 16.425C537.751 17.475 539.351 18.9 540.701 20.7C542.051 22.5 543.101 24.625 543.851 27.075C544.651 29.475 545.051 32.05 545.051 34.8C545.051 37.6 544.651 40.2 543.851 42.6C543.101 45 542.051 47.1 540.701 48.9C539.351 50.7 537.751 52.125 535.901 53.175C534.101 54.175 532.176 54.675 530.126 54.675C528.076 54.675 526.151 54.175 524.351 53.175C522.551 52.125 520.976 50.7 519.626 48.9C518.276 47.1 517.201 45 516.401 42.6C515.651 40.2 515.276 37.6 515.276 34.8ZM520.901 35.025C520.901 37.025 521.126 38.9 521.576 40.65C522.076 42.4 522.726 43.925 523.526 45.225C524.376 46.525 525.351 47.55 526.451 48.3C527.551 49.05 528.751 49.425 530.051 49.425C531.301 49.425 532.476 49.05 533.576 48.3C534.676 47.55 535.626 46.525 536.426 45.225C537.276 43.925 537.926 42.4 538.376 40.65C538.876 38.9 539.126 37.025 539.126 35.025C539.126 33.075 538.876 31.225 538.376 29.475C537.926 27.725 537.276 26.2 536.426 24.9C535.626 23.55 534.676 22.5 533.576 21.75C532.476 21 531.301 20.625 530.051 20.625C528.751 20.625 527.551 21 526.451 21.75C525.351 22.5 524.376 23.55 523.526 24.9C522.726 26.2 522.076 27.725 521.576 29.475C521.126 31.225 520.901 33.075 520.901 35.025ZM552.632 20.625V14.85H582.857L583.757 20.55C584.157 20.65 584.607 21.1 585.107 21.9C585.607 22.7 585.857 23.6 585.857 24.6C585.857 26.25 585.507 27.575 584.807 28.575C584.157 29.575 583.457 30.225 582.707 30.525C583.057 30.525 583.532 30.725 584.132 31.125C584.782 31.475 585.407 32.075 586.007 32.925C586.607 33.725 587.132 34.75 587.582 36C588.032 37.25 588.257 38.75 588.257 40.5C588.257 49.5 582.432 54.225 570.782 54.675C558.682 54.675 552.632 49.35 552.632 38.7C552.632 35.3 553.257 32.45 554.507 30.15L559.607 30.225C558.857 31.625 558.307 32.95 557.957 34.2C557.657 35.4 557.507 36.575 557.507 37.725C557.757 41.725 559.007 44.65 561.257 46.5C563.507 48.3 566.782 49.2 571.082 49.2C578.982 49.2 583.082 46.35 583.382 40.65C583.382 39.45 583.207 38.475 582.857 37.725C582.507 36.925 582.032 36.3 581.432 35.85C580.832 35.35 580.157 35.025 579.407 34.875C578.657 34.675 577.907 34.575 577.157 34.575H571.007V28.95H577.007C577.357 28.95 577.782 28.925 578.282 28.875C578.782 28.825 579.232 28.7 579.632 28.5C580.032 28.25 580.382 27.9 580.682 27.45C580.982 26.95 581.132 26.275 581.132 25.425C581.132 24.325 581.007 23.45 580.757 22.8C580.507 22.15 580.182 21.675 579.782 21.375C579.432 21.025 579.007 20.825 578.507 20.775C578.057 20.675 577.632 20.625 577.232 20.625H552.632ZM618.068 35.7C618.068 38.65 617.718 41.3 617.018 43.65C616.318 46 615.368 48 614.168 49.65C612.968 51.25 611.568 52.475 609.968 53.325C608.368 54.175 606.668 54.6 604.868 54.6C602.768 54.6 600.968 54.175 599.468 53.325C597.968 52.475 596.743 51.375 595.793 50.025C594.893 48.675 594.218 47.125 593.768 45.375C593.368 43.625 593.168 41.85 593.168 40.05C593.168 35.65 594.043 32.3 595.793 30C597.543 27.65 599.793 26.475 602.543 26.475C604.043 26.475 605.243 27.075 606.143 28.275C607.093 29.475 607.568 31 607.568 32.85C607.568 34.6 607.068 36.025 606.068 37.125C605.118 38.175 603.918 38.7 602.468 38.7C601.768 38.7 601.093 38.525 600.443 38.175C599.793 37.775 599.218 37.3 598.718 36.75C598.468 37.3 598.293 37.825 598.193 38.325C598.143 38.775 598.118 39.35 598.118 40.05C598.118 41.3 598.268 42.475 598.568 43.575C598.918 44.675 599.393 45.65 599.993 46.5C600.593 47.35 601.318 48.025 602.168 48.525C603.018 49.025 603.993 49.275 605.093 49.275C605.793 49.275 606.618 49.05 607.568 48.6C608.568 48.15 609.493 47.35 610.343 46.2C611.243 45 611.993 43.425 612.593 41.475C613.193 39.475 613.493 36.95 613.493 33.9C613.493 32.65 613.293 31.25 612.893 29.7C612.493 28.15 611.818 26.7 610.868 25.35C609.968 24 608.768 22.875 607.268 21.975C605.768 21.025 603.943 20.55 601.793 20.55H572.918V14.775H603.218C605.268 14.775 607.193 15.225 608.993 16.125C610.793 16.975 612.368 18.275 613.718 20.025C615.068 21.725 616.118 23.9 616.868 26.55C617.668 29.15 618.068 32.2 618.068 35.7ZM667.954 9.375C667.954 12.375 667.429 14.725 666.379 16.425C665.329 18.125 663.929 19.35 662.179 20.1C664.429 21.95 665.954 24.275 666.754 27.075C667.554 29.825 667.954 32.925 667.954 36.375C667.954 38.725 667.679 41 667.129 43.2C666.629 45.4 665.879 47.35 664.879 49.05C663.929 50.75 662.704 52.125 661.204 53.175C659.754 54.175 658.104 54.675 656.254 54.675C655.404 54.675 654.554 54.55 653.704 54.3C652.854 54.05 652.029 53.7 651.229 53.25C650.429 52.75 649.704 52.15 649.054 51.45C648.454 50.7 647.979 49.85 647.629 48.9C646.629 50.8 645.329 52.25 643.729 53.25C642.179 54.2 640.454 54.675 638.554 54.675C636.604 54.675 634.829 54.275 633.229 53.475C631.629 52.675 630.254 51.55 629.104 50.1C628.004 48.65 627.129 46.875 626.479 44.775C625.879 42.675 625.579 40.35 625.579 37.8C625.579 33.9 626.179 30.55 627.379 27.75C628.629 24.9 630.404 22.525 632.704 20.625H625.654V14.85H660.079C660.929 14.6 661.654 14.075 662.254 13.275C662.904 12.475 663.229 11.25 663.229 9.6C663.229 8.75 663.079 7.85 662.779 6.9C662.479 5.9 661.954 5.225 661.204 4.875L665.329 1.65C666.179 2.25 666.829 3.275 667.279 4.725C667.729 6.175 667.954 7.725 667.954 9.375ZM663.229 36.225C663.229 34.025 662.954 31.975 662.404 30.075C661.854 28.175 660.954 26.525 659.704 25.125C658.454 23.725 656.804 22.625 654.754 21.825C652.754 21.025 650.279 20.625 647.329 20.625C644.429 20.625 641.904 21.05 639.754 21.9C637.654 22.75 635.904 23.925 634.504 25.425C633.104 26.875 632.054 28.625 631.354 30.675C630.704 32.675 630.379 34.85 630.379 37.2C630.379 40.8 631.004 43.65 632.254 45.75C633.554 47.85 635.479 48.9 638.029 48.9C639.529 48.9 640.704 48.6 641.554 48C642.454 47.35 643.129 46.575 643.579 45.675C644.029 44.725 644.329 43.725 644.479 42.675C644.629 41.625 644.704 40.675 644.704 39.825C644.704 39.275 644.679 38.8 644.629 38.4C644.629 38 644.629 37.7 644.629 37.5H649.579C649.579 39.7 649.704 41.525 649.954 42.975C650.254 44.425 650.679 45.6 651.229 46.5C651.779 47.35 652.454 47.975 653.254 48.375C654.104 48.725 655.104 48.9 656.254 48.9C657.104 48.9 657.954 48.65 658.804 48.15C659.654 47.65 660.404 46.875 661.054 45.825C661.704 44.775 662.229 43.475 662.629 41.925C663.029 40.325 663.229 38.425 663.229 36.225ZM709.957 9.15C709.957 12 709.432 14.3 708.382 16.05C707.382 17.75 706.032 18.975 704.332 19.725C708.082 22.875 709.957 27.65 709.957 34.05C709.957 36.75 709.657 39.35 709.057 41.85C708.457 44.3 707.482 46.475 706.132 48.375C704.782 50.275 702.982 51.8 700.732 52.95C698.532 54.1 695.832 54.675 692.632 54.675C689.632 54.675 687.057 54.15 684.907 53.1C682.757 52.05 680.982 50.6 679.582 48.75C678.232 46.9 677.207 44.725 676.507 42.225C675.857 39.725 675.532 37.05 675.532 34.2C675.532 31.05 676.007 28.375 676.957 26.175C677.957 23.975 679.232 22.125 680.782 20.625H675.457V14.775C675.507 14.825 677.482 14.85 681.382 14.85C685.332 14.85 691.682 14.85 700.432 14.85C701.082 14.8 701.682 14.7 702.232 14.55C702.832 14.35 703.357 14.05 703.807 13.65C704.257 13.25 704.607 12.7 704.857 12C705.107 11.3 705.232 10.425 705.232 9.375C705.232 8.525 705.082 7.625 704.782 6.675C704.482 5.675 703.957 5 703.207 4.65L707.332 1.425C708.182 2.025 708.832 3.05 709.282 4.5C709.732 5.95 709.957 7.5 709.957 9.15ZM705.457 34.35C705.457 33.85 705.432 33.175 705.382 32.325C705.332 31.425 705.182 30.475 704.932 29.475C704.732 28.425 704.382 27.375 703.882 26.325C703.382 25.275 702.682 24.325 701.782 23.475C700.882 22.625 699.757 21.95 698.407 21.45C697.057 20.9 695.407 20.625 693.457 20.625C691.157 20.625 689.182 21.025 687.532 21.825C685.882 22.625 684.507 23.675 683.407 24.975C682.357 26.225 681.582 27.675 681.082 29.325C680.582 30.975 680.332 32.65 680.332 34.35C680.332 36.4 680.607 38.325 681.157 40.125C681.707 41.925 682.507 43.475 683.557 44.775C684.607 46.075 685.907 47.1 687.457 47.85C689.007 48.6 690.757 48.975 692.707 48.975C694.257 48.975 695.782 48.7 697.282 48.15C698.832 47.6 700.207 46.75 701.407 45.6C702.607 44.45 703.582 42.95 704.332 41.1C705.082 39.25 705.457 37 705.457 34.35ZM719.525 49.5C722.975 49.5 725.525 48.25 727.175 45.75C728.825 43.25 729.65 39.45 729.65 34.35C729.2 25.2 724.575 20.625 715.775 20.625V14.85C728.125 15.2 734.5 21.825 734.9 34.725C734.9 48.025 729.775 54.675 719.525 54.675C714.375 54.675 709.875 51.95 706.025 46.5L707.225 40.575C711.075 46.525 715.175 49.5 719.525 49.5ZM821.815 50.7C821.815 52 821.69 53.175 821.44 54.225C821.19 55.225 820.915 56.15 820.615 57H815.59C816.14 55.85 816.54 54.75 816.79 53.7C817.04 52.6 817.165 51.4 817.165 50.1C816.865 48.1 816.44 46.475 815.89 45.225C815.24 46.425 814.39 47.6 813.34 48.75C812.29 49.9 810.99 50.925 809.44 51.825C807.89 52.675 806.065 53.375 803.965 53.925C801.915 54.425 799.54 54.675 796.84 54.675C794.59 54.675 792.465 54.425 790.465 53.925C788.515 53.425 786.815 52.7 785.365 51.75C783.915 50.75 782.765 49.55 781.915 48.15C781.115 46.7 780.715 45.075 780.715 43.275C780.715 40.975 781.315 39.125 782.515 37.725C783.765 36.325 785.265 35.25 787.015 34.5C788.815 33.75 790.69 33.25 792.64 33C794.64 32.75 796.365 32.625 797.815 32.625C805.065 32.925 810.565 34.5 814.315 37.35C814.715 36.3 814.99 35.25 815.14 34.2C815.29 33.15 815.365 32.05 815.365 30.9C815.365 27.3 814.59 24.575 813.04 22.725C811.54 20.825 809.39 19.825 806.59 19.725C805.19 19.725 804.015 19.975 803.065 20.475C802.165 20.975 801.415 21.65 800.815 22.5C800.265 23.35 799.865 24.35 799.615 25.5C799.365 26.65 799.24 27.85 799.24 29.1H793.765C793.815 28.85 793.84 28.6 793.84 28.35C793.84 28.1 793.84 27.85 793.84 27.6C793.84 26.75 793.74 25.875 793.54 24.975C793.39 24.025 793.09 23.15 792.64 22.35C792.19 21.55 791.565 20.9 790.765 20.4C789.965 19.9 788.965 19.65 787.765 19.65C787.065 19.65 786.365 19.8 785.665 20.1C785.015 20.35 784.39 20.775 783.79 21.375C783.24 21.925 782.79 22.65 782.44 23.55C782.09 24.4 781.915 25.425 781.915 26.625C781.915 27.475 781.965 28.175 782.065 28.725C782.165 29.275 782.34 29.875 782.59 30.525L778.39 32.925C778.04 32.025 777.74 30.95 777.49 29.7C777.29 28.45 777.19 27.325 777.19 26.325C777.19 24.375 777.54 22.675 778.24 21.225C778.94 19.775 779.84 18.6 780.94 17.7C782.04 16.75 783.265 16.05 784.615 15.6C786.015 15.15 787.415 14.925 788.815 14.925C792.765 14.925 795.465 16.5 796.915 19.65C797.365 18.7 797.94 17.925 798.64 17.325C799.39 16.725 800.19 16.25 801.04 15.9C801.89 15.55 802.79 15.3 803.74 15.15C804.74 15 805.715 14.925 806.665 14.925C810.915 14.925 814.19 16.25 816.49 18.9C818.79 21.55 819.94 25.525 819.94 30.825C819.94 33.975 819.415 37.125 818.365 40.275C819.015 41.025 819.565 41.85 820.015 42.75C820.465 43.65 820.815 44.575 821.065 45.525C821.315 46.475 821.49 47.4 821.59 48.3C821.74 49.15 821.815 49.95 821.815 50.7ZM812.365 41.775C810.265 40.175 807.89 39.05 805.24 38.4C802.59 37.7 800.065 37.35 797.665 37.35C796.465 37.35 795.19 37.4 793.84 37.5C792.49 37.6 791.24 37.875 790.09 38.325C788.99 38.725 788.065 39.325 787.315 40.125C786.565 40.925 786.19 42 786.19 43.35C786.19 44.65 786.54 45.725 787.24 46.575C787.99 47.425 788.915 48.125 790.015 48.675C791.115 49.175 792.34 49.55 793.69 49.8C795.04 50 796.365 50.1 797.665 50.1C799.915 50.1 801.84 49.8 803.44 49.2C805.09 48.6 806.49 47.875 807.64 47.025C808.79 46.175 809.74 45.275 810.49 44.325C811.24 43.325 811.865 42.475 812.365 41.775ZM863.839 9.15C863.839 12 863.314 14.3 862.264 16.05C861.264 17.75 859.914 18.975 858.214 19.725C861.964 22.875 863.839 27.65 863.839 34.05C863.839 36.75 863.539 39.35 862.939 41.85C862.339 44.3 861.364 46.475 860.014 48.375C858.664 50.275 856.864 51.8 854.614 52.95C852.414 54.1 849.714 54.675 846.514 54.675C843.514 54.675 840.939 54.15 838.789 53.1C836.639 52.05 834.864 50.6 833.464 48.75C832.114 46.9 831.089 44.725 830.389 42.225C829.739 39.725 829.414 37.05 829.414 34.2C829.414 31.05 829.889 28.375 830.839 26.175C831.839 23.975 833.114 22.125 834.664 20.625H829.339V14.775C829.389 14.825 831.364 14.85 835.264 14.85C839.214 14.85 845.564 14.85 854.314 14.85C854.964 14.8 855.564 14.7 856.114 14.55C856.714 14.35 857.239 14.05 857.689 13.65C858.139 13.25 858.489 12.7 858.739 12C858.989 11.3 859.114 10.425 859.114 9.375C859.114 8.525 858.964 7.625 858.664 6.675C858.364 5.675 857.839 5 857.089 4.65L861.214 1.425C862.064 2.025 862.714 3.05 863.164 4.5C863.614 5.95 863.839 7.5 863.839 9.15ZM859.339 34.35C859.339 33.85 859.314 33.175 859.264 32.325C859.214 31.425 859.064 30.475 858.814 29.475C858.614 28.425 858.264 27.375 857.764 26.325C857.264 25.275 856.564 24.325 855.664 23.475C854.764 22.625 853.639 21.95 852.289 21.45C850.939 20.9 849.289 20.625 847.339 20.625C845.039 20.625 843.064 21.025 841.414 21.825C839.764 22.625 838.389 23.675 837.289 24.975C836.239 26.225 835.464 27.675 834.964 29.325C834.464 30.975 834.214 32.65 834.214 34.35C834.214 36.4 834.489 38.325 835.039 40.125C835.589 41.925 836.389 43.475 837.439 44.775C838.489 46.075 839.789 47.1 841.339 47.85C842.889 48.6 844.639 48.975 846.589 48.975C848.139 48.975 849.664 48.7 851.164 48.15C852.714 47.6 854.089 46.75 855.289 45.6C856.489 44.45 857.464 42.95 858.214 41.1C858.964 39.25 859.339 37 859.339 34.35ZM873.407 49.5C876.857 49.5 879.407 48.25 881.057 45.75C882.707 43.25 883.532 39.45 883.532 34.35C883.082 25.2 878.457 20.625 869.657 20.625V14.85C882.007 15.2 888.382 21.825 888.782 34.725C888.782 48.025 883.657 54.675 873.407 54.675C868.257 54.675 863.757 51.95 859.907 46.5L861.107 40.575C864.957 46.525 869.057 49.5 873.407 49.5ZM973.672 37.275C973.272 48.925 969.147 54.75 961.297 54.75C956.247 54.75 953.172 52.85 952.072 49.05C950.972 52.85 947.922 54.75 942.922 54.75C939.072 54.6 936.122 53.25 934.072 50.7C932.072 48.15 931.072 44.875 931.072 40.875C931.072 39.075 931.297 37.45 931.747 36C932.247 34.55 932.872 33.325 933.622 32.325C934.422 31.325 935.322 30.55 936.322 30C937.372 29.45 938.447 29.175 939.547 29.175C941.097 29.175 942.347 29.7 943.297 30.75C944.297 31.8 944.797 33.125 944.797 34.725C944.797 36.175 944.322 37.45 943.372 38.55C942.422 39.6 941.322 40.125 940.072 40.125C939.422 40.125 938.772 39.975 938.122 39.675C937.522 39.325 937.022 38.85 936.622 38.25C936.072 39.65 935.797 40.775 935.797 41.625C935.797 42.775 935.947 43.85 936.247 44.85C936.597 45.85 937.072 46.75 937.672 47.55C938.322 48.3 939.097 48.9 939.997 49.35C940.897 49.8 941.922 50.025 943.072 50.025C947.372 49.625 949.672 46.825 949.972 41.625H954.772C954.772 44.225 955.272 46.175 956.272 47.475C957.272 48.775 958.872 49.425 961.072 49.425C966.022 49.425 968.622 45.475 968.872 37.575C968.722 31.225 967.072 26.675 963.922 23.925C960.772 21.125 956.122 19.725 949.972 19.725V14.85C950.422 14.8 950.872 14.775 951.322 14.775C951.772 14.775 952.197 14.775 952.597 14.775C966.447 14.775 973.472 22.275 973.672 37.275ZM981.17 34.8C981.17 32.05 981.545 29.475 982.295 27.075C983.095 24.625 984.17 22.5 985.52 20.7C986.87 18.9 988.445 17.475 990.245 16.425C992.045 15.375 993.97 14.85 996.02 14.85C998.07 14.85 999.995 15.375 1001.79 16.425C1003.64 17.475 1005.24 18.9 1006.59 20.7C1007.94 22.5 1008.99 24.625 1009.74 27.075C1010.54 29.475 1010.94 32.05 1010.94 34.8C1010.94 37.6 1010.54 40.2 1009.74 42.6C1008.99 45 1007.94 47.1 1006.59 48.9C1005.24 50.7 1003.64 52.125 1001.79 53.175C999.995 54.175 998.07 54.675 996.02 54.675C993.97 54.675 992.045 54.175 990.245 53.175C988.445 52.125 986.87 50.7 985.52 48.9C984.17 47.1 983.095 45 982.295 42.6C981.545 40.2 981.17 37.6 981.17 34.8ZM986.795 35.025C986.795 37.025 987.02 38.9 987.47 40.65C987.97 42.4 988.62 43.925 989.42 45.225C990.27 46.525 991.245 47.55 992.345 48.3C993.445 49.05 994.645 49.425 995.945 49.425C997.195 49.425 998.37 49.05 999.47 48.3C1000.57 47.55 1001.52 46.525 1002.32 45.225C1003.17 43.925 1003.82 42.4 1004.27 40.65C1004.77 38.9 1005.02 37.025 1005.02 35.025C1005.02 33.075 1004.77 31.225 1004.27 29.475C1003.82 27.725 1003.17 26.2 1002.32 24.9C1001.52 23.55 1000.57 22.5 999.47 21.75C998.37 21 997.195 20.625 995.945 20.625C994.645 20.625 993.445 21 992.345 21.75C991.245 22.5 990.27 23.55 989.42 24.9C988.62 26.2 987.97 27.725 987.47 29.475C987.02 31.225 986.795 33.075 986.795 35.025ZM1060.83 36.375C1060.83 38.725 1060.55 41 1060 43.2C1059.5 45.4 1058.75 47.35 1057.75 49.05C1056.8 50.75 1055.58 52.125 1054.08 53.175C1052.63 54.175 1050.98 54.675 1049.13 54.675C1048.28 54.675 1047.43 54.55 1046.58 54.3C1045.73 54.05 1044.9 53.7 1044.1 53.25C1043.3 52.75 1042.58 52.15 1041.93 51.45C1041.33 50.7 1040.85 49.85 1040.5 48.9C1039.5 50.8 1038.2 52.25 1036.6 53.25C1035.05 54.2 1033.33 54.675 1031.43 54.675C1029.48 54.675 1027.7 54.275 1026.1 53.475C1024.5 52.675 1023.13 51.55 1021.98 50.1C1020.88 48.65 1020 46.875 1019.35 44.775C1018.75 42.675 1018.45 40.35 1018.45 37.8C1018.45 33.9 1019.05 30.55 1020.25 27.75C1021.5 24.9 1023.28 22.525 1025.58 20.625H1018.53V14.85H1051.6V18.675C1054.65 20.475 1056.95 22.9 1058.5 25.95C1060.05 29 1060.83 32.475 1060.83 36.375ZM1056.1 36.225C1056.1 34.025 1055.83 31.975 1055.28 30.075C1054.73 28.175 1053.83 26.525 1052.58 25.125C1051.33 23.725 1049.68 22.625 1047.63 21.825C1045.63 21.025 1043.15 20.625 1040.2 20.625C1037.3 20.625 1034.78 21.05 1032.63 21.9C1030.53 22.75 1028.78 23.925 1027.38 25.425C1025.98 26.875 1024.93 28.625 1024.23 30.675C1023.58 32.675 1023.25 34.85 1023.25 37.2C1023.25 40.8 1023.88 43.65 1025.13 45.75C1026.43 47.85 1028.35 48.9 1030.9 48.9C1032.4 48.9 1033.58 48.6 1034.43 48C1035.33 47.35 1036 46.575 1036.45 45.675C1036.9 44.725 1037.2 43.725 1037.35 42.675C1037.5 41.625 1037.58 40.675 1037.58 39.825C1037.58 39.275 1037.55 38.8 1037.5 38.4C1037.5 38 1037.5 37.7 1037.5 37.5H1042.45C1042.45 39.7 1042.58 41.525 1042.83 42.975C1043.13 44.425 1043.55 45.6 1044.1 46.5C1044.65 47.35 1045.33 47.975 1046.13 48.375C1046.98 48.725 1047.98 48.9 1049.13 48.9C1049.98 48.9 1050.83 48.65 1051.68 48.15C1052.53 47.65 1053.28 46.875 1053.93 45.825C1054.58 44.775 1055.1 43.475 1055.5 41.925C1055.9 40.325 1056.1 38.425 1056.1 36.225ZM1061.75 10.95C1061.75 13.7 1060.83 16 1058.98 17.85C1057.08 19.65 1054.25 20.55 1050.5 20.55H1045.48V14.775H1049.98C1050.33 14.775 1050.88 14.775 1051.63 14.775C1052.38 14.725 1053.13 14.575 1053.88 14.325C1054.63 14.025 1055.28 13.55 1055.83 12.9C1056.38 12.25 1056.65 11.325 1056.65 10.125C1056.65 8.075 1055.58 6.65 1053.43 5.85C1053.63 6.1 1053.75 6.3 1053.8 6.45C1053.85 6.55 1053.88 6.775 1053.88 7.125C1053.88 8.425 1053.43 9.475 1052.53 10.275C1051.63 11.075 1050.53 11.475 1049.23 11.475C1048.03 11.475 1046.88 11.075 1045.78 10.275C1044.68 9.475 1044.13 8.35 1044.13 6.9C1044.13 6 1044.35 5.175 1044.8 4.425C1045.2 3.675 1045.75 3.05 1046.45 2.55C1047.1 2.05 1047.88 1.675 1048.78 1.425C1049.63 1.125 1050.53 0.974995 1051.48 0.974995C1055.08 0.974995 1057.7 1.925 1059.35 3.825C1060.95 5.725 1061.75 8.1 1061.75 10.95ZM1069.35 34.8C1069.35 32.05 1069.73 29.475 1070.48 27.075C1071.28 24.625 1072.35 22.5 1073.7 20.7C1075.05 18.9 1076.63 17.475 1078.43 16.425C1080.23 15.375 1082.15 14.85 1084.2 14.85C1086.25 14.85 1088.18 15.375 1089.98 16.425C1091.83 17.475 1093.43 18.9 1094.78 20.7C1096.13 22.5 1097.18 24.625 1097.93 27.075C1098.73 29.475 1099.13 32.05 1099.13 34.8C1099.13 37.6 1098.73 40.2 1097.93 42.6C1097.18 45 1096.13 47.1 1094.78 48.9C1093.43 50.7 1091.83 52.125 1089.98 53.175C1088.18 54.175 1086.25 54.675 1084.2 54.675C1082.15 54.675 1080.23 54.175 1078.43 53.175C1076.63 52.125 1075.05 50.7 1073.7 48.9C1072.35 47.1 1071.28 45 1070.48 42.6C1069.73 40.2 1069.35 37.6 1069.35 34.8ZM1074.98 35.025C1074.98 37.025 1075.2 38.9 1075.65 40.65C1076.15 42.4 1076.8 43.925 1077.6 45.225C1078.45 46.525 1079.43 47.55 1080.53 48.3C1081.63 49.05 1082.83 49.425 1084.13 49.425C1085.38 49.425 1086.55 49.05 1087.65 48.3C1088.75 47.55 1089.7 46.525 1090.5 45.225C1091.35 43.925 1092 42.4 1092.45 40.65C1092.95 38.9 1093.2 37.025 1093.2 35.025C1093.2 33.075 1092.95 31.225 1092.45 29.475C1092 27.725 1091.35 26.2 1090.5 24.9C1089.7 23.55 1088.75 22.5 1087.65 21.75C1086.55 21 1085.38 20.625 1084.13 20.625C1082.83 20.625 1081.63 21 1080.53 21.75C1079.43 22.5 1078.45 23.55 1077.6 24.9C1076.8 26.2 1076.15 27.725 1075.65 29.475C1075.2 31.225 1074.98 33.075 1074.98 35.025ZM1147.58 36.375C1147.58 39.225 1147.26 41.775 1146.61 44.025C1146.01 46.275 1145.16 48.2 1144.06 49.8C1142.96 51.35 1141.66 52.55 1140.16 53.4C1138.66 54.25 1137.03 54.675 1135.28 54.675C1131.03 54.675 1128.36 52.7 1127.26 48.75C1125.86 52.7 1122.81 54.675 1118.11 54.675C1116.76 54.675 1115.41 54.35 1114.06 53.7C1112.71 53 1111.48 51.95 1110.38 50.55C1109.28 49.15 1108.38 47.425 1107.68 45.375C1106.98 43.275 1106.63 40.8 1106.63 37.95C1106.63 35.85 1106.76 33.95 1107.01 32.25C1107.31 30.5 1107.73 28.9 1108.28 27.45C1108.83 26 1109.51 24.65 1110.31 23.4C1111.11 22.15 1112.01 20.95 1113.01 19.8C1112.36 19.15 1111.88 18.425 1111.58 17.625C1111.33 16.775 1111.21 15.55 1111.21 13.95C1111.21 12.7 1111.43 11.35 1111.88 9.9C1112.33 8.45 1113.08 7.1 1114.13 5.85C1115.18 4.6 1116.58 3.575 1118.33 2.775C1120.13 1.925 1122.36 1.5 1125.01 1.5C1127.31 1.5 1129.38 1.95 1131.23 2.85C1133.08 3.75 1134.68 5 1136.03 6.6C1137.38 8.15 1138.48 10 1139.33 12.15C1140.23 14.3 1140.86 16.625 1141.21 19.125C1143.31 21.525 1144.88 24.175 1145.93 27.075C1147.03 29.975 1147.58 33.075 1147.58 36.375ZM1135.36 15.9C1135.06 14.9 1134.61 13.925 1134.01 12.975C1133.41 12.025 1132.66 11.175 1131.76 10.425C1130.91 9.675 1129.93 9.075 1128.83 8.625C1127.73 8.175 1126.53 7.95 1125.23 7.95C1122.78 7.95 1120.78 8.45 1119.23 9.45C1117.73 10.4 1116.98 11.8 1116.98 13.65C1116.98 14.9 1117.26 15.95 1117.81 16.8C1118.31 16.35 1118.96 15.975 1119.76 15.675C1120.61 15.325 1121.48 15.05 1122.38 14.85C1123.33 14.65 1124.26 14.525 1125.16 14.475C1126.06 14.375 1126.86 14.325 1127.56 14.325C1129.01 14.325 1130.38 14.475 1131.68 14.775C1132.98 15.075 1134.21 15.45 1135.36 15.9ZM1142.78 36.675C1142.78 34.525 1142.51 32.475 1141.96 30.525C1141.46 28.525 1140.61 26.8 1139.41 25.35C1138.26 23.85 1136.73 22.675 1134.83 21.825C1132.98 20.925 1130.71 20.475 1128.01 20.475C1124.96 20.475 1122.36 20.95 1120.21 21.9C1118.11 22.85 1116.41 24.125 1115.11 25.725C1113.81 27.275 1112.86 29.075 1112.26 31.125C1111.66 33.125 1111.36 35.2 1111.36 37.35C1111.36 39.3 1111.56 40.975 1111.96 42.375C1112.41 43.775 1112.96 44.925 1113.61 45.825C1114.31 46.725 1115.06 47.375 1115.86 47.775C1116.71 48.175 1117.56 48.375 1118.41 48.375C1120.71 48.375 1122.31 47.575 1123.21 45.975C1124.16 44.325 1124.76 41.5 1125.01 37.5H1129.73C1129.73 41.65 1130.23 44.5 1131.23 46.05C1132.23 47.6 1133.71 48.375 1135.66 48.375C1137.56 48.375 1139.21 47.4 1140.61 45.45C1142.06 43.5 1142.78 40.575 1142.78 36.675ZM1189.85 9.15C1189.85 12 1189.32 14.3 1188.27 16.05C1187.27 17.75 1185.92 18.975 1184.22 19.725C1185.27 20.625 1186.15 21.675 1186.85 22.875C1187.6 24.075 1188.17 25.35 1188.57 26.7C1189.02 28.05 1189.35 29.45 1189.55 30.9C1189.75 32.3 1189.85 33.7 1189.85 35.1C1189.85 42.95 1187.47 49.4 1182.72 54.45L1179.8 50.475C1181.8 48.375 1183.22 46.05 1184.07 43.5C1184.97 40.95 1185.42 38.4 1185.42 35.85C1185.27 30.55 1184.1 26.7 1181.9 24.3C1179.7 21.85 1176.45 20.625 1172.15 20.625C1164.2 20.625 1160.05 25.85 1159.7 36.3C1159.7 43 1161.65 47.875 1165.55 50.925L1162.7 54.75C1161.8 54.05 1160.9 53.225 1160 52.275C1159.15 51.275 1158.35 50.075 1157.6 48.675C1156.9 47.275 1156.32 45.65 1155.87 43.8C1155.47 41.9 1155.27 39.7 1155.27 37.2C1155.27 33.4 1155.72 30.1 1156.62 27.3C1157.57 24.45 1159.02 22.225 1160.97 20.625H1155.12V14.85H1180.92C1182.07 14.7 1183.05 14.25 1183.85 13.5C1184.7 12.7 1185.12 11.325 1185.12 9.375C1185.12 8.525 1184.97 7.625 1184.67 6.675C1184.37 5.675 1183.85 5 1183.1 4.65L1187.22 1.425C1188.07 2.025 1188.72 3.05 1189.17 4.5C1189.62 5.95 1189.85 7.5 1189.85 9.15ZM1200.61 49.65C1202.91 49.65 1204.56 49.1 1205.56 48C1206.61 46.9 1207.13 45.475 1207.13 43.725C1207.13 42.575 1206.86 41.525 1206.31 40.575C1205.81 39.625 1205.23 38.625 1204.58 37.575C1203.98 36.475 1203.41 35.25 1202.86 33.9C1202.36 32.55 1202.11 30.9 1202.11 28.95C1202.11 26.4 1202.61 24.25 1203.61 22.5C1204.66 20.7 1206.01 19.25 1207.66 18.15C1209.36 17.05 1211.31 16.25 1213.51 15.75C1215.76 15.25 1218.08 15 1220.48 15C1223.33 15 1225.91 15.55 1228.21 16.65C1230.56 17.7 1232.53 19.175 1234.13 21.075C1235.73 22.925 1236.96 25.125 1237.81 27.675C1238.71 30.225 1239.16 32.975 1239.16 35.925C1239.16 37.975 1238.86 40.125 1238.26 42.375C1237.71 44.575 1236.86 46.6 1235.71 48.45C1234.61 50.3 1233.21 51.825 1231.51 53.025C1229.86 54.175 1227.93 54.75 1225.73 54.75C1224.18 54.75 1222.83 54.5 1221.68 54C1220.53 53.45 1219.56 52.7 1218.76 51.75C1218.01 50.8 1217.43 49.7 1217.03 48.45C1216.68 47.2 1216.51 45.825 1216.51 44.325C1216.51 42.525 1216.78 40.975 1217.33 39.675C1217.88 38.325 1218.61 37.225 1219.51 36.375C1220.41 35.475 1221.46 34.8 1222.66 34.35C1223.86 33.9 1225.11 33.675 1226.41 33.675C1227.31 33.675 1228.16 33.85 1228.96 34.2C1229.76 34.5 1230.48 34.95 1231.13 35.55C1231.78 36.1 1232.33 36.75 1232.78 37.5C1233.23 38.25 1233.53 39.05 1233.68 39.9C1233.88 38.95 1234.03 38.075 1234.13 37.275C1234.23 36.425 1234.28 35.6 1234.28 34.8C1234.28 32.05 1233.78 29.725 1232.78 27.825C1231.78 25.925 1230.56 24.425 1229.11 23.325C1227.66 22.175 1226.13 21.35 1224.53 20.85C1222.98 20.35 1221.61 20.1 1220.41 20.1C1219.16 20.1 1217.76 20.175 1216.21 20.325C1214.66 20.475 1213.21 20.875 1211.86 21.525C1210.51 22.125 1209.36 23.05 1208.41 24.3C1207.51 25.5 1207.06 27.175 1207.06 29.325C1207.06 30.925 1207.33 32.35 1207.88 33.6C1208.48 34.8 1209.11 35.975 1209.76 37.125C1210.46 38.275 1211.08 39.45 1211.63 40.65C1212.23 41.85 1212.53 43.225 1212.53 44.775C1212.53 48.025 1211.43 50.475 1209.23 52.125C1207.08 53.775 1204.28 54.6 1200.83 54.6C1197.08 54.6 1193.96 53.625 1191.46 51.675C1188.96 49.675 1187.08 46.75 1185.83 42.9L1187.26 38.025C1189.11 41.975 1191.13 44.9 1193.33 46.8C1195.53 48.7 1197.96 49.65 1200.61 49.65ZM1230.31 44.1C1230.31 42.5 1229.93 41.225 1229.18 40.275C1228.43 39.275 1227.31 38.775 1225.81 38.775C1224.81 38.775 1223.83 39.225 1222.88 40.125C1221.93 40.975 1221.46 42.45 1221.46 44.55C1221.46 46.4 1221.93 47.775 1222.88 48.675C1223.83 49.575 1224.88 50.025 1226.03 50.025C1227.08 50.025 1228.06 49.6 1228.96 48.75C1229.86 47.85 1230.31 46.3 1230.31 44.1ZM1318.73 33.225C1318.73 37.175 1318.38 40.525 1317.68 43.275C1316.98 45.975 1316.08 48.175 1314.98 49.875C1313.88 51.575 1312.63 52.8 1311.23 53.55C1309.88 54.3 1308.53 54.675 1307.18 54.675C1305.28 54.675 1303.71 54.3 1302.46 53.55C1301.26 52.8 1300.31 51.8 1299.61 50.55C1298.96 49.3 1298.51 47.875 1298.26 46.275C1298.01 44.675 1297.88 43.05 1297.88 41.4C1297.88 40.85 1297.78 40.2 1297.58 39.45C1297.38 38.65 1297.06 37.9 1296.61 37.2C1296.21 36.5 1295.66 35.925 1294.96 35.475C1294.26 34.975 1293.41 34.725 1292.41 34.725C1291.26 34.725 1290.31 35 1289.56 35.55C1288.86 36.1 1288.31 36.775 1287.91 37.575C1287.51 38.325 1287.21 39.15 1287.01 40.05C1286.86 40.95 1286.78 41.75 1286.78 42.45C1286.78 43.7 1286.93 44.85 1287.23 45.9C1287.53 46.95 1287.91 47.875 1288.36 48.675C1288.81 49.425 1289.28 50.05 1289.78 50.55C1290.28 51.05 1290.73 51.4 1291.13 51.6L1287.76 56.325C1285.86 54.575 1284.36 52.6 1283.26 50.4C1282.16 48.15 1281.61 45.525 1281.61 42.525C1281.61 41.675 1281.76 40.5 1282.06 39C1282.36 37.45 1282.93 35.95 1283.78 34.5C1284.63 33 1285.78 31.7 1287.23 30.6C1288.73 29.5 1290.66 28.95 1293.01 28.95C1295.86 28.95 1298.01 30.05 1299.46 32.25C1300.96 34.4 1301.78 37.125 1301.93 40.425C1302.03 42.675 1302.51 44.625 1303.36 46.275C1304.26 47.875 1305.48 48.675 1307.03 48.675C1308.53 48.675 1309.78 48.25 1310.78 47.4C1311.78 46.5 1312.58 45.325 1313.18 43.875C1313.78 42.425 1314.21 40.775 1314.46 38.925C1314.71 37.075 1314.83 35.15 1314.83 33.15C1314.53 16.85 1310.23 8.3 1301.93 7.5C1302.43 8.6 1302.76 9.65 1302.91 10.65C1303.06 11.6 1303.13 12.4 1303.13 13.05C1303.13 14.8 1302.83 16.3 1302.23 17.55C1301.68 18.8 1300.93 19.85 1299.98 20.7C1299.03 21.5 1297.93 22.1 1296.68 22.5C1295.48 22.9 1294.21 23.1 1292.86 23.1C1290.16 23.1 1287.96 22.325 1286.26 20.775C1284.56 19.175 1283.71 16.725 1283.71 13.425C1283.71 9.925 1284.98 7.075 1287.53 4.875C1290.13 2.625 1293.93 1.5 1298.93 1.5C1312.13 2.2 1318.73 12.775 1318.73 33.225ZM1298.71 13.35C1298.71 12.05 1298.38 10.9 1297.73 9.9C1297.13 8.9 1295.88 8.4 1293.98 8.4C1292.53 8.4 1291.31 8.825 1290.31 9.675C1289.31 10.525 1288.81 11.8 1288.81 13.5C1288.81 15.1 1289.26 16.225 1290.16 16.875C1291.06 17.475 1292.11 17.775 1293.31 17.775C1293.91 17.775 1294.53 17.7 1295.18 17.55C1295.83 17.4 1296.41 17.15 1296.91 16.8C1297.46 16.45 1297.88 16 1298.18 15.45C1298.53 14.85 1298.71 14.15 1298.71 13.35ZM1349.76 25.65C1349.76 27.1 1349.54 28.475 1349.09 29.775C1348.64 31.025 1348.01 32.125 1347.21 33.075C1346.41 34.025 1345.46 34.775 1344.36 35.325C1343.26 35.875 1342.09 36.15 1340.84 36.15C1338.09 36.05 1335.99 35.3 1334.54 33.9C1333.09 32.5 1332.14 30.675 1331.69 28.425C1331.34 29.525 1331.09 30.825 1330.94 32.325C1330.79 33.825 1330.71 35.175 1330.71 36.375C1330.71 38.175 1330.89 39.85 1331.24 41.4C1331.64 42.95 1332.26 44.325 1333.11 45.525C1333.96 46.675 1335.09 47.575 1336.49 48.225C1337.89 48.875 1339.64 49.2 1341.74 49.2C1342.09 49.2 1342.61 49.1 1343.31 48.9C1344.01 48.7 1344.74 48.4 1345.49 48C1346.29 47.6 1347.04 47.15 1347.74 46.65C1348.44 46.1 1348.96 45.475 1349.31 44.775V51.675C1348.61 52.325 1347.54 53 1346.09 53.7C1344.64 54.35 1343.06 54.675 1341.36 54.675C1336.11 54.675 1332.29 53.1 1329.89 49.95C1327.49 46.75 1326.29 42.225 1326.29 36.375C1326.29 33.025 1326.54 30.025 1327.04 27.375C1327.59 24.725 1328.44 22.475 1329.59 20.625C1330.74 18.775 1332.19 17.35 1333.94 16.35C1335.69 15.35 1337.81 14.85 1340.31 14.85C1342.01 14.85 1343.46 15.125 1344.66 15.675C1345.86 16.225 1346.84 17 1347.59 18C1348.34 18.95 1348.89 20.075 1349.24 21.375C1349.59 22.675 1349.76 24.1 1349.76 25.65ZM1335.81 25.875C1335.81 27.325 1336.26 28.55 1337.16 29.55C1338.11 30.55 1339.24 31.05 1340.54 31.05C1341.84 31.05 1342.96 30.55 1343.91 29.55C1344.86 28.55 1345.34 27.325 1345.34 25.875C1345.34 24.425 1344.86 23.2 1343.91 22.2C1342.96 21.15 1341.84 20.625 1340.54 20.625C1339.24 20.625 1338.11 21.15 1337.16 22.2C1336.26 23.2 1335.81 24.425 1335.81 25.875ZM1421.46 9.15C1421.46 11.2 1421.18 12.95 1420.63 14.4C1420.13 15.8 1419.41 16.975 1418.46 17.925C1417.56 18.875 1416.46 19.575 1415.16 20.025C1413.91 20.425 1412.56 20.625 1411.11 20.625C1411.56 21.675 1411.78 22.65 1411.78 23.55C1411.78 24.15 1411.71 24.75 1411.56 25.35C1411.41 25.9 1411.16 26.4 1410.81 26.85H1421.46V31.875H1417.78C1418.93 33.175 1419.86 34.55 1420.56 36C1421.26 37.45 1421.61 39.175 1421.61 41.175C1421.61 43.025 1421.31 44.775 1420.71 46.425C1420.16 48.025 1419.28 49.45 1418.08 50.7C1416.88 51.9 1415.36 52.875 1413.51 53.625C1411.71 54.325 1409.53 54.675 1406.98 54.675C1404.38 54.675 1402.13 54.325 1400.23 53.625C1398.38 52.925 1396.86 51.975 1395.66 50.775C1394.46 49.525 1393.56 48.1 1392.96 46.5C1392.41 44.85 1392.13 43.075 1392.13 41.175C1392.13 39.175 1392.51 37.45 1393.26 36C1394.06 34.55 1395.03 33.175 1396.18 31.875H1392.13V26.85H1403.61C1403.01 25.95 1402.71 24.85 1402.71 23.55C1402.71 22.6 1402.93 21.625 1403.38 20.625H1392.13V14.85H1412.01C1412.61 14.8 1413.18 14.7 1413.73 14.55C1414.33 14.35 1414.86 14.05 1415.31 13.65C1415.76 13.25 1416.11 12.7 1416.36 12C1416.61 11.3 1416.73 10.425 1416.73 9.375C1416.73 8.525 1416.58 7.625 1416.28 6.675C1415.98 5.675 1415.46 5 1414.71 4.65L1418.83 1.425C1419.68 2.025 1420.33 3.05 1420.78 4.5C1421.23 5.95 1421.46 7.5 1421.46 9.15ZM1397.68 41.175C1397.68 42.375 1397.93 43.5 1398.43 44.55C1398.93 45.55 1399.58 46.45 1400.38 47.25C1401.23 48 1402.21 48.6 1403.31 49.05C1404.46 49.5 1405.68 49.725 1406.98 49.725C1408.23 49.725 1409.43 49.5 1410.58 49.05C1411.73 48.6 1412.71 48 1413.51 47.25C1414.36 46.45 1415.03 45.55 1415.53 44.55C1416.03 43.5 1416.28 42.375 1416.28 41.175C1416.28 39.975 1416.03 38.875 1415.53 37.875C1415.03 36.825 1414.36 35.9 1413.51 35.1C1412.71 34.3 1411.73 33.675 1410.58 33.225C1409.43 32.775 1408.23 32.55 1406.98 32.55C1405.68 32.55 1404.46 32.775 1403.31 33.225C1402.21 33.675 1401.23 34.3 1400.38 35.1C1399.58 35.9 1398.93 36.825 1398.43 37.875C1397.93 38.875 1397.68 39.975 1397.68 41.175ZM1465.49 9.225C1465.49 11.825 1465.07 13.95 1464.22 15.6C1463.37 17.25 1462.24 18.5 1460.84 19.35C1464.29 22.9 1466.02 29.075 1466.02 37.875C1466.02 49.075 1462.49 54.675 1455.44 54.675C1449.34 54.675 1446.12 50.85 1445.77 43.2C1445.77 42 1445.72 40.85 1445.62 39.75C1445.57 38.6 1445.37 37.575 1445.02 36.675C1444.67 35.775 1444.12 35.05 1443.37 34.5C1442.62 33.95 1441.57 33.675 1440.22 33.675C1438.27 33.675 1436.69 34.45 1435.49 36C1434.34 37.5 1433.77 39.375 1433.77 41.625C1433.77 43.925 1434.24 45.925 1435.19 47.625C1436.19 49.275 1437.32 50.55 1438.57 51.45L1435.27 55.65C1434.57 55.15 1433.84 54.45 1433.09 53.55C1432.39 52.6 1431.74 51.525 1431.14 50.325C1430.54 49.125 1430.04 47.8 1429.64 46.35C1429.29 44.85 1429.12 43.275 1429.12 41.625C1429.12 37.425 1430.14 34.075 1432.19 31.575C1434.29 29.075 1437.22 27.825 1440.97 27.825C1442.72 27.825 1444.17 28.2 1445.32 28.95C1446.52 29.7 1447.47 30.65 1448.17 31.8C1448.92 32.95 1449.44 34.225 1449.74 35.625C1450.04 37.025 1450.19 38.35 1450.19 39.6C1450.19 42.6 1450.64 44.85 1451.54 46.35C1452.49 47.85 1453.77 48.625 1455.37 48.675C1459.37 48.275 1461.37 44.575 1461.37 37.575L1461.44 37.65C1461.04 26.85 1458.29 21.175 1453.19 20.625H1429.12V14.85H1456.72C1457.82 14.7 1458.77 14.25 1459.57 13.5C1460.37 12.7 1460.77 11.35 1460.77 9.45C1460.77 8.6 1460.62 7.7 1460.32 6.75C1460.02 5.75 1459.49 5.075 1458.74 4.725L1462.87 1.5C1463.72 2.1 1464.37 3.125 1464.82 4.575C1465.27 6.025 1465.49 7.575 1465.49 9.225ZM1480.25 78.3C1480.25 79.7 1480 80.925 1479.5 81.975H1475.08C1475.73 81.325 1476.1 80.725 1476.2 80.175C1476.35 79.675 1476.43 79.1 1476.43 78.45C1476.43 78.05 1476.4 77.65 1476.35 77.25C1476.35 76.85 1476.3 76.45 1476.2 76.05C1474.95 77.85 1473.23 79.2 1471.03 80.1C1468.88 81.05 1465.9 81.525 1462.1 81.525C1460.85 81.525 1459.58 81.375 1458.28 81.075C1456.98 80.825 1455.8 80.4 1454.75 79.8C1453.7 79.25 1452.85 78.525 1452.2 77.625C1451.5 76.775 1451.15 75.725 1451.15 74.475C1451.15 73.075 1451.58 71.925 1452.43 71.025C1453.23 70.125 1454.28 69.4 1455.58 68.85C1456.88 68.35 1458.3 67.975 1459.85 67.725C1461.4 67.525 1462.93 67.425 1464.43 67.425C1466.83 67.425 1468.85 67.625 1470.5 68.025C1472.15 68.425 1473.55 68.925 1474.7 69.525V69.075C1474.7 67.125 1474.38 65.45 1473.73 64.05C1473.13 62.65 1472.1 61.525 1470.65 60.675L1473.73 58.125C1475.58 59.725 1476.83 61.525 1477.48 63.525C1478.13 65.525 1478.45 67.8 1478.45 70.35C1478.45 70.55 1478.45 70.775 1478.45 71.025C1478.45 71.275 1478.43 71.575 1478.38 71.925C1479.63 73.475 1480.25 75.6 1480.25 78.3ZM1473.95 73.35C1472.9 72.75 1471.63 72.2 1470.13 71.7C1468.68 71.25 1466.83 71.025 1464.58 71.025C1463.58 71.025 1462.58 71.1 1461.58 71.25C1460.53 71.4 1459.58 71.625 1458.73 71.925C1457.88 72.225 1457.18 72.6 1456.63 73.05C1456.08 73.5 1455.8 74.025 1455.8 74.625C1455.8 75.375 1456 75.975 1456.4 76.425C1456.8 76.925 1457.33 77.3 1457.98 77.55C1458.63 77.85 1459.38 78.05 1460.23 78.15C1461.08 78.3 1461.95 78.375 1462.85 78.375C1463.7 78.375 1464.65 78.3 1465.7 78.15C1466.75 78.05 1467.78 77.8 1468.78 77.4C1469.78 77.05 1470.73 76.55 1471.63 75.9C1472.58 75.25 1473.35 74.4 1473.95 73.35ZM1521.78 9.15C1521.78 12.45 1521.1 15 1519.75 16.8C1518.4 18.6 1516.65 19.775 1514.5 20.325C1516.7 21.675 1518.1 24.175 1518.7 27.825C1519.85 29.225 1520.6 30.625 1520.95 32.025C1521.3 33.425 1521.48 35.125 1521.48 37.125C1521.48 48.825 1517.25 54.675 1508.8 54.675C1504.75 54.675 1501.93 52.825 1500.33 49.125C1498.38 52.825 1495.38 54.675 1491.33 54.675C1489.18 54.675 1487.25 54.225 1485.55 53.325C1483.9 52.425 1482.5 51.225 1481.35 49.725C1480.2 48.225 1479.33 46.475 1478.73 44.475C1478.13 42.425 1477.83 40.275 1477.83 38.025C1477.83 34.075 1478.43 30.675 1479.63 27.825C1480.88 24.925 1482.65 22.525 1484.95 20.625H1477.83V14.85H1512.85C1514 14.7 1514.98 14.25 1515.78 13.5C1516.63 12.7 1517.05 11.325 1517.05 9.375C1517.05 8.525 1516.9 7.625 1516.6 6.675C1516.3 5.675 1515.78 5 1515.03 4.65L1519.15 1.425C1520 2.025 1520.65 3.05 1521.1 4.5C1521.55 5.95 1521.78 7.5 1521.78 9.15ZM1515.85 42.6C1515.3 43.1 1514.7 43.425 1514.05 43.575C1513.45 43.675 1512.73 43.725 1511.88 43.725C1509.78 43.725 1508 42.95 1506.55 41.4C1505.15 39.8 1504.45 37.475 1504.45 34.425C1504.45 32.025 1505.18 30.05 1506.63 28.5C1508.13 26.9 1510.08 26.025 1512.48 25.875C1511.13 22.375 1506.85 20.625 1499.65 20.625C1496.5 20.775 1493.85 21.3 1491.7 22.2C1489.6 23.1 1487.88 24.275 1486.53 25.725C1485.23 27.175 1484.28 28.875 1483.68 30.825C1483.13 32.725 1482.85 34.775 1482.85 36.975C1482.85 40.475 1483.53 43.275 1484.88 45.375C1486.23 47.475 1488.1 48.525 1490.5 48.525C1492.05 48.525 1493.28 48.3 1494.18 47.85C1495.08 47.35 1495.75 46.65 1496.2 45.75C1496.7 44.8 1497.03 43.625 1497.18 42.225C1497.33 40.825 1497.43 39.2 1497.48 37.35H1502.65C1502.65 39.75 1502.8 41.7 1503.1 43.2C1503.45 44.65 1503.93 45.775 1504.53 46.575C1505.18 47.375 1505.93 47.9 1506.78 48.15C1507.68 48.4 1508.7 48.525 1509.85 48.525C1511.45 48.525 1512.8 47.975 1513.9 46.875C1515.05 45.775 1515.7 44.35 1515.85 42.6ZM1516.53 34.425C1516.53 33.325 1516.18 32.475 1515.48 31.875C1514.78 31.275 1513.95 30.975 1513 30.975C1512.3 30.975 1511.6 31.25 1510.9 31.8C1510.25 32.3 1509.93 33.15 1509.93 34.35C1509.93 35.45 1510.18 36.35 1510.68 37.05C1511.18 37.75 1511.9 38.1 1512.85 38.1C1513.8 38.1 1514.65 37.775 1515.4 37.125C1516.15 36.475 1516.53 35.575 1516.53 34.425ZM1567.34 20.025C1568.64 21.225 1569.79 23.175 1570.79 25.875C1571.79 28.525 1572.29 32.1 1572.29 36.6C1572.29 42.6 1571.07 47.125 1568.62 50.175C1566.17 53.225 1562.89 54.75 1558.79 54.75C1556.79 54.75 1555.07 54.25 1553.62 53.25C1552.17 52.2 1551.19 50.95 1550.69 49.5C1549.49 51.25 1548.04 52.55 1546.34 53.4C1544.69 54.2 1542.94 54.6 1541.09 54.6C1539.44 54.6 1537.89 54.325 1536.44 53.775C1535.04 53.175 1533.79 52.275 1532.69 51.075C1531.64 49.825 1530.79 48.25 1530.14 46.35C1529.54 44.45 1529.24 42.175 1529.24 39.525C1529.24 37.375 1529.52 35.5 1530.07 33.9C1530.62 32.3 1531.32 30.975 1532.17 29.925C1533.07 28.875 1534.02 28.1 1535.02 27.6C1536.07 27.1 1537.09 26.85 1538.09 26.85C1539.39 26.85 1540.52 27.375 1541.47 28.425C1542.47 29.475 1542.97 30.825 1542.97 32.475C1542.97 34.225 1542.49 35.7 1541.54 36.9C1540.59 38.1 1539.47 38.7 1538.17 38.7C1536.77 38.7 1535.62 38.05 1534.72 36.75C1534.47 37.3 1534.29 37.875 1534.19 38.475C1534.14 39.075 1534.12 39.675 1534.12 40.275C1534.12 41.525 1534.27 42.725 1534.57 43.875C1534.87 44.975 1535.32 45.95 1535.92 46.8C1536.52 47.6 1537.27 48.25 1538.17 48.75C1539.12 49.25 1540.22 49.5 1541.47 49.5C1543.37 49.5 1544.97 48.6 1546.27 46.8C1547.62 45 1548.29 42.7 1548.29 39.9C1548.29 38.75 1548.19 37.675 1547.99 36.675H1553.47C1553.32 37.325 1553.19 37.975 1553.09 38.625C1552.99 39.225 1552.94 39.825 1552.94 40.425C1552.94 42.775 1553.52 44.775 1554.67 46.425C1555.82 48.075 1557.44 48.9 1559.54 48.9C1560.44 48.9 1561.37 48.75 1562.32 48.45C1563.32 48.1 1564.22 47.45 1565.02 46.5C1565.82 45.55 1566.47 44.2 1566.97 42.45C1567.52 40.7 1567.79 38.425 1567.79 35.625C1567.79 31.575 1567.27 28.4 1566.22 26.1C1565.17 23.8 1563.74 22.25 1561.94 21.45C1561.49 21.25 1560.99 21.1 1560.44 21C1559.89 20.9 1559.04 20.825 1557.89 20.775C1556.74 20.725 1555.17 20.7 1553.17 20.7C1551.22 20.65 1548.62 20.625 1545.37 20.625H1529.77V14.7C1529.82 14.75 1529.87 14.8 1529.92 14.85C1530.02 14.85 1530.22 14.875 1530.52 14.925C1530.82 14.925 1531.27 14.925 1531.87 14.925C1532.47 14.925 1533.29 14.925 1534.34 14.925C1535.39 14.925 1536.72 14.925 1538.32 14.925C1539.92 14.925 1541.84 14.925 1544.09 14.925C1546.39 14.875 1549.07 14.85 1552.12 14.85C1555.22 14.85 1558.79 14.85 1562.84 14.85L1562.92 14.925L1567.34 20.025ZM1602.08 35.7C1602.08 38.65 1601.73 41.3 1601.03 43.65C1600.33 46 1599.38 48 1598.18 49.65C1596.98 51.25 1595.58 52.475 1593.98 53.325C1592.38 54.175 1590.68 54.6 1588.88 54.6C1586.78 54.6 1584.98 54.175 1583.48 53.325C1581.98 52.475 1580.75 51.375 1579.8 50.025C1578.9 48.675 1578.23 47.125 1577.78 45.375C1577.38 43.625 1577.18 41.85 1577.18 40.05C1577.18 35.65 1578.05 32.3 1579.8 30C1581.55 27.65 1583.8 26.475 1586.55 26.475C1588.05 26.475 1589.25 27.075 1590.15 28.275C1591.1 29.475 1591.58 31 1591.58 32.85C1591.58 34.6 1591.08 36.025 1590.08 37.125C1589.13 38.175 1587.93 38.7 1586.48 38.7C1585.78 38.7 1585.1 38.525 1584.45 38.175C1583.8 37.775 1583.23 37.3 1582.73 36.75C1582.48 37.3 1582.3 37.825 1582.2 38.325C1582.15 38.775 1582.13 39.35 1582.13 40.05C1582.13 41.3 1582.28 42.475 1582.58 43.575C1582.93 44.675 1583.4 45.65 1584 46.5C1584.6 47.35 1585.33 48.025 1586.18 48.525C1587.03 49.025 1588 49.275 1589.1 49.275C1589.8 49.275 1590.63 49.05 1591.58 48.6C1592.58 48.15 1593.5 47.35 1594.35 46.2C1595.25 45 1596 43.425 1596.6 41.475C1597.2 39.475 1597.5 36.95 1597.5 33.9C1597.5 32.65 1597.3 31.25 1596.9 29.7C1596.5 28.15 1595.83 26.7 1594.88 25.35C1593.98 24 1592.78 22.875 1591.28 21.975C1589.78 21.025 1587.95 20.55 1585.8 20.55H1556.93V14.775H1587.23C1589.28 14.775 1591.2 15.225 1593 16.125C1594.8 16.975 1596.38 18.275 1597.73 20.025C1599.08 21.725 1600.13 23.9 1600.88 26.55C1601.68 29.15 1602.08 32.2 1602.08 35.7ZM1644.24 34.8C1644.24 39.1 1643.66 42.825 1642.51 45.975C1641.41 49.125 1639.69 52.025 1637.34 54.675L1633.89 49.875C1634.84 48.825 1635.66 47.825 1636.36 46.875C1637.11 45.875 1637.71 44.85 1638.16 43.8C1638.66 42.75 1639.01 41.575 1639.21 40.275C1639.46 38.975 1639.59 37.45 1639.59 35.7C1639.59 33.7 1639.41 31.75 1639.06 29.85C1638.71 27.9 1638.09 26.175 1637.19 24.675C1636.34 23.175 1635.14 21.975 1633.59 21.075C1632.09 20.175 1630.14 19.725 1627.74 19.725C1625.84 19.725 1624.06 20.075 1622.41 20.775C1620.81 21.425 1619.44 22.45 1618.29 23.85C1617.14 25.25 1616.24 27 1615.59 29.1C1614.94 31.15 1614.61 33.55 1614.61 36.3C1614.61 38.1 1614.71 39.65 1614.91 40.95C1615.16 42.2 1615.51 43.375 1615.96 44.475C1616.46 45.525 1617.04 46.525 1617.69 47.475C1618.39 48.425 1619.19 49.45 1620.09 50.55L1616.49 54.6C1615.74 54 1614.96 53.2 1614.16 52.2C1613.36 51.15 1612.61 49.9 1611.91 48.45C1611.26 46.95 1610.71 45.275 1610.26 43.425C1609.81 41.525 1609.59 39.45 1609.59 37.2C1609.59 35.8 1609.66 34.325 1609.81 32.775C1610.01 31.175 1610.34 29.6 1610.79 28.05C1611.24 26.5 1611.81 25 1612.51 23.55C1613.26 22.05 1614.19 20.7 1615.29 19.5C1613.54 18.35 1612.66 16.1 1612.66 12.75C1612.66 11.05 1612.99 9.5 1613.64 8.1C1614.34 6.7 1615.24 5.525 1616.34 4.575C1617.49 3.575 1618.81 2.825 1620.31 2.325C1621.86 1.775 1623.51 1.5 1625.26 1.5C1627.91 1.5 1630.21 2.075 1632.16 3.225C1634.16 4.375 1635.81 5.925 1637.11 7.875C1638.46 9.825 1639.49 12.075 1640.19 14.625C1640.94 17.175 1641.39 19.825 1641.54 22.575C1642.79 24.825 1643.54 27.05 1643.79 29.25C1644.09 31.45 1644.24 33.3 1644.24 34.8ZM1635.84 16.125C1635.79 15.375 1635.49 14.5 1634.94 13.5C1634.39 12.5 1633.64 11.575 1632.69 10.725C1631.74 9.825 1630.59 9.075 1629.24 8.475C1627.94 7.875 1626.49 7.575 1624.89 7.575C1623.04 7.575 1621.44 8.05 1620.09 9C1618.74 9.9 1618.06 11.275 1618.06 13.125C1618.06 13.825 1618.19 14.375 1618.44 14.775C1618.69 15.125 1619.06 15.575 1619.56 16.125C1620.56 15.375 1621.79 14.85 1623.24 14.55C1624.74 14.25 1626.34 14.1 1628.04 14.1C1628.84 14.1 1629.94 14.2 1631.34 14.4C1632.79 14.6 1634.29 15.175 1635.84 16.125ZM1686.2 9.15C1686.2 12 1685.68 14.3 1684.63 16.05C1683.63 17.75 1682.28 18.975 1680.58 19.725C1684.33 22.875 1686.2 27.65 1686.2 34.05C1686.2 36.75 1685.9 39.35 1685.3 41.85C1684.7 44.3 1683.73 46.475 1682.38 48.375C1681.03 50.275 1679.23 51.8 1676.98 52.95C1674.78 54.1 1672.08 54.675 1668.88 54.675C1665.88 54.675 1663.3 54.15 1661.15 53.1C1659 52.05 1657.23 50.6 1655.83 48.75C1654.48 46.9 1653.45 44.725 1652.75 42.225C1652.1 39.725 1651.78 37.05 1651.78 34.2C1651.78 31.05 1652.25 28.375 1653.2 26.175C1654.2 23.975 1655.48 22.125 1657.03 20.625H1651.7V14.775C1651.75 14.825 1653.73 14.85 1657.63 14.85C1661.58 14.85 1667.93 14.85 1676.68 14.85C1677.33 14.8 1677.93 14.7 1678.48 14.55C1679.08 14.35 1679.6 14.05 1680.05 13.65C1680.5 13.25 1680.85 12.7 1681.1 12C1681.35 11.3 1681.48 10.425 1681.48 9.375C1681.48 8.525 1681.33 7.625 1681.03 6.675C1680.73 5.675 1680.2 5 1679.45 4.65L1683.58 1.425C1684.43 2.025 1685.08 3.05 1685.53 4.5C1685.98 5.95 1686.2 7.5 1686.2 9.15ZM1681.7 34.35C1681.7 33.85 1681.68 33.175 1681.63 32.325C1681.58 31.425 1681.43 30.475 1681.18 29.475C1680.98 28.425 1680.63 27.375 1680.13 26.325C1679.63 25.275 1678.93 24.325 1678.03 23.475C1677.13 22.625 1676 21.95 1674.65 21.45C1673.3 20.9 1671.65 20.625 1669.7 20.625C1667.4 20.625 1665.43 21.025 1663.78 21.825C1662.13 22.625 1660.75 23.675 1659.65 24.975C1658.6 26.225 1657.83 27.675 1657.33 29.325C1656.83 30.975 1656.58 32.65 1656.58 34.35C1656.58 36.4 1656.85 38.325 1657.4 40.125C1657.95 41.925 1658.75 43.475 1659.8 44.775C1660.85 46.075 1662.15 47.1 1663.7 47.85C1665.25 48.6 1667 48.975 1668.95 48.975C1670.5 48.975 1672.03 48.7 1673.53 48.15C1675.08 47.6 1676.45 46.75 1677.65 45.6C1678.85 44.45 1679.83 42.95 1680.58 41.1C1681.33 39.25 1681.7 37 1681.7 34.35ZM1695.77 49.5C1699.22 49.5 1701.77 48.25 1703.42 45.75C1705.07 43.25 1705.89 39.45 1705.89 34.35C1705.44 25.2 1700.82 20.625 1692.02 20.625V14.85C1704.37 15.2 1710.74 21.825 1711.14 34.725C1711.14 48.025 1706.02 54.675 1695.77 54.675C1690.62 54.675 1686.12 51.95 1682.27 46.5L1683.47 40.575C1687.32 46.525 1691.42 49.5 1695.77 49.5ZM1724.05 42.675C1725.55 42.675 1726.85 43.2 1727.95 44.25C1729.05 45.3 1729.6 46.6 1729.6 48.15C1729.6 49.6 1729.05 50.875 1727.95 51.975C1726.85 53.025 1725.55 53.55 1724.05 53.55C1722.6 53.55 1721.32 53.025 1720.22 51.975C1719.12 50.875 1718.57 49.6 1718.57 48.15C1718.57 46.6 1719.12 45.3 1720.22 44.25C1721.32 43.2 1722.6 42.675 1724.05 42.675Z" fill="black"/>
</svg>
