<svg width="1571" height="75" viewBox="0 0 1571 75" fill="none" xmlns="http://www.w3.org/2000/svg">
<path d="M6.9 10.85H36.3C38.65 10.85 39.9 12.15 40.05 14.75V46.775C39.9 49.375 38.925 50.675 37.125 50.675H22.2C20.95 50.675 20.3 50.15 20.25 49.1C20 50.15 19.425 50.675 18.525 50.675H3.75C1.9 50.675 0.9 49.375 0.75 46.775L0.825 27.35C0.825 25.05 1.75 23.9 3.6 23.9H14.325C16.125 23.9 17.025 25.1 17.025 27.5V36.8C17.025 39.4 16.3 40.7 14.85 40.7H8.85V36.725C9.7 36.725 10.125 36.3 10.125 35.45V29.15C10.125 28.1 9.7 27.575 8.85 27.575C8.05 27.575 7.65 28.125 7.65 29.225V44.675C7.65 46.075 8.15 46.775 9.15 46.775H14.625C16.175 46.775 16.95 46.275 16.95 45.275V41.75H23.85V45.35C23.85 46.35 24.475 46.85 25.725 46.85H31.275C32.525 46.85 33.15 46.35 33.15 45.35V16.475C33.15 15.225 32.35 14.6 30.75 14.6H6.9V10.85ZM60.6018 10.85C62.7518 10.85 63.8268 12.125 63.8268 14.675V23.15C63.8268 25.7 62.5268 26.975 59.9268 26.975H55.2018V23.15H55.7268C56.5268 23.15 56.9268 22.7 56.9268 21.8V15.875C56.9268 15.075 56.6518 14.675 56.1018 14.675H55.3518C54.8018 14.675 54.5268 15.1 54.5268 15.95V44.375C54.5268 46.025 55.3268 46.85 56.9268 46.85H72.3768C74.2768 46.85 75.2268 46.05 75.2268 44.45V16.775C75.1268 15.325 74.4268 14.6 73.1268 14.6H70.7268V10.85H78.4518C80.8018 10.85 81.9768 12.1 81.9768 14.6L82.0518 46.85C82.0518 49.4 80.9768 50.675 78.8268 50.675H51.5268C48.8768 50.675 47.5518 49.4 47.5518 46.85V14.675C47.5518 12.125 48.8768 10.85 51.5268 10.85H60.6018ZM70.8445 10.85H105.345C106.495 10.9 107.345 11.225 107.895 11.825C108.445 12.375 108.72 13.3 108.72 14.6V46.925C108.72 49.425 107.495 50.675 105.045 50.675H95.6695C93.4195 50.675 92.2945 49.45 92.2945 47V35.675C92.2945 33.175 93.3945 31.925 95.5945 31.925H100.77V35.6C99.6195 35.65 99.0445 36.3 99.0445 37.55V45.275C99.0445 46.375 99.3945 46.925 100.095 46.925H100.995C101.645 46.925 101.97 46.35 101.97 45.2V17.225C101.97 15.575 101.02 14.675 99.1195 14.525H70.8445V10.85ZM96.7494 66.05V58.025C96.7494 56.675 97.3494 56 98.5494 56H105.599C106.499 56 106.974 56.325 107.024 56.975C107.174 56.325 107.599 56 108.299 56H115.274C116.424 56 116.999 56.65 116.999 57.95V66.125H113.474V59.075C113.474 58.375 113.049 58.025 112.199 58.025H109.949C109.149 58.025 108.749 58.375 108.749 59.075V64.325H105.224V59C105.174 58.35 104.824 58.025 104.174 58.025H101.549C100.749 58.025 100.349 58.35 100.349 59V66.05H96.7494ZM153.046 0.874999H159.946V10.775C159.946 13.325 158.646 14.6 156.046 14.6H155.971L156.046 14.675C158.646 14.675 159.946 16 159.946 18.65L159.871 46.925C159.871 49.425 158.721 50.675 156.421 50.675H143.746C141.596 50.675 140.446 50.075 140.296 48.875C140.096 50.075 138.946 50.675 136.846 50.675H123.946C121.796 50.675 120.721 49.425 120.721 46.925V18.875C120.721 16.275 121.746 14.85 123.796 14.6H120.721V10.85H150.271C152.121 10.85 153.046 10.125 153.046 8.675V0.874999ZM130.996 14.6C128.746 14.7 127.621 15.8 127.621 17.9V44.75C127.621 46.2 128.321 46.925 129.721 46.925H135.346C136.546 46.925 137.146 46.2 137.146 44.75V41.9H143.896V44.75C143.896 46.2 144.521 46.925 145.771 46.925H151.171C152.421 46.925 153.046 46.2 153.046 44.75V18.125C153.046 15.825 151.971 14.65 149.821 14.6H130.996ZM177.724 14.6C175.524 14.6 174.424 15.625 174.424 17.675V44.375C174.424 46.025 175.299 46.85 177.049 46.85H190.699C192.699 46.85 193.699 46.025 193.699 44.375V17.75C193.699 15.65 192.649 14.6 190.549 14.6H177.724ZM167.449 10.85H190.924C192.824 10.85 193.774 10.1 193.774 8.6V0.799995H200.674V10.7C200.674 13.15 199.649 14.45 197.599 14.6C199.599 14.9 200.599 16.425 200.599 19.175V46.775C200.599 49.375 199.299 50.675 196.699 50.675H170.974C168.624 50.675 167.449 49.375 167.449 46.775V19.175C167.449 16.375 168.499 14.85 170.599 14.6H167.449V10.85ZM219.497 46.775C219.497 49.275 218.472 50.575 216.422 50.675H199.922C197.472 50.675 196.047 49.2 195.647 46.25L196.097 44.075C196.547 45.975 197.297 46.925 198.347 46.925C198.447 46.925 198.522 46.925 198.572 46.925C198.572 46.875 198.622 46.85 198.722 46.85H210.197C211.847 46.8 212.672 45.6 212.672 43.25V14.375C212.672 12.225 213.522 11.05 215.222 10.85H239.447C241.747 10.9 242.897 12.25 242.897 14.9V46.85C242.897 49.4 241.647 50.675 239.147 50.675H229.622C227.322 50.675 226.172 49.425 226.172 46.925V35.375C226.172 32.825 227.297 31.55 229.547 31.55H234.797V35.3C233.647 35.4 233.072 36.075 233.072 37.325V45.2C233.072 46.3 233.422 46.85 234.122 46.85H235.022C235.672 46.85 235.997 46.275 235.997 45.125V17.6C235.997 15.8 235.047 14.825 233.147 14.675H221.597C221.197 14.675 220.747 14.875 220.247 15.275C219.747 15.625 219.497 16.2 219.497 17V46.775ZM316.235 10.85C318.585 10.85 319.76 12.125 319.76 14.675V46.7C319.61 49.3 318.56 50.625 316.61 50.675C316.61 51.475 316.785 52.1 317.135 52.55C317.535 52.95 318.235 53.15 319.235 53.15C319.535 53.15 319.785 53.125 319.985 53.075V57.05H313.235C311.085 57.05 310.01 55.95 310.01 53.75V50.675H304.01C301.56 50.675 300.285 49.35 300.185 46.7V34.025C300.235 31.625 301.41 30.425 303.71 30.425H310.685C311.935 30.425 312.685 30.925 312.935 31.925V16.175C312.935 15.175 312.135 14.675 310.535 14.675H305.435C304.185 14.675 303.56 15.175 303.56 16.175V20.975H296.735V16.25C296.735 15.2 296.26 14.675 295.31 14.675H289.235C287.985 14.675 287.36 15.175 287.36 16.175V24.95C287.41 26.35 288.335 27.05 290.135 27.05H290.51V30.8H283.835C281.685 30.7 280.585 29.6 280.535 27.5V14.225C280.535 11.975 281.735 10.85 284.135 10.85H296.735C298.885 10.85 300.035 11.7 300.185 13.4C300.235 11.7 301.36 10.85 303.56 10.85H316.235ZM307.01 45.05C307.01 46.15 307.685 46.7 309.035 46.7C310.185 46.7 310.785 46.15 310.835 45.05V35.9C310.835 34.95 310.135 34.475 308.735 34.475C307.735 34.475 307.16 34.95 307.01 35.9V45.05ZM337.758 14.6C335.558 14.6 334.458 15.625 334.458 17.675V44.375C334.458 46.025 335.333 46.85 337.083 46.85H350.733C352.733 46.85 353.733 46.025 353.733 44.375V17.75C353.733 15.65 352.683 14.6 350.583 14.6H337.758ZM327.483 10.85H350.958C352.858 10.85 353.808 10.1 353.808 8.6V0.799995H360.708V10.7C360.708 13.15 359.683 14.45 357.633 14.6C359.633 14.9 360.633 16.425 360.633 19.175V46.775C360.633 49.375 359.333 50.675 356.733 50.675H331.008C328.658 50.675 327.483 49.375 327.483 46.775V19.175C327.483 16.375 328.533 14.85 330.633 14.6H327.483V10.85ZM357.331 45.725C357.781 46.475 358.381 46.85 359.131 46.85H370.456C371.456 46.85 371.956 46.3 371.956 45.2V16.925C371.956 15.425 371.056 14.675 369.256 14.675H367.981V10.85H375.406C377.706 10.9 378.856 12.175 378.856 14.675V46.85C378.856 49.35 377.706 50.625 375.406 50.675H359.506C358.056 50.675 357.331 50 357.331 48.65V45.725ZM422.696 10.85H452.096C454.446 10.85 455.696 12.15 455.846 14.75V46.775C455.696 49.375 454.721 50.675 452.921 50.675H437.996C436.746 50.675 436.096 50.15 436.046 49.1C435.796 50.15 435.221 50.675 434.321 50.675H419.546C417.696 50.675 416.696 49.375 416.546 46.775L416.621 27.35C416.621 25.05 417.546 23.9 419.396 23.9H430.121C431.921 23.9 432.821 25.1 432.821 27.5V36.8C432.821 39.4 432.096 40.7 430.646 40.7H424.646V36.725C425.496 36.725 425.921 36.3 425.921 35.45V29.15C425.921 28.1 425.496 27.575 424.646 27.575C423.846 27.575 423.446 28.125 423.446 29.225V44.675C423.446 46.075 423.946 46.775 424.946 46.775H430.421C431.971 46.775 432.746 46.275 432.746 45.275V41.75H439.646V45.35C439.646 46.35 440.271 46.85 441.521 46.85H447.071C448.321 46.85 448.946 46.35 448.946 45.35V16.475C448.946 15.225 448.146 14.6 446.546 14.6H422.696V10.85ZM483.373 10.85C485.623 10.85 486.748 12.15 486.748 14.75V46.775C486.748 49.375 485.573 50.675 483.223 50.675H466.798C464.498 50.675 463.348 49.4 463.348 46.85V14.75C463.348 12.15 464.498 10.85 466.798 10.85H483.373ZM470.323 44.6C470.323 46.05 470.998 46.775 472.348 46.775H478.198C479.298 46.775 479.848 46.025 479.848 44.525V17C479.848 15.5 479.248 14.75 478.048 14.75H472.423C471.023 14.75 470.323 15.5 470.323 17V44.6ZM528.231 14.525C529.831 14.625 530.631 15.675 530.631 17.675V22.325C530.631 25.025 529.681 26.5 527.781 26.75C529.681 27 530.631 28.2 530.631 30.35V46.925C530.631 49.425 529.331 50.675 526.731 50.675H498.006C495.506 50.675 494.256 49.425 494.256 46.925V37.625C494.256 35.025 495.306 33.725 497.406 33.725H503.331V37.625H502.356C501.606 37.625 501.231 38.2 501.231 39.35V44.9C501.231 46.25 501.956 46.925 503.406 46.925H521.181C522.881 46.925 523.731 46.2 523.731 44.75V30.875C523.731 29.375 523.056 28.625 521.706 28.625H517.431V24.875H521.631C523.031 24.875 523.731 24 523.731 22.25V17.675C523.731 15.625 522.606 14.6 520.356 14.6H494.256V10.85H528.231V14.525ZM519.599 10.85H554.099C555.249 10.9 556.099 11.225 556.649 11.825C557.199 12.375 557.474 13.3 557.474 14.6V46.925C557.474 49.425 556.249 50.675 553.799 50.675H544.424C542.174 50.675 541.049 49.45 541.049 47V35.675C541.049 33.175 542.149 31.925 544.349 31.925H549.524V35.6C548.374 35.65 547.799 36.3 547.799 37.55V45.275C547.799 46.375 548.149 46.925 548.849 46.925H549.749C550.399 46.925 550.724 46.35 550.724 45.2V17.225C550.724 15.575 549.774 14.675 547.874 14.525H519.599V10.85ZM597.479 0.874999H604.379V10.775C604.379 13.325 603.079 14.6 600.479 14.6H600.404L600.479 14.675C603.079 14.675 604.379 16 604.379 18.65L604.304 46.925C604.304 49.425 603.154 50.675 600.854 50.675H588.179C586.029 50.675 584.879 50.075 584.729 48.875C584.529 50.075 583.379 50.675 581.279 50.675H568.379C566.229 50.675 565.154 49.425 565.154 46.925V18.875C565.154 16.275 566.179 14.85 568.229 14.6H565.154V10.85H594.704C596.554 10.85 597.479 10.125 597.479 8.675V0.874999ZM575.429 14.6C573.179 14.7 572.054 15.8 572.054 17.9V44.75C572.054 46.2 572.754 46.925 574.154 46.925H579.779C580.979 46.925 581.579 46.2 581.579 44.75V41.9H588.329V44.75C588.329 46.2 588.954 46.925 590.204 46.925H595.604C596.854 46.925 597.479 46.2 597.479 44.75V18.125C597.479 15.825 596.404 14.65 594.254 14.6H575.429ZM622.158 14.6C619.958 14.6 618.858 15.625 618.858 17.675V44.375C618.858 46.025 619.733 46.85 621.483 46.85H635.133C637.133 46.85 638.133 46.025 638.133 44.375V17.75C638.133 15.65 637.083 14.6 634.983 14.6H622.158ZM611.883 10.85H635.358C637.258 10.85 638.208 10.1 638.208 8.6V0.799995H645.108V10.7C645.108 13.15 644.083 14.45 642.033 14.6C644.033 14.9 645.033 16.425 645.033 19.175V46.775C645.033 49.375 643.733 50.675 641.133 50.675H615.408C613.058 50.675 611.883 49.375 611.883 46.775V19.175C611.883 16.375 612.933 14.85 615.033 14.6H611.883V10.85ZM641.73 45.725C642.18 46.475 642.78 46.85 643.53 46.85H654.855C655.855 46.85 656.355 46.3 656.355 45.2V16.925C656.355 15.425 655.455 14.675 653.655 14.675H652.38V10.85H659.805C662.105 10.9 663.255 12.175 663.255 14.675V46.85C663.255 49.35 662.105 50.625 659.805 50.675H643.905C642.455 50.675 641.73 50 641.73 48.65V45.725ZM736.645 10.85C738.995 10.85 740.17 12.125 740.17 14.675V46.7C740.02 49.3 738.97 50.625 737.02 50.675C737.02 51.475 737.195 52.1 737.545 52.55C737.945 52.95 738.645 53.15 739.645 53.15C739.945 53.15 740.195 53.125 740.395 53.075V57.05H733.645C731.495 57.05 730.42 55.95 730.42 53.75V50.675H724.42C721.97 50.675 720.695 49.35 720.595 46.7V34.025C720.645 31.625 721.82 30.425 724.12 30.425H731.095C732.345 30.425 733.095 30.925 733.345 31.925V16.175C733.345 15.175 732.545 14.675 730.945 14.675H725.845C724.595 14.675 723.97 15.175 723.97 16.175V20.975H717.145V16.25C717.145 15.2 716.67 14.675 715.72 14.675H709.645C708.395 14.675 707.77 15.175 707.77 16.175V24.95C707.82 26.35 708.745 27.05 710.545 27.05H710.92V30.8H704.245C702.095 30.7 700.995 29.6 700.945 27.5V14.225C700.945 11.975 702.145 10.85 704.545 10.85H717.145C719.295 10.85 720.445 11.7 720.595 13.4C720.645 11.7 721.77 10.85 723.97 10.85H736.645ZM727.42 45.05C727.42 46.15 728.095 46.7 729.445 46.7C730.595 46.7 731.195 46.15 731.245 45.05V35.9C731.245 34.95 730.545 34.475 729.145 34.475C728.145 34.475 727.57 34.95 727.42 35.9V45.05ZM758.169 14.6C755.969 14.6 754.869 15.625 754.869 17.675V44.375C754.869 46.025 755.744 46.85 757.494 46.85H771.144C773.144 46.85 774.144 46.025 774.144 44.375V17.75C774.144 15.65 773.094 14.6 770.994 14.6H758.169ZM747.894 10.85H771.369C773.269 10.85 774.219 10.1 774.219 8.6V0.799995H781.119V10.7C781.119 13.15 780.094 14.45 778.044 14.6C780.044 14.9 781.044 16.425 781.044 19.175V46.775C781.044 49.375 779.744 50.675 777.144 50.675H751.419C749.069 50.675 747.894 49.375 747.894 46.775V19.175C747.894 16.375 748.944 14.85 751.044 14.6H747.894V10.85ZM777.741 45.725C778.191 46.475 778.791 46.85 779.541 46.85H790.866C791.866 46.85 792.366 46.3 792.366 45.2V16.925C792.366 15.425 791.466 14.675 789.666 14.675H788.391V10.85H795.816C798.116 10.9 799.266 12.175 799.266 14.675V46.85C799.266 49.35 798.116 50.625 795.816 50.675H779.916C778.466 50.675 777.741 50 777.741 48.65V45.725ZM843.106 10.85H872.506C874.856 10.85 876.106 12.15 876.256 14.75V46.775C876.106 49.375 875.131 50.675 873.331 50.675H858.406C857.156 50.675 856.506 50.15 856.456 49.1C856.206 50.15 855.631 50.675 854.731 50.675H839.956C838.106 50.675 837.106 49.375 836.956 46.775L837.031 27.35C837.031 25.05 837.956 23.9 839.806 23.9H850.531C852.331 23.9 853.231 25.1 853.231 27.5V36.8C853.231 39.4 852.506 40.7 851.056 40.7H845.056V36.725C845.906 36.725 846.331 36.3 846.331 35.45V29.15C846.331 28.1 845.906 27.575 845.056 27.575C844.256 27.575 843.856 28.125 843.856 29.225V44.675C843.856 46.075 844.356 46.775 845.356 46.775H850.831C852.381 46.775 853.156 46.275 853.156 45.275V41.75H860.056V45.35C860.056 46.35 860.681 46.85 861.931 46.85H867.481C868.731 46.85 869.356 46.35 869.356 45.35V16.475C869.356 15.225 868.556 14.6 866.956 14.6H843.106V10.85ZM903.783 10.85C906.033 10.85 907.158 12.15 907.158 14.75V46.775C907.158 49.375 905.983 50.675 903.633 50.675H887.208C884.908 50.675 883.758 49.4 883.758 46.85V14.75C883.758 12.15 884.908 10.85 887.208 10.85H903.783ZM890.733 44.6C890.733 46.05 891.408 46.775 892.758 46.775H898.608C899.708 46.775 900.258 46.025 900.258 44.525V17C900.258 15.5 899.658 14.75 898.458 14.75H892.833C891.433 14.75 890.733 15.5 890.733 17V44.6ZM914.666 10.85H949.991V14.675C952.591 14.675 953.891 16 953.891 18.65L953.816 46.925C953.816 49.425 952.666 50.675 950.366 50.675H937.691C935.541 50.675 934.391 50.125 934.241 49.025C933.941 50.125 932.791 50.675 930.791 50.675H917.891C915.741 50.675 914.666 49.425 914.666 46.925V18.875C914.666 16.275 915.691 14.85 917.741 14.6H914.666V10.85ZM924.941 14.6C922.691 14.7 921.566 15.8 921.566 17.9V44.75C921.566 46.2 922.266 46.925 923.666 46.925H929.291C930.491 46.925 931.091 46.2 931.091 44.75V41.9H937.841V44.75C937.841 46.2 938.466 46.925 939.716 46.925H945.116C946.366 46.925 946.991 46.2 946.991 44.75V18.125C946.991 15.825 945.916 14.65 943.766 14.6H924.941ZM946.32 14.675V10.85H948.27C949.62 10.85 950.295 10.25 950.295 9.05V2.675C950.295 2.225 950.145 2 949.845 2H949.32C949.02 2 948.87 2.225 948.87 2.675V6.275C948.87 6.775 949.145 7.025 949.695 7.025V8.675H943.995C942.995 8.675 942.495 8.125 942.495 7.025V1.925C942.495 0.824998 942.995 0.274998 943.995 0.274998H955.32C956.32 0.274998 956.82 0.824998 956.82 1.925V12.275C956.82 13.875 956.195 14.675 954.945 14.675H946.32ZM984.422 10.85C986.672 10.85 987.797 12.15 987.797 14.75V46.775C987.797 49.375 986.622 50.675 984.272 50.675H967.847C965.547 50.675 964.397 49.4 964.397 46.85V14.75C964.397 12.15 965.547 10.85 967.847 10.85H984.422ZM971.372 44.6C971.372 46.05 972.047 46.775 973.397 46.775H979.247C980.347 46.775 980.897 46.025 980.897 44.525V17C980.897 15.5 980.297 14.75 979.097 14.75H973.472C972.072 14.75 971.372 15.5 971.372 17V44.6ZM1030.41 46.85C1030.41 48.15 1030.13 49.125 1029.58 49.775C1029.08 50.375 1028.23 50.675 1027.03 50.675H1014.81C1013.16 50.675 1012.31 50.05 1012.26 48.8C1011.96 50.05 1011.06 50.675 1009.56 50.675H998.831C996.481 50.675 995.306 49.375 995.306 46.775L995.381 18.8C995.381 16.2 996.356 14.825 998.306 14.675V7.25C998.306 4.75 999.406 3.5 1001.61 3.5H1026.96C1029.26 3.5 1030.41 4.75 1030.41 7.25V46.85ZM1023.58 8.75C1023.58 7.75 1023.21 7.25 1022.46 7.25H1006.11C1005.46 7.25 1005.13 7.75 1005.13 8.75V14.3C1005.13 15.4 1005.76 15.95 1007.01 15.95H1020.51V19.7H1002.13V44.525L1002.06 44.9C1002.06 46.15 1002.88 46.775 1004.53 46.775H1006.78C1007.38 46.775 1007.86 46.625 1008.21 46.325C1008.61 46.025 1008.81 45.55 1008.81 44.9V41.9H1015.63V44.75C1015.63 46.1 1016.41 46.775 1017.96 46.775H1021.11C1022.76 46.775 1023.58 46.1 1023.58 44.75V8.75ZM1037.93 10.85H1061.11C1062.91 10.85 1063.81 10.175 1063.81 8.825V1.475H1070.56V11.225C1070.56 13.175 1069.63 14.325 1067.78 14.675C1069.58 14.975 1070.48 16.325 1070.48 18.725V50.675H1063.73V18.8C1063.73 16.65 1062.81 15.25 1060.96 14.6H1048.28C1045.88 14.85 1044.68 16.25 1044.68 18.8V44.525C1044.68 46.125 1045.31 46.925 1046.56 46.925H1050.61V50.675H1041.23C1039.13 50.225 1038.03 48.975 1037.93 46.925V18.8C1037.93 16.25 1038.86 14.875 1040.71 14.675H1037.93V10.85ZM1089.39 46.775C1089.39 49.275 1088.37 50.575 1086.32 50.675H1069.82C1067.37 50.675 1065.94 49.2 1065.54 46.25L1065.99 44.075C1066.44 45.975 1067.19 46.925 1068.24 46.925C1068.34 46.925 1068.42 46.925 1068.47 46.925C1068.47 46.875 1068.52 46.85 1068.62 46.85H1080.09C1081.74 46.8 1082.57 45.6 1082.57 43.25V14.375C1082.57 12.225 1083.42 11.05 1085.12 10.85H1109.34C1111.64 10.9 1112.79 12.25 1112.79 14.9V46.85C1112.79 49.4 1111.54 50.675 1109.04 50.675H1099.52C1097.22 50.675 1096.07 49.425 1096.07 46.925V35.375C1096.07 32.825 1097.19 31.55 1099.44 31.55H1104.69V35.3C1103.54 35.4 1102.97 36.075 1102.97 37.325V45.2C1102.97 46.3 1103.32 46.85 1104.02 46.85H1104.92C1105.57 46.85 1105.89 46.275 1105.89 45.125V17.6C1105.89 15.8 1104.94 14.825 1103.04 14.675H1091.49C1091.09 14.675 1090.64 14.875 1090.14 15.275C1089.64 15.625 1089.39 16.2 1089.39 17V46.775ZM1189.73 46.85C1189.73 49.4 1188.58 50.675 1186.28 50.675H1170.23C1167.83 50.675 1166.63 49.4 1166.63 46.85V29.975C1166.63 28.475 1166.03 27.725 1164.83 27.725H1159.43C1158.08 27.725 1157.41 28.475 1157.41 29.975L1157.48 44.75C1157.48 46.15 1158.08 46.85 1159.28 46.85H1161.08V50.675H1153.96C1151.61 50.675 1150.43 49.4 1150.43 46.85L1150.51 27.725C1150.51 25.125 1151.63 23.825 1153.88 23.825H1170.08C1172.38 23.825 1173.53 25.125 1173.53 27.725V44.75C1173.53 46.15 1174.21 46.85 1175.56 46.85H1180.88C1182.23 46.85 1182.91 46.15 1182.91 44.75V8.825C1182.91 7.825 1182.53 7.325 1181.78 7.325H1170.91C1170.26 7.325 1169.93 7.825 1169.93 8.825L1170.01 14.3C1170.01 15.4 1170.61 15.95 1171.81 15.95H1180.28V19.7H1166.41C1164.21 19.7 1163.11 18.45 1163.11 15.95V7.25C1163.11 4.75 1164.21 3.5 1166.41 3.5H1186.28C1188.58 3.5 1189.73 4.75 1189.73 7.25V46.85ZM1213.88 50.675H1200.76C1198.46 50.625 1197.31 49.275 1197.31 46.625V14.675C1197.31 12.125 1198.56 10.85 1201.06 10.85H1210.58C1212.88 10.85 1214.03 12.1 1214.03 14.6V26.15C1214.03 28.7 1212.91 29.975 1210.66 29.975H1205.41V26.225C1206.56 26.125 1207.13 25.45 1207.13 24.2V16.325C1207.13 15.225 1206.78 14.675 1206.08 14.675H1205.18C1204.53 14.675 1204.21 15.25 1204.21 16.4V43.925C1204.21 45.725 1205.16 46.7 1207.06 46.85H1213.88V50.675ZM1275.95 1.7H1282.7V11.45C1282.7 13.6 1281.53 14.675 1279.18 14.675H1275.43C1275.93 14.825 1276.18 15.375 1276.18 16.325V23C1276.18 23.8 1275.73 24.275 1274.83 24.425H1283.08V28.175H1281.2C1282.45 28.475 1283.08 29.475 1283.08 31.175V47.075C1283.08 49.475 1281.6 50.675 1278.65 50.675H1255.03C1252.83 50.675 1251.73 49.475 1251.73 47.075V31.175C1251.83 29.475 1252.48 28.475 1253.68 28.175H1251.73V24.425H1259.45C1258.8 24.275 1258.48 23.675 1258.48 22.625V16.775C1258.53 15.575 1258.83 14.85 1259.38 14.6H1251.8V10.85H1273.33C1275.08 10.85 1275.95 10.15 1275.95 8.75V1.7ZM1258.48 43.325C1258.48 45.725 1259.55 46.925 1261.7 46.925H1273.33C1275.28 46.925 1276.25 46.025 1276.25 44.225V30.875C1276.25 29.025 1275.1 28.1 1272.8 28.1H1261.78C1259.58 28.1 1258.48 29 1258.48 30.8V43.325ZM1265.3 23.075C1265.3 23.925 1265.65 24.35 1266.35 24.35H1268.23C1269.08 24.35 1269.5 23.925 1269.5 23.075V16.325C1269.5 15.175 1269.05 14.6 1268.15 14.6H1266.43C1265.68 14.6 1265.3 15.175 1265.3 16.325V23.075ZM1290.54 10.85H1320.17C1322.02 10.85 1322.94 10.125 1322.94 8.675V0.949998H1329.84V10.85C1329.84 13.2 1328.92 14.5 1327.07 14.75C1328.92 15 1329.84 16.225 1329.84 18.425V46.85C1329.84 49.4 1328.69 50.675 1326.39 50.675H1310.34C1307.94 50.675 1306.74 49.4 1306.74 46.85V29.975C1306.74 28.475 1306.14 27.725 1304.94 27.725H1299.54C1298.19 27.725 1297.52 28.475 1297.52 29.975L1297.59 44.75C1297.59 46.15 1298.19 46.85 1299.39 46.85H1301.19V50.675H1294.07C1291.72 50.675 1290.54 49.4 1290.54 46.85L1290.62 27.725C1290.62 25.125 1291.74 23.825 1293.99 23.825H1310.19C1312.49 23.825 1313.64 25.125 1313.64 27.725V44.75C1313.64 46.15 1314.32 46.85 1315.67 46.85H1320.99C1322.29 46.85 1322.94 46.15 1322.94 44.75V17.975C1322.94 15.775 1322.07 14.675 1320.32 14.675H1290.54V10.85ZM1337.87 69.05C1337.82 69.8 1337.65 70.325 1337.35 70.625C1337.05 70.925 1336.65 71.125 1336.15 71.225C1336.15 71.975 1336.62 72.35 1337.57 72.35H1339V74.525H1334.35C1333.25 74.525 1332.7 73.95 1332.7 72.8V71.075H1329.47C1328.17 71.075 1327.5 70.4 1327.45 69.05V62.3C1327.55 61 1328.17 60.35 1329.32 60.35H1333C1333.65 60.35 1334.05 60.6 1334.2 61.1V56C1334.2 55.15 1333.8 54.725 1333 54.725H1331.42V52.7H1336C1337.25 52.75 1337.87 53.475 1337.87 54.875V69.05ZM1331.05 68.075C1331.05 68.725 1331.4 69.05 1332.1 69.05C1332.75 69.05 1333.07 68.725 1333.07 68.075V63.275C1333.07 62.775 1332.7 62.525 1331.95 62.525C1331.4 62.525 1331.1 62.775 1331.05 63.275V68.075ZM1341.67 10.85H1371.29C1373.14 10.85 1374.07 10.125 1374.07 8.675V0.799995H1380.97V10.7C1380.97 13.15 1379.94 14.45 1377.89 14.6C1379.89 14.9 1380.89 16 1380.89 17.9V25.925C1380.89 28.175 1380.02 29.35 1378.27 29.45C1380.02 29.75 1380.89 30.925 1380.89 32.975V47.225C1380.89 49.525 1379.69 50.675 1377.29 50.675H1364.09C1362.49 50.675 1361.62 49.975 1361.47 48.575C1361.17 49.975 1360.32 50.675 1358.92 50.675H1345.12C1342.82 50.675 1341.67 49.425 1341.67 46.925V18.95C1341.67 16.3 1342.82 14.85 1345.12 14.6H1341.67V10.85ZM1348.57 44.375C1348.57 46.075 1349.37 46.925 1350.97 46.925H1355.24C1357.09 46.925 1358.02 46.1 1358.02 44.45V41.9H1364.84V44.375C1364.84 46.075 1365.67 46.925 1367.32 46.925H1371.44C1373.19 46.925 1374.07 46.1 1374.07 44.45L1374.14 33.35C1374.14 32.1 1373.39 31.475 1371.89 31.475H1368.07V27.65H1371.97C1373.37 27.65 1374.07 27.1 1374.07 26L1374.14 17.375C1374.14 15.525 1372.99 14.6 1370.69 14.6H1352.24C1349.79 14.6 1348.57 15.6 1348.57 17.6V44.375ZM1388.47 10.85H1424.39V14.525C1426.59 14.625 1427.69 16.225 1427.69 19.325V46.85C1427.69 49.4 1426.44 50.675 1423.94 50.675H1409.92C1408.92 50.675 1408.34 50.2 1408.19 49.25C1407.99 50.2 1407.39 50.675 1406.39 50.675H1391.39C1389.49 50.675 1388.52 49.4 1388.47 46.85V26.975C1388.52 24.525 1389.47 23.3 1391.32 23.3H1401.89C1403.74 23.3 1404.67 24.525 1404.67 26.975V36.275C1404.67 38.775 1403.94 40.025 1402.49 40.025H1397.24V36.2C1398.04 36.2 1398.44 35.775 1398.44 34.925V28.7C1398.44 27.55 1397.92 26.975 1396.87 26.975C1395.87 26.975 1395.37 27.625 1395.37 28.925V45.2C1395.37 46.3 1396.02 46.85 1397.32 46.85H1402.42C1403.92 46.85 1404.67 46.35 1404.67 45.35V41.825H1411.49V45.425C1411.49 46.375 1412.17 46.85 1413.52 46.85H1418.47C1420.07 46.85 1420.87 46.35 1420.87 45.35V17.825C1420.87 15.675 1419.44 14.6 1416.59 14.6H1388.47V10.85ZM1416.6 10.85H1451.1C1452.25 10.9 1453.1 11.225 1453.65 11.825C1454.2 12.375 1454.47 13.3 1454.47 14.6V46.925C1454.47 49.425 1453.25 50.675 1450.8 50.675H1441.42C1439.17 50.675 1438.05 49.45 1438.05 47V35.675C1438.05 33.175 1439.15 31.925 1441.35 31.925H1446.52V35.6C1445.37 35.65 1444.8 36.3 1444.8 37.55V45.275C1444.8 46.375 1445.15 46.925 1445.85 46.925H1446.75C1447.4 46.925 1447.72 46.35 1447.72 45.2V17.225C1447.72 15.575 1446.77 14.675 1444.87 14.525H1416.6V10.85ZM1487.88 8.75C1487.88 7.75 1487.5 7.25 1486.75 7.25H1472.88C1472.23 7.25 1471.9 7.75 1471.9 8.75V14.3C1471.9 15.4 1472.53 15.95 1473.78 15.95H1484.8V19.7H1468.9V44.525C1468.9 46.125 1469.53 46.925 1470.78 46.925H1474.83V50.675H1465.45C1463.35 50.225 1462.25 48.975 1462.15 46.925V18.8C1462.15 16.2 1463.13 14.825 1465.08 14.675V7.25C1465.08 4.75 1466.18 3.5 1468.38 3.5H1491.25C1493.55 3.5 1494.7 4.75 1494.7 7.25L1494.63 50.675H1487.88V8.75ZM1512.49 14.6C1510.29 14.6 1509.19 15.625 1509.19 17.675V44.375C1509.19 46.025 1510.06 46.85 1511.81 46.85H1525.46C1527.46 46.85 1528.46 46.025 1528.46 44.375V17.75C1528.46 15.65 1527.41 14.6 1525.31 14.6H1512.49ZM1502.21 10.85H1525.69C1527.59 10.85 1528.54 10.1 1528.54 8.6V0.799995H1535.44V10.7C1535.44 13.15 1534.41 14.45 1532.36 14.6C1534.36 14.9 1535.36 16.425 1535.36 19.175V46.775C1535.36 49.375 1534.06 50.675 1531.46 50.675H1505.74C1503.39 50.675 1502.21 49.375 1502.21 46.775V19.175C1502.21 16.375 1503.26 14.85 1505.36 14.6H1502.21V10.85ZM1532.06 45.725C1532.51 46.475 1533.11 46.85 1533.86 46.85H1545.19C1546.19 46.85 1546.69 46.3 1546.69 45.2V16.925C1546.69 15.425 1545.79 14.675 1543.99 14.675H1542.71V10.85H1550.14C1552.44 10.9 1553.59 12.175 1553.59 14.675V46.85C1553.59 49.35 1552.44 50.625 1550.14 50.675H1534.24C1532.79 50.675 1532.06 50 1532.06 48.65V45.725ZM1566.42 40.775C1567.57 40.775 1568.6 41.225 1569.5 42.125C1570.45 42.975 1570.92 44 1570.92 45.2C1570.92 46.45 1570.47 47.525 1569.57 48.425C1568.72 49.275 1567.67 49.7 1566.42 49.7C1565.17 49.7 1564.1 49.275 1563.2 48.425C1562.35 47.525 1561.92 46.45 1561.92 45.2C1561.92 44 1562.37 42.975 1563.27 42.125C1564.17 41.225 1565.22 40.775 1566.42 40.775Z" fill="black"/>
</svg>
