<svg width="1795" height="76" viewBox="0 0 1795 76" fill="none" xmlns="http://www.w3.org/2000/svg">
<path d="M50.025 33.8C48.775 39.65 46.65 44.225 43.65 47.525C40.35 51.175 36.2 53 31.2 53C28.75 53 26.85 52.75 25.5 52.25C24.2 51.7 23.15 50.85 22.35 49.7C21.45 50.6 20 51.375 18 52.025C16.05 52.675 14.125 53 12.225 53C8.075 53 5.075 51.975 3.225 49.925C1.425 47.875 0.875 45.2 1.575 41.9L3 35.3H9.525L8.1 41.975C7.45 44.975 9.075 46.475 12.975 46.475C17.375 46.475 19.875 45.075 20.475 42.275L21.45 37.625H27.975L26.925 42.5C26.675 43.8 27.3 44.825 28.8 45.575C29.95 46.175 31.2 46.475 32.55 46.475C35.9 46.475 38.525 45.025 40.425 42.125C41.725 40.175 42.775 37.3 43.575 33.5C44.875 27.25 43.95 22.9 40.8 20.45C38.15 18.45 33.45 17.45 26.7 17.45H23.325L24.75 10.925H29.55C38 10.925 43.95 12.95 47.4 17C50.7 20.9 51.575 26.5 50.025 33.8ZM108.384 17.45H102.309C104.109 20.95 104.409 25.55 103.209 31.25C101.709 38.2 98.0594 43.675 92.2594 47.675C87.1094 51.225 81.3094 53 74.8594 53C67.4094 53 62.0094 51.2 58.6594 47.6C55.6594 44.35 54.7094 40.125 55.8094 34.925L60.9094 10.925H68.0344C71.0344 10.925 73.4344 12.1 75.2344 14.45C77.0344 16.8 77.6094 19.575 76.9594 22.775C76.0594 26.875 74.2094 30.225 71.4094 32.825C68.0594 35.975 64.7844 37.55 61.5844 37.55C61.7344 40 63.0344 42.1 65.4844 43.85C67.9844 45.6 71.5344 46.475 76.1344 46.475C81.6344 46.475 86.1844 45.05 89.7844 42.2C93.4344 39.35 95.7844 35.45 96.8344 30.5C97.7344 26.15 97.4344 22.9 95.9344 20.75C94.4344 18.55 92.0594 17.45 88.8094 17.45H85.4344L86.7844 10.925H109.734L108.384 17.45ZM70.2094 23.675C70.5594 22.025 70.4094 20.575 69.7594 19.325C69.1094 18.075 68.3344 17.45 67.4344 17.45H66.0844L63.3844 30.125H64.7344C65.5344 30.125 66.5594 29.5 67.8094 28.25C69.0594 26.95 69.8594 25.425 70.2094 23.675ZM133.222 33.95C131.822 40.55 129.322 45.475 125.722 48.725C122.572 51.575 118.747 53 114.247 53C109.947 53 107.047 51.675 105.547 49.025C104.397 46.975 104.122 44.5 104.722 41.6L105.622 37.475H112.147L111.172 41.975C110.572 44.975 112.272 46.475 116.272 46.475C119.522 46.475 122.047 44.95 123.847 41.9C124.997 40.05 125.947 37.4 126.697 33.95C127.897 28.3 127.597 24.15 125.797 21.5C124.047 18.8 121.047 17.45 116.797 17.45H104.647L105.997 10.925H117.172C124.572 10.925 129.547 13.4 132.097 18.35C134.197 22.4 134.572 27.6 133.222 33.95ZM136.93 70.1H131.155L132.355 64.625C132.505 63.775 132.23 63.075 131.53 62.525C130.78 62.025 129.93 61.775 128.98 61.775C128.08 61.775 127.23 62.05 126.43 62.6C125.63 63.2 125.13 63.95 124.93 64.85L124.18 68.3H118.405L119.155 64.925C119.355 63.975 119.13 63.2 118.48 62.6C117.83 62.05 117.005 61.775 116.005 61.775C115.055 61.775 114.13 62.025 113.23 62.525C112.28 63.075 111.73 63.75 111.58 64.55L110.38 70.1H104.605L106.105 63.2C106.455 61.35 107.555 59.725 109.405 58.325C111.505 56.775 113.955 56 116.755 56C118.855 56 120.405 56.225 121.405 56.675C122.105 56.975 122.755 57.575 123.355 58.475C124.505 57.425 125.655 56.75 126.805 56.45C127.905 56.15 129.23 56 130.78 56C133.53 56 135.58 56.675 136.93 58.025C138.33 59.425 138.78 61.325 138.28 63.725L136.93 70.1ZM195.583 17.45H188.683C189.583 18.45 190.358 20.3 191.008 23C191.908 26.9 191.908 30.975 191.008 35.225C189.958 40.175 187.683 44.375 184.183 47.825C180.733 51.275 176.808 53 172.408 53C169.758 53 167.583 52.55 165.883 51.65C164.783 51.1 163.983 50.425 163.483 49.625C162.533 50.425 161.533 51.075 160.483 51.575C158.383 52.525 155.883 53 152.983 53C149.933 53 147.458 52.325 145.558 50.975C142.708 49.025 141.733 45.9 142.633 41.6L147.808 17.45H144.283L145.633 10.925H196.933L195.583 17.45ZM184.633 34.625C185.633 29.825 185.233 26 183.433 23.15C180.983 19.35 176.083 17.45 168.733 17.45H154.333L149.308 40.85C148.958 42.7 149.008 44.025 149.458 44.825C150.108 45.925 151.658 46.475 154.108 46.475C156.008 46.475 157.683 46.125 159.133 45.425C160.633 44.675 161.508 43.625 161.758 42.275L162.808 37.4H169.333L168.283 42.275C168.033 43.625 168.408 44.675 169.408 45.425C170.408 46.125 171.883 46.475 173.833 46.475C176.583 46.475 179.008 45.15 181.108 42.5C182.808 40.25 183.983 37.625 184.633 34.625ZM244.811 17.45H236.711C238.611 18.55 239.836 20.475 240.386 23.225C240.936 25.975 240.861 28.975 240.161 32.225C238.911 38.175 235.711 43.175 230.561 47.225C225.611 51.075 220.411 53 214.961 53C209.361 53 205.111 51.575 202.211 48.725C198.911 45.575 197.861 41.15 199.061 35.45L202.886 17.45H199.361L200.786 10.925H246.236L244.811 17.45ZM233.786 31.625C234.686 27.375 233.986 24.075 231.686 21.725C228.886 18.875 223.761 17.45 216.311 17.45H209.411L205.661 35.15C204.811 39.1 205.511 42.05 207.761 44C209.661 45.65 212.536 46.475 216.386 46.475C220.486 46.475 224.186 45 227.486 42.05C230.836 39.1 232.936 35.625 233.786 31.625ZM293.205 35.45C292.105 40.65 290.155 44.8 287.355 47.9C284.305 51.3 280.655 53 276.405 53C272.855 53 270.38 51.925 268.98 49.775C267.83 47.975 267.555 45.65 268.155 42.8L269.28 37.55H275.805L274.53 43.4C274.08 45.45 275.255 46.475 278.055 46.475C280.355 46.475 282.28 45.275 283.83 42.875C285.13 40.925 286.13 38.25 286.83 34.85C288.03 29.3 287.18 24.875 284.28 21.575C281.88 18.825 279.005 17.45 275.655 17.45H265.905L261.48 37.925C260.58 42.225 258.255 45.825 254.505 48.725C250.805 51.575 246.855 53 242.655 53C239.405 53 236.88 52.575 235.08 51.725C233.28 50.825 231.88 49.575 230.88 47.975L233.88 40.625C234.13 41.325 234.555 42.025 235.155 42.725C237.155 45.225 240.08 46.475 243.93 46.475C246.63 46.475 249.005 45.65 251.055 44C253.155 42.3 254.505 40.15 255.105 37.55L260.73 10.925H277.155C283.405 10.925 288.03 13.475 291.03 18.575C293.88 23.375 294.605 29 293.205 35.45ZM370.682 48.95C368.882 50.85 366.782 52.175 364.382 52.925C362.882 53.375 361.207 53.6 359.357 53.6C357.007 53.6 355.082 53.15 353.582 52.25C353.532 52.2 352.882 51.625 351.632 50.525C350.632 51.275 349.407 51.875 347.957 52.325C346.557 52.775 345.232 53 343.982 53H324.557L326.282 44.75C327.032 41.25 329.282 38.3 333.032 35.9C336.232 33.9 339.182 32.9 341.882 32.9C344.882 32.9 347.282 33.45 349.082 34.55C350.882 35.65 352.257 37.55 353.207 40.25C354.857 38.65 356.107 36.825 356.957 34.775C357.857 32.675 358.632 30.15 359.282 27.2C359.932 24.2 359.682 21.825 358.532 20.075C357.382 18.325 355.732 17.45 353.582 17.45C349.182 17.45 346.557 19.4 345.707 23.3H339.182C339.682 20.85 339.507 19.275 338.657 18.575C337.857 17.825 336.307 17.45 334.007 17.45C332.207 17.45 330.582 17.9 329.132 18.8C327.732 19.65 326.882 20.8 326.582 22.25C326.232 23.85 326.282 25.075 326.732 25.925C327.232 26.725 327.857 27.125 328.607 27.125L327.257 33.575C324.507 33.575 322.432 32.525 321.032 30.425C319.682 28.275 319.357 25.5 320.057 22.1C320.707 19.25 322.382 16.725 325.082 14.525C328.032 12.125 331.357 10.925 335.057 10.925C337.757 10.925 339.982 11.325 341.732 12.125C342.882 12.675 343.857 13.425 344.657 14.375C346.257 13.075 347.807 12.175 349.307 11.675C350.807 11.175 352.382 10.925 354.032 10.925C358.532 10.925 361.882 12.4 364.082 15.35C366.282 18.3 366.807 22.45 365.657 27.8C364.807 31.9 363.457 35.65 361.607 39.05C360.307 41.6 358.682 43.9 356.732 45.95C357.282 46.45 357.957 46.775 358.757 46.925C359.607 47.025 360.557 47.075 361.607 47.075C362.907 47.075 364.132 46.725 365.282 46.025C365.782 45.725 366.407 45.225 367.157 44.525L370.682 48.95ZM347.657 46.475C348.057 44.575 347.657 42.925 346.457 41.525C345.257 40.125 343.382 39.425 340.832 39.425C338.932 39.425 337.282 39.925 335.882 40.925C334.132 42.175 332.982 44.025 332.432 46.475H347.657ZM418.615 17.45H410.515C412.415 18.55 413.64 20.475 414.19 23.225C414.74 25.975 414.665 28.975 413.965 32.225C412.715 38.175 409.515 43.175 404.365 47.225C399.415 51.075 394.215 53 388.765 53C383.165 53 378.915 51.575 376.015 48.725C372.715 45.575 371.665 41.15 372.865 35.45L376.69 17.45H373.165L374.59 10.925H420.04L418.615 17.45ZM407.59 31.625C408.49 27.375 407.79 24.075 405.49 21.725C402.69 18.875 397.565 17.45 390.115 17.45H383.215L379.465 35.15C378.615 39.1 379.315 42.05 381.565 44C383.465 45.65 386.34 46.475 390.19 46.475C394.29 46.475 397.99 45 401.29 42.05C404.64 39.1 406.74 35.625 407.59 31.625ZM439.484 32.225C438.184 38.225 435.484 43.2 431.384 47.15C427.284 51.05 422.484 53 416.984 53C413.134 53 410.184 52.45 408.134 51.35C406.934 50.7 405.784 49.575 404.684 47.975L407.684 40.625C409.134 42.975 410.684 44.575 412.334 45.425C413.684 46.125 415.484 46.475 417.734 46.475C421.034 46.475 423.934 45.525 426.434 43.625C429.684 41.225 431.834 37.525 432.884 32.525C433.784 28.275 433.634 24.75 432.434 21.95C431.134 18.95 428.859 17.45 425.609 17.45H422.834L424.184 10.925H427.109C432.159 10.925 435.834 13.075 438.134 17.375C440.284 21.425 440.734 26.375 439.484 32.225ZM509.839 33.8C508.589 39.65 506.464 44.225 503.464 47.525C500.164 51.175 496.014 53 491.014 53C488.564 53 486.664 52.75 485.314 52.25C484.014 51.7 482.964 50.85 482.164 49.7C481.264 50.6 479.814 51.375 477.814 52.025C475.864 52.675 473.939 53 472.039 53C467.889 53 464.889 51.975 463.039 49.925C461.239 47.875 460.689 45.2 461.389 41.9L462.814 35.3H469.339L467.914 41.975C467.264 44.975 468.889 46.475 472.789 46.475C477.189 46.475 479.689 45.075 480.289 42.275L481.264 37.625H487.789L486.739 42.5C486.489 43.8 487.114 44.825 488.614 45.575C489.764 46.175 491.014 46.475 492.364 46.475C495.714 46.475 498.339 45.025 500.239 42.125C501.539 40.175 502.589 37.3 503.389 33.5C504.689 27.25 503.764 22.9 500.614 20.45C497.964 18.45 493.264 17.45 486.514 17.45H483.139L484.564 10.925H489.364C497.814 10.925 503.764 12.95 507.214 17C510.514 20.9 511.389 26.5 509.839 33.8ZM550.274 31.625C551.074 27.875 550.499 24.575 548.549 21.725C546.599 18.875 543.849 17.45 540.299 17.45H525.899L522.149 35.15C521.299 39.1 521.999 42.05 524.249 44C526.149 45.65 529.024 46.475 532.874 46.475C536.974 46.475 540.699 45 544.049 42.05C547.349 39.15 549.424 35.675 550.274 31.625ZM556.649 32.225C555.399 38.175 552.199 43.175 547.049 47.225C542.049 51.075 536.849 53 531.449 53C525.799 53 521.549 51.575 518.699 48.725C515.399 45.575 514.349 41.15 515.549 35.45L520.799 10.925H541.199C546.599 10.925 550.874 12.95 554.024 17C557.124 20.95 557.999 26.025 556.649 32.225ZM614.559 17.45H609.384L607.209 27.575H611.634L610.284 34.1H605.859C605.509 35.75 604.859 37.5 603.909 39.35C602.009 43.05 599.459 46.025 596.259 48.275C591.709 51.425 586.134 53 579.534 53C572.134 53 566.959 51.225 564.009 47.675C561.559 44.675 560.859 40.75 561.909 35.9L562.284 34.1H568.809L568.134 37.325C567.434 40.425 568.559 42.8 571.509 44.45C573.959 45.8 577.034 46.475 580.734 46.475C586.084 46.475 590.409 45.25 593.709 42.8C596.659 40.6 598.534 37.7 599.334 34.1H593.109L594.459 27.575H600.684L602.859 17.45H565.809L567.159 10.925H615.909L614.559 17.45ZM639.399 33.95C637.999 40.55 635.499 45.475 631.899 48.725C628.749 51.575 624.924 53 620.424 53C616.124 53 613.224 51.675 611.724 49.025C610.574 46.975 610.299 44.5 610.899 41.6L611.799 37.475H618.324L617.349 41.975C616.749 44.975 618.449 46.475 622.449 46.475C625.699 46.475 628.224 44.95 630.024 41.9C631.174 40.05 632.124 37.4 632.874 33.95C634.074 28.3 633.774 24.15 631.974 21.5C630.224 18.8 627.224 17.45 622.974 17.45H610.824L612.174 10.925H623.349C630.749 10.925 635.724 13.4 638.274 18.35C640.374 22.4 640.749 27.6 639.399 33.95ZM698.757 17.45H691.857C692.757 18.45 693.532 20.3 694.182 23C695.082 26.9 695.082 30.975 694.182 35.225C693.132 40.175 690.857 44.375 687.357 47.825C683.907 51.275 679.982 53 675.582 53C672.932 53 670.757 52.55 669.057 51.65C667.957 51.1 667.157 50.425 666.657 49.625C665.707 50.425 664.707 51.075 663.657 51.575C661.557 52.525 659.057 53 656.157 53C653.107 53 650.632 52.325 648.732 50.975C645.882 49.025 644.907 45.9 645.807 41.6L650.982 17.45H647.457L648.807 10.925H700.107L698.757 17.45ZM687.807 34.625C688.807 29.825 688.407 26 686.607 23.15C684.157 19.35 679.257 17.45 671.907 17.45H657.507L652.482 40.85C652.132 42.7 652.182 44.025 652.632 44.825C653.282 45.925 654.832 46.475 657.282 46.475C659.182 46.475 660.857 46.125 662.307 45.425C663.807 44.675 664.682 43.625 664.932 42.275L665.982 37.4H672.507L671.457 42.275C671.207 43.625 671.582 44.675 672.582 45.425C673.582 46.125 675.057 46.475 677.007 46.475C679.757 46.475 682.182 45.15 684.282 42.5C685.982 40.25 687.157 37.625 687.807 34.625ZM747.985 17.45H739.885C741.785 18.55 743.01 20.475 743.56 23.225C744.11 25.975 744.035 28.975 743.335 32.225C742.085 38.175 738.885 43.175 733.735 47.225C728.785 51.075 723.585 53 718.135 53C712.535 53 708.285 51.575 705.385 48.725C702.085 45.575 701.035 41.15 702.235 35.45L706.06 17.45H702.535L703.96 10.925H749.41L747.985 17.45ZM736.96 31.625C737.86 27.375 737.16 24.075 734.86 21.725C732.06 18.875 726.935 17.45 719.485 17.45H712.585L708.835 35.15C707.985 39.1 708.685 42.05 710.935 44C712.835 45.65 715.71 46.475 719.56 46.475C723.66 46.475 727.36 45 730.66 42.05C734.01 39.1 736.11 35.625 736.96 31.625ZM768.854 32.225C767.554 38.225 764.854 43.2 760.754 47.15C756.654 51.05 751.854 53 746.354 53C742.504 53 739.554 52.45 737.504 51.35C736.304 50.7 735.154 49.575 734.054 47.975L737.054 40.625C738.504 42.975 740.054 44.575 741.704 45.425C743.054 46.125 744.854 46.475 747.104 46.475C750.404 46.475 753.304 45.525 755.804 43.625C759.054 41.225 761.204 37.525 762.254 32.525C763.154 28.275 763.004 24.75 761.804 21.95C760.504 18.95 758.229 17.45 754.979 17.45H752.204L753.554 10.925H756.479C761.529 10.925 765.204 13.075 767.504 17.375C769.654 21.425 770.104 26.375 768.854 32.225ZM845.585 48.95C843.785 50.85 841.685 52.175 839.285 52.925C837.785 53.375 836.11 53.6 834.26 53.6C831.91 53.6 829.985 53.15 828.485 52.25C828.435 52.2 827.785 51.625 826.535 50.525C825.535 51.275 824.31 51.875 822.86 52.325C821.46 52.775 820.135 53 818.885 53H799.46L801.185 44.75C801.935 41.25 804.185 38.3 807.935 35.9C811.135 33.9 814.085 32.9 816.785 32.9C819.785 32.9 822.185 33.45 823.985 34.55C825.785 35.65 827.16 37.55 828.11 40.25C829.76 38.65 831.01 36.825 831.86 34.775C832.76 32.675 833.535 30.15 834.185 27.2C834.835 24.2 834.585 21.825 833.435 20.075C832.285 18.325 830.635 17.45 828.485 17.45C824.085 17.45 821.46 19.4 820.61 23.3H814.085C814.585 20.85 814.41 19.275 813.56 18.575C812.76 17.825 811.21 17.45 808.91 17.45C807.11 17.45 805.485 17.9 804.035 18.8C802.635 19.65 801.785 20.8 801.485 22.25C801.135 23.85 801.185 25.075 801.635 25.925C802.135 26.725 802.76 27.125 803.51 27.125L802.16 33.575C799.41 33.575 797.335 32.525 795.935 30.425C794.585 28.275 794.26 25.5 794.96 22.1C795.61 19.25 797.285 16.725 799.985 14.525C802.935 12.125 806.26 10.925 809.96 10.925C812.66 10.925 814.885 11.325 816.635 12.125C817.785 12.675 818.76 13.425 819.56 14.375C821.16 13.075 822.71 12.175 824.21 11.675C825.71 11.175 827.285 10.925 828.935 10.925C833.435 10.925 836.785 12.4 838.985 15.35C841.185 18.3 841.71 22.45 840.56 27.8C839.71 31.9 838.36 35.65 836.51 39.05C835.21 41.6 833.585 43.9 831.635 45.95C832.185 46.45 832.86 46.775 833.66 46.925C834.51 47.025 835.46 47.075 836.51 47.075C837.81 47.075 839.035 46.725 840.185 46.025C840.685 45.725 841.31 45.225 842.06 44.525L845.585 48.95ZM822.56 46.475C822.96 44.575 822.56 42.925 821.36 41.525C820.16 40.125 818.285 39.425 815.735 39.425C813.835 39.425 812.185 39.925 810.785 40.925C809.035 42.175 807.885 44.025 807.335 46.475H822.56ZM893.517 17.45H885.417C887.317 18.55 888.542 20.475 889.092 23.225C889.642 25.975 889.567 28.975 888.867 32.225C887.617 38.175 884.417 43.175 879.267 47.225C874.317 51.075 869.117 53 863.667 53C858.067 53 853.817 51.575 850.917 48.725C847.617 45.575 846.567 41.15 847.767 35.45L851.592 17.45H848.067L849.492 10.925H894.942L893.517 17.45ZM882.492 31.625C883.392 27.375 882.692 24.075 880.392 21.725C877.592 18.875 872.467 17.45 865.017 17.45H858.117L854.367 35.15C853.517 39.1 854.217 42.05 856.467 44C858.367 45.65 861.242 46.475 865.092 46.475C869.192 46.475 872.892 45 876.192 42.05C879.542 39.1 881.642 35.625 882.492 31.625ZM914.386 32.225C913.086 38.225 910.386 43.2 906.286 47.15C902.186 51.05 897.386 53 891.886 53C888.036 53 885.086 52.45 883.036 51.35C881.836 50.7 880.686 49.575 879.586 47.975L882.586 40.625C884.036 42.975 885.586 44.575 887.236 45.425C888.586 46.125 890.386 46.475 892.636 46.475C895.936 46.475 898.836 45.525 901.336 43.625C904.586 41.225 906.736 37.525 907.786 32.525C908.686 28.275 908.536 24.75 907.336 21.95C906.036 18.95 903.761 17.45 900.511 17.45H897.736L899.086 10.925H902.011C907.061 10.925 910.736 13.075 913.036 17.375C915.186 21.425 915.636 26.375 914.386 32.225ZM984.742 33.8C983.492 39.65 981.367 44.225 978.367 47.525C975.067 51.175 970.917 53 965.917 53C963.467 53 961.567 52.75 960.217 52.25C958.917 51.7 957.867 50.85 957.067 49.7C956.167 50.6 954.717 51.375 952.717 52.025C950.767 52.675 948.842 53 946.942 53C942.792 53 939.792 51.975 937.942 49.925C936.142 47.875 935.592 45.2 936.292 41.9L937.717 35.3H944.242L942.817 41.975C942.167 44.975 943.792 46.475 947.692 46.475C952.092 46.475 954.592 45.075 955.192 42.275L956.167 37.625H962.692L961.642 42.5C961.392 43.8 962.017 44.825 963.517 45.575C964.667 46.175 965.917 46.475 967.267 46.475C970.617 46.475 973.242 45.025 975.142 42.125C976.442 40.175 977.492 37.3 978.292 33.5C979.592 27.25 978.667 22.9 975.517 20.45C972.867 18.45 968.167 17.45 961.417 17.45H958.042L959.467 10.925H964.267C972.717 10.925 978.667 12.95 982.117 17C985.417 20.9 986.292 26.5 984.742 33.8ZM1025.18 31.625C1025.98 27.875 1025.4 24.575 1023.45 21.725C1021.5 18.875 1018.75 17.45 1015.2 17.45H1000.8L997.051 35.15C996.201 39.1 996.901 42.05 999.151 44C1001.05 45.65 1003.93 46.475 1007.78 46.475C1011.88 46.475 1015.6 45 1018.95 42.05C1022.25 39.15 1024.33 35.675 1025.18 31.625ZM1031.55 32.225C1030.3 38.175 1027.1 43.175 1021.95 47.225C1016.95 51.075 1011.75 53 1006.35 53C1000.7 53 996.451 51.575 993.601 48.725C990.301 45.575 989.251 41.15 990.451 35.45L995.701 10.925H1016.1C1021.5 10.925 1025.78 12.95 1028.93 17C1032.03 20.95 1032.9 26.025 1031.55 32.225ZM1092.01 17.45H1084.36C1085.26 18.45 1086.04 20.3 1086.69 23C1087.59 26.9 1087.59 30.975 1086.69 35.225C1085.64 40.175 1083.36 44.375 1079.86 47.825C1076.41 51.275 1072.49 53 1068.09 53C1065.44 53 1063.26 52.55 1061.56 51.65C1060.46 51.1 1059.66 50.425 1059.16 49.625C1058.21 50.425 1057.21 51.075 1056.16 51.575C1054.06 52.525 1051.56 53 1048.66 53C1045.61 53 1043.14 52.325 1041.24 50.975C1038.39 49.025 1037.41 45.9 1038.31 41.6L1043.49 17.45H1039.96L1041.31 10.925H1093.36L1092.01 17.45ZM1080.31 34.625C1081.31 29.825 1080.91 26 1079.11 23.15C1076.66 19.35 1071.76 17.45 1064.41 17.45H1050.01L1044.99 40.85C1044.64 42.7 1044.69 44.025 1045.14 44.825C1045.79 45.925 1047.34 46.475 1049.79 46.475C1051.69 46.475 1053.36 46.125 1054.81 45.425C1056.31 44.675 1057.19 43.625 1057.44 42.275L1058.49 37.4H1065.01L1063.96 42.275C1063.71 43.625 1064.09 44.675 1065.09 45.425C1066.09 46.125 1067.56 46.475 1069.51 46.475C1072.26 46.475 1074.69 45.15 1076.79 42.5C1078.49 40.25 1079.66 37.625 1080.31 34.625ZM1094.74 4.7C1094.49 5.85 1093.84 6.85 1092.79 7.7C1091.79 8.55 1090.71 8.975 1089.56 8.975C1088.36 8.975 1087.41 8.55 1086.71 7.7C1086.06 6.85 1085.86 5.85 1086.11 4.7C1086.36 3.55 1086.99 2.55 1087.99 1.7C1089.04 0.849998 1090.14 0.424997 1091.29 0.424997C1092.49 0.424997 1093.41 0.824997 1094.06 1.625C1094.76 2.425 1094.99 3.45 1094.74 4.7ZM1127.13 31.625C1127.93 27.875 1127.35 24.575 1125.4 21.725C1123.45 18.875 1120.7 17.45 1117.15 17.45H1102.75L1099 35.15C1098.15 39.1 1098.85 42.05 1101.1 44C1103 45.65 1105.88 46.475 1109.73 46.475C1113.83 46.475 1117.55 45 1120.9 42.05C1124.2 39.15 1126.28 35.675 1127.13 31.625ZM1133.5 32.225C1132.25 38.175 1129.05 43.175 1123.9 47.225C1118.9 51.075 1113.7 53 1108.3 53C1102.65 53 1098.4 51.575 1095.55 48.725C1092.25 45.575 1091.2 41.15 1092.4 35.45L1097.65 10.925H1118.05C1123.45 10.925 1127.73 12.95 1130.88 17C1133.98 20.95 1134.85 26.025 1133.5 32.225ZM1186.39 32.975C1184.99 39.575 1182.59 44.575 1179.19 47.975C1175.84 51.325 1171.86 53 1167.26 53C1164.61 53 1162.44 52.55 1160.74 51.65C1159.64 51.1 1158.84 50.425 1158.34 49.625C1157.39 50.425 1156.39 51.075 1155.34 51.575C1153.24 52.525 1150.74 53 1147.84 53C1144.79 53 1142.31 52.325 1140.41 50.975C1137.56 49.025 1136.59 45.9 1137.49 41.6L1144.91 6.725H1168.54C1174.34 6.725 1178.81 8.475 1181.96 11.975C1184.46 14.775 1186.04 18.475 1186.69 23.075C1187.14 26.575 1187.04 29.875 1186.39 32.975ZM1165.09 20.075C1165.59 17.875 1165.21 16.2 1163.96 15.05C1162.76 13.85 1161.14 13.25 1159.09 13.25H1150.09L1149.34 16.7C1148.74 19.45 1148.99 21.9 1150.09 24.05C1151.19 26.15 1152.89 27.2 1155.19 27.2C1158.49 27.2 1160.91 26.525 1162.46 25.175C1163.76 24.025 1164.64 22.325 1165.09 20.075ZM1179.71 33.425C1180.66 29.025 1180.51 25.025 1179.26 21.425C1177.86 17.275 1175.29 14.825 1171.54 14.075C1171.84 14.675 1171.99 15.525 1171.99 16.625C1171.99 17.725 1171.81 19.125 1171.46 20.825C1170.51 25.275 1168.26 28.625 1164.71 30.875C1161.71 32.775 1158.29 33.725 1154.44 33.725C1151.89 33.725 1150.04 33.5 1148.89 33.05C1147.74 32.6 1146.86 31.9 1146.26 30.95L1144.16 40.85C1143.81 42.7 1143.86 44.025 1144.31 44.825C1144.96 45.925 1146.51 46.475 1148.96 46.475C1150.86 46.475 1152.54 46.125 1153.99 45.425C1155.49 44.675 1156.36 43.625 1156.61 42.275L1157.66 37.4H1164.19L1163.14 42.275C1162.89 43.625 1163.26 44.675 1164.26 45.425C1165.26 46.125 1166.74 46.475 1168.69 46.475C1171.64 46.475 1173.99 45.375 1175.74 43.175C1177.49 40.975 1178.81 37.725 1179.71 33.425ZM1240.71 17.45H1231.18C1232.88 18.2 1234.18 19.8 1235.08 22.25C1236.13 25.15 1236.26 28.4 1235.46 32L1231.03 53H1224.51L1228.33 35C1229.33 30.15 1228.78 26.125 1226.68 22.925C1224.23 19.275 1220.13 17.45 1214.38 17.45H1204.18L1199.01 41.825C1198.76 43.175 1199.08 44.3 1199.98 45.2C1200.93 46.05 1202.18 46.475 1203.73 46.475H1208.46L1207.11 53H1200.66C1197.76 53 1195.53 51.75 1193.98 49.25C1192.48 46.75 1192.06 43.925 1192.71 40.775L1197.66 17.45H1194.13L1195.56 10.925H1242.13L1240.71 17.45ZM1288.49 35.45C1287.39 40.65 1285.44 44.8 1282.64 47.9C1279.59 51.3 1275.94 53 1271.69 53C1268.14 53 1265.67 51.925 1264.27 49.775C1263.12 47.975 1262.84 45.65 1263.44 42.8L1264.57 37.55H1271.09L1269.82 43.4C1269.37 45.45 1270.54 46.475 1273.34 46.475C1275.64 46.475 1277.57 45.275 1279.12 42.875C1280.42 40.925 1281.42 38.25 1282.12 34.85C1283.32 29.3 1282.47 24.875 1279.57 21.575C1277.17 18.825 1274.29 17.45 1270.94 17.45H1261.19L1256.77 37.925C1255.87 42.225 1253.54 45.825 1249.79 48.725C1246.09 51.575 1242.14 53 1237.94 53C1234.69 53 1232.17 52.575 1230.37 51.725C1228.57 50.825 1227.17 49.575 1226.17 47.975L1229.17 40.625C1229.42 41.325 1229.84 42.025 1230.44 42.725C1232.44 45.225 1235.37 46.475 1239.22 46.475C1241.92 46.475 1244.29 45.65 1246.34 44C1248.44 42.3 1249.79 40.15 1250.39 37.55L1256.02 10.925H1272.44C1278.69 10.925 1283.32 13.475 1286.32 18.575C1289.17 23.375 1289.89 29 1288.49 35.45ZM1353.75 41.9C1353.05 45.2 1351.22 47.975 1348.27 50.225C1345.82 52.075 1343 53 1339.8 53C1335.3 53 1332.4 51.4 1331.1 48.2C1330.6 45.2 1330.12 42.2 1329.67 39.2C1329.12 35.95 1327.52 34.325 1324.87 34.325C1323.32 34.325 1321.87 34.925 1320.52 36.125C1319.22 37.275 1318.37 38.8 1317.97 40.7C1317.67 42 1317.77 43.3 1318.27 44.6C1318.77 45.85 1319.72 46.475 1321.12 46.475H1323L1321.65 53H1319.47C1316.32 53 1314.02 51.75 1312.57 49.25C1311.12 46.75 1310.75 43.9 1311.45 40.7C1312.2 37.15 1314 34.125 1316.85 31.625C1319.7 29.075 1322.8 27.8 1326.15 27.8C1329.7 27.8 1332.25 28.8 1333.8 30.8C1334.25 31.4 1335.22 35.175 1336.72 42.125C1336.97 43.625 1337.37 44.675 1337.92 45.275C1338.57 46.075 1339.65 46.475 1341.15 46.475C1342.7 46.475 1344.02 46.05 1345.12 45.2C1346.27 44.3 1346.97 43.175 1347.22 41.825L1350.15 28.175C1346.2 28.175 1343.47 26.875 1341.97 24.275C1340.52 21.675 1340.25 18.325 1341.15 14.225C1341.95 10.375 1343.62 7.125 1346.17 4.475C1348.72 1.775 1351.52 0.424997 1354.57 0.424997H1362.6L1353.75 41.9ZM1351.57 21.65L1354.65 6.875H1353.67C1351.92 6.875 1350.6 7.55 1349.7 8.9C1348.8 10.2 1348.12 11.95 1347.67 14.15C1347.12 16.6 1347.15 18.475 1347.75 19.775C1348.35 21.025 1349.62 21.65 1351.57 21.65ZM1378.75 53H1375.83C1370.78 53 1366.78 51.325 1363.83 47.975C1360.98 44.825 1359.95 41.375 1360.75 37.625L1366.45 10.925H1370.8C1375.8 10.925 1379.2 12.4 1381 15.35C1382.4 17.65 1382.75 20.5 1382.05 23.9C1380.9 29.2 1378.4 33.025 1374.55 35.375C1372.1 36.875 1369.48 37.625 1366.68 37.625C1366.63 39.025 1367.28 40.65 1368.63 42.5C1370.63 45.15 1373.35 46.475 1376.8 46.475H1380.18L1378.75 53ZM1375.45 24.125C1375.95 21.725 1375.73 19.95 1374.78 18.8C1374.03 17.9 1372.95 17.45 1371.55 17.45L1368.63 31.1C1370.48 31.1 1371.95 30.45 1373.05 29.15C1374.2 27.85 1375 26.175 1375.45 24.125ZM1445.74 32.225H1440.27C1441.37 33.475 1441.52 35.95 1440.72 39.65C1439.77 44.2 1437.29 47.65 1433.29 50C1429.84 52 1425.82 53 1421.22 53C1415.22 53 1411.04 51.675 1408.69 49.025C1406.64 46.675 1406.07 43.4 1406.97 39.2L1408.47 32.225H1404.94L1406.29 25.7H1424.07L1425.87 17.45H1408.09L1409.44 10.925H1450.24L1448.89 17.45H1432.39L1430.59 25.7H1447.09L1445.74 32.225ZM1434.34 38.825C1434.79 36.875 1434.34 35.3 1432.99 34.1C1431.64 32.85 1429.49 32.225 1426.54 32.225H1414.99L1413.49 39.275C1412.99 41.675 1413.29 43.425 1414.39 44.525C1415.74 45.825 1418.32 46.475 1422.12 46.475C1425.62 46.475 1428.19 46.075 1429.84 45.275C1432.19 44.125 1433.69 41.975 1434.34 38.825ZM1499.63 17.45H1495.88L1490.71 41.9C1490.01 45.2 1488.18 47.975 1485.23 50.225C1482.78 52.075 1479.96 53 1476.76 53C1472.26 53 1469.36 51.4 1468.06 48.2C1467.56 45.2 1467.08 42.2 1466.63 39.2C1466.08 35.95 1464.48 34.325 1461.83 34.325C1460.28 34.325 1458.83 34.925 1457.48 36.125C1456.18 37.275 1455.33 38.8 1454.93 40.7C1454.63 42 1454.73 43.3 1455.23 44.6C1455.73 45.85 1456.68 46.475 1458.08 46.475H1459.96L1458.61 53H1456.43C1453.28 53 1450.98 51.75 1449.53 49.25C1448.08 46.75 1447.71 43.9 1448.41 40.7C1449.16 37.15 1450.96 34.125 1453.81 31.625C1456.66 29.075 1459.76 27.8 1463.11 27.8C1466.66 27.8 1469.21 28.8 1470.76 30.8C1471.21 31.4 1472.18 35.175 1473.68 42.125C1473.93 43.625 1474.33 44.675 1474.88 45.275C1475.53 46.075 1476.61 46.475 1478.11 46.475C1479.66 46.475 1480.98 46.05 1482.08 45.2C1483.23 44.3 1483.93 43.175 1484.18 41.825L1489.36 17.45H1453.28L1454.71 10.925H1501.06L1499.63 17.45ZM1507.07 70.55C1506.22 71.8 1504.45 72.85 1501.75 73.7C1499.1 74.6 1496.55 75.05 1494.1 75.05C1491.75 75.05 1490.1 74.65 1489.15 73.85C1488.7 74.1 1487.92 74.35 1486.82 74.6C1485.67 74.85 1484.85 74.975 1484.35 74.975H1464.25L1465.52 69.125C1466.37 65.075 1468.3 61.875 1471.3 59.525C1474.3 57.175 1477.7 56 1481.5 56C1484.1 56 1486.4 56.725 1488.4 58.175C1490.35 59.675 1491.47 61.325 1491.77 63.125L1494.47 50.45H1500.1L1498.15 59.375C1497.75 61.325 1497.27 63.125 1496.72 64.775C1496.17 66.425 1495.45 67.85 1494.55 69.05C1494.8 69.15 1495.15 69.25 1495.6 69.35C1496.05 69.45 1496.67 69.5 1497.47 69.5C1498.62 69.5 1499.67 69.275 1500.62 68.825C1501.62 68.425 1502.52 67.9 1503.32 67.25L1507.07 70.55ZM1485.62 69.5L1485.92 67.85C1486.42 65.45 1485.97 63.725 1484.57 62.675C1483.42 61.875 1481.67 61.475 1479.32 61.475C1477.47 61.475 1475.77 62.1 1474.22 63.35C1472.67 64.65 1471.72 66.15 1471.37 67.85L1471.07 69.5H1485.62ZM1563.43 33.95H1560.8L1559.98 38.525C1559.13 42.375 1557.23 45.65 1554.28 48.35C1550.88 51.45 1546.8 53 1542.05 53C1538.8 53 1536.33 52.55 1534.63 51.65C1533.78 51.2 1533.05 50.525 1532.45 49.625C1531.6 50.675 1530.05 51.5 1527.8 52.1C1525.55 52.7 1523.33 53 1521.13 53C1517.98 53 1515.4 52.05 1513.4 50.15C1511.4 48.2 1510.68 45.875 1511.23 43.175L1516.7 17.45H1513.18L1514.6 10.925H1568.3L1566.88 17.45H1553.98C1555.73 18.4 1557.23 19.8 1558.48 21.65C1559.73 23.45 1560.48 25.375 1560.73 27.425H1564.78L1563.43 33.95ZM1553.23 39.35L1554.43 33.95H1546.78L1548.13 27.425H1554.13C1553.88 25.575 1552.5 23.6 1550 21.5C1546.8 18.8 1543.05 17.45 1538.75 17.45H1523.23L1517.9 42.5C1517.65 43.75 1518 44.75 1518.95 45.5C1519.95 46.2 1521.23 46.55 1522.78 46.55C1524.73 46.55 1526.38 46.25 1527.73 45.65C1529.58 44.85 1530.65 43.725 1530.95 42.275L1532 37.175H1538.45L1537.33 42.575C1537.03 43.925 1537.5 44.925 1538.75 45.575C1540.05 46.225 1541.68 46.55 1543.63 46.55C1545.88 46.55 1547.93 45.85 1549.78 44.45C1551.68 43 1552.83 41.3 1553.23 39.35ZM1622.31 17.45H1613.61C1614.91 18.55 1615.91 20.875 1616.61 24.425C1617.26 27.625 1617.21 30.95 1616.46 34.4C1615.36 39.6 1613.14 43.925 1609.79 47.375C1606.19 51.125 1602.09 53 1597.49 53C1594.64 53 1592.36 52.55 1590.66 51.65C1589.66 51.1 1588.94 50.425 1588.49 49.625C1587.59 50.475 1586.64 51.125 1585.64 51.575C1583.54 52.525 1580.89 53 1577.69 53C1573.99 53 1571.21 52.025 1569.36 50.075C1567.56 48.125 1566.99 45.65 1567.64 42.65L1569.14 35.375H1575.66L1574.24 42.2C1573.94 43.65 1574.21 44.725 1575.06 45.425C1575.91 46.125 1577.16 46.475 1578.81 46.475C1581.01 46.475 1582.79 46.15 1584.14 45.5C1585.54 44.85 1586.41 43.775 1586.76 42.275L1587.74 37.7H1594.19L1593.21 42.35C1592.91 43.75 1593.46 44.825 1594.86 45.575C1596.01 46.175 1597.46 46.475 1599.21 46.475C1601.61 46.475 1603.81 45.325 1605.81 43.025C1607.86 40.675 1609.29 37.525 1610.09 33.575C1611.19 28.475 1610.24 24.525 1607.24 21.725C1604.29 18.875 1599.54 17.45 1592.99 17.45H1572.96L1574.39 10.925H1623.74L1622.31 17.45ZM1647.14 33.95C1645.74 40.55 1643.24 45.475 1639.64 48.725C1636.49 51.575 1632.66 53 1628.16 53C1623.86 53 1620.96 51.675 1619.46 49.025C1618.31 46.975 1618.04 44.5 1618.64 41.6L1619.54 37.475H1626.06L1625.09 41.975C1624.49 44.975 1626.19 46.475 1630.19 46.475C1633.44 46.475 1635.96 44.95 1637.76 41.9C1638.91 40.05 1639.86 37.4 1640.61 33.95C1641.81 28.3 1641.51 24.15 1639.71 21.5C1637.96 18.8 1634.96 17.45 1630.71 17.45H1618.56L1619.91 10.925H1631.09C1638.49 10.925 1643.46 13.4 1646.01 18.35C1648.11 22.4 1648.49 27.6 1647.14 33.95ZM1702.75 53H1696.22L1701.4 28.7C1702.7 22.5 1701.97 17.25 1699.22 12.95C1696.67 8.9 1693.2 6.875 1688.8 6.875C1689.55 8.275 1689.97 9.725 1690.07 11.225C1690.22 12.725 1690.07 14.475 1689.62 16.475C1688.57 21.525 1686.02 25.325 1681.97 27.875C1678.57 30.025 1674.67 31.1 1670.27 31.1C1667.27 31.1 1665.02 30.85 1663.52 30.35C1662.07 29.8 1660.97 29 1660.22 27.95L1658.12 37.7C1657.62 40.2 1658.07 42.3 1659.47 44C1660.87 45.65 1662.9 46.475 1665.55 46.475H1671.4L1670.05 53H1663.37C1659.32 53 1656.1 51.6 1653.7 48.8C1651.35 45.95 1650.6 42.475 1651.45 38.375L1659.55 0.424997H1687.37C1694.92 0.424997 1700.65 2.825 1704.55 7.625C1708.7 12.775 1709.82 19.8 1707.92 28.7L1702.75 53ZM1683.1 16.475C1683.75 13.425 1683.4 11.075 1682.05 9.425C1680.7 7.725 1678.62 6.875 1675.82 6.875H1664.72L1662.92 15.125C1662.47 17.325 1662.9 19.375 1664.2 21.275C1665.75 23.475 1668.02 24.575 1671.02 24.575C1674.97 24.575 1677.9 23.8 1679.8 22.25C1681.5 20.9 1682.6 18.975 1683.1 16.475ZM1761 17.45H1752.9C1754.8 18.55 1756.02 20.475 1756.57 23.225C1757.12 25.975 1757.05 28.975 1756.35 32.225C1755.1 38.175 1751.9 43.175 1746.75 47.225C1741.8 51.075 1736.6 53 1731.15 53C1725.55 53 1721.3 51.575 1718.4 48.725C1715.1 45.575 1714.05 41.15 1715.25 35.45L1719.07 17.45H1715.55L1716.97 10.925H1762.42L1761 17.45ZM1749.97 31.625C1750.87 27.375 1750.17 24.075 1747.87 21.725C1745.07 18.875 1739.95 17.45 1732.5 17.45H1725.6L1721.85 35.15C1721 39.1 1721.7 42.05 1723.95 44C1725.85 45.65 1728.72 46.475 1732.57 46.475C1736.67 46.475 1740.37 45 1743.67 42.05C1747.02 39.1 1749.12 35.625 1749.97 31.625ZM1781.87 32.225C1780.57 38.225 1777.87 43.2 1773.77 47.15C1769.67 51.05 1764.87 53 1759.37 53C1755.52 53 1752.57 52.45 1750.52 51.35C1749.32 50.7 1748.17 49.575 1747.07 47.975L1750.07 40.625C1751.52 42.975 1753.07 44.575 1754.72 45.425C1756.07 46.125 1757.87 46.475 1760.12 46.475C1763.42 46.475 1766.32 45.525 1768.82 43.625C1772.07 41.225 1774.22 37.525 1775.27 32.525C1776.17 28.275 1776.02 24.75 1774.82 21.95C1773.52 18.95 1771.24 17.45 1767.99 17.45H1765.22L1766.57 10.925H1769.49C1774.54 10.925 1778.22 13.075 1780.52 17.375C1782.67 21.425 1783.12 26.375 1781.87 32.225ZM1793.95 47.825C1793.7 48.975 1793.05 49.975 1792 50.825C1791 51.675 1789.92 52.1 1788.77 52.1C1787.57 52.1 1786.62 51.675 1785.92 50.825C1785.27 49.975 1785.07 48.975 1785.32 47.825C1785.57 46.675 1786.2 45.675 1787.2 44.825C1788.25 43.975 1789.35 43.55 1790.5 43.55C1791.7 43.55 1792.62 43.95 1793.27 44.75C1793.97 45.55 1794.2 46.575 1793.95 47.825Z" fill="black"/>
</svg>
