<svg width="2229" height="113" viewBox="0 0 2229 113" fill="none" xmlns="http://www.w3.org/2000/svg">
<path d="M62.7969 56.3091C62.7969 59.4341 62.4062 62.3149 61.625 64.9517C60.8682 67.5884 59.7695 69.8589 58.3291 71.7632C56.9131 73.6675 55.1919 75.1567 53.1655 76.231C51.1636 77.2808 48.9175 77.8057 46.4272 77.8057C39.5425 77.8057 34.5864 73.4844 31.5591 64.8418C28.2144 73.4111 23.2583 77.6958 16.6909 77.6958C14.4448 77.6958 12.3696 77.293 10.4653 76.4873C8.56104 75.6572 6.90088 74.5342 5.48486 73.1182C4.06885 71.6777 2.95801 70.0054 2.15234 68.1011C1.37109 66.1724 0.980469 64.0972 0.980469 61.8755C1.00488 60.0444 1.32227 58.3232 1.93262 56.7119C2.54297 55.0762 3.36084 53.6479 4.38623 52.4272C5.41162 51.2065 6.62012 50.2422 8.01172 49.5342C9.40332 48.8262 10.8926 48.4722 12.4795 48.4722C13.7979 48.4722 15.0063 48.6797 16.105 49.0947C17.2036 49.4854 18.1436 50.0591 18.9248 50.8159C19.7305 51.5483 20.353 52.4517 20.7925 53.5259C21.2319 54.6001 21.4517 55.8086 21.4517 57.1514C21.4517 60.1787 19.8037 62.5469 16.5078 64.2559L12.5894 60.96C15.2017 59.5195 16.5078 57.9692 16.5078 56.3091C16.5078 55.894 16.3979 55.5156 16.1782 55.1738C15.9585 54.8076 15.6777 54.4902 15.3359 54.2217C14.9941 53.9531 14.6157 53.7456 14.2007 53.5991C13.7856 53.4526 13.3828 53.3794 12.9922 53.3794C12.1133 53.4282 11.2954 53.6724 10.5386 54.1118C9.78174 54.5269 9.12256 55.1006 8.56104 55.833C7.99951 56.5654 7.56006 57.4321 7.24268 58.4331C6.92529 59.4097 6.7666 60.4717 6.7666 61.6191C6.7666 63.1084 6.98633 64.4756 7.42578 65.7207C7.88965 66.9658 8.53662 68.04 9.3667 68.9434C10.2212 69.8467 11.2466 70.5547 12.4429 71.0674C13.6392 71.5801 14.9941 71.8364 16.5078 71.8364C22.1963 71.8364 26.127 67.4541 28.2998 58.6895H34.6353C37.7114 67.8203 41.7764 72.3857 46.8301 72.3857C48.3926 72.3857 49.8086 71.9463 51.0781 71.0674C52.3477 70.1641 53.4341 68.9434 54.3374 67.4053C55.2651 65.8672 55.9731 64.085 56.4614 62.0586C56.9741 60.0078 57.2305 57.8228 57.2305 55.5034C57.2305 51.6948 56.5835 48.2524 55.2896 45.1763C53.9956 42.0757 52.1523 39.439 49.7598 37.2661C47.3672 35.0933 44.4619 33.4209 41.0439 32.249C37.6504 31.0771 33.8418 30.4912 29.6182 30.4912C25.126 30.4912 21.1221 31.1992 17.6064 32.6152V26.7192C21.4395 25.6206 25.4434 25.0713 29.6182 25.0713C34.5254 25.0713 39.0054 25.8281 43.0581 27.3418C47.1353 28.8555 50.6387 30.9917 53.5684 33.7505C56.498 36.4849 58.7686 39.7686 60.3799 43.6016C61.9912 47.4346 62.7969 51.6704 62.7969 56.3091ZM133.109 49.2778C133.109 53.5503 132.389 57.4321 130.949 60.9233C129.508 64.4146 127.445 67.4053 124.76 69.8955C122.099 72.3857 118.876 74.3145 115.092 75.6816C111.332 77.0244 107.108 77.6958 102.421 77.6958C94.2422 77.6958 87.2109 75.1689 81.3271 70.1152C75.0039 64.6953 71.8423 57.7617 71.8423 49.3145C71.8423 45.8477 72.4282 42.6616 73.6001 39.7563C74.772 36.8511 76.4077 34.3486 78.5073 32.249C80.6069 30.125 83.0972 28.4771 85.978 27.3052C88.8833 26.1333 92.0693 25.5474 95.5361 25.5474C97.2207 25.5474 98.771 25.8647 100.187 26.4995C101.627 27.1099 102.873 27.9521 103.922 29.0264C104.972 30.0762 105.79 31.3213 106.376 32.7617C106.986 34.2021 107.292 35.7402 107.292 37.376C107.267 38.9629 106.95 40.4277 106.339 41.7705C105.753 43.0889 104.948 44.2363 103.922 45.2129C102.921 46.1895 101.737 46.9585 100.37 47.52C99.0273 48.0571 97.5747 48.3257 96.0122 48.3257C94.3276 48.3257 92.7773 48.0449 91.3613 47.4834C89.9697 46.9219 88.7612 46.1528 87.7358 45.1763C86.7104 44.1753 85.917 43.0034 85.3555 41.6606C84.7939 40.3179 84.5132 38.853 84.5132 37.2661C84.5132 36.0698 84.6963 34.9224 85.0625 33.8237C80.1309 37.5103 77.665 42.8081 77.665 49.7173C77.665 56.5288 80.3384 62.022 85.6851 66.1968C90.4702 69.9077 96.0488 71.7632 102.421 71.7632C108.695 71.7632 114.164 70.0786 118.827 66.7095C124.467 62.6079 127.287 56.7852 127.287 49.2412C127.287 40.5254 124.381 34.3975 118.571 30.8574H113.407V25.4741H127.177L127.213 30.8574C131.144 35.96 133.109 42.1001 133.109 49.2778ZM101.505 37.376C101.505 36.5703 101.347 35.8013 101.029 35.0688C100.712 34.3364 100.272 33.7017 99.7109 33.1646C99.1738 32.603 98.5391 32.1636 97.8066 31.8462C97.0742 31.5044 96.3052 31.3335 95.4995 31.3335C93.7417 31.3335 92.3745 31.8828 91.3979 32.9814C90.4214 34.0557 89.9331 35.5205 89.9331 37.376C89.9331 38.2061 90.0674 38.9873 90.3359 39.7197C90.6045 40.4277 90.9829 41.0503 91.4712 41.5874C91.9839 42.1001 92.582 42.5151 93.2656 42.8325C93.9492 43.1255 94.6938 43.272 95.4995 43.272C96.3052 43.272 97.0742 43.1255 97.8066 42.8325C98.5391 42.5151 99.1738 42.1001 99.7109 41.5874C100.272 41.0503 100.712 40.4277 101.029 39.7197C101.347 38.9873 101.505 38.2061 101.505 37.376ZM173.209 53.0864C173.209 56.6509 172.782 59.8369 171.928 62.6445C171.073 65.4277 169.828 67.7959 168.192 69.749C166.557 71.7021 164.555 73.1914 162.187 74.2168C159.818 75.2422 157.133 75.7549 154.13 75.7549C151.933 75.7549 149.821 75.3643 147.794 74.583C145.768 73.8018 143.974 72.7397 142.411 71.397C140.873 70.0542 139.64 68.4917 138.712 66.7095C137.785 64.9028 137.321 62.9863 137.321 60.96C137.321 59.0557 137.626 57.3101 138.236 55.7231C138.871 54.1118 139.738 52.7324 140.836 51.585C141.935 50.4131 143.229 49.5098 144.718 48.875C146.232 48.2158 147.88 47.8862 149.662 47.8862C150.761 47.8862 151.811 48.0815 152.812 48.4722C153.837 48.8384 154.728 49.3511 155.485 50.0103C156.266 50.6694 156.876 51.4385 157.316 52.3174C157.78 53.1719 158.012 54.0874 158.012 55.064C158.012 55.9429 157.865 56.7485 157.572 57.481C157.279 58.2134 156.864 58.8481 156.327 59.3853C155.814 59.8979 155.192 60.313 154.459 60.6304C153.727 60.9233 152.921 61.0698 152.042 61.0698C151.237 61.0698 150.48 60.9111 149.772 60.5938C149.088 60.2764 148.478 59.8613 147.941 59.3486C147.428 58.8359 147.025 58.25 146.732 57.5908C146.439 56.9072 146.293 56.2114 146.293 55.5034C146.293 55.2104 146.33 54.9541 146.403 54.7344C145.28 55.4424 144.462 56.2725 143.949 57.2246C143.461 58.1768 143.217 59.3486 143.217 60.7402C143.241 62.1562 143.522 63.438 144.059 64.5854C144.596 65.7329 145.329 66.7217 146.256 67.5518C147.208 68.3574 148.332 68.98 149.625 69.4194C150.919 69.8589 152.348 70.0786 153.91 70.0786C156.059 70.0786 157.963 69.7002 159.623 68.9434C161.308 68.1865 162.711 67.0879 163.834 65.6475C164.982 64.207 165.849 62.437 166.435 60.3374C167.021 58.2134 167.313 55.7964 167.313 53.0864C167.313 45.6646 165.043 39.9395 160.502 35.9111C156.693 32.542 152.14 30.8574 146.842 30.8574H109.342V25.584H146.183C152.58 25.584 158.244 27.4272 163.175 31.1138C169.865 36.1187 173.209 43.4429 173.209 53.0864ZM169.73 100.291C169.73 106.785 167.106 110.984 161.857 112.889L159.806 108.274C163.078 106.834 164.713 104.173 164.713 100.291C164.713 99.2656 164.591 98.3257 164.347 97.4712C164.079 96.6411 163.712 95.9209 163.249 95.3105C162.76 94.7002 162.174 94.2241 161.491 93.8823C160.807 93.5405 160.026 93.3696 159.147 93.3696C155.485 93.3696 153.507 96.0186 153.214 101.316H146.952C146.854 96.0186 144.975 93.3696 141.312 93.3696C140.531 93.3696 139.799 93.5527 139.115 93.9189C138.432 94.3096 137.833 94.8345 137.321 95.4937C136.808 96.1772 136.405 96.9829 136.112 97.9106C135.795 98.8628 135.636 99.8882 135.636 100.987C135.636 101.719 135.771 102.452 136.039 103.184C136.308 103.917 136.686 104.588 137.174 105.198C137.638 105.833 138.212 106.395 138.896 106.883C139.555 107.371 140.275 107.737 141.056 107.981L139.005 112.706C137.711 112.291 136.54 111.68 135.49 110.875C134.44 110.069 133.549 109.117 132.816 108.018C132.084 106.944 131.522 105.735 131.132 104.393C130.741 103.074 130.546 101.67 130.546 100.181C130.546 98.6187 130.827 97.1172 131.388 95.6768C131.925 94.2363 132.67 92.9668 133.622 91.8682C134.574 90.7695 135.697 89.8906 136.991 89.2314C138.285 88.5723 139.689 88.2427 141.203 88.2427C142.277 88.2427 143.29 88.3892 144.242 88.6821C145.17 88.9751 146.012 89.3901 146.769 89.9272C147.526 90.4888 148.173 91.1479 148.71 91.9048C149.247 92.686 149.65 93.5527 149.918 94.5049C150.26 93.5527 150.749 92.686 151.383 91.9048C151.994 91.1479 152.714 90.4888 153.544 89.9272C154.35 89.3901 155.241 88.9751 156.217 88.6821C157.194 88.3892 158.207 88.2427 159.257 88.2427C160.795 88.2427 162.211 88.5479 163.505 89.1582C164.774 89.793 165.873 90.6475 166.801 91.7217C167.729 92.7959 168.449 94.0654 168.961 95.5303C169.474 97.0195 169.73 98.6064 169.73 100.291ZM243.852 16.5752C243.852 18.6016 243.522 20.4448 242.863 22.105C242.228 23.7651 241.264 25.2056 239.97 26.4263C238.7 27.647 237.113 28.6357 235.209 29.3926C233.305 30.1494 231.095 30.6377 228.581 30.8574C232.877 33.1768 236.454 36.9365 239.311 42.1367C242.313 47.6055 243.815 53.3184 243.815 59.2754C243.815 61.9121 243.449 64.3657 242.716 66.6362C241.984 68.9067 240.958 70.8721 239.64 72.5322C238.322 74.168 236.747 75.4619 234.916 76.4141C233.085 77.3418 231.083 77.8057 228.91 77.8057C224.662 77.8057 221.037 76.1699 218.034 72.8984C216.056 70.7256 214.494 68.04 213.346 64.8418C210.001 73.4111 205.045 77.6958 198.478 77.6958C196.159 77.6958 194.035 77.2197 192.106 76.2676C190.202 75.3154 188.554 74.0215 187.162 72.3857C185.795 70.7256 184.721 68.7725 183.939 66.5264C183.183 64.2803 182.804 61.8633 182.804 59.2754C182.804 53.3916 184.501 47.5811 187.895 41.8438C190.922 36.6924 194.303 33.0303 198.039 30.8574H182.804V25.5107H226.786C230.399 25.5107 233.183 24.6685 235.136 22.9839C237.089 21.2749 238.065 18.8701 238.065 15.7695C238.065 9.54395 234.611 6.43115 227.702 6.43115V0.974609C238.468 0.974609 243.852 6.1748 243.852 16.5752ZM237.992 59.2388C237.992 52.1099 235.587 45.6279 230.778 39.793C225.846 33.8359 220.036 30.8574 213.346 30.8574C206.706 30.8574 200.858 33.9092 195.805 40.0127C190.971 45.8477 188.554 52.2075 188.554 59.0923C188.554 61.0942 188.773 62.9131 189.213 64.5488C189.652 66.1602 190.275 67.5396 191.081 68.687C191.911 69.8345 192.924 70.7256 194.12 71.3604C195.316 71.9707 196.684 72.2759 198.222 72.2759C203.446 72.2759 207.401 67.7471 210.087 58.6895H216.422C218.62 67.7471 222.465 72.2759 227.958 72.2759C229.423 72.2759 230.766 71.9463 231.986 71.2871C233.231 70.6035 234.293 69.6758 235.172 68.5039C236.051 67.332 236.735 65.9526 237.223 64.3657C237.736 62.7788 237.992 61.0698 237.992 59.2388ZM305.741 51.0723C305.741 54.8809 305.094 58.3965 303.8 61.6191C302.531 64.8174 300.736 67.5884 298.417 69.9321C296.098 72.2515 293.327 74.0703 290.104 75.3887C286.906 76.6826 283.378 77.3296 279.521 77.3296C271.977 77.3296 265.702 74.7539 260.697 69.6025C255.814 64.5732 253.373 58.3965 253.373 51.0723C253.373 41.917 257.096 35.1787 264.542 30.8574H254.289V25.5107H288.712C292.301 25.5107 295.072 24.6685 297.025 22.9839C298.979 21.2993 299.955 18.8945 299.955 15.7695C299.955 9.54395 296.5 6.43115 289.591 6.43115V0.974609C300.358 0.974609 305.741 6.1748 305.741 16.5752C305.741 23.5088 301.994 27.9766 294.499 29.9785C295.768 30.8086 296.952 31.7485 298.051 32.7983C299.174 33.8237 300.199 34.9956 301.127 36.314C304.203 40.6108 305.741 45.5303 305.741 51.0723ZM300.065 51.0723C300.065 48.2158 299.54 45.5547 298.49 43.0889C297.465 40.623 296.037 38.4868 294.206 36.6802C292.399 34.8491 290.263 33.4209 287.797 32.3955C285.331 31.3701 282.682 30.8574 279.85 30.8574C276.847 30.8574 274.052 31.3823 271.464 32.4321C268.876 33.4575 266.642 34.8735 264.762 36.6802C262.882 38.4868 261.405 40.623 260.331 43.0889C259.257 45.5547 258.72 48.2158 258.72 51.0723C258.72 56.7363 260.734 61.6191 264.762 65.7207C268.888 69.9199 273.917 72.0195 279.85 72.0195C285.539 72.0195 290.36 69.9199 294.315 65.7207C298.148 61.668 300.065 56.7852 300.065 51.0723ZM377.116 53.9287C377.116 57.4199 376.676 60.6182 375.797 63.5234C374.918 66.4287 373.661 68.9312 372.025 71.0308C370.39 73.106 368.412 74.7173 366.093 75.8647C363.798 77.0122 361.222 77.5859 358.366 77.5859C356.046 77.5859 353.886 77.2319 351.884 76.5239C349.906 75.7915 348.173 74.7783 346.684 73.4844C345.219 72.1904 344.059 70.6523 343.205 68.8701C342.375 67.0879 341.959 65.1348 341.959 63.0107C341.959 61.3994 342.24 59.8613 342.802 58.3965C343.388 56.9316 344.181 55.6499 345.182 54.5513C346.208 53.4282 347.416 52.5371 348.808 51.8779C350.224 51.1943 351.762 50.8525 353.422 50.8525C354.496 50.8525 355.509 51.0479 356.461 51.4385C357.438 51.8047 358.28 52.3052 358.988 52.9399C359.721 53.5747 360.294 54.3193 360.709 55.1738C361.125 56.0039 361.332 56.8706 361.332 57.7739C361.332 58.5552 361.186 59.312 360.893 60.0444C360.624 60.7769 360.246 61.4238 359.757 61.9854C359.269 62.5469 358.683 62.9985 358 63.3403C357.34 63.6577 356.632 63.8164 355.875 63.8164C355.143 63.8164 354.423 63.6821 353.715 63.4136C353.031 63.1206 352.421 62.7422 351.884 62.2783C351.347 61.79 350.919 61.2407 350.602 60.6304C350.285 60.02 350.126 59.373 350.126 58.6895C350.126 58.543 350.126 58.3965 350.126 58.25C350.15 58.1035 350.175 57.9448 350.199 57.7739C348.759 58.9946 348.039 60.667 348.039 62.791C348.039 64.207 348.271 65.4766 348.734 66.5996C349.223 67.6982 349.906 68.6382 350.785 69.4194C351.664 70.1763 352.726 70.7622 353.971 71.1772C355.241 71.5679 356.669 71.7632 358.256 71.7632C360.307 71.7632 362.15 71.3481 363.786 70.5181C365.421 69.6636 366.813 68.4795 367.96 66.9658C369.108 65.4521 369.987 63.6455 370.597 61.5459C371.208 59.4463 371.513 57.127 371.513 54.5879C371.513 51.2188 371.024 48.0938 370.048 45.2129C369.096 42.332 367.753 39.8418 366.02 37.7422C364.286 35.6182 362.199 33.958 359.757 32.7617C357.34 31.5654 354.667 30.9673 351.737 30.9673C348.979 30.9673 346.525 31.48 344.376 32.5054C342.252 33.5063 340.446 34.959 338.957 36.8633C337.467 38.7676 336.332 41.0869 335.551 43.8213C334.794 46.5557 334.416 49.644 334.416 53.0864C334.416 69.0776 329.154 77.0732 318.632 77.0732C308.085 77.0732 302.812 70.6768 302.812 57.8838H307.243C307.243 60.374 307.462 62.498 307.902 64.2559C308.317 66.0137 308.988 67.4663 309.916 68.6138C310.844 69.7368 312.028 70.5669 313.468 71.104C314.933 71.6167 316.679 71.873 318.705 71.873C325.248 71.873 328.52 64.7563 328.52 50.5229C328.52 46.812 329.081 43.4185 330.204 40.3423C331.327 37.2661 332.89 34.6294 334.892 32.4321C336.918 30.2104 339.311 28.4893 342.069 27.2686C344.828 26.0479 347.855 25.4375 351.151 25.4375C359.306 25.4375 365.836 28.5991 370.744 34.9224C374.992 40.3911 377.116 46.7266 377.116 53.9287ZM477.311 79.3804C476.115 80.5034 474.345 81.0649 472.001 81.0649C468.998 81.0649 466.715 80.1494 465.153 78.3184C464.25 77.2686 463.163 75.2544 461.894 72.2759C461.283 70.8843 460.661 69.7002 460.026 68.7236C459.416 67.7227 458.781 66.917 458.122 66.3066C452.775 73.6553 446.439 77.3296 439.115 77.3296C436.454 77.3296 434.062 77.0732 431.938 76.5605C429.813 76.0479 428.007 75.3154 426.518 74.3633C425.028 73.4111 423.881 72.2637 423.075 70.9209C422.294 69.5537 421.903 68.04 421.903 66.3799C421.903 58.0791 427.824 53.9287 439.665 53.9287C444.84 53.9287 450.236 55.2471 455.851 57.8838C457.023 56.2725 457.914 54.417 458.524 52.3174C459.159 50.2178 459.477 47.874 459.477 45.2861C459.477 43.3086 459.196 41.4653 458.634 39.7563C458.097 38.0474 457.328 36.5581 456.327 35.2886C455.326 34.019 454.118 33.0303 452.702 32.3223C451.286 31.5898 449.723 31.2236 448.014 31.2236C446.574 31.2236 445.231 31.5654 443.986 32.249C442.741 32.9082 441.642 33.8237 440.69 34.9956C439.762 36.1675 439.005 37.5591 438.419 39.1704C437.833 40.7817 437.467 42.5151 437.321 44.3706H429.85C429.728 42.3198 429.398 40.4888 428.861 38.8774C428.324 37.2417 427.592 35.8623 426.664 34.7393C425.761 33.5918 424.674 32.7251 423.405 32.1392C422.135 31.5288 420.719 31.2236 419.157 31.2236C417.814 31.2236 416.581 31.4922 415.458 32.0293C414.359 32.542 413.407 33.2744 412.602 34.2266C411.796 35.1543 411.173 36.2651 410.734 37.5591C410.294 38.853 410.075 40.269 410.075 41.8071C410.075 47.7642 412.077 50.7427 416.081 50.7427V56.5288C414.25 56.4312 412.614 56.0283 411.173 55.3203C409.757 54.5879 408.549 53.5869 407.548 52.3174C406.571 51.0234 405.814 49.4609 405.277 47.6299C404.765 45.7744 404.508 43.6748 404.508 41.3311C404.508 38.9629 404.862 36.79 405.57 34.8125C406.303 32.835 407.316 31.1504 408.61 29.7588C409.928 28.3428 411.479 27.2441 413.261 26.4629C415.067 25.6816 417.033 25.291 419.157 25.291C420.817 25.291 422.379 25.5474 423.844 26.0601C425.333 26.5483 426.688 27.2808 427.909 28.2573C429.13 29.2095 430.204 30.3813 431.132 31.7729C432.084 33.1401 432.853 34.7026 433.439 36.4604C433.903 34.8491 434.599 33.3599 435.526 31.9927C436.454 30.6255 437.528 29.4536 438.749 28.4771C439.994 27.4761 441.349 26.6948 442.814 26.1333C444.279 25.5718 445.78 25.291 447.318 25.291C450.102 25.291 452.592 25.7915 454.789 26.7925C456.986 27.769 458.854 29.1729 460.392 31.0039C461.93 32.8105 463.102 35.0078 463.908 37.5957C464.738 40.1592 465.153 43.0278 465.153 46.2017C465.153 51.3286 463.712 56.2847 460.832 61.0698C462.882 62.8276 464.518 65.0981 465.739 67.8813C466.154 68.8579 466.581 69.8345 467.021 70.811C467.46 71.7632 467.887 72.7275 468.302 73.7041C468.815 74.5098 469.499 75.1567 470.353 75.645C471.208 76.1089 472.196 76.3408 473.319 76.3408C474.516 76.3408 475.614 75.584 476.615 74.0703L477.311 79.3804ZM453.581 62.6812C452.799 62.3638 452.03 62.0586 451.273 61.7656C450.517 61.4727 449.748 61.1675 448.966 60.8501C446.256 59.9468 443.253 59.4951 439.958 59.4951C431.852 59.4951 427.799 61.5459 427.799 65.6475C427.799 66.5264 428.031 67.3442 428.495 68.1011C428.983 68.8579 429.655 69.5049 430.509 70.042C431.364 70.5791 432.389 71.0063 433.585 71.3237C434.782 71.6167 436.112 71.7632 437.577 71.7632C441.41 71.7632 444.621 70.9453 447.208 69.3096C448.307 68.6016 449.381 67.7104 450.431 66.6362C451.505 65.5376 452.555 64.2192 453.581 62.6812ZM526.42 51.0723C526.42 54.8809 525.773 58.3965 524.479 61.6191C523.209 64.8174 521.415 67.5884 519.096 69.9321C516.776 72.2515 514.005 74.0703 510.783 75.3887C507.584 76.6826 504.057 77.3296 500.199 77.3296C492.655 77.3296 486.381 74.7539 481.376 69.6025C476.493 64.5732 474.052 58.3965 474.052 51.0723C474.052 41.917 477.775 35.1787 485.221 30.8574H474.967V25.5107H509.391C512.98 25.5107 515.751 24.6685 517.704 22.9839C519.657 21.2993 520.634 18.8945 520.634 15.7695C520.634 9.54395 517.179 6.43115 510.27 6.43115V0.974609C521.037 0.974609 526.42 6.1748 526.42 16.5752C526.42 23.5088 522.672 27.9766 515.177 29.9785C516.447 30.8086 517.631 31.7485 518.729 32.7983C519.853 33.8237 520.878 34.9956 521.806 36.314C524.882 40.6108 526.42 45.5303 526.42 51.0723ZM520.744 51.0723C520.744 48.2158 520.219 45.5547 519.169 43.0889C518.144 40.623 516.715 38.4868 514.884 36.6802C513.078 34.8491 510.941 33.4209 508.476 32.3955C506.01 31.3701 503.361 30.8574 500.529 30.8574C497.526 30.8574 494.73 31.3823 492.143 32.4321C489.555 33.4575 487.321 34.8735 485.441 36.6802C483.561 38.4868 482.084 40.623 481.01 43.0889C479.936 45.5547 479.398 48.2158 479.398 51.0723C479.398 56.7363 481.413 61.6191 485.441 65.7207C489.567 69.9199 494.596 72.0195 500.529 72.0195C506.217 72.0195 511.039 69.9199 514.994 65.7207C518.827 61.668 520.744 56.7852 520.744 51.0723ZM558.28 53.5625C558.28 57.1514 557.816 60.4351 556.889 63.4136C555.961 66.3677 554.667 68.9067 553.007 71.0308C551.347 73.1304 549.345 74.7661 547.001 75.938C544.682 77.1099 542.118 77.6958 539.311 77.6958C536.967 77.6958 534.806 77.293 532.829 76.4873C530.851 75.6816 529.142 74.583 527.702 73.1914C526.261 71.7754 525.138 70.103 524.333 68.1743C523.527 66.2456 523.112 64.146 523.087 61.8755L523.051 57.4443H528.507L528.544 61.8755C528.544 63.2671 528.825 64.5732 529.386 65.7939C529.923 67.0146 530.668 68.0767 531.62 68.98C532.572 69.8833 533.695 70.5913 534.989 71.104C536.308 71.6167 537.748 71.873 539.311 71.873C541.386 71.873 543.241 71.4214 544.877 70.5181C546.513 69.6147 547.892 68.3208 549.015 66.6362C550.163 64.9517 551.029 62.9009 551.615 60.4839C552.201 58.0669 552.494 55.3447 552.494 52.3174C552.494 44.2363 550.59 38.2305 546.781 34.2998C545.219 32.6641 543.314 31.5166 541.068 30.8574H538.542V25.5107L543.485 25.5474C546.366 26.7925 548.832 28.5625 550.883 30.8574C555.814 36.375 558.28 43.9434 558.28 53.5625ZM648.002 56.3091C648.002 59.4341 647.611 62.3149 646.83 64.9517C646.073 67.5884 644.975 69.8589 643.534 71.7632C642.118 73.6675 640.397 75.1567 638.371 76.231C636.369 77.2808 634.123 77.8057 631.632 77.8057C624.748 77.8057 619.792 73.4844 616.764 64.8418C613.419 73.4111 608.463 77.6958 601.896 77.6958C599.65 77.6958 597.575 77.293 595.67 76.4873C593.766 75.6572 592.106 74.5342 590.69 73.1182C589.274 71.6777 588.163 70.0054 587.357 68.1011C586.576 66.1724 586.186 64.0972 586.186 61.8755C586.21 60.0444 586.527 58.3232 587.138 56.7119C587.748 55.0762 588.566 53.6479 589.591 52.4272C590.617 51.2065 591.825 50.2422 593.217 49.5342C594.608 48.8262 596.098 48.4722 597.685 48.4722C599.003 48.4722 600.211 48.6797 601.31 49.0947C602.409 49.4854 603.349 50.0591 604.13 50.8159C604.936 51.5483 605.558 52.4517 605.998 53.5259C606.437 54.6001 606.657 55.8086 606.657 57.1514C606.657 60.1787 605.009 62.5469 601.713 64.2559L597.794 60.96C600.407 59.5195 601.713 57.9692 601.713 56.3091C601.713 55.894 601.603 55.5156 601.383 55.1738C601.164 54.8076 600.883 54.4902 600.541 54.2217C600.199 53.9531 599.821 53.7456 599.406 53.5991C598.991 53.4526 598.588 53.3794 598.197 53.3794C597.318 53.4282 596.5 53.6724 595.744 54.1118C594.987 54.5269 594.328 55.1006 593.766 55.833C593.205 56.5654 592.765 57.4321 592.448 58.4331C592.13 59.4097 591.972 60.4717 591.972 61.6191C591.972 63.1084 592.191 64.4756 592.631 65.7207C593.095 66.9658 593.742 68.04 594.572 68.9434C595.426 69.8467 596.452 70.5547 597.648 71.0674C598.844 71.5801 600.199 71.8364 601.713 71.8364C607.401 71.8364 611.332 67.4541 613.505 58.6895H619.84C622.917 67.8203 626.981 72.3857 632.035 72.3857C633.598 72.3857 635.014 71.9463 636.283 71.0674C637.553 70.1641 638.639 68.9434 639.542 67.4053C640.47 65.8672 641.178 64.085 641.667 62.0586C642.179 60.0078 642.436 57.8228 642.436 55.5034C642.436 51.6948 641.789 48.2524 640.495 45.1763C639.201 42.0757 637.357 39.439 634.965 37.2661C632.572 35.0933 629.667 33.4209 626.249 32.249C622.855 31.0771 619.047 30.4912 614.823 30.4912C610.331 30.4912 606.327 31.1992 602.812 32.6152V26.7192C606.645 25.6206 610.648 25.0713 614.823 25.0713C619.73 25.0713 624.21 25.8281 628.263 27.3418C632.34 28.8555 635.844 30.9917 638.773 33.7505C641.703 36.4849 643.974 39.7686 645.585 43.6016C647.196 47.4346 648.002 51.6704 648.002 56.3091ZM702.311 54.478C702.311 60.8745 700.016 66.3677 695.426 70.9575C690.861 75.5229 685.355 77.8057 678.91 77.8057C672.465 77.8057 666.959 75.5229 662.394 70.9575C657.804 66.3677 655.509 60.8745 655.509 54.478C655.509 48.0815 657.804 42.5884 662.394 37.9985C666.984 33.4087 672.489 31.1138 678.91 31.1138C685.331 31.1138 690.836 33.4087 695.426 37.9985C700.016 42.5884 702.311 48.0815 702.311 54.478ZM696.378 54.3682C696.378 52 695.915 49.7539 694.987 47.6299C694.059 45.5059 692.802 43.6504 691.215 42.0635C689.628 40.4766 687.772 39.2192 685.648 38.2915C683.524 37.3638 681.278 36.8999 678.91 36.8999C676.518 36.8999 674.259 37.3638 672.135 38.2915C670.011 39.1948 668.156 40.4399 666.569 42.0269C664.982 43.6138 663.725 45.4692 662.797 47.5933C661.869 49.7173 661.405 51.9756 661.405 54.3682C661.405 56.7607 661.869 59.019 662.797 61.1431C663.725 63.2671 664.982 65.1226 666.569 66.7095C668.156 68.2964 670.011 69.5537 672.135 70.4814C674.259 71.4092 676.518 71.873 678.91 71.873C681.303 71.873 683.561 71.4092 685.685 70.4814C687.809 69.5537 689.665 68.2964 691.251 66.7095C692.838 65.1226 694.083 63.2671 694.987 61.1431C695.915 59.019 696.378 56.7607 696.378 54.3682ZM760.172 56.8584C760.172 59.9834 759.55 62.8276 758.305 65.3911C757.06 67.9302 755.326 70.1152 753.104 71.9463C750.883 73.7773 748.234 75.1934 745.158 76.1943C742.082 77.1953 738.725 77.6958 735.087 77.6958C731.156 77.6958 727.653 77.0977 724.577 75.9014C721.5 74.7051 718.888 72.9961 716.74 70.7744C714.616 68.5283 712.992 65.8184 711.869 62.6445C710.746 59.4463 710.185 55.8574 710.185 51.8779H715.971C715.971 65.3789 722.343 72.1294 735.087 72.1294C737.797 72.1294 740.336 71.7388 742.704 70.9575C745.097 70.1519 747.172 69.041 748.93 67.625C750.712 66.209 752.104 64.5244 753.104 62.5713C754.13 60.5938 754.643 58.4331 754.643 56.0894C754.643 55.3813 754.496 54.6245 754.203 53.8188C753.91 53.0132 753.544 52.2563 753.104 51.5483C752.665 50.8159 752.177 50.1689 751.64 49.6074C751.103 49.0459 750.602 48.6675 750.138 48.4722C748.917 50.7427 747.208 52.6348 745.011 54.1484C742.301 55.9795 739.213 56.895 735.746 56.895C734.184 56.895 732.719 56.6631 731.352 56.1992C730.009 55.7354 728.825 55.1006 727.799 54.2949C726.798 53.4648 726.005 52.5005 725.419 51.4019C724.857 50.3032 724.577 49.1313 724.577 47.8862C724.577 46.5435 724.894 45.2983 725.529 44.1509C726.188 43.0034 727.091 42.0146 728.239 41.1846C729.386 40.3545 730.753 39.7075 732.34 39.2437C733.952 38.7554 735.697 38.5112 737.577 38.5112C740.019 38.5112 742.997 39.1094 746.513 40.3057C746.513 39.1338 746.427 38.1572 746.256 37.376C746.085 36.5703 745.829 35.8867 745.487 35.3252C745.146 34.7393 744.706 34.2266 744.169 33.7871C743.656 33.3477 743.046 32.9082 742.338 32.4688C740.604 31.3945 738.859 30.8574 737.101 30.8574H709.818V25.584H747.318V29.9785C748.222 30.5645 748.979 31.2847 749.589 32.1392C750.224 32.9692 750.736 33.8604 751.127 34.8125C751.518 35.7646 751.798 36.7412 751.969 37.7422C752.14 38.7432 752.226 39.6953 752.226 40.5986C752.226 41.5996 752.14 42.4541 751.969 43.1621C757.438 46.5801 760.172 51.1455 760.172 56.8584ZM745.377 45.396C742.521 44.2729 740.214 43.7114 738.456 43.7114C737.284 43.7114 736.186 43.8213 735.16 44.041C734.159 44.2607 733.268 44.5537 732.487 44.9199C731.73 45.2861 731.132 45.7256 730.692 46.2383C730.253 46.751 730.033 47.3003 730.033 47.8862C730.033 48.3745 730.167 48.8384 730.436 49.2778C730.705 49.7173 731.071 50.1079 731.535 50.4497C731.999 50.7671 732.548 51.0234 733.183 51.2188C733.817 51.3896 734.513 51.4751 735.27 51.4751C740.373 51.4751 743.742 49.4487 745.377 45.396ZM801.627 53.0864C801.627 56.6509 801.2 59.8369 800.346 62.6445C799.491 65.4277 798.246 67.7959 796.61 69.749C794.975 71.7021 792.973 73.1914 790.604 74.2168C788.236 75.2422 785.551 75.7549 782.548 75.7549C780.351 75.7549 778.239 75.3643 776.212 74.583C774.186 73.8018 772.392 72.7397 770.829 71.397C769.291 70.0542 768.058 68.4917 767.13 66.7095C766.203 64.9028 765.739 62.9863 765.739 60.96C765.739 59.0557 766.044 57.3101 766.654 55.7231C767.289 54.1118 768.156 52.7324 769.254 51.585C770.353 50.4131 771.647 49.5098 773.136 48.875C774.65 48.2158 776.298 47.8862 778.08 47.8862C779.179 47.8862 780.229 48.0815 781.229 48.4722C782.255 48.8384 783.146 49.3511 783.903 50.0103C784.684 50.6694 785.294 51.4385 785.734 52.3174C786.198 53.1719 786.43 54.0874 786.43 55.064C786.43 55.9429 786.283 56.7485 785.99 57.481C785.697 58.2134 785.282 58.8481 784.745 59.3853C784.232 59.8979 783.61 60.313 782.877 60.6304C782.145 60.9233 781.339 61.0698 780.46 61.0698C779.655 61.0698 778.898 60.9111 778.19 60.5938C777.506 60.2764 776.896 59.8613 776.359 59.3486C775.846 58.8359 775.443 58.25 775.15 57.5908C774.857 56.9072 774.711 56.2114 774.711 55.5034C774.711 55.2104 774.748 54.9541 774.821 54.7344C773.698 55.4424 772.88 56.2725 772.367 57.2246C771.879 58.1768 771.635 59.3486 771.635 60.7402C771.659 62.1562 771.94 63.438 772.477 64.5854C773.014 65.7329 773.747 66.7217 774.674 67.5518C775.626 68.3574 776.75 68.98 778.043 69.4194C779.337 69.8589 780.766 70.0786 782.328 70.0786C784.477 70.0786 786.381 69.7002 788.041 68.9434C789.726 68.1865 791.129 67.0879 792.252 65.6475C793.4 64.207 794.267 62.437 794.853 60.3374C795.438 58.2134 795.731 55.7964 795.731 53.0864C795.731 45.6646 793.461 39.9395 788.92 35.9111C785.111 32.542 780.558 30.8574 775.26 30.8574H737.76V25.584H774.601C780.998 25.584 786.662 27.4272 791.593 31.1138C798.283 36.1187 801.627 43.4429 801.627 53.0864ZM872.27 16.5752C872.27 18.6016 871.94 20.4448 871.281 22.105C870.646 23.7651 869.682 25.2056 868.388 26.4263C867.118 27.647 865.531 28.6357 863.627 29.3926C861.723 30.1494 859.513 30.6377 856.999 30.8574C861.295 33.1768 864.872 36.9365 867.729 42.1367C870.731 47.6055 872.233 53.3184 872.233 59.2754C872.233 61.9121 871.867 64.3657 871.134 66.6362C870.402 68.9067 869.376 70.8721 868.058 72.5322C866.74 74.168 865.165 75.4619 863.334 76.4141C861.503 77.3418 859.501 77.8057 857.328 77.8057C853.08 77.8057 849.455 76.1699 846.452 72.8984C844.474 70.7256 842.912 68.04 841.764 64.8418C838.419 73.4111 833.463 77.6958 826.896 77.6958C824.577 77.6958 822.453 77.2197 820.524 76.2676C818.62 75.3154 816.972 74.0215 815.58 72.3857C814.213 70.7256 813.139 68.7725 812.357 66.5264C811.601 64.2803 811.222 61.8633 811.222 59.2754C811.222 53.3916 812.919 47.5811 816.312 41.8438C819.34 36.6924 822.721 33.0303 826.457 30.8574H811.222V25.5107H855.204C858.817 25.5107 861.601 24.6685 863.554 22.9839C865.507 21.2749 866.483 18.8701 866.483 15.7695C866.483 9.54395 863.029 6.43115 856.12 6.43115V0.974609C866.886 0.974609 872.27 6.1748 872.27 16.5752ZM866.41 59.2388C866.41 52.1099 864.005 45.6279 859.196 39.793C854.264 33.8359 848.454 30.8574 841.764 30.8574C835.124 30.8574 829.276 33.9092 824.223 40.0127C819.389 45.8477 816.972 52.2075 816.972 59.0923C816.972 61.0942 817.191 62.9131 817.631 64.5488C818.07 66.1602 818.693 67.5396 819.499 68.687C820.329 69.8345 821.342 70.7256 822.538 71.3604C823.734 71.9707 825.102 72.2759 826.64 72.2759C831.864 72.2759 835.819 67.7471 838.505 58.6895H844.84C847.038 67.7471 850.883 72.2759 856.376 72.2759C857.841 72.2759 859.184 71.9463 860.404 71.2871C861.649 70.6035 862.711 69.6758 863.59 68.5039C864.469 67.332 865.153 65.9526 865.641 64.3657C866.154 62.7788 866.41 61.0698 866.41 59.2388ZM934.159 51.0723C934.159 54.8809 933.512 58.3965 932.218 61.6191C930.949 64.8174 929.154 67.5884 926.835 69.9321C924.516 72.2515 921.745 74.0703 918.522 75.3887C915.324 76.6826 911.796 77.3296 907.938 77.3296C900.395 77.3296 894.12 74.7539 889.115 69.6025C884.232 64.5732 881.791 58.3965 881.791 51.0723C881.791 41.917 885.514 35.1787 892.96 30.8574H882.707V25.5107H917.13C920.719 25.5107 923.49 24.6685 925.443 22.9839C927.396 21.2993 928.373 18.8945 928.373 15.7695C928.373 9.54395 924.918 6.43115 918.009 6.43115V0.974609C928.776 0.974609 934.159 6.1748 934.159 16.5752C934.159 23.5088 930.412 27.9766 922.917 29.9785C924.186 30.8086 925.37 31.7485 926.469 32.7983C927.592 33.8237 928.617 34.9956 929.545 36.314C932.621 40.6108 934.159 45.5303 934.159 51.0723ZM928.483 51.0723C928.483 48.2158 927.958 45.5547 926.908 43.0889C925.883 40.623 924.455 38.4868 922.624 36.6802C920.817 34.8491 918.681 33.4209 916.215 32.3955C913.749 31.3701 911.1 30.8574 908.268 30.8574C905.265 30.8574 902.47 31.3823 899.882 32.4321C897.294 33.4575 895.06 34.8735 893.18 36.6802C891.3 38.4868 889.823 40.623 888.749 43.0889C887.675 45.5547 887.138 48.2158 887.138 51.0723C887.138 56.7363 889.152 61.6191 893.18 65.7207C897.306 69.9199 902.335 72.0195 908.268 72.0195C913.957 72.0195 918.778 69.9199 922.733 65.7207C926.566 61.668 928.483 56.7852 928.483 51.0723ZM966.02 53.5625C966.02 57.1514 965.556 60.4351 964.628 63.4136C963.7 66.3677 962.406 68.9067 960.746 71.0308C959.086 73.1304 957.084 74.7661 954.74 75.938C952.421 77.1099 949.857 77.6958 947.05 77.6958C944.706 77.6958 942.545 77.293 940.568 76.4873C938.59 75.6816 936.881 74.583 935.441 73.1914C934 71.7754 932.877 70.103 932.072 68.1743C931.266 66.2456 930.851 64.146 930.827 61.8755L930.79 57.4443H936.247L936.283 61.8755C936.283 63.2671 936.564 64.5732 937.125 65.7939C937.663 67.0146 938.407 68.0767 939.359 68.98C940.312 69.8833 941.435 70.5913 942.729 71.104C944.047 71.6167 945.487 71.873 947.05 71.873C949.125 71.873 950.98 71.4214 952.616 70.5181C954.252 69.6147 955.631 68.3208 956.754 66.6362C957.902 64.9517 958.769 62.9009 959.354 60.4839C959.94 58.0669 960.233 55.3447 960.233 52.3174C960.233 44.2363 958.329 38.2305 954.521 34.2998C952.958 32.6641 951.054 31.5166 948.808 30.8574H946.281V25.5107L951.225 25.5474C954.105 26.7925 956.571 28.5625 958.622 30.8574C963.554 36.375 966.02 43.9434 966.02 53.5625ZM1066.76 79.3804C1065.57 80.5034 1063.8 81.0649 1061.45 81.0649C1058.45 81.0649 1056.17 80.1494 1054.61 78.3184C1053.7 77.2686 1052.62 75.2544 1051.35 72.2759C1050.74 70.8843 1050.11 69.7002 1049.48 68.7236C1048.87 67.7227 1048.23 66.917 1047.57 66.3066C1042.23 73.6553 1035.89 77.3296 1028.57 77.3296C1025.91 77.3296 1023.51 77.0732 1021.39 76.5605C1019.27 76.0479 1017.46 75.3154 1015.97 74.3633C1014.48 73.4111 1013.33 72.2637 1012.53 70.9209C1011.75 69.5537 1011.36 68.04 1011.36 66.3799C1011.36 58.0791 1017.28 53.9287 1029.12 53.9287C1034.29 53.9287 1039.69 55.2471 1045.3 57.8838C1046.48 56.2725 1047.37 54.417 1047.98 52.3174C1048.61 50.2178 1048.93 47.874 1048.93 45.2861C1048.93 43.3086 1048.65 41.4653 1048.09 39.7563C1047.55 38.0474 1046.78 36.5581 1045.78 35.2886C1044.78 34.019 1043.57 33.0303 1042.15 32.3223C1040.74 31.5898 1039.18 31.2236 1037.47 31.2236C1036.03 31.2236 1034.68 31.5654 1033.44 32.249C1032.19 32.9082 1031.1 33.8237 1030.14 34.9956C1029.22 36.1675 1028.46 37.5591 1027.87 39.1704C1027.29 40.7817 1026.92 42.5151 1026.77 44.3706H1019.3C1019.18 42.3198 1018.85 40.4888 1018.31 38.8774C1017.78 37.2417 1017.04 35.8623 1016.12 34.7393C1015.21 33.5918 1014.13 32.7251 1012.86 32.1392C1011.59 31.5288 1010.17 31.2236 1008.61 31.2236C1007.27 31.2236 1006.03 31.4922 1004.91 32.0293C1003.81 32.542 1002.86 33.2744 1002.05 34.2266C1001.25 35.1543 1000.63 36.2651 1000.19 37.5591C999.748 38.853 999.528 40.269 999.528 41.8071C999.528 47.7642 1001.53 50.7427 1005.53 50.7427V56.5288C1003.7 56.4312 1002.07 56.0283 1000.63 55.3203C999.21 54.5879 998.002 53.5869 997.001 52.3174C996.024 51.0234 995.268 49.4609 994.73 47.6299C994.218 45.7744 993.961 43.6748 993.961 41.3311C993.961 38.9629 994.315 36.79 995.023 34.8125C995.756 32.835 996.769 31.1504 998.063 29.7588C999.381 28.3428 1000.93 27.2441 1002.71 26.4629C1004.52 25.6816 1006.49 25.291 1008.61 25.291C1010.27 25.291 1011.83 25.5474 1013.3 26.0601C1014.79 26.5483 1016.14 27.2808 1017.36 28.2573C1018.58 29.2095 1019.66 30.3813 1020.58 31.7729C1021.54 33.1401 1022.31 34.7026 1022.89 36.4604C1023.36 34.8491 1024.05 33.3599 1024.98 31.9927C1025.91 30.6255 1026.98 29.4536 1028.2 28.4771C1029.45 27.4761 1030.8 26.6948 1032.27 26.1333C1033.73 25.5718 1035.23 25.291 1036.77 25.291C1039.55 25.291 1042.04 25.7915 1044.24 26.7925C1046.44 27.769 1048.31 29.1729 1049.85 31.0039C1051.38 32.8105 1052.56 35.0078 1053.36 37.5957C1054.19 40.1592 1054.61 43.0278 1054.61 46.2017C1054.61 51.3286 1053.17 56.2847 1050.28 61.0698C1052.34 62.8276 1053.97 65.0981 1055.19 67.8813C1055.61 68.8579 1056.03 69.8345 1056.47 70.811C1056.91 71.7632 1057.34 72.7275 1057.76 73.7041C1058.27 74.5098 1058.95 75.1567 1059.81 75.645C1060.66 76.1089 1061.65 76.3408 1062.77 76.3408C1063.97 76.3408 1065.07 75.584 1066.07 74.0703L1066.76 79.3804ZM1043.03 62.6812C1042.25 62.3638 1041.48 62.0586 1040.73 61.7656C1039.97 61.4727 1039.2 61.1675 1038.42 60.8501C1035.71 59.9468 1032.71 59.4951 1029.41 59.4951C1021.31 59.4951 1017.25 61.5459 1017.25 65.6475C1017.25 66.5264 1017.48 67.3442 1017.95 68.1011C1018.44 68.8579 1019.11 69.5049 1019.96 70.042C1020.82 70.5791 1021.84 71.0063 1023.04 71.3237C1024.23 71.6167 1025.57 71.7632 1027.03 71.7632C1030.86 71.7632 1034.07 70.9453 1036.66 69.3096C1037.76 68.6016 1038.83 67.7104 1039.88 66.6362C1040.96 65.5376 1042.01 64.2192 1043.03 62.6812ZM1115.87 51.0723C1115.87 54.8809 1115.23 58.3965 1113.93 61.6191C1112.66 64.8174 1110.87 67.5884 1108.55 69.9321C1106.23 72.2515 1103.46 74.0703 1100.24 75.3887C1097.04 76.6826 1093.51 77.3296 1089.65 77.3296C1082.11 77.3296 1075.83 74.7539 1070.83 69.6025C1065.95 64.5732 1063.5 58.3965 1063.5 51.0723C1063.5 41.917 1067.23 35.1787 1074.67 30.8574H1064.42V25.5107H1098.84C1102.43 25.5107 1105.2 24.6685 1107.16 22.9839C1109.11 21.2993 1110.09 18.8945 1110.09 15.7695C1110.09 9.54395 1106.63 6.43115 1099.72 6.43115V0.974609C1110.49 0.974609 1115.87 6.1748 1115.87 16.5752C1115.87 23.5088 1112.13 27.9766 1104.63 29.9785C1105.9 30.8086 1107.08 31.7485 1108.18 32.7983C1109.31 33.8237 1110.33 34.9956 1111.26 36.314C1114.33 40.6108 1115.87 45.5303 1115.87 51.0723ZM1110.2 51.0723C1110.2 48.2158 1109.67 45.5547 1108.62 43.0889C1107.6 40.623 1106.17 38.4868 1104.34 36.6802C1102.53 34.8491 1100.39 33.4209 1097.93 32.3955C1095.46 31.3701 1092.81 30.8574 1089.98 30.8574C1086.98 30.8574 1084.18 31.3823 1081.6 32.4321C1079.01 33.4575 1076.77 34.8735 1074.89 36.6802C1073.01 38.4868 1071.54 40.623 1070.46 43.0889C1069.39 45.5547 1068.85 48.2158 1068.85 51.0723C1068.85 56.7363 1070.87 61.6191 1074.89 65.7207C1079.02 69.9199 1084.05 72.0195 1089.98 72.0195C1095.67 72.0195 1100.49 69.9199 1104.45 65.7207C1108.28 61.668 1110.2 56.7852 1110.2 51.0723ZM1147.73 53.5625C1147.73 57.1514 1147.27 60.4351 1146.34 63.4136C1145.41 66.3677 1144.12 68.9067 1142.46 71.0308C1140.8 73.1304 1138.8 74.7661 1136.45 75.938C1134.13 77.1099 1131.57 77.6958 1128.76 77.6958C1126.42 77.6958 1124.26 77.293 1122.28 76.4873C1120.3 75.6816 1118.6 74.583 1117.15 73.1914C1115.71 71.7754 1114.59 70.103 1113.79 68.1743C1112.98 66.2456 1112.56 64.146 1112.54 61.8755L1112.5 57.4443H1117.96L1118 61.8755C1118 63.2671 1118.28 64.5732 1118.84 65.7939C1119.38 67.0146 1120.12 68.0767 1121.07 68.98C1122.03 69.8833 1123.15 70.5913 1124.44 71.104C1125.76 71.6167 1127.2 71.873 1128.76 71.873C1130.84 71.873 1132.69 71.4214 1134.33 70.5181C1135.97 69.6147 1137.35 68.3208 1138.47 66.6362C1139.62 64.9517 1140.48 62.9009 1141.07 60.4839C1141.65 58.0669 1141.95 55.3447 1141.95 52.3174C1141.95 44.2363 1140.04 38.2305 1136.23 34.2998C1134.67 32.6641 1132.77 31.5166 1130.52 30.8574H1127.99V25.5107L1132.94 25.5474C1135.82 26.7925 1138.29 28.5625 1140.34 30.8574C1145.27 36.375 1147.73 43.9434 1147.73 53.5625ZM1237.46 56.3091C1237.46 59.4341 1237.06 62.3149 1236.28 64.9517C1235.53 67.5884 1234.43 69.8589 1232.99 71.7632C1231.57 73.6675 1229.85 75.1567 1227.82 76.231C1225.82 77.2808 1223.58 77.8057 1221.09 77.8057C1214.2 77.8057 1209.24 73.4844 1206.22 64.8418C1202.87 73.4111 1197.92 77.6958 1191.35 77.6958C1189.1 77.6958 1187.03 77.293 1185.12 76.4873C1183.22 75.6572 1181.56 74.5342 1180.14 73.1182C1178.73 71.6777 1177.62 70.0054 1176.81 68.1011C1176.03 66.1724 1175.64 64.0972 1175.64 61.8755C1175.66 60.0444 1175.98 58.3232 1176.59 56.7119C1177.2 55.0762 1178.02 53.6479 1179.04 52.4272C1180.07 51.2065 1181.28 50.2422 1182.67 49.5342C1184.06 48.8262 1185.55 48.4722 1187.14 48.4722C1188.46 48.4722 1189.66 48.6797 1190.76 49.0947C1191.86 49.4854 1192.8 50.0591 1193.58 50.8159C1194.39 51.5483 1195.01 52.4517 1195.45 53.5259C1195.89 54.6001 1196.11 55.8086 1196.11 57.1514C1196.11 60.1787 1194.46 62.5469 1191.17 64.2559L1187.25 60.96C1189.86 59.5195 1191.17 57.9692 1191.17 56.3091C1191.17 55.894 1191.06 55.5156 1190.84 55.1738C1190.62 54.8076 1190.34 54.4902 1189.99 54.2217C1189.65 53.9531 1189.27 53.7456 1188.86 53.5991C1188.44 53.4526 1188.04 53.3794 1187.65 53.3794C1186.77 53.4282 1185.95 53.6724 1185.2 54.1118C1184.44 54.5269 1183.78 55.1006 1183.22 55.833C1182.66 56.5654 1182.22 57.4321 1181.9 58.4331C1181.58 59.4097 1181.42 60.4717 1181.42 61.6191C1181.42 63.1084 1181.64 64.4756 1182.08 65.7207C1182.55 66.9658 1183.19 68.04 1184.02 68.9434C1184.88 69.8467 1185.9 70.5547 1187.1 71.0674C1188.3 71.5801 1189.65 71.8364 1191.17 71.8364C1196.85 71.8364 1200.79 67.4541 1202.96 58.6895H1209.29C1212.37 67.8203 1216.43 72.3857 1221.49 72.3857C1223.05 72.3857 1224.47 71.9463 1225.74 71.0674C1227.01 70.1641 1228.09 68.9434 1229 67.4053C1229.92 65.8672 1230.63 64.085 1231.12 62.0586C1231.63 60.0078 1231.89 57.8228 1231.89 55.5034C1231.89 51.6948 1231.24 48.2524 1229.95 45.1763C1228.65 42.0757 1226.81 39.439 1224.42 37.2661C1222.03 35.0933 1219.12 33.4209 1215.7 32.249C1212.31 31.0771 1208.5 30.4912 1204.28 30.4912C1199.78 30.4912 1195.78 31.1992 1192.26 32.6152V26.7192C1196.1 25.6206 1200.1 25.0713 1204.28 25.0713C1209.18 25.0713 1213.66 25.8281 1217.72 27.3418C1221.79 28.8555 1225.3 30.9917 1228.23 33.7505C1231.16 36.4849 1233.43 39.7686 1235.04 43.6016C1236.65 47.4346 1237.46 51.6704 1237.46 56.3091ZM1291.76 54.478C1291.76 60.8745 1289.47 66.3677 1284.88 70.9575C1280.31 75.5229 1274.81 77.8057 1268.36 77.8057C1261.92 77.8057 1256.41 75.5229 1251.85 70.9575C1247.26 66.3677 1244.96 60.8745 1244.96 54.478C1244.96 48.0815 1247.26 42.5884 1251.85 37.9985C1256.44 33.4087 1261.94 31.1138 1268.36 31.1138C1274.78 31.1138 1280.29 33.4087 1284.88 37.9985C1289.47 42.5884 1291.76 48.0815 1291.76 54.478ZM1285.83 54.3682C1285.83 52 1285.37 49.7539 1284.44 47.6299C1283.51 45.5059 1282.25 43.6504 1280.67 42.0635C1279.08 40.4766 1277.23 39.2192 1275.1 38.2915C1272.98 37.3638 1270.73 36.8999 1268.36 36.8999C1265.97 36.8999 1263.71 37.3638 1261.59 38.2915C1259.46 39.1948 1257.61 40.4399 1256.02 42.0269C1254.44 43.6138 1253.18 45.4692 1252.25 47.5933C1251.32 49.7173 1250.86 51.9756 1250.86 54.3682C1250.86 56.7607 1251.32 59.019 1252.25 61.1431C1253.18 63.2671 1254.44 65.1226 1256.02 66.7095C1257.61 68.2964 1259.46 69.5537 1261.59 70.4814C1263.71 71.4092 1265.97 71.873 1268.36 71.873C1270.76 71.873 1273.01 71.4092 1275.14 70.4814C1277.26 69.5537 1279.12 68.2964 1280.7 66.7095C1282.29 65.1226 1283.54 63.2671 1284.44 61.1431C1285.37 59.019 1285.83 56.7607 1285.83 54.3682ZM1360.54 59.2754C1360.54 61.9121 1360.17 64.3657 1359.44 66.6362C1358.71 68.9067 1357.68 70.8721 1356.36 72.5322C1355.05 74.168 1353.47 75.4619 1351.64 76.4141C1349.81 77.3418 1347.81 77.8057 1345.63 77.8057C1341.39 77.8057 1337.76 76.1699 1334.76 72.8984C1332.78 70.7256 1331.22 68.04 1330.07 64.8418C1326.73 73.4111 1321.77 77.6958 1315.2 77.6958C1312.88 77.6958 1310.76 77.2197 1308.83 76.2676C1306.93 75.3154 1305.28 74.0215 1303.89 72.3857C1302.52 70.7256 1301.44 68.7725 1300.66 66.5264C1299.91 64.2803 1299.53 61.8633 1299.53 59.2754C1299.53 53.3916 1301.22 47.5811 1304.62 41.8438C1307.65 36.6924 1311.03 33.0303 1314.76 30.8574H1299.53V25.5107H1346.33V30.8574H1345.3C1349.6 33.1768 1353.18 36.9365 1356.03 42.1367C1359.04 47.6055 1360.54 53.3184 1360.54 59.2754ZM1354.72 59.2388C1354.72 52.1099 1352.31 45.6279 1347.5 39.793C1342.57 33.8359 1336.76 30.8574 1330.07 30.8574C1323.43 30.8574 1317.58 33.9092 1312.53 40.0127C1307.69 45.8477 1305.28 52.2075 1305.28 59.0923C1305.28 61.0942 1305.5 62.9131 1305.94 64.5488C1306.38 66.1602 1307 67.5396 1307.8 68.687C1308.63 69.8345 1309.65 70.7256 1310.84 71.3604C1312.04 71.9707 1313.41 72.2759 1314.95 72.2759C1320.17 72.2759 1324.12 67.7471 1326.81 58.6895H1333.15C1335.34 67.7471 1339.19 72.2759 1344.68 72.2759C1346.15 72.2759 1347.49 71.9463 1348.71 71.2871C1349.96 70.6035 1351.02 69.6758 1351.9 68.5039C1352.77 67.332 1353.46 65.9526 1353.95 64.3657C1354.46 62.7788 1354.72 61.0698 1354.72 59.2388ZM1360.32 15.8794C1360.32 18.272 1359.95 20.4082 1359.22 22.2881C1358.49 24.1436 1357.43 25.7183 1356.03 27.0122C1354.64 28.2817 1352.95 29.2583 1350.94 29.9419C1348.92 30.6011 1346.62 30.9307 1344.06 30.9307H1329.12V25.4375H1344.06C1351.33 25.4375 1354.97 22.2148 1354.97 15.7695C1354.97 12.6201 1354.19 10.2031 1352.63 8.51855C1351.04 6.83398 1348.84 5.9917 1346.04 5.9917C1345.13 5.9917 1344.28 6.12598 1343.47 6.39453C1342.67 6.63867 1341.97 6.99268 1341.39 7.45654C1340.78 7.896 1340.3 8.43311 1339.96 9.06787C1339.59 9.70264 1339.41 10.3862 1339.41 11.1187C1339.41 12.3149 1339.66 13.2183 1340.18 13.8286C1340.27 13.3159 1340.48 12.8154 1340.8 12.3271C1341.09 11.8389 1341.46 11.4116 1341.9 11.0454C1342.34 10.6792 1342.83 10.3862 1343.36 10.1665C1343.88 9.94678 1344.41 9.83691 1344.97 9.83691C1348.22 9.83691 1349.85 11.5459 1349.85 14.9639C1349.85 15.7939 1349.67 16.5508 1349.33 17.2344C1348.97 17.918 1348.48 18.5039 1347.87 18.9922C1347.26 19.4805 1346.54 19.8589 1345.71 20.1274C1344.88 20.396 1343.99 20.5303 1343.03 20.5303C1341.89 20.5303 1340.79 20.2739 1339.74 19.7612C1338.66 19.2485 1337.72 18.5649 1336.92 17.7104C1336.09 16.856 1335.43 15.8672 1334.94 14.7441C1334.45 13.6211 1334.21 12.4492 1334.21 11.2285C1334.21 9.76367 1334.51 8.40869 1335.12 7.16357C1335.71 5.91846 1336.54 4.84424 1337.61 3.94092C1338.66 3.01318 1339.92 2.29297 1341.39 1.78027C1342.83 1.24316 1344.41 0.974609 1346.15 0.974609C1348.2 0.974609 1350.09 1.34082 1351.82 2.07324C1353.53 2.78125 1355.02 3.79443 1356.29 5.11279C1357.56 6.43115 1358.55 8.00586 1359.26 9.83691C1359.96 11.668 1360.32 13.6821 1360.32 15.8794ZM1412.25 54.478C1412.25 60.8745 1409.95 66.3677 1405.36 70.9575C1400.8 75.5229 1395.29 77.8057 1388.85 77.8057C1382.4 77.8057 1376.9 75.5229 1372.33 70.9575C1367.74 66.3677 1365.45 60.8745 1365.45 54.478C1365.45 48.0815 1367.74 42.5884 1372.33 37.9985C1376.92 33.4087 1382.43 31.1138 1388.85 31.1138C1395.27 31.1138 1400.77 33.4087 1405.36 37.9985C1409.95 42.5884 1412.25 48.0815 1412.25 54.478ZM1406.31 54.3682C1406.31 52 1405.85 49.7539 1404.92 47.6299C1404 45.5059 1402.74 43.6504 1401.15 42.0635C1399.56 40.4766 1397.71 39.2192 1395.58 38.2915C1393.46 37.3638 1391.21 36.8999 1388.85 36.8999C1386.45 36.8999 1384.2 37.3638 1382.07 38.2915C1379.95 39.1948 1378.09 40.4399 1376.51 42.0269C1374.92 43.6138 1373.66 45.4692 1372.73 47.5933C1371.81 49.7173 1371.34 51.9756 1371.34 54.3682C1371.34 56.7607 1371.81 59.019 1372.73 61.1431C1373.66 63.2671 1374.92 65.1226 1376.51 66.7095C1378.09 68.2964 1379.95 69.5537 1382.07 70.4814C1384.2 71.4092 1386.45 71.873 1388.85 71.873C1391.24 71.873 1393.5 71.4092 1395.62 70.4814C1397.75 69.5537 1399.6 68.2964 1401.19 66.7095C1402.77 65.1226 1404.02 63.2671 1404.92 61.1431C1405.85 59.019 1406.31 56.7607 1406.31 54.3682ZM1481.02 59.2754C1481.02 61.9121 1480.66 64.3657 1479.92 66.6362C1479.19 68.9067 1478.17 70.8721 1476.85 72.5322C1475.53 74.168 1473.95 75.4619 1472.12 76.4141C1470.29 77.3418 1468.29 77.8057 1466.12 77.8057C1461.87 77.8057 1458.24 76.1699 1455.24 72.8984C1453.26 70.7256 1451.7 68.04 1450.55 64.8418C1447.21 73.4111 1442.25 77.6958 1435.69 77.6958C1433.37 77.6958 1431.24 77.2197 1429.31 76.2676C1427.41 75.3154 1425.76 74.0215 1424.37 72.3857C1423 70.7256 1421.93 68.7725 1421.15 66.5264C1420.39 64.2803 1420.01 61.8633 1420.01 59.2754C1420.01 48.0449 1424 39.0728 1431.99 32.3589C1430.94 31.9194 1429.96 31.3335 1429.06 30.6011C1428.15 29.8687 1427.36 29.0508 1426.68 28.1475C1426.02 27.2197 1425.49 26.2432 1425.1 25.2178C1424.74 24.1924 1424.55 23.167 1424.55 22.1416C1424.55 20.3838 1424.99 18.748 1425.87 17.2344C1426.75 15.6963 1427.97 14.3657 1429.53 13.2427C1431.12 12.0952 1433.01 11.1919 1435.21 10.5327C1437.43 9.87354 1439.86 9.54395 1442.5 9.54395C1449.94 9.54395 1456.78 12.2905 1463 17.7837C1468.52 22.6909 1472.95 29.1606 1476.3 37.1929C1479.45 44.7856 1481.02 52.1465 1481.02 59.2754ZM1467.58 30.7476C1466.02 27.5249 1463.3 24.3877 1459.42 21.3359C1453.95 17.0146 1448.08 14.854 1441.8 14.854C1440.12 14.854 1438.58 15.0371 1437.19 15.4033C1435.79 15.7695 1434.6 16.2944 1433.6 16.978C1432.6 17.6616 1431.82 18.4917 1431.25 19.4683C1430.72 20.4204 1430.45 21.4946 1430.45 22.6909C1430.45 23.3989 1430.63 24.1069 1431 24.8149C1431.36 25.5229 1431.84 26.1821 1432.43 26.7925C1433.04 27.3784 1433.72 27.8789 1434.48 28.2939C1435.26 28.709 1436.06 28.9653 1436.89 29.063C1441.46 26.5483 1445.93 25.291 1450.3 25.291C1454.35 25.291 1457.85 25.8281 1460.81 26.9023C1461.78 27.2686 1462.83 27.7812 1463.96 28.4404C1465.08 29.0996 1466.29 29.8687 1467.58 30.7476ZM1475.2 59.2388C1475.2 54.9663 1474.61 51.0723 1473.44 47.5566C1472.29 44.041 1470.66 41.0259 1468.53 38.5112C1466.41 35.9966 1463.83 34.0557 1460.81 32.6885C1457.8 31.2969 1454.44 30.6011 1450.7 30.6011C1443.45 30.6011 1437.39 33.6528 1432.54 39.7563C1428.02 45.4448 1425.76 51.7925 1425.76 58.7993C1425.76 60.8257 1425.98 62.6689 1426.42 64.3291C1426.86 65.9893 1427.48 67.4053 1428.29 68.5771C1429.12 69.749 1430.13 70.6646 1431.33 71.3237C1432.52 71.9585 1433.89 72.2759 1435.43 72.2759C1440.65 72.2759 1444.61 67.7471 1447.29 58.6895H1453.63C1455.83 67.7471 1459.67 72.2759 1465.17 72.2759C1466.63 72.2759 1467.97 71.9463 1469.19 71.2871C1470.44 70.6035 1471.5 69.6758 1472.38 68.5039C1473.26 67.332 1473.94 65.9526 1474.43 64.3657C1474.94 62.7788 1475.2 61.0698 1475.2 59.2388ZM1539.32 16.5752C1539.32 18.4307 1539.01 20.1396 1538.37 21.7021C1537.76 23.2402 1536.86 24.6074 1535.66 25.8037C1534.49 27 1533.05 28.001 1531.34 28.8066C1529.65 29.6123 1527.74 30.186 1525.59 30.5278C1528.71 33.0669 1531.38 36.3994 1533.57 40.5254C1536.99 47.0928 1538.7 54.8198 1538.7 63.7065V77H1532.91V63.7065C1532.91 54.0142 1530.72 45.8843 1526.32 39.3169C1522.54 33.6772 1518.61 30.8574 1514.53 30.8574C1510.79 30.8574 1507.16 33.6772 1503.62 39.3169C1499.44 45.8843 1497.35 54.0142 1497.35 63.7065V77H1491.57V63.7065C1491.57 56.0161 1492.83 49.0947 1495.34 42.9424C1497.68 37.1562 1500.59 33.1279 1504.06 30.8574H1491.57V25.5107H1522.26C1525.87 25.5107 1528.65 24.6685 1530.61 22.9839C1532.56 21.2749 1533.54 18.8701 1533.54 15.7695C1533.54 14.3047 1533.34 12.9863 1532.95 11.8145C1532.56 10.6426 1532 9.65381 1531.27 8.84814C1530.53 8.01807 1529.64 7.3833 1528.59 6.94385C1527.54 6.50439 1526.36 6.28467 1525.04 6.28467C1524.28 6.28467 1523.66 6.3335 1523.17 6.43115V0.974609C1523.29 0.950195 1523.4 0.937988 1523.5 0.937988C1523.6 0.937988 1523.71 0.937988 1523.83 0.937988H1524.53C1526.8 0.937988 1528.85 1.29199 1530.68 2C1532.51 2.70801 1534.06 3.7334 1535.33 5.07617C1536.62 6.39453 1537.61 8.03027 1538.3 9.9834C1538.98 11.9121 1539.32 14.1094 1539.32 16.5752ZM1610.51 53.9287C1610.51 57.4199 1610.07 60.6182 1609.2 63.5234C1608.32 66.4287 1607.06 68.9312 1605.42 71.0308C1603.79 73.106 1601.81 74.7173 1599.49 75.8647C1597.2 77.0122 1594.62 77.5859 1591.76 77.5859C1589.44 77.5859 1587.28 77.2319 1585.28 76.5239C1583.3 75.7915 1581.57 74.7783 1580.08 73.4844C1578.62 72.1904 1577.46 70.6523 1576.6 68.8701C1575.77 67.0879 1575.36 65.1348 1575.36 63.0107C1575.36 61.3994 1575.64 59.8613 1576.2 58.3965C1576.79 56.9316 1577.58 55.6499 1578.58 54.5513C1579.61 53.4282 1580.81 52.5371 1582.21 51.8779C1583.62 51.1943 1585.16 50.8525 1586.82 50.8525C1587.89 50.8525 1588.91 51.0479 1589.86 51.4385C1590.84 51.8047 1591.68 52.3052 1592.39 52.9399C1593.12 53.5747 1593.69 54.3193 1594.11 55.1738C1594.52 56.0039 1594.73 56.8706 1594.73 57.7739C1594.73 58.5552 1594.58 59.312 1594.29 60.0444C1594.02 60.7769 1593.64 61.4238 1593.16 61.9854C1592.67 62.5469 1592.08 62.9985 1591.4 63.3403C1590.74 63.6577 1590.03 63.8164 1589.27 63.8164C1588.54 63.8164 1587.82 63.6821 1587.11 63.4136C1586.43 63.1206 1585.82 62.7422 1585.28 62.2783C1584.75 61.79 1584.32 61.2407 1584 60.6304C1583.68 60.02 1583.52 59.373 1583.52 58.6895C1583.52 58.543 1583.52 58.3965 1583.52 58.25C1583.55 58.1035 1583.57 57.9448 1583.6 57.7739C1582.16 58.9946 1581.44 60.667 1581.44 62.791C1581.44 64.207 1581.67 65.4766 1582.13 66.5996C1582.62 67.6982 1583.3 68.6382 1584.18 69.4194C1585.06 70.1763 1586.12 70.7622 1587.37 71.1772C1588.64 71.5679 1590.07 71.7632 1591.65 71.7632C1593.71 71.7632 1595.55 71.3481 1597.18 70.5181C1598.82 69.6636 1600.21 68.4795 1601.36 66.9658C1602.51 65.4521 1603.39 63.6455 1604 61.5459C1604.61 59.4463 1604.91 57.127 1604.91 54.5879C1604.91 51.2188 1604.42 48.0938 1603.45 45.2129C1602.49 42.332 1601.15 39.8418 1599.42 37.7422C1597.68 35.6182 1595.6 33.958 1593.16 32.7617C1590.74 31.5654 1588.07 30.9673 1585.14 30.9673C1582.38 30.9673 1579.92 31.48 1577.77 32.5054C1575.65 33.5063 1573.84 34.959 1572.35 36.8633C1570.87 38.7676 1569.73 41.0869 1568.95 43.8213C1568.19 46.5557 1567.81 49.644 1567.81 53.0864C1567.81 69.0776 1562.55 77.0732 1552.03 77.0732C1541.48 77.0732 1536.21 70.6768 1536.21 57.8838H1540.64C1540.64 60.374 1540.86 62.498 1541.3 64.2559C1541.72 66.0137 1542.39 67.4663 1543.31 68.6138C1544.24 69.7368 1545.43 70.5669 1546.87 71.104C1548.33 71.6167 1550.08 71.873 1552.1 71.873C1558.65 71.873 1561.92 64.7563 1561.92 50.5229C1561.92 46.812 1562.48 43.4185 1563.6 40.3423C1564.73 37.2661 1566.29 34.6294 1568.29 32.4321C1570.32 30.2104 1572.71 28.4893 1575.47 27.2686C1578.23 26.0479 1581.25 25.4375 1584.55 25.4375C1592.7 25.4375 1599.23 28.5991 1604.14 34.9224C1608.39 40.3911 1610.51 46.7266 1610.51 53.9287ZM1689.58 55.1738C1689.58 58.3477 1689.21 61.314 1688.48 64.0728C1687.75 66.8071 1686.71 69.1875 1685.37 71.2139C1684.05 73.2158 1682.46 74.8027 1680.61 75.9746C1678.78 77.1221 1676.76 77.6958 1674.56 77.6958C1670.39 77.6958 1666.8 75.7671 1663.8 71.9097C1663.75 71.8608 1663.2 70.9575 1662.15 69.1997C1661.1 67.4175 1659.51 64.7441 1657.39 61.1797C1655.12 57.3223 1652.79 55.3936 1650.39 55.3936C1649.37 55.3936 1648.44 55.6133 1647.61 56.0527C1646.81 56.4678 1646.11 57.0781 1645.52 57.8838C1644.96 58.665 1644.54 59.605 1644.24 60.7036C1643.95 61.8022 1643.8 63.0107 1643.8 64.3291C1643.8 65.9648 1644.01 67.4419 1644.43 68.7603C1644.86 70.0786 1645.46 71.2261 1646.22 72.2026C1646.98 73.1548 1647.87 73.9482 1648.89 74.583C1649.92 75.1934 1651.04 75.6206 1652.26 75.8647L1649.59 81.1016C1641.8 77.9277 1637.91 72.3613 1637.91 64.4023C1637.91 62.1318 1638.2 60.0811 1638.79 58.25C1639.4 56.4189 1640.24 54.8564 1641.31 53.5625C1642.41 52.2441 1643.72 51.2432 1645.23 50.5596C1646.77 49.8516 1648.45 49.4976 1650.28 49.4976C1654.24 49.4976 1657.71 51.4263 1660.69 55.2837C1660.81 55.4302 1662.93 58.9946 1667.06 65.9771C1669.33 69.8345 1671.57 71.7632 1673.8 71.7632C1680.68 71.7632 1684.12 65.4888 1684.12 52.9399C1684.12 45.0542 1682.06 37.144 1677.93 29.2095C1673.15 19.9565 1666.97 14.1704 1659.4 11.8511C1659.4 11.8267 1659.45 11.9976 1659.55 12.3638C1659.65 12.73 1659.76 13.1572 1659.88 13.6455C1660.03 14.1094 1660.15 14.5732 1660.25 15.0371C1660.34 15.4766 1660.39 15.7573 1660.39 15.8794C1660.39 17.4907 1660.12 18.98 1659.59 20.3472C1659.05 21.7144 1658.29 22.8984 1657.32 23.8994C1656.34 24.876 1655.17 25.645 1653.8 26.2065C1652.43 26.7437 1650.92 27.0122 1649.26 27.0122C1647.62 27.0122 1646.12 26.7437 1644.75 26.2065C1643.41 25.645 1642.24 24.876 1641.24 23.8994C1640.26 22.8984 1639.49 21.7144 1638.93 20.3472C1638.4 18.98 1638.13 17.4907 1638.13 15.8794C1638.13 14.4146 1638.47 13.0352 1639.15 11.7412C1639.84 10.4229 1640.75 9.27539 1641.9 8.29883C1643.07 7.32227 1644.41 6.55322 1645.93 5.9917C1647.46 5.43018 1649.09 5.14941 1650.8 5.14941C1662.69 5.14941 1672.34 10.728 1679.76 21.8853C1686.31 31.6997 1689.58 42.7959 1689.58 55.1738ZM1654.83 16.209C1654.83 12.498 1652.97 10.6426 1649.26 10.6426C1648.5 10.6426 1647.78 10.7891 1647.1 11.082C1646.44 11.375 1645.85 11.7778 1645.34 12.2905C1644.83 12.7788 1644.43 13.3647 1644.13 14.0483C1643.84 14.7319 1643.69 15.4521 1643.69 16.209C1643.69 16.9902 1643.84 17.7104 1644.13 18.3696C1644.43 19.0288 1644.83 19.6025 1645.34 20.0908C1645.85 20.5791 1646.44 20.9697 1647.1 21.2627C1647.78 21.5312 1648.5 21.6655 1649.26 21.6655C1650.02 21.6655 1650.74 21.5312 1651.42 21.2627C1652.1 20.9697 1652.69 20.5791 1653.18 20.0908C1653.69 19.5781 1654.09 18.9922 1654.39 18.333C1654.68 17.6738 1654.83 16.9658 1654.83 16.209ZM1728.76 35.7646C1728.76 37.376 1728.52 38.8408 1728.03 40.1592C1727.54 41.4775 1726.85 42.6128 1725.94 43.5649C1725.06 44.5171 1723.99 45.2495 1722.72 45.7622C1721.45 46.2749 1720.04 46.5312 1718.47 46.5312C1717.03 46.5312 1715.68 46.2871 1714.41 45.7988C1713.14 45.2861 1712.02 44.5903 1711.04 43.7114C1710.06 42.8325 1709.29 41.7949 1708.73 40.5986C1708.17 39.4023 1707.89 38.1206 1707.89 36.7534C1707.89 35.0444 1708.23 33.8481 1708.92 33.1646C1706.77 34.5806 1705.07 36.7534 1703.82 39.6831C1702.6 42.564 1701.99 45.5425 1701.99 48.6187C1701.99 54.9175 1705.23 61.5215 1711.7 68.4307C1713.07 69.8955 1714.54 71.3481 1716.13 72.7886C1717.72 74.2046 1719.47 75.6084 1721.4 77H1713.24C1710.04 74.29 1707.25 71.4458 1704.89 68.4673C1699.32 61.4849 1696.54 54.7222 1696.54 48.1792C1696.54 42.1489 1698.33 36.8999 1701.92 32.4321C1705.8 27.5981 1710.75 25.1812 1716.75 25.1812C1718.44 25.1812 1720 25.4497 1721.44 25.9868C1722.9 26.5239 1724.17 27.2686 1725.25 28.2207C1726.35 29.1484 1727.2 30.2593 1727.81 31.5532C1728.45 32.8472 1728.76 34.251 1728.76 35.7646ZM1724.48 35.5449C1724.21 31.9561 1722.12 30.1616 1718.22 30.1616C1717.36 30.1616 1716.57 30.3081 1715.84 30.6011C1715.1 30.894 1714.47 31.3091 1713.93 31.8462C1713.4 32.3833 1712.97 33.0303 1712.65 33.7871C1712.36 34.5195 1712.21 35.3252 1712.21 36.2041C1712.21 37.0586 1712.38 37.8521 1712.72 38.5845C1713.07 39.3169 1713.53 39.9639 1714.12 40.5254C1714.73 41.0625 1715.42 41.4897 1716.2 41.8071C1716.98 42.1001 1717.81 42.2466 1718.69 42.2466C1719.5 42.2466 1720.24 42.0757 1720.93 41.7339C1721.63 41.3921 1722.25 40.9282 1722.76 40.3423C1723.29 39.7563 1723.71 39.085 1724 38.3281C1724.32 37.5713 1724.48 36.79 1724.48 35.9844V35.5449ZM1792.63 16.5752C1792.63 18.5527 1792.28 20.3594 1791.57 21.9951C1790.86 23.6064 1789.85 25.0225 1788.53 26.2432C1787.21 27.4395 1785.61 28.4282 1783.73 29.2095C1781.85 29.9663 1779.74 30.4668 1777.4 30.7109C1778.64 33.0303 1779.26 35.0933 1779.26 36.8999C1779.26 39.1948 1778.58 41.2822 1777.21 43.1621H1792.3V48.6919H1785.45C1789.7 51.5239 1791.83 55.772 1791.83 61.436C1791.83 63.8286 1791.39 66.0259 1790.51 68.0278C1789.63 70.0054 1788.41 71.7144 1786.84 73.1548C1785.28 74.5952 1783.44 75.7183 1781.31 76.5239C1779.22 77.3052 1776.93 77.6958 1774.47 77.6958C1772.17 77.6958 1770.01 77.2686 1767.98 76.4141C1765.98 75.5596 1764.23 74.3999 1762.71 72.9351C1761.22 71.4702 1760.04 69.7612 1759.16 67.8081C1758.3 65.855 1757.88 63.7798 1757.88 61.5825C1757.88 60.1909 1758.02 58.8237 1758.32 57.481C1758.63 56.1138 1759.06 54.8564 1759.6 53.709C1760.16 52.5615 1760.79 51.5605 1761.5 50.7061C1762.24 49.8271 1763.03 49.1558 1763.88 48.6919H1757.07V43.1621H1770.4C1772.43 40.5498 1773.44 38.4258 1773.44 36.79C1773.44 34.2021 1772.38 32.2246 1770.26 30.8574H1754.69V25.5107H1775.6C1777.36 25.5107 1778.92 25.3032 1780.29 24.8882C1781.68 24.4487 1782.87 23.814 1783.84 22.9839C1784.82 22.1538 1785.56 21.1406 1786.08 19.9443C1786.59 18.7236 1786.84 17.332 1786.84 15.7695C1786.84 14.3047 1786.64 12.9863 1786.22 11.8145C1785.83 10.6426 1785.27 9.65381 1784.54 8.84814C1783.81 8.01807 1782.91 7.3833 1781.86 6.94385C1780.81 6.50439 1779.65 6.28467 1778.39 6.28467C1777.63 6.28467 1777.01 6.3335 1776.52 6.43115V0.974609C1776.64 0.950195 1776.75 0.937988 1776.85 0.937988C1776.94 0.937988 1777.05 0.937988 1777.18 0.937988H1777.87C1780.14 0.937988 1782.18 1.29199 1783.99 2C1785.82 2.70801 1787.37 3.7334 1788.64 5.07617C1789.93 6.39453 1790.92 8.03027 1791.61 9.9834C1792.29 11.9121 1792.63 14.1094 1792.63 16.5752ZM1785.71 60.374C1785.71 58.6895 1785.43 57.1392 1784.87 55.7231C1784.33 54.2827 1783.56 53.0498 1782.56 52.0244C1781.58 50.9746 1780.41 50.1567 1779.04 49.5708C1777.68 48.9849 1776.19 48.6919 1774.58 48.6919C1773.06 48.6919 1771.65 49.0215 1770.33 49.6807C1769.01 50.3398 1767.86 51.2432 1766.89 52.3906C1765.91 53.5137 1765.14 54.832 1764.58 56.3457C1764.04 57.835 1763.77 59.4097 1763.77 61.0698C1763.77 62.5835 1764.05 63.9995 1764.62 65.3179C1765.18 66.6362 1765.95 67.7837 1766.92 68.7603C1767.9 69.7124 1769.03 70.4692 1770.33 71.0308C1771.62 71.5923 1773 71.873 1774.47 71.873C1776.15 71.873 1777.68 71.5923 1779.04 71.0308C1780.44 70.4448 1781.62 69.6392 1782.6 68.6138C1783.6 67.5884 1784.37 66.3799 1784.9 64.9883C1785.44 63.5723 1785.71 62.0342 1785.71 60.374ZM1852.69 16.5752C1852.69 18.626 1852.32 20.4937 1851.59 22.1782C1850.88 23.8384 1849.82 25.291 1848.4 26.5361C1846.99 27.7568 1845.22 28.7456 1843.09 29.5024C1840.97 30.2349 1838.5 30.6865 1835.7 30.8574C1840.46 33.543 1844.38 37.3149 1847.45 42.1733C1850.7 47.3003 1852.32 52.6104 1852.32 58.1035C1852.32 61.1797 1852.02 63.9385 1851.41 66.3799C1850.8 68.7969 1849.89 70.8477 1848.7 72.5322C1847.53 74.2168 1846.07 75.4985 1844.34 76.3774C1842.63 77.2563 1840.67 77.6958 1838.44 77.6958C1834.88 77.6958 1831.5 75.7671 1828.3 71.9097C1828.25 71.8364 1828.04 71.5312 1827.68 70.9941C1827.31 70.457 1826.87 69.8101 1826.36 69.0532C1825.85 68.272 1825.28 67.4419 1824.67 66.563C1824.09 65.6597 1823.54 64.8296 1823.03 64.0728C1822.51 63.2915 1822.07 62.6323 1821.71 62.0952C1821.34 61.5581 1821.13 61.2529 1821.09 61.1797C1818.45 57.3223 1815.95 55.3936 1813.58 55.3936C1811.43 55.3936 1809.76 56.2236 1808.56 57.8838C1807.36 59.5439 1806.77 61.8145 1806.77 64.6953C1806.77 65.9404 1806.99 67.1611 1807.43 68.3574C1807.87 69.5537 1808.48 70.6401 1809.26 71.6167C1810.04 72.5688 1810.97 73.3745 1812.04 74.0337C1813.14 74.6929 1814.33 75.1079 1815.63 75.2788L1812.52 80.2227C1808.44 78.7822 1805.4 76.3408 1803.4 72.8984C1801.86 70.3105 1801.09 67.5396 1801.09 64.5854C1801.09 62.3149 1801.4 60.252 1802.01 58.3965C1802.64 56.541 1803.51 54.9541 1804.61 53.6357C1805.7 52.3174 1807.01 51.3042 1808.52 50.5962C1810.04 49.8638 1811.69 49.4976 1813.47 49.4976C1816.94 49.4976 1820.27 51.4385 1823.47 55.3203C1823.51 55.3936 1823.72 55.7109 1824.09 56.2725C1824.45 56.8096 1824.91 57.4688 1825.44 58.25C1825.98 59.0068 1826.54 59.8369 1827.13 60.7402C1827.74 61.6436 1828.31 62.4858 1828.85 63.2671C1829.39 64.0239 1829.84 64.6831 1830.2 65.2446C1830.57 65.7817 1830.78 66.0869 1830.83 66.1602C1832.22 68.1377 1833.52 69.6025 1834.75 70.5547C1835.99 71.5068 1837.2 71.9829 1838.37 71.9829C1843.72 71.9829 1846.39 66.8315 1846.39 56.5288C1846.39 50.5962 1843.67 44.8345 1838.22 39.2437C1832.8 33.6528 1827.16 30.8574 1821.31 30.8574H1801.53V25.5107H1835.62C1839.24 25.5107 1842.02 24.6685 1843.97 22.9839C1845.93 21.2749 1846.9 18.8701 1846.9 15.7695C1846.9 9.54395 1843.45 6.43115 1836.54 6.43115V0.974609C1847.31 0.974609 1852.69 6.1748 1852.69 16.5752ZM1872.46 111.644C1869.22 111.375 1866.76 110.484 1865.1 108.97C1863.47 107.481 1862.61 105.455 1862.54 102.891C1862.44 99.5952 1861.76 97.4468 1860.49 96.4458C1855.27 101.377 1848.98 103.843 1841.63 103.843C1838.31 103.843 1835.17 103.099 1832.22 101.609C1828.43 99.7295 1826.54 97.166 1826.54 93.9189C1826.54 92.4541 1826.96 91.0991 1827.79 89.854C1828.59 88.6089 1829.68 87.5225 1831.05 86.5947C1832.41 85.6914 1834.01 84.9834 1835.84 84.4707C1837.65 83.958 1839.54 83.7017 1841.52 83.7017C1848.55 83.7017 1854.73 85.374 1860.05 88.7188C1862.17 86.0576 1863.24 83.0669 1863.24 79.7466C1863.24 73.9604 1861.54 70.3594 1858.15 68.9434V62.6079C1859.42 62.9009 1860.65 63.5845 1861.84 64.6587C1863.04 65.7329 1864.09 67.0391 1864.99 68.5771C1865.92 70.0908 1866.65 71.7632 1867.19 73.5942C1867.75 75.4253 1868.03 77.2563 1868.03 79.0874C1868.03 84.0679 1866.76 88.4136 1864.23 92.1245C1866.08 93.98 1867.01 96.519 1867.01 99.7417V100.73C1867.01 104.344 1868.83 106.285 1872.46 106.553V111.644ZM1857.34 92.8203C1853.8 90.2324 1848.56 88.9385 1841.63 88.9385C1840.48 88.9385 1839.35 89.0728 1838.22 89.3413C1837.1 89.6343 1836.1 90.0127 1835.22 90.4766C1834.32 90.9404 1833.6 91.4653 1833.06 92.0513C1832.5 92.6616 1832.22 93.2964 1832.22 93.9556C1832.22 94.6392 1832.49 95.2495 1833.02 95.7866C1833.56 96.3481 1834.31 96.812 1835.26 97.1782C1836.19 97.5688 1837.27 97.8618 1838.52 98.0571C1839.74 98.2769 1841.04 98.3867 1842.44 98.3867C1848.15 98.3867 1853.12 96.5312 1857.34 92.8203ZM1943.62 57.957C1943.62 60.96 1943.23 63.6821 1942.45 66.1235C1941.69 68.5649 1940.6 70.6401 1939.19 72.3491C1937.8 74.0581 1936.1 75.3765 1934.1 76.3042C1932.1 77.2319 1929.86 77.6958 1927.4 77.6958C1919.51 77.6958 1914.05 73.4111 1911.03 64.8418C1908.19 73.4111 1903.29 77.6958 1896.31 77.6958C1893.91 77.6958 1891.74 77.2075 1889.79 76.231C1887.86 75.2544 1886.2 73.8872 1884.81 72.1294C1883.44 70.3716 1882.38 68.2842 1881.62 65.8672C1880.86 63.4258 1880.48 60.7524 1880.48 57.8472C1880.48 51.8413 1882.38 45.9941 1886.16 40.3057C1889.41 35.4473 1892.74 32.2979 1896.16 30.8574H1880.48V25.5107H1925.86C1929.47 25.5107 1932.25 24.6685 1934.21 22.9839C1936.16 21.2749 1937.14 18.8701 1937.14 15.7695C1937.14 9.54395 1933.68 6.43115 1926.77 6.43115V0.974609C1937.54 0.974609 1942.92 6.1748 1942.92 16.5752C1942.92 18.4795 1942.59 20.2251 1941.94 21.812C1941.28 23.3745 1940.32 24.7539 1939.08 25.9502C1937.86 27.1465 1936.37 28.1475 1934.61 28.9531C1932.88 29.7344 1930.91 30.2837 1928.71 30.6011C1930.91 31.8218 1932.67 33.2012 1933.99 34.7393C1936.77 38.0352 1938.18 41.5508 1938.2 45.2861C1938.86 45.7256 1939.51 46.4214 1940.14 47.3735C1940.8 48.3257 1941.39 49.3999 1941.9 50.5962C1942.41 51.7925 1942.83 53.0376 1943.14 54.3315C1943.46 55.6255 1943.62 56.834 1943.62 57.957ZM1933.51 47.2271C1931.12 46.0063 1928.43 45.396 1925.46 45.396C1924.8 45.396 1924.16 45.4937 1923.55 45.689C1922.94 45.8599 1922.39 46.1162 1921.9 46.458C1921.44 46.7754 1921.06 47.1538 1920.77 47.5933C1920.48 48.0327 1920.33 48.5088 1920.33 49.0215C1920.33 49.9004 1920.79 50.6328 1921.72 51.2188C1922.65 51.8047 1923.89 52.0977 1925.46 52.0977C1928.82 52.0977 1931.51 50.4741 1933.51 47.2271ZM1938.31 58.1401C1938.31 55.6743 1937.7 53.355 1936.48 51.1821C1933.7 54.7466 1930.02 56.5288 1925.46 56.5288C1924.06 56.5288 1922.76 56.3335 1921.54 55.9429C1920.32 55.5522 1919.24 55.0029 1918.31 54.2949C1917.41 53.5869 1916.69 52.7446 1916.15 51.7681C1915.62 50.7671 1915.35 49.6685 1915.35 48.4722C1915.35 47.3735 1915.6 46.3604 1916.12 45.4326C1916.63 44.5049 1917.33 43.7114 1918.2 43.0522C1919.11 42.3687 1920.16 41.8438 1921.35 41.4775C1922.57 41.0869 1923.87 40.8916 1925.24 40.8916C1927.34 40.8916 1929.91 41.4531 1932.96 42.5762C1932.6 40.9404 1931.74 39.4023 1930.4 37.9619C1929.08 36.5215 1927.43 35.2764 1925.46 34.2266C1923.48 33.1523 1921.26 32.3101 1918.79 31.6997C1916.35 31.0894 1913.83 30.7842 1911.25 30.7842C1904.46 30.7842 1898.5 33.665 1893.38 39.4268C1888.52 44.8711 1886.09 50.8647 1886.09 57.4077C1886.09 59.7271 1886.31 61.8145 1886.75 63.6699C1887.19 65.501 1887.83 67.0635 1888.69 68.3574C1889.57 69.627 1890.63 70.6035 1891.87 71.2871C1893.14 71.9707 1894.61 72.3125 1896.27 72.3125C1899.37 72.3125 1902.15 70.6279 1904.62 67.2588C1906.79 64.2803 1907.88 61.4238 1907.88 58.6895H1914.1C1914.13 61.0088 1915.31 63.7432 1917.66 66.8926C1920.39 70.5547 1923.45 72.3857 1926.85 72.3857C1928.63 72.3857 1930.23 72.0562 1931.64 71.397C1933.08 70.7134 1934.29 69.749 1935.27 68.5039C1936.25 67.2588 1936.99 65.7695 1937.5 64.0361C1938.04 62.2783 1938.31 60.313 1938.31 58.1401ZM2014.01 59.2754C2014.01 61.8633 2013.63 64.2925 2012.87 66.563C2012.11 68.8091 2011.05 70.7622 2009.68 72.4224C2008.34 74.0825 2006.73 75.4009 2004.85 76.3774C2002.97 77.3296 2000.92 77.8057 1998.7 77.8057C1996.96 77.8057 1995.28 77.4639 1993.64 76.7803C1992.03 76.0967 1990.56 75.1689 1989.21 73.9971C1987.87 72.8252 1986.7 71.458 1985.7 69.8955C1984.72 68.3086 1984 66.624 1983.54 64.8418C1982.95 66.7217 1982.16 68.4551 1981.16 70.042C1980.16 71.6045 1979 72.9595 1977.68 74.1069C1976.38 75.23 1974.97 76.1089 1973.43 76.7437C1971.89 77.3784 1970.3 77.6958 1968.67 77.6958C1966.37 77.6958 1964.26 77.2808 1962.33 76.4507C1960.43 75.6206 1958.78 74.4854 1957.39 73.0449C1956 71.6045 1954.91 69.9199 1954.13 67.9912C1953.35 66.0381 1952.96 63.9629 1952.96 61.7656C1952.98 59.8369 1953.3 58.0303 1953.91 56.3457C1954.54 54.6611 1955.4 53.2085 1956.47 51.9878C1957.57 50.7427 1958.85 49.7661 1960.32 49.0581C1961.81 48.3501 1963.42 47.9961 1965.15 47.9961C1966.35 47.9961 1967.48 48.228 1968.56 48.6919C1969.63 49.1313 1970.56 49.7539 1971.34 50.5596C1972.15 51.3652 1972.78 52.3052 1973.25 53.3794C1973.71 54.4536 1973.94 55.6133 1973.94 56.8584C1973.94 60.5693 1972.21 63.1328 1968.74 64.5488L1964.57 60.96C1966.81 59.8857 1967.94 58.6162 1967.94 57.1514C1967.94 54.832 1966.81 53.6724 1964.57 53.6724C1963.79 53.6724 1963.05 53.9287 1962.37 54.4414C1961.69 54.9541 1961.09 55.6255 1960.58 56.4556C1960.09 57.2612 1959.7 58.1768 1959.4 59.2021C1959.11 60.2031 1958.96 61.1919 1958.96 62.1685C1958.96 63.5845 1959.2 64.8784 1959.66 66.0503C1960.12 67.2222 1960.77 68.2354 1961.6 69.0898C1962.46 69.9199 1963.47 70.5791 1964.64 71.0674C1965.81 71.5312 1967.11 71.7632 1968.52 71.7632C1974.11 71.7632 1978.03 67.4053 1980.28 58.6895H1986.61C1988.83 67.4053 1992.78 71.7632 1998.44 71.7632C1999.93 71.7632 2001.29 71.4092 2002.51 70.7012C2003.75 69.9688 2004.81 68.9922 2005.69 67.7715C2006.57 66.5508 2007.24 65.1226 2007.71 63.4868C2008.19 61.8267 2008.44 60.0811 2008.44 58.25C2008.44 51.8291 2005.17 45.3472 1998.62 38.8042C1995.99 36.1431 1992.73 33.4941 1988.85 30.8574H1952.99V25.5107H1998.77V30.8574H1997.16C2000.43 33.3232 2003.24 35.9478 2005.58 38.731C2011.2 45.3716 2014.01 52.2197 2014.01 59.2754ZM2055.9 53.0864C2055.9 56.6509 2055.47 59.8369 2054.62 62.6445C2053.76 65.4277 2052.52 67.7959 2050.88 69.749C2049.25 71.7021 2047.25 73.1914 2044.88 74.2168C2042.51 75.2422 2039.82 75.7549 2036.82 75.7549C2034.62 75.7549 2032.51 75.3643 2030.48 74.583C2028.46 73.8018 2026.66 72.7397 2025.1 71.397C2023.56 70.0542 2022.33 68.4917 2021.4 66.7095C2020.48 64.9028 2020.01 62.9863 2020.01 60.96C2020.01 59.0557 2020.32 57.3101 2020.93 55.7231C2021.56 54.1118 2022.43 52.7324 2023.53 51.585C2024.63 50.4131 2025.92 49.5098 2027.41 48.875C2028.92 48.2158 2030.57 47.8862 2032.35 47.8862C2033.45 47.8862 2034.5 48.0815 2035.5 48.4722C2036.53 48.8384 2037.42 49.3511 2038.18 50.0103C2038.96 50.6694 2039.57 51.4385 2040.01 52.3174C2040.47 53.1719 2040.7 54.0874 2040.7 55.064C2040.7 55.9429 2040.56 56.7485 2040.26 57.481C2039.97 58.2134 2039.55 58.8481 2039.02 59.3853C2038.5 59.8979 2037.88 60.313 2037.15 60.6304C2036.42 60.9233 2035.61 61.0698 2034.73 61.0698C2033.93 61.0698 2033.17 60.9111 2032.46 60.5938C2031.78 60.2764 2031.17 59.8613 2030.63 59.3486C2030.12 58.8359 2029.72 58.25 2029.42 57.5908C2029.13 56.9072 2028.98 56.2114 2028.98 55.5034C2028.98 55.2104 2029.02 54.9541 2029.09 54.7344C2027.97 55.4424 2027.15 56.2725 2026.64 57.2246C2026.15 58.1768 2025.91 59.3486 2025.91 60.7402C2025.93 62.1562 2026.21 63.438 2026.75 64.5854C2027.29 65.7329 2028.02 66.7217 2028.95 67.5518C2029.9 68.3574 2031.02 68.98 2032.32 69.4194C2033.61 69.8589 2035.04 70.0786 2036.6 70.0786C2038.75 70.0786 2040.65 69.7002 2042.31 68.9434C2044 68.1865 2045.4 67.0879 2046.52 65.6475C2047.67 64.207 2048.54 62.437 2049.12 60.3374C2049.71 58.2134 2050 55.7964 2050 53.0864C2050 45.6646 2047.73 39.9395 2043.19 35.9111C2039.38 32.542 2034.83 30.8574 2029.53 30.8574H1992.03V25.584H2028.87C2035.27 25.584 2040.93 27.4272 2045.87 31.1138C2052.56 36.1187 2055.9 43.4429 2055.9 53.0864ZM2112.63 77H2106.84V63.7065C2106.84 41.7339 2100.8 30.7476 2088.71 30.7476C2087.05 30.7476 2085.47 31.126 2083.95 31.8828C2082.46 32.6152 2081.07 33.6772 2079.78 35.0688C2078.48 36.4604 2077.31 38.145 2076.26 40.1226C2075.21 42.0757 2074.32 44.2729 2073.59 46.7144C2072.86 49.1558 2072.28 51.8047 2071.87 54.6611C2071.48 57.5176 2071.28 60.5327 2071.28 63.7065V77H2065.49V63.7065C2065.49 56.1626 2066.54 49.2656 2068.64 43.0156C2070.52 37.4248 2072.88 33.4209 2075.71 31.0039C2074.69 30.8574 2073.69 30.5156 2072.71 29.9785C2071.76 29.417 2070.9 28.7334 2070.15 27.9277C2069.39 27.1221 2068.78 26.2188 2068.31 25.2178C2067.85 24.2168 2067.62 23.1914 2067.62 22.1416C2067.62 20.4814 2067.91 18.9922 2068.5 17.6738C2069.08 16.3311 2069.93 15.208 2071.02 14.3047C2072.15 13.377 2073.5 12.6689 2075.09 12.1807C2076.7 11.6924 2078.53 11.4482 2080.58 11.4482C2090.1 11.4482 2098.05 17.2832 2104.42 28.9531C2106.74 33.1768 2108.61 38.0718 2110.03 43.6382C2110.88 47.0073 2111.53 50.3398 2111.97 53.6357C2112.41 56.9316 2112.63 60.2886 2112.63 63.7065V77ZM2099.44 29.063C2093.39 20.6401 2087.28 16.4287 2081.13 16.4287C2075.69 16.4287 2072.97 18.4673 2072.97 22.5444C2072.97 23.2036 2073.12 23.814 2073.44 24.3755C2073.78 24.937 2074.23 25.4375 2074.8 25.877C2075.38 26.3164 2076.08 26.6826 2076.88 26.9756C2077.69 27.2441 2078.57 27.4272 2079.52 27.5249C2082.18 26.0356 2085.11 25.291 2088.31 25.291C2092.34 25.291 2096.05 26.5483 2099.44 29.063ZM2173.78 51.0723C2173.78 54.8809 2173.14 58.3965 2171.84 61.6191C2170.57 64.8174 2168.78 67.5884 2166.46 69.9321C2164.14 72.2515 2161.37 74.0703 2158.15 75.3887C2154.95 76.6826 2151.42 77.3296 2147.56 77.3296C2140.02 77.3296 2133.74 74.7539 2128.74 69.6025C2123.86 64.5732 2121.42 58.3965 2121.42 51.0723C2121.42 41.917 2125.14 35.1787 2132.58 30.8574H2122.33V25.5107H2156.75C2160.34 25.5107 2163.11 24.6685 2165.07 22.9839C2167.02 21.2993 2168 18.8945 2168 15.7695C2168 9.54395 2164.54 6.43115 2157.63 6.43115V0.974609C2168.4 0.974609 2173.78 6.1748 2173.78 16.5752C2173.78 23.5088 2170.04 27.9766 2162.54 29.9785C2163.81 30.8086 2164.99 31.7485 2166.09 32.7983C2167.22 33.8237 2168.24 34.9956 2169.17 36.314C2172.25 40.6108 2173.78 45.5303 2173.78 51.0723ZM2168.11 51.0723C2168.11 48.2158 2167.58 45.5547 2166.53 43.0889C2165.51 40.623 2164.08 38.4868 2162.25 36.6802C2160.44 34.8491 2158.3 33.4209 2155.84 32.3955C2153.37 31.3701 2150.72 30.8574 2147.89 30.8574C2144.89 30.8574 2142.09 31.3823 2139.51 32.4321C2136.92 33.4575 2134.68 34.8735 2132.8 36.6802C2130.92 38.4868 2129.45 40.623 2128.37 43.0889C2127.3 45.5547 2126.76 48.2158 2126.76 51.0723C2126.76 56.7363 2128.78 61.6191 2132.8 65.7207C2136.93 69.9199 2141.96 72.0195 2147.89 72.0195C2153.58 72.0195 2158.4 69.9199 2162.36 65.7207C2166.19 61.668 2168.11 56.7852 2168.11 51.0723ZM2205.64 53.5625C2205.64 57.1514 2205.18 60.4351 2204.25 63.4136C2203.32 66.3677 2202.03 68.9067 2200.37 71.0308C2198.71 73.1304 2196.71 74.7661 2194.36 75.938C2192.04 77.1099 2189.48 77.6958 2186.67 77.6958C2184.33 77.6958 2182.17 77.293 2180.19 76.4873C2178.21 75.6816 2176.51 74.583 2175.06 73.1914C2173.62 71.7754 2172.5 70.103 2171.7 68.1743C2170.89 66.2456 2170.48 64.146 2170.45 61.8755L2170.41 57.4443H2175.87L2175.91 61.8755C2175.91 63.2671 2176.19 64.5732 2176.75 65.7939C2177.29 67.0146 2178.03 68.0767 2178.98 68.98C2179.94 69.8833 2181.06 70.5913 2182.35 71.104C2183.67 71.6167 2185.11 71.873 2186.67 71.873C2188.75 71.873 2190.6 71.4214 2192.24 70.5181C2193.88 69.6147 2195.26 68.3208 2196.38 66.6362C2197.53 64.9517 2198.39 62.9009 2198.98 60.4839C2199.56 58.0669 2199.86 55.3447 2199.86 52.3174C2199.86 44.2363 2197.95 38.2305 2194.14 34.2998C2192.58 32.6641 2190.68 31.5166 2188.43 30.8574H2185.9V25.5107L2190.85 25.5474C2193.73 26.7925 2196.2 28.5625 2198.25 30.8574C2203.18 36.375 2205.64 43.9434 2205.64 53.5625ZM2228.5 72.3857C2228.5 72.9961 2228.36 73.582 2228.09 74.1436C2227.85 74.7051 2227.51 75.1934 2227.07 75.6084C2226.63 76.0234 2226.1 76.3652 2225.49 76.6338C2224.91 76.8779 2224.27 77 2223.59 77C2222.93 77 2222.29 76.8901 2221.68 76.6704C2221.1 76.4263 2220.58 76.0967 2220.15 75.6816C2219.71 75.2666 2219.35 74.7783 2219.08 74.2168C2218.84 73.6553 2218.72 73.0449 2218.72 72.3857C2218.72 71.751 2218.84 71.1528 2219.08 70.5913C2219.33 70.0298 2219.67 69.5415 2220.11 69.1265C2220.55 68.7114 2221.06 68.394 2221.65 68.1743C2222.23 67.9302 2222.88 67.8081 2223.59 67.8081C2224.25 67.8081 2224.87 67.9302 2225.46 68.1743C2226.07 68.4185 2226.59 68.748 2227.03 69.1631C2227.49 69.5781 2227.85 70.0664 2228.09 70.6279C2228.36 71.1895 2228.5 71.7754 2228.5 72.3857Z" fill="black"/>
</svg>
