<svg width="1415" height="73" viewBox="0 0 1415 73" fill="none" xmlns="http://www.w3.org/2000/svg">
<path d="M0.7 38.75C0.7 36.7 1.35 34.95 2.65 33.5C4 32 5.6 31.25 7.45 31.25C8.9 31.25 10.125 31.775 11.125 32.825C12.175 33.825 12.7 35.05 12.7 36.5C12.7 37.65 12.25 38.675 11.35 39.575C10.5 40.425 9.45 40.9 8.2 41V39.5C8.85 39.4 9.375 39.15 9.775 38.75C10.225 38.3 10.45 37.8 10.45 37.25C10.45 36.2 10.075 35.325 9.325 34.625C8.625 33.875 7.75 33.5 6.7 33.5C5.45 33.5 4.375 33.95 3.475 34.85C2.625 35.7 2.2 36.75 2.2 38C2.2 39.85 2.925 41.45 4.375 42.8C5.875 44.1 7.65 44.75 9.7 44.75C12 44.75 14.075 43.825 15.925 41.975C17.775 40.125 18.95 37.8 19.45 35C19.95 37.8 20.975 40.125 22.525 41.975C24.075 43.825 25.8 44.75 27.7 44.75C29.85 44.75 31.7 43.95 33.25 42.35C34.8 40.75 35.575 38.8 35.575 36.5C35.575 31.75 33.625 27.7 29.725 24.35C25.875 20.95 21.2 19.25 15.7 19.25C14.45 19.25 13.375 19.1 12.475 18.8C11.625 18.5 11.2 18.15 11.2 17.75C11.2 17.35 11.625 17 12.475 16.7C13.375 16.4 14.45 16.25 15.7 16.25C18 16.25 20.3 16.65 22.6 17.45C24.9 18.2 27.1 19.3 29.2 20.75C31.8 22.55 33.825 24.85 35.275 27.65C36.725 30.4 37.45 33.35 37.45 36.5C37.45 40.25 36.575 43.45 34.825 46.1C33.075 48.7 30.95 50 28.45 50C26.5 50 24.675 49.175 22.975 47.525C21.325 45.825 20.15 43.65 19.45 41C18.75 43.65 17.475 45.825 15.625 47.525C13.825 49.175 11.85 50 9.7 50C7.2 50 5.075 48.9 3.325 46.7C1.575 44.5 0.7 41.85 0.7 38.75ZM51.4393 23C51.4393 23.95 51.7643 24.75 52.4143 25.4C53.0643 26.05 53.8643 26.375 54.8143 26.375C55.8643 26.375 56.7393 26.05 57.4393 25.4C58.1893 24.75 58.5643 23.95 58.5643 23C58.5643 22.15 58.1893 21.45 57.4393 20.9C56.7393 20.3 55.8643 20 54.8143 20C53.8643 20 53.0643 20.3 52.4143 20.9C51.7643 21.45 51.4393 22.15 51.4393 23ZM77.3143 31.25C77.3143 28.55 76.3893 26.25 74.5393 24.35C72.7393 22.45 70.5393 21.5 67.9393 21.5H72.0643H64.5643V16.25H72.0643H72.4393L72.8143 21.5C74.6643 22.35 76.1143 23.725 77.1643 25.625C78.2643 27.525 78.8143 29.65 78.8143 32C78.8143 36.95 77.0393 41.2 73.4893 44.75C69.9893 48.25 65.7643 50 60.8143 50C55.8643 50 51.6143 48.175 48.0643 44.525C44.5643 40.875 42.8143 36.45 42.8143 31.25C42.8143 27.1 43.9143 23.575 46.1143 20.675C48.3143 17.725 50.9643 16.25 54.0643 16.25C55.9143 16.25 57.4893 17 58.7893 18.5C60.1393 19.95 60.8143 21.7 60.8143 23.75C60.8143 25.8 60.2143 27.575 59.0143 29.075C57.8643 30.525 56.4643 31.25 54.8143 31.25C53.3643 31.25 52.1143 30.675 51.0643 29.525C50.0643 28.325 49.5643 26.9 49.5643 25.25C49.5643 24.45 49.6143 23.75 49.7143 23.15C49.8643 22.5 50.0643 21.95 50.3143 21.5C48.5143 22.15 47.0643 23.375 45.9643 25.175C44.8643 26.975 44.3143 29 44.3143 31.25C44.3143 35 45.9143 38.2 49.1143 40.85C52.3643 43.45 56.2643 44.75 60.8143 44.75C65.3643 44.75 69.2393 43.45 72.4393 40.85C75.6893 38.2 77.3143 35 77.3143 31.25ZM70.133 16.25H86.633C90.983 16.25 94.683 18.15 97.733 21.95C100.833 25.75 102.383 30.35 102.383 35.75C102.383 39.7 101.208 43.075 98.858 45.875C96.508 48.625 93.683 50 90.383 50C87.883 50 85.758 49.05 84.008 47.15C82.258 45.25 81.383 42.95 81.383 40.25C81.383 38.4 81.933 36.825 83.033 35.525C84.133 34.175 85.458 33.5 87.008 33.5C88.158 33.5 89.133 33.875 89.933 34.625C90.733 35.325 91.133 36.2 91.133 37.25C91.133 38.3 90.833 39.2 90.233 39.95C89.683 40.65 88.983 41 88.133 41C86.783 41 85.733 40.5 84.983 39.5C84.233 38.5 84.158 37.5 84.758 36.5C84.158 37 83.683 37.575 83.333 38.225C83.033 38.875 82.883 39.55 82.883 40.25C82.883 41.9 83.608 43.325 85.058 44.525C86.558 45.675 88.333 46.25 90.383 46.25C93.283 46.25 95.758 45.075 97.808 42.725C99.858 40.375 100.883 37.55 100.883 34.25C100.883 30.75 99.483 27.75 96.683 25.25C93.933 22.75 90.583 21.5 86.633 21.5H70.133V16.25ZM69.0068 64.25C69.0068 61.75 69.8068 59.625 71.4068 57.875C73.0068 56.125 74.9568 55.25 77.2568 55.25C79.0568 55.25 80.6568 55.95 82.0568 57.35C83.4568 58.8 84.3568 60.6 84.7568 62.75C85.1568 60.6 86.0568 58.8 87.4568 57.35C88.8568 55.95 90.4568 55.25 92.2568 55.25C94.5568 55.25 96.5068 56.125 98.1068 57.875C99.7068 59.625 100.507 61.75 100.507 64.25C100.507 66.4 100.007 68.25 99.0068 69.8C97.9568 71.35 96.7068 72.125 95.2568 72.125C94.4068 72.125 93.9818 71.675 93.9818 70.775C93.9818 69.925 94.4068 69.5 95.2568 69.5C96.3068 69.5 97.2068 69.125 97.9568 68.375C98.6568 67.675 99.0068 66.8 99.0068 65.75C99.0068 64.1 98.4318 62.675 97.2818 61.475C96.0818 60.325 94.6568 59.75 93.0068 59.75C90.9568 59.75 89.1568 60.375 87.6068 61.625C86.0568 62.925 85.1068 64.55 84.7568 66.5C84.4068 64.55 83.4568 62.925 81.9068 61.625C80.3568 60.375 78.5568 59.75 76.5068 59.75C74.8568 59.75 73.4568 60.325 72.3068 61.475C71.1068 62.675 70.5068 64.1 70.5068 65.75C70.5068 66.8 70.8818 67.675 71.6318 68.375C72.3318 69.125 73.2068 69.5 74.2568 69.5C75.1068 69.5 75.5318 69.925 75.5318 70.775C75.5318 71.675 75.1068 72.125 74.2568 72.125C72.8068 72.125 71.5818 71.35 70.5818 69.8C69.5318 68.25 69.0068 66.4 69.0068 64.25ZM107.707 37.625C107.707 33.875 108.882 30.5 111.232 27.5C113.632 24.5 116.707 22.5 120.457 21.5H115.207H107.707V16.25H115.207H138.457V21.5H132.457C136.207 22.5 139.257 24.5 141.607 27.5C144.007 30.5 145.207 33.875 145.207 37.625C145.207 41.025 144.257 43.95 142.357 46.4C140.457 48.8 138.157 50 135.457 50C133.457 50 131.607 49.25 129.907 47.75C128.257 46.2 127.107 44.2 126.457 41.75C125.807 44.2 124.632 46.2 122.932 47.75C121.282 49.25 119.457 50 117.457 50C114.757 50 112.457 48.8 110.557 46.4C108.657 43.95 107.707 41.025 107.707 37.625ZM110.707 37.625C110.707 39.575 111.432 41.25 112.882 42.65C114.382 44.05 116.157 44.75 118.207 44.75C120.057 44.75 121.732 44.05 123.232 42.65C124.782 41.25 125.857 39.45 126.457 37.25C127.057 39.45 128.107 41.25 129.607 42.65C131.157 44.05 132.857 44.75 134.707 44.75C136.757 44.75 138.507 44.05 139.957 42.65C141.457 41.25 142.207 39.575 142.207 37.625C142.207 33.175 140.657 29.375 137.557 26.225C134.507 23.075 130.807 21.5 126.457 21.5C122.107 21.5 118.382 23.075 115.282 26.225C112.232 29.375 110.707 33.175 110.707 37.625ZM143.857 8.75C143.857 7.3 143.532 6.025 142.882 4.925C142.282 3.825 141.482 3.1 140.482 2.75L141.232 0.874998C142.932 1.675 144.282 2.975 145.282 4.775C146.332 6.525 146.857 8.475 146.857 10.625C146.857 13.625 145.932 16.2 144.082 18.35C142.282 20.45 140.082 21.5 137.482 21.5V16.25C139.232 16.25 140.732 15.525 141.982 14.075C143.232 12.575 143.857 10.8 143.857 8.75ZM151.945 35C151.945 31.95 152.77 29.2 154.42 26.75C156.07 24.25 158.245 22.5 160.945 21.5H159.445H151.945V16.25H159.445H174.82V21.5H172.945C175.645 22.5 177.82 24.25 179.47 26.75C181.12 29.2 181.945 31.95 181.945 35C181.945 39.15 180.47 42.7 177.52 45.65C174.62 48.55 171.095 50 166.945 50C162.795 50 159.245 48.55 156.295 45.65C153.395 42.7 151.945 39.15 151.945 35ZM154.945 32.75C154.945 36.25 156.12 39.25 158.47 41.75C160.82 44.25 163.645 45.5 166.945 45.5C170.245 45.5 173.07 44.25 175.42 41.75C177.77 39.25 178.945 36.25 178.945 32.75C178.945 29.65 177.77 27 175.42 24.8C173.07 22.6 170.245 21.5 166.945 21.5C163.645 21.5 160.82 22.6 158.47 24.8C156.12 27 154.945 29.65 154.945 32.75ZM181.12 8.9C181.12 7.45 180.795 6.175 180.145 5.075C179.545 3.975 178.745 3.25 177.745 2.9L178.495 1.025C180.195 1.825 181.545 3.125 182.545 4.925C183.595 6.675 184.12 8.625 184.12 10.775C184.12 13.775 183.195 16.35 181.345 18.5C179.545 20.6 177.345 21.65 174.745 21.65V16.4C176.495 16.4 177.995 15.675 179.245 14.225C180.495 12.725 181.12 10.95 181.12 8.9ZM181.519 36.125L182.269 34.25C183.119 37.35 184.569 39.875 186.619 41.825C188.719 43.775 191.019 44.75 193.519 44.75C195.469 44.75 197.144 44.25 198.544 43.25C199.944 42.2 200.644 40.95 200.644 39.5C200.644 38.25 200.394 36.375 199.894 33.875C199.394 31.375 199.144 29.5 199.144 28.25C199.144 24.95 200.444 22.125 203.044 19.775C205.694 17.425 208.894 16.25 212.644 16.25C217.194 16.25 221.069 17.95 224.269 21.35C227.519 24.7 229.144 28.75 229.144 33.5C229.144 38.05 228.119 41.95 226.069 45.2C224.019 48.4 221.544 50 218.644 50C215.944 50 213.644 49.025 211.744 47.075C209.844 45.075 208.894 42.675 208.894 39.875C208.894 37.925 209.544 36.25 210.844 34.85C212.194 33.45 213.794 32.75 215.644 32.75C216.694 32.75 217.569 33.2 218.269 34.1C219.019 34.95 219.394 36 219.394 37.25C219.394 38.1 219.094 38.825 218.494 39.425C217.944 39.975 217.244 40.25 216.394 40.25C215.194 40.25 214.269 39.7 213.619 38.6C213.019 37.5 212.944 36.3 213.394 35C212.694 35.6 212.144 36.3 211.744 37.1C211.344 37.85 211.144 38.65 211.144 39.5C211.144 41.15 211.869 42.575 213.319 43.775C214.819 44.925 216.594 45.5 218.644 45.5C221.144 45.5 223.269 44.325 225.019 41.975C226.769 39.625 227.644 36.8 227.644 33.5C227.644 30.2 226.169 27.375 223.219 25.025C220.319 22.675 216.794 21.5 212.644 21.5C209.644 21.5 207.069 22.6 204.919 24.8C202.819 27 201.769 29.65 201.769 32.75C201.769 33.95 201.944 35.7 202.294 38C202.694 40.3 202.894 42.05 202.894 43.25C202.894 45.1 202.094 46.7 200.494 48.05C198.894 49.35 196.944 50 194.644 50C191.894 50 189.294 48.725 186.844 46.175C184.394 43.575 182.619 40.225 181.519 36.125ZM253.166 26.75C253.166 23.85 254.041 21.375 255.791 19.325C257.541 17.275 259.666 16.25 262.166 16.25C263.966 16.25 265.691 17 267.341 18.5C268.991 20 270.266 22 271.166 24.5C271.566 22.1 272.616 20.125 274.316 18.575C276.016 17.025 277.966 16.25 280.166 16.25C283.066 16.25 285.541 17.575 287.591 20.225C289.641 22.825 290.666 26 290.666 29.75C290.666 32.25 290.416 34.525 289.916 36.575C289.416 38.625 288.666 40.35 287.666 41.75C289.366 43.45 290.666 45.35 291.566 47.45C292.466 49.5 292.916 51.6 292.916 53.75C292.916 54.15 292.766 54.5 292.466 54.8C292.166 55.1 291.816 55.25 291.416 55.25C291.016 55.25 290.666 55.1 290.366 54.8C290.066 54.5 289.916 54.15 289.916 53.75C289.916 51.5 289.641 49.475 289.091 47.675C288.591 45.875 287.866 44.4 286.916 43.25C285.416 45.35 283.616 47 281.516 48.2C279.416 49.4 277.216 50 274.916 50C272.016 50 269.541 49.275 267.491 47.825C265.441 46.325 264.416 44.55 264.416 42.5C264.416 40.45 265.516 38.7 267.716 37.25C269.916 35.75 272.566 35 275.666 35C277.366 35 279.116 35.45 280.916 36.35C282.716 37.25 284.466 38.55 286.166 40.25C287.116 39.1 287.841 37.625 288.341 35.825C288.891 34.025 289.166 32 289.166 29.75C289.166 27.45 288.291 25.5 286.541 23.9C284.791 22.3 282.666 21.5 280.166 21.5C277.966 21.5 276.016 22.225 274.316 23.675C272.616 25.075 271.566 26.85 271.166 29C270.766 26.85 269.716 25.075 268.016 23.675C266.316 22.225 264.366 21.5 262.166 21.5C260.116 21.5 258.341 22.1 256.841 23.3C255.391 24.45 254.666 25.85 254.666 27.5C254.666 28.95 255.166 30.2 256.166 31.25C257.216 32.25 258.466 32.75 259.916 32.75C260.666 32.75 261.041 33.125 261.041 33.875C261.041 34.625 260.666 35 259.916 35C258.066 35 256.466 34.2 255.116 32.6C253.816 31 253.166 29.05 253.166 26.75ZM268.166 41C268.166 42.05 268.891 42.95 270.341 43.7C271.841 44.4 273.616 44.75 275.666 44.75C277.716 44.75 279.566 44.475 281.216 43.925C282.916 43.325 284.316 42.475 285.416 41.375C284.116 39.825 282.616 38.625 280.916 37.775C279.216 36.925 277.466 36.5 275.666 36.5C273.616 36.5 271.841 36.95 270.341 37.85C268.891 38.7 268.166 39.75 268.166 41ZM298.137 35C298.137 31.95 298.962 29.2 300.612 26.75C302.262 24.25 304.437 22.5 307.137 21.5H305.637H298.137V16.25H305.637H321.012V21.5H319.137C321.837 22.5 324.012 24.25 325.662 26.75C327.312 29.2 328.137 31.95 328.137 35C328.137 39.15 326.662 42.7 323.712 45.65C320.812 48.55 317.287 50 313.137 50C308.987 50 305.437 48.55 302.487 45.65C299.587 42.7 298.137 39.15 298.137 35ZM301.137 32.75C301.137 36.25 302.312 39.25 304.662 41.75C307.012 44.25 309.837 45.5 313.137 45.5C316.437 45.5 319.262 44.25 321.612 41.75C323.962 39.25 325.137 36.25 325.137 32.75C325.137 29.65 323.962 27 321.612 24.8C319.262 22.6 316.437 21.5 313.137 21.5C309.837 21.5 307.012 22.6 304.662 24.8C302.312 27 301.137 29.65 301.137 32.75ZM327.312 8.9C327.312 7.45 326.987 6.175 326.337 5.075C325.737 3.975 324.937 3.25 323.937 2.9L324.687 1.025C326.387 1.825 327.737 3.125 328.737 4.925C329.787 6.675 330.312 8.625 330.312 10.775C330.312 13.775 329.387 16.35 327.537 18.5C325.737 20.6 323.537 21.65 320.937 21.65V16.4C322.687 16.4 324.187 15.675 325.437 14.225C326.687 12.725 327.312 10.95 327.312 8.9ZM327.701 36.5L329.201 34.25C329.451 37.2 330.651 39.7 332.801 41.75C335.001 43.75 337.551 44.75 340.451 44.75C343.051 44.75 345.251 43.725 347.051 41.675C348.901 39.625 349.826 37.15 349.826 34.25C349.826 31.65 348.576 29.3 346.076 27.2C343.626 25.05 340.501 23.65 336.701 23C335.701 22.85 334.876 22.525 334.226 22.025C333.626 21.525 333.326 20.975 333.326 20.375C333.326 19.875 333.651 19.45 334.301 19.1C334.951 18.7 335.751 18.5 336.701 18.5C340.751 18.5 344.201 20.125 347.051 23.375C349.901 26.575 351.326 30.45 351.326 35C351.326 39.15 350.251 42.7 348.101 45.65C346.001 48.55 343.451 50 340.451 50C337.201 50 334.351 48.7 331.901 46.1C329.451 43.5 328.051 40.3 327.701 36.5ZM374.601 38.75C374.601 36.7 375.251 34.95 376.551 33.5C377.901 32 379.501 31.25 381.351 31.25C382.801 31.25 384.026 31.775 385.026 32.825C386.076 33.825 386.601 35.05 386.601 36.5C386.601 37.65 386.151 38.675 385.251 39.575C384.401 40.425 383.351 40.9 382.101 41V39.5C382.751 39.4 383.276 39.15 383.676 38.75C384.126 38.3 384.351 37.8 384.351 37.25C384.351 36.2 383.976 35.325 383.226 34.625C382.526 33.875 381.651 33.5 380.601 33.5C379.351 33.5 378.276 33.95 377.376 34.85C376.526 35.7 376.101 36.75 376.101 38C376.101 39.85 376.826 41.45 378.276 42.8C379.776 44.1 381.551 44.75 383.601 44.75C385.901 44.75 387.976 43.825 389.826 41.975C391.676 40.125 392.851 37.8 393.351 35C393.851 37.8 394.876 40.125 396.426 41.975C397.976 43.825 399.701 44.75 401.601 44.75C403.751 44.75 405.601 43.95 407.151 42.35C408.701 40.75 409.476 38.8 409.476 36.5C409.476 31.75 407.526 27.7 403.626 24.35C399.776 20.95 395.101 19.25 389.601 19.25C388.351 19.25 387.276 19.1 386.376 18.8C385.526 18.5 385.101 18.15 385.101 17.75C385.101 17.35 385.526 17 386.376 16.7C387.276 16.4 388.351 16.25 389.601 16.25C391.901 16.25 394.201 16.65 396.501 17.45C398.801 18.2 401.001 19.3 403.101 20.75C405.701 22.55 407.726 24.85 409.176 27.65C410.626 30.4 411.351 33.35 411.351 36.5C411.351 40.25 410.476 43.45 408.726 46.1C406.976 48.7 404.851 50 402.351 50C400.401 50 398.576 49.175 396.876 47.525C395.226 45.825 394.051 43.65 393.351 41C392.651 43.65 391.376 45.825 389.526 47.525C387.726 49.175 385.751 50 383.601 50C381.101 50 378.976 48.9 377.226 46.7C375.476 44.5 374.601 41.85 374.601 38.75ZM416.716 34.25C416.716 29.9 417.891 26.2 420.241 23.15C422.591 20.05 425.416 18.5 428.716 18.5C432.016 18.5 434.841 20.05 437.191 23.15C439.541 26.2 440.716 29.9 440.716 34.25C440.716 38.6 439.541 42.325 437.191 45.425C434.841 48.475 432.016 50 428.716 50C425.416 50 422.591 48.475 420.241 45.425C417.891 42.325 416.716 38.6 416.716 34.25ZM418.216 34.25C418.216 37.15 419.241 39.625 421.291 41.675C423.341 43.725 425.816 44.75 428.716 44.75C431.616 44.75 434.091 43.725 436.141 41.675C438.191 39.625 439.216 37.15 439.216 34.25C439.216 31.35 438.191 28.875 436.141 26.825C434.091 24.775 431.616 23.75 428.716 23.75C425.816 23.75 423.341 24.775 421.291 26.825C419.241 28.875 418.216 31.35 418.216 34.25ZM456.146 30.875C456.146 31.375 456.421 31.825 456.971 32.225C457.571 32.575 458.296 32.75 459.146 32.75C461.046 32.75 462.746 32.275 464.246 31.325C465.796 30.375 466.846 29.1 467.396 27.5C466.546 27 465.046 26.75 462.896 26.75C461.046 26.75 459.446 27.15 458.096 27.95C456.796 28.75 456.146 29.725 456.146 30.875ZM461.396 21.5H453.146H445.646V16.25H453.146H468.296V21.5H465.146C466.446 21.75 467.521 22.45 468.371 23.6C469.221 24.7 469.646 26 469.646 27.5C471.246 28.45 472.521 29.875 473.471 31.775C474.421 33.625 474.896 35.7 474.896 38C474.896 41.3 473.496 44.125 470.696 46.475C467.946 48.825 464.596 50 460.646 50C456.496 50 452.946 48.825 449.996 46.475C447.096 44.125 445.646 41.3 445.646 38C445.646 36.85 445.796 35.825 446.096 34.925C446.446 33.975 446.921 33.25 447.521 32.75L448.646 33.5C448.396 33.7 448.196 34 448.046 34.4C447.946 34.8 447.896 35.25 447.896 35.75C447.896 38.35 449.146 40.575 451.646 42.425C454.146 44.225 457.146 45.125 460.646 45.125C463.946 45.125 466.771 44.225 469.121 42.425C471.471 40.575 472.646 38.35 472.646 35.75C472.646 34.4 472.371 33.15 471.821 32C471.321 30.8 470.596 29.8 469.646 29C469.046 31.2 467.846 33 466.046 34.4C464.246 35.8 462.196 36.5 459.896 36.5C458.146 36.5 456.646 36.075 455.396 35.225C454.146 34.325 453.521 33.25 453.521 32C453.521 30.15 454.421 28.575 456.221 27.275C458.071 25.925 460.296 25.25 462.896 25.25C463.846 25.25 464.696 25.325 465.446 25.475C466.196 25.575 466.846 25.75 467.396 26C467.396 24.75 466.796 23.7 465.596 22.85C464.446 21.95 463.046 21.5 461.396 21.5ZM466.227 16.25H482.727C487.077 16.25 490.777 18.15 493.827 21.95C496.927 25.75 498.477 30.35 498.477 35.75C498.477 39.7 497.302 43.075 494.952 45.875C492.602 48.625 489.777 50 486.477 50C483.977 50 481.852 49.05 480.102 47.15C478.352 45.25 477.477 42.95 477.477 40.25C477.477 38.4 478.027 36.825 479.127 35.525C480.227 34.175 481.552 33.5 483.102 33.5C484.252 33.5 485.227 33.875 486.027 34.625C486.827 35.325 487.227 36.2 487.227 37.25C487.227 38.3 486.927 39.2 486.327 39.95C485.777 40.65 485.077 41 484.227 41C482.877 41 481.827 40.5 481.077 39.5C480.327 38.5 480.252 37.5 480.852 36.5C480.252 37 479.777 37.575 479.427 38.225C479.127 38.875 478.977 39.55 478.977 40.25C478.977 41.9 479.702 43.325 481.152 44.525C482.652 45.675 484.427 46.25 486.477 46.25C489.377 46.25 491.852 45.075 493.902 42.725C495.952 40.375 496.977 37.55 496.977 34.25C496.977 30.75 495.577 27.75 492.777 25.25C490.027 22.75 486.677 21.5 482.727 21.5H466.227V16.25ZM503.801 37.625C503.801 33.875 504.976 30.5 507.326 27.5C509.726 24.5 512.801 22.5 516.551 21.5H511.301H503.801V16.25H511.301H534.551V21.5H528.551C532.301 22.5 535.351 24.5 537.701 27.5C540.101 30.5 541.301 33.875 541.301 37.625C541.301 41.025 540.351 43.95 538.451 46.4C536.551 48.8 534.251 50 531.551 50C529.551 50 527.701 49.25 526.001 47.75C524.351 46.2 523.201 44.2 522.551 41.75C521.901 44.2 520.726 46.2 519.026 47.75C517.376 49.25 515.551 50 513.551 50C510.851 50 508.551 48.8 506.651 46.4C504.751 43.95 503.801 41.025 503.801 37.625ZM506.801 37.625C506.801 39.575 507.526 41.25 508.976 42.65C510.476 44.05 512.251 44.75 514.301 44.75C516.151 44.75 517.826 44.05 519.326 42.65C520.876 41.25 521.951 39.45 522.551 37.25C523.151 39.45 524.201 41.25 525.701 42.65C527.251 44.05 528.951 44.75 530.801 44.75C532.851 44.75 534.601 44.05 536.051 42.65C537.551 41.25 538.301 39.575 538.301 37.625C538.301 33.175 536.751 29.375 533.651 26.225C530.601 23.075 526.901 21.5 522.551 21.5C518.201 21.5 514.476 23.075 511.376 26.225C508.326 29.375 506.801 33.175 506.801 37.625ZM539.951 8.75C539.951 7.3 539.626 6.025 538.976 4.925C538.376 3.825 537.576 3.1 536.576 2.75L537.326 0.874998C539.026 1.675 540.376 2.975 541.376 4.775C542.426 6.525 542.951 8.475 542.951 10.625C542.951 13.625 542.026 16.2 540.176 18.35C538.376 20.45 536.176 21.5 533.576 21.5V16.25C535.326 16.25 536.826 15.525 538.076 14.075C539.326 12.575 539.951 10.8 539.951 8.75ZM548.039 35C548.039 31.95 548.864 29.2 550.514 26.75C552.164 24.25 554.339 22.5 557.039 21.5H555.539H548.039V16.25H555.539H570.914V21.5H569.039C571.739 22.5 573.914 24.25 575.564 26.75C577.214 29.2 578.039 31.95 578.039 35C578.039 39.15 576.564 42.7 573.614 45.65C570.714 48.55 567.189 50 563.039 50C558.889 50 555.339 48.55 552.389 45.65C549.489 42.7 548.039 39.15 548.039 35ZM551.039 32.75C551.039 36.25 552.214 39.25 554.564 41.75C556.914 44.25 559.739 45.5 563.039 45.5C566.339 45.5 569.164 44.25 571.514 41.75C573.864 39.25 575.039 36.25 575.039 32.75C575.039 29.65 573.864 27 571.514 24.8C569.164 22.6 566.339 21.5 563.039 21.5C559.739 21.5 556.914 22.6 554.564 24.8C552.214 27 551.039 29.65 551.039 32.75ZM577.214 8.9C577.214 7.45 576.889 6.175 576.239 5.075C575.639 3.975 574.839 3.25 573.839 2.9L574.589 1.025C576.289 1.825 577.639 3.125 578.639 4.925C579.689 6.675 580.214 8.625 580.214 10.775C580.214 13.775 579.289 16.35 577.439 18.5C575.639 20.6 573.439 21.65 570.839 21.65V16.4C572.589 16.4 574.089 15.675 575.339 14.225C576.589 12.725 577.214 10.95 577.214 8.9ZM577.604 36.5L579.104 34.25C579.354 37.2 580.554 39.7 582.704 41.75C584.904 43.75 587.454 44.75 590.354 44.75C592.954 44.75 595.154 43.725 596.954 41.675C598.804 39.625 599.729 37.15 599.729 34.25C599.729 31.65 598.479 29.3 595.979 27.2C593.529 25.05 590.404 23.65 586.604 23C585.604 22.85 584.779 22.525 584.129 22.025C583.529 21.525 583.229 20.975 583.229 20.375C583.229 19.875 583.554 19.45 584.204 19.1C584.854 18.7 585.654 18.5 586.604 18.5C590.654 18.5 594.104 20.125 596.954 23.375C599.804 26.575 601.229 30.45 601.229 35C601.229 39.15 600.154 42.7 598.004 45.65C595.904 48.55 593.354 50 590.354 50C587.104 50 584.254 48.7 581.804 46.1C579.354 43.5 577.954 40.3 577.604 36.5ZM624.504 26.75C624.504 23.85 625.379 21.375 627.129 19.325C628.879 17.275 631.004 16.25 633.504 16.25C635.304 16.25 637.029 17 638.679 18.5C640.329 20 641.604 22 642.504 24.5C642.904 22.1 643.954 20.125 645.654 18.575C647.354 17.025 649.304 16.25 651.504 16.25C654.404 16.25 656.879 17.575 658.929 20.225C660.979 22.825 662.004 26 662.004 29.75C662.004 32.25 661.754 34.525 661.254 36.575C660.754 38.625 660.004 40.35 659.004 41.75C660.704 43.45 662.004 45.35 662.904 47.45C663.804 49.5 664.254 51.6 664.254 53.75C664.254 54.15 664.104 54.5 663.804 54.8C663.504 55.1 663.154 55.25 662.754 55.25C662.354 55.25 662.004 55.1 661.704 54.8C661.404 54.5 661.254 54.15 661.254 53.75C661.254 51.5 660.979 49.475 660.429 47.675C659.929 45.875 659.204 44.4 658.254 43.25C656.754 45.35 654.954 47 652.854 48.2C650.754 49.4 648.554 50 646.254 50C643.354 50 640.879 49.275 638.829 47.825C636.779 46.325 635.754 44.55 635.754 42.5C635.754 40.45 636.854 38.7 639.054 37.25C641.254 35.75 643.904 35 647.004 35C648.704 35 650.454 35.45 652.254 36.35C654.054 37.25 655.804 38.55 657.504 40.25C658.454 39.1 659.179 37.625 659.679 35.825C660.229 34.025 660.504 32 660.504 29.75C660.504 27.45 659.629 25.5 657.879 23.9C656.129 22.3 654.004 21.5 651.504 21.5C649.304 21.5 647.354 22.225 645.654 23.675C643.954 25.075 642.904 26.85 642.504 29C642.104 26.85 641.054 25.075 639.354 23.675C637.654 22.225 635.704 21.5 633.504 21.5C631.454 21.5 629.679 22.1 628.179 23.3C626.729 24.45 626.004 25.85 626.004 27.5C626.004 28.95 626.504 30.2 627.504 31.25C628.554 32.25 629.804 32.75 631.254 32.75C632.004 32.75 632.379 33.125 632.379 33.875C632.379 34.625 632.004 35 631.254 35C629.404 35 627.804 34.2 626.454 32.6C625.154 31 624.504 29.05 624.504 26.75ZM639.504 41C639.504 42.05 640.229 42.95 641.679 43.7C643.179 44.4 644.954 44.75 647.004 44.75C649.054 44.75 650.904 44.475 652.554 43.925C654.254 43.325 655.654 42.475 656.754 41.375C655.454 39.825 653.954 38.625 652.254 37.775C650.554 36.925 648.804 36.5 647.004 36.5C644.954 36.5 643.179 36.95 641.679 37.85C640.229 38.7 639.504 39.75 639.504 41ZM669.474 35C669.474 31.95 670.299 29.2 671.949 26.75C673.599 24.25 675.774 22.5 678.474 21.5H676.974H669.474V16.25H676.974H692.349V21.5H690.474C693.174 22.5 695.349 24.25 696.999 26.75C698.649 29.2 699.474 31.95 699.474 35C699.474 39.15 697.999 42.7 695.049 45.65C692.149 48.55 688.624 50 684.474 50C680.324 50 676.774 48.55 673.824 45.65C670.924 42.7 669.474 39.15 669.474 35ZM672.474 32.75C672.474 36.25 673.649 39.25 675.999 41.75C678.349 44.25 681.174 45.5 684.474 45.5C687.774 45.5 690.599 44.25 692.949 41.75C695.299 39.25 696.474 36.25 696.474 32.75C696.474 29.65 695.299 27 692.949 24.8C690.599 22.6 687.774 21.5 684.474 21.5C681.174 21.5 678.349 22.6 675.999 24.8C673.649 27 672.474 29.65 672.474 32.75ZM698.649 8.9C698.649 7.45 698.324 6.175 697.674 5.075C697.074 3.975 696.274 3.25 695.274 2.9L696.024 1.025C697.724 1.825 699.074 3.125 700.074 4.925C701.124 6.675 701.649 8.625 701.649 10.775C701.649 13.775 700.724 16.35 698.874 18.5C697.074 20.6 694.874 21.65 692.274 21.65V16.4C694.024 16.4 695.524 15.675 696.774 14.225C698.024 12.725 698.649 10.95 698.649 8.9ZM699.039 36.5L700.539 34.25C700.789 37.2 701.989 39.7 704.139 41.75C706.339 43.75 708.889 44.75 711.789 44.75C714.389 44.75 716.589 43.725 718.389 41.675C720.239 39.625 721.164 37.15 721.164 34.25C721.164 31.65 719.914 29.3 717.414 27.2C714.964 25.05 711.839 23.65 708.039 23C707.039 22.85 706.214 22.525 705.564 22.025C704.964 21.525 704.664 20.975 704.664 20.375C704.664 19.875 704.989 19.45 705.639 19.1C706.289 18.7 707.089 18.5 708.039 18.5C712.089 18.5 715.539 20.125 718.389 23.375C721.239 26.575 722.664 30.45 722.664 35C722.664 39.15 721.589 42.7 719.439 45.65C717.339 48.55 714.789 50 711.789 50C708.539 50 705.689 48.7 703.239 46.1C700.789 43.5 699.389 40.3 699.039 36.5ZM745.939 38.75C745.939 36.7 746.589 34.95 747.889 33.5C749.239 32 750.839 31.25 752.689 31.25C754.139 31.25 755.364 31.775 756.364 32.825C757.414 33.825 757.939 35.05 757.939 36.5C757.939 37.65 757.489 38.675 756.589 39.575C755.739 40.425 754.689 40.9 753.439 41V39.5C754.089 39.4 754.614 39.15 755.014 38.75C755.464 38.3 755.689 37.8 755.689 37.25C755.689 36.2 755.314 35.325 754.564 34.625C753.864 33.875 752.989 33.5 751.939 33.5C750.689 33.5 749.614 33.95 748.714 34.85C747.864 35.7 747.439 36.75 747.439 38C747.439 39.85 748.164 41.45 749.614 42.8C751.114 44.1 752.889 44.75 754.939 44.75C757.239 44.75 759.314 43.825 761.164 41.975C763.014 40.125 764.189 37.8 764.689 35C765.189 37.8 766.214 40.125 767.764 41.975C769.314 43.825 771.039 44.75 772.939 44.75C775.089 44.75 776.939 43.95 778.489 42.35C780.039 40.75 780.814 38.8 780.814 36.5C780.814 31.75 778.864 27.7 774.964 24.35C771.114 20.95 766.439 19.25 760.939 19.25C759.689 19.25 758.614 19.1 757.714 18.8C756.864 18.5 756.439 18.15 756.439 17.75C756.439 17.35 756.864 17 757.714 16.7C758.614 16.4 759.689 16.25 760.939 16.25C763.239 16.25 765.539 16.65 767.839 17.45C770.139 18.2 772.339 19.3 774.439 20.75C777.039 22.55 779.064 24.85 780.514 27.65C781.964 30.4 782.689 33.35 782.689 36.5C782.689 40.25 781.814 43.45 780.064 46.1C778.314 48.7 776.189 50 773.689 50C771.739 50 769.914 49.175 768.214 47.525C766.564 45.825 765.389 43.65 764.689 41C763.989 43.65 762.714 45.825 760.864 47.525C759.064 49.175 757.089 50 754.939 50C752.439 50 750.314 48.9 748.564 46.7C746.814 44.5 745.939 41.85 745.939 38.75ZM788.054 34.25C788.054 29.9 789.229 26.2 791.579 23.15C793.929 20.05 796.754 18.5 800.054 18.5C803.354 18.5 806.179 20.05 808.529 23.15C810.879 26.2 812.054 29.9 812.054 34.25C812.054 38.6 810.879 42.325 808.529 45.425C806.179 48.475 803.354 50 800.054 50C796.754 50 793.929 48.475 791.579 45.425C789.229 42.325 788.054 38.6 788.054 34.25ZM789.554 34.25C789.554 37.15 790.579 39.625 792.629 41.675C794.679 43.725 797.154 44.75 800.054 44.75C802.954 44.75 805.429 43.725 807.479 41.675C809.529 39.625 810.554 37.15 810.554 34.25C810.554 31.35 809.529 28.875 807.479 26.825C805.429 24.775 802.954 23.75 800.054 23.75C797.154 23.75 794.679 24.775 792.629 26.825C790.579 28.875 789.554 31.35 789.554 34.25ZM816.984 37.625C816.984 33.875 818.159 30.5 820.509 27.5C822.909 24.5 825.984 22.5 829.734 21.5H824.484H816.984V16.25H824.484H847.734V21.5H841.734C845.484 22.5 848.534 24.5 850.884 27.5C853.284 30.5 854.484 33.875 854.484 37.625C854.484 41.025 853.534 43.95 851.634 46.4C849.734 48.8 847.434 50 844.734 50C842.734 50 840.884 49.25 839.184 47.75C837.534 46.2 836.384 44.2 835.734 41.75C835.084 44.2 833.909 46.2 832.209 47.75C830.559 49.25 828.734 50 826.734 50C824.034 50 821.734 48.8 819.834 46.4C817.934 43.95 816.984 41.025 816.984 37.625ZM819.984 37.625C819.984 39.575 820.709 41.25 822.159 42.65C823.659 44.05 825.434 44.75 827.484 44.75C829.334 44.75 831.009 44.05 832.509 42.65C834.059 41.25 835.134 39.45 835.734 37.25C836.334 39.45 837.384 41.25 838.884 42.65C840.434 44.05 842.134 44.75 843.984 44.75C846.034 44.75 847.784 44.05 849.234 42.65C850.734 41.25 851.484 39.575 851.484 37.625C851.484 33.175 849.934 29.375 846.834 26.225C843.784 23.075 840.084 21.5 835.734 21.5C831.384 21.5 827.659 23.075 824.559 26.225C821.509 29.375 819.984 33.175 819.984 37.625ZM839.468 8.375C839.468 7.025 840.018 5.875 841.118 4.925C842.218 3.975 843.543 3.5 845.093 3.5C847.243 3.5 849.093 4.3 850.643 5.9C852.193 7.5 852.968 9.45 852.968 11.75C852.968 14.45 852.193 16.75 850.643 18.65C849.093 20.55 847.243 21.5 845.093 21.5H844.343V16.25H845.468C847.018 16.25 848.343 15.75 849.443 14.75C850.543 13.7 851.093 12.45 851.093 11C851.093 9.45 850.543 8.125 849.443 7.025C848.343 5.925 847.018 5.375 845.468 5.375C845.818 5.625 846.093 6.025 846.293 6.575C846.493 7.075 846.593 7.675 846.593 8.375C846.593 9.425 846.268 10.325 845.618 11.075C844.968 11.775 844.168 12.125 843.218 12.125C842.168 12.125 841.293 11.775 840.593 11.075C839.843 10.325 839.468 9.425 839.468 8.375ZM858.293 34.25C858.293 29.9 859.468 26.2 861.818 23.15C864.168 20.05 866.993 18.5 870.293 18.5C873.593 18.5 876.418 20.05 878.768 23.15C881.118 26.2 882.293 29.9 882.293 34.25C882.293 38.6 881.118 42.325 878.768 45.425C876.418 48.475 873.593 50 870.293 50C866.993 50 864.168 48.475 861.818 45.425C859.468 42.325 858.293 38.6 858.293 34.25ZM859.793 34.25C859.793 37.15 860.818 39.625 862.868 41.675C864.918 43.725 867.393 44.75 870.293 44.75C873.193 44.75 875.668 43.725 877.718 41.675C879.768 39.625 880.793 37.15 880.793 34.25C880.793 31.35 879.768 28.875 877.718 26.825C875.668 24.775 873.193 23.75 870.293 23.75C867.393 23.75 864.918 24.775 862.868 26.825C860.818 28.875 859.793 31.35 859.793 34.25ZM890.223 36.5C890.223 38.8 890.948 40.75 892.398 42.35C893.898 43.95 895.673 44.75 897.723 44.75C899.573 44.75 901.248 44.05 902.748 42.65C904.298 41.25 905.373 39.45 905.973 37.25C906.573 39.45 907.623 41.25 909.123 42.65C910.673 44.05 912.373 44.75 914.223 44.75C916.273 44.75 918.023 43.95 919.473 42.35C920.973 40.75 921.723 38.8 921.723 36.5C921.723 31.75 920.173 27.7 917.073 24.35C914.023 20.95 910.323 19.25 905.973 19.25C901.623 19.25 897.898 20.95 894.798 24.35C891.748 27.7 890.223 31.75 890.223 36.5ZM887.223 36.5C887.223 33.55 888.023 30.675 889.623 27.875C891.223 25.075 893.423 22.7 896.223 20.75C894.573 20.75 893.148 20.425 891.948 19.775C890.798 19.125 890.223 18.325 890.223 17.375C890.223 15.225 891.398 13.375 893.748 11.825C896.098 10.275 898.923 9.5 902.223 9.5C908.423 9.5 913.723 12.15 918.123 17.45C922.523 22.7 924.723 29.05 924.723 36.5C924.723 40.25 923.773 43.45 921.873 46.1C919.973 48.7 917.673 50 914.973 50C912.973 50 911.123 49.25 909.423 47.75C907.773 46.2 906.623 44.2 905.973 41.75C905.323 44.2 904.148 46.2 902.448 47.75C900.798 49.25 898.973 50 896.973 50C894.273 50 891.973 48.7 890.073 46.1C888.173 43.45 887.223 40.25 887.223 36.5ZM894.723 17C894.723 17.6 895.073 18.125 895.773 18.575C896.523 19.025 897.423 19.25 898.473 19.25C899.523 18.75 900.673 18.375 901.923 18.125C903.223 17.875 904.573 17.75 905.973 17.75C909.023 17.75 911.998 18.625 914.898 20.375C917.798 22.075 920.323 24.45 922.473 27.5C921.273 23.1 918.923 19.5 915.423 16.7C911.973 13.9 908.073 12.5 903.723 12.5C901.223 12.5 899.098 12.95 897.348 13.85C895.598 14.7 894.723 15.75 894.723 17ZM930.143 45.5C930.143 40.1 931.143 35.25 933.143 30.95C935.143 26.65 937.893 23.5 941.393 21.5H937.643H930.143V16.25H937.643H953.393V21.5H948.893C952.393 23.5 955.143 26.65 957.143 30.95C959.143 35.25 960.143 40.1 960.143 45.5V50H954.893V42.5C954.893 36.7 953.943 31.75 952.043 27.65C950.143 23.55 947.843 21.5 945.143 21.5C942.443 21.5 940.143 23.55 938.243 27.65C936.343 31.75 935.393 36.7 935.393 42.5V50H930.143V45.5ZM959.243 8.75C959.243 7.3 958.918 6.025 958.268 4.925C957.668 3.825 956.868 3.1 955.868 2.75L956.618 0.874998C958.318 1.675 959.668 2.975 960.668 4.775C961.718 6.525 962.243 8.475 962.243 10.625C962.243 13.625 961.318 16.2 959.468 18.35C957.668 20.45 955.468 21.5 952.868 21.5V16.25C954.618 16.25 956.118 15.525 957.368 14.075C958.618 12.575 959.243 10.8 959.243 8.75ZM959.058 36.125L959.808 34.25C960.658 37.35 962.108 39.875 964.158 41.825C966.258 43.775 968.558 44.75 971.058 44.75C973.008 44.75 974.683 44.25 976.083 43.25C977.483 42.2 978.183 40.95 978.183 39.5C978.183 38.25 977.933 36.375 977.433 33.875C976.933 31.375 976.683 29.5 976.683 28.25C976.683 24.95 977.983 22.125 980.583 19.775C983.233 17.425 986.433 16.25 990.183 16.25C994.733 16.25 998.608 17.95 1001.81 21.35C1005.06 24.7 1006.68 28.75 1006.68 33.5C1006.68 38.05 1005.66 41.95 1003.61 45.2C1001.56 48.4 999.083 50 996.183 50C993.483 50 991.183 49.025 989.283 47.075C987.383 45.075 986.433 42.675 986.433 39.875C986.433 37.925 987.083 36.25 988.383 34.85C989.733 33.45 991.333 32.75 993.183 32.75C994.233 32.75 995.108 33.2 995.808 34.1C996.558 34.95 996.933 36 996.933 37.25C996.933 38.1 996.633 38.825 996.033 39.425C995.483 39.975 994.783 40.25 993.933 40.25C992.733 40.25 991.808 39.7 991.158 38.6C990.558 37.5 990.483 36.3 990.933 35C990.233 35.6 989.683 36.3 989.283 37.1C988.883 37.85 988.683 38.65 988.683 39.5C988.683 41.15 989.408 42.575 990.858 43.775C992.358 44.925 994.133 45.5 996.183 45.5C998.683 45.5 1000.81 44.325 1002.56 41.975C1004.31 39.625 1005.18 36.8 1005.18 33.5C1005.18 30.2 1003.71 27.375 1000.76 25.025C997.858 22.675 994.333 21.5 990.183 21.5C987.183 21.5 984.608 22.6 982.458 24.8C980.358 27 979.308 29.65 979.308 32.75C979.308 33.95 979.483 35.7 979.833 38C980.233 40.3 980.433 42.05 980.433 43.25C980.433 45.1 979.633 46.7 978.033 48.05C976.433 49.35 974.483 50 972.183 50C969.433 50 966.833 48.725 964.383 46.175C961.933 43.575 960.158 40.225 959.058 36.125ZM1061.36 35.75C1061.36 29.55 1059.41 24.25 1055.51 19.85C1051.66 15.45 1046.99 13.25 1041.49 13.25C1041.84 13.55 1042.11 13.975 1042.31 14.525C1042.51 15.025 1042.61 15.6 1042.61 16.25C1042.61 17.7 1042.09 18.95 1041.04 20C1040.04 21 1038.81 21.5 1037.36 21.5C1035.71 21.5 1034.29 21 1033.09 20C1031.94 18.95 1031.36 17.7 1031.36 16.25C1031.36 14.4 1032.16 12.825 1033.76 11.525C1035.36 10.175 1037.31 9.5 1039.61 9.5C1046.26 9.5 1051.91 12.3 1056.56 17.9C1061.26 23.45 1063.61 30.15 1063.61 38C1063.61 41.3 1062.76 44.125 1061.06 46.475C1059.41 48.825 1057.39 50 1054.99 50C1053.49 50 1051.94 49.125 1050.34 47.375C1048.74 45.575 1047.41 43.2 1046.36 40.25C1045.86 38.9 1044.99 37.825 1043.74 37.025C1042.54 36.175 1041.16 35.75 1039.61 35.75C1037.76 35.75 1036.16 36.425 1034.81 37.775C1033.51 39.075 1032.86 40.65 1032.86 42.5C1032.86 43.7 1034.86 45.7 1038.86 48.5C1040.61 50.25 1041.49 51.375 1041.49 51.875C1041.49 52.425 1041.11 52.825 1040.36 53.075C1039.66 53.325 1038.91 53.3 1038.11 53C1036.06 52.25 1034.41 50.725 1033.16 48.425C1031.96 46.075 1031.36 43.35 1031.36 40.25C1031.36 37.55 1032.16 35.25 1033.76 33.35C1035.36 31.45 1037.31 30.5 1039.61 30.5C1040.71 30.5 1041.94 31.25 1043.29 32.75C1044.69 34.25 1045.96 36.25 1047.11 38.75C1047.96 40.6 1049.06 42.075 1050.41 43.175C1051.76 44.225 1053.16 44.75 1054.61 44.75C1056.46 44.75 1058.04 43.875 1059.34 42.125C1060.69 40.375 1061.36 38.25 1061.36 35.75ZM1033.61 16.25C1033.61 17.3 1033.96 18.2 1034.66 18.95C1035.41 19.65 1036.31 20 1037.36 20C1038.41 20 1039.29 19.65 1039.99 18.95C1040.74 18.2 1041.11 17.3 1041.11 16.25C1041.11 15.2 1040.74 14.325 1039.99 13.625C1039.29 12.875 1038.41 12.5 1037.36 12.5C1036.31 12.5 1035.41 12.875 1034.66 13.625C1033.96 14.325 1033.61 15.2 1033.61 16.25ZM1076.36 24.5C1076.36 25.75 1076.79 26.825 1077.64 27.725C1078.54 28.575 1079.61 29 1080.86 29C1081.91 29 1082.79 28.575 1083.49 27.725C1084.24 26.825 1084.61 25.75 1084.61 24.5C1084.61 23.45 1084.24 22.575 1083.49 21.875C1082.79 21.125 1081.91 20.75 1080.86 20.75C1079.61 20.75 1078.54 21.125 1077.64 21.875C1076.79 22.575 1076.36 23.45 1076.36 24.5ZM1068.86 31.25C1068.86 27.1 1069.96 23.575 1072.16 20.675C1074.36 17.725 1077.01 16.25 1080.11 16.25C1081.86 16.25 1083.36 16.925 1084.61 18.275C1085.86 19.575 1086.49 21.15 1086.49 23C1086.49 25.5 1085.86 27.625 1084.61 29.375C1083.36 31.125 1081.86 32 1080.11 32C1077.61 32 1075.84 30.8 1074.79 28.4C1073.79 26 1074.06 23.7 1075.61 21.5C1074.01 22.45 1072.74 23.8 1071.79 25.55C1070.84 27.25 1070.36 29.15 1070.36 31.25C1070.36 34 1071.61 37.025 1074.11 40.325C1076.66 43.625 1080.16 46.85 1084.61 50H1076.74C1074.24 47.9 1072.29 45.225 1070.89 41.975C1069.54 38.675 1068.86 35.1 1068.86 31.25ZM1112.73 38C1112.73 39.85 1113.38 41.45 1114.68 42.8C1116.03 44.1 1117.63 44.75 1119.48 44.75C1121.33 44.75 1122.91 44.1 1124.21 42.8C1125.56 41.45 1126.23 39.85 1126.23 38C1126.23 35.95 1125.56 34.2 1124.21 32.75C1122.91 31.25 1121.33 30.5 1119.48 30.5C1117.63 30.5 1116.03 31.25 1114.68 32.75C1113.38 34.2 1112.73 35.95 1112.73 38ZM1106.73 26H1117.61C1118.26 25.45 1118.66 24.75 1118.81 23.9C1118.96 23.05 1118.81 22.25 1118.36 21.5H1114.23H1106.73V16.25H1114.23H1124.96V21.5H1120.98C1121.38 22.2 1121.56 22.975 1121.51 23.825C1121.46 24.625 1121.16 25.35 1120.61 26H1131.48V30.5H1123.98C1125.58 31.25 1126.86 32.45 1127.81 34.1C1128.76 35.7 1129.23 37.5 1129.23 39.5C1129.23 42.4 1128.28 44.875 1126.38 46.925C1124.48 48.975 1122.18 50 1119.48 50C1116.78 50 1114.48 48.975 1112.58 46.925C1110.68 44.875 1109.73 42.4 1109.73 39.5C1109.73 37.5 1110.21 35.7 1111.16 34.1C1112.11 32.45 1113.38 31.25 1114.98 30.5H1106.73V26ZM1130.13 8.75C1130.13 7.3 1129.81 6.025 1129.16 4.925C1128.56 3.825 1127.76 3.1 1126.76 2.75L1127.51 0.874998C1129.21 1.675 1130.56 2.975 1131.56 4.775C1132.61 6.525 1133.13 8.475 1133.13 10.625C1133.13 13.625 1132.21 16.2 1130.36 18.35C1128.56 20.45 1126.36 21.5 1123.76 21.5V16.25C1125.51 16.25 1127.01 15.525 1128.26 14.075C1129.51 12.575 1130.13 10.8 1130.13 8.75ZM1167.4 35.75C1167.4 32.3 1166.13 29.25 1163.58 26.6C1161.03 23.9 1157.8 22.2 1153.9 21.5H1145.65H1138.15V16.25H1145.65H1164.18V21.5H1158.4C1162.05 23.2 1164.95 25.55 1167.1 28.55C1169.3 31.5 1170.4 34.65 1170.4 38C1170.4 41.3 1169.55 44.125 1167.85 46.475C1166.2 48.825 1164.18 50 1161.78 50C1160.28 50 1158.73 49.125 1157.13 47.375C1155.53 45.575 1154.2 43.2 1153.15 40.25C1152.65 38.9 1151.78 37.825 1150.53 37.025C1149.33 36.175 1147.95 35.75 1146.4 35.75C1144.55 35.75 1142.95 36.425 1141.6 37.775C1140.3 39.075 1139.65 40.65 1139.65 42.5C1139.65 43.65 1140.2 44.775 1141.3 45.875C1142.4 46.975 1143.85 47.85 1145.65 48.5C1146.45 48.85 1147.08 49.35 1147.53 50C1148.03 50.6 1148.28 51.225 1148.28 51.875C1148.28 52.425 1147.9 52.825 1147.15 53.075C1146.45 53.325 1145.7 53.3 1144.9 53C1142.85 52.25 1141.2 50.725 1139.95 48.425C1138.75 46.075 1138.15 43.35 1138.15 40.25C1138.15 37.55 1138.95 35.25 1140.55 33.35C1142.15 31.45 1144.1 30.5 1146.4 30.5C1147.75 30.5 1149.1 31.25 1150.45 32.75C1151.85 34.25 1153 36.25 1153.9 38.75C1154.55 40.55 1155.55 42 1156.9 43.1C1158.3 44.2 1159.8 44.75 1161.4 44.75C1163.05 44.75 1164.45 43.875 1165.6 42.125C1166.8 40.375 1167.4 38.25 1167.4 35.75ZM1170.1 8.75C1170.1 7.3 1169.78 6.025 1169.13 4.925C1168.53 3.825 1167.73 3.1 1166.73 2.75L1167.48 0.874998C1169.18 1.675 1170.53 2.975 1171.53 4.775C1172.58 6.525 1173.1 8.475 1173.1 10.625C1173.1 13.625 1172.18 16.2 1170.33 18.35C1168.53 20.45 1166.33 21.5 1163.73 21.5V16.25C1165.48 16.25 1166.98 15.525 1168.23 14.075C1169.48 12.575 1170.1 10.8 1170.1 8.75ZM1157.88 59.75C1157.88 58.3 1158.76 57.05 1160.51 56C1162.21 55 1164.26 54.5 1166.66 54.5C1168.46 54.5 1170.08 54.75 1171.53 55.25C1172.98 55.8 1174.11 56.55 1174.91 57.5C1175.61 56.9 1176.16 56.125 1176.56 55.175C1176.96 54.275 1177.16 53.3 1177.16 52.25C1177.16 51.4 1177.03 50.525 1176.78 49.625C1176.53 48.725 1176.16 47.85 1175.66 47L1176.41 46.25C1177.16 47.1 1177.71 48.125 1178.06 49.325C1178.46 50.475 1178.66 51.7 1178.66 53C1178.66 54.05 1178.38 55.15 1177.83 56.3C1177.33 57.45 1176.61 58.6 1175.66 59.75C1175.56 58.65 1176.06 60.15 1177.16 64.25C1177.46 65.35 1178.31 66.25 1179.71 66.95C1181.11 67.65 1182.76 68 1184.66 68C1184.41 69.3 1184.01 70.375 1183.46 71.225C1182.91 72.075 1182.31 72.5 1181.66 72.5C1179.81 72.5 1178.21 71.9 1176.86 70.7C1175.56 69.55 1174.91 68.15 1174.91 66.5C1174.91 64.35 1174.66 62.6 1174.16 61.25C1172.71 62.45 1171.16 63.375 1169.51 64.025C1167.81 64.675 1166.11 65 1164.41 65C1162.61 65 1161.08 64.475 1159.83 63.425C1158.53 62.425 1157.88 61.2 1157.88 59.75ZM1160.28 59C1160.28 59.6 1160.68 60.125 1161.48 60.575C1162.28 61.025 1163.26 61.25 1164.41 61.25C1166.31 61.25 1168.03 61.025 1169.58 60.575C1171.13 60.125 1172.41 59.475 1173.41 58.625C1172.61 57.675 1171.63 56.925 1170.48 56.375C1169.28 55.875 1168.01 55.625 1166.66 55.625C1164.91 55.625 1163.41 55.95 1162.16 56.6C1160.91 57.25 1160.28 58.05 1160.28 59ZM1189.57 39.125C1189.57 34.675 1190.77 30.8 1193.17 27.5C1195.57 24.15 1198.62 22.15 1202.32 21.5H1197.07H1189.57V16.25H1197.07H1220.32V21.5H1215.07C1218.22 22.05 1220.69 23.4 1222.49 25.55C1224.34 27.65 1224.87 29.8 1224.07 32C1225.02 32.8 1225.74 33.8 1226.24 35C1226.79 36.15 1227.07 37.4 1227.07 38.75C1227.07 41.85 1226.04 44.5 1223.99 46.7C1221.94 48.9 1219.47 50 1216.57 50C1214.62 50 1212.79 49.175 1211.09 47.525C1209.44 45.825 1208.27 43.65 1207.57 41C1206.87 43.65 1205.67 45.825 1203.97 47.525C1202.32 49.175 1200.52 50 1198.57 50C1196.07 50 1193.94 48.95 1192.19 46.85C1190.44 44.7 1189.57 42.125 1189.57 39.125ZM1192.57 37.625C1192.57 39.575 1193.19 41.25 1194.44 42.65C1195.69 44.05 1197.19 44.75 1198.94 44.75C1200.94 44.75 1202.74 43.825 1204.34 41.975C1205.99 40.125 1207.07 37.8 1207.57 35C1207.82 37.75 1208.87 40.075 1210.72 41.975C1212.62 43.825 1214.82 44.75 1217.32 44.75C1219.37 44.75 1221.12 44.1 1222.57 42.8C1224.07 41.45 1224.82 39.85 1224.82 38C1224.82 37.1 1224.62 36.25 1224.22 35.45C1223.82 34.65 1223.27 34 1222.57 33.5C1221.77 34.7 1220.77 35.625 1219.57 36.275C1218.37 36.925 1217.12 37.25 1215.82 37.25C1214.37 37.25 1213.12 36.775 1212.07 35.825C1211.07 34.875 1210.57 33.725 1210.57 32.375C1210.57 31.125 1211.07 30.075 1212.07 29.225C1213.12 28.325 1214.37 27.875 1215.82 27.875C1216.77 27.875 1217.69 28.05 1218.59 28.4C1219.54 28.7 1220.37 29.15 1221.07 29.75C1221.82 27.75 1220.84 25.875 1218.14 24.125C1215.44 22.375 1212.17 21.5 1208.32 21.5C1203.97 21.5 1200.24 23.075 1197.14 26.225C1194.09 29.375 1192.57 33.175 1192.57 37.625ZM1212.82 31.625C1212.82 32.225 1213.09 32.75 1213.64 33.2C1214.24 33.65 1214.97 33.875 1215.82 33.875C1216.67 33.875 1217.52 33.65 1218.37 33.2C1219.22 32.75 1219.99 32.1 1220.69 31.25C1219.84 30.5 1218.99 29.95 1218.14 29.6C1217.29 29.2 1216.52 29 1215.82 29C1214.97 29 1214.24 29.275 1213.64 29.825C1213.09 30.325 1212.82 30.925 1212.82 31.625ZM1226.32 8.75C1226.32 7.3 1225.99 6.025 1225.34 4.925C1224.74 3.825 1223.94 3.1 1222.94 2.75L1223.69 0.874998C1225.39 1.675 1226.74 2.975 1227.74 4.775C1228.79 6.525 1229.32 8.475 1229.32 10.625C1229.32 13.625 1228.39 16.2 1226.54 18.35C1224.74 20.45 1222.54 21.5 1219.94 21.5V16.25C1221.69 16.25 1223.19 15.525 1224.44 14.075C1225.69 12.575 1226.32 10.8 1226.32 8.75ZM1263.18 44.75C1264.83 44.75 1266.23 44.025 1267.38 42.575C1268.58 41.075 1269.18 39.3 1269.18 37.25C1269.18 33.2 1267.58 29.675 1264.38 26.675C1261.23 23.625 1257.33 21.9 1252.68 21.5H1242.18H1234.68V16.25H1242.18H1265.43V21.5H1258.68C1262.73 23 1265.98 25.225 1268.43 28.175C1270.93 31.125 1272.18 34.275 1272.18 37.625C1272.18 41.025 1271.31 43.95 1269.56 46.4C1267.81 48.8 1265.68 50 1263.18 50C1260.63 50 1258.41 49.15 1256.51 47.45C1254.66 45.7 1253.63 43.55 1253.43 41C1253.23 43.55 1252.18 45.7 1250.28 47.45C1248.43 49.15 1246.23 50 1243.68 50C1241.18 50 1239.06 48.9 1237.31 46.7C1235.56 44.5 1234.68 41.85 1234.68 38.75C1234.68 36.45 1235.33 34.5 1236.63 32.9C1237.98 31.3 1239.58 30.5 1241.43 30.5C1242.98 30.5 1244.31 30.975 1245.41 31.925C1246.51 32.875 1247.06 34.025 1247.06 35.375C1247.06 36.725 1246.58 37.875 1245.63 38.825C1244.68 39.775 1243.53 40.25 1242.18 40.25V39.5C1242.88 39.25 1243.43 38.825 1243.83 38.225C1244.23 37.575 1244.43 36.875 1244.43 36.125C1244.43 35.175 1244.06 34.375 1243.31 33.725C1242.61 33.075 1241.73 32.75 1240.68 32.75C1239.43 32.75 1238.36 33.275 1237.46 34.325C1236.61 35.325 1236.18 36.55 1236.18 38C1236.18 39.85 1236.91 41.45 1238.36 42.8C1239.86 44.1 1241.63 44.75 1243.68 44.75C1245.78 44.75 1247.73 43.85 1249.53 42.05C1251.38 40.25 1252.68 37.9 1253.43 35C1254.18 37.9 1255.46 40.25 1257.26 42.05C1259.11 43.85 1261.08 44.75 1263.18 44.75ZM1263.47 16.25H1279.97C1284.32 16.25 1288.02 18.15 1291.07 21.95C1294.17 25.75 1295.72 30.35 1295.72 35.75C1295.72 39.7 1294.54 43.075 1292.19 45.875C1289.84 48.625 1287.02 50 1283.72 50C1281.22 50 1279.09 49.05 1277.34 47.15C1275.59 45.25 1274.72 42.95 1274.72 40.25C1274.72 38.4 1275.27 36.825 1276.37 35.525C1277.47 34.175 1278.79 33.5 1280.34 33.5C1281.49 33.5 1282.47 33.875 1283.27 34.625C1284.07 35.325 1284.47 36.2 1284.47 37.25C1284.47 38.3 1284.17 39.2 1283.57 39.95C1283.02 40.65 1282.32 41 1281.47 41C1280.12 41 1279.07 40.5 1278.32 39.5C1277.57 38.5 1277.49 37.5 1278.09 36.5C1277.49 37 1277.02 37.575 1276.67 38.225C1276.37 38.875 1276.22 39.55 1276.22 40.25C1276.22 41.9 1276.94 43.325 1278.39 44.525C1279.89 45.675 1281.67 46.25 1283.72 46.25C1286.62 46.25 1289.09 45.075 1291.14 42.725C1293.19 40.375 1294.22 37.55 1294.22 34.25C1294.22 30.75 1292.82 27.75 1290.02 25.25C1287.27 22.75 1283.92 21.5 1279.97 21.5H1263.47V16.25ZM1301.04 45.5C1301.04 39.55 1302.02 34.3 1303.97 29.75C1305.92 25.2 1308.57 21.95 1311.92 20C1309.52 20 1307.47 19.525 1305.77 18.575C1304.12 17.625 1303.29 16.475 1303.29 15.125C1303.29 13.575 1304.09 12.25 1305.69 11.15C1307.29 10.05 1309.24 9.5 1311.54 9.5C1316.94 9.5 1321.54 12.725 1325.34 19.175C1329.14 25.625 1331.04 33.4 1331.04 42.5V50H1325.79V42.5C1325.79 36.4 1324.84 31.2 1322.94 26.9C1321.04 22.55 1318.74 20.375 1316.04 20.375C1313.34 20.375 1311.04 22.55 1309.14 26.9C1307.24 31.2 1306.29 36.4 1306.29 42.5V50H1301.04V45.5ZM1308.17 15.5C1308.17 16.2 1308.92 16.825 1310.42 17.375C1311.92 17.925 1313.79 18.3 1316.04 18.5C1317.89 18.65 1319.67 19.375 1321.37 20.675C1323.12 21.925 1324.59 23.575 1325.79 25.625C1325.14 21.825 1323.59 18.7 1321.14 16.25C1318.74 13.75 1316.04 12.5 1313.04 12.5C1311.69 12.5 1310.54 12.8 1309.59 13.4C1308.64 13.95 1308.17 14.65 1308.17 15.5ZM1336.42 35C1336.42 31.95 1337.24 29.2 1338.89 26.75C1340.54 24.25 1342.72 22.5 1345.42 21.5H1343.92H1336.42V16.25H1343.92H1359.29V21.5H1357.42C1360.12 22.5 1362.29 24.25 1363.94 26.75C1365.59 29.2 1366.42 31.95 1366.42 35C1366.42 39.15 1364.94 42.7 1361.99 45.65C1359.09 48.55 1355.57 50 1351.42 50C1347.27 50 1343.72 48.55 1340.77 45.65C1337.87 42.7 1336.42 39.15 1336.42 35ZM1339.42 32.75C1339.42 36.25 1340.59 39.25 1342.94 41.75C1345.29 44.25 1348.12 45.5 1351.42 45.5C1354.72 45.5 1357.54 44.25 1359.89 41.75C1362.24 39.25 1363.42 36.25 1363.42 32.75C1363.42 29.65 1362.24 27 1359.89 24.8C1357.54 22.6 1354.72 21.5 1351.42 21.5C1348.12 21.5 1345.29 22.6 1342.94 24.8C1340.59 27 1339.42 29.65 1339.42 32.75ZM1365.59 8.9C1365.59 7.45 1365.27 6.175 1364.62 5.075C1364.02 3.975 1363.22 3.25 1362.22 2.9L1362.97 1.025C1364.67 1.825 1366.02 3.125 1367.02 4.925C1368.07 6.675 1368.59 8.625 1368.59 10.775C1368.59 13.775 1367.67 16.35 1365.82 18.5C1364.02 20.6 1361.82 21.65 1359.22 21.65V16.4C1360.97 16.4 1362.47 15.675 1363.72 14.225C1364.97 12.725 1365.59 10.95 1365.59 8.9ZM1365.98 36.5L1367.48 34.25C1367.73 37.2 1368.93 39.7 1371.08 41.75C1373.28 43.75 1375.83 44.75 1378.73 44.75C1381.33 44.75 1383.53 43.725 1385.33 41.675C1387.18 39.625 1388.11 37.15 1388.11 34.25C1388.11 31.65 1386.86 29.3 1384.36 27.2C1381.91 25.05 1378.78 23.65 1374.98 23C1373.98 22.85 1373.16 22.525 1372.51 22.025C1371.91 21.525 1371.61 20.975 1371.61 20.375C1371.61 19.875 1371.93 19.45 1372.58 19.1C1373.23 18.7 1374.03 18.5 1374.98 18.5C1379.03 18.5 1382.48 20.125 1385.33 23.375C1388.18 26.575 1389.61 30.45 1389.61 35C1389.61 39.15 1388.53 42.7 1386.38 45.65C1384.28 48.55 1381.73 50 1378.73 50C1375.48 50 1372.63 48.7 1370.18 46.1C1367.73 43.5 1366.33 40.3 1365.98 36.5ZM1407.17 46.25C1407.17 45.2 1407.52 44.325 1408.22 43.625C1408.97 42.875 1409.87 42.5 1410.92 42.5C1411.97 42.5 1412.84 42.875 1413.54 43.625C1414.29 44.325 1414.67 45.2 1414.67 46.25C1414.67 47.3 1414.29 48.2 1413.54 48.95C1412.84 49.65 1411.97 50 1410.92 50C1409.87 50 1408.97 49.65 1408.22 48.95C1407.52 48.2 1407.17 47.3 1407.17 46.25Z" fill="black"/>
</svg>
