<svg width="1875" height="89" viewBox="0 0 1875 89" fill="none" xmlns="http://www.w3.org/2000/svg">
<path d="M39.8 58.125C36.9 58.125 34.25 57.125 31.85 55.125C29.5 53.075 27.9 50.05 27.05 46.05H26.75C25.85 49.7 24.175 52.625 21.725 54.825C19.325 57.025 16.425 58.125 13.025 58.125C10.775 58.125 8.825 57.675 7.175 56.775C5.575 55.825 4.25 54.6 3.2 53.1C2.15 51.55 1.375 49.875 0.875 48.075C0.375 46.275 0.125 44.525 0.125 42.825C0.125 40.525 0.55 38.4 1.4 36.45C2.25 34.45 3.475 32.85 5.075 31.65C6.675 30.4 8.575 29.775 10.775 29.775C13.075 29.775 15.05 30.45 16.7 31.8C18.35 33.15 19.175 34.925 19.175 37.125C19.175 38.625 18.75 40.075 17.9 41.475C17.05 42.825 15.9 44.05 14.45 45.15L12.95 44.025C14 42.875 14.525 41.65 14.525 40.35C14.525 39.15 14.05 38.125 13.1 37.275C12.15 36.375 10.9 35.925 9.35 35.925C7.4 35.925 5.825 36.625 4.625 38.025C3.475 39.425 2.9 41 2.9 42.75C2.9 43.9 3.225 45.05 3.875 46.2C4.525 47.3 5.575 48.2 7.025 48.9C8.525 49.6 10.45 49.95 12.8 49.95C16.5 49.95 19.525 48.95 21.875 46.95C24.225 44.95 25.7 41.95 26.3 37.95H27.5C27.8 40.1 28.4 42.075 29.3 43.875C30.25 45.675 31.525 47.125 33.125 48.225C34.725 49.275 36.625 49.8 38.825 49.8C41.925 49.8 44.3 48.825 45.95 46.875C47.65 44.875 48.5 42.45 48.5 39.6C48.5 37.25 47.875 34.85 46.625 32.4C45.425 29.9 43.55 27.55 41 25.35C38.45 23.15 35.175 21.35 31.175 19.95C27.175 18.5 22.4 17.7 16.85 17.55L16.475 10.8C22.725 11.1 28.075 12.275 32.525 14.325C37.025 16.325 40.7 18.9 43.55 22.05C46.4 25.15 48.5 28.5 49.85 32.1C51.25 35.65 51.95 39.1 51.95 42.45C51.95 45.35 51.475 48 50.525 50.4C49.575 52.75 48.175 54.625 46.325 56.025C44.525 57.425 42.35 58.125 39.8 58.125ZM128.855 58.125C126.155 58.125 123.78 57.55 121.73 56.4C119.73 55.2 118.155 53.575 117.005 51.525C115.855 49.425 115.28 47.05 115.28 44.4C115.28 41.75 115.805 39.525 116.855 37.725C117.955 35.875 119.38 34.5 121.13 33.6C122.88 32.65 124.73 32.175 126.68 32.175C129.13 32.175 131.005 32.825 132.305 34.125C133.655 35.375 134.33 36.975 134.33 38.925C134.33 40.775 133.78 42.175 132.68 43.125C131.58 44.075 130.38 44.55 129.08 44.55C127.58 44.55 126.405 44.075 125.555 43.125C124.755 42.125 124.355 41 124.355 39.75C124.355 38.95 124.53 38.175 124.88 37.425C125.23 36.675 125.78 36 126.53 35.4C126.28 35.35 126.08 35.325 125.93 35.325C125.78 35.325 125.605 35.325 125.405 35.325C123.005 35.325 121.13 36.1 119.78 37.65C118.43 39.2 117.755 41.1 117.755 43.35C117.755 44.65 118.055 46 118.655 47.4C119.255 48.8 120.33 50 121.88 51C123.48 51.95 125.705 52.425 128.555 52.425C131.755 52.425 134.43 51.8 136.58 50.55C138.73 49.25 140.33 47.575 141.38 45.525C142.48 43.475 143.03 41.25 143.03 38.85C143.03 36.1 142.305 33.5 140.855 31.05C139.405 28.55 137.13 26.5 134.03 24.9C130.93 23.3 126.93 22.5 122.03 22.5H103.805C105.305 24.3 106.48 26.3 107.33 28.5C108.23 30.65 108.68 33.1 108.68 35.85C108.68 38.2 108.28 40.675 107.48 43.275C106.73 45.825 105.48 48.225 103.73 50.475C101.98 52.725 99.6305 54.575 96.6805 56.025C93.7305 57.425 90.0555 58.125 85.6555 58.125C81.8555 58.125 78.5805 57.575 75.8305 56.475C73.0805 55.375 70.7805 53.925 68.9305 52.125C67.1305 50.325 65.7055 48.325 64.6555 46.125C63.6055 43.925 62.8555 41.725 62.4055 39.525C61.9555 37.275 61.7305 35.2 61.7305 33.3C61.7305 30.05 62.2305 27.05 63.2305 24.3C64.2805 21.55 65.7055 19.35 67.5055 17.7C69.3055 16 71.3555 15.15 73.6555 15.15C75.6055 15.15 77.2055 15.725 78.4555 16.875C79.7555 17.975 80.7305 19.425 81.3805 21.225C82.0305 23.025 82.3555 24.925 82.3555 26.925C82.3555 30.175 81.5555 32.65 79.9555 34.35C78.3555 36.05 76.4555 36.9 74.2555 36.9C72.2555 36.9 70.3805 36.175 68.6305 34.725C66.9305 33.225 65.8805 30.95 65.4805 27.9H65.3305C64.8305 29.35 64.5805 30.975 64.5805 32.775C64.5805 35.975 65.3305 38.875 66.8305 41.475C68.3805 44.025 70.6805 46.05 73.7305 47.55C76.8305 49.05 80.6805 49.8 85.2805 49.8C90.0805 49.8 93.9805 49.05 96.9805 47.55C99.9805 46 102.18 44.05 103.58 41.7C105.03 39.3 105.755 36.825 105.755 34.275C105.755 32.575 105.405 30.85 104.705 29.1C104.005 27.35 102.805 25.85 101.105 24.6C99.4555 23.35 97.1555 22.65 94.2055 22.5L93.8305 15.9H121.655C125.955 15.9 129.63 16.525 132.68 17.775C135.78 19.025 138.305 20.7 140.255 22.8C142.205 24.9 143.63 27.25 144.53 29.85C145.48 32.45 145.955 35.1 145.955 37.8C145.955 40.4 145.555 42.925 144.755 45.375C144.005 47.775 142.88 49.95 141.38 51.9C139.93 53.8 138.13 55.325 135.98 56.475C133.88 57.575 131.505 58.125 128.855 58.125ZM66.8305 24.9C67.2805 27.2 68.1555 28.85 69.4555 29.85C70.8055 30.85 72.3805 31.35 74.1805 31.35C75.9305 31.35 77.2805 30.95 78.2305 30.15C79.1805 29.3 79.6555 28.25 79.6555 27C79.6555 25.6 79.0805 24.375 77.9305 23.325C76.8305 22.225 75.2555 21.675 73.2055 21.675C70.5555 21.675 68.4305 22.75 66.8305 24.9ZM131.591 79.425L129.116 80.475C128.366 79.175 127.791 77.775 127.391 76.275C126.941 74.775 126.716 73.3 126.716 71.85C126.716 68.85 127.566 66.3 129.266 64.2C130.966 62.15 133.216 61.125 136.016 61.125C138.016 61.125 139.816 61.725 141.416 62.925C143.016 64.125 144.241 66.175 145.091 69.075H145.316C145.966 66.775 146.991 64.875 148.391 63.375C149.791 61.875 151.766 61.125 154.316 61.125C157.266 61.125 159.566 62.125 161.216 64.125C162.866 66.125 163.691 68.625 163.691 71.625C163.691 73.175 163.466 74.7 163.016 76.2C162.616 77.75 162.041 79.175 161.291 80.475L158.891 79.425C159.291 78.675 159.591 77.825 159.791 76.875C160.041 75.925 160.166 75 160.166 74.1C160.166 72.2 159.641 70.65 158.591 69.45C157.541 68.25 155.966 67.65 153.866 67.65C151.416 67.65 149.566 68.475 148.316 70.125C147.016 71.825 146.216 73.775 145.916 75.975H144.491C143.891 72.875 142.941 70.7 141.641 69.45C140.291 68.25 138.666 67.65 136.766 67.65C134.566 67.65 132.941 68.3 131.891 69.6C130.841 70.9 130.316 72.475 130.316 74.325C130.316 75.225 130.441 76.125 130.691 77.025C130.941 77.925 131.241 78.725 131.591 79.425ZM168.68 58.125C166.28 58.125 164.13 57.475 162.23 56.175C160.38 54.875 158.905 53.125 157.805 50.925C156.755 48.725 156.23 46.25 156.23 43.5C156.23 40.75 156.78 38.05 157.88 35.4C159.03 32.7 160.605 30.225 162.605 27.975C164.655 25.725 167.055 23.9 169.805 22.5H156.605L156.23 15.9H192.755C195.155 15.9 197.03 15.6 198.38 15C199.73 14.4 200.68 13.625 201.23 12.675C201.78 11.725 202.055 10.725 202.055 9.675C202.055 8.375 201.73 7.1 201.08 5.85C200.43 4.55 199.53 3.425 198.38 2.475L199.955 0.974997C201.705 2.225 203.105 3.775 204.155 5.625C205.205 7.425 205.73 9.5 205.73 11.85C205.73 12.95 205.555 14.125 205.205 15.375C204.855 16.575 204.205 17.725 203.255 18.825C202.305 19.875 200.93 20.75 199.13 21.45C197.38 22.1 195.08 22.45 192.23 22.5C194.88 23.9 197.23 25.725 199.28 27.975C201.33 30.175 202.93 32.675 204.08 35.475C205.23 38.225 205.805 41.075 205.805 44.025C205.805 47.075 205.205 49.65 204.005 51.75C202.805 53.85 201.28 55.45 199.43 56.55C197.58 57.6 195.63 58.125 193.58 58.125C191.98 58.125 190.33 57.75 188.63 57C186.98 56.2 185.48 54.975 184.13 53.325C182.83 51.675 181.88 49.5 181.28 46.8H180.98C180.08 50.4 178.53 53.2 176.33 55.2C174.13 57.15 171.58 58.125 168.68 58.125ZM181.73 38.7C182.13 41.75 183.28 44.375 185.18 46.575C187.13 48.725 189.63 49.8 192.68 49.8C194.68 49.8 196.33 49.35 197.63 48.45C198.98 47.55 200.005 46.375 200.705 44.925C201.405 43.475 201.755 41.95 201.755 40.35C201.755 38.15 201.155 36 199.955 33.9C198.755 31.75 197.155 29.8 195.155 28.05C193.155 26.25 190.93 24.825 188.48 23.775C186.08 22.725 183.63 22.2 181.13 22.2C178.78 22.2 176.38 22.7 173.93 23.7C171.53 24.65 169.305 25.975 167.255 27.675C165.255 29.375 163.63 31.325 162.38 33.525C161.13 35.725 160.505 38.05 160.505 40.5C160.505 43.4 161.355 45.675 163.055 47.325C164.755 48.975 166.93 49.8 169.58 49.8C172.33 49.8 174.705 48.875 176.705 47.025C178.755 45.125 180.03 42.35 180.53 38.7H181.73ZM267.216 58.125C265.566 58.125 263.841 57.675 262.041 56.775C260.241 55.825 258.541 54.325 256.941 52.275C255.391 50.175 254.091 47.375 253.041 43.875H252.666C252.016 46.625 250.841 49.075 249.141 51.225C247.491 53.375 245.466 55.075 243.066 56.325C240.666 57.525 238.041 58.125 235.191 58.125C231.741 58.125 228.616 57.3 225.816 55.65C223.016 54 220.791 51.725 219.141 48.825C217.491 45.875 216.666 42.55 216.666 38.85C216.666 35.4 217.416 32.225 218.916 29.325C220.466 26.425 222.616 24.15 225.366 22.5H215.541L215.166 15.9H241.791C244.191 15.9 246.066 15.6 247.416 15C248.766 14.4 249.716 13.625 250.266 12.675C250.816 11.725 251.091 10.725 251.091 9.675C251.091 8.375 250.766 7.1 250.116 5.85C249.466 4.55 248.566 3.425 247.416 2.475L248.991 0.974997C250.741 2.225 252.141 3.775 253.191 5.625C254.241 7.425 254.766 9.5 254.766 11.85C254.766 13.1 254.516 14.475 254.016 15.975C253.566 17.425 252.591 18.75 251.091 19.95C249.591 21.1 247.341 21.875 244.341 22.275C246.441 23.475 248.141 24.975 249.441 26.775C250.741 28.575 251.691 30.55 252.291 32.7C252.941 34.8 253.266 36.875 253.266 38.925C254.016 40.925 254.991 42.775 256.191 44.475C257.441 46.175 258.891 47.55 260.541 48.6C262.191 49.6 264.016 50.1 266.016 50.1C268.366 50.1 270.141 49.425 271.341 48.075C272.541 46.725 273.141 45.075 273.141 43.125C273.141 41.975 272.991 40.725 272.691 39.375C272.391 38.025 272.091 36.65 271.791 35.25C271.491 33.8 271.341 32.4 271.341 31.05C271.341 28.2 272.141 25.625 273.741 23.325C275.341 21.025 277.516 19.225 280.266 17.925C283.016 16.575 286.116 15.9 289.566 15.9C293.866 15.9 297.641 16.925 300.891 18.975C304.141 21.025 306.666 23.75 308.466 27.15C310.266 30.5 311.166 34.225 311.166 38.325C311.166 40.825 310.816 43.25 310.116 45.6C309.416 47.95 308.366 50.075 306.966 51.975C305.616 53.875 303.941 55.375 301.941 56.475C299.991 57.575 297.766 58.125 295.266 58.125C292.716 58.125 290.441 57.525 288.441 56.325C286.491 55.125 284.941 53.5 283.791 51.45C282.691 49.35 282.141 47 282.141 44.4C282.141 41.9 282.641 39.75 283.641 37.95C284.641 36.15 285.941 34.775 287.541 33.825C289.191 32.875 290.991 32.4 292.941 32.4C295.291 32.4 297.091 33.05 298.341 34.35C299.591 35.6 300.216 37.175 300.216 39.075C300.216 41.025 299.666 42.475 298.566 43.425C297.466 44.325 296.266 44.775 294.966 44.775C293.466 44.775 292.291 44.3 291.441 43.35C290.641 42.35 290.241 41.225 290.241 39.975C290.241 39.175 290.416 38.4 290.766 37.65C291.116 36.9 291.666 36.225 292.416 35.625C292.166 35.575 291.966 35.55 291.816 35.55C291.666 35.55 291.491 35.55 291.291 35.55C289.141 35.55 287.491 36.375 286.341 38.025C285.191 39.625 284.616 41.45 284.616 43.5C284.616 45.95 285.466 48.05 287.166 49.8C288.866 51.55 291.466 52.425 294.966 52.425C297.816 52.425 300.216 51.825 302.166 50.625C304.166 49.425 305.666 47.825 306.666 45.825C307.716 43.775 308.241 41.55 308.241 39.15C308.241 36.35 307.541 33.7 306.141 31.2C304.791 28.7 302.816 26.675 300.216 25.125C297.616 23.525 294.466 22.725 290.766 22.725C287.866 22.725 285.191 23.25 282.741 24.3C280.341 25.35 278.416 26.875 276.966 28.875C275.516 30.825 274.791 33.175 274.791 35.925C274.791 37.825 275.041 39.8 275.541 41.85C276.091 43.85 276.366 45.875 276.366 47.925C276.366 50.225 275.916 52.15 275.016 53.7C274.116 55.2 272.966 56.3 271.566 57C270.166 57.75 268.716 58.125 267.216 58.125ZM235.041 49.8C237.741 49.8 240.166 49.225 242.316 48.075C244.466 46.925 246.166 45.35 247.416 43.35C248.716 41.3 249.366 38.975 249.366 36.375C249.366 33.775 248.741 31.425 247.491 29.325C246.241 27.175 244.541 25.475 242.391 24.225C240.241 22.925 237.816 22.275 235.116 22.275C232.566 22.275 230.191 22.9 227.991 24.15C225.791 25.4 224.016 27.075 222.666 29.175C221.316 31.275 220.641 33.65 220.641 36.3C220.641 38.9 221.241 41.225 222.441 43.275C223.641 45.275 225.316 46.875 227.466 48.075C229.616 49.225 232.141 49.8 235.041 49.8ZM386.322 65.925L381.597 62.175C383.447 60.575 384.872 59.025 385.872 57.525C386.922 56.025 387.447 54.425 387.447 52.725C387.447 50.425 386.447 48.3 384.447 46.35C382.497 49.8 379.972 52.625 376.872 54.825C373.822 57.025 370.472 58.125 366.822 58.125C364.372 58.125 362.247 57.65 360.447 56.7C358.697 55.75 357.347 54.525 356.397 53.025C355.447 51.475 354.972 49.85 354.972 48.15C354.972 46.5 355.447 44.95 356.397 43.5C357.347 42.05 358.872 40.875 360.972 39.975C363.072 39.025 365.847 38.55 369.297 38.55C371.947 38.55 374.372 38.85 376.572 39.45C378.822 40.05 380.822 40.85 382.572 41.85C383.572 40.4 384.347 38.85 384.897 37.2C385.447 35.55 385.722 33.85 385.722 32.1C385.722 29.45 384.972 27.2 383.472 25.35C382.022 23.45 379.672 22.5 376.422 22.5C374.022 22.5 371.947 23.05 370.197 24.15C368.447 25.25 367.047 26.725 365.997 28.575C364.997 30.375 364.347 32.375 364.047 34.575H362.847C362.147 30.725 360.872 27.75 359.022 25.65C357.222 23.55 354.897 22.5 352.047 22.5C349.447 22.5 347.222 23.35 345.372 25.05C343.522 26.75 342.597 29.025 342.597 31.875C342.597 34.525 343.372 37.025 344.922 39.375L342.747 40.65C341.547 38.9 340.622 37 339.972 34.95C339.372 32.9 339.072 30.875 339.072 28.875C339.072 26.425 339.522 24.175 340.422 22.125C341.322 20.025 342.647 18.35 344.397 17.1C346.197 15.8 348.347 15.15 350.847 15.15C356.947 15.15 361.097 18.925 363.297 26.475H363.597C364.447 23.125 365.922 20.4 368.022 18.3C370.122 16.2 372.847 15.15 376.197 15.15C379.047 15.15 381.372 15.9 383.172 17.4C385.022 18.9 386.372 20.85 387.222 23.25C388.122 25.65 388.572 28.25 388.572 31.05C388.572 33.3 388.322 35.525 387.822 37.725C387.322 39.925 386.597 42.025 385.647 44.025C387.547 45.725 388.997 47.6 389.997 49.65C390.997 51.7 391.497 53.75 391.497 55.8C391.497 59.65 389.772 63.025 386.322 65.925ZM380.997 43.875C379.447 43.025 377.647 42.35 375.597 41.85C373.597 41.35 371.472 41.1 369.222 41.1C365.722 41.1 363.147 41.625 361.497 42.675C359.847 43.725 359.022 44.9 359.022 46.2C359.022 47.3 359.647 48.3 360.897 49.2C362.147 50.05 364.047 50.475 366.597 50.475C369.497 50.475 372.172 49.875 374.622 48.675C377.122 47.475 379.247 45.875 380.997 43.875ZM418.736 58.125C415.286 58.125 412.161 57.3 409.361 55.65C406.561 54 404.336 51.725 402.686 48.825C401.036 45.875 400.211 42.55 400.211 38.85C400.211 35.4 400.961 32.225 402.461 29.325C404.011 26.425 406.161 24.15 408.911 22.5H399.086L398.711 15.9H425.336C427.736 15.9 429.611 15.6 430.961 15C432.311 14.4 433.261 13.625 433.811 12.675C434.361 11.725 434.636 10.725 434.636 9.675C434.636 8.375 434.311 7.1 433.661 5.85C433.011 4.55 432.111 3.425 430.961 2.475L432.536 0.974997C434.286 2.225 435.686 3.775 436.736 5.625C437.786 7.425 438.311 9.5 438.311 11.85C438.311 13.1 438.061 14.475 437.561 15.975C437.111 17.425 436.136 18.75 434.636 19.95C433.186 21.1 430.936 21.875 427.886 22.275C429.986 23.475 431.686 24.975 432.986 26.775C434.286 28.575 435.236 30.525 435.836 32.625C436.486 34.725 436.811 36.825 436.811 38.925C438.161 42.525 439.986 45.25 442.286 47.1C444.586 48.9 447.186 49.8 450.086 49.8C453.186 49.8 455.461 48.8 456.911 46.8C458.361 44.75 459.086 42.35 459.086 39.6C459.086 37.45 458.636 35.25 457.736 33C456.836 30.75 455.386 28.675 453.386 26.775C451.436 24.825 448.836 23.3 445.586 22.2C445.186 21.9 444.861 21.475 444.611 20.925C444.361 20.325 444.236 19.75 444.236 19.2C444.236 18.55 444.386 18.025 444.686 17.625C445.036 17.225 445.461 17.025 445.961 17.025C446.711 17.025 447.761 17.45 449.111 18.3C450.461 19.15 451.911 20.35 453.461 21.9C455.061 23.45 456.561 25.3 457.961 27.45C459.411 29.6 460.586 32 461.486 34.65C462.386 37.3 462.836 40.125 462.836 43.125C462.836 45.675 462.436 48.1 461.636 50.4C460.836 52.65 459.611 54.5 457.961 55.95C456.311 57.4 454.161 58.125 451.511 58.125C449.411 58.125 447.361 57.525 445.361 56.325C443.361 55.075 441.586 53.375 440.036 51.225C438.486 49.075 437.336 46.625 436.586 43.875H436.211C435.561 46.625 434.386 49.075 432.686 51.225C431.036 53.375 429.011 55.075 426.611 56.325C424.211 57.525 421.586 58.125 418.736 58.125ZM418.586 49.8C421.286 49.8 423.711 49.225 425.861 48.075C428.011 46.925 429.711 45.35 430.961 43.35C432.261 41.3 432.911 38.975 432.911 36.375C432.911 33.775 432.286 31.425 431.036 29.325C429.786 27.175 428.086 25.475 425.936 24.225C423.786 22.925 421.361 22.275 418.661 22.275C416.111 22.275 413.736 22.9 411.536 24.15C409.336 25.4 407.561 27.075 406.211 29.175C404.861 31.275 404.186 33.65 404.186 36.3C404.186 38.9 404.786 41.225 405.986 43.275C407.186 45.275 408.861 46.875 411.011 48.075C413.161 49.225 415.686 49.8 418.586 49.8ZM531.328 58.125C528.428 58.125 525.778 57.125 523.378 55.125C521.028 53.075 519.428 50.05 518.578 46.05H518.278C517.378 49.7 515.703 52.625 513.253 54.825C510.853 57.025 507.953 58.125 504.553 58.125C502.303 58.125 500.353 57.675 498.703 56.775C497.103 55.825 495.778 54.6 494.728 53.1C493.678 51.55 492.903 49.875 492.403 48.075C491.903 46.275 491.653 44.525 491.653 42.825C491.653 40.525 492.078 38.4 492.928 36.45C493.778 34.45 495.003 32.85 496.603 31.65C498.203 30.4 500.103 29.775 502.303 29.775C504.603 29.775 506.578 30.45 508.228 31.8C509.878 33.15 510.703 34.925 510.703 37.125C510.703 38.625 510.278 40.075 509.428 41.475C508.578 42.825 507.428 44.05 505.978 45.15L504.478 44.025C505.528 42.875 506.053 41.65 506.053 40.35C506.053 39.15 505.578 38.125 504.628 37.275C503.678 36.375 502.428 35.925 500.878 35.925C498.928 35.925 497.353 36.625 496.153 38.025C495.003 39.425 494.428 41 494.428 42.75C494.428 43.9 494.753 45.05 495.403 46.2C496.053 47.3 497.103 48.2 498.553 48.9C500.053 49.6 501.978 49.95 504.328 49.95C508.028 49.95 511.053 48.95 513.403 46.95C515.753 44.95 517.228 41.95 517.828 37.95H519.028C519.328 40.1 519.928 42.075 520.828 43.875C521.778 45.675 523.053 47.125 524.653 48.225C526.253 49.275 528.153 49.8 530.353 49.8C533.453 49.8 535.828 48.825 537.478 46.875C539.178 44.875 540.028 42.45 540.028 39.6C540.028 37.25 539.403 34.85 538.153 32.4C536.953 29.9 535.078 27.55 532.528 25.35C529.978 23.15 526.703 21.35 522.703 19.95C518.703 18.5 513.928 17.7 508.378 17.55L508.003 10.8C514.253 11.1 519.603 12.275 524.053 14.325C528.553 16.325 532.228 18.9 535.078 22.05C537.928 25.15 540.028 28.5 541.378 32.1C542.778 35.65 543.478 39.1 543.478 42.45C543.478 45.35 543.003 48 542.053 50.4C541.103 52.75 539.703 54.625 537.853 56.025C536.053 57.425 533.878 58.125 531.328 58.125ZM570.134 58.125C567.284 58.125 564.784 57.55 562.634 56.4C560.484 55.2 558.684 53.625 557.234 51.675C555.784 49.675 554.684 47.45 553.934 45C553.234 42.55 552.884 40.025 552.884 37.425C552.884 34.975 553.209 32.6 553.859 30.3C554.559 27.95 555.584 25.85 556.934 24C558.284 22.1 559.984 20.6 562.034 19.5C564.134 18.35 566.584 17.775 569.384 17.775C572.284 17.775 574.784 18.375 576.884 19.575C579.034 20.725 580.809 22.3 582.209 24.3C583.609 26.3 584.634 28.525 585.284 30.975C585.984 33.375 586.334 35.85 586.334 38.4C586.334 41.7 585.734 44.875 584.534 47.925C583.384 50.925 581.609 53.375 579.209 55.275C576.809 57.175 573.784 58.125 570.134 58.125ZM569.534 49.875C572.234 49.875 574.634 49.375 576.734 48.375C578.834 47.375 580.484 45.975 581.684 44.175C582.884 42.325 583.484 40.15 583.484 37.65C583.484 35.15 582.884 32.975 581.684 31.125C580.484 29.275 578.834 27.825 576.734 26.775C574.684 25.725 572.359 25.2 569.759 25.2C567.209 25.2 564.859 25.725 562.709 26.775C560.609 27.775 558.909 29.225 557.609 31.125C556.359 32.975 555.734 35.175 555.734 37.725C555.734 41.325 557.009 44.25 559.559 46.5C562.109 48.75 565.434 49.875 569.534 49.875ZM648.923 22.5H626.723C627.973 23.3 628.973 24.475 629.723 26.025C630.523 27.525 630.923 29.175 630.923 30.975C630.923 31.325 630.898 31.675 630.848 32.025C632.448 33.375 633.623 34.925 634.373 36.675C635.123 38.425 635.498 40.175 635.498 41.925C635.498 44.525 634.773 47.075 633.323 49.575C631.873 52.075 629.748 54.125 626.948 55.725C624.148 57.325 620.748 58.125 616.748 58.125C613.498 58.125 610.398 57.5 607.448 56.25C604.548 54.95 602.023 52.95 599.873 50.25C597.723 47.55 596.223 44.05 595.373 39.75L597.548 39.225C598.898 42.875 601.323 45.575 604.823 47.325C608.323 49.075 612.248 49.95 616.598 49.95C620.098 49.95 622.998 49.475 625.298 48.525C627.598 47.525 629.298 46.275 630.398 44.775C631.548 43.225 632.123 41.625 632.123 39.975C632.123 38.125 631.498 36.45 630.248 34.95C629.598 36.7 628.573 38.175 627.173 39.375C625.823 40.525 624.273 41.4 622.523 42C620.823 42.55 619.098 42.825 617.348 42.825C615.448 42.825 613.648 42.5 611.948 41.85C610.248 41.2 608.873 40.3 607.823 39.15C606.823 37.95 606.323 36.6 606.323 35.1C606.323 32.8 607.448 31.05 609.698 29.85C611.998 28.6 614.898 27.975 618.398 27.975C620.348 27.975 622.123 28.175 623.723 28.575C625.373 28.925 626.823 29.45 628.073 30.15C628.073 30.05 628.073 29.975 628.073 29.925C628.073 28.025 627.348 26.35 625.898 24.9C624.498 23.45 622.623 22.625 620.273 22.425H597.698L597.323 15.9H648.548C652.848 15.9 656.523 16.525 659.573 17.775C662.673 19.025 665.198 20.7 667.148 22.8C669.098 24.9 670.523 27.25 671.423 29.85C672.373 32.45 672.848 35.1 672.848 37.8C672.848 40.4 672.448 42.925 671.648 45.375C670.898 47.775 669.773 49.95 668.273 51.9C666.823 53.8 665.023 55.325 662.873 56.475C660.773 57.575 658.398 58.125 655.748 58.125C653.048 58.125 650.673 57.55 648.623 56.4C646.623 55.2 645.048 53.575 643.898 51.525C642.748 49.425 642.173 47.05 642.173 44.4C642.173 41.75 642.698 39.525 643.748 37.725C644.848 35.875 646.273 34.5 648.023 33.6C649.773 32.65 651.623 32.175 653.573 32.175C656.023 32.175 657.898 32.825 659.198 34.125C660.548 35.375 661.223 36.975 661.223 38.925C661.223 40.775 660.673 42.175 659.573 43.125C658.473 44.075 657.273 44.55 655.973 44.55C654.473 44.55 653.298 44.075 652.448 43.125C651.648 42.125 651.248 41 651.248 39.75C651.248 38.95 651.423 38.175 651.773 37.425C652.123 36.675 652.673 36 653.423 35.4C653.173 35.35 652.973 35.325 652.823 35.325C652.673 35.325 652.498 35.325 652.298 35.325C649.898 35.325 648.023 36.1 646.673 37.65C645.323 39.2 644.648 41.1 644.648 43.35C644.648 44.65 644.948 46 645.548 47.4C646.148 48.8 647.223 50 648.773 51C650.373 51.95 652.598 52.425 655.448 52.425C658.648 52.425 661.323 51.8 663.473 50.55C665.623 49.25 667.223 47.575 668.273 45.525C669.373 43.475 669.923 41.25 669.923 38.85C669.923 36.1 669.198 33.5 667.748 31.05C666.298 28.55 664.023 26.5 660.923 24.9C657.823 23.3 653.823 22.5 648.923 22.5ZM627.473 32.7C624.973 31.2 621.973 30.45 618.473 30.45C615.373 30.45 613.073 30.9 611.573 31.8C610.073 32.7 609.323 33.6 609.323 34.5C609.323 35.45 610.073 36.225 611.573 36.825C613.123 37.425 614.898 37.725 616.898 37.725C619.398 37.725 621.598 37.3 623.498 36.45C625.398 35.55 626.723 34.3 627.473 32.7ZM695.585 58.125C693.185 58.125 691.035 57.475 689.135 56.175C687.285 54.875 685.81 53.125 684.71 50.925C683.66 48.725 683.135 46.25 683.135 43.5C683.135 40.75 683.685 38.05 684.785 35.4C685.935 32.7 687.51 30.225 689.51 27.975C691.56 25.725 693.96 23.9 696.71 22.5H683.51L683.135 15.9H719.66C722.06 15.9 723.935 15.6 725.285 15C726.635 14.4 727.585 13.625 728.135 12.675C728.685 11.725 728.96 10.725 728.96 9.675C728.96 8.375 728.635 7.1 727.985 5.85C727.335 4.55 726.435 3.425 725.285 2.475L726.86 0.974997C728.61 2.225 730.01 3.775 731.06 5.625C732.11 7.425 732.635 9.5 732.635 11.85C732.635 12.95 732.46 14.125 732.11 15.375C731.76 16.575 731.11 17.725 730.16 18.825C729.21 19.875 727.835 20.75 726.035 21.45C724.285 22.1 721.985 22.45 719.135 22.5C721.785 23.9 724.135 25.725 726.185 27.975C728.235 30.175 729.835 32.675 730.985 35.475C732.135 38.225 732.71 41.075 732.71 44.025C732.71 47.075 732.11 49.65 730.91 51.75C729.71 53.85 728.185 55.45 726.335 56.55C724.485 57.6 722.535 58.125 720.485 58.125C718.885 58.125 717.235 57.75 715.535 57C713.885 56.2 712.385 54.975 711.035 53.325C709.735 51.675 708.785 49.5 708.185 46.8H707.885C706.985 50.4 705.435 53.2 703.235 55.2C701.035 57.15 698.485 58.125 695.585 58.125ZM708.635 38.7C709.035 41.75 710.185 44.375 712.085 46.575C714.035 48.725 716.535 49.8 719.585 49.8C721.585 49.8 723.235 49.35 724.535 48.45C725.885 47.55 726.91 46.375 727.61 44.925C728.31 43.475 728.66 41.95 728.66 40.35C728.66 38.15 728.06 36 726.86 33.9C725.66 31.75 724.06 29.8 722.06 28.05C720.06 26.25 717.835 24.825 715.385 23.775C712.985 22.725 710.535 22.2 708.035 22.2C705.685 22.2 703.285 22.7 700.835 23.7C698.435 24.65 696.21 25.975 694.16 27.675C692.16 29.375 690.535 31.325 689.285 33.525C688.035 35.725 687.41 38.05 687.41 40.5C687.41 43.4 688.26 45.675 689.96 47.325C691.66 48.975 693.835 49.8 696.485 49.8C699.235 49.8 701.61 48.875 703.61 47.025C705.66 45.125 706.935 42.35 707.435 38.7H708.635ZM762.095 58.125C758.645 58.125 755.52 57.3 752.72 55.65C749.92 54 747.695 51.725 746.045 48.825C744.395 45.875 743.57 42.55 743.57 38.85C743.57 35.4 744.32 32.225 745.82 29.325C747.37 26.425 749.52 24.15 752.27 22.5H742.445L742.07 15.9H768.695C771.095 15.9 772.97 15.6 774.32 15C775.67 14.4 776.62 13.625 777.17 12.675C777.72 11.725 777.995 10.725 777.995 9.675C777.995 8.375 777.67 7.1 777.02 5.85C776.37 4.55 775.47 3.425 774.32 2.475L775.895 0.974997C777.645 2.225 779.045 3.775 780.095 5.625C781.145 7.425 781.67 9.5 781.67 11.85C781.67 13.1 781.42 14.475 780.92 15.975C780.47 17.425 779.495 18.75 777.995 19.95C776.545 21.1 774.295 21.875 771.245 22.275C773.345 23.475 775.045 24.975 776.345 26.775C777.645 28.575 778.595 30.525 779.195 32.625C779.845 34.725 780.17 36.825 780.17 38.925C781.52 42.525 783.345 45.25 785.645 47.1C787.945 48.9 790.545 49.8 793.445 49.8C796.545 49.8 798.82 48.8 800.27 46.8C801.72 44.75 802.445 42.35 802.445 39.6C802.445 37.45 801.995 35.25 801.095 33C800.195 30.75 798.745 28.675 796.745 26.775C794.795 24.825 792.195 23.3 788.945 22.2C788.545 21.9 788.22 21.475 787.97 20.925C787.72 20.325 787.595 19.75 787.595 19.2C787.595 18.55 787.745 18.025 788.045 17.625C788.395 17.225 788.82 17.025 789.32 17.025C790.07 17.025 791.12 17.45 792.47 18.3C793.82 19.15 795.27 20.35 796.82 21.9C798.42 23.45 799.92 25.3 801.32 27.45C802.77 29.6 803.945 32 804.845 34.65C805.745 37.3 806.195 40.125 806.195 43.125C806.195 45.675 805.795 48.1 804.995 50.4C804.195 52.65 802.97 54.5 801.32 55.95C799.67 57.4 797.52 58.125 794.87 58.125C792.77 58.125 790.72 57.525 788.72 56.325C786.72 55.075 784.945 53.375 783.395 51.225C781.845 49.075 780.695 46.625 779.945 43.875H779.57C778.92 46.625 777.745 49.075 776.045 51.225C774.395 53.375 772.37 55.075 769.97 56.325C767.57 57.525 764.945 58.125 762.095 58.125ZM761.945 49.8C764.645 49.8 767.07 49.225 769.22 48.075C771.37 46.925 773.07 45.35 774.32 43.35C775.62 41.3 776.27 38.975 776.27 36.375C776.27 33.775 775.645 31.425 774.395 29.325C773.145 27.175 771.445 25.475 769.295 24.225C767.145 22.925 764.72 22.275 762.02 22.275C759.47 22.275 757.095 22.9 754.895 24.15C752.695 25.4 750.92 27.075 749.57 29.175C748.22 31.275 747.545 33.65 747.545 36.3C747.545 38.9 748.145 41.225 749.345 43.275C750.545 45.275 752.22 46.875 754.37 48.075C756.52 49.225 759.045 49.8 761.945 49.8ZM881.513 65.925L876.788 62.175C878.638 60.575 880.063 59.025 881.063 57.525C882.113 56.025 882.638 54.425 882.638 52.725C882.638 50.425 881.638 48.3 879.638 46.35C877.688 49.8 875.163 52.625 872.063 54.825C869.013 57.025 865.663 58.125 862.013 58.125C859.563 58.125 857.438 57.65 855.638 56.7C853.888 55.75 852.538 54.525 851.588 53.025C850.638 51.475 850.163 49.85 850.163 48.15C850.163 46.5 850.638 44.95 851.588 43.5C852.538 42.05 854.063 40.875 856.163 39.975C858.263 39.025 861.038 38.55 864.488 38.55C867.138 38.55 869.563 38.85 871.763 39.45C874.013 40.05 876.013 40.85 877.763 41.85C878.763 40.4 879.538 38.85 880.088 37.2C880.638 35.55 880.913 33.85 880.913 32.1C880.913 29.45 880.163 27.2 878.663 25.35C877.213 23.45 874.863 22.5 871.613 22.5C869.213 22.5 867.138 23.05 865.388 24.15C863.638 25.25 862.238 26.725 861.188 28.575C860.188 30.375 859.538 32.375 859.238 34.575H858.038C857.338 30.725 856.063 27.75 854.213 25.65C852.413 23.55 850.088 22.5 847.238 22.5C844.638 22.5 842.413 23.35 840.563 25.05C838.713 26.75 837.788 29.025 837.788 31.875C837.788 34.525 838.563 37.025 840.113 39.375L837.938 40.65C836.738 38.9 835.813 37 835.163 34.95C834.563 32.9 834.263 30.875 834.263 28.875C834.263 26.425 834.713 24.175 835.613 22.125C836.513 20.025 837.838 18.35 839.588 17.1C841.388 15.8 843.538 15.15 846.038 15.15C852.138 15.15 856.288 18.925 858.488 26.475H858.788C859.638 23.125 861.113 20.4 863.213 18.3C865.313 16.2 868.038 15.15 871.388 15.15C874.238 15.15 876.563 15.9 878.363 17.4C880.213 18.9 881.563 20.85 882.413 23.25C883.313 25.65 883.763 28.25 883.763 31.05C883.763 33.3 883.513 35.525 883.013 37.725C882.513 39.925 881.788 42.025 880.838 44.025C882.738 45.725 884.188 47.6 885.188 49.65C886.188 51.7 886.688 53.75 886.688 55.8C886.688 59.65 884.963 63.025 881.513 65.925ZM876.188 43.875C874.638 43.025 872.838 42.35 870.788 41.85C868.788 41.35 866.663 41.1 864.413 41.1C860.913 41.1 858.338 41.625 856.688 42.675C855.038 43.725 854.213 44.9 854.213 46.2C854.213 47.3 854.838 48.3 856.088 49.2C857.338 50.05 859.238 50.475 861.788 50.475C864.688 50.475 867.363 49.875 869.813 48.675C872.313 47.475 874.438 45.875 876.188 43.875ZM913.926 58.125C910.476 58.125 907.351 57.3 904.551 55.65C901.751 54 899.526 51.725 897.876 48.825C896.226 45.875 895.401 42.55 895.401 38.85C895.401 35.4 896.151 32.225 897.651 29.325C899.201 26.425 901.351 24.15 904.101 22.5H894.276L893.901 15.9H920.526C922.926 15.9 924.801 15.6 926.151 15C927.501 14.4 928.451 13.625 929.001 12.675C929.551 11.725 929.826 10.725 929.826 9.675C929.826 8.375 929.501 7.1 928.851 5.85C928.201 4.55 927.301 3.425 926.151 2.475L927.726 0.974997C929.476 2.225 930.876 3.775 931.926 5.625C932.976 7.425 933.501 9.5 933.501 11.85C933.501 13.1 933.251 14.475 932.751 15.975C932.301 17.425 931.326 18.75 929.826 19.95C928.376 21.1 926.126 21.875 923.076 22.275C925.176 23.475 926.876 24.975 928.176 26.775C929.476 28.575 930.426 30.525 931.026 32.625C931.676 34.725 932.001 36.825 932.001 38.925C933.351 42.525 935.176 45.25 937.476 47.1C939.776 48.9 942.376 49.8 945.276 49.8C948.376 49.8 950.651 48.8 952.101 46.8C953.551 44.75 954.276 42.35 954.276 39.6C954.276 37.45 953.826 35.25 952.926 33C952.026 30.75 950.576 28.675 948.576 26.775C946.626 24.825 944.026 23.3 940.776 22.2C940.376 21.9 940.051 21.475 939.801 20.925C939.551 20.325 939.426 19.75 939.426 19.2C939.426 18.55 939.576 18.025 939.876 17.625C940.226 17.225 940.651 17.025 941.151 17.025C941.901 17.025 942.951 17.45 944.301 18.3C945.651 19.15 947.101 20.35 948.651 21.9C950.251 23.45 951.751 25.3 953.151 27.45C954.601 29.6 955.776 32 956.676 34.65C957.576 37.3 958.026 40.125 958.026 43.125C958.026 45.675 957.626 48.1 956.826 50.4C956.026 52.65 954.801 54.5 953.151 55.95C951.501 57.4 949.351 58.125 946.701 58.125C944.601 58.125 942.551 57.525 940.551 56.325C938.551 55.075 936.776 53.375 935.226 51.225C933.676 49.075 932.526 46.625 931.776 43.875H931.401C930.751 46.625 929.576 49.075 927.876 51.225C926.226 53.375 924.201 55.075 921.801 56.325C919.401 57.525 916.776 58.125 913.926 58.125ZM913.776 49.8C916.476 49.8 918.901 49.225 921.051 48.075C923.201 46.925 924.901 45.35 926.151 43.35C927.451 41.3 928.101 38.975 928.101 36.375C928.101 33.775 927.476 31.425 926.226 29.325C924.976 27.175 923.276 25.475 921.126 24.225C918.976 22.925 916.551 22.275 913.851 22.275C911.301 22.275 908.926 22.9 906.726 24.15C904.526 25.4 902.751 27.075 901.401 29.175C900.051 31.275 899.376 33.65 899.376 36.3C899.376 38.9 899.976 41.225 901.176 43.275C902.376 45.275 904.051 46.875 906.201 48.075C908.351 49.225 910.876 49.8 913.776 49.8ZM1026.52 58.125C1023.62 58.125 1020.97 57.125 1018.57 55.125C1016.22 53.075 1014.62 50.05 1013.77 46.05H1013.47C1012.57 49.7 1010.89 52.625 1008.44 54.825C1006.04 57.025 1003.14 58.125 999.744 58.125C997.494 58.125 995.544 57.675 993.894 56.775C992.294 55.825 990.969 54.6 989.919 53.1C988.869 51.55 988.094 49.875 987.594 48.075C987.094 46.275 986.844 44.525 986.844 42.825C986.844 40.525 987.269 38.4 988.119 36.45C988.969 34.45 990.194 32.85 991.794 31.65C993.394 30.4 995.294 29.775 997.494 29.775C999.794 29.775 1001.77 30.45 1003.42 31.8C1005.07 33.15 1005.89 34.925 1005.89 37.125C1005.89 38.625 1005.47 40.075 1004.62 41.475C1003.77 42.825 1002.62 44.05 1001.17 45.15L999.669 44.025C1000.72 42.875 1001.24 41.65 1001.24 40.35C1001.24 39.15 1000.77 38.125 999.819 37.275C998.869 36.375 997.619 35.925 996.069 35.925C994.119 35.925 992.544 36.625 991.344 38.025C990.194 39.425 989.619 41 989.619 42.75C989.619 43.9 989.944 45.05 990.594 46.2C991.244 47.3 992.294 48.2 993.744 48.9C995.244 49.6 997.169 49.95 999.519 49.95C1003.22 49.95 1006.24 48.95 1008.59 46.95C1010.94 44.95 1012.42 41.95 1013.02 37.95H1014.22C1014.52 40.1 1015.12 42.075 1016.02 43.875C1016.97 45.675 1018.24 47.125 1019.84 48.225C1021.44 49.275 1023.34 49.8 1025.54 49.8C1028.64 49.8 1031.02 48.825 1032.67 46.875C1034.37 44.875 1035.22 42.45 1035.22 39.6C1035.22 37.25 1034.59 34.85 1033.34 32.4C1032.14 29.9 1030.27 27.55 1027.72 25.35C1025.17 23.15 1021.89 21.35 1017.89 19.95C1013.89 18.5 1009.12 17.7 1003.57 17.55L1003.19 10.8C1009.44 11.1 1014.79 12.275 1019.24 14.325C1023.74 16.325 1027.42 18.9 1030.27 22.05C1033.12 25.15 1035.22 28.5 1036.57 32.1C1037.97 35.65 1038.67 39.1 1038.67 42.45C1038.67 45.35 1038.19 48 1037.24 50.4C1036.29 52.75 1034.89 54.625 1033.04 56.025C1031.24 57.425 1029.07 58.125 1026.52 58.125ZM1065.32 58.125C1062.47 58.125 1059.97 57.55 1057.82 56.4C1055.67 55.2 1053.87 53.625 1052.42 51.675C1050.97 49.675 1049.87 47.45 1049.12 45C1048.42 42.55 1048.07 40.025 1048.07 37.425C1048.07 34.975 1048.4 32.6 1049.05 30.3C1049.75 27.95 1050.77 25.85 1052.12 24C1053.47 22.1 1055.17 20.6 1057.22 19.5C1059.32 18.35 1061.77 17.775 1064.57 17.775C1067.47 17.775 1069.97 18.375 1072.07 19.575C1074.22 20.725 1076 22.3 1077.4 24.3C1078.8 26.3 1079.82 28.525 1080.47 30.975C1081.17 33.375 1081.52 35.85 1081.52 38.4C1081.52 41.7 1080.92 44.875 1079.72 47.925C1078.57 50.925 1076.8 53.375 1074.4 55.275C1072 57.175 1068.97 58.125 1065.32 58.125ZM1064.72 49.875C1067.42 49.875 1069.82 49.375 1071.92 48.375C1074.02 47.375 1075.67 45.975 1076.87 44.175C1078.07 42.325 1078.67 40.15 1078.67 37.65C1078.67 35.15 1078.07 32.975 1076.87 31.125C1075.67 29.275 1074.02 27.825 1071.92 26.775C1069.87 25.725 1067.55 25.2 1064.95 25.2C1062.4 25.2 1060.05 25.725 1057.9 26.775C1055.8 27.775 1054.1 29.225 1052.8 31.125C1051.55 32.975 1050.92 35.175 1050.92 37.725C1050.92 41.325 1052.2 44.25 1054.75 46.5C1057.3 48.75 1060.62 49.875 1064.72 49.875ZM1104.13 58.125C1101.73 58.125 1099.58 57.475 1097.68 56.175C1095.83 54.875 1094.35 53.125 1093.25 50.925C1092.2 48.725 1091.68 46.25 1091.68 43.5C1091.68 40.75 1092.23 38.05 1093.33 35.4C1094.48 32.7 1096.05 30.225 1098.05 27.975C1100.1 25.725 1102.5 23.9 1105.25 22.5H1092.05L1091.68 15.9H1128.28C1131.83 15.9 1134.28 15.275 1135.63 14.025C1136.98 12.725 1137.65 11.175 1137.65 9.375C1137.65 7.325 1136.98 5.675 1135.63 4.425C1134.33 3.175 1132.8 2.55 1131.05 2.55C1130.35 2.55 1129.58 2.675 1128.73 2.925C1129.83 3.275 1130.6 3.825 1131.05 4.575C1131.5 5.275 1131.73 6.025 1131.73 6.825C1131.73 8.075 1131.3 9.075 1130.45 9.825C1129.6 10.575 1128.63 10.95 1127.53 10.95C1126.43 10.95 1125.4 10.55 1124.45 9.75C1123.55 8.95 1123.1 7.85 1123.1 6.45C1123.1 4.55 1123.9 3.075 1125.5 2.025C1127.1 0.924996 1128.93 0.374996 1130.98 0.374996C1133.03 0.374996 1134.8 0.899997 1136.3 1.95C1137.85 2.95 1139.05 4.325 1139.9 6.075C1140.8 7.775 1141.25 9.725 1141.25 11.925C1141.25 15.425 1140.08 18.05 1137.73 19.8C1135.38 21.5 1132.03 22.4 1127.68 22.5C1130.33 23.9 1132.68 25.725 1134.73 27.975C1136.78 30.175 1138.38 32.675 1139.53 35.475C1140.68 38.225 1141.25 41.075 1141.25 44.025C1141.25 47.075 1140.65 49.65 1139.45 51.75C1138.25 53.85 1136.73 55.45 1134.88 56.55C1133.03 57.6 1131.08 58.125 1129.03 58.125C1127.43 58.125 1125.78 57.75 1124.08 57C1122.43 56.2 1120.93 54.975 1119.58 53.325C1118.28 51.675 1117.33 49.5 1116.73 46.8H1116.43C1115.53 50.4 1113.98 53.2 1111.78 55.2C1109.58 57.15 1107.03 58.125 1104.13 58.125ZM1117.18 38.7C1117.58 41.75 1118.73 44.375 1120.63 46.575C1122.58 48.725 1125.08 49.8 1128.13 49.8C1130.13 49.8 1131.78 49.35 1133.08 48.45C1134.43 47.55 1135.45 46.375 1136.15 44.925C1136.85 43.475 1137.2 41.95 1137.2 40.35C1137.2 38.15 1136.6 36 1135.4 33.9C1134.2 31.75 1132.6 29.8 1130.6 28.05C1128.6 26.25 1126.38 24.825 1123.93 23.775C1121.53 22.725 1119.08 22.2 1116.58 22.2C1114.23 22.2 1111.83 22.7 1109.38 23.7C1106.98 24.65 1104.75 25.975 1102.7 27.675C1100.7 29.375 1099.08 31.325 1097.83 33.525C1096.58 35.725 1095.95 38.05 1095.95 40.5C1095.95 43.4 1096.8 45.675 1098.5 47.325C1100.2 48.975 1102.38 49.8 1105.03 49.8C1107.78 49.8 1110.15 48.875 1112.15 47.025C1114.2 45.125 1115.48 42.35 1115.98 38.7H1117.18ZM1167.79 58.125C1164.94 58.125 1162.44 57.55 1160.29 56.4C1158.14 55.2 1156.34 53.625 1154.89 51.675C1153.44 49.675 1152.34 47.45 1151.59 45C1150.89 42.55 1150.54 40.025 1150.54 37.425C1150.54 34.975 1150.87 32.6 1151.52 30.3C1152.22 27.95 1153.24 25.85 1154.59 24C1155.94 22.1 1157.64 20.6 1159.69 19.5C1161.79 18.35 1164.24 17.775 1167.04 17.775C1169.94 17.775 1172.44 18.375 1174.54 19.575C1176.69 20.725 1178.47 22.3 1179.87 24.3C1181.27 26.3 1182.29 28.525 1182.94 30.975C1183.64 33.375 1183.99 35.85 1183.99 38.4C1183.99 41.7 1183.39 44.875 1182.19 47.925C1181.04 50.925 1179.27 53.375 1176.87 55.275C1174.47 57.175 1171.44 58.125 1167.79 58.125ZM1167.19 49.875C1169.89 49.875 1172.29 49.375 1174.39 48.375C1176.49 47.375 1178.14 45.975 1179.34 44.175C1180.54 42.325 1181.14 40.15 1181.14 37.65C1181.14 35.15 1180.54 32.975 1179.34 31.125C1178.14 29.275 1176.49 27.825 1174.39 26.775C1172.34 25.725 1170.02 25.2 1167.42 25.2C1164.87 25.2 1162.52 25.725 1160.37 26.775C1158.27 27.775 1156.57 29.225 1155.27 31.125C1154.02 32.975 1153.39 35.175 1153.39 37.725C1153.39 41.325 1154.67 44.25 1157.22 46.5C1159.77 48.75 1163.09 49.875 1167.19 49.875ZM1206.6 58.125C1204.2 58.125 1202.05 57.475 1200.15 56.175C1198.3 54.875 1196.82 53.125 1195.72 50.925C1194.67 48.725 1194.15 46.25 1194.15 43.5C1194.15 39.7 1195.15 36.125 1197.15 32.775C1199.15 29.375 1201.72 26.575 1204.87 24.375L1204.72 24.075C1203.97 24.225 1203.3 24.3 1202.7 24.3C1200.75 24.3 1199.17 23.725 1197.97 22.575C1196.77 21.375 1196.17 19.9 1196.17 18.15C1196.17 16.5 1196.75 14.925 1197.9 13.425C1199.05 11.875 1200.75 10.625 1203 9.675C1205.3 8.675 1208.15 8.175 1211.55 8.175C1215.85 8.175 1219.62 8.975 1222.87 10.575C1226.17 12.125 1229.02 14.175 1231.42 16.725C1233.82 19.275 1235.85 22 1237.5 24.9C1239.35 28.25 1240.85 31.575 1242 34.875C1243.15 38.175 1243.72 41.2 1243.72 43.95C1243.72 44 1243.72 44.025 1243.72 44.025C1243.72 47.075 1243.12 49.65 1241.92 51.75C1240.72 53.85 1239.2 55.45 1237.35 56.55C1235.5 57.6 1233.55 58.125 1231.5 58.125C1229.9 58.125 1228.25 57.75 1226.55 57C1224.9 56.2 1223.4 54.975 1222.05 53.325C1220.75 51.675 1219.8 49.5 1219.2 46.8H1218.9C1218 50.4 1216.45 53.2 1214.25 55.2C1212.05 57.15 1209.5 58.125 1206.6 58.125ZM1219.65 38.7C1220.05 41.75 1221.2 44.375 1223.1 46.575C1225.05 48.725 1227.55 49.8 1230.6 49.8C1232.6 49.8 1234.25 49.35 1235.55 48.45C1236.9 47.5 1237.92 46.3 1238.62 44.85C1239.32 43.35 1239.67 41.775 1239.67 40.125C1239.67 38.025 1239.07 35.925 1237.87 33.825C1236.67 31.725 1235.07 29.8 1233.07 28.05C1231.07 26.25 1228.85 24.825 1226.4 23.775C1223.95 22.725 1221.47 22.2 1218.97 22.2C1216.62 22.2 1214.25 22.7 1211.85 23.7C1209.45 24.65 1207.22 25.975 1205.17 27.675C1203.17 29.375 1201.55 31.325 1200.3 33.525C1199.05 35.725 1198.42 38.025 1198.42 40.425C1198.42 43.325 1199.27 45.625 1200.97 47.325C1202.67 48.975 1204.85 49.8 1207.5 49.8C1210.25 49.8 1212.62 48.875 1214.62 47.025C1216.67 45.125 1217.95 42.35 1218.45 38.7H1219.65ZM1234.2 25.425L1234.5 25.2C1231.7 21.05 1228.7 17.775 1225.5 15.375C1222.3 12.925 1218.47 11.7 1214.02 11.7C1210.87 11.7 1208.3 12.275 1206.3 13.425C1204.35 14.575 1203.37 16.025 1203.37 17.775C1203.37 18.625 1203.67 19.45 1204.27 20.25C1204.92 21.05 1206.07 21.45 1207.72 21.45C1208.82 21.45 1209.87 21.3 1210.87 21C1211.87 20.7 1213 20.4 1214.25 20.1C1215.5 19.8 1217.02 19.65 1218.82 19.65C1221.72 19.65 1224.47 20.175 1227.07 21.225C1229.72 22.275 1232.1 23.675 1234.2 25.425ZM1306.18 58.125C1304.83 58.125 1303.38 57.75 1301.83 57C1300.33 56.3 1298.88 55.1 1297.48 53.4C1296.08 51.7 1294.8 49.35 1293.65 46.35H1293.28C1293.53 47.95 1293.73 49.65 1293.88 51.45C1294.08 53.2 1294.2 55.05 1294.25 57H1286.53C1286.43 52.25 1286.15 47.8 1285.7 43.65C1285.25 39.45 1284.55 35.75 1283.6 32.55C1282.7 29.3 1281.48 26.775 1279.93 24.975C1278.43 23.125 1276.55 22.2 1274.3 22.2C1272.05 22.2 1270.15 23.125 1268.6 24.975C1267.1 26.775 1265.88 29.3 1264.93 32.55C1264.03 35.75 1263.35 39.45 1262.9 43.65C1262.45 47.8 1262.18 52.25 1262.08 57H1254.2C1254.3 52.2 1254.85 47.525 1255.85 42.975C1256.85 38.375 1258.25 34.3 1260.05 30.75C1261.9 27.15 1264.15 24.4 1266.8 22.5H1254.88L1254.5 15.9H1280.38C1282.78 15.9 1284.65 15.6 1286 15C1287.35 14.4 1288.3 13.625 1288.85 12.675C1289.4 11.725 1289.68 10.725 1289.68 9.675C1289.68 8.375 1289.35 7.1 1288.7 5.85C1288.05 4.55 1287.15 3.425 1286 2.475L1287.58 0.974997C1289.33 2.225 1290.73 3.775 1291.78 5.625C1292.83 7.425 1293.35 9.5 1293.35 11.85C1293.35 12.85 1293.2 13.925 1292.9 15.075C1292.65 16.225 1292.1 17.325 1291.25 18.375C1290.45 19.425 1289.25 20.325 1287.65 21.075C1286.1 21.825 1284.03 22.275 1281.43 22.425C1283.23 23.725 1284.95 25.55 1286.6 27.9C1288.25 30.2 1289.68 33.125 1290.88 36.675C1291.78 38.725 1292.9 40.8 1294.25 42.9C1295.65 44.95 1297.25 46.675 1299.05 48.075C1300.9 49.425 1302.93 50.1 1305.13 50.1C1307.33 50.1 1309.03 49.425 1310.23 48.075C1311.43 46.725 1312.03 45.05 1312.03 43.05C1312.03 41.95 1311.88 40.725 1311.58 39.375C1311.28 38.025 1310.98 36.65 1310.68 35.25C1310.38 33.8 1310.23 32.4 1310.23 31.05C1310.23 28.2 1311 25.625 1312.55 23.325C1314.15 21.025 1316.33 19.225 1319.08 17.925C1321.83 16.575 1324.93 15.9 1328.38 15.9C1332.73 15.9 1336.53 16.925 1339.78 18.975C1343.03 21.025 1345.55 23.75 1347.35 27.15C1349.15 30.5 1350.05 34.225 1350.05 38.325C1350.05 40.825 1349.7 43.25 1349 45.6C1348.3 47.95 1347.25 50.075 1345.85 51.975C1344.5 53.875 1342.83 55.375 1340.83 56.475C1338.88 57.575 1336.65 58.125 1334.15 58.125C1331.6 58.125 1329.33 57.525 1327.33 56.325C1325.38 55.125 1323.83 53.5 1322.68 51.45C1321.58 49.35 1321.03 47 1321.03 44.4C1321.03 41.9 1321.53 39.75 1322.53 37.95C1323.53 36.15 1324.83 34.775 1326.43 33.825C1328.08 32.875 1329.88 32.4 1331.83 32.4C1334.18 32.4 1335.98 33.05 1337.23 34.35C1338.48 35.6 1339.1 37.175 1339.1 39.075C1339.1 41.025 1338.55 42.475 1337.45 43.425C1336.35 44.325 1335.15 44.775 1333.85 44.775C1332.35 44.775 1331.18 44.3 1330.33 43.35C1329.53 42.35 1329.13 41.225 1329.13 39.975C1329.13 39.175 1329.3 38.4 1329.65 37.65C1330 36.9 1330.55 36.225 1331.3 35.625C1331.05 35.575 1330.85 35.55 1330.7 35.55C1330.55 35.55 1330.38 35.55 1330.18 35.55C1328.03 35.55 1326.38 36.375 1325.23 38.025C1324.08 39.625 1323.5 41.45 1323.5 43.5C1323.5 45.95 1324.35 48.05 1326.05 49.8C1327.75 51.55 1330.35 52.425 1333.85 52.425C1336.7 52.425 1339.1 51.825 1341.05 50.625C1343.05 49.425 1344.55 47.825 1345.55 45.825C1346.6 43.775 1347.13 41.55 1347.13 39.15C1347.13 36.35 1346.43 33.7 1345.03 31.2C1343.68 28.7 1341.7 26.675 1339.1 25.125C1336.5 23.525 1333.35 22.725 1329.65 22.725C1326.75 22.725 1324.08 23.25 1321.63 24.3C1319.23 25.35 1317.3 26.875 1315.85 28.875C1314.4 30.825 1313.68 33.175 1313.68 35.925C1313.68 37.825 1313.93 39.8 1314.43 41.85C1314.98 43.85 1315.25 45.875 1315.25 47.925C1315.25 50.225 1314.8 52.15 1313.9 53.7C1313.05 55.2 1311.93 56.3 1310.53 57C1309.13 57.75 1307.68 58.125 1306.18 58.125ZM1389.94 64.575L1387.84 66.675C1384.64 63.725 1382.24 60.625 1380.64 57.375C1379.09 54.175 1378.31 51 1378.31 47.85C1378.31 45.5 1378.71 43.35 1379.51 41.4C1380.36 39.45 1381.54 37.9 1383.04 36.75C1384.54 35.55 1386.31 34.95 1388.36 34.95C1390.36 34.95 1392.04 35.45 1393.39 36.45C1394.74 37.45 1395.94 38.7 1396.99 40.2C1398.04 41.65 1399.09 43.125 1400.14 44.625C1401.19 46.075 1402.39 47.3 1403.74 48.3C1405.09 49.3 1406.74 49.8 1408.69 49.8C1410.19 49.8 1411.54 49.425 1412.74 48.675C1413.99 47.925 1414.99 46.675 1415.74 44.925C1416.49 43.175 1416.86 40.825 1416.86 37.875C1416.86 34.275 1416.24 30.575 1414.99 26.775C1413.74 22.925 1411.79 19.325 1409.14 15.975C1406.49 12.575 1403.11 9.775 1399.01 7.575L1398.79 7.8C1399.19 8.75 1399.49 9.675 1399.69 10.575C1399.89 11.475 1399.99 12.375 1399.99 13.275C1399.99 15.425 1399.39 17.25 1398.19 18.75C1397.04 20.2 1395.36 20.925 1393.16 20.925C1391.16 20.925 1389.46 20.35 1388.06 19.2C1386.66 18 1385.61 16.525 1384.91 14.775C1384.21 13.025 1383.86 11.35 1383.86 9.75C1383.86 8.25 1384.16 6.8 1384.76 5.4C1385.36 3.95 1386.29 2.75 1387.54 1.8C1388.84 0.849996 1390.49 0.374996 1392.49 0.374996C1394.94 0.374996 1397.46 1.15 1400.06 2.7C1402.71 4.2 1405.26 6.3 1407.71 9C1410.16 11.65 1412.36 14.725 1414.31 18.225C1416.31 21.675 1417.89 25.4 1419.04 29.4C1420.19 33.4 1420.76 37.45 1420.76 41.55C1420.76 45.4 1420.26 48.55 1419.26 51C1418.26 53.45 1416.94 55.25 1415.29 56.4C1413.69 57.55 1411.99 58.125 1410.19 58.125C1408.29 58.125 1406.69 57.6 1405.39 56.55C1404.14 55.5 1403.01 54.2 1402.01 52.65C1401.01 51.1 1399.99 49.575 1398.94 48.075C1397.89 46.525 1396.66 45.225 1395.26 44.175C1393.86 43.125 1392.11 42.6 1390.01 42.6C1387.66 42.6 1385.86 43.325 1384.61 44.775C1383.36 46.175 1382.74 48.05 1382.74 50.4C1382.74 52.75 1383.36 55.175 1384.61 57.675C1385.91 60.225 1387.69 62.525 1389.94 64.575ZM1396.09 6.675C1394.99 6.125 1393.81 5.85 1392.56 5.85C1390.86 5.85 1389.41 6.3 1388.21 7.2C1387.06 8.1 1386.49 9.35 1386.49 10.95C1386.49 12.4 1387.01 13.6 1388.06 14.55C1389.16 15.45 1390.49 15.9 1392.04 15.9C1393.59 15.9 1394.86 15.45 1395.86 14.55C1396.91 13.6 1397.44 12.325 1397.44 10.725C1397.44 10.425 1397.36 9.875 1397.21 9.075C1397.11 8.275 1396.74 7.475 1396.09 6.675ZM1448.96 65.475C1448.71 65.475 1448.26 65.3 1447.61 64.95C1446.96 64.6 1446.38 64.275 1445.88 63.975C1442.73 62.025 1439.81 59.525 1437.11 56.475C1434.46 53.425 1432.31 49.925 1430.66 45.975C1429.06 41.975 1428.26 37.65 1428.26 33C1428.26 28.85 1428.86 25.475 1430.06 22.875C1431.31 20.225 1432.88 18.275 1434.78 17.025C1436.68 15.775 1438.63 15.15 1440.63 15.15C1442.68 15.15 1444.41 15.725 1445.81 16.875C1447.21 17.975 1448.26 19.425 1448.96 21.225C1449.71 23.025 1450.08 24.95 1450.08 27C1450.08 30.2 1449.28 32.775 1447.68 34.725C1446.13 36.675 1444.28 37.65 1442.13 37.65C1440.23 37.65 1438.33 36.8 1436.43 35.1C1434.58 33.35 1433.38 30.675 1432.83 27.075L1432.38 27C1431.53 28.9 1431.11 31.125 1431.11 33.675C1431.11 37.375 1431.88 40.825 1433.43 44.025C1435.03 47.225 1437.13 50.05 1439.73 52.5C1442.33 54.9 1445.16 56.775 1448.21 58.125C1448.51 58.625 1448.81 59.5 1449.11 60.75C1449.41 62 1449.56 63.1 1449.56 64.05C1449.56 65 1449.36 65.475 1448.96 65.475ZM1434.48 24C1434.83 26.8 1435.73 28.85 1437.18 30.15C1438.63 31.45 1440.21 32.1 1441.91 32.1C1443.66 32.1 1445.01 31.575 1445.96 30.525C1446.91 29.425 1447.38 28.25 1447.38 27C1447.38 25.6 1446.78 24.35 1445.58 23.25C1444.43 22.1 1442.83 21.525 1440.78 21.525C1438.28 21.525 1436.18 22.35 1434.48 24ZM1502.05 22.425H1498.6C1499 22.925 1499.27 23.45 1499.42 24C1499.62 24.5 1499.72 25 1499.72 25.5C1499.72 25.95 1499.65 26.45 1499.5 27C1499.35 27.5 1499.02 28.025 1498.52 28.575H1514.5L1514.8 34.425H1504C1505.4 35.675 1506.47 37.2 1507.22 39C1507.97 40.75 1508.35 42.65 1508.35 44.7C1508.35 47.2 1507.8 49.475 1506.7 51.525C1505.6 53.575 1504.1 55.2 1502.2 56.4C1500.3 57.55 1498.12 58.125 1495.67 58.125C1493.32 58.125 1491.17 57.55 1489.22 56.4C1487.27 55.25 1485.72 53.675 1484.57 51.675C1483.42 49.675 1482.85 47.4 1482.85 44.85C1482.85 42.65 1483.27 40.675 1484.12 38.925C1484.97 37.125 1486.12 35.625 1487.57 34.425H1477.37L1477.07 28.575H1494.85C1495.55 28.275 1496.07 27.9 1496.42 27.45C1496.82 27 1497.02 26.375 1497.02 25.575C1497.02 24.475 1496.65 23.675 1495.9 23.175C1495.15 22.675 1494.15 22.425 1492.9 22.425H1476.92L1476.55 15.9H1503.25C1505.65 15.9 1507.52 15.6 1508.87 15C1510.22 14.4 1511.17 13.625 1511.72 12.675C1512.27 11.725 1512.55 10.725 1512.55 9.675C1512.55 8.375 1512.22 7.1 1511.57 5.85C1510.92 4.55 1510.02 3.425 1508.87 2.475L1510.45 0.974997C1512.2 2.225 1513.6 3.775 1514.65 5.625C1515.7 7.425 1516.22 9.5 1516.22 11.85C1516.22 12.9 1516.05 14.05 1515.7 15.3C1515.4 16.5 1514.77 17.65 1513.82 18.75C1512.87 19.8 1511.45 20.675 1509.55 21.375C1507.65 22.075 1505.15 22.425 1502.05 22.425ZM1495.6 49.95C1498.25 49.95 1500.45 49.225 1502.2 47.775C1503.95 46.325 1504.82 44.45 1504.82 42.15C1504.82 39.85 1503.95 37.9 1502.2 36.3C1500.5 34.7 1498.35 33.9 1495.75 33.9C1494.1 33.9 1492.57 34.275 1491.17 35.025C1489.77 35.725 1488.65 36.7 1487.8 37.95C1486.95 39.2 1486.52 40.625 1486.52 42.225C1486.52 44.375 1487.35 46.2 1489 47.7C1490.7 49.2 1492.9 49.95 1495.6 49.95ZM1536.09 64.575L1533.99 66.675C1530.79 63.725 1528.39 60.625 1526.79 57.375C1525.24 54.175 1524.46 51 1524.46 47.85C1524.46 45.5 1524.86 43.35 1525.66 41.4C1526.51 39.45 1527.69 37.9 1529.19 36.75C1530.69 35.55 1532.49 34.95 1534.59 34.95C1536.54 34.95 1538.19 35.45 1539.54 36.45C1540.89 37.45 1542.06 38.7 1543.06 40.2C1544.11 41.65 1545.16 43.125 1546.21 44.625C1547.26 46.075 1548.46 47.3 1549.81 48.3C1551.21 49.3 1552.91 49.8 1554.91 49.8C1556.76 49.8 1558.21 49.375 1559.26 48.525C1560.36 47.625 1561.14 46.5 1561.59 45.15C1562.04 43.8 1562.26 42.425 1562.26 41.025C1562.26 38.775 1561.79 36.55 1560.84 34.35C1559.89 32.15 1558.51 30.175 1556.71 28.425C1554.96 26.625 1552.89 25.2 1550.49 24.15C1548.14 23.05 1545.54 22.5 1542.69 22.5H1525.29L1524.91 15.9H1553.26C1555.66 15.9 1557.54 15.6 1558.89 15C1560.24 14.4 1561.19 13.625 1561.74 12.675C1562.29 11.725 1562.56 10.725 1562.56 9.675C1562.56 8.375 1562.24 7.1 1561.59 5.85C1560.94 4.55 1560.04 3.425 1558.89 2.475L1560.46 0.974997C1564.31 3.725 1566.24 7.35 1566.24 11.85C1566.24 14.75 1565.29 17.2 1563.39 19.2C1561.49 21.2 1558.39 22.25 1554.09 22.35L1554.01 22.5C1555.81 23.6 1557.64 25.1 1559.49 27C1561.39 28.85 1562.99 31.15 1564.29 33.9C1565.59 36.65 1566.24 39.875 1566.24 43.575C1566.24 46.175 1565.86 48.575 1565.11 50.775C1564.41 52.975 1563.34 54.75 1561.89 56.1C1560.44 57.45 1558.61 58.125 1556.41 58.125C1554.46 58.125 1552.84 57.6 1551.54 56.55C1550.24 55.5 1549.09 54.2 1548.09 52.65C1547.09 51.1 1546.06 49.575 1545.01 48.075C1544.01 46.525 1542.81 45.225 1541.41 44.175C1540.01 43.125 1538.26 42.6 1536.16 42.6C1533.81 42.6 1532.01 43.325 1530.76 44.775C1529.51 46.175 1528.89 48.05 1528.89 50.4C1528.89 52.75 1529.51 55.175 1530.76 57.675C1532.06 60.225 1533.84 62.525 1536.09 64.575ZM1581.86 88.8C1580.06 88.8 1578.48 88.2 1577.13 87C1575.83 85.8 1574.58 84.375 1573.38 82.725C1570.28 85.125 1566.71 86.325 1562.66 86.325C1559.46 86.325 1556.83 85.5 1554.78 83.85C1552.73 82.25 1551.71 80.275 1551.71 77.925C1551.71 75.725 1552.58 73.95 1554.33 72.6C1556.03 71.3 1558.13 70.65 1560.63 70.65C1563.38 70.65 1565.68 71.325 1567.53 72.675C1569.38 74.075 1571.06 75.6 1572.56 77.25C1573.96 76.15 1575.11 74.8 1576.01 73.2C1576.91 71.6 1577.36 69.7 1577.36 67.5C1577.36 65.7 1577.01 63.875 1576.31 62.025C1575.61 60.225 1574.26 58.375 1572.26 56.475C1571.56 55.675 1571.21 54.625 1571.21 53.325C1571.21 52.175 1571.51 51.6 1572.11 51.6C1572.41 51.6 1572.98 51.95 1573.83 52.65C1574.68 53.35 1575.58 54.4 1576.53 55.8C1577.53 57.2 1578.38 58.925 1579.08 60.975C1579.78 63.025 1580.13 65.425 1580.13 68.175C1580.13 70.725 1579.73 73.025 1578.93 75.075C1578.13 77.175 1577.03 79.025 1575.63 80.625C1576.58 81.525 1577.53 82.275 1578.48 82.875C1579.48 83.475 1580.58 83.775 1581.78 83.775C1582.53 83.775 1583.43 83.5 1584.48 82.95C1585.53 82.45 1586.33 81.275 1586.88 79.425L1588.76 79.875C1588.36 82.925 1587.56 85.175 1586.36 86.625C1585.16 88.075 1583.66 88.8 1581.86 88.8ZM1570.23 78.675C1568.98 77.125 1567.58 75.8 1566.03 74.7C1564.48 73.65 1562.61 73.125 1560.41 73.125C1558.56 73.125 1557.16 73.525 1556.21 74.325C1555.21 75.125 1554.71 75.925 1554.71 76.725C1554.71 77.675 1555.38 78.525 1556.73 79.275C1558.03 80.075 1559.83 80.475 1562.13 80.475C1563.48 80.475 1564.86 80.325 1566.26 80.025C1567.66 79.725 1568.98 79.275 1570.23 78.675ZM1594.27 58.125C1591.87 58.125 1589.72 57.475 1587.82 56.175C1585.97 54.875 1584.49 53.125 1583.39 50.925C1582.34 48.725 1581.82 46.25 1581.82 43.5C1581.82 40.95 1582.37 38.325 1583.47 35.625C1584.57 32.925 1586.14 30.425 1588.19 28.125C1590.24 25.775 1592.72 23.9 1595.62 22.5H1582.19L1581.82 15.9H1620.44C1622.84 15.9 1624.72 15.6 1626.07 15C1627.42 14.4 1628.37 13.625 1628.92 12.675C1629.47 11.725 1629.74 10.725 1629.74 9.675C1629.74 8.375 1629.42 7.1 1628.77 5.85C1628.12 4.55 1627.22 3.425 1626.07 2.475L1627.64 0.974997C1629.39 2.225 1630.79 3.775 1631.84 5.625C1632.89 7.425 1633.42 9.5 1633.42 11.85C1633.42 12.9 1633.24 14.05 1632.89 15.3C1632.59 16.5 1631.97 17.65 1631.02 18.75C1630.07 19.85 1628.64 20.75 1626.74 21.45C1624.84 22.15 1622.34 22.5 1619.24 22.5H1618.57C1620.07 23.2 1621.37 24.075 1622.47 25.125C1623.62 26.175 1624.52 27.4 1625.17 28.8C1627.42 29.95 1629.34 31.8 1630.94 34.35C1632.59 36.9 1633.42 40.125 1633.42 44.025C1633.42 46.675 1632.87 49.075 1631.77 51.225C1630.72 53.375 1629.22 55.075 1627.27 56.325C1625.37 57.525 1623.17 58.125 1620.67 58.125C1618.82 58.125 1616.97 57.75 1615.12 57C1613.27 56.2 1611.59 54.975 1610.09 53.325C1608.59 51.675 1607.52 49.5 1606.87 46.8H1606.57C1605.67 50.4 1604.12 53.2 1601.92 55.2C1599.72 57.15 1597.17 58.125 1594.27 58.125ZM1607.32 38.7C1607.67 40.75 1608.37 42.625 1609.42 44.325C1610.47 46.025 1611.87 47.4 1613.62 48.45C1615.42 49.45 1617.49 49.95 1619.84 49.95C1622.09 49.95 1623.94 49.5 1625.39 48.6C1626.84 47.7 1627.89 46.55 1628.54 45.15C1629.24 43.7 1629.59 42.175 1629.59 40.575C1629.59 38.925 1629.29 37.425 1628.69 36.075C1628.09 34.675 1627.27 33.5 1626.22 32.55C1626.32 33.15 1626.37 33.775 1626.37 34.425C1626.37 37.275 1625.59 39.375 1624.04 40.725C1622.54 42.025 1620.87 42.675 1619.02 42.675C1617.07 42.675 1615.27 42 1613.62 40.65C1612.02 39.25 1611.22 37.325 1611.22 34.875C1611.22 32.375 1612.04 30.5 1613.69 29.25C1615.34 28 1617.27 27.375 1619.47 27.375C1620.07 27.375 1620.69 27.425 1621.34 27.525C1620.19 26.275 1618.79 25.275 1617.14 24.525C1615.49 23.775 1613.79 23.225 1612.04 22.875C1610.34 22.475 1608.82 22.275 1607.47 22.275C1604.82 22.275 1602.22 22.775 1599.67 23.775C1597.17 24.725 1594.89 26.05 1592.84 27.75C1590.79 29.4 1589.14 31.325 1587.89 33.525C1586.69 35.725 1586.09 38.05 1586.09 40.5C1586.09 43.4 1586.94 45.675 1588.64 47.325C1590.34 48.975 1592.52 49.8 1595.17 49.8C1597.92 49.8 1600.29 48.875 1602.29 47.025C1604.34 45.125 1605.62 42.35 1606.12 38.7H1607.32ZM1623.14 30.6C1622.09 30.15 1620.99 29.925 1619.84 29.925C1618.14 29.925 1616.77 30.35 1615.72 31.2C1614.72 32.05 1614.22 33.025 1614.22 34.125C1614.22 35.175 1614.64 36 1615.49 36.6C1616.39 37.2 1617.42 37.5 1618.57 37.5C1619.77 37.5 1620.89 37.15 1621.94 36.45C1622.99 35.7 1623.52 34.55 1623.52 33C1623.52 32.15 1623.39 31.35 1623.14 30.6ZM1715.7 58.125C1713 58.125 1710.63 57.55 1708.58 56.4C1706.58 55.2 1705 53.575 1703.85 51.525C1702.7 49.425 1702.13 47.05 1702.13 44.4C1702.13 41.75 1702.65 39.525 1703.7 37.725C1704.8 35.875 1706.23 34.5 1707.98 33.6C1709.73 32.65 1711.58 32.175 1713.53 32.175C1715.98 32.175 1717.85 32.825 1719.15 34.125C1720.5 35.375 1721.18 36.975 1721.18 38.925C1721.18 40.775 1720.63 42.175 1719.53 43.125C1718.43 44.075 1717.23 44.55 1715.93 44.55C1714.43 44.55 1713.25 44.075 1712.4 43.125C1711.6 42.125 1711.2 41 1711.2 39.75C1711.2 38.95 1711.38 38.175 1711.73 37.425C1712.08 36.675 1712.63 36 1713.38 35.4C1713.13 35.35 1712.93 35.325 1712.78 35.325C1712.63 35.325 1712.45 35.325 1712.25 35.325C1709.85 35.325 1707.98 36.1 1706.63 37.65C1705.28 39.2 1704.6 41.1 1704.6 43.35C1704.6 44.65 1704.9 46 1705.5 47.4C1706.1 48.8 1707.18 50 1708.73 51C1710.33 51.95 1712.55 52.425 1715.4 52.425C1718.6 52.425 1721.28 51.8 1723.43 50.55C1725.58 49.25 1727.18 47.575 1728.23 45.525C1729.33 43.475 1729.88 41.25 1729.88 38.85C1729.88 36.1 1729.15 33.5 1727.7 31.05C1726.25 28.55 1723.98 26.5 1720.88 24.9C1717.78 23.3 1713.78 22.5 1708.88 22.5H1685.78L1685.7 22.65C1687.1 23.7 1688.53 25.175 1689.98 27.075C1691.48 28.925 1692.75 31.175 1693.8 33.825C1694.85 36.475 1695.38 39.45 1695.38 42.75C1695.38 45.5 1694.95 48.05 1694.1 50.4C1693.25 52.7 1691.95 54.575 1690.2 56.025C1688.45 57.425 1686.25 58.125 1683.6 58.125C1680.7 58.125 1678.05 57.125 1675.65 55.125C1673.3 53.075 1671.7 50.05 1670.85 46.05H1670.55C1669.65 49.7 1667.98 52.625 1665.53 54.825C1663.13 57.025 1660.23 58.125 1656.83 58.125C1654.58 58.125 1652.63 57.675 1650.98 56.775C1649.38 55.825 1648.05 54.6 1647 53.1C1645.95 51.55 1645.18 49.875 1644.68 48.075C1644.18 46.275 1643.93 44.525 1643.93 42.825C1643.93 40.525 1644.35 38.4 1645.2 36.45C1646.05 34.45 1647.28 32.85 1648.88 31.65C1650.48 30.4 1652.38 29.775 1654.58 29.775C1656.88 29.775 1658.85 30.45 1660.5 31.8C1662.15 33.15 1662.98 34.925 1662.98 37.125C1662.98 38.625 1662.55 40.075 1661.7 41.475C1660.85 42.825 1659.7 44.05 1658.25 45.15L1656.75 44.025C1657.8 42.875 1658.33 41.65 1658.33 40.35C1658.33 39.15 1657.85 38.125 1656.9 37.275C1655.95 36.375 1654.7 35.925 1653.15 35.925C1651.2 35.925 1649.63 36.625 1648.43 38.025C1647.28 39.425 1646.7 41 1646.7 42.75C1646.7 43.9 1647.03 45.05 1647.68 46.2C1648.33 47.3 1649.38 48.2 1650.83 48.9C1652.33 49.6 1654.25 49.95 1656.6 49.95C1660.3 49.95 1663.33 48.95 1665.68 46.95C1668.03 44.95 1669.5 41.95 1670.1 37.95H1671.3C1671.75 41.3 1672.93 44.125 1674.83 46.425C1676.78 48.675 1679.38 49.8 1682.63 49.8C1685.78 49.8 1688.05 48.85 1689.45 46.95C1690.9 45 1691.63 42.65 1691.63 39.9C1691.63 37.85 1691.23 35.8 1690.43 33.75C1689.68 31.7 1688.6 29.825 1687.2 28.125C1685.8 26.425 1684.1 25.075 1682.1 24.075C1680.15 23.025 1677.98 22.5 1675.58 22.5H1646.18L1645.8 15.9H1708.5C1712.8 15.9 1716.48 16.525 1719.53 17.775C1722.63 19.025 1725.15 20.7 1727.1 22.8C1729.05 24.9 1730.48 27.25 1731.38 29.85C1732.33 32.45 1732.8 35.1 1732.8 37.8C1732.8 40.4 1732.4 42.925 1731.6 45.375C1730.85 47.775 1729.73 49.95 1728.23 51.9C1726.78 53.8 1724.98 55.325 1722.83 56.475C1720.73 57.575 1718.35 58.125 1715.7 58.125ZM1742.29 57C1742.59 48.3 1743.81 41.25 1745.96 35.85C1748.11 30.4 1750.56 26.35 1753.31 23.7L1753.16 23.475C1752.81 23.525 1752.41 23.575 1751.96 23.625C1751.51 23.675 1751.11 23.7 1750.76 23.7C1748.81 23.7 1747.11 23.15 1745.66 22.05C1744.21 20.95 1743.49 19.4 1743.49 17.4C1743.49 15.85 1743.96 14.375 1744.91 12.975C1745.91 11.575 1747.36 10.45 1749.26 9.6C1751.16 8.7 1753.46 8.25 1756.16 8.25C1758.56 8.25 1760.94 8.725 1763.29 9.675C1765.69 10.625 1767.99 12.3 1770.19 14.7C1772.44 17.1 1774.46 20.525 1776.26 24.975C1777.51 27.925 1778.56 31.2 1779.41 34.8C1780.31 38.4 1781.01 42.1 1781.51 45.9C1782.06 49.7 1782.39 53.4 1782.49 57H1774.61C1774.51 52.25 1774.24 47.8 1773.79 43.65C1773.34 39.45 1772.64 35.75 1771.69 32.55C1770.79 29.3 1769.56 26.775 1768.01 24.975C1766.51 23.125 1764.64 22.2 1762.39 22.2C1760.14 22.2 1758.24 23.125 1756.69 24.975C1755.19 26.775 1753.96 29.3 1753.01 32.55C1752.11 35.75 1751.44 39.45 1750.99 43.65C1750.54 47.8 1750.26 52.25 1750.16 57H1742.29ZM1761.94 19.65C1763.94 19.65 1765.91 20.125 1767.86 21.075C1769.81 21.975 1771.49 23.45 1772.89 25.5L1773.26 25.275C1771.41 21.075 1769.24 17.775 1766.74 15.375C1764.29 12.975 1761.41 11.775 1758.11 11.775C1756.01 11.775 1754.21 12.275 1752.71 13.275C1751.21 14.225 1750.46 15.5 1750.46 17.1C1750.46 18 1750.76 18.85 1751.36 19.65C1752.01 20.4 1753.14 20.775 1754.74 20.775C1756.04 20.775 1757.21 20.6 1758.26 20.25C1759.31 19.85 1760.54 19.65 1761.94 19.65ZM1811.58 58.125C1808.13 58.125 1805.01 57.3 1802.21 55.65C1799.41 54 1797.18 51.725 1795.53 48.825C1793.88 45.875 1793.06 42.55 1793.06 38.85C1793.06 35.4 1793.81 32.225 1795.31 29.325C1796.86 26.425 1799.01 24.15 1801.76 22.5H1791.93L1791.56 15.9H1818.18C1820.58 15.9 1822.46 15.6 1823.81 15C1825.16 14.4 1826.11 13.625 1826.66 12.675C1827.21 11.725 1827.48 10.725 1827.48 9.675C1827.48 8.375 1827.16 7.1 1826.51 5.85C1825.86 4.55 1824.96 3.425 1823.81 2.475L1825.38 0.974997C1827.13 2.225 1828.53 3.775 1829.58 5.625C1830.63 7.425 1831.16 9.5 1831.16 11.85C1831.16 13.1 1830.91 14.475 1830.41 15.975C1829.96 17.425 1828.98 18.75 1827.48 19.95C1826.03 21.1 1823.78 21.875 1820.73 22.275C1822.83 23.475 1824.53 24.975 1825.83 26.775C1827.13 28.575 1828.08 30.525 1828.68 32.625C1829.33 34.725 1829.66 36.825 1829.66 38.925C1831.01 42.525 1832.83 45.25 1835.13 47.1C1837.43 48.9 1840.03 49.8 1842.93 49.8C1846.03 49.8 1848.31 48.8 1849.76 46.8C1851.21 44.75 1851.93 42.35 1851.93 39.6C1851.93 37.45 1851.48 35.25 1850.58 33C1849.68 30.75 1848.23 28.675 1846.23 26.775C1844.28 24.825 1841.68 23.3 1838.43 22.2C1838.03 21.9 1837.71 21.475 1837.46 20.925C1837.21 20.325 1837.08 19.75 1837.08 19.2C1837.08 18.55 1837.23 18.025 1837.53 17.625C1837.88 17.225 1838.31 17.025 1838.81 17.025C1839.56 17.025 1840.61 17.45 1841.96 18.3C1843.31 19.15 1844.76 20.35 1846.31 21.9C1847.91 23.45 1849.41 25.3 1850.81 27.45C1852.26 29.6 1853.43 32 1854.33 34.65C1855.23 37.3 1855.68 40.125 1855.68 43.125C1855.68 45.675 1855.28 48.1 1854.48 50.4C1853.68 52.65 1852.46 54.5 1850.81 55.95C1849.16 57.4 1847.01 58.125 1844.36 58.125C1842.26 58.125 1840.21 57.525 1838.21 56.325C1836.21 55.075 1834.43 53.375 1832.88 51.225C1831.33 49.075 1830.18 46.625 1829.43 43.875H1829.06C1828.41 46.625 1827.23 49.075 1825.53 51.225C1823.88 53.375 1821.86 55.075 1819.46 56.325C1817.06 57.525 1814.43 58.125 1811.58 58.125ZM1811.43 49.8C1814.13 49.8 1816.56 49.225 1818.71 48.075C1820.86 46.925 1822.56 45.35 1823.81 43.35C1825.11 41.3 1825.76 38.975 1825.76 36.375C1825.76 33.775 1825.13 31.425 1823.88 29.325C1822.63 27.175 1820.93 25.475 1818.78 24.225C1816.63 22.925 1814.21 22.275 1811.51 22.275C1808.96 22.275 1806.58 22.9 1804.38 24.15C1802.18 25.4 1800.41 27.075 1799.06 29.175C1797.71 31.275 1797.03 33.65 1797.03 36.3C1797.03 38.9 1797.63 41.225 1798.83 43.275C1800.03 45.275 1801.71 46.875 1803.86 48.075C1806.01 49.225 1808.53 49.8 1811.43 49.8ZM1863.51 52.35C1863.51 50.8 1864.04 49.5 1865.09 48.45C1866.14 47.35 1867.41 46.8 1868.91 46.8C1870.61 46.8 1871.96 47.375 1872.96 48.525C1874.01 49.625 1874.54 50.9 1874.54 52.35C1874.54 53.85 1874.01 55.15 1872.96 56.25C1871.96 57.35 1870.61 57.9 1868.91 57.9C1867.41 57.9 1866.14 57.375 1865.09 56.325C1864.04 55.225 1863.51 53.9 1863.51 52.35Z" fill="black"/>
</svg>
